<?xml version="1.0" encoding="UTF-8" standalone="no"?>
<svg
   xml:space="preserve"
   viewBox="0 0 584.95548 633.29894"
   version="1.1"
   id="svg19"
   sodipodi:docname="minimal.svg"
   inkscape:version="1.4.2 (ebf0e940d0, 2025-05-08)"
   width="584.95551"
   height="633.29895"
   xmlns:inkscape="http://www.inkscape.org/namespaces/inkscape"
   xmlns:sodipodi="http://sodipodi.sourceforge.net/DTD/sodipodi-0.dtd"
   xmlns="http://www.w3.org/2000/svg"
   xmlns:svg="http://www.w3.org/2000/svg"><defs
   id="defs19" /><sodipodi:namedview
   id="namedview19"
   pagecolor="#ffffff"
   bordercolor="#000000"
   borderopacity="0.25"
   inkscape:showpageshadow="2"
   inkscape:pageopacity="0.0"
   inkscape:pagecheckerboard="0"
   inkscape:deskcolor="#d1d1d1"
   inkscape:zoom="0.90509668"
   inkscape:cx="1.6572815"
   inkscape:cy="-199.42621"
   inkscape:window-width="1918"
   inkscape:window-height="2158"
   inkscape:window-x="0"
   inkscape:window-y="0"
   inkscape:window-maximized="1"
   inkscape:current-layer="svg19" />
  
  
  
  
  <path
   d="m 225.03128,309.67776 a 50,50 0 0 1 50,-50 50,50 0 0 1 50,50 50,50 0 0 1 -50,50 50,50 0 0 1 -50,-50"
   style="fill:#616161;fill-opacity:1;stroke-width:2.25367;stroke-linecap:round;stroke-linejoin:round;paint-order:stroke fill markers"
   id="path4-3-9" /><path
   d="M 186.64293,426.35038 98.254587,514.73873 69.970316,486.45446 158.35866,398.06611 Z m 88.38835,-88.38834 -88.38835,88.38834 -28.28427,-28.28427 88.38835,-88.38834 z"
   style="fill:#616161;fill-opacity:1;stroke-width:1.30116;stroke-linecap:round;stroke-linejoin:round;paint-order:stroke fill markers"
   id="path2-5-2-7-6" /><path
   d="m 48.757112,535.95194 a 50,50 0 0 1 0,-70.71068 50,50 0 0 1 70.710678,0 50,50 0 0 1 0,70.71068 50,50 0 0 1 -70.710678,0"
   style="fill:#616161;fill-opacity:1;stroke-width:2.25367;stroke-linecap:round;stroke-linejoin:round;paint-order:stroke fill markers"
   id="path4-3-9-0-0" /><path
   d="m 200.78507,207.14728 -88.38835,-88.38835 -28.284272,28.28428 88.388352,88.38834 z m 88.38834,88.38835 -88.38834,-88.38835 -28.28427,28.28427 88.38834,88.38835 z"
   style="fill:#616161;fill-opacity:1;stroke-width:1.30116;stroke-linecap:round;stroke-linejoin:round;paint-order:stroke fill markers"
   id="path2-5-2-7-6-6" /><path
   d="m 62.899245,97.545731 a 50,50 0 0 0 0,70.710679 50,50 0 0 0 70.710675,0 50,50 0 0 0 0,-70.710679 50,50 0 0 0 -70.710675,0"
   style="fill:#616161;fill-opacity:1;stroke-width:2.25367;stroke-linecap:round;stroke-linejoin:round;paint-order:stroke fill markers"
   id="path4-3-9-0-0-1" />
  
  
  
  
  
  
  
  
  
  
  
  <path
   d="M -2.8312206e-7,82.90107 V 75.379582 L 27.176177,45.897547 q 4.556814,-4.941123 7.576389,-8.674416 3.019576,-3.733293 4.556814,-7.082277 1.537238,-3.403885 1.537238,-7.192079 0,-6.42346 -4.447011,-10.156753 -4.392109,-3.7332936 -10.925372,-3.7332936 -6.972474,0 -11.144978,4.1725036 -4.117603,4.172505 -4.117603,11.090077 H 0.21960519 q 0,-7.246981 3.34898351,-12.737118 Q 6.9175722,6.0940545 12.682216,3.0744792 18.44686,2.5779009e-6 25.748742,2.5779009e-6 q 7.301882,0 12.901821,3.0744766220991 5.654841,3.0195753 8.839121,8.1803038 3.239181,5.160729 3.239181,11.584189 0,4.447011 -1.59214,8.674416 -1.59214,4.172504 -5.59994,9.497937 -4.0078,5.325433 -11.25478,13.011625 L 14.384158,73.073725 v 0.658816 h 37.717241 v 9.168529 z"
   id="text15-7-2"
   style="font-size:112.438px;font-family:Inter;-inkscape-font-specification:Inter;fill:#616161;stroke-width:4.68661;stroke-linejoin:round;paint-order:stroke fill markers"
   aria-label="2 " /><path
   d="m 4.05395,633.29895 v -7.52149 l 27.176178,-29.48203 q 4.556813,-4.94113 7.576389,-8.67442 3.019575,-3.73329 4.556813,-7.08228 1.537239,-3.40388 1.537239,-7.19207 0,-6.42346 -4.447011,-10.15676 -4.39211,-3.73329 -10.925373,-3.73329 -6.972474,0 -11.144978,4.1725 -4.117602,4.17251 -4.117602,11.09008 H 4.2735555 q 0,-7.24698 3.3489835,-12.73712 3.348984,-5.49013 9.113627,-8.50971 5.764644,-3.07448 13.066526,-3.07448 7.301882,0 12.901822,3.07448 5.654841,3.01958 8.83912,8.1803 3.239181,5.16073 3.239181,11.58419 0,4.44701 -1.59214,8.67442 -1.592139,4.1725 -5.599939,9.49794 -4.0078,5.32543 -11.254781,13.01162 l -17.897846,19.05078 v 0.65881 h 37.71724 v 9.16853 z"
   id="text15-7-2-2"
   style="font-size:112.438px;font-family:Inter;-inkscape-font-specification:Inter;fill:#616161;stroke-width:4.68661;stroke-linejoin:round;paint-order:stroke fill markers"
   aria-label="2 " />
  
  <path
   d="m 294.95603,363.91464 v 81.803 h -10.267 v -72.14 h -0.549 l -19.765,14.658 v -11.2 l 17.789,-13.121 z"
   aria-label="a 1"
   style="font-size:112.438px;font-family:Inter;-inkscape-font-specification:Inter;fill:#616161;stroke-width:4.68661;stroke-linejoin:round;paint-order:stroke fill markers"
   id="path16-9"
   sodipodi:nodetypes="ccccccccc" />
  
  
  
<path
   id="path12-3-6-1"
   style="fill:#616161;stroke-width:2.2023;stroke-linejoin:round;stroke-dasharray:2.2023, 4.40461;paint-order:stroke fill markers"
   transform="rotate(90)"
   d="m 328.57678,-511.21552 a 18.899014,19.017635 0 0 1 -18.89902,19.01764 18.899014,19.017635 0 0 1 -18.89901,-19.01764 18.899014,19.017635 0 0 1 18.89901,-19.01763 18.899014,19.017635 0 0 1 18.89902,19.01763 z" /><path
   id="path12-9-9-8-7"
   style="fill:#616161;stroke-width:2.2023;stroke-linejoin:round;stroke-dasharray:2.2023, 4.40461;paint-order:stroke fill markers"
   transform="rotate(90)"
   d="m 328.57678,-565.93787 a 18.899014,19.017635 0 0 1 -18.89902,19.01764 18.899014,19.017635 0 0 1 -18.89901,-19.01764 18.899014,19.017635 0 0 1 18.89901,-19.01763 18.899014,19.017635 0 0 1 18.89902,19.01763 z" /><path
   id="path12-6-7-3-1"
   style="fill:#616161;stroke-width:2.2023;stroke-linejoin:round;stroke-dasharray:2.2023, 4.40461;paint-order:stroke fill markers"
   transform="rotate(90)"
   d="m 328.57678,-456.49313 a 18.899014,19.017635 0 0 1 -18.89902,19.01763 18.899014,19.017635 0 0 1 -18.89901,-19.01763 18.899014,19.017635 0 0 1 18.89901,-19.01764 18.899014,19.017635 0 0 1 18.89902,19.01764 z" /><path
   d="m 337.53128,329.67776 h -62.5 v -40 h 62.5 z m 62.5,0 h -62.5 v -40 h 62.5 z"
   style="fill:#616161;stroke-width:0.920059;stroke-linecap:round;stroke-linejoin:round;paint-order:stroke fill markers"
   id="path20" /></svg>
