<svg xmlns:inkscape="http://www.inkscape.org/namespaces/inkscape" xmlns:sodipodi="http://sodipodi.sourceforge.net/DTD/sodipodi-0.dtd" xmlns="http://www.w3.org/2000/svg" xmlns:svg="http://www.w3.org/2000/svg" xmlns:vectornator="http://vectornator.io" stroke-miterlimit="10" style="fill-rule:nonzero;clip-rule:evenodd;stroke-linecap:round;stroke-linejoin:round;" version="1.1" viewBox="0 0 500 500" xml:space="preserve" class="" id="svg5" sodipodi:docname="3a.svg" inkscape:version="1.3.2 (091e20ef0f, 2023-11-25)"><sodipodi:namedview id="namedview5" pagecolor="#ffffff" bordercolor="#000000" borderopacity="0.25" inkscape:showpageshadow="2" inkscape:pageopacity="0.0" inkscape:pagecheckerboard="0" inkscape:deskcolor="#d1d1d1" inkscape:zoom="3.738" inkscape:cx="250" inkscape:cy="250" inkscape:window-width="3840" inkscape:window-height="2091" inkscape:window-x="0" inkscape:window-y="0" inkscape:window-maximized="1" inkscape:current-layer="Layer-3"/>
    <defs id="defs1"/>

    <g clip-path="url(#ArtboardFrame_88)" id="Layer-1" vectornator:layerName="Layer 1" transform="matrix(1,0,0,-1,0,500)">
        <path d="M 0,0 C 21.2312,295.052 476.927,292.496 500,0" fill="none" opacity="1" class="stroke-orange stroke-orange" stroke="#ffb86c" stroke-linecap="round" stroke-linejoin="round" stroke-width="30" id="path1"/>
    </g>
    <g clip-path="url(#ArtboardFrame_88)" id="Layer-2" vectornator:layerName="Layer 2" transform="matrix(1,0,0,-1,0,500)">
        <path d="M 0,500 C 21.2312,203.989 476.927,206.552 500,500" fill="none" opacity="1" class="stroke-orange stroke-orange" stroke="#ffb86c" stroke-linecap="round" stroke-linejoin="round" stroke-width="30" id="path2"/>
    </g>
    <g clip-path="url(#ArtboardFrame_88)" id="Layer-3" vectornator:layerName="Layer 3" transform="matrix(1,0,0,-1,0,500)">
        <g opacity="1" id="g5">
            <clipPath id="ClipPath">
                <path d="m 459.963,160.865 -39.655,40.67 -58.38,-30.934 68.882,-60.414 -343.0523,-17.4273 -5.4097,27.5253 40.105,40.198 -35.9276,38.948 -41.5263,-40.057 -122.6475,94.657 26.569,73.414 133.5444,-11.886 226.536,30.764 162.91,-11.886 102.081,-129.349 z" id="path3"/>
            </clipPath>

        </g>
    <path d="M 0,250 C 10.86996,226.50524 26.690721,206.25835 46.102283,189.24988 M 126.99709,142.7645 c 73.53217,-26.70143 163.07784,-27.5136 237.73777,-2.651 m 93.11394,52.88675 C 475.48007,209.22596 489.899,228.22844 500,250" fill="none" opacity="1" class="" stroke="#ffb86c" stroke-linecap="round" stroke-linejoin="round" stroke-width="30" id="path4" sodipodi:nodetypes="cccccc" style="fill-rule:nonzero;clip-rule:evenodd;stroke-linecap:round;stroke-linejoin:round"/></g>
</svg>
