<svg xmlns="http://www.w3.org/2000/svg" xmlns:vectornator="http://vectornator.io" xml:space="preserve" stroke-miterlimit="10" style="clip-rule:evenodd;fill-rule:nonzero;stroke-linecap:round;stroke-linejoin:round" viewBox="0 0 530 527.188"><g vectornator:layerName="Layer 2" clip-path="url(#ArtboardFrame_92)" transform="matrix(1 0 0 -1 15 514.52)"><clipPath id="a"><path d="M450.763-.268 240.638 199.31l51.112 53.951-30.851 47.36-60.503-61.07-231.135 240.872L72.924 631.959l445.703-18.639 91.553-112.934-4.934-310.841-10.965-202.841L530.139-73.6Z"/></clipPath><path fill="none" stroke="#ffb86c" stroke-linecap="butt" stroke-width="30" d="M447.908 143.026c30.178 27.792 54.36 63.446 69.126 106.974 776.13 1078.384-682.873 457.256-531.246 265.438L207.33 294.221m89.163-89.033L514.125-12.125c491.66-172.989 430.11 369.986 246.667 546.927M646.69 588.597c-43.018.008-87.668-23.013-130.451-77.838L-13.511-12.432c-370.948-211.05-203.598 553.024-1.82 265.839 14.053-45.252 38.372-82.175 69.191-110.756m115.698-62.826c52.845-14.193 109.971-14.075 162.936.385" style="clip-rule:evenodd;fill-rule:nonzero;stroke-linecap:round;stroke-linejoin:round"/></g></svg>