<svg xmlns="http://www.w3.org/2000/svg" viewBox="0 0 179.234 97.716"><path d="m7.948 28.393 10-15m0 0 10 15" class="stroke-comment fill-comment" style="display:inline;fill:none;stroke:#616161;stroke-width:1.065;stroke-dasharray:none;stroke-opacity:1"/><path d="M5.47 26.818q.225.048.35.2.127.152.127.375 0 .343-.236.53-.235.188-.67.188-.145 0-.3-.03-.153-.028-.317-.085v-.302q.13.076.285.114.155.04.324.04.295 0 .448-.117.155-.116.155-.338 0-.205-.144-.32-.142-.116-.398-.116h-.27V26.7h.282q.23 0 .354-.092.122-.093.122-.266 0-.178-.127-.273-.126-.096-.361-.096-.13 0-.276.028t-.324.087v-.28q.178-.05.333-.074.157-.025.295-.025.356 0 .564.163.208.16.208.437 0 .193-.11.326-.11.132-.313.183z" aria-label="3" class="stroke-comment fill-comment stroke-comment" style="font-size:3.175px;display:inline;fill:#616161;stroke:#616161;stroke-width:.265"/><path d="M15.96 12.17h1.092v.265h-1.47v-.264l.487-.494q.308-.312.387-.402.15-.17.21-.285.06-.118.06-.231 0-.185-.13-.3-.13-.117-.336-.117-.148 0-.312.05-.163.052-.35.156v-.316q.19-.076.355-.115t.3-.04q.36 0 .574.18t.214.48q0 .144-.054.273-.053.127-.194.3-.04.046-.247.26t-.586.6zm39.084 1.607h1.093v.264h-1.47v-.264q.177-.184.484-.494.31-.312.388-.402.15-.17.21-.285.06-.118.06-.231 0-.184-.13-.3-.13-.117-.337-.117-.147 0-.312.05-.162.052-.348.156v-.316q.19-.076.353-.115.165-.04.3-.04.36 0 .575.18t.214.48q0 .144-.055.273-.053.127-.194.3-.038.046-.246.26z" aria-label="2" class="stroke-comment fill-comment stroke-comment" style="font-size:3.175px;display:inline;fill:#616161;stroke:#616161;stroke-width:.265"/><path d="M30.097 27.35h.835v.255h-.836zm2.278-.25q.226.048.35.2.128.152.128.375 0 .343-.235.53-.236.188-.67.188-.146 0-.3-.03-.154-.027-.32-.085v-.302q.13.076.287.115.155.038.324.038.294 0 .448-.116t.155-.338q0-.204-.144-.32-.143-.115-.4-.115h-.27v-.258h.284q.23 0 .353-.091.123-.093.123-.267 0-.178-.128-.273-.125-.096-.36-.096-.13 0-.277.028t-.324.087v-.28q.178-.05.334-.074.156-.025.294-.024.356 0 .563.162.208.162.208.437 0 .193-.11.326-.11.132-.313.183zm11.817 2.969h.835v.254h-.835z" aria-label="-3" class="stroke-comment fill-comment stroke-comment" style="font-size:3.175px;display:inline;fill:#616161;stroke:#616161;stroke-width:.265"/><path d="M8.494 27.237c.578.283.814.987.526 1.573-.286.585-.987.83-1.565.548a1.173 1.173 0 0 1-.527-1.573c.287-.586.988-.83 1.565-.548M19.129 13.38c0 .643-.529 1.165-1.18 1.165-.652 0-1.18-.522-1.18-1.165s.528-1.164 1.18-1.164c.65 0 1.179.52 1.18 1.164m9.292 13.846c.579.283.815.987.527 1.573-.286.585-.987.83-1.565.548a1.173 1.173 0 0 1-.527-1.573c.287-.586.988-.83 1.565-.548" class="stroke-comment fill-comment" style="display:inline;fill:#616161;stroke-width:.0762529"/><path d="M17.948 13.393 35.405 1.178" class="stroke-comment fill-comment" style="display:inline;fill:none;stroke:#616161;stroke-width:1.065;stroke-dasharray:none;stroke-opacity:1"/><path d="m35.405 1.178 17.448 11.817" class="stroke-comment fill-comment" style="fill:none;stroke:#616161;stroke-width:1.066;stroke-linejoin:round;stroke-miterlimit:4.1;stroke-dasharray:none"/><path d="M52.45 14.104a1.165 1.18 20 0 1-.69-1.508 1.165 1.18 20 0 1 1.497-.71 1.165 1.18 20 0 1 .69 1.507 1.165 1.18 20 0 1-1.497.71" class="stroke-comment fill-comment" style="display:inline;fill:#616161;stroke-width:.0762529"/><path d="m52.854 12.995-9.907 15.398m-.118-.16" class="stroke-comment fill-comment" style="fill:none;stroke:#616161;stroke-width:1.06583;stroke-linejoin:round;stroke-miterlimit:4.1;stroke-dasharray:none"/><path d="M42.638 29.439a1.165 1.18 20 0 1-.69-1.508 1.165 1.18 20 0 1 1.498-.711 1.165 1.18 20 0 1 .69 1.508 1.165 1.18 20 0 1-1.498.71" class="stroke-comment fill-comment" style="display:inline;fill:#616161;stroke-width:.0762529"/><path d="M10.884 78.84q-.243 0-.365.24-.12.237-.12.714 0 .476.12.715.122.237.364.237.244 0 .364-.237.123-.24.123-.715 0-.477-.123-.714-.12-.24-.364-.24zm0-.247q.39 0 .593.308.206.307.206.893 0 .585-.206.893-.205.307-.594.307-.388 0-.594-.307-.206-.308-.206-.893 0-.586.205-.893.206-.308.595-.308z" aria-label="0" class="stroke-comment fill-comment stroke-comment" style="font-size:3.175px;fill:#616161;stroke:#616161;stroke-width:.265"/><path d="M25.79 94.926 25 96.162h.79zm-.081-.273h.394v1.509h.33v.26h-.33v.546h-.313v-.546h-1.045v-.302z" aria-label="4" class="stroke-comment fill-comment stroke-comment" style="font-size:3.175px;fill:#616161;stroke:#616161;stroke-width:.265"/><path d="M1.18 96.29q.225.049.35.2.127.153.127.376 0 .342-.235.53-.236.188-.67.188-.147 0-.3-.03-.155-.028-.32-.085v-.302q.13.076.286.114.155.04.324.04.295 0 .449-.117.155-.116.155-.338 0-.205-.144-.32-.143-.116-.4-.116h-.27v-.257h.283q.23 0 .354-.092.123-.093.123-.266 0-.18-.128-.273-.125-.096-.36-.096-.13 0-.278.028-.147.028-.324.086v-.28q.178-.05.334-.073.156-.025.294-.025.357 0 .564.163.208.16.208.437 0 .192-.11.326-.11.13-.313.183z" aria-label="3" class="stroke-comment fill-comment stroke-comment" style="font-size:3.175px;fill:#616161;stroke:#616161;stroke-width:.265"/><path d="m33.042 43.79-19.94 37.632 10 15" class="stroke-comment fill-comment" style="fill:none;stroke:#616161;stroke-width:1.06583;stroke-dasharray:none;stroke-opacity:1"/><path d="m13.103 81.422-10 15M33.08 61.555l-.158-17.923" class="stroke-comment fill-comment" style="fill:none;stroke:#616161;stroke-width:1.065;stroke-dasharray:none;stroke-opacity:1"/><path d="M12.793 82.524a1.165 1.18 20 0 1-.69-1.508 1.165 1.18 20 0 1 1.498-.71 1.165 1.18 20 0 1 .69 1.507 1.165 1.18 20 0 1-1.498.71M2.847 97.317a1.165 1.18 20 0 1-.69-1.508 1.165 1.18 20 0 1 1.496-.711 1.165 1.18 20 0 1 .691 1.508 1.165 1.18 20 0 1-1.498.71m19.865 0a1.165 1.18 20 0 1-.692-1.507 1.165 1.18 20 0 1 1.498-.711 1.165 1.18 20 0 1 .69 1.508 1.165 1.18 20 0 1-1.496.71" class="stroke-comment fill-comment" style="fill:#616161;stroke-width:.0762529"/><path d="M52.436 86.158h.511v-1.765l-.557.11v-.284l.554-.112h.313v2.05h.513v.265h-1.335z" aria-label="1" class="stroke-comment fill-comment stroke-comment" style="font-size:3.175px;fill:#616161;stroke:#616161;stroke-width:.265"/><path d="M65.745 97.158h1.092v.264h-1.47v-.264q.179-.184.486-.494.309-.312.388-.402.15-.17.21-.285.06-.118.06-.23 0-.185-.13-.302t-.337-.116q-.147 0-.311.05-.164.053-.35.156v-.316q.19-.076.354-.115.165-.038.3-.038.36 0 .574.18t.214.48q0 .143-.055.27-.052.128-.193.302-.039.045-.247.26zm-25.943.094h1.095v.263h-1.47v-.264q.178-.184.485-.494.309-.312.388-.402.15-.17.21-.285.06-.118.06-.231 0-.184-.13-.3-.131-.117-.337-.117-.148 0-.313.05-.161.052-.347.156v-.316q.189-.076.353-.115t.3-.04q.36 0 .574.18t.213.48q0 .145-.054.273-.053.127-.194.3-.038.046-.246.26z" aria-label="2" class="stroke-comment fill-comment stroke-comment" style="font-size:3.175px;fill:#616161;stroke:#616161;stroke-width:.265"/><path d="M33.103 64.422q-.224 0-.353.12-.126.119-.126.328t.126.329q.13.12.353.12t.351-.12.13-.33q0-.21-.13-.328-.126-.12-.352-.12zm-.314-.133q-.202-.05-.315-.188-.11-.138-.11-.336 0-.278.196-.44.198-.16.542-.16.347 0 .544.16.195.162.195.44 0 .198-.113.336-.11.138-.31.188.225.052.351.206.127.153.127.375 0 .336-.206.516-.205.18-.588.18t-.59-.18q-.204-.18-.204-.516 0-.222.127-.375.127-.154.354-.206zm-.115-.495q0 .18.112.28.113.102.316.102t.316-.101q.113-.101.113-.28t-.114-.281q-.113-.101-.315-.101t-.315.1q-.113.1-.113.28z" aria-label="8" class="stroke-comment fill-comment stroke-comment" style="font-size:3.175px;fill:#616161;stroke:#616161;stroke-width:.265"/><path d="m33.042 43.79 20.06 37.632 10 15" class="stroke-comment fill-comment" style="fill:none;stroke:#616161;stroke-width:1.06583;stroke-dasharray:none;stroke-opacity:1"/><path d="m53.103 81.422-10 15" class="stroke-comment fill-comment" style="fill:none;stroke:#616161;stroke-width:1.065;stroke-dasharray:none;stroke-opacity:1"/><path d="M54.103 82.144a1.18 1.165 33.033 0 1-1.626.333 1.18 1.165 33.033 0 1-.353-1.62 1.18 1.165 33.033 0 1 1.623-.333 1.18 1.165 33.033 0 1 .356 1.62M44.084 97.102a1.18 1.165 33.033 0 1-1.625.332 1.18 1.165 33.033 0 1-.354-1.62 1.18 1.165 33.033 0 1 1.625-.333 1.18 1.165 33.033 0 1 .355 1.62M34.08 62.199a1.18 1.165 33.033 0 1-1.625.333 1.18 1.165 33.033 0 1-.355-1.62 1.18 1.165 33.033 0 1 1.626-.333 1.18 1.165 33.033 0 1 .354 1.62m30.025 34.843a1.18 1.165 33.033 0 1-1.624.333 1.18 1.165 33.033 0 1-.356-1.62 1.18 1.165 33.033 0 1 1.626-.333 1.18 1.165 33.033 0 1 .354 1.62" class="stroke-comment fill-comment" style="fill:#616161;stroke-width:.0762529"/><path d="m52.854 12.995-9.907 15.398m0 0L33.042 43.79m-.117-.16" class="stroke-comment fill-comment" style="fill:none;stroke:#616161;stroke-width:1.06583;stroke-linejoin:round;stroke-miterlimit:4.1;stroke-dasharray:none"/><path d="M45.852 31.11h1.093v.264h-1.47v-.263q.179-.185.486-.495.308-.311.387-.401.15-.17.21-.286.06-.117.06-.23 0-.185-.13-.301-.13-.117-.336-.117-.148 0-.312.052-.163.05-.35.155v-.317q.19-.076.355-.114.164-.04.3-.04.36 0 .574.18t.214.48q0 .144-.054.273-.053.127-.194.3-.04.045-.248.26-.206.215-.585.6z" aria-label="2" class="stroke-comment fill-comment stroke-comment" style="font-size:3.175px;display:inline;fill:#616161;stroke:#616161;stroke-width:.265"/><path d="m115.169 28.392 10-15m0 0 10 15" class="stroke-comment fill-comment" style="display:inline;fill:none;stroke:#616161;stroke-width:1.065;stroke-dasharray:none;stroke-opacity:1"/><path d="M138.02 27.413q.225.048.35.2.128.152.128.375 0 .343-.236.53-.235.188-.67.188-.145 0-.3-.03-.154-.028-.318-.085v-.302q.13.076.285.114.155.04.324.04.295 0 .448-.117.155-.116.155-.338 0-.205-.144-.32-.142-.116-.398-.116h-.27v-.257h.282q.231 0 .354-.091.123-.093.123-.267 0-.178-.127-.273-.126-.096-.361-.096-.13 0-.276.028t-.324.087v-.28q.178-.05.333-.074.157-.025.295-.025.355 0 .563.163.208.16.208.437 0 .193-.11.326-.11.132-.314.183z" aria-label="3" class="stroke-comment fill-comment stroke-comment" style="font-size:3.175px;display:inline;fill:#616161;stroke:#616161;stroke-width:.265"/><path d="M122.944 12.158h1.092v.263h-1.47v-.264l.487-.494q.308-.312.388-.402.15-.17.209-.285.06-.118.06-.231 0-.184-.13-.3-.13-.117-.336-.117-.148 0-.312.05-.163.052-.35.156v-.316q.19-.076.355-.115t.3-.04q.36 0 .574.18t.214.48q0 .144-.054.273-.053.127-.194.3-.04.046-.247.26t-.586.6zm32.508 2.407h1.093v.263h-1.47v-.263q.178-.185.485-.495.309-.311.388-.401.15-.17.21-.286.06-.117.06-.23 0-.185-.13-.301-.13-.117-.337-.117-.147 0-.312.052-.162.05-.348.155v-.317q.189-.076.353-.114.164-.04.3-.04.36 0 .574.18t.214.48q0 .144-.054.273-.053.127-.194.3-.038.045-.246.26t-.586.6z" aria-label="2" class="stroke-yellow fill-yellow stroke-yellow" style="font-size:3.175px;display:inline;fill:#616161;fill-opacity:1;stroke:#616161;stroke-width:.265;stroke-opacity:1"/><path d="M109.647 27.664h.835v.254h-.835zm2.28-.251q.223.048.35.2t.126.375q0 .343-.236.53-.236.188-.67.188-.145 0-.3-.03-.154-.028-.318-.085v-.302q.13.076.285.114.155.04.324.04.295 0 .448-.117.155-.116.155-.338 0-.205-.144-.32-.143-.116-.398-.116h-.27v-.257h.282q.23 0 .353-.091.123-.093.123-.267 0-.178-.127-.273-.126-.096-.36-.096-.13 0-.277.028t-.324.087v-.28q.178-.05.333-.074.155-.025.294-.025.357 0 .565.163.207.16.207.437 0 .193-.11.326-.11.132-.313.183zm39.485 2.655h.836v.254h-.835z" aria-label="-3" class="stroke-comment fill-comment stroke-comment" style="font-size:3.175px;display:inline;fill:#616161;stroke:#616161;stroke-width:.265"/><path d="M115.716 27.236a1.165 1.18 26.087 0 1 .527 1.573 1.165 1.18 26.087 0 1-1.565.548 1.165 1.18 26.087 0 1-.527-1.573 1.165 1.18 26.087 0 1 1.565-.548m19.927-.01a1.165 1.18 26.087 0 1 .527 1.573 1.165 1.18 26.087 0 1-1.565.548 1.165 1.18 26.087 0 1-.527-1.573 1.165 1.18 26.087 0 1 1.565-.548" class="stroke-comment fill-comment" style="display:inline;fill:#616161;stroke-width:.0762529"/><path d="m125.169 13.392 17.5-12.092" class="stroke-comment fill-comment" style="display:inline;fill:#616161;fill-opacity:1;stroke:#616161;stroke-width:1.065;stroke-dasharray:none;stroke-opacity:1"/><path d="m142.67 1.3 17.405 11.694m0 0-9.905 15.398" class="stroke-comment fill-comment" style="fill:none;stroke:#616161;stroke-width:1.06583;stroke-linejoin:round;stroke-miterlimit:4.1;stroke-dasharray:none"/><path d="M149.86 29.438a1.165 1.18 20 0 1-.69-1.508 1.165 1.18 20 0 1 1.498-.711 1.165 1.18 20 0 1 .69 1.508 1.165 1.18 20 0 1-1.499.71" class="stroke-comment fill-comment" style="display:inline;fill:#616161;stroke-width:.0762529"/><path d="M118.106 78.84q-.242 0-.364.24-.122.237-.122.714 0 .476.12.715.124.237.366.237.244 0 .364-.237.123-.24.123-.715 0-.477-.123-.714-.12-.24-.364-.24zm0-.247q.39 0 .594.308.205.307.205.893 0 .585-.205.893-.206.307-.595.307-.388 0-.594-.307-.205-.308-.205-.893 0-.586.205-.893.206-.308.595-.308z" aria-label="0" class="stroke-comment fill-comment stroke-comment" style="font-size:3.175px;fill:#616161;stroke:#616161;stroke-width:.265"/><path d="m133.013 94.926-.79 1.236h.79zm-.083-.273h.394v1.509h.33v.26h-.33v.546h-.312v-.546h-1.045v-.302z" aria-label="4" class="stroke-yellow fill-yellow stroke-yellow" style="font-size:3.175px;fill:#616161;fill-opacity:.984314;stroke:#616161;stroke-width:.265;stroke-opacity:.984314"/><path d="M108.402 96.29q.224.049.35.2.126.153.126.376 0 .342-.235.53-.236.188-.67.188-.146 0-.3-.03-.154-.028-.319-.085v-.302q.13.076.286.114.155.04.324.04.294 0 .448-.117.155-.116.155-.338 0-.205-.144-.32-.143-.116-.399-.116h-.27v-.257h.283q.23 0 .353-.092.123-.093.123-.266 0-.18-.128-.273-.125-.096-.36-.096-.13 0-.277.028t-.324.086v-.28q.178-.05.334-.073.156-.025.294-.025.357 0 .564.163.208.16.208.437 0 .192-.11.326-.11.13-.313.183z" aria-label="3" class="stroke-yellow fill-yellow stroke-yellow" style="font-size:3.175px;fill:#616161;fill-opacity:.984314;stroke:#616161;stroke-width:.265;stroke-opacity:.984314"/><path d="m140.264 43.79-19.94 37.632 10 15" class="stroke-comment fill-comment" style="fill:none;stroke:#616161;stroke-width:1.06583;stroke-dasharray:none;stroke-opacity:1"/><path d="m120.325 81.422-10 15m29.978-34.867-.04-17.765" class="stroke-comment fill-comment" style="fill:none;stroke:#616161;stroke-width:1.065;stroke-dasharray:none;stroke-opacity:1"/><path d="M120.015 82.524a1.165 1.18 20 0 1-.69-1.508 1.165 1.18 20 0 1 1.497-.71 1.165 1.18 20 0 1 .69 1.507 1.165 1.18 20 0 1-1.496.71" class="stroke-comment fill-comment" style="fill:#616161;stroke-width:.0762529"/><path d="M110.068 97.316a1.165 1.18 20 0 1-.69-1.508 1.165 1.18 20 0 1 1.496-.711 1.165 1.18 20 0 1 .692 1.508 1.165 1.18 20 0 1-1.499.71zm19.864 0a1.165 1.18 20 0 1-.691-1.508 1.165 1.18 20 0 1 1.497-.711 1.165 1.18 20 0 1 .69 1.508 1.165 1.18 20 0 1-1.497.71z" class="stroke-yellow fill-yellow stroke-yellow" style="fill:#616161;fill-opacity:.984314;stroke:#616161;stroke-width:.0762529;stroke-opacity:.984314"/><path d="M159.658 86.158h.512v-1.765l-.557.11v-.284l.554-.112h.313v2.05h.512v.265h-1.334z" aria-label="1" class="stroke-comment fill-comment stroke-comment" style="font-size:3.175px;fill:#616161;stroke:#616161;stroke-width:.265"/><path d="M172.967 97.158h1.092v.264h-1.47v-.264q.178-.184.485-.494.31-.312.388-.402.15-.17.21-.285.06-.118.06-.23 0-.185-.13-.302t-.336-.116q-.147 0-.311.05-.163.053-.35.156v-.316q.19-.076.354-.115.165-.038.3-.038.36 0 .575.18.213.18.213.48 0 .143-.054.27-.053.128-.194.302-.038.045-.246.26zm-25.943.094h1.094v.263h-1.47v-.264q.178-.184.485-.494.31-.312.388-.402.15-.17.21-.285.06-.118.06-.231 0-.184-.13-.3-.13-.117-.336-.117-.147 0-.312.05-.162.052-.348.156v-.316q.189-.076.353-.115t.3-.04q.36 0 .574.18t.214.48q0 .145-.054.273-.053.127-.194.3-.038.046-.246.26z" aria-label="2" class="stroke-yellow fill-yellow stroke-yellow" style="font-size:3.175px;fill:#616161;fill-opacity:.984314;stroke:#616161;stroke-width:.265;stroke-opacity:.984314"/><path d="M140.325 64.422q-.223 0-.352.12-.128.119-.128.328t.127.329q.13.12.352.12.223 0 .352-.12.13-.121.13-.33t-.13-.328q-.125-.12-.351-.12zm-.313-.133q-.202-.05-.315-.188-.111-.138-.111-.336 0-.278.196-.44.199-.16.543-.16.346 0 .543.16.196.162.196.44 0 .198-.113.336-.111.138-.311.188.226.052.352.206.127.153.127.375 0 .336-.206.516-.205.18-.588.18t-.59-.18q-.204-.18-.204-.516 0-.222.127-.375.127-.154.354-.206zm-.115-.495q0 .18.112.28.113.102.316.102.202 0 .315-.101.114-.101.114-.28t-.114-.281q-.113-.101-.315-.101-.203 0-.316.1t-.112.28z" aria-label="8" class="stroke-comment fill-comment stroke-comment" style="font-size:3.175px;fill:#616161;stroke:#616161;stroke-width:.265"/><path d="m140.264 43.79 20.06 37.632 10 15" class="stroke-comment fill-comment" style="fill:none;stroke:#616161;stroke-width:1.06583;stroke-dasharray:none;stroke-opacity:1"/><path d="m160.325 81.422-10 15" class="stroke-comment fill-comment" style="fill:none;stroke:#616161;stroke-width:1.065;stroke-dasharray:none;stroke-opacity:1"/><path d="M161.325 82.144a1.18 1.165 33.033 0 1-1.625.333 1.18 1.165 33.033 0 1-.354-1.62 1.18 1.165 33.033 0 1 1.623-.333 1.18 1.165 33.033 0 1 .355 1.62" class="stroke-comment fill-comment" style="fill:#616161;stroke-width:.0762529"/><path d="M151.307 97.102a1.18 1.165 33.033 0 1-1.625.332 1.18 1.165 33.033 0 1-.354-1.62 1.18 1.165 33.033 0 1 1.623-.333 1.18 1.165 33.033 0 1 .355 1.62z" class="stroke-yellow fill-yellow stroke-yellow" style="fill:#616161;fill-opacity:.984314;stroke:#616161;stroke-width:.0762529;stroke-opacity:.984314"/><path d="M141.303 62.199a1.18 1.165 33.033 0 1-1.624.333 1.18 1.165 33.033 0 1-.355-1.62 1.18 1.165 33.033 0 1 1.625-.333 1.18 1.165 33.033 0 1 .354 1.62" class="stroke-comment fill-comment" style="fill:#616161;stroke-width:.0762529"/><path d="M171.329 97.042a1.18 1.165 33.033 0 1-1.626.333 1.18 1.165 33.033 0 1-.355-1.62 1.18 1.165 33.033 0 1 1.625-.333 1.18 1.165 33.033 0 1 .355 1.62z" class="stroke-yellow fill-yellow stroke-yellow" style="fill:#616161;fill-opacity:.984314;stroke:#616161;stroke-width:.0762529;stroke-opacity:.984314"/><path d="m160.075 12.994-9.905 15.398m-.001 0-9.906 15.398m-.118-.158" class="stroke-comment fill-comment" style="fill:none;stroke:#616161;stroke-width:1.06583;stroke-linejoin:round;stroke-miterlimit:4.1;stroke-dasharray:none"/><path d="M153.074 31.11h1.092v.263h-1.47v-.263q.18-.185.486-.495.308-.311.387-.401.15-.17.21-.285.06-.118.06-.231 0-.185-.13-.301-.129-.116-.337-.116-.147 0-.31.05-.164.052-.35.156v-.316q.19-.076.354-.115.165-.04.3-.04.36 0 .574.18.215.18.215.48 0 .144-.055.273-.052.127-.193.3-.04.045-.248.26t-.586.6z" aria-label="2" class="stroke-comment fill-comment stroke-comment" style="font-size:3.175px;display:inline;fill:#616161;stroke:#616161;stroke-width:.265"/><path d="M159.672 14.103a1.165 1.18 20 0 1-.691-1.508 1.165 1.18 20 0 1 1.498-.71 1.165 1.18 20 0 1 .69 1.507 1.165 1.18 20 0 1-1.498.71zm-33.322-.723a1.18 1.165 0 0 1-1.18 1.165 1.18 1.165 0 0 1-1.18-1.165 1.18 1.165 0 0 1 1.18-1.164 1.18 1.165 0 0 1 1.18 1.164z" class="stroke-yellow fill-yellow stroke-yellow" style="display:inline;fill:#616161;fill-opacity:1;stroke:#616161;stroke-width:.0762529;stroke-opacity:1"/><path d="m86.622 42.222.067 10.978 13.11-5.531zm-18.973 3.68v3.63h13.586v-3.63z" class="stroke-comment fill-comment" style="fill:none;stroke:#616161;stroke-width:7.68828;stroke-linejoin:miter;stroke-miterlimit:4.1"/><path d="M35.924.117c.579.284.815.988.527 1.573-.286.586-.987.831-1.565.548A1.173 1.173 0 0 1 34.36.665c.287-.585.987-.83 1.565-.548" style="display:inline;fill:#616161;stroke-width:.0762529"/><path d="M33.56 42.73c.579.283.815.988.527 1.573-.286.586-.987.831-1.565.548a1.173 1.173 0 0 1-.526-1.573c.286-.585.987-.83 1.565-.548" style="display:inline;fill:#ff851b;stroke-width:.0762529"/><g style="fill:#616161;fill-opacity:1;stroke:#616161;stroke-opacity:1"><path d="M35.924 2.395c.578.283.814.987.527 1.573-.286.585-.987.83-1.565.548a1.173 1.173 0 0 1-.527-1.573c.286-.586.987-.831 1.565-.548" style="display:inline;fill:#616161;fill-opacity:1;stroke:#616161;stroke-width:.0762529;stroke-opacity:1" transform="translate(107.265 -2.155)"/></g><g style="fill:#ff851b"><path d="M35.924 2.395c.578.283.814.987.527 1.573-.286.585-.987.83-1.565.548a1.173 1.173 0 0 1-.527-1.573c.286-.586.987-.831 1.565-.548" style="display:inline;fill:#ff851b;stroke-width:.0762529" transform="translate(104.859 40.335)"/></g><path d="m63.103 96.422 3.861-9.286" style="fill:#616161;fill-opacity:1;stroke:#616161;stroke-width:1.066;stroke-linejoin:round;stroke-dasharray:none;stroke-opacity:1;paint-order:stroke fill markers"/><path d="m52.854 12.995 3.861-9.286" style="fill:#616161;fill-opacity:1;stroke:#616161;stroke-width:1.066;stroke-linejoin:round;stroke-dasharray:none;stroke-opacity:1;paint-order:stroke fill markers" transform="translate(.249 68.427)"/><path d="M45.41 16.076 49.27 6.79" style="fill:#616161;fill-opacity:1;stroke:#616161;stroke-width:1.066;stroke-linejoin:round;stroke-dasharray:none;stroke-opacity:1;paint-order:stroke fill markers" transform="translate(125.564 79.346)"/><path d="m52.854 12.995 3.861-9.286" style="fill:#616161;fill-opacity:1;stroke:#616161;stroke-width:1.066;stroke-linejoin:round;stroke-dasharray:none;stroke-opacity:1;paint-order:stroke fill markers" transform="translate(108.116 67.529)"/><text xml:space="preserve" x="56.964" y="72.136" style="font-size:8.47591px;font-family:Inter;-inkscape-font-specification:Inter;text-align:start;writing-mode:lr-tb;direction:ltr;text-anchor:start;fill:#616161;fill-opacity:1;stroke:#616161;stroke-width:.0806726;stroke-linejoin:round;stroke-dasharray:none;stroke-opacity:1;paint-order:stroke fill markers"><tspan x="56.964" y="72.136" style="stroke-width:.0806726">ι</tspan></text><text xml:space="preserve" x="39.267" y="-8.107" style="font-size:8.47591px;font-family:Inter;-inkscape-font-specification:Inter;text-align:start;writing-mode:lr-tb;direction:ltr;text-anchor:start;fill:#616161;fill-opacity:1;stroke:#616161;stroke-width:.0806726;stroke-linejoin:round;stroke-dasharray:none;stroke-opacity:1;paint-order:stroke fill markers" transform="translate(27.004 94.113)"><tspan x="39.267" y="-8.107" style="stroke-width:.0806726">ι</tspan></text><text xml:space="preserve" x="39.267" y="-8.107" style="font-size:8.47591px;font-family:Inter;-inkscape-font-specification:Inter;text-align:start;writing-mode:lr-tb;direction:ltr;text-anchor:start;fill:#616161;fill-opacity:1;stroke:#616161;stroke-width:.0806726;stroke-linejoin:round;stroke-dasharray:none;stroke-opacity:1;paint-order:stroke fill markers" transform="translate(125.564 79.346)"><tspan x="39.267" y="-8.107" style="stroke-width:.0806726">ξ</tspan></text><text xml:space="preserve" x="39.032" y="-9.779" style="font-size:8.47591px;font-family:Inter;-inkscape-font-specification:Inter;text-align:start;writing-mode:lr-tb;direction:ltr;text-anchor:start;fill:#616161;fill-opacity:1;stroke:#616161;stroke-width:.0806726;stroke-linejoin:round;stroke-dasharray:none;stroke-opacity:1;paint-order:stroke fill markers" transform="translate(135.803 95.916)"><tspan x="39.032" y="-9.779" style="stroke-width:.0806726">η</tspan></text></svg>