<?xml version="1.0" encoding="UTF-8" standalone="no"?>
<svg
   xml:space="preserve"
   viewBox="0 0 99.999997 673"
   version="1.1"
   id="svg5"
   sodipodi:docname="00.svg"
   inkscape:version="1.4.2 (ebf0e940d0, 2025-05-08)"
   xmlns:inkscape="http://www.inkscape.org/namespaces/inkscape"
   xmlns:sodipodi="http://sodipodi.sourceforge.net/DTD/sodipodi-0.dtd"
   xmlns="http://www.w3.org/2000/svg"
   xmlns:svg="http://www.w3.org/2000/svg"><defs
   id="defs5" /><sodipodi:namedview
   id="namedview5"
   pagecolor="#ffffff"
   bordercolor="#000000"
   borderopacity="0.25"
   inkscape:showpageshadow="2"
   inkscape:pageopacity="0.0"
   inkscape:pagecheckerboard="0"
   inkscape:deskcolor="#d1d1d1"
   inkscape:zoom="1.0123895"
   inkscape:cx="105.19667"
   inkscape:cy="217.80155"
   inkscape:window-width="2254"
   inkscape:window-height="1502"
   inkscape:window-x="0"
   inkscape:window-y="0"
   inkscape:window-maximized="1"
   inkscape:current-layer="svg5" />



  <g
   id="g5"
   transform="translate(0,49.000001)"><path
     d="m 775,390 a 50,50 0 0 1 50,50 50,50 0 0 1 -50,50 50,50 0 0 1 -50,-50 50,50 0 0 1 50,-50"
     style="fill:#616161;stroke-width:2.25367;stroke-linecap:round;stroke-linejoin:round;paint-order:stroke fill markers"
     transform="translate(-725,-106)"
     id="path1" /><path
     d="M 755,440 V 190 h 40 v 250 z"
     style="fill:#616161;stroke-width:1.84011;stroke-linecap:round;stroke-linejoin:round;paint-order:stroke fill markers"
     id="path2"
     transform="translate(-725,-106)" /><path
     d="m 775,630 a 50,50 0 0 1 50,50 50,50 0 0 1 -50,50 50,50 0 0 1 -50,-50 50,50 0 0 1 50,-50"
     style="fill:#616161;stroke-width:2.25367;stroke-linecap:round;stroke-linejoin:round;paint-order:stroke fill markers"
     transform="translate(-725,-106)"
     id="path3" /><path
     d="M 755,680 V 430 h 40 v 250 z"
     style="fill:#616161;stroke-width:1.84011;stroke-linecap:round;stroke-linejoin:round;paint-order:stroke fill markers"
     transform="translate(-725,-106)"
     id="path4" /></g>


<path
   d="m 35.778604,0 h 14.806983 v 67.426152 q 0,4.60104 1.08752,6.943388 1.17117,2.342348 2.92793,3.1789 1.75676,0.752898 3.76449,0.752898 1.5058,0 3.26256,-0.334621 1.84041,-0.418277 2.59331,-0.669242 l -0.0836,12.548291 q -1.5058,0.585587 -4.01545,1.171174 -2.50966,0.585587 -6.44146,0.585587 -4.76835,0 -8.86746,-2.258693 -4.09911,-2.342348 -6.60877,-7.61263 -2.426003,-5.353938 -2.426003,-14.388707 z"
   id="text3"
   style="font-size:171.326px;font-family:'Roboto Condensed';-inkscape-font-specification:'Roboto Condensed, ';fill:#616161;stroke-width:15.1099;stroke-linejoin:round;paint-order:stroke fill markers"
   aria-label="ι" /></svg>
