<svg xmlns="http://www.w3.org/2000/svg" xml:space="preserve" viewBox="0 0 190.451 190.287"><g style="display:inline"><path d="M49.067 214.899c-1.862-1.4-1.866-1.53-.135-5.373 5.854-12.995 13.18-23.704 21.177-30.959 10.156-9.212 12.082-11.24 13.704-14.423 1.624-3.187 1.674-5.207.194-7.83-1.182-2.094-1.155-2.154 1.465-3.277 1.934-.829 2.215-.648 3.499 2.254 2.977 6.732-.42 13.278-12.387 23.862-11 9.73-18.563 20.582-24.36 34.957-.947 2.35-1.046 2.374-3.157.789zm109.197.093-.542-2.029c-.18-.679-.804-2.822-1.384-4.762s-1.48-5.115-2-7.056-1.245-4.639-1.613-5.997c-1.683-6.22-1.856-7.584-1.834-14.464.013-4.202.254-8.545.647-11.641.667-5.263.592-10.432-.2-13.82l-.427-1.826 1.608-2.164c1.707-2.296 1.748-2.295 2.586.063 1.687 4.744 2.006 10.978 1.036 20.216-1.31 12.472-1 14.946 4.079 32.701 1.149 4.016 2.089 7.557 2.089 7.87 0 .342.176.478.44.341.65-.335-1.096 1.11-2.797 2.317l-1.476 1.046zm-67.3-35.531c-2.577-.47-5.208-1.433-5.208-1.907 0-.235.697-1.11 1.548-1.946l1.547-1.519 1.937.434c1.1.246 3.213.365 4.891.275 7.082-.38 10.85-4.105 18.295-18.086 9.614-18.053 18.61-25.062 27.847-21.694 2.672.974 2.82 1.274 1.687 3.42-.98 1.858-1.239 1.923-3.777.962-3.997-1.515-9.266 1.436-14.508 8.123-2.538 3.238-3.834 5.413-9.543 16.018-6.77 12.578-14.771 17.731-24.716 15.92zm-20.953-11.389c-5.781-5.993-4.724-11.786 3.405-18.655 5.128-4.332 10.102-6.55 18.805-8.385 6.187-1.305 7.01-1.679 8.357-3.804.882-1.391 1.262-2.616 1.952-6.286.117-.623 1.594-1.511 4.13-2.485 2.03-.779-.075 8.944-2.66 12.283-2.163 2.795-3.472 3.363-12.07 5.236-6.957 1.516-11.798 3.88-16.39 8.004-5.188 4.66-5.573 7.137-1.738 11.191l1.694 1.792-1.437 1.48c-1.813 1.87-1.895 1.862-4.048-.37zm61.783-11.697c-4.306-2.205-4.928-3.567-2.713-5.942 1.124-1.205 1.486-1.21 2.563-.04 2.712 2.949 5.56 2.664 9.615-.962 7.579-6.775 11.146-17.33 10.102-29.895-1.283-15.454-.795-19.772 4.237-37.453.936-3.288 2.425-8.748 2.623-9.613.29-1.273.517-1.234 2.662.462 1.253.99 1.756 1.617 1.63 2.029-.1.327-.413 1.468-.697 2.536a543 543 0 0 1-1.201 4.41c-5.107 18.42-5.19 18.93-4.786 29.633.716 18.983.249 23.042-3.536 30.691-5.622 11.364-14.273 17.332-20.5 14.144zM65.295 144.85c-10.994-4.565-13.568-9.383-10.352-19.376 2.23-6.928 8.9-15.696 13.63-17.92 3.002-1.41 6.892-.973 9.51 1.072 1.54 1.202 1.563 1.296.585 2.419a31 31 0 0 0-1.323 1.646l-.585.799-1.234-.837c-3.051-2.068-4.499-1.743-8.104 1.82-5.726 5.657-9.218 13.184-8.881 19.14.133 2.357 4.428 5.302 11.792 8.086 3.539 1.338 3.499 1.219 1.058 3.14-2.21 1.74-1.935 1.74-6.096.011zm55.083-12.408c-1.453-16.26-2.2-16.868-12.718-10.361-8.356 5.17-12.997 6.135-18.381 3.821-2.604-1.118-2.755-1.542-1.22-3.414 1.513-1.847 1.384-1.813 3.391-.902 3.264 1.481 6.557.721 12.553-2.896 7.26-4.38 11.159-5.851 13.704-5.17 4.69 1.256 6.39 5.008 7.169 15.835l.318 4.41-1.816 1.66c-2.538 2.322-2.524 2.335-3-2.983zm-52.964-5.149c-2.321-.728-2.5-1.22-1.227-3.392.96-1.637 1.466-1.875 2.647-1.243 1.07.573 3.975.493 5.207-.144 1.807-.935 3.487-2.584 7.225-7.09 9.327-11.247 15.155-13.28 20.512-7.156 2.574 2.942 3.04 4.049 2.028 4.814-1.71 1.293-3.343 2.01-3.5 1.536-.428-1.281-2.575-3.86-3.665-4.403-2.464-1.225-5.719 1.003-11.153 7.635-7.701 9.4-11.643 11.46-18.074 9.443zM52.607 113.74c-1.369-3.018-1.905-6.01-1.639-9.143.756-8.898.685-10.767-.6-15.81-1.184-4.65-3.939-13.692-4.273-14.026-.092-.092.708-.88 1.777-1.751 1.07-.871 2.032-1.496 2.14-1.388.627.627 4.666 14.1 5.763 19.223.812 3.795.81 3.575.137 13.859-.168 2.56-.088 3.85.324 5.256l.546 1.864-1.4 2.063c-1.715 2.525-1.56 2.533-2.775-.147z" class="stroke-orange fill-orange stroke-orange" style="fill:#ff851b;fill-opacity:1;stroke:#ff851b;stroke-width:.352778;stroke-opacity:1" transform="translate(-9.223 -48.352)"/><path d="M95.987 238.496c-40.02-3.626-73.497-31.904-83.754-70.747-4.013-15.198-4.013-33.368 0-48.566 9.68-36.655 39.637-63.734 77.404-69.965 6.991-1.154 22.642-1.154 29.633 0 41.257 6.807 72.625 38.175 79.432 79.431 1.85 11.211.998 27.643-2.028 39.1-9.657 36.57-39.811 63.872-77.228 69.921-4.454.72-18.981 1.232-23.46.826m22.401-5.72c52.756-8.696 86.477-59.58 73.702-111.214-8.706-35.184-37.598-61.553-73.878-67.425-6.899-1.117-21.007-1.118-27.693-.003-39.313 6.559-69.069 36.348-75.386 75.472-1.068 6.615-1.147 20.3-.155 26.736 6.489 42.08 39.946 73.562 82.067 77.22 4.23.368 17.254-.112 21.343-.787" class="stroke-selection fill-selection" style="fill:#ddd;fill-opacity:1;stroke:none;stroke-width:.352778;stroke-opacity:1" transform="translate(-9.223 -48.352)"/></g><text xml:space="preserve" x="13.087" y="67.973" class="stroke-foreground fill-foreground" style="font-style:normal;font-weight:400;font-size:21.3333px;line-height:1.25;font-family:sans-serif;fill:#111;fill-opacity:1;stroke:none" transform="translate(-9.223 -48.352)"><tspan x="13.087" y="67.973" style="font-style:normal;font-variant:normal;font-weight:700;font-stretch:normal;font-size:21.3333px;font-family:Arial;-inkscape-font-specification:&quot;Arial Bold&quot;">NW</tspan></text><text xml:space="preserve" x="161.2" y="67.353" class="stroke-foreground fill-foreground" style="font-style:normal;font-weight:400;font-size:21.3333px;line-height:1.25;font-family:sans-serif;fill:#111;fill-opacity:1;stroke:none" transform="translate(-9.223 -48.352)"><tspan x="161.2" y="67.353" style="font-style:normal;font-variant:normal;font-weight:700;font-stretch:normal;font-size:21.3333px;font-family:Arial;-inkscape-font-specification:&quot;Arial Bold&quot;">NE</tspan></text><text xml:space="preserve" x="-40.422" y="156.859" class="stroke-foreground fill-foreground" style="font-style:normal;font-weight:400;font-size:21.3333px;line-height:1.25;font-family:sans-serif;fill:#111;fill-opacity:1;stroke:none" transform="translate(43.33 29.298)"><tspan x="-40.422" y="156.859" style="font-style:normal;font-variant:normal;font-weight:700;font-stretch:normal;font-size:21.3333px;font-family:Arial;-inkscape-font-specification:&quot;Arial Bold&quot;">SW</tspan></text><text xml:space="preserve" x="161.12" y="235.749" class="stroke-foreground fill-foreground" style="font-style:normal;font-weight:400;font-size:21.3333px;line-height:1.25;font-family:sans-serif;fill:#111;fill-opacity:1;stroke:none" transform="translate(-9.223 -48.352)"><tspan x="161.12" y="235.749" style="font-style:normal;font-variant:normal;font-weight:700;font-stretch:normal;font-size:21.3333px;font-family:Arial;-inkscape-font-specification:&quot;Arial Bold&quot;">SE</tspan></text></svg>