<?xml version="1.0" encoding="UTF-8" standalone="no"?>
<svg
   viewBox="0 0 2830.2701 1031.5564"
   version="1.1"
   id="svg12"
   sodipodi:docname="12b.svg"
   inkscape:version="1.4.2 (ebf0e940d0, 2025-05-08)"
   width="2830.27"
   height="1031.5564"
   xmlns:inkscape="http://www.inkscape.org/namespaces/inkscape"
   xmlns:sodipodi="http://sodipodi.sourceforge.net/DTD/sodipodi-0.dtd"
   xmlns="http://www.w3.org/2000/svg"
   xmlns:svg="http://www.w3.org/2000/svg">
  <defs
     id="defs12" />
  <sodipodi:namedview
     id="namedview12"
     pagecolor="#ffffff"
     bordercolor="#000000"
     borderopacity="0.25"
     inkscape:showpageshadow="2"
     inkscape:pageopacity="0.0"
     inkscape:pagecheckerboard="0"
     inkscape:deskcolor="#d1d1d1"
     inkscape:zoom="0.38228943"
     inkscape:cx="1454.3954"
     inkscape:cy="482.61863"
     inkscape:window-width="2234"
     inkscape:window-height="1418"
     inkscape:window-x="0"
     inkscape:window-y="0"
     inkscape:window-maximized="1"
     inkscape:current-layer="svg12-36-3" />
  <g
     id="g5"
     transform="translate(156.21604,286.95752)">
    <g
       id="svg12-1"
       transform="rotate(180,346.25751,162.81164)"
       style="fill:#ff851b">
      <g
         id="svg12-3-2"
         transform="matrix(-0.81559531,0.57862275,0.57862275,0.81559531,125.7483,34.498939)"
         style="fill:#ff851b">
        <path
           d="M 250,175.063 H 0 v -40 h 250 z"
           style="fill:#ff851b;stroke-width:1.84012;stroke-linecap:round;stroke-linejoin:round;paint-order:stroke fill markers"
           id="path1-6-7" />
      </g>
      <g
         id="svg12-7-0"
         transform="matrix(1,0,0,-1,36.521869,260.63975)"
         style="fill:#ff851b">
        <g
           id="svg12-3-5-9"
           transform="matrix(-0.81559531,0.57862275,0.57862275,0.81559531,89.226434,-26.7965)"
           style="fill:#ff851b">
          <path
             d="M 250,175.063 H 0 v -40 h 250 z"
             style="fill:#ff851b;stroke-width:1.84012;stroke-linecap:round;stroke-linejoin:round;paint-order:stroke fill markers"
             id="path1-6-3-3" />
        </g>
      </g>
      <ellipse
         style="fill:#ff851b;fill-opacity:0.998543;stroke:none;stroke-width:2.2023;stroke-linejoin:round;stroke-dasharray:2.2023, 4.40461;paint-order:stroke fill markers"
         id="path12-60"
         cx="24.516127"
         cy="163.02235"
         rx="18.899014"
         ry="19.017635" />
      <g
         id="svg12-2-6"
         transform="translate(-23.269233,-49.143319)"
         style="fill:#ff851b">
        <ellipse
           style="fill:#ff851b;fill-opacity:0.998543;stroke:none;stroke-width:2.2023;stroke-linejoin:round;stroke-dasharray:2.2023, 4.40461;paint-order:stroke fill markers"
           id="path12-9-2"
           cx="47.785358"
           cy="157.44334"
           rx="18.899014"
           ry="19.017635" />
      </g>
      <g
         id="svg12-5-6"
         transform="translate(-25.562735,372.21765)"
         style="fill:#ff851b">
        <ellipse
           style="fill:#ff851b;fill-opacity:0.998543;stroke:none;stroke-width:2.2023;stroke-linejoin:round;stroke-dasharray:2.2023, 4.40461;paint-order:stroke fill markers"
           id="path12-6-1"
           cx="50.078861"
           cy="-154.47296"
           rx="18.899014"
           ry="19.017635" />
      </g>
    </g>
    <g
       id="svg12-3"
       transform="matrix(-0.81559531,0.57862275,0.57862275,0.81559531,137.32076,38.187034)">
      <path
         d="M 250,175.063 H 0 v -40 h 250 z"
         style="fill:#0074d9;stroke-width:1.84012;stroke-linecap:round;stroke-linejoin:round;paint-order:stroke fill markers"
         id="path1-6" />
    </g>
    <g
       id="svg12-7"
       transform="matrix(1,0,0,-1,36.521869,260.63975)">
      <g
         id="svg12-3-5"
         transform="matrix(-0.81559531,0.57862275,0.57862275,0.81559531,89.226434,-26.7965)">
        <path
           d="M 250,175.063 H 0 v -40 h 250 z"
           style="fill:#0074d9;stroke-width:1.84012;stroke-linecap:round;stroke-linejoin:round;paint-order:stroke fill markers"
           id="path1-6-3" />
      </g>
    </g>
    <path
       d="m 477.04374,184.65569 h -250 v -40 h 250 z"
       style="fill:#616161;fill-opacity:1;stroke-width:1.84012;stroke-linecap:round;stroke-linejoin:round;paint-order:stroke fill markers"
       id="path2" />
    <text
       x="197.3421"
       y="91.395691"
       style="font-size:112.438px;font-family:Inter;-inkscape-font-specification:Inter;text-align:start;writing-mode:lr-tb;direction:ltr;text-anchor:start;fill:#616161;stroke-width:3.02362;stroke-linecap:round;stroke-linejoin:round;paint-order:stroke fill markers"
       id="text2"><tspan
         x="197.3421"
         y="91.395691"
         id="tspan2">a</tspan></text>
    <g
       id="svg12-29"
       transform="translate(241.10036,-19.890197)">
      <text
         x="197.3421"
         y="111.39569"
         style="font-size:112.438px;font-family:Inter;-inkscape-font-specification:Inter;text-align:start;writing-mode:lr-tb;direction:ltr;text-anchor:start;fill:#616161;stroke-width:3.02362;stroke-linecap:round;stroke-linejoin:round;paint-order:stroke fill markers"
         id="text2-1"><tspan
           x="197.3421"
           y="111.39569"
           id="tspan2-2">b</tspan></text>
    </g>
    <text
       x="709.25134"
       y="205.55719"
       style="font-size:112.438px;font-family:Inter;-inkscape-font-specification:Inter;text-align:start;writing-mode:lr-tb;direction:ltr;text-anchor:start;fill:#ff851b;stroke-width:3.02362;stroke-linecap:round;stroke-linejoin:round;paint-order:stroke fill markers"
       id="text2-7"><tspan
         x="709.25134"
         y="205.55719"
         id="tspan2-5"
         style="fill:#ff851b">2≤</tspan></text>
    <g
       id="svg12-36-3"
       transform="translate(-333.25265,113.81531)">
      <text
         x="171.76608"
         y="90.657585"
         style="font-size:112.438px;font-family:Inter;-inkscape-font-specification:Inter;text-align:start;writing-mode:lr-tb;direction:ltr;text-anchor:start;fill:#616161;stroke-width:3.02362;stroke-linecap:round;stroke-linejoin:round;paint-order:stroke fill markers"
         id="text2-7-5"><tspan
           x="171.76608"
           y="90.657585"
           id="tspan2-5-6"
           style="fill:#0074d9">1≤</tspan></text>
    </g>
    <path
       d="m 177.04374,164.65569 a 50,50 0 0 1 50,-50 50,50 0 0 1 50,50 50,50 0 0 1 -50,50 50,50 0 0 1 -50,-50"
       style="fill:#616161;stroke-width:2.25367;stroke-linecap:round;stroke-linejoin:round;paint-order:stroke fill markers"
       id="path3" />
    <path
       d="m 527.04374,164.65569 a 50,50 0 0 1 -50,50 50,50 0 0 1 -50,-50 50,50 0 0 1 50,-50 50,50 0 0 1 50,50"
       style="fill:#616161;stroke-width:2.25367;stroke-linecap:round;stroke-linejoin:round;paint-order:stroke fill markers"
       id="path6" />
    <ellipse
       style="fill:#0074d9;fill-opacity:0.998543;stroke:none;stroke-width:2.2023;stroke-linejoin:round;stroke-dasharray:2.2023, 4.40461;paint-order:stroke fill markers"
       id="path12"
       cx="24.516127"
       cy="163.02235"
       rx="18.899014"
       ry="19.017635" />
    <g
       id="svg12-2"
       transform="translate(-23.269233,-49.143319)">
      <ellipse
         style="fill:#0074d9;fill-opacity:0.998543;stroke:none;stroke-width:2.2023;stroke-linejoin:round;stroke-dasharray:2.2023, 4.40461;paint-order:stroke fill markers"
         id="path12-9"
         cx="47.785358"
         cy="157.44334"
         rx="18.899014"
         ry="19.017635" />
    </g>
    <g
       id="svg12-5"
       transform="translate(-25.562735,372.21765)">
      <ellipse
         style="fill:#0074d9;fill-opacity:0.998543;stroke:none;stroke-width:2.2023;stroke-linejoin:round;stroke-dasharray:2.2023, 4.40461;paint-order:stroke fill markers"
         id="path12-6"
         cx="50.078861"
         cy="-154.47296"
         rx="18.899014"
         ry="19.017635" />
    </g>
  </g>
  <g
     id="g4"
     transform="translate(494.21604,286.95752)">
    <g
       id="svg12-3-20"
       transform="matrix(-0.81559531,0.57862275,0.57862275,0.81559531,1382.4151,34.33517)">
      <path
         d="M 250,175.063 H 0 v -40 h 250 z"
         style="fill:#0074d9;stroke-width:1.84012;stroke-linecap:round;stroke-linejoin:round;paint-order:stroke fill markers"
         id="path1-6-2" />
    </g>
    <g
       id="svg12-7-3"
       transform="matrix(1,0,0,-1,1281.6162,256.78789)">
      <g
         id="svg12-3-5-7"
         transform="matrix(-0.81559531,0.57862275,0.57862275,0.81559531,89.226434,-26.7965)">
        <path
           d="M 250,175.063 H 0 v -40 h 250 z"
           style="fill:#0074d9;stroke-width:1.84012;stroke-linecap:round;stroke-linejoin:round;paint-order:stroke fill markers"
           id="path1-6-3-5" />
      </g>
    </g>
    <path
       d="m 1722.138,180.80383 h -250 v -40 h 250 z"
       style="fill:#616161;fill-opacity:1;stroke-width:1.84012;stroke-linecap:round;stroke-linejoin:round;paint-order:stroke fill markers"
       id="path2-9" />
    <text
       x="977.1344"
       y="1151.2521"
       style="font-size:112.438px;font-family:Inter;-inkscape-font-specification:Inter;text-align:start;writing-mode:lr-tb;direction:ltr;text-anchor:start;fill:#616161;stroke-width:3.02362;stroke-linecap:round;stroke-linejoin:round;paint-order:stroke fill markers"
       id="text2-2"
       transform="rotate(-45)"><tspan
         x="977.1344"
         y="1151.2521"
         id="tspan2-28">a-sign(a)</tspan></text>
    <g
       id="svg12-36-3-3"
       transform="translate(911.84165,109.96345)">
      <text
         x="171.76608"
         y="90.657585"
         style="font-size:112.438px;font-family:Inter;-inkscape-font-specification:Inter;text-align:start;writing-mode:lr-tb;direction:ltr;text-anchor:start;fill:#616161;stroke-width:3.02362;stroke-linecap:round;stroke-linejoin:round;paint-order:stroke fill markers"
         id="text2-7-5-6"><tspan
           x="171.76608"
           y="90.657585"
           id="tspan2-5-6-1"
           style="fill:#0074d9">1≤</tspan></text>
    </g>
    <path
       d="m 1422.138,160.80383 a 50,50 0 0 1 50,-50 50,50 0 0 1 50,50 50,50 0 0 1 -50,50 50,50 0 0 1 -50,-50"
       style="fill:#616161;stroke-width:2.25367;stroke-linecap:round;stroke-linejoin:round;paint-order:stroke fill markers"
       id="path3-2" />
    <path
       d="m 1772.138,160.80383 a 50,50 0 0 1 -50,50 50,50 0 0 1 -50,-50 50,50 0 0 1 50,-50 50,50 0 0 1 50,50"
       style="fill:#616161;stroke-width:2.25367;stroke-linecap:round;stroke-linejoin:round;paint-order:stroke fill markers"
       id="path6-9" />
    <ellipse
       style="fill:#0074d9;fill-opacity:0.998543;stroke:none;stroke-width:2.2023;stroke-linejoin:round;stroke-dasharray:2.2023, 4.40461;paint-order:stroke fill markers"
       id="path12-3"
       cx="1269.6105"
       cy="159.17049"
       rx="18.899014"
       ry="19.017635" />
    <g
       id="svg12-2-1"
       transform="translate(1221.8251,-52.995183)">
      <ellipse
         style="fill:#0074d9;fill-opacity:0.998543;stroke:none;stroke-width:2.2023;stroke-linejoin:round;stroke-dasharray:2.2023, 4.40461;paint-order:stroke fill markers"
         id="path12-9-9"
         cx="47.785358"
         cy="157.44334"
         rx="18.899014"
         ry="19.017635" />
    </g>
    <g
       id="svg12-5-4"
       transform="translate(1219.5316,368.36579)">
      <ellipse
         style="fill:#0074d9;fill-opacity:0.998543;stroke:none;stroke-width:2.2023;stroke-linejoin:round;stroke-dasharray:2.2023, 4.40461;paint-order:stroke fill markers"
         id="path12-6-7"
         cx="50.078861"
         cy="-154.47296"
         rx="18.899014"
         ry="19.017635" />
    </g>
    <text
       x="224.02411"
       y="-1690.8717"
       style="font-size:112.438px;font-family:Inter;-inkscape-font-specification:Inter;text-align:start;writing-mode:lr-tb;direction:ltr;text-anchor:start;fill:#616161;stroke-width:3.02362;stroke-linecap:round;stroke-linejoin:round;paint-order:stroke fill markers"
       id="text2-1-4"
       transform="rotate(90)"><tspan
         x="224.02411"
         y="-1690.8717"
         id="tspan2-2-5">-1⋅sign(a)</tspan></text>
    <g
       id="svg12-1-9-3"
       transform="rotate(180,1093.8047,160.88571)"
       style="fill:#ff851b">
      <g
         id="svg12-3-2-3-6"
         transform="matrix(-0.81559531,0.57862275,0.57862275,0.81559531,125.7483,34.498939)"
         style="fill:#ff851b">
        <path
           d="M 250,175.063 H 0 v -40 h 250 z"
           style="fill:#ff851b;stroke-width:1.84012;stroke-linecap:round;stroke-linejoin:round;paint-order:stroke fill markers"
           id="path1-6-7-6-1" />
      </g>
      <g
         id="svg12-7-0-0-0"
         transform="matrix(1,0,0,-1,36.521869,260.63975)"
         style="fill:#ff851b">
        <g
           id="svg12-3-5-9-6-6"
           transform="matrix(-0.81559531,0.57862275,0.57862275,0.81559531,89.226434,-26.7965)"
           style="fill:#ff851b">
          <path
             d="M 250,175.063 H 0 v -40 h 250 z"
             style="fill:#ff851b;stroke-width:1.84012;stroke-linecap:round;stroke-linejoin:round;paint-order:stroke fill markers"
             id="path1-6-3-3-2-3" />
        </g>
      </g>
      <ellipse
         style="fill:#ff851b;fill-opacity:0.998543;stroke:none;stroke-width:2.2023;stroke-linejoin:round;stroke-dasharray:2.2023, 4.40461;paint-order:stroke fill markers"
         id="path12-60-6-2"
         cx="24.516127"
         cy="163.02235"
         rx="18.899014"
         ry="19.017635" />
      <g
         id="svg12-2-6-1-0"
         transform="translate(-23.269233,-49.143319)"
         style="fill:#ff851b">
        <ellipse
           style="fill:#ff851b;fill-opacity:0.998543;stroke:none;stroke-width:2.2023;stroke-linejoin:round;stroke-dasharray:2.2023, 4.40461;paint-order:stroke fill markers"
           id="path12-9-2-8-6"
           cx="47.785358"
           cy="157.44334"
           rx="18.899014"
           ry="19.017635" />
      </g>
      <g
         id="svg12-5-6-7-1"
         transform="translate(-25.562735,372.21765)"
         style="fill:#ff851b">
        <ellipse
           style="fill:#ff851b;fill-opacity:0.998543;stroke:none;stroke-width:2.2023;stroke-linejoin:round;stroke-dasharray:2.2023, 4.40461;paint-order:stroke fill markers"
           id="path12-6-1-9-5"
           cx="50.078861"
           cy="-154.47296"
           rx="18.899014"
           ry="19.017635" />
      </g>
    </g>
    <path
       d="m 1972.138,180.80383 h -250 v -40 h 250 z"
       style="fill:#616161;fill-opacity:1;stroke-width:1.84012;stroke-linecap:round;stroke-linejoin:round;paint-order:stroke fill markers"
       id="path2-9-5" />
    <text
       x="2204.3457"
       y="201.70532"
       style="font-size:112.438px;font-family:Inter;-inkscape-font-specification:Inter;text-align:start;writing-mode:lr-tb;direction:ltr;text-anchor:start;fill:#ff851b;stroke-width:3.02362;stroke-linecap:round;stroke-linejoin:round;paint-order:stroke fill markers"
       id="text2-7-9-4"><tspan
         x="2204.3457"
         y="201.70532"
         id="tspan2-5-7-7"
         style="fill:#ff851b">2≤</tspan></text>
    <path
       d="m 2022.138,160.80383 a 50,50 0 0 1 -50,50 50,50 0 0 1 -50,-50 50,50 0 0 1 50,-50 50,50 0 0 1 50,50"
       style="fill:#616161;stroke-width:2.25367;stroke-linecap:round;stroke-linejoin:round;paint-order:stroke fill markers"
       id="path6-9-6" />
    <text
       x="1316.1597"
       y="1472.8599"
       style="font-size:112.438px;font-family:Inter;-inkscape-font-specification:Inter;text-align:start;writing-mode:lr-tb;direction:ltr;text-anchor:start;fill:#616161;stroke-width:3.02362;stroke-linecap:round;stroke-linejoin:round;paint-order:stroke fill markers"
       id="text2-1-4-5"
       transform="rotate(-45)"><tspan
         x="1316.1597"
         y="1472.8599"
         id="tspan2-2-5-6">b-sign(a)</tspan></text>
  </g>
  <path
     style="display:inline;fill:#616161;stroke:none;stroke-width:14.5867;stroke-miterlimit:4.1;stroke-dasharray:none"
     d="m 1299.9781,379.22212 v 54.51651 h -170.4773 v 44.47292 h 170.4773 v 54.516 l 131.1366,-76.75417 z"
     id="path1" />
</svg>
