<?xml version="1.0" encoding="UTF-8" standalone="no"?>
<svg
   viewBox="0 0 3054.3057 423.99185"
   version="1.1"
   id="svg12"
   sodipodi:docname="22.svg"
   inkscape:version="1.4.2 (ebf0e940d0, 2025-05-08)"
   width="3054.3057"
   height="423.99185"
   xmlns:inkscape="http://www.inkscape.org/namespaces/inkscape"
   xmlns:sodipodi="http://sodipodi.sourceforge.net/DTD/sodipodi-0.dtd"
   xmlns="http://www.w3.org/2000/svg"
   xmlns:svg="http://www.w3.org/2000/svg">
  <defs
     id="defs12" />
  <sodipodi:namedview
     id="namedview12"
     pagecolor="#ffffff"
     bordercolor="#000000"
     borderopacity="0.25"
     inkscape:showpageshadow="2"
     inkscape:pageopacity="0.0"
     inkscape:pagecheckerboard="0"
     inkscape:deskcolor="#d1d1d1"
     inkscape:zoom="0.27049495"
     inkscape:cx="1231.0766"
     inkscape:cy="-38.817731"
     inkscape:window-width="2234"
     inkscape:window-height="1418"
     inkscape:window-x="0"
     inkscape:window-y="0"
     inkscape:window-maximized="1"
     inkscape:current-layer="g6" />
  <g
     id="g6"
     transform="translate(-8.4548436,-257.48361)">
    <path
       d="M 196.20401,632.29116 400.10283,487.63547 376.95792,455.01166 173.0591,599.66735 Z"
       style="fill:#0074d9;stroke-width:1.84012;stroke-linecap:round;stroke-linejoin:round;paint-order:stroke fill markers"
       id="path1-6-2-4" />
    <path
       d="M 184.63155,306.66789 388.53038,451.32356 365.38547,483.94738 161.48664,339.2917 Z"
       style="fill:#0074d9;stroke-width:1.84012;stroke-linecap:round;stroke-linejoin:round;paint-order:stroke fill markers"
       id="path1-6-3-5-5" />
    <path
       d="m 638.5303,491.32357 h -250 v -40 h 250 z"
       style="fill:#616161;fill-opacity:1;stroke-width:1.84012;stroke-linecap:round;stroke-linejoin:round;paint-order:stroke fill markers"
       id="path2-9-4" />
    <text
       x="-8.6625853"
       y="604.59631"
       style="font-size:112.438px;font-family:Inter;-inkscape-font-specification:Inter;text-align:start;writing-mode:lr-tb;direction:ltr;text-anchor:start;fill:#616161;stroke-width:3.02362;stroke-linecap:round;stroke-linejoin:round;paint-order:stroke fill markers"
       id="text2-2-7"
       transform="rotate(-45)"><tspan
         x="-8.6625853"
         y="604.59631"
         id="tspan2-28-4">a</tspan></text>
    <text
       x="3.2763674e-05"
       y="511.14078"
       style="font-size:112.438px;font-family:Inter;-inkscape-font-specification:Inter;text-align:start;writing-mode:lr-tb;direction:ltr;text-anchor:start;fill:#616161;stroke-width:3.02362;stroke-linecap:round;stroke-linejoin:round;paint-order:stroke fill markers"
       id="text2-7-5-6-3"><tspan
         x="3.2763674e-05"
         y="511.14078"
         id="tspan2-5-6-1-0"
         style="fill:#0074d9">2≤</tspan></text>
    <path
       d="m 338.5303,471.32357 a 50,50 0 0 1 50,-50 50,50 0 0 1 50,50 50,50 0 0 1 -50,50 50,50 0 0 1 -50,-50"
       style="fill:#616161;stroke-width:2.25367;stroke-linecap:round;stroke-linejoin:round;paint-order:stroke fill markers"
       id="path3-2-7" />
    <path
       d="m 688.5303,471.32357 a 50,50 0 0 1 -50,50 50,50 0 0 1 -50,-50 50,50 0 0 1 50,-50 50,50 0 0 1 50,50"
       style="fill:#616161;stroke-width:2.25367;stroke-linecap:round;stroke-linejoin:round;paint-order:stroke fill markers"
       id="path6-9-8" />
    <ellipse
       style="fill:#0074d9;fill-opacity:0.998543;stroke:none;stroke-width:2.2023;stroke-linejoin:round;stroke-dasharray:2.2023, 4.40461;paint-order:stroke fill markers"
       id="path12-3-6"
       cx="186.00278"
       cy="469.69022"
       rx="18.899014"
       ry="19.017635" />
    <ellipse
       style="fill:#0074d9;fill-opacity:0.998543;stroke:none;stroke-width:2.2023;stroke-linejoin:round;stroke-dasharray:2.2023, 4.40461;paint-order:stroke fill markers"
       id="path12-9-9-8"
       cx="186.00276"
       cy="414.9679"
       rx="18.899014"
       ry="19.017635" />
    <ellipse
       style="fill:#0074d9;fill-opacity:0.998543;stroke:none;stroke-width:2.2023;stroke-linejoin:round;stroke-dasharray:2.2023, 4.40461;paint-order:stroke fill markers"
       id="path12-6-7-3"
       cx="186.00276"
       cy="524.4126"
       rx="18.899014"
       ry="19.017635" />
    <text
       x="606.20905"
       y="408.49988"
       style="font-size:112.438px;font-family:Inter;-inkscape-font-specification:Inter;text-align:start;writing-mode:lr-tb;direction:ltr;text-anchor:start;fill:#616161;stroke-width:3.02362;stroke-linecap:round;stroke-linejoin:round;paint-order:stroke fill markers"
       id="text2-1-4-1"><tspan
         x="606.20905"
         y="408.49988"
         id="tspan2-2-5-4">2</tspan></text>
    <path
       d="M 1080.8568,310.35597 876.95797,455.01166 900.10288,487.63547 1104.0017,342.97978 Z"
       style="fill:#ff851b;stroke-width:1.84012;stroke-linecap:round;stroke-linejoin:round;paint-order:stroke fill markers"
       id="path1-6-7-6-1-0" />
    <path
       d="M 1080.8567,632.29115 876.95792,487.63546 900.10283,455.01165 1104.0017,599.66733 Z"
       style="fill:#ff851b;stroke-width:1.84012;stroke-linecap:round;stroke-linejoin:round;paint-order:stroke fill markers"
       id="path1-6-3-3-2-3-9" />
    <ellipse
       style="fill:#ff851b;fill-opacity:0.998543;stroke:none;stroke-width:2.2023;stroke-linejoin:round;stroke-dasharray:2.2023, 4.40461;paint-order:stroke fill markers"
       id="path12-60-6-2-2"
       cx="-1079.4856"
       cy="-469.2688"
       rx="18.899014"
       ry="19.017635"
       transform="scale(-1)" />
    <ellipse
       style="fill:#ff851b;fill-opacity:0.998543;stroke:none;stroke-width:2.2023;stroke-linejoin:round;stroke-dasharray:2.2023, 4.40461;paint-order:stroke fill markers"
       id="path12-9-2-8-6-6"
       cx="-1079.4856"
       cy="-523.99115"
       rx="18.899014"
       ry="19.017635"
       transform="scale(-1)" />
    <ellipse
       style="fill:#ff851b;fill-opacity:0.998543;stroke:none;stroke-width:2.2023;stroke-linejoin:round;stroke-dasharray:2.2023, 4.40461;paint-order:stroke fill markers"
       id="path12-6-1-9-5-9"
       cx="-1079.4856"
       cy="-414.54645"
       rx="18.899014"
       ry="19.017635"
       transform="scale(-1)" />
    <path
       d="m 888.5303,491.32357 h -250 v -40 h 250 z"
       style="fill:#616161;fill-opacity:1;stroke-width:1.84012;stroke-linecap:round;stroke-linejoin:round;paint-order:stroke fill markers"
       id="path2-9-5-5" />
    <text
       x="1120.738"
       y="512.22504"
       style="font-size:112.438px;font-family:Inter;-inkscape-font-specification:Inter;text-align:start;writing-mode:lr-tb;direction:ltr;text-anchor:start;fill:#ff851b;stroke-width:3.02362;stroke-linecap:round;stroke-linejoin:round;paint-order:stroke fill markers"
       id="text2-7-9-4-0"><tspan
         x="1120.738"
         y="512.22504"
         id="tspan2-5-7-7-4"
         style="fill:#ff851b">2≤</tspan></text>
    <path
       d="m 938.5303,471.32357 a 50,50 0 0 1 -50,50 50,50 0 0 1 -50,-50 50,50 0 0 1 50,-50 50,50 0 0 1 50,50"
       style="fill:#616161;stroke-width:2.25367;stroke-linecap:round;stroke-linejoin:round;paint-order:stroke fill markers"
       id="path6-9-6-8" />
    <text
       x="1002.7437"
       y="-178.79094"
       style="font-size:112.438px;font-family:Inter;-inkscape-font-specification:Inter;text-align:start;writing-mode:lr-tb;direction:ltr;text-anchor:start;fill:#616161;stroke-width:3.02362;stroke-linecap:round;stroke-linejoin:round;paint-order:stroke fill markers"
       id="text2-1-4-5-7"
       transform="rotate(45)"><tspan
         x="1002.7437"
         y="-178.79094"
         id="tspan2-2-5-6-1">b</tspan></text>
  </g>
  <g
     id="g5"
     transform="translate(281.54516,-217.94238)">
    <path
       d="M 1716.5182,581.00143 1920.417,436.34574 1897.2721,403.72193 1693.3733,548.37762 Z"
       style="fill:#0074d9;stroke-width:1.84012;stroke-linecap:round;stroke-linejoin:round;paint-order:stroke fill markers"
       id="path1-6-2-4-2" />
    <path
       d="m 1704.9458,255.37816 203.8988,144.65567 -23.1449,32.62382 -203.8989,-144.65568 z"
       style="fill:#0074d9;stroke-width:1.84012;stroke-linecap:round;stroke-linejoin:round;paint-order:stroke fill markers"
       id="path1-6-3-5-5-0" />
    <path
       d="m 2158.8445,440.03384 h -250 v -40 h 250 z"
       style="fill:#616161;fill-opacity:1;stroke-width:1.84012;stroke-linecap:round;stroke-linejoin:round;paint-order:stroke fill markers"
       id="path2-9-4-6" />
    <text
       x="1102.6292"
       y="1643.3535"
       style="font-size:112.438px;font-family:Inter;-inkscape-font-specification:Inter;text-align:start;writing-mode:lr-tb;direction:ltr;text-anchor:start;fill:#616161;stroke-width:3.02362;stroke-linecap:round;stroke-linejoin:round;paint-order:stroke fill markers"
       id="text2-2-7-1"
       transform="rotate(-45)"><tspan
         x="1102.6292"
         y="1643.3535"
         id="tspan2-28-4-5">a-1</tspan></text>
    <text
       x="1520.3142"
       y="459.85104"
       style="font-size:112.438px;font-family:Inter;-inkscape-font-specification:Inter;text-align:start;writing-mode:lr-tb;direction:ltr;text-anchor:start;fill:#616161;stroke-width:3.02362;stroke-linecap:round;stroke-linejoin:round;paint-order:stroke fill markers"
       id="text2-7-5-6-3-4"><tspan
         x="1520.3142"
         y="459.85104"
         id="tspan2-5-6-1-0-9"
         style="fill:#0074d9">2≤</tspan></text>
    <path
       d="m 1858.8445,420.03384 a 50,50 0 0 1 50,-50 50,50 0 0 1 50,50 50,50 0 0 1 -50,50 50,50 0 0 1 -50,-50"
       style="fill:#616161;stroke-width:2.25367;stroke-linecap:round;stroke-linejoin:round;paint-order:stroke fill markers"
       id="path3-2-7-0" />
    <path
       d="m 2208.8445,420.03384 a 50,50 0 0 1 -50,50 50,50 0 0 1 -50,-50 50,50 0 0 1 50,-50 50,50 0 0 1 50,50"
       style="fill:#616161;stroke-width:2.25367;stroke-linecap:round;stroke-linejoin:round;paint-order:stroke fill markers"
       id="path6-9-8-9" />
    <ellipse
       style="fill:#0074d9;fill-opacity:0.998543;stroke:none;stroke-width:2.2023;stroke-linejoin:round;stroke-dasharray:2.2023, 4.40461;paint-order:stroke fill markers"
       id="path12-3-6-1"
       cx="1706.317"
       cy="418.40048"
       rx="18.899014"
       ry="19.017635" />
    <ellipse
       style="fill:#0074d9;fill-opacity:0.998543;stroke:none;stroke-width:2.2023;stroke-linejoin:round;stroke-dasharray:2.2023, 4.40461;paint-order:stroke fill markers"
       id="path12-9-9-8-7"
       cx="1706.317"
       cy="363.67816"
       rx="18.899014"
       ry="19.017635" />
    <ellipse
       style="fill:#0074d9;fill-opacity:0.998543;stroke:none;stroke-width:2.2023;stroke-linejoin:round;stroke-dasharray:2.2023, 4.40461;paint-order:stroke fill markers"
       id="path12-6-7-3-1"
       cx="1706.317"
       cy="473.12286"
       rx="18.899014"
       ry="19.017635" />
    <text
       x="2102.5232"
       y="561.21021"
       style="font-size:112.438px;font-family:Inter;-inkscape-font-specification:Inter;text-align:start;writing-mode:lr-tb;direction:ltr;text-anchor:start;fill:#616161;stroke-width:3.02362;stroke-linecap:round;stroke-linejoin:round;paint-order:stroke fill markers"
       id="text2-1-4-1-5"><tspan
         x="2102.5232"
         y="561.21021"
         id="tspan2-2-5-4-9">-2</tspan></text>
    <path
       d="m 2601.171,259.06624 -203.8988,144.65569 23.1449,32.62381 203.8988,-144.65569 z"
       style="fill:#ff851b;stroke-width:1.84012;stroke-linecap:round;stroke-linejoin:round;paint-order:stroke fill markers"
       id="path1-6-7-6-1-0-6" />
    <path
       d="M 2601.1709,581.00142 2397.2721,436.34573 2420.417,403.72192 2624.3159,548.3776 Z"
       style="fill:#ff851b;stroke-width:1.84012;stroke-linecap:round;stroke-linejoin:round;paint-order:stroke fill markers"
       id="path1-6-3-3-2-3-9-6" />
    <ellipse
       style="fill:#ff851b;fill-opacity:0.998543;stroke:none;stroke-width:2.2023;stroke-linejoin:round;stroke-dasharray:2.2023, 4.40461;paint-order:stroke fill markers"
       id="path12-60-6-2-2-5"
       cx="-2599.7998"
       cy="-417.97906"
       rx="18.899014"
       ry="19.017635"
       transform="scale(-1)" />
    <ellipse
       style="fill:#ff851b;fill-opacity:0.998543;stroke:none;stroke-width:2.2023;stroke-linejoin:round;stroke-dasharray:2.2023, 4.40461;paint-order:stroke fill markers"
       id="path12-9-2-8-6-6-3"
       cx="-2599.7998"
       cy="-472.70142"
       rx="18.899014"
       ry="19.017635"
       transform="scale(-1)" />
    <ellipse
       style="fill:#ff851b;fill-opacity:0.998543;stroke:none;stroke-width:2.2023;stroke-linejoin:round;stroke-dasharray:2.2023, 4.40461;paint-order:stroke fill markers"
       id="path12-6-1-9-5-9-4"
       cx="-2599.7998"
       cy="-363.25671"
       rx="18.899014"
       ry="19.017635"
       transform="scale(-1)" />
    <path
       d="m 2408.8445,440.03384 h -250 v -40 h 250 z"
       style="fill:#616161;fill-opacity:1;stroke-width:1.84012;stroke-linecap:round;stroke-linejoin:round;paint-order:stroke fill markers"
       id="path2-9-5-5-8" />
    <text
       x="2641.0522"
       y="460.9353"
       style="font-size:112.438px;font-family:Inter;-inkscape-font-specification:Inter;text-align:start;writing-mode:lr-tb;direction:ltr;text-anchor:start;fill:#ff851b;stroke-width:3.02362;stroke-linecap:round;stroke-linejoin:round;paint-order:stroke fill markers"
       id="text2-7-9-4-0-1"><tspan
         x="2641.0522"
         y="460.9353"
         id="tspan2-5-7-7-4-2"
         style="fill:#ff851b">2≤</tspan></text>
    <path
       d="m 2458.8445,420.03384 a 50,50 0 0 1 -50,50 50,50 0 0 1 -50,-50 50,50 0 0 1 50,-50 50,50 0 0 1 50,50"
       style="fill:#616161;stroke-width:2.25367;stroke-linecap:round;stroke-linejoin:round;paint-order:stroke fill markers"
       id="path6-9-6-8-9" />
    <text
       x="2041.5009"
       y="-1290.0828"
       style="font-size:112.438px;font-family:Inter;-inkscape-font-specification:Inter;text-align:start;writing-mode:lr-tb;direction:ltr;text-anchor:start;fill:#616161;stroke-width:3.02362;stroke-linecap:round;stroke-linejoin:round;paint-order:stroke fill markers"
       id="text2-1-4-5-7-3"
       transform="rotate(45)"><tspan
         x="2041.5009"
         y="-1290.0828"
         id="tspan2-2-5-6-1-9">b-1</tspan></text>
  </g>
  <path
     style="display:inline;fill:#616161;stroke:none;stroke-width:14.5867;stroke-miterlimit:4.1;stroke-dasharray:none"
     d="m 1546.8233,135.2432 v 54.51652 H 1376.346 v 44.47292 h 170.4773 v 54.516 l 131.1366,-76.75417 z"
     id="path1" />
</svg>
