<svg xmlns="http://www.w3.org/2000/svg" xml:space="preserve" viewBox="0 0 511.451 190.287">
  <path d="M270.087 78.095c3.182 3.182 3.137 6.321 0 9.547l-1.51 1.552m-15.984 16.074-.762.741c-16.09 18.062-49.681 18.537-28.676 40.178 3.079 3.173 8.744 7.291 8.744 7.291q4.776 4.772 9.547 9.547m9.55-84.93q-4.772 4.773 0 9.547l9.545 9.545 9.547 9.547c13.597 11.59 39.105 25.053 27.94 39.463m-16.875 15.31-1.52 1.52q-4.773 4.773-9.547 0m-98.697-190.44s54.08 59.751 81.995 88.801c2.339 2.434 7.16 7.16 7.16 7.16q4.772 4.774 9.546 9.547M412.053-27.413c-12.741 11.33-33.968 95.649-49.448 107.645-2.554 2.27-5.572 5.629-8.753 8.81q-4.772 4.774-9.547 9.547M171.39 304.965c3.17-3.802 7.491-11.77 12.377-21.563m10.053-20.698c10.88-22.625 22.515-46.491 30.028-52.112 3.068-3.29 4.874-4.798 8.055-7.98q4.774-4.772 9.547-9.547M363.4 98.589l-1.533-1.532m-15.75-16.309-.003-.003c-25.011-29.003-50.29-50.242-77.37-20.995q-.373.124-.71.258M252.53 76.562l-1.532 1.533m112.399 20.494q4.771 4.775 0 9.547l-9.546 9.545q-4.772 4.776-9.547 9.547m.001-28.64q-4.772 4.776 0 9.548l1.532 1.531m16.028 16.03 1.533 1.531m-19.094 0q-4.773 4.775 0 9.547l1.531 1.532m16.029 16.029 1.532 1.532m0-28.64q4.77 4.775 0 9.547l-9.546 9.546-9.547 9.547m0 0q-4.773 4.775 0 9.547l1.53 1.531m15.953 16.106q.79.743 1.609 1.455c10.804 10.185 21.708 45.761 31.71 76.538m7.235 21.483c3.4 9.515 6.654 17.457 9.714 22.437M270.086 163.028q-4.773-4.775-9.547-9.547l-9.546-9.546c-3.181-3.181-6.607-1.22-9.547-.002q-1.084.449-2.143.982m-16.11 16.2q-.454.944-.84 1.909c-4.904 14.15-3.294 23.275 1.918 31.193m15.581 16.475q.791.724 1.597 1.467 4.775 4.773 9.547.001l9.546-9.545 9.547-9.547m-28.64 0q4.775-4.77 9.547 0l1.531 1.532m16.03 16.029 1.532 1.532m0 0q4.774 4.773 9.547 0l9.545-9.545c2.602-2.6 5.18-5.22 7.8-7.8 16.316-16.059 10.577-19.82.642-33.742l-8.445-7.592-9.545-9.546q-4.773-4.772-9.547 0m.003 49.134q4.774-4.772 9.547 0l1.531 1.531m16.029 16.03 1.532 1.532c20.578 17.412 22.313 4.267 47.49-29.272 2.83-2.656 5.12-5.418 7.63-7.93l9.545-9.546q4.773-4.773 0-9.547m-121.947 7.159q4.775 4.772 9.547 0l1.532-1.532m16.029-16.028 1.532-1.533m-55.543 102.139c20.892-3.05 47.806-4.885 77.178-4.885 34.29 0 65.231 2.502 87.15 6.516m26.231 7.425c4.5 2.202 6.95 4.574 6.95 7.046 0 11.591-53.874 20.988-120.33 20.988-66.458 0-120.333-9.397-120.333-20.988 0-3.676 5.42-7.132 14.943-10.137" style="display:inline;fill:none;stroke:#ff851b;stroke-width:5.66705;stroke-linecap:butt;stroke-linejoin:round;stroke-miterlimit:10;stroke-dasharray:none;stroke-opacity:1;paint-order:stroke fill markers" transform="rotate(90 97.337 60.274)scale(.45485)"/>
  <path d="M214.543 246.073c20.892-3.05 47.806-4.885 77.178-4.885 34.29 0 65.231 2.502 87.15 6.516m26.231 7.425c4.5 2.202 6.95 4.574 6.95 7.046 0 11.591-53.874 20.988-120.33 20.988-66.458 0-120.333-9.397-120.333-20.988 0-3.676 5.42-7.132 14.943-10.137" style="display:inline;fill:none;stroke:#0074d9;stroke-width:5.66705;stroke-linecap:butt;stroke-linejoin:round;stroke-miterlimit:10;stroke-dasharray:none;stroke-opacity:1;paint-order:stroke fill markers" transform="rotate(90 97.337 60.274)scale(.45485)"/>
  <path d="M95.987 238.496c-40.02-3.626-73.497-31.904-83.754-70.747-4.014-15.198-4.014-33.368 0-48.566 9.68-36.655 39.637-63.734 77.404-69.965 6.991-1.154 22.641-1.154 29.633 0 41.257 6.807 72.625 38.175 79.432 79.431 1.85 11.211.997 27.643-2.028 39.1-9.657 36.57-39.811 63.872-77.228 69.921-4.454.72-18.981 1.232-23.46.826m22.401-5.72c52.756-8.696 86.477-59.58 73.701-111.214-8.705-35.184-37.597-61.553-73.877-67.425-6.899-1.117-21.007-1.118-27.693-.003-39.313 6.559-69.069 36.348-75.386 75.472-1.068 6.615-1.147 20.3-.155 26.736 6.488 42.08 39.946 73.562 82.067 77.22 4.23.368 17.254-.112 21.343-.787" class="stroke-comment fill-comment" style="display:inline;fill:#616161;fill-opacity:1;stroke:none;stroke-width:.351496;stroke-linejoin:round;stroke-dasharray:none;stroke-opacity:1" transform="translate(-9.223 -48.352)"/>
  <path d="M270.087 78.095c3.182 3.182 3.137 6.321 0 9.547l-1.51 1.552m-15.984 16.074-.762.741c-16.09 18.062-49.681 18.537-28.676 40.178 3.079 3.173 8.744 7.291 8.744 7.291q4.776 4.772 9.547 9.547m9.55-84.93q-4.772 4.773 0 9.547l9.545 9.545 9.547 9.547c13.597 11.59 39.105 25.053 27.94 39.463m-16.875 15.31-1.52 1.52q-4.773 4.773-9.547 0m-98.697-190.44S182.047-15.637 196.343.001m24.911 27.115c11.636 12.591 23.217 24.997 32.13 34.272 2.339 2.434 7.16 7.16 7.16 7.16q4.772 4.774 9.546 9.547M412.053-27.413c-3.558 3.164-7.778 12.019-12.349 23.401m-9.977 26.442c-9.25 25.179-18.98 51.493-27.122 57.802-2.554 2.27-5.572 5.629-8.753 8.81q-4.772 4.774-9.547 9.547M171.39 304.965c11.645-13.968 38.832-84.178 52.458-94.373 3.068-3.29 4.874-4.798 8.055-7.98q4.774-4.772 9.547-9.547M363.4 98.589l-1.533-1.532m-15.75-16.309-.003-.003c-25.011-29.003-50.29-50.242-77.37-20.995q-.373.124-.71.258M252.53 76.562l-1.532 1.533m112.399 20.494q4.771 4.775 0 9.547l-9.546 9.545q-4.772 4.776-9.547 9.547m.001-28.64q-4.772 4.776 0 9.548l1.532 1.531m16.028 16.03 1.533 1.531m-19.094 0q-4.773 4.775 0 9.547l1.531 1.532m16.029 16.029 1.532 1.532m0-28.64q4.77 4.775 0 9.547l-9.546 9.546-9.547 9.547m0 0q-4.773 4.775 0 9.547l1.53 1.531m15.953 16.106q.79.743 1.609 1.455c17.344 16.35 34.948 98.14 48.659 120.458M270.086 163.028q-4.773-4.775-9.547-9.547l-9.546-9.546c-3.181-3.181-6.607-1.22-9.547-.002q-1.084.449-2.143.982m-16.11 16.2q-.454.944-.84 1.909c-4.904 14.15-3.294 23.275 1.918 31.193m15.581 16.475q.791.724 1.597 1.467 4.775 4.773 9.547.001l9.546-9.545 9.547-9.547m-28.64 0q4.775-4.77 9.547 0l1.531 1.532m16.03 16.029 1.532 1.532m0 0q4.774 4.773 9.547 0l9.545-9.545c2.602-2.6 5.18-5.22 7.8-7.8 16.316-16.059 10.577-19.82.642-33.742l-8.445-7.592-9.545-9.546q-4.773-4.772-9.547 0m.003 49.134q4.774-4.772 9.547 0l1.531 1.531m16.029 16.03 1.532 1.532c20.578 17.412 22.313 4.267 47.49-29.272 2.83-2.656 5.12-5.418 7.63-7.93l9.545-9.546q4.773-4.773 0-9.547m-121.947 7.159q4.775 4.772 9.547 0l1.532-1.532m16.029-16.028 1.532-1.533M198.134-14.843c22.06-4.754 55.788-7.794 93.587-7.794 41.42 0 77.953 3.65 99.6 9.206M411.664-3.35q.387.841.389 1.7c0 11.591-53.875 20.987-120.332 20.987S171.39 9.941 171.39-1.65c0-1.74 1.214-3.43 3.503-5.047" style="display:inline;fill:none;stroke:#ff851b;stroke-width:5.66705;stroke-linecap:butt;stroke-linejoin:round;stroke-miterlimit:10;stroke-dasharray:none;stroke-opacity:1" transform="rotate(90 257.837 220.774)scale(.45485)"/>
  <path d="M411.664-3.35q.387.841.389 1.7c0 11.591-53.875 20.987-120.332 20.987S171.39 9.941 171.39-1.65c0-1.74 1.214-3.43 3.503-5.047m23.242-8.146c22.06-4.754 55.788-7.794 93.587-7.794 41.42 0 77.953 3.65 99.6 9.206" style="display:inline;fill:none;stroke:#0074d9;stroke-width:5.66705;stroke-linecap:butt;stroke-linejoin:round;stroke-miterlimit:10;stroke-dasharray:none;stroke-opacity:1" transform="rotate(90 257.837 220.774)scale(.45485)"/>
  <path d="M95.987 238.496c-40.02-3.626-73.497-31.904-83.754-70.747-4.014-15.198-4.014-33.368 0-48.566 9.68-36.655 39.637-63.734 77.404-69.965 6.991-1.154 22.641-1.154 29.633 0 41.257 6.807 72.625 38.175 79.432 79.431 1.85 11.211.997 27.643-2.028 39.1-9.657 36.57-39.811 63.872-77.228 69.921-4.454.72-18.981 1.232-23.46.826m22.401-5.72c52.756-8.696 86.477-59.58 73.701-111.214-8.705-35.184-37.597-61.553-73.877-67.425-6.899-1.117-21.007-1.118-27.693-.003-39.313 6.559-69.069 36.348-75.386 75.472-1.068 6.615-1.147 20.3-.155 26.736 6.488 42.08 39.946 73.562 82.067 77.22 4.23.368 17.254-.112 21.343-.787" class="stroke-comment fill-comment" style="display:inline;fill:#616161;fill-opacity:1;stroke:none;stroke-width:.351496;stroke-linejoin:round;stroke-dasharray:none;stroke-opacity:1" transform="translate(311.777 -48.352)"/>
  <path d="M270.782 120.732v16.169h-50.561v13.19h50.561v16.169l38.894-22.765Z" class="stroke-comment fill-comment" style="display:inline;fill:#616161;fill-opacity:1;stroke:none;stroke-width:4.32624;stroke-miterlimit:4.1;stroke-dasharray:none" transform="translate(-9.223 -48.352)"/>
</svg>
