<svg xmlns="http://www.w3.org/2000/svg" xmlns:vectornator="http://vectornator.io" xml:space="preserve" stroke-miterlimit="10" style="fill-rule:nonzero;clip-rule:evenodd;stroke-linecap:round;stroke-linejoin:round" viewBox="0 0 1000 1000">
  <g vectornator:layerName="Layer 1" fill="none" stroke-width="28" clip-path="url(#ArtboardFrame_66)">
    <path stroke="#616161" d="M747.533 224.546c-9.11-241.863-409.07-300.256-474.536-13.553m12.943 240.514c28.31 108.47 85.818 239.445 182.955 395.25" style="clip-rule:evenodd;fill-rule:nonzero;stroke-linecap:round;stroke-linejoin:round"/>
    <path stroke="#616161" d="M714.579 382.06c-319.508 1255.448-957.516 187.818-576.19-9.768" style="clip-rule:evenodd;fill-rule:nonzero;stroke-linecap:round;stroke-linejoin:round"/>
    <path stroke="#616161" d="M395.894 322.205c87.262-8.34 162.997-7.76 228.31-.025m222.582 73.943c331.232 220.707-33.842 803.009-321.453 506.696" style="clip-rule:evenodd;fill-rule:nonzero;stroke-linecap:round;stroke-linejoin:round"/>
    <path stroke="#f55" d="M387.653 322.947c-76.477 7.218-128.634 31.176-103.553 121.202M631.197 323.446c31.371 6.756 114.276-19.882 116.789-91.275M270.732 221.336c-15.677 50.857-27.705 106.285-126.22 147.839M712.229 389.517c16.483-62.308 104.354-13.318 125.121.739" style="fill-rule:nonzero;clip-rule:evenodd;stroke-linecap:round;stroke-linejoin:round"/>
  </g>
</svg>
