<svg xmlns="http://www.w3.org/2000/svg" xmlns:vectornator="http://vectornator.io" xml:space="preserve" stroke-miterlimit="10" style="fill-rule:nonzero;clip-rule:evenodd;stroke-linecap:round;stroke-linejoin:round" viewBox="0 0 1000 1000"><g vectornator:layerName="Layer 1" fill="none" stroke-width="28" clip-path="url(#ArtboardFrame_73)"><path stroke="#ffb86c" d="M747.69 232.564c-.467-252.706-422.237-313.462-477.716-6.77m16.116 226.287c28.363 108.358 85.84 239.146 182.805 394.676" style="clip-rule:evenodd;fill-rule:nonzero;stroke-linecap:round;stroke-linejoin:round"/><path stroke="#ffb86c" d="M714.579 382.06c-320.987 1261.26-963.43 177.882-570.828-12.457" style="clip-rule:evenodd;fill-rule:nonzero;stroke-linecap:round;stroke-linejoin:round"/><path stroke="#ffb86c" d="M382.984 323.495c94.748-9.881 176.192-9.413 245.69-.773m214.886 71.277c336.814 219.066-29.688 806.088-318.227 508.82" style="clip-rule:evenodd;fill-rule:nonzero;stroke-linecap:round;stroke-linejoin:round"/><path stroke="#f55" d="M387.653 322.947c-76.477 7.218-128.634 31.176-103.553 121.202M270.732 221.336c-15.677 50.857-27.705 106.285-126.22 147.839M843.768 394.053c-25.194-17.441-42.485-21.764-58.995-36.04-33.759-29.188-38.647-76.978-36.922-125.977M712.37 390.79c16.484-62.308-55.233-62.106-84.982-68.074" class="stroke-red stroke-red"/></g></svg>