<svg xmlns="http://www.w3.org/2000/svg" xmlns:vectornator="http://vectornator.io" xml:space="preserve" stroke-miterlimit="10" style="fill-rule:nonzero;clip-rule:evenodd;stroke-linecap:round;stroke-linejoin:round" viewBox="0 0 1000 1000">
  <g vectornator:layerName="Layer 1" fill="none" stroke-width="28" clip-path="url(#ArtboardFrame_70)">
    <path stroke="#616161" d="M747.525 224.34C738.199-17.294 338.63-75.602 273.043 210.794m12.011 237.29c27.988 109.134 85.68 241.226 183.841 398.673" style="clip-rule:evenodd;fill-rule:nonzero;stroke-linecap:round;stroke-linejoin:round"/>
    <path stroke="#616161" d="M714.579 382.06c-318.564 1251.74-953.75 194.105-579.543-7.995" style="clip-rule:evenodd;fill-rule:nonzero;stroke-linecap:round;stroke-linejoin:round"/>
    <path stroke="#616161" d="M393.675 322.418c84.529-8.206 158.283-8.066 222.257-1.174m235.443 77.99c323.24 223.008-39.772 798.516-326.042 503.585" style="clip-rule:evenodd;fill-rule:nonzero;stroke-linecap:round;stroke-linejoin:round"/>
    <path stroke="#f55" d="M136.276 373.688c85.178-42.605 126.629-25.182 147.4 69.188M270.732 219.921c-12.505 52.537 12.113 123.158 117.683 102.912M843.768 394.053c-25.194-17.441-42.485-21.764-58.995-36.04-33.759-29.188-38.647-76.978-36.922-125.977M712.37 390.79c16.484-62.308-55.233-62.106-84.982-68.074" class="stroke-red stroke-red"/>
  </g>
</svg>
