<svg xmlns="http://www.w3.org/2000/svg" xmlns:vectornator="http://vectornator.io" xml:space="preserve" stroke-miterlimit="10" style="fill-rule:nonzero;clip-rule:evenodd;stroke-linecap:round;stroke-linejoin:round" viewBox="0 0 1000 1000">
  <g vectornator:layerName="Layer 1" clip-path="url(#ArtboardFrame_64)">
    <path fill="none" stroke="#f55" stroke-width="28" d="M440.395 800.338c20.572 30.306 55.621 90.864 22.746 115.24M553.788 800.313c-38.98 60.495-23.619 115.237 9.727 136.488M631.197 323.446c31.371 6.756 114.276-19.882 116.789-91.275M136.276 373.688c85.178-42.605 126.629-25.182 147.4 69.188M270.732 219.921c-12.505 52.537 12.113 123.158 117.683 102.912M712.229 389.517c16.483-62.308 104.354-13.318 125.121.739" class="stroke-red stroke-red"/>
    <clipPath id="a">
      <path d="m678.954 246.428-87.743 149.163 167.824-10.219 191.043-45.937 290.432 296.57-539.621 525.575-797.58-34.22-22.812-894.97 464.757 228.533 85.031-78.849-234.776-226.873 337.356-332.025 520.105 379.708z"/>
    </clipPath>
    <g clip-path="url(#a)">
      <clipPath id="b">
        <path d="m678.954 246.428-87.743 149.163 167.824-10.219 191.043-45.937 290.432 296.57-539.621 525.575-111.04-157.27s-29.863-54.272-44.423-48.153c-14.56 6.12 28.226-52.035 28.226-52.035l31.967-53.665-114.07-78.06-76.894 52.325 18.956 54.745 68.785 57.234 28.555 77.249-627.641 113.41-22.813-894.97 464.757 228.533 85.031-78.849-234.776-226.873 337.356-332.025 520.105 379.708z"/>
      </clipPath>
      <g fill="none" stroke="#616161" stroke-width="28" clip-path="url(#b)">
        <path d="M738.563 299.681c114.199-430.126-892.594-452.08-269.668 547.076" class="stroke-orange stroke-orange"/>
        <path d="M714.579 382.06c-340.105 1336.38-1041.097 40.516-489.378-36.278" class="stroke-orange stroke-orange"/>
        <path d="M315.101 332.037C1411.76 171.475 902.086 1290.97 525.333 902.819" class="stroke-orange stroke-orange"/>
      </g>
    </g>
  </g>
</svg>
