<?xml version="1.0" encoding="UTF-8" standalone="no"?>
<!-- Created with Inkscape (http://www.inkscape.org/) -->

<svg
   version="1.1"
   id="svg2"
   sodipodi:docname="extreme_programming.svg"
   width="312.99951"
   height="297.67624"
   inkscape:version="1.4.2 (ebf0e940d0, 2025-05-08)"
   xmlns:inkscape="http://www.inkscape.org/namespaces/inkscape"
   xmlns:sodipodi="http://sodipodi.sourceforge.net/DTD/sodipodi-0.dtd"
   xmlns="http://www.w3.org/2000/svg"
   xmlns:svg="http://www.w3.org/2000/svg"
   xmlns:rdf="http://www.w3.org/1999/02/22-rdf-syntax-ns#"
   xmlns:cc="http://creativecommons.org/ns#"
   xmlns:dc="http://purl.org/dc/elements/1.1/">
  <sodipodi:namedview
     id="namedview1"
     pagecolor="#ffffff"
     bordercolor="#000000"
     borderopacity="0.25"
     inkscape:showpageshadow="2"
     inkscape:pageopacity="0.0"
     inkscape:pagecheckerboard="0"
     inkscape:deskcolor="#d1d1d1"
     inkscape:zoom="3.28"
     inkscape:cx="97.408537"
     inkscape:cy="-78.963415"
     inkscape:window-width="3818"
     inkscape:window-height="2074"
     inkscape:window-x="0"
     inkscape:window-y="0"
     inkscape:window-maximized="1"
     inkscape:current-layer="layer1" />
  <defs
     id="defs4">
    <marker
       refX="0"
       refY="0"
       orient="auto"
       id="Arrow1Send"
       style="overflow:visible">
      <path
         d="M 0,0 5,-5 -12.5,0 5,5 Z"
         transform="matrix(-0.2,0,0,-0.2,-1.2,0)"
         id="path3850"
         style="fill-rule:evenodd;stroke:#000000;stroke-width:1pt" />
    </marker>
  </defs>
  <metadata
     id="metadata7">
    <rdf:RDF>
      <cc:Work
         rdf:about="">
        <dc:format>image/svg+xml</dc:format>
        <dc:type
           rdf:resource="http://purl.org/dc/dcmitype/StillImage" />
      </cc:Work>
    </rdf:RDF>
  </metadata>
  <g
     transform="translate(-139.27217,-207.9033)"
     id="layer1">
    <path
       style="font-size:21.7722px;line-height:125%;font-family:'Times New Roman';-inkscape-font-specification:'Times New Roman';letter-spacing:0px;word-spacing:0px;fill:#616161;fill-opacity:1"
       d="m 198.51934,213.19753 q 0,-1.75411 -0.81858,-2.5089 -0.81859,-0.7548 -2.75342,-0.7548 h -1.04183 v 6.75065 h 1.10561 q 1.79664,0 2.64711,-0.81858 0.86111,-0.81858 0.86111,-2.66837 z m -4.61383,4.44374 v 4.74141 l 2.26439,0.28703 v 0.56344 h -6.00649 v -0.56344 l 1.69032,-0.28703 v -12.56579 l -1.82852,-0.27641 v -0.56344 h 5.37926 q 5.23043,0 5.23043,4.19923 0,2.18998 -1.32887,3.32749 -1.31824,1.13751 -3.79525,1.13751 z m 11.50269,4.84772 1.71158,0.26577 v 0.47839 h -5.17727 v -0.47839 l 1.70095,-0.26577 V 208.8601 l -1.70095,-0.25514 v -0.4784 h 3.46569 z m 7.09085,-9.47219 q 1.63717,0 2.4026,0.66976 0.77606,0.66975 0.77606,2.05177 v 6.75066 l 1.24382,0.26577 v 0.47839 h -2.74279 l -0.20199,-0.99931 q -1.21193,1.21193 -3.09361,1.21193 -2.56206,0 -2.56206,-2.97666 0,-0.99931 0.38272,-1.6478 0.39334,-0.65912 1.24382,-0.99931 0.85048,-0.35082 2.46638,-0.38272 l 1.49897,-0.0425 v -1.56275 q 0,-1.0312 -0.38272,-1.52023 -0.37208,-0.48902 -1.15877,-0.48902 -1.0631,0 -1.94547,0.49965 l -0.36145,1.24382 h -0.59533 v -2.17934 q 1.72221,-0.37209 3.02982,-0.37209 z m 1.41392,5.12413 -1.39266,0.0425 q -1.42455,0.0532 -1.93483,0.55281 -0.49966,0.49965 -0.49966,1.66906 0,1.87105 1.52023,1.87105 0.7229,0 1.24382,-0.15947 0.53155,-0.17009 1.0631,-0.42523 z m 6.75065,-4.09292 q 0.81859,-0.46776 1.74348,-0.76543 0.92489,-0.3083 1.54149,-0.3083 1.29698,0 1.9561,0.7548 0.65912,0.7548 0.65912,2.18998 v 6.56993 l 1.21192,0.26577 v 0.47839 h -4.30553 v -0.47839 l 1.32887,-0.26577 v -6.37858 q 0,-0.88237 -0.43587,-1.38202 -0.42524,-0.51029 -1.32887,-0.51029 -0.95679,0 -2.34944,0.3083 v 7.96259 l 1.35013,0.26577 v 0.47839 h -4.31617 v -0.47839 l 1.2013,-0.26577 v -8.50477 l -1.2013,-0.26577 v -0.4784 h 2.8491 z m 10.8861,0 q 0.81859,-0.46776 1.74348,-0.76543 0.92489,-0.3083 1.54149,-0.3083 1.29698,0 1.9561,0.7548 0.65911,0.7548 0.65911,2.18998 v 6.56993 l 1.21193,0.26577 v 0.47839 h -4.30553 v -0.47839 l 1.32887,-0.26577 v -6.37858 q 0,-0.88237 -0.43587,-1.38202 -0.42524,-0.51029 -1.32887,-0.51029 -0.95679,0 -2.34944,0.3083 v 7.96259 l 1.35013,0.26577 v 0.47839 h -4.31617 v -0.47839 l 1.2013,-0.26577 v -8.50477 l -1.2013,-0.26577 v -0.4784 h 2.84909 z m 11.47081,-4.07166 q 0,0.46776 -0.34019,0.80795 -0.34019,0.34019 -0.81859,0.34019 -0.46776,0 -0.80795,-0.34019 -0.34019,-0.34019 -0.34019,-0.80795 0,-0.47839 0.34019,-0.81858 0.34019,-0.34019 0.80795,-0.34019 0.4784,0 0.81859,0.34019 0.34019,0.34019 0.34019,0.81858 z m -0.10631,12.51264 1.71158,0.26577 v 0.47839 h -5.17727 v -0.47839 l 1.70095,-0.26577 v -8.50477 l -1.41392,-0.26577 v -0.4784 h 3.17866 z m 5.57062,-8.44098 q 0.81858,-0.46776 1.74348,-0.76543 0.92489,-0.3083 1.54148,-0.3083 1.29698,0 1.9561,0.7548 0.65912,0.7548 0.65912,2.18998 v 6.56993 l 1.21193,0.26577 v 0.47839 h -4.30554 v -0.47839 l 1.32887,-0.26577 v -6.37858 q 0,-0.88237 -0.43587,-1.38202 -0.42524,-0.51029 -1.32887,-0.51029 -0.95678,0 -2.34944,0.3083 v 7.96259 l 1.35013,0.26577 v 0.47839 h -4.31617 v -0.47839 l 1.2013,-0.26577 v -8.50477 l -1.2013,-0.26577 v -0.4784 h 2.8491 z m 16.6906,2.34944 q 0,1.72221 -1.0312,2.60458 -1.03121,0.88237 -2.96604,0.88237 -0.87174,0 -1.61591,-0.15946 l -0.66975,1.39265 q 0.0319,0.18073 0.41461,0.34019 0.38271,0.15947 0.95679,0.15947 h 2.9554 q 1.61591,0 2.39197,0.70164 0.78669,0.70165 0.78669,1.93484 0,1.11625 -0.62723,1.94546 -0.61659,0.82922 -1.81789,1.27572 -1.2013,0.45713 -2.91288,0.45713 -2.04115,0 -3.11487,-0.62723 -1.0631,-0.62723 -1.0631,-1.786 0,-0.56344 0.38271,-1.11625 0.38272,-0.54218 1.40329,-1.27572 -0.60596,-0.20198 -1.02057,-0.69101 -0.41461,-0.48902 -0.41461,-1.05246 l 1.67969,-1.89231 q -1.67969,-0.78669 -1.67969,-3.09361 0,-1.63717 1.0312,-2.53017 1.04184,-0.893 3.0192,-0.893 0.39334,0 1.00994,0.085 0.61659,0.0744 0.94615,0.18072 l 2.34944,-1.18003 0.37209,0.45713 -1.47771,1.53086 q 0.71228,0.79732 0.71228,2.34944 z m -0.43587,8.18584 q 0,-0.60597 -0.37208,-0.94616 -0.37209,-0.34019 -1.12689,-0.34019 h -3.86966 q -0.4465,0.38271 -0.73354,0.96742 -0.2764,0.59533 -0.2764,1.10562 0,0.91426 0.65911,1.3076 0.65912,0.40398 2.01989,0.40398 1.77537,0 2.73215,-0.65912 0.96742,-0.65912 0.96742,-1.83915 z m -3.54011,-5.50684 q 1.15877,0 1.63717,-0.65912 0.48902,-0.66975 0.48902,-2.01988 0,-1.41392 -0.49965,-2.00925 -0.49966,-0.60597 -1.60528,-0.60597 -1.11625,0 -1.63716,0.60597 -0.52092,0.60596 -0.52092,2.00925 0,1.40329 0.51028,2.04114 0.51029,0.63786 1.62654,0.63786 z m 6.67624,4.36932 h -1.06309 l 5.00718,-14.56441 h 1.04183 z m 7.37789,-9.31271 h -1.72221 v -0.52092 l 1.72221,-0.41461 v -0.70164 q 0,-2.21124 0.87174,-3.40191 0.88237,-1.19067 2.46638,-1.19067 0.81859,0 1.52023,0.20199 v 2.17935 h -0.52092 l -0.47839,-1.30761 q -0.36145,-0.22325 -0.87174,-0.22325 -0.66975,0 -0.94616,0.59533 -0.2764,0.59534 -0.2764,2.23251 v 1.65842 h 2.65774 v 0.89301 h -2.65774 v 8.27088 l 2.15808,0.35082 v 0.47839 h -5.40052 v -0.47839 l 1.4777,-0.35082 z m 7.6224,4.07165 v 0.19136 q 0,1.46707 0.31893,2.28565 0.32956,0.80796 0.99931,1.2332 0.68038,0.42523 1.77537,0.42523 0.57407,0 1.36076,-0.0957 0.78669,-0.0957 1.29697,-0.21262 v 0.59533 q -0.51028,0.32956 -1.39265,0.57407 -0.87174,0.24451 -1.786,0.24451 -2.32818,0 -3.41254,-1.25445 -1.07372,-1.25445 -1.07372,-4.02913 0,-2.61522 1.09498,-3.90156 1.09499,-1.28635 3.1255,-1.28635 3.83778,0 3.83778,4.35869 v 0.87174 z m 2.30691,-4.37995 q -1.10561,0 -1.70095,0.893 -0.5847,0.893 -0.5847,2.63648 h 4.27364 q 0,-1.90295 -0.48902,-2.7109 -0.48902,-0.81858 -1.49897,-0.81858 z m 7.35662,4.37995 v 0.19136 q 0,1.46707 0.31893,2.28565 0.32956,0.80796 0.99931,1.2332 0.68038,0.42523 1.77537,0.42523 0.57407,0 1.36076,-0.0957 0.7867,-0.0957 1.29698,-0.21262 v 0.59533 q -0.51028,0.32956 -1.39265,0.57407 -0.87174,0.24451 -1.78601,0.24451 -2.32817,0 -3.41253,-1.25445 -1.07373,-1.25445 -1.07373,-4.02913 0,-2.61522 1.09499,-3.90156 1.09499,-1.28635 3.1255,-1.28635 3.83778,0 3.83778,4.35869 v 0.87174 z m 2.30692,-4.37995 q -1.10562,0 -1.70095,0.893 -0.5847,0.893 -0.5847,2.63648 h 4.27364 q 0,-1.90295 -0.48902,-2.7109 -0.48903,-0.81858 -1.49897,-0.81858 z m 12.27876,8.66423 q -1.2013,0.95678 -2.80657,0.95678 -4.09292,0 -4.09292,-5.11349 0,-2.62584 1.15877,-3.98661 1.15878,-1.37139 3.41254,-1.37139 1.14814,0 2.32818,0.24451 -0.0638,-0.35082 -0.0638,-1.76474 v -2.59395 l -1.67969,-0.25514 v -0.4784 h 3.44443 v 14.36243 l 1.23319,0.26577 v 0.47839 h -2.80657 z m -4.98592,-4.15671 q 0,2.01988 0.68038,3.01919 0.68038,0.98868 2.08367,0.98868 1.2013,0 2.15808,-0.4146 v -7.8988 q -0.94615,-0.18073 -2.15808,-0.18073 -2.76405,0 -2.76405,4.48626 z m 16.32914,-0.37208 q 0,-1.9561 -0.68038,-2.91288 -0.68038,-0.95679 -2.10493,-0.95679 -0.62722,0 -1.24382,0.11694 -0.61659,0.10631 -0.893,0.23388 v 7.92007 q 0.893,0.17009 2.13682,0.17009 1.46708,0 2.1262,-1.14814 0.65911,-1.14815 0.65911,-3.42317 z m -6.68687,-9.1001 -1.45644,-0.25514 v -0.4784 h 3.22118 v 3.57201 q 0,0.57407 -0.0638,2.10493 1.06309,-0.82922 2.679,-0.82922 2.04114,0 3.1255,1.24382 1.09499,1.23319 1.09499,3.7421 0,2.68963 -1.2013,4.09292 -1.19067,1.39265 -3.45506,1.39265 -0.91426,0 -2.01988,-0.20198 -1.09499,-0.20199 -1.92421,-0.53155 z m 14.37306,4.1567 q 1.63716,0 2.40259,0.66976 0.77606,0.66975 0.77606,2.05177 v 6.75066 l 1.24383,0.26577 v 0.47839 h -2.74279 l -0.20199,-0.99931 q -1.21193,1.21193 -3.09361,1.21193 -2.56206,0 -2.56206,-2.97666 0,-0.99931 0.38272,-1.6478 0.39334,-0.65912 1.24382,-0.99931 0.85047,-0.35082 2.46638,-0.38272 l 1.49896,-0.0425 v -1.56275 q 0,-1.0312 -0.38271,-1.52023 -0.37208,-0.48902 -1.15877,-0.48902 -1.0631,0 -1.94547,0.49965 l -0.36145,1.24382 h -0.59534 v -2.17934 q 1.72222,-0.37209 3.02983,-0.37209 z m 1.41391,5.12413 -1.39265,0.0425 q -1.42455,0.0532 -1.93484,0.55281 -0.49965,0.49965 -0.49965,1.66906 0,1.87105 1.52023,1.87105 0.7229,0 1.24382,-0.15947 0.53155,-0.17009 1.06309,-0.42523 z m 12.30003,4.48626 q -0.52092,0.38271 -1.43518,0.60596 -0.91427,0.21262 -1.87105,0.21262 -4.85835,0 -4.85835,-5.28358 0,-2.49828 1.23319,-3.83778 1.24382,-1.35013 3.55074,-1.35013 1.43518,0 3.13613,0.32956 v 2.78531 h -0.5847 l -0.45713,-1.76474 q -0.88237,-0.49965 -2.11556,-0.49965 -2.8491,0 -2.8491,4.33743 0,2.25376 0.86111,3.22118 0.87174,0.95678 2.68963,0.95678 1.55212,0 2.70027,-0.35082 z m 4.3268,-4.20986 4.09292,-4.41185 -1.04184,-0.28703 v -0.4784 h 3.52948 v 0.4784 l -1.24382,0.24451 -2.8491,2.91288 3.65705,5.63441 1.08436,0.24451 v 0.47839 h -4.09292 v -0.47839 l 0.91426,-0.26577 -2.74278,-4.30554 -1.30761,1.43518 v 2.87036 l 1.06309,0.26577 v 0.47839 h -4.09291 v -0.47839 l 1.26508,-0.26577 V 208.8601 l -1.4777,-0.25514 v -0.4784 h 3.24244 z m 16.57366,4.07166 1.71158,0.26577 v 0.47839 h -5.17727 v -0.47839 l 1.70095,-0.26577 V 208.8601 l -1.70095,-0.25514 v -0.4784 h 3.46569 z m 12.20433,-4.30554 q 0,5.26232 -4.67762,5.26232 -2.25376,0 -3.4019,-1.35013 -1.14815,-1.35013 -1.14815,-3.91219 0,-2.53017 1.14815,-3.86967 1.14814,-1.3395 3.48695,-1.3395 2.27502,0 3.4338,1.31824 1.15877,1.30761 1.15877,3.89093 z m -1.91357,0 q 0,-2.29629 -0.66975,-3.32749 -0.66975,-1.0312 -2.0943,-1.0312 -1.39265,0 -2.01988,0.98868 -0.6166,0.98868 -0.6166,3.37001 0,2.41323 0.62723,3.42317 0.63786,0.99931 2.00925,0.99931 1.40329,0 2.08367,-1.04184 0.68038,-1.04183 0.68038,-3.38064 z m 12.79967,0 q 0,5.26232 -4.67762,5.26232 -2.25377,0 -3.40191,-1.35013 -1.14814,-1.35013 -1.14814,-3.91219 0,-2.53017 1.14814,-3.86967 1.14814,-1.3395 3.48695,-1.3395 2.27503,0 3.4338,1.31824 1.15878,1.30761 1.15878,3.89093 z m -1.91358,0 q 0,-2.29629 -0.66975,-3.32749 -0.66975,-1.0312 -2.09429,-1.0312 -1.39266,0 -2.01989,0.98868 -0.61659,0.98868 -0.61659,3.37001 0,2.41323 0.62722,3.42317 0.63786,0.99931 2.00926,0.99931 1.40328,0 2.08366,-1.04184 0.68038,-1.04183 0.68038,-3.38064 z m 4.35871,-4.19923 -1.13752,-0.26577 v -0.4784 h 2.80658 l 0.0213,0.58471 q 0.4465,-0.38272 1.19066,-0.6166 0.7548,-0.23388 1.53086,-0.23388 1.91357,0 2.95541,1.32887 1.05246,1.32887 1.05246,3.81651 0,2.5408 -1.14814,3.93346 -1.13751,1.39265 -3.2956,1.39265 -1.2013,0 -2.28565,-0.23388 0.0638,0.76543 0.0638,1.2013 v 2.70026 l 1.74348,0.25515 v 0.49965 h -4.76267 v -0.49965 l 1.26509,-0.25515 z m 6.50614,4.13544 q 0,-2.04114 -0.66975,-3.02982 -0.65912,-0.99931 -2.00925,-0.99931 -1.24382,0 -2.07304,0.35082 v 7.98385 q 0.94616,0.18073 2.07304,0.18073 2.679,0 2.679,-4.48627 z m 10.45022,2.30692 q 0,1.48834 -0.94615,2.25376 -0.93552,0.76543 -2.77468,0.76543 -0.74417,0 -1.6478,-0.15946 -0.893,-0.14883 -1.40328,-0.34019 v -2.45575 h 0.47839 l 0.52092,1.39265 q 0.79732,0.72291 2.07303,0.72291 2.06241,0 2.06241,-1.76474 0,-1.29698 -1.62654,-1.84979 l -0.94615,-0.3083 q -1.07373,-0.35082 -1.56275,-0.71227 -0.48903,-0.36145 -0.7548,-0.88237 -0.26578,-0.53155 -0.26578,-1.27571 0,-1.31824 0.893,-2.07304 0.90363,-0.76543 2.43449,-0.76543 1.09499,0 2.74279,0.32956 v 2.17935 h -0.49966 l -0.4465,-1.15878 q -0.56344,-0.49965 -1.77537,-0.49965 -0.8611,0 -1.31823,0.42524 -0.4465,0.42523 -0.4465,1.14814 0,0.60596 0.40397,1.02057 0.41461,0.41461 1.24382,0.69101 1.56275,0.53155 2.04115,0.77606 0.47839,0.24452 0.80795,0.60597 0.34019,0.35082 0.52092,0.80795 0.19135,0.45713 0.19135,1.12688 z"
       id="text3050"
       aria-label="Planning/feedback loops" />
    <path
       d="m 237.29622,242.00568 v 3.53961 l 1.41445,0.18813 v 0.36929 h -3.86709 v -0.36929 l 1.10787,-0.18813 v -8.23585 l -1.19845,-0.18116 v -0.36929 h 4.03431 q 1.75587,0 2.592,0.59225 0.83612,0.59226 0.83612,1.90219 0,0.93368 -0.50864,1.61652 -0.50865,0.67586 -1.40748,0.94064 l 2.52928,3.7347 1.01032,0.18813 v 0.36929 h -2.23664 l -2.62683,-4.09703 z m 3.53264,-2.6547 q 0,-1.06606 -0.52258,-1.51199 -0.51562,-0.45291 -1.81858,-0.45291 h -1.19148 v 3.99251 h 1.23329 q 1.24722,0 1.7698,-0.45987 0.52955,-0.46684 0.52955,-1.56774 z m 4.84256,3.45599 v 0.12542 q 0,0.96155 0.20904,1.49806 0.216,0.52955 0.65496,0.80826 0.44594,0.27871 1.16361,0.27871 0.37626,0 0.89187,-0.0627 0.51561,-0.0627 0.85006,-0.13936 v 0.3902 q -0.33445,0.216 -0.91277,0.37625 -0.57135,0.16026 -1.17058,0.16026 -1.52593,0 -2.23664,-0.82219 -0.70374,-0.82219 -0.70374,-2.64077 0,-1.71406 0.71768,-2.55715 0.71767,-0.8431 2.04851,-0.8431 2.51535,0 2.51535,2.85677 v 0.57135 z m 1.512,-2.8707 q -0.72464,0 -1.11484,0.58529 -0.38322,0.58529 -0.38322,1.728 h 2.80102 q 0,-1.24723 -0.32051,-1.77677 -0.32052,-0.53652 -0.98245,-0.53652 z m 5.56721,5.6787 1.12181,0.17419 v 0.31355 h -3.39329 v -0.31355 l 1.11484,-0.17419 v -8.93263 l -1.11484,-0.16722 v -0.31355 h 2.27148 z m 3.21909,-2.808 v 0.12542 q 0,0.96155 0.20903,1.49806 0.216,0.52955 0.65497,0.80826 0.44593,0.27871 1.16361,0.27871 0.37626,0 0.89187,-0.0627 0.51561,-0.0627 0.85006,-0.13936 v 0.3902 q -0.33445,0.216 -0.91277,0.37625 -0.57135,0.16026 -1.17058,0.16026 -1.52593,0 -2.23664,-0.82219 -0.70374,-0.82219 -0.70374,-2.64077 0,-1.71406 0.71768,-2.55715 0.71767,-0.8431 2.04851,-0.8431 2.51535,0 2.51535,2.85677 v 0.57135 z m 1.512,-2.8707 q -0.72465,0 -1.11484,0.58529 -0.38322,0.58529 -0.38322,1.728 h 2.80102 q 0,-1.24723 -0.32051,-1.77677 -0.32052,-0.53652 -0.98245,-0.53652 z m 6.25005,-0.52955 q 1.07303,0 1.5747,0.43897 0.50865,0.43897 0.50865,1.34477 v 4.42451 l 0.81522,0.17419 v 0.31355 h -1.79767 l -0.13239,-0.65497 q -0.79432,0.79432 -2.02761,0.79432 -1.67922,0 -1.67922,-1.95096 0,-0.65497 0.25084,-1.08 0.25781,-0.432 0.81522,-0.65496 0.55742,-0.22994 1.61652,-0.25084 l 0.98244,-0.0279 v -1.02426 q 0,-0.67587 -0.25083,-0.99638 -0.24387,-0.32052 -0.75949,-0.32052 -0.69677,0 -1.27509,0.32748 l -0.2369,0.81523 h -0.39019 v -1.42839 q 1.12877,-0.24387 1.9858,-0.24387 z m 0.9267,3.35845 -0.91277,0.0279 q -0.93367,0.0348 -1.26812,0.36232 -0.32749,0.32748 -0.32749,1.09393 0,1.22632 0.99639,1.22632 0.4738,0 0.81522,-0.10451 0.34839,-0.11149 0.69677,-0.27871 z m 7.20463,1.49806 q 0,0.97548 -0.62013,1.47716 -0.61316,0.50167 -1.81857,0.50167 -0.48774,0 -1.08,-0.10451 -0.58529,-0.0976 -0.91974,-0.22297 v -1.60955 h 0.31355 l 0.34142,0.91278 q 0.52258,0.4738 1.3587,0.4738 1.35174,0 1.35174,-1.15664 0,-0.85006 -1.06606,-1.21239 l -0.62013,-0.20206 q -0.70374,-0.22993 -1.02425,-0.46684 -0.32052,-0.2369 -0.49471,-0.57832 -0.1742,-0.34838 -0.1742,-0.83612 0,-0.864 0.58529,-1.35871 0.59226,-0.50168 1.59561,-0.50168 0.71768,0 1.79768,0.216 v 1.42839 h -0.32749 l -0.29264,-0.75949 q -0.36929,-0.32748 -1.16361,-0.32748 -0.56439,0 -0.864,0.27871 -0.29264,0.27871 -0.29264,0.75251 0,0.39716 0.26477,0.66891 0.27174,0.27174 0.81522,0.4529 1.02426,0.34838 1.33781,0.50864 0.31354,0.16026 0.52954,0.39716 0.22297,0.22994 0.34142,0.52955 0.12542,0.29961 0.12542,0.73858 z m 2.32722,-1.45626 v 0.12542 q 0,0.96155 0.20904,1.49806 0.216,0.52955 0.65496,0.80826 0.44594,0.27871 1.16361,0.27871 0.37626,0 0.89187,-0.0627 0.51561,-0.0627 0.85006,-0.13936 v 0.3902 q -0.33445,0.216 -0.91277,0.37625 -0.57135,0.16026 -1.17058,0.16026 -1.52593,0 -2.23664,-0.82219 -0.70374,-0.82219 -0.70374,-2.64077 0,-1.71406 0.71768,-2.55715 0.71767,-0.8431 2.04851,-0.8431 2.51535,0 2.51535,2.85677 v 0.57135 z m 1.512,-2.8707 q -0.72464,0 -1.11484,0.58529 -0.38322,0.58529 -0.38322,1.728 h 2.80102 q 0,-1.24723 -0.32051,-1.77677 -0.32052,-0.53652 -0.98245,-0.53652 z m 7.63662,0.10452 -0.74554,-0.1742 v -0.31354 h 1.83948 l 0.0139,0.38322 q 0.29265,-0.25084 0.78039,-0.40413 0.49471,-0.15329 1.00335,-0.15329 1.25419,0 1.93703,0.87097 0.6898,0.87096 0.6898,2.50141 0,1.66529 -0.75251,2.57806 -0.74555,0.91277 -2.16,0.91277 -0.78735,0 -1.49806,-0.15329 0.0418,0.50168 0.0418,0.78735 v 1.76981 l 1.14271,0.16722 v 0.32748 h -3.12155 v -0.32748 l 0.82916,-0.16722 z m 4.26425,2.71044 q 0,-1.3378 -0.43896,-1.9858 -0.432,-0.65497 -1.3169,-0.65497 -0.81523,0 -1.35871,0.22994 v 5.23276 q 0.62013,0.11845 1.35871,0.11845 1.75586,0 1.75586,-2.94038 z m 4.36877,2.86374 1.1218,0.17419 v 0.31355 h -3.39328 v -0.31355 l 1.11484,-0.17419 v -8.93263 l -1.11484,-0.16722 v -0.31355 h 2.27148 z m 4.64747,-6.20825 q 1.07303,0 1.5747,0.43897 0.50865,0.43897 0.50865,1.34477 v 4.42451 l 0.81522,0.17419 v 0.31355 h -1.79767 l -0.13239,-0.65497 q -0.79432,0.79432 -2.02761,0.79432 -1.67922,0 -1.67922,-1.95096 0,-0.65497 0.25084,-1.08 0.25781,-0.432 0.81522,-0.65496 0.55742,-0.22994 1.61652,-0.25084 l 0.98245,-0.0279 v -1.02426 q 0,-0.67587 -0.25084,-0.99638 -0.24387,-0.32052 -0.75948,-0.32052 -0.69678,0 -1.2751,0.32748 l -0.2369,0.81523 h -0.39019 v -1.42839 q 1.12877,-0.24387 1.9858,-0.24387 z m 0.92671,3.35845 -0.91278,0.0279 q -0.93367,0.0348 -1.26812,0.36232 -0.32749,0.32748 -0.32749,1.09393 0,1.22632 0.99639,1.22632 0.4738,0 0.81522,-0.10451 0.34839,-0.11149 0.69678,-0.27871 z m 4.4245,-2.68258 q 0.53651,-0.30658 1.14271,-0.50167 0.60619,-0.20207 1.01032,-0.20207 0.85006,0 1.28206,0.49471 0.432,0.49471 0.432,1.43535 v 4.30606 l 0.79432,0.17419 v 0.31355 h -2.82193 v -0.31355 l 0.87096,-0.17419 v -4.18064 q 0,-0.57832 -0.28567,-0.9058 -0.27871,-0.33445 -0.87097,-0.33445 -0.62709,0 -1.53987,0.20206 v 5.21883 l 0.88491,0.17419 v 0.31355 h -2.8289 v -0.31355 l 0.78735,-0.17419 v -5.57418 l -0.78735,-0.1742 v -0.31354 h 1.86735 z"
       id="text5209"
       style="font-size:14.2699px;line-height:125%;font-family:'Times new Roman';-inkscape-font-specification:'Times new Roman';letter-spacing:0px;word-spacing:0px;stroke-width:0.680382;fill:#616161;fill-opacity:1"
       aria-label="Release plan" />
    <path
       d="m 264.22868,504.78724 q -2.27148,0 -3.5396,-1.23328 -1.26813,-1.24026 -1.26813,-3.46993 0,-2.41083 1.21935,-3.64412 1.21936,-1.24026 3.61625,-1.24026 1.45626,0 3.12851,0.35536 l 0.0418,2.04154 H 266.967 l -0.20903,-1.21238 q -0.48774,-0.29962 -1.13574,-0.45987 -0.64103,-0.16723 -1.30994,-0.16723 -1.7907,0 -2.61289,1.05213 -0.82219,1.05212 -0.82219,3.26089 0,2.03458 0.85703,3.10761 0.86399,1.07303 2.50838,1.07303 0.79432,0 1.49806,-0.18813 0.70374,-0.1951 1.11483,-0.51561 l 0.25781,-1.39355 h 0.4529 l -0.0418,2.19484 q -1.5329,0.43896 -3.29574,0.43896 z m 10.71636,-3.44902 q 0,3.44902 -3.0658,3.44902 -1.47715,0 -2.22967,-0.8849 -0.75251,-0.8849 -0.75251,-2.56412 0,-1.65832 0.75251,-2.53625 0.75252,-0.87794 2.28542,-0.87794 1.49109,0 2.25057,0.864 0.75948,0.85703 0.75948,2.55019 z m -1.25419,0 q 0,-1.50503 -0.43896,-2.1809 -0.43897,-0.67587 -1.37265,-0.67587 -0.91277,0 -1.32386,0.648 -0.40413,0.648 -0.40413,2.20877 0,1.58167 0.41109,2.24361 0.41807,0.65496 1.3169,0.65496 0.91974,0 1.36568,-0.68283 0.44593,-0.68284 0.44593,-2.21574 z m 6.83534,2.82193 q -0.78735,0.62709 -1.83948,0.62709 -2.68257,0 -2.68257,-3.35147 0,-1.72103 0.75948,-2.6129 0.75948,-0.89884 2.23664,-0.89884 0.75251,0 1.52593,0.16026 -0.0418,-0.22993 -0.0418,-1.15664 v -1.70013 l -1.1009,-0.16722 v -0.31355 h 2.25755 v 9.4134 l 0.80825,0.17419 v 0.31355 h -1.83948 z m -3.26786,-2.72438 q 0,1.32386 0.44593,1.97883 0.44594,0.648 1.36568,0.648 0.78735,0 1.41444,-0.27174 v -5.17702 q -0.62012,-0.11845 -1.41444,-0.11845 -1.81161,0 -1.81161,2.94038 z m 7.17675,-0.0836 v 0.12542 q 0,0.96155 0.20903,1.49806 0.216,0.52955 0.65497,0.80826 0.44593,0.27871 1.16361,0.27871 0.37626,0 0.89187,-0.0627 0.51561,-0.0627 0.85006,-0.13935 v 0.39019 q -0.33445,0.216 -0.91277,0.37626 -0.57135,0.16025 -1.17058,0.16025 -1.52593,0 -2.23664,-0.82219 -0.70374,-0.82219 -0.70374,-2.64077 0,-1.71406 0.71768,-2.55715 0.71767,-0.8431 2.04851,-0.8431 2.51535,0 2.51535,2.85677 v 0.57135 z m 1.512,-2.8707 q -0.72464,0 -1.11484,0.58529 -0.38322,0.58529 -0.38322,1.728 h 2.80102 q 0,-1.24723 -0.32051,-1.77677 -0.32052,-0.53652 -0.98245,-0.53652 z"
       id="text5777"
       style="font-size:14.2699px;line-height:125%;font-family:'Times New Roman';-inkscape-font-specification:'Times New Roman';letter-spacing:0px;word-spacing:0px;stroke-width:0.680382;fill:#616161;fill-opacity:1"
       aria-label="Code" />
    <path
       d="m 328.63148,273.2087 1.19845,0.18812 v 0.36929 h -3.7347 v -0.36929 l 1.19845,-0.18812 v -8.23586 l -1.19845,-0.18116 v -0.36929 h 3.7347 v 0.36929 l -1.19845,0.18116 z m 4.02735,0.69677 q -0.6689,0 -1.00335,-0.39716 -0.32749,-0.39716 -0.32749,-1.11484 v -4.59173 h -0.85703 v -0.31355 l 0.87097,-0.27174 0.70374,-1.48412 h 0.43897 v 1.48412 h 1.49806 v 0.58529 h -1.49806 v 4.46631 q 0,0.4529 0.20206,0.68284 0.20903,0.22993 0.54348,0.22993 0.40413,0 0.98245,-0.11148 v 0.4529 q -0.24387,0.16723 -0.70374,0.27174 -0.45987,0.11149 -0.85006,0.11149 z m 3.44902,-3.43509 v 0.12542 q 0,0.96154 0.20903,1.49806 0.216,0.52955 0.65497,0.80826 0.44593,0.2787 1.16361,0.2787 0.37626,0 0.89187,-0.0627 0.51561,-0.0627 0.85006,-0.13935 v 0.39019 q -0.33445,0.216 -0.91277,0.37626 -0.57135,0.16026 -1.17058,0.16026 -1.52593,0 -2.23664,-0.82219 -0.70374,-0.8222 -0.70374,-2.64077 0,-1.71406 0.71768,-2.55716 0.71767,-0.84309 2.04851,-0.84309 2.51535,0 2.51535,2.85677 v 0.57135 z m 1.512,-2.8707 q -0.72464,0 -1.11484,0.58529 -0.38322,0.58528 -0.38322,1.72799 h 2.80102 q 0,-1.24722 -0.32051,-1.77677 -0.32052,-0.53651 -0.98245,-0.53651 z m 7.63662,-0.55742 v 1.7698 h -0.29961 l -0.40413,-0.76645 q -0.34838,0 -0.82915,0.0976 -0.47381,0.0906 -0.8222,0.24387 v 4.89134 l 1.12181,0.1742 v 0.31354 h -3.10761 v -0.31354 l 0.82916,-0.1742 v -5.57418 L 340.91558,267.53 v -0.31355 h 1.90916 l 0.0627,0.81523 q 0.41806,-0.34839 1.12877,-0.66891 0.71768,-0.32051 1.13574,-0.32051 z m 3.36542,0.0279 q 1.07303,0 1.5747,0.43897 0.50865,0.43896 0.50865,1.34477 v 4.4245 l 0.81522,0.1742 v 0.31354 h -1.79767 l -0.13239,-0.65496 q -0.79432,0.79432 -2.02761,0.79432 -1.67922,0 -1.67922,-1.95097 0,-0.65496 0.25084,-1.07999 0.25781,-0.432 0.81522,-0.65497 0.55742,-0.22993 1.61652,-0.25084 l 0.98244,-0.0279 v -1.02425 q 0,-0.67587 -0.25083,-0.99639 -0.24387,-0.32051 -0.75949,-0.32051 -0.69677,0 -1.27509,0.32748 l -0.2369,0.81522 h -0.39019 V 267.314 q 1.12877,-0.24387 1.9858,-0.24387 z m 0.9267,3.35844 -0.91277,0.0279 q -0.93367,0.0348 -1.26812,0.36233 -0.32749,0.32748 -0.32749,1.09393 0,1.22632 0.99639,1.22632 0.4738,0 0.81522,-0.10452 0.34839,-0.11148 0.69677,-0.27871 z m 4.49419,3.4769 q -0.6689,0 -1.00336,-0.39716 -0.32748,-0.39716 -0.32748,-1.11484 v -4.59173 h -0.85703 v -0.31355 l 0.87097,-0.27174 0.70374,-1.48412 h 0.43896 v 1.48412 h 1.49806 v 0.58529 h -1.49806 v 4.46631 q 0,0.4529 0.20207,0.68284 0.20903,0.22993 0.54348,0.22993 0.40413,0 0.98245,-0.11148 v 0.4529 q -0.24387,0.16723 -0.70374,0.27174 -0.45987,0.11149 -0.85006,0.11149 z m 4.27818,-8.82811 q 0,0.30658 -0.22297,0.52955 -0.22297,0.22296 -0.53651,0.22296 -0.30658,0 -0.52955,-0.22296 -0.22297,-0.22297 -0.22297,-0.52955 0,-0.31355 0.22297,-0.53651 0.22297,-0.22297 0.52955,-0.22297 0.31354,0 0.53651,0.22297 0.22297,0.22296 0.22297,0.53651 z m -0.0697,8.20101 1.12181,0.1742 v 0.31354 h -3.39329 v -0.31354 l 1.11484,-0.1742 v -5.57418 L 356.16793,267.53 v -0.31355 h 2.08335 z m 7.98502,-2.82193 q 0,3.44903 -3.0658,3.44903 -1.47716,0 -2.22967,-0.8849 -0.75252,-0.8849 -0.75252,-2.56413 0,-1.65831 0.75252,-2.53625 0.75251,-0.87793 2.28541,-0.87793 1.49109,0 2.25057,0.864 0.75949,0.85703 0.75949,2.55018 z m -1.25419,0 q 0,-1.50502 -0.43897,-2.18089 -0.43897,-0.67587 -1.37264,-0.67587 -0.91277,0 -1.32387,0.648 -0.40413,0.64799 -0.40413,2.20876 0,1.58168 0.4111,2.24361 0.41806,0.65497 1.3169,0.65497 0.91974,0 1.36567,-0.68284 0.44594,-0.68284 0.44594,-2.21574 z m 4.05521,-2.71044 q 0.53652,-0.30658 1.14271,-0.50168 0.60619,-0.20206 1.01032,-0.20206 0.85006,0 1.28206,0.49471 0.432,0.49471 0.432,1.43535 v 4.30605 l 0.79432,0.1742 v 0.31354 h -2.82193 v -0.31354 l 0.87097,-0.1742 v -4.18063 q 0,-0.57832 -0.28568,-0.90581 -0.27871,-0.33445 -0.87097,-0.33445 -0.62709,0 -1.53986,0.20207 v 5.21882 l 0.8849,0.1742 v 0.31354 h -2.8289 v -0.31354 l 0.78735,-0.1742 v -5.57418 L 367.10726,267.53 v -0.31355 h 1.86735 z m 9.50398,-0.0418 -0.74555,-0.17419 v -0.31355 h 1.83948 l 0.0139,0.38323 q 0.29264,-0.25084 0.78038,-0.40413 0.49471,-0.15329 1.00335,-0.15329 1.25419,0 1.93703,0.87096 0.68981,0.87097 0.68981,2.50142 0,1.66528 -0.75252,2.57806 -0.74554,0.91277 -2.15999,0.91277 -0.78736,0 -1.49806,-0.15329 0.0418,0.50167 0.0418,0.78735 v 1.7698 l 1.14271,0.16723 v 0.32748 h -3.12154 v -0.32748 l 0.82916,-0.16723 z m 4.26425,2.71045 q 0,-1.33781 -0.43897,-1.9858 -0.432,-0.65497 -1.3169,-0.65497 -0.81522,0 -1.35871,0.22993 v 5.23277 q 0.62013,0.11845 1.35871,0.11845 1.75587,0 1.75587,-2.94038 z m 4.36876,2.86373 1.1218,0.1742 v 0.31354 h -3.39328 v -0.31354 l 1.11484,-0.1742 v -8.93262 l -1.11484,-0.16723 v -0.31354 h 2.27148 z m 4.64747,-6.20824 q 1.07303,0 1.5747,0.43897 0.50865,0.43896 0.50865,1.34477 v 4.4245 l 0.81522,0.1742 v 0.31354 h -1.79767 l -0.13239,-0.65496 q -0.79432,0.79432 -2.02761,0.79432 -1.67922,0 -1.67922,-1.95097 0,-0.65496 0.25084,-1.07999 0.25781,-0.432 0.81523,-0.65497 0.55741,-0.22993 1.61651,-0.25084 l 0.98245,-0.0279 v -1.02425 q 0,-0.67587 -0.25084,-0.99639 -0.24387,-0.32051 -0.75948,-0.32051 -0.69678,0 -1.2751,0.32748 l -0.2369,0.81522 h -0.39019 V 267.314 q 1.12877,-0.24387 1.9858,-0.24387 z m 0.92671,3.35844 -0.91278,0.0279 q -0.93367,0.0348 -1.26812,0.36233 -0.32748,0.32748 -0.32748,1.09393 0,1.22632 0.99638,1.22632 0.47381,0 0.81522,-0.10452 0.34839,-0.11148 0.69678,-0.27871 z m 4.4245,-2.68257 q 0.53652,-0.30658 1.14271,-0.50168 0.60619,-0.20206 1.01032,-0.20206 0.85006,0 1.28206,0.49471 0.432,0.49471 0.432,1.43535 v 4.30605 l 0.79432,0.1742 v 0.31354 h -2.82193 v -0.31354 l 0.87097,-0.1742 v -4.18063 q 0,-0.57832 -0.28568,-0.90581 -0.27871,-0.33445 -0.87096,-0.33445 -0.6271,0 -1.53987,0.20207 v 5.21882 l 0.8849,0.1742 v 0.31354 h -2.8289 v -0.31354 l 0.78736,-0.1742 v -5.57418 L 395.24293,267.53 v -0.31355 h 1.86735 z"
       id="text5795"
       style="font-size:14.2699px;line-height:125%;font-family:'Times New Roman';-inkscape-font-specification:'Times New Roman';letter-spacing:0px;word-spacing:0px;stroke-width:0.680382;fill:#616161;fill-opacity:1"
       aria-label="Iteration plan" />
    <path
       d="m 350.09774,309.47953 v 0.36929 h -3.07277 v -0.36929 l 1.0591,-0.18813 3.18425,-8.86295 h 1.32387 l 3.30967,8.86295 1.18451,0.18813 v 0.36929 h -3.9507 v -0.36929 l 1.25419,-0.18813 -0.92671,-2.69651 h -3.67896 l -0.94064,2.69651 z m 1.49806,-8.04773 -1.60257,4.53599 h 3.25392 z m 11.48978,8.01986 q -0.34142,0.25083 -0.94064,0.39716 -0.59923,0.13935 -1.22632,0.13935 -3.18425,0 -3.18425,-3.46296 0,-1.63741 0.80825,-2.51535 0.81523,-0.8849 2.32722,-0.8849 0.94065,0 2.05548,0.216 v 1.82554 h -0.38322 l -0.29961,-1.15664 q -0.57833,-0.32748 -1.38658,-0.32748 -1.86735,0 -1.86735,2.84283 0,1.47716 0.56438,2.11122 0.57136,0.6271 1.76284,0.6271 1.01729,0 1.7698,-0.22994 z m 6.33366,0 q -0.34142,0.25083 -0.94064,0.39716 -0.59922,0.13935 -1.22632,0.13935 -3.18425,0 -3.18425,-3.46296 0,-1.63741 0.80826,-2.51535 0.81522,-0.8849 2.32722,-0.8849 0.94064,0 2.05548,0.216 v 1.82554 h -0.38323 l -0.29961,-1.15664 q -0.57832,-0.32748 -1.38658,-0.32748 -1.86735,0 -1.86735,2.84283 0,1.47716 0.56439,2.11122 0.57135,0.6271 1.76283,0.6271 1.01729,0 1.7698,-0.22994 z m 2.25058,-2.89858 v 0.12542 q 0,0.96155 0.20903,1.49806 0.216,0.52955 0.65496,0.80826 0.44594,0.27871 1.16361,0.27871 0.37626,0 0.89187,-0.0627 0.51561,-0.0627 0.85007,-0.13936 v 0.3902 q -0.33446,0.216 -0.91278,0.37625 -0.57135,0.16026 -1.17057,0.16026 -1.52594,0 -2.23664,-0.82219 -0.70374,-0.82219 -0.70374,-2.64077 0,-1.71406 0.71767,-2.55715 0.71768,-0.8431 2.04851,-0.8431 2.51535,0 2.51535,2.85677 v 0.57135 z m 1.51199,-2.8707 q -0.72464,0 -1.11483,0.58529 -0.38323,0.58529 -0.38323,1.72799 h 2.80103 q 0,-1.24722 -0.32052,-1.77677 -0.32051,-0.53651 -0.98245,-0.53651 z m 4.06916,0.10452 -0.74555,-0.1742 v -0.31355 h 1.83948 l 0.0139,0.38323 q 0.29265,-0.25084 0.78039,-0.40413 0.49471,-0.15329 1.00335,-0.15329 1.25419,0 1.93703,0.87097 0.6898,0.87096 0.6898,2.50141 0,1.66529 -0.75251,2.57806 -0.74555,0.91277 -2.16,0.91277 -0.78735,0 -1.49806,-0.15329 0.0418,0.50168 0.0418,0.78735 v 1.76981 l 1.14271,0.16722 v 0.32748 h -3.12154 v -0.32748 l 0.82916,-0.16722 z m 4.26424,2.71044 q 0,-1.3378 -0.43896,-1.9858 -0.432,-0.65497 -1.3169,-0.65497 -0.81523,0 -1.35871,0.22994 v 5.23276 q 0.62013,0.11845 1.35871,0.11845 1.75586,0 1.75586,-2.94038 z m 4.13883,3.49083 q -0.6689,0 -1.00335,-0.39716 -0.32748,-0.39716 -0.32748,-1.11484 v -4.59173 h -0.85704 v -0.31354 l 0.87097,-0.27175 0.70374,-1.48412 h 0.43897 v 1.48412 h 1.49806 v 0.58529 h -1.49806 v 4.46632 q 0,0.4529 0.20206,0.68283 0.20903,0.22994 0.54348,0.22994 0.40413,0 0.98245,-0.11149 v 0.45291 q -0.24387,0.16722 -0.70374,0.27174 -0.45987,0.11148 -0.85006,0.11148 z m 4.87741,-6.83534 q 1.07303,0 1.57471,0.43897 0.50864,0.43897 0.50864,1.34477 v 4.42451 l 0.81522,0.17419 v 0.31355 h -1.79767 l -0.13239,-0.65497 q -0.79432,0.79432 -2.0276,0.79432 -1.67923,0 -1.67923,-1.95096 0,-0.65497 0.25084,-1.08 0.25781,-0.432 0.81523,-0.65497 0.55741,-0.22993 1.61651,-0.25083 l 0.98245,-0.0279 v -1.02426 q 0,-0.67587 -0.25084,-0.99639 -0.24387,-0.32051 -0.75948,-0.32051 -0.69678,0 -1.2751,0.32748 l -0.2369,0.81523 h -0.39019 v -1.42839 q 1.12877,-0.24387 1.9858,-0.24387 z m 0.92671,3.35845 -0.91277,0.0279 q -0.93368,0.0348 -1.26813,0.36232 -0.32748,0.32748 -0.32748,1.09393 0,1.22632 0.99638,1.22632 0.47381,0 0.81523,-0.10452 0.34838,-0.11148 0.69677,-0.2787 z m 4.4245,-2.68258 q 0.53652,-0.30658 1.14271,-0.50167 0.60619,-0.20207 1.01032,-0.20207 0.85006,0 1.28206,0.49471 0.432,0.49471 0.432,1.43535 v 4.30606 l 0.79432,0.17419 v 0.31355 h -2.82193 v -0.31355 l 0.87097,-0.17419 v -4.18064 q 0,-0.57832 -0.28568,-0.9058 -0.27871,-0.33445 -0.87097,-0.33445 -0.62709,0 -1.53986,0.20206 v 5.21883 l 0.8849,0.17419 v 0.31355 h -2.8289 v -0.31355 l 0.78735,-0.17419 v -5.57418 l -0.78735,-0.1742 v -0.31355 h 1.86735 z m 10.7721,5.62296 q -0.34142,0.25083 -0.94064,0.39716 -0.59923,0.13935 -1.22632,0.13935 -3.18425,0 -3.18425,-3.46296 0,-1.63741 0.80826,-2.51535 0.81522,-0.8849 2.32722,-0.8849 0.94064,0 2.05547,0.216 v 1.82554 h -0.38322 l -0.29961,-1.15664 q -0.57832,-0.32748 -1.38658,-0.32748 -1.86735,0 -1.86735,2.84283 0,1.47716 0.56439,2.11122 0.57135,0.6271 1.76283,0.6271 1.01729,0 1.7698,-0.22994 z m 2.25058,-2.89858 v 0.12542 q 0,0.96155 0.20903,1.49806 0.216,0.52955 0.65497,0.80826 0.44593,0.27871 1.16361,0.27871 0.37625,0 0.89187,-0.0627 0.51561,-0.0627 0.85006,-0.13936 v 0.3902 q -0.33445,0.216 -0.91277,0.37625 -0.57136,0.16026 -1.17058,0.16026 -1.52593,0 -2.23664,-0.82219 -0.70374,-0.82219 -0.70374,-2.64077 0,-1.71406 0.71767,-2.55715 0.71768,-0.8431 2.04852,-0.8431 2.51534,0 2.51534,2.85677 v 0.57135 z m 1.512,-2.8707 q -0.72465,0 -1.11484,0.58529 -0.38323,0.58529 -0.38323,1.72799 h 2.80103 q 0,-1.24722 -0.32052,-1.77677 -0.32051,-0.53651 -0.98244,-0.53651 z m 8.90475,6.30579 q -0.66891,0 -1.00336,-0.39716 -0.32748,-0.39716 -0.32748,-1.11484 v -4.59173 h -0.85703 v -0.31354 l 0.87097,-0.27175 0.70374,-1.48412 h 0.43896 v 1.48412 h 1.49806 v 0.58529 h -1.49806 v 4.46632 q 0,0.4529 0.20207,0.68283 0.20903,0.22994 0.54348,0.22994 0.40413,0 0.98245,-0.11149 v 0.45291 q -0.24387,0.16722 -0.70374,0.27174 -0.45987,0.11148 -0.85006,0.11148 z m 3.44902,-3.43509 v 0.12542 q 0,0.96155 0.20903,1.49806 0.216,0.52955 0.65497,0.80826 0.44593,0.27871 1.16361,0.27871 0.37626,0 0.89187,-0.0627 0.51561,-0.0627 0.85006,-0.13936 v 0.3902 q -0.33445,0.216 -0.91277,0.37625 -0.57135,0.16026 -1.17058,0.16026 -1.52593,0 -2.23664,-0.82219 -0.70374,-0.82219 -0.70374,-2.64077 0,-1.71406 0.71768,-2.55715 0.71767,-0.8431 2.04851,-0.8431 2.51535,0 2.51535,2.85677 v 0.57135 z m 1.512,-2.8707 q -0.72465,0 -1.11484,0.58529 -0.38322,0.58529 -0.38322,1.72799 h 2.80102 q 0,-1.24722 -0.32051,-1.77677 -0.32052,-0.53651 -0.98245,-0.53651 z m 8.04772,4.32696 q 0,0.97548 -0.62013,1.47715 -0.61316,0.50168 -1.81857,0.50168 -0.48774,0 -1.08,-0.10452 -0.58529,-0.0975 -0.91974,-0.22296 v -1.60955 h 0.31355 l 0.34142,0.91277 q 0.52258,0.47381 1.3587,0.47381 1.35174,0 1.35174,-1.15664 0,-0.85006 -1.06606,-1.21239 l -0.62013,-0.20206 q -0.70374,-0.22994 -1.02425,-0.46684 -0.32052,-0.2369 -0.49471,-0.57832 -0.17419,-0.34839 -0.17419,-0.83613 0,-0.86399 0.58528,-1.3587 0.59226,-0.50168 1.59561,-0.50168 0.71768,0 1.79768,0.216 v 1.42838 h -0.32749 l -0.29264,-0.75948 q -0.36929,-0.32748 -1.16361,-0.32748 -0.56439,0 -0.864,0.27871 -0.29264,0.27871 -0.29264,0.75251 0,0.39716 0.26477,0.6689 0.27174,0.27175 0.81522,0.45291 1.02426,0.34838 1.33781,0.50864 0.31355,0.16026 0.52954,0.39716 0.22297,0.22994 0.34142,0.52955 0.12542,0.29961 0.12542,0.73858 z m 2.84283,1.97883 q -0.6689,0 -1.00335,-0.39716 -0.32748,-0.39716 -0.32748,-1.11484 v -4.59173 h -0.85703 v -0.31354 l 0.87096,-0.27175 0.70374,-1.48412 h 0.43897 v 1.48412 h 1.49806 v 0.58529 h -1.49806 v 4.46632 q 0,0.4529 0.20206,0.68283 0.20904,0.22994 0.54349,0.22994 0.40412,0 0.98245,-0.11149 v 0.45291 q -0.24387,0.16722 -0.70374,0.27174 -0.45987,0.11148 -0.85007,0.11148 z"
       id="text5799"
       style="font-size:14.2699px;line-height:125%;font-family:'Times New Roman';-inkscape-font-specification:'Times New Roman';letter-spacing:0px;word-spacing:0px;stroke-width:0.680382;fill:#616161;fill-opacity:1"
       aria-label="Acceptance test" />
    <path
       d="m 352.45188,350.57575 h 0.4529 l 0.24387,1.26115 q 0.25781,0.32749 0.88491,0.57833 0.63406,0.25083 1.24722,0.25083 0.97548,0 1.51896,-0.4947 0.55045,-0.50168 0.55045,-1.37961 0,-0.50168 -0.216,-0.82916 -0.20903,-0.32749 -0.55742,-0.55045 -0.34141,-0.22994 -0.78038,-0.38323 -0.43897,-0.16026 -0.9058,-0.32051 -0.45987,-0.16026 -0.89884,-0.35536 -0.43897,-0.19509 -0.78735,-0.49471 -0.34142,-0.29961 -0.55742,-0.73858 -0.20903,-0.44593 -0.20903,-1.09393 0,-1.11483 0.83612,-1.7489 0.83613,-0.63406 2.32026,-0.63406 1.12877,0 2.45263,0.29961 v 1.944 h -0.4529 l -0.24387,-1.14271 q -0.71071,-0.51561 -1.75586,-0.51561 -0.93368,0 -1.46323,0.38322 -0.52258,0.37626 -0.52258,1.04516 0,0.4529 0.20904,0.75252 0.216,0.29961 0.55741,0.51561 0.34839,0.20903 0.78736,0.36232 0.44593,0.15329 0.9058,0.32052 0.46684,0.16025 0.90581,0.36928 0.44593,0.20207 0.78735,0.52258 0.34838,0.31355 0.55742,0.77342 0.216,0.4529 0.216,1.12181 0,1.35173 -0.82916,2.09728 -0.82916,0.73858 -2.38993,0.73858 -0.75252,0 -1.512,-0.13239 -0.75948,-0.13238 -1.35174,-0.36232 z m 9.29495,2.6547 q -0.66891,0 -1.00336,-0.39716 -0.32748,-0.39716 -0.32748,-1.11484 v -4.59173 h -0.85703 v -0.31355 l 0.87097,-0.27174 0.70374,-1.48412 h 0.43896 v 1.48412 h 1.49806 v 0.58529 h -1.49806 v 4.46631 q 0,0.45291 0.20207,0.68284 0.20903,0.22994 0.54348,0.22994 0.40413,0 0.98245,-0.11149 v 0.4529 q -0.24387,0.16723 -0.70374,0.27175 -0.45987,0.11148 -0.85006,0.11148 z m 4.8774,-6.83534 q 1.07303,0 1.57471,0.43897 0.50864,0.43896 0.50864,1.34477 v 4.4245 l 0.81523,0.1742 v 0.31354 h -1.79768 l -0.13238,-0.65496 q -0.79432,0.79432 -2.02761,0.79432 -1.67922,0 -1.67922,-1.95096 0,-0.65497 0.25084,-1.08 0.2578,-0.432 0.81522,-0.65497 0.55742,-0.22993 1.61651,-0.25084 l 0.98245,-0.0279 v -1.02425 q 0,-0.67587 -0.25084,-0.99639 -0.24387,-0.32051 -0.75948,-0.32051 -0.69677,0 -1.27509,0.32748 l -0.23691,0.81523 h -0.39019 v -1.42839 q 1.12877,-0.24387 1.9858,-0.24387 z m 0.92671,3.35844 -0.91277,0.0279 q -0.93368,0.0348 -1.26813,0.36232 -0.32748,0.32748 -0.32748,1.09393 0,1.22632 0.99638,1.22632 0.47381,0 0.81523,-0.10452 0.34838,-0.11148 0.69677,-0.27871 z m 4.42451,-2.68257 q 0.53651,-0.30658 1.1427,-0.50168 0.60619,-0.20206 1.01032,-0.20206 0.85007,0 1.28206,0.49471 0.432,0.49471 0.432,1.43535 v 4.30605 l 0.79432,0.1742 v 0.31354 h -2.82192 v -0.31354 l 0.87096,-0.1742 v -4.18063 q 0,-0.57832 -0.28568,-0.9058 -0.2787,-0.33446 -0.87096,-0.33446 -0.6271,0 -1.53987,0.20207 v 5.21882 l 0.8849,0.1742 v 0.31354 h -2.82889 v -0.31354 l 0.78735,-0.1742 v -5.57418 l -0.78735,-0.17419 v -0.31355 h 1.86735 z m 9.91507,5.53237 q -0.78735,0.6271 -1.83948,0.6271 -2.68257,0 -2.68257,-3.35148 0,-1.72102 0.75948,-2.61289 0.75948,-0.89884 2.23664,-0.89884 0.75251,0 1.52593,0.16026 -0.0418,-0.22994 -0.0418,-1.15664 v -1.70013 l -1.1009,-0.16722 v -0.31355 h 2.25754 v 9.41339 l 0.80826,0.1742 v 0.31354 h -1.83948 z m -3.26786,-2.72438 q 0,1.32387 0.44593,1.97884 0.44593,0.648 1.36567,0.648 0.78736,0 1.41445,-0.27175 v -5.17701 q -0.62013,-0.11846 -1.41445,-0.11846 -1.8116,0 -1.8116,2.94038 z m 5.89469,0.38323 v -1.06606 h 3.70683 v 1.06606 z m 6.40334,0.96154 q 0,1.19845 1.11484,1.19845 0.86399,0 1.61651,-0.216 v -5.17702 l -0.98942,-0.17419 v -0.31355 h 2.13909 v 6.06192 l 0.82916,0.1742 v 0.31354 h -1.90915 l -0.0557,-0.52954 q -0.49471,0.27174 -1.1427,0.4738 -0.648,0.1951 -1.08697,0.1951 -1.67225,0 -1.67225,-1.92309 v -4.27819 l -0.83613,-0.17419 v -0.31355 h 1.99277 z m 6.01314,-4.19457 -0.74554,-0.17419 v -0.31355 h 1.83948 l 0.0139,0.38323 q 0.29265,-0.25084 0.78039,-0.40413 0.49471,-0.15329 1.00335,-0.15329 1.25419,0 1.93703,0.87097 0.6898,0.87096 0.6898,2.50141 0,1.66529 -0.75251,2.57806 -0.74555,0.91277 -2.16,0.91277 -0.78735,0 -1.49806,-0.15329 0.0418,0.50168 0.0418,0.78735 v 1.7698 l 1.14271,0.16723 v 0.32748 h -3.12154 v -0.32748 l 0.82915,-0.16723 z m 4.26425,2.71045 q 0,-1.3378 -0.43896,-1.9858 -0.432,-0.65497 -1.3169,-0.65497 -0.81523,0 -1.35871,0.22994 v 5.23276 q 0.62013,0.11845 1.35871,0.11845 1.75586,0 1.75586,-2.94038 z m 7.65057,-2.66864 q 0.52258,-0.29961 1.10786,-0.50168 0.58529,-0.20206 1.03123,-0.20206 0.48077,0 0.8849,0.18116 0.41109,0.18116 0.61316,0.57832 0.53651,-0.29961 1.25419,-0.52954 0.72464,-0.22994 1.19845,-0.22994 1.67225,0 1.67225,1.93006 v 4.30605 l 0.8431,0.1742 v 0.31354 h -2.97522 v -0.31354 l 0.97548,-0.1742 v -4.18063 q 0,-1.19845 -1.11484,-1.19845 -0.18116,0 -0.42503,0.0279 -0.2369,0.0279 -0.48077,0.0627 -0.2369,0.0348 -0.45987,0.0836 -0.216,0.0418 -0.36232,0.0697 0.11845,0.37626 0.11845,0.82916 v 4.30605 l 0.98245,0.1742 v 0.31354 h -3.10761 v -0.31354 l 0.96852,-0.1742 v -4.18063 q 0,-0.57832 -0.29962,-0.8849 -0.29264,-0.31355 -0.8849,-0.31355 -0.61316,0 -1.52593,0.20206 v 5.17702 l 0.98245,0.1742 v 0.31354 h -2.96825 v -0.31354 l 0.82916,-0.1742 v -5.57418 l -0.82916,-0.17419 v -0.31355 h 1.91612 z m 10.63971,2.72438 v 0.12542 q 0,0.96155 0.20903,1.49806 0.216,0.52955 0.65497,0.80826 0.44593,0.27871 1.16361,0.27871 0.37625,0 0.89187,-0.0627 0.51561,-0.0627 0.85006,-0.13936 v 0.39019 q -0.33445,0.216 -0.91277,0.37626 -0.57136,0.16026 -1.17058,0.16026 -1.52593,0 -2.23664,-0.82219 -0.70374,-0.82219 -0.70374,-2.64077 0,-1.71406 0.71767,-2.55715 0.71768,-0.8431 2.04851,-0.8431 2.51535,0 2.51535,2.85677 v 0.57135 z m 1.51199,-2.8707 q -0.72464,0 -1.11483,0.58529 -0.38323,0.58529 -0.38323,1.72799 h 2.80103 q 0,-1.24722 -0.32052,-1.77677 -0.32051,-0.53651 -0.98245,-0.53651 z m 4.82167,2.8707 v 0.12542 q 0,0.96155 0.20903,1.49806 0.216,0.52955 0.65497,0.80826 0.44593,0.27871 1.16361,0.27871 0.37626,0 0.89187,-0.0627 0.51561,-0.0627 0.85006,-0.13936 v 0.39019 q -0.33445,0.216 -0.91277,0.37626 -0.57135,0.16026 -1.17058,0.16026 -1.52593,0 -2.23664,-0.82219 -0.70374,-0.82219 -0.70374,-2.64077 0,-1.71406 0.71768,-2.55715 0.71767,-0.8431 2.04851,-0.8431 2.51535,0 2.51535,2.85677 v 0.57135 z m 1.512,-2.8707 q -0.72464,0 -1.11484,0.58529 -0.38322,0.58529 -0.38322,1.72799 h 2.80102 q 0,-1.24722 -0.32051,-1.77677 -0.32052,-0.53651 -0.98245,-0.53651 z m 5.33728,6.30579 q -0.6689,0 -1.00335,-0.39716 -0.32749,-0.39716 -0.32749,-1.11484 v -4.59173 h -0.85703 v -0.31355 l 0.87097,-0.27174 0.70374,-1.48412 h 0.43897 v 1.48412 h 1.49806 v 0.58529 h -1.49806 v 4.46631 q 0,0.45291 0.20206,0.68284 0.20903,0.22994 0.54348,0.22994 0.40413,0 0.98245,-0.11149 v 0.4529 q -0.24387,0.16723 -0.70374,0.27175 -0.45987,0.11148 -0.85006,0.11148 z m 4.27818,-8.82811 q 0,0.30658 -0.22296,0.52955 -0.22297,0.22297 -0.53652,0.22297 -0.30658,0 -0.52955,-0.22297 -0.22296,-0.22297 -0.22296,-0.52955 0,-0.31355 0.22296,-0.53651 0.22297,-0.22297 0.52955,-0.22297 0.31355,0 0.53652,0.22297 0.22296,0.22296 0.22296,0.53651 z m -0.0697,8.20101 1.1218,0.1742 v 0.31354 h -3.39328 v -0.31354 l 1.11483,-0.1742 v -5.57418 l -0.9267,-0.17419 v -0.31355 h 2.08335 z m 3.65108,-5.53237 q 0.53651,-0.30658 1.14271,-0.50168 0.60619,-0.20206 1.01032,-0.20206 0.85006,0 1.28206,0.49471 0.432,0.49471 0.432,1.43535 v 4.30605 l 0.79432,0.1742 v 0.31354 h -2.82193 v -0.31354 l 0.87096,-0.1742 v -4.18063 q 0,-0.57832 -0.28567,-0.9058 -0.27871,-0.33446 -0.87097,-0.33446 -0.62709,0 -1.53987,0.20207 v 5.21882 l 0.88491,0.1742 v 0.31354 h -2.8289 v -0.31354 l 0.78735,-0.1742 v -5.57418 l -0.78735,-0.17419 v -0.31355 h 1.86735 z m 10.93933,1.53987 q 0,1.12877 -0.67587,1.70709 -0.67587,0.57832 -1.944,0.57832 -0.57135,0 -1.05909,-0.10451 l -0.43897,0.91277 q 0.0209,0.11845 0.27174,0.22296 0.25084,0.10452 0.6271,0.10452 h 1.93702 q 1.0591,0 1.56774,0.45987 0.51561,0.45987 0.51561,1.26813 0,0.73161 -0.41109,1.27509 -0.40413,0.54348 -1.19148,0.83613 -0.78736,0.29961 -1.90916,0.29961 -1.3378,0 -2.04154,-0.4111 -0.69678,-0.41109 -0.69678,-1.17057 0,-0.36929 0.25084,-0.73162 0.25084,-0.35535 0.91974,-0.83612 -0.39716,-0.13239 -0.6689,-0.4529 -0.27174,-0.32052 -0.27174,-0.68981 l 1.1009,-1.24025 q -1.1009,-0.51562 -1.1009,-2.02761 0,-1.07303 0.67587,-1.65832 0.68284,-0.58529 1.97883,-0.58529 0.25781,0 0.66194,0.0557 0.40412,0.0488 0.62012,0.11845 l 1.53987,-0.77341 0.24387,0.29961 -0.96851,1.00335 q 0.46684,0.52258 0.46684,1.53987 z m -0.28568,5.36515 q 0,-0.39716 -0.24387,-0.62013 -0.24387,-0.22297 -0.73858,-0.22297 h -2.53625 q -0.29265,0.25084 -0.48078,0.63406 -0.18116,0.3902 -0.18116,0.72465 0,0.59922 0.432,0.85703 0.432,0.26477 1.32387,0.26477 1.16361,0 1.79071,-0.432 0.63406,-0.432 0.63406,-1.20541 z m -2.32025,-3.60929 q 0.75948,0 1.07303,-0.43199 0.32051,-0.43897 0.32051,-1.32387 0,-0.92671 -0.32748,-1.3169 -0.32749,-0.39716 -1.05213,-0.39716 -0.73161,0 -1.07303,0.39716 -0.34142,0.39716 -0.34142,1.3169 0,0.91974 0.33445,1.3378 0.33446,0.41806 1.06607,0.41806 z"
       id="text5803"
       style="font-size:14.2699px;line-height:125%;font-family:'Times New Roman';-inkscape-font-specification:'Times New Roman';letter-spacing:0px;word-spacing:0px;stroke-width:0.680382;fill:#616161;fill-opacity:1"
       aria-label="Stand-up meeting" />
    <path
       d="m 364.45115,389.91383 q 0,-1.14967 -0.53652,-1.64438 -0.53651,-0.49471 -1.80464,-0.49471 h -0.68284 v 4.42451 h 0.72465 q 1.17754,0 1.73496,-0.53652 0.56439,-0.53651 0.56439,-1.7489 z m -3.024,2.91251 v 3.10761 l 1.48413,0.18812 v 0.36929 h -3.93676 v -0.36929 l 1.10786,-0.18812 v -8.23586 l -1.19844,-0.18116 v -0.36929 h 3.52566 q 3.42812,0 3.42812,2.75226 0,1.43535 -0.87096,2.18089 -0.864,0.74555 -2.48748,0.74555 z m 8.22192,-3.03096 q 1.07303,0 1.57471,0.43897 0.50864,0.43896 0.50864,1.34477 v 4.4245 l 0.81522,0.1742 v 0.31354 h -1.79767 l -0.13239,-0.65496 q -0.79432,0.79432 -2.0276,0.79432 -1.67923,0 -1.67923,-1.95096 0,-0.65497 0.25084,-1.08 0.25781,-0.432 0.81523,-0.65497 0.55741,-0.22993 1.61651,-0.25084 l 0.98245,-0.0279 v -1.02425 q 0,-0.67587 -0.25084,-0.99639 -0.24387,-0.32051 -0.75948,-0.32051 -0.69678,0 -1.2751,0.32748 l -0.2369,0.81522 h -0.39019 v -1.42838 q 1.12877,-0.24387 1.9858,-0.24387 z m 0.92671,3.35844 -0.91277,0.0279 q -0.93368,0.0348 -1.26813,0.36233 -0.32748,0.32748 -0.32748,1.09393 0,1.22632 0.99638,1.22632 0.47381,0 0.81522,-0.10452 0.34839,-0.11148 0.69678,-0.27871 z m 4.80773,-5.35121 q 0,0.30658 -0.22297,0.52955 -0.22297,0.22297 -0.53651,0.22297 -0.30658,0 -0.52955,-0.22297 -0.22297,-0.22297 -0.22297,-0.52955 0,-0.31355 0.22297,-0.53651 0.22297,-0.22297 0.52955,-0.22297 0.31354,0 0.53651,0.22297 0.22297,0.22296 0.22297,0.53651 z m -0.0697,8.20101 1.1218,0.1742 v 0.31354 h -3.39328 v -0.31354 l 1.11484,-0.1742 v -5.57418 l -0.92671,-0.17419 v -0.31355 h 2.08335 z m 6.02011,-6.23611 v 1.7698 h -0.29961 l -0.40413,-0.76645 q -0.34838,0 -0.82916,0.0975 -0.4738,0.0906 -0.82219,0.24387 v 4.89134 l 1.12181,0.1742 v 0.31354 h -3.10761 v -0.31354 l 0.82916,-0.1742 v -5.57418 l -0.82916,-0.17419 v -0.31355 h 1.90916 l 0.0627,0.81523 q 0.41806,-0.34839 1.12877,-0.66891 0.71767,-0.32051 1.13574,-0.32051 z m 5.95044,0.70374 q 0.53652,-0.30658 1.14271,-0.50168 0.60619,-0.20206 1.01032,-0.20206 0.85006,0 1.28206,0.49471 0.432,0.49471 0.432,1.43535 v 4.30605 l 0.79432,0.1742 v 0.31354 h -2.82193 v -0.31354 l 0.87097,-0.1742 v -4.18063 q 0,-0.57832 -0.28568,-0.90581 -0.27871,-0.33445 -0.87097,-0.33445 -0.62709,0 -1.53986,0.20207 v 5.21882 l 0.8849,0.1742 v 0.31354 h -2.8289 v -0.31354 l 0.78735,-0.1742 v -5.57418 l -0.78735,-0.17419 v -0.31355 h 1.86735 z m 6.68902,2.72438 v 0.12542 q 0,0.96154 0.20903,1.49806 0.216,0.52955 0.65497,0.80826 0.44593,0.2787 1.16361,0.2787 0.37625,0 0.89186,-0.0627 0.51562,-0.0627 0.85007,-0.13936 v 0.39019 q -0.33445,0.216 -0.91278,0.37626 -0.57135,0.16026 -1.17057,0.16026 -1.52593,0 -2.23664,-0.82219 -0.70374,-0.8222 -0.70374,-2.64077 0,-1.71406 0.71767,-2.55716 0.71768,-0.84309 2.04851,-0.84309 2.51535,0 2.51535,2.85677 v 0.57135 z m 1.51199,-2.8707 q -0.72464,0 -1.11483,0.58529 -0.38323,0.58528 -0.38323,1.72799 h 2.80103 q 0,-1.24722 -0.32052,-1.77677 -0.32051,-0.53651 -0.98245,-0.53651 z m 9.07198,1.68619 q 0,1.12877 -0.67587,1.70709 -0.67587,0.57832 -1.94399,0.57832 -0.57136,0 -1.0591,-0.10452 l -0.43897,0.91278 q 0.0209,0.11845 0.27175,0.22296 0.25083,0.10452 0.62709,0.10452 h 1.93703 q 1.05909,0 1.56774,0.45987 0.51561,0.45987 0.51561,1.26813 0,0.73161 -0.4111,1.27509 -0.40413,0.54348 -1.19148,0.83613 -0.78735,0.29961 -1.90916,0.29961 -1.3378,0 -2.04154,-0.4111 -0.69677,-0.41109 -0.69677,-1.17058 0,-0.36929 0.25084,-0.73161 0.25084,-0.35535 0.91974,-0.83612 -0.39716,-0.13239 -0.6689,-0.45291 -0.27175,-0.32051 -0.27175,-0.6898 l 1.1009,-1.24026 q -1.1009,-0.51561 -1.1009,-2.0276 0,-1.07303 0.67587,-1.65832 0.68284,-0.58529 1.97884,-0.58529 0.2578,0 0.66193,0.0557 0.40413,0.0488 0.62013,0.11845 l 1.53987,-0.77342 0.24387,0.29962 -0.96852,1.00335 q 0.46684,0.52258 0.46684,1.53987 z m -0.28568,5.36514 q 0,-0.39716 -0.24387,-0.62012 -0.24387,-0.22297 -0.73858,-0.22297 h -2.53625 q -0.29264,0.25084 -0.48077,0.63406 -0.18116,0.3902 -0.18116,0.72465 0,0.59922 0.432,0.85703 0.432,0.26477 1.32386,0.26477 1.16361,0 1.79071,-0.432 0.63406,-0.432 0.63406,-1.20542 z m -2.32025,-3.60928 q 0.75948,0 1.07303,-0.432 0.32052,-0.43896 0.32052,-1.32386 0,-0.92671 -0.32749,-1.3169 -0.32748,-0.39716 -1.05212,-0.39716 -0.73162,0 -1.07303,0.39716 -0.34142,0.39716 -0.34142,1.3169 0,0.91974 0.33445,1.3378 0.33445,0.41806 1.06606,0.41806 z m 10.27043,-0.58529 q 0,3.44903 -3.0658,3.44903 -1.47716,0 -2.22967,-0.8849 -0.75252,-0.8849 -0.75252,-2.56413 0,-1.65831 0.75252,-2.53625 0.75251,-0.87793 2.28541,-0.87793 1.4911,0 2.25058,0.864 0.75948,0.85703 0.75948,2.55018 z m -1.25419,0 q 0,-1.50502 -0.43897,-2.18089 -0.43896,-0.67587 -1.37264,-0.67587 -0.91277,0 -1.32387,0.648 -0.40413,0.64799 -0.40413,2.20876 0,1.58168 0.4111,2.24361 0.41806,0.65497 1.3169,0.65497 0.91974,0 1.36567,-0.68284 0.44594,-0.68284 0.44594,-2.21574 z m 4.12489,3.44903 q -0.6689,0 -1.00335,-0.39716 -0.32749,-0.39716 -0.32749,-1.11484 v -4.59173 h -0.85703 v -0.31355 l 0.87097,-0.27174 0.70374,-1.48412 h 0.43897 v 1.48412 h 1.49806 v 0.58529 h -1.49806 v 4.46631 q 0,0.4529 0.20206,0.68284 0.20903,0.22993 0.54348,0.22993 0.40413,0 0.98245,-0.11148 v 0.4529 q -0.24387,0.16723 -0.70374,0.27174 -0.45987,0.11149 -0.85006,0.11149 z m 4.27819,-8.82811 q 0,0.30658 -0.22297,0.52955 -0.22297,0.22297 -0.53652,0.22297 -0.30658,0 -0.52954,-0.22297 -0.22297,-0.22297 -0.22297,-0.52955 0,-0.31355 0.22297,-0.53651 0.22296,-0.22297 0.52954,-0.22297 0.31355,0 0.53652,0.22297 0.22297,0.22296 0.22297,0.53651 z m -0.0697,8.20101 1.1218,0.1742 v 0.31354 h -3.39328 v -0.31354 l 1.11484,-0.1742 v -5.57418 l -0.92671,-0.17419 v -0.31355 h 2.08335 z m 4.63353,-6.20824 q 1.07303,0 1.57471,0.43897 0.50864,0.43896 0.50864,1.34477 v 4.4245 l 0.81523,0.1742 v 0.31354 h -1.79768 l -0.13238,-0.65496 q -0.79432,0.79432 -2.02761,0.79432 -1.67922,0 -1.67922,-1.95096 0,-0.65497 0.25084,-1.08 0.2578,-0.432 0.81522,-0.65497 0.55742,-0.22993 1.61651,-0.25084 l 0.98245,-0.0279 v -1.02425 q 0,-0.67587 -0.25084,-0.99639 -0.24387,-0.32051 -0.75948,-0.32051 -0.69677,0 -1.27509,0.32748 l -0.2369,0.81522 h -0.3902 v -1.42838 q 1.12877,-0.24387 1.9858,-0.24387 z m 0.92671,3.35844 -0.91277,0.0279 q -0.93368,0.0348 -1.26813,0.36233 -0.32748,0.32748 -0.32748,1.09393 0,1.22632 0.99639,1.22632 0.4738,0 0.81522,-0.10452 0.34839,-0.11148 0.69677,-0.27871 z m 4.49418,3.4769 q -0.6689,0 -1.00335,-0.39716 -0.32748,-0.39716 -0.32748,-1.11484 v -4.59173 h -0.85703 v -0.31355 l 0.87096,-0.27174 0.70374,-1.48412 h 0.43897 v 1.48412 h 1.49806 v 0.58529 h -1.49806 v 4.46631 q 0,0.4529 0.20206,0.68284 0.20903,0.22993 0.54349,0.22993 0.40412,0 0.98244,-0.11148 v 0.4529 q -0.24387,0.16723 -0.70374,0.27174 -0.45987,0.11149 -0.85006,0.11149 z m 4.27819,-8.82811 q 0,0.30658 -0.22297,0.52955 -0.22297,0.22297 -0.53651,0.22297 -0.30658,0 -0.52955,-0.22297 -0.22297,-0.22297 -0.22297,-0.52955 0,-0.31355 0.22297,-0.53651 0.22297,-0.22297 0.52955,-0.22297 0.31354,0 0.53651,0.22297 0.22297,0.22296 0.22297,0.53651 z m -0.0697,8.20101 1.1218,0.1742 v 0.31354 h -3.39328 v -0.31354 l 1.11484,-0.1742 v -5.57418 l -0.92671,-0.17419 v -0.31355 h 2.08335 z m 7.98502,-2.82193 q 0,3.44903 -3.0658,3.44903 -1.47716,0 -2.22968,-0.8849 -0.75251,-0.8849 -0.75251,-2.56413 0,-1.65831 0.75251,-2.53625 0.75252,-0.87793 2.28542,-0.87793 1.49109,0 2.25057,0.864 0.75949,0.85703 0.75949,2.55018 z m -1.2542,0 q 0,-1.50502 -0.43896,-2.18089 -0.43897,-0.67587 -1.37264,-0.67587 -0.91278,0 -1.32387,0.648 -0.40413,0.64799 -0.40413,2.20876 0,1.58168 0.4111,2.24361 0.41806,0.65497 1.3169,0.65497 0.91974,0 1.36567,-0.68284 0.44593,-0.68284 0.44593,-2.21574 z m 4.05522,-2.71044 q 0.53651,-0.30658 1.14271,-0.50168 0.60619,-0.20206 1.01032,-0.20206 0.85006,0 1.28206,0.49471 0.432,0.49471 0.432,1.43535 v 4.30605 l 0.79432,0.1742 v 0.31354 h -2.82193 v -0.31354 l 0.87096,-0.1742 v -4.18063 q 0,-0.57832 -0.28567,-0.90581 -0.27871,-0.33445 -0.87097,-0.33445 -0.62709,0 -1.53987,0.20207 v 5.21882 l 0.88491,0.1742 v 0.31354 h -2.8289 v -0.31354 l 0.78735,-0.1742 v -5.57418 l -0.78735,-0.17419 v -0.31355 h 1.86735 z"
       id="text5807"
       style="font-size:14.2699px;line-height:125%;font-family:'Times New Roman';-inkscape-font-specification:'Times New Roman';letter-spacing:0px;word-spacing:0px;stroke-width:0.680382;fill:#616161;fill-opacity:1"
       aria-label="Pair negotiation" />
    <path
       d="m 371.11856,432.94694 -1.25419,-0.18117 v -0.36929 h 3.18425 v 0.36929 l -1.19845,0.18117 v 5.58114 q 0,1.67922 -0.9267,2.51535 -0.91974,0.83613 -2.67561,0.83613 -1.86038,0 -2.78709,-0.83613 -0.91974,-0.84309 -0.91974,-2.38296 v -5.71353 l -1.19845,-0.18117 v -0.36929 h 3.7347 v 0.36929 l -1.19845,0.18117 v 5.60901 q 0,2.54322 2.47355,2.54322 1.3378,0 2.04851,-0.63406 0.71767,-0.63406 0.71767,-1.88129 z m 4.48722,2.77315 q 0.53651,-0.30658 1.1427,-0.50168 0.60619,-0.20206 1.01032,-0.20206 0.85007,0 1.28206,0.49471 0.432,0.49471 0.432,1.43535 v 4.30605 l 0.79432,0.1742 v 0.31354 h -2.82192 v -0.31354 l 0.87096,-0.1742 v -4.18063 q 0,-0.57832 -0.28568,-0.90581 -0.2787,-0.33445 -0.87096,-0.33445 -0.6271,0 -1.53987,0.20207 v 5.21882 l 0.8849,0.1742 v 0.31354 h -2.82889 v -0.31354 l 0.78735,-0.1742 v -5.57418 l -0.78735,-0.17419 v -0.31355 h 1.86735 z m 7.51817,-2.66864 q 0,0.30658 -0.22297,0.52955 -0.22296,0.22297 -0.53651,0.22297 -0.30658,0 -0.52955,-0.22297 -0.22297,-0.22297 -0.22297,-0.52955 0,-0.31355 0.22297,-0.53651 0.22297,-0.22297 0.52955,-0.22297 0.31355,0 0.53651,0.22297 0.22297,0.22296 0.22297,0.53651 z m -0.0697,8.20101 1.12181,0.1742 v 0.31354 h -3.39328 v -0.31354 l 1.11483,-0.1742 v -5.57418 l -0.92671,-0.17419 v -0.31355 h 2.08335 z m 3.72077,0.6271 q -0.6689,0 -1.00335,-0.39716 -0.32749,-0.39716 -0.32749,-1.11484 v -4.59173 h -0.85703 v -0.31355 l 0.87097,-0.27174 0.70374,-1.48412 h 0.43897 v 1.48412 h 1.49806 v 0.58529 h -1.49806 v 4.46631 q 0,0.45291 0.20206,0.68284 0.20903,0.22993 0.54348,0.22993 0.40413,0 0.98245,-0.11148 v 0.4529 q -0.24387,0.16723 -0.70374,0.27174 -0.45987,0.11149 -0.85006,0.11149 z m 7.53211,0 q -0.6689,0 -1.00335,-0.39716 -0.32749,-0.39716 -0.32749,-1.11484 v -4.59173 h -0.85703 v -0.31355 l 0.87097,-0.27174 0.70374,-1.48412 h 0.43897 v 1.48412 h 1.49806 v 0.58529 h -1.49806 v 4.46631 q 0,0.45291 0.20206,0.68284 0.20903,0.22993 0.54348,0.22993 0.40413,0 0.98245,-0.11148 v 0.4529 q -0.24387,0.16723 -0.70374,0.27174 -0.45987,0.11149 -0.85006,0.11149 z m 3.44902,-3.43509 v 0.12542 q 0,0.96155 0.20904,1.49806 0.21599,0.52955 0.65496,0.80826 0.44594,0.2787 1.16361,0.2787 0.37626,0 0.89187,-0.0627 0.51561,-0.0627 0.85006,-0.13936 v 0.39019 q -0.33445,0.216 -0.91277,0.37626 -0.57135,0.16026 -1.17058,0.16026 -1.52593,0 -2.23664,-0.82219 -0.70374,-0.82219 -0.70374,-2.64077 0,-1.71406 0.71768,-2.55716 0.71767,-0.84309 2.04851,-0.84309 2.51535,0 2.51535,2.85677 v 0.57135 z m 1.512,-2.8707 q -0.72464,0 -1.11484,0.58529 -0.38322,0.58529 -0.38322,1.72799 h 2.80102 q 0,-1.24722 -0.32051,-1.77677 -0.32052,-0.53651 -0.98245,-0.53651 z m 8.04772,4.32695 q 0,0.97549 -0.62013,1.47716 -0.61316,0.50168 -1.81857,0.50168 -0.48774,0 -1.08,-0.10452 -0.58529,-0.0976 -0.91974,-0.22296 v -1.60955 h 0.31355 l 0.34142,0.91277 q 0.52257,0.47381 1.3587,0.47381 1.35174,0 1.35174,-1.15664 0,-0.85007 -1.06606,-1.21239 l -0.62013,-0.20206 q -0.70374,-0.22994 -1.02425,-0.46684 -0.32052,-0.2369 -0.49471,-0.57832 -0.1742,-0.34839 -0.1742,-0.83613 0,-0.864 0.58529,-1.3587 0.59226,-0.50168 1.59561,-0.50168 0.71768,0 1.79767,0.216 v 1.42838 h -0.32748 l -0.29264,-0.75948 q -0.36929,-0.32748 -1.16361,-0.32748 -0.56439,0 -0.864,0.27871 -0.29265,0.27871 -0.29265,0.75251 0,0.39716 0.26478,0.6689 0.27174,0.27174 0.81522,0.4529 1.02426,0.34839 1.33781,0.50865 0.31354,0.16026 0.52954,0.39716 0.22297,0.22993 0.34142,0.52955 0.12542,0.29961 0.12542,0.73857 z m 2.84283,1.97884 q -0.6689,0 -1.00335,-0.39716 -0.32748,-0.39716 -0.32748,-1.11484 v -4.59173 h -0.85703 v -0.31355 l 0.87096,-0.27174 0.70375,-1.48412 h 0.43896 v 1.48412 h 1.49806 v 0.58529 h -1.49806 v 4.46631 q 0,0.45291 0.20207,0.68284 0.20903,0.22993 0.54348,0.22993 0.40413,0 0.98245,-0.11148 v 0.4529 q -0.24387,0.16723 -0.70374,0.27174 -0.45987,0.11149 -0.85007,0.11149 z"
       id="text5811"
       style="font-size:14.2699px;line-height:125%;font-family:'Times New Roman';-inkscape-font-specification:'Times New Roman';letter-spacing:0px;word-spacing:0px;stroke-width:0.680382;fill:#616161;fill-opacity:1"
       aria-label="Unit test" />
    <path
       d="m 311.68354,469.52543 q 0,-1.14967 -0.53652,-1.64438 -0.53651,-0.49471 -1.80464,-0.49471 h -0.68283 v 4.42451 h 0.72464 q 1.17754,0 1.73496,-0.53652 0.56439,-0.53651 0.56439,-1.7489 z m -3.02399,2.91251 v 3.10761 l 1.48412,0.18813 v 0.36929 h -3.93676 v -0.36929 l 1.10787,-0.18813 v -8.23585 l -1.19845,-0.18116 v -0.36929 h 3.52567 q 3.42812,0 3.42812,2.75225 0,1.43535 -0.87097,2.1809 -0.864,0.74554 -2.48748,0.74554 z m 8.22191,-3.03096 q 1.07303,0 1.57471,0.43897 0.50864,0.43897 0.50864,1.34477 v 4.42451 l 0.81522,0.17419 v 0.31355 h -1.79767 l -0.13239,-0.65497 q -0.79432,0.79432 -2.0276,0.79432 -1.67922,0 -1.67922,-1.95096 0,-0.65497 0.25083,-1.08 0.25781,-0.432 0.81523,-0.65497 0.55742,-0.22993 1.61651,-0.25083 l 0.98245,-0.0279 v -1.02426 q 0,-0.67587 -0.25084,-0.99638 -0.24387,-0.32052 -0.75948,-0.32052 -0.69677,0 -1.2751,0.32748 l -0.2369,0.81523 h -0.39019 v -1.42839 q 1.12877,-0.24387 1.9858,-0.24387 z m 0.92671,3.35845 -0.91277,0.0279 q -0.93368,0.0348 -1.26813,0.36232 -0.32748,0.32748 -0.32748,1.09393 0,1.22632 0.99638,1.22632 0.47381,0 0.81523,-0.10451 0.34838,-0.11149 0.69677,-0.27871 z m 4.80773,-5.35122 q 0,0.30658 -0.22297,0.52955 -0.22297,0.22297 -0.53651,0.22297 -0.30658,0 -0.52955,-0.22297 -0.22297,-0.22297 -0.22297,-0.52955 0,-0.31354 0.22297,-0.53651 0.22297,-0.22297 0.52955,-0.22297 0.31354,0 0.53651,0.22297 0.22297,0.22297 0.22297,0.53651 z m -0.0697,8.20102 1.12181,0.17419 v 0.31355 h -3.39329 v -0.31355 l 1.11484,-0.17419 v -5.57418 l -0.92671,-0.1742 v -0.31354 h 2.08335 z m 6.02012,-6.23612 v 1.7698 h -0.29962 l -0.40413,-0.76645 q -0.34838,0 -0.82915,0.0976 -0.47381,0.0906 -0.8222,0.24387 v 4.89135 l 1.12181,0.17419 v 0.31355 h -3.10761 v -0.31355 l 0.82916,-0.17419 v -5.57418 l -0.82916,-0.1742 v -0.31354 h 1.90916 l 0.0627,0.81522 q 0.41806,-0.34839 1.12877,-0.6689 0.71768,-0.32052 1.13574,-0.32052 z m 4.75198,0.66194 -0.74554,-0.1742 v -0.31354 h 1.83948 l 0.0139,0.38322 q 0.29265,-0.25084 0.78039,-0.40413 0.49471,-0.15329 1.00335,-0.15329 1.25419,0 1.93703,0.87097 0.6898,0.87096 0.6898,2.50141 0,1.66529 -0.75251,2.57806 -0.74555,0.91277 -2.16,0.91277 -0.78735,0 -1.49806,-0.15329 0.0418,0.50168 0.0418,0.78735 v 1.76981 l 1.14271,0.16722 v 0.32748 h -3.12155 v -0.32748 l 0.82916,-0.16722 z m 4.26425,2.71044 q 0,-1.3378 -0.43897,-1.9858 -0.43199,-0.65497 -1.3169,-0.65497 -0.81522,0 -1.3587,0.22994 v 5.23276 q 0.62013,0.11845 1.3587,0.11845 1.75587,0 1.75587,-2.94038 z m 6.43818,-3.37238 v 1.7698 h -0.29961 l -0.40413,-0.76645 q -0.34839,0 -0.82916,0.0976 -0.47381,0.0906 -0.82219,0.24387 v 4.89135 l 1.1218,0.17419 v 0.31355 h -3.1076 v -0.31355 l 0.82916,-0.17419 v -5.57418 l -0.82916,-0.1742 v -0.31354 h 1.90915 l 0.0627,0.81522 q 0.41807,-0.34839 1.12877,-0.6689 0.71768,-0.32052 1.13574,-0.32052 z m 6.71689,3.41419 q 0,3.44902 -3.0658,3.44902 -1.47716,0 -2.22968,-0.8849 -0.75251,-0.8849 -0.75251,-2.56412 0,-1.65832 0.75251,-2.53625 0.75252,-0.87794 2.28542,-0.87794 1.49109,0 2.25057,0.864 0.75949,0.85703 0.75949,2.55019 z m -1.2542,0 q 0,-1.50503 -0.43896,-2.1809 -0.43897,-0.67587 -1.37264,-0.67587 -0.91278,0 -1.32387,0.648 -0.40413,0.648 -0.40413,2.20877 0,1.58167 0.4111,2.2436 0.41806,0.65497 1.3169,0.65497 0.91974,0 1.36567,-0.68284 0.44593,-0.68283 0.44593,-2.21573 z m 7.8596,-1.17058 q 0,1.12877 -0.67587,1.70709 -0.67587,0.57832 -1.94399,0.57832 -0.57136,0 -1.0591,-0.10451 l -0.43896,0.91277 q 0.0209,0.11845 0.27174,0.22297 0.25083,0.10451 0.62709,0.10451 h 1.93703 q 1.05909,0 1.56774,0.45987 0.51561,0.45987 0.51561,1.26813 0,0.73161 -0.4111,1.27509 -0.40412,0.54348 -1.19148,0.83613 -0.78735,0.29961 -1.90915,0.29961 -1.33781,0 -2.04155,-0.4111 -0.69677,-0.41109 -0.69677,-1.17057 0,-0.36929 0.25084,-0.73161 0.25084,-0.35536 0.91974,-0.83613 -0.39716,-0.13239 -0.6689,-0.4529 -0.27175,-0.32052 -0.27175,-0.68981 l 1.10091,-1.24025 q -1.10091,-0.51561 -1.10091,-2.02761 0,-1.07303 0.67587,-1.65832 0.68284,-0.58529 1.97884,-0.58529 0.2578,0 0.66193,0.0557 0.40413,0.0488 0.62013,0.11846 l 1.53987,-0.77342 0.24387,0.29961 -0.96852,1.00335 q 0.46684,0.52258 0.46684,1.53987 z m -0.28568,5.36515 q 0,-0.39716 -0.24387,-0.62013 -0.24387,-0.22297 -0.73858,-0.22297 h -2.53625 q -0.29264,0.25084 -0.48077,0.63407 -0.18116,0.39019 -0.18116,0.72464 0,0.59922 0.432,0.85703 0.432,0.26477 1.32387,0.26477 1.16361,0 1.7907,-0.432 0.63406,-0.432 0.63406,-1.20541 z m -2.32025,-3.60928 q 0.75948,0 1.07303,-0.432 0.32052,-0.43897 0.32052,-1.32387 0,-0.92671 -0.32749,-1.3169 -0.32748,-0.39716 -1.05212,-0.39716 -0.73161,0 -1.07303,0.39716 -0.34142,0.39716 -0.34142,1.3169 0,0.91974 0.33445,1.3378 0.33445,0.41807 1.06606,0.41807 z m 8.30553,-3.99948 v 1.7698 h -0.29961 l -0.40413,-0.76645 q -0.34839,0 -0.82916,0.0976 -0.47381,0.0906 -0.82219,0.24387 v 4.89135 l 1.1218,0.17419 v 0.31355 h -3.1076 v -0.31355 l 0.82915,-0.17419 v -5.57418 l -0.82915,-0.1742 v -0.31354 h 1.90915 l 0.0627,0.81522 q 0.41807,-0.34839 1.12877,-0.6689 0.71768,-0.32052 1.13574,-0.32052 z m 3.36541,0.0279 q 1.07303,0 1.5747,0.43897 0.50865,0.43897 0.50865,1.34477 v 4.42451 l 0.81522,0.17419 v 0.31355 h -1.79767 l -0.13239,-0.65497 q -0.79432,0.79432 -2.02761,0.79432 -1.67922,0 -1.67922,-1.95096 0,-0.65497 0.25084,-1.08 0.25781,-0.432 0.81522,-0.65497 0.55742,-0.22993 1.61652,-0.25083 l 0.98245,-0.0279 v -1.02426 q 0,-0.67587 -0.25084,-0.99638 -0.24387,-0.32052 -0.75948,-0.32052 -0.69678,0 -1.2751,0.32748 l -0.2369,0.81523 h -0.39019 v -1.42839 q 1.12877,-0.24387 1.9858,-0.24387 z m 0.92671,3.35845 -0.91278,0.0279 q -0.93367,0.0348 -1.26812,0.36232 -0.32749,0.32748 -0.32749,1.09393 0,1.22632 0.99639,1.22632 0.4738,0 0.81522,-0.10451 0.34839,-0.11149 0.69678,-0.27871 z m 4.43844,-2.68258 q 0.52258,-0.29961 1.10787,-0.50167 0.58529,-0.20207 1.03122,-0.20207 0.48077,0 0.8849,0.18116 0.4111,0.18116 0.61316,0.57832 0.53652,-0.29961 1.25419,-0.52954 0.72464,-0.22994 1.19845,-0.22994 1.67225,0 1.67225,1.93006 v 4.30606 l 0.8431,0.17419 v 0.31355 h -2.97522 v -0.31355 l 0.97548,-0.17419 v -4.18064 q 0,-1.19845 -1.11483,-1.19845 -0.18117,0 -0.42504,0.0279 -0.2369,0.0279 -0.48077,0.0627 -0.2369,0.0348 -0.45987,0.0836 -0.216,0.0418 -0.36232,0.0697 0.11845,0.37626 0.11845,0.82916 v 4.30606 l 0.98245,0.17419 v 0.31355 h -3.1076 v -0.31355 l 0.96851,-0.17419 v -4.18064 q 0,-0.57832 -0.29961,-0.8849 -0.29265,-0.31355 -0.8849,-0.31355 -0.61316,0 -1.52594,0.20207 v 5.17702 l 0.98245,0.17419 v 0.31355 h -2.96825 v -0.31355 l 0.82916,-0.17419 v -5.57418 l -0.82916,-0.1742 v -0.31354 h 1.91613 z m 11.09958,0 q 0.52258,-0.29961 1.10787,-0.50167 0.58529,-0.20207 1.03122,-0.20207 0.48078,0 0.8849,0.18116 0.4111,0.18116 0.61316,0.57832 0.53652,-0.29961 1.25419,-0.52954 0.72465,-0.22994 1.19845,-0.22994 1.67226,0 1.67226,1.93006 v 4.30606 l 0.84309,0.17419 v 0.31355 h -2.97522 v -0.31355 l 0.97548,-0.17419 v -4.18064 q 0,-1.19845 -1.11483,-1.19845 -0.18116,0 -0.42503,0.0279 -0.23691,0.0279 -0.48078,0.0627 -0.2369,0.0348 -0.45987,0.0836 -0.216,0.0418 -0.36232,0.0697 0.11845,0.37626 0.11845,0.82916 v 4.30606 l 0.98245,0.17419 v 0.31355 h -3.1076 v -0.31355 l 0.96851,-0.17419 v -4.18064 q 0,-0.57832 -0.29961,-0.8849 -0.29264,-0.31355 -0.8849,-0.31355 -0.61316,0 -1.52593,0.20207 v 5.17702 l 0.98245,0.17419 v 0.31355 h -2.96825 v -0.31355 l 0.82915,-0.17419 v -5.57418 l -0.82915,-0.1742 v -0.31354 h 1.91612 z m 11.46888,-2.66864 q 0,0.30658 -0.22297,0.52955 -0.22297,0.22297 -0.53651,0.22297 -0.30658,0 -0.52955,-0.22297 -0.22297,-0.22297 -0.22297,-0.52955 0,-0.31354 0.22297,-0.53651 0.22297,-0.22297 0.52955,-0.22297 0.31354,0 0.53651,0.22297 0.22297,0.22297 0.22297,0.53651 z m -0.0697,8.20102 1.1218,0.17419 v 0.31355 h -3.39328 v -0.31355 l 1.11484,-0.17419 v -5.57418 l -0.92671,-0.1742 v -0.31354 h 2.08335 z m 3.65109,-5.53238 q 0.53651,-0.30658 1.14271,-0.50167 0.60619,-0.20207 1.01032,-0.20207 0.85006,0 1.28206,0.49471 0.432,0.49471 0.432,1.43535 v 4.30606 l 0.79432,0.17419 v 0.31355 h -2.82193 v -0.31355 l 0.87097,-0.17419 v -4.18064 q 0,-0.57832 -0.28568,-0.9058 -0.27871,-0.33445 -0.87097,-0.33445 -0.62709,0 -1.53986,0.20206 v 5.21883 l 0.8849,0.17419 v 0.31355 h -2.8289 v -0.31355 l 0.78735,-0.17419 v -5.57418 l -0.78735,-0.1742 v -0.31354 h 1.86735 z m 10.93933,1.53987 q 0,1.12877 -0.67587,1.70709 -0.67587,0.57832 -1.944,0.57832 -0.57135,0 -1.05909,-0.10451 l -0.43897,0.91277 q 0.0209,0.11845 0.27174,0.22297 0.25084,0.10451 0.6271,0.10451 h 1.93703 q 1.05909,0 1.56773,0.45987 0.51561,0.45987 0.51561,1.26813 0,0.73161 -0.41109,1.27509 -0.40413,0.54348 -1.19148,0.83613 -0.78735,0.29961 -1.90916,0.29961 -1.3378,0 -2.04154,-0.4111 -0.69677,-0.41109 -0.69677,-1.17057 0,-0.36929 0.25083,-0.73161 0.25084,-0.35536 0.91974,-0.83613 -0.39716,-0.13239 -0.6689,-0.4529 -0.27174,-0.32052 -0.27174,-0.68981 l 1.1009,-1.24025 q -1.1009,-0.51561 -1.1009,-2.02761 0,-1.07303 0.67587,-1.65832 0.68284,-0.58529 1.97883,-0.58529 0.25781,0 0.66194,0.0557 0.40413,0.0488 0.62013,0.11846 l 1.53986,-0.77342 0.24387,0.29961 -0.96851,1.00335 q 0.46684,0.52258 0.46684,1.53987 z m -0.28568,5.36515 q 0,-0.39716 -0.24387,-0.62013 -0.24387,-0.22297 -0.73858,-0.22297 h -2.53625 q -0.29265,0.25084 -0.48077,0.63407 -0.18116,0.39019 -0.18116,0.72464 0,0.59922 0.43199,0.85703 0.432,0.26477 1.32387,0.26477 1.16361,0 1.79071,-0.432 0.63406,-0.432 0.63406,-1.20541 z m -2.32025,-3.60928 q 0.75948,0 1.07303,-0.432 0.32051,-0.43897 0.32051,-1.32387 0,-0.92671 -0.32748,-1.3169 -0.32748,-0.39716 -1.05213,-0.39716 -0.73161,0 -1.07303,0.39716 -0.34142,0.39716 -0.34142,1.3169 0,0.91974 0.33446,1.3378 0.33445,0.41807 1.06606,0.41807 z"
       id="text5815"
       style="font-size:14.2699px;line-height:125%;font-family:'Times New Roman';-inkscape-font-specification:'Times New Roman';letter-spacing:0px;word-spacing:0px;stroke-width:0.680382;fill:#616161;fill-opacity:1"
       aria-label="Pair programming" />
    <path
       d="m 306.52432,257.80362 h -0.15003 l -2.10464,-4.94227 v 4.59935 l 0.77156,0.11574 v 0.22718 h -1.9589 v -0.22718 l 0.73726,-0.11574 v -5.06657 l -0.73726,-0.11145 v -0.22718 h 1.74029 l 1.86889,4.37217 2.04035,-4.37217 h 1.64599 v 0.22718 l -0.73727,0.11145 v 5.06657 l 0.73727,0.11574 v 0.22718 H 308.046 v -0.22718 l 0.77156,-0.11574 v -4.59935 z m 8.16567,-2.03606 q 0,2.12179 -1.88604,2.12179 -0.90872,0 -1.37166,-0.54438 -0.46293,-0.54438 -0.46293,-1.57741 0,-1.02017 0.46293,-1.56026 0.46294,-0.5401 1.40596,-0.5401 0.91729,0 1.38452,0.53152 0.46722,0.52724 0.46722,1.56884 z m -0.77156,0 q 0,-0.92587 -0.27005,-1.34166 -0.27004,-0.41578 -0.84443,-0.41578 -0.56152,0 -0.81442,0.39864 -0.24861,0.39864 -0.24861,1.3588 0,0.97302 0.2529,1.38023 0.25718,0.40293 0.81013,0.40293 0.56581,0 0.84015,-0.42007 0.27433,-0.42007 0.27433,-1.36309 z m 2.49471,-1.66743 q 0.33005,-0.1886 0.70297,-0.30862 0.37292,-0.12431 0.62154,-0.12431 0.52294,0 0.7887,0.30434 0.26576,0.30434 0.26576,0.88301 v 2.64902 l 0.48866,0.10716 v 0.19289 h -1.73601 v -0.19289 l 0.5358,-0.10716 v -2.57187 q 0,-0.35577 -0.17574,-0.55723 -0.17146,-0.20575 -0.53581,-0.20575 -0.38578,0 -0.9473,0.1243 v 3.21055 l 0.54438,0.10716 v 0.19289 h -1.7403 v -0.19289 l 0.48437,-0.10716 v -3.42915 l -0.48437,-0.10716 v -0.19289 h 1.14877 z m 4.43218,3.78922 q -0.4115,0 -0.61725,-0.24433 -0.20146,-0.24433 -0.20146,-0.68583 v -2.82476 h -0.52724 v -0.19289 l 0.53581,-0.16717 0.43293,-0.91302 h 0.27004 v 0.91302 h 0.92159 v 0.36006 h -0.92159 v 2.7476 q 0,0.27862 0.12431,0.42008 0.12859,0.14145 0.33434,0.14145 0.24862,0 0.60439,-0.0686 v 0.27861 q -0.15002,0.10288 -0.43293,0.16718 -0.2829,0.0686 -0.52294,0.0686 z m 2.40469,-4.43218 q 0,0.44579 -0.03,0.64296 0.30862,-0.17574 0.69868,-0.30433 0.39436,-0.1286 0.6644,-0.1286 0.52295,0 0.78871,0.30434 0.26576,0.30434 0.26576,0.88301 v 2.64902 l 0.48865,0.10716 v 0.19289 h -1.73601 v -0.19289 l 0.53581,-0.10716 v -2.59758 q 0,-0.73727 -0.71155,-0.73727 -0.40293,0 -0.96445,0.1243 v 3.21055 l 0.54438,0.10716 v 0.19289 h -1.76602 v -0.19289 l 0.51009,-0.10716 v -5.49522 l -0.6001,-0.10287 v -0.19289 h 1.31165 z m 6.09103,3.21483 q 0,0.6001 -0.38149,0.90872 -0.37721,0.30863 -1.11876,0.30863 -0.30005,0 -0.6644,-0.0643 -0.36006,-0.06 -0.56581,-0.13716 v -0.99017 h 0.19289 l 0.21003,0.56152 q 0.32149,0.29148 0.83586,0.29148 0.83157,0 0.83157,-0.71155 0,-0.52295 -0.65583,-0.74584 l -0.38149,-0.12431 q -0.43293,-0.14145 -0.63011,-0.28719 -0.19717,-0.14574 -0.30433,-0.35577 -0.10716,-0.21433 -0.10716,-0.51438 0,-0.53151 0.36006,-0.83585 0.36434,-0.30863 0.98159,-0.30863 0.44151,0 1.1059,0.13288 v 0.87872 h -0.20146 l -0.18003,-0.46722 q -0.22718,-0.20146 -0.71583,-0.20146 -0.34721,0 -0.53152,0.17146 -0.18003,0.17145 -0.18003,0.46293 0,0.24433 0.16288,0.4115 0.16717,0.16717 0.50151,0.27862 0.63011,0.21432 0.823,0.31291 0.19289,0.0986 0.32577,0.24433 0.13717,0.14145 0.21004,0.32577 0.0772,0.18431 0.0772,0.45436 z"
       id="text5833"
       style="font-size:8.77863px;line-height:125%;font-family:'Times New Roman';-inkscape-font-specification:'Times New Roman';letter-spacing:0px;word-spacing:0px;stroke-width:0.680382;fill:#616161;fill-opacity:1"
       aria-label="Months" />
    <path
       d="m 355.85972,290.98362 h -0.22718 l -1.49168,-3.96067 -1.53026,3.96067 h -0.22718 l -1.90318,-5.54237 -0.50151,-0.11145 v -0.22718 h 2.19465 v 0.22718 l -0.84442,0.11145 1.36737,4.05069 1.54741,-3.98639 h 0.19288 l 1.49169,3.98639 1.30307,-4.05069 -0.89586,-0.11145 v -0.22718 h 1.90318 v 0.22718 l -0.50152,0.11145 z m 2.80762,-2.16037 v 0.0772 q 0,0.59153 0.12859,0.92158 0.13288,0.32577 0.40293,0.49723 0.27433,0.17146 0.71584,0.17146 0.23146,0 0.54866,-0.0386 0.3172,-0.0386 0.52295,-0.0857 v 0.24004 q -0.20575,0.13288 -0.56153,0.23147 -0.35149,0.0986 -0.72012,0.0986 -0.93873,0 -1.37595,-0.5058 -0.43293,-0.5058 -0.43293,-1.62456 0,-1.05447 0.44151,-1.57313 0.4415,-0.51866 1.26021,-0.51866 1.5474,0 1.5474,1.75744 v 0.35149 z m 0.93016,-1.76601 q -0.44579,0 -0.68583,0.36006 -0.23576,0.36006 -0.23576,1.06304 h 1.72315 q 0,-0.76728 -0.19717,-1.09305 -0.19718,-0.33005 -0.60439,-0.33005 z m 2.96622,1.76601 v 0.0772 q 0,0.59153 0.12859,0.92158 0.13288,0.32577 0.40292,0.49723 0.27434,0.17146 0.71584,0.17146 0.23147,0 0.54866,-0.0386 0.3172,-0.0386 0.52295,-0.0857 v 0.24004 q -0.20575,0.13288 -0.56152,0.23147 -0.35149,0.0986 -0.72013,0.0986 -0.93873,0 -1.37594,-0.5058 -0.43293,-0.5058 -0.43293,-1.62456 0,-1.05447 0.4415,-1.57313 0.4415,-0.51866 1.26021,-0.51866 1.54741,0 1.54741,1.75744 v 0.35149 z m 0.93015,-1.76601 q -0.44579,0 -0.68583,0.36006 -0.23575,0.36006 -0.23575,1.06304 h 1.72315 q 0,-0.76728 -0.19718,-1.09305 -0.19717,-0.33005 -0.60439,-0.33005 z m 3.32628,1.85174 1.65028,-1.77887 -0.42007,-0.11574 v -0.19289 h 1.4231 v 0.19289 l -0.50152,0.0986 -1.14876,1.17449 1.47453,2.27181 0.43722,0.0986 v 0.19289 h -1.65028 v -0.19289 l 0.36863,-0.10716 -1.1059,-1.73601 -0.52723,0.57867 v 1.15734 l 0.42864,0.10716 v 0.19289 h -1.65027 v -0.19289 l 0.51008,-0.10716 v -5.49522 l -0.59581,-0.10287 v -0.19289 h 1.30736 z m 6.01388,0.81014 q 0,0.6001 -0.38149,0.90872 -0.37721,0.30863 -1.11877,0.30863 -0.30005,0 -0.66439,-0.0643 -0.36007,-0.06 -0.56581,-0.13717 v -0.99016 h 0.19289 l 0.21003,0.56152 q 0.32148,0.29148 0.83586,0.29148 0.83157,0 0.83157,-0.71155 0,-0.52295 -0.65583,-0.74584 l -0.38149,-0.12431 q -0.43293,-0.14145 -0.63011,-0.28719 -0.19718,-0.14574 -0.30434,-0.35577 -0.10716,-0.21433 -0.10716,-0.51438 0,-0.53152 0.36006,-0.83585 0.36435,-0.30863 0.9816,-0.30863 0.4415,0 1.1059,0.13288 v 0.87872 h -0.20146 l -0.18003,-0.46722 q -0.22718,-0.20146 -0.71584,-0.20146 -0.3472,0 -0.53152,0.17146 -0.18003,0.17145 -0.18003,0.46293 0,0.24433 0.16289,0.4115 0.16717,0.16717 0.50151,0.27862 0.63011,0.21432 0.823,0.31291 0.19289,0.0986 0.32577,0.24433 0.13716,0.14145 0.21003,0.32577 0.0772,0.18431 0.0772,0.45436 z"
       id="text5837"
       style="font-size:8.77863px;line-height:125%;font-family:'Times New Roman';-inkscape-font-specification:'Times New Roman';letter-spacing:0px;word-spacing:0px;stroke-width:0.680382;fill:#616161;fill-opacity:1"
       aria-label="Weeks" />
    <path
       d="m 382.45527,326.81487 q 0,-1.20449 -0.65154,-1.82603 -0.64725,-0.62153 -1.85174,-0.62153 h -0.77156 v 4.95941 q 0.51437,0.0343 1.22163,0.0343 1.05447,0 1.55169,-0.62153 0.50152,-0.62154 0.50152,-1.92461 z m -2.22895,-2.83334 q 1.59027,0 2.35754,0.71155 0.76727,0.70726 0.76727,2.13036 0,1.44024 -0.74155,2.1818 -0.73727,0.74155 -2.20752,0.74155 l -2.04892,-0.0171 h -0.73726 v -0.22718 l 0.73726,-0.11573 v -5.06657 l -0.73726,-0.11145 v -0.22718 z m 5.4695,1.62885 q 0.66011,0 0.96873,0.27004 0.31291,0.27005 0.31291,0.82728 v 2.72189 l 0.50152,0.10716 v 0.19289 h -1.10591 l -0.0814,-0.40292 q -0.48865,0.48865 -1.24735,0.48865 -1.03303,0 -1.03303,-1.2002 0,-0.40293 0.15431,-0.6644 0.1586,-0.26576 0.50151,-0.40292 0.34292,-0.14146 0.99445,-0.15432 l 0.60439,-0.0171 v -0.63011 q 0,-0.41578 -0.15431,-0.61296 -0.15002,-0.19718 -0.46722,-0.19718 -0.42865,0 -0.78442,0.20147 l -0.14574,0.50151 h -0.24004 v -0.87872 q 0.6944,-0.15002 1.22164,-0.15002 z m 0.57009,2.06606 -0.56152,0.0171 q -0.57438,0.0214 -0.78013,0.22289 -0.20147,0.20146 -0.20147,0.67297 0,0.75442 0.61297,0.75442 0.29147,0 0.50151,-0.0643 0.21432,-0.0686 0.42864,-0.17146 z m 2.18609,3.94781 q -0.33434,0 -0.66011,-0.0772 v -0.87015 h 0.20146 l 0.14145,0.4115 q 0.13288,0.0986 0.36864,0.0986 0.22289,0 0.41149,-0.12859 0.18861,-0.12859 0.34292,-0.38149 0.1586,-0.2529 0.39435,-0.90444 l -1.53454,-3.77207 -0.4115,-0.10716 v -0.19289 h 1.86889 v 0.19289 l -0.6344,0.11573 1.08876,2.8162 1.05446,-2.82477 -0.6301,-0.10716 v -0.19289 h 1.50025 v 0.19289 l -0.42007,0.09 -1.57313,3.99924 q -0.27861,0.70727 -0.48436,1.01589 -0.20575,0.30862 -0.45437,0.46722 -0.24861,0.1586 -0.57009,0.1586 z m 6.63541,-3.02623 q 0,0.60011 -0.3815,0.90873 -0.3772,0.30862 -1.11876,0.30862 -0.30005,0 -0.6644,-0.0643 -0.36006,-0.06 -0.56581,-0.13717 v -0.99017 h 0.19289 l 0.21004,0.56153 q 0.32148,0.29147 0.83586,0.29147 0.83157,0 0.83157,-0.71154 0,-0.52295 -0.65583,-0.74585 l -0.38149,-0.1243 q -0.43293,-0.14145 -0.63011,-0.28719 -0.19718,-0.14574 -0.30434,-0.35578 -0.10716,-0.21432 -0.10716,-0.51437 0,-0.53152 0.36006,-0.83586 0.36435,-0.30862 0.9816,-0.30862 0.4415,0 1.1059,0.13288 v 0.87872 h -0.20146 l -0.18003,-0.46722 q -0.22719,-0.20147 -0.71584,-0.20147 -0.3472,0 -0.53152,0.17146 -0.18003,0.17146 -0.18003,0.46294 0,0.24433 0.16289,0.4115 0.16717,0.16717 0.50151,0.27862 0.63011,0.21432 0.823,0.31291 0.19289,0.0986 0.32577,0.24432 0.13716,0.14145 0.21003,0.32577 0.0772,0.18432 0.0772,0.45436 z"
       id="text5837-6"
       style="font-size:8.77863px;line-height:125%;font-family:'Times New Roman';-inkscape-font-specification:'Times New Roman';letter-spacing:0px;word-spacing:0px;stroke-width:0.680382;fill:#616161;fill-opacity:1"
       aria-label="Days" />
    <path
       d="m 372.30109,368.15806 q 0,1.38452 0.46294,2.00605 0.46293,0.62153 1.44882,0.62153 0.98159,0 1.44881,-0.62153 0.46722,-0.62153 0.46722,-2.00605 0,-1.37595 -0.46722,-1.98034 -0.46293,-0.60867 -1.44881,-0.60867 -0.99017,0 -1.45311,0.60867 -0.45865,0.60439 -0.45865,1.98034 z m -0.89586,0 q 0,-2.93193 2.80762,-2.93193 1.3888,0 2.10035,0.74584 0.71155,0.74156 0.71155,2.18609 0,1.46596 -0.72012,2.21609 -0.72012,0.75012 -2.09178,0.75012 -1.36738,0 -2.0875,-0.74584 -0.72012,-0.75013 -0.72012,-2.22037 z m 7.36839,-0.823 q 0.33005,-0.1886 0.70297,-0.30862 0.37292,-0.12431 0.62154,-0.12431 0.52294,0 0.7887,0.30434 0.26576,0.30433 0.26576,0.883 v 2.64902 l 0.48866,0.10716 v 0.19289 h -1.73601 v -0.19289 l 0.5358,-0.10716 v -2.57186 q 0,-0.35578 -0.17574,-0.55724 -0.17146,-0.20575 -0.53581,-0.20575 -0.38578,0 -0.9473,0.12431 v 3.21054 l 0.54438,0.10716 v 0.19289 h -1.7403 v -0.19289 l 0.48437,-0.10716 v -3.42915 l -0.48437,-0.10716 v -0.19289 h 1.14877 z m 4.11498,1.676 v 0.0772 q 0,0.59153 0.12859,0.92159 0.13288,0.32577 0.40293,0.49723 0.27433,0.17145 0.71583,0.17145 0.23147,0 0.54867,-0.0386 0.3172,-0.0386 0.52294,-0.0857 v 0.24004 q -0.20574,0.13288 -0.56152,0.23146 -0.35149,0.0986 -0.72012,0.0986 -0.93873,0 -1.37595,-0.5058 -0.43293,-0.5058 -0.43293,-1.62456 0,-1.05446 0.4415,-1.57312 0.44151,-0.51866 1.26022,-0.51866 1.5474,0 1.5474,1.75744 v 0.35149 z m 0.93016,-1.76602 q -0.44579,0 -0.68583,0.36006 -0.23576,0.36007 -0.23576,1.06304 h 1.72315 q 0,-0.76727 -0.19717,-1.09304 -0.19718,-0.33006 -0.60439,-0.33006 z m 7.14549,3.49345 q -0.48436,0.38578 -1.13162,0.38578 -1.65028,0 -1.65028,-2.06178 0,-1.05875 0.46723,-1.60741 0.46722,-0.55295 1.37594,-0.55295 0.46294,0 0.93873,0.0986 -0.0257,-0.14146 -0.0257,-0.71155 v -1.04589 l -0.67726,-0.10288 v -0.19289 h 1.38881 v 5.79098 l 0.49722,0.10716 v 0.19289 h -1.13162 z m -2.01034,-1.676 q 0,0.81443 0.27434,1.21735 0.27433,0.39864 0.84014,0.39864 0.48437,0 0.87015,-0.16717 v -3.18482 q -0.3815,-0.0729 -0.87015,-0.0729 -1.11448,0 -1.11448,1.80887 z m 5.29376,-2.14322 q 0.66011,0 0.96874,0.27005 0.31291,0.27005 0.31291,0.82728 v 2.72189 l 0.50151,0.10716 v 0.19289 h -1.1059 l -0.0815,-0.40292 q -0.48865,0.48865 -1.24735,0.48865 -1.03303,0 -1.03303,-1.2002 0,-0.40293 0.15431,-0.6644 0.1586,-0.26576 0.50151,-0.40292 0.34292,-0.14146 0.99446,-0.15432 l 0.60439,-0.0171 v -0.63011 q 0,-0.41578 -0.15432,-0.61296 -0.15002,-0.19718 -0.46722,-0.19718 -0.42864,0 -0.78442,0.20147 l -0.14574,0.50151 h -0.24004 v -0.87872 q 0.69441,-0.15003 1.22164,-0.15003 z m 0.5701,2.06607 -0.56153,0.0171 q -0.57438,0.0214 -0.78013,0.2229 -0.20146,0.20146 -0.20146,0.67297 0,0.75441 0.61296,0.75441 0.29148,0 0.50151,-0.0643 0.21432,-0.0686 0.42865,-0.17146 z m 2.18608,3.94781 q -0.33434,0 -0.66011,-0.0772 v -0.87014 h 0.20146 l 0.14145,0.4115 q 0.13288,0.0986 0.36864,0.0986 0.22289,0 0.4115,-0.12859 0.1886,-0.12859 0.34291,-0.38149 0.1586,-0.2529 0.39435,-0.90444 l -1.53454,-3.77207 -0.4115,-0.10716 v -0.19289 h 1.86889 v 0.19289 l -0.6344,0.11573 1.08876,2.81619 1.05446,-2.82476 -0.6301,-0.10716 v -0.19289 h 1.50025 v 0.19289 l -0.42007,0.09 -1.57312,3.99925 q -0.27862,0.70727 -0.48437,1.01589 -0.20575,0.30862 -0.45436,0.46722 -0.24862,0.1586 -0.5701,0.1586 z"
       id="text5837-67"
       style="font-size:8.77863px;line-height:125%;font-family:'Times New Roman';-inkscape-font-specification:'Times New Roman';letter-spacing:0px;word-spacing:0px;stroke-width:0.680382;fill:#616161;fill-opacity:1"
       aria-label="One day" />
    <path
       d="m 374.69995,414.29141 v -0.22718 l 0.73727,-0.11573 v -5.06658 l -0.73727,-0.11144 v -0.22718 h 2.30182 v 0.22718 l -0.73727,0.11144 v 2.25896 h 2.70475 v -2.25896 l -0.73727,-0.11144 v -0.22718 h 2.29753 v 0.22718 l -0.73727,0.11144 v 5.06658 l 0.73727,0.11573 v 0.22718 h -2.29753 v -0.22718 l 0.73727,-0.11573 v -2.42184 h -2.70475 v 2.42184 l 0.73727,0.11573 v 0.22718 z m 10.14172,-2.03606 q 0,2.12179 -1.88603,2.12179 -0.90873,0 -1.37166,-0.54438 -0.46294,-0.54437 -0.46294,-1.57741 0,-1.02017 0.46294,-1.56026 0.46293,-0.54009 1.40595,-0.54009 0.9173,0 1.38452,0.53152 0.46722,0.52723 0.46722,1.56883 z m -0.77156,0 q 0,-0.92587 -0.27004,-1.34165 -0.27005,-0.41579 -0.84443,-0.41579 -0.56153,0 -0.81443,0.39864 -0.24861,0.39864 -0.24861,1.3588 0,0.97303 0.2529,1.38024 0.25719,0.40292 0.81014,0.40292 0.56581,0 0.84014,-0.42007 0.27433,-0.42007 0.27433,-1.36309 z m 2.44756,0.8873 q 0,0.73726 0.68583,0.73726 0.53152,0 0.99445,-0.13288 v -3.18482 l -0.60867,-0.10716 v -0.19289 h 1.31594 v 3.7292 l 0.51008,0.10716 v 0.19289 h -1.17448 l -0.0343,-0.32577 q -0.30434,0.16717 -0.70298,0.29148 -0.39864,0.12002 -0.66869,0.12002 -1.02874,0 -1.02874,-1.18306 v -2.63187 l -0.51437,-0.10716 v -0.19289 h 1.22592 z m 5.89385,-2.98765 v 1.08875 h -0.18431 l -0.24862,-0.47151 q -0.21432,0 -0.51008,0.06 -0.29148,0.0557 -0.5058,0.15003 v 3.00908 l 0.69011,0.10716 v 0.19289 h -1.91175 v -0.19289 l 0.51009,-0.10716 v -3.42915 l -0.51009,-0.10716 v -0.19289 h 1.17449 l 0.0386,0.50151 q 0.25719,-0.21432 0.69441,-0.4115 0.4415,-0.19717 0.69869,-0.19717 z m 3.17626,3.00479 q 0,0.6001 -0.3815,0.90873 -0.3772,0.30862 -1.11876,0.30862 -0.30005,0 -0.6644,-0.0643 -0.36006,-0.06 -0.56581,-0.13716 v -0.99017 h 0.19289 l 0.21004,0.56152 q 0.32148,0.29148 0.83586,0.29148 0.83156,0 0.83156,-0.71155 0,-0.52294 -0.65582,-0.74584 l -0.38149,-0.1243 q -0.43293,-0.14146 -0.63011,-0.2872 -0.19718,-0.14573 -0.30434,-0.35577 -0.10716,-0.21432 -0.10716,-0.51437 0,-0.53152 0.36006,-0.83586 0.36435,-0.30862 0.9816,-0.30862 0.4415,0 1.1059,0.13288 v 0.87872 h -0.20146 l -0.18003,-0.46722 q -0.22719,-0.20147 -0.71584,-0.20147 -0.3472,0 -0.53152,0.17146 -0.18003,0.17146 -0.18003,0.46294 0,0.24432 0.16289,0.41149 0.16717,0.16718 0.50151,0.27862 0.63011,0.21432 0.823,0.31291 0.19289,0.0986 0.32576,0.24433 0.13717,0.14145 0.21004,0.32577 0.0772,0.18432 0.0772,0.45436 z"
       id="text5837-4"
       style="font-size:8.77863px;line-height:125%;font-family:'Times New Roman';-inkscape-font-specification:'Times New Roman';letter-spacing:0px;word-spacing:0px;stroke-width:0.680382;fill:#616161;fill-opacity:1"
       aria-label="Hours" />
    <path
       d="m 345.96737,454.5289 h -0.15002 l -2.10465,-4.94227 v 4.59935 l 0.77156,0.11574 v 0.22718 h -1.9589 v -0.22718 l 0.73727,-0.11574 v -5.06657 l -0.73727,-0.11145 v -0.22718 h 1.7403 l 1.86888,4.37217 2.04035,-4.37217 h 1.64599 v 0.22718 l -0.73727,0.11145 v 5.06657 l 0.73727,0.11574 v 0.22718 h -2.33182 v -0.22718 l 0.77156,-0.11574 v -4.59935 z m 5.73526,-5.34519 q 0,0.1886 -0.13717,0.32577 -0.13716,0.13716 -0.33005,0.13716 -0.18861,0 -0.32577,-0.13716 -0.13717,-0.13717 -0.13717,-0.32577 0,-0.19289 0.13717,-0.33006 0.13716,-0.13716 0.32577,-0.13716 0.19289,0 0.33005,0.13716 0.13717,0.13717 0.13717,0.33006 z m -0.0429,5.04514 0.69011,0.10716 v 0.19289 h -2.08749 v -0.19289 l 0.68583,-0.10716 v -3.42915 l -0.5701,-0.10716 v -0.19289 h 1.28165 z m 2.24609,-3.40343 q 0.33006,-0.18861 0.70298,-0.30863 0.37292,-0.1243 0.62153,-0.1243 0.52295,0 0.78871,0.30433 0.26575,0.30434 0.26575,0.88301 v 2.64902 l 0.48866,0.10716 v 0.19289 h -1.73601 v -0.19289 l 0.53581,-0.10716 v -2.57187 q 0,-0.35577 -0.17575,-0.55723 -0.17146,-0.20575 -0.5358,-0.20575 -0.38578,0 -0.94731,0.12431 v 3.21054 l 0.54438,0.10716 v 0.19289 h -1.74029 v -0.19289 l 0.48436,-0.10716 v -3.42915 l -0.48436,-0.10716 v -0.19289 h 1.14876 z m 4.34217,2.55471 q 0,0.73727 0.68583,0.73727 0.53151,0 0.99445,-0.13288 v -3.18482 l -0.60867,-0.10716 v -0.19289 h 1.31593 v 3.7292 l 0.51009,0.10716 v 0.19289 h -1.17449 l -0.0343,-0.32577 q -0.30433,0.16717 -0.70297,0.29148 -0.39864,0.12002 -0.66869,0.12002 -1.02874,0 -1.02874,-1.18306 v -2.63187 l -0.51438,-0.10716 v -0.19289 h 1.22593 z m 4.47933,1.2345 q -0.4115,0 -0.61725,-0.24433 -0.20146,-0.24433 -0.20146,-0.68583 v -2.82476 h -0.52724 v -0.19289 l 0.53581,-0.16717 0.43293,-0.91302 h 0.27004 v 0.91302 h 0.92159 v 0.36006 h -0.92159 v 2.74761 q 0,0.27861 0.12431,0.42007 0.12859,0.14145 0.33434,0.14145 0.24862,0 0.60439,-0.0686 v 0.27861 q -0.15002,0.10288 -0.43293,0.16718 -0.2829,0.0686 -0.52294,0.0686 z m 2.12178,-2.11322 v 0.0772 q 0,0.59153 0.1286,0.92158 0.13288,0.32577 0.40292,0.49723 0.27433,0.17146 0.71584,0.17146 0.23147,0 0.54866,-0.0386 0.3172,-0.0386 0.52295,-0.0857 v 0.24004 q -0.20575,0.13288 -0.56153,0.23147 -0.35148,0.0986 -0.72012,0.0986 -0.93873,0 -1.37595,-0.5058 -0.43293,-0.5058 -0.43293,-1.62456 0,-1.05447 0.44151,-1.57313 0.4415,-0.51865 1.26021,-0.51865 1.54741,0 1.54741,1.75744 v 0.35148 z m 0.93016,-1.76601 q -0.44579,0 -0.68583,0.36006 -0.23575,0.36006 -0.23575,1.06304 h 1.72315 q 0,-0.76727 -0.19718,-1.09304 -0.19718,-0.33006 -0.60439,-0.33006 z m 4.95084,2.66188 q 0,0.6001 -0.38149,0.90873 -0.37721,0.30862 -1.11877,0.30862 -0.30005,0 -0.66439,-0.0643 -0.36006,-0.06 -0.56581,-0.13716 V 453.423 h 0.19289 l 0.21003,0.56152 q 0.32148,0.29148 0.83586,0.29148 0.83157,0 0.83157,-0.71155 0,-0.52294 -0.65583,-0.74584 l -0.38149,-0.12431 q -0.43293,-0.14145 -0.63011,-0.28719 -0.19717,-0.14574 -0.30434,-0.35577 -0.10716,-0.21432 -0.10716,-0.51438 0,-0.53151 0.36006,-0.83585 0.36435,-0.30862 0.9816,-0.30862 0.4415,0 1.1059,0.13287 v 0.87872 h -0.20146 l -0.18003,-0.46722 q -0.22718,-0.20146 -0.71584,-0.20146 -0.3472,0 -0.53152,0.17146 -0.18003,0.17146 -0.18003,0.46293 0,0.24433 0.16289,0.4115 0.16717,0.16717 0.50151,0.27862 0.63011,0.21432 0.823,0.31291 0.19289,0.0986 0.32577,0.24433 0.13716,0.14145 0.21003,0.32577 0.0772,0.18431 0.0772,0.45436 z"
       id="text5837-2"
       style="font-size:8.77863px;line-height:125%;font-family:'Times New Roman';-inkscape-font-specification:'Times New Roman';letter-spacing:0px;word-spacing:0px;stroke-width:0.680382;fill:#616161;fill-opacity:1"
       aria-label="Minutes" />
    <path
       d="m 293.39705,489.04403 h 0.27862 l 0.15003,0.77584 q 0.1586,0.20146 0.54438,0.35578 0.39006,0.15431 0.76727,0.15431 0.6001,0 0.93444,-0.30434 0.33863,-0.30862 0.33863,-0.84871 0,-0.30863 -0.13288,-0.51009 -0.12859,-0.20146 -0.34291,-0.33863 -0.21004,-0.14145 -0.48008,-0.23575 -0.27005,-0.0986 -0.55724,-0.19718 -0.28291,-0.0986 -0.55295,-0.21861 -0.27005,-0.12002 -0.48437,-0.30434 -0.21004,-0.18431 -0.34292,-0.45436 -0.12859,-0.27433 -0.12859,-0.67297 0,-0.68583 0.51437,-1.0759 0.51438,-0.39006 1.42739,-0.39006 0.6944,0 1.50883,0.18431 v 1.19592 h -0.27862 l -0.15003,-0.70298 q -0.43721,-0.31719 -1.08018,-0.31719 -0.57438,0 -0.90015,0.23575 -0.32149,0.23147 -0.32149,0.64297 0,0.27862 0.1286,0.46293 0.13288,0.18432 0.34291,0.3172 0.21432,0.12859 0.48437,0.2229 0.27433,0.0943 0.55724,0.19717 0.28719,0.0986 0.55723,0.22718 0.27434,0.12431 0.48437,0.32149 0.21432,0.19289 0.34292,0.47579 0.13288,0.27862 0.13288,0.69012 0,0.83157 -0.51009,1.29022 -0.51009,0.45436 -1.47025,0.45436 -0.46293,0 -0.93016,-0.0814 -0.46722,-0.0814 -0.83157,-0.2229 z m 5.40092,-0.48009 v 0.0772 q 0,0.59153 0.12859,0.92158 0.13288,0.32577 0.40293,0.49723 0.27433,0.17146 0.71583,0.17146 0.23147,0 0.54867,-0.0386 0.31719,-0.0386 0.52294,-0.0857 v 0.24004 q -0.20575,0.13288 -0.56152,0.23147 -0.35149,0.0986 -0.72012,0.0986 -0.93873,0 -1.37595,-0.5058 -0.43293,-0.5058 -0.43293,-1.62456 0,-1.05447 0.4415,-1.57313 0.44151,-0.51865 1.26022,-0.51865 1.5474,0 1.5474,1.75744 v 0.35148 z m 0.93016,-1.76601 q -0.44579,0 -0.68583,0.36006 -0.23576,0.36006 -0.23576,1.06304 h 1.72315 q 0,-0.76727 -0.19718,-1.09304 -0.19717,-0.33006 -0.60438,-0.33006 z m 5.47807,3.54917 q -0.21004,0.15432 -0.57867,0.24433 -0.36864,0.0857 -0.75442,0.0857 -1.9589,0 -1.9589,-2.13036 0,-1.00732 0.49723,-1.54741 0.50151,-0.54437 1.43167,-0.54437 0.57867,0 1.2645,0.13288 v 1.12304 h -0.23575 l -0.18432,-0.71155 q -0.35578,-0.20146 -0.853,-0.20146 -1.14877,0 -1.14877,1.74887 0,0.90872 0.3472,1.29879 0.35149,0.38578 1.08447,0.38578 0.62582,0 1.08876,-0.14145 z m 4.32502,-1.79173 q 0,2.12179 -1.88604,2.12179 -0.90872,0 -1.37166,-0.54438 -0.46293,-0.54438 -0.46293,-1.57741 0,-1.02017 0.46293,-1.56026 0.46294,-0.54009 1.40595,-0.54009 0.9173,0 1.38452,0.53151 0.46723,0.52724 0.46723,1.56884 z m -0.77156,0 q 0,-0.92587 -0.27005,-1.34165 -0.27004,-0.41579 -0.84443,-0.41579 -0.56152,0 -0.81442,0.39864 -0.24861,0.39864 -0.24861,1.3588 0,0.97302 0.2529,1.38024 0.25718,0.40292 0.81013,0.40292 0.56581,0 0.84015,-0.42007 0.27433,-0.42007 0.27433,-1.36309 z m 2.49471,-1.66742 q 0.33005,-0.18861 0.70297,-0.30863 0.37292,-0.1243 0.62154,-0.1243 0.52294,0 0.7887,0.30433 0.26576,0.30434 0.26576,0.88301 v 2.64902 l 0.48865,0.10716 v 0.19289 h -1.736 v -0.19289 l 0.5358,-0.10716 v -2.57186 q 0,-0.35578 -0.17574,-0.55724 -0.17146,-0.20575 -0.53581,-0.20575 -0.38578,0 -0.9473,0.12431 v 3.21054 l 0.54438,0.10716 v 0.19289 h -1.7403 v -0.19289 l 0.48437,-0.10716 v -3.42915 l -0.48437,-0.10716 v -0.19289 h 1.14877 z m 6.0996,3.40343 q -0.48437,0.38578 -1.13162,0.38578 -1.65028,0 -1.65028,-2.06178 0,-1.05875 0.46722,-1.60741 0.46722,-0.55295 1.37595,-0.55295 0.46293,0 0.93873,0.0986 -0.0257,-0.14145 -0.0257,-0.71155 v -1.04589 l -0.67726,-0.10287 v -0.19289 h 1.38881 v 5.79098 l 0.49723,0.10716 v 0.19289 h -1.13162 z m -2.01034,-1.676 q 0,0.81443 0.27433,1.21735 0.27433,0.39864 0.84014,0.39864 0.48437,0 0.87015,-0.16717 v -3.18483 q -0.38149,-0.0729 -0.87015,-0.0729 -1.11447,0 -1.11447,1.80888 z m 6.39965,0.84443 q 0,0.6001 -0.38149,0.90873 -0.37721,0.30862 -1.11876,0.30862 -0.30005,0 -0.6644,-0.0643 -0.36006,-0.06 -0.56581,-0.13716 v -0.99017 h 0.19289 l 0.21004,0.56152 q 0.32148,0.29148 0.83585,0.29148 0.83157,0 0.83157,-0.71155 0,-0.52294 -0.65582,-0.74584 l -0.3815,-0.12431 q -0.43293,-0.14145 -0.6301,-0.28719 -0.19718,-0.14574 -0.30434,-0.35577 -0.10716,-0.21432 -0.10716,-0.51437 0,-0.53152 0.36006,-0.83586 0.36435,-0.30862 0.98159,-0.30862 0.44151,0 1.10591,0.13288 v 0.87872 h -0.20147 l -0.18003,-0.46723 q -0.22718,-0.20146 -0.71583,-0.20146 -0.3472,0 -0.53152,0.17146 -0.18003,0.17146 -0.18003,0.46293 0,0.24433 0.16288,0.4115 0.16717,0.16717 0.50152,0.27862 0.6301,0.21432 0.82299,0.31291 0.19289,0.0986 0.32577,0.24433 0.13717,0.14145 0.21004,0.32577 0.0772,0.18431 0.0772,0.45436 z"
       id="text5837-5"
       style="font-size:8.77863px;line-height:125%;font-family:'Times New Roman';-inkscape-font-specification:'Times New Roman';letter-spacing:0px;word-spacing:0px;stroke-width:0.680382;fill:#616161;fill-opacity:1"
       aria-label="Seconds" />
    <path
       d="m 248.87335,502.36087 c -8.79498,-1.79971 -17.27865,-4.45401 -25.36049,-7.87233 -16.16367,-6.83666 -30.71997,-16.72945 -42.94452,-28.954 C 168.3438,453.31 158.451,438.7537 151.61434,422.59003 c -6.83665,-16.16368 -10.61717,-33.93472 -10.61717,-52.58875 0,-18.65403 3.78052,-36.42507 10.61717,-52.58874 6.83666,-16.16367 16.72946,-30.71997 28.954,-42.94452 12.22455,-12.22455 32.1267,-26.97722 49.26235,-31.86992"
       id="path3824"
       style="fill:none;stroke:#616161;stroke-width:3.45;stroke-linecap:round;stroke-miterlimit:4;stroke-dasharray:none;stroke-opacity:1;marker-start:none;marker-end:none" />
    <path
       d="m 224.06373,240.30791 9.43536,1.26729 -7.56553,5.77883 0.47431,-3.89702 z"
       id="path6531"
       style="fill:#616161;fill-opacity:1;stroke:#616161;stroke-width:0.999998;stroke-linecap:square;stroke-linejoin:miter;stroke-miterlimit:4;stroke-dasharray:none;stroke-opacity:1" />
    <path
       d="M 158.32293,436.20924 C 121.09247,374.3154 165.3304,276.58749 316.60102,269.91786"
       id="path5821"
       style="fill:none;stroke:#616161;stroke-width:2;stroke-linecap:round;stroke-miterlimit:4;stroke-dasharray:none;stroke-opacity:1;marker-start:none;marker-end:none" />
    <path
       d="m 315.30791,268.1432 4.20606,1.74433 -4.20685,1.74245 0.69775,-1.74324 z"
       id="path6535"
       style="fill:#616161;fill-opacity:1;stroke:#616161;stroke-width:2;stroke-linecap:square;stroke-linejoin:miter;stroke-miterlimit:4;stroke-dasharray:none;stroke-opacity:1" />
    <path
       d="M 176.05431,459.43894 C 136.76198,422.97481 157.63207,329.37065 337.76885,306.54972"
       id="path5823"
       style="fill:none;stroke:#616161;stroke-width:2;stroke-linecap:round;stroke-miterlimit:4;stroke-dasharray:none;stroke-opacity:1;marker-start:none;marker-end:none" />
    <path
       d="m 336.28376,305.31756 4.3659,1.29332 -4.00076,2.17431 0.51095,-1.80684 z"
       id="path6535-1"
       style="fill:#616161;fill-opacity:1;stroke:#616161;stroke-width:2;stroke-linecap:square;stroke-linejoin:miter;stroke-miterlimit:4;stroke-dasharray:none;stroke-opacity:1" />
    <path
       d="M 191.34651,475.41843 C 152.05418,438.9543 163.81768,371.9826 343.95445,349.16167"
       id="path5825"
       style="fill:none;stroke:#616161;stroke-width:2;stroke-linecap:round;stroke-miterlimit:4;stroke-dasharray:none;stroke-opacity:1;marker-start:none;marker-end:none" />
    <path
       d="m 340.60219,347.8202 4.40581,1.14999 -3.9276,2.30384 0.45166,-1.82256 z"
       id="path6535-0"
       style="fill:#616161;fill-opacity:1;stroke:#616161;stroke-width:2;stroke-linecap:square;stroke-linejoin:miter;stroke-miterlimit:4;stroke-dasharray:none;stroke-opacity:1" />
    <path
       d="m 213.45085,489.7656 c -13.11278,-6.52892 -79.7021,-69.07134 138.23561,-97.39059"
       id="path5827"
       style="fill:none;stroke:#616161;stroke-width:2;stroke-linecap:round;stroke-miterlimit:4;stroke-dasharray:none;stroke-opacity:1;marker-start:none;marker-end:none" />
    <path
       d="m 349.19885,390.9843 4.35096,1.3427 -4.02514,2.12883 0.53139,-1.80093 z"
       id="path6535-8"
       style="fill:#616161;fill-opacity:1;stroke:#616161;stroke-width:2;stroke-linecap:square;stroke-linejoin:miter;stroke-miterlimit:4;stroke-dasharray:none;stroke-opacity:1" />
    <path
       d="M 240.18014,499.97133 C 213.66521,493.09876 134.08228,455.80326 354.93591,437.68974"
       id="path5829"
       style="fill:none;stroke:#616161;stroke-width:2;stroke-linecap:round;stroke-miterlimit:4;stroke-dasharray:none;stroke-opacity:1;marker-start:none;marker-end:none" />
    <path
       d="m 352.90814,435.98414 4.27226,1.57526 -4.13404,1.90879 0.6277,-1.76967 z"
       id="path6535-5"
       style="fill:#616161;fill-opacity:1;stroke:#616161;stroke-width:2;stroke-linecap:square;stroke-linejoin:miter;stroke-miterlimit:4;stroke-dasharray:none;stroke-opacity:1" />
    <path
       d="m 240.18014,499.97133 c -15.51829,-4.46705 -61.01898,-23.63869 57.77734,-29.11654"
       id="path5831"
       style="fill:none;stroke:#616161;stroke-width:2;stroke-linecap:round;stroke-miterlimit:4;stroke-dasharray:none;stroke-opacity:1;marker-start:none;marker-end:none" />
    <path
       d="m 296.97855,469.15692 4.31146,1.4646 -4.08346,2.01472 0.58186,-1.78526 z"
       id="path6535-58-9"
       style="fill:#616161;fill-opacity:1;stroke:#616161;stroke-width:2;stroke-linecap:square;stroke-linejoin:miter;stroke-miterlimit:4;stroke-dasharray:none;stroke-opacity:1" />
    <path
       d="m 347.38506,481.31424 c -7.58997,5.43662 -15.80912,10.05634 -24.52778,13.72997 -7.56674,3.18827 -15.50972,5.66392 -23.74415,7.34251"
       id="path3829"
       style="fill:none;stroke:#616161;stroke-width:3.45;stroke-linecap:round;stroke-miterlimit:4;stroke-opacity:1;marker-end:none" />
    <path
       d="m 304.5269,504.87498 -9.36604,-1.70569 7.82665,-5.41993 -0.65542,3.87068 z"
       id="path6535-58"
       style="fill:#616161;fill-opacity:1;stroke:#616161;stroke-width:0.999998;stroke-linecap:square;stroke-linejoin:miter;stroke-miterlimit:4;stroke-dasharray:none;stroke-opacity:1" />
    <path
       d="m 383.47431,446.16 c -4.44608,6.63259 -9.58923,12.79494 -15.40539,18.40795"
       id="path5783"
       style="fill:none;stroke:#616161;stroke-width:3.45;stroke-linecap:round;stroke-miterlimit:4;stroke-opacity:1;marker-end:none" />
    <path
       d="m 374.17208,463.20384 -8.44419,4.39631 2.85852,-9.08079 1.85594,3.45938 z"
       id="path6535-04"
       style="fill:#616161;fill-opacity:1;stroke:#616161;stroke-width:0.999998;stroke-linecap:square;stroke-linejoin:miter;stroke-miterlimit:4;stroke-dasharray:none;stroke-opacity:1" />
    <path
       d="m 406.53469,357.30148 c 0.38978,4.18088 0.58905,8.41707 0.58905,12.6998 -0.1134,3.33944 -0.32566,6.64723 -0.63574,9.91997"
       id="path5787"
       style="fill:none;stroke:#616161;stroke-width:3.45;stroke-linecap:round;stroke-miterlimit:4;stroke-opacity:1;marker-end:none" />
    <path
       d="m 410.18987,379.40303 -5.05497,8.06718 -2.1338,-9.27788 3.35225,2.0431 z"
       id="path6535-58-8"
       style="fill:#616161;fill-opacity:1;stroke:#616161;stroke-width:0.999998;stroke-linecap:square;stroke-linejoin:miter;stroke-miterlimit:4;stroke-dasharray:none;stroke-opacity:1" />
    <path
       d="m 402.20854,404.28063 c -1.86531,7.13 -4.24348,14.02415 -7.12151,20.63982"
       id="path5785"
       style="fill:none;stroke:#616161;stroke-width:3.45;stroke-linecap:round;stroke-miterlimit:4;stroke-opacity:1;marker-end:none" />
    <path
       d="m 400.13994,423.38002 -7.18364,6.2472 0.65823,-9.4973 2.61268,2.93013 z"
       id="path6535-58-96"
       style="fill:#616161;fill-opacity:1;stroke:#616161;stroke-width:0.999998;stroke-linecap:square;stroke-linejoin:miter;stroke-miterlimit:4;stroke-dasharray:none;stroke-opacity:1" />
    <path
       d="m 395.84298,315.87058 c 0.2243,0.51234 0.44549,1.02633 0.66358,1.54196 2.73964,6.47722 4.9885,13.21254 6.70001,20.15937"
       id="path5789"
       style="fill:none;stroke:#616161;stroke-width:3.45;stroke-linecap:round;stroke-miterlimit:4;stroke-opacity:1;marker-end:none" />
    <path
       d="m 405.36886,331.70821 -1.24426,9.43843 -5.79729,-7.5514 3.89818,0.46479 z"
       id="path6535-58-3"
       style="fill:#616161;fill-opacity:1;stroke:#616161;stroke-width:0.999998;stroke-linecap:square;stroke-linejoin:miter;stroke-miterlimit:4;stroke-dasharray:none;stroke-opacity:1" />
    <path
       d="m 370.75377,277.77956 c 5.15332,5.51491 9.85,11.46194 14.02978,17.7808"
       id="path5791"
       style="fill:none;stroke:#616161;stroke-width:3.45;stroke-linecap:round;stroke-miterlimit:4;stroke-opacity:1;marker-end:none" />
    <path
       d="m 385.95609,290.24401 1.66017,9.37421 -7.80475,-5.45141 3.85684,-0.73249 z"
       id="path6535-58-6"
       style="fill:#616161;fill-opacity:1;stroke:#616161;stroke-width:0.999998;stroke-linecap:square;stroke-linejoin:miter;stroke-miterlimit:4;stroke-dasharray:none;stroke-opacity:1" />
    <path
       d="m 311.51036,240.75986 c 4.46865,1.36374 8.83896,2.95287 13.09769,4.75416 9.11812,3.85664 17.72473,8.6858 25.6898,14.35746"
       id="path5793"
       style="fill:none;stroke:#616161;stroke-width:3.45;stroke-linecap:round;stroke-miterlimit:4;stroke-opacity:1;marker-end:none" />
    <path
       d="m 349.78238,254.87286 4.22126,8.53307 -9.01993,-3.04517 3.4969,-1.78422 z"
       id="path6535-58-84"
       style="fill:#616161;fill-opacity:1;stroke:#616161;stroke-width:0.999998;stroke-linecap:square;stroke-linejoin:miter;stroke-miterlimit:4;stroke-dasharray:none;stroke-opacity:1" />
  </g>
</svg>
