<?xml version="1.0" encoding="UTF-8" standalone="no"?>
<svg
   xml:space="preserve"
   viewBox="0 0 1250 401.54395"
   version="1.1"
   id="svg19"
   sodipodi:docname="13.1_stick.svg"
   inkscape:version="1.4.2 (ebf0e940d0, 2025-05-08)"
   xmlns:inkscape="http://www.inkscape.org/namespaces/inkscape"
   xmlns:sodipodi="http://sodipodi.sourceforge.net/DTD/sodipodi-0.dtd"
   xmlns="http://www.w3.org/2000/svg"
   xmlns:svg="http://www.w3.org/2000/svg"><defs
   id="defs19" /><sodipodi:namedview
   id="namedview19"
   pagecolor="#ffffff"
   bordercolor="#000000"
   borderopacity="0.25"
   inkscape:showpageshadow="2"
   inkscape:pageopacity="0.0"
   inkscape:pagecheckerboard="0"
   inkscape:deskcolor="#d1d1d1"
   inkscape:zoom="0.76263918"
   inkscape:cx="415.00621"
   inkscape:cy="-74.084837"
   inkscape:window-width="2254"
   inkscape:window-height="1502"
   inkscape:window-x="0"
   inkscape:window-y="0"
   inkscape:window-maximized="1"
   inkscape:current-layer="svg19" />


















  <path
   d="m 450,190.56997 a 50,50 0 0 1 50,-50 50,50 0 0 1 50,50 50,50 0 0 1 -50,50 50,50 0 0 1 -50,-50"
   style="display:inline;fill:#616161;stroke-width:2.25367;stroke-linecap:round;stroke-linejoin:round;paint-order:stroke fill markers"
   id="path12" /><path
   d="M 500,210.56997 H 250 v -40 h 250 z"
   style="fill:#616161;stroke-width:1.84012;stroke-linecap:round;stroke-linejoin:round;paint-order:stroke fill markers"
   id="path13" /><path
   d="m 1250,210.56997 h -250 v -40 h 250 z"
   style="fill:#616161;stroke-width:1.84012;stroke-linecap:round;stroke-linejoin:round;paint-order:stroke fill markers"
   id="path14" /><path
   d="m 700,190.56997 a 50,50 0 0 1 50,-50 50,50 0 0 1 50,50 50,50 0 0 1 -50,50 50,50 0 0 1 -50,-50"
   style="display:inline;fill:#616161;stroke-width:2.25367;stroke-linecap:round;stroke-linejoin:round;paint-order:stroke fill markers"
   id="path15" /><path
   d="M 750,210.56997 H 500 v -40 h 250 z"
   style="fill:#616161;stroke-width:1.84012;stroke-linecap:round;stroke-linejoin:round;paint-order:stroke fill markers"
   id="path16" /><path
   d="m 950,190.56997 a 50,50 0 0 1 50,-50 50,50 0 0 1 50,50 50,50 0 0 1 -50,50 50,50 0 0 1 -50,-50"
   style="display:inline;fill:#616161;stroke-width:2.25367;stroke-linecap:round;stroke-linejoin:round;paint-order:stroke fill markers"
   id="path17" /><path
   d="M 1000,210.56997 H 750 v -40 h 250 z"
   style="fill:#616161;stroke-width:1.84012;stroke-linecap:round;stroke-linejoin:round;paint-order:stroke fill markers"
   id="path18" /><path
   style="display:inline;fill:#616161;fill-opacity:1;stroke-width:2.25367;stroke-linecap:round;stroke-linejoin:round;paint-order:stroke fill markers"
   d="m 200,190.56997 a 50,50 0 0 1 50,-50 50,50 0 0 1 50,50 50,50 0 0 1 -50,50 50,50 0 0 1 -50,-50"
   id="path24" /><path
   d="M 250,210.56997 H 0 v -40 h 250 z"
   style="fill:#616161;stroke-width:1.84012;stroke-linecap:round;stroke-linejoin:round;paint-order:stroke fill markers"
   id="path2" />
<path
   style="font-size:136.063px;font-family:'Roboto Condensed';-inkscape-font-specification:'Roboto Condensed, ';baseline-shift:sub;fill:#616161;stroke-width:7.59766;stroke-linejoin:round;paint-order:stroke fill markers"
   d="m 243.76821,362.04051 v -38.99853 q 0,-4.25196 -1.32874,-6.84301 -1.26231,-2.59104 -3.85335,-3.78691 -2.52461,-1.19586 -6.37795,-1.19586 -3.72048,0 -6.44439,1.52805 -2.65748,1.52805 -4.1191,4.05266 -1.39518,2.5246 -1.39518,5.5807 h -11.75935 q 0,-3.85334 1.66093,-7.64025 1.72736,-3.78691 4.91634,-6.84301 3.18897,-3.12254 7.64025,-4.91634 4.51772,-1.86024 10.09843,-1.86024 6.6437,0 11.75935,2.19242 5.11565,2.12599 8.03888,6.97589 2.92323,4.8499 2.92323,12.88878 v 35.47736 q 0,3.5876 0.53149,7.64026 0.59794,4.05266 1.66093,6.97589 v 1.06299 h -12.15797 q -0.86368,-2.12599 -1.32874,-5.64715 -0.46506,-3.5876 -0.46506,-6.6437 z m 1.86023,-31.29183 0.13288,8.63681 h -8.17176 q -4.18553,0 -7.64025,0.93012 -3.38829,0.93012 -5.84646,2.72392 -2.45817,1.72736 -3.78691,4.3184 -1.2623,2.59104 -1.2623,5.9129 0,4.3184 1.19586,6.90944 1.19587,2.52461 3.5876,3.65404 2.39174,1.12943 6.04577,1.12943 4.45128,0 7.83957,-2.05955 3.38829,-2.05954 5.24852,-4.98277 1.92668,-2.92323 1.7938,-5.44784 l 2.59105,5.51427 q -0.26575,2.59105 -1.72737,5.64715 -1.39517,2.98967 -3.91978,5.78002 -2.52461,2.72392 -5.97933,4.51772 -3.38829,1.72736 -7.64026,1.72736 -6.24508,0 -10.96211,-2.39173 -4.65059,-2.39174 -7.24163,-7.04233 -2.59104,-4.65059 -2.59104,-11.4936 0,-5.18209 1.7938,-9.56693 1.7938,-4.38484 5.31496,-7.57382 3.52116,-3.25541 8.83612,-5.04921 5.3814,-1.7938 12.42372,-1.7938 z"
   id="path36" /><path
   style="font-size:88.4409px;font-family:'Roboto Condensed';-inkscape-font-specification:'Roboto Condensed, ';baseline-shift:sub;fill:#616161;stroke-width:7.59766;stroke-linejoin:round;paint-order:stroke fill markers"
   d="m 292.70571,338.3225 v 63.22146 h -7.64358 v -53.24594 l -13.21432,5.87303 v -7.21174 l 19.69193,-8.63681 z"
   id="path37" /><path
   d="m 276.32633,274.83519 v 7.30807 l -1.39517,24.44882 h -8.57038 l 0.0664,-23.31939 v -8.4375 z"
   id="text3"
   style="font-size:136.063px;font-family:'Roboto Condensed';-inkscape-font-specification:'Roboto Condensed, ';fill:#616161;stroke-linejoin:round;paint-order:stroke fill markers"
   aria-label="'" /><path
   style="font-size:136.063px;font-family:'Roboto Condensed';-inkscape-font-specification:'Roboto Condensed, ';baseline-shift:sub;fill:#616161;stroke-width:7.59766;stroke-linejoin:round;paint-order:stroke fill markers"
   d="m 493.76821,362.04051 v -38.99853 q 0,-4.25196 -1.32874,-6.84301 -1.2623,-2.59104 -3.85334,-3.78691 -2.52461,-1.19586 -6.37796,-1.19586 -3.72047,0 -6.44439,1.52805 -2.65748,1.52805 -4.11909,4.05266 -1.39518,2.5246 -1.39518,5.5807 h -11.75935 q 0,-3.85334 1.66093,-7.64025 1.72736,-3.78691 4.91633,-6.84301 3.18898,-3.12254 7.64026,-4.91634 4.51772,-1.86024 10.09843,-1.86024 6.6437,0 11.75935,2.19242 5.11565,2.12599 8.03888,6.97589 2.92323,4.8499 2.92323,12.88878 v 35.47736 q 0,3.5876 0.53149,7.64026 0.59793,4.05266 1.66093,6.97589 v 1.06299 h -12.15798 q -0.86368,-2.12599 -1.32874,-5.64715 -0.46506,-3.5876 -0.46506,-6.6437 z m 1.86024,-31.29183 0.13287,8.63681 h -8.17175 q -4.18553,0 -7.64025,0.93012 -3.38829,0.93012 -5.84646,2.72392 -2.45817,1.72736 -3.78691,4.3184 -1.2623,2.59104 -1.2623,5.9129 0,4.3184 1.19586,6.90944 1.19587,2.52461 3.5876,3.65404 2.39173,1.12943 6.04577,1.12943 4.45128,0 7.83957,-2.05955 3.38828,-2.05954 5.24852,-4.98277 1.92667,-2.92323 1.7938,-5.44784 l 2.59104,5.51427 q -0.26575,2.59105 -1.72736,5.64715 -1.39518,2.98967 -3.91978,5.78002 -2.52461,2.72392 -5.97933,4.51772 -3.38829,1.72736 -7.64026,1.72736 -6.24508,0 -10.96211,-2.39173 -4.65059,-2.39174 -7.24163,-7.04233 -2.59105,-4.65059 -2.59105,-11.4936 0,-5.18209 1.7938,-9.56693 1.7938,-4.38484 5.31496,-7.57382 3.52117,-3.25541 8.83613,-5.04921 5.3814,-1.7938 12.42372,-1.7938 z"
   id="path34" /><path
   style="font-size:88.4409px;font-family:'Roboto Condensed';-inkscape-font-specification:'Roboto Condensed, ';baseline-shift:sub;fill:#616161;stroke-width:7.59766;stroke-linejoin:round;paint-order:stroke fill markers"
   d="m 555.09954,394.97998 v 6.56398 h -35.15182 v -5.74348 l 17.31681,-22.93073 q 3.19562,-4.23204 4.8798,-7.16856 1.68418,-2.9797 2.33194,-5.31163 0.64776,-2.37513 0.64776,-4.83662 0,-3.10925 -0.99324,-5.61393 -0.99323,-2.54786 -2.89333,-4.0593 -1.9001,-1.51144 -4.57751,-1.51144 -3.49791,0 -5.74348,1.64099 -2.20238,1.59781 -3.2388,4.49115 -1.03642,2.89333 -1.03642,6.65034 h -7.64358 q 0,-5.31164 1.94329,-9.71641 1.98646,-4.40478 5.91621,-6.99582 3.92975,-2.63423 9.80278,-2.63423 5.05254,0 8.63681,2.11602 3.62746,2.07284 5.52756,5.87303 1.94329,3.75702 1.94329,8.80955 0,2.76378 -0.77732,5.61393 -0.73413,2.80696 -2.07283,5.61393 -1.29552,2.80696 -3.06607,5.52756 -1.77055,2.72059 -3.8002,5.35482 l -13.94845,18.26685 z"
   id="path35" /><path
   d="m 526.32633,274.83519 v 7.30807 l -1.39518,24.44882 h -8.57038 l 0.0664,-23.31939 v -8.4375 z"
   id="text3-6"
   style="font-size:136.063px;font-family:'Roboto Condensed';-inkscape-font-specification:'Roboto Condensed, ';fill:#616161;stroke-linejoin:round;paint-order:stroke fill markers"
   aria-label="'" /><path
   style="font-size:136.063px;font-family:'Roboto Condensed';-inkscape-font-specification:'Roboto Condensed, ';baseline-shift:sub;fill:#616161;stroke-width:7.59766;stroke-linejoin:round;paint-order:stroke fill markers"
   d="M 493.76821,80.672088 V 41.673561 q 0,-4.251971 -1.32874,-6.843011 -1.2623,-2.59104 -3.85334,-3.78691 -2.52461,-1.19587 -6.37796,-1.19587 -3.72047,0 -6.44439,1.52805 -2.65748,1.52806 -4.11909,4.05266 -1.39518,2.52461 -1.39518,5.580711 h -11.75935 q 0,-3.853351 1.66093,-7.640261 1.72736,-3.78691 4.91633,-6.84301 3.18898,-3.12254 7.64026,-4.91634 4.51772,-1.86023 10.09843,-1.86023 6.6437,0 11.75935,2.19242 5.11565,2.12598 8.03888,6.97588 2.92323,4.84991 2.92323,12.888785 V 77.2838 q 0,3.587599 0.53149,7.640257 0.59793,4.052658 1.66093,6.975886 v 1.062992 h -12.15798 q -0.86368,-2.125984 -1.32874,-5.647146 -0.46506,-3.587599 -0.46506,-6.643701 z m 1.86024,-31.291834 0.13287,8.636812 h -8.17175 q -4.18553,0 -7.64025,0.930118 -3.38829,0.930119 -5.84646,2.723918 -2.45817,1.727362 -3.78691,4.318406 -1.2623,2.591043 -1.2623,5.912894 0,4.318406 1.19586,6.909449 1.19587,2.524607 3.5876,3.654036 2.39173,1.129429 6.04577,1.129429 4.45128,0 7.83957,-2.059547 3.38828,-2.059547 5.24852,-4.982776 1.92667,-2.923229 1.7938,-5.447835 l 2.59104,5.514272 q -0.26575,2.591044 -1.72736,5.647146 -1.39518,2.989666 -3.91978,5.78002 -2.52461,2.723918 -5.97933,4.517717 -3.38829,1.727363 -7.64026,1.727363 -6.24508,0 -10.96211,-2.391733 -4.65059,-2.391732 -7.24163,-7.042323 -2.59105,-4.650591 -2.59105,-11.493604 0,-5.182087 1.7938,-9.56693 1.7938,-4.384842 5.31496,-7.573819 3.52117,-3.255414 8.83613,-5.049213 5.3814,-1.7938 12.42372,-1.7938 z"
   id="path32" /><path
   style="font-size:88.4409px;font-family:'Roboto Condensed';-inkscape-font-specification:'Roboto Condensed, ';baseline-shift:sub;fill:#616161;stroke-width:7.59766;stroke-linejoin:round;paint-order:stroke fill markers"
   d="m 555.09954,113.61156 v 6.56398 h -35.15182 v -5.74348 l 17.31681,-22.930736 q 3.19562,-4.232037 4.8798,-7.168553 1.68418,-2.9797 2.33194,-5.311639 0.64776,-2.375123 0.64776,-4.836615 0,-3.109252 -0.99324,-5.613927 -0.99323,-2.547859 -2.89333,-4.059301 -1.9001,-1.511442 -4.57751,-1.511442 -3.49791,0 -5.74348,1.640994 -2.20238,1.59781 -3.2388,4.491142 -1.03642,2.893332 -1.03642,6.650344 h -7.64358 q 0,-5.311639 1.94329,-9.716412 1.98646,-4.404774 5.91621,-6.995818 3.92975,-2.634227 9.80278,-2.634227 5.05254,0 8.63681,2.116019 3.62746,2.072834 5.52756,5.873032 1.94329,3.757012 1.94329,8.809547 0,2.76378 -0.77732,5.613927 -0.73413,2.806964 -2.07283,5.613928 -1.29552,2.806964 -3.06607,5.527559 -1.77055,2.720596 -3.8002,5.354823 l -13.94845,18.266855 z"
   id="path33" /><path
   d="m 524.67691,0 v 7.30807 l -1.39518,24.44882 h -8.57037 L 514.77776,8.4375 V 0 Z"
   id="text3-6-2"
   style="font-size:136.063px;font-family:'Roboto Condensed';-inkscape-font-specification:'Roboto Condensed, ';fill:#616161;stroke-linejoin:round;paint-order:stroke fill markers"
   aria-label="'" /><path
   d="m 541.96088,0 v 7.30807 l -1.39518,24.44882 h -8.57037 L 532.06173,8.4375 V 0 Z"
   id="text3-6-7"
   style="font-size:136.063px;font-family:'Roboto Condensed';-inkscape-font-specification:'Roboto Condensed, ';fill:#616161;stroke-linejoin:round;paint-order:stroke fill markers"
   aria-label="'" /><path
   style="font-size:136.063px;font-family:'Roboto Condensed';-inkscape-font-specification:'Roboto Condensed, ';baseline-shift:sub;fill:#616161;stroke-width:7.59766;stroke-linejoin:round;paint-order:stroke fill markers"
   d="M 243.7682,80.672088 V 41.673561 q 0,-4.251971 -1.32874,-6.843011 -1.2623,-2.59104 -3.85334,-3.78691 -2.52461,-1.19587 -6.37796,-1.19587 -3.72047,0 -6.44439,1.52805 -2.65748,1.52806 -4.11909,4.05266 -1.39518,2.52461 -1.39518,5.580711 h -11.75935 q 0,-3.853351 1.66092,-7.640261 1.72737,-3.78691 4.91634,-6.84301 3.18898,-3.12254 7.64026,-4.91634 4.51772,-1.86023 10.09843,-1.86023 6.6437,0 11.75935,2.19242 5.11565,2.12598 8.03888,6.97588 2.92323,4.84991 2.92323,12.888785 V 77.2838 q 0,3.587599 0.53149,7.640257 0.59793,4.052658 1.66093,6.975886 v 1.062992 H 245.562 q -0.86368,-2.125984 -1.32874,-5.647146 -0.46506,-3.587599 -0.46506,-6.643701 z m 1.86024,-31.291834 0.13287,8.636812 h -8.17175 q -4.18553,0 -7.64026,0.930118 -3.38828,0.930119 -5.84645,2.723918 -2.45817,1.727362 -3.78691,4.318406 -1.26231,2.591043 -1.26231,5.912894 0,4.318406 1.19587,6.909449 1.19587,2.524607 3.5876,3.654036 2.39173,1.129429 6.04577,1.129429 4.45128,0 7.83957,-2.059547 3.38828,-2.059547 5.24852,-4.982776 1.92667,-2.923229 1.7938,-5.447835 l 2.59104,5.514272 q -0.26575,2.591044 -1.72736,5.647146 -1.39518,2.989666 -3.91978,5.78002 -2.52461,2.723918 -5.97933,4.517717 -3.38829,1.727363 -7.64026,1.727363 -6.24508,0 -10.96211,-2.391733 -4.65059,-2.391732 -7.24163,-7.042323 -2.59105,-4.650591 -2.59105,-11.493604 0,-5.182087 1.7938,-9.56693 1.7938,-4.384842 5.31496,-7.573819 3.52117,-3.255414 8.83613,-5.049213 5.38139,-1.7938 12.42372,-1.7938 z"
   id="path30" /><path
   style="font-size:88.4409px;font-family:'Roboto Condensed';-inkscape-font-specification:'Roboto Condensed, ';baseline-shift:sub;fill:#616161;stroke-width:7.59766;stroke-linejoin:round;paint-order:stroke fill markers"
   d="m 292.70571,56.954079 v 63.221461 h -7.64358 V 66.929596 l -13.21432,5.873032 V 65.59089 l 19.69193,-8.636811 z"
   id="path31" /><path
   d="m 274.6769,0 v 7.30807 l -1.39518,24.44882 h -8.57037 L 264.77779,8.4375 V 0 Z"
   id="text3-6-2-2"
   style="font-size:136.063px;font-family:'Roboto Condensed';-inkscape-font-specification:'Roboto Condensed, ';fill:#616161;stroke-linejoin:round;paint-order:stroke fill markers"
   aria-label="'" /><path
   d="m 291.96087,0 v 7.30807 l -1.39518,24.44882 h -8.57037 L 282.06176,8.4375 V 0 Z"
   id="text3-6-7-6"
   style="font-size:136.063px;font-family:'Roboto Condensed';-inkscape-font-specification:'Roboto Condensed, ';fill:#616161;stroke-linejoin:round;paint-order:stroke fill markers"
   aria-label="'" /><path
   style="font-size:136.063px;font-family:'Roboto Condensed';-inkscape-font-specification:'Roboto Condensed, ';baseline-shift:sub;fill:#616161;stroke-width:7.59766;stroke-linejoin:round;paint-order:stroke fill markers"
   d="M 993.7682,80.672088 V 41.673561 q 0,-4.251971 -1.32874,-6.843011 -1.2623,-2.59104 -3.85335,-3.78691 -2.5246,-1.19587 -6.37795,-1.19587 -3.72047,0 -6.44439,1.52805 -2.65748,1.52806 -4.1191,4.05266 -1.39517,2.52461 -1.39517,5.580711 h -11.75936 q 0,-3.853351 1.66093,-7.640261 1.72736,-3.78691 4.91634,-6.84301 3.18898,-3.12254 7.64026,-4.91634 4.51771,-1.86023 10.09842,-1.86023 6.6437,0 11.75935,2.19242 5.11565,2.12598 8.03886,6.97588 2.9232,4.84991 2.9232,12.888785 V 77.2838 q 0,3.587599 0.5315,7.640257 0.598,4.052658 1.661,6.975886 v 1.062992 h -12.158 q -0.86368,-2.125984 -1.32874,-5.647146 -0.46506,-3.587599 -0.46506,-6.643701 z m 1.86024,-31.291834 0.13287,8.636812 h -8.17175 q -4.18554,0 -7.64026,0.930118 -3.38829,0.930119 -5.84646,2.723918 -2.45817,1.727362 -3.78691,4.318406 -1.2623,2.591043 -1.2623,5.912894 0,4.318406 1.19587,6.909449 1.19586,2.524607 3.58759,3.654036 2.39174,1.129429 6.04577,1.129429 4.45128,0 7.83957,-2.059547 3.38829,-2.059547 5.24852,-4.982776 1.92668,-2.923229 1.7938,-5.447835 l 2.59105,5.514272 q -0.26575,2.591044 -1.72736,5.647146 -1.39518,2.989666 -3.91979,5.78002 -2.52461,2.723918 -5.97933,4.517717 -3.38829,1.727363 -7.64026,1.727363 -6.24508,0 -10.9621,-2.391733 -4.65059,-2.391732 -7.24164,-7.042323 -2.59104,-4.650591 -2.59104,-11.493604 0,-5.182087 1.7938,-9.56693 1.7938,-4.384842 5.31496,-7.573819 3.52116,-3.255414 8.83612,-5.049213 5.3814,-1.7938 12.42372,-1.7938 z"
   id="path28" /><path
   style="font-size:88.4409px;font-family:'Roboto Condensed';-inkscape-font-specification:'Roboto Condensed, ';baseline-shift:sub;fill:#616161;stroke-width:7.59766;stroke-linejoin:round;paint-order:stroke fill markers"
   d="m 1028.2822,83.425906 v 36.749634 h -7.6436 V 73.450388 h 7.2118 z m -1.8569,11.616511 -3.1092,-0.129552 q -0.043,-4.793431 1.0796,-8.852732 1.1659,-4.102485 3.282,-7.125369 2.1592,-3.022884 5.1389,-4.663879 2.9797,-1.684178 6.6071,-1.684178 2.8502,0 5.1821,0.95005 2.3319,0.906865 3.9729,2.936515 1.641,2.029651 2.5047,5.268455 0.9069,3.195621 0.9069,7.816315 v 30.617498 h -7.6436 V 89.471673 q 0,-3.670644 -0.8205,-5.873031 -0.7773,-2.245571 -2.4183,-3.238805 -1.5978,-1.036417 -4.0593,-1.036417 -2.2456,0 -4.1889,1.252338 -1.9432,1.252337 -3.4115,3.454724 -1.4251,2.202387 -2.2456,5.052535 -0.7773,2.806964 -0.7773,5.9594 z"
   id="path29" /><path
   d="m 1024.6769,0 v 7.30807 l -1.3952,24.44882 h -8.5704 l 0.066,-23.31939 V 0 Z"
   id="text3-6-2-6"
   style="font-size:136.063px;font-family:'Roboto Condensed';-inkscape-font-specification:'Roboto Condensed, ';fill:#616161;stroke-linejoin:round;paint-order:stroke fill markers"
   aria-label="'" /><path
   d="m 1041.9609,0 v 7.30807 l -1.3952,24.44882 h -8.5704 l 0.066,-23.31939 V 0 Z"
   id="text3-6-7-69"
   style="font-size:136.063px;font-family:'Roboto Condensed';-inkscape-font-specification:'Roboto Condensed, ';fill:#616161;stroke-linejoin:round;paint-order:stroke fill markers"
   aria-label="'" /><path
   style="font-size:136.063px;font-family:'Roboto Condensed';-inkscape-font-specification:'Roboto Condensed, ';baseline-shift:sub;fill:#616161;stroke-width:7.59766;stroke-linejoin:round;paint-order:stroke fill markers"
   d="m 993.7682,362.04051 v -38.99853 q 0,-4.25196 -1.32874,-6.84301 -1.2623,-2.59104 -3.85335,-3.78691 -2.5246,-1.19586 -6.37795,-1.19586 -3.72047,0 -6.44439,1.52805 -2.65748,1.52805 -4.1191,4.05266 -1.39517,2.5246 -1.39517,5.5807 h -11.75936 q 0,-3.85334 1.66093,-7.64025 1.72736,-3.78691 4.91634,-6.84301 3.18898,-3.12254 7.64026,-4.91634 4.51771,-1.86024 10.09842,-1.86024 6.6437,0 11.75935,2.19242 5.11565,2.12599 8.03886,6.97589 2.9232,4.8499 2.9232,12.88878 v 35.47736 q 0,3.5876 0.5315,7.64026 0.598,4.05266 1.661,6.97589 v 1.06299 h -12.158 q -0.86368,-2.12599 -1.32874,-5.64715 -0.46506,-3.5876 -0.46506,-6.6437 z m 1.86024,-31.29183 0.13287,8.63681 h -8.17175 q -4.18554,0 -7.64026,0.93012 -3.38829,0.93012 -5.84646,2.72392 -2.45817,1.72736 -3.78691,4.3184 -1.2623,2.59104 -1.2623,5.9129 0,4.3184 1.19587,6.90944 1.19586,2.52461 3.58759,3.65404 2.39174,1.12943 6.04577,1.12943 4.45128,0 7.83957,-2.05955 3.38829,-2.05954 5.24852,-4.98277 1.92668,-2.92323 1.7938,-5.44784 l 2.59105,5.51427 q -0.26575,2.59105 -1.72736,5.64715 -1.39518,2.98967 -3.91979,5.78002 -2.52461,2.72392 -5.97933,4.51772 -3.38829,1.72736 -7.64026,1.72736 -6.24508,0 -10.9621,-2.39173 -4.65059,-2.39174 -7.24164,-7.04233 -2.59104,-4.65059 -2.59104,-11.4936 0,-5.18209 1.7938,-9.56693 1.7938,-4.38484 5.31496,-7.57382 3.52116,-3.25541 8.83612,-5.04921 5.3814,-1.7938 12.42372,-1.7938 z"
   id="path26" /><path
   style="font-size:88.4409px;font-family:'Roboto Condensed';-inkscape-font-specification:'Roboto Condensed, ';baseline-shift:sub;fill:#616161;stroke-width:7.59766;stroke-linejoin:round;paint-order:stroke fill markers"
   d="m 1028.2822,364.79433 v 36.74963 h -7.6436 v -46.72515 h 7.2118 z m -1.8569,11.61651 -3.1092,-0.12955 q -0.043,-4.79343 1.0796,-8.85273 1.1659,-4.10249 3.282,-7.12537 2.1592,-3.02289 5.1389,-4.66388 2.9797,-1.68418 6.6071,-1.68418 2.8502,0 5.1821,0.95005 2.3319,0.90687 3.9729,2.93652 1.641,2.02965 2.5047,5.26845 0.9069,3.19562 0.9069,7.81632 v 30.61749 h -7.6436 V 370.8401 q 0,-3.67065 -0.8205,-5.87303 -0.7773,-2.24558 -2.4183,-3.23881 -1.5978,-1.03642 -4.0593,-1.03642 -2.2456,0 -4.1889,1.25234 -1.9432,1.25234 -3.4115,3.45473 -1.4251,2.20238 -2.2456,5.05253 -0.7773,2.80696 -0.7773,5.9594 z"
   id="path27" /><path
   d="m 1026.3264,274.83519 v 7.30807 l -1.3952,24.44882 h -8.5704 l 0.066,-23.31939 v -8.4375 z"
   id="text3-6-5"
   style="font-size:136.063px;font-family:'Roboto Condensed';-inkscape-font-specification:'Roboto Condensed, ';fill:#616161;stroke-linejoin:round;paint-order:stroke fill markers"
   aria-label="'" /><path
   d="m 674.41371,49.849521 q 0,-5.42375 3.34657,-9.116515 3.46197,-3.808166 9.92431,-3.808166 6.46234,0 9.80891,3.808166 3.46196,3.692765 3.46196,9.116515 0,5.308351 -3.46196,9.001116 -3.34657,3.692766 -9.80891,3.692766 -6.46234,0 -9.92431,-3.692766 -3.34657,-3.692765 -3.34657,-9.001116 z m 62.31542,0 q 0,-5.42375 3.34657,-9.116515 3.46197,-3.808166 9.92431,-3.808166 6.46234,0 9.80891,3.808166 3.46197,3.692765 3.46197,9.116515 0,5.308351 -3.46197,9.001116 -3.34657,3.692766 -9.80891,3.692766 -6.46234,0 -9.92431,-3.692766 -3.34657,-3.692765 -3.34657,-9.001116 z m 62.31542,0 q 0,-5.42375 3.34657,-9.116515 3.46197,-3.808166 9.92431,-3.808166 6.46234,0 9.80891,3.808166 3.46197,3.692765 3.46197,9.116515 0,5.308351 -3.46197,9.001116 -3.34657,3.692766 -9.80891,3.692766 -6.46234,0 -9.92431,-3.692766 -3.34657,-3.692765 -3.34657,-9.001116 z"
   id="text4"
   style="font-size:236.337px;font-family:'Roboto Condensed';-inkscape-font-specification:'Roboto Condensed, ';fill:#616161;stroke-width:1.73697;stroke-linejoin:round;paint-order:stroke fill markers"
   aria-label="..." /><path
   d="m 674.41371,338.30497 q 0,-5.42375 3.34657,-9.11651 3.46197,-3.80817 9.92431,-3.80817 6.46234,0 9.80891,3.80817 3.46196,3.69276 3.46196,9.11651 0,5.30835 -3.46196,9.00112 -3.34657,3.69277 -9.80891,3.69277 -6.46234,0 -9.92431,-3.69277 -3.34657,-3.69277 -3.34657,-9.00112 z m 62.31542,0 q 0,-5.42375 3.34657,-9.11651 3.46197,-3.80817 9.92431,-3.80817 6.46234,0 9.80891,3.80817 3.46197,3.69276 3.46197,9.11651 0,5.30835 -3.46197,9.00112 -3.34657,3.69277 -9.80891,3.69277 -6.46234,0 -9.92431,-3.69277 -3.34657,-3.69277 -3.34657,-9.00112 z m 62.31542,0 q 0,-5.42375 3.34657,-9.11651 3.46197,-3.80817 9.92431,-3.80817 6.46234,0 9.80891,3.80817 3.46197,3.69276 3.46197,9.11651 0,5.30835 -3.46197,9.00112 -3.34657,3.69277 -9.80891,3.69277 -6.46234,0 -9.92431,-3.69277 -3.34657,-3.69277 -3.34657,-9.00112 z"
   id="text4-4"
   style="font-size:236.337px;font-family:'Roboto Condensed';-inkscape-font-specification:'Roboto Condensed, ';fill:#616161;stroke-width:1.73697;stroke-linejoin:round;paint-order:stroke fill markers"
   aria-label="..." /></svg>
