<svg xmlns="http://www.w3.org/2000/svg" xml:space="preserve" viewBox="0 0 21.079 7.745">
  <g style="display:inline">
    <path d="M50.375 105.155c7.558.547 14.014 2.19 14.625 4.845v-5c-.308-2.722-7.41-4.398-15.552-4.864m-7.373-.09C33.629 100.32 25.882 101.912 25 105v5c.781-3.217 9.125-4.854 17.996-5.032" class="stroke-orange fill-orange" style="display:inline;fill:#ff851b;fill-opacity:.333333;stroke:none;stroke-width:.264999;stroke-dasharray:none;stroke-opacity:1" transform="matrix(.5227 .00546 -.00655 .5201 -12.278 -52.2)"/>
    <path d="M25 105v5c.382 2.548 6.23 4.122 13.34 4.723.743.063 1.977-1.348 2.639-2.731.613-1.28 1.814-2.33 2.333-2.4.877-.118.996.943 2.667 2.4.743.648 1.374 2.13 2.248 2.525.896.404 2.528-2.193 2.718-2.482.609-.929 1.244-2.306 2.47-2.498 4.704-.735 11.585-1.92 11.564-4.545L65 110c-.101 1.907-6.815 4.822-11.555 4.535-.843-.051-1.756-1.734-2.5-2.5-1.75-1.8-1.836-2.642-2.711-2.443-.95.217-1.672 1.144-2.255 2.4-.402.866-1.821 2.71-2.704 2.532-1.09-.218-1.296-1.798-2.296-2.532-.696-.511-1.676-2.186-2.484-2.251-6.951-.558-12.74-2.099-13.495-4.741" class="stroke-orange fill-orange" style="display:inline;fill:#ff851b;fill-opacity:.333333;stroke:none;stroke-width:.264999;stroke-dasharray:none;stroke-opacity:1" transform="matrix(.5227 .00546 -.00655 .5201 -12.278 -52.2)"/>
    <path d="M38.381 114.72C30.588 114.037 25 112.182 25 110c0-.656.505-1.283 1.424-1.857m37.046-.064c.986.591 1.53 1.24 1.53 1.921 0 2.009-4.738 3.74-11.573 4.536m-24.558-7.492c3.266-1.112 8.326-1.874 14.114-2.019m7.453.162c4.365.307 8.125.976 10.731 1.869" class="stroke-orange fill-orange" style="display:inline;fill:none;stroke:#ff851b;stroke-width:.264999;stroke-opacity:1" transform="matrix(.5227 .00546 -.00655 .5201 -12.278 -52.2)"/>
    <path d="M38.442 109.725C30.617 109.046 25 107.187 25 105c0-2.505 7.37-4.58 16.986-4.944m7.588.075C58.415 100.648 65 102.632 65 105c0 2.01-4.744 3.743-11.586 4.537" class="stroke-orange fill-orange" style="display:inline;fill:none;stroke:#ff851b;stroke-width:.264999;stroke-opacity:1" transform="matrix(.5227 .00546 -.00655 .5201 -12.278 -52.2)"/>
    <path d="M25 105v5m40-5v5" class="stroke-orange fill-orange" style="display:inline;fill:none;fill-opacity:1;stroke:#ff851b;stroke-width:.264999;stroke-dasharray:none;stroke-opacity:1" transform="matrix(.5227 .00546 -.00655 .5201 -12.278 -52.2)"/>
    <path d="M24.997 145.19c1 0 1.003.81 2.003 1.81m1 1c1 1 1 2 2 2m0-5c-2 0-3.063 5.185-5.063 5.185" class="stroke-orange fill-orange" style="fill:none;fill-opacity:1;stroke:#ff851b;stroke-width:.264999;stroke-linecap:round;stroke-dasharray:none;stroke-opacity:1" transform="matrix(.5227 .00546 -.00655 .5201 -5.018 -70.572)"/>
    <path d="M25 145c1 0 1 1 2 2m1 1c1 1 1 2 2 2m0-5c-2 0-3 5-5 5" class="stroke-orange fill-orange" style="fill:none;fill-opacity:1;stroke:#ff851b;stroke-width:.264999;stroke-linecap:round;stroke-dasharray:none;stroke-opacity:1" transform="matrix(.5227 .00546 -.00655 .5201 .209 -70.517)"/>
    <path d="M25 145c1 0 1 1 2 2m1 1c1 1 1 2 2 2m0-5c-2 0-3 5-5 5" class="stroke-orange fill-orange" style="fill:none;fill-opacity:1;stroke:#ff851b;stroke-width:.264999;stroke-linecap:round;stroke-dasharray:none;stroke-opacity:1" transform="matrix(.5227 .00546 -.00655 .5201 -2.405 -70.545)"/>
  </g>
</svg>
