<svg xmlns="http://www.w3.org/2000/svg" viewBox="0 0 191.176 97.661">
  <path d="M62.756 85.846h37.515l32.82-32.82m-32.82 32.82 33.524 33.524" class="stroke-comment fill-comment" style="fill:none;stroke:#616161;stroke-width:5.51562;stroke-dasharray:none;stroke-opacity:1" transform="rotate(-90 56.4 104.018)"/>
  <path d="M107.282 85.827a6.114 6.032 0 0 1-6.114 6.032 6.114 6.032 0 0 1-6.114-6.032 6.114 6.032 0 0 1 6.114-6.032 6.114 6.032 0 0 1 6.114 6.032m31.112-32.177a6.114 6.032 0 0 1-6.114 6.033 6.114 6.032 0 0 1-6.114-6.032 6.114 6.032 0 0 1 6.114-6.032 6.114 6.032 0 0 1 6.114 6.032" class="stroke-comment fill-comment" style="fill:#616161;stroke-width:.394911" transform="rotate(-90 56.4 104.018)"/>
  <path d="M138.394 53.65a6.114 6.032 0 0 1-6.114 6.033 6.114 6.032 0 0 1-6.114-6.032 6.114 6.032 0 0 1 6.114-6.032 6.114 6.032 0 0 1 6.114 6.032" class="stroke-comment fill-comment" style="fill:#616161;stroke-width:.394911" transform="rotate(-90 88.585 71.832)"/>
  <path d="M136.71 79.4q0-.017.02-.036t.048-.019q.027 0 .047.02.02.018.02.043 0 .017-.01.031-.01.015-.043.046l-.076.07v.002h.116v-.013q0-.01.008-.01.007 0 .007.01v.028h-.145v-.022l.087-.082q.025-.025.033-.036.008-.012.008-.024 0-.02-.016-.034t-.036-.014-.035.011-.02.028q-.001.007-.007.007-.003 0-.005-.002t-.002-.005z" aria-label="2" style="font-size:1.95741px;font-family:FreeMono;-inkscape-font-specification:FreeMono;fill:none;stroke:#b10dc9;stroke-width:0;stroke-linejoin:round;stroke-miterlimit:4.1" transform="rotate(-90 56.4 104.018)"/>
  <text x="47.174" y="-143.109" style="font-size:21.1049px;font-family:Inter;-inkscape-font-specification:Inter;text-align:start;writing-mode:lr-tb;direction:ltr;text-anchor:start;fill:#b10dc9;stroke-width:.87969;stroke-linejoin:round;paint-order:stroke fill markers" transform="translate(-47.619 160.417)">
    <tspan x="47.174" y="-143.109" style="stroke-width:.87969">2</tspan>
  </text>
  <text x="81.967" y="-114.681" style="font-size:21.1049px;font-family:Inter;-inkscape-font-specification:Inter;text-align:start;writing-mode:lr-tb;direction:ltr;text-anchor:start;fill:#2ecc40;stroke-width:.87969;stroke-linejoin:round;paint-order:stroke fill markers" transform="translate(-47.619 160.417)">
    <tspan x="81.967" y="-114.681" style="stroke-width:.87969">1</tspan>
  </text>
  <text x="144" y="56.055" style="font-size:112.438px;font-family:Inter;-inkscape-font-specification:Inter;text-align:start;writing-mode:lr-tb;direction:ltr;text-anchor:start;fill:#b10dc9;stroke-width:4.68661;stroke-linejoin:round;paint-order:stroke fill markers" transform="translate(36.898 6.786)scale(.1877)">
    <tspan x="144" y="56.055">2</tspan>
  </text>
  <path d="M151.59 87.218h37.515l32.82-32.82m-32.82 32.82 33.524 33.525" class="stroke-comment fill-comment" style="fill:none;stroke:#616161;stroke-width:5.51562;stroke-dasharray:none;stroke-opacity:1" transform="rotate(-90 155.796 93.455)"/>
  <path d="M196.116 87.199a6.114 6.032 0 0 1-6.114 6.032 6.114 6.032 0 0 1-6.114-6.032 6.114 6.032 0 0 1 6.114-6.032 6.114 6.032 0 0 1 6.114 6.032m31.112-32.176a6.114 6.032 0 0 1-6.114 6.032A6.114 6.032 0 0 1 215 55.023a6.114 6.032 0 0 1 6.114-6.032 6.114 6.032 0 0 1 6.114 6.032" class="stroke-comment fill-comment" style="fill:#616161;stroke-width:.394911" transform="rotate(-90 155.796 93.455)"/>
  <path d="M138.394 53.65a6.114 6.032 0 0 1-6.114 6.033 6.114 6.032 0 0 1-6.114-6.032 6.114 6.032 0 0 1 6.114-6.032 6.114 6.032 0 0 1 6.114 6.032" class="stroke-comment fill-comment" style="fill:#616161;stroke-width:.394911" transform="rotate(-90 144.251 16.166)"/>
  <path d="M225.544 80.772q0-.017.02-.036t.048-.019q.027 0 .047.02.02.019.02.044 0 .016-.01.03-.01.015-.042.046l-.077.071v.001h.116v-.013q0-.01.008-.01.007 0 .007.01v.028h-.145v-.022l.087-.081q.025-.026.033-.037t.008-.024q0-.019-.016-.033-.015-.015-.036-.015-.019 0-.035.011-.015.011-.019.028-.002.007-.008.007-.003 0-.005-.002t-.002-.005z" aria-label="2" style="font-size:1.95741px;font-family:FreeMono;-inkscape-font-specification:FreeMono;fill:none;stroke:#b10dc9;stroke-width:0;stroke-linejoin:round;stroke-miterlimit:4.1" transform="rotate(-90 155.796 93.455)"/>
  <text x="44.1" y="-233.69" style="font-size:21.1049px;font-family:Inter;-inkscape-font-specification:Inter;text-align:start;writing-mode:lr-tb;direction:ltr;text-anchor:start;fill:#b10dc9;stroke-width:.87969;stroke-linejoin:round;paint-order:stroke fill markers" transform="translate(62.341 249.251)">
    <tspan x="44.1" y="-233.69" style="stroke-width:.87969">-2</tspan>
  </text>
  <text x="78.239" y="-204.616" style="font-size:21.1049px;font-family:Inter;-inkscape-font-specification:Inter;text-align:start;writing-mode:lr-tb;direction:ltr;text-anchor:start;fill:#2ecc40;stroke-width:.87969;stroke-linejoin:round;paint-order:stroke fill markers" transform="translate(62.341 249.251)">
    <tspan x="78.239" y="-204.616" style="stroke-width:.87969">-1</tspan>
  </text>
  <text x="144" y="56.055" style="font-size:112.438px;font-family:Inter;-inkscape-font-specification:Inter;text-align:start;writing-mode:lr-tb;direction:ltr;text-anchor:start;fill:#b10dc9;stroke-width:4.68661;stroke-linejoin:round;paint-order:stroke fill markers" transform="translate(143.784 5.04)scale(.1877)">
    <tspan x="144" y="56.055">-2</tspan>
  </text>
</svg>
