<svg xmlns="http://www.w3.org/2000/svg" viewBox="0 0 82.473 42.497"><g transform="translate(-9.019 -33.706)"><path d="m10 35 6.995 6.995m3.913 3.913L30 55l-6.948 6.948m-5.788 5.788L10 75m20-20h12.75m13.645 0H70l8.608-8.608m4.25-4.25L90 35M70 55l6.473 6.473m4.868 4.868 8.753 8.753" class="stroke-comment fill-comment" style="fill:none;stroke:#aaa;stroke-width:1.065;stroke-dasharray:none;stroke-opacity:1"/><ellipse cx="10.261" cy="35.079" class="stroke-comment fill-comment" rx="1.181" ry="1.165" style="fill:#aaa;fill-opacity:1;stroke:none;stroke-width:.0762529;stroke-dasharray:none;stroke-opacity:1"/><ellipse cx="29.721" cy="54.976" class="stroke-comment fill-comment" rx="1.181" ry="1.165" style="fill:#aaa;fill-opacity:1;stroke:none;stroke-width:.0762529;stroke-dasharray:none;stroke-opacity:1"/><ellipse cx="10.199" cy="74.805" class="stroke-comment fill-comment" rx="1.181" ry="1.165" style="fill:#aaa;fill-opacity:1;stroke:none;stroke-width:.0762529;stroke-dasharray:none;stroke-opacity:1"/><ellipse cx="70.173" cy="54.996" class="stroke-comment fill-comment" rx="1.181" ry="1.165" style="fill:#aaa;fill-opacity:1;stroke:none;stroke-width:.0762529;stroke-dasharray:none;stroke-opacity:1"/><ellipse cx="90.312" cy="75.038" class="stroke-comment fill-comment" rx="1.181" ry="1.165" style="fill:#aaa;fill-opacity:1;stroke:none;stroke-width:.0762529;stroke-dasharray:none;stroke-opacity:1"/><ellipse cx="90.188" cy="34.871" class="stroke-comment fill-comment" rx="1.181" ry="1.165" style="fill:#aaa;fill-opacity:1;stroke:none;stroke-width:.0762529;stroke-dasharray:none;stroke-opacity:1"/></g></svg>