<?xml version="1.0" encoding="UTF-8" standalone="no"?>
<svg
   viewBox="0 0 85.925812 61.145558"
   version="1.1"
   id="svg24"
   sodipodi:docname="arbor_tangle.svg"
   width="85.925812"
   height="61.145557"
   inkscape:version="1.4.2 (ebf0e940d0, 2025-05-08)"
   xmlns:inkscape="http://www.inkscape.org/namespaces/inkscape"
   xmlns:sodipodi="http://sodipodi.sourceforge.net/DTD/sodipodi-0.dtd"
   xmlns="http://www.w3.org/2000/svg"
   xmlns:svg="http://www.w3.org/2000/svg">
  <defs
     id="defs24" />
  <sodipodi:namedview
     id="namedview24"
     pagecolor="#ffffff"
     bordercolor="#000000"
     borderopacity="0.25"
     inkscape:showpageshadow="2"
     inkscape:pageopacity="0.0"
     inkscape:pagecheckerboard="0"
     inkscape:deskcolor="#d1d1d1"
     inkscape:zoom="6.590675"
     inkscape:cx="46.277506"
     inkscape:cy="29.814852"
     inkscape:window-width="2234"
     inkscape:window-height="1418"
     inkscape:window-x="0"
     inkscape:window-y="0"
     inkscape:window-maximized="1"
     inkscape:current-layer="g24" />
  <g
     transform="translate(-106.79391,-22.997474)"
     id="g24">
    <g
       style="display:inline"
       id="g23">
      <g
         style="display:inline"
         id="g6">
        <path
           d="m 24.997,145.19 c 1,0 1.003,0.81 2.003,1.81 l 1,1 c 0.694,0.694 0.906,1.387 1.305,1.747 M 30,145 c -0.16,0 -0.454,0.125 -0.596,0.178 m -0.943,0.76 c -0.262,0.268 -0.361,0.455 -0.508,0.66 m -0.894,1.735 c -0.6,0.946 -1.352,1.852 -2.122,1.852"
           class="stroke-blue fill-blue"
           style="fill:none;fill-opacity:1;stroke:#0074d9;stroke-width:0.264999;stroke-linecap:round;stroke-dasharray:none;stroke-opacity:1"
           transform="matrix(0.00368,0.86603,1.66826,-0.00708,-70.319,14.134)"
           id="path1" />
        <path
           d="m 25,145 c 1,0 1,1 2,2 l 1,1 c 1,1 0.401,1.035 1.005,1.703 M 30,145 a 1.3,1.3 0 0 0 -0.635,0.173 m -1.03,1.016 c -0.186,0.257 -0.27,0.314 -0.449,0.607 M 27.073,148.2 C 26.458,149.178 25.811,150 25,150"
           class="stroke-blue fill-blue"
           style="fill:none;fill-opacity:1;stroke:#0074d9;stroke-width:0.264999;stroke-linecap:round;stroke-dasharray:none;stroke-opacity:1"
           transform="matrix(0.00368,0.86603,1.66826,-0.00708,-70.282,22.795)"
           id="path2" />
        <path
           d="m 25,145 c 1,0 1,1 2,2 l 1,1 c 1,1 1,2 2,2 m 0,-5 c -0.821,-0.028 -1.476,0.826 -2.106,1.836 m -0.946,1.546 c -0.307,0.473 -0.625,0.898 -0.97,1.194"
           class="stroke-blue fill-blue"
           style="fill:none;fill-opacity:1;stroke:#0074d9;stroke-width:0.264999;stroke-linecap:round;stroke-dasharray:none;stroke-opacity:1"
           transform="matrix(0.00368,0.86603,1.66826,-0.00708,-70.3,18.465)"
           id="path3" />
        <g
           style="display:inline"
           id="g4">
          <path
             d="M 25.06,144.418 C 26.123,144.538 26,146 27,147 l 0.64,0.995 c 1,1 1,2 2,2 M 29.701,145 h -0.003 c -0.834,0 -1.362,0.795 -1.906,1.703 m -1.076,1.625 c -0.536,0.629 -1.203,1.074 -2.158,1.002"
             class="stroke-blue fill-blue"
             style="fill:none;fill-opacity:1;stroke:#0074d9;stroke-width:0.264999;stroke-linecap:round;stroke-dasharray:none;stroke-opacity:1"
             transform="matrix(0.00368,0.86603,1.66826,-0.00708,-70.02,10.06)"
             id="path4" />
        </g>
        <path
           d="m 73.909,151.65 c -5.027,-0.909 -8.299,-2.387 -8.299,-4.056 0,-0.656 0.506,-1.282 1.424,-1.856 l 2.445,-1.1 c 3.017,-1.027 7.564,-1.755 12.802,-1.975"
           class="stroke-blue fill-blue"
           style="display:inline;fill:none;stroke:#0074d9;stroke-width:0.264999;stroke-opacity:1"
           transform="matrix(0.00368,0.86603,1.66826,-0.00708,-74.07,-32.663)"
           id="path5" />
        <path
           d="m 74.411,146.738 c -2.01,-0.34 -3.76,-0.77 -5.158,-1.266 m -1.952,-0.863 c -1.087,-0.616 -1.69,-1.298 -1.69,-2.015 0,-2.47 7.166,-4.522 16.585,-4.927 m 9.734,5.183 c 3.046,0.252 5.766,0.684 7.963,1.244 m 2.214,0.705 1.973,0.874 m 1.53,1.921 c 0,1.402 -2.307,2.669 -6.024,3.577 m -3.49,0.682 q -0.556,0.085 -1.135,0.162 M 91.81,137.84 c 3.05,0.247 5.777,0.674 7.987,1.23 m 2.67,0.832 c 1.99,0.777 3.143,1.701 3.143,2.692 0,0.735 -0.634,1.433 -1.772,2.061 m -1.797,0.823 c -0.139,0.047 -0.296,0.147 -0.441,0.193 m -1.428,0.364 c -1.72,0.451 -3.859,0.83 -6.148,1.097"
           class="stroke-blue fill-blue"
           style="display:inline;fill:none;stroke:#0074d9;stroke-width:0.264999;stroke-opacity:1"
           transform="matrix(0.00368,0.86603,1.66826,-0.00708,-74.07,-32.663)"
           id="path6" />
      </g>
      <g
         style="display:inline"
         id="g8">
        <path
           d="m 63.47,108.079 q 0.356,0.213 0.632,0.435 l 0.644,0.688 q 0.252,0.39 0.254,0.798 -0.002,0.439 -0.293,0.857 l -0.881,0.835 c -1.197,0.832 -3.251,1.562 -5.896,2.123 m -4.919,0.768 A 74,74 0 0 1 45,115 c -2.464,0 -4.823,-0.111 -7.002,-0.315 m -5,-0.685 a 41,41 0 0 1 -0.59,-0.115 m -1.341,-0.298 a 29,29 0 0 1 -1.866,-0.514 m -0.625,-0.207 c -0.147,-0.052 -0.185,-0.079 -0.324,-0.132 m -1.146,-0.498 a 8,8 0 0 1 -0.794,-0.451 m -1.093,-1.043 A 1.44,1.44 0 0 1 25,110 m 0.265,-0.816 c 0.237,-0.361 0.63,-0.71 1.159,-1.04 m 2.445,-1.1 q 0.344,-0.117 0.714,-0.23 m 1.21,-0.333 c 1.07,-0.27 2.265,-0.51 3.56,-0.714 m 1.766,-0.248 q 0.594,-0.074 1.21,-0.138 m 1.88,-0.168 c 1.22,-0.092 2.49,-0.156 3.797,-0.188 m 5.034,0.032 c 1.574,0.06 3.089,0.166 4.52,0.313 l 1.44,0.164 a 49,49 0 0 1 3.74,0.611 l 1.123,0.251 c 0.842,0.203 1.614,0.423 2.304,0.66"
           class="stroke-teal fill-teal"
           style="display:inline;fill:none;stroke:#39cccc;stroke-width:0.264999;stroke-opacity:1"
           transform="matrix(1.66015,0,0,1.66015,84.59,-128.525)"
           id="path7" />
        <path
           d="m 48.009,100.056 c 2.237,0.085 4.352,0.262 6.281,0.515 l 1.196,0.17 c 1.654,0.256 3.148,0.57 4.436,0.93 l 1.4,0.439 c 2.316,0.816 3.678,1.813 3.678,2.89 0,0.703 -0.58,1.372 -1.628,1.98 l -1.187,0.58 c -1.114,0.466 -2.522,0.883 -4.16,1.235 m -5.029,0.79 A 74,74 0 0 1 45,110 c -2.45,0 -4.797,-0.11 -6.966,-0.312 m -5.04,-0.689 c -1.573,-0.295 -2.967,-0.648 -4.131,-1.045 m -0.937,-0.349 C 26.07,106.847 25,105.955 25,105 c 0,-1.168 1.602,-2.243 4.287,-3.094 m 1.881,-0.518 q 0.28,-0.066 0.57,-0.13 m 1.967,-0.385 a 54,54 0 0 1 3.054,-0.43 m 2.05,-0.199 a 75,75 0 0 1 4.197,-0.22"
           class="stroke-teal fill-teal"
           style="display:inline;fill:none;stroke:#39cccc;stroke-width:0.264999;stroke-opacity:1"
           transform="matrix(1.66015,0,0,1.66015,84.59,-128.525)"
           id="path8" />
      </g>
      <g
         style="display:inline"
         id="g13">
        <path
           d="m 14.96,21.946 c 0.049,0.03 0.16,0.089 0.207,0.118 m 0.664,0.497 c 0.47,0.425 0.658,0.844 0.658,1.307 m -0.656,1.275 c -0.324,0.308 -0.762,0.604 -1.303,0.885 m -1.232,0.564 c -0.979,0.347 -2.586,0.816 -3.879,1.09 M 4.5,28.45 a 70,70 0 0 1 -4.789,0.353 m -1.5,0.046 a 81,81 0 0 1 -2.517,0.014 m -1.891,-0.04 a 73,73 0 0 1 -4.316,-0.27 m -5.625,-0.808 c -4.5,-0.917 -7.373,-2.313 -7.373,-3.877 0,-0.656 0.506,-1.283 1.424,-1.857 m 2.445,-1.1 a 26,26 0 0 1 2.18,-0.626 m 9.638,-1.254 c 0.17,0.04 0.548,0.154 0.79,0.241 m 6.563,-0.347 c 1.68,0.064 3.292,0.18 4.808,0.342 m 1.917,0.236 a 47,47 0 0 1 3.11,0.538 m 1.335,0.308 q 1.064,0.268 1.957,0.575"
           style="display:inline;fill:none;stroke:#b10dc9;stroke-width:0.264999;stroke-opacity:1"
           transform="matrix(-0.1383,1.2102,-1.75425,-0.0954,172.113,62.934)"
           id="path9" />
        <path
           d="m 0.091,13.932 c 3.003,0.113 5.728,0.393 8.057,0.8 m 1.512,0.293 q 0.906,0.196 1.706,0.418 m 1.944,0.639 c 2.028,0.795 3.18,1.753 3.18,2.786 0,0.62 -0.452,1.212 -1.276,1.76 m -1.26,0.678 c -1.154,0.515 -2.661,0.974 -4.44,1.356 m -5.029,0.79 a 71,71 0 0 1 -4.71,0.354 m -1.504,0.047 a 71,71 0 0 1 -1.782,0.015 m -1.782,-0.026 a 78,78 0 0 1 -5.184,-0.286 m -5.04,-0.689 c -4.854,-0.912 -7.994,-2.364 -7.994,-4 0,-1.354 2.165,-2.586 5.68,-3.488 m 9.688,-1.377 c 0.86,-0.05 0.708,0.36 1.606,0.337"
           style="display:inline;fill:none;stroke:#b10dc9;stroke-width:0.264999;stroke-opacity:1"
           transform="matrix(-0.1383,1.2102,-1.75425,-0.0954,172.113,62.934)"
           id="path10" />
        <g
           style="display:inline"
           id="g11">
          <path
             d="m 25.05,144.527 c 1,0 0.95,1.473 1.95,2.473 m 1,1 c 1,1 1.117,2.019 2.117,2.019 m -1.084,-4.612 c -0.41,0.324 -0.783,0.816 -1.147,1.349 m -1.025,1.504 c -0.538,0.717 -1.112,1.267 -1.811,1.267"
             style="fill:none;fill-opacity:1;stroke:#b10dc9;stroke-width:0.264999;stroke-linecap:round;stroke-dasharray:none;stroke-opacity:1"
             transform="matrix(-0.1383,1.2102,1.75425,0.0954,-110.33,0.982)"
             id="path11" />
        </g>
        <g
           style="display:inline"
           id="g12">
          <path
             d="M 25.72,144.202 C 26.693,144.442 26,146 27,147 l 1,1 c 1,1 1,2 2,2 m 0,-5 q -0.201,0 -0.387,0.058 m -0.917,0.621 c -0.288,0.3 -0.556,0.673 -0.815,1.061 m -1.055,1.55 c -0.459,0.578 -0.94,0.955 -1.51,0.81"
             style="fill:none;fill-opacity:1;stroke:#b10dc9;stroke-width:0.264999;stroke-linecap:round;stroke-dasharray:none;stroke-opacity:1"
             transform="matrix(-0.1383,1.2102,1.75425,0.0954,-110.475,-5.053)"
             id="path12" />
        </g>
      </g>
      <g
         style="display:inline"
         id="g17">
        <path
           d="M 38.381,114.72 C 30.588,114.037 25,112.182 25,110 c 0,-0.656 0.505,-1.283 1.424,-1.857 m 37.046,-0.064 c 0.986,0.591 1.53,1.24 1.53,1.921 0,2.009 -4.738,3.74 -11.573,4.536 m -24.558,-7.492 c 3.266,-1.112 6.486,-1.733 12.274,-1.878 m 9.213,-0.192 c 5.378,0.205 7.974,0.812 11.045,1.864"
           style="display:inline;fill:none;stroke:#ff4136;stroke-width:0.264999;stroke-opacity:1"
           transform="matrix(0.95329,0.08784,0.005,1.19422,82.563,-57.49)"
           id="path13" />
        <path
           d="M 38.442,109.725 C 30.617,109.046 25,107.187 25,105 c 0,-2.593 5.34,-4.641 15.447,-4.892 m 9.069,-0.256 C 59.142,100.214 65,102.492 65,105 c 0,2.01 -4.744,3.743 -11.586,4.537"
           style="display:inline;fill:none;stroke:#ff4136;stroke-width:0.264999;stroke-opacity:1"
           transform="matrix(0.95329,0.08784,0.005,1.19422,82.563,-57.49)"
           id="path14" />
        <path
           d="m 24.937,145 c 1,0 1.063,1 2.063,2 m 1,1 c 1,1 1,2 2,2 m 0,-5 c -2,0 -3.003,4.995 -5.003,4.995"
           style="fill:none;fill-opacity:1;stroke:#ff4136;stroke-width:0.264999;stroke-linecap:round;stroke-dasharray:none;stroke-opacity:1"
           transform="matrix(0.95329,0.08784,-0.005,-1.19422,96.68,253.854)"
           id="path15" />
        <path
           d="m 25,145 c 1,0 1,1 2,2 m 1,1 c 1,1 0.97,2.182 1.97,2.182 M 30,145.185 c -2,0 -3,4.815 -5,4.815"
           style="fill:none;fill-opacity:1;stroke:#ff4136;stroke-width:0.264999;stroke-linecap:round;stroke-dasharray:none;stroke-opacity:1"
           transform="matrix(0.95329,0.08784,-0.005,-1.19422,106.212,254.732)"
           id="path16" />
        <path
           d="m 25,145 c 1,0 1,1 2,2 m 1,1 c 1,1 1,2 2,2 m 0,-5 c -2,0 -3,5 -5,5"
           style="fill:none;fill-opacity:1;stroke:#ff4136;stroke-width:0.264999;stroke-linecap:round;stroke-dasharray:none;stroke-opacity:1"
           transform="matrix(0.95329,0.08784,-0.005,-1.19422,101.446,254.293)"
           id="path17" />
      </g>
      <g
         style="display:inline"
         id="g22">
        <path
           d="M 38.381,114.72 C 30.588,114.037 25,112.182 25,110 c 0,-0.656 0.505,-1.283 1.424,-1.857 m 37.046,-0.064 c 0.986,0.591 1.53,1.24 1.53,1.921 0,2.009 -4.738,3.74 -11.573,4.536 m -24.558,-7.492 c 3.266,-1.112 5.618,-1.626 11.406,-1.771 m 10.064,-0.405 c 5.38,0.205 8.04,0.91 11.11,1.961"
           class="stroke-green fill-green"
           style="display:inline;fill:none;stroke:#2ecc40;stroke-width:0.264999;stroke-opacity:1"
           transform="matrix(0.84826,0.11267,-0.13176,1.28581,103.262,-92.51)"
           id="path18" />
        <path
           d="M 38.442,109.725 C 30.617,109.046 25,107.187 25,105 c 0,-2.593 6.887,-4.785 16.995,-5.035 m 9.965,0.079 C 61.586,100.405 65,102.493 65,105 c 0,2.01 -4.744,3.743 -11.586,4.537"
           class="stroke-green fill-green"
           style="display:inline;fill:none;stroke:#2ecc40;stroke-width:0.264999;stroke-opacity:1"
           transform="matrix(0.84826,0.11267,-0.13176,1.28581,103.262,-92.51)"
           id="path19" />
        <path
           d="m 24.997,145.19 c 1,0 1.003,0.81 2.003,1.81 m 1,1 c 1,1 1,2 2,2 m 0,-5 c -2,0 -3.063,5.185 -5.063,5.185"
           class="stroke-green fill-green"
           style="fill:none;fill-opacity:1;stroke:#2ecc40;stroke-width:0.264999;stroke-linecap:round;stroke-dasharray:none;stroke-opacity:1"
           transform="matrix(0.84826,0.11267,-0.13176,1.28581,119.339,-136.596)"
           id="path20" />
        <path
           d="m 25,145 c 1,0 1,1 2,2 m 1,1 c 1,1 1,2 2,2 m 0,-5 c -2,0 -3,5 -5,5"
           class="stroke-green fill-green"
           style="fill:none;fill-opacity:1;stroke:#2ecc40;stroke-width:0.264999;stroke-linecap:round;stroke-dasharray:none;stroke-opacity:1"
           transform="matrix(0.84826,0.11267,-0.13176,1.28581,127.822,-135.47)"
           id="path21" />
        <path
           d="m 25,145 c 1,0 1,1 2,2 m 1,1 c 1,1 1,2 2,2 m 0,-5 c -2,0 -3,5 -5,5"
           class="stroke-green fill-green"
           style="fill:none;fill-opacity:1;stroke:#2ecc40;stroke-width:0.264999;stroke-linecap:round;stroke-dasharray:none;stroke-opacity:1"
           transform="matrix(0.84826,0.11267,-0.13176,1.28581,123.58,-136.033)"
           id="path22" />
      </g>
    </g>
    <ellipse
       cx="176.767"
       cy="56.797001"
       class="stroke-teal fill-teal"
       rx="5.8140001"
       ry="5.9380002"
       style="fill:none;fill-opacity:0.766511;stroke:#616161;stroke-width:1.51559;stroke-miterlimit:3.6;stroke-dasharray:none;stroke-opacity:1"
       id="ellipse23" />
  </g>
</svg>
