<svg xmlns="http://www.w3.org/2000/svg" viewBox="0 0 91.64 61.147">
  <g style="display:inline">
    <g style="display:inline">
      <path d="M24.997 145.19c1 0 1.003.81 2.003 1.81l1 1c.694.694.906 1.387 1.305 1.747M30 145c-.16 0-.454.125-.596.178m-.943.76c-.262.268-.361.455-.508.66m-.894 1.735c-.6.946-1.352 1.852-2.122 1.852" class="stroke-blue fill-blue" style="fill:none;fill-opacity:1;stroke:#0074d9;stroke-width:.264999;stroke-linecap:round;stroke-dasharray:none;stroke-opacity:1" transform="matrix(.00368 .86603 1.66826 -.00708 -177.113 -8.862)"/>
      <path d="M25 145c1 0 1 1 2 2l1 1c1 1 .401 1.035 1.005 1.703M30 145a1.3 1.3 0 0 0-.635.173m-1.03 1.016c-.186.257-.27.314-.449.607m-.813 1.404c-.615.978-1.262 1.8-2.073 1.8" class="stroke-blue fill-blue" style="fill:none;fill-opacity:1;stroke:#0074d9;stroke-width:.264999;stroke-linecap:round;stroke-dasharray:none;stroke-opacity:1" transform="matrix(.00368 .86603 1.66826 -.00708 -177.076 -.202)"/>
      <path d="M25 145c1 0 1 1 2 2l1 1c1 1 1 2 2 2m0-5c-.821-.028-1.476.826-2.106 1.836m-.946 1.546c-.307.473-.625.898-.97 1.194" class="stroke-blue fill-blue" style="fill:none;fill-opacity:1;stroke:#0074d9;stroke-width:.264999;stroke-linecap:round;stroke-dasharray:none;stroke-opacity:1" transform="matrix(.00368 .86603 1.66826 -.00708 -177.095 -4.532)"/>
      <g style="display:inline">
        <path d="M25.06 144.418c1.063.12.94 1.582 1.94 2.582l.64.995c1 1 1 2 2 2m.061-4.995h-.003c-.834 0-1.362.795-1.906 1.703m-1.076 1.625c-.536.629-1.203 1.074-2.158 1.002" class="stroke-blue fill-blue" style="fill:none;fill-opacity:1;stroke:#0074d9;stroke-width:.264999;stroke-linecap:round;stroke-dasharray:none;stroke-opacity:1" transform="matrix(.00368 .86603 1.66826 -.00708 -176.813 -12.937)"/>
      </g>
      <path d="M73.909 151.65c-5.027-.909-8.299-2.387-8.299-4.056 0-.656.506-1.282 1.424-1.856l2.445-1.1c3.017-1.027 7.564-1.755 12.802-1.975" class="stroke-blue fill-blue" style="display:inline;fill:none;stroke:#0074d9;stroke-width:.264999;stroke-opacity:1" transform="matrix(.00368 .86603 1.66826 -.00708 -180.864 -55.66)"/>
      <path d="M74.411 146.738c-2.01-.34-3.76-.77-5.158-1.266m-1.952-.863c-1.087-.616-1.69-1.298-1.69-2.015 0-2.47 7.166-4.522 16.585-4.927m9.734 5.183c3.046.252 5.766.684 7.963 1.244m2.214.705 1.973.874c.986.591 1.53 1.24 1.53 1.921 0 1.917-4.315 3.582-10.649 4.421" class="stroke-blue fill-blue" style="display:inline;fill:none;stroke:#0074d9;stroke-width:.264999;stroke-opacity:1" transform="matrix(.00368 .86603 1.66826 -.00708 -180.864 -55.66)"/>
      <path d="M91.81 137.84c3.05.247 5.777.674 7.987 1.23m2.67.832c1.99.777 3.143 1.701 3.143 2.692 0 .735-.634 1.433-1.772 2.061m-1.797.823c-.139.047-.296.147-.441.193m-1.428.364c-1.72.451-3.859.83-6.148 1.097" class="stroke-blue fill-blue" style="display:inline;fill:none;stroke:#0074d9;stroke-width:.264999;stroke-opacity:1" transform="matrix(.00368 .86603 1.66826 -.00708 -180.864 -55.66)"/>
    </g>
    <g style="display:inline">
      <path d="M63.47 108.079q.356.213.632.435m.644.688q.252.39.254.798-.002.439-.293.857m-.881.835c-1.197.832-3.251 1.562-5.896 2.123m-4.919.768A74 74 0 0 1 45 115c-2.464 0-4.823-.111-7.002-.315m-5-.685a41 41 0 0 1-.59-.115m-1.341-.298a29 29 0 0 1-1.866-.514m-.625-.207c-.147-.052-.185-.079-.324-.132m-1.146-.498a8 8 0 0 1-.794-.451m-1.093-1.043A1.44 1.44 0 0 1 25 110m.265-.816c.237-.361.63-.71 1.159-1.04m2.445-1.1q.344-.117.714-.23m1.21-.333c1.07-.27 2.265-.51 3.56-.714m1.766-.248q.594-.074 1.21-.138m1.88-.168c1.22-.092 2.49-.156 3.797-.188m5.034.032c1.574.06 3.089.166 4.52.313m1.44.164a49 49 0 0 1 3.74.611m1.123.251c.842.203 1.614.423 2.304.66m-13.158-7c2.237.085 4.352.262 6.281.515m1.196.17c1.654.256 3.148.57 4.436.93m1.4.439c2.316.816 3.678 1.813 3.678 2.89 0 .703-.58 1.372-1.628 1.98m-1.187.58c-1.114.466-2.522.883-4.16 1.235m-5.029.79A74 74 0 0 1 45 110c-2.45 0-4.797-.11-6.966-.312m-5.04-.689c-1.573-.295-2.967-.648-4.131-1.045m-.937-.349C26.07 106.847 25 105.955 25 105c0-1.168 1.602-2.243 4.287-3.094m1.881-.518q.28-.066.57-.13m1.967-.385a54 54 0 0 1 3.054-.43m2.05-.199a75 75 0 0 1 4.197-.22" class="stroke-teal fill-teal" style="display:inline;fill:none;stroke:#39cccc;stroke-width:.264999;stroke-opacity:1" transform="translate(-22.204 -151.521)scale(1.66015)"/>
    </g>
    <g style="display:inline">
      <path d="M14.96 21.946c.049.03.16.089.207.118m.664.497c.47.425.658.844.658 1.307m-.656 1.275c-.324.308-.762.604-1.303.885m-1.232.564c-.979.347-2.586.816-3.879 1.09M4.5 28.45a70 70 0 0 1-4.789.353m-1.5.046a81 81 0 0 1-2.517.014m-1.891-.04a73 73 0 0 1-4.316-.27m-5.625-.808c-4.5-.917-7.373-2.313-7.373-3.877 0-.656.506-1.283 1.424-1.857m2.445-1.1a26 26 0 0 1 2.18-.626m9.638-1.254c.17.04.548.154.79.241m6.563-.347c1.68.064 3.292.18 4.808.342m1.917.236a47 47 0 0 1 3.11.538m1.335.308q1.064.268 1.957.575" style="display:inline;fill:none;stroke:#b10dc9;stroke-width:.264999;stroke-opacity:1" transform="matrix(-.1383 1.2102 -1.75425 -.0954 65.319 39.938)"/>
      <path d="M.091 13.932c3.003.113 5.728.393 8.057.8m1.512.293q.906.196 1.706.418m1.944.639c2.028.795 3.18 1.753 3.18 2.786 0 .62-.452 1.212-1.276 1.76m-1.26.678c-1.154.515-2.661.974-4.44 1.356m-5.029.79a71 71 0 0 1-4.71.354m-1.504.047a71 71 0 0 1-1.782.015m-1.782-.026a78 78 0 0 1-5.184-.286m-5.04-.689c-4.854-.912-7.994-2.364-7.994-4 0-1.354 2.165-2.586 5.68-3.488m9.688-1.377c.86-.05.708.36 1.606.337" style="display:inline;fill:none;stroke:#b10dc9;stroke-width:.264999;stroke-opacity:1" transform="matrix(-.1383 1.2102 -1.75425 -.0954 65.319 39.938)"/>
      <g style="display:inline">
        <path d="M25.05 144.527c1 0 .95 1.473 1.95 2.473m1 1c1 1 1.117 2.019 2.117 2.019m-1.084-4.612c-.41.324-.783.816-1.147 1.349m-1.025 1.504c-.538.717-1.112 1.267-1.811 1.267" style="fill:none;fill-opacity:1;stroke:#b10dc9;stroke-width:.264999;stroke-linecap:round;stroke-dasharray:none;stroke-opacity:1" transform="matrix(-.1383 1.2102 1.75425 .0954 -217.125 -22.014)"/>
      </g>
      <g style="display:inline">
        <path d="M25.72 144.202c.973.24.28 1.798 1.28 2.798l1 1c1 1 1 2 2 2m0-5q-.201 0-.387.058m-.917.621c-.288.3-.556.673-.815 1.061m-1.055 1.55c-.459.578-.94.955-1.51.81" style="fill:none;fill-opacity:1;stroke:#b10dc9;stroke-width:.264999;stroke-linecap:round;stroke-dasharray:none;stroke-opacity:1" transform="matrix(-.1383 1.2102 1.75425 .0954 -217.269 -28.05)"/>
      </g>
    </g>
    <g style="display:inline">
      <path d="M38.381 114.72C30.588 114.037 25 112.182 25 110c0-.656.505-1.283 1.424-1.857m37.046-.064c.986.591 1.53 1.24 1.53 1.921 0 2.009-4.738 3.74-11.573 4.536m-24.558-7.492c3.266-1.112 8.326-1.874 14.114-2.019m7.453.162c4.365.307 8.125.976 10.731 1.869" class="stroke-orange fill-orange" style="display:inline;fill:none;stroke:#ff851b;stroke-width:.264999;stroke-opacity:1" transform="matrix(-.0705 -1.0989 1.72903 -.0448 -104.238 89.339)"/>
      <path d="M38.442 109.725C30.617 109.046 25 107.187 25 105c0-2.505 7.37-4.58 16.986-4.944m7.588.075C58.415 100.648 65 102.632 65 105c0 2.01-4.744 3.743-11.586 4.537" class="stroke-orange fill-orange" style="display:inline;fill:none;stroke:#ff851b;stroke-width:.264999;stroke-opacity:1" transform="matrix(-.0705 -1.0989 1.72903 -.0448 -104.238 89.339)"/>
      <path d="M24.997 145.19c1 0 1.003.81 2.003 1.81m1 1c1 1 1 2 2 2m0-5c-2 0-3.063 5.185-5.063 5.185" class="stroke-orange fill-orange" style="fill:none;fill-opacity:1;stroke:#ff851b;stroke-width:.264999;stroke-linecap:round;stroke-dasharray:none;stroke-opacity:1" transform="matrix(-.0705 -1.0989 1.72903 -.0448 -166.506 76.154)"/>
      <path d="M25 145c1 0 1 1 2 2m1 1c1 1 1 2 2 2m0-5c-2 0-3 5-5 5" class="stroke-orange fill-orange" style="fill:none;fill-opacity:1;stroke:#ff851b;stroke-width:.264999;stroke-linecap:round;stroke-dasharray:none;stroke-opacity:1" transform="matrix(-.0705 -1.0989 1.72903 -.0448 -167.21 65.165)"/>
      <path d="M25 145c1 0 1 1 2 2m1 1c1 1 1 2 2 2m0-5c-2 0-3 5-5 5" class="stroke-orange fill-orange" style="fill:none;fill-opacity:1;stroke:#ff851b;stroke-width:.264999;stroke-linecap:round;stroke-dasharray:none;stroke-opacity:1" transform="matrix(-.0705 -1.0989 1.72903 -.0448 -166.858 70.66)"/>
    </g>
    <g style="display:inline">
      <path d="M38.381 114.72C30.588 114.037 25 112.182 25 110c0-.656.505-1.283 1.424-1.857m37.046-.064c.986.591 1.53 1.24 1.53 1.921 0 2.009-4.738 3.74-11.573 4.536m-24.558-7.492c3.266-1.112 6.486-1.733 12.274-1.878m9.213-.192c5.378.205 7.974.812 11.045 1.864" style="display:inline;fill:none;stroke:#ff4136;stroke-width:.264999;stroke-opacity:1" transform="matrix(.95329 .08784 .005 1.19422 -24.232 -80.486)"/>
      <path d="M38.442 109.725C30.617 109.046 25 107.187 25 105c0-2.593 5.34-4.641 15.447-4.892m9.069-.256C59.142 100.214 65 102.492 65 105c0 2.01-4.744 3.743-11.586 4.537" style="display:inline;fill:none;stroke:#ff4136;stroke-width:.264999;stroke-opacity:1" transform="matrix(.95329 .08784 .005 1.19422 -24.232 -80.486)"/>
      <path d="M24.937 145c1 0 1.063 1 2.063 2m1 1c1 1 1 2 2 2m0-5c-2 0-3.003 4.995-5.003 4.995" style="fill:none;fill-opacity:1;stroke:#ff4136;stroke-width:.264999;stroke-linecap:round;stroke-dasharray:none;stroke-opacity:1" transform="matrix(.95329 .08784 -.005 -1.19422 -10.115 230.858)"/>
      <path d="M25 145c1 0 1 1 2 2m1 1c1 1 .97 2.182 1.97 2.182m.03-4.997c-2 0-3 4.815-5 4.815" style="fill:none;fill-opacity:1;stroke:#ff4136;stroke-width:.264999;stroke-linecap:round;stroke-dasharray:none;stroke-opacity:1" transform="matrix(.95329 .08784 -.005 -1.19422 -.582 231.736)"/>
      <path d="M25 145c1 0 1 1 2 2m1 1c1 1 1 2 2 2m0-5c-2 0-3 5-5 5" style="fill:none;fill-opacity:1;stroke:#ff4136;stroke-width:.264999;stroke-linecap:round;stroke-dasharray:none;stroke-opacity:1" transform="matrix(.95329 .08784 -.005 -1.19422 -5.348 231.297)"/>
    </g>
    <g style="display:inline">
      <path d="M38.381 114.72C30.588 114.037 25 112.182 25 110c0-.656.505-1.283 1.424-1.857m37.046-.064c.986.591 1.53 1.24 1.53 1.921 0 2.009-4.738 3.74-11.573 4.536m-24.558-7.492c3.266-1.112 5.618-1.626 11.406-1.771m10.064-.405c5.38.205 8.04.91 11.11 1.961" class="stroke-green fill-green" style="display:inline;fill:none;stroke:#2ecc40;stroke-width:.264999;stroke-opacity:1" transform="matrix(.84826 .11267 -.13176 1.28581 -3.533 -115.506)"/>
      <path d="M38.442 109.725C30.617 109.046 25 107.187 25 105c0-2.593 6.887-4.785 16.995-5.035m9.965.079C61.586 100.405 65 102.493 65 105c0 2.01-4.744 3.743-11.586 4.537" class="stroke-green fill-green" style="display:inline;fill:none;stroke:#2ecc40;stroke-width:.264999;stroke-opacity:1" transform="matrix(.84826 .11267 -.13176 1.28581 -3.533 -115.506)"/>
      <path d="M24.997 145.19c1 0 1.003.81 2.003 1.81m1 1c1 1 1 2 2 2m0-5c-2 0-3.063 5.185-5.063 5.185" class="stroke-green fill-green" style="fill:none;fill-opacity:1;stroke:#2ecc40;stroke-width:.264999;stroke-linecap:round;stroke-dasharray:none;stroke-opacity:1" transform="matrix(.84826 .11267 -.13176 1.28581 12.545 -159.593)"/>
      <path d="M25 145c1 0 1 1 2 2m1 1c1 1 1 2 2 2m0-5c-2 0-3 5-5 5" class="stroke-green fill-green" style="fill:none;fill-opacity:1;stroke:#2ecc40;stroke-width:.264999;stroke-linecap:round;stroke-dasharray:none;stroke-opacity:1" transform="matrix(.84826 .11267 -.13176 1.28581 21.027 -158.466)"/>
      <path d="M25 145c1 0 1 1 2 2m1 1c1 1 1 2 2 2m0-5c-2 0-3 5-5 5" class="stroke-green fill-green" style="fill:none;fill-opacity:1;stroke:#2ecc40;stroke-width:.264999;stroke-linecap:round;stroke-dasharray:none;stroke-opacity:1" transform="matrix(.84826 .11267 -.13176 1.28581 16.786 -159.03)"/>
    </g>
  </g>
</svg>
