<?xml version="1.0" encoding="UTF-8" standalone="no"?>
<svg
   viewBox="0 0 14.568 11.894"
   version="1.1"
   id="svg12"
   sodipodi:docname="bnd_sum_patch.svg"
   inkscape:version="1.4.2 (ebf0e940d0, 2025-05-08)"
   xmlns:inkscape="http://www.inkscape.org/namespaces/inkscape"
   xmlns:sodipodi="http://sodipodi.sourceforge.net/DTD/sodipodi-0.dtd"
   xmlns="http://www.w3.org/2000/svg"
   xmlns:svg="http://www.w3.org/2000/svg">
  <sodipodi:namedview
     id="namedview12"
     pagecolor="#ffffff"
     bordercolor="#000000"
     borderopacity="0.25"
     inkscape:showpageshadow="2"
     inkscape:pageopacity="0.0"
     inkscape:pagecheckerboard="0"
     inkscape:deskcolor="#d1d1d1"
     inkscape:zoom="128"
     inkscape:cx="8.0351562"
     inkscape:cy="6.8320312"
     inkscape:window-width="1918"
     inkscape:window-height="2158"
     inkscape:window-x="0"
     inkscape:window-y="0"
     inkscape:window-maximized="1"
     inkscape:current-layer="g11" />
  <defs
     id="defs2">
    <marker
       id="b"
       markerHeight="1"
       markerWidth="1"
       orient="auto-start-reverse"
       preserveAspectRatio="xMidYMid"
       refX="0"
       refY="0"
       style="overflow:visible"
       viewBox="0 0 1 1">
      <path
         d="M3-3 0 0l3 3"
         style="fill:none;stroke:context-stroke;stroke-width:1;stroke-linecap:round"
         transform="rotate(180 .125 0)"
         id="path1" />
    </marker>
    <marker
       id="a"
       markerHeight="1"
       markerWidth="1"
       orient="auto-start-reverse"
       preserveAspectRatio="xMidYMid"
       refX="0"
       refY="0"
       style="overflow:visible"
       viewBox="0 0 1 1">
      <path
         d="m5.77 0-8.65 5V-5Z"
         style="fill:context-stroke;fill-rule:evenodd;stroke:context-stroke;stroke-width:1pt"
         transform="scale(.5)"
         id="path2" />
    </marker>
  </defs>
  <g
     style="display:inline"
     id="g12">
    <g
       style="display:inline"
       id="g4">
      <path
         d="M46.365 114.992c1.403-.05 2.242-.01 4.298-.203l-.348-4.943c-1.346.082-2.096.08-3.72.114m-5.057-.04c-8.235-.318-.723.005-4.895-.373l-.512 4.98c2.93.164 3.307.275 5.243.39"
         class="stroke-green fill-green"
         style="display:inline;fill:#2ecc40;fill-opacity:.331667;stroke:none;stroke-width:.264999;stroke-dasharray:none;stroke-opacity:1"
         transform="translate(-36.118 -106.336)"
         id="path3" />
      <path
         d="M41.356 114.917a68 68 0 0 1-5.222-.434m14.542.309a75 75 0 0 1-4.31.197m4.005-5.168a74 74 0 0 1-3.774.163m-5.064-.059a69 69 0 0 1-4.9-.382"
         class="stroke-green fill-green"
         style="display:inline;fill:none;stroke:#2ecc40;stroke-width:.264999;stroke-opacity:1"
         transform="translate(-36.118 -106.336)"
         id="path4" />
    </g>
    <g
       style="display:inline"
       id="g11">
      <path
         d="M42.076 100.046c-2.35.13-2.624.204-3.193.176l-.115 5.028c.824-.193 2.704-.234 3.187-.249m4.997-.017c1.382.04 1.633.068 3.431.222l.305-4.98c-1.26-.13-2.674-.164-3.59-.19"
         class="stroke-teal fill-teal"
         style="display:inline;fill:#39cccc;fill-opacity:.766511;stroke:none;stroke-width:.264999;stroke-dasharray:none;stroke-opacity:1"
         transform="scale(1 -1)rotate(88.072 82.372 29.245)"
         id="path5" />
      <path
         d="M38.731 105.25a73 73 0 0 1 3.202-.192m5.059-.032c1.17.03 2.313.085 3.419.163m-3.306-5.162c1.241.033 2.449.094 3.612.18m-11.881.035a74 74 0 0 1 3.22-.188"
         class="stroke-teal fill-teal"
         style="display:inline;fill:none;stroke:#39cccc;stroke-width:.264999;stroke-opacity:1"
         transform="scale(1 -1)rotate(88.072 82.372 29.245)"
         id="path6" />
      <path
         d="M42.075 100.077c2.384-.019 2.745-.128 5.04-.085-.135 1.711-.117 3.35-.14 5.029-2.422-.004-2.698-.01-5.04.02.069-1.684.06-3.3.149-5.014z"
         class="stroke-comment fill-comment stroke-comment"
         style="display:inline;fill:#616161;fill-opacity:.333333;stroke:#616161;stroke-width:.0649999;stroke-dasharray:none;stroke-opacity:1"
         transform="scale(1 -1)rotate(88.072 82.372 29.245)"
         id="path7" />
      <g
         id="g13">
        <path
           d="M 7.8245965,8.2749934 7.8882946,4.4802076"
           class="stroke-comment fill-comment"
           style="display:inline;fill:#616161;fill-opacity:0.333333;stroke:#ff4136;stroke-width:0.222;stroke-dasharray:none;stroke-opacity:1;marker-end:url(#a)"
           id="path8" />
        <path
           d="m 5.8323339,6.1621109 3.7947859,0.062343"
           class="stroke-orange fill-orange"
           style="display:inline;fill:none;fill-opacity:0.333333;stroke:#0074d9;stroke-width:0.222;stroke-miterlimit:3.9;stroke-dasharray:none;stroke-opacity:1;marker-end:url(#b);paint-order:normal"
           id="path9" />
        <path
           d="m 5.7767838,6.1544381 3.796089,0.065408"
           class="stroke-comment fill-comment"
           style="display:inline;fill:#616161;fill-opacity:0.333333;stroke:#ff4136;stroke-width:0.0880931;stroke-dasharray:none;stroke-opacity:1;marker-end:url(#a)"
           id="path10" />
        <path
           d="M 7.8230856,8.2171477 7.8884482,4.4224128"
           class="stroke-orange fill-orange"
           style="display:inline;fill:none;fill-opacity:0.333333;stroke:#0074d9;stroke-width:0.0880931;stroke-miterlimit:3.9;stroke-dasharray:none;stroke-opacity:1;marker-end:url(#b);paint-order:normal"
           id="path11" />
      </g>
    </g>
  </g>
</svg>
