<svg xmlns="http://www.w3.org/2000/svg" viewBox="0 0 41 16">
  <defs>
    <marker id="b" markerHeight="1" markerWidth="1" orient="auto-start-reverse" preserveAspectRatio="xMidYMid" refX="0" refY="0" style="overflow:visible" viewBox="0 0 1 1" class="">
      <path d="M3-3 0 0l3 3" style="fill:none;stroke:context-stroke;stroke-width:1;stroke-linecap:round" transform="rotate(180 .125 0)" class=""/>
    </marker>
    <marker id="a" markerHeight="1" markerWidth="1" orient="auto-start-reverse" preserveAspectRatio="xMidYMid" refX="0" refY="0" style="overflow:visible" viewBox="0 0 1 1" class="">
      <path d="m5.77 0-8.65 5V-5Z" style="fill:context-stroke;fill-rule:evenodd;stroke:context-stroke;stroke-width:1pt" transform="scale(.5)" class=""/>
    </marker>
  </defs>
  <g style="display:inline" class="">
    <path d="M25 105v5c1 6.664 39.39 6.671 40 0v-5c-.659 6.273-38 7-40 0" class="" style="display:inline;fill:#39cccc;fill-opacity:.333333;stroke:none;stroke-width:.264999;stroke-dasharray:none;stroke-opacity:1" transform="translate(-24.868 -99.867)"/>
    <path d="M25 105v5c1.684-6.934 38.497-6.526 40 0v-5c-.716-6.316-38-7-40 0" class="" style="display:inline;fill:#39cccc;fill-opacity:.333333;stroke:none;stroke-width:.264999;stroke-dasharray:none;stroke-opacity:1" transform="translate(-24.868 -99.867)"/>
    <path d="M63.47 108.079c.986.591 1.53 1.24 1.53 1.921 0 2.761-8.954 5-20 5s-20-2.239-20-5c0-.656.505-1.283 1.424-1.857m2.445-1.099C32.509 105.804 38.379 105 45 105c6.643 0 12.53.81 16.167 2.056" class="" style="display:inline;fill:none;stroke:#39cccc;stroke-width:.264999;stroke-opacity:1" transform="translate(-24.868 -99.867)"/>
    <path d="M65 105a20 5 0 0 1-20 5 20 5 0 0 1-20-5 20 5 0 0 1 20-5 20 5 0 0 1 20 5z" class="" style="display:inline;fill:none;stroke:#39cccc;stroke-width:.264999;stroke-opacity:1" transform="translate(-24.868 -99.867)"/>
    <path d="M25 105v5m40-5v5" class="" style="display:inline;fill:none;fill-opacity:1;stroke:#39cccc;stroke-width:.264999;stroke-dasharray:none;stroke-opacity:1" transform="translate(-24.868 -99.867)"/>
    <path d="M41.21 100.079c2.363-.138 4.7-.139 7.012-.029l-.03 5.033a61 61 0 0 0-7.133.039z" class="" style="fill:#aaa;fill-opacity:.333333;stroke:#aaa;stroke-width:.0649999;stroke-dasharray:none;stroke-opacity:1" transform="translate(-24.868 -99.867)"/>
    <path d="m76.26-18.69.046-2.801" class="" style="fill:#aaa;fill-opacity:.333333;stroke:#ff4136;stroke-width:.0649999;stroke-dasharray:none;stroke-opacity:1;marker-end:url(#a)" transform="translate(-56.655 22.878)"/>
    <path d="m45.864 102.537-2.8-.036" class="" style="fill:none;fill-opacity:.333333;stroke:#ff851b;stroke-width:.0649999;stroke-miterlimit:3.9;stroke-dasharray:none;stroke-opacity:1;marker-end:url(#b);paint-order:normal" transform="translate(-24.868 -99.867)"/>
  </g>
</svg>
