<svg xmlns="http://www.w3.org/2000/svg" viewBox="0 0 41 16"><defs><marker id="b" markerHeight="1" markerWidth="1" orient="auto-start-reverse" preserveAspectRatio="xMidYMid" refX="0" refY="0" style="overflow:visible" viewBox="0 0 1 1"><path d="M3-3 0 0l3 3" style="fill:none;stroke:context-stroke;stroke-width:1;stroke-linecap:round" transform="rotate(180 .125 0)"/></marker><marker id="a" markerHeight="1" markerWidth="1" orient="auto-start-reverse" preserveAspectRatio="xMidYMid" refX="0" refY="0" style="overflow:visible" viewBox="0 0 1 1"><path d="m5.77 0-8.65 5V-5Z" style="fill:context-stroke;fill-rule:evenodd;stroke:context-stroke;stroke-width:1pt" transform="scale(.5)"/></marker></defs><g style="display:inline"><path d="M25 105v5c1 6.664 39.39 6.671 40 0v-5c-.659 6.273-38 7-40 0" class="stroke-green fill-green" style="display:inline;fill:#2ecc40;fill-opacity:.331667;stroke:none;stroke-width:.264999;stroke-dasharray:none;stroke-opacity:1" transform="translate(-24.867 -99.867)"/><path d="M25 105v5c1.684-6.934 38.497-6.526 40 0v-5c-.716-6.316-38-7-40 0" class="stroke-green fill-green" style="display:inline;fill:#2ecc40;fill-opacity:.331667;stroke:none;stroke-width:.264999;stroke-dasharray:none;stroke-opacity:1" transform="translate(-24.867 -99.867)"/><path d="M63.47 108.079c.986.591 1.53 1.24 1.53 1.921 0 2.761-8.954 5-20 5s-20-2.239-20-5c0-.656.505-1.283 1.424-1.857m2.445-1.099C32.509 105.804 38.379 105 45 105c6.643 0 12.53.81 16.167 2.056" class="stroke-green fill-green" style="display:inline;fill:none;stroke:#2ecc40;stroke-width:.264999;stroke-opacity:1" transform="translate(-24.867 -99.867)"/><path d="M65 105a20 5 0 0 1-20 5 20 5 0 0 1-20-5 20 5 0 0 1 20-5 20 5 0 0 1 20 5z" class="stroke-green fill-green" style="display:inline;fill:none;stroke:#2ecc40;stroke-width:.264999;stroke-opacity:1" transform="translate(-24.867 -99.867)"/><path d="M25 105v5m40-5v5" class="stroke-green fill-green" style="display:inline;fill:none;fill-opacity:1;stroke:#2ecc40;stroke-width:.264999;stroke-dasharray:none;stroke-opacity:1" transform="translate(-24.867 -99.867)"/><path d="M40.702 109.868c2.452.181 4.56.143 7.019.09l-.05 5.018c-2.602.064-4.812.026-7.123-.069z" class="stroke-comment fill-comment stroke-comment" style="fill:#aaa;fill-opacity:.333333;stroke:#aaa;stroke-width:.0649999;stroke-dasharray:none;stroke-opacity:1" transform="translate(-24.867 -99.867)"/><path d="m43.958 114.018.047-2.8" class="stroke-comment fill-comment" style="fill:#aaa;fill-opacity:.333333;stroke:#ff4136;stroke-width:.0649999;stroke-dasharray:none;stroke-opacity:1;marker-end:url(#a)" transform="translate(-24.867 -99.867)"/><path d="m42.488 112.459 2.8.046" class="stroke-orange fill-orange" style="fill:none;fill-opacity:.333333;stroke:#ff851b;stroke-width:.0649999;stroke-miterlimit:3.9;stroke-dasharray:none;stroke-opacity:1;marker-end:url(#b);paint-order:normal" transform="translate(-24.867 -99.867)"/></g></svg>