<svg xmlns="http://www.w3.org/2000/svg" viewBox="0 0 40.265 40.412"><defs><marker id="b" markerHeight="1" markerWidth="1" orient="auto-start-reverse" preserveAspectRatio="xMidYMid" refX="0" refY="0" style="overflow:visible" viewBox="0 0 1 1"><path d="M3-3 0 0l3 3" style="fill:none;stroke:context-stroke;stroke-width:1;stroke-linecap:round" transform="rotate(180 .125 0)"/></marker><marker id="a" markerHeight="1" markerWidth="1" orient="auto-start-reverse" preserveAspectRatio="xMidYMid" refX="0" refY="0" style="overflow:visible" viewBox="0 0 1 1"><path d="m5.77 0-8.65 5V-5Z" style="fill:context-stroke;fill-rule:evenodd;stroke:context-stroke;stroke-width:1pt" transform="scale(.5)"/></marker></defs><g style="display:inline"><g style="display:inline"><path d="M46.365 114.992C55.738 114.86 64.708 113.197 65 110v-5c-.317 3.018-9.127 4.753-18.406 4.96m-5.056-.04c-8.235-.318-15.675-1.9-16.538-4.92v5c.436 2.902 7.963 4.542 16.374 4.917" class="stroke-green fill-green" style="display:inline;fill:#2ecc40;fill-opacity:.331667;stroke:none;stroke-width:.264999;stroke-dasharray:none;stroke-opacity:1" transform="translate(-24.867 -91.604)"/><path d="M25 105v5c1.684-6.934 38.497-6.526 40 0v-5c-.716-6.316-38-7-40 0" class="stroke-green fill-green" style="display:inline;fill:#2ecc40;fill-opacity:.331667;stroke:none;stroke-width:.264999;stroke-dasharray:none;stroke-opacity:1" transform="translate(-24.867 -91.604)"/><path d="M63.47 108.079c.986.591 1.53 1.24 1.53 1.921 0 2.647-8.225 4.813-18.634 4.989m-5.01-.072C32.05 114.49 25 112.45 25 110c0-.656.505-1.283 1.424-1.857m2.445-1.099C32.509 105.804 38.379 105 45 105c6.643 0 12.53.81 16.167 2.056" class="stroke-green fill-green" style="display:inline;fill:none;stroke:#2ecc40;stroke-width:.264999;stroke-opacity:1" transform="translate(-24.867 -91.604)"/><path d="M41.533 109.925C32.14 109.515 25 107.465 25 105c0-2.761 8.954-5 20-5s20 2.239 20 5c0 2.627-8.104 4.78-18.403 4.984" class="stroke-green fill-green" style="display:inline;fill:none;stroke:#2ecc40;stroke-width:.264999;stroke-opacity:1" transform="translate(-24.867 -91.604)"/><path d="M25 105v5m40-5v5" class="stroke-green fill-green" style="display:inline;fill:none;fill-opacity:1;stroke:#2ecc40;stroke-width:.264999;stroke-dasharray:none;stroke-opacity:1" transform="translate(-24.867 -91.604)"/></g><g style="display:inline"><path d="M25 105v5c1 6.664 39.39 6.671 40 0v-5c-.659 6.273-38 7-40 0" class="stroke-teal fill-teal" style="display:inline;fill:#39cccc;fill-opacity:.766511;stroke:none;stroke-width:.264999;stroke-dasharray:none;stroke-opacity:1" transform="scale(1 -1)rotate(88.072 95.615 27.697)"/><path d="M42.076 100.046C33.63 100.32 25.882 101.912 25 105v5c.757-3.117 8.4-4.738 16.955-4.999m4.997-.017c8.934.253 17.346 1.967 18.048 5.016v-5c-.338-2.982-8.825-4.708-17.903-4.964" class="stroke-teal fill-teal" style="display:inline;fill:#39cccc;fill-opacity:.766511;stroke:none;stroke-width:.264999;stroke-dasharray:none;stroke-opacity:1" transform="scale(1 -1)rotate(88.072 95.615 27.697)"/><path d="M63.47 108.079c.986.591 1.53 1.24 1.53 1.921 0 2.761-8.954 5-20 5s-20-2.239-20-5c0-.656.505-1.283 1.424-1.857m2.445-1.099c3.067-1.044 7.716-1.78 13.064-1.986m5.059-.032c5.799.147 10.915.913 14.175 2.03" class="stroke-teal fill-teal" style="display:inline;fill:none;stroke:#39cccc;stroke-width:.264999;stroke-opacity:1" transform="scale(1 -1)rotate(88.072 95.615 27.697)"/><path d="M47.105 100.027C57.16 100.29 65 102.417 65 105c0 2.761-8.954 5-20 5s-20-2.239-20-5c0-2.511 7.406-4.59 17.057-4.946" class="stroke-teal fill-teal" style="display:inline;fill:none;stroke:#39cccc;stroke-width:.264999;stroke-opacity:1" transform="scale(1 -1)rotate(88.072 95.615 27.697)"/><path d="M25 105v5m40-5v5" class="stroke-teal fill-teal" style="display:inline;fill:none;fill-opacity:1;stroke:#39cccc;stroke-width:.264999;stroke-dasharray:none;stroke-opacity:1" transform="scale(1 -1)rotate(88.072 95.615 27.697)"/><path d="M42.075 100.077c2.384-.019 2.745-.128 5.04-.085-.135 1.711-.117 3.35-.14 5.029-2.422-.004-2.698-.01-5.04.02.069-1.684.06-3.3.149-5.014z" class="stroke-comment fill-comment stroke-comment" style="display:inline;fill:#aaa;fill-opacity:.333333;stroke:#aaa;stroke-width:.0649999;stroke-dasharray:none;stroke-opacity:1" transform="scale(1 -1)rotate(88.072 95.615 27.697)"/><path d="m43.958 114.018.047-2.8" class="stroke-comment fill-comment" style="display:inline;fill:#aaa;fill-opacity:.333333;stroke:#ff4136;stroke-width:.09;stroke-dasharray:none;stroke-opacity:1;marker-end:url(#a)" transform="translate(-24.868 -91.604)"/><path d="m42.488 112.459 2.8.046" class="stroke-orange fill-orange" style="display:inline;fill:none;fill-opacity:.333333;stroke:#ff851b;stroke-width:.09;stroke-miterlimit:3.9;stroke-dasharray:none;stroke-opacity:1;marker-end:url(#b);paint-order:normal" transform="translate(-24.868 -91.604)"/><path d="m76.26-18.69.046-2.801" class="stroke-comment fill-comment" style="display:inline;fill:#aaa;fill-opacity:.333333;stroke:#ff4136;stroke-width:.0649999;stroke-dasharray:none;stroke-opacity:1;marker-end:url(#a)" transform="scale(1 -1)rotate(88.072 48.036 -50.114)"/><path d="m43.001 102.495 2.8.046" class="stroke-orange fill-orange" style="display:inline;fill:none;fill-opacity:.333333;stroke:#ff851b;stroke-width:.0649999;stroke-miterlimit:3.9;stroke-dasharray:none;stroke-opacity:1;marker-end:url(#b);paint-order:normal" transform="scale(1 -1)rotate(88.072 95.615 27.697)"/></g></g></svg>