<svg xmlns="http://www.w3.org/2000/svg" viewBox="0 0 14.568 11.894">
  <defs>
    <marker id="b" markerHeight="1" markerWidth="1" orient="auto-start-reverse" preserveAspectRatio="xMidYMid" refX="0" refY="0" style="overflow:visible" viewBox="0 0 1 1" class="">
      <path d="M3-3 0 0l3 3" style="fill:none;stroke:context-stroke;stroke-width:1;stroke-linecap:round" transform="rotate(180 .125 0)" class=""/>
    </marker>
    <marker id="a" markerHeight="1" markerWidth="1" orient="auto-start-reverse" preserveAspectRatio="xMidYMid" refX="0" refY="0" style="overflow:visible" viewBox="0 0 1 1" class="">
      <path d="m5.77 0-8.65 5V-5Z" style="fill:context-stroke;fill-rule:evenodd;stroke:context-stroke;stroke-width:1pt" transform="scale(.5)" class=""/>
    </marker>
  </defs>
  <g style="display:inline" class="">
    <g style="display:inline" class="">
      <path d="M46.365 114.992c1.403-.05 2.242-.01 4.298-.203l-.348-4.943c-1.346.082-2.096.08-3.72.114m-5.057-.04c-8.235-.318-.723.005-4.895-.373l-.512 4.98c2.93.164 3.307.275 5.243.39" class="" style="display:inline;fill:#2ecc40;fill-opacity:.331667;stroke:none;stroke-width:.264999;stroke-dasharray:none;stroke-opacity:1" transform="translate(-36.118 -106.336)"/>
      <path d="M41.356 114.917a68 68 0 0 1-5.222-.434m14.542.309a75 75 0 0 1-4.31.197m4.005-5.168a74 74 0 0 1-3.774.163m-5.064-.059a69 69 0 0 1-4.9-.382" class="" style="display:inline;fill:none;stroke:#2ecc40;stroke-width:.264999;stroke-opacity:1" transform="translate(-36.118 -106.336)"/>
    </g>
    <g style="display:inline" class="">
      <path d="M42.076 100.046c-2.35.13-2.624.204-3.193.176l-.115 5.028c.824-.193 2.704-.234 3.187-.249m4.997-.017c1.382.04 1.633.068 3.431.222l.305-4.98c-1.26-.13-2.674-.164-3.59-.19" class="" style="display:inline;fill:#39cccc;fill-opacity:.766511;stroke:none;stroke-width:.264999;stroke-dasharray:none;stroke-opacity:1" transform="scale(1 -1)rotate(88.072 82.372 29.245)"/>
      <path d="M38.731 105.25a73 73 0 0 1 3.202-.192m5.059-.032c1.17.03 2.313.085 3.419.163m-3.306-5.162c1.241.033 2.449.094 3.612.18m-11.881.035a74 74 0 0 1 3.22-.188" class="" style="display:inline;fill:none;stroke:#39cccc;stroke-width:.264999;stroke-opacity:1" transform="scale(1 -1)rotate(88.072 82.372 29.245)"/>
      <path d="M42.075 100.077c2.384-.019 2.745-.128 5.04-.085-.135 1.711-.117 3.35-.14 5.029-2.422-.004-2.698-.01-5.04.02.069-1.684.06-3.3.149-5.014z" class="" style="display:inline;fill:#aaa;fill-opacity:.333333;stroke:#aaa;stroke-width:.0649999;stroke-dasharray:none;stroke-opacity:1" transform="scale(1 -1)rotate(88.072 82.372 29.245)"/>
      <path d="m43.958 114.018.047-2.8" class="" style="display:inline;fill:#aaa;fill-opacity:.333333;stroke:#ff4136;stroke-width:.09;stroke-dasharray:none;stroke-opacity:1;marker-end:url(#a)" transform="translate(-36.118 -106.336)"/>
      <path d="m42.488 112.459 2.8.046" class="" style="display:inline;fill:none;fill-opacity:.333333;stroke:#ff851b;stroke-width:.09;stroke-miterlimit:3.9;stroke-dasharray:none;stroke-opacity:1;marker-end:url(#b);paint-order:normal" transform="translate(-36.118 -106.336)"/>
      <path d="m76.26-18.69.046-2.801" class="" style="display:inline;fill:#aaa;fill-opacity:.333333;stroke:#ff4136;stroke-width:.0649999;stroke-dasharray:none;stroke-opacity:1;marker-end:url(#a)" transform="scale(1 -1)rotate(88.072 34.793 -48.566)"/>
      <path d="m43.001 102.495 2.8.046" class="" style="display:inline;fill:none;fill-opacity:.333333;stroke:#ff851b;stroke-width:.0649999;stroke-miterlimit:3.9;stroke-dasharray:none;stroke-opacity:1;marker-end:url(#b);paint-order:normal" transform="scale(1 -1)rotate(88.072 82.372 29.245)"/>
    </g>
  </g>
</svg>
