<svg xmlns="http://www.w3.org/2000/svg" xml:space="preserve" viewBox="0 0 625.575 202.826">
  <path d="M321.13 32.117c-11.739 12.34-3.988 19.539-18.248 33.799l-9.773 9.772c-3.26 3.257-6.515 6.516-9.774 9.774m39.5 34.585c-16.823-17.579-7.557-20.947-19.953-34.586a82 82 0 0 0-1.512-1.617M284.9 67.48l-1.565-1.565m0 .002q-4.888-4.885-9.774 0l-9.772 9.772q-4.889 4.886-9.774 9.774m29.32 0q-4.888 4.884-9.774 0l-1.564-1.565M255.58 67.48l-1.565-1.564" style="display:inline;fill:none;stroke:#ff851b;stroke-width:5.80411;stroke-linecap:round;stroke-linejoin:miter;stroke-miterlimit:10;stroke-dasharray:none;stroke-opacity:1" transform="translate(24.881 25.724)"/>
  <path d="m135.514 51.254 9.772 9.773 9.774 9.775q4.884 4.888-.001 9.774l-1.565 1.565m-16.417 16.417-1.565 1.565m19.548-48.869-1.565 1.565m-16.417 16.417-1.565 1.566q-4.886 4.888 0 9.774l9.772 9.773q4.887 4.889 9.775 9.774" style="display:inline;fill:none;stroke:#ff851b;stroke-width:5.80428;stroke-linecap:round;stroke-linejoin:miter;stroke-miterlimit:10;stroke-dasharray:none;stroke-opacity:1" transform="translate(24.881 25.724)"/>
  <path d="m-34.892 121.807-1.528 1.528m-16.035 16.036-1.53 1.529q-4.77 4.774 0 9.547l9.546 9.545c3.181 3.185 6.364 6.364 9.547 9.547m-19.092-47.732 9.546 9.546q4.772 4.774 9.546 9.547 4.77 4.774-.001 9.547l-1.528 1.528m-16.035 16.035-1.53 1.53" style="display:inline;fill:none;stroke:#ff851b;stroke-width:5.66927;stroke-linecap:round;stroke-linejoin:miter;stroke-miterlimit:10;stroke-dasharray:none;stroke-opacity:1" transform="translate(94.719 -47.729)scale(1.02381)"/>
  <path d="m75.04 51.254 9.773 9.773 9.773 9.775q4.884 4.888 0 9.774l-1.564 1.565M76.605 98.558l-1.566 1.565m19.548-48.869-1.565 1.566M76.605 69.237l-1.565 1.565q-4.886 4.888 0 9.774l9.773 9.773q4.886 4.889 9.774 9.774" style="display:inline;fill:none;stroke:#ff851b;stroke-width:5.80429;stroke-linecap:round;stroke-linejoin:miter;stroke-miterlimit:10;stroke-dasharray:none;stroke-opacity:1" transform="translate(24.881 25.724)"/>
  <path d="m195.986 51.254 9.773 9.773 9.773 9.775q4.884 4.888 0 9.774l-1.565 1.565M197.55 98.558l-1.566 1.565m19.548-48.869-1.564 1.565M197.55 69.236l-1.566 1.566q-4.886 4.888 0 9.774l9.773 9.773q4.886 4.889 9.774 9.774" style="display:inline;fill:none;stroke:#ff851b;stroke-width:5.80428;stroke-linecap:round;stroke-linejoin:miter;stroke-miterlimit:10;stroke-dasharray:none;stroke-opacity:1" transform="translate(24.881 25.724)"/>
  <path d="M34.115 51.254c20.462-18.02 20.462-18.02 40.925 0m19.548 0c20.463-18.02 20.463-18.02 40.926 0m19.546 0c20.463-18.02 20.463-18.02 40.926 0M34.114 100.123c20.462 18.02 20.462 18.02 40.925 0m19.548 0c20.463 18.02 20.463 18.02 40.926 0m19.546 0c20.462 18.02 20.462 18.02 40.925 0m19.548-48.869c20.462-18.02 28.022 2.6 38.483 14.663m-38.483 34.206c20.462 18.02 28.021-2.596 38.483-14.66" style="fill:none;stroke:#ff851b;stroke-width:5.66929;stroke-linejoin:round;stroke-dasharray:none;paint-order:stroke fill markers" transform="translate(24.881 25.724)"/>
  <path d="M1091.279 506.617v220.594Z" style="fill:#616161;stroke:#616161;stroke-width:33.3496;stroke-linecap:round;stroke-linejoin:round;stroke-dasharray:none;paint-order:stroke fill markers" transform="translate(123.562 -184.955)scale(.36508)"/>
  <path d="M1135.398 727.21a44.12 44.12 0 0 1-44.119 44.12 44.12 44.12 0 0 1-44.119-44.12 44.12 44.12 0 0 1 44.119-44.118 44.12 44.12 0 0 1 44.119 44.119" style="fill:#616161;stroke:#616161;stroke-width:.88376;stroke-linecap:round;stroke-linejoin:round;stroke-dasharray:none;paint-order:stroke fill markers" transform="translate(123.562 -184.955)scale(.36508)"/>
  <text x="795.69" y="930.295" style="font-size:99.2124px;font-family:Inter;-inkscape-font-specification:Inter;text-align:start;writing-mode:lr-tb;direction:ltr;text-anchor:start;fill:#616161;stroke:none;stroke-width:33.3496;stroke-linecap:round;stroke-linejoin:round;stroke-dasharray:none;paint-order:stroke fill markers" transform="translate(123.562 -184.955)scale(.36508)">
    <tspan x="795.69" y="930.295" style="stroke-width:33.3496">2</tspan>
  </text>
  <text x="1117.552" y="828.01" style="font-size:99.2124px;font-family:Inter;-inkscape-font-specification:Inter;text-align:start;writing-mode:lr-tb;direction:ltr;text-anchor:start;fill:#616161;stroke:none;stroke-width:33.3496;stroke-linecap:round;stroke-linejoin:round;stroke-dasharray:none;paint-order:stroke fill markers" transform="translate(145.631 -100.634)scale(.36508)">
    <tspan x="1117.552" y="828.01" style="stroke-width:33.3496">2</tspan>
  </text>
  <g style="stroke-width:1.00157;stroke-dasharray:none">
    <text x="792.529" y="1003.16" style="font-size:112.438px;font-family:Inter;-inkscape-font-specification:Inter;text-align:start;writing-mode:lr-tb;direction:ltr;text-anchor:start;fill:#616161;stroke:none;stroke-width:37.7953;stroke-linecap:round;stroke-linejoin:round;stroke-dasharray:none;paint-order:stroke fill markers" transform="translate(350.765 -164.375)scale(.32214)">
      <tspan x="792.529" y="1003.16">2</tspan>
    </text>
  </g>
  <g style="stroke-width:1.00157;stroke-dasharray:none">
    <text x="792.529" y="1003.16" style="font-size:112.438px;font-family:Inter;-inkscape-font-specification:Inter;text-align:start;writing-mode:lr-tb;direction:ltr;text-anchor:start;fill:#616161;stroke:none;stroke-width:37.7953;stroke-linecap:round;stroke-linejoin:round;stroke-dasharray:none;paint-order:stroke fill markers" transform="translate(289.295 -243.71)scale(.32214)">
      <tspan x="792.529" y="1003.16">2</tspan>
    </text>
  </g>
  <g style="stroke-width:1.00157;stroke-dasharray:none">
    <text x="780.307" y="1065.402" style="font-size:112.438px;font-family:Inter;-inkscape-font-specification:Inter;text-align:start;writing-mode:lr-tb;direction:ltr;text-anchor:start;fill:#616161;stroke:none;stroke-width:37.7953;stroke-linecap:round;stroke-linejoin:round;stroke-dasharray:none;paint-order:stroke fill markers" transform="translate(221.643 -140.377)scale(.32214)">
      <tspan x="780.307" y="1065.402">2</tspan>
    </text>
  </g>
  <g style="display:inline;stroke-width:1.00157;stroke-dasharray:none">
    <path d="M1129.688 506.617v250Z" style="fill:#616161;stroke:#616161;stroke-width:37.7953;stroke-linecap:round;stroke-linejoin:round;stroke-dasharray:none;paint-order:stroke fill markers" transform="rotate(-20.002 208.524 -326.289)scale(.32213)"/>
    <path d="M1179.688 756.617a50 50 0 0 1-50 50 50 50 0 0 1-50-50 50 50 0 0 1 50-50 50 50 0 0 1 50 50" style="fill:#616161;stroke:#616161;stroke-width:1.00157;stroke-linecap:round;stroke-linejoin:round;stroke-dasharray:none;paint-order:stroke fill markers" transform="rotate(-20.002 208.524 -326.289)scale(.32213)"/>
  </g>
  <g style="display:inline;stroke-width:1.00157;stroke-dasharray:none">
    <path d="M1129.688 506.617v250Z" style="fill:#616161;stroke:#616161;stroke-width:37.7953;stroke-linecap:round;stroke-linejoin:round;stroke-dasharray:none;paint-order:stroke fill markers" transform="rotate(-60 371.353 -15.01)scale(.32214)"/>
    <path d="M1179.688 756.617a50 50 0 0 1-50 50 50 50 0 0 1-50-50 50 50 0 0 1 50-50 50 50 0 0 1 50 50" style="fill:#616161;stroke:#616161;stroke-width:1.00157;stroke-linecap:round;stroke-linejoin:round;stroke-dasharray:none;paint-order:stroke fill markers" transform="rotate(-60 371.353 -15.01)scale(.32214)"/>
  </g>
  <g style="display:inline;stroke-width:1.00157;stroke-dasharray:none">
    <path d="M1129.688 506.617v250Z" style="fill:#616161;stroke:#616161;stroke-width:37.7953;stroke-linecap:round;stroke-linejoin:round;stroke-dasharray:none;paint-order:stroke fill markers" transform="scale(-.32214 .32214)rotate(-20 -972.993 8176.36)"/>
    <path d="M1179.688 756.617a50 50 0 0 1-50 50 50 50 0 0 1-50-50 50 50 0 0 1 50-50 50 50 0 0 1 50 50" style="fill:#616161;stroke:#616161;stroke-width:1.00157;stroke-linecap:round;stroke-linejoin:round;stroke-dasharray:none;paint-order:stroke fill markers" transform="scale(-.32214 .32214)rotate(-20 -972.993 8176.36)"/>
  </g>
  <g style="display:inline;stroke-width:1.00157;stroke-dasharray:none">
    <path d="M1129.688 506.617v250Z" style="fill:#616161;stroke:#616161;stroke-width:37.7953;stroke-linecap:round;stroke-linejoin:round;stroke-dasharray:none;paint-order:stroke fill markers" transform="scale(-.32214 .32214)rotate(-60 -467.556 2759.89)"/>
    <path d="M1179.688 756.617a50 50 0 0 1-50 50 50 50 0 0 1-50-50 50 50 0 0 1 50-50 50 50 0 0 1 50 50" style="fill:#616161;stroke:#616161;stroke-width:1.00157;stroke-linecap:round;stroke-linejoin:round;stroke-dasharray:none;paint-order:stroke fill markers" transform="scale(-.32214 .32214)rotate(-60 -467.556 2759.89)"/>
  </g>
  <path d="M12.582 40.032C2.486 29.07 11.38 31.072 1.664 18.116M12.58 88.9c-10.916 9.978.114 6.856-10.916 19.925" style="fill:none;stroke:#ff851b;stroke-width:5.66929;stroke-linejoin:round;stroke-dasharray:none;paint-order:stroke fill markers" transform="translate(26.868 36.947)"/>
  <path d="M343.813 64.466a183.41 91.705 0 0 1-183.41 91.705A183.41 91.705 0 0 1-23.004 64.466a183.41 91.705 0 0 1 183.409-91.704 183.41 91.705 0 0 1 183.41 91.704Z" style="fill:none;stroke:#616161;stroke-width:7.72443;stroke-linejoin:round;paint-order:stroke fill markers" transform="translate(26.868 36.947)"/>
</svg>
