<svg xmlns="http://www.w3.org/2000/svg" viewBox="0 0 180.027 180.027"><path d="M217.502 72.498 215 75c-5 5-20 32.849-34.397 18.452" style="fill:none;stroke:#f55;stroke-width:3.77953;stroke-linejoin:round;stroke-miterlimit:4.1;stroke-dasharray:none" transform="translate(-99.986 -12.459)"/><path d="m202.338 72.662 2.502-2.502c5-5 5-5 10 0m2.662 2.338L215 75c-5 5-5 5-10 0" style="display:inline;fill:none;stroke:#f55;stroke-width:3.77953;stroke-linejoin:round;stroke-miterlimit:4.1;stroke-dasharray:none" transform="translate(-84.986 -12.459)"/><path d="M217.498 72.502 220 70c5-5 5-5 10 0" style="display:inline;fill:none;stroke:#f55;stroke-width:3.77953;stroke-linejoin:round;stroke-miterlimit:4.1;stroke-dasharray:none" transform="translate(-84.986 -12.459)"/><path d="M217.502 72.498 215 75c-5 5-5 5-10 0m17.579-34.73C215 47.349 225 65 220 70l-2.498 2.498" style="fill:none;stroke:#f55;stroke-width:3.77953;stroke-linejoin:round;stroke-miterlimit:4.1;stroke-dasharray:none" transform="translate(-69.986 -12.459)"/><path d="M196.04 50.998c14-14 14.148-.81 33.96 19.002" style="display:inline;fill:none;stroke:#f55;stroke-width:3.77953;stroke-linejoin:round;stroke-miterlimit:4.1;stroke-dasharray:none" transform="translate(-115.027 -12.306)"/><g style="display:inline"><path d="M217.502 72.498 215 75c-5 5-37.633 80.983-60 59" style="display:inline;fill:none;stroke:#f55;stroke-width:3.77953;stroke-linejoin:round;stroke-miterlimit:4.1;stroke-dasharray:none" transform="matrix(0 1 1 0 16.014 -92.11)"/><path d="M217.498 72.502 220 70c5-5 5-5 10 0" style="display:inline;fill:none;stroke:#f55;stroke-width:3.77953;stroke-linejoin:round;stroke-miterlimit:4.1;stroke-dasharray:none" transform="matrix(0 1 1 0 16.014 -92.11)"/></g><g style="display:inline"><path d="M217.502 72.498 215 75c-5 5-5 5-10 0" style="display:inline;fill:none;stroke:#f55;stroke-width:3.77953;stroke-linejoin:round;stroke-miterlimit:4.1;stroke-dasharray:none" transform="matrix(0 1 1 0 16.014 -77.11)"/><path d="M217.498 72.502 220 70c5-5-1-47.5 9-57.5" style="display:inline;fill:none;stroke:#f55;stroke-width:3.77953;stroke-linejoin:round;stroke-miterlimit:4.1;stroke-dasharray:none" transform="matrix(0 1 1 0 16.014 -77.11)"/></g><g style="display:inline"><path d="M214 135.5C191.5 113 218 89 205 75" style="display:inline;fill:none;stroke:#f55;stroke-width:3.77953;stroke-linejoin:round;stroke-miterlimit:4.1;stroke-dasharray:none" transform="matrix(0 1 1 0 16.014 -62.11)"/></g><path d="M151 115.349c-14.447-14.053-67-22.198-47.3-41.897" style="fill:none;stroke:#f55;stroke-width:3.77953;stroke-linejoin:round;stroke-miterlimit:4.1;stroke-dasharray:none" transform="translate(-64.986 7.541)"/><path d="M92.421 25.921 103.736 37" style="display:inline;fill:#f55;stroke:#f55;stroke-width:3.77953;stroke-linejoin:round;stroke-miterlimit:4.1;stroke-dasharray:none" transform="translate(-64.986 1.89)"/><path d="M155.03 58.151a30.38 30.38 0 0 1-30.38 30.379 30.38 30.38 0 0 1-30.377-30.38 30.38 30.38 0 0 1 30.378-30.378A30.38 30.38 0 0 1 155.03 58.15Z" class="stroke-comment fill-comment" style="display:inline;fill:none;stroke:#aaa;stroke-width:3.77953;stroke-linejoin:round;stroke-miterlimit:4.1;stroke-dasharray:none" transform="translate(-64.986 1.89)"/><path d="M243.124 88.124A88.124 88.124 0 0 1 155 176.248a88.124 88.124 0 0 1-88.124-88.124A88.124 88.124 0 0 1 155 0a88.124 88.124 0 0 1 88.124 88.124Z" class="stroke-comment fill-comment" style="display:inline;fill:none;stroke:#aaa;stroke-width:3.77953;stroke-linejoin:round;stroke-miterlimit:4.1;stroke-dasharray:none" transform="translate(-64.986 1.89)"/></svg>