<svg xmlns="http://www.w3.org/2000/svg" xml:space="preserve" viewBox="0 0 1100 570"><path d="M516.074 648.926a50 50 0 0 1 50-50 50 50 0 0 1 50 50 50 50 0 0 1-50 50 50 50 0 0 1-50-50" style="display:inline;fill:#aaa;stroke-width:2.25367;stroke-linecap:round;stroke-linejoin:round;paint-order:stroke fill markers" transform="translate(-266.074 -598.926)"/><path d="M566.074 668.926h-250v-40h250z" style="fill:#aaa;stroke-width:1.84012;stroke-linecap:round;stroke-linejoin:round;paint-order:stroke fill markers" transform="translate(-266.074 -598.926)"/><path d="M755 440V190h40v250z" style="fill:#aaa;stroke-width:1.84012;stroke-linecap:round;stroke-linejoin:round;paint-order:stroke fill markers" transform="rotate(-90 717.5 107.5)"/><path d="M775 390a50 50 0 0 1 50 50 50 50 0 0 1-50 50 50 50 0 0 1-50-50 50 50 0 0 1 50-50" style="display:inline;fill:#aaa;stroke-width:2.25367;stroke-linecap:round;stroke-linejoin:round;paint-order:stroke fill markers" transform="rotate(-90 467.5 357.5)"/><path d="M755 440V190h40v250z" style="fill:#aaa;stroke-width:1.84012;stroke-linecap:round;stroke-linejoin:round;paint-order:stroke fill markers" transform="rotate(-90 467.5 357.5)"/><path d="M775 390a50 50 0 0 1 50 50 50 50 0 0 1-50 50 50 50 0 0 1-50-50 50 50 0 0 1 50-50" style="display:inline;fill:#aaa;stroke-width:2.25367;stroke-linecap:round;stroke-linejoin:round;paint-order:stroke fill markers" transform="rotate(-90 592.5 232.5)"/><path d="M755 440V190h40v250z" style="fill:#aaa;stroke-width:1.84012;stroke-linecap:round;stroke-linejoin:round;paint-order:stroke fill markers" transform="rotate(-90 592.5 232.5)"/><path d="M516.074 648.926a50 50 0 0 1 50-50 50 50 0 0 1 50 50 50 50 0 0 1-50 50 50 50 0 0 1-50-50" style="display:inline;fill:#aaa;stroke-width:2.25367;stroke-linecap:round;stroke-linejoin:round;paint-order:stroke fill markers" transform="matrix(-1 0 0 1 1366.074 -358.926)"/><path d="M566.074 668.926h-250v-40h250z" style="fill:#aaa;stroke-width:1.84012;stroke-linecap:round;stroke-linejoin:round;paint-order:stroke fill markers" transform="matrix(-1 0 0 1 1366.074 -358.926)"/><path d="M755 440V190h40v250z" style="fill:#aaa;stroke-width:1.84012;stroke-linecap:round;stroke-linejoin:round;paint-order:stroke fill markers" transform="matrix(0 -1 -1 0 490 1065)"/><path d="M775 390a50 50 0 0 1 50 50 50 50 0 0 1-50 50 50 50 0 0 1-50-50 50 50 0 0 1 50-50" style="display:inline;fill:#aaa;stroke-width:2.25367;stroke-linecap:round;stroke-linejoin:round;paint-order:stroke fill markers" transform="matrix(0 -1 -1 0 990 1065)"/><path d="M755 440V190h40v250z" style="fill:#aaa;stroke-width:1.84012;stroke-linecap:round;stroke-linejoin:round;paint-order:stroke fill markers" transform="matrix(0 -1 -1 0 990 1065)"/><path d="M775 390a50 50 0 0 1 50 50 50 50 0 0 1-50 50 50 50 0 0 1-50-50 50 50 0 0 1 50-50" style="display:inline;fill:#aaa;stroke-width:2.25367;stroke-linecap:round;stroke-linejoin:round;paint-order:stroke fill markers" transform="matrix(0 -1 -1 0 740 1065)"/><path d="M755 440V190h40v250z" style="fill:#aaa;stroke-width:1.84012;stroke-linecap:round;stroke-linejoin:round;paint-order:stroke fill markers" transform="matrix(0 -1 -1 0 740 1065)"/><path d="M516.074 648.926a50 50 0 0 1 50-50 50 50 0 0 1 50 50 50 50 0 0 1-50 50 50 50 0 0 1-50-50" style="display:inline;fill:#aaa;stroke-width:2.25367;stroke-linecap:round;stroke-linejoin:round;paint-order:stroke fill markers" transform="matrix(-1 0 0 1 616.074 -358.926)"/><path d="M516.074 648.926a50 50 0 0 1 50-50 50 50 0 0 1 50 50 50 50 0 0 1-50 50 50 50 0 0 1-50-50" style="display:inline;fill:#aaa;stroke-width:2.25367;stroke-linecap:round;stroke-linejoin:round;paint-order:stroke fill markers" transform="translate(-266.074 -128.926)"/><path d="M566.074 668.926h-250v-40h250z" style="fill:#aaa;stroke-width:1.84012;stroke-linecap:round;stroke-linejoin:round;paint-order:stroke fill markers" transform="translate(-266.074 -128.926)"/><path d="M755 440V190h40v250z" style="fill:#aaa;stroke-width:1.84012;stroke-linecap:round;stroke-linejoin:round;paint-order:stroke fill markers" transform="rotate(-90 952.5 342.5)"/><path d="M775 390a50 50 0 0 1 50 50 50 50 0 0 1-50 50 50 50 0 0 1-50-50 50 50 0 0 1 50-50" style="display:inline;fill:#aaa;stroke-width:2.25367;stroke-linecap:round;stroke-linejoin:round;paint-order:stroke fill markers" transform="rotate(-90 702.5 592.5)"/><path d="M755 440V190h40v250z" style="fill:#aaa;stroke-width:1.84012;stroke-linecap:round;stroke-linejoin:round;paint-order:stroke fill markers" transform="rotate(-90 702.5 592.5)"/><path d="M775 390a50 50 0 0 1 50 50 50 50 0 0 1-50 50 50 50 0 0 1-50-50 50 50 0 0 1 50-50" style="display:inline;fill:#aaa;stroke-width:2.25367;stroke-linecap:round;stroke-linejoin:round;paint-order:stroke fill markers" transform="rotate(-90 827.5 467.5)"/><path d="M755 440V190h40v250z" style="fill:#aaa;stroke-width:1.84012;stroke-linecap:round;stroke-linejoin:round;paint-order:stroke fill markers" transform="rotate(-90 827.5 467.5)"/><path d="M516.074 648.926a50 50 0 0 1 50-50 50 50 0 0 1 50 50 50 50 0 0 1-50 50 50 50 0 0 1-50-50" style="display:inline;fill:#aaa;stroke-width:2.25367;stroke-linecap:round;stroke-linejoin:round;paint-order:stroke fill markers" transform="translate(483.926 -128.926)"/><path d="M516.074 648.926a50 50 0 0 1 50-50 50 50 0 0 1 50 50 50 50 0 0 1-50 50 50 50 0 0 1-50-50" style="display:inline;fill:#aaa;stroke-width:2.25367;stroke-linecap:round;stroke-linejoin:round;paint-order:stroke fill markers" transform="translate(-516.074 -128.926)"/></svg>