<svg xmlns="http://www.w3.org/2000/svg" viewBox="0 0 497.651 355.664">
  <text x="-212.095" y="219.221" style="font-size:18.8976px;font-family:FreeMono;-inkscape-font-specification:FreeMono;fill:#ff4136;stroke:#ff4136;stroke-width:.982677;stroke-linejoin:round;stroke-miterlimit:4.1" transform="translate(210.88 133.239)" class="">
    <tspan x="-212.095" y="219.221" style="font-style:normal;font-variant:normal;font-weight:400;font-stretch:normal;font-size:18.8976px;font-family:&quot;Fira Code&quot;;-inkscape-font-specification:&quot;Fira Code&quot;" class="">&lt;1<tspan style="fill:#b10dc9;stroke:#b10dc9" class="">(2[3][-3])</tspan><tspan class="" style="fill:#39cccc;stroke:#39cccc">{2 -2 </tspan><tspan class="" style="fill:#ff851b;stroke:#ff851b">&lt;1</tspan><tspan class="" style="fill:#2ecc40;stroke:#2ecc40">([3][4])</tspan><tspan class="" style="fill:#ff851b;stroke:#ff851b">[8]</tspan><tspan class="" style="fill:#0074d9;stroke:#0074d9">([2]1[2])</tspan><tspan class="" style="fill:#ff851b;stroke:#ff851b">&gt;</tspan><tspan class="" style="fill:#39cccc;stroke:#39cccc">}</tspan>&gt;</tspan>
  </text>
  <path d="M1.956 7.497 25.895-28.41m0 0L49.833 7.497" style="display:inline;fill:#b10dc9;stroke:#b10dc9;stroke-width:2.54943;stroke-dasharray:none;stroke-opacity:1" transform="translate(165.867 86.681)scale(1.31494)" class=""/>
  <path d="M-3.974 3.727q.538.115.838.478.305.364.305.898 0 .82-.565 1.27-.564.449-1.603.449-.349 0-.72-.071-.367-.067-.76-.204v-.724q.311.182.682.275t.776.093q.705 0 1.072-.279.372-.278.372-.809 0-.49-.346-.764-.34-.279-.953-.279h-.646v-.616h.675q.553 0 .847-.219.293-.222.293-.638 0-.427-.305-.653-.3-.23-.864-.23-.308 0-.66.067-.353.066-.776.207V1.31q.426-.118.797-.178.375-.06.706-.06.853 0 1.35.39.498.387.498 1.047 0 .46-.264.78-.263.315-.75.437z" aria-label="3" style="font-size:3.175px;display:inline;fill:#b10dc9;stroke:#b10dc9;stroke-width:.634366" transform="translate(165.867 86.681)scale(1.31494)" class=""/>
  <path d="M21.137-31.335h2.616v.63h-3.518v-.63q.427-.442 1.161-1.184.739-.746.928-.961.36-.405.501-.683.145-.282.145-.553 0-.442-.312-.72-.308-.278-.805-.278-.353 0-.746.122-.39.123-.835.371v-.757q.453-.182.846-.274t.72-.093q.861 0 1.373.43t.512 1.15q0 .342-.13.65-.126.304-.464.72-.092.108-.59.624-.497.512-1.402 1.436z" aria-label="2" style="font-size:3.175px;display:inline;fill:#b10dc9;stroke:#b10dc9;stroke-width:.634366" transform="translate(165.867 86.681)scale(1.31494)" class=""/>
  <path d="M114.696-27.49h2.616v.63h-3.518v-.63q.427-.442 1.162-1.184.738-.746.928-.961.36-.405.5-.683.145-.282.145-.553 0-.442-.311-.72-.308-.278-.806-.278-.352 0-.746.122-.39.123-.835.371v-.757q.453-.182.847-.275.393-.092.72-.092.86 0 1.373.43.512.43.512 1.15 0 .342-.13.65-.126.304-.464.72-.093.108-.59.623-.498.513-1.403 1.437z" aria-label="2" class="" style="font-size:3.175px;display:inline;fill:#39cccc;stroke:#39cccc;stroke-width:.634366" transform="translate(165.867 86.681)scale(1.31494)"/>
  <path d="M54.977 5.003h2v.609h-2Zm5.456-.6q.538.114.838.478.305.364.305.898 0 .82-.565 1.27-.564.448-1.603.448-.349 0-.72-.07-.367-.067-.76-.205V6.5q.311.182.682.274t.776.093q.705 0 1.072-.278.372-.278.372-.81 0-.489-.346-.764-.341-.278-.953-.278h-.646V4.12h.675q.553 0 .847-.22.293-.222.293-.637 0-.427-.305-.654-.3-.23-.864-.23-.308 0-.66.067t-.776.208v-.668q.426-.119.797-.178.375-.06.706-.06.853 0 1.35.39.498.386.498 1.047 0 .46-.264.779-.263.315-.75.438z" aria-label="-3" style="font-size:3.175px;display:inline;fill:#b10dc9;stroke:#b10dc9;stroke-width:.634366" transform="translate(165.867 86.681)scale(1.31494)" class=""/>
  <path d="M88.717 11.51h2v.608h-2z" aria-label="-3" class="" style="font-size:3.175px;display:inline;fill:#39cccc;stroke:#39cccc;stroke-width:.634366" transform="translate(165.867 86.681)scale(1.31494)"/>
  <path d="M3.264 4.73a2.788 2.826 26.087 0 1 1.261 3.765A2.788 2.826 26.087 0 1 .778 9.807 2.788 2.826 26.087 0 1-.483 6.042 2.788 2.826 26.087 0 1 3.264 4.73Zm47.701-.024a2.788 2.826 26.087 0 1 1.262 3.765 2.788 2.826 26.087 0 1-3.747 1.312 2.788 2.826 26.087 0 1-1.261-3.764 2.788 2.826 26.087 0 1 3.746-1.313Z" style="display:inline;fill:#b10dc9;stroke:#b10dc9;stroke-width:.182537" transform="translate(165.867 86.681)scale(1.31494)" class=""/>
  <path d="m25.895-28.41 38.3-26.332" style="display:inline;fill:none;stroke:#ff4136;stroke-width:2.54943;stroke-dasharray:none;stroke-opacity:1" transform="translate(165.867 86.681)scale(1.31494)" class=""/>
  <path d="m71.377-54.742 38.076 25.378" style="fill:none;stroke:#ff4136;stroke-width:2.55142;stroke-linejoin:round;stroke-miterlimit:4.1;stroke-dasharray:none" transform="translate(165.867 86.681)scale(1.31494)" class=""/>
  <path d="M108.486-26.708a2.788 2.826 20 0 1-1.653-3.61 2.788 2.826 20 0 1 3.586-1.702 2.788 2.826 20 0 1 1.654 3.61 2.788 2.826 20 0 1-3.587 1.702z" class="" style="display:inline;fill:#39cccc;stroke:#39cccc;stroke-width:.182537" transform="translate(165.867 86.681)scale(1.31494)"/>
  <path d="M109.453-29.364 85.74 7.497m-.282-.38" class="" style="fill:none;stroke:#aaa;stroke-width:2.55142;stroke-linejoin:round;stroke-miterlimit:4.1;stroke-dasharray:none" transform="translate(165.867 86.681)scale(1.31494)"/>
  <path d="M85 10a2.788 2.826 20 0 1-1.653-3.61 2.788 2.826 20 0 1 3.586-1.701 2.788 2.826 20 0 1 1.654 3.609A2.788 2.826 20 0 1 85 10z" class="" style="display:inline;fill:#39cccc;stroke:#39cccc;stroke-width:.182537" transform="translate(165.867 86.681)scale(1.31494)"/>
  <path d="M73.974-59.06a5.697 5.685 0 0 1-5.698 5.685 5.697 5.685 0 0 1-5.697-5.684 5.697 5.685 0 0 1 5.697-5.685 5.697 5.685 0 0 1 5.698 5.685z" style="display:inline;fill:none;stroke:#ff4136;stroke-width:2.35237" transform="translate(165.867 86.681)scale(1.31494)" class=""/>
  <path d="M28.72-28.439a2.826 2.788 0 0 1-2.825 2.789 2.826 2.788 0 0 1-2.827-2.789 2.826 2.788 0 0 1 2.827-2.788 2.826 2.788 0 0 1 2.826 2.788z" style="display:inline;fill:#b10dc9;stroke:#b10dc9;stroke-width:.182537" transform="translate(165.867 86.681)scale(1.31494)" class=""/>
  <path d="M67.017-57.136h1.224v-4.227l-1.332.267v-.683l1.325-.267h.75v4.91h1.224v.63h-3.191z" aria-label="1" style="font-size:3.175px;display:inline;fill:#ff4136;stroke:#ff4136;stroke-width:.634366" transform="translate(165.867 86.681)scale(1.31494)" class=""/>
  <path d="M60.577 52.42h1.225v-4.228l-1.332.268v-.683l1.325-.267h.75v4.91h1.224v.63h-3.192z" aria-label="1" class="" style="font-size:3.175px;fill:#aaa;stroke:#ff851b;stroke-width:.634366" transform="translate(165.867 86.681)scale(1.31494)"/>
  <path d="M8.985 128.262q-.579 0-.872.571-.29.568-.29 1.71 0 1.14.29 1.712.293.568.872.568.583 0 .872-.568.293-.572.293-1.711 0-1.143-.293-1.71-.29-.572-.872-.572zm0-.594q.931 0 1.421.738.494.735.494 2.138 0 1.399-.494 2.138-.49.734-1.421.734-.932 0-1.425-.734-.49-.739-.49-2.138 0-1.403.49-2.138.493-.738 1.425-.738z" aria-label="0" class="" style="font-size:3.175px;fill:#2ecc40;stroke:#2ecc40;stroke-width:.634366" transform="translate(165.867 86.681)scale(1.31494)"/>
  <path d="m44.67 166.767-1.892 2.958h1.892zm-.196-.653h.942v3.61h.79v.624h-.79v1.306h-.746v-1.306h-2.5v-.724z" aria-label="4" class="" style="font-size:3.175px;fill:#2ecc40;stroke:#2ecc40;stroke-width:.634366" transform="translate(165.867 86.681)scale(1.31494)"/>
  <path d="M-14.245 170.034q.538.115.838.479.305.363.305.898 0 .82-.565 1.269-.564.449-1.603.449-.349 0-.72-.07-.367-.067-.76-.205v-.724q.311.182.682.275t.776.093q.705 0 1.073-.278.37-.279.37-.81 0-.49-.344-.764-.342-.278-.954-.278h-.646v-.616h.675q.553 0 .847-.22.293-.222.293-.638 0-.426-.305-.653-.3-.23-.864-.23-.308 0-.66.067t-.776.208v-.668q.426-.119.797-.178.375-.06.706-.06.853 0 1.35.39.498.386.498 1.046 0 .46-.264.78-.263.315-.75.438z" aria-label="3" class="" style="font-size:3.175px;fill:#2ecc40;stroke:#2ecc40;stroke-width:.634366" transform="translate(165.867 86.681)scale(1.31494)"/>
  <path d="m14.297 134.44 23.938 35.908" class="" style="fill:#2ecc40;stroke:#2ecc40;stroke-width:2.55142;stroke-dasharray:none;stroke-opacity:1" transform="translate(165.867 86.681)scale(1.31494)"/>
  <path d="m56.991 53.367-42.694 81.074" class="" style="fill:none;stroke:#ff851b;stroke-width:2.55142;stroke-dasharray:none;stroke-opacity:1" transform="translate(165.867 86.681)scale(1.31494)"/>
  <path d="m14.297 134.44-23.939 35.908" class="" style="fill:#2ecc40;stroke:#2ecc40;stroke-width:2.54943;stroke-dasharray:none;stroke-opacity:1" transform="translate(165.867 86.681)scale(1.31494)"/>
  <path d="m62.12 86.881.053-31.437" class="" style="fill:none;stroke:#ff851b;stroke-width:2.54943;stroke-dasharray:none;stroke-opacity:1" transform="translate(165.867 86.681)scale(1.31494)"/>
  <path d="M13.556 137.079a2.788 2.826 20 0 1-1.653-3.61 2.788 2.826 20 0 1 3.586-1.701 2.788 2.826 20 0 1 1.654 3.609 2.788 2.826 20 0 1-3.587 1.702zm-23.813 35.408a2.788 2.826 20 0 1-1.654-3.61 2.788 2.826 20 0 1 3.587-1.701 2.788 2.826 20 0 1 1.653 3.61 2.788 2.826 20 0 1-3.586 1.701zm47.55 0a2.788 2.826 20 0 1-1.653-3.609 2.788 2.826 20 0 1 3.586-1.702 2.788 2.826 20 0 1 1.654 3.61 2.788 2.826 20 0 1-3.587 1.701z" class="" style="fill:#2ecc40;stroke:#2ecc40;stroke-width:.182537" transform="translate(165.867 86.681)scale(1.31494)"/>
  <path d="M108.454 145.779h1.225v-4.227l-1.333.267v-.683l1.325-.267h.75v4.91h1.225v.63h-3.192z" aria-label="1" class="" style="font-size:3.175px;fill:#0074d9;stroke:#0074d9;stroke-width:.634366" transform="translate(165.867 86.681)scale(1.31494)"/>
  <path d="M140.312 172.111h2.617v.631h-3.518v-.63q.426-.443 1.161-1.185.739-.746.928-.961.36-.404.501-.683.145-.282.145-.553 0-.441-.312-.72-.308-.278-.805-.278-.353 0-.746.123-.39.122-.835.37v-.756q.453-.182.846-.275t.72-.093q.86 0 1.373.43.512.431.512 1.15 0 .342-.13.65-.126.305-.464.72-.093.108-.59.624-.497.512-1.403 1.436zm-62.098.222h2.616v.631h-3.518v-.63q.427-.442 1.162-1.184.738-.746.927-.962.36-.404.501-.682.145-.282.145-.553 0-.442-.312-.72-.308-.279-.805-.279-.353 0-.746.123-.39.122-.835.371v-.757q.453-.182.846-.275.394-.093.72-.093.861 0 1.373.43.512.431.512 1.151 0 .342-.13.65-.126.304-.463.72-.093.107-.59.623-.498.512-1.403 1.436z" aria-label="2" class="" style="font-size:3.175px;fill:#0074d9;stroke:#0074d9;stroke-width:.634366" transform="translate(165.867 86.681)scale(1.31494)"/>
  <path d="M62.173 93.745q-.534 0-.842.286-.305.286-.305.787t.305.787q.308.285.842.285.535 0 .843-.285.308-.29.308-.787 0-.501-.308-.787-.305-.286-.843-.286zm-.75-.319q-.482-.118-.753-.449-.267-.33-.267-.805 0-.664.471-1.05.475-.386 1.3-.386.827 0 1.298.386t.471 1.05q0 .475-.27.805-.268.33-.746.45.541.125.842.493.304.367.304.898 0 .805-.493 1.236-.49.43-1.407.43-.916 0-1.41-.43-.49-.43-.49-1.236 0-.53.304-.898.305-.368.847-.494zm-.274-1.184q0 .43.267.672.271.241.757.241.483 0 .754-.24.274-.242.274-.673 0-.43-.274-.671-.271-.242-.754-.242-.486 0-.757.242-.267.24-.267.671z" aria-label="8" class="" style="font-size:3.175px;fill:#aaa;stroke:#ff851b;stroke-width:.634366" transform="translate(165.867 86.681)scale(1.31494)"/>
  <path d="m110.05 134.44 23.938 35.908" class="" style="fill:#0074d9;stroke:#0074d9;stroke-width:2.55142;stroke-dasharray:none;stroke-opacity:1" transform="translate(165.867 86.681)scale(1.31494)"/>
  <path d="m66.96 53.05 43.09 81.39" class="" style="fill:none;stroke:#ff851b;stroke-width:2.55142;stroke-dasharray:none;stroke-opacity:1" transform="translate(165.867 86.681)scale(1.31494)"/>
  <path d="m110.05 134.44-23.938 35.908" class="" style="fill:#0074d9;stroke:#0074d9;stroke-width:2.54943;stroke-dasharray:none;stroke-opacity:1" transform="translate(165.867 86.681)scale(1.31494)"/>
  <path d="M112.444 136.168a2.826 2.788 33.033 0 1-3.89.797 2.826 2.788 33.033 0 1-.849-3.878 2.826 2.788 33.033 0 1 3.89-.797 2.826 2.788 33.033 0 1 .849 3.878zm-23.982 35.806a2.826 2.788 33.033 0 1-3.889.797 2.826 2.788 33.033 0 1-.85-3.878 2.826 2.788 33.033 0 1 3.89-.797 2.826 2.788 33.033 0 1 .85 3.878z" class="" style="fill:#0074d9;stroke:#0074d9;stroke-width:.182537" transform="translate(165.867 86.681)scale(1.31494)"/>
  <path d="M64.516 88.424a2.826 2.788 33.033 0 1-3.89.797 2.826 2.788 33.033 0 1-.849-3.878 2.826 2.788 33.033 0 1 3.89-.797 2.826 2.788 33.033 0 1 .849 3.878z" class="" style="fill:#ff851b;stroke:#ff851b;stroke-width:.182537" transform="translate(165.867 86.681)scale(1.31494)"/>
  <path d="M136.39 171.832a2.826 2.788 33.033 0 1-3.889.797 2.826 2.788 33.033 0 1-.849-3.878 2.826 2.788 33.033 0 1 3.89-.797 2.826 2.788 33.033 0 1 .849 3.878z" class="" style="fill:#0074d9;stroke:#0074d9;stroke-width:.182537" transform="translate(165.867 86.681)scale(1.31494)"/>
  <path d="M109.453-29.364 85.74 7.497m0 0L62.028 44.358m-.283-.38" class="" style="fill:#39cccc;stroke:#39cccc;stroke-width:2.55142;stroke-linejoin:round;stroke-miterlimit:4.1;stroke-dasharray:none" transform="translate(165.867 86.681)scale(1.31494)"/>
  <path d="M92.693 14.003h2.616v.631h-3.518v-.63q.427-.443 1.162-1.185.738-.746.928-.96.36-.405.5-.684.145-.282.145-.553 0-.441-.311-.72-.308-.278-.806-.278-.352 0-.746.123-.39.122-.835.37v-.756q.453-.182.847-.275t.72-.093q.86 0 1.373.43.512.431.512 1.151 0 .341-.13.65-.126.304-.464.72-.093.107-.59.623-.497.512-1.403 1.436z" aria-label="2" class="" style="font-size:3.175px;display:inline;fill:#39cccc;stroke:#39cccc;stroke-width:.634366" transform="translate(165.867 86.681)scale(1.31494)"/>
  <path d="M67.648 50.23a5.697 5.685 0 0 1-5.697 5.685 5.697 5.685 0 0 1-5.698-5.685 5.697 5.685 0 0 1 5.698-5.685 5.697 5.685 0 0 1 5.697 5.685z" class="" style="fill:none;stroke:#ff851b;stroke-width:2.35237" transform="translate(165.867 86.681)scale(1.31494)"/>
</svg>
