<svg xmlns="http://www.w3.org/2000/svg" viewBox="0 0 1490.155 721.176">
  <path d="M1022.51 464.206 672.999 68.93m3.718 398.708 133.19-156.576m75.697-88.988 133.19-156.576M444.755 464.206 95.244 68.93m3.718 398.708 133.19-156.576m75.696-88.988 133.19-156.576m234.382 5.674c-81.64-88.42-156.516-88.492-238.683.494m243.902 390.82c-81.64 88.42-156.516 88.49-238.683-.495" class="stroke-orange" style="fill:none;stroke:#ff851b;stroke-width:17.0079;stroke-linecap:butt;stroke-linejoin:miter;stroke-dasharray:none;stroke-opacity:1" transform="matrix(1.33333 0 0 -1.33333 -.092 716.36)"/>
  <path d="M246.014-2.724C132.571 7.555 37.677 87.711 8.601 197.818c-11.376 43.081-11.376 94.587 0 137.668C36.04 439.39 120.96 516.15 228.014 533.813c19.819 3.27 64.181 3.27 84 0 116.948-19.296 205.865-108.213 225.161-225.16 5.244-31.78 2.828-78.357-5.748-110.835C504.052 94.154 418.576 16.764 312.514-.382c-12.627-2.042-53.807-3.492-66.5-2.342m63.5 16.216c149.543 24.649 245.13 168.888 208.917 315.25-24.676 99.736-106.575 174.482-209.417 191.128-19.555 3.165-59.547 3.168-78.5.007C119.076 501.285 34.729 416.842 16.823 305.94c-3.028-18.75-3.252-57.544-.44-75.789C34.777 110.87 129.616 21.632 249.015 11.262c11.991-1.042 48.908.319 60.5 2.23zM823.768-2.724C710.326 7.555 615.431 87.711 586.356 197.818c-11.377 43.081-11.377 94.587 0 137.668C613.793 439.39 698.714 516.15 805.768 533.813c19.819 3.27 64.182 3.27 84 0 116.948-19.296 205.865-108.213 225.161-225.16 5.244-31.78 2.828-78.357-5.748-110.835C1081.806 94.154 996.33 16.764 890.268-.382c-12.627-2.042-53.807-3.492-66.5-2.342m63.5 16.216c149.543 24.649 245.131 168.888 208.918 315.25-24.677 99.736-106.576 174.482-209.418 191.128-19.555 3.165-59.547 3.168-78.5.007-111.437-18.592-195.784-103.035-213.69-213.936-3.028-18.75-3.253-57.544-.44-75.789C612.53 110.87 707.37 21.632 826.768 11.262c11.991-1.042 48.908.319 60.5 2.23" class="fill-comment" style="display:inline;fill:#616161;fill-opacity:1;stroke:none;stroke-width:1;stroke-opacity:1" transform="matrix(1.33333 0 0 -1.33333 -.092 716.36)"/>
</svg>
