<svg xmlns="http://www.w3.org/2000/svg" viewBox="0 0 720 720"><path d="M102.54 467.05c-76.787 88.218-156.314 88.288-238.481-.697" class="stroke-orange" style="fill:none;stroke:#ff851b;stroke-width:31.2006;stroke-linecap:butt;stroke-linejoin:miter;stroke-dasharray:none;stroke-opacity:1" transform="matrix(0 .7265 -.72713 0 556.326 373.714)"/><path d="M6754.199 714.575c-816.407-884.204-1585.363-915.29-2391.298-5.416" class="stroke-orange" style="fill:none;stroke:#ff851b;stroke-width:312.006;stroke-linecap:butt;stroke-linejoin:miter;stroke-dasharray:none;stroke-opacity:1" transform="matrix(0 .07265 -.07271 0 553.83 -46.027)"/><path d="M107.86 462.576 441.039 68.93" class="stroke-orange" style="fill:none;stroke:#ff851b;stroke-width:31.2006;stroke-linecap:butt;stroke-linejoin:miter;stroke-dasharray:none;stroke-opacity:1" transform="matrix(0 .7265 -.72713 0 556.326 -46.027)"/><path d="M-37.896-480.843H63.022v182.535H-37.896z" class="fill-background" style="fill:#fff;stroke-width:27.5085;stroke-linecap:round;stroke-linejoin:round;stroke-dashoffset:130.744;paint-order:stroke markers fill" transform="matrix(.4998 .52767 .5277 -.49983 556.326 -46.027)"/><path d="M443.72 468.567 106.165 82.475" class="stroke-orange" style="fill:none;stroke:#ff851b;stroke-width:31.2006;stroke-linecap:butt;stroke-linejoin:miter;stroke-dasharray:none;stroke-opacity:1" transform="matrix(0 .7265 -.72713 0 556.326 -46.027)"/><path d="M100.414 469.589 429.498 79.375" class="stroke-orange" style="fill:none;stroke:#ff851b;stroke-width:31.2006;stroke-linecap:butt;stroke-linejoin:miter;stroke-dasharray:none;stroke-opacity:1" transform="matrix(0 .7265 -.72713 0 556.326 373.714)"/><path d="M-61.532-471.594H39.38v182.543H-61.532Z" class="fill-background" style="fill:#fff;stroke-width:27.5085;stroke-linecap:round;stroke-linejoin:round;stroke-dashoffset:130.744;paint-order:stroke markers fill" transform="matrix(.52892 .49854 .49851 -.52889 556.326 373.714)"/><path d="M434.24 458.334 95.244 72.362" class="stroke-orange" style="fill:none;stroke:#ff851b;stroke-width:31.2006;stroke-linecap:butt;stroke-linejoin:miter;stroke-dasharray:none;stroke-opacity:1" transform="matrix(0 .7265 -.72713 0 556.326 373.714)"/><g style="display:inline"><path d="M190.824 317.891c-73.466-6.656-134.92-58.566-153.75-129.872-7.367-27.9-7.367-61.256 0-89.155 17.769-67.289 72.764-117 142.093-128.438 12.835-2.118 41.565-2.118 54.4 0 75.736 12.496 133.32 70.08 145.816 145.816 3.395 20.58 1.831 50.744-3.723 71.777-17.728 67.134-73.083 117.251-141.77 128.356-8.177 1.322-34.845 2.26-43.066 1.516m41.123-10.501c96.846-15.963 158.75-109.373 135.297-204.16-15.981-64.588-69.02-112.994-135.62-123.774-12.664-2.05-38.563-2.052-50.838-.005C108.62-8.509 53.995 46.177 42.398 117.997c-1.96 12.143-2.106 37.266-.284 49.082 11.91 77.248 73.33 135.04 150.653 141.755 7.766.674 31.673-.207 39.18-1.444" class="fill-comment" style="display:inline;fill:#616161;fill-opacity:1;stroke:none;stroke-width:.647608;stroke-opacity:1" transform="matrix(0 2.05939 2.06116 0 64.232 -64.97)"/></g></svg>