<svg xmlns="http://www.w3.org/2000/svg" xml:space="preserve" viewBox="0 0 190.451 190.287"><g style="display:inline"><path d="M96.565 289.11c-6.652-6.652-12.98-12.986-19.633-19.633" style="display:inline;fill:none;stroke:#fff;stroke-width:22.5649;stroke-linecap:butt;stroke-linejoin:miter;stroke-miterlimit:10;stroke-dasharray:none;stroke-opacity:1" transform="translate(23.495 -27.74)scale(.50249)"/><path d="M96.565 289.11c-6.652-6.652-12.98-12.986-19.633-19.633" class="stroke-orange fill-orange" style="display:inline;fill:none;stroke:#ff851b;stroke-width:11.2824;stroke-linecap:round;stroke-linejoin:miter;stroke-miterlimit:10;stroke-dasharray:none;stroke-opacity:1" transform="translate(23.495 -27.74)scale(.50249)"/><path d="M286.548 251.111c-6.646-6.646-12.98-12.98-19.627-19.633" style="display:inline;fill:none;stroke:#fff;stroke-width:22.5649;stroke-linecap:butt;stroke-linejoin:miter;stroke-miterlimit:10;stroke-dasharray:none;stroke-opacity:1" transform="translate(23.495 -27.74)scale(.50249)"/><path d="M286.548 251.111c-6.646-6.646-12.98-12.98-19.627-19.633" class="stroke-orange fill-orange" style="display:inline;fill:none;stroke:#ff851b;stroke-width:11.2824;stroke-linecap:round;stroke-linejoin:miter;stroke-miterlimit:10;stroke-dasharray:none;stroke-opacity:1" transform="translate(23.495 -27.74)scale(.50249)"/><path d="M57.936 174.483c6.646 6.652 12.98 12.987 19.627 19.633" style="display:inline;fill:none;stroke:#fff;stroke-width:22.5649;stroke-linecap:butt;stroke-linejoin:miter;stroke-miterlimit:10;stroke-dasharray:none;stroke-opacity:1" transform="translate(23.495 -27.74)scale(.50249)"/><path d="M57.936 174.483c6.646 6.652 12.98 12.987 19.627 19.633" class="stroke-orange fill-orange" style="display:inline;fill:none;stroke:#ff851b;stroke-width:11.2824;stroke-linecap:round;stroke-linejoin:miter;stroke-miterlimit:10;stroke-dasharray:none;stroke-opacity:1" transform="translate(23.495 -27.74)scale(.50249)"/><path d="M114.931 174.483c6.647 6.652 12.98 12.987 19.633 19.633" style="display:inline;fill:none;stroke:#fff;stroke-width:22.5649;stroke-linecap:butt;stroke-linejoin:miter;stroke-miterlimit:10;stroke-dasharray:none;stroke-opacity:1" transform="translate(23.495 -27.74)scale(.50249)"/><path d="M114.931 174.483c6.647 6.652 12.98 12.987 19.633 19.633" style="display:inline;fill:none;stroke:#ff4136;stroke-width:11.2824;stroke-linecap:round;stroke-linejoin:miter;stroke-miterlimit:10;stroke-dasharray:none;stroke-opacity:1" transform="translate(23.495 -27.74)scale(.50249)"/><path d="M.94 174.483a60561 60561 0 0 0 19.628 19.633" style="display:inline;fill:none;stroke:#fff;stroke-width:22.5649;stroke-linecap:butt;stroke-linejoin:miter;stroke-miterlimit:10;stroke-dasharray:none;stroke-opacity:1" transform="translate(23.495 -27.74)scale(.50249)"/><path d="M.94 174.483a60561 60561 0 0 0 19.628 19.633" style="display:inline;fill:none;stroke:#ff4136;stroke-width:11.2824;stroke-linecap:round;stroke-linejoin:miter;stroke-miterlimit:10;stroke-dasharray:none;stroke-opacity:1" transform="translate(23.495 -27.74)scale(.50249)"/><path d="M190.923 212.482c6.653 6.646 12.98 12.98 19.633 19.633" style="display:inline;fill:none;stroke:#fff;stroke-width:22.5649;stroke-linecap:butt;stroke-linejoin:miter;stroke-miterlimit:10;stroke-dasharray:none;stroke-opacity:1" transform="translate(23.495 -27.74)scale(.50249)"/><path d="M190.923 212.482c6.653 6.646 12.98 12.98 19.633 19.633" class="stroke-orange fill-orange" style="display:inline;fill:none;stroke:#ff851b;stroke-width:11.2824;stroke-linecap:round;stroke-linejoin:miter;stroke-miterlimit:10;stroke-dasharray:none;stroke-opacity:1" transform="translate(23.495 -27.74)scale(.50249)"/><path d="M77.563 270.108 57.936 250.48" style="display:inline;fill:none;stroke:#fff;stroke-width:22.5649;stroke-linecap:butt;stroke-linejoin:miter;stroke-miterlimit:10;stroke-dasharray:none;stroke-opacity:1" transform="translate(23.495 -27.74)scale(.50249)"/><path d="M77.563 270.108 57.936 250.48" class="stroke-orange fill-orange" style="display:inline;fill:none;stroke:#ff851b;stroke-width:11.2824;stroke-linecap:round;stroke-linejoin:miter;stroke-miterlimit:10;stroke-dasharray:none;stroke-opacity:1" transform="translate(23.495 -27.74)scale(.50249)"/><path d="M133.928 193.485c6.652 6.647 12.98 12.981 19.633 19.627" style="display:inline;fill:none;stroke:#fff;stroke-width:22.5649;stroke-linecap:butt;stroke-linejoin:miter;stroke-miterlimit:10;stroke-dasharray:none;stroke-opacity:1" transform="translate(23.495 -27.74)scale(.50249)"/><path d="M133.928 193.485c6.652 6.647 12.98 12.981 19.633 19.627" style="display:inline;fill:none;stroke:#ff4136;stroke-width:11.2824;stroke-linecap:round;stroke-linejoin:miter;stroke-miterlimit:10;stroke-dasharray:none;stroke-opacity:1" transform="translate(23.495 -27.74)scale(.50249)"/><path d="M19.937 193.485c6.647 6.647 12.98 12.981 19.633 19.627" style="display:inline;fill:none;stroke:#fff;stroke-width:22.5649;stroke-linecap:butt;stroke-linejoin:miter;stroke-miterlimit:10;stroke-dasharray:none;stroke-opacity:1" transform="translate(23.495 -27.74)scale(.50249)"/><path d="M19.937 193.485c6.647 6.647 12.98 12.981 19.633 19.627" style="display:inline;fill:none;stroke:#ff4136;stroke-width:11.2824;stroke-linecap:round;stroke-linejoin:miter;stroke-miterlimit:10;stroke-dasharray:none;stroke-opacity:1" transform="translate(23.495 -27.74)scale(.50249)"/><path d="M38.934 175.12c6.652-6.653 12.986-6.653 19.632 0" style="display:inline;fill:none;stroke:#fff;stroke-width:22.5649;stroke-linecap:butt;stroke-linejoin:miter;stroke-miterlimit:10;stroke-dasharray:none;stroke-opacity:1" transform="translate(23.495 -27.74)scale(.50249)"/><path d="M38.934 175.12c6.652-6.653 12.986-6.653 19.632 0" class="stroke-orange fill-orange" style="display:inline;fill:none;stroke:#ff851b;stroke-width:11.2824;stroke-linecap:round;stroke-linejoin:miter;stroke-miterlimit:10;stroke-dasharray:none;stroke-opacity:1" transform="translate(23.495 -27.74)scale(.50249)"/><path d="M267.552 232.115a33037 33037 0 0 0-19.633-19.633" style="display:inline;fill:none;stroke:#fff;stroke-width:22.5649;stroke-linecap:butt;stroke-linejoin:miter;stroke-miterlimit:10;stroke-dasharray:none;stroke-opacity:1" transform="translate(23.495 -27.74)scale(.50249)"/><path d="M267.552 232.115a33037 33037 0 0 0-19.633-19.633" class="stroke-orange fill-orange" style="display:inline;fill:none;stroke:#ff851b;stroke-width:11.2824;stroke-linecap:round;stroke-linejoin:miter;stroke-miterlimit:10;stroke-dasharray:none;stroke-opacity:1" transform="translate(23.495 -27.74)scale(.50249)"/><path d="M-8.245 148.94c0 11.084 3.17 19.527 9.816 26.18" style="display:inline;fill:none;stroke:#fff;stroke-width:22.5649;stroke-linecap:butt;stroke-linejoin:miter;stroke-miterlimit:10;stroke-dasharray:none;stroke-opacity:1" transform="translate(23.495 -27.74)scale(.50249)"/><path d="M-12.362 151.702c5.97 9.218 7.287 16.765 13.933 23.417" style="display:inline;fill:none;stroke:#ff4136;stroke-width:11.2824;stroke-linecap:round;stroke-linejoin:miter;stroke-miterlimit:10;stroke-dasharray:none;stroke-opacity:1" transform="translate(23.495 -27.74)scale(.50249)"/><path d="M171.927 183.67c6.646 13.298 12.98 22.796 19.633 29.442" style="display:inline;fill:none;stroke:#fff;stroke-width:22.5649;stroke-linecap:butt;stroke-linejoin:miter;stroke-miterlimit:10;stroke-dasharray:none;stroke-opacity:1" transform="translate(23.495 -27.74)scale(.50249)"/><path d="M171.927 183.67c6.646 13.298 12.98 22.796 19.633 29.442" class="stroke-orange fill-orange" style="display:inline;fill:none;stroke:#ff851b;stroke-width:11.2824;stroke-linecap:round;stroke-linejoin:miter;stroke-miterlimit:10;stroke-dasharray:none;stroke-opacity:1" transform="translate(23.495 -27.74)scale(.50249)"/><path d="M125.378 288.474c-13.298 6.652-22.797 6.652-29.449 0" style="display:inline;fill:none;stroke:#fff;stroke-width:22.5649;stroke-linecap:butt;stroke-linejoin:miter;stroke-miterlimit:10;stroke-dasharray:none;stroke-opacity:1" transform="translate(23.495 -27.74)scale(.50249)"/><path d="M125.378 288.474c-13.298 6.652-22.797 6.652-29.449 0" class="stroke-orange fill-orange" style="display:inline;fill:none;stroke:#ff851b;stroke-width:11.2824;stroke-linecap:round;stroke-linejoin:miter;stroke-miterlimit:10;stroke-dasharray:none;stroke-opacity:1" transform="translate(23.495 -27.74)scale(.50249)"/><path d="M295.734 276.654c0-11.083-3.17-19.527-9.816-26.173" style="display:inline;fill:none;stroke:#fff;stroke-width:22.5649;stroke-linecap:butt;stroke-linejoin:miter;stroke-miterlimit:10;stroke-dasharray:none;stroke-opacity:1" transform="translate(23.495 -27.74)scale(.50249)"/><path d="M295.734 276.654c0-11.083-3.17-19.527-9.816-26.173" class="stroke-orange fill-orange" style="display:inline;fill:none;stroke:#ff851b;stroke-width:11.2824;stroke-linecap:round;stroke-linejoin:miter;stroke-miterlimit:10;stroke-dasharray:none;stroke-opacity:1" transform="translate(23.495 -27.74)scale(.50249)"/><path d="M76.932 193.485c6.653 6.647 12.981 12.981 19.633 19.627" style="display:inline;fill:none;stroke:#fff;stroke-width:22.5649;stroke-linecap:butt;stroke-linejoin:miter;stroke-miterlimit:10;stroke-dasharray:none;stroke-opacity:1" transform="translate(23.495 -27.74)scale(.50249)"/><path d="M76.932 193.485c6.653 6.647 12.981 12.981 19.633 19.627" class="stroke-orange fill-orange" style="display:inline;fill:none;stroke:#ff851b;stroke-width:11.2824;stroke-linecap:round;stroke-linejoin:miter;stroke-miterlimit:10;stroke-dasharray:none;stroke-opacity:1" transform="translate(23.495 -27.74)scale(.50249)"/><path d="M209.926 231.478c6.646 6.653 12.98 12.987 19.627 19.633" style="display:inline;fill:none;stroke:#fff;stroke-width:22.5649;stroke-linecap:butt;stroke-linejoin:miter;stroke-miterlimit:10;stroke-dasharray:none;stroke-opacity:1" transform="translate(23.495 -27.74)scale(.50249)"/><path d="M209.926 231.478c6.646 6.653 12.98 12.987 19.627 19.633" class="stroke-orange fill-orange" style="display:inline;fill:none;stroke:#ff851b;stroke-width:11.2824;stroke-linecap:round;stroke-linejoin:miter;stroke-miterlimit:10;stroke-dasharray:none;stroke-opacity:1" transform="translate(23.495 -27.74)scale(.50249)"/><path d="M95.929 175.12c6.652-6.653 12.986-6.653 19.633 0" style="display:inline;fill:none;stroke:#fff;stroke-width:22.5649;stroke-linecap:butt;stroke-linejoin:miter;stroke-miterlimit:10;stroke-dasharray:none;stroke-opacity:1" transform="translate(23.495 -27.74)scale(.50249)"/><path d="M95.929 175.12c6.652-6.653 12.986-6.653 19.633 0" style="display:inline;fill:none;stroke:#ff4136;stroke-width:11.2824;stroke-linecap:round;stroke-linejoin:miter;stroke-miterlimit:10;stroke-dasharray:none;stroke-opacity:1" transform="translate(23.495 -27.74)scale(.50249)"/><path d="M76.932 194.116c6.653-6.646 12.981-12.98 19.633-19.633" style="display:inline;fill:none;stroke:#fff;stroke-width:22.5649;stroke-linecap:butt;stroke-linejoin:miter;stroke-miterlimit:10;stroke-dasharray:none;stroke-opacity:1" transform="translate(23.495 -27.74)scale(.50249)"/><path d="M76.932 194.116c6.653-6.646 12.981-12.98 19.633-19.633" style="display:inline;fill:none;stroke:#ff4136;stroke-width:11.2824;stroke-linecap:round;stroke-linejoin:miter;stroke-miterlimit:10;stroke-dasharray:none;stroke-opacity:1" transform="translate(23.495 -27.74)scale(.50249)"/><path d="M247.919 251.111c6.652-6.646 12.986-12.98 19.633-19.633" style="display:inline;fill:none;stroke:#fff;stroke-width:22.5649;stroke-linecap:butt;stroke-linejoin:miter;stroke-miterlimit:10;stroke-dasharray:none;stroke-opacity:1" transform="translate(23.495 -27.74)scale(.50249)"/><path d="M247.919 251.111c6.652-6.646 12.986-12.98 19.633-19.633" class="stroke-orange fill-orange" style="display:inline;fill:none;stroke:#ff851b;stroke-width:11.2824;stroke-linecap:round;stroke-linejoin:miter;stroke-miterlimit:10;stroke-dasharray:none;stroke-opacity:1" transform="translate(23.495 -27.74)scale(.50249)"/><path d="M152.924 175.12c6.653-6.653 12.987-3.483 19.633 9.816" style="display:inline;fill:none;stroke:#fff;stroke-width:22.5649;stroke-linecap:butt;stroke-linejoin:miter;stroke-miterlimit:10;stroke-dasharray:none;stroke-opacity:1" transform="translate(23.495 -27.74)scale(.50249)"/><path d="M152.924 175.12c6.653-6.653 12.987-3.483 19.633 9.816" class="stroke-orange fill-orange" style="display:inline;fill:none;stroke:#ff851b;stroke-width:11.2824;stroke-linecap:round;stroke-linejoin:miter;stroke-miterlimit:10;stroke-dasharray:none;stroke-opacity:1" transform="translate(23.495 -27.74)scale(.50249)"/><path d="M58.566 251.111c-6.646-6.646-19.314-12.98-39.265-19.633" style="display:inline;fill:none;stroke:#fff;stroke-width:22.5649;stroke-linecap:butt;stroke-linejoin:miter;stroke-miterlimit:10;stroke-dasharray:none;stroke-opacity:1" transform="translate(23.495 -27.74)scale(.50249)"/><path d="M58.566 251.111c-6.646-6.646-19.314-12.98-39.265-19.633" class="stroke-orange fill-orange" style="display:inline;fill:none;stroke:#ff851b;stroke-width:11.2824;stroke-linecap:round;stroke-linejoin:miter;stroke-miterlimit:10;stroke-dasharray:none;stroke-opacity:1" transform="translate(23.495 -27.74)scale(.50249)"/><path d="M152.924 212.482c6.653 6.646.319 12.98-19.627 19.633" style="display:inline;fill:none;stroke:#fff;stroke-width:22.5649;stroke-linecap:butt;stroke-linejoin:miter;stroke-miterlimit:10;stroke-dasharray:none;stroke-opacity:1" transform="translate(23.495 -27.74)scale(.50249)"/><path d="M152.924 212.482c6.653 6.646.319 12.98-19.627 19.633" style="display:inline;fill:none;stroke:#ff4136;stroke-width:11.2824;stroke-linecap:round;stroke-linejoin:miter;stroke-miterlimit:10;stroke-dasharray:none;stroke-opacity:1" transform="translate(23.495 -27.74)scale(.50249)"/><path d="M95.929 212.482c6.652 6.646 12.986 6.646 19.633 0" style="display:inline;fill:none;stroke:#fff;stroke-width:22.5649;stroke-linecap:butt;stroke-linejoin:miter;stroke-miterlimit:10;stroke-dasharray:none;stroke-opacity:1" transform="translate(23.495 -27.74)scale(.50249)"/><path d="M95.929 212.482c6.652 6.646 12.986 6.646 19.633 0" class="stroke-orange fill-orange" style="display:inline;fill:none;stroke:#ff851b;stroke-width:11.2824;stroke-linecap:round;stroke-linejoin:miter;stroke-miterlimit:10;stroke-dasharray:none;stroke-opacity:1" transform="translate(23.495 -27.74)scale(.50249)"/><path d="M96.565 250.48c-6.652 6.647-12.98 12.981-19.633 19.628" style="display:inline;fill:none;stroke:#fff;stroke-width:22.5649;stroke-linecap:butt;stroke-linejoin:miter;stroke-miterlimit:10;stroke-dasharray:none;stroke-opacity:1" transform="translate(23.495 -27.74)scale(.50249)"/><path d="M96.565 250.48c-6.652 6.647-12.98 12.981-19.633 19.628" style="display:inline;fill:none;stroke:#ff4136;stroke-width:11.2824;stroke-linecap:round;stroke-linejoin:miter;stroke-miterlimit:10;stroke-dasharray:none;stroke-opacity:1" transform="translate(23.495 -27.74)scale(.50249)"/><path d="M266.921 232.115a60559 60559 0 0 1 19.627-19.633" style="display:inline;fill:none;stroke:#fff;stroke-width:22.5649;stroke-linecap:butt;stroke-linejoin:miter;stroke-miterlimit:10;stroke-dasharray:none;stroke-opacity:1" transform="translate(23.495 -27.74)scale(.50249)"/><path d="M266.921 232.115a60559 60559 0 0 1 19.627-19.633" class="stroke-orange fill-orange" style="display:inline;fill:none;stroke:#ff851b;stroke-width:11.2824;stroke-linecap:round;stroke-linejoin:miter;stroke-miterlimit:10;stroke-dasharray:none;stroke-opacity:1" transform="translate(23.495 -27.74)scale(.50249)"/><path d="M228.922 250.48c6.647 6.647 12.98 6.647 19.633 0" style="display:inline;fill:none;stroke:#fff;stroke-width:22.5649;stroke-linecap:butt;stroke-linejoin:miter;stroke-miterlimit:10;stroke-dasharray:none;stroke-opacity:1" transform="translate(23.495 -27.74)scale(.50249)"/><path d="M228.922 250.48c6.647 6.647 12.98 6.647 19.633 0" class="stroke-orange fill-orange" style="display:inline;fill:none;stroke:#ff851b;stroke-width:11.2824;stroke-linecap:round;stroke-linejoin:miter;stroke-miterlimit:10;stroke-dasharray:none;stroke-opacity:1" transform="translate(23.495 -27.74)scale(.50249)"/><path d="M114.931 213.112c6.647-6.646 12.98-12.98 19.633-19.627" style="display:inline;fill:none;stroke:#fff;stroke-width:22.5649;stroke-linecap:butt;stroke-linejoin:miter;stroke-miterlimit:10;stroke-dasharray:none;stroke-opacity:1" transform="translate(23.495 -27.74)scale(.50249)"/><path d="M114.931 213.112c6.647-6.646 12.98-12.98 19.633-19.627" class="stroke-orange fill-orange" style="display:inline;fill:none;stroke:#ff851b;stroke-width:11.2824;stroke-linecap:round;stroke-linejoin:miter;stroke-miterlimit:10;stroke-dasharray:none;stroke-opacity:1" transform="translate(23.495 -27.74)scale(.50249)"/><path d="M38.934 212.482c6.652 6.646 12.986 6.646 19.632 0" style="display:inline;fill:none;stroke:#fff;stroke-width:22.5649;stroke-linecap:butt;stroke-linejoin:miter;stroke-miterlimit:10;stroke-dasharray:none;stroke-opacity:1" transform="translate(23.495 -27.74)scale(.50249)"/><path d="M38.934 212.482c6.652 6.646 12.986 6.646 19.632 0" style="display:inline;fill:none;stroke:#ff4136;stroke-width:11.2824;stroke-linecap:round;stroke-linejoin:miter;stroke-miterlimit:10;stroke-dasharray:none;stroke-opacity:1" transform="translate(23.495 -27.74)scale(.50249)"/><path d="M248.555 213.112c-6.652-6.646-12.986-6.646-19.633 0" style="display:inline;fill:none;stroke:#fff;stroke-width:22.5649;stroke-linecap:butt;stroke-linejoin:miter;stroke-miterlimit:10;stroke-dasharray:none;stroke-opacity:1" transform="translate(23.495 -27.74)scale(.50249)"/><path d="M248.555 213.112c-6.652-6.646-12.986-6.646-19.633 0" class="stroke-orange fill-orange" style="display:inline;fill:none;stroke:#ff851b;stroke-width:11.2824;stroke-linecap:round;stroke-linejoin:miter;stroke-miterlimit:10;stroke-dasharray:none;stroke-opacity:1" transform="translate(23.495 -27.74)scale(.50249)"/><path d="m.94 213.112 19.628-19.627" style="display:inline;fill:none;stroke:#fff;stroke-width:22.5649;stroke-linecap:butt;stroke-linejoin:miter;stroke-miterlimit:10;stroke-dasharray:none;stroke-opacity:1" transform="translate(23.495 -27.74)scale(.50249)"/><path d="m.94 213.112 19.628-19.627" class="stroke-orange fill-orange" style="display:inline;fill:none;stroke:#ff851b;stroke-width:11.2824;stroke-linecap:round;stroke-linejoin:miter;stroke-miterlimit:10;stroke-dasharray:none;stroke-opacity:1" transform="translate(23.495 -27.74)scale(.50249)"/><path d="M229.553 212.482c-6.647 6.646-12.98 12.98-19.627 19.633" style="display:inline;fill:none;stroke:#fff;stroke-width:22.5649;stroke-linecap:butt;stroke-linejoin:miter;stroke-miterlimit:10;stroke-dasharray:none;stroke-opacity:1" transform="translate(23.495 -27.74)scale(.50249)"/><path d="M229.553 212.482c-6.647 6.646-12.98 12.98-19.627 19.633" class="stroke-orange fill-orange" style="display:inline;fill:none;stroke:#ff851b;stroke-width:11.2824;stroke-linecap:round;stroke-linejoin:miter;stroke-miterlimit:10;stroke-dasharray:none;stroke-opacity:1" transform="translate(23.495 -27.74)scale(.50249)"/><path d="M21.204 232.115c-19.951-6.652-26.28-12.987-19.633-19.633" style="display:inline;fill:none;stroke:#fff;stroke-width:22.5649;stroke-linecap:butt;stroke-linejoin:miter;stroke-miterlimit:10;stroke-dasharray:none;stroke-opacity:1" transform="translate(23.495 -27.74)scale(.50249)"/><path d="M21.204 232.115c-19.951-6.652-26.28-12.987-19.633-19.633" class="stroke-orange fill-orange" style="display:inline;fill:none;stroke:#ff851b;stroke-width:11.2824;stroke-linecap:round;stroke-linejoin:miter;stroke-miterlimit:10;stroke-dasharray:none;stroke-opacity:1" transform="translate(23.495 -27.74)scale(.50249)"/><path d="M210.556 231.478c-6.652 6.653-12.98 12.987-19.633 19.633" style="display:inline;fill:none;stroke:#fff;stroke-width:22.5649;stroke-linecap:butt;stroke-linejoin:miter;stroke-miterlimit:10;stroke-dasharray:none;stroke-opacity:1" transform="translate(23.495 -27.74)scale(.50249)"/><path d="M210.556 231.478c-6.652 6.653-12.98 12.987-19.633 19.633" class="stroke-orange fill-orange" style="display:inline;fill:none;stroke:#ff851b;stroke-width:11.2824;stroke-linecap:round;stroke-linejoin:miter;stroke-miterlimit:10;stroke-dasharray:none;stroke-opacity:1" transform="translate(23.495 -27.74)scale(.50249)"/><path d="M77.563 269.477c-6.646 6.647-12.98 12.981-19.627 19.633" style="display:inline;fill:none;stroke:#fff;stroke-width:22.5649;stroke-linecap:butt;stroke-linejoin:miter;stroke-miterlimit:10;stroke-dasharray:none;stroke-opacity:1" transform="translate(23.495 -27.74)scale(.50249)"/><path d="M77.563 269.477c-6.646 6.647-12.98 12.981-19.627 19.633" style="display:inline;fill:none;stroke:#ff4136;stroke-width:11.2824;stroke-linecap:round;stroke-linejoin:miter;stroke-miterlimit:10;stroke-dasharray:none;stroke-opacity:1" transform="translate(23.495 -27.74)scale(.50249)"/><path d="M191.56 250.48c-6.653 6.647-16.15 12.981-29.45 19.628" style="display:inline;fill:none;stroke:#fff;stroke-width:22.5649;stroke-linecap:butt;stroke-linejoin:miter;stroke-miterlimit:10;stroke-dasharray:none;stroke-opacity:1" transform="translate(23.495 -27.74)scale(.50249)"/><path d="M191.56 250.48c-6.653 6.647-16.15 12.981-29.45 19.628" class="stroke-orange fill-orange" style="display:inline;fill:none;stroke:#ff851b;stroke-width:11.2824;stroke-linecap:round;stroke-linejoin:miter;stroke-miterlimit:10;stroke-dasharray:none;stroke-opacity:1" transform="translate(23.495 -27.74)scale(.50249)"/><path d="M135.195 231.478c-19.951 6.653-32.614 12.987-39.266 19.633" style="display:inline;fill:none;stroke:#fff;stroke-width:22.5649;stroke-linecap:butt;stroke-linejoin:miter;stroke-miterlimit:10;stroke-dasharray:none;stroke-opacity:1" transform="translate(23.495 -27.74)scale(.50249)"/><path d="M135.195 231.478c-19.951 6.653-32.614 12.987-39.266 19.633" style="display:inline;fill:none;stroke:#ff4136;stroke-width:11.2824;stroke-linecap:round;stroke-linejoin:miter;stroke-miterlimit:10;stroke-dasharray:none;stroke-opacity:1" transform="translate(23.495 -27.74)scale(.50249)"/><path d="m57.936 213.112 19.627-19.627" style="display:inline;fill:none;stroke:#fff;stroke-width:22.5649;stroke-linecap:butt;stroke-linejoin:miter;stroke-miterlimit:10;stroke-dasharray:none;stroke-opacity:1" transform="translate(23.495 -27.74)scale(.50249)"/><path d="m57.936 213.112 19.627-19.627" style="display:inline;fill:none;stroke:#ff4136;stroke-width:11.2824;stroke-linecap:round;stroke-linejoin:miter;stroke-miterlimit:10;stroke-dasharray:none;stroke-opacity:1" transform="translate(23.495 -27.74)scale(.50249)"/><path d="m19.937 194.116 19.633-19.633" style="display:inline;fill:none;stroke:#fff;stroke-width:22.5649;stroke-linecap:butt;stroke-linejoin:miter;stroke-miterlimit:10;stroke-dasharray:none;stroke-opacity:1" transform="translate(23.495 -27.74)scale(.50249)"/><path d="m19.937 194.116 19.633-19.633" class="stroke-orange fill-orange" style="display:inline;fill:none;stroke:#ff851b;stroke-width:11.2824;stroke-linecap:round;stroke-linejoin:miter;stroke-miterlimit:10;stroke-dasharray:none;stroke-opacity:1" transform="translate(23.495 -27.74)scale(.50249)"/><path d="M163.377 269.477c-13.299 6.647-25.967 12.981-39.266 19.633" style="display:inline;fill:none;stroke:#fff;stroke-width:22.5649;stroke-linecap:butt;stroke-linejoin:miter;stroke-miterlimit:10;stroke-dasharray:none;stroke-opacity:1" transform="translate(23.495 -27.74)scale(.50249)"/><path d="M163.377 269.477c-13.299 6.647-25.967 12.981-39.266 19.633" class="stroke-orange fill-orange" style="display:inline;fill:none;stroke:#ff851b;stroke-width:11.2824;stroke-linecap:round;stroke-linejoin:miter;stroke-miterlimit:10;stroke-dasharray:none;stroke-opacity:1" transform="translate(23.495 -27.74)scale(.50249)"/><path d="M133.928 194.116c6.652-6.646 12.98-12.98 19.633-19.633" style="display:inline;fill:none;stroke:#fff;stroke-width:22.5649;stroke-linecap:butt;stroke-linejoin:miter;stroke-miterlimit:10;stroke-dasharray:none;stroke-opacity:1" transform="translate(23.495 -27.74)scale(.50249)"/><path d="M133.928 194.116c6.652-6.646 12.98-12.98 19.633-19.633" class="stroke-orange fill-orange" style="display:inline;fill:none;stroke:#ff851b;stroke-width:11.2824;stroke-linecap:round;stroke-linejoin:miter;stroke-miterlimit:10;stroke-dasharray:none;stroke-opacity:1" transform="translate(23.495 -27.74)scale(.50249)"/><path d="M285.918 213.112c6.646-6.646 9.816-15.09 9.816-26.173" style="display:inline;fill:none;stroke:#fff;stroke-width:22.5649;stroke-linecap:butt;stroke-linejoin:miter;stroke-miterlimit:10;stroke-dasharray:none;stroke-opacity:1" transform="translate(23.495 -27.74)scale(.50249)"/><path d="M285.918 213.112c12.353-17.358-10.38-44.645 11.837-63.337" class="stroke-orange fill-orange" style="display:inline;fill:none;stroke:#ff851b;stroke-width:11.2824;stroke-linecap:round;stroke-linejoin:miter;stroke-miterlimit:10;stroke-dasharray:none;stroke-opacity:1" transform="translate(23.495 -27.74)scale(.50249)"/><path d="M295.734 326.573v-50.974" style="display:inline;fill:none;stroke:#fff;stroke-width:22.5649;stroke-linecap:butt;stroke-linejoin:miter;stroke-miterlimit:10;stroke-dasharray:none;stroke-opacity:1" transform="translate(23.495 -27.74)scale(.50249)"/><path d="M298.348 339.781c-26.57-20.443-4.736-42.05-2.614-64.182" class="stroke-orange fill-orange" style="display:inline;fill:none;stroke:#ff851b;stroke-width:11.2824;stroke-linecap:round;stroke-linejoin:miter;stroke-miterlimit:10;stroke-dasharray:none;stroke-opacity:1" transform="translate(23.495 -27.74)scale(.50249)"/><path d="M58.566 288.474c-6.646 6.652-9.816 15.096-9.816 26.179" style="display:inline;fill:none;stroke:#fff;stroke-width:22.5649;stroke-linecap:butt;stroke-linejoin:miter;stroke-miterlimit:10;stroke-dasharray:none;stroke-opacity:1" transform="translate(23.495 -27.74)scale(.50249)"/><path d="M58.566 288.474C51.92 295.126 4.47 340.884-3.49 351.47" style="display:inline;fill:none;stroke:#ff4136;stroke-width:11.2824;stroke-linecap:round;stroke-linejoin:miter;stroke-miterlimit:10;stroke-dasharray:none;stroke-opacity:1" transform="translate(23.495 -27.74)scale(.50249)"/></g><path d="M95.987 238.496c-40.02-3.626-73.497-31.904-83.754-70.747-4.013-15.198-4.013-33.368 0-48.566 9.68-36.655 39.637-63.734 77.404-69.965 6.991-1.154 22.642-1.154 29.633 0 41.257 6.807 72.625 38.175 79.432 79.431 1.85 11.211.998 27.643-2.028 39.1-9.657 36.57-39.811 63.872-77.228 69.921-4.454.72-18.981 1.232-23.46.826m22.401-5.72c52.756-8.696 86.477-59.58 73.702-111.214-8.706-35.184-37.598-61.553-73.878-67.425-6.899-1.117-21.007-1.118-27.693-.003-39.313 6.559-69.069 36.348-75.386 75.472-1.068 6.615-1.147 20.3-.155 26.736 6.489 42.08 39.946 73.562 82.067 77.22 4.23.368 17.254-.112 21.343-.787" class="stroke-comment fill-comment" style="display:inline;fill:#616161;fill-opacity:1;stroke:none;stroke-width:.352778;stroke-opacity:1" transform="translate(-9.223 -48.352)"/><text x="13.161" y="89.704" class="stroke-comment fill-comment" style="font-style:normal;font-variant:normal;font-weight:700;font-stretch:normal;font-size:18.6667px;line-height:1.25;font-family:Arial;-inkscape-font-specification:&quot;Arial Bold&quot;;fill:#616161;fill-opacity:1;stroke:none" transform="translate(-9.223 -48.352)">
    <tspan x="13.161" y="89.704" class="stroke-comment fill-comment" style="font-style:normal;font-variant:normal;font-weight:700;font-stretch:normal;font-size:18.6667px;font-family:Arial;-inkscape-font-specification:&quot;Arial Bold&quot;;fill:#616161;fill-opacity:1">NW</tspan>
  </text><text x="22.03" y="218.159" class="stroke-comment fill-comment" style="font-style:normal;font-variant:normal;font-weight:700;font-stretch:normal;font-size:18.6667px;line-height:1.25;font-family:Arial;-inkscape-font-specification:&quot;Arial Bold&quot;;fill:#616161;fill-opacity:1;stroke:none" transform="translate(-9.223 -48.352)">
    <tspan x="22.03" y="218.159" class="stroke-comment fill-comment" style="font-style:normal;font-variant:normal;font-weight:700;font-stretch:normal;font-size:18.6667px;font-family:Arial;-inkscape-font-specification:&quot;Arial Bold&quot;;fill:#616161;fill-opacity:1">SW</tspan>
  </text><text x="167.988" y="211.224" class="stroke-comment fill-comment" style="font-style:normal;font-variant:normal;font-weight:700;font-stretch:normal;font-size:18.6667px;line-height:1.25;font-family:Arial;-inkscape-font-specification:&quot;Arial Bold&quot;;fill:#616161;fill-opacity:1;stroke:none" transform="translate(-9.223 -48.352)">
    <tspan x="167.988" y="211.224" class="stroke-comment fill-comment" style="font-style:normal;font-variant:normal;font-weight:700;font-stretch:normal;font-size:18.6667px;font-family:Arial;-inkscape-font-specification:&quot;Arial Bold&quot;;fill:#616161;fill-opacity:1">SE</tspan>
  </text><text x="171.416" y="92.24" class="stroke-comment fill-comment" style="font-style:normal;font-variant:normal;font-weight:700;font-stretch:normal;font-size:18.6667px;line-height:1.25;font-family:Arial;-inkscape-font-specification:&quot;Arial Bold&quot;;fill:#616161;fill-opacity:1;stroke:none" transform="translate(-9.223 -48.352)">
    <tspan x="171.416" y="92.24" class="stroke-comment fill-comment" style="font-style:normal;font-variant:normal;font-weight:700;font-stretch:normal;font-size:18.6667px;font-family:Arial;-inkscape-font-specification:&quot;Arial Bold&quot;;fill:#616161;fill-opacity:1">NE</tspan>
  </text></svg>