<svg xmlns="http://www.w3.org/2000/svg" xml:space="preserve" viewBox="0 0 190.451 190.287">
  <path d="M136.104 149.648c7.337 7.337 14.33 14.323 21.668 21.66" style="display:inline;fill:none;stroke:#fff;stroke-width:22.5649;stroke-linecap:butt;stroke-linejoin:miter;stroke-miterlimit:10;stroke-dasharray:none;stroke-opacity:1" transform="translate(23.495 -27.74)scale(.50249)"/>
  <path d="M136.104 149.648c7.337 7.337 14.33 14.323 21.668 21.66" class="stroke-orange fill-orange" style="display:inline;fill:none;stroke:#ff851b;stroke-width:11.2824;stroke-linecap:round;stroke-linejoin:miter;stroke-miterlimit:10;stroke-dasharray:none;stroke-opacity:1" transform="translate(23.495 -27.74)scale(.50249)"/>
  <path d="m115.844 192.28-21.668-21.668" style="display:inline;fill:none;stroke:#fff;stroke-width:22.5649;stroke-linecap:butt;stroke-linejoin:miter;stroke-miterlimit:10;stroke-dasharray:none;stroke-opacity:1" transform="translate(23.495 -27.74)scale(.50249)"/>
  <path d="m115.844 192.28-21.668-21.668" style="display:inline;fill:none;stroke:#ff4136;stroke-width:11.2824;stroke-linecap:round;stroke-linejoin:miter;stroke-miterlimit:10;stroke-dasharray:none;stroke-opacity:1" transform="translate(23.495 -27.74)scale(.50249)"/>
  <path d="M62.73 233.504c7.337 7.345 14.322 14.33 21.66 21.668" style="display:inline;fill:none;stroke:#fff;stroke-width:22.5649;stroke-linecap:butt;stroke-linejoin:miter;stroke-miterlimit:10;stroke-dasharray:none;stroke-opacity:1" transform="translate(23.495 -27.74)scale(.50249)"/>
  <path d="M62.73 233.504c7.337 7.345 14.322 14.33 21.66 21.668" style="display:inline;fill:none;stroke:#ff4136;stroke-width:11.2824;stroke-linecap:round;stroke-linejoin:miter;stroke-miterlimit:10;stroke-dasharray:none;stroke-opacity:1" transform="translate(23.495 -27.74)scale(.50249)"/>
  <path d="M262.6 265.654c-7.338-7.338-14.331-14.323-21.669-21.66" style="display:inline;fill:none;stroke:#fff;stroke-width:22.5649;stroke-linecap:butt;stroke-linejoin:miter;stroke-miterlimit:10;stroke-dasharray:none;stroke-opacity:1" transform="translate(23.495 -27.74)scale(.50249)"/>
  <path d="M262.6 265.654c-7.338-7.338-14.331-14.323-21.669-21.66" style="display:inline;fill:none;stroke:#ff4136;stroke-width:11.2824;stroke-linecap:round;stroke-linejoin:miter;stroke-miterlimit:10;stroke-dasharray:none;stroke-opacity:1" transform="translate(23.495 -27.74)scale(.50249)"/>
  <path d="m62.73 296.403 21.66 21.66" style="display:inline;fill:none;stroke:#fff;stroke-width:22.5649;stroke-linecap:butt;stroke-linejoin:miter;stroke-miterlimit:10;stroke-dasharray:none;stroke-opacity:1" transform="translate(23.495 -27.74)scale(.50249)"/>
  <path d="m62.73 296.403 21.66 21.66" class="stroke-orange fill-orange" style="display:inline;fill:none;stroke:#ff851b;stroke-width:11.2824;stroke-linecap:round;stroke-linejoin:miter;stroke-miterlimit:10;stroke-dasharray:none;stroke-opacity:1" transform="translate(23.495 -27.74)scale(.50249)"/>
  <path d="M10.312 149.648c7.337 7.337 14.33 14.323 21.668 21.66" style="display:inline;fill:none;stroke:#fff;stroke-width:22.5649;stroke-linecap:butt;stroke-linejoin:miter;stroke-miterlimit:10;stroke-dasharray:none;stroke-opacity:1" transform="translate(23.495 -27.74)scale(.50249)"/>
  <path d="M10.312 149.648c7.337 7.337 14.33 14.323 21.668 21.66" class="stroke-orange fill-orange" style="display:inline;fill:none;stroke:#ff851b;stroke-width:11.2824;stroke-linecap:round;stroke-linejoin:miter;stroke-miterlimit:10;stroke-dasharray:none;stroke-opacity:1" transform="translate(23.495 -27.74)scale(.50249)"/>
  <path d="M83.694 317.367c7.337 7.338 14.322 14.33 21.66 21.668" style="display:inline;fill:none;stroke:#fff;stroke-width:22.5649;stroke-linecap:butt;stroke-linejoin:miter;stroke-miterlimit:10;stroke-dasharray:none;stroke-opacity:1" transform="translate(23.495 -27.74)scale(.50249)"/>
  <path d="M83.694 317.367c7.337 7.338 14.322 14.33 21.66 21.668" class="stroke-orange fill-orange" style="display:inline;fill:none;stroke:#ff851b;stroke-width:11.2824;stroke-linecap:round;stroke-linejoin:miter;stroke-miterlimit:10;stroke-dasharray:none;stroke-opacity:1" transform="translate(23.495 -27.74)scale(.50249)"/>
  <path d="M-17.872 139.51c12.226 0 21.55 3.497 28.888 10.834" style="display:inline;fill:none;stroke:#fff;stroke-width:22.5649;stroke-linecap:butt;stroke-linejoin:miter;stroke-miterlimit:10;stroke-dasharray:none;stroke-opacity:1" transform="translate(23.495 -27.74)scale(.50249)"/>
  <path d="M-6.631 137.44c10.451 6.211 10.31 5.567 17.647 12.904" class="stroke-orange fill-orange" style="display:inline;fill:none;stroke:#ff851b;stroke-width:11.2824;stroke-linecap:round;stroke-linejoin:miter;stroke-miterlimit:10;stroke-dasharray:none;stroke-opacity:1" transform="translate(23.495 -27.74)scale(.50249)"/>
  <path d="m94.872 171.308-21.66-21.66" style="display:inline;fill:none;stroke:#fff;stroke-width:22.5649;stroke-linecap:butt;stroke-linejoin:miter;stroke-miterlimit:10;stroke-dasharray:none;stroke-opacity:1" transform="translate(23.495 -27.74)scale(.50249)"/>
  <path d="m94.872 171.308-21.66-21.66" style="display:inline;fill:none;stroke:#ff4136;stroke-width:11.2824;stroke-linecap:round;stroke-linejoin:miter;stroke-miterlimit:10;stroke-dasharray:none;stroke-opacity:1" transform="translate(23.495 -27.74)scale(.50249)"/>
  <path d="M31.284 170.612a56595 56595 0 0 1 21.66 21.668" style="display:inline;fill:none;stroke:#fff;stroke-width:22.5649;stroke-linecap:butt;stroke-linejoin:miter;stroke-miterlimit:10;stroke-dasharray:none;stroke-opacity:1" transform="translate(23.495 -27.74)scale(.50249)"/>
  <path d="M31.284 170.612a56595 56595 0 0 1 21.66 21.668" class="stroke-orange fill-orange" style="display:inline;fill:none;stroke:#ff851b;stroke-width:11.2824;stroke-linecap:round;stroke-linejoin:miter;stroke-miterlimit:10;stroke-dasharray:none;stroke-opacity:1" transform="translate(23.495 -27.74)scale(.50249)"/>
  <path d="M284.572 287.478a4578 4578 0 0 1-22.677-22.52" style="display:inline;fill:none;stroke:#fff;stroke-width:22.5649;stroke-linecap:butt;stroke-linejoin:miter;stroke-miterlimit:10;stroke-dasharray:none;stroke-opacity:1" transform="translate(23.495 -27.74)scale(.50249)"/>
  <path d="M284.572 287.478a4578 4578 0 0 1-22.677-22.52" style="display:inline;fill:none;stroke:#ff4136;stroke-width:11.2824;stroke-linecap:round;stroke-linejoin:miter;stroke-miterlimit:10;stroke-dasharray:none;stroke-opacity:1" transform="translate(23.495 -27.74)scale(.50249)"/>
  <path d="m83.694 254.475 21.66 21.66" style="display:inline;fill:none;stroke:#fff;stroke-width:22.5649;stroke-linecap:butt;stroke-linejoin:miter;stroke-miterlimit:10;stroke-dasharray:none;stroke-opacity:1" transform="translate(23.495 -27.74)scale(.50249)"/>
  <path d="m83.694 254.475 21.66 21.66" style="display:inline;fill:none;stroke:#ff4136;stroke-width:11.2824;stroke-linecap:round;stroke-linejoin:miter;stroke-miterlimit:10;stroke-dasharray:none;stroke-opacity:1" transform="translate(23.495 -27.74)scale(.50249)"/>
  <path d="M136.808 191.576c-7.338 7.337-14.331 7.337-21.668 0" style="display:inline;fill:none;stroke:#fff;stroke-width:22.5649;stroke-linecap:butt;stroke-linejoin:miter;stroke-miterlimit:10;stroke-dasharray:none;stroke-opacity:1" transform="translate(23.495 -27.74)scale(.50249)"/>
  <path d="M136.808 191.576c-7.338 7.337-14.331 7.337-21.668 0" style="display:inline;fill:none;stroke:#ff4136;stroke-width:11.2824;stroke-linecap:round;stroke-linejoin:miter;stroke-miterlimit:10;stroke-dasharray:none;stroke-opacity:1" transform="translate(23.495 -27.74)scale(.50249)"/>
  <path d="M25.519 212.54c18.343 7.337 30.57 14.33 37.907 21.668" style="display:inline;fill:none;stroke:#fff;stroke-width:22.5649;stroke-linecap:butt;stroke-linejoin:miter;stroke-miterlimit:10;stroke-dasharray:none;stroke-opacity:1" transform="translate(23.495 -27.74)scale(.50249)"/>
  <path d="M25.519 212.54c18.343 7.337 30.57 14.33 37.907 21.668" style="display:inline;fill:none;stroke:#ff4136;stroke-width:11.2824;stroke-linecap:round;stroke-linejoin:miter;stroke-miterlimit:10;stroke-dasharray:none;stroke-opacity:1" transform="translate(23.495 -27.74)scale(.50249)"/>
  <path d="M241.627 244.69c-7.337-7.338-14.322-14.331-21.66-21.668" style="display:inline;fill:none;stroke:#fff;stroke-width:22.5649;stroke-linecap:butt;stroke-linejoin:miter;stroke-miterlimit:10;stroke-dasharray:none;stroke-opacity:1" transform="translate(23.495 -27.74)scale(.50249)"/>
  <path d="M241.627 244.69c-7.337-7.338-14.322-14.331-21.66-21.668" style="display:inline;fill:none;stroke:#ff4136;stroke-width:11.2824;stroke-linecap:round;stroke-linejoin:miter;stroke-miterlimit:10;stroke-dasharray:none;stroke-opacity:1" transform="translate(23.495 -27.74)scale(.50249)"/>
  <path d="M63.426 275.44c-7.337 7.337-7.337 14.322 0 21.66" style="display:inline;fill:none;stroke:#fff;stroke-width:22.5649;stroke-linecap:butt;stroke-linejoin:miter;stroke-miterlimit:10;stroke-dasharray:none;stroke-opacity:1" transform="translate(23.495 -27.74)scale(.50249)"/>
  <path d="M63.426 275.44c-7.337 7.337-7.337 14.322 0 21.66" class="stroke-orange fill-orange" style="display:inline;fill:none;stroke:#ff851b;stroke-width:11.2824;stroke-linecap:round;stroke-linejoin:miter;stroke-miterlimit:10;stroke-dasharray:none;stroke-opacity:1" transform="translate(23.495 -27.74)scale(.50249)"/>
  <path d="M157.075 170.612c7.338 7.337 14.323 14.323 21.66 21.668" style="display:inline;fill:none;stroke:#fff;stroke-width:22.5649;stroke-linecap:butt;stroke-linejoin:miter;stroke-miterlimit:10;stroke-dasharray:none;stroke-opacity:1" transform="translate(23.495 -27.74)scale(.50249)"/>
  <path d="M157.075 170.612c7.338 7.337 14.323 14.323 21.66 21.668" class="stroke-orange fill-orange" style="display:inline;fill:none;stroke:#ff851b;stroke-width:11.2824;stroke-linecap:round;stroke-linejoin:miter;stroke-miterlimit:10;stroke-dasharray:none;stroke-opacity:1" transform="translate(23.495 -27.74)scale(.50249)"/>
  <path d="M115.14 150.344c7.337-7.337 14.33-7.337 21.668 0" style="display:inline;fill:none;stroke:#fff;stroke-width:22.5649;stroke-linecap:butt;stroke-linejoin:miter;stroke-miterlimit:10;stroke-dasharray:none;stroke-opacity:1" transform="translate(23.495 -27.74)scale(.50249)"/>
  <path d="M115.14 150.344c7.337-7.337 14.33-7.337 21.668 0" class="stroke-orange fill-orange" style="display:inline;fill:none;stroke:#ff851b;stroke-width:11.2824;stroke-linecap:round;stroke-linejoin:miter;stroke-miterlimit:10;stroke-dasharray:none;stroke-opacity:1" transform="translate(23.495 -27.74)scale(.50249)"/>
  <path d="M125.622 349.165c7.337 0 16.95-6.117 29.787-18.953" style="display:inline;fill:none;stroke:#fff;stroke-width:22.5649;stroke-linecap:butt;stroke-linejoin:miter;stroke-miterlimit:10;stroke-dasharray:none;stroke-opacity:1" transform="translate(23.495 -27.74)scale(.50249)"/>
  <path d="M125.622 349.165c7.337 0 16.95-6.117 29.787-18.953" class="stroke-orange fill-orange" style="display:inline;fill:none;stroke:#ff851b;stroke-width:11.2824;stroke-linecap:round;stroke-linejoin:miter;stroke-miterlimit:10;stroke-dasharray:none;stroke-opacity:1" transform="translate(23.495 -27.74)scale(.50249)"/>
  <path d="M204.768 195.158c-3.668-12.844-7.165-25.07-10.834-37.915" style="display:inline;fill:none;stroke:#fff;stroke-width:22.5649;stroke-linecap:butt;stroke-linejoin:miter;stroke-miterlimit:10;stroke-dasharray:none;stroke-opacity:1" transform="translate(23.495 -27.74)scale(.50249)"/>
  <path d="M204.768 195.158c-3.668-12.844-7.165-25.07-10.834-37.915" style="display:inline;fill:none;stroke:#ff4136;stroke-width:11.2824;stroke-linecap:round;stroke-linejoin:miter;stroke-miterlimit:10;stroke-dasharray:none;stroke-opacity:1" transform="translate(23.495 -27.74)scale(.50249)"/>
  <path d="M94.176 171.308a56551 56551 0 0 1 21.668-21.66" style="display:inline;fill:none;stroke:#fff;stroke-width:22.5649;stroke-linecap:butt;stroke-linejoin:miter;stroke-miterlimit:10;stroke-dasharray:none;stroke-opacity:1" transform="translate(23.495 -27.74)scale(.50249)"/>
  <path d="M94.176 171.308a56551 56551 0 0 1 21.668-21.66" class="stroke-orange fill-orange" style="display:inline;fill:none;stroke:#ff851b;stroke-width:11.2824;stroke-linecap:round;stroke-linejoin:miter;stroke-miterlimit:10;stroke-dasharray:none;stroke-opacity:1" transform="translate(23.495 -27.74)scale(.50249)"/>
  <path d="M194.286 158.471c-3.668-12.844-8.91-15.464-16.247-8.127" style="display:inline;fill:none;stroke:#fff;stroke-width:22.5649;stroke-linecap:butt;stroke-linejoin:miter;stroke-miterlimit:10;stroke-dasharray:none;stroke-opacity:1" transform="translate(23.495 -27.74)scale(.50249)"/>
  <path d="M194.286 158.471c-3.668-12.844-8.91-15.464-16.247-8.127" style="display:inline;fill:none;stroke:#ff4136;stroke-width:11.2824;stroke-linecap:round;stroke-linejoin:miter;stroke-miterlimit:10;stroke-dasharray:none;stroke-opacity:1" transform="translate(23.495 -27.74)scale(.50249)"/>
  <path d="M163.537 212.54c-18.344 7.337-30.578 10.834-37.915 10.834" style="display:inline;fill:none;stroke:#fff;stroke-width:22.5649;stroke-linecap:butt;stroke-linejoin:miter;stroke-miterlimit:10;stroke-dasharray:none;stroke-opacity:1" transform="translate(23.495 -27.74)scale(.50249)"/>
  <path d="M163.537 212.54c-18.344 7.337-30.578 10.834-37.915 10.834" class="stroke-orange fill-orange" style="display:inline;fill:none;stroke:#ff851b;stroke-width:11.2824;stroke-linecap:round;stroke-linejoin:miter;stroke-miterlimit:10;stroke-dasharray:none;stroke-opacity:1" transform="translate(23.495 -27.74)scale(.50249)"/>
  <path d="m178.736 149.648-21.66 21.66" style="display:inline;fill:none;stroke:#fff;stroke-width:22.5649;stroke-linecap:butt;stroke-linejoin:miter;stroke-miterlimit:10;stroke-dasharray:none;stroke-opacity:1" transform="translate(23.495 -27.74)scale(.50249)"/>
  <path d="m178.736 149.648-21.66 21.66" style="display:inline;fill:none;stroke:#ff4136;stroke-width:11.2824;stroke-linecap:round;stroke-linejoin:miter;stroke-miterlimit:10;stroke-dasharray:none;stroke-opacity:1" transform="translate(23.495 -27.74)scale(.50249)"/>
  <path d="M105.354 233.504c-7.338 7.345-14.323 14.33-21.66 21.668" style="display:inline;fill:none;stroke:#fff;stroke-width:22.5649;stroke-linecap:butt;stroke-linejoin:miter;stroke-miterlimit:10;stroke-dasharray:none;stroke-opacity:1" transform="translate(23.495 -27.74)scale(.50249)"/>
  <path d="M105.354 233.504c-7.338 7.345-14.323 14.33-21.66 21.668" class="stroke-orange fill-orange" style="display:inline;fill:none;stroke:#ff851b;stroke-width:11.2824;stroke-linecap:round;stroke-linejoin:miter;stroke-miterlimit:10;stroke-dasharray:none;stroke-opacity:1" transform="translate(23.495 -27.74)scale(.50249)"/>
  <path d="M157.772 170.612c-7.338 7.337-14.331 14.323-21.668 21.668" style="display:inline;fill:none;stroke:#fff;stroke-width:22.5649;stroke-linecap:butt;stroke-linejoin:miter;stroke-miterlimit:10;stroke-dasharray:none;stroke-opacity:1" transform="translate(23.495 -27.74)scale(.50249)"/>
  <path d="M157.772 170.612c-7.338 7.337-14.331 14.323-21.668 21.668" style="display:inline;fill:none;stroke:#ff4136;stroke-width:11.2824;stroke-linecap:round;stroke-linejoin:miter;stroke-miterlimit:10;stroke-dasharray:none;stroke-opacity:1" transform="translate(23.495 -27.74)scale(.50249)"/>
  <path d="M73.212 192.28c7.337-7.345 14.322-14.33 21.66-21.668" style="display:inline;fill:none;stroke:#fff;stroke-width:22.5649;stroke-linecap:butt;stroke-linejoin:miter;stroke-miterlimit:10;stroke-dasharray:none;stroke-opacity:1" transform="translate(23.495 -27.74)scale(.50249)"/>
  <path d="M73.212 192.28c7.337-7.345 14.322-14.33 21.66-21.668" class="stroke-orange fill-orange" style="display:inline;fill:none;stroke:#ff851b;stroke-width:11.2824;stroke-linecap:round;stroke-linejoin:miter;stroke-miterlimit:10;stroke-dasharray:none;stroke-opacity:1" transform="translate(23.495 -27.74)scale(.50249)"/>
  <path d="M73.908 150.344c-7.337-7.337-14.323-7.337-21.66 0" style="display:inline;fill:none;stroke:#fff;stroke-width:22.5649;stroke-linecap:butt;stroke-linejoin:miter;stroke-miterlimit:10;stroke-dasharray:none;stroke-opacity:1" transform="translate(23.495 -27.74)scale(.50249)"/>
  <path d="M73.908 150.344c-7.337-7.337-14.323-7.337-21.66 0" style="display:inline;fill:none;stroke:#ff4136;stroke-width:11.2824;stroke-linecap:round;stroke-linejoin:miter;stroke-miterlimit:10;stroke-dasharray:none;stroke-opacity:1" transform="translate(23.495 -27.74)scale(.50249)"/>
  <path d="m84.39 254.475-21.66 21.66" style="display:inline;fill:none;stroke:#fff;stroke-width:22.5649;stroke-linecap:butt;stroke-linejoin:miter;stroke-miterlimit:10;stroke-dasharray:none;stroke-opacity:1" transform="translate(23.495 -27.74)scale(.50249)"/>
  <path d="m84.39 254.475-21.66 21.66" class="stroke-orange fill-orange" style="display:inline;fill:none;stroke:#ff851b;stroke-width:11.2824;stroke-linecap:round;stroke-linejoin:miter;stroke-miterlimit:10;stroke-dasharray:none;stroke-opacity:1" transform="translate(23.495 -27.74)scale(.50249)"/>
  <path d="M84.39 317.367c-7.338 7.338-14.323 14.33-21.66 21.668" style="display:inline;fill:none;stroke:#fff;stroke-width:22.5649;stroke-linecap:butt;stroke-linejoin:miter;stroke-miterlimit:10;stroke-dasharray:none;stroke-opacity:1" transform="translate(23.495 -27.74)scale(.50249)"/>
  <path d="M84.39 317.367c-7.338 7.338-14.323 14.33-21.66 21.668" style="display:inline;fill:none;stroke:#ff4136;stroke-width:11.2824;stroke-linecap:round;stroke-linejoin:miter;stroke-miterlimit:10;stroke-dasharray:none;stroke-opacity:1" transform="translate(23.495 -27.74)scale(.50249)"/>
  <path d="M11.016 191.576c-7.337 7.337-2.096 14.33 16.247 21.668" style="display:inline;fill:none;stroke:#fff;stroke-width:22.5649;stroke-linecap:butt;stroke-linejoin:miter;stroke-miterlimit:10;stroke-dasharray:none;stroke-opacity:1" transform="translate(23.495 -27.74)scale(.50249)"/>
  <path d="M11.016 191.576c-7.337 7.337-2.096 14.33 16.247 21.668" style="display:inline;fill:none;stroke:#ff4136;stroke-width:11.2824;stroke-linecap:round;stroke-linejoin:miter;stroke-miterlimit:10;stroke-dasharray:none;stroke-opacity:1" transform="translate(23.495 -27.74)scale(.50249)"/>
  <path d="m190.876 294.745 29.787-29.788" style="display:inline;fill:none;stroke:#fff;stroke-width:22.5649;stroke-linecap:butt;stroke-linejoin:miter;stroke-miterlimit:10;stroke-dasharray:none;stroke-opacity:1" transform="translate(23.495 -27.74)scale(.50249)"/>
  <path d="m190.876 294.745 29.787-29.788" class="stroke-orange fill-orange" style="display:inline;fill:none;stroke:#ff851b;stroke-width:11.2824;stroke-linecap:round;stroke-linejoin:miter;stroke-miterlimit:10;stroke-dasharray:none;stroke-opacity:1" transform="translate(23.495 -27.74)scale(.50249)"/>
  <path d="M31.98 170.612c-7.337 7.337-14.33 14.323-21.668 21.668" style="display:inline;fill:none;stroke:#fff;stroke-width:22.5649;stroke-linecap:butt;stroke-linejoin:miter;stroke-miterlimit:10;stroke-dasharray:none;stroke-opacity:1" transform="translate(23.495 -27.74)scale(.50249)"/>
  <path d="M31.98 170.612c-7.337 7.337-14.33 14.323-21.668 21.668" style="display:inline;fill:none;stroke:#ff4136;stroke-width:11.2824;stroke-linecap:round;stroke-linejoin:miter;stroke-miterlimit:10;stroke-dasharray:none;stroke-opacity:1" transform="translate(23.495 -27.74)scale(.50249)"/>
  <path d="m240.931 244.69 21.668-21.668" style="display:inline;fill:none;stroke:#fff;stroke-width:22.5649;stroke-linecap:butt;stroke-linejoin:miter;stroke-miterlimit:10;stroke-dasharray:none;stroke-opacity:1" transform="translate(23.495 -27.74)scale(.50249)"/>
  <path d="m240.931 244.69 21.668-21.668" class="stroke-orange fill-orange" style="display:inline;fill:none;stroke:#ff851b;stroke-width:11.2824;stroke-linecap:round;stroke-linejoin:miter;stroke-miterlimit:10;stroke-dasharray:none;stroke-opacity:1" transform="translate(23.495 -27.74)scale(.50249)"/>
  <path d="m52.944 149.648-21.66 21.66" style="display:inline;fill:none;stroke:#fff;stroke-width:22.5649;stroke-linecap:butt;stroke-linejoin:miter;stroke-miterlimit:10;stroke-dasharray:none;stroke-opacity:1" transform="translate(23.495 -27.74)scale(.50249)"/>
  <path d="m52.944 149.648-21.66 21.66" style="display:inline;fill:none;stroke:#ff4136;stroke-width:11.2824;stroke-linecap:round;stroke-linejoin:miter;stroke-miterlimit:10;stroke-dasharray:none;stroke-opacity:1" transform="translate(23.495 -27.74)scale(.50249)"/>
  <path d="m105.354 296.403-21.66 21.66" style="display:inline;fill:none;stroke:#fff;stroke-width:22.5649;stroke-linecap:butt;stroke-linejoin:miter;stroke-miterlimit:10;stroke-dasharray:none;stroke-opacity:1" transform="translate(23.495 -27.74)scale(.50249)"/>
  <path d="m105.354 296.403-21.66 21.66" style="display:inline;fill:none;stroke:#ff4136;stroke-width:11.2824;stroke-linecap:round;stroke-linejoin:miter;stroke-miterlimit:10;stroke-dasharray:none;stroke-opacity:1" transform="translate(23.495 -27.74)scale(.50249)"/>
  <path d="M220.663 223.726c-7.337-7.338-12.578-16.951-16.247-29.788" style="display:inline;fill:none;stroke:#fff;stroke-width:22.5649;stroke-linecap:butt;stroke-linejoin:miter;stroke-miterlimit:10;stroke-dasharray:none;stroke-opacity:1" transform="translate(23.495 -27.74)scale(.50249)"/>
  <path d="M220.663 223.726c-7.337-7.338-12.578-16.951-16.247-29.788" style="display:inline;fill:none;stroke:#ff4136;stroke-width:11.2824;stroke-linecap:round;stroke-linejoin:miter;stroke-miterlimit:10;stroke-dasharray:none;stroke-opacity:1" transform="translate(23.495 -27.74)scale(.50249)"/>
  <path d="M104.658 338.331c7.337 7.338 14.33 10.834 21.668 10.834" style="display:inline;fill:none;stroke:#fff;stroke-width:22.5649;stroke-linecap:butt;stroke-linejoin:miter;stroke-miterlimit:10;stroke-dasharray:none;stroke-opacity:1" transform="translate(23.495 -27.74)scale(.50249)"/>
  <path d="M104.658 338.331c7.337 7.338 14.33 10.834 21.668 10.834" class="stroke-orange fill-orange" style="display:inline;fill:none;stroke:#ff851b;stroke-width:11.2824;stroke-linecap:round;stroke-linejoin:miter;stroke-miterlimit:10;stroke-dasharray:none;stroke-opacity:1" transform="translate(23.495 -27.74)scale(.50249)"/>
  <path d="M178.04 191.576c7.337 7.337 2.096 14.33-16.248 21.668" style="display:inline;fill:none;stroke:#fff;stroke-width:22.5649;stroke-linecap:butt;stroke-linejoin:miter;stroke-miterlimit:10;stroke-dasharray:none;stroke-opacity:1" transform="translate(23.495 -27.74)scale(.50249)"/>
  <path d="M178.04 191.576c7.337 7.337 2.096 14.33-16.248 21.668" class="stroke-orange fill-orange" style="display:inline;fill:none;stroke:#ff851b;stroke-width:11.2824;stroke-linecap:round;stroke-linejoin:miter;stroke-miterlimit:10;stroke-dasharray:none;stroke-opacity:1" transform="translate(23.495 -27.74)scale(.50249)"/>
  <path d="m219.967 265.654 21.66-21.66" style="display:inline;fill:none;stroke:#fff;stroke-width:22.5649;stroke-linecap:butt;stroke-linejoin:miter;stroke-miterlimit:10;stroke-dasharray:none;stroke-opacity:1" transform="translate(23.495 -27.74)scale(.50249)"/>
  <path d="m219.967 265.654 21.66-21.66" class="stroke-orange fill-orange" style="display:inline;fill:none;stroke:#ff851b;stroke-width:11.2824;stroke-linecap:round;stroke-linejoin:miter;stroke-miterlimit:10;stroke-dasharray:none;stroke-opacity:1" transform="translate(23.495 -27.74)scale(.50249)"/>
  <path d="M104.658 275.44c7.337 7.337 7.337 14.322 0 21.66" style="display:inline;fill:none;stroke:#fff;stroke-width:22.5649;stroke-linecap:butt;stroke-linejoin:miter;stroke-miterlimit:10;stroke-dasharray:none;stroke-opacity:1" transform="translate(23.495 -27.74)scale(.50249)"/>
  <path d="M104.658 275.44c7.337 7.337 7.337 14.322 0 21.66" style="display:inline;fill:none;stroke:#ff4136;stroke-width:11.2824;stroke-linecap:round;stroke-linejoin:miter;stroke-miterlimit:10;stroke-dasharray:none;stroke-opacity:1" transform="translate(23.495 -27.74)scale(.50249)"/>
  <path d="m154.189 331.432 37.915-37.915" style="display:inline;fill:none;stroke:#fff;stroke-width:22.5649;stroke-linecap:butt;stroke-linejoin:miter;stroke-miterlimit:10;stroke-dasharray:none;stroke-opacity:1" transform="translate(23.495 -27.74)scale(.50249)"/>
  <path d="m154.189 331.432 37.915-37.915" class="stroke-orange fill-orange" style="display:inline;fill:none;stroke:#ff851b;stroke-width:11.2824;stroke-linecap:round;stroke-linejoin:miter;stroke-miterlimit:10;stroke-dasharray:none;stroke-opacity:1" transform="translate(23.495 -27.74)scale(.50249)"/>
  <path d="M52.248 191.576c7.337 7.337 14.323 7.337 21.66 0" style="display:inline;fill:none;stroke:#fff;stroke-width:22.5649;stroke-linecap:butt;stroke-linejoin:miter;stroke-miterlimit:10;stroke-dasharray:none;stroke-opacity:1" transform="translate(23.495 -27.74)scale(.50249)"/>
  <path d="M52.248 191.576c7.337 7.337 14.323 7.337 21.66 0" class="stroke-orange fill-orange" style="display:inline;fill:none;stroke:#ff851b;stroke-width:11.2824;stroke-linecap:round;stroke-linejoin:miter;stroke-miterlimit:10;stroke-dasharray:none;stroke-opacity:1" transform="translate(23.495 -27.74)scale(.50249)"/>
  <path d="M126.326 223.374c-7.338 0-14.331 3.496-21.668 10.834" style="display:inline;fill:none;stroke:#fff;stroke-width:22.5649;stroke-linecap:butt;stroke-linejoin:miter;stroke-miterlimit:10;stroke-dasharray:none;stroke-opacity:1" transform="translate(23.495 -27.74)scale(.50249)"/>
  <path d="M126.326 223.374c-7.338 0-14.331 3.496-21.668 10.834" class="stroke-orange fill-orange" style="display:inline;fill:none;stroke:#ff851b;stroke-width:11.2824;stroke-linecap:round;stroke-linejoin:miter;stroke-miterlimit:10;stroke-dasharray:none;stroke-opacity:1" transform="translate(23.495 -27.74)scale(.50249)"/>
  <path d="M261.895 223.726c7.338-7.338 16.897-17.671 29.616-32.025" style="display:inline;fill:none;stroke:#fff;stroke-width:22.5649;stroke-linecap:butt;stroke-linejoin:miter;stroke-miterlimit:10;stroke-dasharray:none;stroke-opacity:1" transform="translate(23.495 -27.74)scale(.50249)"/>
  <path d="M261.895 223.726c7.338-7.338 16.897-17.671 29.616-32.025" class="stroke-orange fill-orange" style="display:inline;fill:none;stroke:#ff851b;stroke-width:11.2824;stroke-linecap:round;stroke-linejoin:miter;stroke-miterlimit:10;stroke-dasharray:none;stroke-opacity:1" transform="translate(23.495 -27.74)scale(.50249)"/>
  <path d="M318.49 318.024c-15.473-13.282-26.659-23.38-34.684-31.297" style="display:inline;fill:none;stroke:#fff;stroke-width:22.5649;stroke-linecap:butt;stroke-linejoin:miter;stroke-miterlimit:10;stroke-dasharray:none;stroke-opacity:1" transform="translate(23.495 -27.74)scale(.50249)"/>
  <path d="M310.774 313.22c-15.472-13.283-18.943-18.577-26.968-26.493" style="display:inline;fill:none;stroke:#ff4136;stroke-width:11.2824;stroke-linecap:round;stroke-linejoin:miter;stroke-miterlimit:10;stroke-dasharray:none;stroke-opacity:1" transform="translate(23.495 -27.74)scale(.50249)"/>
  <path d="M63.426 338.331c-7.337 7.338-16.654 10.834-28.888 10.834" style="display:inline;fill:none;stroke:#fff;stroke-width:22.5649;stroke-linecap:butt;stroke-linejoin:miter;stroke-miterlimit:10;stroke-dasharray:none;stroke-opacity:1" transform="translate(23.495 -27.74)scale(.50249)"/>
  <path d="M63.426 338.331c-7.337 7.338-16.654 10.834-28.888 10.834" style="display:inline;fill:none;stroke:#ff4136;stroke-width:11.2824;stroke-linecap:round;stroke-linejoin:miter;stroke-miterlimit:10;stroke-dasharray:none;stroke-opacity:1" transform="translate(23.495 -27.74)scale(.50249)"/>
  <path d="M290.298 193.07c12.727-14.362 23.342-27.097 32.909-39.488" style="display:inline;fill:none;stroke:#fff;stroke-width:22.5649;stroke-linecap:butt;stroke-linejoin:miter;stroke-miterlimit:10;stroke-dasharray:none;stroke-opacity:1" transform="translate(23.495 -27.74)scale(.50249)"/>
  <path d="M289.147 194.99c12.727-14.363 10.918-12.011 20.484-24.402" class="stroke-orange fill-orange" style="display:inline;fill:none;stroke:#ff851b;stroke-width:11.2824;stroke-linecap:round;stroke-linejoin:miter;stroke-miterlimit:10;stroke-dasharray:none;stroke-opacity:1" transform="translate(23.495 -27.74)scale(.50249)"/>
  <path d="M35.703 349.165c-12.226 0-30.413.118-56.376.36" style="display:inline;fill:none;stroke:#fff;stroke-width:22.5649;stroke-linecap:butt;stroke-linejoin:miter;stroke-miterlimit:10;stroke-dasharray:none;stroke-opacity:1" transform="translate(23.495 -27.74)scale(.50249)"/>
  <path d="M35.703 349.165c-12.226 0-17.99.118-43.952.36" style="display:inline;fill:none;stroke:#ff4136;stroke-width:11.2824;stroke-linecap:round;stroke-linejoin:miter;stroke-miterlimit:10;stroke-dasharray:none;stroke-opacity:1" transform="translate(23.495 -27.74)scale(.50249)"/>
  <path d="M95.987 238.496c-40.02-3.626-73.497-31.904-83.754-70.747-4.013-15.198-4.013-33.368 0-48.566 9.68-36.655 39.637-63.734 77.404-69.965 6.991-1.154 22.642-1.154 29.633 0 41.257 6.807 72.625 38.175 79.432 79.431 1.85 11.211.998 27.643-2.028 39.1-9.657 36.57-39.811 63.872-77.228 69.921-4.454.72-18.981 1.232-23.46.826m22.401-5.72c52.756-8.696 86.477-59.58 73.702-111.214-8.706-35.184-37.598-61.553-73.878-67.425-6.899-1.117-21.007-1.118-27.693-.003-39.313 6.559-69.069 36.348-75.386 75.472-1.068 6.615-1.147 20.3-.155 26.736 6.489 42.08 39.946 73.562 82.067 77.22 4.23.368 17.254-.112 21.343-.787" class="stroke-comment fill-comment" style="display:inline;fill:#616161;fill-opacity:1;stroke:none;stroke-width:.352778;stroke-opacity:1" transform="translate(-9.223 -48.352)"/>
  <text x="14.898" y="86.607" class="stroke-comment fill-comment" style="font-style:normal;font-variant:normal;font-weight:700;font-stretch:normal;font-size:18.6667px;line-height:1.25;font-family:Arial;-inkscape-font-specification:&quot;Arial Bold&quot;;fill:#616161;fill-opacity:1;stroke:none" transform="translate(-9.223 -48.352)">
    <tspan x="14.898" y="86.607" class="stroke-comment fill-comment" style="font-style:normal;font-variant:normal;font-weight:700;font-stretch:normal;font-size:18.6667px;font-family:Arial;-inkscape-font-specification:&quot;Arial Bold&quot;;fill:#616161;fill-opacity:1">NW</tspan>
  </text>
  <text x="23.767" y="215.061" class="stroke-comment fill-comment" style="font-style:normal;font-variant:normal;font-weight:700;font-stretch:normal;font-size:18.6667px;line-height:1.25;font-family:Arial;-inkscape-font-specification:&quot;Arial Bold&quot;;fill:#616161;fill-opacity:1;stroke:none" transform="translate(-9.223 -48.352)">
    <tspan x="23.767" y="215.061" class="stroke-comment fill-comment" style="font-style:normal;font-variant:normal;font-weight:700;font-stretch:normal;font-size:18.6667px;font-family:Arial;-inkscape-font-specification:&quot;Arial Bold&quot;;fill:#616161;fill-opacity:1">SW</tspan>
  </text>
  <text x="171.268" y="203.111" class="stroke-comment fill-comment" style="font-style:normal;font-variant:normal;font-weight:700;font-stretch:normal;font-size:18.6667px;line-height:1.25;font-family:Arial;-inkscape-font-specification:&quot;Arial Bold&quot;;fill:#616161;fill-opacity:1;stroke:none" transform="translate(-9.223 -48.352)">
    <tspan x="171.268" y="203.111" class="stroke-comment fill-comment" style="font-style:normal;font-variant:normal;font-weight:700;font-stretch:normal;font-size:18.6667px;font-family:Arial;-inkscape-font-specification:&quot;Arial Bold&quot;;fill:#616161;fill-opacity:1">SE</tspan>
  </text>
  <text x="173.154" y="89.143" class="stroke-comment fill-comment" style="font-style:normal;font-variant:normal;font-weight:700;font-stretch:normal;font-size:18.6667px;line-height:1.25;font-family:Arial;-inkscape-font-specification:&quot;Arial Bold&quot;;fill:#616161;fill-opacity:1;stroke:none" transform="translate(-9.223 -48.352)">
    <tspan x="173.154" y="89.143" class="stroke-comment fill-comment" style="font-style:normal;font-variant:normal;font-weight:700;font-stretch:normal;font-size:18.6667px;font-family:Arial;-inkscape-font-specification:&quot;Arial Bold&quot;;fill:#616161;fill-opacity:1">NE</tspan>
  </text>
</svg>
