<svg xmlns="http://www.w3.org/2000/svg" xml:space="preserve" viewBox="0 0 190.451 190.287">
  <path d="M169.409 480.631c-6.487-6.486-21.246-16.476-34.2-28.353-15.89-14.569-26.526-30.046-31.812-40.082m101.264 106.155c8.971 8.971 13.916 12.276 22.99 21.125 5.648 5.507 12.82 11.544 21 11.97 13.738.717 24.85-12.804 34-21.955l64-64c7.729-7.728 17.178-18.052 29-17.733 3.528.095 6.789 1.223 10 2.612 6.189 2.678 9.582 5.827 14 10.135 8.424 8.214 12.963 12.948 21.374 21.36m35.87 36.794c7.36 7.361 10.56 9.549 17.753 16.832 3.003 3.04 5.361 5.348 7.52 9 2.26 3.821 3.215 9.312 1.63 14-4.369 12.912-23.621 19.357-35.146 24.741-12.01 5.61-30.273 11.776-43 15.4-11.27 3.207-25.41 4.18-37 6.323-9.306 1.72-19.46 6.828-27 13-2.152 1.761-3.875 3.472-6 5.37-2.471 2.206-4.512 3.826-7 6.205-20.291 19.403-41.947 41.907-62 61.96-7.68 7.68-17.348 15.556-22.777 25-2.114 3.68-3.623 8.796-3.623 13 0 7.014 3.954 14.056 8.493 19 2.82 3.074 5.081 5.116 7.907 8l14.672 14.982m37.954 38.879c7.088 7.088 10.386 9.153 17.374 16.14 3.517 3.517 6.312 6.481 10 9.91 8.757 8.144 20.916 16.706 33 17.92 13.256 1.33 24.376-4.52 35-11.856 5.066-3.498 11.578-8.927 16-12.82 2.08-1.83 3.829-3.222 6-5.244 4.307-4.012 8.291-8.202 13-12.91l140-140 62-62c7.865-7.863 16.749-15.684 28-14.91 18.71 1.29 30.192 20.102 43.373 33.284m33.71 35.252c7.82 7.82 13.165 11.62 20.917 19.374 2.411 2.412 4.571 4.474 6.826 7 4.454 4.99 7.992 10.962 10.915 17 2.411 4.98 4.337 9.671 5.604 15 12.885 54.185-24.072 103.72 29.855 129.761" class="" style="display:inline;fill:none;stroke:#ff851b;stroke-width:25.638;stroke-dasharray:none;stroke-opacity:1" transform="translate(-6.278 -47.273)scale(.22113)"/>
  <path d="M810.583 410.503c-42.22 37.457-16.931 104.104-16.931 122.988 0 15.703-.373 31.401-5.696 46-5.24 14.371-15.672 24.367-26.304 35l-46 46c-11.28 11.28-22.878 27.123-37 34.506-4.535 2.37-8.68 2.91-14 2.389-11.367-1.113-17.772-10.507-25.015-17.896-6.796-6.933-10.074-9.163-16.976-16.065M271.558 646.09c-12.256-12.256-17.217-18.848-30.906-29.363-17.913-13.758-39.316-23.03-60-31.954-12.683-5.472-35.972-13.044-39.301-28.281-1.114-5.097.303-10.064 3.529-14 2.898-3.537 5.492-5.72 8.772-9l32-32c12.31-12.311 25.365-25.367 38-38 3.613-3.614 6.059-6.44 10-9.47 4.948-3.808 11.072-6.532 17-6.255 7.595.354 14.59 4.62 20 9.765 9.846 9.364 14.752 14.096 24.373 23.717m34.636 35.869c11.922 11.922 24.762 31.534 41.99 34.16 7.94 1.211 14.449-1.843 21-6.826 3.06-2.327 5.139-4.183 8-6.975 15.785-15.397 33.3-33.285 49-48.985 8.543-8.542 18.623-18.637 27-27 2.446-2.441 4.301-4.522 7-6.606 3.775-2.913 8.972-4.886 13.986-3.116 4.103 1.45 6.29 5.03 8.23 8.722 8.23 15.667 11.48 33.873 16.363 51 7.325 25.693 13.03 53.71 28.168 76 5.814 8.562 12.061 14.807 19.254 22 7.849 7.85 9.627 10.553 17.523 18.448m-470.98 258.767c69.34-73.102 58.451 31.773 131.63-50.215 3.04-3.406 5.388-5.562 8.826-9l33-33 20-20c6.446-6.446 13.658-13.628 20-20 2.995-3.01 5.54-5.511 8.072-9 3.59-4.945 6.14-10.915 5.881-17-.37-8.719-6.011-15.98-11.956-22-8.893-9.003-10.324-11.87-19.286-20.832" style="display:inline;fill:none;stroke:#ff4136;stroke-width:25.638;stroke-dasharray:none;stroke-opacity:1" transform="translate(-6.278 -47.273)scale(.22113)" class=""/>
  <path d="M95.987 238.496c-40.02-3.626-73.497-31.904-83.754-70.747-4.013-15.198-4.013-33.368 0-48.566 9.68-36.655 39.637-63.734 77.404-69.965 6.991-1.154 22.642-1.154 29.633 0 41.257 6.807 72.625 38.175 79.432 79.431 1.85 11.211.998 27.643-2.028 39.1-9.657 36.57-39.811 63.872-77.228 69.921-4.454.72-18.981 1.232-23.46.826m22.401-5.72c52.756-8.696 86.477-59.58 73.702-111.214-8.706-35.184-37.598-61.553-73.878-67.425-6.899-1.117-21.007-1.118-27.693-.003-39.313 6.559-69.069 36.348-75.386 75.472-1.068 6.615-1.147 20.3-.155 26.736 6.489 42.08 39.946 73.562 82.067 77.22 4.23.368 17.254-.112 21.343-.787" class="" style="display:inline;fill:#aaa;fill-opacity:1;stroke:none;stroke-width:.352778;stroke-opacity:1" transform="translate(-9.223 -48.352)"/>
  <text x="14.898" y="86.607" class="" style="font-style:normal;font-variant:normal;font-weight:700;font-stretch:normal;font-size:18.6667px;line-height:1.25;font-family:Arial;-inkscape-font-specification:&quot;Arial Bold&quot;;fill:#aaa;fill-opacity:1;stroke:none" transform="translate(-9.223 -48.352)">
    <tspan x="14.898" y="86.607" class="" style="font-style:normal;font-variant:normal;font-weight:700;font-stretch:normal;font-size:18.6667px;font-family:Arial;-inkscape-font-specification:&quot;Arial Bold&quot;;fill:#aaa;fill-opacity:1">NW</tspan>
  </text>
  <text x="23.767" y="215.061" class="" style="font-style:normal;font-variant:normal;font-weight:700;font-stretch:normal;font-size:18.6667px;line-height:1.25;font-family:Arial;-inkscape-font-specification:&quot;Arial Bold&quot;;fill:#aaa;fill-opacity:1;stroke:none" transform="translate(-9.223 -48.352)">
    <tspan x="23.767" y="215.061" class="" style="font-style:normal;font-variant:normal;font-weight:700;font-stretch:normal;font-size:18.6667px;font-family:Arial;-inkscape-font-specification:&quot;Arial Bold&quot;;fill:#aaa;fill-opacity:1">SW</tspan>
  </text>
  <text x="171.268" y="203.111" class="" style="font-style:normal;font-variant:normal;font-weight:700;font-stretch:normal;font-size:18.6667px;line-height:1.25;font-family:Arial;-inkscape-font-specification:&quot;Arial Bold&quot;;fill:#aaa;fill-opacity:1;stroke:none" transform="translate(-9.223 -48.352)">
    <tspan x="171.268" y="203.111" class="" style="font-style:normal;font-variant:normal;font-weight:700;font-stretch:normal;font-size:18.6667px;font-family:Arial;-inkscape-font-specification:&quot;Arial Bold&quot;;fill:#aaa;fill-opacity:1">SE</tspan>
  </text>
  <text x="173.154" y="89.143" class="" style="font-style:normal;font-variant:normal;font-weight:700;font-stretch:normal;font-size:18.6667px;line-height:1.25;font-family:Arial;-inkscape-font-specification:&quot;Arial Bold&quot;;fill:#aaa;fill-opacity:1;stroke:none" transform="translate(-9.223 -48.352)">
    <tspan x="173.154" y="89.143" class="" style="font-style:normal;font-variant:normal;font-weight:700;font-stretch:normal;font-size:18.6667px;font-family:Arial;-inkscape-font-specification:&quot;Arial Bold&quot;;fill:#aaa;fill-opacity:1">NE</tspan>
  </text>
</svg>
