<?xml version="1.0" encoding="UTF-8" standalone="no"?>
<svg
   xml:space="preserve"
   viewBox="0 0 414.73492 190.28705"
   version="1.1"
   id="svg102"
   sodipodi:docname="3_2_-1.svg"
   inkscape:version="1.4.2 (ebf0e940d0, 2025-05-08)"
   width="414.73492"
   height="190.28705"
   xmlns:inkscape="http://www.inkscape.org/namespaces/inkscape"
   xmlns:sodipodi="http://sodipodi.sourceforge.net/DTD/sodipodi-0.dtd"
   xmlns="http://www.w3.org/2000/svg"
   xmlns:svg="http://www.w3.org/2000/svg"><defs
   id="defs102"><inkscape:path-effect
   effect="knot"
   id="path-effect109"
   is_visible="true"
   lpeversion="1"
   switcher_size="15"
   interruption_width="3"
   prop_to_stroke_width="true"
   add_stroke_width="inkscape_1.0_and_up"
   both="false"
   inverse_width="false"
   add_other_stroke_width="inkscape_1.0_and_up"
   crossing_points_vector="-48.180205 | 13.288705 | 0 | 1 | 0 | 2 | 1.5463984 | 6.2086589 | 1 | 12.594547 | 16.740153 | 0 | 1 | 1 | 3 | 3.8741662 | 8.4891199 | 1 | 77.434358 | 17.056011 | 0 | 1 | 2 | 4 | 7.4304253 | 11.005483 | 1 | 14.39433 | 125.33259 | 0 | 1 | 3 | 1 | 8.9864189 | 3.447523 | 1 | 12.890967 | 187.01136 | 0 | 1 | 4 | 0 | 12.35861 | 1.0052885 | 1 | 217.55547 | 113.27084 | 0 | 1 | 5 | 5 | 13.99886 | 12.514514 | -1" /><inkscape:path-effect
   effect="knot"
   id="path-effect108"
   is_visible="true"
   lpeversion="1"
   switcher_size="15"
   interruption_width="3"
   prop_to_stroke_width="true"
   add_stroke_width="inkscape_1.0_and_up"
   both="false"
   inverse_width="false"
   add_other_stroke_width="inkscape_1.0_and_up"
   crossing_points_vector="2194.463 | 2601.3681 | 0 | 0 | 0 | 1 | 1 | 1.25 | 1 | 2194.463 | 2601.3681 | 0 | 0 | 0 | 3 | 1 | 1.75 | 1 | 2194.463 | 2601.3681 | 0 | 0 | 0 | 0 | 1 | 2 | 1 | 2194.463 | 2601.3681 | 0 | 0 | 2 | 4 | 1.5 | 2 | 1 | 2194.5178 | 2601.3133 | 0 | 1 | 5 | 4 | 2.0052867 | 12.358603 | 1 | 2196.0213 | 2539.6347 | 0 | 1 | 6 | 3 | 4.447523 | 8.9864189 | 1 | 2133.4468 | 2427.5908 | 0 | 1 | 7 | 0 | 7.2086589 | 1.5463984 | 1 | 2194.2215 | 2431.0423 | 0 | 1 | 8 | 1 | 9.4891199 | 3.8741662 | 1 | 2259.0614 | 2431.3581 | 0 | 1 | 9 | 2 | 12.005483 | 7.4304253 | 1 | 2399.1825 | 2527.5729 | 0 | 1 | 10 | 5 | 13.514514 | 13.99886 | 1" />
    
    
    
  
    
  
    
  
      
    
      
      
    
      
    <inkscape:path-effect
   effect="knot"
   id="path-effect109-3"
   is_visible="true"
   lpeversion="1"
   switcher_size="15"
   interruption_width="3"
   prop_to_stroke_width="true"
   add_stroke_width="inkscape_1.0_and_up"
   both="false"
   inverse_width="false"
   add_other_stroke_width="inkscape_1.0_and_up"
   crossing_points_vector="-48.180205 | 13.288705 | 0 | 1 | 0 | 2 | 1.5463984 | 5.2086589 | -1 | 12.594547 | 16.740153 | 0 | 1 | 1 | 3 | 3.8741662 | 7.4891199 | -1 | 77.434358 | 17.056011 | 0 | 1 | 2 | 4 | 7.4304253 | 10.005483 | -1 | 12.890967 | 187.01136 | 0 | 1 | 3 | 1 | 9.9947115 | 2.6413905 | -1 | 217.55552 | 113.2709 | 1 | 1 | 0 | 5 | 1.0011403 | 11.514516 | 1" /></defs><sodipodi:namedview
   id="namedview102"
   pagecolor="#ffffff"
   bordercolor="#000000"
   borderopacity="0.25"
   inkscape:showpageshadow="2"
   inkscape:pageopacity="0.0"
   inkscape:pagecheckerboard="0"
   inkscape:deskcolor="#d1d1d1"
   inkscape:zoom="2.3889358"
   inkscape:cx="210.9726"
   inkscape:cy="90.626128"
   inkscape:window-width="2234"
   inkscape:window-height="1418"
   inkscape:window-x="0"
   inkscape:window-y="0"
   inkscape:window-maximized="1"
   inkscape:current-layer="svg102" />
  
  
  
  
  
  
  
  
  
  
  
  
  
  
  
  
  
  
  
  
  
  
  
  
  
  
  
  
  
  
  
  
  
  
  
  
  
  
  
  
  
  
  
  
  
  
  
  
  
  
  
  
  
  
  
  
  
  
  
  
  
  
  
  
  
  
  
  
  
  
  
  
  
  
  
  
  
  
  
  
  
  
  
  
  
  
  
  
  
  
  
  
  
  
  
  
  
  
  
  
  
  
  
<g
   id="svg2"
   transform="translate(-21.303741,15.404281)" /><g
   id="svg2-5"
   transform="translate(202.98012,17.324998)" /><text
   xml:space="preserve"
   style="font-size:11.3386px;font-family:'Roboto Condensed';-inkscape-font-specification:'Roboto Condensed, ';text-align:start;writing-mode:lr-tb;direction:ltr;text-anchor:start;fill:#616161;fill-opacity:1;stroke:none;stroke-width:0.265;stroke-linejoin:round;stroke-opacity:1;paint-order:stroke fill markers"
   x="690.38251"
   y="218.12471"
   id="text110"><tspan
     sodipodi:role="line"
     id="tspan110"
     x="690.38251"
     y="218.12471"></tspan></text><g
   id="g110"
   transform="translate(231.07385,4.6341654)"><path
     id="path104"
     style="display:inline;fill:none;stroke:#ff851b;stroke-width:15.6549;stroke-linejoin:round;stroke-miterlimit:4.1;stroke-dasharray:none;stroke-opacity:1"
     d="m -90.690835,-38.125549 c 11.118908,14.561387 20.174452,25.826555 27.2904,33.425427 M -32.667293,30.98485 C -16.99986,46.33456 -15.271377,44.606077 3.5353,25.7994 L 13.8986,15.4361 13.8826,15.4531 24.2459,5.0898 C 43.235449,-13.899749 44.81306,-15.47736 60.909515,0.35696498 M 93.911866,33.80483 C 123.53214,64.675024 49.773835,86.571361 12.8549,126.985 h 3e-4 L 2.4919,137.3483 c -17.922961,17.92296 -20.33501,20.33501 -7.2361484,34.08309 m 36.1666154,30.26894 0.06783,0.0538 c 27.280527,27.28053 106.00616,-14.95614 169.06793,-72.27913 M 228.90279,91.012116 C 237.85943,66.355361 244.69643,34.442927 277.4789,15.347334 M -64.799735,260.26457 C -39.545217,237.48464 -12.637279,212.3883 12.836,187.066 c 3.464684,-3.44415 6.908867,-6.90887 10.3633,-10.3633 17.939841,-17.93984 20.33954,-20.33954 7.199097,-34.12197 M -1.5825598,108.05583 C -42.844555,67.839742 -74.50887,39.42608 -50.3426,15.4508 v 3e-4 L -39.9793,5.0878 c 18.806677,-18.806677 20.53516,-20.53516 36.2025931,-5.18545014 M 28.950094,33.593663 C 45.094137,49.481363 46.655058,47.920442 65.6646,28.9109 L 76.0279,18.5476 c 85.9469,-91.9197 90.8179,43.0521 128.1003,80.3345 l 26.097,27.9657 c 14.06496,13.9554 16.79966,53.58698 42.90689,67.02413"
     inkscape:path-effect="#path-effect109"
     inkscape:original-d="M -90.690835,-38.125549 C -78.046963,-21.56706 -68.071249,-9.2709488 -60.5817,-1.7814 l 22.6968,27.5808 c 20.7101,20.7101 20.7101,20.7101 41.4202,0 l 10.3633,-10.3633 -0.016,0.017 10.3633,-10.3633 c 20.7101,-20.7101 20.7101,-20.7101 41.4202,0 l 27.341,27.8009 C 124.9876,64.2458 50.1372,86.1736 12.8549,126.985 h 3e-4 L 2.4919,137.3483 c -20.7101,20.7101 -20.7101,20.7101 0,41.4202 l 28.9983,22.9856 C 61.321,231.5849 152.665,178.2936 217.7783,113.0477 236.22446,89.803645 233.43017,41.005459 277.4789,15.347334 M -64.799735,260.26457 C -39.545217,237.48464 -12.637279,212.3883 12.836,187.066 c 3.464684,-3.44415 6.908867,-6.90887 10.3633,-10.3633 20.7101,-20.7101 20.7101,-20.7101 0,-41.4202 L 3.5244,113.0492 C -40.1615,70.171 -75.4971,40.4065 -50.3426,15.4508 v 3e-4 L -39.9793,5.0878 c 20.7101,-20.7101 20.7101,-20.7101 41.4202,0 l 22.8035,23.8231 c 20.7101,20.7101 20.7101,20.7101 41.4202,0 L 76.0279,18.5476 c 85.9469,-91.9197 90.8179,43.0521 128.1003,80.3345 l 26.097,27.9657 c 14.06496,13.9554 16.79966,53.58698 42.90689,67.02413"
     sodipodi:nodetypes="cccsccsccccscccccssccccsccscccc"
     transform="matrix(0.42898395,0,0,0.42898395,54.740278,48.363239)" /><path
     d="m 79.973757,185.50934 c -40.02,-3.626 -73.4969999,-31.904 -83.7539999,-70.747 -4.013,-15.198004 -4.013,-33.368004 0,-48.566004 9.68,-36.655 39.6369999,-63.734 77.4039999,-69.965 6.991,-1.154 22.642,-1.154 29.633003,0 41.257,6.807 72.625,38.175 79.432,79.431 1.85,11.211 0.998,27.643004 -2.028,39.100004 -9.657,36.57 -39.811,63.872 -77.228,69.921 -4.454003,0.72 -18.981003,1.232 -23.460003,0.826 m 22.401003,-5.72 c 52.756,-8.696 86.477,-59.58 73.702,-111.214004 -8.706,-35.184 -37.598,-61.553 -73.878,-67.425 -6.899003,-1.11699999 -21.007003,-1.11799999 -27.693003,-0.003 -39.313,6.559 -69.0689999,36.348 -75.38599986,75.472 -1.06800004,6.615 -1.14700004,20.3 -0.15500004,26.736004 6.489,42.08 39.9459999,73.562 82.0669999,77.22 4.23,0.368 17.254,-0.112 21.343003,-0.787"
     class="stroke-comment fill-comment"
     style="display:inline;fill:#616161;fill-opacity:1;stroke:none;stroke-width:0.352778;stroke-opacity:1"
     id="path99" /></g><g
   id="g111"
   transform="translate(-217.49387,2.7134468)"><path
     id="path104-3"
     style="display:inline;fill:none;stroke:#ff851b;stroke-width:15.6549;stroke-linejoin:round;stroke-miterlimit:4.1;stroke-dasharray:none;stroke-opacity:1"
     d="M -90.690835,-38.125549 C -78.046963,-21.56706 -68.071249,-9.2709488 -60.5817,-1.7814 l 22.6968,27.5808 c 17.805869,17.805869 20.302832,20.302832 33.8150853,7.49089 M 29.21695,0.14618235 C 45.113356,-15.462944 46.761228,-13.815072 65.6661,5.0898 l 27.341,27.8009 c 18.7688,18.401764 -1.500211,73.20175 -63.462632,137.3565 M -4.0060054,203.58253 C -24.297336,223.22649 -45.053924,242.45357 -64.799735,260.26457 M 277.4789,15.347334 C 244.69643,34.442927 237.85943,66.355361 228.90279,91.012116 M 200.84948,129.78718 C 140.66709,188.34137 77.798023,237.63175 31.4902,201.7541 L 2.4919,178.7685 C -49.681576,135.49577 -94.955493,79.532823 -63.765357,31.305099 M -31.419668,-3.2993804 C -18.733215,-15.086315 -15.937488,-12.290588 1.4409,5.0878 l 22.8035,23.8231 c 18.97037,18.97037 20.563956,20.563956 36.614888,4.780758 M 94.652289,1.0740382 C 162.92779,-52.981106 169.74354,64.497443 204.1282,98.8821 l 26.097,27.9657 c 14.06496,13.9554 16.79966,53.58698 42.90689,67.02413"
     inkscape:path-effect="#path-effect109-3"
     inkscape:original-d="M -90.690835,-38.125549 C -78.046963,-21.56706 -68.071249,-9.2709488 -60.5817,-1.7814 l 22.6968,27.5808 c 20.7101,20.7101 20.7101,20.7101 41.4202,0 l 10.3633,-10.3633 -0.016,0.017 10.3633,-10.3633 c 20.7101,-20.7101 20.7101,-20.7101 41.4202,0 l 27.341,27.8009 c 19.39538,19.016089 -2.897041,76.90121 -69.8078,143.812 -3.454432,3.45443 -6.898616,6.91915 -10.3633,10.3633 -25.473279,25.3223 -52.381217,50.41864 -77.635735,73.19857 M 277.4789,15.347334 C 233.43017,41.005459 236.22446,89.803645 217.7783,113.0477 152.665,178.2936 82.162526,241.01321 31.4902,201.7541 L 2.4919,178.7685 C -55.513562,130.65872 -104.99078,66.863109 -50.3426,15.4508 v 3e-4 L -39.9793,5.0878 c 20.7101,-20.7101 20.7101,-20.7101 41.4202,0 l 22.8035,23.8231 c 20.7101,20.7101 20.7101,20.7101 41.4202,0 L 76.0279,18.5476 c 85.9469,-91.9197 90.8179,43.0521 128.1003,80.3345 l 26.097,27.9657 c 14.06496,13.9554 16.79966,53.58698 42.90689,67.02413"
     sodipodi:nodetypes="cccsccsccsscccccccsccscccc"
     transform="matrix(0,0.42898395,0.42898395,0,270.72455,58.583549)" /><path
     d="m 304.25762,187.43006 c -40.02,-3.626 -73.497,-31.904 -83.754,-70.747 -4.013,-15.19801 -4.013,-33.368007 0,-48.566007 9.68,-36.655 39.637,-63.7339998 77.404,-69.9649998 6.991,-1.154 22.642,-1.154 29.633,0 41.257,6.807 72.625,38.1749998 79.432,79.4309998 1.85,11.211 0.998,27.643007 -2.028,39.100007 -9.657,36.57 -39.811,63.872 -77.228,69.921 -4.454,0.72 -18.981,1.232 -23.46,0.826 m 22.401,-5.72 c 52.756,-8.696 86.477,-59.58 73.702,-111.214007 -8.706,-35.184 -37.598,-61.5529998 -73.878,-67.4249998 -6.899,-1.117 -21.007,-1.118 -27.693,-0.003 -39.313,6.559 -69.069,36.3479998 -75.386,75.4719998 -1.068,6.615 -1.147,20.3 -0.155,26.736007 6.489,42.08 39.946,73.562 82.067,77.22 4.23,0.368 17.254,-0.112 21.343,-0.787"
     class="stroke-comment fill-comment"
     style="display:inline;fill:#616161;fill-opacity:1;stroke:none;stroke-width:0.352778;stroke-opacity:1"
     id="path99-7" /></g></svg>
