<svg xmlns="http://www.w3.org/2000/svg" viewBox="0 0 228.549 171.882"><path d="M108.62 91.952c9.787-17.517 34.402-16.586 45.282-.245M137.071 172.223c9.787 17.517 34.402 16.586 45.282.245M65.944 172.468c9.787 17.517 34.402 16.586 45.282.245" style="fill:none;stroke:#616161aaa;stroke-width:3.5;stroke-linecap:butt;stroke-linejoin:miter;stroke-dasharray:none;stroke-opacity:1" transform="translate(-7.611 -54.14)"/><path d="M42.153 175.411c-31.908 47.93 197.505 45.037 163.5-1.962M13.98 90.53c-31.91-47.93 197.504-45.036 163.5 1.963" style="fill:none;stroke:#616161aaa;stroke-width:3.5;stroke-linecap:butt;stroke-linejoin:miter;stroke-dasharray:none;stroke-opacity:1" transform="translate(-7.611 -54.14)"/><path d="M18.449 122.172c-36.735 73.914 65.024 112.695 133.516 99.557 62.893-12.063 91.593-37.156 79.896-62.4-2.392-5.164-13.04-10.374-20.248-5.067M38.258 90.981c9.787-17.517 34.402-16.586 45.282-.245" style="fill:none;stroke:#616161aaa;stroke-width:3.5;stroke-linecap:butt;stroke-linejoin:miter;stroke-dasharray:none;stroke-opacity:1" transform="translate(-7.611 -54.14)"/><path d="M37.88 116.501c-4.44 17.026 10.856 7.511 13.397 28.696M106.294 114.545c-4.438 17.026 10.857 7.51 13.397 28.696M82.332 115.526c2.722 22.177-17.969 12.907-17.567 32.866M151.908 112.678c2.722 22.177-17.969 12.907-17.566 32.865M174.479 116.507c-4.439 17.026 10.856 7.51 13.397 28.696" style="fill:none;stroke:#616161aaa;stroke-width:3.5;stroke-linecap:butt;stroke-linejoin:miter;stroke-dasharray:none;stroke-opacity:1" transform="translate(-7.611 -54.14)"/><path d="M114.692 104.181a20 20 0 0 1-20 20 20 20 0 0 1-20-20 20 20 0 0 1 20-20 20 20 0 0 1 20 20M214.148 161.819a20 20 0 0 1-20 20 20 20 0 0 1-20-20 20 20 0 0 1 20-20 20 20 0 0 1 20 20M144.124 161.819a20 20 0 0 1-20 20 20 20 0 0 1-20-20 20 20 0 0 1 20-20 20 20 0 0 1 20 20M74.1 161.819a20 20 0 0 1-20 20 20 20 0 0 1-20-20 20 20 0 0 1 20-20 20 20 0 0 1 20 20M47.611 104.181a20 20 0 0 1-20 20 20 20 0 0 1-20-20 20 20 0 0 1 20-20 20 20 0 0 1 20 20M181.772 104.181a20 20 0 0 1-20 20 20 20 0 0 1-20-20 20 20 0 0 1 20-20 20 20 0 0 1 20 20" style="fill:#ff4136;stroke-width:4.23111;stroke-linecap:round;stroke-linejoin:round;stroke-dashoffset:130.744;paint-order:stroke markers fill" transform="translate(-7.611 -54.14)"/></svg>