<?xml version="1.0" encoding="UTF-8" standalone="no"?>
<svg
   viewBox="0 0 228.54904 171.88153"
   version="1.1"
   id="svg4483"
   inkscape:version="1.4.2 (ebf0e940d0, 2025-05-08)"
   sodipodi:docname="6star.svg"
   xmlns:inkscape="http://www.inkscape.org/namespaces/inkscape"
   xmlns:sodipodi="http://sodipodi.sourceforge.net/DTD/sodipodi-0.dtd"
   xmlns="http://www.w3.org/2000/svg"
   xmlns:svg="http://www.w3.org/2000/svg">
  <sodipodi:namedview
     id="namedview4485"
     pagecolor="#ffffff"
     bordercolor="#666666"
     borderopacity="1.0"
     inkscape:showpageshadow="2"
     inkscape:pageopacity="0.0"
     inkscape:pagecheckerboard="0"
     inkscape:deskcolor="#d1d1d1"
     inkscape:document-units="mm"
     showgrid="false"
     inkscape:zoom="2.2022861"
     inkscape:cx="35.190704"
     inkscape:cy="-35.190704"
     inkscape:window-width="2234"
     inkscape:window-height="1418"
     inkscape:window-x="0"
     inkscape:window-y="0"
     inkscape:window-maximized="1"
     inkscape:current-layer="layer1"
     showguides="false" />
  <defs
     id="defs4480" />
  <g
     inkscape:label="Layer 1"
     inkscape:groupmode="layer"
     id="layer1"
     transform="translate(-7.6113472,-54.139968)">
    <path
       class="stroke-highlight"
       style="fill:none;stroke:#aaaaaa;stroke-width:3.5;stroke-linecap:butt;stroke-linejoin:miter;stroke-dasharray:none;stroke-opacity:1"
       d="m 108.62051,91.951978 c 9.78694,-17.51676 34.40189,-16.585861 45.28177,-0.245267"
       id="path4719-0"
       sodipodi:nodetypes="cc" />
    <path
       class="stroke-highlight"
       style="fill:none;stroke:#aaaaaa;stroke-width:3.5;stroke-linecap:butt;stroke-linejoin:miter;stroke-dasharray:none;stroke-opacity:1"
       d="m 137.07147,172.22289 c 9.78694,17.51676 34.40189,16.58586 45.28177,0.24527"
       id="path4719-0-5"
       sodipodi:nodetypes="cc" />
    <path
       class="stroke-highlight"
       style="fill:none;stroke:#aaaaaa;stroke-width:3.5;stroke-linecap:butt;stroke-linejoin:miter;stroke-dasharray:none;stroke-opacity:1"
       d="m 65.944068,172.46815 c 9.78694,17.51676 34.401892,16.58586 45.281772,0.24527"
       id="path4719-0-5-1"
       sodipodi:nodetypes="cc" />
    <path
       class="stroke-highlight"
       style="fill:none;stroke:#aaaaaa;stroke-width:3.5;stroke-linecap:butt;stroke-linejoin:miter;stroke-dasharray:none;stroke-opacity:1"
       d="m 42.15318,175.41135 c -31.908433,47.92986 197.50439,45.03682 163.50042,-1.96213"
       id="path4719-0-5-1-8"
       sodipodi:nodetypes="cc" />
    <path
       class="stroke-highlight"
       style="fill:none;stroke:#aaaaaa;stroke-width:3.5;stroke-linecap:butt;stroke-linejoin:miter;stroke-dasharray:none;stroke-opacity:1"
       d="m 13.97933,90.530758 c -31.908433,-47.92986 197.50439,-45.03682 163.50042,1.96213"
       id="path4719-0-5-1-8-3"
       sodipodi:nodetypes="cc" />
    <path
       class="stroke-highlight"
       style="fill:none;stroke:#aaaaaa;stroke-width:3.5;stroke-linecap:butt;stroke-linejoin:miter;stroke-dasharray:none;stroke-opacity:1"
       d="m 18.44877,122.17244 c -36.734984,73.91364 65.024458,112.69471 133.51616,99.55705 62.89318,-12.06379 91.59305,-37.15648 79.89624,-62.40086 -2.39242,-5.16339 -13.03947,-10.37377 -20.24819,-5.06679"
       id="path4719-0-5-1-8-3-7"
       sodipodi:nodetypes="cssc" />
    <path
       class="stroke-highlight"
       style="fill:none;stroke:#aaaaaa;stroke-width:3.5;stroke-linecap:butt;stroke-linejoin:miter;stroke-dasharray:none;stroke-opacity:1"
       d="M 38.258128,90.981068 C 48.045071,73.464308 72.660016,74.395207 83.539905,90.735801"
       id="path4719"
       sodipodi:nodetypes="cc" />
    <path
       class="stroke-highlight"
       style="fill:none;stroke:#aaaaaa;stroke-width:3.5;stroke-linecap:butt;stroke-linejoin:miter;stroke-dasharray:none;stroke-opacity:1"
       d="m 37.879481,116.50106 c -4.438543,17.02626 10.856262,7.51101 13.397076,28.69623"
       id="path4719-3-8"
       sodipodi:nodetypes="cc" />
    <path
       class="stroke-highlight"
       style="fill:none;stroke:#aaaaaa;stroke-width:3.5;stroke-linecap:butt;stroke-linejoin:miter;stroke-dasharray:none;stroke-opacity:1"
       d="m 106.29436,114.54474 c -4.43855,17.02626 10.85626,7.51101 13.39707,28.69623"
       id="path4719-3-8-0"
       sodipodi:nodetypes="cc" />
    <path
       class="stroke-highlight"
       style="fill:none;stroke:#aaaaaa;stroke-width:3.5;stroke-linecap:butt;stroke-linejoin:miter;stroke-dasharray:none;stroke-opacity:1"
       d="m 82.33203,115.52582 c 2.721682,22.17687 -17.969,12.90688 -17.566607,32.86577"
       id="path4719-3-8-0-4"
       sodipodi:nodetypes="cc" />
    <path
       class="stroke-highlight"
       style="fill:none;stroke:#aaaaaa;stroke-width:3.5;stroke-linecap:butt;stroke-linejoin:miter;stroke-dasharray:none;stroke-opacity:1"
       d="m 151.90848,112.67766 c 2.72168,22.17687 -17.969,12.90688 -17.56661,32.86577"
       id="path4719-3-8-0-4-8"
       sodipodi:nodetypes="cc" />
    <path
       class="stroke-highlight"
       style="fill:none;stroke:#aaaaaa;stroke-width:3.5;stroke-linecap:butt;stroke-linejoin:miter;stroke-dasharray:none;stroke-opacity:1"
       d="m 174.47856,116.50688 c -4.43854,17.02626 10.85626,7.51101 13.39707,28.69623"
       id="path4719-3-8-00"
       sodipodi:nodetypes="cc" />
    <path
       id="path4663"
       style="fill:#ff4136;stroke-width:4.23111;stroke-linecap:round;stroke-linejoin:round;stroke-dashoffset:130.744;paint-order:stroke markers fill"
       class="fill-orange "
       d="m 114.69184,104.1811 a 20,20 0 0 1 -19.999999,20 20,20 0 0 1 -20,-20 20,20 0 0 1 20,-20.000001 20,20 0 0 1 19.999999,20.000001 z" />
    <path
       id="path4663-3"
       style="fill:#ff4136;stroke-width:4.23111;stroke-linecap:round;stroke-linejoin:round;stroke-dashoffset:130.744;paint-order:stroke markers fill"
       class="fill-orange  "
       d="m 214.14758,161.81883 a 20,20 0 0 1 -20,20 20,20 0 0 1 -20,-20 20,20 0 0 1 20,-20 20,20 0 0 1 20,20 z" />
    <path
       id="path4663-8"
       style="fill:#ff4136;stroke-width:4.23111;stroke-linecap:round;stroke-linejoin:round;stroke-dashoffset:130.744;paint-order:stroke markers fill"
       class="fill-orange  "
       d="m 144.12388,161.81883 a 20,20 0 0 1 -20,20 20,20 0 0 1 -20,-20 20,20 0 0 1 20,-20 20,20 0 0 1 20,20 z" />
    <path
       id="path4663-0"
       style="fill:#ff4136;stroke-width:4.23111;stroke-linecap:round;stroke-linejoin:round;stroke-dashoffset:130.744;paint-order:stroke markers fill"
       class="fill-orange  "
       d="m 74.10017,161.81883 a 20,20 0 0 1 -20,20 20,20 0 0 1 -20,-20 20,20 0 0 1 20,-20 20,20 0 0 1 20,20 z" />
    <path
       id="path4663-9"
       style="fill:#ff4136;stroke-width:4.23111;stroke-linecap:round;stroke-linejoin:round;stroke-dashoffset:130.744;paint-order:stroke markers fill"
       class="fill-orange  "
       d="m 47.611347,104.1811 a 20,20 0 0 1 -20,20 20,20 0 0 1 -19.9999998,-20 20,20 0 0 1 19.9999998,-20.000001 20,20 0 0 1 20,20.000001 z" />
    <path
       id="path4663-7"
       style="fill:#ff4136;stroke-width:4.23111;stroke-linecap:round;stroke-linejoin:round;stroke-dashoffset:130.744;paint-order:stroke markers fill"
       class="fill-orange  "
       d="m 181.77234,104.1811 a 20,20 0 0 1 -20,20 20,20 0 0 1 -20,-20 20,20 0 0 1 20,-20.000001 20,20 0 0 1 20,20.000001 z" />
  </g>
</svg>
