<svg xmlns:inkscape="http://www.inkscape.org/namespaces/inkscape" xmlns:sodipodi="http://sodipodi.sourceforge.net/DTD/sodipodi-0.dtd" xmlns="http://www.w3.org/2000/svg" xmlns:svg="http://www.w3.org/2000/svg" xml:space="preserve" viewBox="0 0 1478.4033 692.33606" version="1.1" id="svg64" sodipodi:docname="algebric-ex.svg" inkscape:version="1.4.2 (ebf0e940d0, 2025-05-08)">
  <defs id="defs64">
    <inkscape:path-effect effect="knot" id="path-effect6" is_visible="true" lpeversion="1" switcher_size="15" interruption_width="7" prop_to_stroke_width="true" add_stroke_width="inkscape_1.0_and_up" both="false" inverse_width="false" add_other_stroke_width="inkscape_1.0_and_up" crossing_points_vector="599.58057 | 95.16397 | 0 | 1 | 0 | 0 | 2.0000283 | 2.0000283 | -1 | 655.51476 | 95.163947 | 0 | 1 | 1 | 1 | 5.0000295 | 5.0000295 | -1 | 711.44891 | 95.163924 | 0 | 1 | 2 | 2 | 8.0000282 | 8.0000282 | -1 | 767.37994 | 95.163901 | 0 | 1 | 3 | 3 | 11.000029 | 11.000029 | -1 | 823.31094 | 95.163878 | 0 | 1 | 4 | 4 | 14.000028 | 14.000028 | -1 | 879.24513 | 95.163855 | 0 | 1 | 5 | 5 | 17.000029 | 17.000029 | -1 | 935.17928 | 95.163832 | 0 | 1 | 6 | 6 | 20.000028 | 20.000028 | -1"/>
    <inkscape:path-effect effect="knot" id="path-effect4" is_visible="true" lpeversion="1" switcher_size="15" interruption_width="3" prop_to_stroke_width="true" add_stroke_width="inkscape_1.0_and_up" both="false" inverse_width="false" add_other_stroke_width="inkscape_1.0_and_up" crossing_points_vector=""/>
    <inkscape:path-effect effect="knot" id="path-effect2" is_visible="true" lpeversion="1" switcher_size="15" interruption_width="7" prop_to_stroke_width="true" add_stroke_width="inkscape_1.0_and_up" both="false" inverse_width="false" add_other_stroke_width="inkscape_1.0_and_up" crossing_points_vector="-315.5318 | 887.67481 | 0 | 0 | 0 | 6 | 0.031865588 | 23.999961 | -1 | -867.91023 | 889.52126 | 0 | 0 | 1 | 9 | 12.016578 | 36.015717 | -1 | -729.82953 | 889.04806 | 0 | 0 | 2 | 10 | 15.015729 | 39.016579 | -1 | -591.74365 | 888.57455 | 0 | 0 | 3 | 11 | 18.016572 | 42.015709 | -1 | -454.417 | 888.866 | 0 | 0 | 5 | 12 | 21 | 45 | -1 | -454.417 | 888.866 | 0 | 0 | 4 | 13 | 21 | 45 | -1 | -315.53 | 887.673 | 0 | 0 | 7 | 14 | 24 | 48 | -1 | -315.53 | 887.673 | 0 | 0 | 8 | 15 | 24 | 48 | -1"/>
    <inkscape:path-effect effect="knot" id="path-effect1" is_visible="true" lpeversion="1" switcher_size="15" interruption_width="7" prop_to_stroke_width="true" add_stroke_width="inkscape_1.0_and_up" both="false" inverse_width="false" add_other_stroke_width="inkscape_1.0_and_up" crossing_points_vector="1135.6519 | 2686.459 | 0 | 0 | 0 | 3 | 4.0165649 | 20.015592 | 1 | 2708.202 | 2691.8567 | 0 | 0 | 1 | 4 | 7.0155962 | 23.016561 | 1 | 4280.7758 | 2697.2307 | 0 | 0 | 2 | 5 | 10.016611 | 26.015637 | 1"/>
  </defs>
  <sodipodi:namedview id="namedview64" pagecolor="#ffffff" bordercolor="#000000" borderopacity="0.25" inkscape:showpageshadow="2" inkscape:pageopacity="0.0" inkscape:pagecheckerboard="0" inkscape:deskcolor="#d1d1d1" inkscape:zoom="0.45386269" inkscape:cx="762.3451" inkscape:cy="344.81794" inkscape:window-width="2254" inkscape:window-height="1502" inkscape:window-x="0" inkscape:window-y="0" inkscape:window-maximized="1" inkscape:current-layer="layer1"/>
  
  
  
  
  
<g inkscape:groupmode="layer" id="layer1" inkscape:label="Layer 1" transform="translate(600.7185,-48.38873)"><g id="g4" transform="translate(0,45.856715)"><g id="g15" transform="translate(370.92937,-178.41898)"><path id="path128-9" style="fill:none;stroke:#ff851b;stroke-width:5.051;stroke-linecap:round;stroke-linejoin:miter;stroke-miterlimit:10;stroke-dasharray:none;stroke-opacity:1" d="m 244.9048,492.73 c -6.21421,-6.21104 -12.43157,-6.21104 -18.64262,-0.001 l -18.64577,18.64473 -18.64578,18.64578 c -6.21105,6.21104 -12.42841,6.21104 -18.64262,0 m 74.57679,4e-5 c -6.21421,6.21103 -12.43157,6.21103 -18.64262,0 l -6.14538,-6.14503 m -25.00188,-25.00048 -6.14429,-6.14393 c -6.21105,-6.21104 -12.42841,-6.21104 -18.64262,-0.001" sodipodi:nodetypes="cccsccccccc"/><path id="path128-62-6" style="fill:none;stroke:#ff851b;stroke-width:5.051;stroke-linecap:round;stroke-linejoin:miter;stroke-miterlimit:10;stroke-dasharray:none;stroke-opacity:1" d="m 188.97063,492.73007 c -6.21421,-6.21105 -12.43157,-6.21105 -18.64262,-0.001 l -18.64577,18.64472 -18.64578,18.64578 c -6.21105,6.21104 -12.42841,6.21104 -18.64262,0 m 74.57679,4e-5 c -6.21421,6.21104 -12.43157,6.21104 -18.64262,0 l -6.14538,-6.14503 m -25.00188,-25.00047 -6.14429,-6.14394 c -6.21105,-6.21105 -12.42841,-6.21105 -18.64262,-10e-4" sodipodi:nodetypes="cccsccccccc"/><path id="path128-6-2" style="fill:none;stroke:#ff851b;stroke-width:5.051;stroke-linecap:round;stroke-linejoin:miter;stroke-miterlimit:10;stroke-dasharray:none;stroke-opacity:1" d="m 2.5255001,530.01836 c 6.21421,6.21105 12.4315699,6.21105 18.6426199,10e-4 l 18.64577,-18.64472 18.64578,-18.64578 c 6.21105,-6.21104 12.42841,-6.21104 18.64262,0 m -74.5767899,-4e-5 c 6.21421,-6.21104 12.4315699,-6.21104 18.6426199,0 l 6.14538,6.14503 m 25.00188,25.00047 6.14429,6.14394 c 6.21105,6.21105 12.42841,6.21105 18.64262,10e-4" sodipodi:nodetypes="cccsccccccc"/><path id="path128-6-3-8" style="fill:none;stroke:#ff851b;stroke-width:5.051;stroke-linecap:round;stroke-linejoin:miter;stroke-miterlimit:10;stroke-dasharray:none;stroke-opacity:1" d="m 58.45967,530.01836 c 6.21421,6.21105 12.43157,6.21105 18.64262,10e-4 l 18.64577,-18.64472 18.64578,-18.64578 c 6.21105,-6.21104 12.42841,-6.21104 18.64262,0 m -74.57679,-4e-5 c 6.21421,-6.21104 12.43157,-6.21104 18.64262,0 l 6.14538,6.14503 m 25.00188,25.00047 6.14429,6.14394 c 6.21105,6.21105 12.42841,6.21105 18.64262,10e-4" sodipodi:nodetypes="cccsccccccc"/><path id="path128-7-9" style="fill:none;stroke:#ff851b;stroke-width:5.051;stroke-linecap:round;stroke-linejoin:miter;stroke-miterlimit:10;stroke-dasharray:none;stroke-opacity:1" d="m 300.83898,492.73 c -6.21421,-6.21105 -12.43157,-6.21105 -18.64262,-0.001 l -18.64577,18.64472 -18.64578,18.64578 c -6.21105,6.21104 -12.42841,6.21104 -18.64262,0 m 74.57679,4e-5 c -6.21421,6.21104 -12.43157,6.21104 -18.64262,0 l -6.14538,-6.14503 m -25.00188,-25.00047 -6.14429,-6.14394 c -6.21105,-6.21105 -12.42841,-6.21105 -18.64262,-10e-4" sodipodi:nodetypes="cccsccccccc"/></g><g id="g14" transform="translate(0,7.5888932)"><path id="path128" style="fill:none;stroke:#ff851b;stroke-width:5.051;stroke-linecap:round;stroke-linejoin:miter;stroke-miterlimit:10;stroke-dasharray:none;stroke-opacity:1" d="m 257.3057,306.72153 c -6.21421,-6.21104 -12.43157,-6.21104 -18.64262,-10e-4 l -18.64577,18.64472 -18.64578,18.64578 c -6.21105,6.21104 -12.42841,6.21104 -18.64261,0 m 74.57679,4e-5 c -6.21421,6.21104 -12.43157,6.21104 -18.64262,0 l -6.14539,-6.14503 m -25.00188,-25.00047 -6.14429,-6.14394 c -6.21105,-6.21104 -12.42841,-6.21104 -18.64261,-10e-4" sodipodi:nodetypes="cccsccccccc"/><path id="path128-62" style="fill:none;stroke:#ff851b;stroke-width:5.051;stroke-linecap:round;stroke-linejoin:miter;stroke-miterlimit:10;stroke-dasharray:none;stroke-opacity:1" d="m 201.37158,306.72163 c -6.21421,-6.21104 -12.43157,-6.21104 -18.64262,-10e-4 l -18.64577,18.64472 -18.64578,18.64578 c -6.21105,6.21104 -12.42841,6.21104 -18.64262,0 m 74.57679,4e-5 c -6.21421,6.21104 -12.43157,6.21104 -18.64262,0 l -6.14538,-6.14503 m -25.00188,-25.00047 -6.14429,-6.14394 c -6.21105,-6.21104 -12.42841,-6.21104 -18.64262,-10e-4" sodipodi:nodetypes="cccsccccccc"/><path id="path128-7" style="fill:none;stroke:#ff851b;stroke-width:5.051;stroke-linecap:round;stroke-linejoin:miter;stroke-miterlimit:10;stroke-dasharray:none;stroke-opacity:1" d="m 313.23988,306.72167 c -6.21421,-6.21105 -12.43157,-6.21105 -18.64262,-0.001 l -18.64577,18.64472 -18.64578,18.64578 c -6.21105,6.21104 -12.42841,6.21104 -18.64262,0 m 74.57679,4e-5 c -6.21421,6.21104 -12.43157,6.21104 -18.64262,0 l -6.14538,-6.14503 M 263.45,312.86571 l -6.14429,-6.14394 c -6.21105,-6.21105 -12.42841,-6.21105 -18.64262,-10e-4" sodipodi:nodetypes="cccsccccccc"/></g><path id="path128-7-6" style="fill:none;stroke:#ff851b;stroke-width:5.051;stroke-linecap:round;stroke-linejoin:miter;stroke-miterlimit:10;stroke-dasharray:none;stroke-opacity:1" d="m 28.86062,314.31062 c 6.21421,-6.21104 12.43157,-6.21104 18.64262,-10e-4 l 18.64577,18.64472 18.64578,18.64578 c 6.21105,6.21104 12.42841,6.21104 18.64262,0 m -74.57679,4e-5 c 6.21421,6.21104 12.43157,6.21104 18.64262,0 l 6.14538,-6.14503 m 25.00188,-25.00047 6.14429,-6.14394 c 6.21105,-6.21104 12.42841,-6.21104 18.64262,-10e-4" sodipodi:nodetypes="cccsccccccc"/><path style="fill:none;stroke:#ff851b;stroke-width:5.051;stroke-linejoin:round;stroke-dasharray:none;paint-order:stroke fill markers" d="m 313.23988,314.31056 c 20.87392,17.24837 40.94559,17.24813 60.21499,-7.2e-4" id="path20" sodipodi:nodetypes="cc"/><path style="fill:none;stroke:#ff851b;stroke-width:5.051;stroke-linejoin:round;stroke-dasharray:none;paint-order:stroke fill markers" d="m 313.23988,351.6001 c 20.87392,-16.04546 40.94559,-16.0457 60.21499,-7.2e-4" id="path21" sodipodi:nodetypes="cc"/><path style="fill:none;stroke:#ff851b;stroke-width:5.051;stroke-linejoin:round;stroke-dasharray:none;paint-order:stroke fill markers" d="m 103.43741,314.30972 c 8.98918,12.83614 16.77498,12.83611 23.35738,-1e-4" id="path22" sodipodi:nodetypes="cc"/><path style="fill:none;stroke:#ff851b;stroke-width:5.051;stroke-linejoin:round;stroke-dasharray:none;paint-order:stroke fill markers" d="m 103.43741,351.60012 c 7.38466,-14.0396 15.17046,-14.03963 23.35738,-1e-4" id="path23" sodipodi:nodetypes="cc"/></g><path style="fill:none;stroke:#ff851b;stroke-width:5.051;stroke-linejoin:round;stroke-dasharray:none;paint-order:stroke fill markers" d="M 28.86062,360.16733 C -25.124573,363.16299 -105.35288,78.209979 -135.7793,133.13629" id="path24" sodipodi:nodetypes="cc"/><path style="fill:none;stroke:#ff851b;stroke-width:5.051;stroke-linejoin:round;stroke-dasharray:none;paint-order:stroke fill markers" d="M 28.86062,397.45688 C 0,373.59336 -30.794831,391.11757 -53.601652,455.26557 -87.085206,549.44367 -190.85289,736.48092 -190.7387,635.52852" id="path25" sodipodi:nodetypes="csc"/><path style="fill:none;stroke:#ff851b;stroke-width:5.051;stroke-linejoin:round;stroke-dasharray:none;stroke-opacity:1;paint-order:stroke fill markers" d="m -288.37934,179.74617 c -90.40677,64.46339 -115.85563,108.09831 -185.44532,20.91921" id="path29" sodipodi:nodetypes="cc"/><path style="fill:none;stroke:#ff851b;stroke-width:5.051;stroke-linejoin:round;stroke-dasharray:none;stroke-opacity:1;paint-order:stroke fill markers" d="M -228.02909,635.52852 C -169.47297,730.1575 -417.49872,479.561 -487.08841,566.7401" id="path30" sodipodi:nodetypes="cc"/><path style="fill:none;stroke:#ff851b;stroke-width:5.051;stroke-linejoin:round;stroke-dasharray:none;stroke-opacity:1;paint-order:stroke fill markers" d="m 671.76835,360.16773 c 43.21008,30.8452 47.49082,-130.49152 59.20339,-161.04517" id="path31" sodipodi:nodetypes="cc"/><path style="fill:none;stroke:#ff851b;stroke-width:5.051;stroke-linejoin:round;stroke-dasharray:none;stroke-opacity:1;paint-order:stroke fill markers" d="m 671.76835,397.45727 c 43.21008,-30.8452 47.49082,161.98004 59.20339,192.5337" id="path32" sodipodi:nodetypes="cc"/><path id="path28" style="fill:none;stroke:#616161;stroke-width:20.9426;stroke-linejoin:round;stroke-opacity:1;paint-order:stroke fill markers" d="M 867.21358,394.55676 A 728.7304,335.69673 0 0 1 138.48319,730.2535 728.7304,335.69673 0 0 1 -590.2472,394.55676 728.7304,335.69673 0 0 1 138.48319,58.86003 728.7304,335.69673 0 0 1 867.21358,394.55676 Z"/><g id="g3" transform="translate(107.5576,-433.19879)"><g id="g2" transform="translate(100.20157,298.63533)"><g id="g10" transform="translate(-1007.7473)"><path id="path128-7-1" style="fill:none;stroke:#ff851b;stroke-width:5.051;stroke-linecap:round;stroke-linejoin:miter;stroke-miterlimit:10;stroke-dasharray:none;stroke-opacity:1" d="m 586.18558,314.31053 c -6.21421,-6.21105 -12.43157,-6.21105 -18.64262,-0.001 l -18.64577,18.64472 -18.64578,18.64578 c -6.21105,6.21104 -12.42841,6.21104 -18.64262,0 m 74.57679,4e-5 c -6.21421,6.21104 -12.43157,6.21104 -18.64262,0 l -6.14538,-6.14503 m -25.00188,-25.00047 -6.14429,-6.14394 c -6.21105,-6.21105 -12.42841,-6.21105 -18.64262,-10e-4" sodipodi:nodetypes="cccsccccccc"/><g id="g9" transform="translate(-263.36472,-84.313549)"><path id="path4" style="fill:none;stroke:#ff851b;stroke-width:5.051;stroke-linecap:round;stroke-linejoin:miter;stroke-miterlimit:10;stroke-dasharray:none;stroke-opacity:1" d="m 927.57355,352.0133 c 6.21105,6.21421 6.21105,12.43157 0.001,18.64262 l -18.64472,18.64577 -18.64578,18.64578 c -6.21104,6.21105 -6.21104,12.42841 0,18.64262 m -4e-5,-74.57679 c -6.21104,6.21421 -6.21104,12.43157 0,18.64262 l 6.14503,6.14538 m 25.00047,25.00188 6.14394,6.14429 c 6.21105,6.21105 6.21105,12.42841 10e-4,18.64262" sodipodi:nodetypes="cccsccccccc"/><path id="path5" style="fill:none;stroke:#ff851b;stroke-width:5.051;stroke-linecap:round;stroke-linejoin:miter;stroke-miterlimit:10;stroke-dasharray:none;stroke-opacity:1" d="m 927.57354,407.94747 c 6.21105,6.21421 6.21105,12.43157 10e-4,18.64262 l -18.64472,18.64577 -18.64578,18.64578 c -6.21104,6.21105 -6.21104,12.42841 0,18.64262 m -4e-5,-74.57679 c -6.21104,6.21421 -6.21104,12.43157 0,18.64262 l 6.14503,6.14538 m 25.00047,25.00188 6.14394,6.14429 c 6.21105,6.21105 6.21105,12.42841 10e-4,18.64262" sodipodi:nodetypes="cccsccccccc"/></g></g><path style="fill:none;stroke:#ff851b;stroke-width:5.051;stroke-linejoin:round;stroke-dasharray:none;paint-order:stroke fill markers" d="m -421.56172,314.31053 c 14.92964,16.0936 9.67899,-91.76396 40.73371,-46.61078" id="path16" sodipodi:nodetypes="cc"/><path style="fill:none;stroke:#ff851b;stroke-width:5.051;stroke-linejoin:round;stroke-dasharray:none;paint-order:stroke fill markers" d="m -421.56172,351.60007 c 31.87396,-44.85582 -1.77599,79.13791 40.73374,46.61064" id="path17" sodipodi:nodetypes="cc"/></g><g id="g1" transform="translate(-159.07394,573.24619)"><g id="g13" transform="matrix(0,-1,-1,0,175.08766,586.49121)"><g id="g11" transform="translate(0,307.12609)"><path id="path128-2" style="fill:none;stroke:#ff851b;stroke-width:5.051;stroke-linecap:round;stroke-linejoin:miter;stroke-miterlimit:10;stroke-dasharray:none;stroke-opacity:1" d="m 165.58688,7.1848326 c -6.21421,-6.21105003 -12.43157,-6.21105003 -18.64262,-0.001 l -18.64577,18.6447204 -18.64578,18.64577 c -6.21105,6.21105 -12.42841,6.21105 -18.64262,0 m 74.57679,4e-5 c -6.21421,6.21105 -12.43157,6.21105 -18.64262,0 l -6.14538,-6.14503 M 115.797,13.328873 109.65271,7.1849226 C 103.44166,0.97389257 97.2243,0.97389257 91.01009,7.1839326" sodipodi:nodetypes="cccsccccccc"/><path id="path128-62-5" style="fill:none;stroke:#ff851b;stroke-width:5.051;stroke-linecap:round;stroke-linejoin:miter;stroke-miterlimit:10;stroke-dasharray:none;stroke-opacity:1" d="m 221.52108,7.1849626 c -6.21421,-6.21105003 -12.43157,-6.21105003 -18.64262,-0.001 l -18.64577,18.6447204 -18.64578,18.64578 c -6.21105,6.21104 -12.42841,6.21104 -18.64262,0 m 74.57679,4e-5 c -6.21421,6.21104 -12.43157,6.21104 -18.64262,0 l -6.14538,-6.14503 M 171.7312,13.329003 165.58691,7.1850626 c -6.21105,-6.21105003 -12.42841,-6.21105003 -18.64262,-0.001" sodipodi:nodetypes="cccsccccccc"/><path id="path128-6-28" style="fill:none;stroke:#ff851b;stroke-width:5.051;stroke-linecap:round;stroke-linejoin:miter;stroke-miterlimit:10;stroke-dasharray:none;stroke-opacity:1" d="m 333.38938,7.1839126 c -6.21421,-6.21105003 -12.43157,-6.21105003 -18.64262,-0.001 l -18.64577,18.6447204 -18.64578,18.64578 c -6.21105,6.21104 -12.42841,6.21104 -18.64262,0 m 74.57679,4e-5 c -6.21421,6.21104 -12.43157,6.21104 -18.64262,0 l -6.14538,-6.14503 M 283.5995,13.327953 277.45521,7.1840126 c -6.21105,-6.21105003 -12.42841,-6.21105003 -18.64262,-0.001" sodipodi:nodetypes="cccsccccccc"/><path id="path128-6-3-3" style="fill:none;stroke:#ff851b;stroke-width:5.051;stroke-linecap:round;stroke-linejoin:miter;stroke-miterlimit:10;stroke-dasharray:none;stroke-opacity:1" d="m 277.45528,7.1839126 c -6.21421,-6.21105003 -12.43157,-6.21105003 -18.64262,-0.001 l -18.64577,18.6447204 -18.64578,18.64578 c -6.21105,6.21104 -12.42841,6.21104 -18.64262,0 m 74.57679,4e-5 c -6.21421,6.21104 -12.43157,6.21104 -18.64262,0 l -6.14538,-6.14503 M 227.6654,13.327953 221.52111,7.1840126 c -6.21105,-6.21105003 -12.42841,-6.21105003 -18.64262,-0.001" sodipodi:nodetypes="cccsccccccc"/></g><g id="g12" transform="translate(-402.89913,123.36957)"><path id="path128-3" style="fill:none;stroke:#ff851b;stroke-width:5.051;stroke-linecap:round;stroke-linejoin:miter;stroke-miterlimit:10;stroke-dasharray:none;stroke-opacity:1" d="m 777.01318,218.90697 c -6.21104,-6.21421 -6.21104,-12.43157 -0.001,-18.64262 l 18.64472,-18.64577 18.64578,-18.64578 c 6.21104,-6.21104 6.21104,-12.4284 0,-18.64261 m 4e-5,74.57678 c 6.21104,-6.21421 6.21104,-12.43157 0,-18.64262 l -6.14503,-6.14538 m -25.00047,-25.00188 -6.14394,-6.14429 c -6.21104,-6.21104 -6.21104,-12.4284 -10e-4,-18.64261" sodipodi:nodetypes="cccsccccccc"/><path id="path128-6" style="fill:none;stroke:#ff851b;stroke-width:5.051;stroke-linecap:round;stroke-linejoin:miter;stroke-miterlimit:10;stroke-dasharray:none;stroke-opacity:1" d="m 814.30268,200.26435 c 6.2111,6.21421 6.2111,12.43157 0,18.64262 l -18.6447,18.64577 -18.6458,18.64578 c -6.211,6.21105 -6.211,12.42841 0,18.64262 m 0,-74.57679 c -6.211,6.21421 -6.211,12.43157 0,18.64262 l 6.145,6.14538 m 25.0005,25.00188 6.1439,6.14429 c 6.2111,6.21105 6.2111,12.42841 0,18.64262" sodipodi:nodetypes="cccsccccccc"/><path id="path128-6-3" style="fill:none;stroke:#ff851b;stroke-width:5.051;stroke-linecap:round;stroke-linejoin:miter;stroke-miterlimit:10;stroke-dasharray:none;stroke-opacity:1" d="m 814.30268,256.19852 c 6.2111,6.21421 6.2111,12.43157 0,18.64262 l -18.6447,18.64577 -18.6458,18.64578 c -6.211,6.21105 -6.211,12.42841 0,18.64262 m 0,-74.57679 c -6.2111,6.21421 -6.2111,12.43157 0,18.64262 l 6.145,6.14538 m 25.0005,25.00188 6.1439,6.14429 c 6.2111,6.21105 6.2111,12.42841 0,18.64262" sodipodi:nodetypes="cccsccccccc"/><path id="path128-6-8" style="fill:none;stroke:#ff851b;stroke-width:5.051;stroke-linecap:round;stroke-linejoin:miter;stroke-miterlimit:10;stroke-dasharray:none;stroke-opacity:1" d="m 814.30268,88.396013 c 6.2111,6.21421 6.2111,12.431567 0,18.642617 l -18.6447,18.64577 -18.6458,18.64578 c -6.211,6.21105 -6.211,12.42841 0,18.64262 m 0,-74.576787 c -6.211,6.21421 -6.211,12.431567 0,18.642617 l 6.145,6.14538 m 25.0005,25.00188 6.1439,6.14429 c 6.2111,6.21105 6.2111,12.42841 0,18.64262" sodipodi:nodetypes="cccsccccccc"/></g></g><path style="fill:none;stroke:#ff851b;stroke-width:5.051;stroke-linejoin:round;stroke-dasharray:none;paint-order:stroke fill markers" d="m -279.05722,212.37816 c -46.63313,32.79678 126.82827,19.07354 102.54534,40.72367" id="path18" sodipodi:nodetypes="cc"/><path style="fill:none;stroke:#ff851b;stroke-width:5.051;stroke-linejoin:round;stroke-dasharray:none;paint-order:stroke fill markers" d="M -139.22234,253.10183 C -165.85082,224.25845 7.5928828,245.0478 -36.677923,212.37816" id="path19" sodipodi:nodetypes="cc"/></g><path style="fill:none;stroke:#ff851b;stroke-width:5.051;stroke-linejoin:round;stroke-dasharray:none;paint-order:stroke fill markers" d="m -395.93694,650.23536 c -35.26222,-20.97832 -80.41106,129.22097 -42.19422,98.09959" id="path27" sodipodi:nodetypes="cc"/><path style="fill:none;stroke:#ff851b;stroke-width:5.051;stroke-linejoin:round;stroke-dasharray:none;paint-order:stroke fill markers" d="m -243.33601,696.84604 c -23.87706,27.39135 30.51217,4.91309 46.86227,18.22823 21.94635,17.87258 22.62261,51.09415 0.72188,33.25958" id="path2" sodipodi:nodetypes="csc"/></g></g></svg>
