<svg xmlns="http://www.w3.org/2000/svg" viewBox="0 0 330.958 239.249">
  <path d="M18.294 176.215c7.724-6.94 19.974-3.636 28.087-10.201m261.62-47.459C415.813 0-90.318 0 19.294 118.38m-1 57.835C-98.575 297 412.902 297 309 176.712" style="font-variation-settings:normal;opacity:1;vector-effect:none;fill:none;fill-opacity:1;stroke:#ff4136;stroke-width:2;stroke-linecap:butt;stroke-linejoin:round;stroke-miterlimit:4.1;stroke-dasharray:none;stroke-dashoffset:0;stroke-opacity:1;-inkscape-stroke:none" transform="translate(1.962 -28.617)"/>
  <path d="M42.48 229.147c5.858-7.64 11.263-11.208 17.02-10.958 5.512.24 11.381 3.982 16.78 11.002M42.6 265.705c5.536 6.726 11.429 10.145 16.9 10.32 5.799.185 11.172-3.275 16.899-10.277m163.833-36.676c10.051-7.979 19.43-2.267 27.43-10.707M240.35 265.63c8.588 7.205 21.985 2.59 28.313 10.892m-64.989-47.332c-4.935-6.808-10.516-11.854-18.258-11m-1 57.647c7.545 1.23 14.107-1.697 19.377-10.089m-90.956-36.676c4.77-4.733 8.368-11.105 16.686-10.883m-16.567 47.441c4.694 5.14 8.38 11.665 17.567 10.64" style="font-variation-settings:normal;opacity:1;vector-effect:none;fill:none;fill-opacity:1;stroke:#ff4136;stroke-width:2;stroke-linecap:butt;stroke-linejoin:round;stroke-miterlimit:4.1;stroke-dasharray:none;stroke-dashoffset:0;stroke-opacity:1;-inkscape-stroke:none" transform="translate(42.3 -128.427)"/>
  <path d="M19.294 118.38c8.142 8.732 20.406 4.563 26.967 11.076" style="font-variation-settings:normal;opacity:1;vector-effect:none;fill:none;fill-opacity:1;stroke:#ff4136;stroke-width:2;stroke-linecap:butt;stroke-linejoin:round;stroke-miterlimit:4.1;stroke-dasharray:none;stroke-dashoffset:0;stroke-opacity:1;-inkscape-stroke:none" transform="translate(1.962 -28.617)"/>
  <g style="stroke-width:2;stroke-dasharray:none">
    <path d="M90.61 147.6a25.926 25.926 0 0 1-25.926 25.925A25.926 25.926 0 0 1 38.76 147.6a25.926 25.926 0 0 1 25.925-25.926A25.926 25.926 0 0 1 90.61 147.6m70.272 0a25.926 25.926 0 0 1-25.926 25.925 25.926 25.926 0 0 1-25.925-25.925 25.926 25.926 0 0 1 25.925-25.926 25.926 25.926 0 0 1 25.926 25.926m127.394 0a25.926 25.926 0 0 1-25.925 25.925 25.926 25.926 0 0 1-25.926-25.925 25.926 25.926 0 0 1 25.926-25.926 25.926 25.926 0 0 1 25.925 25.926" class="stroke-orange fill-orange" style="fill:none;stroke:#ff851b;stroke-width:2;stroke-linecap:round;stroke-linejoin:round;stroke-miterlimit:4.1;stroke-dasharray:none" transform="translate(1.962 -28.617)"/>
    <g style="stroke-width:2;stroke-dasharray:none">
      <path d="M148.267 247.41a4.89 4.89 0 0 1-4.89 4.89 4.89 4.89 0 0 1-4.889-4.89 4.89 4.89 0 0 1 4.89-4.89 4.89 4.89 0 0 1 4.889 4.89m14.937 0a4.89 4.89 0 0 1-4.889 4.89 4.89 4.89 0 0 1-4.89-4.89 4.89 4.89 0 0 1 4.89-4.89 4.89 4.89 0 0 1 4.89 4.89m14.937 0a4.89 4.89 0 0 1-4.89 4.89 4.89 4.89 0 0 1-4.888-4.89 4.89 4.89 0 0 1 4.889-4.89 4.89 4.89 0 0 1 4.89 4.89" class="stroke-orange fill-orange stroke-orange" style="fill:#ff851b;fill-opacity:1;stroke:#ff851b;stroke-width:2;stroke-linecap:round;stroke-linejoin:round;stroke-miterlimit:4.1;stroke-dasharray:none" transform="translate(42.3 -128.427)"/>
    </g>
    <path d="M327.997 147.6a164.48 60.78 0 0 1-164.48 60.78A164.48 60.78 0 0 1-.961 147.6a164.48 60.78 0 0 1 164.48-60.78 164.48 60.78 0 0 1 164.479 60.78" class="stroke-orange fill-orange" style="fill:none;stroke:#ff851b;stroke-width:2;stroke-linecap:round;stroke-linejoin:round;stroke-miterlimit:4.1;stroke-dasharray:none" transform="translate(1.962 -28.617)"/>
  </g>
</svg>
