<svg xmlns:inkscape="http://www.inkscape.org/namespaces/inkscape" xmlns:sodipodi="http://sodipodi.sourceforge.net/DTD/sodipodi-0.dtd" xmlns="http://www.w3.org/2000/svg" xmlns:svg="http://www.w3.org/2000/svg" viewBox="0 0 130.52534 130.53002" version="1.1" id="svg1" sodipodi:docname="circle.svg" xml:space="preserve" inkscape:version="1.3.2 (091e20ef0f, 2023-11-25)"><sodipodi:namedview id="namedview1" pagecolor="#ffffff" bordercolor="#000000" borderopacity="0.25" inkscape:showpageshadow="2" inkscape:pageopacity="0.0" inkscape:pagecheckerboard="0" inkscape:deskcolor="#d1d1d1" inkscape:document-units="mm" showgrid="true" inkscape:zoom="0.61453942" inkscape:cx="174.11414" inkscape:cy="244.89885" inkscape:window-width="1920" inkscape:window-height="1125" inkscape:window-x="0" inkscape:window-y="0" inkscape:window-maximized="1" inkscape:current-layer="layer1">
        <inkscape:grid id="grid2" units="mm" originx="-78.747383" originy="-57.256923" spacingx="0.99999998" spacingy="1" empcolor="#0099e5" empopacity="0.30196078" color="#0099e5" opacity="0.14901961" empspacing="5" dotted="false" gridanglex="30" gridanglez="30" visible="true"/>
        <inkscape:page x="0" y="0" width="130.52534" height="130.53001" id="page3" margin="0" bleed="0" inkscape:export-filename="open_knot.png" inkscape:export-xdpi="96" inkscape:export-ydpi="96"/>
    </sodipodi:namedview>

    <defs id="defs1"/>
    <g inkscape:label="Layer 1" inkscape:groupmode="layer" id="layer1" transform="translate(-78.747381,-57.256932)" style="display:inline" class=""><path d="m 204.01,122.522 a 60,60 0 0 1 -60,60 60,60 0 0 1 -60,-60 60,60 0 0 1 60,-60 60,60 0 0 1 60,60 z" style="display:none;fill:none;stroke:#111111;stroke-width:0.254;stroke-linecap:square;stroke-linejoin:round;stroke-miterlimit:4.1" id="path1" class="stroke-foreground fill-foreground"/><path style="display:none;fill:#FF851B;stroke:#111111;stroke-width:0.254;stroke-linecap:square;stroke-linejoin:round;stroke-dasharray:none;stroke-opacity:1" d="m 64.922813,-60.222817 c -7.718446,0 5.145633,10.291261 -2.572815,10.291261 h -2.572816 c 7.718445,0 -5.145629,-10.291261 2.572816,-10.291261 z" id="path2-2" sodipodi:nodetypes="ccccc" class="stroke-orange fill-orange stroke-foreground fill-foreground"/>

    <path d="m 208.903,128.092 c 0.578,-7.772 -10.294,4.69 -10.101,-3.101 l 0.064,-2.596 c -0.193,7.79 10.416,-4.939 10.223,2.851 z m -0.256,2.406 c 0.961,-7.734 -10.553,4.172 -9.974,-3.599 l 0.14,-2.339 c -0.193,7.791 10.7,-4.67 10.122,3.102 z m -0.335,2.396 c 1.339,-7.678 -10.784,3.641 -9.824,-4.092 l 0.217,-2.334 c -0.579,7.772 10.956,-4.132 9.995,3.602 z m -0.373,2.134 c 1.34,-7.677 -11.03,3.349 -9.69,-4.328 l 0.292,-2.326 c -0.96,7.733 11.184,-3.583 9.845,4.095 z m -0.519,2.362 c 1.714,-7.603 -10.883,3.121 -9.544,-4.556 l 0.398,-2.311 c -0.96,7.734 11.079,-3.597 9.739,4.08 z m -0.597,2.342 c 2.084,-7.509 -11.061,2.576 -9.346,-5.026 l 0.473,-2.297 c -1.339,7.677 11.279,-3.042 9.565,4.56 z m -0.676,2.321 c 2.448,-7.399 -11.208,2.021 -9.125,-5.488 l 0.55,-2.28 c -1.715,7.602 11.45,-2.478 9.366,5.032 z m -0.68,2.057 c 2.448,-7.399 -11.402,1.7 -8.954,-5.699 l 0.625,-2.262 c -2.084,7.51 11.593,-1.904 9.145,5.495 z m -0.852,2.262 c 2.806,-7.271 -11.23,1.495 -8.782,-5.904 l 0.725,-2.231 c -2.083,7.509 11.492,-1.935 9.044,5.463 z m -0.927,2.232 c 3.157,-7.126 -11.324,0.931 -8.518,-6.34 l 0.798,-2.205 c -2.448,7.398 11.608,-1.36 8.802,5.91 z m -1.002,2.199 c 3.501,-6.962 -11.389,0.363 -8.232,-6.762 l 0.871,-2.179 c -2.806,7.271 11.694,-0.778 8.537,6.347 z m -0.973,1.936 c 3.501,-6.963 -11.293,0.407 -8.136,-6.718 l 1.052,-2.375 c -3.157,7.125 11.513,-0.581 8.356,6.544 z m -1.168,2.116 c 3.837,-6.783 -11.332,-0.161 -7.832,-7.124 l 1.038,-2.104 c -3.157,7.125 11.657,-0.236 8.156,6.727 z m -1.238,2.077 c 4.164,-6.588 -11.343,-0.734 -7.506,-7.518 l 1.106,-2.068 c -3.501,6.963 11.687,0.35 7.851,7.134 z M 198,158.966 c 4.481,-6.376 -11.325,-1.309 -7.161,-7.897 l 1.174,-2.03 c -3.837,6.783 11.688,0.94 7.525,7.528 z m -1.246,1.773 c 4.482,-6.376 -11.236,-1.251 -7.073,-7.838 l 1.388,-2.196 c -4.163,6.587 11.475,1.105 7.311,7.693 z m -1.461,1.927 c 4.79,-6.147 -11.191,-1.822 -6.71,-8.198 l 1.329,-1.932 c -4.164,6.588 11.572,1.474 7.09,7.85 z m -1.524,1.879 c 5.087,-5.904 -11.118,-2.395 -6.328,-8.543 l 1.39,-1.887 c -4.481,6.376 11.517,2.063 6.728,8.211 z m -1.587,1.829 c 5.373,-5.646 -11.014,-2.967 -5.928,-8.872 l 1.452,-1.84 c -4.789,6.148 11.431,2.652 6.345,8.557 z m -1.493,1.569 c 5.372,-5.645 -10.935,-2.895 -5.849,-8.799 l 1.534,-1.773 c -4.789,6.148 11.349,2.585 6.263,8.489 z m -1.723,1.701 c 5.645,-5.373 -10.806,-3.462 -5.434,-9.107 l 1.59,-1.72 c -5.087,5.904 11.237,3.168 5.864,8.814 z m -1.778,1.642 c 5.905,-5.086 -10.649,-4.022 -5.003,-9.394 l 1.644,-1.668 c -5.372,5.646 11.095,3.75 5.45,9.122 z m -1.641,1.414 c 5.904,-5.086 -10.653,-4.405 -4.748,-9.491 l 1.698,-1.614 c -5.645,5.372 10.922,4.323 5.018,9.41 z m -1.899,1.5 c 6.148,-4.789 -10.395,-4.491 -4.491,-9.577 l 1.771,-1.535 c -5.646,5.372 10.85,4.244 4.946,9.331 z m -1.947,1.435 c 6.376,-4.481 -10.184,-5.029 -4.037,-9.818 l 1.82,-1.476 c -5.904,5.087 10.652,4.805 4.504,9.594 z m -1.993,1.37 c 6.588,-4.164 -9.947,-5.555 -3.571,-10.036 l 1.868,-1.417 c -6.148,4.789 10.425,5.354 4.049,9.835 z m -1.831,1.157 c 6.588,-4.163 -9.888,-5.466 -3.513,-9.948 l 2.126,-1.493 c -6.376,4.481 10.167,5.431 3.792,9.912 z m -2.093,1.211 c 6.784,-3.836 -9.628,-5.976 -3.04,-10.14 l 1.973,-1.267 c -6.376,4.482 10.112,5.802 3.524,9.966 z m -2.131,1.141 c 6.963,-3.501 -9.342,-6.474 -2.559,-10.31 l 2.014,-1.201 c -6.587,4.163 9.835,6.322 3.052,10.158 z m -2.168,1.068 c 7.125,-3.157 -9.031,-6.955 -2.069,-10.456 l 2.054,-1.134 c -6.784,3.836 9.531,6.827 2.569,10.328 z m -1.98,0.878 c 7.125,-3.157 -8.987,-6.86 -2.024,-10.361 l 2.321,-1.166 c -6.963,3.5 9.264,6.859 2.301,10.36 z m -2.244,0.898 c 7.27,-2.806 -8.656,-7.324 -1.531,-10.481 l 2.136,-0.971 c -6.963,3.5 9.158,7.222 2.033,10.379 z m -2.273,0.823 c 7.399,-2.448 -8.3,-7.773 -1.03,-10.579 l 2.167,-0.9 c -7.125,3.157 8.809,7.695 1.538,10.501 z m -2.299,0.746 c 7.509,-2.084 -7.922,-8.203 -0.524,-10.651 l 2.196,-0.829 c -7.271,2.806 8.436,8.15 1.037,10.598 z m -2.087,0.579 c 7.509,-2.084 -7.892,-8.102 -0.493,-10.55 l 2.466,-0.816 c -7.399,2.448 8.165,8.138 0.766,10.586 z m -2.351,0.567 c 7.603,-1.714 -7.495,-8.514 0.015,-10.598 l 2.252,-0.654 c -7.399,2.448 8.009,8.486 0.499,10.57 z m -2.368,0.489 c 7.677,-1.34 -7.077,-8.908 0.526,-10.622 l 2.272,-0.58 c -7.509,2.084 7.593,8.904 -0.009,10.618 z m -2.384,0.409 c 7.734,-0.961 -6.637,-9.281 1.04,-10.621 l 2.29,-0.505 c -7.602,1.714 7.156,9.303 -0.521,10.642 z m -2.15,0.267 c 7.734,-0.961 -6.621,-9.176 1.056,-10.515 l 2.311,-0.401 c -7.602,1.714 7.135,9.198 -0.542,10.538 z m -2.409,0.224 c 7.772,-0.578 -6.165,-9.528 1.569,-10.489 l 2.321,-0.324 c -7.677,1.339 6.681,9.575 -1.053,10.536 z m -2.416,0.144 c 7.79,-0.193 -5.689,-9.859 2.082,-10.438 l 2.331,-0.248 c -7.734,0.961 6.205,9.932 -1.567,10.51 z m -2.166,0.054 c 7.791,-0.193 -5.449,-10.158 2.342,-10.351 l 2.337,-0.173 c -7.772,0.579 5.709,10.267 -2.082,10.46 z m -2.421,-0.043 c 7.791,0.193 -5.194,-10.062 2.597,-10.255 l 2.342,-0.065 c -7.772,0.578 5.704,10.159 -2.087,10.352 z m -2.417,-0.122 c 7.772,0.578 -4.687,-10.347 3.103,-10.154 l 2.342,0.011 c -7.79,0.193 5.194,10.469 -2.597,10.276 z m -2.411,-0.203 c 7.734,0.961 -4.167,-10.605 3.605,-10.027 l 2.341,0.087 c -7.791,-0.193 4.667,10.753 -3.105,10.175 z m -2.15,-0.267 c 7.734,0.961 -4.177,-10.499 3.594,-9.921 l 2.591,0.193 c -7.772,-0.578 4.417,10.647 -3.354,10.069 z m -2.388,-0.388 c 7.678,1.34 -3.649,-10.731 4.084,-9.77 l 2.328,0.269 c -7.771,-0.578 4.138,10.903 -3.596,9.943 z m -2.372,-0.467 c 7.602,1.715 -3.111,-10.935 4.566,-9.596 l 2.318,0.346 c -7.733,-0.961 3.59,11.131 -4.087,9.792 z m -2.355,-0.546 c 7.509,2.084 -2.563,-11.111 5.039,-9.397 l 2.307,0.422 c -7.677,-1.34 3.032,11.33 -4.57,9.616 z m -2.088,-0.579 c 7.509,2.084 -2.589,-11.009 5.014,-9.295 l 2.534,0.572 c -7.602,-1.714 2.805,11.181 -4.798,9.467 z m -2.306,-0.726 c 7.399,2.448 -2.036,-11.158 5.473,-9.074 l 2.268,0.6 c -7.603,-1.714 2.49,11.399 -5.019,9.315 z m -2.279,-0.802 c 7.27,2.806 -1.477,-11.28 5.921,-8.832 l 2.247,0.675 c -7.51,-2.084 1.92,11.543 -5.479,9.095 z m -2.252,-0.879 c 7.125,3.157 -0.911,-11.372 6.359,-8.566 l 2.224,0.749 c -7.399,-2.448 1.342,11.657 -5.929,8.851 z m -1.981,-0.877 c 7.125,3.157 -0.952,-11.275 6.319,-8.469 l 2.188,0.848 c -7.399,-2.448 1.378,11.558 -5.893,8.752 z m -2.177,-1.049 c 6.963,3.501 -0.385,-11.342 6.74,-8.185 l 2.158,0.92 c -7.27,-2.806 0.799,11.646 -6.327,8.489 z m -2.141,-1.122 c 6.783,3.837 0.186,-11.379 7.149,-7.878 l 2.126,0.99 c -7.125,-3.157 0.214,11.704 -6.749,8.204 z m -1.886,-1.066 c 6.783,3.836 0.543,-11.515 7.327,-7.678 l 2.093,1.06 c -6.963,-3.501 -0.375,11.733 -7.159,7.897 z m -2.049,-1.284 c 6.588,4.164 0.707,-11.297 7.49,-7.461 l 2.043,1.154 c -6.962,-3.501 -0.325,11.64 -7.109,7.803 z m -2.005,-1.351 c 6.375,4.481 1.279,-11.28 7.867,-7.117 l 2.003,1.22 c -6.783,-3.837 -0.913,11.642 -7.501,7.479 z m -1.96,-1.418 c 6.148,4.789 1.854,-11.234 8.23,-6.753 l 1.962,1.285 c -6.588,-4.164 -1.504,11.615 -7.879,7.134 z m -1.709,-1.331 c 6.148,4.789 2.225,-11.311 8.373,-6.522 l 1.919,1.348 c -6.376,-4.481 -2.095,11.559 -8.243,6.77 z m -1.845,-1.566 c 5.904,5.087 2.361,-11.076 8.509,-6.287 l 1.855,1.434 c -6.375,-4.482 -2.031,11.473 -8.179,6.684 z m -1.7925,-1.626 c 5.6455,5.372 2.9315,-10.975 8.8355,-5.889 l 1.806,1.493 c -6.147,-4.789 -2.618,11.39 -8.522,6.304 z m -1.7384,-1.685 c 5.3719,5.645 3.4989,-10.845 9.1449,-5.472 l 1.756,1.55 c -5.904,-5.087 -3.205,11.276 -8.8501,5.904 z m -1.4934,-1.57 c 5.3723,5.646 3.4232,-10.768 9.0683,-5.396 l 1.882,1.791 c -5.645,-5.372 -3.33,11.036 -8.9754,5.664 z m -1.6029,-1.813 c 5.0866,5.904 3.9822,-10.613 9.3542,-4.968 l 1.63,1.683 c -5.6456,-5.373 -3.712,11.056 -9.084,5.411 z m -1.5412,-1.866 c 4.7893,6.148 4.5324,-10.428 9.6184,-4.524 l 1.575,1.734 c -5.3727,-5.645 -4.2841,10.887 -9.3706,4.982 z m -1.4781,-1.915 c 4.4814,6.376 5.0717,-10.216 9.8605,-4.068 l 1.518,1.786 c -5.0865,-5.905 -4.846,10.686 -9.6353,4.538 z m -1.2457,-1.772 c 4.4813,6.376 4.986,-10.153 9.7752,-4.005 l 1.597,2.049 c -4.7898,-6.148 -4.9254,10.423 -9.7147,4.275 z m -1.3252,-2.023 c 4.1635,6.588 5.5106,-9.917 9.9919,-3.541 l 1.3735,1.899 c -4.7891,-6.148 -5.3108,10.394 -9.7922,4.018 z m -1.2567,-2.065 c 3.8364,6.784 6.0222,-9.655 10.1857,-3.068 l 1.311,1.944 c -4.4814,-6.375 -5.8461,10.142 -10.0096,3.554 z m -1.0665,-1.886 c 3.8365,6.784 6.3995,-9.588 10.2359,-2.804 l 1.2468,1.987 c -4.1635,-6.588 -6.3674,9.862 -10.2039,3.079 z m -1.0936,-2.155 c 3.5006,6.962 6.4266,-9.318 10.263,-2.535 l 1.1559,2.042 c -4.1635,-6.588 -6.2765,9.807 -10.1129,3.024 z m -1.0208,-2.191 c 3.157,7.125 6.9075,-9.009 10.4082,-2.047 l 1.088,2.079 c -3.8365,-6.784 -6.781,9.507 -10.2817,2.544 z m -0.9469,-2.224 c 2.8058,7.271 7.3728,-8.675 10.5298,-1.55 l 1.019,2.113 c -3.5007,-6.963 -7.2702,9.18 -10.4272,2.055 z m -0.78,-2.021 c 2.8058,7.271 7.7295,-8.552 10.5354,-1.281 l 0.9491,2.146 c -3.157,-7.125 -7.7434,8.829 -10.5493,1.559 z m -0.7729,-2.29 c 2.448,7.399 7.7224,-8.283 10.5283,-1.012 l 0.8515,2.186 c -3.157,-7.125 -7.6458,8.789 -10.4517,1.519 z m -0.6959,-2.315 c 2.0839,7.51 8.1528,-7.907 10.6008,-0.508 l 0.7787,2.213 c -2.8059,-7.27 -8.1001,8.418 -10.5481,1.019 z M 80.697,137.82 c 1.7142,7.602 8.5653,-7.508 10.6492,0.001 l 0.7054,2.238 c -2.448,-7.399 -8.5371,8.023 -10.6209,0.514 z m -0.4765,-2.113 c 1.7142,7.602 8.8954,-7.332 10.6096,0.27 l 0.6315,2.26 c -2.0839,-7.51 -8.9555,7.606 -10.6697,0.004 z m -0.4363,-2.379 c 1.3396,7.677 8.8552,-7.066 10.5694,0.536 l 0.5287,2.285 c -2.0839,-7.509 -8.8528,7.581 -10.567,-0.022 z m -0.3568,-2.392 c 0.9607,7.734 9.2285,-6.629 10.5681,1.048 l 0.453,2.301 c -1.7142,-7.603 -9.2506,7.145 -10.5901,-0.532 z m -0.2772,-2.404 c 0.5782,7.772 9.5815,-6.17 10.5422,1.563 l 0.3772,2.314 c -1.3396,-7.677 -9.6283,6.689 -10.589,-1.045 z m -0.1608,-2.16 c 0.5783,7.771 9.4753,-6.16 10.4359,1.574 l 0.3203,2.577 c -0.9607,-7.733 -9.5714,6.425 -10.532,-1.309 z m -0.0906,-2.419 c 0.193,7.791 9.8063,-5.686 10.3845,2.085 l 0.1952,2.336 c -0.9607,-7.734 -9.8788,6.199 -10.457,-1.572 z m -0.011,-2.421 c -0.1931,7.791 10.1156,-5.194 10.3087,2.597 l 0.1188,2.339 c -0.5782,-7.771 -10.2128,5.707 -10.4059,-2.084 z m 0.0689,-2.42 c -0.5782,7.772 10.4006,-4.684 10.2075,3.106 l 0.043,2.342 c -0.1931,-7.791 -10.5231,5.194 -10.3301,-2.597 z m 0.1608,-2.16 c -0.5783,7.772 10.2935,-4.69 10.1004,3.101 l -0.0644,2.342 c -0.193,-7.791 -10.4158,5.193 -10.2227,-2.597 z m 0.2556,-2.406 c -0.9607,7.734 10.5525,-4.172 9.9742,3.599 l -0.1401,2.339 c 0.1931,-7.791 -10.7,4.67 -10.1217,-3.102 z m 0.3353,-2.396 c -1.3396,7.678 10.7839,-3.641 9.8233,4.092 l -0.2164,2.334 c 0.5783,-7.772 -10.9561,4.132 -9.9954,-3.602 z m 0.3724,-2.134 c -1.3396,7.677 11.0301,-3.349 9.6906,4.328 l -0.2929,2.326 c 0.9607,-7.733 -11.1838,3.583 -9.8442,-4.095 z M 80.6,107.654 c -1.7142,7.603 10.8833,-3.121 9.5437,4.556 l -0.3981,2.311 c 0.9606,-7.734 -11.0785,3.597 -9.739,-4.08 z m 0.5974,-2.342 c -2.0839,7.509 11.0601,-2.576 9.3459,5.026 l -0.4737,2.297 c 1.3396,-7.677 -11.2787,3.042 -9.5645,-4.56 z m 0.6752,-2.321 c -2.448,7.399 11.2089,-2.021 9.125,5.488 l -0.5491,2.28 c 1.7142,-7.602 -11.4504,2.478 -9.3665,-5.032 z m 0.6805,-2.057 c -2.448,7.399 11.4014,-1.7 8.9534,5.699 l -0.6242,2.262 c 2.0839,-7.51 -11.5932,1.904 -9.1452,-5.495 z m 0.8521,-2.2618 c -2.8059,7.2708 11.2298,-1.495 8.7819,5.9038 l -0.7255,2.231 c 2.0838,-7.5093 -11.492,1.935 -9.044,-5.463 z m 0.9271,-2.2318 c -3.157,7.1256 11.3237,-0.9314 8.5178,6.3396 l -0.7985,2.205 c 2.448,-7.3983 -11.6075,1.36 -8.8017,-5.9104 z m 1.0013,-2.1998 c -3.5007,6.9624 11.3891,-0.3624 8.2321,6.7624 l -0.8709,2.179 c 2.8059,-7.2706 -11.6942,0.778 -8.5372,-6.3472 z m 0.9731,-1.9355 c -3.5006,6.9626 11.2936,-0.4076 8.1366,6.7175 l -1.0523,2.3754 c 3.157,-7.1254 -11.5128,0.581 -8.3558,-6.5439 z m 1.1681,-2.1163 c -3.8364,6.7834 11.3325,0.1613 7.8319,7.124 l -1.0381,2.1042 c 3.157,-7.1251 -11.6563,0.2361 -8.1556,-6.7266 z m 1.2381,-2.0763 c -4.1635,6.5878 11.3431,0.7339 7.5066,7.5174 l -1.1066,2.0683 c 3.5007,-6.9627 -11.6869,-0.3505 -7.8505,-7.134 z m 1.3072,-2.0346 c -4.4814,6.3758 11.3249,1.309 7.161,7.8968 l -1.1739,2.0306 C 99.8436,89.2218 84.319,95.0649 88.4825,88.4771 Z m 1.2458,-1.7724 c -4.4814,6.3758 11.2361,1.2501 7.0726,7.8379 l -1.3878,2.1959 c 4.1633,-6.5878 -11.4743,-1.1058 -7.3108,-7.6935 z m 1.4606,-1.928 c -4.7892,6.1479 11.1915,1.8224 6.7101,8.1982 l -1.3285,1.9323 c 4.1639,-6.5878 -11.5716,-1.4738 -7.0903,-7.8496 z m 1.5244,-1.8789 c -5.0865,5.9043 11.1181,2.3952 6.3281,8.543 l -1.3904,1.8869 C 103.67,84.5527 87.6722,88.8656 92.4615,82.7178 Z m 1.5867,-1.8284 c -5.3724,5.6454 11.0144,2.9673 5.9284,8.8716 l -1.452,1.8401 c 4.789,-6.1479 -11.4311,-2.6522 -6.3446,-8.5565 z m 1.4934,-1.5694 c -5.3724,5.6455 10.935,2.8954 5.849,8.7996 l -1.534,1.7725 c 4.789,-6.1479 -11.3491,-2.5845 -6.2626,-8.4888 z m 1.7229,-1.7004 c -5.6454,5.3723 10.8061,3.4612 5.4341,9.1067 l -1.59,1.7201 c 5.087,-5.9042 -11.2367,-3.1685 -5.8643,-8.8139 z m 1.7781,-1.6426 c -5.9045,5.0866 10.649,4.0219 5.003,9.3943 l -1.644,1.6674 c 5.372,-5.6454 -11.0949,-3.7494 -5.4495,-9.1218 z m 1.641,-1.4139 c -5.9042,5.0865 10.653,4.4051 4.748,9.4916 l -1.698,1.6139 c 5.645,-5.3724 -10.9223,-4.3235 -5.018,-9.41 z m 1.899,-1.4999 c -6.1478,4.7892 10.395,4.491 4.491,9.5775 l -1.771,1.5345 c 5.646,-5.3724 -10.85,-4.2441 -4.946,-9.3306 z m 1.947,-1.4353 c -6.376,4.4813 10.184,5.0288 4.037,9.8181 l -1.82,1.4762 c 5.904,-5.0865 -10.6521,-4.8047 -4.504,-9.594 z m 1.993,-1.3694 c -6.588,4.1635 9.947,5.5547 3.571,10.0361 l -1.868,1.4165 c 6.148,-4.7893 -10.4249,-5.3539 -4.049,-9.8352 z m 1.831,-1.1574 c -6.588,4.1635 9.888,5.4664 3.513,9.9477 l -2.126,1.4938 c 6.376,-4.4813 -10.167,-5.4311 -3.792,-9.9125 z m 2.093,-1.2112 c -6.784,3.8364 9.628,5.9767 3.04,10.1402 l -1.973,1.2668 c 6.376,-4.4814 -10.112,-5.8019 -3.524,-9.9654 z m 2.131,-1.1404 c -6.963,3.5007 9.342,6.4734 2.559,10.3098 l -2.014,1.2013 c 6.587,-4.1635 -9.835,-6.322 -3.052,-10.1584 z m 2.168,-1.0685 c -7.125,3.157 9.031,6.9552 2.069,10.4559 l -2.054,1.1347 c 6.784,-3.8364 -9.531,-6.8276 -2.569,-10.3283 z m 1.98,-0.8776 c -7.125,3.157 8.987,6.8597 2.024,10.3604 l -2.321,1.1669 c 6.963,-3.5007 -9.264,-6.8599 -2.301,-10.3606 z m 2.244,-0.8981 c -7.27,2.8058 8.656,7.324 1.531,10.481 l -2.136,0.9712 c 6.963,-3.5007 -9.158,-7.2224 -2.033,-10.3794 z m 2.273,-0.8227 c -7.399,2.448 8.3,7.7722 1.03,10.5781 l -2.167,0.9003 c 7.125,-3.157 -8.809,-7.6946 -1.538,-10.5005 z m 2.299,-0.7464 c -7.509,2.0839 7.922,8.2033 0.524,10.6513 l -2.196,0.8285 c 7.271,-2.8059 -8.436,-8.1499 -1.037,-10.5979 z m 2.087,-0.5793 c -7.509,2.0839 7.892,8.1021 0.493,10.5501 l -2.466,0.816 c 7.399,-2.448 -8.165,-8.1374 -0.766,-10.5854 z m 2.351,-0.567 c -7.603,1.7142 7.495,8.514 -0.015,10.5979 l -2.252,0.6547 c 7.399,-2.448 -8.009,-8.4864 -0.499,-10.5703 z m 2.368,-0.4883 c -7.677,1.3396 7.077,8.9072 -0.526,10.6214 l -2.272,0.5801 c 7.509,-2.0839 -7.593,-8.9041 0.009,-10.6183 z m 2.384,-0.4094 c -7.734,0.9606 6.637,9.2811 -1.04,10.6207 l -2.29,0.505 c 7.602,-1.7142 -7.156,-9.3026 0.521,-10.6422 z m 2.15,-0.2671 c -7.734,0.9607 6.621,9.1758 -1.056,10.5154 l -2.311,0.4009 c 7.602,-1.7142 -7.135,-9.1985 0.542,-10.538 z m 2.409,-0.2241 c -7.772,0.5782 6.165,9.5284 -1.569,10.4891 l -2.321,0.3245 c 7.677,-1.3396 -6.681,-9.5757 1.053,-10.5363 z m 2.416,-0.1442 c -7.79,0.1931 5.689,9.8599 -2.082,10.4381 l -2.331,0.2483 c 7.734,-0.9606 -6.205,-9.9319 1.567,-10.5102 z m 2.166,-0.0537 c -7.791,0.1931 5.449,10.1584 -2.342,10.3515 l -2.337,0.1723 c 7.772,-0.5782 -5.709,-10.2663 2.082,-10.4594 z m 2.421,0.0428 c -7.791,-0.1931 5.194,10.0619 -2.597,10.255 l -2.342,0.0653 c 7.772,-0.5783 -5.704,-10.1593 2.087,-10.3524 z m 2.417,0.1224 c -7.772,-0.5782 4.687,10.3471 -3.103,10.154 l -2.342,-0.0107 c 7.79,-0.1931 -5.194,-10.4695 2.597,-10.2764 z m 2.411,0.2024 c -7.734,-0.9606 4.167,10.6057 -3.605,10.0275 l -2.341,-0.0866 c 7.791,0.1931 -4.667,-10.7535 3.105,-10.1753 z m 2.15,0.2671 c -7.734,-0.9607 4.177,10.4993 -3.594,9.9211 l -2.591,-0.1927 c 7.772,0.5782 -4.417,-10.6474 3.354,-10.0692 z m 2.388,0.388 c -7.678,-1.3396 3.649,10.7313 -4.084,9.7706 l -2.328,-0.2695 c 7.771,0.5782 -4.138,-10.9029 3.596,-9.9423 z m 2.372,0.4671 c -7.602,-1.7142 3.111,10.9354 -4.566,9.5959 l -2.318,-0.3456 c 7.733,0.9607 -3.59,-11.1311 4.087,-9.7916 z m 2.355,0.546 c -7.509,-2.0839 2.563,11.1116 -5.039,9.3974 l -2.307,-0.4217 c 7.677,1.3396 -3.032,-11.3308 4.57,-9.6166 z m 2.088,0.5793 c -7.509,-2.0839 2.589,11.0088 -5.014,9.2946 l -2.534,-0.5714 c 7.602,1.7142 -2.805,-11.1811 4.798,-9.4669 z m 2.306,0.7259 c -7.399,-2.448 2.036,11.1582 -5.473,9.0743 l -2.268,-0.6005 c 7.603,1.7142 -2.49,-11.3989 5.019,-9.315 z m 2.279,0.8023 c -7.27,-2.8059 1.477,11.2796 -5.921,8.8316 l -2.247,-0.6749 c 7.51,2.0839 -1.92,-11.5425 5.479,-9.0945 z m 2.252,0.8783 c -7.125,-3.157 0.911,11.3725 -6.359,8.5666 l -2.224,-0.7488 c 7.399,2.448 -1.342,-11.6572 5.929,-8.8514 z m 1.981,0.8776 c -7.125,-3.157 0.952,11.2749 -6.319,8.469 l -2.188,-0.8483 c 7.399,2.448 -1.378,-11.5577 5.893,-8.7519 z m 2.177,1.0491 c -6.963,-3.5007 0.385,11.3413 -6.74,8.1843 l -2.158,-0.9197 c 7.27,2.8059 -0.799,-11.6454 6.327,-8.4884 z m 2.141,1.1213 c -6.783,-3.8364 -0.186,11.3793 -7.149,7.8786 l -2.126,-0.9903 c 7.125,3.157 -0.214,-11.7041 6.749,-8.2034 z m 1.886,1.0665 c -6.783,-3.8364 -0.543,11.5147 -7.327,7.6782 l -2.093,-1.0599 c 6.963,3.5007 0.375,-11.7335 7.159,-7.8971 z m 2.049,1.2836 c -6.588,-4.1635 -0.707,11.2975 -7.49,7.4611 l -2.043,-1.1532 c 6.962,3.5007 0.325,-11.6402 7.109,-7.8038 z m 2.005,1.3514 c -6.375,-4.4814 -1.279,11.2803 -7.867,7.1168 l -2.003,-1.2194 c 6.783,3.8364 0.913,-11.6427 7.501,-7.4792 z m 1.96,1.4179 c -6.148,-4.7893 -1.854,11.2342 -8.23,6.7528 l -1.962,-1.2843 c 6.588,4.1635 1.504,-11.6158 7.879,-7.1344 z m 1.709,1.3313 c -6.148,-4.7893 -2.225,11.3106 -8.373,6.5214 l -1.919,-1.3479 c 6.376,4.4814 2.095,-11.5592 8.243,-6.7699 z m 1.845,1.5657 c -5.904,-5.0865 -2.361,11.0763 -8.509,6.287 l -1.855,-1.4335 c 6.375,4.4814 2.031,-11.4735 8.179,-6.6842 z m 1.793,1.6264 c -5.646,-5.3724 -2.932,10.9748 -8.836,5.8882 l -1.806,-1.4926 c 6.147,4.7892 2.618,-11.39 8.522,-6.3035 z m 1.738,1.685 c -5.372,-5.6455 -3.499,10.8444 -9.145,5.472 l -1.756,-1.5503 c 5.904,5.0866 3.205,-11.2764 8.85,-5.9041 z m 1.493,1.5693 c -5.372,-5.6454 -3.423,10.7685 -9.068,5.3961 l -1.882,-1.7907 c 5.645,5.3723 3.33,-11.036 8.975,-5.6636 z m 1.603,1.8138 c -5.086,-5.9043 -3.982,10.613 -9.354,4.9676 l -1.63,-1.6826 c 5.646,5.3724 3.712,-11.0567 9.084,-5.4112 z m 1.541,1.8651 c -4.789,-6.1479 -4.532,10.4288 -9.618,4.5245 l -1.575,-1.7345 c 5.373,5.6454 4.284,-10.8861 9.371,-4.9819 z m 1.478,1.9151 c -4.481,-6.3758 -5.071,10.2164 -9.86,4.0685 l -1.518,-1.7859 c 5.087,5.9043 4.846,-10.6858 9.635,-4.5379 z m 1.246,1.7724 c -4.481,-6.3758 -4.986,10.153 -9.775,4.0052 l -1.597,-2.0493 c 4.79,6.1478 4.925,-10.4225 9.715,-4.2746 z m 1.325,2.0226 c -4.163,-6.5878 -5.51,9.9176 -9.992,3.5418 l -1.373,-1.8995 c 4.789,6.1479 5.311,-10.3936 9.792,-4.0178 z m 1.257,2.0652 c -3.836,-6.7835 -6.022,9.6555 -10.186,3.0678 l -1.311,-1.9441 c 4.482,6.3758 5.846,-10.1413 10.01,-3.5535 z m 1.067,1.8857 c -3.837,-6.7835 -6.4,9.5885 -10.236,2.8045 l -1.247,-1.987 c 4.163,6.5877 6.367,-9.8621 10.204,-3.0786 z m 1.093,2.156 c -3.5,-6.9627 -6.426,9.3175 -10.263,2.5343 l -1.156,-2.0415 c 4.164,6.5877 6.277,-9.8077 10.113,-3.0242 z m 1.021,2.1906 c -3.157,-7.1251 -6.907,9.0089 -10.408,2.0464 l -1.088,-2.0782 c 3.836,6.7837 6.781,-9.5068 10.282,-2.5442 z m 0.947,2.2236 c -2.806,-7.2706 -7.373,8.6753 -10.53,1.5506 l -1.019,-2.1131 c 3.501,6.9628 7.27,-9.1805 10.427,-2.0554 z m 0.78,2.0213 c -2.806,-7.2708 -7.73,8.552 -10.536,1.281 l -0.949,-2.146 c 3.157,7.125 7.744,-8.8293 10.55,-1.5587 z m 0.773,2.29 c -2.448,-7.3987 -7.723,8.283 -10.529,1.012 l -0.851,-2.186 c 3.157,7.125 7.646,-8.7891 10.452,-1.5186 z m 0.696,2.315 c -2.084,-7.5097 -8.153,7.907 -10.601,0.508 l -0.779,-2.213 c 2.806,7.27 8.1,-8.4182 10.548,-1.019 z m 0.618,2.337 c -1.714,-7.6024 -8.565,7.508 -10.649,-0.001 l -0.706,-2.238 c 2.448,7.399 8.537,-8.0233 10.621,-0.514 z m 0.477,2.113 c -1.715,-7.602 -8.896,7.332 -10.61,-0.27 l -0.632,-2.26 c 2.084,7.51 8.956,-7.6061 10.67,-0.004 z m 0.436,2.379 c -1.34,-7.677 -8.855,7.066 -10.57,-0.536 l -0.528,-2.285 c 2.084,7.509 8.852,-7.581 10.567,0.022 z m 0.357,2.392 c -0.961,-7.734 -9.229,6.629 -10.568,-1.048 l -0.453,-2.301 c 1.714,7.603 9.25,-7.145 10.59,0.532 z m 0.277,2.404 c -0.578,-7.772 -9.582,6.17 -10.542,-1.563 l -0.378,-2.314 c 1.34,7.677 9.629,-6.689 10.589,1.045 z m 0.161,2.16 c -0.579,-7.771 -9.476,6.16 -10.436,-1.574 l -0.321,-2.577 c 0.961,7.733 9.572,-6.425 10.532,1.309 z m 0.09,2.419 c -0.193,-7.791 -9.806,5.686 -10.384,-2.085 l -0.196,-2.336 c 0.961,7.734 9.879,-6.199 10.458,1.572 z m 0.011,2.421 c 0.193,-7.791 -10.115,5.194 -10.309,-2.597 l -0.118,-2.339 c 0.578,7.771 10.212,-5.707 10.406,2.084 z m -0.069,2.42 c 0.579,-7.772 -10.4,4.684 -10.207,-3.106 l -0.043,-2.342 c 0.193,7.791 10.523,-5.194 10.33,2.597 z" style="display:inline;fill:#FF851B;stroke:#111111;stroke-width:0.254;stroke-linecap:square;stroke-linejoin:round;stroke-dasharray:none;stroke-opacity:1" id="path474" class="stroke-orange fill-orange stroke-foreground fill-foreground"/></g>
</svg>
