<svg xmlns="http://www.w3.org/2000/svg" xml:space="preserve" viewBox="0 0 130.525 130.53">
  <g style="display:inline">
    <path d="M208.903 128.092c.578-7.772-10.294 4.69-10.101-3.101l.064-2.596c-.193 7.79 10.416-4.939 10.223 2.851zm-.256 2.406c.961-7.734-10.553 4.172-9.974-3.599l.14-2.339c-.193 7.791 10.7-4.67 10.122 3.102zm-.335 2.396c1.339-7.678-10.784 3.641-9.824-4.092l.217-2.334c-.579 7.772 10.956-4.132 9.995 3.602zm-.373 2.134c1.34-7.677-11.03 3.349-9.69-4.328l.292-2.326c-.96 7.733 11.184-3.583 9.845 4.095zm-.519 2.362c1.714-7.603-10.883 3.121-9.544-4.556l.398-2.311c-.96 7.734 11.079-3.597 9.739 4.08zm-.597 2.342c2.084-7.509-11.061 2.576-9.346-5.026l.473-2.297c-1.339 7.677 11.279-3.042 9.565 4.56zm-.676 2.321c2.448-7.399-11.208 2.021-9.125-5.488l.55-2.28c-1.715 7.602 11.45-2.478 9.366 5.032zm-.68 2.057c2.448-7.399-11.402 1.7-8.954-5.699l.625-2.262c-2.084 7.51 11.593-1.904 9.145 5.495zm-.852 2.262c2.806-7.271-11.23 1.495-8.782-5.904l.725-2.231c-2.083 7.509 11.492-1.935 9.044 5.463zm-.927 2.232c3.157-7.126-11.324.931-8.518-6.34l.798-2.205c-2.448 7.398 11.608-1.36 8.802 5.91zm-1.002 2.199c3.501-6.962-11.389.363-8.232-6.762l.871-2.179c-2.806 7.271 11.694-.778 8.537 6.347zm-.973 1.936c3.501-6.963-11.293.407-8.136-6.718l1.052-2.375c-3.157 7.125 11.513-.581 8.356 6.544zm-1.168 2.116c3.837-6.783-11.332-.161-7.832-7.124l1.038-2.104c-3.157 7.125 11.657-.236 8.156 6.727zm-1.238 2.077c4.164-6.588-11.343-.734-7.506-7.518l1.106-2.068c-3.501 6.963 11.687.35 7.851 7.134zM198 158.966c4.481-6.376-11.325-1.309-7.161-7.897l1.174-2.03c-3.837 6.783 11.688.94 7.525 7.528zm-1.246 1.773c4.482-6.376-11.236-1.251-7.073-7.838l1.388-2.196c-4.163 6.587 11.475 1.105 7.311 7.693zm-1.461 1.927c4.79-6.147-11.191-1.822-6.71-8.198l1.329-1.932c-4.164 6.588 11.572 1.474 7.09 7.85zm-1.524 1.879c5.087-5.904-11.118-2.395-6.328-8.543l1.39-1.887c-4.481 6.376 11.517 2.063 6.728 8.211zm-1.587 1.829c5.373-5.646-11.014-2.967-5.928-8.872l1.452-1.84c-4.789 6.148 11.431 2.652 6.345 8.557zm-1.493 1.569c5.372-5.645-10.935-2.895-5.849-8.799l1.534-1.773c-4.789 6.148 11.349 2.585 6.263 8.489zm-1.723 1.701c5.645-5.373-10.806-3.462-5.434-9.107l1.59-1.72c-5.087 5.904 11.237 3.168 5.864 8.814zm-1.778 1.642c5.905-5.086-10.649-4.022-5.003-9.394l1.644-1.668c-5.372 5.646 11.095 3.75 5.45 9.122zm-1.641 1.414c5.904-5.086-10.653-4.405-4.748-9.491l1.698-1.614c-5.645 5.372 10.922 4.323 5.018 9.41zm-1.899 1.5c6.148-4.789-10.395-4.491-4.491-9.577l1.771-1.535c-5.646 5.372 10.85 4.244 4.946 9.331zm-1.947 1.435c6.376-4.481-10.184-5.029-4.037-9.818l1.82-1.476c-5.904 5.087 10.652 4.805 4.504 9.594zm-1.993 1.37c6.588-4.164-9.947-5.555-3.571-10.036l1.868-1.417c-6.148 4.789 10.425 5.354 4.049 9.835zm-1.831 1.157c6.588-4.163-9.888-5.466-3.513-9.948l2.126-1.493c-6.376 4.481 10.167 5.431 3.792 9.912zm-2.093 1.211c6.784-3.836-9.628-5.976-3.04-10.14l1.973-1.267c-6.376 4.482 10.112 5.802 3.524 9.966zm-2.131 1.141c6.963-3.501-9.342-6.474-2.559-10.31l2.014-1.201c-6.587 4.163 9.835 6.322 3.052 10.158zm-2.168 1.068c7.125-3.157-9.031-6.955-2.069-10.456l2.054-1.134c-6.784 3.836 9.531 6.827 2.569 10.328zm-1.98.878c7.125-3.157-8.987-6.86-2.024-10.361l2.321-1.166c-6.963 3.5 9.264 6.859 2.301 10.36zm-2.244.898c7.27-2.806-8.656-7.324-1.531-10.481l2.136-.971c-6.963 3.5 9.158 7.222 2.033 10.379zm-2.273.823c7.399-2.448-8.3-7.773-1.03-10.579l2.167-.9c-7.125 3.157 8.809 7.695 1.538 10.501zm-2.299.746c7.509-2.084-7.922-8.203-.524-10.651l2.196-.829c-7.271 2.806 8.436 8.15 1.037 10.598zm-2.087.579c7.509-2.084-7.892-8.102-.493-10.55l2.466-.816c-7.399 2.448 8.165 8.138.766 10.586zm-2.351.567c7.603-1.714-7.495-8.514.015-10.598l2.252-.654c-7.399 2.448 8.009 8.486.499 10.57zm-2.368.489c7.677-1.34-7.077-8.908.526-10.622l2.272-.58c-7.509 2.084 7.593 8.904-.009 10.618zm-2.384.409c7.734-.961-6.637-9.281 1.04-10.621l2.29-.505c-7.602 1.714 7.156 9.303-.521 10.642zm-2.15.267c7.734-.961-6.621-9.176 1.056-10.515l2.311-.401c-7.602 1.714 7.135 9.198-.542 10.538zm-2.409.224c7.772-.578-6.165-9.528 1.569-10.489l2.321-.324c-7.677 1.339 6.681 9.575-1.053 10.536zm-2.416.144c7.79-.193-5.689-9.859 2.082-10.438l2.331-.248c-7.734.961 6.205 9.932-1.567 10.51zm-2.166.054c7.791-.193-5.449-10.158 2.342-10.351l2.337-.173c-7.772.579 5.709 10.267-2.082 10.46zm-2.421-.043c7.791.193-5.194-10.062 2.597-10.255l2.342-.065c-7.772.578 5.704 10.159-2.087 10.352zm-2.417-.122c7.772.578-4.687-10.347 3.103-10.154l2.342.011c-7.79.193 5.194 10.469-2.597 10.276zm-2.411-.203c7.734.961-4.167-10.605 3.605-10.027l2.341.087c-7.791-.193 4.667 10.753-3.105 10.175zm-2.15-.267c7.734.961-4.177-10.499 3.594-9.921l2.591.193c-7.772-.578 4.417 10.647-3.354 10.069zm-2.388-.388c7.678 1.34-3.649-10.731 4.084-9.77l2.328.269c-7.771-.578 4.138 10.903-3.596 9.943zm-2.372-.467c7.602 1.715-3.111-10.935 4.566-9.596l2.318.346c-7.733-.961 3.59 11.131-4.087 9.792zm-2.355-.546c7.509 2.084-2.563-11.111 5.039-9.397l2.307.422c-7.677-1.34 3.032 11.33-4.57 9.616zm-2.088-.579c7.509 2.084-2.589-11.009 5.014-9.295l2.534.572c-7.602-1.714 2.805 11.181-4.798 9.467zm-2.306-.726c7.399 2.448-2.036-11.158 5.473-9.074l2.268.6c-7.603-1.714 2.49 11.399-5.019 9.315zm-2.279-.802c7.27 2.806-1.477-11.28 5.921-8.832l2.247.675c-7.51-2.084 1.92 11.543-5.479 9.095zm-2.252-.879c7.125 3.157-.911-11.372 6.359-8.566l2.224.749c-7.399-2.448 1.342 11.657-5.929 8.851zm-1.981-.877c7.125 3.157-.952-11.275 6.319-8.469l2.188.848c-7.399-2.448 1.378 11.558-5.893 8.752zm-2.177-1.049c6.963 3.501-.385-11.342 6.74-8.185l2.158.92c-7.27-2.806.799 11.646-6.327 8.489zm-2.141-1.122c6.783 3.837.186-11.379 7.149-7.878l2.126.99c-7.125-3.157.214 11.704-6.749 8.204zm-1.886-1.066c6.783 3.836.543-11.515 7.327-7.678l2.093 1.06c-6.963-3.501-.375 11.733-7.159 7.897zm-2.049-1.284c6.588 4.164.707-11.297 7.49-7.461l2.043 1.154c-6.962-3.501-.325 11.64-7.109 7.803zm-2.005-1.351c6.375 4.481 1.279-11.28 7.867-7.117l2.003 1.22c-6.783-3.837-.913 11.642-7.501 7.479zm-1.96-1.418c6.148 4.789 1.854-11.234 8.23-6.753l1.962 1.285c-6.588-4.164-1.504 11.615-7.879 7.134zm-1.709-1.331c6.148 4.789 2.225-11.311 8.373-6.522l1.919 1.348c-6.376-4.481-2.095 11.559-8.243 6.77zm-1.845-1.566c5.904 5.087 2.361-11.076 8.509-6.287l1.855 1.434c-6.375-4.482-2.031 11.473-8.179 6.684zm-1.792-1.626c5.645 5.372 2.931-10.975 8.835-5.889l1.806 1.493c-6.147-4.789-2.618 11.39-8.522 6.304zm-1.739-1.685c5.372 5.645 3.499-10.845 9.145-5.472l1.756 1.55c-5.904-5.087-3.205 11.276-8.85 5.904zm-1.493-1.57c5.372 5.646 3.423-10.768 9.068-5.396l1.882 1.791c-5.645-5.372-3.33 11.036-8.975 5.664zm-1.603-1.813c5.086 5.904 3.982-10.613 9.354-4.968l1.63 1.683c-5.646-5.373-3.712 11.056-9.084 5.411zm-1.541-1.866c4.789 6.148 4.532-10.428 9.618-4.524l1.575 1.734c-5.373-5.645-4.284 10.887-9.37 4.982zm-1.478-1.915c4.48 6.376 5.071-10.216 9.86-4.068l1.518 1.786c-5.086-5.905-4.846 10.686-9.635 4.538zm-1.246-1.772c4.481 6.376 4.986-10.153 9.775-4.005l1.597 2.049c-4.79-6.148-4.925 10.423-9.715 4.275zm-1.325-2.023c4.163 6.588 5.51-9.917 9.992-3.541l1.373 1.899c-4.79-6.148-5.31 10.394-9.792 4.018zm-1.257-2.065c3.836 6.784 6.022-9.655 10.186-3.068l1.31 1.944c-4.48-6.375-5.845 10.142-10.009 3.554zm-1.067-1.886c3.837 6.784 6.4-9.588 10.236-2.804l1.247 1.987c-4.163-6.588-6.367 9.862-10.204 3.079zm-1.093-2.155c3.5 6.962 6.426-9.318 10.263-2.535l1.156 2.042c-4.164-6.588-6.277 9.807-10.113 3.024zm-1.021-2.191c3.157 7.125 6.908-9.009 10.408-2.047l1.088 2.079c-3.836-6.784-6.78 9.507-10.281 2.544zm-.947-2.224c2.806 7.271 7.373-8.675 10.53-1.55l1.019 2.113c-3.5-6.963-7.27 9.18-10.427 2.055zm-.78-2.021c2.806 7.271 7.73-8.552 10.536-1.281l.949 2.146c-3.157-7.125-7.744 8.829-10.55 1.559zm-.773-2.29c2.448 7.399 7.723-8.283 10.529-1.012l.851 2.186c-3.157-7.125-7.646 8.789-10.452 1.519zm-.696-2.315c2.084 7.51 8.153-7.907 10.601-.508l.779 2.213c-2.806-7.27-8.1 8.418-10.548 1.019zm-.618-2.337c1.714 7.602 8.565-7.508 10.65.001l.705 2.238c-2.448-7.399-8.537 8.023-10.621.514zm-.476-2.113c1.714 7.602 8.895-7.332 10.61.27l.63 2.26c-2.083-7.51-8.955 7.606-10.67.004zm-.437-2.379c1.34 7.677 8.855-7.066 10.57.536l.528 2.285c-2.084-7.509-8.853 7.581-10.567-.022zm-.357-2.392c.961 7.734 9.229-6.629 10.568 1.048l.453 2.301c-1.714-7.603-9.25 7.145-10.59-.532zm-.277-2.404c.578 7.772 9.582-6.17 10.542 1.563l.378 2.314c-1.34-7.677-9.629 6.689-10.59-1.045zm-.16-2.16c.578 7.771 9.475-6.16 10.435 1.574l.32 2.577c-.96-7.733-9.57 6.425-10.531-1.309zm-.091-2.419c.193 7.791 9.806-5.686 10.384 2.085l.196 2.336c-.961-7.734-9.88 6.199-10.457-1.572zm-.011-2.421c-.193 7.791 10.115-5.194 10.309 2.597l.118 2.339c-.578-7.771-10.212 5.707-10.406-2.084zm.069-2.42c-.578 7.772 10.4-4.684 10.207 3.106l.043 2.342c-.193-7.791-10.523 5.194-10.33-2.597zm.16-2.16c-.578 7.772 10.294-4.69 10.1 3.101l-.063 2.342c-.193-7.791-10.416 5.193-10.223-2.597zm.256-2.406c-.96 7.734 10.553-4.172 9.974 3.599l-.14 2.339c.193-7.791-10.7 4.67-10.121-3.102zm.335-2.396c-1.34 7.678 10.784-3.641 9.824 4.092l-.217 2.334c.579-7.772-10.956 4.132-9.995-3.602zm.373-2.134c-1.34 7.677 11.03-3.349 9.69 4.328l-.292 2.326c.96-7.733-11.184 3.583-9.845-4.095zm.519-2.362c-1.714 7.603 10.883-3.121 9.544 4.556l-.398 2.311c.96-7.734-11.079 3.597-9.74-4.08zm.597-2.342c-2.084 7.509 11.06-2.576 9.346 5.026l-.473 2.297c1.34-7.677-11.28 3.042-9.565-4.56zm.676-2.321c-2.448 7.399 11.208-2.021 9.125 5.488l-.55 2.28c1.715-7.602-11.45 2.478-9.366-5.032zm.68-2.057c-2.448 7.399 11.401-1.7 8.953 5.699l-.624 2.262c2.084-7.51-11.593 1.904-9.145-5.495zm.852-2.262c-2.806 7.271 11.23-1.495 8.782 5.904l-.725 2.231c2.083-7.51-11.492 1.935-9.044-5.463zm.927-2.232c-3.157 7.126 11.324-.931 8.518 6.34l-.798 2.205c2.448-7.398-11.608 1.36-8.802-5.91zm1.002-2.2c-3.501 6.963 11.389-.362 8.232 6.763l-.871 2.179c2.806-7.27-11.694.778-8.537-6.347zm.973-1.935c-3.5 6.963 11.293-.407 8.136 6.718l-1.052 2.375c3.157-7.125-11.513.581-8.356-6.544zm1.168-2.116c-3.837 6.783 11.332.161 7.832 7.124l-1.038 2.104c3.157-7.125-11.657.236-8.156-6.727zm1.238-2.076c-4.164 6.587 11.343.733 7.506 7.517l-1.106 2.068c3.5-6.962-11.687-.35-7.85-7.134zm1.307-2.035c-4.481 6.376 11.325 1.309 7.161 7.897l-1.174 2.03c3.837-6.783-11.688-.94-7.525-7.528Zm1.246-1.772c-4.482 6.375 11.236 1.25 7.072 7.837l-1.387 2.196c4.163-6.587-11.475-1.105-7.311-7.693zm1.46-1.928c-4.789 6.147 11.192 1.822 6.71 8.198l-1.328 1.932c4.164-6.588-11.572-1.474-7.09-7.85zm1.525-1.88c-5.087 5.905 11.118 2.396 6.328 8.544l-1.39 1.887c4.481-6.376-11.517-2.063-6.727-8.211Zm1.587-1.828c-5.373 5.646 11.014 2.968 5.928 8.872l-1.452 1.84c4.789-6.148-11.431-2.652-6.345-8.557zm1.493-1.57c-5.372 5.646 10.935 2.896 5.849 8.8l-1.534 1.773c4.789-6.148-11.35-2.585-6.263-8.489zm1.723-1.7c-5.646 5.373 10.806 3.462 5.434 9.107l-1.59 1.72c5.087-5.904-11.237-3.168-5.864-8.814zm1.778-1.642c-5.905 5.086 10.649 4.022 5.003 9.394l-1.644 1.668c5.372-5.646-11.095-3.75-5.45-9.122zm1.641-1.414c-5.904 5.086 10.653 4.405 4.748 9.492l-1.698 1.613c5.645-5.372-10.922-4.323-5.018-9.41zm1.899-1.5c-6.148 4.79 10.395 4.491 4.491 9.578l-1.771 1.534c5.646-5.372-10.85-4.244-4.946-9.33zm1.947-1.435c-6.376 4.481 10.184 5.029 4.037 9.818l-1.82 1.476c5.904-5.086-10.652-4.805-4.504-9.594zm1.993-1.37c-6.588 4.164 9.947 5.555 3.571 10.036l-1.868 1.417c6.148-4.79-10.425-5.354-4.049-9.835zm1.831-1.157c-6.588 4.163 9.888 5.466 3.513 9.948l-2.126 1.493c6.376-4.48-10.167-5.43-3.792-9.912zm2.093-1.211c-6.784 3.836 9.628 5.976 3.04 10.14l-1.973 1.267c6.376-4.482-10.112-5.802-3.524-9.966zm2.131-1.14c-6.963 3.5 9.342 6.473 2.559 10.31l-2.014 1.2c6.587-4.163-9.835-6.322-3.052-10.158zm2.168-1.07c-7.125 3.158 9.031 6.956 2.069 10.457l-2.054 1.134c6.784-3.836-9.531-6.827-2.569-10.328zm1.98-.877c-7.125 3.157 8.987 6.86 2.024 10.36l-2.321 1.168c6.963-3.501-9.264-6.86-2.301-10.361zm2.244-.898c-7.27 2.806 8.656 7.324 1.531 10.481l-2.136.971c6.963-3.5-9.158-7.222-2.033-10.38zm2.273-.823c-7.399 2.448 8.3 7.773 1.03 10.579l-2.167.9c7.125-3.157-8.809-7.695-1.538-10.5zm2.299-.746c-7.509 2.084 7.922 8.203.524 10.651l-2.196.829c7.271-2.806-8.436-8.15-1.037-10.598zm2.087-.58c-7.509 2.085 7.892 8.103.493 10.55l-2.466.817c7.399-2.448-8.165-8.138-.766-10.586zm2.351-.566c-7.603 1.714 7.495 8.514-.015 10.598l-2.252.654c7.399-2.448-8.009-8.486-.499-10.57zm2.368-.489c-7.677 1.34 7.077 8.908-.526 10.622l-2.272.58c7.509-2.084-7.593-8.904.009-10.618zm2.384-.409c-7.734.96 6.637 9.281-1.04 10.62l-2.29.506c7.602-1.714-7.156-9.303.521-10.642zm2.15-.267c-7.734.96 6.621 9.176-1.056 10.515l-2.311.401c7.602-1.714-7.135-9.198.542-10.538zm2.409-.224c-7.772.578 6.165 9.528-1.569 10.489l-2.321.324c7.677-1.34-6.681-9.575 1.053-10.536zm2.416-.144c-7.79.193 5.689 9.86-2.082 10.438l-2.331.248c7.734-.96-6.205-9.932 1.567-10.51zm2.166-.054c-7.791.193 5.449 10.158-2.342 10.351l-2.337.173c7.772-.578-5.709-10.267 2.082-10.46zm2.421.043c-7.791-.193 5.194 10.062-2.597 10.255l-2.342.065c7.772-.578-5.704-10.16 2.087-10.352zm2.417.122c-7.772-.578 4.687 10.347-3.103 10.154l-2.342-.01c7.79-.194-5.194-10.47 2.597-10.277zm2.411.203c-7.734-.961 4.167 10.605-3.605 10.027l-2.341-.087c7.791.194-4.667-10.753 3.105-10.175zm2.15.267c-7.734-.961 4.177 10.499-3.594 9.92l-2.591-.192c7.772.578-4.417-10.647 3.354-10.07zm2.388.388c-7.678-1.34 3.649 10.73-4.084 9.77l-2.328-.27c7.771.579-4.138-10.902 3.596-9.942zm2.372.467c-7.602-1.714 3.111 10.935-4.566 9.596l-2.318-.346c7.733.96-3.59-11.131 4.087-9.792zm2.355.546c-7.509-2.084 2.563 11.111-5.039 9.397l-2.307-.422c7.677 1.34-3.032-11.33 4.57-9.616zm2.088.579c-7.509-2.084 2.589 11.009-5.014 9.295l-2.534-.572c7.602 1.714-2.805-11.18 4.798-9.467zm2.306.726c-7.399-2.448 2.036 11.158-5.473 9.074l-2.268-.6c7.603 1.714-2.49-11.4 5.019-9.315zm2.279.802c-7.27-2.806 1.477 11.28-5.921 8.832l-2.247-.675c7.51 2.084-1.92-11.543 5.479-9.095zm2.252.879c-7.125-3.157.911 11.372-6.359 8.566l-2.224-.749c7.399 2.448-1.342-11.657 5.929-8.851zm1.981.877c-7.125-3.157.952 11.275-6.319 8.47l-2.188-.85c7.399 2.449-1.378-11.557 5.893-8.751zm2.177 1.05c-6.963-3.501.385 11.34-6.74 8.184l-2.158-.92c7.27 2.806-.799-11.646 6.327-8.489zm2.141 1.12c-6.783-3.836-.186 11.38-7.149 7.88l-2.126-.991c7.125 3.157-.214-11.704 6.749-8.204zm1.886 1.067c-6.783-3.836-.543 11.515-7.327 7.678l-2.093-1.06c6.963 3.501.375-11.733 7.159-7.897zm2.049 1.284c-6.588-4.164-.707 11.297-7.49 7.46l-2.043-1.152c6.962 3.5.325-11.64 7.109-7.804zm2.005 1.351c-6.375-4.481-1.279 11.28-7.867 7.117l-2.003-1.22c6.783 3.837.913-11.642 7.501-7.479zm1.96 1.418c-6.148-4.79-1.854 11.234-8.23 6.753l-1.962-1.285c6.588 4.164 1.504-11.615 7.879-7.134zm1.709 1.331c-6.148-4.79-2.225 11.31-8.373 6.522l-1.919-1.348c6.376 4.481 2.095-11.56 8.243-6.77zm1.845 1.566c-5.904-5.087-2.361 11.076-8.509 6.287l-1.855-1.434c6.375 4.482 2.031-11.473 8.179-6.684zm1.793 1.626c-5.646-5.372-2.932 10.975-8.836 5.889l-1.806-1.493c6.147 4.79 2.618-11.39 8.522-6.304zm1.738 1.685c-5.372-5.645-3.499 10.845-9.145 5.472l-1.756-1.55c5.904 5.087 3.205-11.276 8.85-5.904zm1.493 1.57c-5.372-5.646-3.423 10.768-9.068 5.396l-1.882-1.791c5.645 5.372 3.33-11.036 8.975-5.664zm1.603 1.813c-5.086-5.904-3.982 10.613-9.354 4.968l-1.63-1.683c5.646 5.373 3.712-11.056 9.084-5.41zm1.541 1.866c-4.789-6.148-4.532 10.428-9.618 4.524l-1.575-1.734c5.373 5.645 4.284-10.887 9.371-4.982zm1.478 1.915c-4.481-6.376-5.071 10.216-9.86 4.068l-1.518-1.786c5.087 5.905 4.846-10.686 9.635-4.538zm1.246 1.772c-4.481-6.376-4.986 10.153-9.775 4.005l-1.597-2.05c4.79 6.149 4.925-10.422 9.715-4.274zm1.325 2.023c-4.163-6.588-5.51 9.917-9.992 3.541l-1.373-1.9c4.789 6.149 5.311-10.393 9.792-4.017zm1.257 2.065c-3.836-6.784-6.022 9.655-10.186 3.068l-1.311-1.944c4.482 6.375 5.846-10.142 10.01-3.554zm1.067 1.886c-3.837-6.784-6.4 9.588-10.236 2.804l-1.247-1.987c4.163 6.588 6.367-9.862 10.204-3.079zm1.093 2.156c-3.5-6.963-6.426 9.317-10.263 2.534l-1.156-2.042c4.164 6.588 6.277-9.807 10.113-3.024zm1.021 2.19c-3.157-7.125-6.907 9.009-10.408 2.047l-1.088-2.079c3.836 6.784 6.781-9.506 10.282-2.544zm.947 2.224c-2.806-7.27-7.373 8.675-10.53 1.55l-1.019-2.113c3.501 6.963 7.27-9.18 10.427-2.055zm.78 2.021c-2.806-7.27-7.73 8.552-10.536 1.281l-.949-2.146c3.157 7.125 7.744-8.83 10.55-1.559zm.773 2.29c-2.448-7.399-7.723 8.283-10.529 1.012l-.851-2.186c3.157 7.125 7.646-8.79 10.452-1.519zm.696 2.315c-2.084-7.51-8.153 7.907-10.601.508l-.779-2.213c2.806 7.27 8.1-8.418 10.548-1.019zm.618 2.337c-1.714-7.602-8.565 7.508-10.649-.001l-.706-2.238c2.448 7.399 8.537-8.023 10.621-.514zm.477 2.113c-1.715-7.602-8.896 7.332-10.61-.27l-.632-2.26c2.084 7.51 8.956-7.606 10.67-.004zm.436 2.379c-1.34-7.677-8.855 7.066-10.57-.536l-.528-2.285c2.084 7.509 8.852-7.581 10.567.022zm.357 2.392c-.961-7.734-9.229 6.629-10.568-1.048l-.453-2.301c1.714 7.603 9.25-7.145 10.59.532zm.277 2.404c-.578-7.772-9.582 6.17-10.542-1.563l-.378-2.314c1.34 7.677 9.629-6.689 10.589 1.045zm.161 2.16c-.579-7.771-9.476 6.16-10.436-1.574l-.321-2.577c.961 7.733 9.572-6.425 10.532 1.309zm.09 2.419c-.193-7.791-9.806 5.686-10.384-2.085l-.196-2.336c.961 7.734 9.879-6.199 10.458 1.572zm.011 2.421c.193-7.791-10.115 5.194-10.309-2.597l-.118-2.339c.578 7.771 10.212-5.707 10.406 2.084zm-.069 2.42c.579-7.772-10.4 4.684-10.207-3.106l-.043-2.342c.193 7.791 10.523-5.194 10.33 2.597z" class="stroke-orange fill-orange stroke-foreground fill-foreground" style="display:inline;fill:#ff851b;stroke:#111;stroke-width:.254;stroke-linecap:square;stroke-linejoin:round;stroke-dasharray:none;stroke-opacity:1" transform="translate(-78.747 -57.257)"/>
  </g>
</svg>
