<?xml version="1.0" encoding="UTF-8" standalone="no"?>
<svg
   xml:space="preserve"
   viewBox="0 0 534.75319 252.80198"
   version="1.1"
   id="svg2532"
   sodipodi:docname="conway_circ_isotopy.svg"
   inkscape:version="1.4.2 (ebf0e940d0, 2025-05-08)"
   width="534.75317"
   height="252.80199"
   xmlns:inkscape="http://www.inkscape.org/namespaces/inkscape"
   xmlns:sodipodi="http://sodipodi.sourceforge.net/DTD/sodipodi-0.dtd"
   xmlns="http://www.w3.org/2000/svg"
   xmlns:svg="http://www.w3.org/2000/svg">
  <defs
   id="defs2532"><inkscape:path-effect
   effect="envelope"
   id="path-effect3"
   is_visible="true"
   lpeversion="1"
   yy="true"
   xx="true"
   bendpath1="m -299.64745,-8.1899252 c 81.5623,-36.4496578 115.76054,-119.2485448 247.811156,0"
   bendpath2="m -51.836294,-8.1899252 c -2.969858,68.9730992 -157.797236,59.8480472 0,211.5013652"
   bendpath3="m -299.64745,203.31144 c 82.29588,-1.75908 157.63753,-43.25663 247.811156,0"
   bendpath4="m -299.64745,-8.1899252 c 5.96499,70.5004552 93.69174,141.0009052 0,211.5013652"
   bendpath1-nodetypes="cc"
   bendpath2-nodetypes="cc"
   bendpath3-nodetypes="cc"
   bendpath4-nodetypes="cc" /><inkscape:path-effect
   effect="perspective-envelope"
   up_left_point="-299.64745,-8.1899252"
   up_right_point="-51.836294,-8.1899252"
   down_left_point="-299.64745,203.31144"
   down_right_point="-51.836294,203.31144"
   id="path-effect2"
   is_visible="true"
   lpeversion="1"
   deform_type="perspective"
   horizontal_mirror="false"
   vertical_mirror="false"
   overflow_perspective="false" />
    <inkscape:path-effect
   effect="knot"
   id="path-effect2545"
   is_visible="true"
   lpeversion="1"
   switcher_size="15"
   interruption_width="7"
   prop_to_stroke_width="true"
   add_stroke_width="inkscape_1.0_and_up"
   both="false"
   inverse_width="false"
   add_other_stroke_width="inkscape_1.0_and_up"
   crossing_points_vector="-4177.4894 | 1760.5784 | 0 | 0 | 0 | 3 | 1.352638 | 19.698035 | 1 | -4381.4315 | 1736.8349 | 0 | 0 | 1 | 8 | 5.5057725 | 55.475631 | 1 | -4312.7515 | 1547.1897 | 0 | 0 | 2 | 7 | 13.196583 | 50.961568 | 1 | -4107.4664 | 1995.9554 | 0 | 0 | 4 | 9 | 25.859571 | 66.391006 | 1 | -3872.7684 | 1718.1022 | 0 | 0 | 5 | 12 | 36.764044 | 86.564588 | 1 | -3944.3482 | 1535.1164 | 0 | 0 | 6 | 11 | 41.223367 | 79.512724 | 1 | -4053.4994 | 1753.6414 | 0 | 0 | 10 | 13 | 72.980523 | 90.127431 | 1" />
    <inkscape:path-effect
   effect="knot"
   id="path-effect2544"
   is_visible="true"
   lpeversion="1"
   switcher_size="15"
   interruption_width="7"
   prop_to_stroke_width="true"
   add_stroke_width="inkscape_1.0_and_up"
   both="false"
   inverse_width="false"
   add_other_stroke_width="inkscape_1.0_and_up"
   crossing_points_vector="5074.5907 | 5735.9959 | 0 | 0 | 0 | 5 | 4.5661991 | 43.488653 | 1 | 5951.692 | 4332.5948 | 0 | 0 | 1 | 4 | 12.200567 | 37.964831 | 1 | 3495.1096 | 3266.9657 | 0 | 0 | 2 | 9 | 18.202106 | 78.727987 | 1 | 3534.8468 | 1804.6805 | 0 | 0 | 3 | 8 | 25.930912 | 73.42574 | 1 | 1894.152 | 5927.9876 | 0 | 0 | 6 | 11 | 52.105053 | 88.413831 | 1 | 1114.7259 | 4710.5306 | 0 | 0 | 7 | 12 | 56.824602 | 95.844162 | 1 | 2765.9504 | 4716.1885 | 0 | 0 | 10 | 13 | 83.662903 | 101.34275 | 1" />
    <inkscape:path-effect
   effect="knot"
   id="path-effect2543"
   is_visible="true"
   lpeversion="1"
   switcher_size="15"
   interruption_width="7"
   prop_to_stroke_width="true"
   add_stroke_width="inkscape_1.0_and_up"
   both="false"
   inverse_width="false"
   add_other_stroke_width="inkscape_1.0_and_up"
   crossing_points_vector="2313.2102 | 2294.1968 | 0 | 0 | 0 | 7 | 4.5189061 | 53.132662 | 1 | 3748.6754 | 2305.7643 | 0 | 0 | 1 | 8 | 13.028878 | 58.589472 | 1 | 3088.5459 | 3381.5992 | 0 | 0 | 2 | 13 | 17.443026 | 97.46847 | 1 | 3041.2974 | 4280.8751 | 0 | 0 | 3 | 12 | 20.575021 | 91.826164 | 1 | 4204.7871 | 5189.3942 | 0 | 0 | 4 | 9 | 25.738867 | 70.779078 | 1 | 3027.0488 | 6213.7858 | 0 | 0 | 5 | 10 | 35.403535 | 76.454948 | 1 | 1711.7837 | 5111.7807 | 0 | 0 | 6 | 11 | 41.722868 | 85.843302 | 1" />
    <inkscape:path-effect
   effect="knot"
   id="path-effect2542"
   is_visible="true"
   lpeversion="1"
   switcher_size="15"
   interruption_width="7"
   prop_to_stroke_width="true"
   add_stroke_width="inkscape_1.0_and_up"
   both="false"
   inverse_width="false"
   add_other_stroke_width="inkscape_1.0_and_up"
   crossing_points_vector="4247.8099 | 2799.9491 | 0 | 0 | 0 | 9 | 4.2127717 | 69.050519 | 1 | 5234.0053 | 4261.0719 | 0 | 0 | 1 | 8 | 12.68179 | 62.585371 | 1 | 4348.726 | 5297.1307 | 0 | 0 | 2 | 7 | 17.000325 | 53.24136 | 1 | 1978.6371 | 5333.0145 | 0 | 0 | 3 | 12 | 25.567525 | 94.430857 | 1 | 920.73442 | 4196.4353 | 0 | 0 | 4 | 11 | 30.724759 | 84.862581 | 1 | 1894.1934 | 2691.5041 | 0 | 0 | 5 | 10 | 40.378674 | 78.568898 | 1 | 3097.3406 | 3900.6984 | 0 | 0 | 6 | 13 | 46.415331 | 100.8402 | 1" />
    <inkscape:path-effect
   effect="knot"
   id="path-effect2541"
   is_visible="true"
   lpeversion="1"
   switcher_size="15"
   interruption_width="6.1"
   prop_to_stroke_width="true"
   add_stroke_width="inkscape_1.0_and_up"
   both="false"
   inverse_width="false"
   add_other_stroke_width="inkscape_1.0_and_up"
   crossing_points_vector="3042.8485 | 3580.6696 | 0 | 0 | 0 | 5 | 2.2013444 | 40.667545 | 1 | 4359.3501 | 4797.8084 | 0 | 0 | 1 | 8 | 9.4336087 | 74.457116 | 1 | 3703.5815 | 5914.5496 | 0 | 0 | 2 | 9 | 18.86118 | 79.859208 | 1 | 2198.4398 | 5790.9586 | 0 | 0 | 3 | 10 | 25.909983 | 88.321959 | 1 | 1571.5341 | 4378.8851 | 0 | 0 | 4 | 11 | 34.004171 | 95.865922 | 1 | 3102.8529 | 2740.9419 | 0 | 0 | 6 | 13 | 48.604625 | 119.05702 | 1 | 3200.9663 | 1688.1622 | 0 | 0 | 7 | 12 | 56.547724 | 114.81622 | 1" />
    <inkscape:path-effect
   effect="knot"
   id="path-effect2540"
   is_visible="true"
   lpeversion="1"
   switcher_size="15"
   interruption_width="7"
   prop_to_stroke_width="true"
   add_stroke_width="inkscape_1.0_and_up"
   both="false"
   inverse_width="false"
   add_other_stroke_width="inkscape_1.0_and_up"
   crossing_points_vector="1274.0071 | 4132.3828 | 0 | 0 | 0 | 11 | 4.3748506 | 69.622558 | 1 | 1804.8171 | 5567.2674 | 0 | 0 | 1 | 10 | 10.956077 | 65.269774 | 1 | 3235.5816 | 6006.6698 | 0 | 0 | 2 | 9 | 15.215105 | 59.350106 | 1 | 4559.0061 | 5205.0157 | 0 | 0 | 3 | 8 | 21.033686 | 54.801001 | 1 | 4750.7842 | 3648.0996 | 0 | 0 | 4 | 7 | 25.565293 | 48.361924 | 1 | 2783.117 | 1711.5699 | 0 | 0 | 5 | 12 | 36.084643 | 81.58442 | 1 | 2803.6092 | 2937.4435 | 0 | 0 | 6 | 13 | 42.358883 | 85.113706 | 1" />
    <inkscape:path-effect
   effect="knot"
   id="path-effect2539"
   is_visible="true"
   lpeversion="1"
   switcher_size="15"
   interruption_width="7"
   prop_to_stroke_width="true"
   add_stroke_width="inkscape_1.0_and_up"
   both="false"
   inverse_width="false"
   add_other_stroke_width="inkscape_1.0_and_up"
   crossing_points_vector="3775.0427 | 5777.6799 | 0 | 0 | 0 | 7 | 4.2895557 | 51.617189 | 1 | 2038.1862 | 5623.4299 | 0 | 0 | 1 | 8 | 11.712462 | 57.681999 | 1 | 1083.2059 | 4217.6625 | 0 | 0 | 2 | 9 | 17.31901 | 65.840842 | 1 | 1736.0623 | 2506.5077 | 0 | 0 | 3 | 10 | 25.811044 | 72.050949 | 1 | 3346.3346 | 2093.0005 | 0 | 0 | 4 | 11 | 31.307558 | 80.014133 | 1 | 4751.7227 | 3127.5923 | 0 | 0 | 5 | 12 | 38.965183 | 86.054069 | 1 | 4870.4964 | 4723.4619 | 0 | 0 | 6 | 13 | 44.205117 | 93.476676 | 1" />
    <inkscape:path-effect
   effect="knot"
   id="path-effect2538"
   is_visible="true"
   lpeversion="1"
   switcher_size="15"
   interruption_width="7"
   prop_to_stroke_width="true"
   add_stroke_width="inkscape_1.0_and_up"
   both="false"
   inverse_width="false"
   add_other_stroke_width="inkscape_1.0_and_up"
   crossing_points_vector="3326.2851 | 4100.2917 | 0 | 0 | 0 | 3 | 2.5375789 | 21.562596 | 1 | 3841.5265 | 5623.0338 | 0 | 0 | 1 | 8 | 7.666998 | 63.046621 | 1 | 2308.0843 | 5456.8383 | 0 | 0 | 2 | 9 | 15.918529 | 68.036208 | 1 | 4235.9766 | 2674.4513 | 0 | 0 | 4 | 7 | 27.537567 | 50.461426 | 1 | 1714.0248 | 2427.0062 | 0 | 0 | 5 | 10 | 38.7323 | 80.464808 | 1 | 2662.5229 | 3040.5805 | 0 | 0 | 6 | 11 | 44.954706 | 84.065838 | 1" />
    <inkscape:path-effect
   effect="knot"
   id="path-effect2537"
   is_visible="true"
   lpeversion="1"
   switcher_size="15"
   interruption_width="7"
   prop_to_stroke_width="true"
   add_stroke_width="inkscape_1.0_and_up"
   both="false"
   inverse_width="false"
   add_other_stroke_width="inkscape_1.0_and_up"
   crossing_points_vector="3798.6841 | 2339.8185 | 0 | 0 | 0 | 7 | 4.0581397 | 50.52829 | 1 | 2215.9801 | 2398.1451 | 0 | 0 | 1 | 6 | 11.639354 | 45.427894 | 1 | 3101.0201 | 3783.4003 | 0 | 0 | 2 | 11 | 16.647608 | 81.246703 | 1 | 4418.8536 | 4923.8457 | 0 | 0 | 3 | 8 | 21.709449 | 61.070047 | 1 | 2987.9847 | 6146.5547 | 0 | 0 | 4 | 9 | 30.153289 | 67.156228 | 1 | 1723.5165 | 5069.9354 | 0 | 0 | 5 | 10 | 35.168879 | 75.619537 | 1" />
    <inkscape:path-effect
   effect="knot"
   id="path-effect2536"
   is_visible="true"
   lpeversion="1"
   switcher_size="15"
   interruption_width="7"
   prop_to_stroke_width="true"
   add_stroke_width="inkscape_1.0_and_up"
   both="false"
   inverse_width="false"
   add_other_stroke_width="inkscape_1.0_and_up"
   crossing_points_vector="2029.86 | 5742.8488 | 0 | 0 | 0 | 5 | 5.767422 | 47.466975 | 1 | 1354.0373 | 4290.58 | 0 | 0 | 1 | 4 | 11.171124 | 39.260789 | 1 | 3325.7946 | 1790.2527 | 0 | 0 | 2 | 9 | 26.424993 | 75.339306 | 1 | 3056.6788 | 3318.1245 | 0 | 0 | 3 | 8 | 32.815872 | 68.04179 | 1 | 3735.0096 | 5821.2634 | 0 | 0 | 6 | 11 | 53.716453 | 94.460862 | 1 | 4544.644 | 4530.7537 | 0 | 0 | 7 | 10 | 61.656581 | 89.403876 | 1" />
    <inkscape:path-effect
   effect="knot"
   id="path-effect2535"
   is_visible="true"
   lpeversion="1"
   switcher_size="15"
   interruption_width="7"
   prop_to_stroke_width="true"
   add_stroke_width="inkscape_1.0_and_up"
   both="false"
   inverse_width="false"
   add_other_stroke_width="inkscape_1.0_and_up"
   crossing_points_vector="2978.9219 | 3492.1198 | 0 | 0 | 0 | 5 | 5.3689836 | 47.625345 | 1 | 2709.2737 | 1851.1222 | 0 | 0 | 1 | 6 | 11.634626 | 53.78992 | 1 | 4498.9697 | 4927.1842 | 0 | 0 | 2 | 9 | 28.032609 | 80.451794 | 1 | 3007.307 | 6094.4675 | 0 | 0 | 3 | 8 | 33.94872 | 72.868712 | 1 | 1619.3958 | 5009.7911 | 0 | 0 | 4 | 7 | 41.894864 | 67.723467 | 1" />
    <inkscape:path-effect
   effect="knot"
   id="path-effect2534"
   is_visible="true"
   lpeversion="1"
   switcher_size="15"
   interruption_width="7"
   prop_to_stroke_width="true"
   add_stroke_width="inkscape_1.0_and_up"
   both="false"
   inverse_width="false"
   add_other_stroke_width="inkscape_1.0_and_up"
   crossing_points_vector="4268.3248 | 2820.8704 | 0 | 0 | 0 | 5 | 4.7854094 | 41.368482 | 1 | 4508.9047 | 4846.1524 | 0 | 0 | 1 | 6 | 12.992326 | 46.571572 | 1 | 2462.7482 | 5772.8808 | 0 | 0 | 2 | 7 | 18.904421 | 55.150066 | 1 | 1123.0585 | 4263.7466 | 0 | 0 | 3 | 8 | 27.395817 | 60.215677 | 1 | 2209.0717 | 2394.9604 | 0 | 0 | 4 | 9 | 33.085895 | 68.366205 | 1" />
    <inkscape:path-effect
   effect="knot"
   id="path-effect2533"
   is_visible="true"
   lpeversion="1"
   switcher_size="15"
   interruption_width="7"
   prop_to_stroke_width="true"
   add_stroke_width="inkscape_1.0_and_up"
   both="false"
   inverse_width="false"
   add_other_stroke_width="inkscape_1.0_and_up"
   crossing_points_vector="3287.6974 | 1705.3804 | 0 | 0 | 0 | 3 | 4.9735945 | 40.419729 | 1 | 4215.5122 | 4936.8699 | 0 | 0 | 1 | 6 | 18.405811 | 62.374013 | 1 | 2032.6707 | 5009.1181 | 0 | 0 | 2 | 5 | 24.931736 | 51.563776 | 1 | 3110.2661 | 3293.8629 | 0 | 0 | 4 | 7 | 45.817018 | 67.933859 | 1" />
    <inkscape:path-effect
   effect="knot"
   id="path-effect2532"
   is_visible="true"
   lpeversion="1"
   switcher_size="15"
   interruption_width="7"
   prop_to_stroke_width="true"
   add_stroke_width="inkscape_1.0_and_up"
   both="false"
   inverse_width="false"
   add_other_stroke_width="inkscape_1.0_and_up"
   crossing_points_vector="1834.1465 | 4349.1004 | 0 | 0 | 0 | 3 | 0.21772072 | 21.63153 | 1 | 3034.793 | 2155.7933 | 0 | 0 | 1 | 4 | 5.6907708 | 32.010639 | 1 | 4290.4711 | 4357.6909 | 0 | 0 | 2 | 5 | 16.246602 | 37.607306 | 1" />
  <inkscape:path-effect
   effect="knot"
   id="path-effect2544-9"
   is_visible="true"
   lpeversion="1"
   switcher_size="15"
   interruption_width="7"
   prop_to_stroke_width="true"
   add_stroke_width="inkscape_1.0_and_up"
   both="false"
   inverse_width="false"
   add_other_stroke_width="inkscape_1.0_and_up"
   crossing_points_vector="5074.5907 | 5735.9959 | 0 | 0 | 0 | 5 | 4.5661991 | 43.488653 | 1 | 5951.692 | 4332.5948 | 0 | 0 | 1 | 4 | 12.200567 | 37.964831 | 1 | 3495.1096 | 3266.9657 | 0 | 0 | 2 | 9 | 18.202106 | 78.727987 | 1 | 3534.8468 | 1804.6805 | 0 | 0 | 3 | 8 | 25.930912 | 73.42574 | 1 | 1894.152 | 5927.9876 | 0 | 0 | 6 | 11 | 52.105053 | 88.413831 | 1 | 1114.7259 | 4710.5306 | 0 | 0 | 7 | 12 | 56.824602 | 95.844162 | 1 | 2765.9504 | 4716.1885 | 0 | 0 | 10 | 13 | 83.662903 | 101.34275 | 1" /></defs>
  <sodipodi:namedview
   id="namedview2532"
   pagecolor="#ffffff"
   bordercolor="#000000"
   borderopacity="0.25"
   inkscape:showpageshadow="2"
   inkscape:pageopacity="0.0"
   inkscape:pagecheckerboard="0"
   inkscape:deskcolor="#d1d1d1"
   inkscape:zoom="1.401845"
   inkscape:cx="250.74099"
   inkscape:cy="309.94867"
   inkscape:window-width="2234"
   inkscape:window-height="1418"
   inkscape:window-x="0"
   inkscape:window-y="0"
   inkscape:window-maximized="1"
   inkscape:current-layer="svg2532" />
  
  
  
  
  
  
  
  
  
  
  
  
  
  
  
  
  
  
  
  
  
  
  
  
  
  
  
  
  
  
  
  
  
  
  
  
  
  
  
  
  
  
  
  
  
  
  
  
  
  
  
  
  
  
  
  
<g
   id="g2"
   transform="translate(284.35721,19.40958)"><path
     d="m 1540.3121,4452.7894 c 67.6634,-24.7568 137.767,-43.3008 208.8379,-52.3894 93.2953,-11.9307 189.2923,-6.213 282,9.65 101.623,17.3885 198.9918,55.3512 295.05,92.8 111.7853,43.5801 219.1875,97.9609 325.85,152.9 111.4605,57.4104 221.0048,118.7675 327.8,184.45 95.7266,58.875 177.5008,141.7889 280.1,187.65 350.5983,156.7151 771.1934,116.7451 1116.1489,285.5186 85.7253,41.9421 147.3172,121.8069 226.25,175.45 90.5873,61.5635 183.8854,120.2679 282.8,167.3 109.0972,51.8737 222.5635,97.1348 340,125.45 116.9431,28.1962 238.0835,47.4259 358.3,43.1 110.3503,-3.9709 223.4408,-20.2278 325.2,-63.1 91.7594,-38.6592 179.7046,-95.4093 245.55,-170.1 64.0461,-72.6497 109.6265,-164.0196 134.2,-257.7 26.4444,-100.8126 24.8506,-209.2975 10.3,-312.5 -11.8602,-84.1203 -37.3173,-166.3616 -69.6658,-245.4857 m -672.504,-743.7222 C 5395.3568,3961.9482 5220.9176,3917.196 5052.9416,3865.3154 4829.8945,3796.4257 4590.8529,3784.4486 4370.95,3706.1 c -82.1022,-29.252 -156.4878,-76.7949 -234.85,-114.95 -66.4354,-32.3478 -133.2707,-63.88 -199.7247,-96.1876 m -860.9368,-493.0976 c -32.586,-24.7592 -64.0834,-50.8255 -93.7385,-78.9648 -65.0397,-61.7154 -130.619,-127.3549 -171.7,-207.05 -33.8879,-65.7407 -57.3384,-140.49 -56.95,-214.45 0.3917,-74.586 25.1972,-149.523 59.7,-215.65 40.514,-77.648 102.2964,-143.9888 167.6,-202.35 76.536,-68.3995 165.8476,-122.7307 257.65,-168.65 101.3554,-50.6977 209.7057,-88.2658 319.6,-115.95 113.7855,-28.6644 231.0917,-45.482 348.3,-51.05 115.2177,-5.4735 231.5912,-0.023 345.6,17.5 108.3226,16.6493 215.7494,43.8289 318.2,82.75 96.0388,36.4853 188.9508,83.2396 274.55,140.05 80.9695,53.7378 156.3277,117.1019 222.95,187.85 64.7356,68.7445 121.5426,145.6815 169.2,227.2 47.9341,81.9918 86.421,170.034 115.65,260.4 30.3453,93.8171 50.3727,191.4218 61,289.45 11.2903,104.1434 -50.0001,223.66 2.6,314.25 80.0176,137.8096 291.539,137.516 413.2163,240.4186 154.4591,130.6262 382.4427,264.3779 388.0488,466.5891 4.2699,154.0157 -181.9494,248.7241 -275.4162,371.2109 -67.4958,88.4522 -134.7385,177.1942 -206.05,262.6 -61.8123,74.0292 -132.0858,140.8558 -192.1,216.35 -52.7919,66.409 -104.8034,134.1253 -147.3,207.55 -45.611,78.8056 -77.4851,164.8155 -114.4,248.05 -0.4285,0.9661 -0.8562,1.9325 -1.2832,2.8993 m -497.7178,875.1881 c -6.6505,7.4488 -13.3662,14.8374 -20.149,22.1626 -76.0537,82.1353 -146.3092,182.2473 -250.15,224.05 -358.8662,144.4669 -776.4251,-10.767 -1159.8489,40.6314 -95.6861,12.8268 -185.722,58.0741 -281.9,66.45 -97.7935,8.5166 -197.6566,1.8166 -294,-17 -104.2946,-20.3695 -205.8691,-56.9885 -301.8,-102.7 -65.0595,-31.0012 -127.6835,-67.4439 -187.7293,-107.6989 m -670.762,-770.9587 c -17.9326,-31.7203 -36.0047,-63.3578 -55.0587,-94.3924 -47.843,-77.9255 -97.387,-154.8119 -147.8,-231.1 -53.7889,-81.3967 -113.8126,-158.6926 -165,-241.75 -57.3638,-93.0794 -112.5299,-187.9338 -158.9,-286.95 -49.5418,-105.7889 -91.64691,-215.3001 -126.8,-326.7 -35.53972,-112.6252 -63.0824,-227.9272 -84.5995,-344.05 -21.06292,-113.6717 -34.99636,-228.7956 -43.352,-344.1 -8.08925,-111.6282 -10.14423,-223.8385 -6.4975,-335.7 3.53103,-108.3127 12.29497,-216.6445 27.449,-323.95 14.73905,-104.3671 34.4655,-208.2998 61.5995,-310.15 26.53748,-99.6111 58.45152,-198.1755 98.6505,-293.1 39.5617,-93.4197 85.273,-184.7706 139.6,-270.45 53.9649,-85.1084 114.9341,-166.4728 183.85,-240 69.353,-73.9936 146.0699,-141.9475 229.05,-200.25 84.7769,-59.5649 176.3491,-110.4983 271.8,-150.8 98.777,-41.7061 202.6724,-72.6907 308,-92.75 109.425,-20.8396 221.6243,-29.8871 333,-28 114.5941,1.9417 229.577,15.4999 341.45,40.4 26.84,5.9739 53.5885,12.5623 80.1839,19.7845 m 890.7466,790.2813 c 14.7387,68.332 20.277,139.079 17.6195,208.6342 -3.654,95.635 -27.7093,190.2577 -56.75,281.45 -33.1918,104.2275 -84.1042,202.1518 -133.1,299.95 -53.4046,106.5986 -116.0632,208.3075 -175,311.95 -56.5891,99.514 -115.9199,197.469 -171.5,297.55 -49.3204,88.8093 -97.8078,178.1217 -143.7,268.75 -44.8512,88.5727 -86.7665,178.6127 -128.6,268.65 -11.6175,25.004 -23.1223,50.0598 -34.5452,75.1532 m -400.4276,911.7922 c -36.3855,80.8101 -71.0634,162.7553 -116.9772,238.4546 -49.6633,81.8811 -105.0313,161.4327 -170.95,230.9 -75.7405,79.8178 -161.9423,150.7811 -254.65,210.05 -102.2932,65.397 -212.6674,120.7397 -328.3,157.75 -113.6885,36.3881 -233.4828,61.9421 -352.85,61.15 -107.2587,-0.7118 -218.4953,-15.114 -316.3,-59.15 -87.03637,-39.1876 -169.42543,-98.971 -225.9995,-175.85 -56.22099,-76.3991 -88.78347,-172.2155 -100.0485,-266.4 -12.55787,-104.9938 6.98573,-213.9155 38.347,-314.9 11.17292,-35.9772 24.90327,-71.1891 40.65229,-105.5815"
     class="stroke-orange fill-orange"
     style="fill:none;stroke:#ff851b;stroke-width:141.732;stroke-linecap:round;stroke-linejoin:miter;stroke-miterlimit:10;stroke-dasharray:none;stroke-opacity:1"
     transform="matrix(0.03528,0,0,-0.03528,3.90772,251.69736)"
     id="path2316"
     sodipodi:nodetypes="aaaaaaaaaaaaaaaaaaaaaaaaaaaaaaaaaaaaaaaaaaaaaaaaaaaaaaaaaaaaaaaaaaaaaaaaaaaaaaaaaaaaaaaaaaaaaaaaaaaaaaa"
     inkscape:path-effect="#path-effect2544"
     inkscape:original-d="m 2979.85,4840.2 c 95.7266,58.875 177.5008,141.7889 280.1,187.65 350.5983,156.7151 771.1934,116.7451 1116.1489,285.5186 85.7253,41.9421 147.3172,121.8069 226.25,175.45 90.5873,61.5635 183.8854,120.2679 282.8,167.3 109.0972,51.8737 222.5635,97.1348 340,125.45 116.9431,28.1962 238.0835,47.4259 358.3,43.1 110.3503,-3.9709 223.4408,-20.2278 325.2,-63.1 91.7594,-38.6592 179.7046,-95.4093 245.55,-170.1 64.0461,-72.6497 109.6265,-164.0196 134.2,-257.7 26.4444,-100.8126 24.8506,-209.2975 10.3,-312.5 -16.0464,-113.8117 -56.9821,-224.1838 -106.2,-328.05 -51.7924,-109.2992 -121.0925,-210.4556 -196.4,-305.1 -73.1865,-91.9788 -147.9981,-187.7756 -246.05,-252.6 C 5542.16,3998.0785 5291.057,3938.8591 5052.9416,3865.3154 4829.8945,3796.4257 4590.8529,3784.4486 4370.95,3706.1 c -82.1022,-29.252 -156.4878,-76.7949 -234.85,-114.95 -89.4104,-43.5345 -179.5453,-85.5917 -268.5,-130.05 -103.4166,-51.6862 -206.9331,-103.3013 -308.3,-158.9 -105.8487,-58.0569 -212.2122,-115.7685 -312.95,-182.3 -91.7667,-60.6066 -184.8746,-121.3021 -264.65,-197 -65.0397,-61.7154 -130.619,-127.3549 -171.7,-207.05 -33.8879,-65.7407 -57.3384,-140.49 -56.95,-214.45 0.3917,-74.586 25.1972,-149.523 59.7,-215.65 40.514,-77.648 102.2964,-143.9888 167.6,-202.35 76.536,-68.3995 165.8476,-122.7307 257.65,-168.65 101.3554,-50.6977 209.7057,-88.2658 319.6,-115.95 113.7855,-28.6644 231.0917,-45.482 348.3,-51.05 115.2177,-5.4735 231.5912,-0.023 345.6,17.5 108.3226,16.6493 215.7494,43.8289 318.2,82.75 96.0388,36.4853 188.9508,83.2396 274.55,140.05 80.9695,53.7378 156.3277,117.1019 222.95,187.85 64.7356,68.7445 121.5426,145.6815 169.2,227.2 47.9341,81.9918 86.421,170.034 115.65,260.4 30.3453,93.8171 50.3727,191.4218 61,289.45 11.2903,104.1434 -50.0001,223.66 2.6,314.25 80.0176,137.8096 291.539,137.516 413.2163,240.4186 154.4591,130.6262 382.4427,264.3779 388.0488,466.5891 4.2699,154.0157 -181.9494,248.7241 -275.4162,371.2109 -67.4958,88.4522 -134.7385,177.1942 -206.05,262.6 -61.8123,74.0292 -132.0858,140.8558 -192.1,216.35 -52.7919,66.409 -104.8034,134.1253 -147.3,207.55 -45.611,78.8056 -77.4851,164.8155 -114.4,248.05 -43.9433,99.082 -80.0992,201.6505 -127.45,299.15 -52.3768,107.8485 -107.4453,214.9495 -172.9,315.4 -65.4867,100.4995 -137.3017,197.6847 -218.8,285.7 -76.0537,82.1353 -146.3092,182.2473 -250.15,224.05 -358.8662,144.4669 -776.4251,-10.767 -1159.8489,40.6314 -95.6861,12.8268 -185.722,58.0741 -281.9,66.45 -97.7935,8.5166 -197.6566,1.8166 -294,-17 -104.2946,-20.3695 -205.8691,-56.9885 -301.8,-102.7 -104.9164,-49.9932 -203.4992,-114.1374 -295.15,-185.6 -95.3038,-74.3109 -182.277,-159.7751 -262,-250.6 -75.6651,-86.2019 -140.4831,-181.6283 -203.6,-277.4 -55.2301,-83.8046 -100.2863,-173.9171 -152.8,-259.45 -47.843,-77.9255 -97.387,-154.8119 -147.8,-231.1 -53.7889,-81.3967 -113.8126,-158.6926 -165,-241.75 -57.3638,-93.0794 -112.5299,-187.9338 -158.9,-286.95 -49.5418,-105.7889 -91.64691,-215.3001 -126.8,-326.7 -35.53972,-112.6252 -63.0824,-227.9272 -84.5995,-344.05 -21.06292,-113.6717 -34.99636,-228.7956 -43.352,-344.1 -8.08925,-111.6282 -10.14423,-223.8385 -6.4975,-335.7 3.53103,-108.3127 12.29497,-216.6445 27.449,-323.95 14.73905,-104.3671 34.4655,-208.2998 61.5995,-310.15 26.53748,-99.6111 58.45152,-198.1755 98.6505,-293.1 39.5617,-93.4197 85.273,-184.7706 139.6,-270.45 53.9649,-85.1084 114.9341,-166.4728 183.85,-240 69.353,-73.9936 146.0699,-141.9475 229.05,-200.25 84.7769,-59.5649 176.3491,-110.4983 271.8,-150.8 98.777,-41.7061 202.6724,-72.6907 308,-92.75 109.425,-20.8396 221.6243,-29.8871 333,-28 114.5941,1.9417 229.577,15.4999 341.45,40.4 112.1981,24.9724 222.7976,60.6825 327.3,108.55 100.7868,46.1655 198.3314,102.0965 285.45,170.65 80.6898,63.4946 155.9848,136.3461 215.8,219.8 54.6986,76.3151 99.6459,161.6145 126.95,251.45 26.199,86.1993 36.4897,178.2229 33.05,268.25 -3.654,95.635 -27.7093,190.2577 -56.75,281.45 -33.1918,104.2275 -84.1042,202.1518 -133.1,299.95 -53.4046,106.5986 -116.0632,208.3075 -175,311.95 -56.5891,99.514 -115.9199,197.469 -171.5,297.55 -49.3204,88.8093 -97.8078,178.1217 -143.7,268.75 -44.8512,88.5727 -86.7665,178.6127 -128.6,268.65 -47.2738,101.7462 -92.682,204.3508 -138.3,306.85 -49.8612,112.0332 -99.0505,224.3654 -148,336.8 -45.877,105.3772 -88.6229,212.1393 -136.55,316.6 -40.9932,89.3478 -78.1206,181.099 -129.1,265.15 -49.6633,81.8811 -105.0313,161.4327 -170.95,230.9 -75.7405,79.8178 -161.9423,150.7811 -254.65,210.05 -102.2932,65.397 -212.6674,120.7397 -328.3,157.75 -113.6885,36.3881 -233.4828,61.9421 -352.85,61.15 -107.2587,-0.7118 -218.4953,-15.114 -316.3,-59.15 -87.03637,-39.1876 -169.42543,-98.971 -225.9995,-175.85 -56.22099,-76.3991 -88.78347,-172.2155 -100.0485,-266.4 -12.55787,-104.9938 6.98573,-213.9155 38.347,-314.9 35.07202,-112.9332 95.3436,-218.3253 164.1505,-314.5 71.60437,-100.0848 159.282,-189.5134 254.6005,-267.35 90.2013,-73.6579 189.9148,-137.5721 296.05,-185.5 93.2952,-42.1297 192.8604,-74.415 294.4,-87.4 93.2953,-11.9307 189.2923,-6.213 282,9.65 101.623,17.3885 198.9918,55.3512 295.05,92.8 111.7853,43.5801 219.1875,97.9609 325.85,152.9 111.4605,57.4104 221.0048,118.7675 327.8,184.45 z" /><g
     id="svg2532-7"
     transform="matrix(0.76056513,0,0,0.76056513,-92.58411,-556.72921)"><path
       id="path1-5"
       style="fill:none;stroke:#616161;stroke-width:2.85591;stroke-linejoin:round;stroke-dasharray:2.85591, 5.71181;stroke-opacity:1;paint-order:stroke fill markers"
       d="m 347.06712,949.36493 a 65.219429,62.59127 0 0 1 -65.21943,62.59127 65.219429,62.59127 0 0 1 -65.21943,-62.59127 65.219429,62.59127 0 0 1 65.21943,-62.59127 65.219429,62.59127 0 0 1 65.21943,62.59127 z" /></g><g
     id="svg2532-35"
     transform="matrix(1.071629,0,0,1.071629,-189.04927,-1051.6139)"><g
       id="svg2532-7-6"
       transform="matrix(0.76056513,0,0,0.76056513,122.62317,328.61643)"><path
         id="path1-5-2"
         style="fill:none;stroke:#616161;stroke-width:2.85591;stroke-linejoin:round;stroke-dasharray:2.85591, 5.71181;stroke-opacity:1;paint-order:stroke fill markers"
         d="m 376.5134,949.36493 a 65.219429,62.59127 0 0 1 -65.21942,62.59127 65.219429,62.59127 0 0 1 -65.21943,-62.59127 65.219429,62.59127 0 0 1 65.21943,-62.59127 65.219429,62.59127 0 0 1 65.21942,62.59127 z" /></g></g><g
     id="svg2532-3"
     transform="matrix(0.43665179,0,0,0.43665179,-50.83332,-371.42743)"
     style="stroke-width:6.67351;stroke-dasharray:none"><path
       id="path1-6"
       style="fill:none;stroke:#616161;stroke-linejoin:round;stroke-dasharray:6.67351, 13.347;stroke-opacity:1;paint-order:stroke fill markers"
       d="m 349.7202,950.638 a 66.545975,63.864361 0 0 1 -66.54598,63.8644 66.545975,63.864361 0 0 1 -66.54597,-63.8644 66.545975,63.864361 0 0 1 66.54597,-63.86436 66.545975,63.864361 0 0 1 66.54598,63.86436 z" /></g><path
     id="path1"
     style="fill:none;stroke:#616161;stroke-width:2.85591;stroke-linejoin:round;stroke-dasharray:2.85591, 5.71181;stroke-opacity:1;paint-order:stroke fill markers"
     d="M 432.92827,73.637237 A 65.219429,62.59127 0 0 1 367.70884,136.22851 65.219429,62.59127 0 0 1 302.48941,73.637237 65.219429,62.59127 0 0 1 367.70884,11.045966 65.219429,62.59127 0 0 1 432.92827,73.637237 Z"
     transform="translate(-301.06843,-9.6179457)" /></g><g
   id="g1"
   transform="translate(284.35721,53.693299)"
   inkscape:path-effect="#path-effect3"><path
     d="m 1937.4465,5249.9064 c 19.7402,-8.8827 39.8571,-16.0745 60.2358,-21.0172 28.7522,-6.8706 58.0335,-9.2511 87.6309,-5.5841 66.7147,8.2657 134.8107,50.1822 202.2322,110.2193 48.9023,43.5463 97.7536,104.3181 146.8876,168.5138 24.6397,32.1145 49.3156,65.2587 73.9903,97.8154 37.4373,49.3962 75.4789,102.426 113.4156,155.7261 50.5832,70.4764 95.9373,134.9326 146.068,203.3734 74.0263,101.0643 147.95,199.8759 221.1985,293.7001 13.5775,17.7609 27.2054,35.4236 40.8843,52.9787 0,0 0,0 0,0 -0.01,-0.01 5.7388,7.2739 5.7309,7.2639 37.9196,48.05 75.6263,102.4646 113.1293,153.0259 40.5363,54.7063 80.4782,104.5876 121.3746,140.4914 16.6231,14.5937 33.2127,27.9872 49.7556,40.3261 72.3268,53.9811 144.8786,88.5617 215.9587,113.7302 178.9318,65.9279 376.5912,75.6755 598.1138,159.3664 23.3708,8.8294 46.5944,20.7717 69.6585,33.9316 19.7838,11.0832 39.6588,23.1482 59.3308,34.9105 38.785,23.842 77.3847,47.1464 117.4267,62.6423 96.8585,37.4834 195.7484,63.8328 297.083,71.6169 13.81,1.0608 27.6623,1.8885 41.5528,2.4681 40.9534,1.7594 82.1813,1.3439 123.5178,-1.6039 58.1925,-4.4039 116.3467,-13.826 173.6245,-29.1738 87.9817,-23.575 176.0912,-57.3861 257.4935,-105.4589 21.6033,-12.8347 42.6902,-26.6832 63.0828,-41.6061 88.8907,-65.0484 171.7795,-147.5259 223.5754,-249.3837 27.4328,-53.947 47.9515,-113.2392 58.2024,-176.127 7.2641,-44.3844 9.3376,-90.1114 5.3358,-136.4855 -7.1372,-82.7092 -33.2064,-167.2933 -72.6739,-249.739 -12.6657,-26.1247 -26.6428,-51.9572 -41.6651,-77.3359 -65.3754,-110.445 -159.2997,-217.9047 -248.3683,-318.3707 -25.2576,-28.4897 -51.1237,-56.7858 -76.8452,-84.6428 -36.9548,-39.9764 -54.2919,-58.4437 -91.2468,-98.4202 -18.8714,-20.7203 -37.4553,-41.6146 -55.7923,-62.8911 M 4458.1835,4460.53 c -7.9285,-9.2245 -15.9849,-17.967 -24.1854,-26.3093 -75.4197,-76.8349 -156.1519,-115.628 -241.7938,-177.5569 -0.897,-0.6486 -1.7958,-1.2916 -2.6962,-1.9291 -107.9911,-77.8954 -241.1795,-77.2315 -348.9383,-169.4796 -13.1708,-11.6337 -25.8685,-24.5797 -37.9814,-39.1267 -25.1126,-30.1593 -45.0607,-73.6391 -63.8669,-117.659 -12.7682,-27.312 -25.183,-54.7625 -38.5811,-80.0368 -22.4458,-42.342 -44.1043,-82.4764 -66.1865,-124.9226 0,0 0,0 0,0 -6.8196,-13.2343 -13.6018,-26.4972 -20.3586,-39.8745 M 3233.7784,2855.446 c -17.092,-38.4334 -33.8393,-77.5409 -50.4627,-119.2406 -11.0378,-27.6882 -22.4588,-55.552 -33.8761,-83.8477 -5.9457,-14.3453 -11.8964,-28.7944 -17.8219,-43.4276 -21.4872,-51.1476 -42.2021,-103.2872 -59.9933,-157.3535 -9.44,-28.6873 -18.6179,-58.1276 -26.889,-86.8408 -15.5322,-53.8591 -28.4447,-107.8034 -34.9442,-156.2076 -10.2068,-76.0141 -5.0162,-140.6919 8.9186,-191.1435 11.4316,-41.3887 31.4432,-73.0551 56.1229,-99.0393 10.352,-11.1256 21.5993,-21.1072 33.3945,-30.1955 2.3607,-1.8189 4.76,-3.5937 7.1967,-5.3262 45.1388,-31.0734 104.5527,-48.9919 168.4,-61.8896 21.1405,-4.2706 43.1651,-7.8483 65.8177,-10.9129 56.7311,-7.51 119.9339,-12.2648 182.6545,-16.1869 18.5544,-1.1602 37.4131,-2.2354 56.3281,-3.2469 80.6634,-3.389 154.3887,-6.0798 235.0522,-9.4688 83.5194,-3.5246 216.8625,-9.7179 299.9579,-12.2917 55.804,-1.7283 112.2719,-2.8612 165.8118,-2.2821 36.4309,0.2343 72.1793,1.0865 106.5764,2.969 80.3668,4.3981 155.7032,14.2319 220.8204,34.992 29.9996,9.5643 58.0259,21.5041 83.8271,36.2444 22.4422,13.0357 43.0775,28.1981 61.7026,45.739 4.2243,3.9316 8.342,7.9824 12.3508,12.1552 41.2599,42.9467 70.641,99.3758 88.1008,170.1951 16.2597,65.9519 21.4498,144.5766 17.1324,235.0493 0,0 0,0 0,0 -0.3692,6.9919 -0.7994,14.0639 -1.2895,21.2157 -4.1665,60.7951 -12.893,127.7324 -25.4107,200.7253 -9.1667,49.7346 -20.3036,101.4563 -33.1445,154.9661 -33.7472,140.629 -125.5451,326.9086 -133.1469,458.6998 -3.2059,55.5787 4.0811,93.6415 16.452,122.2181 0,0 0,0 0,0 32.1775,74.4393 96.4573,83.5984 102.3487,188.4553 0.2712,4.826 0.5569,9.6514 0.8532,14.474 3.3266,54.3913 8.2269,108.4985 10.3083,166.1681 1.8381,152.8322 -7.0018,269.1418 -36.5608,521.471 -21.121,180.2982 -44.3085,298.3582 -75.409,478.0347 -10.6177,61.958 -21.1586,127.272 -28.9682,191.9382 -4.1344,40.9526 -7.1903,82.3159 -8.4496,123.5927 -5.1092,167.4763 0.2335,328.7101 11.3048,485.9743 2.1791,30.63 4.3848,60.7887 6.5688,90.5453 11.4615,156.1599 15.398,295.7982 30.5161,432.5457 0.7701,6.9655 1.5443,13.908 2.3233,20.8227 8.1997,73.1185 -1.5401,-13.7476 6.6596,59.3709 4.1557,37.026 8.3732,73.6895 12.8593,109.6794 6.4041,51.152 13.4221,101.4756 21.7528,150.6744 19.745,116.6098 49.413,226.4717 68.3125,326.9051 0.01,0.027 0.6529,3.4664 0.6581,3.4939 m -112.11,940.7727 c -4.8569,8.1014 -9.8213,16.1672 -14.8928,24.197 -53.9318,85.3911 -107.7993,187.9728 -197.2863,253.9148 -2.6053,1.9218 -5.2432,3.8139 -7.9145,5.6745 -20.686,14.4084 -41.8464,27.8169 -63.4092,40.2493 -249.6544,144.0744 -516.5813,146.4591 -776.2088,137.7685 -84.1382,-2.0217 -167.5922,-4.4116 -251.0042,-0.1279 -8.2926,0.4259 -16.576,1.0841 -24.8587,1.9214 -80.0382,8.255 -161.0988,33.8621 -242.2028,25.489 -45.6234,-4.7101 -90.702,-14.4428 -134.6387,-28.5033 -44.262,-13.9669 -87.326,-32.3887 -128.6662,-54.2323 -83.5109,-44.1259 -160.2364,-103.9555 -228.7226,-168.6939 0,0 -1e-4,0 -1e-4,0 -4.872,-4.6139 -9.7056,-9.2563 -14.5003,-13.9235 -48.8953,-47.595 -93.8899,-99.22 -135.0415,-152.1951 m -424.9059,-912.6849 c -12.4407,-38.2751 -25.4063,-77.1074 -39.7848,-116.8777 -2.6279,-7.2687 -5.2782,-14.5642 -7.9502,-21.8866 0,0 0,-10e-5 0,-10e-5 -12.5054,-33.6352 -25.501,-68.0854 -38.906,-103.3251 -23.06,-60.7319 -47.6523,-124.7328 -72.7721,-190.2973 -47.0054,-122.6875 -97.8222,-243.2383 -145.4277,-382.7849 0.026,0.077 -5.9523,-17.5018 -5.9262,-17.4252 -18.3839,-54.2444 -36.6481,-109.763 -54.6758,-166.92 -31.4417,-100.3411 -60.1024,-206.1815 -85.0954,-318.5073 -12.7361,-57.2402 -24.6473,-115.9911 -35.782,-176.2987 -27.0986,-148.1394 -44.4541,-301.0289 -53.1038,-458.7328 -1.4642,-26.6955 -2.6681,-53.5175 -3.6192,-80.4655 -0.532,-54.5861 -0.2449,-108.595 0.7804,-162.0184 3.0945,-144.0574 10.9868,-284.2386 21.9148,-419.9981 16.5893,-206.0903 41.3605,-404.5874 68.4215,-590.4462 0,-0.01 1.3239,-9.0667 1.3253,-9.0766 8.2034,-63.2608 15.8718,-125.8365 22.9477,-188.1097 12.2276,-109.3394 21.4267,-215.7317 27.587,-320.0286 9.594,-162.4334 11.4983,-315.7899 7.6059,-463.7623 -1.8086,-68.7536 -5.0293,-135.4151 -9.2809,-200.527 -5.3779,-70.3381 -11.4938,-136.6126 -17.6194,-199.8661 -1.1677,-12.0578 -2.3492,-23.9866 -3.5393,-35.7965 0,0 0,0 0,0 -10.7616,-104.4495 -22.1473,-203.8308 -28.6178,-290.0779 -7.1714,-95.5871 -10.812,-180.3945 -4.1689,-250.8626 0.9797,-10.3932 2.1361,-20.515 3.4863,-30.3565 8.251,-55.7494 23.6675,-102.3212 48.7491,-138.5864 21.4438,-31.0054 48.9873,-54.9535 83.1356,-71.7388 13.0066,-6.5173 26.9207,-11.9878 41.7574,-16.4227 12.125,-3.6243 24.8371,-6.5941 38.1195,-8.9321 46.8878,-8.1467 100.5157,-8.3473 160.0152,-1.9802 79.0436,8.4585 168.1168,28.3431 262.9429,54.4751 24.1284,6.6493 48.6783,13.7222 73.5437,21.1175 75.747,22.3747 156.3276,48.6359 235.2042,74.9557 109.0241,36.3796 214.9793,72.6855 324.0034,109.0651 25.4335,8.4839 50.2771,16.7145 75.2332,24.9322 m 745.3634,494.0079 c 9.7585,52.84 12.052,113.1634 8.0361,178.5821 -3.6053,58.7309 -13.8243,122.3942 -27.1673,189.0968 -7.1886,34.6638 -15.3799,70.8039 -24.0263,107.8034 -8.874,37.9737 -18.9906,76.9442 -29.8671,116.7896 -23.8367,83.4118 -52.6611,171.9744 -81.4977,261.6984 3.2304,-10.2164 -8.4362,26.6815 -5.2058,16.4651 -48.1209,152.2341 -106.4839,312.8163 -166.7442,482.2933 -32.7086,91.9901 -67.3185,186.2513 -103.215,283.0695 1.281,-3.4069 -28.1918,75.1629 -26.9108,71.7561 -17.0595,45.7982 -34.2191,92.1807 -51.3937,139.1543 0,0 0,0 0,0 -2.4205,6.3763 -4.8319,12.772 -7.2341,19.1872 -61.0791,163.1194 -116.9278,336.7821 -164.9984,520.6947 -47.1977,180.5732 -86.1449,369.3356 -117.9444,565.4372 -2.8378,17.5003 -5.6097,35.0503 -8.3159,52.6496 -5.5766,36.9163 -10.8217,74.0694 -15.7399,111.4562 m -46.1405,1508.7868 c -13.9748,84.6846 -31.8504,161.3099 -62.9785,223.9311 -1.434,2.9414 -2.8952,5.8548 -4.3842,8.7395 -36.6879,71.0755 -84.1698,131.1696 -145.4394,174.3927 -9.6885,6.8349 -19.659,13.3317 -29.8966,19.493 -5.754,3.4839 -11.5929,6.8596 -17.5139,10.1277 -59.9237,32.6603 -127.8562,53.9841 -200.6426,64.4391 -81.0207,11.6377 -168.3768,11.8877 -258.9607,-0.9793 -1e-4,0 -1e-4,0 -1e-4,0 -24.0241,-3.2695 -48.2485,-7.4996 -72.6031,-12.7022 -23.6097,-5.0436 -47.4583,-10.7908 -71.4652,-17.3064 -41.1509,-11.0807 -82.7473,-24.4314 -124.2557,-40.3333 -51.6174,-20.1013 -103.1007,-44.07 -153.1748,-72.4523 -101.9747,-57.7998 -206.4562,-131.5924 -288.9173,-224.8511 -15.5774,-17.6171 -30.7183,-36.0343 -45.2363,-55.151 -54.4991,-70.9665 -100.2377,-150.8765 -127.7128,-233.0512 -21.6612,-64.786 -32.1921,-131.7548 -34.0641,-196.867 -1.0857,-38.6361 0.9109,-76.5017 5.4566,-112.5856 7.198,-57.1382 22.7533,-110.182 42.432,-159.6833 17.3226,-43.0333 38.1176,-84.4243 59.28,-123.5584 16.0998,-29.7723 33.6407,-58.116 51.8624,-85.3324"
     class="stroke-orange fill-orange"
     style="fill:none;stroke:#ff851b;stroke-width:141.732;stroke-linecap:round;stroke-linejoin:miter;stroke-miterlimit:10;stroke-dasharray:none;stroke-opacity:1"
     transform="matrix(0.03528,0,0,-0.03528,-297.16071,242.07941)"
     id="path2316-2"
     sodipodi:nodetypes="aaaaaaaaaaaaaaaaaaaaaaaaaaaaaaaaaaaaaaaaaaaaaaaaaaaaaaaaaaaaaaaaaaaaaaaaaaaaaaaaaaaaaaaaaaaaaaaaaaaaaaa"
     inkscape:path-effect="#path-effect2544-9"
     inkscape:original-d="m 2979.85,4840.2 c 95.7266,58.875 177.5008,141.7889 280.1,187.65 350.5983,156.7151 771.1934,116.7451 1116.1489,285.5186 85.7253,41.9421 147.3172,121.8069 226.25,175.45 90.5873,61.5635 183.8854,120.2679 282.8,167.3 109.0972,51.8737 222.5635,97.1348 340,125.45 116.9431,28.1962 238.0835,47.4259 358.3,43.1 110.3503,-3.9709 223.4408,-20.2278 325.2,-63.1 91.7594,-38.6592 179.7046,-95.4093 245.55,-170.1 64.0461,-72.6497 109.6265,-164.0196 134.2,-257.7 26.4444,-100.8126 24.8506,-209.2975 10.3,-312.5 -16.0464,-113.8117 -56.9821,-224.1838 -106.2,-328.05 -51.7924,-109.2992 -121.0925,-210.4556 -196.4,-305.1 -73.1865,-91.9788 -147.9981,-187.7756 -246.05,-252.6 C 5542.16,3998.0785 5291.057,3938.8591 5052.9416,3865.3154 4829.8945,3796.4257 4590.8529,3784.4486 4370.95,3706.1 c -82.1022,-29.252 -156.4878,-76.7949 -234.85,-114.95 -89.4104,-43.5345 -179.5453,-85.5917 -268.5,-130.05 -103.4166,-51.6862 -206.9331,-103.3013 -308.3,-158.9 -105.8487,-58.0569 -212.2122,-115.7685 -312.95,-182.3 -91.7667,-60.6066 -184.8746,-121.3021 -264.65,-197 -65.0397,-61.7154 -130.619,-127.3549 -171.7,-207.05 -33.8879,-65.7407 -57.3384,-140.49 -56.95,-214.45 0.3917,-74.586 25.1972,-149.523 59.7,-215.65 40.514,-77.648 102.2964,-143.9888 167.6,-202.35 76.536,-68.3995 165.8476,-122.7307 257.65,-168.65 101.3554,-50.6977 209.7057,-88.2658 319.6,-115.95 113.7855,-28.6644 231.0917,-45.482 348.3,-51.05 115.2177,-5.4735 231.5912,-0.023 345.6,17.5 108.3226,16.6493 215.7494,43.8289 318.2,82.75 96.0388,36.4853 188.9508,83.2396 274.55,140.05 80.9695,53.7378 156.3277,117.1019 222.95,187.85 64.7356,68.7445 121.5426,145.6815 169.2,227.2 47.9341,81.9918 86.421,170.034 115.65,260.4 30.3453,93.8171 50.3727,191.4218 61,289.45 11.2903,104.1434 -50.0001,223.66 2.6,314.25 80.0176,137.8096 291.539,137.516 413.2163,240.4186 154.4591,130.6262 382.4427,264.3779 388.0488,466.5891 4.2699,154.0157 -181.9494,248.7241 -275.4162,371.2109 -67.4958,88.4522 -134.7385,177.1942 -206.05,262.6 -61.8123,74.0292 -132.0858,140.8558 -192.1,216.35 -52.7919,66.409 -104.8034,134.1253 -147.3,207.55 -45.611,78.8056 -77.4851,164.8155 -114.4,248.05 -43.9433,99.082 -80.0992,201.6505 -127.45,299.15 -52.3768,107.8485 -107.4453,214.9495 -172.9,315.4 -65.4867,100.4995 -137.3017,197.6847 -218.8,285.7 -76.0537,82.1353 -146.3092,182.2473 -250.15,224.05 -358.8662,144.4669 -776.4251,-10.767 -1159.8489,40.6314 -95.6861,12.8268 -185.722,58.0741 -281.9,66.45 -97.7935,8.5166 -197.6566,1.8166 -294,-17 -104.2946,-20.3695 -205.8691,-56.9885 -301.8,-102.7 -104.9164,-49.9932 -203.4992,-114.1374 -295.15,-185.6 -95.3038,-74.3109 -182.277,-159.7751 -262,-250.6 -75.6651,-86.2019 -140.4831,-181.6283 -203.6,-277.4 -55.2301,-83.8046 -100.2863,-173.9171 -152.8,-259.45 -47.843,-77.9255 -97.387,-154.8119 -147.8,-231.1 -53.7889,-81.3967 -113.8126,-158.6926 -165,-241.75 -57.3638,-93.0794 -112.5299,-187.9338 -158.9,-286.95 -49.5418,-105.7889 -91.64691,-215.3001 -126.8,-326.7 -35.53972,-112.6252 -63.0824,-227.9272 -84.5995,-344.05 -21.06292,-113.6717 -34.99636,-228.7956 -43.352,-344.1 -8.08925,-111.6282 -10.14423,-223.8385 -6.4975,-335.7 3.53103,-108.3127 12.29497,-216.6445 27.449,-323.95 14.73905,-104.3671 34.4655,-208.2998 61.5995,-310.15 26.53748,-99.6111 58.45152,-198.1755 98.6505,-293.1 39.5617,-93.4197 85.273,-184.7706 139.6,-270.45 53.9649,-85.1084 114.9341,-166.4728 183.85,-240 69.353,-73.9936 146.0699,-141.9475 229.05,-200.25 84.7769,-59.5649 176.3491,-110.4983 271.8,-150.8 98.777,-41.7061 202.6724,-72.6907 308,-92.75 109.425,-20.8396 221.6243,-29.8871 333,-28 114.5941,1.9417 229.577,15.4999 341.45,40.4 112.1981,24.9724 222.7976,60.6825 327.3,108.55 100.7868,46.1655 198.3314,102.0965 285.45,170.65 80.6898,63.4946 155.9848,136.3461 215.8,219.8 54.6986,76.3151 99.6459,161.6145 126.95,251.45 26.199,86.1993 36.4897,178.2229 33.05,268.25 -3.654,95.635 -27.7093,190.2577 -56.75,281.45 -33.1918,104.2275 -84.1042,202.1518 -133.1,299.95 -53.4046,106.5986 -116.0632,208.3075 -175,311.95 -56.5891,99.514 -115.9199,197.469 -171.5,297.55 -49.3204,88.8093 -97.8078,178.1217 -143.7,268.75 -44.8512,88.5727 -86.7665,178.6127 -128.6,268.65 -47.2738,101.7462 -92.682,204.3508 -138.3,306.85 -49.8612,112.0332 -99.0505,224.3654 -148,336.8 -45.877,105.3772 -88.6229,212.1393 -136.55,316.6 -40.9932,89.3478 -78.1206,181.099 -129.1,265.15 -49.6633,81.8811 -105.0313,161.4327 -170.95,230.9 -75.7405,79.8178 -161.9423,150.7811 -254.65,210.05 -102.2932,65.397 -212.6674,120.7397 -328.3,157.75 -113.6885,36.3881 -233.4828,61.9421 -352.85,61.15 -107.2587,-0.7118 -218.4953,-15.114 -316.3,-59.15 -87.03637,-39.1876 -169.42543,-98.971 -225.9995,-175.85 -56.22099,-76.3991 -88.78347,-172.2155 -100.0485,-266.4 -12.55787,-104.9938 6.98573,-213.9155 38.347,-314.9 35.07202,-112.9332 95.3436,-218.3253 164.1505,-314.5 71.60437,-100.0848 159.282,-189.5134 254.6005,-267.35 90.2013,-73.6579 189.9148,-137.5721 296.05,-185.5 93.2952,-42.1297 192.8604,-74.415 294.4,-87.4 93.2953,-11.9307 189.2923,-6.213 282,9.65 101.623,17.3885 198.9918,55.3512 295.05,92.8 111.7853,43.5801 219.1875,97.9609 325.85,152.9 111.4605,57.4104 221.0048,118.7675 327.8,184.45 z" /><path
     id="path1-7"
     style="fill:none;stroke:#616161;stroke-width:2.85591;stroke-linejoin:round;stroke-dasharray:2.85591, 5.71181;stroke-opacity:1;paint-order:stroke fill markers"
     d="m -170.57997,-4.04053 c -1.10882,4.95015224 -2.93013,10.584788 -5.26908,16.961922 -0.61519,1.677774 -1.26782,3.411129 -1.95083,5.189957 -1.97004,5.182444 -3.92082,10.718516 -5.92328,16.897152 -1.70079,5.303611 -3.14862,10.683246 -4.41661,16.149166 -0.35338,1.5285 -0.69077,3.055721 -1.01416,4.581358 -0.4073,2.259585 -0.79428,4.459156 -1.16633,6.595094 -1.47106,8.581119 -2.70317,15.83938 -4.12253,22.366852 -2.21396,9.740343 -4.87921,17.022499 -8.72353,22.505489 -0.88737,1.2042 -1.82739,2.30832 -2.81556,3.31013 -3.12411,3.18354 -6.65409,5.41336 -10.40019,6.57585 -1.25388,0.38911 -2.53001,0.65809 -3.82263,0.80441 -1.06199,0.11665 -2.13364,0.15099 -3.21247,0.10242 0,0 0,0 0,0 -2.78636,-0.0973 -5.5632,-0.76456 -8.32442,-1.96913 -4.64039,-2.07958 -8.92062,-5.57834 -12.94889,-10.12916 -4.03346,-4.55669 -7.48781,-9.779514 -10.85109,-15.019092 -0.66274,-1.035487 -1.33194,-2.0906 -1.98042,-3.110771 -2.02706,-3.276333 -3.80854,-5.962694 -5.87645,-8.812117 -1.88373,-2.584234 -3.70079,-4.78383 -5.74075,-7.397413 -0.69955,-0.893046 -1.4017,-1.806496 -2.09961,-2.752187 -2.67498,-3.626118 -5.16451,-7.564441 -7.19218,-12.344054 -0.42255,-0.996041 -0.82005,-2.017423 -1.19074,-3.066294 -1.25448,-3.550269 -2.17307,-7.337443 -2.72023,-11.369897 -0.64211,-4.734726 -0.74953,-9.63051 -0.36208,-14.566063 0.569,-7.359139 2.19655,-14.369631 4.52394,-20.6329065 0.90295,-2.4225119 1.90368,-4.7224158 2.98865,-6.91577597 0,-1.56e-6 0,-3.13e-6 0,-4.69e-6 3.34975,-6.73457064 7.85373,-12.47576484 13.04328,-18.22520484 4.76288,-5.276727 11.52768,-12.08178 17.47805,-17.304124 0,0 0,-4e-6 0,-4e-6 1.31367,-1.152647 2.65267,-2.286393 4.01247,-3.383518 1.65566,-1.33587 3.34349,-2.618503 5.06445,-3.823118 5.19345,-3.635225 10.50731,-6.430886 16.08689,-8.013045 9.71282,-2.750829 18.72214,-1.367529 26.86186,2.714797 2.66971,1.345271 5.1841,2.934021 7.5567,4.6406 0,0 1e-5,2e-6 1e-5,2e-6 1.72177,1.305001 3.33864,2.705806 4.81043,4.165046 1.07645,1.064665 2.08741,2.166653 3.02195,3.29822 2.38218,2.873474 4.29121,5.962752 5.64907,9.352384 1.25567,3.149737 2.00355,6.437803 2.2172,9.982959 0.18552,3.013449 -0.0132,6.175776 -0.58266,9.5836436 -0.17047,0.9909012 -0.37355,2.0087149 -0.60823,3.0564274 z"
     inkscape:original-d="m -169.20859,54.401345 a 65.219429,62.59127 0 0 1 -65.21943,62.591265 65.219429,62.59127 0 0 1 -65.21943,-62.591265 65.219429,62.59127 0 0 1 65.21943,-62.5912702 65.219429,62.59127 0 0 1 65.21943,62.5912702 z" /><path
     id="path1-5-9"
     style="fill:none;stroke:#616161;stroke-width:2.17211;stroke-linejoin:round;stroke-dasharray:2.17211, 4.3442;stroke-opacity:1;paint-order:stroke fill markers"
     d="m -140.34553,164.93777 c 0.82642,4.32836 1.04472,7.85153 0.63947,10.61048 0,0 0,1e-5 0,1e-5 -0.51702,3.73601 -2.04545,5.96164 -4.65949,7.2408 0,0 0,0 0,0 -4.41137,2.19817 -12.94085,1.5261 -23.76682,2.43705 0,0 0,0 0,0 -3.25648,0.27239 -6.53711,0.65152 -10.02162,1.17445 -0.18148,0.0272 -0.36302,0.0548 -0.54463,0.0827 -5.10024,0.78253 -9.55112,1.69165 -14.23683,2.64705 0,0 -1e-5,0 -1e-5,0 -9.55415,1.94411 -16.50442,3.31789 -20.07328,1.24396 0,0 0,0 0,0 -2.18336,-1.25349 -2.94806,-3.69762 -2.52404,-7.64091 0,0 0,0 0,0 0.34436,-2.96872 1.26339,-6.81613 2.46706,-11.41582 0.60468,-2.31073 1.33794,-5.02183 2.06207,-7.70859 0,0 1e-5,-1e-5 1e-5,-1e-5 0.73969,-2.75027 1.479,-5.57951 2.26729,-8.71461 0,0 0,0 0,0 1.87284,-7.89575 3.65382,-16.49933 5.50319,-24.69798 0,0 0,-1e-5 0,-1e-5 1.28486,-5.7099 2.5893,-11.17455 4.02482,-16.09637 0,0 0,-1e-5 0,-1e-5 0.91808,-3.1256 1.9002,-5.9772 2.95776,-8.50138 1.14673,-2.96577 2.434,-5.48991 3.81713,-7.456055 0,0 0,-3e-6 0,-3e-6 2.06679,-3.050409 4.44393,-4.841327 7.01876,-5.208536 0.0963,-0.01415 0.19291,-0.02631 0.28972,-0.03647 1.83412,-0.19248 3.73155,0.332363 5.7019,1.552242 0,0 1e-5,2e-6 1e-5,2e-6 2.81187,1.64525 5.88226,4.645289 9.31072,8.727556 1.91063,2.27497 3.86992,4.89287 5.85191,7.78563 0,0 0,10e-6 0,10e-6 2.9604,4.37392 5.9065,9.30951 8.67538,14.4635 0,0 0,10e-6 0,10e-6 4.27759,7.90621 8.11021,16.39067 10.86118,24.03805 0,0 0,1e-5 0,1e-5 1.01731,2.92554 1.90715,5.68735 2.64253,8.23209 0,0 0,0 0,1e-5 0.72814,2.5943 1.3109,5.01575 1.73581,7.24119 z"
     inkscape:original-d="m -129.68539,155.7067 a 49.603623,47.604737 0 0 1 -49.60363,47.60474 49.603623,47.604737 0 0 1 -49.60362,-47.60474 49.603623,47.604737 0 0 1 49.60362,-47.60474 49.603623,47.604737 0 0 1 49.60363,47.60474 z" /><path
     id="path1-5-2-0"
     style="fill:none;stroke:#616161;stroke-width:2.32769;stroke-linejoin:round;stroke-dasharray:2.32769, 4.65537;stroke-opacity:1;paint-order:stroke fill markers"
     d="m -104.5396,60.360798 c -0.66344,0.641062 -2.36263,2.270339 -3.02608,2.911401 -1.06668,1.02676 -2.10059,2.027937 -3.10695,3.025487 -2.82182,2.79751 -5.28961,5.455314 -7.36838,8.311146 -2.25579,3.104367 -3.91221,6.290517 -5.07047,9.751023 -0.35378,1.104035 -0.65165,2.212183 -0.90517,3.319802 -1.26716,5.570412 -1.47241,11.577434 -1.95157,15.980203 -0.50332,4.62476 -1.31978,7.86153 -3.354,9.45655 -1.42613,1.03957 -3.36601,1.26389 -5.78704,0.64173 -0.40558,-0.1024 -0.8227,-0.22827 -1.25066,-0.37753 -2.84718,-0.993 -6.17187,-3.02108 -9.71729,-6.016 0,0 -1e-5,-1e-5 -1e-5,-1e-5 -0.16427,-0.13839 -0.32893,-0.27888 -0.49395,-0.42147 -6.01354,-5.22625 -12.46566,-13.313623 -17.53611,-24.427414 -2.70773,-5.992773 -4.97296,-12.860139 -6.56308,-20.573602 -0.43234,-2.123635 -0.80856,-4.308366 -1.12408,-6.552453 -0.78146,-6.954686 -0.85451,-13.874585 -0.17196,-20.572002 0.63064,-6.109566 1.60018,-11.729733 2.84168,-16.759877 0.43988,-1.770817 0.89076,-3.487877 1.3498,-5.144398 0.42818,-1.543338 0.86486,-3.0395557 1.3083,-4.4843542 1.80292,-5.874098 3.73654,-10.9671235 5.80518,-15.215721 1.60626,-3.3780708 3.32949,-6.3971388 5.24245,-9.0584988 2.45222,-3.416678 5.22701,-6.247031 8.44077,-8.469764 1.47031,-1.045913 3.03719,-1.935004 4.69491,-2.669917 5.73357,-2.496761 12.45958,-3.085144 19.58593,-1.754477 0.89668,0.167402 1.79704,0.364747 2.70012,0.591445 0,0 0,1e-6 0,1e-6 4.70428,1.193405 9.41679,3.17483 13.95902,5.792468 0.6816,0.3928 1.35894,0.799729 2.03089,1.220007 4.621143,2.901306 9.063148,6.507456 12.801512,10.579813 7.217727,7.8553087 11.895606,17.4313615 11.305861,28.836519 -0.296688,5.504224 -1.821298,11.033269 -4.455093,16.506645 -2.052848,4.265774 -4.688855,8.311399 -7.707639,12.155605 -3.928346,4.997286 -8.245891,9.329391 -12.476891,13.417643 z"
     inkscape:original-d="m -51.836294,64.696958 a 53.156681,51.014617 0 0 1 -53.156676,51.014612 53.156681,51.014617 0 0 1 -53.15668,-51.014612 53.156681,51.014617 0 0 1 53.15668,-51.014617 53.156681,51.014617 0 0 1 53.156676,51.014617 z" /><path
     id="path1-6-2"
     style="fill:none;stroke:#616161;stroke-width:2.914;stroke-linejoin:round;stroke-dasharray:2.914, 5.82799;stroke-opacity:1;paint-order:stroke fill markers"
     d="m -191.31568,-20.997084 c 0.34406,2.323155 0.26854,4.751852 -0.19866,7.265025 0,10e-7 0,10e-7 0,2e-6 -0.64139,3.460734 -2.01923,7.0244102 -3.94945,10.4916422 -2.71634,4.7854611 -6.49237,9.4712611 -10.61564,12.999546 0,10e-8 -1e-5,1.5e-6 -1e-5,1.5e-6 -2.57359,2.2132223 -5.22129,3.9770723 -7.88563,5.2091143 -3.19655,1.478146 -6.3046,2.141124 -9.33454,2.077367 0,0 0,0 0,0 -1.26698,-0.03049 -2.5094,-0.187094 -3.72332,-0.456618 -2.20837,-0.470394 -4.32175,-1.327712 -6.2659,-2.475227 -2.44082,-1.490649 -4.6418,-3.52184 -6.39491,-5.9622272 0,0 0,-1.5e-6 0,-1.5e-6 -1.26814,-1.7751595 -2.29876,-3.7503297 -3.02854,-5.8843697 -0.28726,-0.8400201 -0.527,-1.70193354 -0.71651,-2.58329033 0,0 -1e-5,-1.63e-6 -1e-5,-1.63e-6 -1.02825,-4.67805494 -0.60267,-9.41452014 1.31069,-14.15178664 0.87179,-2.143941 2.03507,-4.266769 3.47004,-6.339729 0.18092,-0.257606 0.36701,-0.514819 0.55805,-0.771437 0.96814,-1.295549 2.06728,-2.580732 3.26622,-3.82039 0,0 0,-2e-6 0,-2e-6 2.85291,-2.954081 6.29547,-5.682525 10.01171,-7.711585 3.13294,-1.710575 6.37885,-2.883231 9.68324,-3.419041 0,0 1e-5,0 1e-5,0 2.6285,-0.419581 5.19484,-0.427395 7.68645,-0.06208 2.38432,0.405539 4.61609,1.176875 6.60588,2.251792 4.40336,2.374479 7.51847,6.085131 8.92169,10.663712 0,1e-6 1e-5,2e-6 1e-5,2e-6 0.2641,0.872076 0.46381,1.76584 0.59913,2.679587 z"
     inkscape:original-d="m -199.1958,34.052404 a 29.057419,27.886488 0 0 1 -29.05742,27.886505 29.057419,27.886488 0 0 1 -29.05742,-27.886505 29.057419,27.886488 0 0 1 29.05742,-27.8864868 29.057419,27.886488 0 0 1 29.05742,27.8864868 z" /></g></svg>
