<svg xmlns="http://www.w3.org/2000/svg" xml:space="preserve" stroke-miterlimit="10" style="clip-rule:evenodd;fill-rule:nonzero;stroke-linecap:round;stroke-linejoin:round" viewBox="0 0 1019.467 1019.467">
  <path fill="none" stroke="#FF851B" stroke-linecap="butt" stroke-linejoin="miter" stroke-width="39.073" d="M500 949.543V603.135m0-226.287V0" style="clip-rule:evenodd;fill-rule:nonzero;stroke-linecap:round;stroke-linejoin:round" transform="matrix(0 1 1 0 19.536 9.734)"/>
  <path fill="#FF851B" d="M367.661 838.183 484.88 981.451l15.12 18.48 15.12-18.48 117.219-143.268c6.832-8.35 5.601-20.659-2.749-27.491-8.351-6.832-20.659-5.602-27.492 2.749L484.88 956.708h30.24L397.902 813.441c-6.833-8.351-19.141-9.581-27.492-2.749-8.35 6.832-9.581 19.141-2.749 27.491" style="clip-rule:evenodd;fill-rule:nonzero;stroke-linecap:round;stroke-linejoin:round" transform="matrix(0 1 1 0 19.536 9.734)"/>
  <path fill="#FF851B" d="M161.817 367.661 18.55 484.88.068 500l18.48 15.12 143.268 117.219c8.35 6.832 20.659 5.601 27.491-2.749 6.832-8.351 5.602-20.659-2.749-27.492L43.292 484.88v30.24l143.267-117.218c8.351-6.833 9.581-19.141 2.749-27.492-6.832-8.35-19.141-9.581-27.491-2.749" style="clip-rule:evenodd;fill-rule:nonzero;stroke-linecap:round;stroke-linejoin:round" transform="rotate(90 504.901 504.832)"/>
  <path fill="none" stroke="#FF851B" stroke-linecap="butt" stroke-linejoin="miter" stroke-width="39.073" d="M50.457 500H1000" style="clip-rule:evenodd;fill-rule:nonzero;stroke-linecap:round;stroke-linejoin:round" transform="rotate(90 504.901 504.832)"/>
</svg>
