<svg xmlns:inkscape="http://www.inkscape.org/namespaces/inkscape" xmlns:sodipodi="http://sodipodi.sourceforge.net/DTD/sodipodi-0.dtd" xmlns="http://www.w3.org/2000/svg" xmlns:svg="http://www.w3.org/2000/svg" viewBox="0 0 523.37793 157.40976" version="1.1" id="svg1" sodipodi:docname="everyday_knot_closed.svg" xml:space="preserve" inkscape:version="1.3.2 (091e20ef0f, 2023-11-25)"><sodipodi:namedview id="namedview1" pagecolor="#ffffff" bordercolor="#000000" borderopacity="0.25" inkscape:showpageshadow="2" inkscape:pageopacity="0.0" inkscape:pagecheckerboard="0" inkscape:deskcolor="#d1d1d1" inkscape:document-units="mm" showgrid="true" inkscape:zoom="0.34736615" inkscape:cx="1045.0068" inkscape:cy="191.44065" inkscape:window-width="1920" inkscape:window-height="1125" inkscape:window-x="0" inkscape:window-y="0" inkscape:window-maximized="1" inkscape:current-layer="layer1">
        <inkscape:grid id="grid2" units="mm" originx="102.96498" originy="-54.993234" spacingx="0.99999998" spacingy="1" empcolor="#0099e5" empopacity="0.30196078" color="#0099e5" opacity="0.14901961" empspacing="5" dotted="false" gridanglex="30" gridanglez="30" visible="true"/>
        <inkscape:page x="0" y="0" width="523.37793" height="157.40976" id="page3" margin="0" bleed="0" inkscape:export-filename="open_knot.png" inkscape:export-xdpi="96" inkscape:export-ydpi="96"/>
    </sodipodi:namedview>

    <defs id="defs1"/>
    <g inkscape:label="Layer 1" inkscape:groupmode="layer" id="layer1" transform="translate(102.96498,-54.993234)">
        <path d="m 160.22,131.168 c 0.6126,-7.02666 1.80641,-14.2702 3.89483,-21.0266 0.5532,-1.78972 1.1178,-3.54682 1.77802,-5.30091 2.44331,-6.49146 6.10051,-12.5149 10.5064,-17.8679 4.63585,-5.63239 9.96299,-10.9542 16.0586,-15.0085 2.804,-1.86498 5.64808,-3.71536 8.65706,-5.21802 2.2764,-1.13682 4.65721,-2.21299 7.06177,-3.07615 1.5209,-0.545952 3.0168,-1.00011 4.55429,-1.45975 4.22205,-1.26222 8.68356,-1.933 13.0969,-1.94696 4.58546,-0.01453 9.32529,0.568589 13.5641,2.41969 1.7765,0.775808 3.45839,1.70449 5.03703,2.80151 2.15614,1.49834 4.13193,3.39858 5.75661,5.4666 1.29474,1.64805 2.35639,3.47517 3.24877,5.37618 1.68975,3.59956 2.39368,7.80737 2.53307,11.7577 0.0945,2.67795 -0.0699,5.36013 -0.44989,8.0112 -0.42378,2.95662 -1.07469,5.9086 -2.08141,8.71234 -1.5638,4.35523 -3.50881,8.4626 -5.91794,12.3613 -1.09046,1.76467 -3.15844,4.37491 -4.05612,6.01004 M 192.534,82.055 c 12.531,9.52432 24.9662,19.8195 34.4694,32.4937 4.50134,6.00334 6.59719,13.0322 8.81236,17.0789 29.3703,53.654 37.1991,-94.6154 164.37,8.654 C 527.357,243.551 -201.36,214.808 -85.064,138.005 31.2325,61.2021 36.4011,119.264 74.861,120.594 m 84.0128,27.7993 c -0.5308,5.57768 -0.80451,11.4302 -2.01976,16.934 -0.47099,2.13309 -1.1322,4.13163 -2.09831,6.09903 -1.11312,2.26675 -2.56541,4.2808 -4.48493,5.97941 -1.30886,1.15823 -2.73548,2.08858 -4.32551,2.79745 -3.1651,1.41106 -6.92631,1.64501 -10.3559,1.31884 -3.9546,-0.37611 -7.72413,-1.61388 -11.339,-3.18098 -1.9686,-0.85342 -3.88131,-1.76924 -5.68642,-2.89565 -3.36432,-2.09938 -6.75842,-4.40411 -9.65189,-7.16505 -4.22817,-4.03447 -7.96309,-8.22825 -11.3558,-12.9808 -2.30991,-3.23575 -4.24377,-6.63444 -5.83309,-10.2961 -1.16358,-2.6808 -2.25579,-5.35329 -3.1307,-8.13871 -2.63586,-8.39159 -3.42066,-17.5654 -1.73137,-26.2242 0.408858,-2.09569 0.971669,-4.17386 1.6134,-6.20459 0.473015,-1.49685 0.9475,-2.96371 1.52574,-4.43596 1.28156,-3.26302 3.09058,-6.2696 5.00938,-9.17359 3.25331,-4.92369 7.55194,-9.25243 12.2342,-12.8315 3.28522,-2.51118 7.00287,-4.79177 10.7972,-6.4535 1.96982,-0.862693 4.00947,-1.53231 6.04934,-2.21629 5.70851,-1.91412 11.6028,-2.95821 17.6165,-3.08938 3.63753,-0.07934 7.35312,0.08817 10.975,0.505052 4.48282,0.515983 8.9684,1.4125 13.2948,2.70311 1.98522,0.592209 3.92234,1.2412 5.8516,1.97261 1.18038,0.447508 2.65244,1.0247 3.71629,1.47344 1.21553,0.512699 1.74772,0.783281 2.32543,1.06067 m 50.5102,63.733498 c -3.03041,2.10908 -6.21518,3.88236 -9.58481,5.41918 -1.40894,0.64259 -2.81379,1.24249 -4.27826,1.73101 -3.43644,1.14633 -7.19772,1.78436 -10.8199,1.92888 -2.61997,0.10453 -5.25745,-0.13262 -7.84862,-0.5116 -5.19542,-0.75988 -10.2598,-2.42265 -15.4581,-3.14414 -62.9811,-8.74137 -48.2762,-12.0561 -84.3168,-22.698" style="display:none;fill:none;stroke:#111111;stroke-width:5.265;stroke-linecap:square;stroke-miterlimit:4.1;stroke-dasharray:none;stroke-opacity:1" id="path140" class="stroke-foreground fill-foreground"/><path style="display:none;fill:#FF851B;stroke:#111111;stroke-width:0.254;stroke-linecap:square;stroke-linejoin:round;stroke-dasharray:none;stroke-opacity:1" d="m 64.922813,-60.222817 c -7.718446,0 5.145633,10.291261 -2.572815,10.291261 h -2.572816 c 7.718445,0 -5.145629,-10.291261 2.572816,-10.291261 z" id="path2-2" sodipodi:nodetypes="ccccc" class="stroke-orange fill-orange stroke-foreground fill-foreground"/>

    <path d="m 155.658,125.499 c -0.83,7.673 10.784,-4.008 9.954,3.665 l -0.277,2.557 c 0.831,-7.673 -10.784,4.009 -9.954,-3.664 z m 0.316,-2.295 c -1.084,7.642 10.699,-3.846 9.869,3.827 l -0.277,2.557 c 0.83,-7.673 -10.784,4.009 -9.954,-3.664 z m 0.355,-2.242 c -1.27,7.613 10.859,-3.53 9.774,4.112 l -0.306,2.381 c 0.83,-7.673 -10.967,3.814 -9.883,-3.828 z m 0.4,-2.245 c -1.469,7.577 10.951,-3.253 9.681,4.36 l -0.367,2.42 c 1.085,-7.642 -11.054,3.499 -9.784,-4.114 z m 0.447,-2.246 c -1.682,7.533 11.043,-2.953 9.574,4.624 l -0.411,2.403 c 1.271,-7.613 -11.16,3.216 -9.692,-4.362 z m 0.467,-2.094 c -1.681,7.533 10.984,-2.966 9.516,4.612 l -0.49,2.525 c 1.469,-7.577 -11.082,3.093 -9.613,-4.484 z m 0.56,-2.232 c -1.908,7.478 11.072,-2.642 9.391,4.89 l -0.517,2.373 c 1.469,-7.577 -11.208,2.919 -9.527,-4.614 z m 0.619,-2.229 c -2.152,7.412 11.156,-2.291 9.247,5.188 l -0.568,2.348 c 1.681,-7.532 -11.312,2.585 -9.403,-4.893 z m 0.659,-2.182 c -2.343,7.354 11.257,-1.951 9.105,5.461 l -0.623,2.323 c 1.909,-7.479 -11.412,2.22 -9.26,-5.192 z m 0.708,-2.189 c -2.564,7.279 11.311,-1.633 8.968,5.721 l -0.69,2.34 c 2.152,-7.412 -11.459,1.889 -9.115,-5.465 z m 0.713,-2.024 c -2.564,7.28 11.25,-1.653 8.906,5.701 l -0.781,2.451 c 2.344,-7.354 -11.367,1.778 -9.024,-5.576 z m 0.866,-2.21 c -2.885,7.158 11.263,-1.246 8.698,6.033 l -0.787,2.285 c 2.343,-7.354 -11.483,1.575 -8.919,-5.705 z m 0.947,-2.181 c -3.206,7.02 11.323,-0.7336 8.437,6.425 l -0.828,2.192 c 2.565,-7.28 -11.601,1.119 -8.716,-6.04 z m 1.022,-2.1385 c -3.511,6.8735 11.368,-0.2176 8.161,6.8025 l -0.905,2.157 c 2.885,-7.1584 -11.662,0.588 -8.455,-6.4325 z m 1.092,-2.0949 c -3.798,6.7184 11.388,0.2828 7.878,7.1564 l -0.987,2.13 c 3.207,-7.0206 -11.688,0.062 -8.177,-6.8111 z m 1.056,-1.8678 c -3.798,6.7188 11.308,0.24 7.798,7.1132 l -1.071,2.089 c 3.206,-7.0201 -11.604,0.103 -8.094,-6.7698 z m 1.235,-2.0058 c -4.069,6.5581 11.311,0.7227 7.513,7.4415 l -1.145,2.0575 c 3.511,-6.8728 -11.611,-0.403 -7.813,-7.1213 z m 1.295,-1.9595 c -4.325,6.3922 11.293,1.1898 7.224,7.7479 l -1.216,2.025 c 3.798,-6.7188 -11.597,-0.8923 -7.528,-7.4505 z m 1.351,-1.913 c -4.567,6.2218 11.257,1.6414 6.932,8.0336 l -1.284,1.9903 c 4.069,-6.5581 -11.564,-1.3649 -7.239,-7.7571 z m 1.406,-1.8666 c -4.795,6.0477 11.204,2.0781 6.637,8.3 l -1.35,1.954 c 4.325,-6.3922 -11.512,-1.8212 -6.946,-8.0431 z m 1.44,-1.8012 c -4.982,5.8951 11.153,2.4817 6.358,8.5294 l -1.414,1.9162 c 4.567,-6.2219 -11.445,-2.2619 -6.65,-8.3097 z m 1.385,-1.6388 c -4.982,5.8952 11.101,2.4393 6.306,8.487 l -1.477,1.8677 c 4.567,-6.2218 -11.382,-2.2134 -6.587,-8.2611 z m 1.515,-1.7141 c -5.143,5.7551 11.051,2.7875 6.069,8.6827 l -1.543,1.8532 c 4.795,-6.0478 -11.299,-2.6004 -6.317,-8.4955 z m 1.561,-1.691 c -5.315,5.596 10.97,3.1115 5.828,8.8666 l -1.596,1.8334 c 4.982,-5.8952 -11.221,-2.9354 -6.078,-8.6905 z m 1.611,-1.6654 c -5.499,5.4158 10.872,3.4662 5.557,9.0623 l -1.625,1.7883 c 5.143,-5.7552 -11.152,-3.2794 -5.837,-8.8755 z m 1.528,-1.5055 c -5.498,5.4158 10.887,3.7213 5.389,9.1371 l -1.655,1.7404 c 5.316,-5.5961 -11.065,-3.6565 -5.566,-9.0723 z m 1.717,-1.5801 c -5.693,5.2119 10.699,3.7958 5.2,9.2116 l -1.705,1.6904 c 5.315,-5.5961 -11.015,-3.6064 -5.516,-9.0222 z m 1.774,-1.5407 c -5.895,4.9816 10.552,4.2073 4.86,9.4191 l -1.738,1.633 c 5.499,-5.4158 -10.904,-4.0111 -5.211,-9.2229 z m 1.834,-1.4966 c -6.105,4.7223 10.376,4.6506 4.482,9.6322 l -1.771,1.572 c 5.692,-5.2119 -10.766,-4.4503 -4.872,-9.4319 z m 1.897,-1.4473 c -6.319,4.4313 10.166,5.1256 4.061,9.8479 l -1.803,1.5073 c 5.895,-4.9816 -10.598,-4.9243 -4.493,-9.6466 z m 1.756,-1.2319 c -6.318,4.4313 10.107,5.0448 4.002,9.7671 l -1.861,1.4352 c 5.895,-4.9816 -10.54,-4.8522 -4.435,-9.5745 z m 1.958,-1.2861 c -6.484,4.1862 9.92,5.5251 3.601,9.9564 l -1.895,1.3581 c 6.105,-4.7223 -10.332,-5.3518 -4.013,-9.7831 z m 1.803,-1.1637 c -6.485,4.1862 9.904,5.8548 3.42,10.0409 l -1.972,1.3244 c 6.319,-4.4313 -10.094,-5.7838 -3.61,-9.9699 z m 1.997,-1.2376 c -6.646,3.9249 9.709,5.9287 3.225,10.1148 l -2.161,1.3954 c 6.484,-4.1862 -9.904,-5.8547 -3.42,-10.0409 z m 2.058,-1.1782 c -6.811,3.6291 9.453,6.3311 2.807,10.256 l -1.999,1.2687 c 6.484,-4.1862 -9.879,-6.2044 -3.234,-10.1293 z m 2.125,-1.1124 c -6.982,3.289 9.148,6.7657 2.336,10.3948 l -2.021,1.1909 c 6.645,-3.925 -9.628,-6.6434 -2.817,-10.2725 z m 1.941,-0.9143 c -6.982,3.289 9.1,6.6712 2.289,10.3003 l -2.068,1.1086 c 6.645,-3.925 -9.582,-6.5611 -2.771,-10.1902 z m 2.147,-0.9761 c -7.113,2.9969 8.833,7.1782 1.852,10.4671 l -2.087,1.0101 c 6.811,-3.6291 -9.28,-7.0301 -2.299,-10.3191 z m 2.154,-0.871 c -7.212,2.7478 8.56,7.5234 1.448,10.5203 l -2.137,0.9999 c 6.982,-3.289 -8.972,-7.4865 -1.859,-10.4833 z m 2.215,-0.7918 c -7.317,2.4559 8.262,7.8123 1.05,10.5602 l -2.013,0.8375 c 6.982,-3.289 -8.863,-7.706 -1.651,-10.4539 z m 2.175,-0.7036 c -7.382,2.2549 8.011,8.1394 0.694,10.5953 l -2.218,0.8206 c 7.212,-2.7479 -8.373,-8.1204 -1.056,-10.5763 z m 2.174,-0.6471 c -7.433,2.0775 7.806,8.3592 0.424,10.6141 l -2.309,0.7642 c 7.317,-2.4559 -8.079,-8.3515 -0.698,-10.6064 z m 2.255,-0.5856 c -7.503,1.8106 7.537,8.5341 0.104,10.6115 l -2.344,0.713 c 7.382,-2.2549 -7.859,-8.5464 -0.426,-10.6239 z m 2.276,-0.4879 c -7.562,1.5428 7.225,8.781 -0.278,10.5917 l -2.186,0.5939 c 7.382,-2.2549 -7.73,-8.7869 -0.228,-10.5975 z m 2.478,-0.4024 c -7.652,1.0019 6.723,9.028 -0.839,10.5708 l -2.332,0.5235 c 7.503,-1.8106 -7.288,-9.0637 0.274,-10.6065 z m 2.314,-0.2674 c -7.683,0.7274 6.392,9.2267 -1.22,10.5001 l -2.352,0.4235 c 7.562,-1.5428 -6.958,-9.2997 0.654,-10.5732 z m 2.325,-0.1669 c -7.704,0.4494 5.904,9.7246 -1.78,10.4521 l -2.186,0.2854 c 7.612,-1.2735 -6.468,-9.8029 1.216,-10.5304 z m 2.516,-0.0581 c -7.717,-0.1068 5.362,9.9068 -2.343,10.3562 l -2.378,0.1942 c 7.683,-0.7275 -5.926,-10.018 1.779,-10.4675 z m 2.334,0.0587 c -7.708,-0.3905 4.995,10.0653 -2.721,10.2324 l -2.382,0.09 c 7.705,-0.4495 -5.557,-10.2111 2.159,-10.3783 z m 2.351,0.1662 c -7.685,-0.708 4.409,10.4802 -3.299,10.0897 l -2.2,-0.0142 c 7.716,-0.1672 -4.987,-10.6538 2.721,-10.2633 z m 2.364,0.2899 c -7.644,-1.0609 3.952,10.626 -3.733,9.918 l -2.167,-0.1251 c 7.717,0.1067 -4.575,-10.8299 3.111,-10.122 z m 2.652,0.4999 c -7.485,-1.8767 3.155,10.6949 -4.49,9.634 l -2.321,-0.255 c 7.686,0.7079 -3.908,-10.9985 3.736,-9.9376 z m 2.38,0.6403 c -7.354,-2.3386 2.564,10.7676 -5.016,9.3172 l -2.277,-0.3822 c 7.645,1.0609 -3.369,-11.1749 4.211,-9.7245 z m 2.353,0.8271 c -7.178,-2.8326 1.476,11.1877 -5.878,8.8491 l -1.911,-0.4392 c 7.58,1.4504 -2.325,-11.705 5.029,-9.3664 z m 2.244,0.9798 c -7,-3.252 0.76,11.267 -6.418,8.4343 l -1.809,-0.5867 c 7.486,1.8767 -1.593,-11.8168 5.585,-8.9842 z m 2.328,1.2474 c -6.653,-3.9118 -0.053,11.1569 -7.052,7.9048 l -2.092,-0.8747 c 7.178,2.8327 -0.571,-11.7095 6.428,-8.4575 z m 2.034,1.2797 c -6.447,-4.2412 -0.965,11.2861 -7.618,7.3743 l -1.855,-0.9292 c 6.999,3.2521 0.418,-11.8531 7.071,-7.9413 z m 2.296,1.7334 c -5.78,-5.1128 -1.86,10.8702 -8.307,6.629 l -1.761,-1.0711 c 6.837,3.5811 0.968,-11.7672 7.415,-7.526 z m 1.871,1.6895 c -5.392,-5.5212 -2.736,10.7163 -8.798,5.94 l -1.737,-1.2353 c 6.447,4.2413 2.043,-11.6244 8.105,-6.8481 z m 1.729,1.8227 c -4.982,-5.8928 -3.35,10.4454 -9.13,5.3326 l -1.733,-1.4797 c 6.063,4.7763 2.77,-11.3395 8.55,-6.2268 z m 1.582,1.9411 c -4.559,-6.2265 -4.082,10.1749 -9.473,4.6537 l -1.559,-1.5452 c 5.78,5.1128 3.53,-11.1642 8.921,-5.643 z m 1.396,2.0373 c -4.156,-6.5029 -5.392,9.923 -9.951,3.6965 l -1.216,-1.3856 c 5.391,5.5212 4.959,-10.9193 9.518,-4.6928 z m 1.345,2.3338 c -3.439,-6.9091 -6.09,9.35 -10.245,2.8472 l -1.101,-1.5304 c 4.982,5.8928 5.615,-10.5134 9.771,-4.0105 z m 1.048,2.2069 c -3.032,-7.0962 -6.565,8.961 -10.346,2.2332 l -1.177,-1.9528 c 4.155,6.5028 6.366,-9.8166 10.147,-3.0888 z m 0.888,2.317 c -2.561,-7.2798 -7.485,8.4295 -10.517,1.3334 l -0.926,-1.7896 c 3.781,6.7278 7.355,-9.3497 10.388,-2.2535 z m 0.747,2.6216 c -1.724,-7.5227 -8.034,7.67 -10.595,0.3902 l -0.725,-1.7942 c 3.44,6.9091 7.871,-8.9003 10.432,-1.6205 z m 0.481,2.3471 c -1.354,-7.598 -8.415,7.2218 -10.54,-0.1973 l -0.678,-2.1625 c 2.561,7.2798 8.445,-8.0898 10.57,-0.6707 z m 0.36,2.559 c -0.702,-7.686 -9.211,6.4242 -10.566,-1.1737 l -0.452,-1.9932 c 2.125,7.4191 9.229,-7.4106 10.583,0.1874 z m 0.181,2.3322 c -0.411,-7.7071 -9.443,6.0389 -10.458,-1.612 l -0.364,-2.3145 c 1.355,7.598 9.55,-6.6893 10.565,0.9615 z m 0.063,2.3594 c -0.088,-7.7172 -9.951,5.4692 -10.362,-2.2379 l -0.215,-2.1569 c 1.014,7.6508 10.08,-6.0982 10.491,1.6089 z m -0.049,2.3828 c 0.27,-7.7131 -10.157,5.0252 -10.245,-2.6921 l -0.081,-2.1612 c 0.701,7.686 10.282,-5.6738 10.37,2.0434 z m -0.161,2.3679 c 0.611,-7.6936 -10.377,4.5595 -10.108,-3.1536 l 0.019,-2.3335 c 0.088,7.7172 10.534,-5.0208 10.265,2.6923 z m -0.267,2.3486 c 0.937,-7.6608 -10.568,4.1046 -9.957,-3.5891 l 0.131,-2.34 c -0.269,7.7131 10.738,-4.5389 10.127,3.1547 z m -0.368,2.3248 c 1.247,-7.6166 -10.732,3.6628 -9.795,-3.9985 l 0.24,-2.3412 c -0.611,7.6935 10.912,-4.0699 9.974,3.5909 z m -0.467,2.3238 c 1.579,-7.5542 -10.866,3.209 -9.619,-4.4076 l 0.343,-2.3387 c -0.937,7.6613 11.059,-3.6156 9.812,4.0009 z m -0.583,2.332 c 1.957,-7.465 -10.981,2.699 -9.402,-4.8552 l 0.435,-2.3059 c -1.247,7.6161 11.216,-3.1432 9.637,4.4111 z m -0.717,2.332 c 2.381,-7.3409 -11.086,2.111 -9.129,-5.354 l 0.531,-2.2513 c -1.579,7.5543 11.38,-2.6049 9.423,4.8603 z m -0.838,2.281 c 2.784,-7.198 -11.199,1.479 -8.818,-5.862 l 0.636,-2.186 c -1.957,7.465 11.533,-1.9802 9.152,5.361 z m -0.884,2.235 c 3.143,-7.048 -11.343,0.852 -8.559,-6.346 l 0.757,-2.157 c -2.381,7.34 11.624,-1.329 8.84,5.869 z m -0.874,1.96 c 3.143,-7.049 -11.243,0.893 -8.459,-6.305 l 0.928,-2.399 c -2.784,7.198 11.453,-1.087 8.669,6.111 z m -1.042,2.178 c 3.509,-6.873 -11.325,0.289 -8.182,-6.759 l 0.919,-2.122 c -2.784,7.198 11.622,-0.736 8.479,6.313 z m -0.976,1.911 c 3.509,-6.874 -11.504,-0.096 -7.995,-6.97 l 0.963,-2.09 c -3.143,7.048 11.711,-0.105 8.202,6.769 z m -1.202,2.104 c 3.875,-6.674 -11.278,-0.289 -7.769,-7.163 l 1.17,-2.291 c -3.509,6.873 11.504,0.096 7.995,6.97 z m -1.279,2.1 c 4.276,-6.424 -11.281,-0.963 -7.405,-7.637 l 1.11,-2.007 c -3.509,6.874 11.664,0.501 7.788,7.175 z m -1.298,1.891 c 4.46,-6.299 -11.308,-1.524 -7.032,-7.948 l 1.139,-1.949 c -3.875,6.674 11.703,1.226 7.427,7.651 z m -1.208,1.723 c 4.409,-6.335 -11.405,-1.719 -6.945,-8.018 l 1.183,-1.747 c -3.876,6.674 11.676,1.394 7.216,7.693 z m -0.958,1.48 c 3.927,-6.644 -11.654,-1.374 -7.245,-7.709 l 1.505,-2.138 c -4.46,6.3 11.351,1.682 6.942,8.017 z M 199.75,81.1176 c -6.115,-4.7092 -2.202,11.2932 -8.317,6.584 l -2.038,-1.5697 c 6.115,4.7092 2.202,-11.2932 8.317,-6.5841 z m 1.753,1.3792 c -6.037,-4.8093 -2.255,11.2231 -8.37,6.5139 l -2.038,-1.5697 c 6.115,4.7092 2.202,-11.2933 8.317,-6.5841 z m 1.678,1.3369 c -6.037,-4.8093 -2.388,11.2553 -8.424,6.446 l -1.962,-1.5296 c 6.115,4.7092 2.337,-11.3288 8.374,-6.5195 z m 1.678,1.337 c -6.036,-4.8094 -2.387,11.2553 -8.424,6.446 l -2.013,-1.6031 c 6.037,4.8093 2.388,-11.2554 8.425,-6.446 z m 1.741,1.4419 c -5.927,-4.9429 -2.45,11.1503 -8.487,6.341 l -2.012,-1.6031 c 6.036,4.8093 2.388,-11.2553 8.424,-6.446 z m 1.648,1.3741 c -5.928,-4.9429 -2.639,11.199 -8.566,6.2561 l -1.903,-1.5554 c 6.037,4.8093 2.565,-11.2913 8.493,-6.3483 z m 1.755,1.4735 c -5.786,-5.1087 -2.746,11.0998 -8.674,6.1567 l -1.976,-1.6477 c 5.928,4.943 2.639,-11.199 8.567,-6.256 z m 1.608,1.4202 c -5.785,-5.1088 -2.706,11.0536 -8.634,6.1105 l -1.976,-1.6476 c 5.928,4.9427 2.639,-11.199 8.567,-6.2561 z m 1.608,1.4201 c -5.785,-5.1087 -2.955,11.1195 -8.74,6.011 l -1.83,-1.5941 c 5.928,4.9426 2.856,-11.2285 8.642,-6.1198 z m 1.723,1.5572 c -5.606,-5.3046 -3.069,10.9823 -8.855,5.8739 l -1.928,-1.7029 c 5.785,5.1083 2.955,-11.1197 8.74,-6.0109 z m 1.558,1.4746 c -5.606,-5.3046 -3.335,11.0117 -8.941,5.7067 l -1.792,-1.5901 c 5.785,5.1091 3.259,-11.1894 8.865,-5.8848 z m 1.559,1.4746 c -5.606,-5.3046 -3.336,11.0111 -8.942,5.7071 l -1.742,-1.645 c 5.786,5.109 3.209,-11.1349 8.815,-5.8303 z m 1.673,1.6556 c -5.385,-5.5279 -3.45,10.8305 -9.056,5.5255 l -1.869,-1.768 c 5.606,5.305 3.335,-11.0113 8.942,-5.7067 z m 1.498,1.5366 c -5.386,-5.5278 -3.78,10.8669 -9.166,5.3389 l -1.699,-1.643 c 5.607,5.304 3.684,-11.0663 9.069,-5.5385 z m 1.497,1.5369 c -5.386,-5.5281 -3.78,10.866 -9.166,5.338 l -1.795,-1.842 c 5.386,5.528 3.78,-10.8667 9.166,-5.3388 z m 1.577,1.705 c -5.193,-5.7105 -3.86,10.698 -9.246,5.17 l -1.795,-1.843 c 5.386,5.528 3.78,-10.866 9.166,-5.338 z m 1.513,1.698 c -5.048,-5.8387 -4.222,10.62 -9.414,4.909 l -1.643,-1.743 c 5.386,5.528 4.064,-10.8905 9.256,-5.18 z m 1.491,1.728 c -4.891,-5.971 -4.507,10.518 -9.555,4.679 l -1.638,-1.814 c 5.193,5.711 4.375,-10.7549 9.423,-4.916 z m 1.359,1.66 c -4.89,-5.971 -4.463,10.481 -9.511,4.642 l -1.597,-1.849 c 5.192,5.71 4.334,-10.72 9.382,-4.881 z m 1.42,1.798 c -4.72,-6.107 -4.761,10.364 -9.652,4.393 l -1.558,-1.872 c 5.047,5.839 4.629,-10.62 9.52,-4.649 z m 1.405,1.853 c -4.502,-6.268 -5.088,10.209 -9.808,4.102 l -1.52,-1.893 c 4.891,5.971 4.942,-10.507 9.662,-4.4 z m 1.324,1.934 c -4.257,-6.437 -5.428,9.991 -9.931,3.723 l -1.462,-1.893 c 4.719,6.107 5.318,-10.379 9.82,-4.11 z m 1.233,2.063 c -3.928,-6.642 -5.795,9.695 -10.052,3.258 l -1.262,-1.793 c 4.72,6.106 5.588,-10.321 9.845,-3.884 z m 1.159,2.132 c -3.559,-6.848 -6.305,9.381 -10.233,2.739 l -1.214,-1.97 c 4.258,6.438 6.143,-9.911 10.071,-3.268 z m 1.046,2.103 c -3.285,-6.984 -6.813,9.112 -10.373,2.264 l -1.123,-1.996 c 3.928,6.643 6.694,-9.598 10.253,-2.75 z m 0.957,2.076 c -3.094,-7.071 -7.165,8.902 -10.451,1.918 l -1.076,-2.109 c 3.56,6.848 7.103,-9.255 10.388,-2.271 z m 0.86,1.965 c -3.094,-7.071 -7.365,8.84 -10.459,1.769 l -1.033,-2.202 c 3.285,6.984 7.367,-8.995 10.461,-1.924 z m 0.84,1.913 c -3.172,-7.036 -7.344,8.892 -10.439,1.822 l -0.98,-2.227 c 3.285,6.984 7.314,-8.97 10.408,-1.899 z m 0.797,1.753 c -3.469,-6.894 -7.281,9.105 -10.376,2.034 l -1.031,-2.357 c 3.094,7.071 7.365,-8.839 10.459,-1.769 z m 0.858,1.65 c -3.846,-6.692 -7.159,9.429 -10.331,2.393 l -1.074,-2.4 c 3.094,7.071 7.284,-8.866 10.456,-1.829 z m 1.069,1.86 c -3.846,-6.692 -6.358,9.589 -10.204,2.897 l -1.372,-2.754 c 3.172,7.037 6.448,-9.065 10.294,-2.374 z m 1.029,1.598 c -4.16,-6.501 -6.318,9.851 -10.164,3.159 l -1.403,-2.489 c 3.469,6.894 6.479,-9.33 10.325,-2.638 z m 1.076,1.507 c -4.523,-6.253 -5.814,10.18 -9.974,3.679 l -1.479,-2.397 c 3.846,6.691 5.987,-9.65 10.147,-3.149 z m 1.134,1.388 c -4.939,-5.929 -5.199,10.549 -9.721,4.296 l -1.617,-2.364 c 4.159,6.5 5.431,-9.919 9.954,-3.666 z m 0.936,0.974 c -5.792,-5.1 -4.175,11.212 -9.114,5.284 l -1.794,-2.308 c 4.523,6.253 4.76,-10.207 9.699,-4.278 z m 1.226,0.981 c -6.324,-4.423 -2.983,11.653 -8.519,6.275 l -2.094,-2.301 c 4.939,5.929 3.729,-10.457 9.265,-5.08 z m 0.984,0.52 c -7.077,-3.077 -0.908,12.091 -7.232,7.667 l -2.577,-2.209 c 5.536,5.377 2.152,-10.646 8.475,-6.223 z m 0.535,0.154 c -7.676,-0.782 2.046,12.189 -5.03,9.112 l -3.316,-2.035 c 6.057,4.782 0.343,-10.478 7.419,-7.401 z m 0.969,-0.004 c -7.655,0.972 4.756,11.499 -2.835,10.114 l -3.875,-1.346 c 6.841,3.571 -1.869,-10.161 5.722,-8.776 z m 0.825,-0.205 c -7.173,2.847 7.377,10.09 -0.329,10.498 l -4.143,-0.354 c 7.459,1.976 -4.107,-9.512 3.599,-9.92 z m 1.385,-0.652 c -6.783,3.679 9.057,8.008 1.736,10.451 l -3.876,0.722 c 7.706,-0.408 -6.701,-8.041 0.62,-10.483 z m 1.231,-0.746 c -6.218,4.572 10.081,6.316 3.298,9.994 l -3.5,1.417 c 7.455,-1.994 -8.187,-6.783 -1.404,-10.461 z m 1.515,-1.139 c -5.989,4.868 10.448,5.657 3.963,9.84 l -2.868,1.651 c 7.018,-3.211 -9.195,-6.115 -2.71,-10.298 z m 1.491,-1.256 c -5.8,5.091 10.657,4.644 4.668,9.511 l -2.555,1.817 c 6.485,-4.183 -9.925,-4.935 -3.936,-9.802 z m 1.476,-1.344 c -5.651,5.257 10.792,4.269 4.992,9.36 l -2.339,1.905 c 6.218,-4.571 -10.25,-4.548 -4.45,-9.639 z m 1.43,-1.392 c -5.495,5.42 10.918,3.959 5.267,9.217 l -2.026,1.817 c 5.8,-5.092 -10.635,-4.094 -4.984,-9.351 z m 1.527,-1.507 c -5.495,5.42 10.89,3.713 5.395,9.133 l -1.967,1.882 c 5.65,-5.258 -10.754,-3.788 -5.259,-9.208 z m 1.433,-1.463 c -5.391,5.523 10.985,3.67 5.49,9.09 l -1.832,1.806 c 5.495,-5.42 -10.89,-3.713 -5.395,-9.133 z m 1.499,-1.535 c -5.391,5.523 10.959,3.506 5.567,9.029 l -1.88,1.896 c 5.494,-5.42 -10.876,-3.561 -5.484,-9.084 z m 1.5,-1.536 c -5.393,5.522 10.958,3.507 5.566,9.03 l -1.797,1.841 c 5.391,-5.523 -10.959,-3.507 -5.567,-9.03 z m 1.499,-1.535 c -5.393,5.522 10.958,3.508 5.565,9.03 l -1.796,1.841 c 5.391,-5.523 -10.959,-3.508 -5.567,-9.031 z m 1.576,-1.576 c -5.481,5.435 10.881,3.549 5.488,9.071 l -1.797,1.841 c 5.392,-5.522 -10.958,-3.508 -5.566,-9.031 z m 1.523,-1.511 c -5.48,5.435 10.9,3.685 5.42,9.119 l -1.753,1.769 c 5.392,-5.522 -10.974,-3.642 -5.494,-9.076 z m 1.66,-1.594 c -5.643,5.266 10.764,3.768 5.283,9.203 l -1.827,1.811 c 5.481,-5.434 -10.9,-3.684 -5.419,-9.119 z m 1.568,-1.464 c -5.642,5.266 10.783,4.013 5.14,9.279 l -1.728,1.688 c 5.48,-5.434 -10.935,-3.946 -5.293,-9.212 z m 1.696,-1.561 c -5.803,5.089 10.656,4.11 5.013,9.376 l -1.881,1.755 c 5.643,-5.265 -10.783,-4.013 -5.14,-9.278 z m 1.711,-1.498 c -5.928,4.942 10.556,4.429 4.752,9.517 l -1.762,1.648 c 5.642,-5.265 -10.826,-4.297 -5.022,-9.385 z m 1.649,-1.373 c -5.929,4.941 10.52,4.387 4.717,9.476 l -1.808,1.599 c 5.643,-5.266 -10.78,-4.248 -4.977,-9.337 z m 1.791,-1.427 c -6.065,4.772 10.398,4.664 4.469,9.605 l -1.865,1.579 c 5.804,-5.088 -10.652,-4.542 -4.724,-9.484 z m 1.839,-1.393 c -6.212,4.579 10.255,4.972 4.189,9.745 l -1.887,1.527 c 5.929,-4.942 -10.542,-4.843 -4.476,-9.615 z m 1.887,-1.354 c -6.366,4.362 10.088,5.311 3.876,9.891 l -1.91,1.472 c 6.066,-4.773 -10.409,-5.176 -4.196,-9.756 z m 1.937,-1.312 c -6.526,4.121 9.895,5.68 3.528,10.042 l -1.933,1.414 c 6.212,-4.579 -10.251,-5.54 -3.884,-9.903 z m 1.814,-1.145 c -6.526,4.12 9.851,5.612 3.484,9.974 l -1.976,1.354 c 6.212,-4.579 -10.208,-5.48 -3.841,-9.843 z m 2.031,-1.19 c -6.688,3.853 9.628,5.999 3.102,10.119 l -2.002,1.287 c 6.367,-4.363 -10.018,-5.868 -3.492,-9.988 z m 2.08,-1.131 c -6.848,3.559 9.374,6.408 2.686,10.261 l -2.026,1.217 c 6.526,-4.12 -9.798,-6.281 -3.11,-10.134 z m 2.129,-1.069 c -7.005,3.24 9.086,6.838 2.237,10.397 l -2.05,1.146 c 6.688,-3.852 -9.543,-6.718 -2.695,-10.277 z m 1.947,-0.901 c -7.005,3.24 8.99,7.18 1.985,10.42 l -2.074,1.075 c 6.849,-3.559 -9.251,-7.175 -2.246,-10.415 z m 2.217,-0.907 c -7.154,2.896 8.72,7.187 1.715,10.426 l -2.117,0.986 c 6.848,-3.558 -9.207,-7.086 -2.202,-10.325 z m 2.257,-0.831 c -7.291,2.529 8.362,7.634 1.208,10.53 l -2.137,0.907 c 7.004,-3.24 -8.878,-7.549 -1.724,-10.446 z m 2.294,-0.755 c -7.414,2.143 7.967,8.086 0.675,10.616 l -2.157,0.829 c 7.154,-2.896 -8.507,-8.021 -1.216,-10.55 z m 2.061,-0.5955 c -7.414,2.1435 7.801,8.4565 0.387,10.5995 l -2.176,0.752 c 7.291,-2.53 -8.096,-8.494 -0.682,-10.637 z m 2.357,-0.564 c -7.519,1.7395 7.505,8.4245 0.091,10.5675 l -2.21,0.645 c 7.291,-2.53 -8.062,-8.387 -0.648,-10.5299 z m 2.38,-0.4823 c -7.604,1.3227 7.042,8.8648 -0.477,10.6038 l -2.223,0.565 c 7.414,-2.143 -7.615,-8.851 -0.096,-10.5902 z m 2.398,-0.4029 c -7.665,0.8974 6.548,9.2907 -1.056,10.6137 l -2.235,0.489 c 7.519,-1.739 -7.131,-9.3039 0.472,-10.6266 z m 2.13,-0.2495 c -7.665,0.8974 6.531,9.1732 -1.072,10.4952 l -2.534,0.441 c 7.603,-1.322 -6.833,-9.2556 0.77,-10.5783 z m 2.423,-0.2075 c -7.703,0.4683 6.015,9.5797 -1.65,10.4777 l -2.266,0.299 c 7.603,-1.323 -6.596,-9.6221 1.069,-10.5195 z m 2.427,-0.1355 c -7.717,0.0401 5.475,9.9642 -2.229,10.4322 l -2.273,0.23 c 7.666,-0.897 -6.054,-10.0325 1.649,-10.5008 z m 2.146,-0.0112 c -7.718,0.0402 5.47,9.8454 -2.233,10.3134 l -2.568,0.156 c 7.703,-0.468 -5.76,-9.9587 1.943,-10.4269 z m 2.425,0.048 c -7.708,-0.3822 4.918,10.2034 -2.799,10.2444 l -2.286,0.047 c 7.704,-0.468 -5.485,-10.297 2.232,-10.3372 z m 2.143,0.1063 c -7.708,-0.3823 4.629,10.5321 -3.079,10.1501 l -2.29,-0.01 c 7.717,-0.04 -4.908,-10.6498 2.8,-10.2676 z m 2.411,0.2201 c -7.677,-0.7947 4.361,10.418 -3.347,10.036 l -2.57,-0.127 c 7.708,0.382 -4.629,-10.5325 3.079,-10.1503 z m 2.398,0.2671 c -7.625,-1.1937 3.794,10.7189 -3.883,9.9239 l -2.289,-0.176 c 7.708,0.382 -4.328,-10.8537 3.349,-10.059 z m 2.12,0.3319 c -7.625,-1.1938 3.808,10.608 -3.869,9.813 l -2.559,-0.265 c 7.677,0.795 -4.058,-10.7648 3.619,-9.97 z m 2.368,0.4133 c -7.555,-1.5763 3.243,10.8807 -4.382,9.6867 l -2.28,-0.331 c 7.677,0.795 -3.753,-11.0288 3.872,-9.8351 z m 2.1,0.4382 c -7.555,-1.5763 2.935,11.1245 -4.62,9.5475 l -2.284,-0.365 c 7.625,1.194 -3.169,-11.2843 4.386,-9.708 z m 2.332,0.5428 c -7.47,-1.9402 2.703,11.0197 -4.852,9.4437 l -2.264,-0.472 c 7.624,1.194 -3.189,-11.1781 4.366,-9.6018 z m 2.076,0.5397 c -7.47,-1.9405 2.393,11.253 -5.077,9.313 l -2.269,-0.497 c 7.555,1.577 -2.614,-11.4033 4.856,-9.4631 z m 2.292,0.655 c -7.373,-2.2838 2.178,11.137 -5.292,9.197 l -2.49,-0.647 c 7.47,1.941 -2.393,-11.2529 5.077,-9.313 z m 2.049,0.635 c -7.372,-2.2838 1.869,11.352 -5.503,9.068 l -2.252,-0.613 c 7.47,1.94 -2.075,-11.5002 5.297,-9.216 z m 2.249,0.752 c -7.264,-2.6069 1.669,11.235 -5.703,8.951 l -2.457,-0.761 c 7.372,2.284 -1.869,-11.3522 5.503,-9.068 z m 2.02,0.725 c -7.264,-2.607 1.367,11.424 -5.898,8.817 l -2.233,-0.717 c 7.372,2.284 -1.555,-11.5762 5.709,-8.969 z m 2.208,0.833 c -7.148,-2.909 1.178,11.315 -6.086,8.708 l -2.422,-0.869 c 7.265,2.607 -1.366,-11.423 5.898,-8.816 z m 1.988,0.808 c -7.149,-2.909 0.887,11.471 -6.262,8.562 l -2.214,-0.806 c 7.264,2.607 -1.056,-11.634 6.093,-8.725 z m 2.17,0.9 c -7.028,-3.19 0.704,11.38 -6.444,8.471 l -2.183,-0.89 c 7.264,2.607 -1.088,-11.551 6.061,-8.642 z m 1.954,0.887 c -7.028,-3.19 0.738,11.302 -6.411,8.393 l -2.383,-0.97 c 7.149,2.909 -0.887,-11.471 6.261,-8.562 z m 1.953,0.886 c -7.028,-3.189 0.432,11.498 -6.596,8.308 l -2.164,-0.962 c 7.149,2.909 -0.61,-11.599 6.418,-8.409 z m 2.101,1.027 c -6.904,-3.451 0.285,11.357 -6.743,8.168 l -2.343,-1.064 c 7.028,3.19 -0.432,-11.497 6.596,-8.307 z m 1.919,0.959 c -6.904,-3.451 0.001,11.505 -6.902,8.055 l -2.149,-1.023 c 7.028,3.19 -0.154,-11.633 6.75,-8.182 z m 2.069,1.064 c -6.778,-3.692 -0.149,11.401 -7.052,7.95 l -2.301,-1.15 c 6.903,3.45 -0.002,-11.506 6.902,-8.055 z m 1.884,1.027 c -6.778,-3.692 -0.404,11.498 -7.182,7.806 l -2.136,-1.074 c 6.903,3.451 0.281,-11.655 7.059,-7.963 z m 1.884,1.026 c -6.778,-3.692 -0.404,11.498 -7.182,7.806 l -2.101,-1.141 c 6.904,3.451 0.246,-11.588 7.024,-7.896 z m 2.008,1.155 c -6.652,-3.915 -0.528,11.37 -7.306,7.678 l -2.259,-1.231 c 6.778,3.692 0.404,-11.498 7.182,-7.806 z m 1.849,1.088 c -6.652,-3.915 -0.786,11.479 -7.437,7.564 l -2.093,-1.179 c 6.778,3.692 0.661,-11.605 7.313,-7.69 z m 1.849,1.089 c -6.652,-3.915 -0.786,11.478 -7.437,7.563 l -2.218,-1.305 c 6.652,3.915 0.786,-11.478 7.438,-7.563 z m 1.952,1.228 c -6.526,-4.121 -0.889,11.339 -7.54,7.424 l -2.218,-1.305 c 6.652,3.915 0.786,-11.479 7.438,-7.564 z m 1.814,1.146 c -6.526,-4.121 -1.144,11.448 -7.67,7.327 l -2.053,-1.266 c 6.652,3.915 1.022,-11.556 7.547,-7.435 z m 1.937,1.234 c -6.403,-4.311 -1.267,11.36 -7.793,7.239 l -2.175,-1.374 c 6.526,4.121 1.144,-11.448 7.67,-7.328 z m 1.779,1.198 c -6.402,-4.311 -1.232,11.307 -7.758,7.186 l -2.175,-1.373 c 6.526,4.121 1.144,-11.449 7.67,-7.328 z m 1.78,1.198 c -6.402,-4.31 -1.479,11.41 -7.882,7.1 l -2.017,-1.34 c 6.526,4.121 1.363,-11.507 7.765,-7.197 z m 1.893,1.284 c -6.281,-4.485 -1.593,11.325 -7.995,7.014 l -2.134,-1.437 c 6.402,4.311 1.479,-11.41 7.882,-7.099 z m 1.746,1.247 c -6.281,-4.485 -1.559,11.276 -7.961,6.965 l -2.134,-1.437 c 6.402,4.311 1.479,-11.41 7.881,-7.099 z m 1.746,1.247 c -6.281,-4.485 -1.794,11.365 -8.074,6.88 l -1.988,-1.4 c 6.403,4.311 1.688,-11.461 7.968,-6.975 z m 1.746,1.247 c -6.281,-4.485 -1.794,11.365 -8.074,6.88 l -2.094,-1.496 c 6.281,4.486 1.794,-11.365 8.074,-6.879 z m 1.823,1.368 c -6.163,-4.647 -1.871,11.244 -8.151,6.759 l -2.094,-1.496 c 6.281,4.486 1.794,-11.365 8.074,-6.879 z m 1.713,1.291 c -6.162,-4.646 -2.087,11.315 -8.25,6.668 l -1.962,-1.449 c 6.281,4.486 1.995,-11.414 8.158,-6.767 z m 1.713,1.292 c -6.162,-4.647 -2.087,11.315 -8.25,6.668 l -2.054,-1.549 c 6.163,4.647 2.088,-11.315 8.25,-6.668 z m 1.793,1.394 c -6.047,-4.796 -2.167,11.213 -8.33,6.566 l -2.054,-1.549 c 6.163,4.647 2.088,-11.315 8.25,-6.668 z m 1.682,1.333 c -6.048,-4.796 -2.363,11.26 -8.411,6.465 l -1.942,-1.489 c 6.163,4.647 2.289,-11.371 8.337,-6.575 z m 1.681,1.333 c -6.048,-4.796 -2.363,11.26 -8.41,6.465 l -2.016,-1.599 c 6.047,4.796 2.362,-11.26 8.41,-6.465 z m 1.807,1.447 c -5.885,-4.993 -2.489,11.147 -8.536,6.351 l -2.016,-1.599 c 6.047,4.796 2.362,-11.26 8.41,-6.465 z m 1.636,1.388 c -5.885,-4.993 -2.444,11.092 -8.491,6.296 l -2.016,-1.599 c 6.048,4.796 2.363,-11.26 8.41,-6.464 z m 1.793,1.579 c -5.642,-5.266 -2.89,10.984 -8.775,5.992 l -1.844,-1.54 c 6.048,4.795 2.615,-11.3 8.501,-6.308 z m 1.568,1.463 c -5.642,-5.265 -3.259,11.034 -8.901,5.768 l -1.768,-1.516 c 5.885,4.993 3.146,-11.272 8.789,-6.007 z m 1.703,1.723 c -5.349,-5.562 -3.394,10.775 -9.036,5.509 l -1.7,-1.592 c 5.885,4.993 3.079,-11.197 8.721,-5.931 z m 1.626,1.738 c -5.092,-5.801 -3.988,10.649 -9.338,5.087 l -1.636,-1.607 c 5.642,5.265 3.703,-11.088 9.052,-5.526 z m 1.494,1.768 c -4.898,-5.965 -4.419,10.5 -9.51,4.699 l -1.618,-1.688 c 5.35,5.563 4.261,-10.901 9.352,-5.1 z m 1.518,2.014 c -4.448,-6.308 -4.846,10.151 -9.743,4.186 l -1.416,-1.642 c 5.35,5.562 4.472,-10.853 9.37,-4.888 z m 1.421,2.148 c -3.904,-6.658 -5.63,9.74 -10.077,3.433 l -1.359,-1.725 c 4.898,5.965 5.321,-10.513 9.769,-4.205 z m 1.162,2.08 c -3.593,-6.831 -5.962,9.437 -10.151,2.955 l -1.228,-1.788 c 4.683,6.135 5.682,-10.28 9.871,-3.797 z m 1.097,2.429 c -2.883,-7.159 -6.81,8.814 -10.403,1.983 l -1.077,-1.816 c 4.189,6.482 6.591,-9.805 10.184,-2.974 z m 0.857,2.589 c -2.054,-7.439 -7.679,8.018 -10.562,0.859 l -0.897,-1.843 c 3.593,6.831 7.559,-9.16 10.442,-2.001 z m 0.548,2.729 c -1.115,-7.636 -8.527,7.037 -10.581,-0.402 l -0.586,-1.616 c 3.252,6.999 8.451,-8.561 10.505,-1.122 z m 0.176,2.82 c -0.093,-7.716 -9.305,5.88 -10.42,-1.757 l -0.371,-1.588 c 2.483,7.307 9.438,-7.534 10.553,0.102 z m -0.304,3.185 c 1.484,-7.573 -9.896,4.229 -9.989,-3.487 l -0.136,-1.555 c 1.596,7.55 10.33,-6.286 10.424,1.43 z m -0.71,2.742 c 2.485,-7.306 -10.339,2.862 -9.377,-4.795 l 0.092,-1.861 c 0.094,7.716 11.078,-4.513 10.117,3.144 z m -1.072,2.581 c 3.388,-6.934 -11.016,1.008 -8.532,-6.298 l 0.28,-1.501 c -0.962,7.656 11.947,-2.492 9.462,4.814 z m -1.368,2.376 c 4.17,-6.494 -11.078,-0.344 -7.689,-7.278 l 0.537,-1.481 c -1.994,7.454 12.096,-0.934 8.707,5.999 z m -1.591,2.158 c 4.825,-6.024 -11.007,-1.584 -6.836,-8.078 l 0.781,-1.455 c -2.95,7.131 12.047,0.522 7.877,7.016 z m -1.75,1.949 c 5.359,-5.554 -10.839,-2.691 -6.015,-8.715 l 1.005,-1.423 c -3.795,6.719 11.852,1.831 7.027,7.855 z m -1.861,1.76 c 5.791,-5.102 -10.607,-3.66 -5.247,-9.214 l 1.202,-1.387 c -4.513,6.261 11.562,2.98 6.202,8.533 z m -1.877,1.531 c 6.057,-4.782 -10.396,-4.433 -4.605,-9.535 l 1.373,-1.35 c -5.105,5.788 11.221,3.97 5.43,9.071 z m -1.993,1.464 c 6.351,-4.385 -10.104,-5.023 -4.047,-9.805 l 1.601,-1.347 c -5.587,5.325 10.831,4.641 4.774,9.423 z m -2.026,1.346 c 6.586,-4.024 -9.819,-5.671 -3.469,-10.056 l 1.783,-1.36 c -6.057,4.782 10.414,5.442 4.064,9.827 z m -1.83,1.118 c 6.585,-4.023 -9.756,-6.098 -3.17,-10.122 l 1.882,-1.295 c -6.35,4.386 10.069,6.053 3.483,10.076 z m -2.101,1.156 c 6.775,-3.695 -9.485,-6.136 -2.9,-10.159 l 1.948,-1.195 c -6.35,4.386 10.003,5.952 3.417,9.976 z m -2.105,1.083 c 6.928,-3.4 -9.223,-6.625 -2.448,-10.321 l 2.018,-1.144 c -6.586,4.024 9.685,6.482 2.91,10.178 z m -2.108,1.02 c 7.053,-3.132 -8.971,-7.047 -2.042,-10.447 l 2.077,-1.098 c -6.775,3.696 9.385,6.937 2.456,10.336 z m -1.961,0.871 c 7.054,-3.132 -8.936,-6.973 -2.007,-10.373 l 2.309,-1.133 c -6.928,3.4 9.153,6.972 2.224,10.372 z m -2.138,0.902 c 7.156,-2.891 -8.702,-7.348 -1.648,-10.48 l 2.162,-0.983 c -6.928,3.4 9.068,7.255 2.014,10.388 z m -1.989,0.804 c 7.156,-2.891 -8.626,-7.614 -1.469,-10.505 l 2.2,-0.952 c -7.054,3.132 8.811,7.602 1.654,10.493 z m -2.157,0.804 c 7.241,-2.672 -8.458,-7.615 -1.302,-10.506 l 2.386,-0.963 c -7.156,2.891 8.625,7.614 1.469,10.505 z m -2.15,0.777 c 7.312,-2.473 -8.253,-7.907 -1.012,-10.58 l 2.256,-0.863 c -7.156,2.891 8.548,7.846 1.307,10.518 z m -2.032,0.688 c 7.311,-2.474 -8.172,-8.099 -0.861,-10.573 l 2.282,-0.842 c -7.241,2.672 8.327,8.117 1.016,10.59 z m -2.16,0.705 c 7.37,-2.293 -8.045,-8.117 -0.733,-10.59 l 2.301,-0.788 c -7.241,2.673 8.308,8.062 0.997,10.536 z m -2.049,0.637 c 7.37,-2.293 -7.97,-8.298 -0.6,-10.591 l 2.32,-0.773 c -7.311,2.474 8.107,8.307 0.737,10.6 z m -2.167,0.643 c 7.419,-2.127 -7.852,-8.304 -0.482,-10.597 l 2.457,-0.764 c -7.37,2.293 7.97,8.298 0.6,10.591 z m -2.062,0.592 c 7.419,-2.128 -7.783,-8.474 -0.364,-10.602 l 2.352,-0.713 c -7.37,2.292 7.904,8.478 0.485,10.606 z m -2.171,0.591 c 7.461,-1.976 -7.675,-8.474 -0.255,-10.601 l 2.473,-0.71 c -7.42,2.128 7.783,8.474 0.363,10.602 z m -2.074,0.55 c 7.461,-1.977 -7.609,-8.631 -0.148,-10.607 l 2.377,-0.662 c -7.419,2.127 7.719,8.634 0.258,10.61 z m -2.22,0.545 c 7.512,-1.771 -7.463,-8.627 -0.002,-10.603 l 2.487,-0.659 c -7.461,1.977 7.609,8.631 0.148,10.607 z m -2.088,0.493 c 7.512,-1.772 -7.371,-8.835 0.141,-10.607 l 2.358,-0.598 c -7.462,1.976 7.517,8.842 0.005,10.614 z m -2.088,0.493 c 7.512,-1.772 -7.371,-8.835 0.141,-10.607 l 2.504,-0.591 c -7.512,1.772 7.371,8.835 -0.141,10.607 z m -2.089,0.492 c 7.512,-1.772 -7.37,-8.834 0.142,-10.606 l 2.504,-0.591 c -7.512,1.772 7.37,8.835 -0.142,10.607 z m -2.253,0.498 c 7.564,-1.534 -7.205,-8.84 0.307,-10.612 l 2.504,-0.59 c -7.512,1.772 7.37,8.834 -0.142,10.606 z m -2.102,0.427 c 7.564,-1.535 -7.089,-9.063 0.475,-10.597 l 2.349,-0.54 c -7.512,1.772 7.261,9.091 -0.303,10.625 z m -2.103,0.426 c 7.564,-1.534 -7.089,-9.063 0.475,-10.597 l 2.522,-0.511 c -7.564,1.534 7.088,9.062 -0.476,10.597 z m -2.103,0.427 c 7.564,-1.535 -7.088,-9.063 0.476,-10.597 l 2.521,-0.512 c -7.564,1.534 7.089,9.063 -0.476,10.597 z m -2.103,0.426 c 7.564,-1.534 -7.088,-9.063 0.476,-10.597 l 2.521,-0.511 c -7.564,1.534 7.089,9.062 -0.475,10.597 z m -2.25,0.397 c 7.603,-1.329 -6.941,-9.033 0.623,-10.567 l 2.522,-0.512 c -7.565,1.534 7.088,9.063 -0.476,10.597 z m -2.113,0.37 c 7.603,-1.329 -6.841,-9.251 0.762,-10.581 l 2.393,-0.441 c -7.564,1.534 6.982,9.25 -0.621,10.579 z m -2.114,0.369 c 7.603,-1.329 -6.84,-9.251 0.763,-10.58 l 2.534,-0.443 c -7.603,1.329 6.841,9.251 -0.762,10.58 z m -2.113,0.37 c 7.603,-1.329 -6.841,-9.252 0.762,-10.581 l 2.534,-0.443 c -7.603,1.329 6.841,9.252 -0.762,10.581 z m -2.235,0.377 c 7.632,-1.149 -6.719,-9.259 0.883,-10.588 l 2.535,-0.443 c -7.603,1.329 6.841,9.251 -0.762,10.58 z m -2.122,0.32 c 7.632,-1.15 -6.621,-9.41 1.011,-10.56 l 2.415,-0.422 c -7.603,1.329 6.75,9.449 -0.882,10.599 z m -2.121,0.32 c 7.632,-1.15 -6.622,-9.41 1.011,-10.56 l 2.423,-0.372 c -7.603,1.329 6.742,9.399 -0.89,10.548 z m -2.122,0.319 c 7.632,-1.15 -6.621,-9.41 1.011,-10.559 l 2.544,-0.384 c -7.632,1.15 6.621,9.41 -1.011,10.56 z m -2.122,0.32 c 7.632,-1.15 -6.621,-9.41 1.011,-10.56 l 2.544,-0.383 c -7.632,1.15 6.621,9.41 -1.011,10.56 z m -2.229,0.323 c 7.655,-0.991 -6.513,-9.413 1.119,-10.563 l 2.544,-0.383 c -7.632,1.149 6.621,9.409 -1.011,10.559 z m -2.127,0.276 c 7.654,-0.991 -6.425,-9.545 1.229,-10.536 l 2.439,-0.367 c -7.632,1.15 6.537,9.581 -1.117,10.573 z m -2.128,0.275 c 7.654,-0.991 -6.425,-9.545 1.23,-10.536 l 2.444,-0.322 c -7.632,1.15 6.532,9.537 -1.123,10.528 z m -2.128,0.276 c 7.654,-0.991 -6.425,-9.545 1.23,-10.536 l 2.551,-0.331 c -7.654,0.992 6.425,9.545 -1.23,10.537 z m -2.128,0.276 c 7.655,-0.992 -6.424,-9.546 1.23,-10.537 l 2.551,-0.33 c -7.654,0.991 6.425,9.545 -1.229,10.536 z m -2.222,0.285 c 7.671,-0.85 -6.33,-9.555 1.324,-10.546 l 2.552,-0.331 c -7.655,0.992 6.424,9.545 -1.23,10.537 z m -2.133,0.236 c 7.672,-0.849 -6.325,-9.515 1.329,-10.507 l 2.552,-0.33 c -7.655,0.991 6.424,9.545 -1.23,10.536 z m -2.132,0.237 c 7.671,-0.85 -6.248,-9.663 1.424,-10.512 l 2.461,-0.286 c -7.655,0.991 6.343,9.664 -1.328,10.514 z m -2.133,0.236 c 7.672,-0.85 -6.247,-9.662 1.424,-10.512 l 2.557,-0.283 c -7.671,0.849 6.248,9.662 -1.424,10.511 z m -2.132,0.236 c 7.671,-0.85 -6.248,-9.662 1.424,-10.512 l 2.557,-0.283 c -7.672,0.85 6.247,9.662 -1.424,10.512 z m -2.133,0.236 c 7.671,-0.85 -6.247,-9.662 1.424,-10.512 l 2.557,-0.283 c -7.671,0.85 6.248,9.662 -1.424,10.512 z m -2.22,0.223 c 7.685,-0.722 -6.16,-9.649 1.512,-10.498 l 2.557,-0.284 c -7.672,0.85 6.247,9.662 -1.424,10.512 z m -2.136,0.201 c 7.684,-0.722 -6.086,-9.765 1.598,-10.487 l 2.474,-0.259 c -7.671,0.849 6.174,9.783 -1.511,10.505 z m -2.136,0.201 c 7.684,-0.722 -6.086,-9.765 1.598,-10.487 l 2.562,-0.241 c -7.685,0.723 6.086,9.765 -1.599,10.487 z m -2.136,0.201 c 7.684,-0.723 -6.086,-9.765 1.598,-10.487 l 2.562,-0.241 c -7.685,0.722 6.086,9.765 -1.599,10.487 z m -2.137,0.2 c 7.685,-0.722 -6.086,-9.764 1.599,-10.486 l 2.561,-0.241 c -7.684,0.722 6.086,9.764 -1.598,10.487 z m -2.213,0.208 c 7.694,-0.606 -6.009,-9.771 1.676,-10.494 l 2.561,-0.24 c -7.684,0.722 6.086,9.764 -1.598,10.486 z m -2.139,0.168 c 7.694,-0.606 -6.006,-9.739 1.678,-10.461 l 2.562,-0.241 c -7.685,0.723 6.086,9.765 -1.599,10.487 z m -2.139,0.169 c 7.694,-0.606 -5.938,-9.856 1.756,-10.462 l 2.487,-0.208 c -7.685,0.722 6.016,9.862 -1.678,10.468 z m -2.139,0.168 c 7.694,-0.606 -5.938,-9.855 1.756,-10.461 l 2.565,-0.202 c -7.694,0.606 5.938,9.855 -1.756,10.461 z m -2.139,0.169 c 7.694,-0.606 -5.938,-9.856 1.756,-10.462 l 2.565,-0.202 c -7.694,0.606 5.938,9.856 -1.756,10.462 z m -2.139,0.168 c 7.694,-0.606 -5.938,-9.855 1.756,-10.461 l 2.565,-0.202 c -7.694,0.606 5.938,9.855 -1.756,10.461 z m -2.211,0.168 c 7.703,-0.5 -5.866,-9.855 1.828,-10.461 l 2.565,-0.202 c -7.694,0.606 5.938,9.856 -1.756,10.462 z m -2.141,0.139 c 7.702,-0.5 -5.801,-9.937 1.902,-10.437 l 2.493,-0.196 c -7.694,0.606 5.875,9.967 -1.827,10.466 z m -2.141,0.139 c 7.702,-0.5 -5.801,-9.937 1.901,-10.437 l 2.496,-0.167 c -7.694,0.606 5.873,9.937 -1.829,10.437 z m -2.141,0.138 c 7.702,-0.499 -5.801,-9.936 1.901,-10.436 l 2.568,-0.166 c -7.702,0.499 5.801,9.936 -1.902,10.436 z m -2.141,0.139 c 7.702,-0.499 -5.801,-9.936 1.901,-10.436 l 2.568,-0.166 c -7.703,0.499 5.801,9.936 -1.902,10.436 z m -2.141,0.139 c 7.702,-0.499 -5.801,-9.936 1.901,-10.436 l 2.567,-0.167 c -7.702,0.5 5.801,9.937 -1.901,10.437 z m -2.208,0.136 c 7.708,-0.401 -5.734,-9.934 1.968,-10.433 l 2.567,-0.167 c -7.702,0.5 5.801,9.937 -1.901,10.436 z m -2.142,0.111 c 7.708,-0.401 -5.673,-10.01 2.035,-10.411 l 2.501,-0.161 c -7.702,0.5 5.741,10.038 -1.967,10.439 z m -2.143,0.112 c 7.708,-0.401 -5.673,-10.01 2.035,-10.411 l 2.503,-0.134 c -7.702,0.5 5.739,10.01 -1.969,10.411 z m -2.143,0.111 c 7.708,-0.401 -5.673,-10.01 2.035,-10.411 l 2.569,-0.133 c -7.708,0.401 5.674,10.01 -2.034,10.411 z m -2.142,0.112 c 7.708,-0.401 -5.674,-10.01 2.034,-10.411 l 2.57,-0.134 c -7.708,0.401 5.673,10.01 -2.035,10.411 z m -2.143,0.111 c 7.708,-0.401 -5.673,-10.01 2.035,-10.411 l 2.569,-0.133 c -7.708,0.4 5.673,10.01 -2.035,10.411 z m -2.204,0.111 c 7.712,-0.309 -5.612,-10.009 2.096,-10.41 l 2.569,-0.134 c -7.708,0.401 5.673,10.01 -2.035,10.411 z m -2.144,0.085 c 7.712,-0.308 -5.611,-9.983 2.097,-10.384 l 2.57,-0.134 c -7.708,0.401 5.673,10.011 -2.035,10.411 z m -2.144,0.086 c 7.712,-0.309 -5.553,-10.077 2.159,-10.386 l 2.509,-0.106 c -7.708,0.401 5.615,10.081 -2.098,10.389 z m -2.144,0.086 c 7.712,-0.309 -5.553,-10.077 2.159,-10.386 l 2.571,-0.103 c -7.713,0.309 5.553,10.077 -2.159,10.386 z m -2.144,0.086 c 7.712,-0.309 -5.553,-10.077 2.159,-10.386 l 2.571,-0.103 c -7.712,0.309 5.553,10.077 -2.159,10.386 z m -2.144,0.086 c 7.712,-0.309 -5.553,-10.078 2.159,-10.386 l 2.571,-0.103 c -7.712,0.309 5.553,10.077 -2.159,10.386 z m -2.144,0.085 c 7.712,-0.308 -5.553,-10.077 2.159,-10.385 l 2.571,-0.103 c -7.712,0.308 5.553,10.077 -2.159,10.386 z m -2.202,0.066 c 7.715,-0.222 -5.495,-10.057 2.217,-10.366 l 2.571,-0.103 c -7.712,0.309 5.553,10.078 -2.159,10.386 z m -2.145,0.062 c 7.715,-0.222 -5.44,-10.139 2.276,-10.361 l 2.513,-0.084 c -7.712,0.309 5.498,10.149 -2.217,10.371 z m -2.145,0.061 c 7.715,-0.222 -5.439,-10.139 2.276,-10.361 l 2.572,-0.074 c -7.716,0.222 5.439,10.139 -2.276,10.361 z m -2.145,0.062 c 7.716,-0.222 -5.439,-10.139 2.276,-10.361 l 2.572,-0.074 c -7.715,0.222 5.439,10.139 -2.276,10.361 z m -2.144,0.062 c 7.715,-0.222 -5.44,-10.139 2.275,-10.361 l 2.572,-0.074 c -7.715,0.222 5.44,10.139 -2.276,10.361 z m -2.145,0.061 c 7.715,-0.221 -5.439,-10.139 2.276,-10.361 l 2.571,-0.073 c -7.715,0.221 5.44,10.139 -2.275,10.36 z m -2.2,0.05 c 7.717,-0.14 -5.384,-10.127 2.331,-10.349 l 2.572,-0.074 c -7.715,0.222 5.439,10.139 -2.276,10.361 z m -2.145,0.039 c 7.717,-0.14 -5.331,-10.197 2.386,-10.336 l 2.517,-0.064 c -7.715,0.222 5.386,10.214 -2.331,10.353 z m -2.146,0.039 c 7.718,-0.14 -5.33,-10.197 2.387,-10.337 l 2.572,-0.046 c -7.717,0.14 5.331,10.196 -2.386,10.336 z m -2.145,0.038 c 7.717,-0.139 -5.331,-10.196 2.386,-10.336 l 2.573,-0.046 c -7.717,0.139 5.331,10.196 -2.386,10.336 z m -2.145,0.039 c 7.717,-0.139 -5.331,-10.196 2.386,-10.336 l 2.573,-0.046 c -7.718,0.139 5.33,10.196 -2.387,10.336 z m -2.145,0.039 c 7.717,-0.14 -5.331,-10.197 2.386,-10.336 l 2.572,-0.047 c -7.717,0.14 5.331,10.197 -2.386,10.336 z m -2.224,0.034 c 7.719,-0.022 -5.253,-10.192 2.465,-10.331 l 2.572,-0.047 c -7.717,0.14 5.331,10.197 -2.386,10.336 z m -2.145,0.007 c 7.718,-0.023 -5.253,-10.16 2.464,-10.299 l 2.573,-0.047 c -7.717,0.14 5.331,10.196 -2.387,10.336 z m -2.146,0.006 c 7.718,-0.023 -5.176,-10.276 2.543,-10.299 l 2.494,-0.014 c -7.717,0.139 5.254,10.283 -2.464,10.305 z m -2.145,0.006 c 7.718,-0.022 -5.176,-10.276 2.542,-10.298 l 2.573,-0.008 c -7.718,0.023 5.176,10.276 -2.543,10.299 z m -2.146,0.007 c 7.718,-0.023 -5.176,-10.276 2.543,-10.299 l 2.572,-0.008 c -7.718,0.023 5.176,10.276 -2.542,10.299 z m -2.146,0.006 c 7.719,-0.023 -5.175,-10.276 2.543,-10.299 l 2.573,-0.007 c -7.719,0.022 5.175,10.276 -2.543,10.298 z m -2.145,0.006 c 7.718,-0.022 -5.176,-10.276 2.542,-10.298 l 2.573,-0.008 c -7.718,0.023 5.176,10.276 -2.542,10.299 z m -2.146,0.006 c 7.719,-0.022 -5.175,-10.276 2.543,-10.298 l 2.573,-0.008 c -7.719,0.023 5.175,10.276 -2.543,10.299 z m -2.145,0.007 c 7.718,-0.023 -5.176,-10.276 2.542,-10.299 l 2.573,-0.007 c -7.718,0.022 5.176,10.276 -2.543,10.298 z m -2.146,0.006 c 7.718,-0.023 -5.176,-10.276 2.543,-10.299 l 2.572,-0.007 c -7.718,0.023 5.176,10.276 -2.542,10.299 z m -2.146,0.006 c 7.719,-0.022 -5.175,-10.276 2.543,-10.298 l 2.573,-0.008 c -7.719,0.023 5.175,10.276 -2.543,10.299 z m -2.145,0.007 c 7.718,-0.023 -5.176,-10.276 2.542,-10.299 l 2.573,-0.008 c -7.718,0.023 5.176,10.276 -2.542,10.299 z m -2.146,0.006 c 7.719,-0.023 -5.175,-10.276 2.543,-10.299 l 2.573,-0.007 c -7.719,0.022 5.175,10.276 -2.543,10.298 z m -2.244,0.002 c 7.717,0.125 -5.077,-10.272 2.641,-10.294 l 2.573,-0.008 c -7.718,0.023 5.176,10.276 -2.543,10.299 z m -2.145,-0.035 c 7.717,0.125 -5.078,-10.23 2.641,-10.253 l 2.572,-0.008 c -7.718,0.023 5.176,10.276 -2.542,10.299 z m -2.146,-0.035 c 7.718,0.126 -4.977,-10.373 2.74,-10.248 l 2.474,0.029 c -7.718,0.022 5.076,10.386 -2.641,10.261 z m -2.145,-0.035 c 7.717,0.126 -4.978,-10.373 2.74,-10.248 l 2.572,0.042 c -7.717,-0.125 4.978,10.373 -2.739,10.248 z m -2.145,-0.034 c 7.717,0.125 -4.978,-10.374 2.739,-10.248 l 2.573,0.041 c -7.718,-0.125 4.978,10.374 -2.74,10.248 z m -2.145,-0.035 c 7.717,0.125 -4.978,-10.373 2.739,-10.248 l 2.572,0.042 c -7.717,-0.126 4.978,10.373 -2.739,10.248 z m -2.146,-0.035 c 7.718,0.125 -4.978,-10.373 2.74,-10.248 l 2.572,0.042 c -7.717,-0.126 4.978,10.373 -2.739,10.248 z m -2.145,-0.035 c 7.717,0.125 -4.978,-10.373 2.739,-10.248 l 2.573,0.042 c -7.718,-0.125 4.978,10.373 -2.74,10.248 z m -2.145,-0.035 c 7.717,0.126 -4.978,-10.373 2.739,-10.248 l 2.572,0.042 c -7.717,-0.125 4.978,10.373 -2.739,10.248 z m -2.146,-0.034 c 7.718,0.125 -4.978,-10.374 2.74,-10.248 l 2.572,0.041 c -7.717,-0.125 4.978,10.374 -2.739,10.248 z m -2.145,-0.035 c 7.717,0.125 -4.978,-10.374 2.739,-10.248 l 2.573,0.041 c -7.717,-0.125 4.978,10.374 -2.74,10.248 z m -2.145,-0.035 c 7.717,0.125 -4.978,-10.373 2.739,-10.248 l 2.573,0.042 c -7.718,-0.126 4.977,10.373 -2.74,10.248 z m -2.146,-0.035 c 7.718,0.125 -4.978,-10.373 2.74,-10.248 l 2.572,0.042 c -7.717,-0.125 4.978,10.373 -2.739,10.248 z m -2.145,-0.035 c 7.717,0.126 -4.978,-10.373 2.739,-10.248 l 2.573,0.042 c -7.717,-0.125 4.978,10.373 -2.74,10.248 z m -2.24,-0.071 c 7.714,0.268 -4.883,-10.337 2.834,-10.212 l 2.573,0.042 c -7.718,-0.125 4.977,10.373 -2.74,10.248 z m -2.144,-0.075 c 7.714,0.269 -4.785,-10.463 2.929,-10.195 l 2.476,0.065 c -7.717,-0.125 4.88,10.488 -2.834,10.22 z m -2.144,-0.074 c 7.713,0.268 -4.785,-10.464 2.928,-10.196 l 2.572,0.09 c -7.714,-0.269 4.784,10.463 -2.929,10.195 z m -2.145,-0.075 c 7.714,0.268 -4.784,-10.464 2.929,-10.195 l 2.571,0.089 c -7.713,-0.268 4.785,10.464 -2.928,10.196 z m -2.144,-0.074 c 7.714,0.268 -4.785,-10.464 2.929,-10.196 l 2.571,0.09 c -7.714,-0.269 4.785,10.463 -2.929,10.195 z m -2.144,-0.075 c 7.713,0.268 -4.785,-10.464 2.929,-10.195 l 2.571,0.089 c -7.714,-0.268 4.785,10.464 -2.929,10.195 z m -2.145,-0.075 c 7.714,0.269 -4.784,-10.463 2.929,-10.195 l 2.572,0.089 c -7.714,-0.268 4.784,10.464 -2.929,10.196 z m -2.144,-0.074 c 7.714,0.268 -4.785,-10.464 2.929,-10.196 l 2.571,0.09 c -7.713,-0.268 4.785,10.464 -2.929,10.195 z m -2.144,-0.075 c 7.713,0.269 -4.785,-10.463 2.929,-10.195 l 2.571,0.089 c -7.714,-0.268 4.785,10.464 -2.929,10.196 z m -2.145,-0.074 c 7.714,0.268 -4.784,-10.464 2.929,-10.196 l 2.572,0.09 c -7.714,-0.269 4.784,10.463 -2.929,10.195 z m -2.144,-0.075 c 7.714,0.268 -4.785,-10.464 2.929,-10.195 l 2.571,0.089 c -7.713,-0.268 4.785,10.464 -2.929,10.196 z m -2.144,-0.074 c 7.714,0.268 -4.785,-10.464 2.929,-10.196 l 2.571,0.09 c -7.714,-0.269 4.785,10.463 -2.929,10.195 z m -2.144,-0.075 c 7.713,0.268 -4.785,-10.464 2.928,-10.195 l 2.572,0.089 c -7.714,-0.268 4.784,10.464 -2.929,10.195 z m -2.239,-0.103 c 7.708,0.411 -4.691,-10.435 3.023,-10.167 l 2.571,0.089 c -7.713,-0.268 4.785,10.464 -2.929,10.196 z m -2.142,-0.114 c 7.707,0.411 -4.591,-10.551 3.117,-10.14 l 2.475,0.102 c -7.714,-0.268 4.684,10.586 -3.023,10.175 z m -2.143,-0.114 c 7.707,0.411 -4.59,-10.551 3.117,-10.14 l 2.569,0.137 c -7.707,-0.411 4.591,10.551 -3.117,10.14 z m -2.143,-0.115 c 7.708,0.411 -4.59,-10.55 3.118,-10.139 l 2.569,0.137 c -7.708,-0.411 4.59,10.55 -3.117,10.139 z m -2.142,-0.114 c 7.707,0.411 -4.59,-10.55 3.117,-10.139 l 2.569,0.137 c -7.707,-0.411 4.59,10.55 -3.117,10.139 z m -2.143,-0.114 c 7.708,0.411 -4.59,-10.551 3.117,-10.14 l 2.57,0.137 c -7.708,-0.411 4.59,10.551 -3.118,10.14 z m -2.142,-0.114 c 7.707,0.411 -4.59,-10.551 3.117,-10.14 l 2.569,0.137 c -7.707,-0.411 4.59,10.551 -3.117,10.14 z m -2.143,-0.115 c 7.708,0.411 -4.59,-10.55 3.117,-10.139 l 2.57,0.137 c -7.708,-0.411 4.59,10.55 -3.118,10.139 z m -2.142,-0.114 c 7.707,0.411 -4.591,-10.55 3.117,-10.139 l 2.569,0.137 c -7.707,-0.411 4.59,10.55 -3.117,10.139 z m -2.143,-0.114 c 7.708,0.411 -4.59,-10.551 3.117,-10.14 l 2.569,0.137 c -7.707,-0.411 4.591,10.551 -3.117,10.14 z m -2.142,-0.114 c 7.707,0.411 -4.591,-10.551 3.117,-10.14 l 2.569,0.137 c -7.708,-0.411 4.59,10.551 -3.117,10.14 z m -2.143,-0.115 c 7.707,0.411 -4.59,-10.55 3.117,-10.139 l 2.569,0.137 c -7.707,-0.411 4.591,10.55 -3.117,10.139 z m -2.143,-0.114 c 7.708,0.411 -4.59,-10.55 3.118,-10.139 l 2.569,0.137 c -7.708,-0.411 4.59,10.55 -3.117,10.139 z m -2.239,-0.14 c 7.698,0.559 -4.4933,-10.525 3.214,-10.114 l 2.569,0.137 c -7.707,-0.411 4.59,10.551 -3.117,10.14 z m -2.14,-0.155 c 7.698,0.558 -4.3878,-10.636 3.31,-10.078 l 2.471,0.142 c -7.7078,-0.411 4.483,10.68 -3.215,10.122 z m -2.1399,-0.155 c 7.6979,0.558 -4.3879,-10.636 3.3099,-10.078 l 2.566,0.186 c -7.6978,-0.558 4.388,10.636 -3.31,10.078 z m -2.14,-0.155 c 7.6979,0.558 -4.3879,-10.636 3.3099,-10.078 l 2.566,0.186 c -7.6977,-0.558 4.388,10.636 -3.3099,10.078 z m -2.14,-0.155 c 7.6979,0.558 -4.3878,-10.637 3.3103,-10.078 l 2.5656,0.186 c -7.6977,-0.559 4.388,10.636 -3.3099,10.078 z m -2.14,-0.155 c 7.6979,0.558 -4.3878,-10.637 3.3103,-10.079 l 2.566,0.186 c -7.6981,-0.558 4.3876,10.637 -3.3102,10.079 z m -2.1399,-0.156 c 7.6981,0.559 -4.3879,-10.636 3.3102,-10.078 l 2.566,0.186 c -7.6981,-0.558 4.3876,10.637 -3.3102,10.078 z m -2.14,-0.155 c 7.6981,0.558 -4.3879,-10.636 3.3102,-10.078 l 2.5661,0.186 c -7.6982,-0.558 4.3878,10.636 -3.3103,10.078 z m -2.14,-0.155 c 7.6981,0.558 -4.3879,-10.636 3.3102,-10.078 l 2.5661,0.186 c -7.6981,-0.558 4.3878,10.636 -3.3103,10.078 z m -2.14,-0.155 c 7.6981,0.558 -4.3878,-10.636 3.3103,-10.078 l 2.566,0.186 c -7.6981,-0.558 4.3879,10.636 -3.3103,10.078 z m -2.14,-0.155 c 7.6982,0.558 -4.3878,-10.637 3.3103,-10.078 l 2.566,0.186 c -7.6981,-0.558 4.3879,10.636 -3.3102,10.078 z m -2.1399,-0.155 c 7.6981,0.558 -4.3879,-10.637 3.3102,-10.079 l 2.566,0.187 c -7.6981,-0.559 4.3879,10.636 -3.3102,10.078 z m -2.14,-0.156 c 7.6981,0.559 -4.3879,-10.636 3.3102,-10.078 l 2.5661,0.186 c -7.6981,-0.558 4.3878,10.637 -3.3103,10.078 z m -2.216,-0.18 c 7.6889,0.674 -4.3119,-10.611 3.3862,-10.053 l 2.5661,0.186 c -7.6981,-0.558 4.3878,10.636 -3.3103,10.078 z m -2.1374,-0.188 c 7.6889,0.675 -4.2267,-10.701 3.4622,-10.027 l 2.4875,0.193 c -7.6981,-0.558 4.3022,10.733 -3.3867,10.059 z m -2.1374,-0.187 c 7.6889,0.674 -4.2267,-10.702 3.4622,-10.027 l 2.563,0.224 c -7.6889,-0.674 4.2266,10.702 -3.4622,10.028 z m -2.1374,-0.188 c 7.6889,0.675 -4.2267,-10.701 3.4622,-10.027 l 2.563,0.225 c -7.6889,-0.674 4.2266,10.701 -3.4623,10.027 z m -2.1374,-0.187 c 7.6889,0.674 -4.2267,-10.702 3.4622,-10.027 l 2.5629,0.224 c -7.6889,-0.674 4.2267,10.702 -3.4622,10.028 z m -2.1374,-0.188 c 7.6888,0.675 -4.2267,-10.701 3.4622,-10.027 l 2.5629,0.225 c -7.6889,-0.674 4.2267,10.702 -3.4622,10.027 z m -2.1914,-0.199 c 7.6813,0.756 -4.1727,-10.69 3.5161,-10.015 l 2.563,0.225 c -7.6889,-0.675 4.2267,10.701 -3.4622,10.027 z m -2.1353,-0.211 c 7.6813,0.757 -4.1125,-10.745 3.5688,-9.989 l 2.5082,0.222 c -7.6889,-0.674 4.1647,10.776 -3.5165,10.02 z m -2.1353,-0.21 c 7.6813,0.757 -4.1125,-10.746 3.5688,-9.989 l 2.5061,0.245 c -7.6889,-0.675 4.1668,10.753 -3.5144,9.996 z M 56.52,205.43 c 7.6813,0.756 -4.1125,-10.746 3.5688,-9.99 l 2.5604,0.252 c -7.6812,-0.756 4.1125,10.746 -3.5687,9.99 z m -2.1352,-0.21 c 7.6812,0.756 -4.1125,-10.746 3.5687,-9.99 l 2.5604,0.252 c -7.6812,-0.756 4.1125,10.746 -3.5687,9.99 z m -2.1353,-0.21 c 7.6812,0.756 -4.1125,-10.746 3.5687,-9.99 l 2.5604,0.252 c -7.6812,-0.756 4.1125,10.746 -3.5687,9.99 z m -2.1925,-0.22 c 7.6722,0.843 -4.0553,-10.737 3.6259,-9.98 l 2.5604,0.252 c -7.6812,-0.756 4.1125,10.746 -3.5687,9.989 z m -2.1328,-0.234 c 7.6723,0.843 -4.0578,-10.713 3.6234,-9.957 l 2.5605,0.253 c -7.6813,-0.757 4.1125,10.745 -3.5688,9.989 z m -2.1328,-0.234 c 7.6723,0.842 -3.9915,-10.792 3.6808,-9.949 l 2.5006,0.268 c -7.6813,-0.756 4.0483,10.804 -3.624,9.962 z m -2.1328,-0.234 c 7.6723,0.842 -3.9915,-10.792 3.6808,-9.949 l 2.5574,0.281 c -7.6723,-0.843 3.9915,10.791 -3.6808,9.948 z m -2.1328,-0.235 c 7.6723,0.843 -3.9915,-10.791 3.6808,-9.949 l 2.5574,0.281 c -7.6723,-0.842 3.9915,10.792 -3.6808,9.949 z m -2.1328,-0.234 c 7.6723,0.843 -3.9915,-10.791 3.6808,-9.949 l 2.5574,0.281 c -7.6723,-0.842 3.9915,10.792 -3.6808,9.949 z m -2.1938,-0.243 c 7.6617,0.934 -3.9305,-10.783 3.7418,-9.94 l 2.5574,0.281 c -7.6723,-0.843 3.9915,10.791 -3.6808,9.949 z m -2.1298,-0.26 c 7.6616,0.934 -3.9335,-10.757 3.7388,-9.914 l 2.5574,0.281 c -7.6723,-0.843 3.9915,10.791 -3.6808,9.949 z m -2.1298,-0.26 c 7.6616,0.934 -3.862,-10.838 3.7996,-9.904 l 2.4936,0.296 c -7.6723,-0.842 3.9223,10.854 -3.7394,9.92 z m -2.1299,-0.26 c 7.6617,0.935 -3.862,-10.838 3.7997,-9.904 l 2.5539,0.312 c -7.6617,-0.935 3.8619,10.838 -3.7997,9.904 z m -2.1298,-0.259 c 7.6616,0.934 -3.862,-10.839 3.7996,-9.904 l 2.5539,0.311 c -7.6616,-0.934 3.862,10.838 -3.7996,9.904 z m -2.1299,-0.26 c 7.6617,0.934 -3.8619,-10.839 3.7997,-9.904 l 2.5539,0.311 c -7.6617,-0.934 3.862,10.839 -3.7997,9.904 z m -2.1948,-0.274 c 7.649,1.033 -3.797,-10.824 3.8647,-9.89 l 2.5538,0.311 c -7.6616,-0.934 3.862,10.839 -3.7996,9.905 z m -2.1263,-0.287 c 7.649,1.033 -3.7221,-10.887 3.9268,-9.854 l 2.4882,0.303 c -7.6616,-0.935 3.7836,10.928 -3.8654,9.895 z m -2.1263,-0.287 c 7.6489,1.033 -3.7221,-10.887 3.9268,-9.854 l 2.4847,0.33 c -7.6617,-0.934 3.7871,10.901 -3.8619,9.868 z m -2.1263,-0.287 c 7.6489,1.033 -3.7222,-10.887 3.9268,-9.854 l 2.5497,0.344 c -7.649,-1.033 3.7221,10.887 -3.9269,9.854 z m -2.1264,-0.287 c 7.649,1.033 -3.7221,-10.888 3.9269,-9.855 l 2.5496,0.345 c -7.6489,-1.033 3.7222,10.887 -3.9268,9.854 z m -2.1263,-0.287 c 7.649,1.032 -3.7221,-10.888 3.9269,-9.855 l 2.5496,0.345 c -7.6489,-1.033 3.7221,10.887 -3.9268,9.854 z m -2.1955,-0.312 c 7.6338,1.14 -3.65291,-10.863 3.9961,-9.83 l 2.5496,0.344 c -7.649,-1.032 3.7221,10.888 -3.9268,9.855 z m -2.12209,-0.317 c 7.63379,1.14 -3.56951,-10.938 4.06429,-9.798 l 2.4772,0.342 c -7.64897,-1.033 3.6369,10.976 -3.9969,9.836 z m -2.12209,-0.317 c 7.63378,1.14 -3.56952,-10.938 4.06428,-9.798 l 2.5446,0.38 c -7.63381,-1.14 3.5695,10.938 -4.0643,9.798 z m -2.12209,-0.316 c 7.63377,1.139 -3.56952,-10.939 4.06424,-9.799 l 2.54463,0.38 c -7.6338,-1.14 3.5695,10.938 -4.06429,9.799 z m -2.12209,-0.317 c 7.63376,1.139 -3.569516,-10.938 4.06424,-9.799 l 2.54459,0.38 c -7.63376,-1.14 3.56953,10.938 -4.06425,9.799 z m -2.122094,-0.317 c 7.633764,1.14 -3.569516,-10.938 4.064244,-9.799 l 2.54459,0.38 c -7.633764,-1.139 3.56952,10.939 -4.06425,9.799 z m -2.195236,-0.36 c 7.61536,1.257 -3.49637,-10.895 4.13739,-9.755 l 2.54459,0.38 c -7.63376,-1.14 3.56951,10.938 -4.06425,9.798 z m -2.11698,-0.349 c 7.61537,1.256 -3.40127,-10.992 4.214091,-9.735 L 3.2823,188.42 c -7.63377,-1.14 3.47695,11.018 -4.138421,9.762 z m -2.11698,-0.35 c 7.61537,1.257 -3.40126,-10.991 4.2141,-9.735 l 2.53845,0.419 c -7.61536,-1.256 3.40127,10.992 -4.2141,9.735 z m -2.11697,-0.349 c 7.6153659,1.257 -3.40128,-10.992 4.21409,-9.735 l 2.538459,0.419 c -7.615369,-1.257 3.401261,10.992 -4.214099,9.735 z m -2.11698,-0.349 c 7.61537,1.256 -3.4013,-10.992 4.21409,-9.735 l 2.53846,0.419 c -7.61535,-1.257 3.401269,10.991 -4.2141,9.735 z m -2.1994,-0.387 c 7.59285,1.386 -3.3188,-10.954 4.29652,-9.698 l 2.53846,0.419 c -7.61538,-1.256 3.40126,10.992 -4.2141,9.735 z m -2.1107,-0.385 c 7.59284,1.386 -3.2137,-11.048 4.37914,-9.662 l 2.44956,0.419 c -7.6154,-1.257 3.29508,11.091 -4.2978,9.705 z m -2.1107,-0.386 c 7.59282,1.387 -3.2137,-11.048 4.3791,-9.661 l 2.53098,0.462 c -7.59288,-1.386 3.21368,11.048 -4.37918,9.661 z m -2.1108,-0.385 c 7.5929,1.386 -3.2136,-11.048 4.3792,-9.662 l 2.531,0.462 c -7.5929,-1.386 3.21365,11.048 -4.3792,9.662 z m -2.1107,-0.385 c 7.5929,1.386 -3.2137,-11.048 4.3792,-9.662 l 2.5309,0.462 c -7.5928,-1.386 3.2137,11.048 -4.3791,9.662 z m -2.2033,-0.425 c 7.565,1.531 -3.1211,-11.009 4.4718,-9.622 l 2.5309,0.462 c -7.5928,-1.386 3.2137,11.048 -4.3791,9.661 z m -2.1029,-0.425 c 7.5649,1.531 -3.0021,-11.107 4.5629,-9.577 l 2.432,0.456 c -7.5928,-1.386 3.0917,11.162 -4.4733,9.631 z m -2.103,-0.426 c 7.565,1.531 -3.002,-11.107 4.5629,-9.576 l 2.5217,0.51 c -7.565,-1.531 3.002,11.107 -4.563,9.577 z m -2.103,-0.425 c 7.565,1.531 -3.002,-11.108 4.5629,-9.577 l 2.5217,0.511 c -7.565,-1.531 3.002,11.107 -4.5629,9.576 z m -2.1029,-0.426 c 7.5649,1.531 -3.0021,-11.107 4.5629,-9.576 l 2.5216,0.51 c -7.5649,-1.531 3.0021,11.107 -4.5629,9.576 z m -2.2061,-0.478 c 7.5299,1.695 -2.8989,-11.055 4.666,-9.524 l 2.5217,0.51 c -7.565,-1.53 3.002,11.108 -4.563,9.577 z m -2.0932,-0.471 c 7.5299,1.695 -2.7601,-11.17 4.7698,-9.475 l 2.4081,0.507 c -7.5649,-1.531 2.862,11.228 -4.6679,9.533 z m -2.0932,-0.471 c 7.5299,1.695 -2.7601,-11.17 4.7698,-9.475 l 2.5099,0.565 c -7.5299,-1.695 2.7601,11.17 -4.7698,9.475 z m -2.0932,-0.471 c 7.5299,1.695 -2.7601,-11.17 4.7697,-9.475 l 2.51,0.565 c -7.5299,-1.695 2.7601,11.17 -4.7698,9.475 z m -2.2183,-0.502 c 7.485,1.883 -2.6351,-11.139 4.8948,-9.444 l 2.51,0.565 c -7.5299,-1.695 2.7601,11.169 -4.7698,9.475 z m -2.0808,-0.523 c 7.4851,1.882 -2.6475,-11.087 4.8824,-9.392 l 2.51,0.564 c -7.5299,-1.694 2.7601,11.17 -4.7698,9.475 z m -2.0807,-0.524 c 7.485,1.883 -2.4797,-11.235 5.0053,-9.352 l 2.3746,0.577 c -7.5299,-1.695 2.6001,11.286 -4.8849,9.403 z m -2.0808,-0.523 c 7.4851,1.883 -2.4797,-11.235 5.0054,-9.353 l 2.495,0.628 c -7.4851,-1.883 2.4797,11.235 -5.0054,9.352 z m -2.0807,-0.524 c 7.485,1.883 -2.4797,-11.235 5.0053,-9.352 l 2.495,0.628 c -7.485,-1.883 2.4797,11.235 -5.0053,9.352 z m -2.2156,-0.602 c 7.4266,2.101 -2.3449,-11.156 5.1402,-9.273 l 2.495,0.627 c -7.4851,-1.883 2.4797,11.235 -5.0054,9.353 z m -2.0645,-0.584 c 7.4266,2.101 -2.1496,-11.303 5.277,-9.202 l 2.3419,0.617 c -7.485,-1.883 2.2832,11.386 -5.1434,9.285 z m -2.0645,-0.584 c 7.4266,2.101 -2.1496,-11.303 5.277,-9.202 l 2.4755,0.7 c -7.4266,-2.101 2.1496,11.303 -5.277,9.202 z m -2.0645,-0.584 c 7.4266,2.101 -2.1496,-11.303 5.277,-9.202 l 2.4755,0.7 c -7.4266,-2.101 2.1496,11.303 -5.277,9.202 z m -2.2234,-0.679 c 7.3487,2.359 -1.9907,-11.208 5.4359,-9.107 l 2.4755,0.7 c -7.4266,-2.101 2.1496,11.303 -5.277,9.202 z m -2.0429,-0.655 c 7.3488,2.358 -1.7543,-11.371 5.5944,-9.012 l 2.2954,0.676 c -7.4266,-2.101 1.9085,11.481 -5.4402,9.122 z m -2.0428,-0.656 c 7.3487,2.359 -1.7544,-11.371 5.5944,-9.012 l 2.4496,0.786 c -7.3488,-2.359 1.7543,11.371 -5.5945,9.012 z m -2.0429,-0.656 c 7.3487,2.359 -1.7543,-11.37 5.5944,-9.012 l 2.4496,0.786 c -7.3487,-2.358 1.7543,11.371 -5.5944,9.013 z m -2.176,-0.757 c 7.2728,2.584 -1.6212,-11.269 5.7276,-8.91 l 2.4496,0.786 c -7.3488,-2.359 1.7543,11.371 -5.5945,9.012 z m -2.1341,-0.762 c 7.2103,2.753 -1.2905,-11.377 5.9823,-8.792 l 2.2861,0.774 c -7.3487,-2.359 1.541,11.507 -5.7318,8.923 z m -2.0043,-0.766 c 7.2102,2.754 -1.3079,-11.329 5.9648,-8.745 l 2.4243,0.862 c -7.2728,-2.585 1.4028,11.42 -5.87,8.835 z m -2.1221,-0.833 c 7.1357,2.941 -1.0172,-11.382 6.193,-8.628 l 2.2965,0.859 c -7.2728,-2.584 1.2419,11.508 -5.9684,8.754 z m -1.9837,-0.818 c 7.1357,2.941 -0.8352,-11.475 6.3005,-8.534 l 2.2753,0.876 c -7.2103,-2.754 0.9385,11.58 -6.1972,8.638 z m -2.1041,-0.92 c 7.0462,3.15 -0.7147,-11.373 6.421,-8.432 l 2.2545,0.929 c -7.2102,-2.754 0.9593,11.527 -6.1765,8.586 z m -2.1074,-0.961 c 6.9377,3.382 -0.3492,-11.41 6.697,-8.26 l 2.2263,0.952 c -7.1357,-2.941 0.6203,11.593 -6.426,8.443 z m -1.9286,-0.94 c 6.9377,3.382 -0.1161,-11.505 6.8216,-8.123 l 2.1939,0.977 c -7.0462,-3.149 0.2348,11.655 -6.7029,8.273 z m -2.074,-1.083 c 6.805,3.641 0.0293,-11.362 6.967,-7.98 l 2.1638,1.042 c -7.0462,-3.15 0.2649,11.59 -6.6728,8.208 z m -2.0684,-1.152 c 6.6409,3.932 0.4953,-11.361 7.3002,-7.72 l 2.1192,1.079 c -6.9377,-3.382 -0.1694,11.636 -6.9744,7.995 z m -2.0588,-1.238 c 6.4362,4.259 1.0285,-11.331 7.6694,-7.399 l 2.0662,1.119 c -6.8049,-3.641 -0.6684,11.668 -7.3093,7.736 z m -1.7891,-1.183 c 6.4361,4.258 0.9716,-11.241 7.6124,-7.309 l 2.0206,1.2 c -6.8049,-3.642 -0.6228,11.587 -7.2636,7.654 z m -1.9701,-1.445 c 6.1783,4.624 1.5684,-11.16 8.0045,-6.901 l 1.9456,1.255 c -6.6409,-3.933 -1.1877,11.585 -7.6238,7.326 z m -2.0019,-1.641 c 5.7573,5.14 2.3311,-10.965 8.5094,-6.341 l 1.8532,1.316 c -6.4361,-4.258 -1.8404,11.546 -8.0188,6.922 z m -1.8533,-1.779 c 5.3137,5.597 3.268,-10.753 9.0253,-5.613 l 1.6794,1.307 c -6.1784,-4.624 -2.7755,11.51 -8.5328,6.37 z m -1.7301,-1.997 c 4.7477,6.084 3.7835,-10.3 9.3326,-4.936 l 1.6086,1.47 c -5.9415,-4.926 -3.2116,11.293 -8.7607,5.928 z m -1.54,-2.247 c 4.0329,6.58 5.1676,-9.831 9.9153,-3.747 l 1.2644,1.355 c -5.5491,-5.365 -4.6292,11.06 -9.3769,4.976 z m -1.376,-2.857 c 2.6414,7.25 6.3403,-8.735 10.3728,-2.155 l 1.0305,1.391 c -5.0477,-5.838 -5.7712,10.565 -9.8033,3.986 z m -0.779,-2.816 c 1.514,7.567 7.3193,-7.693 10.4674,-0.647 l 0.7481,1.417 c -4.4104,-6.333 -6.994,9.826 -10.1425,2.78 z m -0.217,-3.372 c -0.339,7.709 8.8742,-5.795 10.3889,1.771 l 0.4698,1.344 c -3.1482,-7.046 -9.0437,8.242 -10.5587,0.676 z m 0.511,-3.305 c -2.121,7.419 10.0875,-3.526 9.7488,4.183 l 0.129,0.923 c -2.0951,-7.427 -10.7468,6.334 -10.4078,-1.375 z m 0.966,-2.701 c -3.144,7.047 10.4784,-1.992 8.9253,5.566 l -0.1268,1.328 c -0.2867,-7.711 -11.5045,4.16 -9.9515,-3.398 z m 1.314,-2.456 c -3.998,6.6 11.0534,-0.008 7.9087,7.039 l -0.3834,1.402 c 1.5532,-7.559 -12.1573,1.452 -9.0133,-5.595 z m 1.5553,-2.208 c -4.6883,6.13 11.0234,1.305 7.0246,7.905 l -0.6904,1.414 c 2.6533,-7.247 -12.1095,-0.145 -8.1105,-6.746 z m 1.712,-1.985 c -5.2353,5.671 10.8907,2.445 6.2021,8.576 l -0.9544,1.411 c 3.5932,-6.83 -11.908,-1.533 -7.2192,-7.663 z m 1.811,-1.796 c -5.6663,5.24 10.6954,3.42 5.4599,9.091 l -1.3283,1.62 c 4.6886,-6.13 -11.4679,-2.93 -6.2324,-8.601 z m 1.9349,-1.691 c -6.0787,4.755 10.4048,4.296 4.7385,9.536 l -1.3516,1.389 c 4.9783,-5.898 -11.3021,-3.704 -5.6354,-8.944 z m 1.6897,-1.322 c -6.0786,4.755 10.3594,4.509 4.5132,9.548 l -1.6303,1.473 c 5.4638,-5.451 -10.9345,-4.229 -5.0883,-9.268 z m 1.9684,-1.424 c -6.3329,4.411 10.1134,5.038 4.0348,9.792 l -1.8136,1.459 c 5.8462,-5.039 -10.6046,-4.809 -4.526,-9.564 z m 1.9265,-1.316 c -6.4901,4.178 9.9371,5.593 3.6042,10.004 l -1.8323,1.367 c 6.0786,-4.754 -10.3818,-5.4 -4.0489,-9.811 z m 1.8041,-1.161 c -6.49,4.177 9.8966,5.869 3.4066,10.046 l -1.957,1.363 c 6.3329,-4.411 -10.103,-5.839 -3.6129,-10.016 z m 1.8042,-1.161 c -6.4901,4.177 9.8966,5.868 3.4066,10.046 l -2.0008,1.298 c 6.3329,-4.411 -10.0592,-5.774 -3.5691,-9.952 z m 1.8042,-1.161 c -6.4901,4.177 9.8966,5.868 3.4065,10.045 l -2.1634,1.393 c 6.4901,-4.178 -9.8965,-5.869 -3.4065,-10.046 z m 1.8041,-1.162 c -6.49,4.178 9.8966,5.869 3.4066,10.046 l -2.1634,1.393 c 6.4901,-4.178 -9.8966,-5.869 -3.4065,-10.046 z m 1.8042,-1.161 c -6.4901,4.177 9.8966,5.868 3.4065,10.046 l -2.1633,1.392 c 6.49,-4.177 -9.8966,-5.868 -3.4066,-10.046 z m 1.926,-1.214 c -6.5943,4.011 9.7747,5.921 3.2847,10.099 l -2.1634,1.392 c 6.4901,-4.177 -9.8966,-5.868 -3.4065,-10.046 z m 1.8332,-1.114 c -6.5943,4.01 9.7438,6.118 3.1495,10.129 l -2.0572,1.315 c 6.49,-4.178 -9.8847,-6.097 -3.2904,-10.108 z m 1.8331,-1.115 c -6.5943,4.01 9.7439,6.118 3.1495,10.129 l -2.0862,1.269 c 6.4901,-4.178 -9.8557,-6.051 -3.2614,-10.061 z m 1.8332,-1.115 c -6.5944,4.01 9.7438,6.118 3.1495,10.129 l -2.1981,1.337 c 6.5943,-4.011 -9.7439,-6.119 -3.1495,-10.129 z m 1.8331,-1.115 c -6.5943,4.01 9.7438,6.118 3.1495,10.129 l -2.1981,1.337 c 6.5943,-4.011 -9.7438,-6.119 -3.1495,-10.129 z m 1.8331,-1.115 c -6.5943,4.011 9.7439,6.118 3.1496,10.129 l -2.1981,1.337 c 6.5943,-4.011 -9.7439,-6.119 -3.1496,-10.129 z m 1.9874,-1.14 c -6.705,3.823 9.5896,6.144 2.9953,10.154 l -2.1981,1.337 c 6.5943,-4.011 -9.7438,-6.118 -3.1495,-10.129 z m 1.8639,-1.062 c -6.705,3.822 9.567,6.391 2.8621,10.214 l -2.0957,1.224 c 6.5944,-4.01 -9.7063,-6.341 -3.0014,-10.164 z m 1.8639,-1.063 c -6.705,3.823 9.567,6.391 2.8621,10.214 l -2.235,1.274 c 6.7049,-3.822 -9.5671,-6.391 -2.8621,-10.214 z m 1.8639,-1.063 c -6.705,3.823 9.567,6.392 2.8621,10.214 l -2.235,1.275 c 6.7049,-3.823 -9.5671,-6.392 -2.8621,-10.214 z m 1.8639,-1.062 c -6.705,3.822 9.567,6.391 2.862,10.214 l -2.2349,1.274 c 6.7049,-3.823 -9.5671,-6.391 -2.8621,-10.214 z m 2.0351,-1.087 c -6.8215,3.611 9.3958,6.415 2.6908,10.238 l -2.2349,1.274 c 6.7049,-3.822 -9.5671,-6.391 -2.8621,-10.214 z m 1.8963,-1.003 c -6.8215,3.61 9.3618,6.688 2.5403,10.299 l -2.1169,1.154 c 6.705,-3.823 -9.5187,-6.639 -2.6972,-10.25 z m 1.8963,-1.004 c -6.8215,3.611 9.3618,6.688 2.5403,10.299 l -2.2738,1.203 c 6.8215,-3.61 -9.3618,-6.688 -2.5403,-10.298 z m 1.8963,-1.004 c -6.8215,3.611 9.3618,6.689 2.5403,10.299 l -2.2739,1.204 c 6.8215,-3.611 -9.3617,-6.689 -2.5402,-10.299 z m 2.0219,-1.05 c -6.9128,3.433 9.2362,6.735 2.4147,10.346 l -2.2739,1.203 c 6.8215,-3.611 -9.3617,-6.688 -2.5402,-10.299 z m 1.9216,-0.954 c -6.9128,3.433 9.186,6.928 2.2732,10.361 l -2.1577,1.138 c 6.8215,-3.61 -9.3325,-6.922 -2.4197,-10.355 z m 2.0086,-0.992 c -6.9747,3.305 9.0991,6.966 2.1863,10.399 l -2.1831,1.089 c 6.8215,-3.611 -9.3071,-6.873 -2.3943,-10.306 z m 1.9389,-0.919 c -6.9747,3.305 9.0819,6.93 2.1691,10.363 l -2.3043,1.145 c 6.9128,-3.433 -9.186,-6.929 -2.2732,-10.362 z m 2.0296,-0.96 c -7.0374,3.17 8.9664,7.137 1.9917,10.442 l -2.2348,1.071 c 6.9128,-3.433 -9.1472,-7.065 -2.1725,-10.37 z m 1.9563,-0.881 c -7.0374,3.169 8.949,7.099 1.9743,10.405 l -2.3249,1.101 c 6.9747,-3.305 -9.0571,-7.096 -2.0825,-10.401 z m 2.0526,-0.923 c -7.1006,3.025 8.8217,7.311 1.7844,10.481 l -2.2487,1.029 c 6.9747,-3.305 -9.0152,-7.242 -1.9778,-10.412 z m 1.9739,-0.841 c -7.1006,3.025 8.8041,7.271 1.7668,10.441 l -2.3458,1.057 c 7.0373,-3.17 -8.9181,-7.27 -1.8807,-10.44 z m 2.0775,-0.88 c -7.1639,2.872 8.6642,7.489 1.5637,10.515 l -2.2639,0.981 c 7.0373,-3.169 -8.8709,-7.423 -1.7703,-10.449 z m 1.9915,-0.799 c -7.1639,2.873 8.6466,7.447 1.546,10.472 l -2.3668,1.009 c 7.1005,-3.026 -8.7679,-7.45 -1.6673,-10.476 z m 2.1042,-0.829 c -7.227,2.709 8.493,7.668 1.3291,10.54 l -2.2803,0.929 c 7.1006,-3.026 -8.7134,-7.608 -1.5495,-10.481 z m 2.009,-0.753 c -7.227,2.709 8.4308,7.829 1.2038,10.539 l -2.2802,0.913 c 7.1639,-2.872 -8.5596,-7.84 -1.3326,-10.549 z m 2.1323,-0.7727 c -7.2894,2.5367 8.3076,7.8487 1.0806,10.5587 l -2.2978,0.868 c 7.1639,-2.873 -8.5421,-7.795 -1.3151,-10.504 z m 2.0264,-0.7052 c -7.2894,2.5369 8.2422,8.0279 0.9528,10.5649 l -2.2986,0.849 c 7.227,-2.71 -8.3734,-8.031 -1.084,-10.5683 z m 2.1614,-0.7066 c -7.3505,2.3545 8.1071,8.0295 0.8177,10.5665 l -2.4298,0.845 c 7.2894,-2.537 -8.2422,-8.028 -0.9528,-10.5645 z m 2.1748,-0.686 c -7.4097,2.1605 7.9076,8.2625 0.5571,10.6165 l -2.3176,0.776 c 7.2894,-2.537 -8.1716,-8.222 -0.8211,-10.5762 z m 2.0598,-0.6006 c -7.4097,2.1605 7.89115,8.2091 0.5407,10.5631 l -2.4502,0.785 c 7.3505,-2.354 -8.039,-8.232 -0.6886,-10.5856 z m 2.2051,-0.605 c -7.4661,1.9562 7.67513,8.4441 0.2655,10.6041 l -2.3368,0.694 c 7.35053,-2.354 -7.9536,-8.413 -0.5439,-10.5735 z m 2.2203,-0.574 c -7.5193,1.7411 7.44102,8.6811 -0.0251,10.6371 l -2.3398,0.661 c 7.40965,-2.161 -7.7347,-8.6596 -0.2686,-10.6158 z m 2.09021,-0.484 c -7.51921,1.7411 7.42631,8.6211 -0.03985,10.5771 l -2.48876,0.652 c 7.4662,-1.956 -7.5857,-8.6504 -0.1196,-10.6066 z m 2.24968,-0.4757 c -7.56799,1.5152 7.174856,8.8568 -0.34436,10.5978 l -2.3584,0.564 c 7.46617,-1.957 -7.48233,-8.8486 0.03693,-10.5897 z m 2.26472,-0.4325 c -7.61151,1.2786 6.9046,9.0923 -0.66336,10.6073 l -2.36188,0.519 c 7.5192239,-1.741 -7.22627,-9.0948 0.34167,-10.6099 z m 2.11589,-0.3555 c -7.61147,1.2787 6.77918,9.2958 -0.83228,10.5748 l -2.36583,0.472 c 7.56797,-1.516 -6.95049,-9.3419 0.66096,-10.6206 z m 2.2900525,-0.3158 C -7.71324,94.8574 6.54058,103.082 -1.07089,104.361 l -2.37792,0.405 c 7.56797,-1.515 -6.93839,-9.2754 0.67305,-10.554 z M 2.23806,93.5656 c -7.67897,0.776 6.29902,9.4834 -1.349762,10.5154 l -2.380458,0.35 c 7.61148,-1.278 -6.6444,-9.5164 1.004389,-10.5485 z M 4.5517,93.367 c -7.70109,0.5116 5.975,9.704 -1.70391,10.48 l -2.382825,0.291 C 8.11375,103.106 -5.8659,94.3846 1.81307,93.6086 Z m 2.32286,-0.1323 c -7.714312,0.2398 5.63404,9.9173 -2.06699,10.4283 l -2.38479,0.227 c 7.67892,-0.776 -5.99839,-9.9831 1.7027,-10.4947 z M 9.20414,93.1735 C 1.4862,93.1359 14.4817,103.294 6.7674,103.534 l -2.38606,0.158 C 12.0824,103.18 -1.2667,93.4878 6.44761,93.248 Z m 2.14546,0.0105 c -7.71791,-0.0377 5.2766,10.043 -2.43772,10.283 L 6.52214,103.55 C 14.2232,103.038 0.87778,93.4211 8.59209,93.1813 Z m 2.3314,0.0927 C 5.96957,92.9576 18.5902,103.51 10.8723,103.473 L 8.48492,103.48 C 16.1992,103.241 3.20454,93.1443 10.9225,93.1819 Z m 2.3283,0.1728 C 8.31491,92.8468 20.5401,103.86 12.8287,103.541 l -2.3836,-0.071 c 7.718,0.038 -4.90232,-10.5301 2.8091,-10.211 z m 2.3212,0.2555 c -7.6669,-0.8862 4.1438,10.573 -3.5506,9.97 l -2.378,-0.152 c 7.7114,0.319 -4.51284,-10.7095 3.1816,-10.1068 z m 2.3096,0.3397 c -7.6292,-1.1673 3.7515,10.7203 -3.9155,9.8343 l -2.3706,-0.237 c 7.6945,0.603 -4.1148,-10.8722 3.5522,-9.986 z m 2.2934,0.4244 c -7.5818,-1.4438 3.3572,10.8509 -4.272,9.6829 l -2.3612,-0.322 c 7.6669,0.886 -3.7117,-11.0172 3.9176,-9.8499 z m 2.2728,0.5083 c -7.5256,-1.7132 2.9644,10.9646 -4.6174,9.5206 l -2.3497,-0.41 c 7.6292,1.167 -3.3071,-11.1426 4.2747,-9.6989 z m 2.4123,0.642 c -7.3912,-2.2221 2.4125,11.0106 -5.113,9.2976 l -2.3363,-0.499 c 7.5818,1.444 -2.9051,-11.2486 4.6205,-9.5354 z m 2.2083,0.6787 c -7.3163,-2.4577 2.0447,11.0829 -5.4168,9.1089 l -2.321,-0.585 c 7.5255,1.713 -2.5095,-11.3367 4.9521,-9.3634 z m 2.175,0.7525 c -7.2385,-2.6786 1.6908,11.1404 -5.7005,8.9184 l -2.3043,-0.671 c 7.4616,1.973 -2.1241,-11.406 5.2672,-9.1838 z m 2.1971,0.8569 c -7.1206,-2.976 1.0693,11.3245 -6.1692,8.6465 l -2.1375,-0.708 c 7.3913,2.222 -1.5295,-11.6222 5.709,-8.9437 z m 1.9795,0.8273 c -7.1207,-2.976 0.779,11.4782 -6.3417,8.5022 l -2.0629,-0.773 c 7.3163,2.458 -1.0896,-11.6972 6.031,-8.7212 z m 2.1752,0.9933 c -6.9703,-3.3137 0.5832,11.3119 -6.5374,8.3359 l -2.3736,-0.992 c 7.1207,2.976 -0.779,-11.4779 6.3417,-8.5019 z m 2.1104,1.0099 c -6.8405,-3.5744 0.0559,11.414 -6.9144,8.1 L 31.4222,107.9 c 7.1206,2.976 -0.4245,-11.669 6.5457,-8.3553 z m 1.9016,0.994 c -6.8405,-3.5748 0.092,11.341 -6.8783,8.028 l -2.3234,-1.105 c 6.9703,3.314 -0.2287,-11.5028 6.7416,-8.189 z m 2.0114,1.078 c -6.7433,-3.7552 -0.3154,11.419 -7.1559,7.845 l -2.1196,-1.079 c 6.9703,3.314 0.045,-11.6166 6.8855,-8.042 z m 1.8745,1.044 c -6.7432,-3.755 -0.5113,11.494 -7.2546,7.739 l -2.1544,-1.136 c 6.8405,3.574 0.418,-11.61 7.1613,-7.855 z m 1.9318,1.106 c -6.6836,-3.86 -0.5686,11.432 -7.3118,7.677 l -2.1274,-1.187 c 6.8405,3.575 0.3909,-11.5591 7.1342,-7.804 z m 1.8579,1.074 c -6.6836,-3.861 -0.6916,11.485 -7.3751,7.624 l -2.1678,-1.229 c 6.7432,3.755 0.6315,-11.543 7.3151,-7.682 z m 1.858,1.073 c -6.6836,-3.861 -0.6916,11.485 -7.3752,7.624 l -2.2279,-1.286 c 6.6836,3.86 0.6916,-11.486 7.3752,-7.625 z m 1.8201,1.036 c -6.7217,-3.794 -0.6538,11.522 -7.3373,7.662 l -2.2279,-1.287 c 6.6836,3.86 0.6916,-11.485 7.3751,-7.625 z m 1.7601,0.989 c -6.8126,-3.627 -0.4686,11.557 -7.1903,7.763 l -2.2771,-1.304 c 6.6836,3.86 0.6136,-11.452 7.3353,-7.658 z m 1.8938,1.009 c -6.8126,-3.628 -0.4939,11.602 -7.2156,7.809 l -2.2405,-1.265 c 6.7217,3.794 0.577,-11.491 7.2987,-7.698 z m 1.739,0.878 c -6.9461,-3.364 -0.1402,11.632 -6.9527,8.005 l -2.3739,-1.284 c 6.7217,3.793 0.398,-11.427 7.2105,-7.8 z m 1.6894,0.821 c -7.1107,-2.999 0.3868,11.618 -6.5593,8.254 l -2.4599,-1.271 c 6.8126,3.627 -7e-4,-11.354 6.9453,-7.99 z m 1.9767,0.834 c -7.1107,-2.999 0.341,11.72 -6.6051,8.356 l -2.3153,-1.122 c 6.946,3.364 -0.1453,-11.504 6.8007,-8.14 z m 1.7712,0.695 c -7.2448,-2.661 0.9473,11.619 -6.1634,8.62 l -2.5973,-1.146 c 6.946,3.364 -0.5148,-11.334 6.596,-8.335 z m 1.6727,0.567 c -7.4208,-2.121 1.6226,11.607 -5.6221,8.945 l -2.6076,-1.058 c 7.1108,2.999 -1.0887,-11.263 6.156,-8.601 z m 1.8657,0.517 c -7.5009,-1.818 2.047,11.59 -5.2874,9.187 l -2.6014,-0.906 c 7.2447,2.662 -1.5293,-11.276 5.8052,-8.873 z m 1.8791,0.416 c -7.5718,-1.494 2.7838,11.302 -4.7171,9.484 l -2.8554,-0.846 c 7.3345,2.403 -2.2226,-10.972 5.2783,-9.155 z m 1.8902,0.313 c -7.6307,-1.156 3.2698,11.195 -4.3019,9.7 l -2.9194,-0.696 c 7.4209,2.12 -2.6597,-10.894 4.912,-9.399 z m 1.66,0.18 c -7.7048,-0.447 4.0071,11.086 -3.6236,9.93 L 67.1363,124.8 c 7.5718,1.494 -3.3321,-10.838 4.2987,-9.682 z m 2.1418,0.124 c -7.7048,-0.446 4.2737,10.897 -3.4019,10.092 l -2.7858,-0.349 c 7.6307,1.155 -3.8161,-10.691 3.8595,-9.885 z m 87.8859,38.487 c 0.681,-7.688 -10.705,4.216 -10.024,-3.471 l 0.227,-2.563 c -0.681,7.688 10.706,-4.217 10.024,3.471 z m -0.19,2.137 c 0.682,-7.688 -10.705,4.217 -10.023,-3.471 l 0.227,-2.563 c -0.682,7.688 10.705,-4.216 10.023,3.472 z m -0.235,2.296 c 0.924,-7.663 -10.659,4.058 -9.978,-3.63 l 0.227,-2.563 c -0.681,7.688 10.706,-4.216 10.024,3.472 z m -0.257,2.13 c 0.924,-7.663 -10.832,3.877 -9.908,-3.786 l 0.225,-2.4 c -0.682,7.688 10.915,-4.031 9.991,3.631 z m -0.321,2.329 c 1.23,-7.62 -10.767,3.678 -9.844,-3.985 l 0.308,-2.554 c -0.924,7.662 10.832,-3.877 9.909,3.786 z m -0.409,2.297 c 1.507,-7.57 -10.912,3.261 -9.682,-4.359 l 0.298,-2.347 c -0.923,7.662 11.091,-3.632 9.861,3.987 z m -0.514,2.327 c 1.857,-7.49 -11.002,2.814 -9.495,-4.756 l 0.395,-2.351 c -1.23,7.619 11.205,-3.209 9.698,4.361 z m -0.672,2.337 c 2.271,-7.376 -11.07,2.264 -9.213,-5.227 l 0.474,-2.285 c -1.507,7.57 11.37,-2.73 9.514,4.761 z m -0.999,2.603 c 3.174,-7.034 -10.981,1.336 -8.71,-6.039 l 0.599,-2.206 c -1.857,7.491 11.507,-2.142 9.235,5.234 z m -1.047,2.182 c 3.547,-6.855 -11,0.725 -8.284,-6.499 l 0.747,-2.131 c -2.271,7.376 11.6,-1.471 8.884,5.752 z m -1.489,2.428 c 4.449,-6.306 -11.001,-0.681 -7.454,-7.536 l 0.809,-1.791 c -2.716,7.224 11.877,-0.335 8.331,6.519 z m -1.634,2.099 c 5.059,-5.828 -10.815,-1.669 -6.672,-8.181 l 1.048,-1.833 c -3.546,6.854 11.777,0.846 7.634,7.357 z m -1.878,1.918 c 5.642,-5.266 -10.672,-3.157 -5.613,-8.986 l 1.049,-1.473 c -4.143,6.512 11.781,2.391 6.722,8.219 z m -2.23,1.775 c 6.31,-4.442 -10.121,-4.323 -4.479,-9.589 l 1.196,-1.302 c -4.755,6.078 11.467,3.559 5.826,8.825 z m -2.514,1.525 c 6.92,-3.413 -9.369,-5.742 -3.059,-10.184 l 1.21,-1.033 c -5.355,5.557 11.022,5.004 4.712,9.446 z m -2.361,1.039 c 7.184,-2.814 -8.8,-6.335 -2.166,-10.276 l 1.503,-0.97 c -5.961,4.902 10.387,5.873 3.753,9.815 z m -2.864,0.819 c 7.546,-1.613 -7.675,-7.74 -0.491,-10.554 l 1.556,-0.759 c -6.633,3.941 9.381,7.524 2.197,10.338 z m -2.782,0.439 c 7.693,-0.615 -6.497,-8.978 1.049,-10.591 l 1.64,-0.558 c -7.184,2.814 8.057,9.008 0.51,10.62 z m -2.428,0.133 c 7.716,-0.185 -5.924,-9.319 1.716,-10.407 l 1.791,-0.324 c -7.4,2.188 7.301,9.421 -0.339,10.51 z m -2.641,-0.069 c 7.697,0.561 -4.894,-10.043 2.822,-10.228 l 1.958,-0.171 c -7.64,1.089 6.004,10.273 -1.712,10.458 z m -2.384,-0.243 c 7.66,0.937 -4.139,-10.551 3.559,-9.989 l 2.074,-0.006 c -7.716,0.185 4.874,10.831 -2.823,10.269 z m -2.612,-0.467 c 7.53,1.689 -3.375,-10.633 4.285,-9.695 l 2.075,0.173 c -7.715,-0.206 4.336,10.978 -3.324,10.041 z m -2.299,-0.571 c 7.45,2.015 -2.562,-11.066 4.968,-9.377 l 2.04,0.305 c -7.66,-0.938 3.238,11.426 -4.293,9.736 z m -2.414,-0.753 c 7.28,2.565 -1.937,-11.084 5.513,-9.069 l 2.05,0.473 c -7.602,-1.33 2.713,11.476 -4.737,9.46 z m -2.223,-0.835 c 7.158,2.886 -1.491,-11.096 5.874,-8.79 l 2.274,0.667 c -7.45,-2.015 2.016,11.46 -5.349,9.154 z m -2.224,-0.914 c 7.003,3.243 -0.688,-11.356 6.469,-8.47 l 2.037,0.722 c -7.365,-2.307 1.272,11.708 -5.886,8.821 z m -1.947,-0.902 c 7.003,3.244 -0.731,-11.257 6.426,-8.37 l 2.386,0.962 c -7.157,-2.887 0.923,11.467 -6.234,8.581 z m -2.154,-1.077 c 6.827,3.599 -0.135,-11.324 6.867,-8.08 l 2.11,0.946 c -7.158,-2.886 0.568,11.634 -6.435,8.39 z m -2.231,-1.303 c 6.496,4.168 0.58,-11.2 7.407,-7.601 l 2.079,1.003 c -7.003,-3.244 -0.05,11.699 -6.877,8.1 z m -1.806,-1.158 c 6.496,4.167 0.904,-11.296 7.556,-7.384 l 2.035,1.14 c -6.827,-3.599 -0.599,11.643 -7.252,7.73 z m -1.926,-1.303 c 6.347,4.391 1.346,-11.296 7.842,-7.129 l 2.008,1.265 c -6.652,-3.913 -1.068,11.565 -7.564,7.397 z m -1.954,-1.401 c 6.117,4.706 1.815,-11.21 8.161,-6.818 l 1.995,1.321 c -6.497,-4.167 -1.504,11.533 -7.85,7.141 z m -1.7,-1.308 c 6.116,4.706 2.196,-11.293 8.313,-6.587 l 1.899,1.32 c -6.346,-4.392 -2.057,11.541 -8.173,6.836 z m -1.97,-1.676 c 5.691,5.213 2.466,-10.925 8.583,-6.219 l 1.835,1.407 c -6.346,-4.392 -1.993,11.454 -8.11,6.748 z m -1.704,-1.625 c 5.474,5.441 2.94,-10.798 8.824,-5.803 l 1.801,1.469 c -6.117,-4.705 -2.576,11.371 -8.46,6.376 z m -1.522,-1.512 c 5.474,5.44 3.605,-10.926 9.079,-5.486 l 1.593,1.471 c -5.884,-4.994 -3.373,11.269 -8.847,5.828 z m -1.647,-1.707 c 5.229,5.677 3.73,-10.731 9.204,-5.291 l 1.825,1.813 c -5.475,-5.44 -3.605,10.926 -9.079,5.486 z m -1.4535,-1.578 c 5.2295,5.677 4.0825,-10.756 9.3115,-5.08 l 1.649,1.668 c -5.474,-5.44 -3.988,10.981 -9.218,5.304 z m -1.5805,-1.796 c 4.95,5.922 4.209,-10.538 9.438,-4.862 l 1.743,1.892 c -5.229,-5.676 -4.082,10.757 -9.311,5.08 z m -1.376,-1.646 c 4.95,5.922 4.595,-10.547 9.545,-4.626 l 1.559,1.724 c -5.229,-5.676 -4.504,10.797 -9.454,4.876 z m -1.4983,-1.881 c 4.6443,6.164 4.7173,-10.312 9.6673,-4.391 l 1.65,1.974 c -4.95,-5.921 -4.595,10.547 -9.5451,4.626 z m -1.2909,-1.714 c 4.6438,6.164 5.123,-10.301 9.7672,-4.137 l 1.465,1.788 c -4.95,-5.921 -5.04,10.568 -9.6842,4.404 z m -1.4041,-1.956 c 4.3225,6.394 5.2362,-10.059 9.8803,-3.894 l 1.548,2.054 c -4.6442,-6.164 -5.1234,10.301 -9.7672,4.137 z m -1.3402,-2.007 c 3.9835,6.61 5.7817,-9.796 10.1045,-3.402 l 1.373,1.856 c -4.6441,-6.164 -5.5756,10.3 -9.8981,3.907 z m -1.1074,-1.837 c 3.9836,6.61 5.6875,-9.736 10.0099,-3.343 l 1.441,2.131 c -4.3226,-6.393 -5.6432,10.026 -9.9657,3.633 z m -1.1742,-2.114 c 3.6269,6.812 6.2246,-9.442 10.2081,-2.832 l 1.215,1.957 c -4.3222,-6.393 -6.0449,9.964 -10.0284,3.354 z m -1.0993,-2.155 c 3.2589,6.996 6.7559,-9.116 10.3829,-2.304 l 1.145,1.993 c -3.9836,-6.61 -6.6009,9.655 -10.2279,2.843 z m -0.9059,-1.945 c 3.2589,6.996 7.155,-9.009 10.4139,-2.013 l 1.0756,2.031 c -3.6269,-6.812 -7.1443,9.31 -10.4032,2.314 z m -0.9177,-2.177 c 2.96,7.127 7.1668,-8.776 10.4257,-1.781 l 0.9733,2.082 c -3.627,-6.812 -7.042,9.259 -10.301,2.264 z m -0.8228,-1.982 c 2.96,7.128 7.5305,-8.698 10.4904,-1.57 l 0.9385,2.159 c -3.259,-6.996 -7.4822,8.915 -10.4422,1.787 z m -0.8273,-2.177 c 2.7035,7.229 7.5349,-8.503 10.4949,-1.375 l 0.9867,2.376 c -2.96,-7.128 -7.5305,8.699 -10.4905,1.571 z m -0.75,-2.196 c 2.4556,7.317 7.8351,-8.238 10.5386,-1.009 l 0.8701,2.225 c -2.96,-7.128 -7.8056,8.609 -10.5091,1.38 z m -0.6713,-2.296 c 2.102,7.426 8.1074,-7.89 10.5631,-0.573 l 0.7964,2.26 c -2.7035,-7.229 -8.0967,8.331 -10.5523,1.014 z m -0.6192,-2.359 c 1.6737,7.534 8.5344,-7.458 10.6364,-0.032 l 0.6818,2.222 c -2.4557,-7.316 -8.4806,8.006 -10.5827,0.58 z m -0.4653,-2.094 c 1.6737,7.534 8.9291,-7.254 10.6029,0.279 l 0.6151,2.193 c -2.102,-7.425 -8.9864,7.573 -10.6601,0.039 z m -0.4279,-2.406 c 1.2336,7.618 8.8917,-6.943 10.5655,0.591 l 0.4961,2.223 c -2.102,-7.425 -8.8673,7.542 -10.5411,0.009 z M 81.2765,127.3 c 0.895,7.666 9.3468,-6.495 10.5805,1.123 l 0.4323,2.231 c -1.6737,-7.534 -9.3562,7.032 -10.5898,-0.586 z m -0.2361,-2.288 c 0.6641,7.689 9.6122,-6.147 10.5072,1.519 l 0.3776,2.314 c -1.2336,-7.618 -9.7041,6.545 -10.5991,-1.121 z m -0.1523,-2.297 c 0.429,7.706 9.7777,-5.852 10.4418,1.837 l 0.2524,2.175 c -1.2337,-7.618 -9.8411,6.4 -10.5052,-1.289 z m -0.0601,-2.467 c -0.0542,7.718 9.9298,-5.385 10.3588,2.321 l 0.1798,2.409 c -0.6641,-7.69 -10.0257,5.869 -10.4548,-1.837 z m 0.0424,-2.311 c -0.3026,7.712 10.0598,-5.068 10.2495,2.648 l 0.0907,2.411 c -0.4291,-7.707 -10.1888,5.557 -10.3785,-2.159 z m 0.1335,-2.31 c -0.5558,7.698 10.4353,-4.572 10.1327,3.141 l -0.0062,2.244 c -0.1897,-7.716 -10.5794,5.064 -10.2767,-2.648 z m 0.2499,-2.482 c -1.0761,7.643 10.5392,-4.049 9.9834,3.649 l -0.1095,2.235 c 0.0541,-7.718 -10.7104,4.722 -10.1546,-2.976 z m 0.346,-2.299 c -1.3431,7.6 10.6329,-3.691 9.8193,3.984 l -0.2126,2.39 c 0.5557,-7.698 -10.8345,4.2 -10.0209,-3.475 z m 0.4434,-2.284 c -1.6095,7.548 10.959,-3.105 9.616,4.495 l -0.2852,2.197 c 0.8136,-7.675 -11.1916,3.613 -9.8485,-3.988 z m 0.5336,-2.248 c -1.851,7.493 11.0514,-2.737 9.4419,4.812 l -0.3946,2.175 c 1.0761,-7.642 -11.2794,3.227 -9.67,-4.321 z m 0.6514,-2.262 c -2.1527,7.412 11.0877,-2.348 9.2367,5.145 l -0.5353,2.347 c 1.6095,-7.549 -11.3063,2.678 -9.4553,-4.815 z m 0.677,-2.205 c -2.3843,7.341 11.2384,-1.9256 9.0857,5.486 l -0.6284,2.278 c 1.851,-7.492 -11.4062,2.263 -9.2534,-5.149 z m 0.7485,-2.198 c -2.635,7.254 11.2916,-1.5572 8.9073,5.784 l -0.6893,2.31 c 2.1528,-7.411 -11.4828,1.851 -9.0985,-5.49 z m 0.8461,-2.2264 c -2.966,7.1254 11.315,-1.1127 8.68,6.1414 l -0.7508,2.275 c 2.3843,-7.3409 -11.5562,1.465 -8.9212,-5.788 z m 1.0739,-2.3596 c -3.5739,6.84 11.2284,-0.4164 8.2623,6.709 l -0.8021,2.193 c 2.635,-7.2536 -11.6643,0.977 -8.6982,-6.148 z m 0.9936,-1.9014 c -3.574,6.8394 11.2857,-0.1835 8.0516,6.8242 l -0.8525,1.9632 c 2.635,-7.2541 -11.7253,0.732 -8.4912,-6.2754 z m 1.2088,-2.0903 c -3.9276,6.6437 11.2869,0.3944 7.7131,7.2342 l -1.0493,2.0685 C 98.674,93.366 83.7955,100.38 87.3695,93.5401 Z M 90.01,89.0898 c -4.1693,6.4951 11.335,0.9425 7.407,7.5861 l -1.1256,2.0081 c 3.574,-6.8398 -11.6603,-0.6013 -7.7326,-7.245 z m 1.2973,-1.9494 c -4.414,6.3308 11.3017,1.3729 7.1322,7.868 l -1.2399,2.0352 C 101.127,90.4 85.6099,95.9444 89.7793,89.4493 Z m 1.4059,-1.9358 c -4.7135,6.1112 11.2048,1.8408 6.7909,8.1716 l -1.2954,1.9917 C 102.378,88.8728 86.649,93.8216 91.063,87.4908 Z m 1.4846,-1.8595 c -4.9872,5.89 11.1162,2.3713 6.4032,8.4825 l -1.3412,1.899 c 4.4142,-6.3308 -11.521,-2.0726 -6.8075,-8.1837 z m 1.5556,-1.7849 c -5.2373,5.6688 11.0086,2.8704 6.0216,8.7605 l -1.288,1.646 c 4.414,-6.3308 -11.5525,-2.4056 -6.5653,-8.2957 z m 1.6203,-1.7118 c -5.4664,5.4484 10.8853,3.3399 5.6483,9.0087 l -1.372,1.6099 c 4.714,-6.1112 -11.4238,-2.9242 -6.1864,-8.5931 z m 1.6792,-1.6404 c -5.6764,5.2293 10.7491,3.7821 5.2831,9.2305 l -1.45,1.5708 C 107.873,83.1192 91.6048,85.5984 97.0712,80.15 Z m 1.7331,-1.5709 c -5.8692,5.0117 10.602,4.1995 4.925,9.4288 l -1.523,1.5291 c 5.237,-5.6688 -11.1257,-3.8683 -5.4493,-9.0976 z m 1.784,-1.5026 c -6.0478,4.7953 10.396,4.2484 4.719,9.4777 l -1.736,1.6132 c 5.466,-5.4484 -10.9127,-3.9524 -5.236,-9.1817 z m 1.872,-1.4629 c -6.2559,4.5186 10.203,4.664 4.333,9.6757 l -1.8,1.5543 c 5.676,-5.2293 -10.7515,-4.3686 -4.882,-9.3803 z m 1.74,-1.2561 c -6.2568,4.5186 10.176,4.9195 4.128,9.7148 l -1.86,1.4944 c 5.87,-5.0117 -10.5814,-4.7625 -4.534,-9.5578 z m 2.018,-1.3513 c -6.496,4.1662 9.917,5.4246 3.66,9.9432 l -1.885,1.3883 c 6.048,-4.7953 -10.396,-5.2115 -4.14,-9.7301 z m 2.076,-1.2935 c -6.729,3.7786 9.615,6.0196 3.119,10.1858 l -1.881,1.301 c 6.256,-4.5186 -10.17,-5.7965 -3.674,-9.9627 z m 1.871,-1.0504 c -6.729,3.7786 9.55,5.9118 3.054,10.078 l -2.165,1.3888 c 6.496,-4.1662 -9.886,-5.8843 -3.39,-10.0505 z m 2.119,-1.1017 c -6.901,3.4565 9.275,6.5042 2.546,10.2828 l -1.97,1.1275 c 6.496,-4.1662 -9.797,-6.3209 -3.068,-10.0994 z m 2.3,-1.0344 c -7.135,2.9418 8.827,6.9702 1.926,10.4268 l -2.052,1.0995 c 6.729,-3.7786 -9.457,-6.8441 -2.556,-10.3006 z m 2.165,-0.8492 c -7.234,2.6899 8.498,7.5838 1.362,10.5257 l -1.983,0.9416 c 6.901,-3.4566 -9.074,-7.5135 -1.939,-10.4553 z m 2.157,-0.754 c -7.305,2.4927 8.263,7.8586 1.029,10.5486 l -2.027,0.8249 c 7.014,-3.2207 -8.794,-7.7807 -1.559,-10.4707 z m 2.15,-0.7191 c -7.361,2.3185 8.074,8.104 0.769,10.5967 l -2.29,0.8198 c 7.234,-2.6899 -8.338,-8.0667 -1.033,-10.5594 z m 2.234,-0.6839 c -7.442,2.044 7.812,8.309 0.45,10.6276 l -2.319,0.7909 c 7.305,-2.4927 -8.133,-8.2877 -0.772,-10.6063 z m 2.258,-0.6045 c -7.513,1.7642 7.6,8.269 0.239,10.5876 l -2.335,0.7425 c 7.304,-2.4927 -8.118,-8.2394 -0.757,-10.5579 z m 2.28,-0.5233 c -7.574,1.4799 7.287,8.5519 -0.155,10.596 l -2.294,0.6432 c 7.362,-2.3186 -7.874,-8.5225 -0.432,-10.5665 z m 2.299,-0.4407 c -7.626,1.192 6.96,8.8252 -0.553,10.5894 l -2.313,0.5604 c 7.442,-2.044 -7.553,-8.8143 -0.04,-10.5786 z m 2.314,-0.3568 c -7.666,0.9012 6.622,9.0878 -0.953,10.5677 l -2.33,0.4762 c 7.513,-1.7643 -7.218,-9.096 0.357,-10.5759 z m 2.13,-0.2505 c -7.665,0.9012 6.468,9.3172 -1.157,10.5092 l -2.345,0.3909 c 7.575,-1.4799 -6.87,-9.3662 0.756,-10.5581 z m 2.334,-0.1909 c -7.694,0.6086 6.109,9.5598 -1.556,10.4611 l -2.357,0.305 c 7.625,-1.192 -6.51,-9.6241 1.155,-10.5253 z m 2.339,-0.1056 c -7.711,0.3151 5.741,9.7894 -1.953,10.3979 l -2.366,0.2186 c 7.665,-0.9012 -6.14,-9.8686 1.554,-10.4772 z m 2.331,-0.0243 c -7.718,0.0371 5.374,10.0088 -2.338,10.3239 l -2.372,0.132 c 7.694,-0.6086 -5.759,-10.0991 1.952,-10.4141 z m 2.318,0.0349 c -7.715,-0.2231 5.022,10.2207 -2.696,10.2578 l -2.386,0.0486 c 7.711,-0.315 -5.381,-10.3022 2.337,-10.3393 z m 2.317,0.0926 c -7.702,-0.4836 4.674,10.4047 -3.041,10.1816 l -2.399,-0.0143 c 7.718,-0.0372 -5.019,-10.4954 2.696,-10.2723 z m 2.318,0.1507 c -7.682,-0.748 4.314,10.5767 -3.389,10.0931 l -2.397,-0.0746 c 7.715,0.2231 -4.661,-10.6795 3.042,-10.1959 z m 2.135,0.2079 c -7.681,-0.748 4.321,10.5033 -3.382,10.0197 l -2.395,-0.1471 c 7.715,0.2231 -4.663,-10.6071 3.039,-10.1235 z m 2.326,0.2926 c -7.647,-1.0435 3.934,10.6563 -3.748,9.9083 l -2.387,-0.208 c 7.703,0.4836 -4.298,-10.7823 3.384,-10.0343 z m 2.339,0.3396 c -7.596,-1.3678 3.493,10.8423 -4.154,9.7987 l -2.358,-0.2714 c 7.681,0.748 -3.898,-10.9682 3.749,-9.9246 z m 2.112,0.3802 c -7.596,-1.3678 3.507,10.7522 -4.14,9.7086 l -2.549,-0.3478 c 7.647,1.0435 -3.707,-10.8918 3.94,-9.8482 z m 2.32,0.4783 c -7.529,-1.6974 3.031,10.9414 -4.565,9.5736 l -2.319,-0.401 c 7.647,1.0435 -3.453,-11.0944 4.143,-9.7266 z m 2.093,0.4719 c -7.529,-1.6975 2.756,11.1701 -4.773,9.4726 l -2.305,-0.4466 c 7.596,1.3678 -2.961,-11.2893 4.568,-9.5918 z m 2.294,0.6216 c -7.444,-2.0347 2.555,11.0204 -4.974,9.3229 l -2.51,-0.5658 c 7.529,1.6974 -2.756,-11.1701 4.773,-9.4727 z m 2.258,0.6585 c -7.357,-2.3322 2.062,11.1899 -5.383,9.1552 l -2.266,-0.5847 c 7.529,1.6974 -2.466,-11.3763 4.979,-9.3416 z m 2.045,0.6483 c -7.357,-2.3322 1.795,11.3645 -5.562,9.0324 l -2.278,-0.6381 c 7.445,2.0347 -1.969,-11.5038 5.388,-9.1717 z m 2.198,0.7805 c -7.267,-2.5982 1.643,11.2324 -5.715,8.9002 l -2.452,-0.7774 c 7.357,2.3322 -1.795,-11.3645 5.562,-9.0323 z m 2.171,0.8211 c -7.175,-2.8446 1.23,11.3233 -6.037,8.7251 l -2.256,-0.7751 c 7.357,2.3322 -1.547,-11.5131 5.72,-8.9149 z m 1.994,0.7908 c -7.174,-2.8447 0.991,11.4627 -6.184,8.618 l -2.249,-0.8275 c 7.267,2.5982 -1.133,-11.5834 6.042,-8.7387 z m 2.154,0.9174 c -7.061,-3.1157 0.831,11.336 -6.343,8.4914 l -2.392,-0.9482 c 7.175,2.8446 -0.99,-11.4627 6.184,-8.6181 z m 2.081,0.9904 c -6.962,-3.3326 0.435,11.3677 -6.626,8.2521 l -2.196,-0.9085 c 7.175,2.8446 -0.711,-11.6221 6.351,-8.5065 z m 45.624,75.0883 c 6.636,-3.942 -9.696,-5.786 -3.256,-10.039 l 2.147,-1.417 c -6.44,4.253 9.964,5.751 3.524,10.004 z m -2.087,1.14 c 6.807,-3.637 -9.436,-6.264 -2.801,-10.205 l 1.989,-1.209 c -6.44,4.253 9.902,6.114 3.267,10.056 z m -2.11,1.065 c 6.955,-3.344 -9.17,-6.706 -2.363,-10.343 l 2.039,-1.146 c -6.635,3.942 9.618,6.585 2.811,10.222 z m -2.116,0.99 c 7.075,-3.083 -8.914,-7.105 -1.958,-10.449 l 2.088,-1.085 c -6.807,3.637 9.326,7.015 2.371,10.359 z m -2.229,0.94 c 7.229,-2.703 -8.566,-7.46 -1.491,-10.544 l 2.147,-1.03 c -6.956,3.343 9.04,7.38 1.964,10.464 z m -2.284,0.833 c 7.368,-2.296 -8.249,-7.436 -1.174,-10.519 l 2.18,-0.959 c -6.956,3.344 9.007,7.308 1.932,10.392 z m -2.249,0.656 c 7.451,-2.012 -7.908,-7.821 -0.68,-10.524 l 2.147,-0.822 c -7.076,3.084 8.685,7.756 1.457,10.459 z m -2.451,0.566 c 7.576,-1.469 -7.27,-8.6 0.181,-10.612 l 1.99,-0.628 c -7.228,2.703 8.144,8.551 0.693,10.563 z m -2.288,0.4 c 7.623,-1.208 -6.951,-8.81 0.569,-10.547 l 2.312,-0.576 c -7.451,2.012 7.524,8.866 0.004,10.603 z m -2.473,0.297 c 7.687,-0.694 -6.339,-9.319 1.284,-10.527 l 2.174,-0.413 c -7.52,1.737 7.06,9.368 -0.563,10.577 z m -2.311,0.163 c 7.706,-0.438 -5.875,-9.756 1.811,-10.45 l 2.206,-0.307 c -7.623,1.208 6.406,9.862 -1.281,10.556 z m -2.677,0.018 c 7.71,0.36 -5.185,-9.88 2.521,-10.317 l 2.221,-0.182 c -7.66,0.95 6.067,10.019 -1.639,10.456 z m -2.378,-0.13 c 7.684,0.715 -4.717,-10.083 3,-10.152 l 2.325,-0.059 c -7.706,0.437 5.483,10.28 -2.234,10.348 z m -2.324,-0.236 c 7.654,0.998 -4.243,-10.353 3.466,-9.993 l 2.285,0.073 c -7.717,0.069 4.944,10.566 -2.765,10.206 z m -2.304,-0.327 c 7.613,1.268 -3.594,-10.821 4.059,-9.822 l 2.138,0.176 c -7.709,-0.36 4.184,11.026 -3.469,10.028 z m -2.275,-0.408 c 7.568,1.513 -3.225,-10.941 4.388,-9.673 l 2.182,0.278 c -7.684,-0.715 3.739,11.142 -3.874,9.873 z m -2.231,-0.475 c 7.527,1.712 -2.9,-11.046 4.668,-9.533 l 2.193,0.371 c -7.653,-0.998 3.357,11.234 -4.211,9.72 z m -2.092,-0.475 c 7.526,1.711 -2.735,-11.176 4.791,-9.465 l 2.225,0.46 c -7.613,-1.268 3.019,11.287 -4.507,9.575 z m -2.083,-0.472 c 7.529,1.698 -2.744,-11.18 4.782,-9.469 l 2.509,0.571 c -7.526,-1.712 2.735,11.176 -4.791,9.464 z m -2.093,-0.472 c 7.529,1.698 -2.755,-11.171 4.774,-9.473 l 2.518,0.571 c -7.526,-1.712 2.747,11.166 -4.783,9.468 z m -1.957,-0.394 c 7.575,1.479 -2.891,-11.249 4.638,-9.551 l 2.509,0.566 c -7.529,-1.698 2.756,11.171 -4.774,9.473 z m -1.944,-0.319 c 7.621,1.22 -3.24,-11.179 4.335,-9.699 l 2.663,0.561 c -7.529,-1.698 2.94,11.018 -4.635,9.539 z m -2.046,-0.296 c 7.639,1.103 -3.527,-11.017 4.094,-9.797 l 2.707,0.476 c -7.575,-1.48 3.288,10.905 -4.333,9.685 z m -2.123,-0.307 c 7.639,1.104 -3.622,-10.921 4.017,-9.818 l 2.622,0.395 c -7.621,-1.22 3.546,10.894 -4.093,9.791 z m -2.124,-0.306 c 7.639,1.103 -3.622,-10.921 4.018,-9.818 l 2.546,0.368 c -7.639,-1.104 3.622,10.921 -4.017,9.817 z m -2.123,-0.307 c 7.639,1.103 -3.622,-10.921 4.017,-9.818 l 2.546,0.368 c -7.639,-1.103 3.622,10.921 -4.017,9.818 z m -2.124,-0.307 c 7.639,1.103 -3.622,-10.921 4.017,-9.818 l 2.547,0.368 c -7.639,-1.103 3.622,10.921 -4.018,9.818 z m -2.188,-0.339 c 7.623,1.205 -3.557,-10.889 4.082,-9.785 l 2.546,0.367 c -7.639,-1.103 3.622,10.922 -4.017,9.818 z m -2.12,-0.335 c 7.624,1.205 -3.475,-10.969 4.149,-9.764 l 2.476,0.375 c -7.64,-1.103 3.54,10.996 -4.083,9.79 z m -2.119,-0.336 c 7.624,1.206 -3.475,-10.968 4.149,-9.763 l 2.541,0.402 c -7.624,-1.205 3.475,10.969 -4.149,9.763 z m -2.119,-0.335 c 7.624,1.206 -3.475,-10.968 4.148,-9.763 l 2.542,0.402 c -7.624,-1.205 3.475,10.969 -4.149,9.763 z m -2.204,-0.364 c 7.602,1.336 -3.391,-10.939 4.233,-9.734 l 2.541,0.402 c -7.623,-1.205 3.475,10.968 -4.148,9.763 z m -2.113,-0.372 c 7.602,1.336 -3.287,-11.026 4.315,-9.69 l 2.453,0.395 c -7.624,-1.206 3.367,11.077 -4.234,9.741 z m -2.113,-0.371 c 7.601,1.336 -3.287,-11.027 4.315,-9.69 l 2.534,0.445 c -7.602,-1.336 3.286,11.026 -4.316,9.69 z m -2.114,-0.371 c 7.602,1.336 -3.286,-11.027 4.316,-9.691 l 2.534,0.446 c -7.602,-1.337 3.286,11.026 -4.316,9.69 z m -2.218,-0.425 c 7.571,1.503 -3.181,-10.973 4.421,-9.637 l 2.533,0.445 c -7.601,-1.336 3.287,11.027 -4.315,9.691 z m -2.104,-0.417 c 7.57,1.502 -3.044,-11.096 4.526,-9.594 l 2.419,0.448 c -7.602,-1.336 3.149,11.149 -4.422,9.646 z m -2.105,-0.418 c 7.571,1.502 -3.044,-11.096 4.527,-9.593 l 2.523,0.5 c -7.57,-1.502 3.044,11.096 -4.526,9.594 z m -2.236,-0.48 c 7.526,1.711 -2.912,-11.033 4.658,-9.531 l 2.524,0.501 c -7.571,-1.503 3.044,11.096 -4.527,9.593 z m -2.093,-0.475 c 7.527,1.711 -2.736,-11.176 4.79,-9.465 l 2.38,0.492 c -7.57,-1.502 2.865,11.254 -4.661,9.543 z m -2.092,-0.476 c 7.526,1.711 -2.736,-11.175 4.79,-9.464 l 2.509,0.57 c -7.526,-1.711 2.736,11.175 -4.79,9.465 z m -2.245,-0.581 c 7.464,1.963 -2.583,-11.07 4.943,-9.359 l 2.509,0.57 c -7.527,-1.71 2.736,11.176 -4.79,9.465 z m -2.075,-0.546 c 7.464,1.964 -2.357,-11.261 5.107,-9.298 l 2.327,0.58 c -7.526,-1.711 2.518,11.336 -4.946,9.373 z m -2.252,-0.655 c 7.381,2.253 -2.18,-11.152 5.284,-9.188 l 2.488,0.654 c -7.464,-1.964 2.358,11.261 -5.106,9.298 z m -2.052,-0.627 c 7.381,2.254 -1.917,-11.344 5.465,-9.091 l 2.284,0.638 c -7.464,-1.963 2.093,11.458 -5.289,9.204 z m -2.233,-0.755 c 7.283,2.555 -1.736,-11.216 5.646,-8.962 l 2.461,0.751 c -7.382,-2.254 1.916,11.344 -5.466,9.091 z m -2.203,-0.78 c 7.183,2.825 -1.269,-11.344 6.013,-8.789 l 2.245,0.731 c -7.382,-2.253 1.631,11.535 -5.652,8.979 z m -1.996,-0.786 c 7.182,2.825 -1.298,-11.268 5.985,-8.713 l 2.427,0.852 c -7.282,-2.556 1.448,11.413 -5.834,8.858 z m -2.111,-0.86 c 7.107,3.011 -0.908,-11.385 6.275,-8.56 l 2.224,0.848 c -7.283,-2.555 1.192,11.554 -5.991,8.729 z m -1.976,-0.836 c 7.107,3.01 -0.724,-11.483 6.383,-8.473 l 2.265,0.905 c -7.182,-2.825 0.828,11.581 -6.279,8.571 z m -1.997,-0.858 c 7.091,3.048 -0.702,-11.462 6.405,-8.452 l 2.369,1.004 c -7.107,-3.011 0.724,11.483 -6.383,8.472 z m -1.971,-0.848 c 7.091,3.049 -0.661,-11.487 6.429,-8.438 l 2.34,1.001 c -7.107,-3.011 0.685,11.502 -6.405,8.453 z m -1.971,-0.847 c 7.091,3.048 -0.662,-11.487 6.429,-8.438 l 2.364,1.016 c -7.091,-3.049 0.661,11.487 -6.429,8.438 z m -1.871,-0.767 c 7.161,2.878 -0.762,-11.568 6.329,-8.519 l 2.363,1.016 c -7.09,-3.048 0.662,11.487 -6.428,8.438 z m -1.991,-0.801 c 7.161,2.879 -0.936,-11.467 6.225,-8.588 l 2.487,1.039 c -7.09,-3.049 0.836,11.388 -6.325,8.509 z m -1.879,-0.706 c 7.236,2.685 -1.048,-11.562 6.114,-8.683 l 2.387,0.96 c -7.161,-2.879 0.936,11.467 -6.226,8.589 z m -2.011,-0.746 c 7.236,2.685 -1.244,-11.438 5.992,-8.753 l 2.529,0.976 c -7.161,-2.879 1.127,11.357 -6.109,8.672 z m -1.886,-0.66 c 7.31,2.477 -1.37,-11.525 5.866,-8.84 l 2.412,0.895 c -7.236,-2.685 1.244,11.438 -5.992,8.753 z m -2.032,-0.688 c 7.31,2.476 -1.571,-11.398 5.739,-8.922 l 2.56,0.919 c -7.236,-2.685 1.447,11.305 -5.863,8.828 z m -1.901,-0.641 c 7.375,2.277 -1.7023,-11.446 5.608,-8.969 l 2.436,0.826 c -7.31,-2.477 1.571,11.397 -5.739,8.921 z m -2.0499,-0.633 c 7.3749,2.277 -1.6845,-11.501 5.6259,-9.025 l 2.436,0.826 c -7.3097,-2.477 1.571,11.398 -5.739,8.921 z m -2.0501,-0.633 c 7.375,2.277 -1.8804,-11.351 5.494,-9.074 l 2.586,0.819 c -7.3098,-2.476 1.753,11.291 -5.6218,9.014 z m -2.0501,-0.633 c 7.3751,2.277 -1.8803,-11.351 5.4944,-9.074 l 2.4577,0.759 c -7.3742,-2.277 1.881,11.351 -5.4939,9.074 z" style="display:inline;fill:#FF851B;stroke:#111111;stroke-width:0.254;stroke-linecap:square;stroke-linejoin:round;stroke-dasharray:none;stroke-opacity:1" id="path1673" class="stroke-orange fill-orange stroke-foreground fill-foreground"/></g>
</svg>
