<svg xmlns:inkscape="http://www.inkscape.org/namespaces/inkscape" xmlns:sodipodi="http://sodipodi.sourceforge.net/DTD/sodipodi-0.dtd" xmlns="http://www.w3.org/2000/svg" xmlns:svg="http://www.w3.org/2000/svg" viewBox="0 0 488.23126 131.8197" version="1.1" id="svg1" sodipodi:docname="open_knot.svg" xml:space="preserve" inkscape:version="1.3.2 (091e20ef0f, 2023-11-25)">
    <sodipodi:namedview id="namedview1" pagecolor="#ffffff" bordercolor="#000000" borderopacity="0.25" inkscape:showpageshadow="2" inkscape:pageopacity="0.0" inkscape:pagecheckerboard="0" inkscape:deskcolor="#d1d1d1" inkscape:document-units="mm" showgrid="true" inkscape:zoom="0.61453942" inkscape:cx="800.59957" inkscape:cy="-90.311537" inkscape:window-width="1920" inkscape:window-height="1125" inkscape:window-x="0" inkscape:window-y="0" inkscape:window-maximized="1" inkscape:current-layer="layer1">
        <inkscape:grid id="grid2" units="mm" originx="87.14132" originy="-55.043457" spacingx="0.99999998" spacingy="1" empcolor="#0099e5" empopacity="0.30196078" color="#0099e5" opacity="0.14901961" empspacing="5" dotted="false" gridanglex="30" gridanglez="30" visible="true"/>
        <inkscape:page x="0" y="0" width="488.23123" height="131.8197" id="page3" margin="0" bleed="0" inkscape:export-filename="open_knot.png" inkscape:export-xdpi="96" inkscape:export-ydpi="96"/>
    </sodipodi:namedview>
    <defs id="defs1"/>
    <g inkscape:label="Layer 1" inkscape:groupmode="layer" id="layer1" transform="translate(87.141323,-55.043457)">
        <path d="m 74.861,120.594 c -38.4599,-1.32992 -113.802,43.8007 -159.925,17.4112 m 245.284,-6.83683 c 0.6126,-7.02666 1.80641,-14.2702 3.89483,-21.0266 0.5532,-1.78972 1.1178,-3.54682 1.77802,-5.30091 2.44331,-6.49146 6.10051,-12.5149 10.5064,-17.8679 4.63585,-5.63239 9.96299,-10.9542 16.0586,-15.0085 2.804,-1.86498 5.64808,-3.71536 8.65706,-5.21802 2.2764,-1.13682 4.65721,-2.21299 7.06177,-3.07615 1.5209,-0.545952 3.0168,-1.00011 4.55429,-1.45975 4.22205,-1.26222 8.68356,-1.933 13.0969,-1.94696 4.58546,-0.01453 9.32529,0.568589 13.5641,2.41969 1.7765,0.775808 3.45839,1.70449 5.03703,2.80151 2.15614,1.49834 4.13193,3.39858 5.75661,5.4666 1.29474,1.64805 2.35639,3.47517 3.24877,5.37618 1.68975,3.59956 2.39368,7.80737 2.53307,11.7577 0.0945,2.67795 -0.0699,5.36013 -0.44989,8.0112 -0.42378,2.95662 -1.07469,5.9086 -2.08141,8.71234 -1.5638,4.35523 -3.50881,8.4626 -5.91794,12.3613 -1.09046,1.76467 -3.15844,4.37491 -4.05612,6.01004 M 192.534,82.055 c 12.531,9.52432 24.9662,19.8195 34.4694,32.4937 4.50134,6.00334 6.59719,13.0322 8.81236,17.0789 29.3703,53.654 92.1754,-16.3316 164.37,8.654 m -241.312,8.11166 c -0.5308,5.57768 -0.80451,11.4302 -2.01976,16.934 -0.47099,2.13309 -1.1322,4.13163 -2.09831,6.09903 -1.11312,2.26675 -2.56541,4.2808 -4.48493,5.97941 -1.30886,1.15823 -2.73548,2.08858 -4.32551,2.79745 -3.1651,1.41106 -6.92631,1.64501 -10.3559,1.31884 -3.9546,-0.37611 -7.72413,-1.61388 -11.339,-3.18098 -1.9686,-0.85342 -3.88131,-1.76924 -5.68642,-2.89565 -3.36432,-2.09938 -6.75842,-4.40411 -9.65189,-7.16505 -4.22817,-4.03447 -7.96309,-8.22825 -11.3558,-12.9808 -2.30991,-3.23575 -4.24377,-6.63444 -5.83309,-10.2961 -1.16358,-2.6808 -2.25579,-5.35329 -3.1307,-8.13871 -2.63586,-8.39159 -3.42066,-17.5654 -1.73137,-26.2242 0.408858,-2.09569 0.971669,-4.17386 1.6134,-6.20459 0.473015,-1.49685 0.9475,-2.96371 1.52574,-4.43596 1.28156,-3.26302 3.09058,-6.2696 5.00938,-9.17359 3.25331,-4.92369 7.55194,-9.25243 12.2342,-12.8315 3.28522,-2.51118 7.00287,-4.79177 10.7972,-6.4535 1.96982,-0.862693 4.00947,-1.53231 6.04934,-2.21629 5.70851,-1.91412 11.6028,-2.95821 17.6165,-3.08938 3.63753,-0.07934 7.35312,0.08817 10.975,0.505052 4.48282,0.515983 8.9684,1.4125 13.2948,2.70311 1.98522,0.592209 3.92234,1.2412 5.8516,1.97261 1.18038,0.447508 2.65244,1.0247 3.71629,1.47344 1.21553,0.512699 1.74772,0.783281 2.32543,1.06067 m 50.5102,63.733498 c -3.03041,2.10908 -6.21518,3.88236 -9.58481,5.41918 -1.40894,0.64259 -2.81379,1.24249 -4.27826,1.73101 -3.43644,1.14633 -7.19772,1.78436 -10.8199,1.92888 -2.61997,0.10453 -5.25745,-0.13262 -7.84862,-0.5116 -5.19542,-0.75988 -10.2598,-2.42265 -15.4581,-3.14414 -62.9811,-8.74137 -48.2762,-12.0561 -84.3168,-22.698" style="display:none;fill:none;stroke:none;stroke-width:5.265;stroke-linecap:square;stroke-miterlimit:4.1;stroke-dasharray:none;stroke-opacity:1" id="path140" class=""/>
        <path style="display:none;fill:#FF851B;stroke:#111111;stroke-width:0.254;stroke-linecap:square;stroke-linejoin:round;stroke-dasharray:none;stroke-opacity:1" d="m 64.922813,-60.222817 c -7.718446,0 5.145633,10.291261 -2.572815,10.291261 h -2.572816 c 7.718445,0 -5.145629,-10.291261 2.572816,-10.291261 z" id="path2-2" sodipodi:nodetypes="ccccc" class="fill-orange stroke-foreground"/>
        <path d="M 69.9819 125.814 C 77.6899 125.418 64.472 115.585 72.1887 115.435 L 74.9419 115.449 C 67.2248 115.328 80.1053 125.574 72.3887 125.724 Z M 67.9903 125.962 C 75.6838 125.344 62.1729 115.91 69.8808 115.515 L 72.6157 115.427 C 64.8991 115.577 78.1165 125.396 70.4085 125.792 Z M 66.053 126.182 C 73.717 125.272 59.8989 116.287 67.5924 115.669 L 70.3075 115.493 C 62.5995 115.889 76.1096 125.31 68.4161 125.927 Z M 63.9225 126.435 C 71.5865 125.525 57.6005 116.822 65.2644 115.913 L 68.0182 115.635 C 60.3247 116.253 74.1411 125.222 66.4772 126.131 Z M 62.0204 126.739 C 69.639 125.505 55.47 117.075 63.134 116.166 L 65.6886 115.862 C 58.0247 116.772 72.0107 125.475 64.3467 126.384 Z M 59.9026 127.083 C 67.5211 125.848 53.1771 117.748 60.7956 116.513 L 63.5581 116.115 C 55.8942 117.025 70.0606 125.436 62.4421 126.671 Z M 57.9709 127.459 C 65.5425 125.962 51.0592 118.091 58.6777 116.856 L 61.2173 116.445 C 53.5987 117.68 67.9428 125.78 60.3242 127.014 Z M 55.8661 127.875 C 63.4377 126.379 48.8226 118.778 56.3942 117.281 L 59.0994 116.788 C 51.4809 118.023 65.9616 125.88 58.39 127.376 Z M 53.9102 128.307 C 61.4376 126.601 46.7178 119.194 54.2894 117.697 L 56.8132 117.198 C 49.2416 118.695 63.8568 126.296 56.2852 127.793 Z M 51.8177 128.781 C 59.345 127.075 44.5248 119.882 52.0522 118.176 L 54.7084 117.614 C 47.1368 119.111 61.8542 126.506 54.3268 128.212 Z M 49.8865 129.254 C 57.3581 127.319 42.4323 120.356 49.9597 118.65 L 52.4688 118.081 C 44.9414 119.787 59.7617 126.981 52.2343 128.687 Z M 47.8094 129.792 C 55.2811 127.857 40.2487 121.12 47.7203 119.185 L 50.3763 118.556 C 42.8489 120.262 57.7716 127.212 50.3 129.147 Z M 45.7324 130.33 C 53.2041 128.395 38.1717 121.657 45.6433 119.723 L 48.1339 119.078 C 40.6622 121.012 55.6946 127.75 48.223 129.685 Z M 43.6554 130.868 C 51.127 128.933 36.0946 122.195 43.5663 120.26 L 46.0568 119.616 C 38.5852 121.55 53.6176 128.288 46.1459 130.223 Z M 41.5784 131.405 C 49.05 129.471 34.0176 122.733 41.4893 120.798 L 43.9798 120.153 C 36.5082 122.088 51.5406 128.826 44.0689 130.761 Z M 39.6397 131.958 C 47.0604 129.835 31.9406 123.271 39.4122 121.336 L 41.9028 120.691 C 34.4311 122.626 49.4635 129.364 41.9919 131.298 Z M 37.5768 132.548 C 44.9976 130.425 29.7995 124.068 37.2202 121.946 L 39.8258 121.229 C 32.3541 123.164 47.4711 129.718 40.0504 131.84 Z M 35.5139 133.138 C 42.9347 131.015 27.7366 124.658 35.1574 122.536 L 37.631 121.828 C 30.2102 123.951 45.4083 130.308 37.9875 132.43 Z M 33.4511 133.728 C 40.8718 131.605 25.6738 125.249 33.0945 123.126 L 35.5681 122.418 C 28.1473 124.541 43.3454 130.898 35.9246 133.02 Z M 31.4387 134.304 C 38.8375 132.106 23.6109 125.839 31.0316 123.716 L 33.5052 123.008 C 26.0845 125.131 41.2825 131.488 33.8618 133.61 Z M 29.3819 134.915 C 36.7807 132.717 21.548 126.429 28.9688 124.306 L 31.4423 123.598 C 24.0216 125.721 39.2196 132.078 31.7989 134.2 Z M 27.3251 135.526 C 34.7239 133.328 19.4617 127.126 26.8605 124.928 L 29.3795 124.189 C 21.9587 126.311 37.1902 132.595 29.7914 134.793 Z M 25.2683 136.137 C 32.6671 133.939 17.4049 127.737 24.8038 125.539 L 27.27 124.806 C 19.8712 127.004 35.1334 133.206 27.7346 135.404 Z M 23.2115 136.748 C 30.6104 134.55 15.3482 128.348 22.747 126.15 L 25.2133 125.417 C 17.8144 127.615 33.0766 133.817 25.6778 136.015 Z M 21.1547 137.359 C 28.5536 135.161 13.2914 128.959 20.6902 126.761 L 23.1565 126.028 C 15.7577 128.226 31.0198 134.428 23.621 136.626 Z M 19.0829 137.969 C 26.4877 135.791 11.2346 129.57 18.6334 127.372 L 21.0997 126.639 C 13.7009 128.838 28.9631 135.039 21.5642 137.237 Z M 17.0244 138.574 C 24.4292 136.396 9.1842 130.153 16.589 127.975 L 19.0429 127.25 C 11.6441 129.449 26.8975 135.671 19.4927 137.848 Z M 14.966 139.18 C 22.3708 137.002 7.12575 130.758 14.5306 128.581 L 16.9988 127.855 C 9.59402 130.032 24.8391 136.276 17.4342 138.454 Z M 12.9075 139.785 C 20.3123 137.607 5.0673 131.364 12.4721 129.186 L 14.9404 128.46 C 7.53557 130.638 22.7806 136.881 15.3758 139.059 Z M 10.8491 140.39 C 18.2539 138.213 3.00886 131.969 10.4137 129.791 L 12.8819 129.065 C 5.47712 131.243 20.7222 137.487 13.3173 139.664 Z M 8.71141 140.996 C 16.1476 138.928 0.950408 132.574 8.35522 130.397 L 10.8235 129.671 C 3.41868 131.848 18.6637 138.092 11.2589 140.27 Z M 6.64425 141.571 C 14.0804 139.503 -1.07027 133.034 6.36588 130.966 L 8.76505 130.276 C 1.36023 132.454 16.5591 138.814 9.12296 140.881 Z M 4.57709 142.145 C 12.0133 140.078 -3.13743 133.609 4.29872 131.541 L 6.77744 130.852 C -0.658715 132.92 14.492 139.388 7.05581 141.456 Z M 2.50994 142.72 C 9.94609 140.652 -5.20458 134.184 2.23156 132.116 L 4.71028 131.427 C -2.72587 133.495 12.4248 139.963 4.98865 142.031 Z M 0.44278 143.295 C 7.87894 141.227 -7.27174 134.759 0.164405 132.691 L 2.64313 132.002 C -4.79303 134.069 10.3576 140.538 2.92149 142.606 Z M -1.72091 143.88 C 5.75257 141.951 -9.3389 135.334 -1.90275 133.266 L 0.57597 132.576 C -6.86019 134.644 8.29049 141.113 0.854335 143.181 Z M -3.79844 144.417 C 3.67504 142.488 -11.3526 135.738 -3.87909 133.809 L -1.49119 133.151 C -8.92734 135.219 6.16619 141.845 -1.30729 143.774 Z M -5.87598 144.953 C 1.5975 143.024 -13.4301 136.274 -5.95663 134.345 L -3.55835 133.726 C -10.9945 135.794 4.08866 142.381 -3.38482 144.31 Z M -8.04267 145.485 C -0.538199 143.68 -15.5076 136.81 -8.03416 134.881 L -5.54299 134.238 C -13.0165 136.167 2.01112 142.917 -5.46235 144.846 Z M -10.1288 145.986 C -2.62435 144.182 -17.5376 137.183 -10.0332 135.379 L -7.62053 134.775 C -15.094 136.703 -0.122863 143.581 -7.62733 145.385 Z M -12.3156 146.508 C -4.7767 144.854 -19.6238 137.685 -12.1193 135.881 L -9.61781 135.279 C -17.1223 137.083 -2.20901 144.082 -9.71348 145.887 Z M -14.4114 146.968 C -6.87242 145.314 -21.7099 138.186 -14.2055 136.382 L -11.704 135.781 C -19.2084 137.585 -4.29516 144.584 -11.7996 146.388 Z M -16.5071 147.428 C -8.96815 145.774 -23.7388 138.479 -16.1998 136.825 L -13.7901 136.282 C -21.2946 138.087 -6.45518 145.222 -13.9941 146.877 Z M -18.7255 147.891 C -11.1498 146.415 -25.8345 138.939 -18.2956 137.285 L -15.7826 136.733 C -23.3215 138.387 -8.55091 145.682 -16.0898 147.336 Z M -20.8314 148.302 C -13.2558 146.825 -27.8509 139.186 -20.2752 137.709 L -17.8783 137.193 C -25.4172 138.847 -10.7306 146.333 -18.3062 147.81 Z M -22.9374 148.712 C -15.3617 147.236 -29.9568 139.596 -22.3812 138.119 L -19.8559 137.627 C -27.4316 139.104 -12.8365 146.743 -20.4122 148.22 Z M -25.1898 149.102 C -17.5768 147.832 -32.0627 140.007 -24.4871 138.53 L -21.9619 138.038 C -29.5375 139.514 -14.9424 147.154 -22.5181 148.631 Z M -27.3062 149.455 C -19.6931 148.185 -34.0742 140.15 -26.4612 138.881 L -24.0678 138.448 C -31.6435 139.925 -17.1554 147.762 -24.7685 149.031 Z M -29.5843 149.817 C -21.9352 148.788 -36.1905 140.503 -28.5775 139.233 L -26.0398 138.81 C -33.6529 140.08 -19.2718 148.115 -26.8848 149.384 Z M -31.7106 150.104 C -24.0616 149.074 -38.1833 140.592 -30.5342 139.562 L -28.1561 139.163 C -35.7692 140.433 -21.5119 148.731 -29.1609 149.76 Z M -33.837 150.39 C -26.1879 149.36 -40.3096 140.878 -32.6606 139.848 L -30.2725 139.516 C -37.8855 140.786 -23.6382 149.017 -31.2873 150.047 Z M -36.1521 150.649 C -28.4712 149.893 -42.436 141.164 -34.7869 140.134 L -32.2372 139.791 C -39.8863 140.821 -25.7646 149.303 -33.4136 150.333 Z M -38.2873 150.858 C -30.6064 150.103 -44.415 141.121 -36.7341 140.365 L -34.3636 140.077 C -42.0126 141.107 -28.0461 149.851 -35.727 150.607 Z M -40.6319 151.075 C -32.9267 150.632 -46.5502 141.331 -38.8693 140.575 L -36.3089 140.324 C -43.9899 141.079 -30.1813 150.061 -37.8622 150.817 Z M -42.7738 151.198 C -35.0686 150.755 -48.6854 141.541 -41.0045 140.785 L -38.4441 140.534 C -46.1251 141.289 -32.3165 150.271 -39.9974 151.027 Z M -44.9157 151.321 C -37.2106 150.878 -50.6424 141.342 -42.9373 140.9 L -40.5794 140.744 C -48.2603 141.499 -34.6422 150.731 -42.3474 151.173 Z M -47.2332 151.406 C -39.517 151.224 -52.7844 141.465 -45.0792 141.023 L -42.5108 140.875 C -50.216 141.318 -36.7841 150.854 -44.4893 151.296 Z M -49.5034 151.438 C -41.7852 151.444 -54.7649 141.29 -47.0488 141.108 L -44.6528 140.998 C -52.3579 141.441 -39.09 151.214 -46.8061 151.396 Z M -51.7813 151.426 C -44.0658 151.63 -56.7871 141.142 -49.0689 141.147 L -46.6218 141.098 C -54.3379 141.28 -41.358 151.444 -49.0763 151.438 Z M -53.9261 151.369 C -46.2106 151.573 -58.9327 141.14 -51.2144 141.146 L -48.7668 141.148 C -56.4829 141.33 -43.5036 151.442 -51.2218 151.437 Z M -56.2086 151.251 C -48.5015 151.665 -60.9424 140.889 -53.2269 141.093 L -50.7872 141.146 C -58.5055 141.141 -45.7836 151.584 -53.4991 151.38 Z M -58.4953 151.08 C -50.8033 151.715 -62.9371 140.584 -55.2301 140.998 L -52.7998 141.104 C -60.5154 140.9 -48.0749 151.688 -55.782 151.274 Z M -60.785 150.853 C -53.1158 151.72 -64.9148 140.224 -57.2228 140.859 L -54.8035 141.021 C -62.5106 140.607 -50.3776 151.75 -58.0696 151.115 Z M -63.0761 150.565 C -55.4384 151.676 -66.8732 139.807 -59.2039 140.675 L -56.7971 140.894 C -64.4891 140.259 -52.6913 151.768 -60.3606 150.901 Z M -65.3667 150.216 C -57.7704 151.581 -68.8098 139.332 -61.1721 140.443 L -58.7795 140.723 C -66.4487 139.855 -55.0157 151.738 -62.6534 150.627 Z M -67.6546 149.8 C -60.1107 151.43 -70.933 139.023 -63.2952 140.134 L -60.9114 140.482 C -68.5807 139.614 -57.1389 151.429 -64.7766 150.318 Z M -69.7517 149.347 C -62.2078 150.977 -72.8338 138.418 -65.2375 139.783 L -62.8725 140.196 C -70.5103 139.085 -59.4616 151.277 -67.058 149.912 Z M -72.0164 148.785 C -64.537 150.69 -74.7046 137.748 -67.1607 139.378 L -64.817 139.859 C -72.4134 138.493 -61.7903 151.067 -69.3342 149.437 Z M -74.2691 148.149 C -66.8676 150.336 -76.5425 137.014 -69.0632 138.918 L -66.7432 139.468 C -74.2871 137.838 -64.1231 150.795 -71.6024 148.891 Z M -76.5063 147.436 C -69.197 149.913 -78.3444 136.214 -70.9429 138.401 L -68.6492 139.023 C -76.1286 137.119 -66.458 150.457 -73.8595 148.27 Z M -78.7242 146.643 C -71.5222 149.417 -80.1073 135.349 -72.7979 137.827 L -70.5332 138.522 C -77.9347 136.335 -68.7925 150.051 -76.1018 147.573 Z M -80.9185 145.769 C -73.8398 148.844 -81.8284 134.419 -74.6264 137.194 L -72.3934 137.964 C -79.7027 135.486 -71.1236 149.571 -78.3256 146.796 Z M -83.0849 144.814 C -76.1458 148.192 -83.5052 133.426 -76.4265 136.501 L -74.4253 137.275 C -81.7346 134.797 -73.448 149.015 -80.5267 145.939 Z M -85.0139 143.874 C -78.0748 147.253 -85.473 132.571 -78.3943 135.646 L -76.2299 136.576 C -83.4319 133.802 -75.4158 148.16 -82.4945 145.085 Z M -87.1045 142.752 C -80.3216 146.434 -87.0644 131.431 -80.1253 134.809 L -78.0025 135.816 C -85.0812 132.741 -77.6907 147.44 -84.6299 144.061 Z M 155.658 125.5 C 154.828 133.173 166.442 121.491 165.612 129.164 L 165.335 131.722 C 166.166 124.049 154.551 135.73 155.381 128.057 Z M 155.974 123.205 C 154.89 130.846 166.673 119.358 165.843 127.031 L 165.566 129.589 C 166.396 121.916 154.782 133.597 155.612 125.924 Z M 156.329 120.962 C 155.059 128.575 167.188 117.432 166.103 125.074 L 165.797 127.456 C 166.627 119.783 154.83 131.269 155.914 123.628 Z M 156.729 118.717 C 155.26 126.295 167.68 115.464 166.41 123.077 L 166.043 125.497 C 167.128 117.855 154.989 128.996 156.259 121.383 Z M 157.176 116.471 C 155.494 124.004 168.219 113.518 166.75 121.095 L 166.339 123.499 C 167.61 115.886 155.179 126.714 156.647 119.137 Z M 157.643 114.377 C 155.962 121.91 168.627 111.412 167.159 118.989 L 166.669 121.515 C 168.138 113.937 155.587 124.608 157.056 117.03 Z M 158.203 112.145 C 156.295 119.624 169.275 109.503 167.594 117.036 L 167.077 119.408 C 168.546 111.831 155.869 122.327 157.55 114.794 Z M 158.822 109.916 C 156.67 117.328 169.978 107.626 168.069 115.104 L 167.501 117.453 C 169.182 109.92 156.189 120.038 158.098 112.559 Z M 159.481 107.735 C 157.138 115.089 170.738 105.784 168.586 113.196 L 167.963 115.518 C 169.872 108.039 156.551 117.738 158.703 110.326 Z M 160.189 105.545 C 157.625 112.825 171.5 103.913 169.157 111.266 L 168.467 113.606 C 170.619 106.194 157.008 115.496 159.352 108.142 Z M 160.902 103.522 C 158.338 110.801 172.152 101.868 169.808 109.222 L 169.027 111.673 C 171.371 104.32 157.66 113.451 160.003 106.097 Z M 161.768 101.312 C 158.883 108.47 173.031 100.065 170.466 107.344 L 169.679 109.629 C 172.022 102.275 158.196 111.204 160.76 103.925 Z M 162.715 99.1304 C 159.509 106.151 174.038 98.3968 171.152 105.555 L 170.324 107.747 C 172.889 100.468 158.723 108.866 161.608 101.708 Z M 163.737 96.9918 C 160.226 103.865 175.105 96.7742 171.898 103.794 L 170.993 105.951 C 173.878 98.793 159.331 106.539 162.538 99.5189 Z M 164.829 94.8969 C 161.031 101.616 176.217 95.1798 172.707 102.053 L 171.72 104.183 C 174.927 97.1628 160.032 104.245 163.543 97.3722 Z M 165.885 93.0292 C 162.087 99.748 177.193 93.2691 173.683 100.142 L 172.612 102.231 C 175.818 95.2113 161.008 102.335 164.518 95.4616 Z M 167.12 91.0234 C 163.051 97.5815 178.431 91.7461 174.633 98.4649 L 173.488 100.523 C 176.999 93.6495 161.877 100.12 165.675 93.401 Z M 168.415 89.0639 C 164.09 95.4561 179.708 90.2537 175.639 96.8118 L 174.423 98.8367 C 178.221 92.1179 162.826 97.9444 166.895 91.3863 Z M 169.766 87.1508 C 165.199 93.3727 181.023 88.7923 176.698 95.1845 L 175.414 97.1748 C 179.483 90.6166 163.85 95.8099 168.175 89.4176 Z M 171.172 85.2843 C 166.377 91.332 182.376 87.3624 177.809 93.5843 L 176.459 95.5383 C 180.784 89.146 164.947 93.7171 169.513 87.4952 Z M 172.612 83.483 C 167.63 89.3782 183.765 85.9648 178.97 92.0125 L 177.556 93.9286 C 182.123 87.7067 166.111 91.6667 170.906 85.619 Z M 173.997 81.8443 C 169.015 87.7394 185.098 84.2836 180.303 90.3313 L 178.826 92.199 C 183.393 85.9771 167.444 89.9855 172.239 83.9378 Z M 175.512 80.1302 C 170.369 85.8853 186.563 82.9177 181.581 88.8129 L 180.038 90.666 C 184.833 84.6183 168.739 88.0657 173.721 82.1705 Z M 177.073 78.4391 C 171.758 84.0352 188.043 81.5507 182.901 87.3058 L 181.305 89.1392 C 186.287 83.244 170.084 86.2038 175.227 80.4487 Z M 178.684 76.7738 C 173.185 82.1896 189.556 80.24 184.241 85.836 L 182.616 87.6243 C 187.759 81.8692 171.464 84.3449 176.779 78.7488 Z M 180.212 75.2682 C 174.714 80.684 191.099 78.9895 185.601 84.4053 L 183.946 86.1458 C 189.262 80.5497 172.881 82.4893 178.38 77.0735 Z M 181.929 73.6882 C 176.236 78.9001 192.628 77.484 187.129 82.8998 L 185.424 84.5901 C 190.739 78.994 174.409 80.9838 179.908 75.568 Z M 183.703 72.1475 C 177.808 77.1291 194.255 76.3547 188.563 81.5666 L 186.825 83.1996 C 192.324 77.7837 175.921 79.1885 181.614 73.9766 Z M 185.537 70.6508 C 179.432 75.3731 195.913 75.3015 190.019 80.2831 L 188.248 81.855 C 193.94 76.6432 177.482 77.4048 183.376 72.4232 Z M 187.434 69.2035 C 181.115 73.6348 197.6 74.3292 191.495 79.0515 L 189.692 80.5588 C 195.587 75.5772 179.094 75.6345 185.199 70.9122 Z M 189.19 67.9717 C 182.872 72.403 199.297 73.0164 193.192 77.7387 L 191.331 79.174 C 197.226 74.1924 180.791 74.3218 186.896 69.5994 Z M 191.148 66.6856 C 184.664 70.8717 201.068 72.2106 194.749 76.6419 L 192.854 78.0001 C 198.959 73.2778 182.522 72.6482 188.841 68.2169 Z M 192.951 65.5219 C 186.466 69.708 202.855 71.3766 196.371 75.5627 L 194.399 76.8872 C 200.718 72.4559 184.305 71.1034 190.789 66.9173 Z M 194.948 64.2842 C 188.302 68.2092 204.657 70.2129 198.173 74.3991 L 196.012 75.7944 C 202.496 71.6083 186.108 69.9397 192.592 65.7536 Z M 197.006 63.1061 C 190.195 66.7351 206.459 69.4372 199.813 73.3621 L 197.814 74.6307 C 204.298 70.4446 187.935 68.4264 194.58 64.5015 Z M 199.131 61.9936 C 192.149 65.2826 208.279 68.7594 201.467 72.3885 L 199.446 73.5793 C 206.091 69.6544 189.818 66.936 196.629 63.3069 Z M 201.072 61.0793 C 194.09 64.3683 210.172 67.7506 203.361 71.3796 L 201.293 72.4883 C 207.938 68.5633 191.711 65.9272 198.522 62.2981 Z M 203.219 60.1033 C 196.106 63.1001 212.052 67.2814 205.071 70.5704 L 202.984 71.5805 C 209.795 67.9514 193.704 64.5504 200.685 61.2614 Z M 205.373 59.2322 C 198.161 61.9801 213.933 66.7557 206.821 69.7526 L 204.684 70.7525 C 211.666 67.4635 195.712 63.266 202.825 60.2691 Z M 207.588 58.4405 C 200.271 60.8964 215.85 66.2528 208.638 69.0007 L 206.625 69.8382 C 213.607 66.5492 197.762 62.1322 204.974 59.3843 Z M 209.763 57.7369 C 202.381 59.9918 217.774 65.8763 210.457 68.3322 L 208.239 69.1528 C 215.451 66.4049 199.866 61.0323 207.183 58.5764 Z M 211.937 57.0898 C 204.504 59.1672 219.743 65.449 212.361 67.7039 L 210.052 68.4681 C 217.369 66.0122 201.973 60.1166 209.354 57.8617 Z M 214.192 56.5041 C 206.689 58.3148 221.729 65.0382 214.296 67.1157 L 211.952 67.8287 C 219.334 65.5738 204.093 59.2822 211.526 57.2048 Z M 216.468 56.0163 C 208.906 57.5591 223.693 64.7973 216.19 66.6079 L 214.004 67.2018 C 221.386 64.9469 206.274 58.415 213.776 56.6044 Z M 218.946 55.6139 C 211.294 56.6158 225.669 64.6419 218.107 66.1847 L 215.775 66.7081 C 223.278 64.8975 208.487 57.6445 216.049 56.1017 Z M 221.26 55.3464 C 213.577 56.0739 227.652 64.5731 220.04 65.8466 L 217.688 66.2701 C 225.25 64.7273 210.73 56.9704 218.342 55.6969 Z M 223.585 55.1795 C 215.881 55.629 229.489 64.9041 221.805 65.6316 L 219.619 65.9171 C 227.231 64.6436 213.151 56.1142 220.835 55.3867 Z M 226.101 55.1215 C 218.384 55.0147 231.463 65.0282 223.758 65.4777 L 221.38 65.6719 C 229.063 64.9444 215.454 55.6539 223.159 55.2044 Z M 228.435 55.1802 C 220.727 54.7897 233.43 65.2454 225.714 65.4126 L 223.332 65.5026 C 231.037 65.0531 217.775 55.2915 225.491 55.1243 Z M 230.786 55.3464 C 223.101 54.6384 235.195 65.8265 227.487 65.436 L 225.287 65.4219 C 233.003 65.2547 220.3 54.7681 228.008 55.1586 Z M 233.15 55.6363 C 225.506 54.5754 237.102 66.2623 229.417 65.5543 L 227.25 65.4291 C 234.967 65.5359 222.675 54.5992 230.361 55.3072 Z M 235.802 56.1361 C 228.317 54.2594 238.957 66.8311 231.312 65.7702 L 228.991 65.5151 C 236.677 66.2231 225.083 54.5167 232.727 55.5776 Z M 238.182 56.7765 C 230.828 54.4379 240.746 67.5441 233.166 66.0937 L 230.889 65.7114 C 238.534 66.7723 227.52 54.5366 235.1 55.987 Z M 240.535 57.6036 C 233.357 54.7709 242.011 68.7913 234.657 66.4527 L 232.746 66.0134 C 240.326 67.4638 230.421 54.3085 237.775 56.647 Z M 242.779 58.5834 C 235.779 55.3313 243.539 69.8503 236.361 67.0177 L 234.552 66.431 C 242.038 68.3077 232.959 54.6141 240.137 57.4468 Z M 245.107 59.8308 C 238.454 55.919 245.054 70.9876 238.055 67.7356 L 235.963 66.8609 C 243.141 69.6936 235.392 55.1513 242.391 58.4034 Z M 247.141 61.1105 C 240.694 56.8693 246.176 72.3966 239.523 68.4848 L 237.668 67.5556 C 244.667 70.8076 238.086 55.7025 244.739 59.6143 Z M 249.437 62.8439 C 243.657 57.7311 247.577 73.7141 241.13 69.4728 L 239.369 68.4018 C 246.206 71.9829 240.337 56.6346 246.784 60.8758 Z M 251.308 64.5334 C 245.916 59.0122 248.572 75.2496 242.51 70.4733 L 240.773 69.2381 C 247.22 73.4793 242.816 57.6137 248.878 62.39 Z M 253.037 66.3561 C 248.055 60.4632 249.687 76.8014 243.907 71.6887 L 242.174 70.209 C 248.237 74.9853 244.944 58.8694 250.724 63.9822 Z M 254.619 68.2972 C 250.06 62.0706 250.537 78.4721 245.146 72.9509 L 243.587 71.4057 C 249.367 76.5185 247.117 60.2414 252.508 65.7626 Z M 256.015 70.3344 C 251.859 63.8316 250.623 80.2575 246.064 74.031 L 244.848 72.6453 C 250.239 78.1665 249.807 61.726 254.366 67.9526 Z M 257.36 72.6682 C 253.921 65.7592 251.27 82.0183 247.115 75.5155 L 246.014 73.985 C 250.996 79.8779 251.629 63.4717 255.785 69.9745 Z M 258.408 74.8752 C 255.376 67.779 251.843 83.8361 248.062 77.1084 L 246.885 75.1556 C 251.04 81.6584 253.251 65.339 257.032 72.0668 Z M 259.296 77.1922 C 256.735 69.9123 251.811 85.6217 248.779 78.5255 L 247.853 76.736 C 251.634 83.4638 255.208 67.3862 258.241 74.4824 Z M 260.043 79.8138 C 258.319 72.2911 252.009 87.4838 249.448 80.204 L 248.723 78.4098 C 252.163 85.3188 256.594 69.5094 259.155 76.7893 Z M 260.524 82.1609 C 259.17 74.5629 252.109 89.3827 249.984 81.9636 L 249.306 79.801 C 251.867 87.0809 257.751 71.7112 259.876 79.1304 Z M 260.884 84.7199 C 260.182 77.0338 251.673 91.1441 250.318 83.5461 L 249.866 81.553 C 251.991 88.9721 259.095 74.1424 260.449 81.7404 Z M 261.065 87.0521 C 260.654 79.345 251.622 93.0909 250.607 85.4401 L 250.243 83.1256 C 251.598 90.7236 259.793 76.4362 260.808 84.0871 Z M 261.128 89.4115 C 261.04 81.6942 251.177 94.8806 250.766 87.1736 L 250.551 85.0166 C 251.565 92.6675 260.631 78.9185 261.042 86.6255 Z M 261.079 91.7943 C 261.349 84.0812 250.922 96.8194 250.834 89.1022 L 250.753 86.941 C 251.454 94.627 261.035 81.2671 261.123 88.9844 Z M 260.918 94.1622 C 261.529 86.4685 250.541 98.7217 250.81 91.0086 L 250.829 88.6751 C 250.917 96.3923 261.363 83.6543 261.094 91.3674 Z M 260.651 96.5107 C 261.588 88.8499 250.083 100.615 250.694 92.9217 L 250.825 90.5817 C 250.556 98.2948 261.563 86.0427 260.952 93.7364 Z M 260.283 98.8355 C 261.53 91.219 249.551 102.498 250.488 94.8371 L 250.728 92.4959 C 250.117 100.189 261.64 88.426 260.702 96.0867 Z M 259.816 101.16 C 261.395 93.6052 248.95 104.368 250.197 96.7518 L 250.54 94.4131 C 249.603 102.074 261.599 90.7974 260.352 98.414 Z M 259.233 103.492 C 261.19 96.0263 248.252 106.191 249.831 98.6362 L 250.266 96.3303 C 249.019 103.947 261.482 93.1871 259.903 100.742 Z M 258.516 105.823 C 260.897 98.4824 247.43 107.934 249.387 100.469 L 249.918 98.2181 C 248.339 105.773 261.298 95.6132 259.341 103.078 Z M 257.678 108.104 C 260.462 100.906 246.479 109.583 248.86 102.242 L 249.496 100.056 C 247.539 107.521 261.029 98.0762 258.648 105.417 Z M 256.794 110.34 C 259.937 103.291 245.451 111.192 248.235 103.994 L 248.992 101.836 C 246.611 109.177 260.616 100.508 257.832 107.706 Z M 255.92 112.299 C 259.063 105.251 244.677 113.193 247.461 105.995 L 248.389 103.595 C 245.605 110.793 259.842 102.509 257.058 109.707 Z M 254.878 114.478 C 258.387 107.604 243.553 114.767 246.696 107.718 L 247.615 105.596 C 244.831 112.794 259.237 104.861 256.094 111.909 Z M 253.902 116.388 C 257.411 109.515 242.398 116.292 245.907 109.419 L 246.87 107.328 C 243.727 114.377 258.581 107.224 255.072 114.097 Z M 252.7 118.493 C 256.575 111.819 241.422 118.203 244.931 111.329 L 246.101 109.038 C 242.592 115.912 257.605 109.134 254.096 116.008 Z M 251.421 120.593 C 255.697 114.168 240.14 119.63 244.016 112.956 L 245.126 110.949 C 241.617 117.822 256.79 111.449 252.914 118.123 Z M 250.123 122.484 C 254.583 116.184 238.815 120.96 243.091 114.535 L 244.23 112.586 C 240.355 119.26 255.933 113.813 251.657 120.237 Z M 248.915 124.207 C 253.324 117.872 237.51 122.488 241.97 116.188 L 243.153 114.442 C 239.277 121.115 254.829 115.835 250.369 122.135 Z M 247.957 125.686 C 251.884 119.042 236.303 124.312 240.712 117.977 L 242.217 115.84 C 237.757 122.139 253.568 117.521 249.159 123.856 Z M 199.75 81.1176 C 193.635 76.4084 197.548 92.4108 191.433 87.7016 L 189.395 86.1319 C 195.51 90.8411 191.597 74.8387 197.712 79.5478 Z M 201.503 82.4968 C 195.466 77.6875 199.248 93.7199 193.133 89.0107 L 191.095 87.441 C 197.21 92.1502 193.297 76.1477 199.412 80.8569 Z M 203.181 83.8337 C 197.144 79.0244 200.793 95.089 194.757 90.2797 L 192.795 88.7501 C 198.91 93.4593 195.132 77.4213 201.169 82.2306 Z M 204.859 85.1707 C 198.823 80.3613 202.472 96.426 196.435 91.6167 L 194.422 90.0136 C 200.459 94.8229 196.81 78.7582 202.847 83.5676 Z M 206.6 86.6126 C 200.673 81.6697 204.15 97.7629 198.113 92.9536 L 196.101 91.3505 C 202.137 96.1598 198.489 80.0952 204.525 84.9045 Z M 208.248 87.9867 C 202.32 83.0438 205.609 99.1857 199.682 94.2428 L 197.779 92.6874 C 203.816 97.4967 200.344 81.3961 206.272 86.3391 Z M 210.003 89.4602 C 204.217 84.3515 207.257 100.56 201.329 95.6169 L 199.353 93.9692 C 205.281 98.9122 201.992 82.7702 207.92 87.7132 Z M 211.611 90.8804 C 205.826 85.7716 208.905 101.934 202.977 96.9909 L 201.001 95.3433 C 206.929 100.286 203.64 84.1443 209.568 89.0872 Z M 213.219 92.3005 C 207.434 87.1918 210.264 103.42 204.479 98.3115 L 202.649 96.7174 C 208.577 101.66 205.505 85.4889 211.291 90.5976 Z M 214.942 93.8577 C 209.336 88.5531 211.873 104.84 206.087 99.7316 L 204.159 98.0287 C 209.944 103.137 207.114 86.909 212.899 92.0178 Z M 216.5 95.3323 C 210.894 90.0277 213.165 106.344 207.559 101.039 L 205.767 99.4489 C 211.552 104.558 209.026 88.2595 214.632 93.5641 Z M 218.059 96.8069 C 212.453 91.5023 214.723 107.818 209.117 102.514 L 207.375 100.869 C 213.161 105.978 210.584 89.7341 216.19 95.0387 Z M 219.732 98.4625 C 214.347 92.9346 216.282 109.293 210.676 103.988 L 208.807 102.22 C 214.413 107.525 212.142 91.2087 217.749 96.5133 Z M 221.23 99.9991 C 215.844 94.4713 217.45 110.866 212.064 105.338 L 210.365 103.695 C 215.972 108.999 214.049 92.6287 219.434 98.1565 Z M 222.727 101.536 C 217.341 96.0079 218.947 112.402 213.561 106.874 L 211.766 105.032 C 217.152 110.56 215.546 94.1653 220.932 99.6932 Z M 224.304 103.241 C 219.111 97.5305 220.444 113.939 215.058 108.411 L 213.263 106.568 C 218.649 112.096 217.043 95.702 222.429 101.23 Z M 225.817 104.939 C 220.769 99.1003 221.595 115.559 216.403 109.848 L 214.76 108.105 C 220.146 113.633 218.824 97.2145 224.016 102.925 Z M 227.308 106.667 C 222.417 100.696 222.801 117.185 217.753 111.346 L 216.115 109.532 C 221.308 115.243 220.49 98.7771 225.538 104.616 Z M 228.667 108.327 C 223.777 102.356 224.204 118.808 219.156 112.969 L 217.559 111.12 C 222.751 116.83 221.893 100.4 226.941 106.239 Z M 230.087 110.125 C 225.367 104.018 225.326 120.489 220.435 114.518 L 218.877 112.646 C 223.924 118.485 223.506 102.026 228.397 107.997 Z M 231.492 111.978 C 226.99 105.71 226.404 122.187 221.684 116.08 L 220.164 114.187 C 225.055 120.158 225.106 103.68 229.826 109.787 Z M 232.816 113.912 C 228.559 107.475 227.388 123.903 222.885 117.635 L 221.423 115.742 C 226.142 121.849 226.741 105.363 231.243 111.632 Z M 234.049 115.975 C 230.121 109.333 228.254 125.67 223.997 119.233 L 222.735 117.44 C 227.455 123.546 228.323 107.119 232.58 113.556 Z M 235.208 118.107 C 231.649 111.259 228.903 127.488 224.975 120.846 L 223.761 118.876 C 228.019 125.314 229.904 108.965 233.832 115.608 Z M 236.254 120.21 C 232.969 113.226 229.441 129.322 225.881 122.474 L 224.758 120.478 C 228.686 127.121 231.452 110.88 235.011 117.728 Z M 237.211 122.286 C 234.117 115.215 230.046 131.188 226.76 124.204 L 225.684 122.095 C 229.244 128.943 232.787 112.84 236.072 119.824 Z M 238.071 124.251 C 234.977 117.18 230.706 133.091 227.612 126.02 L 226.579 123.818 C 229.864 130.802 233.946 114.823 237.04 121.894 Z M 238.911 126.164 C 235.739 119.128 231.567 135.056 228.472 127.986 L 227.492 125.759 C 230.777 132.743 234.806 116.789 237.9 123.86 Z M 239.708 127.917 C 236.239 121.023 232.427 137.022 229.332 129.951 L 228.301 127.594 C 231.395 134.665 235.666 118.755 238.76 125.825 Z M 240.561 129.556 C 236.7 122.873 233.407 138.996 230.235 131.96 L 229.161 129.56 C 232.255 136.631 236.445 120.694 239.617 127.731 Z M 241.634 131.414 C 237.774 124.731 235.298 141.017 231.437 134.334 L 230.059 131.57 C 233.231 138.607 236.487 122.504 240.347 129.186 Z M 242.663 133.006 C 238.482 126.519 236.371 142.874 232.51 136.192 L 231.097 133.695 C 234.566 140.589 237.56 124.361 241.421 131.044 Z M 243.741 134.543 C 239.229 128.282 237.963 144.708 233.782 138.221 L 232.297 135.822 C 236.157 142.504 238.251 126.16 242.432 132.647 Z M 244.872 136.021 C 240.022 130.018 239.654 146.474 235.143 140.213 L 233.551 137.862 C 237.732 144.349 238.979 127.936 243.491 134.197 Z M 246.061 137.432 C 240.87 131.721 241.45 148.158 236.6 142.155 L 234.893 139.866 C 239.405 146.127 239.754 129.686 244.604 135.689 Z M 247.312 138.769 C 241.783 133.385 243.351 149.747 238.16 144.037 L 236.331 141.823 C 241.181 147.826 240.583 131.405 245.774 137.116 Z M 248.628 140.025 C 242.77 135.001 245.357 151.227 239.828 145.843 L 237.679 143.492 C 242.529 149.495 241.477 133.087 247.006 138.471 Z M 250.011 141.193 C 243.84 136.56 247.464 152.581 241.606 147.558 L 239.315 145.308 C 244.506 151.019 242.446 134.723 248.304 139.747 Z M 251.463 142.267 C 244.999 138.051 249.092 153.978 243.234 148.954 L 241.059 147.041 C 246.588 152.425 244.075 136.12 249.932 141.144 Z M 252.981 143.24 C 246.253 139.462 251.38 155.087 245.208 150.454 L 242.91 148.676 C 248.768 153.7 245.214 137.592 251.386 142.225 Z M 254.565 144.109 C 247.603 140.781 253.744 156.04 247.281 151.824 L 244.867 150.197 C 251.038 154.83 246.438 138.99 252.902 143.206 Z M 256.211 144.869 C 249.048 141.997 256.705 156.536 249.742 153.208 L 246.923 151.591 C 253.386 155.807 247.217 140.596 254.18 143.924 Z M 257.913 145.52 C 250.584 143.101 259.147 157.132 251.984 154.26 L 249.069 152.844 C 255.797 156.623 248.651 141.838 255.814 144.71 Z M 259.666 146.063 C 252.206 144.088 261.611 157.576 254.282 155.157 L 251.292 153.949 C 258.255 157.277 250.179 142.967 257.507 145.386 Z M 261.466 146.5 C 253.905 144.953 264.081 157.875 256.62 155.901 L 253.579 154.9 C 260.742 157.772 251.793 143.979 259.254 145.953 Z M 263.304 146.835 C 255.671 145.695 266.546 158.042 258.985 156.495 L 255.914 155.696 C 263.242 158.115 253.486 144.867 261.047 146.414 Z M 265.177 147.073 C 257.496 146.316 268.995 158.089 261.362 156.949 L 258.281 156.34 C 265.742 158.315 255.249 145.632 262.882 146.772 Z M 267.078 147.221 C 259.371 146.82 271.423 158.029 263.742 157.272 L 260.94 156.886 C 268.573 158.026 257.071 146.274 264.752 147.031 Z M 269.004 147.285 C 261.286 147.212 273.824 157.877 266.116 157.476 L 263.317 157.23 C 270.998 157.987 258.944 146.798 266.652 147.199 Z M 270.949 147.272 C 263.234 147.498 276.196 157.645 268.478 157.572 L 265.69 157.453 C 273.397 157.855 260.859 147.208 268.576 147.281 Z M 272.911 147.189 C 265.209 147.686 278.538 157.346 270.823 157.571 L 268.051 157.567 C 275.769 157.641 262.807 147.511 270.522 147.285 Z M 274.888 147.041 C 267.205 147.783 280.85 156.989 273.148 157.486 L 270.396 157.584 C 278.111 157.358 264.783 147.713 272.485 147.216 Z M 276.876 146.836 C 269.218 147.796 283.134 156.584 275.451 157.326 L 272.541 157.521 C 280.255 157.295 266.78 147.824 274.462 147.082 Z M 278.874 146.579 C 271.243 147.733 285.39 156.14 277.732 157.1 L 274.863 157.375 C 282.565 156.878 268.794 147.849 276.452 146.889 Z M 280.831 146.283 C 273.241 147.684 287.519 155.873 279.861 156.833 L 277.162 157.161 C 284.844 156.419 270.923 147.582 278.581 146.622 Z M 282.941 145.894 C 275.351 147.295 289.744 155.343 282.112 156.497 L 279.437 156.886 C 287.095 155.926 272.942 147.476 280.573 146.322 Z M 285.051 145.505 C 277.461 146.905 291.978 154.69 284.388 156.091 L 281.69 156.561 C 289.321 155.407 274.931 147.372 282.521 145.972 Z M 286.977 145.097 C 279.439 146.758 294.088 154.301 286.498 155.702 L 283.968 156.169 C 291.558 154.768 277.041 146.983 284.631 145.582 Z M 289.072 144.636 C 281.535 146.296 296.311 153.579 288.773 155.239 L 286.078 155.779 C 293.668 154.379 279.022 146.85 286.56 145.189 Z M 291.039 144.185 C 283.545 146.032 298.406 153.117 290.869 154.778 L 288.356 155.331 C 295.894 153.671 281.117 146.388 288.655 144.728 Z M 293.122 143.672 C 285.628 145.519 300.581 152.432 293.087 154.279 L 290.452 154.87 C 297.989 153.209 283.13 146.135 290.624 144.287 Z M 295.205 143.158 C 287.711 145.005 302.664 151.919 295.17 153.766 L 292.547 154.408 C 300.084 152.748 285.213 145.621 292.707 143.774 Z M 297.199 142.635 C 289.736 144.605 304.747 151.405 297.253 153.252 L 294.755 153.868 C 302.249 152.021 287.296 145.108 294.79 143.26 Z M 299.273 142.088 C 291.811 144.058 306.875 150.725 299.413 152.695 L 296.839 153.355 C 304.333 151.507 289.323 144.714 296.786 142.744 Z M 301.298 141.546 C 293.854 143.589 308.95 150.177 301.487 152.147 L 298.999 152.804 C 306.462 150.834 291.398 144.167 298.86 142.197 Z M 303.367 140.978 C 295.924 143.021 311.052 149.541 303.609 151.584 L 301.074 152.256 C 308.537 150.286 293.442 143.702 300.886 141.659 Z M 305.436 140.41 C 297.993 142.453 313.122 148.973 305.678 151.016 L 303.149 151.709 C 310.611 149.739 295.512 143.134 302.955 141.091 Z M 307.505 139.843 C 300.062 141.885 315.191 148.405 307.747 150.448 L 305.266 151.129 C 312.71 149.086 297.581 142.566 305.024 140.524 Z M 309.574 139.275 C 302.131 141.317 317.26 147.837 309.817 149.88 L 307.335 150.561 C 314.779 148.518 299.65 141.998 307.093 139.956 Z M 311.69 138.696 C 304.228 140.67 319.329 147.27 311.886 149.312 L 309.405 149.993 C 316.848 147.951 301.719 141.43 309.162 139.388 Z M 313.764 138.148 C 306.302 140.121 321.398 146.702 313.955 148.744 L 311.474 149.425 C 318.917 147.383 303.788 140.863 311.231 138.82 Z M 315.838 137.599 C 308.376 139.573 323.444 146.232 315.983 148.206 L 313.543 148.857 C 320.986 146.815 305.889 140.231 313.351 138.257 Z M 317.912 137.05 C 310.451 139.024 325.518 145.683 318.057 147.657 L 315.57 148.315 C 323.031 146.341 307.963 139.682 315.425 137.708 Z M 319.986 136.502 C 312.525 138.475 327.593 145.134 320.131 147.108 L 317.644 147.766 C 325.106 145.792 310.038 139.133 317.499 137.159 Z M 322.061 135.953 C 314.599 137.927 329.667 144.586 322.205 146.56 L 319.718 147.218 C 327.18 145.244 312.112 138.585 319.574 136.611 Z M 324.252 135.404 C 316.749 137.212 331.741 144.037 324.28 146.011 L 321.792 146.669 C 329.254 144.695 314.186 138.036 321.648 136.062 Z M 326.338 134.901 C 318.835 136.71 333.752 143.7 326.248 145.509 L 323.867 146.12 C 331.328 144.146 316.334 137.312 323.837 135.504 Z M 328.424 134.399 C 320.921 136.207 335.838 143.198 328.334 145.006 L 325.833 145.609 C 333.336 143.801 318.419 136.81 325.923 135.001 Z M 330.632 133.908 C 323.089 135.547 337.923 142.695 330.42 144.503 L 327.919 145.106 C 335.422 143.298 320.505 136.307 328.009 134.499 Z M 332.728 133.452 C 325.186 135.091 339.942 142.416 332.399 144.055 L 330.005 144.603 C 337.508 142.795 322.672 135.637 330.214 133.999 Z M 334.825 132.997 C 327.283 134.636 342.038 141.961 334.496 143.599 L 331.982 144.146 C 339.524 142.507 324.769 135.182 332.311 133.543 Z M 337.076 132.57 C 329.49 133.995 344.135 141.505 336.593 143.144 L 334.079 143.69 C 341.621 142.051 326.865 134.726 334.408 133.088 Z M 339.184 132.174 C 331.599 133.599 346.141 141.337 338.556 142.763 L 336.175 143.235 C 343.717 141.596 329.07 134.074 336.656 132.649 Z M 341.466 131.755 C 333.837 132.923 348.25 140.941 340.665 142.366 L 338.136 142.842 C 345.722 141.416 331.179 133.678 338.764 132.253 Z M 343.587 131.431 C 335.957 132.598 350.359 140.545 342.773 141.97 L 340.245 142.445 C 347.83 141.02 333.288 133.282 340.873 131.856 Z M 345.707 131.106 C 338.078 132.274 352.35 140.5 344.721 141.668 L 342.354 142.049 C 349.939 140.624 335.535 132.663 343.164 131.495 Z M 348.032 130.772 C 340.362 131.638 354.471 140.176 346.842 141.343 L 344.299 141.732 C 351.928 140.565 337.656 132.338 345.285 131.171 Z M 350.164 130.531 C 342.494 131.397 356.431 140.18 348.762 141.046 L 346.42 141.408 C 354.049 140.24 339.938 131.686 347.607 130.82 Z M 352.295 130.291 C 344.626 131.157 358.563 139.939 350.894 140.805 L 348.541 141.083 C 356.17 139.916 342.07 131.445 349.739 130.579 Z M 354.598 130.053 C 346.904 130.666 360.695 139.698 353.026 140.564 L 350.469 140.853 C 358.138 139.987 344.202 131.204 351.871 130.339 Z M 356.737 129.883 C 349.043 130.495 362.683 139.733 354.989 140.346 L 352.601 140.612 C 360.27 139.746 346.478 130.7 354.172 130.087 Z M 359.001 129.745 C 351.294 130.175 364.822 139.562 357.128 140.175 L 354.733 140.371 C 362.402 139.505 348.617 130.529 356.311 129.917 Z M 361.273 129.638 C 353.558 129.874 366.853 139.615 359.147 140.044 L 356.702 140.209 C 364.396 139.596 350.868 130.199 358.574 129.769 Z M 363.417 129.572 C 355.703 129.808 368.875 139.701 361.16 139.937 L 358.72 140.068 C 366.427 139.638 353.131 129.887 360.846 129.651 Z M 365.698 129.552 C 357.98 129.585 371.02 139.636 363.305 139.872 L 360.863 139.948 C 368.569 139.519 355.276 129.821 362.99 129.585 Z M 367.986 129.565 C 360.27 129.384 373.033 139.812 365.315 139.845 L 362.878 139.885 C 370.593 139.649 357.553 129.586 365.271 129.554 Z M 370.131 129.615 C 362.415 129.434 375.034 140.024 367.318 139.843 L 364.887 139.847 C 372.606 139.814 359.843 129.374 367.559 129.555 Z M 372.422 129.723 C 364.714 129.32 377.179 140.074 369.463 139.893 L 367.033 139.837 C 374.751 139.805 361.988 129.424 369.704 129.605 Z M 374.717 129.866 C 367.024 129.233 379.166 140.38 371.458 139.977 L 369.036 139.883 C 376.752 140.064 364.288 129.298 371.995 129.7 Z M 376.855 130.042 C 369.163 129.409 381.139 140.72 373.447 140.087 L 371.032 139.955 C 378.739 140.358 366.599 129.198 374.291 129.831 Z M 379.147 130.286 C 371.478 129.415 383.277 140.896 375.585 140.263 L 373.174 140.067 C 380.882 140.47 368.737 129.374 376.429 130.007 Z M 381.439 130.567 C 373.802 129.452 385.23 141.334 377.561 140.463 L 375.159 140.228 C 382.852 140.861 371.053 129.367 378.722 130.238 Z M 383.562 130.877 C 375.925 129.762 387.167 141.803 379.529 140.688 L 377.137 140.415 C 384.805 141.286 373.379 129.39 381.016 130.505 Z M 385.844 131.263 C 378.247 129.898 389.29 142.113 381.652 140.998 L 379.268 140.657 C 386.937 141.528 375.502 129.7 383.14 130.815 Z M 388.123 131.685 C 380.577 130.066 391.2 142.681 383.603 141.316 L 381.23 140.936 C 388.867 142.052 377.827 129.822 385.423 131.187 Z M 390.221 132.135 C 382.675 130.516 393.311 143.061 385.715 141.695 L 383.183 141.24 C 390.779 142.606 379.939 130.202 387.535 131.567 Z M 392.481 132.664 C 384.995 130.788 395.19 143.727 387.644 142.108 L 385.294 141.62 C 392.891 142.985 382.257 130.426 389.803 132.046 Z M 394.562 133.186 C 387.076 131.309 397.051 144.419 389.565 142.542 L 387.226 142.018 C 394.773 143.637 384.58 130.684 392.067 132.561 Z M 396.798 133.822 C 389.381 131.686 399.132 144.941 391.646 143.064 L 389.15 142.439 C 396.637 144.315 386.662 131.206 394.148 133.082 Z M 399.026 134.49 C 391.689 132.095 400.957 145.728 393.54 143.592 L 391.231 142.96 C 398.718 144.837 388.971 131.568 396.388 133.703 Z M 401.066 135.156 C 393.729 132.761 402.763 146.536 395.426 144.14 L 393.129 143.474 C 400.546 145.61 391.283 131.963 398.62 134.358 Z M 163.545 153.973 C 164.226 146.285 152.84 158.189 153.521 150.501 L 153.748 147.939 C 153.067 155.627 164.454 143.722 163.772 151.41 Z M 163.355 156.11 C 164.037 148.422 152.65 160.327 153.332 152.639 L 153.559 150.076 C 152.877 157.764 164.264 145.86 163.582 153.548 Z M 163.12 158.406 C 164.044 150.743 152.461 162.464 153.142 154.776 L 153.369 152.213 C 152.688 159.901 164.075 147.997 163.393 155.685 Z M 162.863 160.536 C 163.787 152.873 152.031 164.412 152.955 156.75 L 153.18 154.35 C 152.498 162.038 164.095 150.319 163.171 157.981 Z M 162.542 162.865 C 163.772 155.245 151.774 166.543 152.698 158.88 L 153.006 156.326 C 152.082 163.988 163.838 152.449 162.914 160.111 Z M 162.133 165.162 C 163.64 157.592 151.221 168.423 152.451 160.803 L 152.749 158.456 C 151.826 166.118 163.84 154.824 162.61 162.443 Z M 161.619 167.489 C 163.476 159.998 150.617 170.303 152.124 162.733 L 152.519 160.381 C 151.289 168.001 163.724 157.173 162.217 164.743 Z M 160.947 169.826 C 163.218 162.45 149.877 172.09 151.734 164.599 L 152.208 162.314 C 150.701 169.884 163.578 159.584 161.722 167.075 Z M 159.948 172.429 C 163.122 165.395 148.967 173.765 151.238 166.39 L 151.837 164.184 C 149.98 171.675 163.343 162.042 161.072 169.418 Z M 158.901 174.611 C 162.448 167.756 147.901 175.336 150.617 168.112 L 151.364 165.981 C 149.093 173.357 162.964 164.51 160.248 171.733 Z M 157.412 177.039 C 161.861 170.733 146.411 176.358 149.958 169.503 L 150.767 167.712 C 148.051 174.936 162.644 167.376 159.098 174.231 Z M 155.778 179.138 C 160.837 173.31 144.963 177.469 149.106 170.957 L 150.154 169.123 C 146.608 175.978 161.931 169.97 157.788 176.481 Z M 153.9 181.056 C 159.542 175.79 143.228 177.899 148.287 172.07 L 149.335 170.597 C 145.193 177.108 161.117 172.988 156.058 178.816 Z M 151.67 182.831 C 157.98 178.389 141.549 178.508 147.191 173.242 L 148.387 171.94 C 143.632 178.018 159.854 175.499 154.212 180.765 Z M 149.156 184.356 C 156.076 180.943 139.787 178.614 146.096 174.172 L 147.307 173.139 C 141.952 178.696 158.329 178.143 152.019 182.585 Z M 146.795 185.395 C 153.979 182.58 137.995 179.06 144.629 175.119 L 146.131 174.149 C 140.171 179.051 156.519 180.022 149.885 183.964 Z M 143.931 186.214 C 151.477 184.601 136.256 178.474 143.44 175.66 L 144.996 174.901 C 138.363 178.842 154.377 182.425 147.193 185.239 Z M 141.149 186.653 C 148.842 186.038 134.652 177.675 142.198 176.062 L 143.838 175.504 C 136.654 178.318 151.895 184.512 144.348 186.124 Z M 138.721 186.786 C 146.437 186.601 132.797 177.467 140.437 176.379 L 142.228 176.055 C 134.828 178.243 149.529 185.476 141.889 186.565 Z M 136.08 186.717 C 143.777 187.278 131.186 176.674 138.902 176.489 L 140.86 176.318 C 133.22 177.407 146.864 186.591 139.148 186.776 Z M 133.696 186.474 C 141.356 187.411 129.557 175.923 137.255 176.485 L 139.329 176.479 C 131.613 176.664 144.203 187.309 136.506 186.748 Z M 131.084 186.007 C 138.614 187.696 127.709 175.374 135.369 176.312 L 137.444 176.485 C 129.729 176.279 141.78 187.463 134.12 186.526 Z M 128.785 185.436 C 136.235 187.451 126.223 174.37 133.753 176.059 L 135.793 176.364 C 128.133 175.426 139.031 187.79 131.5 186.1 Z M 126.371 184.683 C 133.65 187.248 124.434 173.598 131.884 175.614 L 133.934 176.087 C 126.332 174.757 136.647 187.563 129.197 185.547 Z M 124.148 183.848 C 131.306 186.734 122.657 172.752 130.022 175.058 L 132.296 175.725 C 124.846 173.71 134.312 187.185 126.947 184.879 Z M 121.924 182.934 C 128.927 186.177 121.236 171.578 128.393 174.464 L 130.43 175.186 C 123.065 172.879 131.702 186.894 124.544 184.007 Z M 119.977 182.032 C 126.98 185.276 119.246 170.775 126.403 173.662 L 128.789 174.624 C 121.632 171.737 129.712 186.091 122.555 183.205 Z M 117.823 180.955 C 124.65 184.554 117.687 169.631 124.69 172.875 L 126.8 173.821 C 119.642 170.935 127.368 185.455 120.365 182.211 Z M 115.592 179.652 C 122.088 183.82 116.172 168.452 122.999 172.051 L 125.078 173.054 C 118.075 169.81 125.028 184.753 118.201 181.154 Z M 113.786 178.494 C 120.282 182.661 114.69 167.198 121.342 171.11 L 123.377 172.25 C 116.55 168.651 122.778 183.893 116.125 179.98 Z M 111.86 177.191 C 118.207 181.582 113.206 165.895 119.702 170.062 L 121.71 171.327 C 115.058 167.414 120.642 182.892 114.146 178.724 Z M 109.906 175.79 C 116.023 180.496 111.721 164.58 118.067 168.972 L 120.062 170.293 C 113.565 166.125 118.558 181.826 112.212 177.434 Z M 108.206 174.482 C 114.322 179.188 110.402 163.189 116.519 167.895 L 118.418 169.215 C 112.072 164.823 116.361 180.756 110.245 176.051 Z M 106.236 172.806 C 111.927 178.019 108.702 161.881 114.819 166.587 L 116.654 167.994 C 110.308 163.602 114.661 179.448 108.544 174.742 Z M 104.532 171.181 C 110.006 176.622 107.472 160.383 113.356 165.378 L 115.157 166.847 C 109.04 162.142 112.581 178.218 106.696 173.223 Z M 103.01 169.669 C 108.484 175.109 106.614 158.743 112.089 164.183 L 113.682 165.654 C 107.798 160.66 110.309 176.923 104.835 171.482 Z M 101.363 167.962 C 106.592 173.639 105.093 157.23 110.567 162.671 L 112.392 164.484 C 106.917 159.044 108.787 175.41 103.313 169.97 Z M 99.9094 166.384 C 105.138 172.061 103.992 155.628 109.221 161.304 L 110.87 162.972 C 105.396 157.532 106.881 173.953 101.652 168.276 Z M 98.329 164.588 C 103.279 170.509 102.538 154.05 107.767 159.726 L 109.51 161.618 C 104.281 155.942 105.428 172.375 100.199 166.698 Z M 96.9529 162.942 C 101.903 168.863 101.548 152.395 106.498 158.316 L 108.057 160.04 C 102.828 154.364 103.553 170.837 98.6029 164.916 Z M 95.4547 161.061 C 100.099 167.225 100.172 150.749 105.122 156.67 L 106.772 158.644 C 101.822 152.723 102.177 169.191 97.2269 163.27 Z M 94.1638 159.347 C 98.8076 165.511 99.2868 149.046 103.931 155.21 L 105.396 156.998 C 100.446 151.077 100.356 167.566 95.7117 161.402 Z M 92.7596 157.391 C 97.0821 163.785 97.9959 147.332 102.64 153.496 L 104.188 155.551 C 99.5438 149.387 99.0646 165.852 94.4208 159.688 Z M 91.4195 155.384 C 95.403 161.994 97.2011 145.588 101.524 151.981 L 102.897 153.838 C 98.2529 147.674 97.3214 164.138 92.9989 157.745 Z M 90.3121 153.547 C 94.2956 160.157 95.9995 143.811 100.322 150.204 L 101.763 152.335 C 97.4403 145.942 96.1198 162.361 91.7973 155.968 Z M 89.1378 151.433 C 92.7648 158.245 95.3624 141.991 99.3459 148.601 L 100.561 150.558 C 96.2387 144.164 94.5161 160.522 90.5326 153.912 Z M 88.0386 149.278 C 91.2975 156.274 94.7945 140.162 98.4215 146.974 L 99.5664 148.967 C 95.5829 142.357 92.9655 158.622 89.3386 151.81 Z M 87.1326 147.333 C 90.3916 154.329 94.2877 138.324 97.5466 145.32 L 98.6222 147.351 C 94.9952 140.539 91.4779 156.661 88.2189 149.665 Z M 86.215 145.156 C 89.175 152.283 93.3817 136.38 96.6406 143.375 L 97.6139 145.457 C 93.987 138.645 90.5719 154.716 87.313 147.721 Z M 85.3922 143.174 C 88.3522 150.302 92.9226 134.476 95.8826 141.603 L 96.821 143.763 C 93.5621 136.767 89.3388 152.678 86.3788 145.55 Z M 84.5649 140.997 C 87.2684 148.226 92.0998 132.494 95.0598 139.622 L 96.0464 141.998 C 93.0864 134.87 88.516 150.697 85.556 143.569 Z M 83.8148 138.801 C 86.2705 146.118 91.6499 130.563 94.3534 137.792 L 95.2236 140.017 C 92.2636 132.889 87.418 148.626 84.7145 141.397 Z M 83.1436 136.505 C 85.2456 143.931 91.251 128.615 93.7066 135.931 L 94.5031 138.192 C 91.7996 130.963 86.4064 146.523 83.9507 139.206 Z M 82.5243 134.146 C 84.1981 141.68 91.0587 126.688 93.1608 134.113 L 93.8426 136.336 C 91.3869 129.02 85.3619 144.342 83.2599 136.916 Z M 82.059 132.052 C 83.7328 139.586 90.9882 124.798 92.6619 132.331 L 93.2771 134.524 C 91.1751 127.099 84.2907 142.097 82.617 134.563 Z M 81.6311 129.646 C 82.8648 137.264 90.5229 122.703 92.1966 130.237 L 92.6928 132.46 C 90.5907 125.035 83.8254 140.002 82.1517 132.469 Z M 81.2765 127.3 C 82.1715 134.966 90.6233 120.805 91.8569 128.423 L 92.2893 130.654 C 90.6155 123.12 82.9331 137.686 81.6994 130.068 Z M 81.0403 125.012 C 81.7044 132.701 90.6525 118.865 91.5475 126.531 L 91.9252 128.845 C 90.6915 121.226 82.221 135.39 81.326 127.724 Z M 80.888 122.715 C 81.3171 130.421 90.6657 116.863 91.3298 124.552 L 91.5823 126.727 C 90.3486 119.109 81.7412 133.127 81.0771 125.437 Z M 80.828 120.248 C 80.7738 127.966 90.7577 114.863 91.1868 122.569 L 91.3666 124.978 C 90.7025 117.288 81.3408 130.847 80.9118 123.141 Z M 80.8704 117.937 C 80.5678 125.649 90.9302 112.869 91.1199 120.584 L 91.2105 122.995 C 90.7815 115.289 81.0218 128.553 80.8321 120.837 Z M 81.0038 115.627 C 80.4481 123.325 91.4392 111.055 91.1366 118.767 L 91.1304 121.012 C 90.9407 113.296 80.551 126.076 80.8536 118.364 Z M 81.2538 113.145 C 80.1777 120.788 91.793 109.096 91.2372 116.794 L 91.1276 119.029 C 91.1818 111.311 80.4173 123.751 80.9731 116.053 Z M 81.5997 110.846 C 80.2567 118.446 92.2326 107.154 91.419 114.83 L 91.2064 117.22 C 91.7622 109.522 80.3719 121.42 81.1856 113.745 Z M 82.0432 108.562 C 80.4337 116.11 93.0022 105.457 91.6592 113.057 L 91.374 115.254 C 92.1876 107.579 80.1824 118.867 81.5254 111.266 Z M 82.5767 106.314 C 80.7257 113.807 93.6282 103.577 92.0187 111.126 L 91.6241 113.301 C 92.7002 105.659 80.3446 116.528 81.9541 108.98 Z M 83.2282 104.052 C 81.0754 111.464 94.3159 101.704 92.4649 109.197 L 91.9296 111.544 C 93.5391 103.995 80.6233 114.222 82.4743 106.729 Z M 83.9052 101.847 C 81.5208 109.188 95.1436 99.9213 92.9909 107.333 L 92.3624 109.611 C 94.2134 102.118 80.9563 111.874 83.109 104.462 Z M 84.6536 99.649 C 82.0186 106.903 95.9453 98.0918 93.5609 105.433 L 92.8717 107.743 C 95.0244 100.332 81.3889 109.594 83.7732 102.253 Z M 85.4998 97.4226 C 82.5337 104.548 96.8147 96.3099 94.1797 103.564 L 93.429 105.839 C 95.8133 98.498 81.8728 107.304 84.5078 100.05 Z M 86.5737 95.0629 C 82.9997 101.903 97.8021 94.6465 94.836 101.772 L 94.0339 103.965 C 96.6689 96.7113 82.3696 104.942 85.3356 97.8169 Z M 87.5672 93.1616 C 83.9932 100.001 98.853 92.9781 95.6188 99.9858 L 94.7664 101.949 C 97.4014 94.6948 83.041 102.681 86.2752 95.6736 Z M 88.7761 91.0713 C 84.8484 97.715 100.063 91.4656 96.4892 98.3054 L 95.4398 100.374 C 98.674 93.3659 83.7954 100.38 87.3694 93.5401 Z M 90.01 89.0898 C 85.8406 95.5849 101.345 90.0322 97.4169 96.6759 L 96.2914 98.684 C 99.8654 91.8442 84.6311 98.0827 88.5587 91.439 Z M 91.3073 87.1404 C 86.8933 93.4712 102.609 88.5133 98.4394 95.0084 L 97.1996 97.0436 C 101.127 90.3999 85.6099 95.9444 89.7792 89.4492 Z M 92.7132 85.2046 C 87.9996 91.3158 103.918 87.0454 99.5041 93.3761 L 98.2087 95.3679 C 102.378 88.8728 86.649 93.8216 91.063 87.4908 Z M 94.1977 83.345 C 89.2105 89.2351 105.314 85.7164 100.601 91.8275 L 99.2598 93.7265 C 103.674 87.3957 87.7388 91.654 92.4523 85.5428 Z M 95.7534 81.5602 C 90.516 87.229 106.762 84.4306 101.775 90.3206 L 100.487 91.9666 C 104.901 85.6359 88.9345 89.561 93.9217 83.671 Z M 97.3737 79.8484 C 91.9073 85.2968 108.259 83.1883 103.022 88.8571 L 101.65 90.4669 C 106.363 84.3558 90.2262 87.5427 95.4635 81.8739 Z M 99.0528 78.2079 C 93.3765 83.4373 109.802 81.99 104.336 87.4384 L 102.885 89.0092 C 107.873 83.1192 91.6047 85.5983 97.0711 80.1499 Z M 100.786 76.6371 C 94.9167 81.6488 111.388 80.8365 105.711 86.0659 L 104.188 87.595 C 109.425 81.9262 93.0623 83.7267 98.7387 78.4973 Z M 102.57 75.1345 C 96.5221 79.9298 112.965 79.3828 107.289 84.6122 L 105.553 86.2254 C 111.019 80.777 94.6403 82.273 100.317 77.0436 Z M 104.442 73.6716 C 98.186 78.1902 114.645 78.3356 108.775 83.3473 L 106.975 84.9016 C 112.651 79.6723 96.2235 80.533 102.093 75.5213 Z M 106.182 72.4154 C 99.9252 76.934 116.357 77.3349 110.31 82.1303 L 108.45 83.6246 C 114.32 78.613 97.8686 78.8622 103.916 74.0668 Z M 108.2 71.0642 C 101.704 75.2304 118.116 76.4888 111.86 81.0074 L 109.975 82.3957 C 116.023 77.6003 99.5789 77.1841 105.835 72.6655 Z M 110.276 69.7707 C 103.547 73.5493 119.891 75.7903 113.395 79.9565 L 111.514 81.2575 C 117.77 76.7389 101.344 75.461 107.84 71.2948 Z M 112.147 68.7203 C 105.418 72.4989 121.697 74.6321 115.201 78.7983 L 113.036 80.187 C 119.532 76.0208 103.15 74.3028 109.646 70.1366 Z M 114.265 67.6185 C 107.365 71.0751 123.541 74.1228 116.812 77.9014 L 114.842 79.0289 C 121.338 74.8627 105.045 72.708 111.774 68.9294 Z M 116.566 66.5841 C 109.431 69.5259 125.393 73.5544 118.492 77.0109 L 116.44 78.1105 C 123.169 74.3319 106.983 71.2664 113.884 67.8098 Z M 118.731 65.7349 C 111.497 68.4248 127.229 73.3188 120.093 76.2606 L 118.11 77.2023 C 125.011 73.7457 109.036 69.6888 116.171 66.7469 Z M 120.888 64.981 C 113.583 67.4737 129.151 72.8396 121.917 75.5295 L 119.89 76.3544 C 126.904 73.1337 111.096 68.5737 118.33 65.8838 Z M 123.038 64.2618 C 115.677 66.5804 131.112 72.3658 123.807 74.8585 L 121.517 75.6784 C 128.751 72.9885 113.179 67.6117 120.484 65.119 Z M 125.272 63.578 C 117.83 65.622 133.084 71.887 125.722 74.2056 L 123.403 74.9965 C 130.708 72.5038 115.27 66.7087 122.631 64.3902 Z M 127.53 62.9735 C 120.017 64.7377 135.13 71.2425 127.769 73.561 L 125.434 74.3036 C 132.738 71.8109 117.316 66.0642 124.677 63.7456 Z M 129.81 62.4502 C 122.236 63.9301 137.097 71.0021 129.655 73.0461 L 127.361 73.6893 C 134.723 71.3708 119.487 65.1669 126.929 63.1229 Z M 132.109 62.0095 C 124.483 63.2015 139.069 70.8347 131.556 72.5989 L 129.243 73.1592 C 136.685 71.1152 121.69 64.3449 129.203 62.5807 Z M 134.423 61.6527 C 126.757 62.5539 141.045 70.7404 133.47 72.2204 L 131.14 72.6965 C 138.653 70.9323 123.922 63.6006 131.497 62.1207 Z M 136.553 61.4022 C 128.888 62.3034 143.021 70.7194 135.396 71.9113 L 133.051 72.3023 C 140.626 70.8223 126.181 62.9361 133.807 61.7441 Z M 138.887 61.2113 C 131.193 61.8199 144.996 70.7711 137.331 71.6723 L 134.974 71.9773 C 142.599 70.7853 128.464 62.3533 136.129 61.452 Z M 141.226 61.1057 C 133.515 61.4207 146.967 70.895 139.273 71.5036 L 136.907 71.7222 C 144.572 70.821 130.767 61.8536 138.461 61.245 Z M 143.557 61.0813 C 135.839 61.1185 148.931 71.0902 141.219 71.4052 L 138.847 71.5373 C 146.541 70.9287 133.088 61.4382 140.799 61.1231 Z M 145.875 61.1163 C 138.16 60.8931 150.897 71.3369 143.179 71.3741 L 140.793 71.4227 C 148.504 71.1076 135.412 61.1205 143.13 61.0834 Z M 148.192 61.2089 C 140.489 60.7253 152.866 71.6135 145.151 71.3904 L 142.752 71.3761 C 150.47 71.339 137.733 60.8808 145.448 61.1039 Z M 150.51 61.3595 C 142.828 60.6116 154.824 71.9363 147.121 71.4527 L 144.724 71.3781 C 152.439 71.6012 140.063 60.6985 147.766 61.1821 Z M 152.645 61.5675 C 144.963 60.8195 156.966 72.0707 149.263 71.5871 L 146.868 71.4401 C 154.583 71.6632 142.204 60.833 149.907 61.3166 Z M 154.97 61.8601 C 147.323 60.8165 158.904 72.5164 151.223 71.7684 L 148.836 71.5604 C 156.539 72.044 144.538 60.7781 152.22 61.5261 Z M 157.31 62.1996 C 149.714 60.8318 160.803 73.042 153.156 71.9984 L 150.798 71.727 C 158.479 72.475 146.9 60.7588 154.547 61.8024 Z M 159.421 62.5798 C 151.826 61.2121 162.929 73.3321 155.282 72.2885 L 152.733 71.9406 C 160.38 72.9842 149.026 61.0489 156.673 62.0925 Z M 161.742 63.0582 C 154.213 61.3607 164.773 73.9996 157.177 72.6318 L 154.858 72.2307 C 162.505 73.2743 151.405 61.1364 159.001 62.5041 Z M 163.835 63.53 C 156.306 61.8326 166.591 74.7001 159.062 73.0027 L 156.757 72.5561 C 164.353 73.9238 153.796 61.2668 161.325 62.9642 Z M 166.129 64.1517 C 158.684 62.117 168.684 75.172 161.155 73.4746 L 158.645 72.9088 C 166.174 74.6062 155.889 61.7386 163.418 63.4361 Z M 168.387 64.8102 C 161.03 62.478 170.449 76.0001 163.004 73.9654 L 160.738 73.3806 C 168.267 75.0781 158.272 62.0044 165.717 64.039 Z M 170.432 65.4585 C 163.075 63.1263 172.227 76.823 164.87 74.4908 L 162.592 73.8528 C 170.037 75.8874 160.622 62.3489 167.98 64.6811 Z M 172.63 66.2389 C 165.363 63.6407 174.273 77.4713 166.915 75.1391 L 164.463 74.3617 C 171.82 76.6939 162.668 62.9972 170.025 65.3294 Z M 174.801 67.0601 C 167.626 64.2154 176.031 78.3834 168.764 75.7852 L 166.508 75.0101 C 173.865 77.3422 164.961 63.4969 172.228 66.0951 Z M 176.795 67.8508 C 169.621 65.0062 177.786 79.3135 170.611 76.4689 L 168.362 75.6414 C 175.629 78.2396 167.229 64.058 174.404 66.9026 Z M 178.949 68.7682 C 171.888 65.6526 179.78 80.1043 172.606 77.2597 L 170.214 76.3115 C 177.389 79.1561 169.224 64.8488 176.398 67.6934 Z M 181.03 69.7587 C 174.068 66.4261 181.465 81.1264 174.404 78.0107 L 172.208 77.1022 C 179.383 79.9469 171.497 65.4801 178.558 68.5958 Z M 226.654 144.847 C 233.29 140.905 216.958 139.061 223.398 134.808 L 225.545 133.391 C 219.105 137.644 235.509 139.142 229.069 143.395 Z M 224.567 145.987 C 231.374 142.35 215.131 139.723 221.766 135.782 L 223.755 134.573 C 217.314 138.826 233.657 140.687 227.022 144.629 Z M 222.457 147.052 C 229.412 143.708 213.287 140.346 220.094 136.709 L 222.133 135.563 C 215.498 139.505 231.751 142.148 224.944 145.785 Z M 220.341 148.042 C 227.416 144.959 211.427 140.937 218.383 137.593 L 220.471 136.508 C 213.664 140.145 229.797 143.523 222.842 146.867 Z M 218.112 148.982 C 225.341 146.279 209.546 141.522 216.621 138.438 L 218.768 137.407 C 211.812 140.751 227.808 144.788 220.732 147.872 Z M 215.828 149.815 C 223.196 147.519 207.579 142.379 214.654 139.296 L 216.834 138.337 C 209.878 141.681 225.841 145.645 218.766 148.729 Z M 213.579 150.471 C 221.03 148.459 205.671 142.65 212.899 139.947 L 215.046 139.125 C 207.97 142.209 223.731 146.881 216.503 149.584 Z M 211.127 151.037 C 218.704 149.567 203.858 142.437 211.309 140.425 L 213.299 139.797 C 206.071 142.5 221.443 148.348 213.991 150.36 Z M 208.84 151.437 C 216.463 150.229 201.889 142.627 209.409 140.89 L 211.721 140.314 C 204.27 142.326 219.245 149.18 211.725 150.917 Z M 206.367 151.734 C 214.054 151.04 200.028 142.415 207.651 141.207 L 209.825 140.794 C 202.305 142.531 216.885 150.162 209.262 151.371 Z M 204.056 151.896 C 211.761 151.459 198.18 142.141 205.867 141.447 L 208.073 141.14 C 200.45 142.348 214.479 151.002 206.792 151.696 Z M 201.379 151.915 C 209.089 152.275 196.194 142.035 203.9 141.598 L 206.121 141.416 C 198.461 142.366 212.188 151.435 204.482 151.872 Z M 199.001 151.785 C 206.685 152.5 194.284 141.702 202.001 141.633 L 204.326 141.574 C 196.62 142.011 209.809 151.854 202.092 151.922 Z M 196.677 151.549 C 204.331 152.547 192.434 141.196 200.143 141.556 L 202.428 141.629 C 194.711 141.698 207.372 152.195 199.663 151.835 Z M 194.373 151.222 C 201.986 152.49 190.779 140.401 198.432 141.4 L 200.57 141.576 C 192.861 141.216 204.754 152.602 197.101 151.604 Z M 192.098 150.814 C 199.666 152.327 188.873 139.873 196.486 141.141 L 198.668 141.419 C 190.984 140.704 202.407 152.561 194.794 151.292 Z M 189.867 150.339 C 197.393 152.051 186.967 139.293 194.535 140.806 L 196.728 141.177 C 189.075 140.179 200.085 152.411 192.517 150.897 Z M 187.775 149.863 C 195.301 151.575 185.04 138.688 192.566 140.399 L 194.791 140.859 C 187.178 139.591 197.81 152.146 190.284 150.434 Z M 185.692 149.392 C 193.221 151.09 182.948 138.212 190.474 139.923 L 192.983 140.494 C 185.457 138.782 195.718 151.67 188.192 149.958 Z M 183.599 148.92 C 191.128 150.618 180.844 137.749 188.373 139.447 L 190.891 140.018 C 183.365 138.306 193.637 151.184 186.108 149.486 Z M 181.642 148.526 C 189.217 150.005 178.751 137.277 186.28 138.975 L 188.789 139.541 C 181.26 137.843 191.544 150.712 184.015 149.014 Z M 179.698 148.207 C 187.319 149.427 176.458 137.028 184.033 138.508 L 186.696 139.069 C 179.167 137.371 189.636 150.087 182.061 148.608 Z M 177.652 147.911 C 185.291 149.014 174.125 136.894 181.746 138.114 L 184.453 138.59 C 176.877 137.11 187.741 149.495 180.12 148.275 Z M 175.529 147.604 C 183.168 148.708 171.907 136.683 179.546 137.786 L 182.168 138.181 C 174.547 136.961 185.714 149.075 178.075 147.972 Z M 173.405 147.298 C 181.044 148.401 169.783 136.376 177.423 137.48 L 179.969 137.848 C 172.33 136.744 183.591 148.769 175.951 147.665 Z M 171.282 146.991 C 178.921 148.094 167.66 136.07 175.299 137.173 L 177.845 137.541 C 170.206 136.438 181.467 148.462 173.828 147.359 Z M 169.158 146.684 C 176.797 147.787 165.536 135.763 173.175 136.866 L 175.722 137.234 C 168.083 136.131 179.343 148.155 171.704 147.052 Z M 166.97 146.345 C 174.593 147.55 163.413 135.456 171.052 136.56 L 173.598 136.927 C 165.959 135.824 177.22 147.849 169.581 146.745 Z M 164.85 146.009 C 172.474 147.215 161.375 135.041 168.999 136.246 L 171.475 136.621 C 163.835 135.517 175.015 147.617 167.392 146.411 Z M 162.731 145.674 C 170.355 146.88 159.256 134.706 166.88 135.911 L 169.421 136.313 C 161.797 135.108 172.896 147.282 165.272 146.076 Z M 160.612 145.339 C 168.236 146.545 157.137 134.371 164.76 135.576 L 167.301 135.978 C 159.678 134.773 170.777 146.947 163.153 145.741 Z M 158.408 144.975 C 166.01 146.311 155.017 134.036 162.641 135.241 L 165.182 135.643 C 157.559 134.437 168.657 146.611 161.034 145.406 Z M 156.295 144.603 C 163.897 145.939 153.008 133.577 160.61 134.913 L 163.063 135.308 C 155.439 134.102 166.43 146.385 158.829 145.049 Z M 154.182 144.232 C 161.783 145.568 150.895 133.205 158.497 134.542 L 161.031 134.987 C 153.429 133.651 164.317 146.013 156.715 144.677 Z M 152.068 143.861 C 159.67 145.197 148.782 132.834 156.384 134.17 L 158.918 134.615 C 151.316 133.279 162.204 145.642 154.602 144.306 Z M 149.85 143.436 C 157.421 144.939 146.669 132.463 154.27 133.799 L 156.804 134.244 C 149.203 132.908 160.091 145.271 152.489 143.934 Z M 147.746 143.019 C 155.316 144.521 144.702 131.923 152.272 133.425 L 154.691 133.873 C 147.089 132.537 157.84 145.022 150.269 143.519 Z M 145.641 142.601 C 153.212 144.103 142.597 131.505 150.168 133.008 L 152.691 133.508 C 145.121 132.006 155.735 144.604 148.165 143.102 Z M 143.405 142.121 C 150.931 143.832 140.493 131.088 148.063 132.59 L 150.587 133.091 C 143.016 131.588 153.631 144.187 146.06 142.684 Z M 141.312 141.646 C 148.839 143.357 138.576 130.47 146.102 132.181 L 148.482 132.673 C 140.912 131.171 151.347 143.927 143.821 142.216 Z M 139.22 141.17 C 146.746 142.881 136.484 129.995 144.01 131.706 L 146.519 132.276 C 138.993 130.565 149.255 143.451 141.729 141.74 Z M 136.975 140.589 C 144.439 142.552 134.392 129.519 141.918 131.23 L 144.427 131.8 C 136.9 130.089 147.163 142.976 139.637 141.265 Z M 134.9 140.043 C 142.364 142.007 132.543 128.782 140.007 130.745 L 142.334 131.325 C 134.808 129.614 144.852 142.661 137.388 140.697 Z M 132.648 139.388 C 140.029 141.641 130.468 128.236 137.932 130.2 L 140.42 130.854 C 132.956 128.89 142.778 142.115 135.314 140.152 Z M 130.596 138.761 C 137.977 141.015 128.679 127.417 136.061 129.67 L 138.345 130.308 C 130.881 128.345 140.438 141.766 133.056 139.512 Z M 128.363 138.006 C 135.646 140.561 126.627 126.79 134.009 129.044 L 136.47 129.795 C 129.088 127.541 138.386 141.139 131.004 138.886 Z M 126.16 137.226 C 133.343 140.051 124.891 125.882 132.173 128.437 L 134.418 129.168 C 127.036 126.915 136.049 140.703 128.766 138.147 Z M 124.164 136.44 C 131.346 139.265 122.866 125.172 130.149 127.727 L 132.576 128.579 C 125.294 126.023 134.024 139.992 126.742 137.437 Z M 122.053 135.58 C 129.16 138.591 121.145 124.195 128.328 127.02 L 130.552 127.868 C 123.269 125.313 131.744 139.422 124.561 136.597 Z M 120.077 134.744 C 127.184 137.754 119.353 123.261 126.46 126.271 L 128.725 127.176 C 121.543 124.351 129.553 138.757 122.446 135.747 Z M 118.08 133.886 C 125.171 136.934 117.378 122.424 124.485 125.434 L 126.854 126.438 C 119.747 123.427 127.578 137.921 120.471 134.91 Z M 116.109 133.038 C 123.2 136.087 115.448 121.551 122.538 124.6 L 124.878 125.601 C 117.771 122.59 125.563 137.103 118.473 134.054 Z M 114.138 132.19 C 121.229 135.239 113.476 120.704 120.567 123.753 L 122.93 124.769 C 115.84 121.72 123.592 136.256 116.502 133.207 Z M 112.267 131.424 C 119.428 134.302 111.505 119.856 118.596 122.905 L 120.959 123.921 C 113.869 120.873 121.621 135.408 114.531 132.359 Z M 110.276 130.623 C 117.437 133.502 109.34 119.156 116.501 122.034 L 118.988 123.074 C 111.898 120.025 119.824 134.462 112.663 131.583 Z M 108.397 129.917 C 115.633 132.602 107.349 118.355 114.511 121.234 L 116.898 122.194 C 109.736 119.315 117.834 133.661 110.672 130.783 Z M 106.386 129.171 C 113.622 131.856 105.142 117.733 112.378 120.418 L 114.907 121.394 C 107.746 118.515 116.034 132.751 108.798 130.066 Z M 104.5 128.511 C 111.81 130.988 103.13 116.986 110.366 119.671 L 112.778 120.566 C 105.542 117.881 114.022 132.004 106.786 129.319 Z M 102.468 127.822 C 109.778 130.299 100.897 116.425 108.207 118.901 L 110.767 119.82 C 103.531 117.135 112.214 131.125 104.904 128.648 Z M 100.567 127.182 C 107.942 129.459 98.8647 115.736 106.175 118.213 L 108.611 119.038 C 101.301 116.562 110.182 130.436 102.872 127.96 Z M 98.517 126.549 C 105.892 128.826 96.8326 115.048 104.143 117.524 L 106.579 118.35 C 99.2692 115.873 108.15 129.748 100.84 127.271 Z M 96.467 125.916 C 103.842 128.193 94.5866 114.565 101.961 116.842 L 104.547 117.661 C 97.2371 115.185 106.3 128.952 98.9252 126.675 Z M 94.4169 125.283 C 101.792 127.56 92.5365 113.932 99.9112 116.209 L 102.369 116.968 C 94.9948 114.691 104.25 128.319 96.8751 126.042 Z" style="fill:#FF851B;stroke:#111111;stroke-width:0.254;stroke-linecap:square;stroke-dasharray:none;stroke-opacity:1;stroke-linejoin:round" id="path2060" class="fill-orange stroke-foreground"/>
    </g>
</svg>
