<?xml version="1.0" encoding="UTF-8" standalone="no"?>
<svg
   xml:space="preserve"
   viewBox="0 0 994.02 964.37"
   version="1.1"
   id="svg723"
   sodipodi:docname="fig-6starstar_const.svg"
   inkscape:version="1.4.2 (ebf0e940d0, 2025-05-08)"
   xmlns:inkscape="http://www.inkscape.org/namespaces/inkscape"
   xmlns:sodipodi="http://sodipodi.sourceforge.net/DTD/sodipodi-0.dtd"
   xmlns="http://www.w3.org/2000/svg"
   xmlns:svg="http://www.w3.org/2000/svg"><defs
   id="defs723" /><sodipodi:namedview
   id="namedview723"
   pagecolor="#ffffff"
   bordercolor="#000000"
   borderopacity="0.25"
   inkscape:showpageshadow="2"
   inkscape:pageopacity="0.0"
   inkscape:pagecheckerboard="0"
   inkscape:deskcolor="#d1d1d1"
   inkscape:zoom="2.5964441"
   inkscape:cx="527.6447"
   inkscape:cy="729.2666"
   inkscape:window-width="2254"
   inkscape:window-height="1502"
   inkscape:window-x="0"
   inkscape:window-y="0"
   inkscape:window-maximized="1"
   inkscape:current-layer="svg723" />
  <path
   fill="none"
   stroke="#FF851B"
   stroke-linecap="round"
   stroke-linejoin="round"
   stroke-width="11.819"
   d="M231.25 205.413c25.035 58.967 63.737 9.76 74.418 101.82m489.446-165.804c-28.712 29.648-685.46-210.85-563.177 67.213M670.068 188.449c-1.866 47.754-239.577-23.872-119.258 64.335"
   style="stroke:#ff851b"
   id="path1" />
  <path
   fill="none"
   stroke="#FF851B"
   stroke-linecap="round"
   stroke-linejoin="round"
   stroke-width="11.819"
   d="M911.547 168.56c56.725 77.16-20.392 51.217-107.166 35.836-44.925-7.963-94.152-65.934-125.874-16.07M263.323 556.5c-27.614-50.359-19.788-126.155 30.611-148.939"
   style="stroke:#ff851b"
   id="path2" />
  <path
   fill="none"
   stroke="#FF851B"
   stroke-linecap="round"
   stroke-linejoin="round"
   stroke-width="11.819"
   d="M217.734 861.237c65.935-63.96-23.774-181.018 33.602-205.541m568.38-594.442C774.01-37.359 221.991.896 113.49 135.749c-243.925 303.168-12.108 867.403 100.136 727.741M672.063 888.24c-22.532-33.772-267.295 23.75-222.274-67.659M925.187 83.57c123.983-38.252 39.817 565.58-39.927 743.593-33.98 75.856-163.635 113.898-204.369 66.49"
   style="stroke:#ff851b"
   id="path3" />
  <path
   fill="none"
   stroke="#FF851B"
   stroke-linecap="round"
   stroke-linejoin="round"
   stroke-width="11.819"
   d="M465.76 721.38c-24.198-61.806-84.188-33.903-99.554-70.192M367.198 565.962c22.734-32.201 84.44 43.29 130.347 19.998M509.823 486.047c-11.556-60.922-68.947-50.722-105.619-85.385M400.385 319.323c32.213-26.454 73.545 54.284 138.864 37.738M562.994 738.981s86.772-86.53 49.453-159M607.386 498.608s96.994-77.448 44.156-150.338"
   style="stroke:#ff851b"
   id="path4" />
  <path
   fill="none"
   stroke="#FF851B"
   stroke-linecap="round"
   stroke-linejoin="round"
   stroke-width="11.819"
   d="M564.909 815.085c34.552 40.96 89.141-35.902 106.19-62.21 24.304-63.881 56.937-135.301 72.336-206.184 15.338-70.6 13.523-140.663-1.792-203.35-30.69-125.626-84.585-81.373-84.585-81.373"
   style="stroke:#ff851b"
   id="path5" />
  <path
   fill="#44475a"
   stroke="#44475a"
   stroke-linejoin="round"
   stroke-width=".1"
   d="M520.007 311.701c0-42.065 34.1-76.165 76.166-76.165s76.166 34.1 76.166 76.165-34.101 76.166-76.166 76.166-76.166-34.1-76.166-76.166z"
   style="stroke:#aaa;fill:#aaa"
   id="path6" />
  
  
  
  
  
  
  
  
  
  
  
  
  
  
  
  
  
  
  
  
  
  
  
  
  
  
  
  
  
  
  
  
  
  
  
  
  
  
  
  
  
  
  
  
  
  
  
  
  
  
  
  
  
  
  
  
  
  
  
  
  
  
  
  
  
  
  
  
  
  
  
  
  
  
  
  
  
  
  
  
  
  
  
  
  
  
  
  
  
  
  
  
  
  
  
  
  
  
  
  
  
  
  
  
  
  
  
  
  
  
  
  
  
  
  
  
  
  
  
  
  
  
  
  
  
  
  
  
  
  
  
  
  
  
  
  
  
  
  
  
  
  <path
   fill="none"
   stroke="#6272a4"
   stroke-linecap="round"
   stroke-width="4"
   d="M523.673 311.701c0-40.04 32.46-72.5 72.5-72.5s72.5 32.46 72.5 72.5-32.46 72.5-72.5 72.5-72.5-32.459-72.5-72.5z"
   style="stroke:#616161;stroke-opacity:1"
   id="path148" />
  <path
   fill="#44475a"
   stroke="#44475a"
   stroke-linejoin="round"
   stroke-width=".1"
   d="M478.202 540.312c0-42.065 34.101-76.165 76.166-76.165s76.166 34.1 76.166 76.165-34.1 76.166-76.166 76.166-76.166-34.1-76.166-76.166z"
   style="fill:#aaa;stroke:#aaa"
   id="path149" />
  
  
  
  
  
  
  
  
  
  
  
  
  
  
  
  
  
  
  
  
  
  
  
  
  
  
  
  
  
  
  
  
  
  
  
  
  
  
  
  
  
  
  
  
  
  
  
  
  
  
  
  
  
  
  
  
  
  
  
  
  
  
  
  
  
  
  
  
  
  
  
  
  
  
  
  
  
  
  
  
  
  
  
  
  
  
  
  
  
  
  
  
  
  
  
  
  
  
  
  
  
  
  
  
  
  
  
  
  
  
  
  
  
  
  
  
  
  
  
  
  
  
  
  
  
  
  
  
  
  
  
  
  
  
  
  
  
  
  
  
  
  <path
   fill="none"
   stroke="#6272a4"
   stroke-linecap="round"
   stroke-width="4"
   d="M481.868 540.312c0-40.04 32.46-72.5 72.5-72.5s72.5 32.46 72.5 72.5-32.459 72.5-72.5 72.5-72.5-32.459-72.5-72.5z"
   style="stroke:#616161;stroke-opacity:1"
   id="path291" />
  <path
   fill="#44475a"
   stroke="#44475a"
   stroke-linejoin="round"
   stroke-width=".1"
   d="M271.445 361.85c0-42.065 34.1-76.166 76.166-76.166s76.165 34.101 76.165 76.166-34.1 76.165-76.165 76.165-76.166-34.1-76.166-76.165z"
   style="stroke:#aaa;fill:#aaa"
   id="path292" />
  
  
  
  
  
  
  
  
  
  
  
  
  
  
  
  
  
  
  
  
  
  
  
  
  
  
  
  
  
  
  
  
  
  
  
  
  
  
  
  
  
  
  
  
  
  
  
  
  
  
  
  
  
  
  
  
  
  
  
  
  
  
  
  
  
  
  
  
  
  
  
  
  
  
  
  
  
  
  
  
  
  
  
  
  
  
  
  
  
  
  
  
  
  
  
  
  
  
  
  
  
  
  
  
  
  
  
  
  
  
  
  
  
  
  
  
  
  
  
  
  
  
  
  
  
  
  
  
  
  
  
  
  
  
  
  
  
  
  
  
  
  <path
   fill="none"
   stroke="#6272a4"
   stroke-linecap="round"
   stroke-width="4"
   d="M275.111 361.85c0-40.041 32.46-72.5 72.5-72.5s72.5 32.459 72.5 72.5-32.46 72.5-72.5 72.5-72.5-32.46-72.5-72.5z"
   style="stroke:#616161;stroke-opacity:1"
   id="path434" />
  <path
   fill="#44475a"
   stroke="#44475a"
   stroke-linejoin="round"
   stroke-width=".1"
   d="M433.277 776.061c0-42.065 34.1-76.166 76.166-76.166s76.166 34.101 76.166 76.166-34.101 76.166-76.166 76.166-76.166-34.1-76.166-76.166z"
   style="stroke:#aaa;fill:#aaa"
   id="path435" />
  
  
  
  
  
  
  
  
  
  
  
  
  
  
  
  
  
  
  
  
  
  
  
  
  
  
  
  
  
  
  
  
  
  
  
  
  
  
  
  
  
  
  
  
  
  
  
  
  
  
  
  
  
  
  
  
  
  
  
  
  
  
  
  
  
  
  
  
  
  
  
  
  
  
  
  
  
  
  
  
  
  
  
  
  
  
  
  
  
  
  
  
  
  
  
  
  
  
  
  
  
  
  
  
  
  
  
  
  
  
  
  
  
  
  
  
  
  
  
  
  
  
  
  
  
  
  
  
  
  
  
  
  
  
  
  
  
  
  
  
  
  <path
   fill="none"
   stroke="#6272a4"
   stroke-linecap="round"
   stroke-width="4"
   d="M436.943 776.061c0-40.04 32.459-72.5 72.5-72.5s72.5 32.46 72.5 72.5-32.46 72.5-72.5 72.5-72.5-32.459-72.5-72.5z"
   style="stroke:#616161;stroke-opacity:1"
   id="path577" />
  <path
   fill="#44475a"
   stroke="#44475a"
   stroke-linejoin="round"
   stroke-width=".1"
   d="M233.357 612.468c0-42.065 34.1-76.166 76.166-76.166s76.166 34.1 76.166 76.166-34.101 76.166-76.166 76.166-76.166-34.101-76.166-76.166z"
   style="stroke:#aaa;fill:#aaa"
   id="path578" />
  
  
  
  
  
  
  
  
  
  
  
  
  
  
  
  
  
  
  
  
  
  
  
  
  
  
  
  
  
  
  
  
  
  
  
  
  
  
  
  
  
  
  
  
  
  
  
  
  
  
  
  
  
  
  
  
  
  
  
  
  
  
  
  
  
  
  
  
  
  
  
  
  
  
  
  
  
  
  
  
  
  
  
  
  
  
  
  
  
  
  
  
  
  
  
  
  
  
  
  
  
  
  
  
  
  
  
  
  
  
  
  
  
  
  
  
  
  
  
  
  
  
  
  
  
  
  
  
  
  
  
  
  
  
  
  
  
  
  
  
  
  <path
   fill="none"
   stroke="#6272a4"
   stroke-linecap="round"
   stroke-width="4"
   d="M237.023 612.468c0-40.041 32.459-72.5 72.5-72.5s72.5 32.459 72.5 72.5-32.46 72.5-72.5 72.5-72.5-32.46-72.5-72.5z"
   style="stroke:#616161;stroke-opacity:1"
   id="path720" />
  <path
   fill="#6272a4"
   d="M421.929 962.162C244.646 946.086 96.349 820.712 50.91 648.494c-17.778-67.383-17.778-147.945 0-215.328C93.789 270.651 226.499 150.59 393.799 122.962c30.972-5.115 100.3-5.115 131.272 0 182.761 30.182 321.716 169.256 351.872 352.176 8.194 49.706 4.42 122.556-8.984 173.356C825.18 810.636 691.601 931.68 525.852 958.5c-19.733 3.193-84.087 5.46-103.923 3.662m99.235-25.362c233.7-38.554 383.08-264.16 326.487-493.086-38.564-155.996-166.552-272.907-327.268-298.943-30.56-4.95-93.058-4.956-122.677-.01C223.556 173.838 91.743 305.916 63.76 479.377c-4.731 29.327-5.082 90.004-.686 118.542 28.742 186.57 176.953 326.148 363.544 342.367 18.74 1.63 76.431-.499 94.547-3.488z"
   style="stroke-width:4.43177;fill:#616161;stroke:none;fill-opacity:1"
   id="path721" />
  <path
   fill="#44475a"
   stroke="#44475a"
   stroke-linejoin="round"
   stroke-width=".1"
   d="M785.368 118.888c0-42.065 34.101-76.166 76.166-76.166s76.166 34.1 76.166 76.166-34.1 76.165-76.166 76.165-76.166-34.1-76.166-76.165z"
   style="stroke:#aaa;fill:#aaa"
   id="path722" />
  <path
   d="m883.799 118.887 32.16 16.699-12.987 22.265-30.305-19.173 1.855 35.871h-25.976l1.856-35.87-30.305 19.172-12.988-22.265 31.542-16.699-31.542-16.698 12.988-22.265 30.305 19.172-1.856-35.87h25.976l-1.855 35.87 30.305-19.172 12.987 22.265z"
   aria-label="✱"
   style="font-size:158.328px;-inkscape-font-specification:&quot;sans-serif, Normal&quot;;fill:#ff851b;fill-opacity:1;stroke-width:13.194"
   id="path723" />
</svg>
