<svg xmlns="http://www.w3.org/2000/svg" xml:space="preserve" viewBox="0 0 847.767 172.602"><path d="M4635.352 3054.091A839760 839760 0 0 0 4794.5 3214.2c174.1 175.2 260.7 409.8 259.75 703.7-.95 293.8-1.85 587.7-2.8 881.6S4788 5239.4 4263.8 5237.6l-1572.55-5.4-1572.55-5.4c-524.2-1.8-785.802-149.6-784.85-443.5.951-293.8 1.849-587.7 2.8-881.6.952-293.9 89.151-525 264.6-693.4a43444 43444 0 0 0 526.2-513.7c175.35-174 350.55-350.9 525.8-530.55 175.15-179.65 349.85-181.85 523.95-6.6q88.204 88.786 176.41 177.56m709.182 713.694A3086428 3086428 0 0 1 3221.9 3208.85c174.1 175.25 348.9 178.65 524.45 10.2 175.45-168.45 350.85-339.65 526.2-513.65 175.35-174.1 350.55-350.9 525.75-530.55s263.3-413.65 264.4-701.85c1.1-288.3 2.2-576.5 3.25-864.798C5067 320 4805.5 175 4281.3 173.202c-524.2-1.804-1048.4-3.6-1572.55-5.404C2184.6 166 1660.4 164.2 1136.2 162.4S349.398 303.802 348.35 592.1c-1.151 288.201-2.151 576.5-3.299 864.7-1.051 288.3 85.449 520 259.597 695.25q88.223 88.778 176.43 177.546m709.18 713.694q79.58 80.075 159.142 160.16c174.1 175.25 348.9 178.65 524.4 10.25S2524.7 2874 2700 2700s350.6-350.9 525.75-530.55 349.85-181.85 523.95-6.65l176.477 177.592" style="fill:none;stroke:#ff851b;stroke-width:159.703;stroke-linecap:round;stroke-linejoin:miter;stroke-miterlimit:10;stroke-dasharray:none;stroke-opacity:1" transform="matrix(0 .03528 .03528 0 -2.912 -8.96)"/><path d="M4635.352 3054.091A839760 839760 0 0 0 4794.5 3214.2c174.1 175.2 260.7 409.8 259.75 703.7-.95 293.8-1.85 587.7-2.8 881.6S4788 5239.4 4263.8 5237.6l-1572.55-5.4-1572.55-5.4c-524.2-1.8-785.802-149.6-784.85-443.5.951-293.8 1.849-587.7 2.8-881.6.952-293.9 89.151-525 264.6-693.4a43444 43444 0 0 0 526.2-513.7c175.35-174 350.55-350.9 525.8-530.55 175.15-179.65 349.85-181.85 523.95-6.6q88.204 88.786 176.41 177.56m709.182 713.694A3086428 3086428 0 0 1 3221.9 3208.85c174.1 175.25 348.9 178.65 524.45 10.2 175.45-168.45 350.85-339.65 526.2-513.65 175.35-174.1 350.55-350.9 525.75-530.55s263.3-413.65 264.4-701.85c1.1-288.3 2.2-576.5 3.25-864.798C5067 320 4805.5 175 4281.3 173.202c-524.2-1.804-1048.4-3.6-1572.55-5.404C2184.6 166 1660.4 164.2 1136.2 162.4S349.398 303.802 348.35 592.1c-1.151 288.201-2.151 576.5-3.299 864.7-1.051 288.3 85.449 520 259.597 695.25q88.223 88.778 176.43 177.546m709.18 713.694q79.58 80.075 159.142 160.16c174.1 175.25 348.9 178.65 524.4 10.25S2524.7 2874 2700 2700s350.6-350.9 525.75-530.55 349.85-181.85 523.95-6.65l176.477 177.592" style="fill:none;stroke:#ff851b;stroke-width:159.703;stroke-linecap:round;stroke-linejoin:miter;stroke-miterlimit:10;stroke-dasharray:none;stroke-opacity:1" transform="matrix(0 .03528 .03528 0 255.81 -8.96)"/><path d="M5064.652 4799.5c-1.05 288.299-.85 790.452-1.95 1078.752-1.1 288.2-89.2 522.2-264.4 701.85s-350.4 356.45-525.75 530.55c-175.35 174-350.75 345.2-526.2 513.65-175.55 168.45-350.35 165.05-524.45-10.2q-85.18-85.743-170.364-171.475m-686.668-691.035q-93.836-94.439-187.668-188.89c-174.1-175.25-348.8-173.05-523.95 6.6-175.25 179.65-350.45 356.55-525.8 530.55a43444 43444 0 0 1-526.2 513.7c-175.449 168.4-263.648 399.5-264.6 693.4-.95 293.9-1.849 587.8-2.8 881.6-.952 293.9 260.65 441.7 784.85 443.5l1572.55 5.4 1572.55 5.4c524.2 1.8 786.7-144.2 787.65-438.1s1.85-587.8 2.8-881.6c.95-293.9-85.65-528.5-259.75-703.7a855101 855101 0 0 1-170.405-171.437m-686.66-691.043-187.735-188.92c-174.1-175.2-348.8-173-523.95 6.65s-350.45 356.55-525.75 530.55-350.7 345.3-526.2 513.7-350.3 165-524.4-10.25a1286049 1286049 0 0 0-170.4-171.488m-686.664-691.038L604.65 6557.302c-174.148-175.25-260.648-406.95-259.597-695.25 1.148-288.2-12.354-790.55-11.203-1078.752" style="fill:none;stroke:#ff851b;stroke-width:159.703;stroke-linecap:round;stroke-linejoin:miter;stroke-miterlimit:10;stroke-dasharray:none;stroke-opacity:1" transform="matrix(0 .03528 .03528 0 504.771 -8.93)"/><path d="M333.85 4783.3c.951-293.8 1.849-587.7 2.8-881.6.952-293.9 89.151-525 264.6-693.4a43444 43444 0 0 0 526.2-513.7c175.35-174 350.55-350.9 525.8-530.55 175.15-179.65 349.85-181.85 523.95-6.6q93.832 94.451 187.667 188.89m686.669 691.035q85.183 85.731 170.364 171.475c174.1 175.25 348.9 178.65 524.45 10.2 175.45-168.45 350.85-339.65 526.2-513.65 175.35-174.1 350.55-350.9 525.75-530.55s263.3-413.65 264.4-701.85c1.1-288.3 2.2-576.5 3.25-864.798C5067 320 4805.5 175 4281.3 173.202c-524.2-1.804-1048.4-3.6-1572.55-5.404C2184.6 166 1660.4 164.2 1136.2 162.4S349.398 303.802 348.35 592.1c-1.151 288.201-2.151 576.5-3.299 864.7-1.051 288.3 85.449 520 259.597 695.25q93.852 94.444 187.687 188.874M1479 3031.962q85.21 85.739 170.4 171.488c174.1 175.25 348.9 178.65 524.4 10.25S2524.7 2874 2700 2700s350.6-350.9 525.75-530.55 349.85-181.85 523.95-6.65l187.734 188.92m686.661 691.043q85.189 85.73 170.405 171.437c174.1 175.2 260.7 409.8 259.75 703.7-.95 293.8 11.352 587.7 10.402 881.6" style="fill:none;stroke:#ff851b;stroke-width:159.703;stroke-linecap:round;stroke-linejoin:miter;stroke-miterlimit:10;stroke-dasharray:none;stroke-opacity:1" transform="matrix(0 .03528 .03528 0 504.771 -8.93)"/><text xml:space="preserve" x="189.749" y="270.558" style="font-size:136.063px;line-height:1;font-family:&quot;Roboto Condensed&quot;;-inkscape-font-specification:&quot;Roboto Condensed, &quot;;text-align:center;letter-spacing:0;word-spacing:1.07px;writing-mode:lr-tb;direction:ltr;text-anchor:middle;fill:#616161;stroke:#616161;stroke-width:20.6551;stroke-miterlimit:3.6" transform="translate(29.359 -135.906)"><tspan x="189.749" y="270.558" style="fill:#616161aaa;stroke:none;stroke-width:20.6551">#</tspan></text><text xml:space="preserve" x="442.591" y="267.834" style="font-size:136.063px;line-height:1;font-family:&quot;Roboto Condensed&quot;;-inkscape-font-specification:&quot;Roboto Condensed, &quot;;text-align:center;letter-spacing:0;word-spacing:1.07px;writing-mode:lr-tb;direction:ltr;text-anchor:middle;fill:#616161;stroke:#616161;stroke-width:20.6551;stroke-miterlimit:3.6" transform="translate(29.359 -135.906)"><tspan x="442.591" y="267.834" style="fill:#616161aaa;stroke:none;stroke-width:20.6551">=</tspan></text></svg>
