<svg xmlns="http://www.w3.org/2000/svg" xml:space="preserve" viewBox="0 0 1088.952 1475.277">
  <g style="fill:#616161">
    <path d="m441.626 97.989 77.882-77.95C683.547-143.791-157.656-143.791 7.15 22l74.112 74.176M443.954 459.18l74.293 74.358c165.3 164.029-675.903 164.029-512.217.422l77.397-77.463" style="fill:none;stroke:#ff851b;stroke-width:16.5705;stroke-linecap:butt;stroke-linejoin:miter;stroke-dasharray:none;stroke-opacity:1" transform="matrix(1.90204 0 0 -1.90169 44.598 1264.428)"/>
    <g style="display:inline;fill:#616161">
      <path d="M95.987 238.496c-40.02-3.626-73.497-31.904-83.754-70.747-4.013-15.198-4.013-33.368 0-48.566 9.68-36.655 39.637-63.734 77.404-69.965 6.991-1.154 22.642-1.154 29.633 0 41.257 6.807 72.625 38.175 79.432 79.431 1.85 11.211.998 27.643-2.028 39.1-9.657 36.57-39.811 63.872-77.228 69.921-4.454.72-18.981 1.232-23.46.826m22.401-5.72c52.756-8.696 86.477-59.58 73.702-111.214-8.706-35.184-37.598-61.553-73.878-67.425-6.899-1.117-21.007-1.118-27.693-.003-39.313 6.559-69.069 36.348-75.386 75.472-1.068 6.615-1.147 20.3-.155 26.736 6.489 42.08 39.946 73.562 82.067 77.22 4.23.368 17.254-.112 21.343-.787" style="display:inline;fill:#616161;fill-opacity:1;stroke:none;stroke-width:.352778;stroke-opacity:1" transform="matrix(5.2507 0 0 5.25425 -3.699 -15.97)"/>
    </g>
    <path d="M187.064 352.704h151.76" style="fill:#616161;fill-opacity:.766511;stroke:#ff4136;stroke-width:8.50394;stroke-miterlimit:3.6;stroke-dasharray:none" transform="matrix(1.90204 0 0 -1.90169 44.598 1264.428)"/>
    <path d="M262.944 202.316v150.388" style="fill:#616161;fill-opacity:.766511;stroke:#ff4136;stroke-width:8.50394;stroke-miterlimit:3.6;stroke-dasharray:none" transform="matrix(1.90204 0 0 -1.90169 62.846 1264.428)"/>
    <path d="M243.755 333.456v-131.14" style="fill:#616161;fill-opacity:.766511;stroke:#ff4136;stroke-width:8.50395;stroke-miterlimit:3.6;stroke-dasharray:none" transform="matrix(1.90204 0 0 -1.90169 62.846 1264.428)"/>
  </g>
  <text xml:space="preserve" x="1502.072" y="3151.749" style="font-size:112px;font-family:Inter;-inkscape-font-specification:Inter;text-align:start;writing-mode:lr-tb;direction:ltr;text-anchor:start;fill:none;stroke-width:20;stroke-linecap:round;stroke-linejoin:round;stroke-dasharray:20,40;paint-order:stroke fill markers" transform="translate(-442.874 30.467)">

      </text>
</svg>
