<svg xmlns="http://www.w3.org/2000/svg" xml:space="preserve" viewBox="0 0 6573.979 1695.849">
  <text xml:space="preserve" x="2518.666" y="1691.598" style="font-size:890.151px;font-family:Inter;-inkscape-font-specification:Inter;text-align:start;writing-mode:lr-tb;direction:ltr;text-anchor:start;fill:#616161;stroke:none;stroke-width:158.955;stroke-linecap:round;stroke-linejoin:round;stroke-dasharray:158.955,317.911;stroke-dashoffset:0;paint-order:stroke fill markers" transform="translate(1206.012 -563.964)">
          <tspan x="2518.666" y="1691.598" style="stroke-width:158.955">=</tspan>
        </text>
  <path d="m2477.993 796.507 103.842 103.933M1897.2 215.214l103.195 103.284m480.702-3.578 99.057-99.143m-681.46 682.049 98.815-98.901" style="fill:#616161;stroke:#ff851b;stroke-width:22.0939;stroke-linecap:butt;stroke-linejoin:miter;stroke-dasharray:none;stroke-opacity:1" transform="translate(-487.604 315.97)"/>
  <g style="display:inline;fill:#616161">
    <path d="M95.987 238.496c-40.02-3.626-73.497-31.904-83.754-70.747-4.013-15.198-4.013-33.368 0-48.566 9.68-36.655 39.637-63.734 77.404-69.965 6.991-1.154 22.642-1.154 29.633 0 41.257 6.807 72.625 38.175 79.432 79.431 1.85 11.211.998 27.643-2.028 39.1-9.657 36.57-39.811 63.872-77.228 69.921-4.454.72-18.981 1.232-23.46.826m22.401-5.72c52.756-8.696 86.477-59.58 73.702-111.214-8.706-35.184-37.598-61.553-73.878-67.425-6.899-1.117-21.007-1.118-27.693-.003-39.313 6.559-69.069 36.348-75.386 75.472-1.068 6.615-1.147 20.3-.155 26.736 6.489 42.08 39.946 73.562 82.067 77.22 4.23.368 17.254-.112 21.343-.787" style="display:inline;fill:#616161;fill-opacity:1;stroke:none;stroke-width:.352778;stroke-opacity:1" transform="matrix(3.68074 0 0 3.68391 1367.7 345.403)"/>
  </g>
  <path d="M2138.578 456.888h202.346M2252.543 657.405V456.888M2226.958 482.552v174.853" style="fill:#616161;fill-opacity:.766511;stroke:#0074D9;stroke-width:11.3386;stroke-miterlimit:3.6;stroke-dasharray:none" transform="translate(-487.604 315.97)"/>
  <path d="m3773.185 796.507 103.843 103.933m-684.636-685.226 103.196 103.284m480.701-3.578 99.057-99.143m-681.46 682.049 98.815-98.901" style="fill:#616161;stroke:#ff851b;stroke-width:22.0939;stroke-linecap:butt;stroke-linejoin:miter;stroke-dasharray:none;stroke-opacity:1" transform="translate(-487.604 315.97)"/>
  <path d="M3503.8 908.032c-147.304-13.358-270.524-117.532-308.278-260.626-14.77-55.988-14.77-122.925 0-178.913 35.63-135.033 145.894-234.79 284.904-257.744 25.732-4.252 83.34-4.252 109.072 0 151.856 25.076 267.314 140.633 292.368 292.616 6.81 41.3 3.674 101.835-7.464 144.041-35.545 134.72-146.534 235.299-284.256 257.583-16.394 2.652-69.865 4.538-86.35 3.043m82.452-21.072c194.18-32.036 318.299-219.488 271.278-409.703-32.045-129.614-138.389-226.755-271.926-248.387-25.394-4.115-77.321-4.119-101.93-.011-144.702 24.162-254.226 133.902-277.477 278.032-3.931 24.369-4.222 74.783-.57 98.493 23.884 155.019 147.03 270.996 302.067 284.471 15.57 1.356 63.507-.412 78.558-2.899" style="display:inline;fill:#616161;fill-opacity:1;stroke:none;stroke-width:1.29904;stroke-opacity:1" transform="translate(-487.604 315.97)"/>
  <path d="M3433.77 456.888h202.346M3547.735 657.405V456.888M3522.15 482.552v174.853" style="fill:#616161;fill-opacity:.766511;stroke:#ff4136;stroke-width:11.3386;stroke-miterlimit:3.6;stroke-dasharray:none" transform="translate(-487.604 315.97)"/>
  <text xml:space="preserve" x="2592.877" y="811.381" style="font-size:890.151px;font-family:Inter;-inkscape-font-specification:Inter;text-align:start;writing-mode:lr-tb;direction:ltr;text-anchor:start;fill:#616161;stroke:none;stroke-width:158.955;stroke-linecap:round;stroke-linejoin:round;stroke-dasharray:158.955,317.911;stroke-dashoffset:0;paint-order:stroke fill markers" transform="translate(-487.604 315.97)">
          <tspan x="2592.877" y="811.381" style="stroke-width:158.955">+</tspan>
        </text>
  <text xml:space="preserve" x="1439.785" y="933.162" style="font-size:1180.29px;font-family:Inter;-inkscape-font-specification:Inter;text-align:start;writing-mode:lr-tb;direction:ltr;text-anchor:start;fill:#616161;stroke:none;stroke-width:210.765;stroke-linecap:round;stroke-linejoin:round;stroke-dasharray:210.765,421.53;stroke-dashoffset:0;paint-order:stroke fill markers" transform="translate(-487.604 315.97)">
          <tspan x="1439.785" y="933.162" style="stroke-width:210.765">(</tspan>
        </text>
  <text xml:space="preserve" x="-4334.912" y="933.162" style="font-size:1180.29px;font-family:Inter;-inkscape-font-specification:Inter;text-align:start;writing-mode:lr-tb;direction:ltr;text-anchor:start;fill:#616161;stroke:none;stroke-width:210.765;stroke-linecap:round;stroke-linejoin:round;stroke-dasharray:210.765,421.53;stroke-dashoffset:0;paint-order:stroke fill markers" transform="matrix(-1 0 0 1 -487.604 315.97)">
          <tspan x="-4334.912" y="933.162" style="stroke-width:210.765">(</tspan>
        </text>
  <g style="fill:#616161">
    <path d="m441.626 97.989 77.882-77.95M6.03 533.96l77.397-77.463m360.527 2.683 74.293 74.358M7.15 22l74.112 74.176" style="fill:#616161;stroke:#ff851b;stroke-width:16.5705;stroke-linecap:butt;stroke-linejoin:miter;stroke-dasharray:none;stroke-opacity:1" transform="matrix(1.33333 0 0 -1.33333 -.092 1243.128)"/>
    <g style="display:inline;fill:#616161">
      <path d="M95.987 238.496c-40.02-3.626-73.497-31.904-83.754-70.747-4.013-15.198-4.013-33.368 0-48.566 9.68-36.655 39.637-63.734 77.404-69.965 6.991-1.154 22.642-1.154 29.633 0 41.257 6.807 72.625 38.175 79.432 79.431 1.85 11.211.998 27.643-2.028 39.1-9.657 36.57-39.811 63.872-77.228 69.921-4.454.72-18.981 1.232-23.46.826m22.401-5.72c52.756-8.696 86.477-59.58 73.702-111.214-8.706-35.184-37.598-61.553-73.878-67.425-6.899-1.117-21.007-1.118-27.693-.003-39.313 6.559-69.069 36.348-75.386 75.472-1.068 6.615-1.147 20.3-.155 26.736 6.489 42.08 39.946 73.562 82.067 77.22 4.23.368 17.254-.112 21.343-.787" style="display:inline;fill:#616161;fill-opacity:1;stroke:none;stroke-width:.352778;stroke-opacity:1" transform="matrix(3.68074 0 0 3.68391 -33.948 345.403)"/>
    </g>
    <path d="M187.064 352.704h151.76" style="fill:#616161;fill-opacity:.766511;stroke:#2ECC40;stroke-width:8.50394;stroke-miterlimit:3.6;stroke-dasharray:none" transform="matrix(1.33333 0 0 -1.33333 -.092 1243.128)"/>
    <path d="M262.944 202.316v150.388" style="fill:#616161;fill-opacity:.766511;stroke:#2ECC40;stroke-width:8.50394;stroke-miterlimit:3.6;stroke-dasharray:none" transform="matrix(1.33333 0 0 -1.33333 12.7 1243.128)"/>
    <path d="M243.755 333.456v-131.14" style="fill:#616161;fill-opacity:.766511;stroke:#2ECC40;stroke-width:8.50395;stroke-miterlimit:3.6;stroke-dasharray:none" transform="matrix(1.33333 0 0 -1.33333 12.7 1243.128)"/>
  </g>
  <text xml:space="preserve" x="1279.566" y="706.711" style="font-size:890.151px;font-family:Inter;-inkscape-font-specification:Inter;text-align:start;writing-mode:lr-tb;direction:ltr;text-anchor:start;fill:#616161;stroke:none;stroke-width:158.955;stroke-linecap:round;stroke-linejoin:round;stroke-dasharray:158.955,317.911;stroke-dashoffset:0;paint-order:stroke fill markers" transform="translate(-487.604 315.97)">
          <tspan x="1279.566" y="706.711" style="stroke-width:158.955">,</tspan>
        </text>
  <text xml:space="preserve" x="1502.072" y="3151.749" style="font-size:112px;font-family:Inter;-inkscape-font-specification:Inter;text-align:start;writing-mode:lr-tb;direction:ltr;text-anchor:start;fill:none;stroke-width:20;stroke-linecap:round;stroke-linejoin:round;stroke-dasharray:20,40;paint-order:stroke fill markers" transform="translate(-487.604 315.97)">

      </text>
  <text xml:space="preserve" x="3773.185" y="796.507" style="font-size:890.151px;font-family:Inter;-inkscape-font-specification:Inter;text-align:start;writing-mode:lr-tb;direction:ltr;text-anchor:start;fill:#616161;stroke:none;stroke-width:158.955;stroke-linecap:round;stroke-linejoin:round;stroke-dasharray:158.955,317.911;stroke-dashoffset:0;paint-order:stroke fill markers" transform="translate(1253.343 304.815)">
            <tspan x="3773.185" y="796.507" style="stroke-width:158.955">+</tspan>
          </text>
  <path d="m6655.882 935.326 103.933 103.842m-685.226-684.635 103.283 103.196m-3.577 480.701-99.144 99.057m682.05-681.46-98.902 98.815" style="fill:#616161;stroke:#ff851b;stroke-width:22.0939;stroke-linecap:butt;stroke-linejoin:miter;stroke-dasharray:none;stroke-opacity:1" transform="translate(-1749.719 150.839)"/>
  <g style="display:inline;fill:#616161">
    <path d="M95.987 238.496c-40.02-3.626-73.497-31.904-83.754-70.747-4.013-15.198-4.013-33.368 0-48.566 9.68-36.655 39.637-63.734 77.404-69.965 6.991-1.154 22.642-1.154 29.633 0 41.257 6.807 72.625 38.175 79.432 79.431 1.85 11.211.998 27.643-2.028 39.1-9.657 36.57-39.811 63.872-77.228 69.921-4.454.72-18.981 1.232-23.46.826m22.401-5.72c52.756-8.696 86.477-59.58 73.702-111.214-8.706-35.184-37.598-61.553-73.878-67.425-6.899-1.117-21.007-1.118-27.693-.003-39.313 6.559-69.069 36.348-75.386 75.472-1.068 6.615-1.147 20.3-.155 26.736 6.489 42.08 39.946 73.562 82.067 77.22 4.23.368 17.254-.112 21.343-.787" style="display:inline;fill:#616161;fill-opacity:1;stroke:none;stroke-width:.352778;stroke-opacity:1" transform="matrix(0 3.68074 3.68391 0 4139.09 463.475)"/>
  </g>
  <path d="M6316.263 595.91v202.347M6516.78 709.876h-200.517M6341.927 684.29h174.853" style="fill:#616161;fill-opacity:.766511;stroke:#2ECC40;stroke-width:11.3386;stroke-miterlimit:3.6;stroke-dasharray:none" transform="translate(-1749.719 150.839)"/>
  <g style="fill:#616161">
    <path d="m441.626 97.989 77.882-77.95c115.7-121.636 115.7-121.636 233.78 1.961L827.4 96.176M6.03 533.96l77.397-77.463m360.527 2.683 74.293 74.358c116.96 122.058 116.96 122.058 233.92.422l77.398-77.463M7.15 22l74.112 74.176" style="fill:none;stroke:#ff851b;stroke-width:16.5705;stroke-linecap:butt;stroke-linejoin:miter;stroke-dasharray:none;stroke-opacity:1" transform="rotate(90 3234.216 3234.124)scale(1.33333)"/>
    <g style="display:inline;fill:#616161">
      <path d="M95.987 238.496c-40.02-3.626-73.497-31.904-83.754-70.747-4.013-15.198-4.013-33.368 0-48.566 9.68-36.655 39.637-63.734 77.404-69.965 6.991-1.154 22.642-1.154 29.633 0 41.257 6.807 72.625 38.175 79.432 79.431 1.85 11.211.998 27.643-2.028 39.1-9.657 36.57-39.811 63.872-77.228 69.921-4.454.72-18.981 1.232-23.46.826m22.401-5.72c52.756-8.696 86.477-59.58 73.702-111.214-8.706-35.184-37.598-61.553-73.878-67.425-6.899-1.117-21.007-1.118-27.693-.003-39.313 6.559-69.069 36.348-75.386 75.472-1.068 6.615-1.147 20.3-.155 26.736 6.489 42.08 39.946 73.562 82.067 77.22 4.23.368 17.254-.112 21.343-.787" style="display:inline;fill:#616161;fill-opacity:1;stroke:none;stroke-width:.352778;stroke-opacity:1" transform="matrix(0 3.68074 3.68391 0 5570.615 -33.948)"/>
    </g>
    <path d="M187.064 352.704h151.76" style="fill:#616161;fill-opacity:.766511;stroke:#0074D9;stroke-width:8.50394;stroke-miterlimit:3.6;stroke-dasharray:none" transform="rotate(90 3234.216 3234.124)scale(1.33333)"/>
    <path d="M262.944 202.316v150.388" style="fill:#616161;fill-opacity:.766511;stroke:#0074D9;stroke-width:8.50394;stroke-miterlimit:3.6;stroke-dasharray:none" transform="rotate(90 3227.82 3240.52)scale(1.33333)"/>
    <path d="M243.755 333.456v-131.14" style="fill:#616161;fill-opacity:.766511;stroke:#0074D9;stroke-width:8.50395;stroke-miterlimit:3.6;stroke-dasharray:none" transform="rotate(90 3227.82 3240.52)scale(1.33333)"/>
  </g>
  <g style="fill:#616161">
    <path d="m1439.791 594.88 103.842 103.934m-100.738-585.52 99.057-99.144" style="fill:none;stroke:#ff851b;stroke-width:22.0939;stroke-linecap:butt;stroke-linejoin:miter;stroke-dasharray:none;stroke-opacity:1" transform="matrix(0 1 1 0 5742.808 143.798)"/>
    <path d="M1170.405 706.405c-147.303-13.358-270.523-117.531-308.277-260.625-14.77-55.988-14.77-122.925 0-178.913 35.63-135.034 145.894-234.79 284.904-257.745 25.732-4.251 83.34-4.251 109.072 0 151.856 25.076 267.314 140.633 292.368 292.617 6.81 41.3 3.674 101.834-7.464 144.04-35.545 134.721-146.534 235.3-284.256 257.583-16.394 2.653-69.865 4.539-86.35 3.043m82.452-21.072c194.18-32.035 318.299-219.487 271.277-409.702-32.044-129.615-138.388-226.756-271.925-248.388-25.394-4.115-77.322-4.118-101.93-.01-144.702 24.162-254.226 133.902-277.477 278.031-3.931 24.37-4.222 74.784-.57 98.493 23.884 155.02 147.03 270.996 302.067 284.472 15.57 1.355 63.507-.413 78.558-2.9" style="display:inline;fill:#616161;fill-opacity:1;stroke:none;stroke-width:1.29904;stroke-opacity:1" transform="matrix(0 1 1 0 5742.808 143.798)"/>
    <path d="M1100.376 255.262h202.346M1214.341 455.778V255.262M1188.756 280.926v174.852" style="fill:#616161;fill-opacity:.766511;stroke:#ff4136;stroke-width:11.3386;stroke-miterlimit:3.6;stroke-dasharray:none" transform="matrix(0 1 1 0 5742.808 143.798)"/>
  </g>
</svg>
