<?xml version="1.0" encoding="UTF-8" standalone="no"?>
<!-- Created with Inkscape (http://www.inkscape.org/) -->

<svg
   width="725.66388"
   height="545.73944"
   viewBox="0 0 725.66388 545.73944"
   version="1.1"
   id="svg1"
   inkscape:version="1.4.2 (ebf0e940d0, 2025-05-08)"
   sodipodi:docname="fig-6starstar.svg"
   xml:space="preserve"
   xmlns:inkscape="http://www.inkscape.org/namespaces/inkscape"
   xmlns:sodipodi="http://sodipodi.sourceforge.net/DTD/sodipodi-0.dtd"
   xmlns="http://www.w3.org/2000/svg"
   xmlns:svg="http://www.w3.org/2000/svg"><sodipodi:namedview
     id="namedview1"
     pagecolor="#282a36"
     bordercolor="#44475a"
     borderopacity="0.24705882"
     inkscape:showpageshadow="2"
     inkscape:pageopacity="0.0"
     inkscape:pagecheckerboard="0"
     inkscape:deskcolor="#44475a"
     inkscape:document-units="px"
     inkscape:zoom="0.58336621"
     inkscape:cx="566.5395"
     inkscape:cy="381.40708"
     inkscape:window-width="2234"
     inkscape:window-height="1418"
     inkscape:window-x="0"
     inkscape:window-y="0"
     inkscape:window-maximized="1"
     inkscape:current-layer="layer1" /><defs
     id="defs1"><inkscape:path-effect
       effect="knot"
       id="path-effect954"
       is_visible="true"
       lpeversion="1"
       switcher_size="15"
       interruption_width="3"
       prop_to_stroke_width="true"
       add_stroke_width="inkscape_1.0_and_up"
       both="false"
       inverse_width="false"
       add_other_stroke_width="inkscape_1.0_and_up"
       crossing_points_vector="726.20509 | 342.12732 | 0 | 0 | 0 | 3 | 0.83949445 | 3.4847435 | 1 | 262.46978 | 340.0839 | 0 | 0 | 1 | 4 | 1.5854418 | 4.7931247 | 1 | 500.65425 | 875.88589 | 0 | 0 | 2 | 5 | 2.8163314 | 5.6118873 | 1" /></defs><g
     inkscape:label="Layer 1"
     inkscape:groupmode="layer"
     id="layer1"
     transform="translate(-151.88516,-262.14211)"><g
       id="layer1-1"
       transform="matrix(3.1750904,0,0,3.1750904,127.71844,90.242817)"><path
         class="stroke-highlight"
         style="fill:none;stroke:#aaaaaa;stroke-width:3.5;stroke-linecap:butt;stroke-linejoin:miter;stroke-dasharray:none;stroke-opacity:1"
         d="m 108.62051,91.951978 c 9.78694,-17.51676 34.40189,-16.585861 45.28177,-0.245267"
         id="path4719-0"
         sodipodi:nodetypes="cc" /><path
         class="stroke-highlight"
         style="fill:none;stroke:#aaaaaa;stroke-width:3.5;stroke-linecap:butt;stroke-linejoin:miter;stroke-dasharray:none;stroke-opacity:1"
         d="m 137.07147,172.22289 c 9.78694,17.51676 34.40189,16.58586 45.28177,0.24527"
         id="path4719-0-5"
         sodipodi:nodetypes="cc" /><path
         class="stroke-highlight"
         style="fill:none;stroke:#aaaaaa;stroke-width:3.5;stroke-linecap:butt;stroke-linejoin:miter;stroke-dasharray:none;stroke-opacity:1"
         d="m 65.944068,172.46815 c 9.78694,17.51676 34.401892,16.58586 45.281772,0.24527"
         id="path4719-0-5-1"
         sodipodi:nodetypes="cc" /><path
         class="stroke-highlight"
         style="fill:none;stroke:#aaaaaa;stroke-width:3.5;stroke-linecap:butt;stroke-linejoin:miter;stroke-dasharray:none;stroke-opacity:1"
         d="m 42.15318,175.41135 c -31.908433,47.92986 197.50439,45.03682 163.50042,-1.96213"
         id="path4719-0-5-1-8"
         sodipodi:nodetypes="cc" /><path
         class="stroke-highlight"
         style="fill:none;stroke:#aaaaaa;stroke-width:3.5;stroke-linecap:butt;stroke-linejoin:miter;stroke-dasharray:none;stroke-opacity:1"
         d="m 13.97933,90.530758 c -31.908433,-47.92986 197.50439,-45.03682 163.50042,1.96213"
         id="path4719-0-5-1-8-3"
         sodipodi:nodetypes="cc" /><path
         class="stroke-highlight"
         style="fill:none;stroke:#aaaaaa;stroke-width:3.5;stroke-linecap:butt;stroke-linejoin:miter;stroke-dasharray:none;stroke-opacity:1"
         d="m 18.44877,122.17244 c -36.734984,73.91364 65.024458,112.69471 133.51616,99.55705 62.89318,-12.06379 91.59305,-37.15648 79.89624,-62.40086 -2.39242,-5.16339 -13.03947,-10.37377 -20.24819,-5.06679"
         id="path4719-0-5-1-8-3-7"
         sodipodi:nodetypes="cssc" /><path
         class="stroke-highlight"
         style="fill:none;stroke:#aaaaaa;stroke-width:3.5;stroke-linecap:butt;stroke-linejoin:miter;stroke-dasharray:none;stroke-opacity:1"
         d="M 38.258128,90.981068 C 48.045071,73.464308 72.660016,74.395207 83.539905,90.735801"
         id="path4719"
         sodipodi:nodetypes="cc" /><path
         class="stroke-highlight"
         style="fill:none;stroke:#aaaaaa;stroke-width:3.5;stroke-linecap:butt;stroke-linejoin:miter;stroke-dasharray:none;stroke-opacity:1"
         d="m 37.879481,116.50106 c -4.438543,17.02626 10.856262,7.51101 13.397076,28.69623"
         id="path4719-3-8"
         sodipodi:nodetypes="cc" /><path
         class="stroke-highlight"
         style="fill:none;stroke:#aaaaaa;stroke-width:3.5;stroke-linecap:butt;stroke-linejoin:miter;stroke-dasharray:none;stroke-opacity:1"
         d="m 106.29436,114.54474 c -4.43855,17.02626 10.85626,7.51101 13.39707,28.69623"
         id="path4719-3-8-0"
         sodipodi:nodetypes="cc" /><path
         class="stroke-highlight"
         style="fill:none;stroke:#aaaaaa;stroke-width:3.5;stroke-linecap:butt;stroke-linejoin:miter;stroke-dasharray:none;stroke-opacity:1"
         d="m 82.33203,115.52582 c 2.721682,22.17687 -17.969,12.90688 -17.566607,32.86577"
         id="path4719-3-8-0-4"
         sodipodi:nodetypes="cc" /><path
         class="stroke-highlight"
         style="fill:none;stroke:#aaaaaa;stroke-width:3.5;stroke-linecap:butt;stroke-linejoin:miter;stroke-dasharray:none;stroke-opacity:1"
         d="m 151.90848,112.67766 c 2.72168,22.17687 -17.969,12.90688 -17.56661,32.86577"
         id="path4719-3-8-0-4-8"
         sodipodi:nodetypes="cc" /><path
         class="stroke-highlight"
         style="fill:none;stroke:#aaaaaa;stroke-width:3.5;stroke-linecap:butt;stroke-linejoin:miter;stroke-dasharray:none;stroke-opacity:1"
         d="m 174.47856,116.50688 c -4.43854,17.02626 10.85626,7.51101 13.39707,28.69623"
         id="path4719-3-8-00"
         sodipodi:nodetypes="cc" /><path
         id="path4663"
         style="fill:#ff4136;stroke-width:4.23111;stroke-linecap:round;stroke-linejoin:round;stroke-dashoffset:130.744;paint-order:stroke markers fill"
         class="fill-orange "
         d="m 114.69184,104.1811 a 20,20 0 0 1 -19.999999,20 20,20 0 0 1 -20,-20 20,20 0 0 1 20,-20.000001 20,20 0 0 1 19.999999,20.000001 z" /><path
         id="path4663-3"
         style="fill:#ff4136;stroke-width:4.23111;stroke-linecap:round;stroke-linejoin:round;stroke-dashoffset:130.744;paint-order:stroke markers fill"
         class="fill-orange  "
         d="m 214.14758,161.81883 a 20,20 0 0 1 -20,20 20,20 0 0 1 -20,-20 20,20 0 0 1 20,-20 20,20 0 0 1 20,20 z" /><path
         id="path4663-8"
         style="fill:#ff4136;stroke-width:4.23111;stroke-linecap:round;stroke-linejoin:round;stroke-dashoffset:130.744;paint-order:stroke markers fill"
         class="fill-orange  "
         d="m 144.12388,161.81883 a 20,20 0 0 1 -20,20 20,20 0 0 1 -20,-20 20,20 0 0 1 20,-20 20,20 0 0 1 20,20 z" /><path
         id="path4663-0"
         style="fill:#ff4136;stroke-width:4.23111;stroke-linecap:round;stroke-linejoin:round;stroke-dashoffset:130.744;paint-order:stroke markers fill"
         class="fill-orange  "
         d="m 74.10017,161.81883 a 20,20 0 0 1 -20,20 20,20 0 0 1 -20,-20 20,20 0 0 1 20,-20 20,20 0 0 1 20,20 z" /><path
         id="path4663-9"
         style="fill:#ff4136;stroke-width:4.23111;stroke-linecap:round;stroke-linejoin:round;stroke-dashoffset:130.744;paint-order:stroke markers fill"
         class="fill-orange  "
         d="m 47.611347,104.1811 a 20,20 0 0 1 -20,20 20,20 0 0 1 -19.9999998,-20 20,20 0 0 1 19.9999998,-20.000001 20,20 0 0 1 20,20.000001 z" /><path
         id="path4663-7"
         style="fill:#ff4136;stroke-width:4.23111;stroke-linecap:round;stroke-linejoin:round;stroke-dashoffset:130.744;paint-order:stroke markers fill"
         class="fill-orange  "
         d="m 181.77234,104.1811 a 20,20 0 0 1 -20,20 20,20 0 0 1 -20,-20 20,20 0 0 1 20,-20.000001 20,20 0 0 1 20,20.000001 z" /></g></g></svg>
