<svg xmlns="http://www.w3.org/2000/svg" xml:space="preserve" viewBox="0 0 5048.313 4038.363">
  <path d="M15.235 500h971.038M500 13.305v346.442m0 280.506v345.375" style="fill:none;stroke:#ff851b;stroke-width:31.5176;stroke-linecap:butt;stroke-linejoin:miter;stroke-dasharray:none;stroke-opacity:1" transform="matrix(0 1 -1.2 -.69282 3583.516 455.542)"/>
  <path d="M2808.629-911.892c22.866-196.93 201.195-269.75 446.149-182.182 95.843 34.264 210.427 100.42 306.27 176.825 231.156 184.285 401.923 440.172 441.218 661.162 7.277 40.91 7.277 123.088 0 155.594-42.927 191.844-240.742 242.34-500.913 127.87-70.7-31.104-174.324-95.405-246.575-153.008-230.62-183.854-402.794-441.588-440.94-660.077-4.54-26.008-7.77-104.15-5.21-126.189m36.073 138.447c54.839 308.667 375.727 670.99 701.344 791.908 221.88 82.39 388.17 26.694 425.2-142.421 7.044-32.158 7.05-106.231.019-145.397-41.363-230.301-229.22-495-475.946-670.616-41.716-29.693-128.017-79.934-168.605-98.158-265.367-119.138-463.9-58.09-486.97 149.757-2.32 20.87.707 91.003 4.964 114.93" style="display:inline;fill:#616161;fill-opacity:1;stroke:none;stroke-width:2.03;stroke-opacity:1" transform="translate(-424.208 1130.706)"/>
  <path d="M3341.424-511.43v121.663c0 19.72-7.038 31.136-15.542 37.383l-119.719 108.059-121.698 70.262L2819.703-21.37s-16.202-39.611-16.202-129.187 16.129-137.66 16.129-137.66l252.372-145.865 80.057-222.229 174.721 75.133c14.668-8.468 14.571 51.574 14.644 69.748" style="fill:#94d1e0;fill-opacity:1;stroke-width:15.6537" transform="translate(-424.208 1130.706)"/>
  <path d="m3168.188-230.756 158.427-166.84 14.736.685c1.393 24.43-6.213 76.785-14.57 82.947L3152.058-54.508l-80.057-112.36-252.519 145.792s-6.525-16.12-11.29-50.636l291.594-168.185z" style="fill:#94d1e0;fill-opacity:1;stroke-width:15.6537" transform="translate(-424.208 1130.706)"/>
  <path d="M1984.164 284.718c5.279-329.932 107.33-402.555 138.267-420.417 271.255-156.61 327.852-189.954 408.789-236.683 68.473-39.533 101.977 44.57 134.454 25.987 32.55-18.793 41.275-140.98 99.411-174.713 59.53-34.37 68.4 50.587 68.4 50.587s3.886 107.888 3.446 233.48c.953 141-2.785 347.546-2.785 347.546s-9.531 96.081-69.06 130.45c-56.597 32.677-66.861-78.715-99.412-59.922-32.55 18.793-65.98 141.708-134.454 181.241-80.937 46.729-137.534 78.737-408.79 235.346-31.23 18.031-135.113 64.137-138.412-270.703z" style="fill:#f44336;stroke-width:15.6537" transform="translate(-424.208 1130.706)"/>
  <path d="M1375.978 2358.186c582.753 337.207 582.753 337.207 582.753-148.312" style="fill:none;fill-opacity:1;stroke:#2ecc40;stroke-width:34.5262;stroke-miterlimit:3.6;stroke-dasharray:none" transform="translate(-361.21 32.248)"/>
  <path d="M1958.731 3180.912c0-485.52 0-485.52 584.034-149.081" style="fill:none;fill-opacity:1;stroke:#2ecc40;stroke-width:34.5262;stroke-miterlimit:3.6;stroke-dasharray:none" transform="translate(-361.21 32.248)"/>
  <path d="M15.235 500h971.038M500 13.305v415.86m0 141.67v414.793" style="fill:none;stroke:#ff851b;stroke-width:15.918;stroke-linecap:butt;stroke-linejoin:miter;stroke-dasharray:31.836,15.918;stroke-dashoffset:0;stroke-opacity:.678431" transform="matrix(0 1 -1.2 -.69282 2197.521 2574.051)"/>
  <path d="M1359.636 2305.075c22.867-196.93 201.195-269.75 446.15-182.182 95.842 34.264 210.427 100.42 306.27 176.825 231.155 184.285 401.922 440.172 441.217 661.162 7.277 40.909 7.277 123.087 0 155.593-42.927 191.845-240.742 242.34-500.913 127.871-70.7-31.104-174.324-95.405-246.575-153.008-230.62-183.854-402.793-441.588-440.94-660.077-4.54-26.009-7.77-104.15-5.209-126.19m36.072 138.448c54.84 308.667 375.727 670.99 701.345 791.908 221.88 82.39 388.169 26.694 425.2-142.422 7.043-32.157 7.05-106.23.018-145.396-41.363-230.301-229.22-495-475.946-670.616-41.716-29.693-128.017-79.934-168.604-98.158-265.368-119.138-463.901-58.09-486.97 149.757-2.32 20.87.707 91.003 4.963 114.93" style="display:inline;fill:#616161;fill-opacity:1;stroke:none;stroke-width:2.03;stroke-opacity:1" transform="translate(-361.21 32.248)"/>
  <path d="M1359.636 2305.075c22.867-196.93 201.195-269.75 446.15-182.182 95.842 34.264 210.427 100.42 306.27 176.825 231.155 184.285 401.922 440.172 441.217 661.162 7.277 40.909 7.277 123.087 0 155.593-42.927 191.845-240.742 242.34-500.913 127.871-70.7-31.104-174.324-95.405-246.575-153.008-230.62-183.854-402.793-441.588-440.94-660.077-4.54-26.009-7.77-104.15-5.209-126.19m36.072 138.448c54.84 308.667 375.727 670.99 701.345 791.908 221.88 82.39 388.169 26.694 425.2-142.422 7.043-32.157 7.05-106.23.018-145.396-41.363-230.301-229.22-495-475.946-670.616-41.716-29.693-128.017-79.934-168.604-98.158-265.368-119.138-463.901-58.09-486.97 149.757-2.32 20.87.707 91.003 4.963 114.93" style="display:inline;fill:#616161;fill-opacity:1;stroke:none;stroke-width:2.03;stroke-opacity:1" transform="translate(-361.21 32.248)"/>
  <path d="m1181.93 2033.212 62.845 58.12.266-1.106.224-1.12.268-1.158.242-1.156.265-1.106.269-1.158.241-1.156.266-1.107.708-2.696.308-1.076.343-1.078.308-1.075.359-1.045.308-1.075.343-1.078.308-1.076.343-1.078.308-1.075.308-1.075.308-1.076.343-1.078.343-1.078.308-1.075.343-1.078.324-1.042.343-1.078.308-1.076.343-1.078.308-1.075.343-1.078.309-1.075.87-2.559.375-1.011.375-1.012.375-1.012.36-1.045.375-1.012.375-1.012.375-1.012.375-1.011.375-1.012.359-1.045.375-1.012.375-1.011.375-1.013.34-1.009.376-1.011.359-1.045.375-1.012.375-1.012.341-1.009.375-1.012.359-1.045.985-2.456.437-.947.436-.948.42-.981.437-.948.421-.981.437-.948.436-.948.42-.981.437-.948.482-.986.408-.945.42-.982.437-.947.437-.948.42-.981.436-.948.421-.981.437-.948.437-.948.42-.981.436-.948.437-.948 1.119-2.315.539-.87.492-.9.492-.901.507-.868.524-.903.477-.865.522-.903.508-.868.492-.9.508-.868.522-.904.478-.865.492-.9.508-.868.491-.9.509-.868.492-.9.476-.866.524-.903.507-.868.492-.9.54-.87 1.268-2.14.57-.804.556-.837.555-.837.572-.803.554-.837.541-.802.555-.837.555-.837.572-.803.524-.835.555-.837.571-.803.556-.838.57-.803.525-.835.555-.837.572-.803.554-.837.541-.802.555-.837.555-.837.571-.803 1.402-1.999.643-.723.57-.804.613-.721.643-.724.571-.804.643-.723.611-.721.588-.77.643-.724.571-.804.643-.724.612-.72.587-.771.612-.721.602-.806.612-.722.643-.723.587-.77.588-.771.642-.724.588-.77.643-.724 1.548-1.83.659-.69.674-.657.66-.69.675-.658.659-.69.675-.657.659-.69.66-.691.674-.657.658-.69.677-.658.658-.69.675-.657.66-.69.658-.691.675-.657.659-.69.675-.658.659-.69.675-.657.659-.69.658-.691.676-.657 1.77-1.573.722-.626.708-.59.739-.595.722-.626.738-.594.691-.624.74-.593.721-.627.738-.593.691-.624.74-.594.721-.626.739-.594.722-.626.707-.591.723-.627.738-.593.722-.627.738-.593.692-.625.738-.593.722-.626 1.89-1.393.763-.544.756-.56.793-.546.754-.56.81-.514.763-.544.785-.562.763-.544.762-.544.81-.513.755-.56.763-.544.754-.56.793-.547.78-.51.785-.563.763-.544.786-.563.762-.544.81-.513.754-.56.794-.546 1.97-1.296.842-.447.842-.447.842-.448.842-.447.842-.447.842-.447.842-.447.811-.445.842-.447.811-.445.842-.447.842-.447.842-.447.842-.447.811-.445.842-.447.842-.447.843-.448.842-.447.842-.447.842-.447.842-.447.81-.445 2.178-1.003.842-.447.843-.38.842-.446.884-.363.842-.447.842-.38.842-.446.884-.363.842-.447.874-.381.81-.445.885-.362.842-.447.883-.363.811-.445.884-.362.16.33.162.33.161.329.161.33.161.329.161.33.161.329.161.33.161.33.161.329.161.33.161.329.161.33.161.33.162.329.16.33.162.329.16.33.162.33.16.329.162.33.161.329.161.33.161.329.161.33.161.33.161.329.161.33.161.329.161.33.161.33.161.329.161.33.162.329.16.33.162.33.16.329.162.33.16.329.162.33.161.329.161.33.161.33.161.329.161.33.161.329.161.33.161.33.161.329.162.33.16.329.162.33.16.329.162.33.16.329.162.33.16.33.162.33.161.329.161.33.161.329.161.33.161.329.161.33.161.329.161.33.161.33.161.329.161.33.161.329.161.33.162.33.16.329.162.33.16.329.162.33.16.33.162.329.161.33.161.329.161.33.161.33.161.329.161.33.161.329.161.33.161.329.161.33.162.33.16.329.162.33.16.329.162.33.16.33.162.329.16.33.162.329.161.33.161.33.161.329.161.33.161.329.161.33.161.329.162.33.16.33.162.329.16.33.162.329.16.33.162.329.16.33.162.33.161.329.161.33.161.33.161.329.161.33.161.329.161.33.161.33.161.329.161.33.162.329.16.33.161.329.162.33.16.329.162.33.16.33.162.329.16.33.162.33.16.329.162.33.161.329.161.33.161.33.161.329.161.33.161.329.161.33.161.329.161.33.162.33.16.329.162.33.16.329.162.33.16.329.162.33.16.329.162.33.161.33.161.329.161.33.161.33.161.329.161.33.161.329.161.33.162.33.16.329.162.33.16.329.162.33.16.329.162.33.16.33.162.329.161.33.161.329.161.33.161.329.161.33.161.33.161.329.161.33.161.33.161.329.162.33.16.329.162.33.16.329.162.33.16.33.162.329.16.33.162.329.161.33.161.329.161.33.161.33.161.329.161.33.161.329.161.33.161.33.161.329.162.33.16.33.162.329.16.33.162.329.16.33.162.329.16.33.162.329.161.33.161.33.161.329.161.33.161.329.161.33.161.329.161.33.161.33.161.329.162.33.16.33.162.329.16.33.162.329.16.33.162.33.16.329.162.33.161.329.161.33.161.329.161.33.161.33.161.329.161.33.161.329.161.33.161.329.162.33.16.33.162.329.16.33.162.33.16.329.162.33.16.329.162.33.161.329.161.33.375.767.161.33.161.33.161.329.161.33.161.329.161.33.161.329-.859.412-.859.412-.86.412-.858.412-.86.412-.859.412-.859.412-.859.412-.859.412-.86.412-.859.412-.86.412-.858.412-.86.412-.859.412-.859.412-.842.447-.842.447-.81.445-.843.447-.81.445-.842.447-.843.447-.843.447-.841.448-.842.447-.842.447-.842.447-.811.445-.81.445-.843.447-.842.447-.842.447-.842.447-.842.447-.843.448-.81.444-.842.448-.843.447-.762.544-.786.562-.762.544-.785.563-.78.51-.763.544-.793.547-.755.56-.793.546-.779.51-.785.563-.764.544-.785.563-.762.544-.81.513-.754.56-.794.547-.755.56-.762.544-.78.51-.754.56-.762.545-.739.593-.722.627-.739.593-.69.624-.74.594-.721.626-.74.594-.721.626-.707.59-.722.628-.74.593-.722.627-.707.59-.722.627-.739.594-.722.626-.707.59-.722.628-.74.593-.721.627-.738.593-.691.624-.676.658-.659.69-.658.69-.676.657-.659.69-.674.658-.66.69-.675.658-.658.69-.66.69-.675.657-.658.69-.676.658-.659.69-.675.658-.659.69-.658.69-.676.658-.658.69-.675.657-.66.69-.675.658-.658.69-.588.77-.611.722-.62.773-.61.721-.604.806-.61.721-.613.721-.618.773-.612.721-.602.807-.612.72-.612.722-.587.77-.644.724-.57.804-.644.723-.611.721-.588.77-.618.774-.581.718-.618.774-.612.72-.555.837-.571.804-.556.837-.57.804-.556.837-.555.837-.572.804-.524.834-.571.804-.556.837-.555.836-.571.805-.524.834-.572.804-.555.836-.555.838-.57.804-.556.836-.571.804-.556.837-.555.837-.571.804-.539.87-.461.898-.508.868-.492.9-.508.868-.492.9-.477.866-.523.903-.507.867-.492.901-.509.868-.522.903-.477.865-.523.903-.508.868-.492.9-.539.87-.46.899-.54.87-.491.9-.509.868-.492.901-.467.95-.42.981-.437.948-.437.948-.42.981-.437.948-.42.981-.437.948-.437.948-.42.98-.436.949-.437.948-.452.983-.42.981-.437.948-.436.948-.421.98-.437.949-.42.98-.437.949-.436.948-.42.98-.36 1.046-.375 1.012-.375 1.011-.375 1.012-.36 1.045-.374 1.012-.375 1.012-.376 1.011-.375 1.012-.375 1.012-.359 1.045-.375 1.012-.375 1.012-.375 1.011-.375 1.012-.36 1.045-.374 1.012-.375 1.012-.375 1.012-.375 1.011-.36 1.045-.342 1.078-.343 1.079-.308 1.075-.343 1.078-.324 1.042-.309 1.075-.342 1.078-.308 1.076-.343 1.078-.308 1.075-.309 1.075-.308 1.075-.343 1.078-.308 1.076-.342 1.078-.309 1.075-.359 1.045-.308 1.076-.343 1.077-.308 1.076-.343 1.078-.308 1.075-.242 1.156-.268 1.158-.242 1.156-.266 1.107-.242 1.156-.267 1.158-.232 1.103-.258 1.123 76.105 70.398-112.73 83.014zM1546.706 1789.449l29.795 79.908 1.111.17 1.168.286 1.197.214 1.199.283 1.157.197 1.198.283 1.096.135 1.198.283 1.157.197 1.199.283 1.166.217 1.198.282 1.157.197 1.199.283 1.166.217 1.2.282 1.156.198 1.199.282 1.166.217 2.995.67 1.199.283 1.198.282 1.199.283 1.167.284 1.199.283 1.198.282 1.198.282 1.199.283 1.198.282 1.2.282 1.198.283 1.167.284 1.199.283 1.198.282 1.199.282 1.198.283 1.167.285 1.199.282 1.198.282 1.168.285 1.198.282 1.2.283 2.997.808 1.225.4 1.23.349 1.216.383 1.255.399 1.216.383 1.255.398 1.2.35 1.247.383 1.224.4 1.247.381 1.224.401 1.2.35 1.216.384 1.224.4 1.216.385 1.247.381 1.2.35 1.254.4 1.216.383 1.225.4 1.246.382 1.2.35 1.255.398 3.097 1.076 1.24.434 1.225.469 1.241.434 1.256.466 1.24.434 1.256.467 1.21.436 1.256.467 1.24.433 1.257.467 1.21.436 1.255.467 1.241.433 1.257.467 1.21.436 1.256.467 1.24.433 1.256.467 1.241.434 1.225.469 1.24.433 1.257.467 3.099 1.213 1.242.503 1.258.535 1.242.503 1.257.535 1.242.502 1.258.536 1.258.535 1.242.503 1.257.535 1.242.503 1.258.535 1.243.502 1.257.536 1.258.535 1.241.503 1.259.535 1.241.503 1.258.535 1.242.503 1.258.534 1.258.536 1.241.502 3.159 1.398 1.242.571 1.267.621 1.3.619 1.242.57 1.298.62 1.214.573 1.297.618 1.268.621 1.274.569 1.267.62 1.274.57 1.268.62 1.268.62 1.273.57 1.268.62 1.274.568 1.253.656 1.274.57 1.243.57 1.3.619 1.242.57 1.314.653 3.121 1.52 1.3.686 1.252.656 1.3.686 1.285.654 1.298.687 1.3.687 1.253.656 1.3.688 1.284.654 1.3.687 1.3.688 1.253.657 1.3.687 1.283.654 1.3.687 1.3.688 1.283.654 1.27.69 1.283.654 1.269.69 1.3.687 1.283.654 3.197 1.74 1.3.752 1.317.72 1.271.758 1.332.754 1.285.722 1.302.752 1.316.72 1.27.758 1.316.721 1.301.751 1.286.723 1.3.751 1.317.72 1.27.759 1.317.72 1.3.751 1.286.722 1.332.754 1.254.724 1.302.752 1.253.723 1.333.754 3.175 1.892 1.31.841 1.295.808 1.31.84 1.295.809 1.296.808 1.31.841 1.295.809 1.295.808 1.31.84 1.294.808 1.295.808 1.342.839 1.294.808 1.282.844 1.296.808 1.325.806 1.31.84 1.295.808 1.287.791 1.31.841 1.295.808 1.311.84 3.202 2.08 1.298.877 1.298.877 1.298.877 1.298.876 1.314.91 1.298.877 1.298.876 1.298.877 1.298.877 1.314.91 1.298.876 1.297.877 1.299.877 1.297.876 1.264.88 1.314.91 1.298.876 1.298.876 1.298.877 1.297.876 1.298.877 1.315.91 3.21 2.229 1.295.946 1.296.945 1.33.943 1.296.946 1.33.943 1.296.946 1.33.942 1.296.946 1.296.946 1.28.912 1.295.946 1.296.946 1.33.943 1.296.945 1.33.943 1.296.946 1.296.946 1.33.942 1.296.946 1.33.943 1.297.946 1.314.91 3.205 2.418 1.302 1.031 1.302 1.031 1.302 1.032 1.312.979 1.301 1.031.106.216.121.248.123.25.12.246.12.247.124.251.12.245.122.251.12.245.123.251.121.248.123.251.122.251.12.245.123.25.12.246.123.25.12.249.123.25.123.252.12.245.123.25.12.245.122.251.12.245.123.251.123.251.12.245.122.251.12.245.123.251.121.248.123.251.122.251.122.248.122.25.119.245.123.251.122.251.123.251.123.251.12.245.122.251.12.245.123.25.123.252.122.25.123.252.12.245.123.25.12.246.122.25.123.252.123.25.122.252.123.25.105.216.123.251.12.245.123.251.122.251.123.251.123.251.122.251.123.251.12.245.123.251.122.251.123.251.123.251.122.251.123.251.12.245.123.251.122.251.123.251.123.251.122.252.12.244.123.251.123.251.122.251.123.251.123.252.122.25.12.245.123.251.123.251.122.251.123.251.123.252.122.25.12.245.123.251.12.245.123.251.122.251.123.251.123.251.12.245.122.251.12.245.123.251.122.251.12.245.123.251.121.248.123.25.12.246.123.25.122.252.12.245.123.25.121.248.123.251.12.248.123.251.123.251.106.216.12.245.122.25.12.246.123.25.12.246.123.25.12.246.12.244.122.252.12.244.123.251.12.245.123.251.12.245.12.245.122.25.12.246.123.25.121.249.123.25.12.246.121.247.123.251.12.248.123.251.12.245.123.251.121.248.12.245.123.25.12.246.122.25.12.246.123.25.12.245.12.245.123.251.12.248.123.251.12.245.123.25.12.246.121.248.123.25.12.246.122.25.122.248.122.251.123.251.122.251.123.252.121.247.123.251.12.245.123.251.122.251.123.251.123.251.12.245.122.251.121.248.123.25.106.217.12.248.123.25.123.252.12.244.123.251.12.245.122.251.123.251.123.251.122.251.12.245.123.251.12.245.123.251.122.251.123.251.123.251.122.251.123.251.121.248.123.251.122.251.123.251.123.251.122.251.12.245.123.251.123.251.122.251.123.251.123.251.122.251.12.245.123.251.123.251.122.251.123.251.123.251.122.251.121.248.123.251.123.251.122.251.123.251.123.251.122.251.121.248.123.25.123.252.122.25.123.252.12.245.123.25.12.246.122.25.123.252.123.25.122.252.121.248.123.25.121.248.106.216.123.251.12.245.122.251.123.251.122.251.123.251.12.245.123.251.12.248.124.25.122.252.121.248-1.336-1.029-1.277-.981-1.302-1.031-1.302-1.032-1.277-.981-1.33-.943-1.296-.946-1.33-.943-1.297-.946-1.33-.942-1.296-.947-1.295-.945-1.296-.945-1.33-.943-1.296-.946-1.296-.946-1.296-.945-1.28-.913-1.295-.946-1.296-.945-1.296-.946-1.33-.943-1.296-.946-1.33-.943-1.33-.942-1.296-.946-1.33-.943-1.315-.91-1.297-.877-1.298-.876-1.298-.877-1.314-.91-1.298-.876-1.298-.877-1.298-.876-1.298-.877-1.314-.91-1.298-.876-1.298-.877-1.298-.877-1.298-.876-1.298-.877-1.314-.91-1.298-.876-1.297-.877-1.298-.877-1.298-.876-1.314-.91-1.298-.877-1.343-.839-1.294-.807-1.294-.808-1.312-.842-1.294-.808-1.295-.807-1.31-.841-1.295-.808-1.31-.841-1.296-.808-1.295-.808-1.31-.842-1.296-.808-1.294-.808-1.31-.841-1.296-.809-1.31-.84-1.294-.808-1.296-.809-1.31-.841-1.295-.808-1.295-.808-1.332-.753-1.27-.759-1.316-.72-1.302-.752-1.285-.722-1.302-.751-1.315-.721-1.271-.759-1.284-.722-1.302-.752-1.286-.723-1.331-.753-1.255-.724-1.301-.751-1.285-.723-1.302-.752-1.285-.722-1.27-.758-1.316-.72-1.302-.751-1.284-.723-1.302-.751-1.283-.654-1.3-.687-1.252-.656-1.3-.687-1.301-.686-1.283-.654-1.3-.688-1.284-.654-1.3-.688-1.3-.687-1.283-.655-1.3-.686-1.284-.655-1.3-.687-1.3-.687-1.252-.656-1.3-.686-1.3-.687-1.283-.654-1.3-.687-1.253-.656-1.3-.688-1.268-.62-1.242-.572-1.268-.62-1.299-.619-1.242-.571-1.299-.618-1.244-.572-1.268-.62-1.267-.621-1.273-.568-1.268-.621-1.298-.619-1.243-.571-1.268-.62-1.274-.57-1.268-.62-1.298-.618-1.243-.572-1.268-.62-1.243-.572-1.298-.618-1.267-.62-1.242-.503-1.258-.535-1.242-.503-1.257-.535-1.242-.503-1.259-.535-1.257-.536-1.243-.502-1.257-.535-1.242-.503-1.257-.535-1.243-.503-1.257-.535-1.258-.536-1.242-.502-1.258-.536-1.242-.502-1.258-.535-1.241-.503-1.258-.535-1.258-.535-1.242-.502-1.257-.467-1.208-.437-1.257-.466-1.24-.434-1.256-.467-1.21-.436-1.257-.467-1.24-.433-1.256-.467-1.21-.436-1.256-.467-1.24-.433-1.257-.467-1.24-.434-1.226-.469-1.24-.434-1.256-.466-1.24-.434-1.257-.466-1.21-.437-1.256-.466-1.24-.434-1.224-.4-1.247-.382-1.23-.348-1.225-.4-1.216-.384-1.225-.401-1.246-.381-1.2-.351-1.247-.381-1.224-.4-1.247-.382-1.223-.4-1.23-.349-1.217-.384-1.255-.397-1.216-.384-1.255-.398-1.2-.351-1.247-.381-1.223-.401-1.217-.384-1.254-.398-1.2-.35-1.198-.283-1.199-.282-1.198-.282-1.2-.283-1.198-.282-1.167-.285-1.198-.282-1.199-.282-1.198-.283-1.199-.282-1.168-.285-1.198-.282-1.168-.285-1.199-.282-1.198-.283-1.198-.282-1.199-.282-1.198-.282-1.199-.283-1.198-.282-1.199-.282-1.167-.285-1.198-.283-1.181-.247-1.151-.25-1.182-.247-1.181-.247-1.14-.162-1.181-.247-1.182-.248-1.18-.247-1.182-.247-1.181-.247-1.181-.247-1.182-.247-1.181-.247-1.181-.247-1.181-.248-1.213-.245-1.15-.25-1.143-.168 36.078 96.747-192.388-122.24zM2740.115 3383.33l-62.846-58.12-.266 1.107-.224 1.12-.268 1.158-.241 1.156-.267 1.106-.268 1.158-.241 1.156-.266 1.107-.708 2.696-.308 1.075-.343 1.079-.308 1.075-.359 1.045-.308 1.075-.343 1.078-.308 1.075-.343 1.078-.308 1.076-.308 1.075-.308 1.075-.343 1.078-.343 1.078-.308 1.076-.343 1.078-.324 1.042-.343 1.078-.308 1.075-.343 1.078-.308 1.076-.343 1.078-.308 1.075-.87 2.558-.376 1.012-.375 1.012-.375 1.012-.36 1.045-.374 1.011-.376 1.012-.375 1.012-.375 1.012-.375 1.012-.359 1.045-.375 1.012-.375 1.011-.375 1.012-.34 1.01-.376 1.01-.359 1.046-.375 1.012-.375 1.011-.34 1.01-.376 1.012-.359 1.045-.985 2.455-.437.948-.436.948-.42.98-.438.949-.42.98-.437.949-.436.948-.42.98-.437.949-.482.986-.408.945-.42.981-.437.948-.437.948-.42.98-.436.95-.421.98-.437.948-.437.948-.42.98-.436.949-.437.948-1.119 2.315-.538.87-.493.9-.492.901-.507.867-.524.904-.477.865-.522.903-.508.868-.492.9-.508.868-.522.903-.478.865-.492.901-.508.868-.491.9-.509.868-.492.9-.476.865-.524.904-.507.867-.492.9-.54.871-1.268 2.14-.57.804-.556.837-.555.836-.572.804-.554.837-.541.801-.555.837-.555.837-.572.804-.524.834-.555.837-.571.804-.556.837-.57.804-.525.835-.555.837-.572.803-.554.837-.54.802-.556.836-.555.837-.571.804-1.402 1.999-.643.723-.57.804-.613.721-.643.723-.571.805-.643.723-.611.72-.588.771-.643.724-.571.804-.643.723-.612.721-.587.77-.612.722-.602.806-.612.721-.643.723-.587.77-.588.772-.642.723-.588.771-.643.724-1.548 1.83-.659.69-.675.657-.659.69-.675.658-.659.69-.675.657-.659.69-.66.69-.674.658-.659.69-.675.657-.659.69-.675.658-.659.69-.659.691-.675.657-.659.69-.675.657-.658.69-.676.658-.659.69-.658.691-.676.657-1.77 1.573-.722.626-.708.59-.739.594-.722.627-.738.593-.691.624-.739.594-.722.627-.738.593-.691.624-.739.594-.722.626-.739.593-.722.627-.707.591-.723.627-.738.593-.722.626-.738.594-.692.624-.738.594-.722.626-1.89 1.393-.763.544-.756.56-.793.546-.754.56-.81.514-.763.543-.785.563-.763.544-.762.544-.81.513-.755.56-.763.544-.754.56-.793.547-.779.51-.786.563-.763.543-.786.563-.762.544-.81.513-.754.56-.794.547-1.97 1.296-.842.447-.842.447-.842.447-.842.447-.842.448-.841.447-.843.447-.811.445-.842.447-.811.444-.842.448-.842.447-.842.447-.842.447-.811.445-.842.447-.842.447-.843.447-.842.448-.842.447-.842.447-.841.447-.811.445-2.178 1.003-.842.447-.843.379-.842.447-.883.363-.843.447-.842.379-.842.447-.884.362-.842.447-.874.382-.81.445-.885.362-.842.447-.883.363-.811.444-.884.363-.16-.33-.162-.33-.16-.329-.162-.33-.16-.33-.162-.329-.161-.33-.161-.329-.161-.33-.161-.33-.161-.329-.161-.33-.161-.329-.161-.33-.161-.329-.162-.33-.16-.33-.162-.329-.16-.33-.162-.33-.16-.328-.162-.33-.16-.33-.162-.33-.161-.329-.161-.33-.161-.33-.161-.329-.161-.33-.161-.329-.161-.33-.161-.329-.161-.33-.162-.33-.16-.329-.162-.33-.16-.329-.162-.33-.16-.329-.162-.33-.16-.33-.162-.329-.161-.33-.161-.33-.161-.329-.161-.33-.161-.329-.161-.33-.161-.329-.161-.33-.161-.33-.161-.329-.162-.33-.16-.329-.162-.33-.16-.329-.162-.33-.16-.33-.162-.329-.161-.33-.161-.33-.161-.329-.161-.33-.161-.329-.161-.33-.161-.33-.161-.329-.161-.33-.161-.329-.161-.33-.161-.329-.161-.33-.161-.329-.162-.33-.16-.33-.162-.329-.16-.33-.162-.33-.161-.329-.16-.33-.162-.329-.161-.33-.161-.33-.161-.328-.161-.33-.161-.33-.161-.33-.161-.329-.162-.33-.16-.33-.162-.329-.16-.33-.162-.329-.16-.33-.162-.329-.16-.33-.162-.33-.161-.329-.161-.33-.161-.329-.161-.33-.161-.329-.161-.33-.161-.33-.161-.329-.161-.33-.161-.33-.161-.329-.161-.33-.162-.329-.16-.33-.162-.329-.16-.33-.162-.33-.16-.329-.162-.33-.161-.329-.161-.33-.161-.33-.161-.329-.161-.33-.161-.329-.161-.33-.161-.33-.161-.329-.161-.33-.161-.329-.161-.33-.162-.33-.16-.329-.162-.33-.16-.329-.162-.33-.16-.329-.162-.33-.161-.329-.161-.33-.161-.33-.161-.329-.161-.33-.161-.33-.161-.329-.161-.33-.161-.329-.162-.33-.16-.33-.162-.329-.16-.33-.162-.329-.16-.33-.162-.329-.16-.33-.162-.33-.161-.329-.161-.33-.161-.329-.161-.33-.161-.329-.161-.33-.161-.33-.161-.329-.161-.33-.161-.33-.161-.329-.161-.33-.161-.329-.162-.33-.16-.329-.162-.33-.16-.33-.162-.329-.16-.33-.162-.329-.161-.33-.161-.329-.161-.33-.161-.33-.161-.329-.161-.33-.161-.329-.161-.33-.161-.33-.161-.329-.161-.33-.162-.329-.16-.33-.162-.329-.16-.33-.162-.33-.16-.329-.162-.33-.16-.329-.162-.33-.161-.33-.161-.329-.161-.33-.161-.329-.161-.33-.161-.329-.161-.33-.161-.33-.162-.329-.16-.33-.162-.33-.16-.329-.162-.33-.16-.329-.162-.33-.161-.33-.161-.329-.161-.33-.161-.329-.161-.33-.161-.329-.161-.33-.161-.329-.161-.33-.161-.33-.161-.329-.161-.33-.162-.329-.16-.33-.162-.33-.16-.329-.162-.33-.16-.33-.162-.328-.16-.33-.162-.33-.161-.33-.161-.329-.161-.33-.161-.33-.161-.329-.161-.33-.161-.329-.161-.33-.161-.329-.161-.33-.161-.329-.162-.33-.16-.33-.162-.329-.16-.33-.162-.33-.16-.329-.162-.33-.16-.329-.376-.767-.161-.33-.161-.33-.161-.329-.161-.33-.161-.329-.161-.33-.161-.33.859-.411.86-.412.858-.412.86-.412.858-.412.86-.412.859-.412.859-.412.859-.413.86-.412.86-.411.858-.412.86-.412.859-.412.859-.412.859-.413.842-.447.842-.447.81-.445.843-.447.81-.444.843-.448.842-.447.843-.447.842-.447.841-.447.842-.448.842-.447.811-.444.811-.445.842-.447.842-.447.842-.447.842-.448.842-.447.843-.447.81-.445.843-.447.842-.447.762-.544.786-.562.762-.544.786-.563.78-.511.762-.544.793-.546.755-.56.793-.546.779-.511.786-.563.763-.544.785-.562.762-.544.81-.514.755-.56.793-.546.755-.56.762-.544.78-.51.754-.56.763-.545.738-.593.722-.627.74-.593.69-.624.738-.594.722-.626.74-.594.721-.626.708-.591.721-.627.74-.593.722-.627.707-.59.722-.627.739-.594.722-.627.707-.59.722-.627.74-.594.721-.626.738-.593.692-.625.675-.657.659-.69.659-.69.675-.657.659-.69.675-.658.66-.69.674-.658.658-.69.66-.69.675-.658.658-.69.676-.657.659-.69.675-.658.659-.69.658-.69.676-.658.659-.69.674-.657.66-.69.675-.658.658-.69.588-.77.612-.722.618-.773.612-.721.603-.806.61-.722.613-.72.618-.774.612-.72.603-.807.611-.72.612-.722.587-.77.644-.724.57-.804.644-.723.611-.721.588-.77.618-.774.581-.719.619-.773.61-.72.557-.838.57-.803.556-.837.57-.804.557-.837.554-.837.572-.804.524-.834.571-.804.556-.837.555-.837.571-.804.524-.835.572-.803.555-.837.555-.837.57-.804.557-.837.57-.804.556-.836.555-.838.572-.803.538-.87.461-.898.508-.868.492-.9.508-.868.492-.901.477-.865.523-.903.507-.867.492-.901.509-.868.522-.903.478-.865.523-.904.507-.867.492-.9.539-.87.46-.9.54-.87.491-.9.509-.867.492-.901.467-.95.42-.982.437-.947.437-.948.42-.981.437-.948.42-.981.437-.948.437-.948.42-.981.437-.948.436-.948.452-.983.42-.981.437-.948.437-.948.42-.981.437-.948.42-.981.437-.948.436-.948.421-.98.359-1.046.375-1.012.375-1.012.375-1.011.36-1.045.374-1.012.375-1.012.376-1.011.375-1.013.375-1.011.359-1.045.375-1.012.375-1.012.375-1.012.375-1.011.36-1.045.374-1.012.376-1.012.375-1.012.374-1.012.36-1.045.342-1.078.343-1.078.308-1.075.343-1.078.324-1.042.309-1.075.342-1.078.309-1.076.342-1.078.309-1.075.308-1.075.308-1.076.343-1.078.308-1.075.343-1.078.308-1.075.359-1.045.308-1.076.343-1.078.308-1.075.343-1.078.308-1.075.242-1.156.268-1.158.242-1.157.266-1.106.242-1.156.268-1.158.231-1.103.258-1.123-76.104-70.398 112.729-83.014zM2375.339 3627.094l-29.795-79.908-1.112-.171-1.168-.285-1.197-.214-1.199-.283-1.157-.198-1.198-.282-1.096-.136-1.198-.282-1.157-.197-1.199-.283-1.166-.217-1.198-.282-1.157-.198-1.199-.282-1.166-.217-1.199-.282-1.157-.198-1.198-.282-1.167-.217-2.995-.671-1.199-.282-1.198-.282-1.199-.283-1.167-.285-1.199-.282-1.198-.282-1.198-.282-1.199-.283-1.198-.282-1.2-.282-1.198-.283-1.167-.285-1.199-.282-1.198-.282-1.198-.283-1.199-.282-1.167-.285-1.199-.282-1.198-.282-1.168-.285-1.198-.282-1.2-.283-2.997-.808-1.225-.4-1.23-.349-1.216-.384-1.255-.398-1.216-.383-1.255-.399-1.2-.35-1.247-.382-1.224-.4-1.247-.381-1.224-.401-1.2-.351-1.216-.384-1.224-.4-1.216-.384-1.247-.382-1.2-.35-1.254-.399-1.216-.383-1.225-.4-1.246-.382-1.2-.35-1.255-.399-3.096-1.075-1.24-.434-1.226-.47-1.24-.433-1.257-.467-1.24-.433-1.256-.467-1.21-.436-1.256-.467-1.24-.433-1.257-.467-1.209-.436-1.256-.467-1.241-.433-1.257-.467-1.21-.436-1.256-.467-1.24-.434-1.256-.466-1.241-.434-1.225-.47-1.24-.433-1.257-.467-3.099-1.213-1.242-.502-1.258-.535-1.242-.503-1.257-.535-1.242-.503-1.258-.535-1.258-.536-1.241-.502-1.258-.536-1.242-.502-1.258-.535-1.243-.503-1.257-.535-1.258-.535-1.241-.503-1.259-.535-1.241-.503-1.258-.535-1.242-.503-1.258-.535-1.258-.535-1.241-.503-3.159-1.398-1.242-.57-1.267-.622-1.3-.618-1.242-.571-1.298-.619-1.214-.573-1.297-.618-1.268-.622-1.274-.568-1.267-.62-1.274-.57-1.268-.62-1.268-.62-1.273-.57-1.268-.62-1.274-.569-1.252-.656-1.275-.569-1.243-.57-1.299-.62-1.243-.57-1.314-.652-3.121-1.52-1.3-.686-1.252-.656-1.3-.688-1.285-.653-1.298-.688-1.3-.687-1.253-.656-1.3-.687-1.284-.655-1.3-.687-1.3-.687-1.253-.656-1.3-.687-1.283-.655-1.3-.687-1.3-.687-1.283-.654-1.27-.69-1.283-.654-1.269-.69-1.3-.687-1.283-.654-3.197-1.741-1.3-.751-1.317-.72-1.27-.759-1.333-.754-1.285-.722-1.302-.751-1.316-.72-1.27-.758-1.316-.722-1.3-.75-1.287-.724-1.3-.75-1.317-.72-1.27-.76-1.317-.72-1.3-.75-1.286-.722-1.332-.754-1.254-.725-1.302-.751-1.253-.724-1.333-.753-3.175-1.892-1.31-.842-1.295-.807-1.31-.841-1.295-.808-1.296-.808-1.31-.842-1.295-.808-1.295-.808-1.31-.84-1.294-.809-1.295-.807-1.342-.84-1.294-.807-1.282-.844-1.296-.808-1.325-.806-1.31-.84-1.295-.808-1.286-.792-1.311-.84-1.295-.808-1.311-.841-3.202-2.08-1.298-.877-1.298-.877-1.298-.876-1.298-.877-1.314-.91-1.298-.876-1.298-.877-1.298-.877-1.298-.876-1.314-.91-1.298-.876-1.297-.877-1.299-.877-1.297-.876-1.264-.88-1.314-.91-1.298-.876-1.297-.877-1.299-.877-1.297-.876-1.298-.877-1.314-.91-3.21-2.228-1.296-.946-1.296-.946-1.33-.943-1.296-.946-1.33-.942-1.296-.946-1.33-.943-1.296-.946-1.296-.945-1.28-.913-1.295-.945-1.296-.946-1.33-.943-1.296-.946-1.33-.943-1.296-.945-1.296-.946-1.33-.943-1.296-.946-1.33-.942-1.297-.946-1.314-.91-3.205-2.418-1.302-1.032-1.302-1.03-1.302-1.032-1.312-.98-1.301-1.03-.106-.216-.121-.248-.123-.251-.12-.245-.12-.248-.123-.25-.12-.246-.123-.25-.12-.245-.123-.252-.12-.247-.124-.251-.122-.251-.12-.245-.123-.251-.12-.245-.123-.251-.12-.248-.123-.251-.123-.251-.12-.245-.123-.25-.12-.246-.122-.25-.12-.246-.123-.25-.123-.252-.12-.245-.122-.25-.12-.246-.123-.25-.121-.248-.123-.251-.122-.251-.121-.248-.123-.251-.12-.245-.123-.251-.122-.251-.123-.251-.123-.251-.12-.245-.122-.251-.12-.245-.123-.25-.123-.252-.122-.25-.123-.252-.12-.245-.123-.25-.12-.246-.122-.25-.123-.252-.123-.25-.122-.252-.123-.25-.105-.217-.123-.25-.12-.245-.123-.251-.123-.251-.122-.251-.123-.251-.122-.251-.123-.252-.12-.244-.123-.251-.122-.251-.123-.251-.123-.251-.122-.251-.123-.252-.12-.244-.123-.251-.122-.251-.123-.251-.123-.251-.122-.252-.12-.244-.123-.251-.123-.251-.122-.251-.123-.251-.123-.252-.122-.25-.12-.245-.123-.251-.123-.251-.122-.251-.123-.251-.123-.251-.122-.252-.12-.244-.123-.251-.12-.245-.123-.251-.122-.251-.123-.251-.123-.251-.12-.245-.122-.251-.12-.245-.123-.251-.123-.251-.12-.245-.122-.251-.121-.248-.123-.25-.12-.246-.123-.25-.122-.252-.12-.245-.123-.25-.121-.248-.123-.251-.12-.248-.123-.251-.123-.251-.106-.216-.12-.245-.122-.25-.12-.246-.123-.25-.12-.246-.123-.25-.12-.246-.12-.244-.123-.252-.12-.244-.122-.251-.12-.245-.123-.251-.12-.245-.12-.245-.122-.25-.12-.246-.123-.25-.121-.249-.123-.25-.12-.246-.121-.247-.123-.251-.12-.248-.123-.251-.12-.245-.123-.251-.121-.248-.12-.245-.123-.25-.12-.246-.122-.25-.12-.246-.123-.25-.12-.245-.12-.245-.123-.251-.12-.248-.123-.251-.12-.245-.123-.25-.12-.246-.121-.248-.123-.25-.12-.246-.122-.25-.122-.248-.122-.251-.123-.251-.122-.251-.123-.252-.121-.247-.123-.251-.12-.245-.123-.251-.122-.251-.123-.251-.123-.251-.12-.245-.122-.251-.121-.248-.123-.25-.106-.217-.12-.248-.123-.25-.123-.252-.12-.244-.123-.251-.12-.245-.122-.251-.123-.251-.123-.251-.122-.251-.12-.245-.123-.251-.12-.245-.123-.251-.122-.251-.123-.251-.123-.251-.122-.251-.123-.251-.121-.248-.123-.251-.122-.251-.123-.251-.123-.251-.122-.251-.12-.245-.123-.251-.123-.251-.122-.251-.123-.251-.123-.251-.122-.251-.12-.245-.123-.251-.123-.251-.122-.251-.123-.251-.123-.251-.122-.251-.121-.248-.123-.251-.123-.251-.122-.251-.123-.251-.123-.251-.122-.251-.121-.248-.123-.25-.123-.252-.122-.25-.123-.252-.12-.245-.123-.25-.12-.246-.122-.25-.123-.252-.123-.25-.122-.252-.122-.248-.122-.25-.121-.248-.106-.216-.123-.251-.12-.245-.122-.251-.123-.251-.123-.251-.122-.251-.12-.245-.123-.251-.12-.248-.124-.25-.122-.252-.121-.248 1.336 1.029 1.277.981 1.302 1.031 1.302 1.032 1.277.981 1.33.943 1.296.946 1.33.943 1.297.946 1.33.942 1.296.947 1.295.945 1.296.945 1.33.943 1.296.946 1.296.946 1.296.945 1.28.913 1.295.946 1.296.945 1.295.946 1.331.943 1.296.946 1.33.943 1.33.942 1.296.946 1.33.943 1.315.91 1.297.877 1.298.876 1.298.877 1.314.91 1.298.876 1.298.877 1.298.876 1.298.877 1.314.91 1.298.876 1.298.877 1.298.877 1.298.876 1.298.877 1.314.91 1.297.876 1.298.877 1.298.877 1.298.876 1.314.91 1.298.877 1.342.839 1.295.807 1.294.808 1.312.842 1.294.808 1.295.807 1.31.841 1.295.808 1.31.841 1.296.808 1.295.808 1.31.842 1.296.808 1.294.808 1.31.841 1.296.809 1.31.84 1.294.808 1.296.809 1.31.841 1.295.808 1.295.808 1.332.753 1.27.759 1.316.72 1.302.752 1.285.722 1.302.751 1.315.721 1.271.759 1.284.722 1.302.752 1.286.723 1.331.753 1.255.724 1.301.751 1.285.723 1.302.752 1.285.722 1.27.758 1.316.72 1.302.751 1.284.723 1.302.751 1.283.654 1.3.687 1.252.656 1.3.687 1.3.686 1.284.654 1.3.688 1.284.654 1.3.687 1.3.687 1.283.655 1.3.686 1.284.655 1.3.687 1.3.687 1.252.656 1.3.686 1.3.687 1.283.654 1.3.687 1.253.656 1.3.688 1.267.62 1.243.572 1.268.62 1.299.619 1.242.571 1.299.618 1.244.572 1.267.62 1.268.621 1.273.568 1.268.621 1.298.619 1.243.571 1.268.62 1.274.57 1.268.62 1.298.618 1.243.572 1.268.62 1.243.572 1.298.618 1.267.62 1.242.503 1.258.535 1.242.503 1.257.535 1.242.503 1.259.535 1.257.536 1.243.502 1.257.535 1.242.503 1.257.535 1.242.503 1.258.535 1.258.536 1.242.502 1.258.536 1.242.502 1.258.535 1.24.503 1.259.535 1.258.535 1.242.502 1.257.467 1.208.437 1.257.466 1.24.434 1.256.467 1.21.436 1.257.467 1.24.433 1.256.467 1.21.436 1.256.467 1.24.433 1.257.467 1.24.434 1.226.469 1.24.434 1.256.466 1.24.434 1.257.466 1.21.437 1.256.466 1.24.434 1.224.4 1.247.382 1.23.348 1.225.4 1.216.384 1.224.401 1.247.381 1.2.351 1.247.381 1.224.4 1.247.382 1.223.4 1.23.349 1.217.384 1.255.397 1.216.384 1.255.398 1.2.351 1.247.381 1.223.401 1.216.384 1.255.398 1.2.35 1.198.283 1.198.282 1.199.282 1.2.283 1.198.282 1.167.285 1.198.282 1.199.282 1.198.283 1.199.282 1.168.285 1.198.282 1.168.285 1.199.282 1.198.283 1.198.282 1.199.282 1.198.282 1.199.283 1.198.282 1.199.282 1.167.285 1.198.283 1.181.247 1.151.25 1.182.247 1.181.247 1.14.162 1.181.247 1.182.248 1.18.247 1.182.247 1.181.247 1.181.247 1.182.247 1.18.247 1.182.247 1.181.248 1.213.245 1.15.25 1.143.168-36.078-96.747 192.388 122.24z" style="display:inline;fill:#2ecc40;fill-opacity:1;stroke-width:105.904;stroke-miterlimit:4.1" transform="translate(-361.21 32.248)"/>
  <path d="M1907.79 2764.142v121.663c0 19.72-7.038 31.136-15.542 37.383l-119.719 108.058-121.698 70.263-264.762 152.693s-16.202-39.611-16.202-129.187 16.128-137.66 16.128-137.66l252.373-145.865 80.057-222.229 174.721 75.133c14.668-8.468 14.57 51.574 14.644 69.748" style="fill:#94d1e0;fill-opacity:1;stroke-width:15.6537" transform="translate(-361.21 32.248)"/>
  <path d="m3008.289 3346.623 4.462-2.06 4.462-2.06 4.462-2.05 4.462-2.06 4.462-2.06 4.462-2.06 4.46-2.06 4.463-2.06 4.462-2.06 4.462-2.05 4.462-2.06 4.462-2.06 4.462-2.06 4.462-2.06 4.462-2.06 4.462-2.06 7.889 16.65 7.968 15.96 8.237 15.81 8.502 15.67 8.76 15.52 9.324 15.81 9.302 15.18 9.545 15.04 9.783 14.87 10.334 15.14 10.29 14.53 10.519 14.36 10.745 14.19 10.97 14.03 11.554 14.23 11.453 13.64 3.683-3.15 3.683-3.15 3.683-3.16 3.682-3.15 3.683-3.15 3.683-3.15 3.683-3.15 3.683-3.15 3.683-3.15 3.683-3.16 3.682-3.15 3.683-3.15 3.683-3.15 3.683-3.15 3.683-3.15 3.683-3.16-10.772-12.83-10.23-12.6-10.33-13.2-10.117-13.36-9.903-13.52-9.686-13.69-9.153-13.4-9.21-14.01-8.982-14.14-8.748-14.29-8.238-13.96-8.232-14.58-7.982-14.71-7.727-14.84-7.465-14.97-6.905-14.59 4.447-2.05 4.447-2.06 4.448-2.05 4.447-2.05 4.447-2.05 4.448-2.05 4.447-2.06 4.447-2.05 4.447-2.05 4.448-2.05 4.447-2.05 4.447-2.06 4.447-2.05 4.448-2.05 4.447-2.05 4.447-2.05-9.196-2.34-8.538-.93-9.16-2.47-8.626-1.24-9.122-2.61-9.121-2.62-8.667-1.69-9.08-2.75-8.74-2.03-9.035-2.89-8.808-2.36-8.987-3.04-8.867-2.71-8.936-3.19-8.937-3.19-8.864-3.23-4.965 8.09-4.893 8.05-4.893 8.05-4.635 8.48-4.76 8.13-4.438 8.78-4.63 8.2-4.237 9.05-4.5 8.28-4.035 9.32-4.37 8.35-3.832 9.58-4.241 8.41-4.241 8.41-3.5 9.9zM3289.32 3721.093l3.228-3.7 3.228-3.71 3.228-3.7 3.227-3.71 3.228-3.7 3.228-3.71 3.228-3.7 3.227-3.71 3.228-3.7 3.228-3.71 3.227-3.7 3.228-3.71 3.228-3.7 3.227-3.71 3.228-3.7 3.228-3.71 13.584 11.62 14.304 11.73 14.074 11.07 14.295 10.8 14.518 10.52 15.324 10.57 15.017 9.86 15.242 9.54 16.104 9.57 15.745 8.78 15.969 8.41 16.924 8.34 16.479 7.49 16.699 7.03 17.78 6.78 17.2 5.92 1.53-4.6 1.53-4.6 1.53-4.6 1.54-4.59 1.53-4.6 1.53-4.6 1.54-4.6 1.53-4.6 1.53-4.6 1.53-4.6 1.54-4.59 1.53-4.6 1.53-4.6 1.54-4.6 1.53-4.6 1.53-4.6-15.48-5.32-14.515-5.52-15.151-6.38-14.982-6.82-14.067-6.95-14.614-7.69-14.435-8.06-13.601-8.09-14.054-8.8-13.868-9.12-13.124-9.05-13.473-9.76-13.282-10.03-13.091-10.31-12.416-10.18-12.683-10.85 3.217-3.69 3.217-3.7 3.217-3.69 3.217-3.69 3.217-3.7 3.217-3.69 3.217-3.69 3.218-3.7 3.217-3.69 3.217-3.69 3.217-3.69 3.217-3.7 3.217-3.69 3.217-3.69 3.217-3.7 3.217-3.69-9.345 1.64-8.151 2.64-9.37 1.49-8.391 2.38-9.39 1.35-9.39 1.36-8.64 1.97-9.408 1.21-8.853 1.71-9.426 1.08-9.057 1.45-9.44.94-9.441.94-9.263 1.05-9.454.8-9.446.79-1.12 9.37-1.113 9.36-.863 9.56-.98 9.37-.598 9.75-.844 9.38-.844 9.39-.185 9.94-.707 9.39.103 10.13-.567 9.4-.568 9.4.544 10.31-.427 9.41.859 10.48z" style="fill:#0074d9;stroke:none;stroke-width:95.8066;stroke-linejoin:miter;stroke-miterlimit:4.1" transform="translate(-361.21 32.248)"/>
  <path d="m1734.553 3044.816 158.428-166.84 14.736.685c1.392 24.43-6.213 76.785-14.571 82.947l-174.721 259.456-80.057-112.36-252.52 145.793s-6.524-16.12-11.29-50.637l291.595-168.185z" style="fill:#94d1e0;fill-opacity:1;stroke-width:15.6537" transform="translate(-361.21 32.248)"/>
  <path d="m539.14 3688.295 4.02-2.82 4.03-2.82 4.03-2.81 4.02-2.82 4.03-2.82 4.02-2.81 4.03-2.82 4.03-2.82 4.02-2.82 4.03-2.81 4.03-2.82 4.02-2.82 4.03-2.81 4.03-2.82 4.02-2.82 4.03-2.81-10.15-14.63-9.92-14.79-9.67-14.94-9.69-15.58-9.15-15.28-8.9-15.43-8.65-15.59-8.61-16.23-8.08-15.91-7.79-16.05-7.52-16.2-7.42-16.89-6.87-16.51-6.55-16.64-6.44-17.38-5.83-16.95 4.61-1.53 4.6-1.52 4.6-1.52 4.6-1.52 4.61-1.52 4.6-1.52 4.6-1.53 4.6-1.52 4.61-1.52 4.6-1.52 4.6-1.52 4.6-1.52 4.61-1.52 4.6-1.53 4.6-1.52 4.6-1.52 5.42 15.73 5.57 15.03 6.1 15.51 6.42 15.41 6.47 14.75 7.04 15.16 7.3 15.03 7.57 14.92 7.59 14.29 8.12 14.64 8.37 14.51 8.61 14.37 8.57 13.78 9.1 14.06 9.34 13.92 9.56 13.78 4.01-2.81 4.01-2.81 4.02-2.81 4.01-2.81 4.01-2.8 4.02-2.81 4.01-2.81 4.01-2.81 4.01-2.81 4.02-2.8 4.01-2.81 4.01-2.81 4.02-2.81 4.01-2.8 4.01-2.81 4.02-2.81-3.47 7.9-2.49 9.15-2.5 9.15-3.14 8.16-2.37 9.18-2.93 8.38-2.25 9.21-2.72 8.59-2.12 9.25-2.12 9.25-2.38 8.83-2 9.27-2.16 9.04-1.86 9.3-1.87 9.3-1.8 9.26-9.49.09-9.42.05-9.42.06-9.63-.31-9.42-.07-9.78-.57-9.42-.21-9.42-.2-9.91-.97-9.41-.33-10.04-1.24-9.41-.46-10.16-1.51-9.4-.59-9.4-.58zM888.4 4006.115l2.34-4.32 2.34-4.32 2.34-4.32 2.34-4.32 2.35-4.32 2.34-4.32 2.34-4.32 2.34-4.32 2.34-4.32 2.34-4.32 2.35-4.32 2.34-4.32 2.34-4.32 2.34-4.32 2.34-4.32 2.34-4.32-15.82-8.65-15.6-9.01-15.37-9.35-15.7-10.1-14.87-10.06-14.65-10.36-14.94-11.03-14.15-10.96-13.93-11.23-13.71-11.48-13.5-11.73-13.66-12.39-13.01-12.22-12.79-12.44-12.57-12.66-12.71-13.27 3.55-3.3 3.54-3.31 3.55-3.3 3.55-3.3 3.55-3.3 3.55-3.31 3.54-3.3 3.55-3.3 3.55-3.3 3.55-3.31 3.55-3.3 3.54-3.3 3.55-3.31 3.55-3.3 3.55-3.3 3.55-3.3 11.19 11.68 11.79 11.87 11.98 11.66 12.18 11.45 11.94 10.82 12.59 10.95 12.79 10.71 12.98 10.46 13.17 10.2 12.87 9.49 13.58 9.6 13.76 9.3 13.36 8.6 14.15 8.61 14.33 8.27 14.52 7.92 2.33-4.3 2.33-4.31 2.34-4.3 2.33-4.31 2.34-4.31 2.33-4.3 2.33-4.31 2.34-4.3 2.33-4.31 2.34-4.3 2.33-4.31 2.33-4.31 2.34-4.3 2.33-4.31 2.34-4.3 2.33-4.31-.14 8.21 1.92 9.29.24 8.33 2.11 9.25.63 8.45 2.31 9.21 1.06 8.55 2.49 9.16 1.51 8.64 2.7 9.1 1.97 8.72 2.9 9.04 2.47 8.78 3.11 8.96 2.99 8.82 3.31 8.89-7.97 5.01-8.31 4.85-8.1 4.82-8.72 4.53-8.2 4.63-9.11 4.21-8.3 4.45-9.47 3.89-8.4 4.26-9.81 3.58-8.49 4.08-10.12 3.26-8.57 3.91-10.43 2.95-8.65 3.73z" style="fill:#2ecc40;stroke:none;stroke-width:95.8066;stroke-linejoin:miter;stroke-miterlimit:4.1" transform="translate(-361.21 32.248)"/>
  <path d="M550.53 3560.29c5.278-329.932 107.329-402.555 138.267-420.417 271.255-156.609 327.852-189.954 408.788-236.683 68.474-39.533 101.977 44.57 134.455 25.987 32.55-18.793 41.275-140.98 99.411-174.713 59.53-34.37 68.4 50.587 68.4 50.587s3.886 107.888 3.446 233.48c.953 141-2.786 347.546-2.786 347.546s-9.53 96.081-69.06 130.45c-56.597 32.677-66.86-78.715-99.411-59.922-32.55 18.793-65.981 141.708-134.455 181.241-80.936 46.729-137.533 78.737-408.788 235.346-31.231 18.031-135.115 64.137-138.414-270.703z" style="fill:#f44336;stroke-width:15.6537" transform="translate(-361.21 32.248)"/>
  <path d="M4596.315 2141.013c-.905 485.105-.905 485.105 581.718 821.482M4012.788 2289.74c582.622 336.378 582.622 336.378 583.527 823.595" style="fill:none;fill-opacity:1;stroke:#0074d9;stroke-width:34.5262;stroke-miterlimit:3.6;stroke-dasharray:none" transform="translate(-361.21 32.248)"/>
  <path d="M4648.727 2157.654c252.159 164.64 463.092 435.03 527.72 676.47 25.285 94.468 25.285 189.955 0 255.225-60.993 157.417-249.747 190.745-487.71 86.103-44.05-19.368-142.664-76.303-186.713-107.799-259.953-185.856-457.598-464.812-500.487-706.384-11.657-65.646-6.289-148.9 12.778-198.102 60.847-157.053 250.842-190.837 486.6-86.51 28.064 12.418 119.596 62.574 147.818 81.001m-141.145-51.43c-332.407-146.216-544.877-1.48-464.384 316.341 54.855 216.57 236.899 460.248 465.493 623.086 43.47 30.967 132.361 82.294 174.489 100.757 247.705 108.544 435.192 60.242 474.994-122.383 6.73-30.879 7.227-102.509.977-139.94-40.886-244.745-251.693-531.9-517.09-704.35-26.653-17.322-108.715-62.178-134.479-73.506" style="display:inline;fill:#616161;fill-opacity:1;stroke:none;stroke-width:2.03;stroke-opacity:1" transform="translate(-361.21 32.248)"/>
  <path d="M15.235 500h971.038M500 13.305v415.86m0 141.67v414.793" style="fill:none;stroke:#ff851b;stroke-width:15.918;stroke-linecap:butt;stroke-linejoin:miter;stroke-dasharray:31.836,15.918;stroke-dashoffset:0;stroke-opacity:.676981" transform="matrix(0 1 -1.2 -.69282 4835.105 2504.436)"/>
  <path d="m3797.338 2430.303 62.845 14.447.267 1.413.223 1.378.268 1.468.242 1.435.266 1.414.268 1.467.242 1.436.266 1.413.707 3.514.309 1.431.342 1.474.309 1.431.358 1.46.309 1.43.342 1.474.309 1.432.343 1.474.308 1.43.308 1.432.308 1.431.343 1.474.343 1.474.308 1.431.343 1.474.324 1.416.343 1.474.308 1.432.343 1.474.308 1.43.343 1.474.308 1.432.87 3.563.376 1.445.375 1.445.375 1.445.359 1.46.375 1.445.375 1.445.375 1.445.376 1.445.374 1.445.36 1.46.375 1.444.375 1.445.375 1.445.34 1.402.376 1.445.358 1.46.375 1.444.376 1.445.34 1.403.376 1.445.358 1.46.986 3.593.437 1.452.436 1.451.42 1.467.437 1.453.42 1.466.437 1.452.436 1.452.421 1.466.437 1.453.482 1.542.407 1.416.421 1.467.437 1.452.436 1.453.421 1.466.436 1.452.42 1.466.437 1.453.437 1.452.42 1.467.437 1.45.437 1.453 1.119 3.607.538 1.492.492 1.469.492 1.469.508 1.453.523 1.508.477 1.416.523 1.506.508 1.455.491 1.468.509 1.454.522 1.507.477 1.416.492 1.469.508 1.455.492 1.468.508 1.454.492 1.469.477 1.415.523 1.508.507 1.453.493 1.469.539 1.493 1.268 3.604.57 1.463.557 1.479.554 1.477.572 1.464.555 1.477.54 1.426.556 1.478.555 1.478.571 1.464.524 1.439.556 1.479.57 1.462.556 1.48.571 1.462.525 1.44.554 1.478.572 1.464.555 1.477.54 1.426.555 1.477.556 1.479.57 1.463 1.402 3.617.644 1.466.57 1.463.613 1.428.642 1.465.572 1.464.642 1.466.612 1.426.588 1.45.642 1.465.572 1.464.642 1.466.612 1.427.588 1.45.612 1.427.602 1.501.612 1.428.642 1.466.588 1.448.587 1.45.643 1.465.588 1.45.642 1.465 1.549 3.618.658 1.45.675 1.437.66 1.452.674 1.436.659 1.451.676 1.438.658 1.45.66 1.452.675 1.437.658 1.45.676 1.438.658 1.45.675 1.437.66 1.452.658 1.451.675 1.436.66 1.452.675 1.437.658 1.45.676 1.438.658 1.45.659 1.452.675 1.437 1.77 3.617.723 1.46.707 1.407.74 1.447.721 1.46.738 1.446.692 1.422.739 1.447.722 1.46.738 1.446.69 1.422.74 1.447.722 1.46.738 1.446.722 1.46.708 1.409.722 1.46.739 1.447.722 1.46.738 1.446.692 1.423.738 1.445.722 1.46 1.89 3.576.763 1.424.755 1.433.794 1.462.754 1.432.81 1.448.762 1.424.786 1.47.762 1.424.763 1.424.81 1.45.755 1.43.762 1.425.755 1.432.793 1.462.779 1.41.785 1.47.764 1.425.785 1.47.763 1.424.81 1.448.754 1.431.793 1.463 1.97 3.57.842 1.42.842 1.42.842 1.419.842 1.42.842 1.419.842 1.419.842 1.42.812 1.381.842 1.42.81 1.38.843 1.42.842 1.42.842 1.42.842 1.419.81 1.38.842 1.42.842 1.42.843 1.42.842 1.42.842 1.418.842 1.42.842 1.42.81 1.38 2.178 3.517.843 1.42.843 1.352.842 1.42.883 1.382.842 1.42.843 1.352.842 1.42.883 1.382.842 1.42.874 1.39.811 1.381.884 1.384.843 1.42.883 1.382.81 1.38.884 1.383.161-.143.161-.144.161-.144.161-.143.161-.144.162-.143.16-.144.162-.144.16-.143.162-.144.16-.144.162-.143.161-.144.161-.143.161-.144.161-.144.161-.143.161-.144.161-.144.161-.143.161-.144.162-.143.16-.144.162-.143.16-.144.162-.144.16-.143.162-.144.16-.144.162-.143.161-.144.161-.144.161-.143.161-.144.161-.143.161-.144.161-.144.161-.143.161-.144.161-.143.162-.144.16-.144.162-.143.16-.144.162-.143.16-.144.162-.144.16-.143.162-.144.161-.144.161-.143.161-.144.161-.143.161-.144.161-.144.161-.143.161-.144.161-.144.162-.143.16-.144.162-.143.16-.144.162-.144.16-.143.162-.144.161-.143.161-.144.161-.144.161-.143.161-.144.161-.143.161-.144.161-.144.161-.143.161-.144.161-.144.161-.143.162-.144.16-.143.161-.144.162-.144.16-.143.162-.144.16-.144.162-.143.16-.144.162-.143.161-.144.161-.144.161-.143.161-.144.161-.144.161-.143.161-.144.161-.143.161-.144.162-.144.16-.143.162-.144.16-.144.162-.143.16-.144.162-.143.16-.144.162-.144.161-.143.161-.144.161-.144.161-.143.161-.144.161-.143.161-.144.161-.144.161-.143.161-.144.162-.143.16-.144.162-.144.16-.143.162-.144.16-.144.162-.143.161-.144.161-.143.161-.144.161-.144.161-.143.161-.144.161-.144.161-.143.161-.144.161-.143.161-.144.161-.143.162-.144.16-.144.162-.143.16-.144.162-.144.16-.143.162-.144.161-.143.161-.144.161-.144.161-.143.161-.144.161-.144.161-.143.161-.144.161-.143.161-.144.161-.144.162-.143.16-.144.162-.144.16-.143.162-.144.16-.143.162-.144.16-.144.162-.143.161-.144.161-.143.161-.144.161-.144.161-.143.161-.144.161-.144.161-.143.162-.144.16-.143.161-.144.162-.144.16-.143.162-.144.16-.143.162-.144.16-.144.162-.143.161-.144.161-.144.161-.143.161-.144.161-.143.161-.144.161-.144.161-.143.161-.144.161-.144.161-.143.161-.144.162-.143.16-.144.162-.144.16-.143.162-.144.16-.143.162-.144.161-.144.161-.143.161-.144.161-.144.161-.143.161-.144.161-.143.161-.144.161-.144.161-.143.162-.144.16-.144.162-.143.16-.144.162-.143.16-.144.162-.144.16-.143.162-.144.161-.143.161-.144.161-.144.161-.143.161-.144.161-.143.161-.144.161-.144.161-.143.162-.144.16-.144.162-.143.16-.144.162-.143.16-.144.162-.144.161-.143.161-.144.16-.144.162-.143.161-.144.161-.143.161-.144.161-.144.161-.143.161-.144.161-.144.161-.143.161-.144.161-.143.161-.144.376-.334.16-.144.162-.144.16-.143.162-.144.16-.144.162-.143.161-.144-.86-1.404-.859-1.404-.859-1.404-.859-1.404-.859-1.404-.859-1.404-.86-1.404-.858-1.404-.86-1.405-.86-1.405-.859-1.403-.859-1.405-.859-1.404-.86-1.404-.858-1.404-.86-1.404-.841-1.42-.842-1.419-.811-1.38-.842-1.42-.811-1.381-.842-1.42-.842-1.42-.843-1.42-.842-1.42-.842-1.418-.842-1.42-.842-1.419-.81-1.38-.811-1.382-.843-1.42-.842-1.419-.842-1.42-.842-1.419-.841-1.419-.843-1.42-.811-1.381-.842-1.42-.842-1.42-.762-1.424-.786-1.47-.763-1.423-.785-1.47-.78-1.411-.762-1.424-.794-1.463-.754-1.431-.794-1.463-.778-1.41-.786-1.47-.763-1.425-.785-1.47-.763-1.424-.81-1.448-.754-1.431-.794-1.463-.754-1.431-.762-1.424-.78-1.411-.755-1.431-.762-1.425-.739-1.446-.721-1.46-.74-1.447-.69-1.422-.739-1.446-.722-1.46-.739-1.447-.722-1.46-.707-1.408-.722-1.46-.739-1.447-.722-1.46-.707-1.408-.722-1.46-.74-1.447-.721-1.46-.708-1.408-.721-1.46-.74-1.447-.721-1.46-.739-1.446-.691-1.422-.676-1.438-.658-1.45-.659-1.451-.676-1.438-.658-1.45-.675-1.437-.66-1.452-.674-1.436-.659-1.45-.66-1.453-.674-1.436-.659-1.451-.675-1.437-.659-1.452-.676-1.437-.658-1.45-.659-1.451-.676-1.438-.658-1.45-.675-1.437-.66-1.452-.674-1.436-.659-1.451-.588-1.45-.61-1.427-.62-1.488-.611-1.427-.603-1.502-.611-1.427-.613-1.428-.618-1.487-.611-1.427-.603-1.502-.612-1.427-.612-1.428-.587-1.448-.643-1.467-.57-1.463-.644-1.466-.611-1.427-.588-1.45-.619-1.487-.58-1.389-.619-1.487-.611-1.427-.556-1.479-.57-1.462-.557-1.479-.57-1.463-.556-1.478-.555-1.478-.571-1.464-.525-1.44-.57-1.463-.556-1.478-.555-1.478-.572-1.464-.523-1.439-.572-1.464-.555-1.477-.555-1.479-.571-1.463-.556-1.478-.57-1.464-.556-1.478-.555-1.477-.572-1.464-.538-1.492-.462-1.43-.508-1.455-.491-1.468-.509-1.455-.492-1.47-.476-1.414-.523-1.507-.508-1.454-.492-1.469-.508-1.454-.523-1.507-.477-1.416-.523-1.507-.507-1.454-.493-1.469-.538-1.492-.461-1.43-.54-1.493-.49-1.468-.51-1.455-.491-1.469-.467-1.49-.42-1.466-.438-1.452-.437-1.453-.42-1.466-.436-1.452-.42-1.467-.438-1.452-.437-1.452-.42-1.467-.436-1.45-.437-1.453-.452-1.505-.42-1.467-.436-1.451-.437-1.453-.42-1.467-.438-1.452-.42-1.467-.436-1.45-.437-1.453-.42-1.467-.36-1.459-.374-1.445-.375-1.445-.376-1.445-.359-1.46-.375-1.445-.375-1.444-.375-1.445-.375-1.445-.375-1.445-.359-1.46-.375-1.445-.375-1.445-.376-1.445-.375-1.445-.359-1.459-.375-1.445-.375-1.445-.375-1.445-.375-1.444-.359-1.46-.343-1.474-.342-1.474-.309-1.431-.342-1.474-.325-1.416-.308-1.432-.343-1.474-.308-1.43-.343-1.474-.308-1.432-.308-1.43-.309-1.432-.342-1.474-.309-1.431-.342-1.474-.308-1.431-.36-1.46-.308-1.431-.342-1.473-.309-1.432-.342-1.474-.309-1.431-.242-1.435-.267-1.467-.242-1.436-.266-1.414-.242-1.435-.268-1.467-.232-1.37-.258-1.422 76.105 17.48-112.729-213.182zM4162.114 3095.273l29.795-45.504 1.112 1.113 1.167 1.063 1.198 1.169 1.198 1.101 1.157 1.138 1.199 1.102 1.095 1.129 1.199 1.102 1.157 1.138 1.198 1.102 1.167 1.13 1.198 1.101 1.157 1.138 1.198 1.102 1.167 1.13 1.199 1.101 1.157 1.139 1.198 1.102 1.166 1.13 2.996 2.787 1.198 1.102 1.199 1.102 1.198 1.101 1.168 1.063 1.198 1.102 1.199 1.101 1.198 1.102 1.198 1.101 1.199 1.102 1.2 1.103 1.198 1.101 1.167 1.063 1.198 1.102 1.199 1.1 1.198 1.102 1.199 1.102 1.167 1.063 1.198 1.102 1.199 1.101 1.167 1.063 1.199 1.102 1.2 1.103 2.996 2.652 1.225 1.014 1.23 1.073 1.217 1.02 1.255 1.05 1.215 1.02 1.255 1.052 1.2 1.036 1.248 1.058 1.224 1.013 1.246 1.058 1.225 1.013 1.2 1.034 1.216 1.021 1.223 1.013 1.216 1.02 1.247 1.058 1.2 1.035 1.255 1.05 1.216 1.02 1.224 1.015 1.247 1.058 1.2 1.034 1.254 1.051 3.097 2.5 1.24.999 1.225.945 1.241 1 1.257.983 1.24.999 1.256.983 1.21.96 1.256.984 1.24.999 1.257.985 1.209.96 1.256.984 1.24.999 1.257.984 1.21.961 1.257.984 1.24.998 1.256.984 1.24 1 1.225.944 1.24.998 1.257.985 3.1 2.366 1.241.93 1.258.919 1.243.932 1.256.915 1.243.933 1.257.916 1.259.918 1.241.93 1.258.918 1.241.93 1.259.918 1.242.933 1.258.916 1.257.917 1.242.93 1.258.919 1.242.93 1.258.919 1.241.93 1.258.918 1.258.917 1.242.931 3.158 2.249 1.243.864 1.267.842 1.299.882 1.242.863 1.299.881 1.213.828 1.297.88 1.268.842 1.275.903 1.267.843 1.274.902 1.268.844 1.267.843 1.273.9 1.268.844 1.275.903 1.252.79 1.274.902 1.244.865 1.299.882 1.242.864 1.315.866 3.12 2.084 1.3.815 1.253.79 1.3.813 1.284.83 1.299.811 1.3.815 1.253.79 1.3.814 1.284.828 1.299.813 1.3.815 1.253.79 1.3.814 1.284.828 1.3.813 1.299.813 1.284.829 1.269.776 1.283.827 1.27.776 1.299.813 1.284.829 3.196 1.95 1.301.751 1.317.8 1.27.709 1.332.784 1.286.762 1.301.751 1.317.8 1.27.708 1.316.8 1.3.75 1.286.762 1.3.75 1.317.8 1.27.71 1.317.8 1.301.75 1.285.762 1.332.784 1.255.725 1.301.751 1.254.724 1.332.785 3.175 1.774 1.31.672 1.295.687 1.311.673 1.294.686 1.296.688 1.31.672 1.295.686 1.295.688 1.31.673 1.295.686 1.295.687 1.342.711 1.294.686 1.282.637 1.295.688 1.325.724 1.311.673 1.295.687 1.286.694 1.31.673 1.296.687 1.31.673 3.203 1.618 1.298.622 1.297.622 1.298.622 1.298.622 1.314.607 1.298.622 1.298.623 1.298.622 1.298.621 1.314.608 1.298.622 1.298.622 1.298.622 1.298.623 1.263.579 1.314.607 1.298.622 1.298.623 1.298.622 1.298.622 1.298.622 1.314.607 3.21 1.478 1.296.55 1.296.551 1.33.594 1.296.55 1.33.593 1.296.55 1.33.594 1.296.55 1.296.551 1.28.565 1.295.55 1.296.551 1.33.593 1.296.551 1.33.593 1.296.55 1.296.551 1.33.594 1.296.55 1.33.593 1.296.55 1.314.609 3.206 1.283 1.302.472 1.302.472 1.301.472 1.312.535 1.302.472.106-.094.12-.108.123-.11.12-.105.121-.108.123-.11.12-.106.123-.11.12-.106.123-.11.12-.107.123-.11.123-.109.12-.106.122-.11.12-.106.123-.11.121-.107.123-.11.123-.109.12-.106.122-.11.12-.106.123-.11.12-.106.122-.11.123-.108.12-.107.123-.11.12-.105.123-.11.12-.108.123-.11.123-.109.121-.108.123-.109.12-.106.122-.11.123-.109.123-.11.122-.109.12-.106.123-.11.12-.106.123-.11.122-.108.123-.11.123-.11.12-.106.122-.109.12-.106.123-.11.123-.11.122-.108.123-.11.123-.11.105-.093.123-.11.119-.106.122-.11.123-.11.123-.109.122-.109.123-.11.123-.109.12-.106.122-.11.123-.109.122-.11.123-.109.123-.11.123-.108.12-.107.122-.11.123-.109.122-.109.123-.11.123-.109.12-.106.122-.11.123-.109.123-.11.122-.109.123-.109.123-.11.12-.106.122-.109.123-.11.123-.109.122-.11.123-.108.123-.11.12-.106.122-.11.12-.106.123-.11.123-.109.122-.109.123-.11.12-.106.123-.11.12-.105.122-.11.123-.11.12-.105.123-.11.12-.108.123-.11.12-.105.123-.11.123-.11.12-.106.122-.109.121-.108.123-.11.121-.107.123-.11.123-.11.105-.093.12-.106.123-.11.12-.106.123-.11.12-.106.122-.109.12-.106.12-.107.123-.109.12-.106.123-.11.12-.106.122-.11.12-.106.12-.106.123-.11.12-.106.123-.11.12-.107.123-.11.12-.106.121-.108.123-.11.121-.107.123-.11.12-.106.122-.11.122-.107.12-.106.122-.11.12-.106.123-.11.12-.106.122-.11.12-.105.12-.107.123-.11.121-.107.123-.11.12-.106.122-.11.12-.106.122-.108.122-.109.12-.106.123-.11.121-.108.123-.109.122-.11.123-.109.123-.11.12-.107.123-.11.12-.106.123-.11.123-.109.122-.109.123-.11.12-.106.123-.109.12-.108.123-.11.106-.093.121-.108.123-.11.123-.11.12-.105.122-.11.12-.106.123-.11.122-.109.123-.11.123-.109.12-.106.123-.11.12-.106.122-.109.123-.11.122-.109.123-.11.123-.108.122-.11.122-.108.122-.11.123-.109.122-.11.123-.108.123-.11.12-.106.123-.11.122-.109.123-.11.123-.109.122-.11.123-.108.12-.107.122-.11.123-.109.123-.109.123-.11.122-.109.123-.11.12-.107.124-.11.122-.109.123-.11.123-.109.122-.109.123-.11.121-.107.123-.11.122-.11.123-.108.123-.11.12-.106.122-.11.12-.106.123-.11.123-.109.122-.109.123-.11.121-.107.123-.11.12-.108.106-.094.123-.109.12-.106.123-.11.122-.11.123-.109.123-.109.12-.106.122-.11.121-.108.123-.109.123-.11.12-.107-1.335-.515-1.278-.493-1.301-.472-1.302-.472-1.278-.493-1.33-.594-1.296-.55-1.33-.593-1.296-.551-1.33-.593-1.296-.55-1.296-.551-1.295-.55-1.33-.594-1.297-.55-1.295-.55-1.296-.552-1.28-.564-1.296-.551-1.296-.551-1.295-.55-1.33-.593-1.296-.551-1.33-.593-1.33-.594-1.297-.55-1.33-.593-1.314-.608-1.298-.622-1.298-.622-1.298-.622-1.314-.608-1.298-.622-1.298-.622-1.298-.622-1.297-.622-1.315-.608-1.298-.622-1.298-.622-1.297-.622-1.298-.622-1.298-.622-1.314-.607-1.298-.622-1.298-.622-1.298-.623-1.298-.622-1.314-.607-1.298-.622-1.342-.711-1.295-.688-1.294-.686-1.311-.673-1.294-.686-1.295-.688-1.311-.673-1.294-.686-1.311-.673-1.295-.687-1.295-.687-1.31-.671-1.296-.688-1.294-.687-1.311-.673-1.295-.686-1.31-.673-1.295-.686-1.296-.688-1.31-.672-1.295-.687-1.295-.688-1.332-.785-1.27-.708-1.316-.799-1.301-.751-1.285-.762-1.302-.752-1.316-.799-1.27-.708-1.285-.76-1.302-.752-1.285-.761-1.332-.785-1.254-.724-1.302-.752-1.285-.76-1.301-.752-1.285-.762-1.27-.708-1.316-.8-1.302-.752-1.285-.76-1.301-.752-1.284-.828-1.3-.815-1.252-.79-1.3-.814-1.3-.814-1.284-.828-1.3-.815-1.283-.827-1.3-.815-1.3-.813-1.283-.827-1.3-.815-1.285-.828-1.299-.813-1.3-.815-1.253-.79-1.3-.815-1.3-.815-1.282-.826-1.3-.815-1.253-.79-1.3-.813-1.268-.843-1.243-.864-1.268-.843-1.298-.882-1.243-.863-1.298-.882-1.244-.865-1.268-.843-1.267-.842-1.274-.902-1.268-.844-1.298-.88-1.242-.864-1.269-.843-1.273-.902-1.268-.844-1.298-.88-1.244-.865-1.267-.842-1.243-.865-1.299-.881-1.267-.842-1.242-.932-1.258-.917-1.242-.932-1.256-.916-1.243-.932-1.258-.918-1.258-.916-1.242-.932-1.257-.916-1.242-.932-1.258-.917-1.242-.932-1.258-.917-1.257-.916-1.243-.932-1.257-.917-1.243-.932-1.257-.917-1.242-.93-1.257-.918-1.259-.917-1.242-.933-1.256-.984-1.208-.958-1.257-.985-1.24-.999-1.257-.984-1.21-.96-1.256-.984-1.24-.999-1.256-.984-1.21-.96-1.257-.984-1.24-.999-1.257-.985-1.239-.997-1.226-.947-1.24-.998-1.256-.984-1.24-.998-1.258-.985-1.209-.96-1.256-.984-1.24-1-1.225-1.012-1.247-1.058-1.23-1.073-1.224-1.013-1.216-1.02-1.225-1.014-1.247-1.058-1.2-1.035-1.246-1.058-1.224-1.013-1.247-1.058-1.224-1.013-1.23-1.073-1.216-1.02-1.255-1.051-1.217-1.021-1.255-1.05-1.2-1.036-1.246-1.058-1.224-1.012-1.216-1.02-1.255-1.051-1.2-1.035-1.198-1.101-1.198-1.102-1.199-1.102-1.199-1.102-1.199-1.102-1.167-1.063-1.198-1.101-1.199-1.102-1.198-1.101-1.198-1.102-1.169-1.064-1.197-1.1-1.169-1.065-1.198-1.101-1.199-1.102-1.198-1.101-1.198-1.102-1.199-1.101-1.198-1.102-1.199-1.101-1.198-1.102-1.168-1.063-1.198-1.102-1.18-1.116-1.152-1.08-1.181-1.117-1.182-1.116-1.14-1.154-1.18-1.117-1.182-1.117-1.181-1.117-1.181-1.116-1.182-1.117-1.18-1.117-1.182-1.117-1.181-1.117-1.182-1.117-1.18-1.116-1.213-1.156-1.15-1.078-1.143-1.151 36.078-55.088-192.389-99.91zM5409.523 2879.42l-62.846-14.446-.266-1.414-.223-1.378-.268-1.467-.242-1.436-.266-1.413-.268-1.468-.242-1.435-.266-1.414-.707-3.513-.309-1.431-.342-1.474-.309-1.432-.358-1.459-.309-1.43-.342-1.475-.309-1.431-.343-1.474-.308-1.43-.308-1.432-.308-1.431-.343-1.474-.343-1.474-.308-1.432-.343-1.473-.324-1.417-.343-1.474-.308-1.431-.343-1.474-.308-1.43-.343-1.475-.308-1.431-.87-3.564-.376-1.445-.375-1.445-.375-1.445-.359-1.46-.375-1.444-.375-1.445-.375-1.445-.376-1.445-.374-1.445-.36-1.46-.375-1.444-.375-1.445-.375-1.445-.34-1.403-.376-1.444-.358-1.46-.375-1.445-.376-1.445-.34-1.402-.376-1.445-.358-1.46-.986-3.593-.437-1.453-.436-1.45-.42-1.468-.437-1.452-.42-1.466-.437-1.453-.436-1.451-.421-1.467-.437-1.452-.482-1.543-.407-1.416-.421-1.467-.437-1.452-.436-1.452-.421-1.467-.436-1.45-.42-1.467-.437-1.453-.437-1.452-.421-1.467-.436-1.451-.437-1.453-1.119-3.607-.538-1.491-.492-1.47-.492-1.468-.508-1.454-.523-1.507-.477-1.417-.522-1.506-.509-1.454-.491-1.468-.508-1.455-.523-1.506-.477-1.416-.492-1.47-.508-1.454-.492-1.468-.508-1.454-.492-1.47-.477-1.414-.523-1.508-.507-1.453-.493-1.47-.539-1.492-1.268-3.604-.57-1.463-.557-1.479-.554-1.477-.572-1.464-.555-1.477-.54-1.426-.556-1.479-.555-1.477-.571-1.464-.524-1.44-.556-1.478-.57-1.463-.556-1.479-.571-1.462-.525-1.44-.554-1.478-.572-1.464-.555-1.477-.54-1.426-.555-1.478-.556-1.478-.571-1.463-1.401-3.617-.644-1.466-.57-1.463-.613-1.428-.642-1.465-.572-1.465-.642-1.465-.612-1.427-.588-1.45-.642-1.465-.572-1.464-.642-1.465-.612-1.428-.588-1.449-.612-1.427-.602-1.502-.612-1.428-.642-1.465-.588-1.448-.587-1.45-.643-1.465-.588-1.45-.642-1.465-1.549-3.618-.658-1.451-.675-1.436-.66-1.452-.674-1.437-.66-1.45-.675-1.438-.659-1.45-.659-1.453-.675-1.436-.658-1.45-.676-1.438-.659-1.451-.674-1.436-.66-1.452-.658-1.451-.675-1.436-.66-1.452-.675-1.437-.658-1.45-.676-1.438-.658-1.45-.659-1.452-.676-1.437-1.77-3.617-.722-1.46-.707-1.407-.74-1.447-.721-1.46-.738-1.447-.692-1.422-.739-1.447-.722-1.46-.738-1.446-.69-1.421-.74-1.448-.722-1.46-.738-1.446-.722-1.46-.708-1.408-.722-1.461-.738-1.446-.723-1.46-.738-1.446-.692-1.423-.738-1.446-.722-1.46-1.89-3.576-.763-1.424-.755-1.432-.794-1.463-.754-1.431-.81-1.449-.762-1.424-.786-1.469-.762-1.425-.763-1.424-.81-1.449-.755-1.431-.762-1.424-.755-1.432-.793-1.462-.779-1.41-.785-1.47-.764-1.425-.785-1.47-.762-1.424-.81-1.449-.755-1.43-.793-1.464-1.97-3.57-.842-1.42-.842-1.419-.842-1.42-.842-1.419-.842-1.42-.842-1.418-.842-1.42-.812-1.382-.842-1.42-.81-1.38-.843-1.42-.842-1.42-.842-1.419-.842-1.419-.81-1.381-.842-1.419-.842-1.42-.843-1.42-.842-1.42-.842-1.419-.842-1.42-.842-1.419-.811-1.38-2.177-3.517-.843-1.42-.843-1.353-.842-1.42-.883-1.382-.842-1.42-.843-1.352-.842-1.42-.883-1.382-.842-1.419-.874-1.39-.811-1.382-.884-1.383-.843-1.42-.883-1.382-.81-1.381-.884-1.383-.161.144-.161.144-.161.143-.161.144-.161.143-.162.144-.16.144-.162.143-.16.144-.162.144-.16.143-.162.144-.161.143-.161.144-.161.143-.161.144-.161.144-.161.143-.161.144-.161.144-.161.143-.162.144-.16.144-.162.143-.16.144-.162.143-.16.144-.162.144-.161.143-.161.144-.161.143-.161.144-.161.144-.161.143-.161.144-.161.144-.161.143-.161.144-.161.143-.161.144-.162.144-.16.143-.162.144-.16.143-.162.144-.16.144-.162.143-.161.144-.161.144-.161.143-.161.144-.161.144-.161.143-.161.144-.161.143-.161.144-.161.144-.162.143-.16.144-.162.143-.16.144-.162.144-.16.143-.162.144-.16.143-.162.144-.161.144-.161.143-.161.144-.161.144-.161.143-.161.144-.161.143-.161.144-.161.144-.161.143-.162.144-.16.144-.162.143-.16.144-.162.143-.16.144-.162.144-.16.143-.162.144-.161.144-.161.143-.161.144-.161.143-.161.144-.161.144-.161.143-.161.144-.161.143-.161.144-.161.144-.162.143-.16.144-.162.144-.16.143-.162.144-.16.143-.162.144-.16.144-.162.143-.161.144-.161.143-.161.144-.161.144-.161.143-.161.144-.161.144-.162.143-.16.144-.162.143-.16.144-.162.144-.16.143-.162.144-.16.144-.162.143-.161.144-.161.143-.161.144-.161.144-.161.143-.161.144-.161.143-.161.144-.161.144-.162.143-.16.144-.162.144-.16.143-.162.144-.16.143-.162.144-.16.144-.162.143-.161.144-.161.144-.161.143-.161.144-.161.143-.161.144-.161.144-.161.143-.161.144-.161.143-.162.144-.16.144-.162.143-.16.144-.162.144-.16.143-.162.144-.16.143-.162.144-.161.144-.16.143-.162.144-.161.144-.161.143-.161.144-.161.143-.161.144-.161.144-.161.143-.162.144-.16.144-.162.143-.16.144-.162.143-.16.144-.162.144-.16.143-.162.144-.161.143-.161.144-.161.144-.161.143-.161.144-.161.143-.161.144-.161.144-.161.143-.161.144-.162.144-.16.143-.162.144-.16.143-.162.144-.16.144-.162.143-.16.144-.162.143-.161.144-.161.144-.161.143-.161.144-.161.144-.161.143-.161.144-.161.144-.161.143-.161.144-.162.143-.16.144-.162.144-.16.143-.162.144-.16.143-.162.144-.16.144-.162.143-.16.144-.162.144-.161.143-.161.144-.161.143-.161.144-.161.144-.161.143-.161.144-.162.143-.16.144-.162.144-.16.143-.162.144-.16.144-.162.143-.16.144-.162.144-.161.143-.161.144-.161.143-.161.144-.161.144-.161.143-.161.144-.161.143-.162.144-.16.144-.161.143-.162.144-.16.143-.162.144-.16.144-.376.334-.16.144-.162.143-.16.144-.162.143-.16.144-.162.144-.161.143.86 1.405.858 1.404.86 1.404.859 1.404.859 1.404.859 1.404.86 1.404.858 1.404.86 1.404.86 1.405.858 1.404.86 1.404.859 1.404.859 1.405.86 1.404.858 1.404.842 1.419.842 1.42.81 1.38.843 1.42.811 1.38.842 1.42.842 1.42.843 1.42.842 1.42.842 1.419.841 1.42.843 1.419.81 1.38.811 1.382.842 1.42.842 1.418.842 1.42.842 1.42.842 1.418.843 1.421.811 1.381.842 1.42.842 1.419.762 1.424.786 1.47.762 1.424.786 1.47.78 1.41.762 1.425.793 1.463.755 1.431.793 1.463.78 1.41.785 1.47.763 1.424.785 1.47.763 1.424.81 1.448.754 1.432.794 1.462.754 1.432.762 1.424.78 1.41.754 1.432.763 1.424.738 1.447.722 1.46.74 1.447.69 1.422.738 1.445.723 1.46.738 1.448.723 1.46.707 1.407.722 1.46.739 1.448.722 1.46.707 1.408.722 1.46.74 1.447.721 1.46.707 1.407.722 1.46.74 1.448.721 1.46.739 1.446.69 1.422.676 1.437.659 1.451.659 1.451.676 1.437.658 1.451.675 1.436.66 1.452.674 1.437.659 1.45.659 1.452.675 1.437.658 1.45.676 1.438.659 1.451.676 1.437.658 1.451.658 1.451.676 1.438.659 1.45.675 1.437.659 1.451.675 1.437.658 1.45.588 1.45.612 1.427.619 1.488.611 1.427.603 1.502.611 1.427.612 1.429.619 1.486.611 1.427.603 1.503.611 1.427.612 1.428.587 1.448.644 1.466.57 1.463.644 1.466.611 1.428.588 1.449.619 1.487.58 1.39.619 1.487.611 1.426.556 1.48.57 1.462.556 1.478.571 1.463.556 1.48.554 1.476.572 1.465.525 1.44.57 1.463.556 1.478.555 1.477.571 1.464.524 1.44.572 1.463.555 1.478.555 1.478.571 1.464.556 1.478.57 1.463.556 1.478.555 1.478.572 1.464.538 1.492.462 1.43.507 1.455.492 1.468.508 1.455.492 1.469.477 1.415.523 1.507.508 1.453.492 1.47.508 1.454.522 1.506.478 1.417.523 1.507.507 1.454.492 1.468.539 1.492.461 1.431.54 1.493.49 1.468.51 1.455.491 1.468.467 1.49.42 1.467.438 1.452.436 1.453.42 1.465.437 1.452.42 1.467.438 1.453.436 1.452.42 1.466.437 1.451.436 1.453.452 1.505.421 1.467.436 1.451.437 1.453.42 1.466.437 1.452.421 1.467.436 1.451.436 1.453.421 1.466.36 1.46.374 1.445.375 1.445.376 1.445.359 1.459.374 1.445.376 1.445.375 1.445.375 1.445.375 1.445.359 1.46.375 1.444.375 1.445.375 1.445.376 1.445.358 1.46.376 1.444.375 1.445.375 1.445.375 1.445.359 1.46.342 1.473.343 1.474.308 1.432.343 1.473.325 1.417.308 1.431.343 1.474.308 1.431.342 1.474.309 1.431.308 1.431.308 1.432.343 1.474.308 1.43.343 1.474.308 1.432.36 1.46.307 1.43.343 1.474.308 1.431.343 1.474.309 1.432.241 1.435.268 1.467.242 1.436.266 1.413.242 1.435.268 1.468.231 1.37.259 1.422-76.105-17.48 112.729 213.182zM5044.747 2214.45l-29.795 45.504-1.112-1.112-1.167-1.063-1.198-1.169-1.198-1.101-1.157-1.139-1.199-1.101-1.095-1.13-1.199-1.1-1.157-1.14-1.198-1.1-1.167-1.13-1.198-1.102-1.157-1.139-1.198-1.101-1.167-1.13-1.199-1.102-1.157-1.138-1.198-1.102-1.166-1.13-2.996-2.788-1.198-1.101-1.199-1.102-1.198-1.102-1.168-1.063-1.198-1.101-1.199-1.102-1.198-1.101-1.198-1.102-1.199-1.101-1.2-1.103-1.198-1.101-1.167-1.064-1.199-1.101-1.198-1.101-1.198-1.102-1.199-1.101-1.167-1.064-1.199-1.101-1.198-1.102-1.167-1.063-1.199-1.101-1.2-1.103-2.996-2.653-1.225-1.013-1.23-1.073-1.217-1.02-1.255-1.051-1.215-1.02-1.255-1.052-1.2-1.035-1.248-1.058-1.224-1.013-1.246-1.058-1.225-1.013-1.2-1.035-1.216-1.02-1.224-1.014-1.215-1.02-1.247-1.058-1.2-1.034-1.255-1.05-1.215-1.021-1.225-1.014-1.247-1.058-1.2-1.035-1.254-1.05-3.097-2.5-1.24-1-1.225-.945-1.242-.999-1.256-.984-1.24-.998-1.256-.984-1.21-.96-1.256-.984-1.24-.998-1.257-.985-1.209-.96-1.256-.984-1.24-1-1.257-.983-1.21-.961-1.257-.984-1.24-.999-1.256-.984-1.241-.999-1.224-.944-1.24-.999-1.257-.985-3.1-2.365-1.241-.931-1.259-.918-1.242-.932-1.256-.916-1.243-.932-1.257-.916-1.259-.918-1.241-.931-1.258-.917-1.241-.93-1.259-.919-1.242-.932-1.258-.917-1.257-.916-1.242-.931-1.258-.918-1.242-.931-1.258-.918-1.242-.93-1.257-.918-1.259-.917-1.24-.931-3.16-2.25-1.242-.863-1.267-.842-1.299-.882-1.243-.864-1.298-.88-1.213-.828-1.297-.88-1.268-.843-1.275-.903-1.267-.842-1.274-.902-1.268-.844-1.267-.843-1.274-.9-1.267-.845-1.275-.903-1.252-.79-1.274-.902-1.244-.865-1.299-.881-1.242-.864-1.315-.866-3.12-2.084-1.3-.815-1.253-.79-1.3-.815-1.284-.829-1.299-.812-1.3-.814-1.253-.79-1.3-.814-1.284-.828-1.3-.814-1.3-.813-1.252-.79-1.3-.814-1.284-.828-1.3-.813-1.299-.814-1.284-.828-1.269-.776-1.283-.828-1.27-.775-1.299-.814-1.284-.828-3.196-1.95-1.301-.751-1.317-.8-1.27-.71-1.332-.783-1.286-.762-1.301-.752-1.317-.8-1.27-.708-1.316-.799-1.3-.75-1.286-.762-1.301-.751-1.316-.8-1.271-.709-1.316-.8-1.301-.75-1.286-.763-1.331-.784-1.255-.724-1.301-.751-1.254-.724-1.332-.786-3.175-1.774-1.31-.67-1.295-.688-1.311-.673-1.294-.687-1.296-.688-1.31-.671-1.295-.687-1.295-.687-1.31-.673-1.295-.686-1.295-.688-1.342-.71-1.294-.687-1.282-.636-1.295-.688-1.325-.725-1.311-.673-1.295-.688-1.286-.693-1.31-.673-1.296-.688-1.31-.673-3.203-1.617-1.298-.622-1.297-.622-1.298-.622-1.298-.622-1.314-.608-1.298-.622-1.298-.622-1.298-.622-1.298-.622-1.314-.608-1.298-.622-1.298-.622-1.298-.622-1.298-.622-1.263-.58-1.314-.607-1.298-.622-1.298-.622-1.298-.622-1.298-.622-1.298-.622-1.314-.608-3.21-1.478-1.296-.55-1.296-.55-1.33-.594-1.296-.55-1.33-.594-1.296-.55-1.33-.594-1.296-.55-1.296-.55-1.28-.565-1.295-.551-1.296-.55-1.33-.594-1.296-.55-1.33-.594-1.296-.55-1.296-.55-1.33-.594-1.296-.55-1.33-.594-1.296-.55-1.314-.608-3.206-1.283-1.302-.472-1.302-.472-1.301-.472-1.312-.536-1.302-.472-.106.094-.12.108-.123.11-.12.106-.121.108-.123.11-.12.106-.123.11-.12.105-.123.11-.12.108-.123.11-.123.108-.12.107-.123.11-.12.106-.122.109-.121.108-.123.11-.123.109-.12.106-.122.11-.12.106-.123.11-.12.105-.123.11-.122.11-.12.105-.123.11-.12.106-.123.11-.12.107-.123.11-.123.11-.121.107-.123.11-.12.106-.123.11-.122.109-.123.109-.122.11-.12.106-.123.11-.12.105-.123.11-.122.11-.123.109-.123.109-.12.106-.122.11-.12.106-.123.11-.123.109-.122.11-.123.108-.123.11-.105.094-.123.11-.12.105-.123.11-.122.11-.123.109-.123.11-.122.108-.123.11-.12.106-.122.11-.123.109-.123.11-.122.109-.123.11-.123.109-.12.106-.122.11-.123.109-.123.109-.122.11-.123.109-.12.106-.123.11-.122.109-.123.11-.123.109-.122.109-.123.11-.12.106-.123.11-.122.108-.123.11-.123.11-.122.109-.123.109-.12.106-.123.11-.12.106-.122.11-.123.109-.123.11-.122.108-.12.107-.123.11-.12.106-.123.109-.122.11-.12.106-.123.109-.121.108-.123.11-.12.106-.122.109-.123.11-.12.106-.123.11-.12.107-.123.11-.122.107-.122.11-.123.11-.105.093-.12.107-.123.109-.12.106-.123.11-.12.106-.123.11-.12.106-.12.106-.122.11-.12.106-.123.109-.12.106-.123.11-.12.106-.12.106-.122.11-.12.106-.123.11-.121.107-.123.11-.12.106-.12.108-.123.11-.121.107-.123.11-.12.106-.123.11-.12.107-.12.107-.123.109-.12.106-.123.11-.12.106-.123.11-.12.106-.12.106-.122.11-.121.107-.123.11-.12.106-.123.11-.12.106-.121.108-.123.11-.12.105-.122.11-.121.108-.123.11-.123.108-.122.11-.123.11-.121.107-.123.11-.12.106-.122.11-.123.109-.123.11-.122.108-.12.107-.123.11-.121.107-.123.11-.105.094-.121.108-.123.109-.123.11-.12.106-.122.109-.12.106-.123.11-.123.109-.122.11-.123.109-.12.106-.123.11-.12.106-.122.11-.123.109-.123.109-.122.11-.123.109-.123.11-.12.107-.123.11-.123.109-.123.11-.123.109-.122.11-.12.105-.123.11-.122.11-.123.109-.123.109-.122.11-.123.109-.12.106-.123.11-.122.109-.123.11-.123.108-.122.11-.123.11-.121.107-.123.11-.123.109-.122.11-.123.109-.122.11-.123.109-.121.107-.123.11-.122.11-.123.109-.123.109-.12.106-.123.11-.12.106-.122.11-.123.109-.123.11-.122.108-.121.108-.123.11-.121.108-.106.094-.122.11-.12.106-.123.109-.123.11-.122.109-.123.11-.12.105-.123.11-.12.108-.123.11-.123.109-.121.108 1.336.514 1.277.493 1.302.472 1.302.472 1.278.494 1.33.593 1.296.55 1.33.594 1.296.55 1.33.593 1.296.55 1.296.552 1.295.55 1.33.593 1.296.55 1.296.551 1.296.551 1.28.565 1.295.55 1.296.551 1.296.55 1.33.594 1.296.55 1.33.594 1.33.593 1.296.55 1.33.593 1.315.608 1.298.622 1.297.622 1.299.622 1.314.608 1.298.622 1.297.622 1.298.622 1.298.622 1.314.608 1.298.622 1.298.622 1.298.622 1.298.622 1.298.622 1.314.608 1.298.622 1.298.622 1.298.622 1.297.622 1.314.608 1.299.622 1.342.71 1.295.688 1.294.686 1.311.673 1.294.686 1.295.688 1.311.673 1.294.686 1.311.673 1.295.688 1.295.686 1.31.672 1.296.688 1.294.686 1.31.673 1.296.686 1.31.673 1.295.686 1.295.688 1.31.672 1.295.687 1.295.687 1.332.785 1.27.709 1.316.798 1.302.752 1.285.762 1.302.751 1.316.799 1.27.708 1.284.76 1.302.752 1.286.763 1.331.784 1.255.725 1.301.751 1.285.761 1.302.751 1.285.762 1.27.709 1.316.8 1.302.751 1.284.76 1.302.752 1.283.828 1.3.815 1.253.79 1.3.815 1.3.814 1.284.828 1.3.815 1.283.828 1.3.813 1.3.814 1.283.827 1.3.815 1.284.829 1.3.813 1.3.815 1.252.79 1.3.814 1.3.815 1.283.826 1.3.815 1.253.79 1.3.814 1.268.843 1.243.864 1.267.843 1.3.881 1.241.863 1.299.882 1.244.865 1.268.843 1.267.842 1.273.903 1.269.843 1.298.88 1.242.864 1.268.844 1.274.902 1.268.843 1.298.88 1.244.865 1.267.843 1.243.864 1.298.881 1.267.842 1.243.932 1.257.917 1.243.932 1.256.916 1.242.932 1.26.918 1.257.917 1.242.932 1.257.915 1.242.932 1.257.917 1.243.932 1.257.917 1.258.917 1.242.932 1.258.916 1.242.932 1.258.917 1.241.931 1.258.917 1.258.918 1.242.932 1.257.984 1.208.959 1.257.984 1.24.999 1.257.984 1.21.96 1.256.985 1.24.998 1.256.984 1.21.961 1.256.984 1.24.998 1.257.985 1.24.997 1.226.947 1.24.998 1.256.984 1.24.998 1.257.986 1.21.96 1.256.983 1.24 1 1.225 1.012 1.247 1.059 1.23 1.072 1.224 1.013 1.216 1.02 1.225 1.014 1.246 1.058 1.2 1.035 1.247 1.058 1.224 1.013 1.247 1.058 1.224 1.013 1.23 1.073 1.216 1.02 1.255 1.051 1.217 1.021 1.254 1.051 1.2 1.035 1.247 1.058 1.224 1.013 1.216 1.02 1.254 1.05 1.2 1.035 1.198 1.102 1.199 1.101 1.198 1.102 1.2 1.103 1.198 1.101 1.167 1.063 1.199 1.101 1.198 1.102 1.199 1.102 1.198 1.101 1.168 1.064 1.198 1.1 1.168 1.065 1.199 1.102 1.198 1.101 1.198 1.101 1.199 1.102 1.198 1.102 1.199 1.101 1.198 1.102 1.199 1.101 1.167 1.063 1.199 1.102 1.18 1.116 1.152 1.08 1.181 1.117 1.181 1.117 1.14 1.154 1.181 1.117 1.182 1.116 1.18 1.117 1.182 1.117 1.181 1.117 1.182 1.117 1.18 1.116 1.182 1.117 1.181 1.117 1.182 1.117 1.212 1.155 1.15 1.078 1.143 1.152-36.078 55.087 192.388 99.911z" style="display:inline;fill:#0074d9;fill-opacity:1;stroke-width:105.904;stroke-miterlimit:4.1" transform="translate(-361.21 32.248)"/>
  <path d="M4511.358 2650.61v121.663c0 19.72-7.038 31.136-15.542 37.383l-119.719 108.059-121.698 70.262-264.762 152.693s-16.202-39.611-16.202-129.187 16.129-137.66 16.129-137.66l252.372-145.864 80.057-222.23 174.721 75.133c14.668-8.468 14.571 51.574 14.644 69.748" style="fill:#94d1e0;fill-opacity:1;stroke-width:15.6537" transform="translate(-361.21 32.248)"/>
  <path d="m4338.122 2931.284 158.427-166.839 14.736.684c1.393 24.43-6.213 76.785-14.57 82.948l-174.722 259.455-80.057-112.36-252.519 145.793s-6.524-16.12-11.29-50.637l291.595-168.185z" style="fill:#94d1e0;fill-opacity:1;stroke-width:15.6537" transform="translate(-361.21 32.248)"/>
  <path d="M3154.098 3446.758c5.279-329.932 107.33-402.555 138.267-420.417 271.255-156.609 327.852-189.954 408.789-236.682 68.473-39.534 101.977 44.57 134.454 25.986 32.551-18.793 41.275-140.98 99.412-174.713 59.53-34.369 68.4 50.587 68.4 50.587s3.885 107.888 3.446 233.481c.953 141-2.786 347.545-2.786 347.545s-9.53 96.081-69.06 130.45c-56.597 32.677-66.861-78.715-99.412-59.922-32.55 18.793-65.98 141.708-134.454 181.241-80.937 46.73-137.534 78.737-408.789 235.346-31.23 18.031-135.114 64.137-138.413-270.703z" style="fill:#f44336;stroke-width:15.6537" transform="translate(-361.21 32.248)"/>
  <path d="m3787.452 3902.653-.93-4.82-.92-4.83-.93-4.82-.92-4.83-.93-4.83-.92-4.82-.92-4.83-.93-4.83-.92-4.82-.93-4.83-.92-4.82-.93-4.83-.92-4.83-.92-4.82-.93-4.83-.92-4.82 19.98-4.74 19.31-6.24 18.82-7.84 18.84-9.87 17.26-11.12 16.2-12.63 15.02-14 14.19-15.87 12.24-16.33 10.82-17.2 9.4-17.89 7.87-18.1 6.74-18.8 5.51-19.06 4.38-19.21 3.09-18.18-4.79-.73-4.79-.73-4.79-.73-4.79-.73-4.8-.73-4.79-.73-4.79-.73-4.79-.72-4.79-.73-4.8-.73-4.79-.73-4.79-.73-4.79-.73-4.79-.73-4.8-.73-4.79-.73-2.71 15.89-3.35 14.45-4.11 14.12-4.91 13.72-5.9 13.57-6.69 12.68-7.58 12.03-8.5 11.29-8.82 9.87-10.22 9.58-11.03 8.59-11.8 7.57-11.75 6.14-13.05 5.46-13.55 4.38-13.62 3.24-.92-4.81-.92-4.81-.93-4.81-.92-4.81-.92-4.81-.92-4.81-.92-4.81-.92-4.81-.92-4.81-.92-4.81-.93-4.81-.92-4.81-.92-4.81-.92-4.81-.92-4.82-.92-4.81-4.48 8.37-.84 7.54-1.45 7.64-5.07 8.03-2.31 7.54-2.88 7.59-5.61 7.66-3.68 7.41-4.22 7.4-6.09 7.28-4.96 7.16-5.44 7.1-6.52 6.89-6.11 6.82-6.73 6.69-6.74 6.53 5.16 8.04 5.15 7.89 5.83 7.87 5.39 7.73 6.53 7.65 7.01 7.57 5.85 7.38 7.76 7.26 8.27 7.1 6.32 6.98 9.05 6.7 9.59 6.45 6.78 6.53 10.38 5.93 10.94 5.59zM4046.062 3427.473l-4.84.84-4.85.85-4.84.85-4.84.84-4.84.85-4.84.84-4.84.85-4.84.84-4.84.85-4.84.84-4.84.85-4.84.84-4.84.85-4.84.85-4.84.84-4.84.85-3.26-17.77-3.89-18.37-4.22-17.5-4.62-17.38-5.23-17.89-5.45-17.1-5.8-16.96-6.38-17.4-6.52-16.66-6.84-16.52-7.14-16.38-7.72-16.74-7.77-16.06-8.05-15.92-8.31-15.78-8.88-16.08-4.22 2.39-4.21 2.4-4.21 2.39-4.22 2.4-4.21 2.39-4.22 2.4-4.21 2.39-4.22 2.4-4.21 2.39-4.22 2.4-4.21 2.39-4.22 2.4-4.21 2.39-4.21 2.39-4.22 2.4-4.21 2.39 7.83 14.18 7.8 14.8 7.55 14.92 7.28 15.06 6.75 14.64 6.67 15.3 6.38 15.42 6.08 15.52 5.51 15.05 5.38 15.75 5.05 15.84 4.46 15.27 4.26 16.02 3.88 16.1 3.25 15.44 2.98 16.23-4.83.85-4.82.84-4.83.84-4.82.84-4.83.85-4.82.84-4.83.84-4.82.85-4.83.84-4.82.84-4.83.84-4.82.85-4.83.84-4.82.84-4.82.85-4.83.84 7.88 2.37 8.2 4.78 7.87 2.78 8.09 4.96 7.84 3.21 7.98 5.14 7.8 3.66 7.86 5.31 7.74 4.14 7.74 5.5 7.65 4.63 7.6 5.68 7.55 5.15 7.46 5.86 7.4 5.7 7.31 6.05 7.35-5.89 7.25-6.29 7.2-6.07 7.08-6.81 7.04-6.26 6.89-7.31 6.89-6.42 6.69-7.77 6.74-6.58 6.48-8.22 6.6-6.73 6.26-8.63 6.44-6.87 6.05-9.03 6.3-7.01zM3847.812 2996.753l-3.9 3-3.9 2.99-3.89 3-3.9 2.99-3.9 3-3.89 2.99-3.9 3-3.89 2.99-3.9 3-3.9 2.99-3.89 3-3.9 2.99-3.89 2.99-3.9 3-3.9 2.99-3.89 3-10.93-14.06-11.15-13.88-11.74-14.09-11.63-13.49-11.86-13.3-12.07-13.11-12.29-12.91-12.93-13.07-12.77-12.47-12.99-12.24-13.21-12.02-13.89-12.16-13.69-11.5-13.92-11.26-14.13-10.99-14.897-11.08-2.825 3.94-2.825 3.94-2.826 3.94-2.825 3.94-2.825 3.94-2.825 3.93-2.826 3.94-2.825 3.94-2.825 3.94-2.825 3.94-2.825 3.94-2.826 3.94-2.825 3.94-2.825 3.94-2.825 3.93-2.826 3.94 12.83 9.55 13.154 10.22 12.96 10.49 12.768 10.73 12.109 10.6 12.36 11.25 12.16 11.46 11.97 11.68 11.37 11.5 11.54 12.12 11.34 12.32 11.15 12.5 10.93 12.69 10.38 12.47 10.5 13.06 10.29 13.23-3.89 2.99-3.88 2.98-3.88 2.99-3.89 2.98-3.88 2.99-3.88 2.98-3.89 2.99-3.88 2.98-3.88 2.99-3.89 2.98-3.88 2.99-3.88 2.98-3.89 2.99-3.88 2.98-3.88 2.99-3.89 2.98 9.49.24 8.59-.82 9.48.37 8.75-.57 9.47.5 8.89-.3 9.47.62 9.47.63 9.02.09 9.46.76 9.16.36 9.45.88 9.45.89 9.27.76 9.44 1.01 9.4 1.05 2.91-9.01 2.87-8.97 2.71-9.22 2.75-9.01 2.76-9.01 2.37-9.48 2.63-9.04 2.15-9.69 2.51-9.08 2.51-9.08 1.81-9.93 2.39-9.11 1.58-10.13 2.26-9.15 1.36-10.32zM3480.584 2693.573l-1.972 4.51-1.972 4.5-1.972 4.5-1.972 4.5-1.972 4.5-1.972 4.5-1.971 4.5-1.972 4.5-1.972 4.5-1.972 4.5-1.972 4.5-1.972 4.51-1.972 4.5-1.971 4.5-1.972 4.5-1.972 4.5-16.645-7.11-17.691-6.88-17.138-6.01-18.263-5.66-17.605-4.76-18.815-4.2-19.096-3.4-19.363-2.5-18.4-1.39-19.726-.41-19.862.78-19.571 2.02-19.851 3.5-19.67 5.01-19.33 6.62-18.805 8.25 2.12 4.36 2.122 4.36 2.12 4.35 2.122 4.36 2.12 4.36 2.123 4.36 2.12 4.36 2.122 4.36 2.12 4.36 2.122 4.35 2.12 4.36 2.122 4.36 2.12 4.36 2.122 4.36 2.12 4.36 2.123 4.36 12.812-5.65 13.344-4.57 13.795-3.53 14.162-2.51 14.79-1.53 14.653-.58 14.81.28 16.059 1.22 14.894 1.98 14.917 2.66 14.912 3.3 15.757 4.26 14.744 4.56 15.472 5.43 14.513 5.65 15.139 6.47-1.966 4.48-1.965 4.49-1.965 4.49-1.966 4.48-1.965 4.49-1.965 4.49-1.966 4.48-1.965 4.49-1.966 4.48-1.965 4.49-1.965 4.49-1.966 4.48-1.965 4.49-1.965 4.49-1.966 4.48-1.965 4.49 6.33-5.26 8.517-4.18 6.757-4.97 8.599-4.01 7.159-4.69 8.677-3.83 7.538-4.41 8.75-3.67 7.897-4.12 8.818-3.5 8.23-3.84 8.883-3.33 8.882-3.34 8.618-3.39 8.942-3.17 8.928-3.12-1.272-9.38-1.286-9.33-1.663-9.53-1.46-9.31-2.067-9.65-1.634-9.28-1.634-9.27-2.666-9.74-1.811-9.24-3.117-9.83-1.99-9.21-3.59-9.91-2.17-9.17-4.086-9.99-2.357-9.12zM2962.025 2843.013l4.518 1.93 4.519 1.93 4.518 1.93 4.518 1.93 4.518 1.93 4.518 1.94 4.519 1.93 4.518 1.93 4.518 1.93 4.518 1.93 4.518 1.93 4.518 1.93 4.519 1.94 4.518 1.93 4.518 1.93 4.518 1.93-7.2 18.64-5.948 18.92-4.785 19.12-3.504 18.1-2.717 19.32-1.804 19.31-.914 18.27-.155 19.23.5 18.22 1.237 19.06 1.755 18.06 2.442 18.79 2.873 17.85 3.493 18.5 3.872 17.59 4.288 17.49 4.698-1.19 4.698-1.2 4.698-1.19 4.699-1.19 4.698-1.2 4.698-1.19 4.698-1.19 4.699-1.19 4.698-1.2 4.698-1.19 4.698-1.19 4.699-1.19 4.698-1.2 4.698-1.19 4.698-1.19 4.699-1.2-3.946-16.08-3.55-16.16-2.906-15.46-2.617-16.27-2.012-15.48-1.588-16.33-1.013-15.43-.451-16.32.109-15.32.813-16.25 1.423-15.09 2.065-14.9 3.064-15.82 3.645-14.38 4.425-14.02 5.246-13.59 4.503 1.93 4.504 1.92 4.503 1.93 4.504 1.92 4.503 1.93 4.504 1.92 4.503 1.93 4.503 1.92 4.504 1.93 4.503 1.92 4.504 1.93 4.503 1.92 4.503 1.93 4.504 1.93 4.503 1.92 4.504 1.93-6.051-4.74-4.124-8.55-5.192-6.12-5.34-5.66-4.276-7.43-4.04-7.6-4.476-6.67-3.456-8.04-3.788-7.37-2.807-8.46-2.993-8.03-2.095-8.85-1.777-8.98-1.64-8.87-.986-9.29-.615-9.39-9.461-1.26-9.542-.92-9.965-.21-9.793-.09-9.862.26-10.47 1.34-10.008 1.09-10.711 2.41-10.086 1.91-10.848 3.46-10.097 2.71-10.075 3.02-10.86 4.94-10.387 4.64-9.136 2.29z" style="fill:#0074d9;stroke:none;stroke-width:95.8066;stroke-linejoin:miter;stroke-miterlimit:4.1" transform="translate(-361.21 32.248)"/>
  <path d="m1439.15 3905.095-4.35-2.29-4.35-2.28-4.35-2.29-4.35-2.28-4.35-2.29-4.35-2.28-4.35-2.28-4.35-2.29-4.35-2.28-4.35-2.29-4.35-2.28-4.36-2.29-4.35-2.28-4.35-2.29-4.35-2.28-4.35-2.29-10.14 17.54-11.57 16.77-13.51 16.4-14.41 14.61-15.66 13.29-16.78 11.85-18.44 10.65-18.53 8.61-19.1 6.99-19.51 5.42-20.09 3.92-19.83 2.45-19.83 1.11-18.52-.06-19.63-1.21-19.42-2.24.67-4.8.68-4.8.67-4.8.67-4.8.67-4.81.67-4.8.67-4.8.67-4.8.68-4.8.67-4.8.67-4.8.67-4.8.67-4.8.67-4.8.68-4.8.67-4.8 14.9 1.74 14.84.97 16.04.06 14.66-.87 14.44-1.82 13.8-2.71 13.78-3.82 13.32-4.89 12.78-5.97 11.45-6.63 11.44-8.06 10.66-9.07 9.8-10.02 8.43-10.26 8.07-11.65 7.15-12.35-4.33-2.28-4.34-2.28-4.34-2.28-4.33-2.27-4.34-2.28-4.33-2.28-4.34-2.28-4.34-2.27-4.33-2.28-4.34-2.28-4.34-2.28-4.33-2.27-4.34-2.28-4.33-2.28-4.34-2.28-4.34-2.27 8.31-.04 7.56 1.37 8.46-.79 8.15-.38 9.07-2.79 7.97-.46 8.15-.99 8.85-3.42 8.2-1.83 8.33-2.35 8.6-3.99 8.29-3.13 8.48-4.27 8.22-3.87 8.27-4.34 8.2-4.78 6.29 7.01 6.07 7.45 5.92 7.88 5.85 7.39 5.5 8.52 5.61 7.56 5.02 9.17 4.74 9.63 5.1 7.92 4.16 10.28 3.79 10.76 4.53 8.26 3.46 10.6 2.66 11.78 3.07 10.36zM1414.59 3395.245l-4.5 1.97-4.51 1.97-4.5 1.98-4.5 1.97-4.5 1.97-4.5 1.97-4.5 1.98-4.5 1.97-4.5 1.97-4.5 1.97-4.5 1.97-4.5 1.98-4.5 1.97-4.5 1.97-4.5 1.97-4.5 1.98 7.23 16.99 6.65 16.61 6.32 16.75 6 16.88 5.81 17.65 5.22 17.18 4.84 17.3 4.57 18.14 3.95 17.58 3.67 18.46 2.96 17.84 2.48 17.93 2 18.89 1.31 18.13.73 19.14.01 18.25-4.84-.06-4.85-.06-4.85-.06-4.84-.06-4.85-.07-4.85-.06-4.85-.06-4.84-.06-4.85-.06-4.85-.07-4.84-.06-4.85-.06-4.85-.06-4.84-.06-4.85-.06-4.85-.07-.01-16.3-.59-15.39-1.19-16.34-1.63-15.47-2.26-16.31-2.7-16.25-3.08-15.44-3.63-16.13-3.87-15.37-4.48-15.99-4.83-15.89-4.99-15.17-5.57-15.69-5.89-15.59-5.97-14.92-6.55-15.35-4.49 1.96-4.48 1.97-4.49 1.96-4.48 1.97-4.49 1.97-4.49 1.96-4.48 1.97-4.49 1.96-4.48 1.97-4.49 1.97-4.49 1.96-4.48 1.97-4.49 1.96-4.48 1.97-4.49 1.97-4.49 1.96 4.36-8.43 4.96-7 4.23-8.5 4.77-7.3 4.1-8.56 4.11-8.55 4.46-7.66 3.97-8.62 4.27-7.94 3.85-8.67 4.08-8.21 3.73-8.72 3.73-8.72 3.76-8.52 3.6-8.78 3.56-8.77 9.3 1.73 9.26 1.75 9.4 2.03 9.23 1.87 9.23 1.87 9.46 2.48 9.2 2 9.55 2.79 9.17 2.14 9.63 3.12 9.14 2.27 9.14 2.27 9.67 3.59 9.11 2.41 9.73 3.94zM1141.13 3015.225l-3.3 3.64-3.3 3.65-3.3 3.64-3.3 3.64-3.29 3.64-3.3 3.64-3.3 3.65-3.3 3.64-3.3 3.64-3.3 3.64-3.3 3.64-3.3 3.65-3.3 3.64-3.29 3.64-3.3 3.64-3.3 3.64 13.53 12.52 12.85 12.38 12.63 12.59 12.42 12.8 12.19 13 12.32 13.61 11.72 13.42 11.5 13.6 11.27 13.78 11.06 13.96 11.12 14.57 10.57 14.32 10.33 14.5 10.11 14.65 10.16 15.26 9.59 15-4.11 2.57-4.11 2.57-4.11 2.56-4.11 2.57-4.12 2.57-4.11 2.57-4.11 2.56-4.11 2.57-4.11 2.57-4.11 2.57-4.12 2.56-4.11 2.57-4.11 2.57-4.11 2.57-4.11 2.56-4.11 2.57-9.04-14.11-8.99-13.51-9.52-13.8-9.73-13.65-9.95-13.49-9.85-12.9-10.41-13.14-10.61-12.97-10.82-12.8-11.02-12.61-10.87-12.01-11.46-12.21-11.65-12.01-11.85-11.8-11.63-11.2-12.26-11.35-3.29 3.63-3.29 3.63-3.29 3.63-3.28 3.63-3.29 3.63-3.29 3.63-3.29 3.63-3.29 3.63-3.29 3.63-3.28 3.63-3.29 3.63-3.29 3.63-3.29 3.63-3.29 3.63-3.28 3.63-3.29 3.63.52-9.47 1.68-8.42.38-9.48.38-9.48 1.27-8.61.23-9.49.99-8.79.09-9.49.7-8.96-.06-9.49-.07-9.48.25-9.14-.22-9.49-.07-9.3-.37-9.48-.4-9.47 9.17-2.28 9.14-2.27 9.41-2 9.18-2.12 9.65-1.73 9.21-1.97 9.21-1.97 9.9-1.31 9.24-1.82 10.09-1.05 9.27-1.67 10.29-.78 9.3-1.53 9.29-1.53 10.49-.37zM683.76 2812.205l.17 4.91.18 4.91.17 4.91.17 4.91.18 4.91.17 4.91.18 4.91.17 4.92.18 4.91.17 4.91.18 4.91.17 4.91.18 4.91.17 4.91.17 4.91.18 4.91 19.8-.13 19.64 1 18.31 1.92 19.23 3 18.95 3.84 17.73 4.38 18.41 5.37 17.27 5.69 17.83 6.64 16.78 6.83 17.25 7.72 16.28 7.82 16.69 8.64 15.78 8.7 15.55 9.06 15.91 9.84-2.62 4.08-2.61 4.08-2.62 4.08-2.61 4.08-2.62 4.08-2.61 4.08-2.62 4.09-2.61 4.08-2.62 4.08-2.61 4.08-2.62 4.08-2.61 4.08-2.62 4.08-2.61 4.08-2.62 4.09-2.61 4.08-13.49-8.35-14.3-8.34-14.49-7.99-14-7.25-14.87-7.15-14.28-6.41-15.23-6.2-14.55-5.44-15.55-5.13-14.76-4.31-15.82-3.91-14.91-3.01-14.91-2.35-16.05-1.68-14.87-.71-14.74.12.18 4.89.17 4.9.17 4.89.18 4.89.17 4.9.18 4.89.17 4.9.17 4.89.18 4.9.17 4.89.18 4.9.17 4.89.17 4.9.18 4.89.17 4.89.18 4.9-2.48-7.31-6.47-6.94-3.13-7.09-4.36-6.95-5.42-6.69-5.66-6.54-4.67-6.61-6.25-6.18-6.49-6.01-5.88-6.01-7.09-5.55-6.77-5.52-7.69-5.03-7.91-4.77-8.01-4.55-8.49-4.15 2.39-9.18 3.03-9.27 3.24-9.13 3.57-9.09 4.64-9.23 4.38-8.95 5.69-9.11 5.15-8.75 5.45-8.65 7.11-8.77 6.15-8.39 6.42-8.26 7.53-8.17 8.78-8.12 5.45-7.68zM361.21 3246.505l4.88-.51 4.89-.51 4.89-.52 4.88-.51 4.89-.51 4.89-.52 4.88-.51 4.89-.51 4.89-.52 4.88-.51 4.89-.52 4.89-.51 4.89-.51 4.88-.52 4.89-.51 4.89-.51-1.5-18.99-.86-18.18-.16-19.2.51-18.25 1.41-19.29 2.28-19.31 3.25-19.3 4.04-18.03 5.39-19.02 6.6-18.78 7.9-18.43 9.04-17.63 10.64-17.28 12.06-16.47 14.04-16.04 14.9-14.22 3.17 3.67 3.17 3.67 3.17 3.66 3.17 3.67 3.17 3.67 3.17 3.67 3.17 3.67 3.17 3.66 3.16 3.67 3.17 3.67 3.17 3.67 3.17 3.66 3.17 3.67 3.17 3.67 3.17 3.67 3.17 3.66-10.06 9.66-8.69 9.94-8.38 11.38-7.48 12.12-6.72 13.11-5.69 13.32-4.86 13.81-4.05 14.2-3.51 15.69-2.43 14.78-1.76 15-1.13 15.18-.46 16.28.12 15.36.77 16.34 1.21 15.46 4.87-.51 4.87-.51 4.87-.52 4.87-.51 4.87-.51 4.87-.51 4.88-.51 4.87-.52 4.87-.51 4.87-.51 4.87-.51 4.87-.51 4.87-.52 4.87-.51 4.87-.51 4.87-.51-6.7 6.71-6.96 4.47-6.56 6.86-6.81 5-6.41 6.99-6.65 5.5-6.27 7.12-6.26 7.12-6.34 6.1-6.12 7.25-6.16 6.53-5.98 7.37-5.98 6.95-5.83 7.48-5.8 7.35-5.69 7.59-8.52-4.01-8.55-4.31-8.45-4.17-8.54-4.74-8.37-4.33-8.52-5.19-8.28-4.5-8.48-5.67-8.19-4.67-8.42-6.17-8.09-4.83-8.09-4.83-8.24-6.86-7.98-5.01-8.14-7.41z" style="fill:#2ecc40;stroke:none;stroke-width:95.8066;stroke-linejoin:miter;stroke-miterlimit:4.1" transform="translate(-361.21 32.248)"/>
</svg>
