<!-- Created with Inkscape (http://www.inkscape.org/) -->
<svg xmlns:inkscape="http://www.inkscape.org/namespaces/inkscape" xmlns:sodipodi="http://sodipodi.sourceforge.net/DTD/sodipodi-0.dtd" xmlns="http://www.w3.org/2000/svg" xmlns:svg="http://www.w3.org/2000/svg" xmlns:vectornator="http://vectornator.io" viewBox="0 0 3899.3962 1091.9974" version="1.1" id="svg1" inkscape:version="1.4.2 (ebf0e940d0, 2025-05-08)" sodipodi:docname="fig-bigon_collapse.svg" xml:space="preserve">
  <sodipodi:namedview id="namedview1" pagecolor="#282a36" bordercolor="#44475a" borderopacity="0.24705882" inkscape:showpageshadow="2" inkscape:pageopacity="0.0" inkscape:pagecheckerboard="0" inkscape:deskcolor="#44475a" inkscape:document-units="px" inkscape:zoom="0.13420516" inkscape:cx="2846.3883" inkscape:cy="1195.9302" inkscape:window-width="2234" inkscape:window-height="1418" inkscape:window-x="0" inkscape:window-y="0" inkscape:window-maximized="1" inkscape:current-layer="layer1"/>
  <defs id="defs1">
    <inkscape:path-effect effect="knot" id="path-effect5" is_visible="true" lpeversion="1" switcher_size="15" interruption_width="3" prop_to_stroke_width="true" add_stroke_width="inkscape_1.0_and_up" both="false" inverse_width="false" add_other_stroke_width="inkscape_1.0_and_up" crossing_points_vector="726.20509 | 342.12732 | 0 | 0 | 0 | 3 | 0.83949445 | 3.4847435 | 1 | 262.46978 | 340.0839 | 0 | 0 | 1 | 4 | 1.5854418 | 4.7931247 | 1 | 500.65425 | 875.88589 | 0 | 0 | 2 | 5 | 2.8163314 | 5.6118873 | 1"/>
    <inkscape:path-effect effect="knot" id="path-effect3" is_visible="true" lpeversion="1" switcher_size="15" interruption_width="3" prop_to_stroke_width="true" add_stroke_width="inkscape_1.0_and_up" both="false" inverse_width="false" add_other_stroke_width="inkscape_1.0_and_up" crossing_points_vector="726.20509 | 342.12732 | 0 | 0 | 0 | 3 | 0.83949445 | 3.4847435 | 1 | 262.46978 | 340.0839 | 0 | 0 | 1 | 4 | 1.5854418 | 4.7931247 | 1 | 500.65425 | 875.88589 | 0 | 0 | 2 | 5 | 2.8163314 | 5.6118873 | 1"/>
    <inkscape:path-effect effect="knot" id="path-effect954" is_visible="true" lpeversion="1" switcher_size="15" interruption_width="3" prop_to_stroke_width="true" add_stroke_width="inkscape_1.0_and_up" both="false" inverse_width="false" add_other_stroke_width="inkscape_1.0_and_up" crossing_points_vector="726.20509 | 342.12732 | 0 | 0 | 0 | 3 | 0.83949445 | 3.4847435 | 1 | 262.46978 | 340.0839 | 0 | 0 | 1 | 4 | 1.5854418 | 4.7931247 | 1 | 500.65425 | 875.88589 | 0 | 0 | 2 | 5 | 2.8163314 | 5.6118873 | 1"/>
    <inkscape:path-effect effect="knot" id="path-effect954-1" is_visible="true" lpeversion="1" switcher_size="15" interruption_width="3" prop_to_stroke_width="true" add_stroke_width="inkscape_1.0_and_up" both="false" inverse_width="false" add_other_stroke_width="inkscape_1.0_and_up" crossing_points_vector="726.20509 | 342.12732 | 0 | 0 | 0 | 3 | 0.83949445 | 3.4847435 | 1 | 262.46978 | 340.0839 | 0 | 0 | 1 | 4 | 1.5854418 | 4.7931247 | 1 | 500.65425 | 875.88589 | 0 | 0 | 2 | 5 | 2.8163314 | 5.6118873 | 1"/>
  </defs>
  <g inkscape:label="Layer 1" inkscape:groupmode="layer" id="layer1" transform="translate(-496.98775,5.9986803)">
    <g style="clip-rule:evenodd;fill-rule:nonzero;stroke-linecap:round;stroke-linejoin:round;stroke-miterlimit:10" id="g1" transform="translate(496.98775,15.934086)" class="">
      <g id="Layer-1" vectornator:layerName="Layer 1" transform="translate(-6.4614711,0.44143466)">

        

    </g>
    </g>
    <path d="M 529.41398,906.9595 C 905.74103,1282.9125 1407.8053,172.05401 315.101,332.037 l -11.07317,1.693 m -83.11933,12.67785 c -543.71734,82.90342 154.31398,1368.29015 493.56933,36.04957 m 23.46793,-80.65637 0.61724,-2.12005 c 114.199,-430.126 -897.89061,-465.85119 -274.96461,533.30481 2.5361,3.0349 5.64592,6.71535 9.14307,10.81522" fill="none" opacity="1" class="" stroke="#ffb86c" stroke-linecap="round" stroke-linejoin="round" stroke-width="28" id="path6" sodipodi:nodetypes="ccccccc" inkscape:path-effect="#path-effect954" inkscape:original-d="M 525.333,902.819 C 902.086,1290.97 1411.76,171.475 315.101,332.037 l -89.9,13.745 c -551.719,76.794 149.273,1372.658 489.378,36.278 l 23.984,-82.379 C 852.762,-130.445 -159.32761,-166.17019 463.59839,832.98581 477.2448,849.3162 507.50277,884.33793 525.333,902.819 Z" style="clip-rule:evenodd;fill-rule:nonzero;stroke:#ff851b;stroke-linecap:butt;stroke-linejoin:round;stroke-miterlimit:10" transform="translate(490.52628,40.939705)"/>
    <path style="baseline-shift:baseline;clip-rule:evenodd;display:none;overflow:visible;opacity:1;vector-effect:none;fill:#ff4136;stroke-linejoin:round;stroke-miterlimit:10;enable-background:accumulate;stop-color:#000000;stop-opacity:1" d="M 505.36719,-0.42578125 C 471.34206,-0.78625814 437.21904,4.9393554 405.25977,17.294922 320.03503,50.243099 251.52062,132.24805 245.83594,267.0625 c -0.81223,19.26226 -0.22663,39.72504 1.55664,61.16406 l -24.1211,3.68946 C 151.44365,341.91376 98.301312,372.36981 63.052734,415.32031 27.804157,458.27081 10.516526,513.00102 7.1074219,570.95508 0.28921377,686.86319 47.821114,816.80114 125.01563,903.18945 c 38.59725,43.19416 84.93737,75.60108 136.38476,88.4961 51.4474,12.89505 107.77966,5.53952 163.03906,-28.82032 25.69887,-15.97934 51.22938,-37.86879 76.38282,-65.85156 5.17256,5.69155 10.16074,11.09455 14.43554,15.52539 a 14.0014,14.0014 0 0 0 0.0293,0.0312 C 612.91669,1013.1535 724.48501,1017.384 812.59766,966.95703 900.7103,916.53006 967.10928,814.84905 986.53125,705.2168 1005.9532,595.58454 976.91296,476.50114 872.04687,396.91602 837.48654,370.68744 794.81601,348.92703 743.49805,332.81836 l 8.50781,-29.22461 a 14.0014,14.0014 0 0 0 0.0879,-0.32031 C 781.97194,190.7384 737.28044,100.57892 664.19141,49.564453 618.51076,17.680412 562.07574,0.17501356 505.36719,-0.42578125 Z M 505.10352,27.789062 c 51.16252,0.640162 102.37946,16.338551 143.0625,44.734375 65.08103,45.425073 104.07122,121.010193 76.8789,223.509763 l -8.45508,29.03907 C 615.26965,298.78415 482.83454,293.33063 313.07227,318.18555 a 14.0014,14.0014 0 0 0 -0.0879,0.0117 l -37.83203,5.78515 c -1.5849,-19.64592 -2.07742,-38.29463 -1.34179,-55.74023 C 279.12601,142.18392 339.69842,72.659431 415.35547,43.410156 443.72686,32.441678 474.406,27.404966 505.10352,27.789062 Z m -2.69141,302.486328 c 80.91649,-1.01409 149.12757,7.06774 206.31445,21.80469 l -7.58984,26.0664 a 14.0014,14.0014 0 0 0 -0.125,0.46094 C 641.67635,611.75484 571.12189,762.9197 500.00781,853.875 490.31373,842.76572 480.89464,831.81713 474.96484,824.73242 351.78349,626.9705 293.88899,470.87098 278.14648,351.84961 l 39.0625,-5.9707 0.008,-0.002 c 67.96716,-9.9475 129.5508,-14.90419 185.19531,-15.60156 z M 250.39844,356.0918 c 16.47993,124.77689 76.57366,284.21061 201.32031,484.30078 a 14.0014,14.0014 0 0 0 1.13672,1.57031 c 6.82886,8.17196 17.66845,20.85152 29.04101,33.82617 -24.26129,27.57409 -48.48346,48.52586 -72.24218,63.29883 -49.66526,30.88145 -96.93016,36.59548 -141.44727,25.4375 C 223.68992,953.36741 181.6954,924.59792 145.89453,884.5332 74.292793,804.40376 28.770114,679.50049 35.058594,572.59766 38.202833,519.14624 54.007413,470.47966 84.697266,433.08398 115.38712,395.6883 161.02894,368.84919 227.13086,359.64844 a 14.0014,14.0014 0 0 0 0.18555,-0.0274 z m 485.24609,3.69531 c 48.33405,15.20925 87.94046,35.50165 119.47461,59.43359 96.23185,73.03241 121.85008,179.45896 103.8418,281.11133 -18.00829,101.65237 -81.12711,197.03091 -160.26953,242.32422 -79.13378,45.28836 -172.54562,43.90337 -263.28321,-49.55859 -0.003,-0.003 -0.007,-0.007 -0.01,-0.01 -4.65778,-4.82811 -10.329,-11.00142 -16.33008,-17.6543 C 595.30923,780.32533 667.32161,624.36774 728.05249,385.865 Z" id="path3" transform="translate(485.43607,-1032.2072)" class=""/>
    <g id="layer1-4" transform="translate(1119.3297,1026.6503)">
      <path style="baseline-shift:baseline;clip-rule:evenodd;display:inline;overflow:visible;opacity:1;vector-effect:none;fill:#01ff70;stroke-linejoin:round;stroke-miterlimit:10;enable-background:accumulate;stop-color:#000000;stop-opacity:1" d="M 505.36719,-0.42578125 C 471.34206,-0.78625814 437.21904,4.9393554 405.25977,17.294922 320.03503,50.243099 251.52062,132.24805 245.83594,267.0625 c -0.99787,23.66487 -0.12723,48.94741 2.83377,75.90923 l 28.22549,-0.17002 C 273.78,316.0292 272.84278,291.19334 273.81055,268.24219 279.12601,142.18392 339.69842,72.659431 415.35547,43.410156 491.01251,14.160881 583.07316,27.090118 648.16602,72.523437 713.24666,117.94823 752.23626,193.53264 725.04492,296.03125 l -0.54101,1.85547 26.88281,7.82812 0.61914,-2.12109 c 0.0306,-0.10642 0.0599,-0.2132 0.0879,-0.32031 C 781.97194,190.7384 737.28044,100.57892 664.19141,49.564453 618.51076,17.680412 562.07574,0.17501356 505.36719,-0.42578125 Z m -3.75,302.66211125 c -56.99816,0.76185 -119.71446,5.87174 -188.54492,15.94922 -0.0293,0.004 -0.0586,0.008 -0.0879,0.0117 l -11.07226,1.69335 4.23242,27.67774 11.06445,-1.68945 0.008,-0.002 c 176.55585,-25.84026 310.02713,-17.99411 408.26837,10.67053 l 7.40821,-27.11835 C 669.35465,310.92693 592.80314,301.01752 501.61719,302.23633 Z" id="path22-0" sodipodi:nodetypes="sssccssscccccsssccccccccs" transform="translate(485.43607,-1032.2072)" class=""/>
      <path style="baseline-shift:baseline;clip-rule:evenodd;display:inline;overflow:visible;opacity:1;vector-effect:none;fill:#aaaaaa;stroke-linejoin:round;stroke-miterlimit:10;enable-background:accumulate;stop-color:#000000;stop-opacity:1" d="m 248.66971,342.97173 c 13.90726,126.63475 73.92807,290.3144 203.04904,497.42085 0.34228,0.549 0.72199,1.07376 1.13672,1.57031 2.57589,3.08251 5.71193,6.79431 9.23437,10.92383 l 21.30274,-18.17188 c -3.22304,-3.7785 -6.00777,-7.07932 -8.40235,-9.93945 C 348.68616,622.00953 290.87136,462.91503 276.8952,342.80171 Z m 270.85,573.89149 c 393.44926,393.05788 0,0 0,0 z M 218.79883,332.56836 C 147.9489,343.37122 95.660564,374.40395 61.150391,417.67187 26.640217,460.9398 9.9329455,515.74198 6.9589844,573.64453 1.0110622,689.44963 48.890403,818.77351 126.18164,904.48633 c 38.64562,42.85641 84.97268,74.90909 136.35156,87.48047 51.37888,12.5714 107.56893,4.93196 162.67188,-29.58008 28.18636,-17.65366 56.18943,-42.0928 83.68511,-74.29124 L 490.7207,865.66173 c -26.97171,32.5024 -53.95755,56.44754 -80.37695,72.99452 -49.54969,31.03392 -96.71924,36.98612 -141.15625,26.11328 C 224.75049,953.89669 182.80403,925.46969 146.97461,885.73633 75.315766,806.26961 29.431898,681.96906 34.921875,575.08008 37.666863,521.63559 52.979097,472.82169 83.041016,435.13086 113.10293,397.44003 157.94012,370.17104 223.01953,360.24805 Z" id="path23-5" transform="translate(485.43607,-1032.2072)" sodipodi:nodetypes="cscccccccccsssssccssssscc" class=""/>
      <path style="baseline-shift:baseline;clip-rule:evenodd;display:inline;overflow:visible;opacity:1;vector-effect:none;fill:#aaaaaa;stroke-linejoin:round;stroke-miterlimit:10;enable-background:accumulate;stop-color:#000000;stop-opacity:1" d="m 725.48535,356.54742 c 52.53935,15.32984 95.00255,36.61398 128.591,61.88416 96.40483,72.52992 122.57047,178.33083 105.26758,279.69922 -17.30289,101.36839 -79.57276,196.8499 -158.08984,243.03711 -78.51708,46.18721 -171.40347,46.33858 -261.94532,-44.11328 l -19.78906,19.80859 c 97.62168,97.52458 208.6167,99.80188 295.93164,48.43945 C 902.76612,913.94023 968.27929,812.19604 986.94531,702.8418 1005.6113,593.48756 975.93115,475.06893 870.91016,396.05664 834.1477,368.39849 788.50461,345.62266 732.89356,329.42907 Z M 508.89019,888.09548 c 80.00975,-93.6943 155.72322,-253.09065 219.15473,-502.18337 l -27.13476,-6.91016 C 639.01249,622.07133 564.9201,776.24736 490.7207,865.66173 Z" id="path2-9" transform="translate(485.43607,-1032.2072)" sodipodi:nodetypes="csssccsssccccccc" class=""/>
      <path id="path1-4" style="fill:#ff4136;stroke-width:17.8387;stroke-linecap:round;stroke-linejoin:round;stroke-dasharray:17.8387, 35.6773;paint-order:stroke fill markers" d="m 808.21852,-689.32048 a 60,60 0 0 1 -60,60 60,60 0 0 1 -60,-60 60,60 0 0 1 60,-60 60,60 0 0 1 60,60 z" class=""/>
      <path id="path1-8-6" style="fill:#ff4136;stroke-width:17.8387;stroke-linecap:round;stroke-linejoin:round;stroke-dasharray:17.8387, 35.6773;paint-order:stroke fill markers" d="m 1274.6255,-689.21896 a 60,60 0 0 1 -60,60 60,60 0 0 1 -60,-60 60,60 0 0 1 60,-60 60,60 0 0 1 60,60 z" class=""/>
      <path id="path1-6-9" style="fill:#ff4136;stroke-width:17.8387;stroke-linecap:round;stroke-linejoin:round;stroke-dasharray:17.8387, 35.6773;paint-order:stroke fill markers" d="m 1045.2415,-155.3286 a 60,60 0 0 1 -59.99997,60.000005 60,60 0 0 1 -60,-60.000005 60,60 0 0 1 60,-60 60,60 0 0 1 59.99997,60 z" class=""/>
    </g>
    <g id="g36" transform="translate(-730.19738,103.46349)">
      <path style="baseline-shift:baseline;clip-rule:evenodd;display:inline;overflow:visible;vector-effect:none;fill:#aaaaaa;stroke-linejoin:round;stroke-miterlimit:10;enable-background:accumulate;stop-color:#000000" d="m 3769.7309,121.80406 c -70.3228,-13.8241 -130.03,-2.32849 -177.1518,26.69909 -47.1219,29.02758 -81.3977,74.93599 -103.801,128.41159 -44.8067,106.95118 -43.5429,244.84787 0.1618,351.66788 21.8525,53.41005 54.5905,99.25527 98.6782,128.48038 44.0877,29.22512 99.5455,41.06213 163.0791,27.24573 32.4988,-7.06742 67.1227,-20.58156 103.8964,-41.5685 l -9.5006,-27.26066 c -36.3835,21.45036 -69.8829,34.84413 -100.3444,41.46848 -57.1308,12.424 -103.5296,2.05359 -141.6606,-23.22285 -38.1309,-25.27645 -67.9748,-66.22696 -88.2347,-115.74486 -40.5198,-99.03578 -41.607,-231.53022 -0.25,-330.24695 20.6785,-49.35837 51.6141,-90.10455 92.662,-115.39059 41.0479,-25.28603 92.4698,-35.76306 157.0651,-23.06488 z" id="path25" sodipodi:nodetypes="csssssccssssscc" class=""/>
      <path style="baseline-shift:baseline;clip-rule:evenodd;display:inline;overflow:visible;vector-effect:none;fill:#01ff70;stroke-linejoin:round;stroke-miterlimit:10;enable-background:accumulate;stop-color:#000000" d="m 3806.101,156.79581 c 53.8524,-9.76186 101.3512,-9.69457 142.6915,-2.09577 118.6542,21.80985 189.3376,104.76966 219.1527,203.18714 29.8151,98.41748 16.7716,211.66108 -32.8334,288.06491 -49.6049,76.40382 -132.6351,118.0438 -254.0522,77.58084 l -8.8526,26.56352 c 130.9112,43.62682 231.2269,-3.93192 286.3901,-88.89672 55.163,-84.96477 68.3098,-205.26033 36.1459,-311.43118 -32.164,-106.17084 -111.6296,-198.84826 -240.8884,-222.60745 -45.2469,-8.31684 -96.257,-8.29774 -153.2435,2.06392 z m 43.7423,572.31409 c 29.7126,-119.57147 26.224,-296.00151 -28.3315,-547.18757 l -27.3629,5.94268 c 53.2363,245.11212 55.8426,416.14761 29.4156,529.29396 z" id="path26" sodipodi:nodetypes="csssccsssccccccc" class=""/>
      <path id="path28" style="fill:#ff4136;stroke-width:17.8387;stroke-linecap:round;stroke-linejoin:round;stroke-dasharray:17.8387, 35.6773;paint-order:stroke fill markers" d="m 3857.0331,116.20057 a 60,60 0 0 1 -26.8672,80.48697 60,60 0 0 1 -80.487,-26.8672 60,60 0 0 1 26.8672,-80.486984 60,60 0 0 1 80.487,26.867214 z" class=""/>
      <path id="path29" style="fill:#ff4136;stroke-width:17.8387;stroke-linecap:round;stroke-linejoin:round;stroke-dasharray:17.8387, 35.6773;paint-order:stroke fill markers" d="m 3912.4927,710.11183 a 60,60 0 0 1 -60,60.00001 60,60 0 0 1 -60,-60.00001 60,60 0 0 1 60,-60 60,60 0 0 1 60,60 z" class=""/>
    </g>
    <g id="g35" transform="translate(-830,-300.38304)">
      <path style="fill:none;stroke:#aaaaaa;stroke-width:20;stroke-linecap:round;stroke-linejoin:round;stroke-dasharray:none;paint-order:stroke fill markers" d="m 4833.3675,834.29386 c 2.0613,-117.88096 190.8102,-251.81432 294.5548,-195.80344 118.8197,64.14977 117.8721,343.73987 -2.4195,405.08508 -106.7124,54.4202 -294.2296,-89.51225 -292.1353,-209.28164 z" id="path34" sodipodi:nodetypes="aaaa" class=""/>
      <path style="fill:none;stroke:#aaaaaa;stroke-width:20;stroke-linecap:round;stroke-linejoin:round;stroke-dasharray:none;paint-order:stroke fill markers" d="m 4833.3675,834.29386 c -2.0613,-117.88096 -190.8102,-251.81432 -294.5548,-195.80344 -118.8197,64.14977 -117.8721,343.73987 2.4195,405.08508 106.7124,54.4202 294.2296,-89.51225 292.1353,-209.28164 z" id="path35" sodipodi:nodetypes="aaaa" class=""/>
      <path id="path33" style="fill:#ff4136;stroke-width:17.8387;stroke-linecap:round;stroke-linejoin:round;stroke-dasharray:17.8387, 35.6773;paint-order:stroke fill markers" d="m 4893.3675,834.29386 a 60,60 0 0 1 -60,60.00001 60,60 0 0 1 -60,-60.00001 60,60 0 0 1 60,-60 60,60 0 0 1 60,60 z" class=""/>
    </g>
  </g>
</svg>
