<svg xmlns="http://www.w3.org/2000/svg" viewBox="0 0 3590.894 1625.369">
  <path d="m441.626 97.989 77.882-77.95M6.03 533.96l77.397-77.463m360.527 2.683 74.293 74.358M7.15 22l74.112 74.176" style="fill:none;stroke:#ff851b;stroke-width:16.5705;stroke-linecap:butt;stroke-linejoin:miter;stroke-dasharray:none;stroke-opacity:1" transform="matrix(1.33333 0 0 -1.33333 -.092 719.753)"/>
  <g style="display:inline">
    <path d="M95.987 238.496c-40.02-3.626-73.497-31.904-83.754-70.747-4.013-15.198-4.013-33.368 0-48.566 9.68-36.655 39.637-63.734 77.404-69.965 6.991-1.154 22.642-1.154 29.633 0 41.257 6.807 72.625 38.175 79.432 79.431 1.85 11.211.998 27.643-2.028 39.1-9.657 36.57-39.811 63.872-77.228 69.921-4.454.72-18.981 1.232-23.46.826m22.401-5.72c52.756-8.696 86.477-59.58 73.702-111.214-8.706-35.184-37.598-61.553-73.878-67.425-6.899-1.117-21.007-1.118-27.693-.003-39.313 6.559-69.069 36.348-75.386 75.472-1.068 6.615-1.147 20.3-.155 26.736 6.489 42.08 39.946 73.562 82.067 77.22 4.23.368 17.254-.112 21.343-.787" style="display:inline;fill:#616161ddd;fill-opacity:1;stroke:none;stroke-width:.352778;stroke-opacity:1" transform="matrix(3.68074 0 0 3.68391 -33.948 -177.972)"/>
  </g>
  <path d="M187.064 352.704h151.76" style="fill:#39cccc;fill-opacity:.766511;stroke:#ff4136;stroke-width:8.50394;stroke-miterlimit:3.6;stroke-dasharray:none" transform="matrix(1.33333 0 0 -1.33333 -.092 719.753)"/>
  <path d="M262.944 202.316v150.388" style="fill:#39cccc;fill-opacity:.766511;stroke:#ff4136;stroke-width:8.50394;stroke-miterlimit:3.6;stroke-dasharray:none" transform="matrix(1.33333 0 0 -1.33333 12.7 719.753)"/>
  <path d="M243.755 333.456v-131.14" style="fill:#39cccc;fill-opacity:.766511;stroke:#ff4136;stroke-width:8.50395;stroke-miterlimit:3.6;stroke-dasharray:none" transform="matrix(1.33333 0 0 -1.33333 12.7 719.753)"/>
  <path d="m1439.791 594.88 103.842 103.934M858.998 13.588 962.194 116.87m480.701-3.577 99.057-99.144M860.492 696.2l98.815-98.902" style="fill:none;stroke:#ff851b;stroke-width:22.0939;stroke-linecap:butt;stroke-linejoin:miter;stroke-dasharray:none;stroke-opacity:1" transform="rotate(90 1257.663 412.467)"/>
  <path d="M1170.405 706.405c-147.303-13.358-270.523-117.531-308.277-260.625-14.77-55.988-14.77-122.925 0-178.913 35.63-135.034 145.894-234.79 284.904-257.745 25.732-4.251 83.34-4.251 109.072 0 151.856 25.076 267.314 140.633 292.368 292.617 6.81 41.3 3.674 101.834-7.464 144.04-35.545 134.721-146.534 235.3-284.256 257.583-16.394 2.653-69.865 4.539-86.35 3.043m82.452-21.072c194.18-32.035 318.299-219.487 271.277-409.702-32.044-129.615-138.388-226.756-271.925-248.388-25.394-4.115-77.322-4.118-101.93-.01-144.702 24.162-254.226 133.902-277.477 278.031-3.931 24.37-4.222 74.784-.57 98.493 23.884 155.02 147.03 270.996 302.067 284.472 15.57 1.355 63.507-.413 78.558-2.9" style="display:inline;fill:#616161ddd;fill-opacity:1;stroke:none;stroke-width:1.29904;stroke-opacity:1" transform="rotate(90 1257.663 412.467)"/>
  <path d="M1100.376 255.262h202.346M1214.341 455.778V255.262M1188.756 280.926v174.852" style="fill:#39cccc;fill-opacity:.766511;stroke:#ff4136;stroke-width:11.3386;stroke-miterlimit:3.6;stroke-dasharray:none" transform="rotate(90 1257.663 412.467)"/>
  <path d="m2434.066 603.464 103.842 103.933M1853.272 22.171l103.196 103.284m480.702-3.578 99.057-99.143m-681.461 682.049 98.816-98.901" style="fill:none;stroke:#ff851b;stroke-width:22.0939;stroke-linecap:butt;stroke-linejoin:miter;stroke-dasharray:none;stroke-opacity:1" transform="rotate(180 2236.435 364.94)"/>
  <g style="display:inline">
    <path d="M95.987 238.496c-40.02-3.626-73.497-31.904-83.754-70.747-4.013-15.198-4.013-33.368 0-48.566 9.68-36.655 39.637-63.734 77.404-69.965 6.991-1.154 22.642-1.154 29.633 0 41.257 6.807 72.625 38.175 79.432 79.431 1.85 11.211.998 27.643-2.028 39.1-9.657 36.57-39.811 63.872-77.228 69.921-4.454.72-18.981 1.232-23.46.826m22.401-5.72c52.756-8.696 86.477-59.58 73.702-111.214-8.706-35.184-37.598-61.553-73.878-67.425-6.899-1.117-21.007-1.118-27.693-.003-39.313 6.559-69.069 36.348-75.386 75.472-1.068 6.615-1.147 20.3-.155 26.736 6.489 42.08 39.946 73.562 82.067 77.22 4.23.368 17.254-.112 21.343-.787" style="display:inline;fill:#616161ddd;fill-opacity:1;stroke:none;stroke-width:.352778;stroke-opacity:1" transform="matrix(-3.68074 0 0 -3.68391 2661.493 893.488)"/>
  </g>
  <path d="M2094.65 263.845h202.347M2208.616 464.362V263.845M2183.03 289.51v174.852" style="fill:#39cccc;fill-opacity:.766511;stroke:#ff4136;stroke-width:11.3386;stroke-miterlimit:3.6;stroke-dasharray:none" transform="rotate(180 2236.435 364.94)"/>
  <path d="M3478.558 612.685 3582.4 716.618M2897.765 31.392l103.196 103.283m480.701-3.577 99.057-99.144m-681.46 682.05 98.815-98.902" style="fill:none;stroke:#ff851b;stroke-width:22.0939;stroke-linecap:butt;stroke-linejoin:miter;stroke-dasharray:none;stroke-opacity:1" transform="rotate(-90 3240.316 374.16)"/>
  <g style="display:inline">
    <path d="M95.987 238.496c-40.02-3.626-73.497-31.904-83.754-70.747-4.013-15.198-4.013-33.368 0-48.566 9.68-36.655 39.637-63.734 77.404-69.965 6.991-1.154 22.642-1.154 29.633 0 41.257 6.807 72.625 38.175 79.432 79.431 1.85 11.211.998 27.643-2.028 39.1-9.657 36.57-39.811 63.872-77.228 69.921-4.454.72-18.981 1.232-23.46.826m22.401-5.72c52.756-8.696 86.477-59.58 73.702-111.214-8.706-35.184-37.598-61.553-73.878-67.425-6.899-1.117-21.007-1.118-27.693-.003-39.313 6.559-69.069 36.348-75.386 75.472-1.068 6.615-1.147 20.3-.155 26.736 6.489 42.08 39.946 73.562 82.067 77.22 4.23.368 17.254-.112 21.343-.787" style="display:inline;fill:#616161ddd;fill-opacity:1;stroke:none;stroke-width:.352778;stroke-opacity:1" transform="matrix(0 -3.68074 3.68391 0 2711.767 758.608)"/>
  </g>
  <path d="M3139.143 273.066h202.346M3253.108 473.582V273.066M3227.523 298.73v174.852" style="fill:#39cccc;fill-opacity:.766511;stroke:#ff4136;stroke-width:11.3386;stroke-miterlimit:3.6;stroke-dasharray:none" transform="rotate(-90 3240.316 374.16)"/>
  <path d="m441.626 97.989 77.882-77.95M6.03 533.96l77.397-77.463m360.527 2.683 74.293 74.358M7.15 22l74.112 74.176" style="fill:none;stroke:#ff851b;stroke-width:16.5705;stroke-linecap:butt;stroke-linejoin:miter;stroke-dasharray:none;stroke-opacity:1" transform="rotate(180 350.547 810.232)scale(1.33333)"/>
  <g style="display:inline">
    <path d="M95.987 238.496c-40.02-3.626-73.497-31.904-83.754-70.747-4.013-15.198-4.013-33.368 0-48.566 9.68-36.655 39.637-63.734 77.404-69.965 6.991-1.154 22.642-1.154 29.633 0 41.257 6.807 72.625 38.175 79.432 79.431 1.85 11.211.998 27.643-2.028 39.1-9.657 36.57-39.811 63.872-77.228 69.921-4.454.72-18.981 1.232-23.46.826m22.401-5.72c52.756-8.696 86.477-59.58 73.702-111.214-8.706-35.184-37.598-61.553-73.878-67.425-6.899-1.117-21.007-1.118-27.693-.003-39.313 6.559-69.069 36.348-75.386 75.472-1.068 6.615-1.147 20.3-.155 26.736 6.489 42.08 39.946 73.562 82.067 77.22 4.23.368 17.254-.112 21.343-.787" style="display:inline;fill:#616161ddd;fill-opacity:1;stroke:none;stroke-width:.352778;stroke-opacity:1" transform="matrix(-3.68074 0 0 3.68391 734.95 722.738)"/>
  </g>
  <path d="M187.064 352.704h151.76" style="fill:#39cccc;fill-opacity:.766511;stroke:#ff4136;stroke-width:8.50394;stroke-miterlimit:3.6;stroke-dasharray:none" transform="rotate(180 350.547 810.232)scale(1.33333)"/>
  <path d="M262.944 202.316v150.388" style="fill:#39cccc;fill-opacity:.766511;stroke:#ff4136;stroke-width:8.50394;stroke-miterlimit:3.6;stroke-dasharray:none" transform="rotate(180 344.15 810.232)scale(1.33333)"/>
  <path d="M243.755 333.456v-131.14" style="fill:#39cccc;fill-opacity:.766511;stroke:#ff4136;stroke-width:8.50395;stroke-miterlimit:3.6;stroke-dasharray:none" transform="rotate(180 344.15 810.232)scale(1.33333)"/>
  <path d="m1439.791 594.88 103.842 103.934M858.998 13.588 962.194 116.87m480.701-3.577 99.057-99.144M860.492 696.2l98.815-98.902" style="fill:none;stroke:#ff851b;stroke-width:22.0939;stroke-linecap:butt;stroke-linejoin:miter;stroke-dasharray:none;stroke-opacity:1" transform="matrix(0 1 1 0 957.416 55.514)"/>
  <path d="M1170.405 706.405c-147.303-13.358-270.523-117.531-308.277-260.625-14.77-55.988-14.77-122.925 0-178.913 35.63-135.034 145.894-234.79 284.904-257.745 25.732-4.251 83.34-4.251 109.072 0 151.856 25.076 267.314 140.633 292.368 292.617 6.81 41.3 3.674 101.834-7.464 144.04-35.545 134.721-146.534 235.3-284.256 257.583-16.394 2.653-69.865 4.539-86.35 3.043m82.452-21.072c194.18-32.035 318.299-219.487 271.277-409.702-32.044-129.615-138.388-226.756-271.925-248.388-25.394-4.115-77.322-4.118-101.93-.01-144.702 24.162-254.226 133.902-277.477 278.031-3.931 24.37-4.222 74.784-.57 98.493 23.884 155.02 147.03 270.996 302.067 284.472 15.57 1.355 63.507-.413 78.558-2.9" style="display:inline;fill:#616161ddd;fill-opacity:1;stroke:none;stroke-width:1.29904;stroke-opacity:1" transform="matrix(0 1 1 0 957.416 55.514)"/>
  <path d="M1100.376 255.262h202.346M1214.341 455.778V255.262M1188.756 280.926v174.852" style="fill:#39cccc;fill-opacity:.766511;stroke:#ff4136;stroke-width:11.3386;stroke-miterlimit:3.6;stroke-dasharray:none" transform="matrix(0 1 1 0 957.416 55.514)"/>
  <path d="m2434.066 603.464 103.842 103.933M1853.272 22.171l103.196 103.284m480.702-3.578 99.057-99.143m-681.461 682.049 98.816-98.901" style="fill:none;stroke:#ff851b;stroke-width:22.0939;stroke-linecap:butt;stroke-linejoin:miter;stroke-dasharray:none;stroke-opacity:1" transform="matrix(1 0 0 -1 81.22 1630.589)"/>
  <g style="display:inline">
    <path d="M95.987 238.496c-40.02-3.626-73.497-31.904-83.754-70.747-4.013-15.198-4.013-33.368 0-48.566 9.68-36.655 39.637-63.734 77.404-69.965 6.991-1.154 22.642-1.154 29.633 0 41.257 6.807 72.625 38.175 79.432 79.431 1.85 11.211.998 27.643-2.028 39.1-9.657 36.57-39.811 63.872-77.228 69.921-4.454.72-18.981 1.232-23.46.826m22.401-5.72c52.756-8.696 86.477-59.58 73.702-111.214-8.706-35.184-37.598-61.553-73.878-67.425-6.899-1.117-21.007-1.118-27.693-.003-39.313 6.559-69.069 36.348-75.386 75.472-1.068 6.615-1.147 20.3-.155 26.736 6.489 42.08 39.946 73.562 82.067 77.22 4.23.368 17.254-.112 21.343-.787" style="display:inline;fill:#616161ddd;fill-opacity:1;stroke:none;stroke-width:.352778;stroke-opacity:1" transform="matrix(3.68074 0 0 -3.68391 1892.595 1794.198)"/>
  </g>
  <path d="M2094.65 263.845h202.347M2208.616 464.362V263.845M2183.03 289.51v174.852" style="fill:#39cccc;fill-opacity:.766511;stroke:#ff4136;stroke-width:11.3386;stroke-miterlimit:3.6;stroke-dasharray:none" transform="matrix(1 0 0 -1 81.22 1630.589)"/>
  <path d="M3478.558 612.685 3582.4 716.618M2897.765 31.392l103.196 103.283m480.701-3.577 99.057-99.144m-681.46 682.05 98.815-98.902" style="fill:none;stroke:#ff851b;stroke-width:22.0939;stroke-linecap:butt;stroke-linejoin:miter;stroke-dasharray:none;stroke-opacity:1" transform="matrix(0 -1 -1 0 3614.477 4515.187)"/>
  <g style="display:inline">
    <path d="M95.987 238.496c-40.02-3.626-73.497-31.904-83.754-70.747-4.013-15.198-4.013-33.368 0-48.566 9.68-36.655 39.637-63.734 77.404-69.965 6.991-1.154 22.642-1.154 29.633 0 41.257 6.807 72.625 38.175 79.432 79.431 1.85 11.211.998 27.643-2.028 39.1-9.657 36.57-39.811 63.872-77.228 69.921-4.454.72-18.981 1.232-23.46.826m22.401-5.72c52.756-8.696 86.477-59.58 73.702-111.214-8.706-35.184-37.598-61.553-73.878-67.425-6.899-1.117-21.007-1.118-27.693-.003-39.313 6.559-69.069 36.348-75.386 75.472-1.068 6.615-1.147 20.3-.155 26.736 6.489 42.08 39.946 73.562 82.067 77.22 4.23.368 17.254-.112 21.343-.787" style="display:inline;fill:#616161ddd;fill-opacity:1;stroke:none;stroke-width:.352778;stroke-opacity:1" transform="matrix(0 -3.68074 -3.68391 0 3768.866 1659.318)"/>
  </g>
  <path d="M3139.143 273.066h202.346M3253.108 473.582V273.066M3227.523 298.73v174.852" style="fill:#39cccc;fill-opacity:.766511;stroke:#ff4136;stroke-width:11.3386;stroke-miterlimit:3.6;stroke-dasharray:none" transform="matrix(0 -1 -1 0 3614.477 4515.187)"/>
</svg>
