<?xml version="1.0" encoding="UTF-8" standalone="no"?>
<svg
   xml:space="preserve"
   viewBox="0 0 732.38165 545.73948"
   version="1.1"
   id="svg5"
   sodipodi:docname="fig-6starstar_orderd.svg"
   inkscape:version="1.4.2 (ebf0e940d0, 2025-05-08)"
   width="732.38165"
   height="545.7395"
   xmlns:inkscape="http://www.inkscape.org/namespaces/inkscape"
   xmlns:sodipodi="http://sodipodi.sourceforge.net/DTD/sodipodi-0.dtd"
   xmlns="http://www.w3.org/2000/svg"
   xmlns:svg="http://www.w3.org/2000/svg">
  <defs
   id="defs5" />
  <sodipodi:namedview
   id="namedview5"
   pagecolor="#ffffff"
   bordercolor="#000000"
   borderopacity="0.25"
   inkscape:showpageshadow="2"
   inkscape:pageopacity="0.0"
   inkscape:pagecheckerboard="0"
   inkscape:deskcolor="#d1d1d1"
   inkscape:zoom="2.1331057"
   inkscape:cx="337.53601"
   inkscape:cy="181.66001"
   inkscape:window-width="2234"
   inkscape:window-height="1418"
   inkscape:window-x="0"
   inkscape:window-y="0"
   inkscape:window-maximized="1"
   inkscape:current-layer="svg5" />
  <path
   d="m 327.42977,120.05791 c 31.0746,-55.618056 98.6436,-60.871471 133.18858,-8.98732 M 422.51708,385.0793 c 31.0746,55.61805 97.56343,52.01394 132.10841,0.12986 m -357.51096,4.32076 c 31.0746,55.61805 98.21153,45.31676 132.7565,-6.56739"
   style="fill:none;stroke:#616161;stroke-width:11.1128;stroke-linecap:butt;stroke-linejoin:miter;stroke-dasharray:none;stroke-opacity:1"
   id="path1"
   sodipodi:nodetypes="cccccc" />
  <path
   d="M 116.39106,385.04774 C 15.08029,537.2298 748.88813,536.90182 640.9192,387.67576 M 26.93925,115.54293 c -101.31712,-152.182067 627.09297,-142.993355 519.12721,6.2327"
   style="fill:none;stroke:#616161;stroke-width:11.1128;stroke-linecap:butt;stroke-linejoin:miter;stroke-dasharray:none;stroke-opacity:1"
   id="path2"
   sodipodi:nodetypes="cccc" />
  <path
   d="M 41.12873,216.00912 C -75.50821,450.69272 247.58578,573.82589 465.05404,532.11156 664.74498,493.81045 755.87006,414.13791 718.73103,333.98594 711.13622,317.58978 677.32786,301.04756 654.44181,317.89776 M 108.59632,109.57224 c 31.0746,-55.618057 102.2808,-50.012213 136.82578,1.87193"
   style="fill:none;stroke:#616161;stroke-width:11.1128;stroke-linecap:butt;stroke-linejoin:miter;stroke-dasharray:none;stroke-opacity:1"
   id="path3"
   sodipodi:nodetypes="cccccc" />
  <path
   d="m 103.04163,211.93761 c -14.0974,54.05908 32.30671,1.05613 40.37461,68.32041 m 180.94902,-74.42287 c -14.09104,54.05908 30.1512,9.80249 38.21593,77.06994 M 245.47526,208.73388 c 8.6426,70.41397 -53.81263,18.72903 -52.53624,82.10065 M 460.5523,209.84497 c 8.6426,70.41397 -52.73243,17.00073 -51.45287,80.36918 m 130.67915,-85.27873 c -14.09423,54.05909 31.22822,8.93836 39.29612,76.20582"
   style="fill:none;stroke:#616161;stroke-width:11.1128;stroke-linecap:butt;stroke-linejoin:miter;stroke-dasharray:none;stroke-opacity:1"
   id="path4"
   sodipodi:nodetypes="cccccccccc" />
  <path
   style="fill:none;stroke:#ff4136;stroke-width:13.4342;stroke-linecap:round;stroke-linejoin:round;stroke-dashoffset:130.744;paint-order:stroke markers fill"
   d="m 559.69395,158.88608 a 63.5018,63.5018 0 0 1 -63.5018,63.5018 63.5018,63.5018 0 0 1 -63.5018,-63.5018 63.5018,63.5018 0 0 1 63.5018,-63.501798 63.5018,63.5018 0 0 1 63.5018,63.501798"
   id="path10" /><path
   style="fill:none;stroke:#ff4136;stroke-width:13.4342;stroke-linecap:round;stroke-linejoin:round;stroke-dashoffset:130.744;paint-order:stroke markers fill"
   d="M 133.7207,158.88608 A 63.5018,63.5018 0 0 1 70.2189,222.38788 63.5018,63.5018 0 0 1 6.7171001,158.88608 63.5018,63.5018 0 0 1 70.2189,95.384282 63.5018,63.5018 0 0 1 133.7207,158.88608"
   id="path9" /><path
   style="fill:none;stroke:#ff4136;stroke-width:13.4342;stroke-linecap:round;stroke-linejoin:round;stroke-dashoffset:130.744;paint-order:stroke markers fill"
   d="m 217.82566,341.89192 a 63.5018,63.5018 0 0 1 -63.5018,63.5018 63.5018,63.5018 0 0 1 -63.5018,-63.5018 63.5018,63.5018 0 0 1 63.5018,-63.5018 63.5018,63.5018 0 0 1 63.5018,63.5018"
   id="path8" /><g
   id="svg5-1"
   transform="translate(90.82345,183.00787)"><text
     xml:space="preserve"
     style="font-size:115.155px;font-family:'Roboto Condensed';-inkscape-font-specification:'Roboto Condensed, ';text-align:start;writing-mode:lr-tb;direction:ltr;text-anchor:start;fill:#616161;stroke-width:2.69135;stroke-linejoin:round;paint-order:stroke fill markers"
     x="35.105255"
     y="199.81805"
     id="text1-27"><tspan
       sodipodi:role="line"
       id="tspan1-0"
       x="35.105255"
       y="199.81805"
       style="stroke-width:2.69135">3</tspan></text></g><path
   style="fill:none;stroke:#ff4136;stroke-width:13.4342;stroke-linecap:round;stroke-linejoin:round;stroke-dashoffset:130.744;paint-order:stroke markers fill"
   d="m 440.15816,341.89192 a 63.5018,63.5018 0 0 1 -63.5018,63.5018 63.5018,63.5018 0 0 1 -63.5018,-63.5018 63.5018,63.5018 0 0 1 63.5018,-63.5018 63.5018,63.5018 0 0 1 63.5018,63.5018"
   id="path7" /><g
   id="svg5-9"
   transform="translate(313.15595,183.00787)"><text
     xml:space="preserve"
     style="font-size:115.155px;font-family:'Roboto Condensed';-inkscape-font-specification:'Roboto Condensed, ';text-align:start;writing-mode:lr-tb;direction:ltr;text-anchor:start;fill:#616161;stroke-width:2.69135;stroke-linejoin:round;paint-order:stroke fill markers"
     x="35.105255"
     y="199.81805"
     id="text1-36"><tspan
       sodipodi:role="line"
       id="tspan1-06"
       x="35.105255"
       y="199.81805"
       style="stroke-width:2.69135">4</tspan></text></g><path
   style="fill:none;stroke:#ff4136;stroke-width:13.4342;stroke-linecap:round;stroke-linejoin:round;stroke-dashoffset:130.744;paint-order:stroke markers fill"
   d="m 662.49066,341.89192 a 63.5018,63.5018 0 0 1 -63.5018,63.5018 63.5018,63.5018 0 0 1 -63.5018,-63.5018 63.5018,63.5018 0 0 1 63.5018,-63.5018 63.5018,63.5018 0 0 1 63.5018,63.5018"
   id="path6" /><path
   style="fill:none;stroke:#ff4136;stroke-width:13.4342;stroke-linecap:round;stroke-linejoin:round;stroke-dashoffset:130.744;paint-order:stroke markers fill"
   d="m 346.70891,158.88608 a 63.5018,63.5018 0 0 1 -63.5018,63.5018 63.5018,63.5018 0 0 1 -63.5018,-63.5018 63.5018,63.5018 0 0 1 63.5018,-63.501798 63.5018,63.5018 0 0 1 63.5018,63.501798"
   id="path5" />
<text
   xml:space="preserve"
   style="font-size:115.155px;font-family:'Roboto Condensed';-inkscape-font-specification:'Roboto Condensed, ';text-align:start;writing-mode:lr-tb;direction:ltr;text-anchor:start;fill:#616161;stroke-width:2.69135;stroke-linejoin:round;paint-order:stroke fill markers"
   x="41.823746"
   y="199.82008"
   id="text1"><tspan
     sodipodi:role="line"
     id="tspan1"
     x="41.823746"
     y="199.82008"
     style="stroke-width:2.69135">0</tspan></text><g
   id="svg5-3"
   transform="translate(219.7067,0.00203006)"><text
     xml:space="preserve"
     style="font-size:115.155px;font-family:'Roboto Condensed';-inkscape-font-specification:'Roboto Condensed, ';text-align:start;writing-mode:lr-tb;direction:ltr;text-anchor:start;fill:#616161;stroke-width:2.69135;stroke-linejoin:round;paint-order:stroke fill markers"
     x="35.105255"
     y="199.81805"
     id="text1-6"><tspan
       sodipodi:role="line"
       id="tspan1-7"
       x="35.105255"
       y="199.81805"
       style="stroke-width:2.69135">1</tspan></text></g><g
   id="svg5-5"
   transform="translate(535.48845,183.00787)"><text
     xml:space="preserve"
     style="font-size:115.155px;font-family:'Roboto Condensed';-inkscape-font-specification:'Roboto Condensed, ';text-align:start;writing-mode:lr-tb;direction:ltr;text-anchor:start;fill:#616161;stroke-width:2.69135;stroke-linejoin:round;paint-order:stroke fill markers"
     x="35.105255"
     y="199.81805"
     id="text1-3"><tspan
       sodipodi:role="line"
       id="tspan1-5"
       x="35.105255"
       y="199.81805"
       style="stroke-width:2.69135">5</tspan></text></g><g
   id="svg5-6"
   transform="translate(432.69174,0.00203006)"><text
     xml:space="preserve"
     style="font-size:115.155px;font-family:'Roboto Condensed';-inkscape-font-specification:'Roboto Condensed, ';text-align:start;writing-mode:lr-tb;direction:ltr;text-anchor:start;fill:#616161;stroke-width:2.69135;stroke-linejoin:round;paint-order:stroke fill markers"
     x="35.105255"
     y="199.81805"
     id="text1-2"><tspan
       sodipodi:role="line"
       id="tspan1-9"
       x="35.105255"
       y="199.81805"
       style="stroke-width:2.69135">2</tspan></text></g></svg>
