<?xml version="1.0" encoding="UTF-8" standalone="no"?>
<svg
   viewBox="0 0 3590.8937 1625.3694"
   version="1.1"
   id="svg5"
   sodipodi:docname="fig-tangle_flips.svg"
   inkscape:version="1.4.2 (ebf0e940d0, 2025-05-08)"
   width="3590.8936"
   height="1625.3695"
   xmlns:inkscape="http://www.inkscape.org/namespaces/inkscape"
   xmlns:sodipodi="http://sodipodi.sourceforge.net/DTD/sodipodi-0.dtd"
   xmlns="http://www.w3.org/2000/svg"
   xmlns:svg="http://www.w3.org/2000/svg">
  <defs
     id="defs5" />
  <sodipodi:namedview
     id="namedview5"
     pagecolor="#ffffff"
     bordercolor="#000000"
     borderopacity="0.25"
     inkscape:showpageshadow="2"
     inkscape:pageopacity="0.0"
     inkscape:pagecheckerboard="0"
     inkscape:deskcolor="#d1d1d1"
     inkscape:zoom="0.27200754"
     inkscape:cx="1869.4335"
     inkscape:cy="998.13411"
     inkscape:window-width="2234"
     inkscape:window-height="1418"
     inkscape:window-x="0"
     inkscape:window-y="0"
     inkscape:window-maximized="1"
     inkscape:current-layer="svg5" />
  <g
     id="g28"
     transform="translate(-0.00138521,-0.00205425)">
    <g
       id="g8">
      <path
         d="m 441.626,97.989 77.882,-77.95 M 6.03,533.96 83.427,456.497 m 360.527,2.683 74.293,74.358 M 7.15,22 81.262,96.176"
         class="stroke-orange fill-orange"
         style="fill:none;stroke:#ff851b;stroke-width:16.5705;stroke-linecap:butt;stroke-linejoin:miter;stroke-dasharray:none;stroke-opacity:1"
         id="path1"
         transform="matrix(1.33333,0,0,-1.33333,-0.091,719.755)" />
      <g
         style="display:inline"
         id="g2">
        <path
           d="M 95.987,238.496 C 55.967,234.87 22.49,206.592 12.233,167.749 8.22,152.551 8.22,134.381 12.233,119.183 21.913,82.528 51.87,55.449 89.637,49.218 c 6.991,-1.154 22.642,-1.154 29.633,0 41.257,6.807 72.625,38.175 79.432,79.431 1.85,11.211 0.998,27.643 -2.028,39.1 -9.657,36.57 -39.811,63.872 -77.228,69.921 -4.454,0.72 -18.981,1.232 -23.46,0.826 m 22.401,-5.72 c 52.756,-8.696 86.477,-59.58 73.702,-111.214 C 183.383,86.378 154.491,60.009 118.211,54.137 111.312,53.02 97.204,53.019 90.518,54.134 51.205,60.693 21.449,90.482 15.132,129.606 c -1.068,6.615 -1.147,20.3 -0.155,26.736 6.489,42.08 39.946,73.562 82.067,77.22 4.23,0.368 17.254,-0.112 21.343,-0.787"
           class="stroke-selection fill-selection"
           style="display:inline;fill:#dddddd;fill-opacity:1;stroke:none;stroke-width:0.352778;stroke-opacity:1"
           transform="matrix(3.68074,0,0,3.68391,-33.947,-177.97)"
           id="path2" />
      </g>
      <path
         d="m 187.064,352.704 h 151.76"
         class="stroke-teal fill-teal"
         style="fill:#39cccc;fill-opacity:0.766511;stroke:#ff4136;stroke-width:8.50394;stroke-miterlimit:3.6;stroke-dasharray:none"
         id="path3"
         transform="matrix(1.33333,0,0,-1.33333,-0.091,719.755)" />
      <path
         d="M 262.944,202.316 V 352.704"
         class="stroke-teal fill-teal"
         style="fill:#39cccc;fill-opacity:0.766511;stroke:#ff4136;stroke-width:8.50394;stroke-miterlimit:3.6;stroke-dasharray:none"
         id="path4"
         transform="matrix(1.33333,0,0,-1.33333,12.701,719.755)" />
      <path
         d="M 243.755,333.456 V 202.316"
         class="stroke-teal fill-teal"
         style="fill:#39cccc;fill-opacity:0.766511;stroke:#ff4136;stroke-width:8.50395;stroke-miterlimit:3.6;stroke-dasharray:none"
         id="path5"
         transform="matrix(1.33333,0,0,-1.33333,12.701,719.755)" />
    </g>
    <g
       id="g7"
       transform="rotate(90,1257.6622,412.46828)">
      <path
         d="m 1439.7911,594.88074 103.8424,103.93307 M 858.99785,13.587523 962.19359,116.87126 m 480.70151,-3.57732 99.057,-99.143752 M 860.49118,696.19915 959.30693,597.29806"
         class="stroke-orange fill-orange"
         style="fill:none;stroke:#ff851b;stroke-width:22.0939;stroke-linecap:butt;stroke-linejoin:miter;stroke-dasharray:none;stroke-opacity:1"
         id="path1-2" />
      <path
         d="M 1170.4051,706.40521 C 1023.1018,693.04735 899.88171,588.87374 862.12836,445.77963 c -14.77081,-55.98807 -14.77081,-122.92471 0,-178.91277 C 897.75793,131.83313 1008.0219,32.076536 1147.0324,9.1220924 c 25.732,-4.2512322 83.3393,-4.2512322 109.0713,0 151.8563,25.0763756 267.3138,140.6332676 292.3686,292.6166576 6.8093,41.30031 3.6733,101.83432 -7.4646,144.04088 -35.5449,134.72059 -146.5339,235.2987 -284.2562,257.58267 -16.394,2.65241 -69.8641,4.53858 -86.3501,3.04291 m 82.4522,-21.07197 C 1447.0348,653.29796 1571.153,465.84589 1524.1315,275.63088 1492.087,146.01619 1385.7431,48.875165 1252.2058,27.243246 1226.8124,23.128318 1174.8845,23.124634 1150.2751,27.232194 1005.5742,51.39496 896.05006,161.13495 872.79883,305.26425 c -3.93103,24.36906 -4.22181,74.78337 -0.57052,98.49302 23.88432,155.01893 147.03089,270.99578 302.06729,284.47153 15.5695,1.35568 63.5075,-0.4126 78.558,-2.89924"
         class="stroke-selection fill-selection"
         style="display:inline;fill:#dddddd;fill-opacity:1;stroke:none;stroke-width:1.29904;stroke-opacity:1"
         id="path2-7" />
      <path
         d="m 1100.3759,255.26159 h 202.3462"
         class="stroke-teal fill-teal"
         style="fill:#39cccc;fill-opacity:0.766511;stroke:#ff4136;stroke-width:11.3386;stroke-miterlimit:3.6;stroke-dasharray:none"
         id="path3-5" />
      <path
         d="M 1214.341,455.77842 V 255.26159"
         class="stroke-teal fill-teal"
         style="fill:#39cccc;fill-opacity:0.766511;stroke:#ff4136;stroke-width:11.3386;stroke-miterlimit:3.6;stroke-dasharray:none"
         id="path4-9" />
      <path
         d="m 1188.7557,280.92552 v 174.8529"
         class="stroke-teal fill-teal"
         style="fill:#39cccc;fill-opacity:0.766511;stroke:#ff4136;stroke-width:11.3386;stroke-miterlimit:3.6;stroke-dasharray:none"
         id="path5-2" />
    </g>
    <g
       id="g5"
       transform="rotate(180,2236.4354,364.9403)">
      <path
         d="M 2434.0656,603.46427 2537.908,707.39734 M 1853.2724,22.171053 1956.4681,125.45479 m 480.7015,-3.57732 99.0571,-99.143752 m -681.461,682.048962 98.8158,-98.90109"
         class="stroke-orange fill-orange"
         style="fill:none;stroke:#ff851b;stroke-width:22.0939;stroke-linecap:butt;stroke-linejoin:miter;stroke-dasharray:none;stroke-opacity:1"
         id="path1-2-9" />
      <g
         style="display:inline"
         id="g2-3-7"
         transform="translate(1845.3234,14.360943)">
        <path
           d="M 95.987,238.496 C 55.967,234.87 22.49,206.592 12.233,167.749 8.22,152.551 8.22,134.381 12.233,119.183 21.913,82.528 51.87,55.449 89.637,49.218 c 6.991,-1.154 22.642,-1.154 29.633,0 41.257,6.807 72.625,38.175 79.432,79.431 1.85,11.211 0.998,27.643 -2.028,39.1 -9.657,36.57 -39.811,63.872 -77.228,69.921 -4.454,0.72 -18.981,1.232 -23.46,0.826 m 22.401,-5.72 c 52.756,-8.696 86.477,-59.58 73.702,-111.214 C 183.383,86.378 154.491,60.009 118.211,54.137 111.312,53.02 97.204,53.019 90.518,54.134 51.205,60.693 21.449,90.482 15.132,129.606 c -1.068,6.615 -1.147,20.3 -0.155,26.736 6.489,42.08 39.946,73.562 82.067,77.22 4.23,0.368 17.254,-0.112 21.343,-0.787"
           class="stroke-selection fill-selection"
           style="display:inline;fill:#dddddd;fill-opacity:1;stroke:none;stroke-width:0.352778;stroke-opacity:1"
           transform="matrix(3.68074,0,0,3.68391,-33.947,-177.97)"
           id="path2-7-3" />
      </g>
      <path
         d="m 2094.6504,263.84512 h 202.3462"
         class="stroke-teal fill-teal"
         style="fill:#39cccc;fill-opacity:0.766511;stroke:#ff4136;stroke-width:11.3386;stroke-miterlimit:3.6;stroke-dasharray:none"
         id="path3-5-6" />
      <path
         d="M 2208.6155,464.36195 V 263.84512"
         class="stroke-teal fill-teal"
         style="fill:#39cccc;fill-opacity:0.766511;stroke:#ff4136;stroke-width:11.3386;stroke-miterlimit:3.6;stroke-dasharray:none"
         id="path4-9-1" />
      <path
         d="m 2183.0303,289.50905 v 174.8529"
         class="stroke-teal fill-teal"
         style="fill:#39cccc;fill-opacity:0.766511;stroke:#ff4136;stroke-width:11.3386;stroke-miterlimit:3.6;stroke-dasharray:none"
         id="path5-2-2" />
    </g>
    <g
       id="g6"
       transform="rotate(-90,3240.3176,374.16083)">
      <path
         d="m 3478.558,612.68481 103.8424,103.93307 M 2897.7648,31.391588 3000.9605,134.67533 m 480.7015,-3.57732 99.0571,-99.143757 m -681.461,682.048967 98.8158,-98.90109"
         class="stroke-orange fill-orange"
         style="fill:none;stroke:#ff851b;stroke-width:22.0939;stroke-linecap:butt;stroke-linejoin:miter;stroke-dasharray:none;stroke-opacity:1"
         id="path1-2-9-9" />
      <g
         style="display:inline"
         id="g2-3-7-4"
         transform="translate(2889.8158,23.581478)">
        <path
           d="M 95.987,238.496 C 55.967,234.87 22.49,206.592 12.233,167.749 8.22,152.551 8.22,134.381 12.233,119.183 21.913,82.528 51.87,55.449 89.637,49.218 c 6.991,-1.154 22.642,-1.154 29.633,0 41.257,6.807 72.625,38.175 79.432,79.431 1.85,11.211 0.998,27.643 -2.028,39.1 -9.657,36.57 -39.811,63.872 -77.228,69.921 -4.454,0.72 -18.981,1.232 -23.46,0.826 m 22.401,-5.72 c 52.756,-8.696 86.477,-59.58 73.702,-111.214 C 183.383,86.378 154.491,60.009 118.211,54.137 111.312,53.02 97.204,53.019 90.518,54.134 51.205,60.693 21.449,90.482 15.132,129.606 c -1.068,6.615 -1.147,20.3 -0.155,26.736 6.489,42.08 39.946,73.562 82.067,77.22 4.23,0.368 17.254,-0.112 21.343,-0.787"
           class="stroke-selection fill-selection"
           style="display:inline;fill:#dddddd;fill-opacity:1;stroke:none;stroke-width:0.352778;stroke-opacity:1"
           transform="matrix(3.68074,0,0,3.68391,-33.947,-177.97)"
           id="path2-7-3-7" />
      </g>
      <path
         d="M 3139.1428,273.06566 H 3341.489"
         class="stroke-teal fill-teal"
         style="fill:#39cccc;fill-opacity:0.766511;stroke:#ff4136;stroke-width:11.3386;stroke-miterlimit:3.6;stroke-dasharray:none"
         id="path3-5-6-8" />
      <path
         d="M 3253.1079,473.58249 V 273.06566"
         class="stroke-teal fill-teal"
         style="fill:#39cccc;fill-opacity:0.766511;stroke:#ff4136;stroke-width:11.3386;stroke-miterlimit:3.6;stroke-dasharray:none"
         id="path4-9-1-4" />
      <path
         d="m 3227.5227,298.72959 v 174.8529"
         class="stroke-teal fill-teal"
         style="fill:#39cccc;fill-opacity:0.766511;stroke:#ff4136;stroke-width:11.3386;stroke-miterlimit:3.6;stroke-dasharray:none"
         id="path5-2-2-5" />
    </g>
  </g>
  <g
     id="g30"
     transform="translate(14.704099,-0.00205425)">
    <g
       id="g12"
       transform="matrix(-1,0,0,1,686.29815,900.71034)">
      <path
         d="m 441.626,97.989 77.882,-77.95 M 6.03,533.96 83.427,456.497 m 360.527,2.683 74.293,74.358 M 7.15,22 81.262,96.176"
         class="stroke-orange fill-orange"
         style="fill:none;stroke:#ff851b;stroke-width:16.5705;stroke-linecap:butt;stroke-linejoin:miter;stroke-dasharray:none;stroke-opacity:1"
         id="path8"
         transform="matrix(1.33333,0,0,-1.33333,-0.091,719.755)" />
      <g
         style="display:inline"
         id="g9">
        <path
           d="M 95.987,238.496 C 55.967,234.87 22.49,206.592 12.233,167.749 8.22,152.551 8.22,134.381 12.233,119.183 21.913,82.528 51.87,55.449 89.637,49.218 c 6.991,-1.154 22.642,-1.154 29.633,0 41.257,6.807 72.625,38.175 79.432,79.431 1.85,11.211 0.998,27.643 -2.028,39.1 -9.657,36.57 -39.811,63.872 -77.228,69.921 -4.454,0.72 -18.981,1.232 -23.46,0.826 m 22.401,-5.72 c 52.756,-8.696 86.477,-59.58 73.702,-111.214 C 183.383,86.378 154.491,60.009 118.211,54.137 111.312,53.02 97.204,53.019 90.518,54.134 51.205,60.693 21.449,90.482 15.132,129.606 c -1.068,6.615 -1.147,20.3 -0.155,26.736 6.489,42.08 39.946,73.562 82.067,77.22 4.23,0.368 17.254,-0.112 21.343,-0.787"
           class="stroke-selection fill-selection"
           style="display:inline;fill:#dddddd;fill-opacity:1;stroke:none;stroke-width:0.352778;stroke-opacity:1"
           transform="matrix(3.68074,0,0,3.68391,-33.947,-177.97)"
           id="path9" />
      </g>
      <path
         d="m 187.064,352.704 h 151.76"
         class="stroke-teal fill-teal"
         style="fill:#39cccc;fill-opacity:0.766511;stroke:#ff4136;stroke-width:8.50394;stroke-miterlimit:3.6;stroke-dasharray:none"
         id="path10"
         transform="matrix(1.33333,0,0,-1.33333,-0.091,719.755)" />
      <path
         d="M 262.944,202.316 V 352.704"
         class="stroke-teal fill-teal"
         style="fill:#39cccc;fill-opacity:0.766511;stroke:#ff4136;stroke-width:8.50394;stroke-miterlimit:3.6;stroke-dasharray:none"
         id="path11"
         transform="matrix(1.33333,0,0,-1.33333,12.701,719.755)" />
      <path
         d="M 243.755,333.456 V 202.316"
         class="stroke-teal fill-teal"
         style="fill:#39cccc;fill-opacity:0.766511;stroke:#ff4136;stroke-width:8.50395;stroke-miterlimit:3.6;stroke-dasharray:none"
         id="path12"
         transform="matrix(1.33333,0,0,-1.33333,12.701,719.755)" />
    </g>
    <g
       id="g17"
       transform="matrix(0,1,1,0,942.71151,55.51642)">
      <path
         d="m 1439.7911,594.88074 103.8424,103.93307 M 858.99785,13.587523 962.19359,116.87126 m 480.70151,-3.57732 99.057,-99.143752 M 860.49118,696.19915 959.30693,597.29806"
         class="stroke-orange fill-orange"
         style="fill:none;stroke:#ff851b;stroke-width:22.0939;stroke-linecap:butt;stroke-linejoin:miter;stroke-dasharray:none;stroke-opacity:1"
         id="path13" />
      <path
         d="M 1170.4051,706.40521 C 1023.1018,693.04735 899.88171,588.87374 862.12836,445.77963 c -14.77081,-55.98807 -14.77081,-122.92471 0,-178.91277 C 897.75793,131.83313 1008.0219,32.076536 1147.0324,9.1220924 c 25.732,-4.2512322 83.3393,-4.2512322 109.0713,0 151.8563,25.0763756 267.3138,140.6332676 292.3686,292.6166576 6.8093,41.30031 3.6733,101.83432 -7.4646,144.04088 -35.5449,134.72059 -146.5339,235.2987 -284.2562,257.58267 -16.394,2.65241 -69.8641,4.53858 -86.3501,3.04291 m 82.4522,-21.07197 C 1447.0348,653.29796 1571.153,465.84589 1524.1315,275.63088 1492.087,146.01619 1385.7431,48.875165 1252.2058,27.243246 1226.8124,23.128318 1174.8845,23.124634 1150.2751,27.232194 1005.5742,51.39496 896.05006,161.13495 872.79883,305.26425 c -3.93103,24.36906 -4.22181,74.78337 -0.57052,98.49302 23.88432,155.01893 147.03089,270.99578 302.06729,284.47153 15.5695,1.35568 63.5075,-0.4126 78.558,-2.89924"
         class="stroke-selection fill-selection"
         style="display:inline;fill:#dddddd;fill-opacity:1;stroke:none;stroke-width:1.29904;stroke-opacity:1"
         id="path14" />
      <path
         d="m 1100.3759,255.26159 h 202.3462"
         class="stroke-teal fill-teal"
         style="fill:#39cccc;fill-opacity:0.766511;stroke:#ff4136;stroke-width:11.3386;stroke-miterlimit:3.6;stroke-dasharray:none"
         id="path15" />
      <path
         d="M 1214.341,455.77842 V 255.26159"
         class="stroke-teal fill-teal"
         style="fill:#39cccc;fill-opacity:0.766511;stroke:#ff4136;stroke-width:11.3386;stroke-miterlimit:3.6;stroke-dasharray:none"
         id="path16" />
      <path
         d="m 1188.7557,280.92552 v 174.8529"
         class="stroke-teal fill-teal"
         style="fill:#39cccc;fill-opacity:0.766511;stroke:#ff4136;stroke-width:11.3386;stroke-miterlimit:3.6;stroke-dasharray:none"
         id="path17" />
    </g>
    <g
       id="g22"
       transform="matrix(1,0,0,-1,66.514978,1630.5909)">
      <path
         d="M 2434.0656,603.46427 2537.908,707.39734 M 1853.2724,22.171053 1956.4681,125.45479 m 480.7015,-3.57732 99.0571,-99.143752 m -681.461,682.048962 98.8158,-98.90109"
         class="stroke-orange fill-orange"
         style="fill:none;stroke:#ff851b;stroke-width:22.0939;stroke-linecap:butt;stroke-linejoin:miter;stroke-dasharray:none;stroke-opacity:1"
         id="path18" />
      <g
         style="display:inline"
         id="g19"
         transform="translate(1845.3234,14.360943)">
        <path
           d="M 95.987,238.496 C 55.967,234.87 22.49,206.592 12.233,167.749 8.22,152.551 8.22,134.381 12.233,119.183 21.913,82.528 51.87,55.449 89.637,49.218 c 6.991,-1.154 22.642,-1.154 29.633,0 41.257,6.807 72.625,38.175 79.432,79.431 1.85,11.211 0.998,27.643 -2.028,39.1 -9.657,36.57 -39.811,63.872 -77.228,69.921 -4.454,0.72 -18.981,1.232 -23.46,0.826 m 22.401,-5.72 c 52.756,-8.696 86.477,-59.58 73.702,-111.214 C 183.383,86.378 154.491,60.009 118.211,54.137 111.312,53.02 97.204,53.019 90.518,54.134 51.205,60.693 21.449,90.482 15.132,129.606 c -1.068,6.615 -1.147,20.3 -0.155,26.736 6.489,42.08 39.946,73.562 82.067,77.22 4.23,0.368 17.254,-0.112 21.343,-0.787"
           class="stroke-selection fill-selection"
           style="display:inline;fill:#dddddd;fill-opacity:1;stroke:none;stroke-width:0.352778;stroke-opacity:1"
           transform="matrix(3.68074,0,0,3.68391,-33.947,-177.97)"
           id="path19" />
      </g>
      <path
         d="m 2094.6504,263.84512 h 202.3462"
         class="stroke-teal fill-teal"
         style="fill:#39cccc;fill-opacity:0.766511;stroke:#ff4136;stroke-width:11.3386;stroke-miterlimit:3.6;stroke-dasharray:none"
         id="path20" />
      <path
         d="M 2208.6155,464.36195 V 263.84512"
         class="stroke-teal fill-teal"
         style="fill:#39cccc;fill-opacity:0.766511;stroke:#ff4136;stroke-width:11.3386;stroke-miterlimit:3.6;stroke-dasharray:none"
         id="path21" />
      <path
         d="m 2183.0303,289.50905 v 174.8529"
         class="stroke-teal fill-teal"
         style="fill:#39cccc;fill-opacity:0.766511;stroke:#ff4136;stroke-width:11.3386;stroke-miterlimit:3.6;stroke-dasharray:none"
         id="path22" />
    </g>
    <g
       id="g27"
       transform="matrix(0,-1,-1,0,3599.7729,4515.1887)">
      <path
         d="m 3478.558,612.68481 103.8424,103.93307 M 2897.7648,31.391588 3000.9605,134.67533 m 480.7015,-3.57732 99.0571,-99.143757 m -681.461,682.048967 98.8158,-98.90109"
         class="stroke-orange fill-orange"
         style="fill:none;stroke:#ff851b;stroke-width:22.0939;stroke-linecap:butt;stroke-linejoin:miter;stroke-dasharray:none;stroke-opacity:1"
         id="path23" />
      <g
         style="display:inline"
         id="g24"
         transform="translate(2889.8158,23.581478)">
        <path
           d="M 95.987,238.496 C 55.967,234.87 22.49,206.592 12.233,167.749 8.22,152.551 8.22,134.381 12.233,119.183 21.913,82.528 51.87,55.449 89.637,49.218 c 6.991,-1.154 22.642,-1.154 29.633,0 41.257,6.807 72.625,38.175 79.432,79.431 1.85,11.211 0.998,27.643 -2.028,39.1 -9.657,36.57 -39.811,63.872 -77.228,69.921 -4.454,0.72 -18.981,1.232 -23.46,0.826 m 22.401,-5.72 c 52.756,-8.696 86.477,-59.58 73.702,-111.214 C 183.383,86.378 154.491,60.009 118.211,54.137 111.312,53.02 97.204,53.019 90.518,54.134 51.205,60.693 21.449,90.482 15.132,129.606 c -1.068,6.615 -1.147,20.3 -0.155,26.736 6.489,42.08 39.946,73.562 82.067,77.22 4.23,0.368 17.254,-0.112 21.343,-0.787"
           class="stroke-selection fill-selection"
           style="display:inline;fill:#dddddd;fill-opacity:1;stroke:none;stroke-width:0.352778;stroke-opacity:1"
           transform="matrix(3.68074,0,0,3.68391,-33.947,-177.97)"
           id="path24" />
      </g>
      <path
         d="M 3139.1428,273.06566 H 3341.489"
         class="stroke-teal fill-teal"
         style="fill:#39cccc;fill-opacity:0.766511;stroke:#ff4136;stroke-width:11.3386;stroke-miterlimit:3.6;stroke-dasharray:none"
         id="path25" />
      <path
         d="M 3253.1079,473.58249 V 273.06566"
         class="stroke-teal fill-teal"
         style="fill:#39cccc;fill-opacity:0.766511;stroke:#ff4136;stroke-width:11.3386;stroke-miterlimit:3.6;stroke-dasharray:none"
         id="path26" />
      <path
         d="m 3227.5227,298.72959 v 174.8529"
         class="stroke-teal fill-teal"
         style="fill:#39cccc;fill-opacity:0.766511;stroke:#ff4136;stroke-width:11.3386;stroke-miterlimit:3.6;stroke-dasharray:none"
         id="path27" />
    </g>
  </g>
</svg>
