<?xml version="1.0" encoding="UTF-8" standalone="no"?>
<svg
   xml:space="preserve"
   viewBox="0 0 1475.28 1088.949"
   version="1.1"
   id="svg3"
   sodipodi:docname="fig-closure-den.svg"
   inkscape:version="1.4.2 (ebf0e940d0, 2025-05-08)"
   xmlns:inkscape="http://www.inkscape.org/namespaces/inkscape"
   xmlns:sodipodi="http://sodipodi.sourceforge.net/DTD/sodipodi-0.dtd"
   xmlns="http://www.w3.org/2000/svg"
   xmlns:svg="http://www.w3.org/2000/svg"><defs
   id="defs3" /><sodipodi:namedview
   id="namedview3"
   pagecolor="#ffffff"
   bordercolor="#000000"
   borderopacity="0.25"
   inkscape:showpageshadow="2"
   inkscape:pageopacity="0.0"
   inkscape:pagecheckerboard="0"
   inkscape:deskcolor="#d1d1d1"
   inkscape:zoom="0.06037468"
   inkscape:cx="-4621.1425"
   inkscape:cy="-455.48896"
   inkscape:window-width="2234"
   inkscape:window-height="1418"
   inkscape:window-x="0"
   inkscape:window-y="0"
   inkscape:window-maximized="1"
   inkscape:current-layer="svg3" />
  <path
   d="m1327.796 367.06 148.237-148.134c311.552-312.008 311.552 1287.992-3.73 974.524l-141.06-140.964m-690.32-689.854L499.517 221.324c-311.931-314.406-311.931 1285.594-.802 974.256l147.31-147.212"
   style="fill:none;stroke:#ff851b;stroke-width:31.5148;stroke-linecap:butt;stroke-linejoin:miter;stroke-dasharray:none;stroke-opacity:1"
   transform="translate(-249.71 -162.696)"
   id="path1" />
  <g
   style="display:inline;fill:#616161"
   id="g2">
    <path
   d="M95.987 238.496c-40.02-3.626-73.497-31.904-83.754-70.747-4.013-15.198-4.013-33.368 0-48.566 9.68-36.655 39.637-63.734 77.404-69.965 6.991-1.154 22.642-1.154 29.633 0 41.257 6.807 72.625 38.175 79.432 79.431 1.85 11.211.998 27.643-2.028 39.1-9.657 36.57-39.811 63.872-77.228 69.921-4.454.72-18.981 1.232-23.46.826m22.401-5.72c52.756-8.696 86.477-59.58 73.702-111.214-8.706-35.184-37.598-61.553-73.878-67.425-6.899-1.117-21.007-1.118-27.693-.003-39.313 6.559-69.069 36.348-75.386 75.472-1.068 6.615-1.147 20.3-.155 26.736 6.489 42.08 39.946 73.562 82.067 77.22 4.23.368 17.254-.112 21.343-.787"
   style="display:inline;fill:#616161;fill-opacity:1;stroke:none;stroke-width:.352778;stroke-opacity:1"
   transform="matrix(0 -5.2507 5.25425 0 -15.968 1092.65)"
   id="path2" />
  </g>
  <path
   d="M843.275 563.228h288.653M1005.85 849.219V563.228M969.352 599.831V849.22"
   style="fill:#616161;fill-opacity:.766511;stroke:#ff4136;stroke-width:16.1733;stroke-miterlimit:3.6;stroke-dasharray:none"
   transform="translate(-249.71 -162.696)"
   id="path3" />
  
</svg>
