<svg xmlns="http://www.w3.org/2000/svg" xml:space="preserve" viewBox="0 0 200 200">
  <path d="M83.835 58.484C61.293 31.268 52.89 70.544 25.237 39.999M116.72 91.52l3.145 3.143m-39.248 0a66386 66386 0 0 0 19.624-19.624C121.565 53.57 146.477 61.87 175.237 40m-55.378 54.664q9.809 9.814 0 19.624l-19.622 19.621c-38.878 37.043-43.873-9.923-75 26.092m55.378-65.337q-9.807 9.814 0 19.624l3.14 3.14m32.96 32.96c23.691 20.913 38.221-11.21 58.522 9.613" style="display:inline;fill:none;stroke:#ff851b;stroke-width:11.6432;stroke-linecap:butt;stroke-linejoin:round;stroke-dasharray:none;paint-order:stroke fill markers"/>
  <path d="M199.85 91.115c-3.812-42.027-33.533-77.182-74.36-87.954-15.973-4.215-35.07-4.215-51.044 0C35.92 13.327 7.459 44.786.91 84.446c-1.213 7.342-1.213 23.776 0 31.119 7.154 43.325 40.123 76.266 83.485 83.414 11.783 1.943 29.054 1.047 41.096-2.13 38.437-10.14 67.132-41.806 73.49-81.1.757-4.677 1.295-19.932.868-24.636m-6.012 23.525c-9.14 55.4-62.621 90.812-116.89 77.396-36.98-9.142-64.696-39.482-70.867-77.581-1.174-7.245-1.175-22.06-.003-29.082C12.97 44.087 44.28 12.84 85.4 6.206c6.953-1.122 21.336-1.205 28.1-.163 44.229 6.813 77.318 41.949 81.162 86.181.387 4.443-.117 18.12-.827 22.414" style="display:inline;fill:#616161;fill-opacity:1;stroke:none;stroke-width:.370625;stroke-linejoin:round;stroke-opacity:1"/>
</svg>
