<?xml version="1.0" encoding="UTF-8" standalone="no"?>
<svg
   xml:space="preserve"
   viewBox="0 0 6573.979 3830.6528"
   version="1.1"
   id="svg24"
   sodipodi:docname="fig-opo-prec.svg"
   inkscape:version="1.4.2 (ebf0e940d0, 2025-05-08)"
   width="6573.979"
   height="3830.6528"
   xmlns:inkscape="http://www.inkscape.org/namespaces/inkscape"
   xmlns:sodipodi="http://sodipodi.sourceforge.net/DTD/sodipodi-0.dtd"
   xmlns="http://www.w3.org/2000/svg"
   xmlns:svg="http://www.w3.org/2000/svg"><defs
   id="defs24">
    
    
    
    
    
  
    
    
    
  
      
    
    
  
    
    
    
    
    
  
      
    
    
  </defs><sodipodi:namedview
   id="namedview24"
   pagecolor="#ffffff"
   bordercolor="#000000"
   borderopacity="0.25"
   inkscape:showpageshadow="2"
   inkscape:pageopacity="0.0"
   inkscape:pagecheckerboard="0"
   inkscape:deskcolor="#d1d1d1"
   inkscape:zoom="0.18528547"
   inkscape:cx="4425.6034"
   inkscape:cy="2998.0765"
   inkscape:window-width="2234"
   inkscape:window-height="1418"
   inkscape:window-x="0"
   inkscape:window-y="0"
   inkscape:window-maximized="1"
   inkscape:current-layer="svg24-4" />
  
  <path
   d="m 1990.3886,1112.4766 103.842,103.933 m -684.635,-685.22599 103.195,103.284 m 480.702,-3.578 99.057,-99.143 m -681.46,682.04899 98.815,-98.901"
   style="fill:#616161;stroke:#ff851b;stroke-width:22.0939;stroke-linecap:butt;stroke-linejoin:miter;stroke-dasharray:none;stroke-opacity:1"
   id="path1" />
  <path
   d="m 1721.0028,1224.0004 c -147.3032,-13.3579 -270.5234,-117.5315 -308.2767,-260.62557 -14.7708,-55.98807 -14.7708,-122.92471 0,-178.91277 35.6296,-135.03373 145.8935,-234.79032 284.904,-257.74477 25.732,-4.25123 83.3393,-4.25123 109.0714,0 151.8562,25.07638 267.3137,140.63327 292.3685,292.61666 6.8094,41.30031 3.6734,101.83432 -7.4645,144.04088 -35.5449,134.72057 -146.534,235.29867 -284.2562,257.58267 -16.394,2.6524 -69.8642,4.5386 -86.3502,3.0429 m 82.4523,-21.072 c 194.1811,-32.0352 318.2993,-219.48731 271.2779,-409.70232 -32.0446,-129.61469 -138.3885,-226.75571 -271.9257,-248.38763 -25.3935,-4.11493 -77.3213,-4.11862 -101.9308,-0.0111 -144.7009,24.16277 -254.225,133.90276 -277.4762,278.03206 -3.9311,24.36906 -4.2219,74.78337 -0.5706,98.49302 23.8844,155.01897 147.0309,270.99577 302.0673,284.47157 15.5696,1.3557 63.5075,-0.4126 78.5581,-2.8992"
   style="display:inline;fill:#616161;fill-opacity:1;stroke:none;stroke-width:1.29904;stroke-opacity:1"
   id="path2" />
  <path
   d="m 1650.9736,772.85761 h 202.346 m -88.381,200.517 v -200.517 m -25.585,25.664 v 174.853"
   style="fill:#616161;fill-opacity:0.766511;stroke:#0074d9;stroke-width:11.3386;stroke-miterlimit:3.6;stroke-dasharray:none"
   id="path3" />
  <path
   d="m 3285.5806,1112.4766 103.843,103.933 m -684.636,-685.22599 103.196,103.284 m 480.701,-3.578 99.057,-99.143 m -681.46,682.04899 98.815,-98.901"
   style="fill:#616161;stroke:#ff851b;stroke-width:22.0939;stroke-linecap:butt;stroke-linejoin:miter;stroke-dasharray:none;stroke-opacity:1"
   id="path4" />
  <path
   d="m 3016.1956,1224.0016 c -147.304,-13.358 -270.524,-117.532 -308.278,-260.62599 -14.77,-55.988 -14.77,-122.925 0,-178.913 35.63,-135.033 145.894,-234.79 284.904,-257.744 25.732,-4.252 83.34,-4.252 109.072,0 151.856,25.076 267.314,140.633 292.368,292.616 6.81,41.3 3.674,101.835 -7.464,144.041 -35.545,134.71999 -146.534,235.29899 -284.256,257.58299 -16.394,2.652 -69.865,4.538 -86.35,3.043 m 82.452,-21.072 c 194.18,-32.036 318.299,-219.48799 271.278,-409.70299 -32.045,-129.614 -138.389,-226.755 -271.926,-248.387 -25.394,-4.115 -77.321,-4.119 -101.93,-0.011 -144.702,24.162 -254.226,133.902 -277.477,278.032 -3.931,24.369 -4.222,74.783 -0.57,98.493 23.884,155.01899 147.03,270.99599 302.067,284.47099 15.57,1.356 63.507,-0.412 78.558,-2.899"
   style="display:inline;fill:#616161;fill-opacity:1;stroke:none;stroke-width:1.29904;stroke-opacity:1"
   id="path5" />
  <path
   d="m 2946.1656,772.85761 h 202.346 m -88.381,200.517 v -200.517 m -25.585,25.664 v 174.853"
   style="fill:#616161;fill-opacity:0.766511;stroke:#ff4136;stroke-width:11.3386;stroke-miterlimit:3.6;stroke-dasharray:none"
   id="path6" />
  <path
   d="M 2363.0165,1083.8862 V 908.28999 h -172.9884 v -69.1084 h 172.9884 V 664.02004 h 73.4548 v 175.16155 h 172.9883 v 69.1084 h -172.9883 v 175.59621 z"
   id="text6"
   style="font-size:890.151px;font-family:Inter;-inkscape-font-specification:Inter;fill:#616161;stroke-width:158.955;stroke-linecap:round;stroke-linejoin:round;stroke-dasharray:158.955, 317.911;paint-order:stroke fill markers"
   aria-label="           +        " />
  <path
   d="m 1077.817,899.30931 q 0,-93.9391 19.0183,-196.52291 19.5947,-103.16011 53.0209,-198.25184 33.4261,-95.66803 76.6497,-166.55459 h 100.8548 q -44.3761,90.48121 -77.226,188.4545 -32.2735,97.9733 -49.5629,193.64134 -17.2895,95.09173 -17.2895,179.2335 0,114.68639 34.5789,236.28849 35.1551,121.0259 109.4995,274.3253 H 1226.5059 Q 1153.314,1284.863 1115.2774,1155.1925 1077.817,1025.522 1077.817,899.30931 Z"
   id="text7"
   style="font-size:1180.29px;font-family:Inter;-inkscape-font-specification:Inter;fill:#616161;stroke-width:210.765;stroke-linecap:round;stroke-linejoin:round;stroke-dasharray:210.765, 421.53;paint-order:stroke fill markers"
   aria-label="           (        " />
  <path
   d="m 3721.6714,899.30931 q 0,-93.9391 -19.0184,-196.52291 -19.5946,-103.16011 -53.0208,-198.25184 -33.4262,-95.66803 -76.6497,-166.55459 h -100.8549 q 44.3762,90.48121 77.226,188.4545 32.2736,97.9733 49.563,193.64134 17.2894,95.09173 17.2894,179.2335 0,114.68639 -34.5788,236.28849 -35.1551,121.0259 -109.4996,274.3253 h 100.8549 q 73.1918,-125.0601 111.2285,-254.7306 37.4604,-129.6705 37.4604,-255.88319 z"
   id="text8"
   style="font-size:1180.29px;font-family:Inter;-inkscape-font-specification:Inter;fill:#616161;stroke-width:210.765;stroke-linecap:round;stroke-linejoin:round;stroke-dasharray:210.765, 421.53;paint-order:stroke fill markers"
   aria-label="           (        " />
  <path
   d="M 588.7408,1112.4759 692.58321,1216.409 M 7.9475948,531.18272 111.14333,634.46646 m 480.70147,-3.57732 99.05708,-99.14375 M 9.4409244,1213.7943 108.25667,1114.8933"
   style="fill:#616161;stroke:#ff851b;stroke-width:22.0939;stroke-linecap:butt;stroke-linejoin:miter;stroke-dasharray:none;stroke-opacity:1"
   id="path8" /><path
   d="M 319.3548,1224.0004 C 172.05159,1210.6425 48.831458,1106.4689 11.078107,963.37483 -3.6927023,907.38676 -3.6927023,840.45012 11.078107,784.46206 46.707671,649.42833 156.97159,549.67174 295.9821,526.71729 c 25.73205,-4.25123 83.33932,-4.25123 109.07137,0 151.85629,25.07638 267.31374,140.63327 292.36854,292.61666 6.80937,41.30031 3.67338,101.83432 -7.46454,144.04088 -35.54491,134.72057 -146.53394,235.29867 -284.25619,257.58267 -16.39402,2.6524 -69.86413,4.5386 -86.35016,3.0429 m 82.45226,-21.072 C 595.9845,1170.8932 720.10273,983.44109 673.08128,793.22608 641.03675,663.61139 534.69281,566.47037 401.15557,544.83845 375.76214,540.72352 323.83426,540.71983 299.22483,544.82739 154.5239,568.99016 44.999807,678.73015 21.748573,822.85945 17.817542,847.22851 17.526764,897.64282 21.178058,921.35247 45.06238,1076.3714 168.20889,1192.3482 323.24534,1205.824 c 15.56953,1.3557 63.50749,-0.4126 78.55804,-2.8992"
   style="display:inline;fill:#616161;fill-opacity:1;stroke:none;stroke-width:1.29904;stroke-opacity:1"
   id="path9" /><path
   d="M 249.32565,772.85679 H 451.67181"
   style="fill:#616161;fill-opacity:0.766511;stroke:#2ecc40;stroke-width:11.3386;stroke-miterlimit:3.6;stroke-dasharray:none"
   id="path10" /><path
   d="M 363.29073,973.37362 V 772.85679"
   style="fill:#616161;fill-opacity:0.766511;stroke:#2ecc40;stroke-width:11.3386;stroke-miterlimit:3.6;stroke-dasharray:none"
   id="path11" /><path
   d="m 337.70546,798.52072 v 174.8529"
   style="fill:#616161;fill-opacity:0.766511;stroke:#2ecc40;stroke-width:11.3386;stroke-miterlimit:3.6;stroke-dasharray:none"
   id="path12" />
  <path
   d="m 847.59611,1178.7178 38.2487,-246.44315 h 89.5366 l -67.8044,246.44315 z"
   id="text12"
   style="font-size:890.151px;font-family:Inter;-inkscape-font-specification:Inter;fill:#616161;stroke-width:158.955;stroke-linecap:round;stroke-linejoin:round;stroke-dasharray:158.955, 317.911;paint-order:stroke fill markers"
   aria-label="           ,        " />
  <text
   x="1014.4677"
   y="3467.7188"
   style="font-size:112px;font-family:Inter;-inkscape-font-specification:Inter;text-align:start;writing-mode:lr-tb;direction:ltr;text-anchor:start;fill:none;stroke-width:20;stroke-linecap:round;stroke-linejoin:round;stroke-dasharray:20, 40;paint-order:stroke fill markers"
   id="text13">      </text>
  
  
  
  
  
  <g
   id="g25"
   transform="translate(-3.851e-4,-3.851e-4)"><path
     d="m 2616.8956,1568.5938 v -72.151 h 392.9182 v 72.151 z m 0,-188.6356 v -72.1509 h 392.9182 v 72.1509 z"
     id="text1"
     style="font-size:890.151px;font-family:Inter;-inkscape-font-specification:Inter;fill:#616161;stroke-width:158.955;stroke-linecap:round;stroke-linejoin:round;stroke-dasharray:158.955, 317.911;paint-order:stroke fill markers"
     transform="translate(1206.012,-563.964)"
     aria-label="           =        " /><path
     d="M 4030.929,753.04261 V 577.44642 h -172.9884 v -69.1084 H 4030.929 V 333.17647 h 73.4548 v 175.16155 h 172.9883 v 69.1084 h -172.9883 v 175.59619 z"
     id="text14"
     style="font-size:890.151px;font-family:Inter;-inkscape-font-specification:Inter;fill:#616161;stroke-width:158.955;stroke-linecap:round;stroke-linejoin:round;stroke-dasharray:158.955, 317.911;paint-order:stroke fill markers"
     transform="translate(1253.343,304.815)"
     aria-label="             +          " /><path
     d="m 6655.882,935.326 103.933,103.842 m -685.226,-684.635 103.283,103.196 m -3.577,480.701 -99.144,99.057 m 682.05,-681.46 -98.902,98.815"
     style="fill:#616161;stroke:#ff851b;stroke-width:22.0939;stroke-linecap:butt;stroke-linejoin:miter;stroke-dasharray:none;stroke-opacity:1"
     transform="translate(-1749.719,150.839)"
     id="path14" /><path
     d="m 5017.6878,816.77819 c -13.3579,-147.30321 -117.5315,-270.52335 -260.6256,-308.2767 -55.988,-14.77081 -122.9247,-14.77081 -178.9128,0 -135.0337,35.62957 -234.7903,145.89349 -257.7447,284.904 -4.2512,25.73205 -4.2512,83.33932 0,109.07137 25.0764,151.85624 140.6332,267.31374 292.6166,292.36854 41.3004,6.8094 101.8344,3.6734 144.0409,-7.4645 134.7206,-35.5449 235.2987,-146.534 257.5827,-284.25623 2.6524,-16.39402 4.5386,-69.86413 3.0429,-86.35016 m -21.072,82.45226 c -32.0352,194.18113 -219.4873,318.29933 -409.7023,271.27793 -129.6147,-32.0446 -226.7557,-138.3885 -248.3877,-271.92574 -4.1149,-25.39343 -4.1186,-77.32131 -0.011,-101.93074 24.1627,-144.70093 133.9027,-254.22503 278.032,-277.47626 24.3691,-3.93103 74.7834,-4.22181 98.4931,-0.57052 155.0189,23.88432 270.9957,147.03084 284.4715,302.06729 1.3557,15.56953 -0.4126,63.50749 -2.8992,78.55804"
     style="display:inline;fill:#616161;fill-opacity:1;stroke:none;stroke-width:1.29904;stroke-opacity:1"
     id="path15" /><path
     d="m 6316.263,595.91 v 202.347 m 200.517,-88.381 h -200.517 m 25.664,-25.586 h 174.853"
     style="fill:#616161;fill-opacity:0.766511;stroke:#2ecc40;stroke-width:11.3386;stroke-miterlimit:3.6;stroke-dasharray:none"
     transform="translate(-1749.719,150.839)"
     id="path16" /><path
     d="m 6337.6883,588.74119 103.9331,103.84241 c 162.1809,154.26628 162.1809,154.26628 -2.6147,311.7059 l -98.901,98.8157 M 5756.3951,7.9479799 5859.6789,111.14372 m -3.5774,480.70147 -99.1437,99.05708 c -162.7436,155.94628 -162.7436,155.94628 -0.5627,311.89253 l 103.2838,103.1971 M 6439.0067,9.4413095 6340.1057,108.25706"
     style="fill:none;stroke:#ff851b;stroke-width:22.0939;stroke-linecap:butt;stroke-linejoin:miter;stroke-dasharray:none;stroke-opacity:1"
     id="path17" /><path
     d="M 6449.2128,319.35519 C 6435.8549,172.05198 6331.6813,48.831843 6188.5872,11.078492 c -55.988,-14.7708092 -122.9247,-14.7708092 -178.9128,0 -135.0337,35.629564 -234.7903,145.893488 -257.7447,284.903998 -4.2512,25.73205 -4.2512,83.33932 0,109.07137 25.0764,151.85629 140.6332,267.31374 292.6166,292.36854 41.3004,6.80937 101.8344,3.67338 144.0409,-7.46454 134.7206,-35.54491 235.2987,-146.53394 257.5827,-284.25619 2.6524,-16.39402 4.5386,-69.86413 3.0429,-86.35016 m -21.072,82.45226 c -32.0352,194.18112 -219.4873,318.29935 -409.7023,271.2779 -129.6147,-32.04453 -226.7557,-138.38847 -248.3877,-271.92571 -4.1149,-25.39343 -4.1186,-77.32131 -0.011,-101.93074 24.1627,-144.70093 133.9027,-254.225028 278.032,-277.476262 24.3691,-3.931031 74.7834,-4.221809 98.4931,-0.570515 155.0189,23.884322 270.9957,147.030837 284.4715,302.067287 1.3557,15.56953 -0.4126,63.50749 -2.8992,78.55804"
     style="display:inline;fill:#616161;fill-opacity:1;stroke:none;stroke-width:1.29904;stroke-opacity:1"
     id="path18" /><path
     d="M 5998.0692,249.32604 V 451.6722"
     style="fill:#616161;fill-opacity:0.766511;stroke:#0074d9;stroke-width:11.3386;stroke-miterlimit:3.6;stroke-dasharray:none"
     id="path19" /><path
     d="M 6198.586,363.29112 H 5998.0692"
     style="fill:#616161;fill-opacity:0.766511;stroke:#0074d9;stroke-width:11.3386;stroke-miterlimit:3.6;stroke-dasharray:none"
     id="path20" /><path
     d="M 6023.7331,337.70585 H 6198.586"
     style="fill:#616161;fill-opacity:0.766511;stroke:#0074d9;stroke-width:11.3386;stroke-miterlimit:3.6;stroke-dasharray:none"
     id="path21" /><path
     d="m 6337.688,1583.589 103.934,103.842 m -585.52,-100.738 -99.144,99.057"
     style="fill:none;stroke:#ff851b;stroke-width:22.0939;stroke-linecap:butt;stroke-linejoin:miter;stroke-dasharray:none;stroke-opacity:1"
     id="path22" /><path
     d="m 6449.213,1314.203 c -13.358,-147.303 -117.531,-270.523 -260.625,-308.277 -55.988,-14.77 -122.925,-14.77 -178.913,0 -135.034,35.63 -234.79,145.894 -257.745,284.904 -4.251,25.732 -4.251,83.34 0,109.072 25.076,151.856 140.633,267.314 292.617,292.368 41.3,6.81 101.834,3.674 144.04,-7.464 134.721,-35.545 235.3,-146.534 257.583,-284.256 2.653,-16.394 4.539,-69.865 3.043,-86.35 m -21.072,82.452 c -32.035,194.18 -219.487,318.299 -409.702,271.277 -129.615,-32.044 -226.756,-138.388 -248.388,-271.925 -4.115,-25.394 -4.118,-77.322 -0.01,-101.93 24.162,-144.702 133.902,-254.226 278.031,-277.477 24.37,-3.931 74.784,-4.222 98.493,-0.57 155.02,23.884 270.996,147.03 284.472,302.067 1.355,15.57 -0.413,63.507 -2.9,78.558"
     style="display:inline;fill:#616161;fill-opacity:1;stroke:none;stroke-width:1.29904;stroke-opacity:1"
     id="path23" /><path
     d="m 5998.07,1244.174 v 202.346 m 200.516,-88.381 H 5998.07 m 25.664,-25.585 h 174.852"
     style="fill:#616161;fill-opacity:0.766511;stroke:#ff4136;stroke-width:11.3386;stroke-miterlimit:3.6;stroke-dasharray:none"
     id="path24" /></g><g
   id="g24"
   transform="translate(-118.8557,-3.851e-4)"><g
     id="svg24-4"
     transform="translate(118.85531,2089.4298)"><path
       d="m 2616.8956,1568.5938 v -72.151 h 392.9182 v 72.151 z m 0,-188.6356 v -72.1509 h 392.9182 v 72.1509 z"
       id="text1-7"
       style="font-size:890.151px;font-family:Inter;-inkscape-font-specification:Inter;fill:#616161;stroke-width:158.955;stroke-linecap:round;stroke-linejoin:round;stroke-dasharray:158.955, 317.911;paint-order:stroke fill markers"
       transform="translate(1206.012,-563.964)"
       aria-label="           =        " /><path
       d="m 6655.882,935.326 103.933,103.842 m -685.226,-684.635 103.283,103.196 m -3.577,480.701 -99.144,99.057 m 682.05,-681.46 -98.902,98.815"
       style="fill:#616161;stroke:#ff851b;stroke-width:22.0939;stroke-linecap:butt;stroke-linejoin:miter;stroke-dasharray:none;stroke-opacity:1"
       transform="translate(-1749.719,150.839)"
       id="path14-4" /><path
       d="m 5017.6878,816.77819 c -13.3579,-147.30321 -117.5315,-270.52335 -260.6256,-308.2767 -55.988,-14.77081 -122.9247,-14.77081 -178.9128,0 -135.0337,35.62957 -234.7903,145.89349 -257.7447,284.904 -4.2512,25.73205 -4.2512,83.33932 0,109.07137 25.0764,151.85624 140.6332,267.31374 292.6166,292.36854 41.3004,6.8094 101.8344,3.6734 144.0409,-7.4645 134.7206,-35.5449 235.2987,-146.534 257.5827,-284.25623 2.6524,-16.39402 4.5386,-69.86413 3.0429,-86.35016 m -21.072,82.45226 c -32.0352,194.18113 -219.4873,318.29933 -409.7023,271.27793 -129.6147,-32.0446 -226.7557,-138.3885 -248.3877,-271.92574 -4.1149,-25.39343 -4.1186,-77.32131 -0.011,-101.93074 24.1627,-144.70093 133.9027,-254.22503 278.032,-277.47626 24.3691,-3.93103 74.7834,-4.22181 98.4931,-0.57052 155.0189,23.88432 270.9957,147.03084 284.4715,302.06729 1.3557,15.56953 -0.4126,63.50749 -2.8992,78.55804"
       style="display:inline;fill:#616161;fill-opacity:1;stroke:none;stroke-width:1.29904;stroke-opacity:1"
       id="path15-5" /><path
       d="m 6316.263,595.91 v 202.347 m 200.517,-88.381 h -200.517 m 25.664,-25.586 h 174.853"
       style="fill:#616161;fill-opacity:0.766511;stroke:#2ecc40;stroke-width:11.3386;stroke-miterlimit:3.6;stroke-dasharray:none"
       transform="translate(-1749.719,150.839)"
       id="path16-0" /><path
       d="m 6337.6883,588.74119 103.9331,103.84241 c 162.1809,154.26628 162.1809,154.26628 -2.6147,311.7059 l -98.901,98.8157 M 5756.3951,7.9479799 5859.6789,111.14372 m -3.5774,480.70147 -99.1437,99.05708 c -162.7436,155.94628 -162.7436,155.94628 -0.5627,311.89253 l 103.2838,103.1971 M 6439.0067,9.4413095 6340.1057,108.25706"
       style="fill:none;stroke:#ff851b;stroke-width:22.0939;stroke-linecap:butt;stroke-linejoin:miter;stroke-dasharray:none;stroke-opacity:1"
       id="path17-3" /><path
       d="M 6449.2128,319.35519 C 6435.8549,172.05198 6331.6813,48.831843 6188.5872,11.078492 c -55.988,-14.7708092 -122.9247,-14.7708092 -178.9128,0 -135.0337,35.629564 -234.7903,145.893488 -257.7447,284.903998 -4.2512,25.73205 -4.2512,83.33932 0,109.07137 25.0764,151.85629 140.6332,267.31374 292.6166,292.36854 41.3004,6.80937 101.8344,3.67338 144.0409,-7.46454 134.7206,-35.54491 235.2987,-146.53394 257.5827,-284.25619 2.6524,-16.39402 4.5386,-69.86413 3.0429,-86.35016 m -21.072,82.45226 c -32.0352,194.18112 -219.4873,318.29935 -409.7023,271.2779 -129.6147,-32.04453 -226.7557,-138.38847 -248.3877,-271.92571 -4.1149,-25.39343 -4.1186,-77.32131 -0.011,-101.93074 24.1627,-144.70093 133.9027,-254.225028 278.032,-277.476262 24.3691,-3.931031 74.7834,-4.221809 98.4931,-0.570515 155.0189,23.884322 270.9957,147.030837 284.4715,302.067287 1.3557,15.56953 -0.4126,63.50749 -2.8992,78.55804"
       style="display:inline;fill:#616161;fill-opacity:1;stroke:none;stroke-width:1.29904;stroke-opacity:1"
       id="path18-6" /><path
       d="M 5998.0692,249.32604 V 451.6722"
       style="fill:#616161;fill-opacity:0.766511;stroke:#0074d9;stroke-width:11.3386;stroke-miterlimit:3.6;stroke-dasharray:none"
       id="path19-1" /><path
       d="M 6198.586,363.29112 H 5998.0692"
       style="fill:#616161;fill-opacity:0.766511;stroke:#0074d9;stroke-width:11.3386;stroke-miterlimit:3.6;stroke-dasharray:none"
       id="path20-0" /><path
       d="M 6023.7331,337.70585 H 6198.586"
       style="fill:#616161;fill-opacity:0.766511;stroke:#0074d9;stroke-width:11.3386;stroke-miterlimit:3.6;stroke-dasharray:none"
       id="path21-6" /><path
       d="m 6337.688,1583.589 103.934,103.842 m -585.52,-100.738 -99.144,99.057"
       style="fill:none;stroke:#ff851b;stroke-width:22.0939;stroke-linecap:butt;stroke-linejoin:miter;stroke-dasharray:none;stroke-opacity:1"
       id="path22-3" /><path
       d="m 6449.213,1314.203 c -13.358,-147.303 -117.531,-270.523 -260.625,-308.277 -55.988,-14.77 -122.925,-14.77 -178.913,0 -135.034,35.63 -234.79,145.894 -257.745,284.904 -4.251,25.732 -4.251,83.34 0,109.072 25.076,151.856 140.633,267.314 292.617,292.368 41.3,6.81 101.834,3.674 144.04,-7.464 134.721,-35.545 235.3,-146.534 257.583,-284.256 2.653,-16.394 4.539,-69.865 3.043,-86.35 m -21.072,82.452 c -32.035,194.18 -219.487,318.299 -409.702,271.277 -129.615,-32.044 -226.756,-138.388 -248.388,-271.925 -4.115,-25.394 -4.118,-77.322 -0.01,-101.93 24.162,-144.702 133.902,-254.226 278.031,-277.477 24.37,-3.931 74.784,-4.222 98.493,-0.57 155.02,23.884 270.996,147.03 284.472,302.067 1.355,15.57 -0.413,63.507 -2.9,78.558"
       style="display:inline;fill:#616161;fill-opacity:1;stroke:none;stroke-width:1.29904;stroke-opacity:1"
       id="path23-2" /><path
       d="m 5998.07,1244.174 v 202.346 m 200.516,-88.381 H 5998.07 m 25.664,-25.585 h 174.852"
       style="fill:#616161;fill-opacity:0.766511;stroke:#ff4136;stroke-width:11.3386;stroke-miterlimit:3.6;stroke-dasharray:none"
       id="path24-0" /><path
       style="fill:none;stroke:#ff851b;stroke-width:22.094;stroke-linejoin:round;paint-order:stroke fill markers"
       d="M 5007.482,506.866 C 5322.3564,196.00667 5564.9542,-173.04944 5756.3951,7.948"
       id="path25"
       sodipodi:nodetypes="cc" /><path
       style="fill:none;stroke:#ff851b;stroke-width:22.094;stroke-linejoin:round;paint-order:stroke fill markers"
       d="m 5010.096,1190.007 c 237.768,257.0083 515.149,678.4577 746.862,495.743"
       id="path26"
       sodipodi:nodetypes="cc" /></g></g>
</svg>
