<svg xmlns:inkscape="http://www.inkscape.org/namespaces/inkscape" xmlns:sodipodi="http://sodipodi.sourceforge.net/DTD/sodipodi-0.dtd" xmlns="http://www.w3.org/2000/svg" xmlns:svg="http://www.w3.org/2000/svg" viewBox="0 0 847.76718 172.60205" version="1.1" id="svg1" xml:space="preserve" sodipodi:docname="fig-prime_knot-connect_sum.svg" inkscape:version="1.4.2 (ebf0e940d0, 2025-05-08)">
  <sodipodi:namedview id="namedview1" pagecolor="#ffffff" bordercolor="#000000" borderopacity="0.25" inkscape:showpageshadow="2" inkscape:pageopacity="0.0" inkscape:pagecheckerboard="0" inkscape:deskcolor="#d1d1d1" inkscape:document-units="mm" inkscape:zoom="0.85402035" inkscape:cx="426.80482" inkscape:cy="87.234455" inkscape:window-width="3818" inkscape:window-height="2078" inkscape:window-x="0" inkscape:window-y="0" inkscape:window-maximized="1" inkscape:current-layer="layer1" showgrid="false">
    <inkscape:page x="4.2631374e-09" y="1.526942e-07" width="847.76715" height="172.60205" id="page1" margin="0" bleed="0"/>
  </sodipodi:namedview>
  <defs id="defs1"><inkscape:path-effect effect="knot" id="path-effect3" is_visible="true" lpeversion="1" switcher_size="15" interruption_width="6.1" prop_to_stroke_width="true" add_stroke_width="inkscape_1.0_and_up" both="false" inverse_width="false" add_other_stroke_width="inkscape_1.0_and_up" crossing_points_vector="4280.7781 | 7102.4826 | 0 | 0 | 0 | 3 | 2.9843628 | 18.983389 | 1 | 2708.2043 | 7097.1086 | 0 | 0 | 1 | 4 | 5.9834394 | 21.984404 | 1 | 1135.6542 | 7091.7109 | 0 | 0 | 2 | 5 | 8.9844082 | 24.983435 | 1"/><inkscape:path-effect effect="knot" id="path-effect1" is_visible="true" lpeversion="1" switcher_size="15" interruption_width="6.3" prop_to_stroke_width="true" add_stroke_width="inkscape_1.0_and_up" both="false" inverse_width="false" add_other_stroke_width="inkscape_1.0_and_up" crossing_points_vector="1135.6519 | 2686.459 | 0 | 0 | 0 | 3 | 4.0155918 | 20.016565 | 1 | 2708.202 | 2691.8567 | 0 | 0 | 1 | 4 | 7.0165606 | 23.015596 | 1 | 4280.7758 | 2697.2307 | 0 | 0 | 2 | 5 | 10.015637 | 26.016611 | 1"/><inkscape:path-effect effect="knot" id="path-effect1-7" is_visible="true" lpeversion="1" switcher_size="15" interruption_width="6.3" prop_to_stroke_width="true" add_stroke_width="inkscape_1.0_and_up" both="false" inverse_width="false" add_other_stroke_width="inkscape_1.0_and_up" crossing_points_vector="1135.6519 | 2686.459 | 0 | 0 | 0 | 3 | 4.0155918 | 20.016565 | 1 | 2708.202 | 2691.8567 | 0 | 0 | 1 | 4 | 7.0165606 | 23.015596 | 1 | 4280.7758 | 2697.2307 | 0 | 0 | 2 | 5 | 10.015637 | 26.016611 | 1"/><inkscape:path-effect effect="knot" id="path-effect1-7-9" is_visible="true" lpeversion="1" switcher_size="15" interruption_width="6.3" prop_to_stroke_width="true" add_stroke_width="inkscape_1.0_and_up" both="false" inverse_width="false" add_other_stroke_width="inkscape_1.0_and_up" crossing_points_vector="1135.6519 | 2686.459 | 0 | 0 | 0 | 3 | 3.0165649 | 19.015592 | 1 | 2708.202 | 2691.8567 | 0 | 0 | 1 | 4 | 6.0155962 | 22.016561 | 1 | 4280.7758 | 2697.2307 | 0 | 0 | 2 | 5 | 9.0166108 | 25.015637 | 1"/><inkscape:path-effect effect="knot" id="path-effect1-1" is_visible="true" lpeversion="1" switcher_size="15" interruption_width="6.1" prop_to_stroke_width="true" add_stroke_width="inkscape_1.0_and_up" both="false" inverse_width="false" add_other_stroke_width="inkscape_1.0_and_up" crossing_points_vector="1135.6519 | 2686.459 | 0 | 0 | 0 | 3 | 3.0155918 | 19.016565 | 1 | 2708.202 | 2691.8567 | 0 | 0 | 1 | 4 | 6.0165606 | 22.015596 | 1 | 4280.7758 | 2697.2307 | 0 | 0 | 2 | 5 | 9.0156372 | 25.016611 | 1"/><inkscape:path-effect effect="knot" id="path-effect1-5" is_visible="true" lpeversion="1" switcher_size="15" interruption_width="6.3" prop_to_stroke_width="true" add_stroke_width="inkscape_1.0_and_up" both="false" inverse_width="false" add_other_stroke_width="inkscape_1.0_and_up" crossing_points_vector="1135.6519 | 2686.459 | 0 | 0 | 0 | 3 | 4.0155918 | 20.016565 | 1 | 2708.202 | 2691.8567 | 0 | 0 | 1 | 4 | 7.0165606 | 23.015596 | 1 | 4280.7758 | 2697.2307 | 0 | 0 | 2 | 5 | 10.015637 | 26.016611 | 1"/><inkscape:path-effect effect="knot" id="path-effect1-7-92" is_visible="true" lpeversion="1" switcher_size="15" interruption_width="6.3" prop_to_stroke_width="true" add_stroke_width="inkscape_1.0_and_up" both="false" inverse_width="false" add_other_stroke_width="inkscape_1.0_and_up" crossing_points_vector="1135.6519 | 2686.459 | 0 | 0 | 0 | 3 | 4.0155918 | 20.016565 | 1 | 2708.202 | 2691.8567 | 0 | 0 | 1 | 4 | 7.0165606 | 23.015596 | 1 | 4280.7758 | 2697.2307 | 0 | 0 | 2 | 5 | 10.015637 | 26.016611 | 1"/><inkscape:path-effect effect="knot" id="path-effect3-2" is_visible="true" lpeversion="1" switcher_size="15" interruption_width="6.1" prop_to_stroke_width="true" add_stroke_width="inkscape_1.0_and_up" both="false" inverse_width="false" add_other_stroke_width="inkscape_1.0_and_up" crossing_points_vector="4280.7781 | 7102.4826 | 0 | 0 | 0 | 3 | 2.9843628 | 18.983389 | 1 | 2708.2043 | 7097.1086 | 0 | 0 | 1 | 4 | 5.9834394 | 21.984404 | 1 | 1135.6542 | 7091.7109 | 0 | 0 | 2 | 5 | 8.9844082 | 24.983435 | 1"/><inkscape:path-effect effect="knot" id="path-effect1-1-8" is_visible="true" lpeversion="1" switcher_size="15" interruption_width="6.1" prop_to_stroke_width="true" add_stroke_width="inkscape_1.0_and_up" both="false" inverse_width="false" add_other_stroke_width="inkscape_1.0_and_up" crossing_points_vector="1135.6519 | 2686.459 | 0 | 0 | 0 | 3 | 3.0155918 | 19.016565 | 1 | 2708.202 | 2691.8567 | 0 | 0 | 1 | 4 | 6.0165606 | 22.015596 | 1 | 4280.7758 | 2697.2307 | 0 | 0 | 2 | 5 | 9.0156372 | 25.016611 | 1"/></defs>
  <g inkscape:label="Layer 1" inkscape:groupmode="layer" id="layer1" transform="translate(29.35885,-135.90579)">
    
  <path id="path48" d="m 4635.3522,3054.0913 c 53.0419,53.3751 106.0902,106.7465 159.1478,160.1087 174.1,175.2 260.7,409.8 259.75,703.7 -0.95,293.8 -1.85,587.7 -2.8,881.6 -0.95,293.9 -263.45,439.9 -787.65,438.1 -524.2,-1.8 -1048.4,-3.6 -1572.55,-5.4 -524.15,-1.8 -1048.35,-3.6 -1572.55,-5.4 -524.2,-1.8 -785.802,-149.6 -784.8505,-443.5 0.9515,-293.8 1.8495,-587.7 2.801,-881.6 0.9515,-293.9 89.1505,-525 264.5995,-693.4 175.449,-168.4 350.852,-339.6 526.2,-513.7 175.35,-174 350.55,-350.9 525.8,-530.55 175.15,-179.65 349.85,-181.85 523.95,-6.6 58.803,59.1914 117.6059,118.377 176.4108,177.5609 m 709.1813,713.6927 c 53.0369,53.3794 106.0724,106.7606 159.1079,160.1464 174.1,175.25 348.9,178.65 524.45,10.2 175.45,-168.45 350.85,-339.65 526.2,-513.65 175.35,-174.1 350.55,-350.9 525.75,-530.55 175.2,-179.65 263.3,-413.65 264.4,-701.85 1.1,-288.3 2.2,-576.5 3.25,-864.7985 C 5067,320 4805.5,175 4281.3,173.2015 3757.1,171.398 3232.9,169.602 2708.75,167.7985 2184.6,166 1660.4,164.199 1136.2,162.4005 612,160.602 349.398,303.801 348.3495,592.0995 347.199,880.301 346.199,1168.6 345.051,1456.8 c -1.051,288.3 85.449,520 259.597,695.25 58.81577,59.1862 117.62514,118.3668 176.43049,177.5455 m 709.17941,713.6947 c 53.0529,53.3838 106.1021,106.7695 159.1421,160.1598 174.1,175.25 348.9,178.65 524.4,10.25 175.5,-168.4 350.9,-339.7 526.2,-513.7 175.3,-174 350.6,-350.9 525.75,-530.55 175.15,-179.65 349.85,-181.85 523.95,-6.65 58.8169,59.1885 117.6453,118.3885 176.4773,177.5922" class="" style="fill:none;stroke:#ff851b;stroke-width:159.703;stroke-linecap:round;stroke-linejoin:miter;stroke-miterlimit:10;stroke-dasharray:none;stroke-opacity:1" transform="matrix(0,0.03527778,0.03527778,0,-32.270372,126.94538)" sodipodi:nodetypes="ccccccccccccccccccccccccccccccccc" inkscape:original-d="M 1118.7,5226.8 C 594.5,5225 332.898,5077.2 333.8495,4783.3 c 0.9515,-293.8 1.8495,-587.7 2.801,-881.6 0.9515,-293.9 89.1505,-525 264.5995,-693.4 175.449,-168.4 350.852,-339.6 526.2,-513.7 175.35,-174 350.55,-350.9 525.8,-530.55 175.15,-179.65 349.85,-181.85 523.95,-6.6 174.1,175.25 348.2,350.45 522.35,525.7 174.15,175.25 348.25,350.45 522.35,525.7 174.1,175.25 348.9,178.65 524.45,10.2 175.45,-168.45 350.85,-339.65 526.2,-513.65 175.35,-174.1 350.55,-350.9 525.75,-530.55 175.2,-179.65 263.3,-413.65 264.4,-701.85 1.1,-288.3 2.2,-576.5 3.25,-864.7985 C 5067,320 4805.5,175 4281.3,173.2015 3757.1,171.398 3232.9,169.602 2708.75,167.7985 2184.6,166 1660.4,164.199 1136.2,162.4005 612,160.602 349.398,303.801 348.3495,592.0995 347.199,880.301 346.199,1168.6 345.051,1456.8 c -1.051,288.3 85.449,520 259.597,695.25 174.153,175.25 348.25,350.45 522.352,525.7 174.1,175.25 348.3,350.45 522.4,525.7 174.1,175.25 348.9,178.65 524.4,10.25 175.5,-168.4 350.9,-339.7 526.2,-513.7 175.3,-174 350.6,-350.9 525.75,-530.55 175.15,-179.65 349.85,-181.85 523.95,-6.65 174.1,175.2 348.3,350.5 522.4,525.7 174.1,175.2 348.2,350.5 522.4,525.7 174.1,175.2 260.7,409.8 259.75,703.7 -0.95,293.8 -1.85,587.7 -2.8,881.6 -0.95,293.9 -263.45,439.9 -787.65,438.1 -524.2,-1.8 -1048.4,-3.6 -1572.55,-5.4 -524.15,-1.8 -1048.35,-3.6 -1572.55,-5.4 z" inkscape:path-effect="#path-effect1-5"/><path id="path48-5" d="m 4635.3522,3054.0913 c 53.0419,53.3751 106.0902,106.7465 159.1478,160.1087 174.1,175.2 260.7,409.8 259.75,703.7 -0.95,293.8 -1.85,587.7 -2.8,881.6 -0.95,293.9 -263.45,439.9 -787.65,438.1 -524.2,-1.8 -1048.4,-3.6 -1572.55,-5.4 -524.15,-1.8 -1048.35,-3.6 -1572.55,-5.4 -524.2,-1.8 -785.802,-149.6 -784.8505,-443.5 0.9515,-293.8 1.8495,-587.7 2.801,-881.6 0.9515,-293.9 89.1505,-525 264.5995,-693.4 175.449,-168.4 350.852,-339.6 526.2,-513.7 175.35,-174 350.55,-350.9 525.8,-530.55 175.15,-179.65 349.85,-181.85 523.95,-6.6 58.803,59.1914 117.6059,118.377 176.4108,177.5609 m 709.1813,713.6927 c 53.0369,53.3794 106.0724,106.7606 159.1079,160.1464 174.1,175.25 348.9,178.65 524.45,10.2 175.45,-168.45 350.85,-339.65 526.2,-513.65 175.35,-174.1 350.55,-350.9 525.75,-530.55 175.2,-179.65 263.3,-413.65 264.4,-701.85 1.1,-288.3 2.2,-576.5 3.25,-864.7985 C 5067,320 4805.5,175 4281.3,173.2015 3757.1,171.398 3232.9,169.602 2708.75,167.7985 2184.6,166 1660.4,164.199 1136.2,162.4005 612,160.602 349.398,303.801 348.3495,592.0995 347.199,880.301 346.199,1168.6 345.051,1456.8 c -1.051,288.3 85.449,520 259.597,695.25 58.81577,59.1862 117.62514,118.3668 176.43049,177.5455 m 709.17941,713.6947 c 53.0529,53.3838 106.1021,106.7695 159.1421,160.1598 174.1,175.25 348.9,178.65 524.4,10.25 175.5,-168.4 350.9,-339.7 526.2,-513.7 175.3,-174 350.6,-350.9 525.75,-530.55 175.15,-179.65 349.85,-181.85 523.95,-6.65 58.8169,59.1885 117.6453,118.3885 176.4773,177.5922" class="" style="fill:none;stroke:#ff851b;stroke-width:159.703;stroke-linecap:round;stroke-linejoin:miter;stroke-miterlimit:10;stroke-dasharray:none;stroke-opacity:1" transform="matrix(0,0.03527778,0.03527778,0,226.45077,126.94538)" sodipodi:nodetypes="ccccccccccccccccccccccccccccccccc" inkscape:original-d="M 1118.7,5226.8 C 594.5,5225 332.898,5077.2 333.8495,4783.3 c 0.9515,-293.8 1.8495,-587.7 2.801,-881.6 0.9515,-293.9 89.1505,-525 264.5995,-693.4 175.449,-168.4 350.852,-339.6 526.2,-513.7 175.35,-174 350.55,-350.9 525.8,-530.55 175.15,-179.65 349.85,-181.85 523.95,-6.6 174.1,175.25 348.2,350.45 522.35,525.7 174.15,175.25 348.25,350.45 522.35,525.7 174.1,175.25 348.9,178.65 524.45,10.2 175.45,-168.45 350.85,-339.65 526.2,-513.65 175.35,-174.1 350.55,-350.9 525.75,-530.55 175.2,-179.65 263.3,-413.65 264.4,-701.85 1.1,-288.3 2.2,-576.5 3.25,-864.7985 C 5067,320 4805.5,175 4281.3,173.2015 3757.1,171.398 3232.9,169.602 2708.75,167.7985 2184.6,166 1660.4,164.199 1136.2,162.4005 612,160.602 349.398,303.801 348.3495,592.0995 347.199,880.301 346.199,1168.6 345.051,1456.8 c -1.051,288.3 85.449,520 259.597,695.25 174.153,175.25 348.25,350.45 522.352,525.7 174.1,175.25 348.3,350.45 522.4,525.7 174.1,175.25 348.9,178.65 524.4,10.25 175.5,-168.4 350.9,-339.7 526.2,-513.7 175.3,-174 350.6,-350.9 525.75,-530.55 175.15,-179.65 349.85,-181.85 523.95,-6.65 174.1,175.2 348.3,350.5 522.4,525.7 174.1,175.2 348.2,350.5 522.4,525.7 174.1,175.2 260.7,409.8 259.75,703.7 -0.95,293.8 -1.85,587.7 -2.8,881.6 -0.95,293.9 -263.45,439.9 -787.65,438.1 -524.2,-1.8 -1048.4,-3.6 -1572.55,-5.4 -524.15,-1.8 -1048.35,-3.6 -1572.55,-5.4 z" inkscape:path-effect="#path-effect1-7-92"/><path style="fill:none;stroke:#ff851b;stroke-width:159.703;stroke-linecap:round;stroke-linejoin:miter;stroke-miterlimit:10;stroke-dasharray:none;stroke-opacity:1" inkscape:path-effect="#path-effect3-2" inkscape:original-d="m 5064.652,4799.5 c -1.05,288.2985 -0.8497,790.4519 -1.9497,1078.7519 -1.1,288.2 -89.2,522.2 -264.4,701.85 -175.2,179.65 -350.4,356.45 -525.75,530.55 -175.35,174 -350.75,345.2 -526.2,513.65 -175.55,168.45 -350.35,165.05 -524.45,-10.2 -174.1,-175.25 -348.2,-350.45 -522.35,-525.7 -174.15,-175.25 -348.25,-350.45 -522.35,-525.7 -174.1,-175.25 -348.8,-173.05 -523.95,6.6 -175.25,179.65 -350.45,356.55 -525.8,530.55 -175.34805,174.1 -350.75105,345.3 -526.20005,513.7 -175.449,168.4 -263.648,399.5 -264.5995,693.4 -0.9515,293.9 -1.8495,587.8 -2.801,881.6 -0.9515,293.9 260.6505,441.7 784.85055,443.5 524.2,1.8 1048.4,3.6 1572.55,5.4 524.15,1.8 1048.35,3.6 1572.55,5.4 524.2,1.8 786.7,-144.2 787.65,-438.1 0.95,-293.9 1.85,-587.8 2.8,-881.6 0.95,-293.9 -85.65,-528.5 -259.75,-703.7 -174.2,-175.2 -348.3,-350.5 -522.4,-525.7 -174.1,-175.2 -348.3,-350.5 -522.4,-525.7 -174.1,-175.2 -348.8,-173 -523.95,6.65 -175.15,179.65 -350.45,356.55 -525.75,530.55 -175.3,174 -350.7,345.3 -526.2,513.7 -175.5,168.4 -350.3,165 -524.4,-10.25 -174.1,-175.25 -348.3,-350.45 -522.4,-525.7 -174.10205,-175.25 -348.19905,-350.45 -522.35205,-525.7 -174.148,-175.25 -260.648,-406.95 -259.597,-695.25 1.148,-288.2 -12.35425,-790.5504 -11.20375,-1078.7519" transform="matrix(0,0.03527778,0.03527778,0,475.41232,126.97529)" d="m 5064.652,4799.5 c -1.05,288.2985 -0.8497,790.4519 -1.9497,1078.7519 -1.1,288.2 -89.2,522.2 -264.4,701.85 -175.2,179.65 -350.4,356.45 -525.75,530.55 -175.35,174 -350.75,345.2 -526.2,513.65 -175.55,168.45 -350.35,165.05 -524.45,-10.2 -56.7875,-57.1626 -113.575,-114.3199 -170.3642,-171.4753 m -686.6686,-691.0349 c -62.5573,-62.9599 -125.1122,-125.9216 -187.6672,-188.8898 -174.1,-175.25 -348.8,-173.05 -523.95,6.6 -175.25,179.65 -350.45,356.55 -525.8,530.55 -175.34805,174.1 -350.75105,345.3 -526.20005,513.7 -175.449,168.4 -263.648,399.5 -264.5995,693.4 -0.9515,293.9 -1.8495,587.8 -2.801,881.6 -0.9515,293.9 260.6505,441.7 784.85055,443.5 524.2,1.8 1048.4,3.6 1572.55,5.4 524.15,1.8 1048.35,3.6 1572.55,5.4 524.2,1.8 786.7,-144.2 787.65,-438.1 0.95,-293.9 1.85,-587.8 2.8,-881.6 0.95,-293.9 -85.65,-528.5 -259.75,-703.7 -56.8112,-57.1373 -113.6117,-114.2852 -170.405,-171.4368 m -686.6606,-691.0428 c -62.5849,-62.9802 -125.1661,-125.9568 -187.7344,-188.9204 -174.1,-175.2 -348.8,-173 -523.95,6.65 -175.15,179.65 -350.45,356.55 -525.75,530.55 -175.3,174 -350.7,345.3 -526.2,513.7 -175.5,168.4 -350.3,165 -524.4,-10.25 -56.7916,-57.1667 -113.5937,-114.328 -170.3996,-171.4876 M 792.33767,6746.1758 c -62.55714,-62.9546 -125.11866,-125.911 -187.68742,-188.8739 -174.148,-175.25 -260.648,-406.95 -259.597,-695.25 1.148,-288.2 -12.35425,-790.5504 -11.20375,-1078.7519" id="path1" sodipodi:nodetypes="cssccsssccsssssssscsssssssscc" class=""/><path style="fill:none;stroke:#ff851b;stroke-width:159.703;stroke-linecap:round;stroke-linejoin:miter;stroke-miterlimit:10;stroke-dasharray:none;stroke-opacity:1" inkscape:path-effect="#path-effect1-1-8" inkscape:original-d="m 333.8495,4783.3 c 0.9515,-293.8 1.8495,-587.7 2.801,-881.6 0.9515,-293.9 89.1505,-525 264.5995,-693.4 175.449,-168.4 350.852,-339.6 526.2,-513.7 175.35,-174 350.55,-350.9 525.8,-530.55 175.15,-179.65 349.85,-181.85 523.95,-6.6 174.1,175.25 348.2,350.45 522.35,525.7 174.15,175.25 348.25,350.45 522.35,525.7 174.1,175.25 348.9,178.65 524.45,10.2 175.45,-168.45 350.85,-339.65 526.2,-513.65 175.35,-174.1 350.55,-350.9 525.75,-530.55 175.2,-179.65 263.3,-413.65 264.4,-701.85 1.1,-288.3 2.2,-576.5 3.25,-864.7985 C 5067,320 4805.5,175 4281.3,173.2015 3757.1,171.398 3232.9,169.602 2708.75,167.7985 2184.6,166 1660.4,164.199 1136.2,162.4005 612,160.602 349.398,303.801 348.3495,592.0995 347.199,880.301 346.199,1168.6 345.051,1456.8 c -1.051,288.3 85.449,520 259.597,695.25 174.153,175.25 348.25,350.45 522.352,525.7 174.1,175.25 348.3,350.45 522.4,525.7 174.1,175.25 348.9,178.65 524.4,10.25 175.5,-168.4 350.9,-339.7 526.2,-513.7 175.3,-174 350.6,-350.9 525.75,-530.55 175.15,-179.65 349.85,-181.85 523.95,-6.65 174.1,175.2 348.3,350.5 522.4,525.7 174.1,175.2 348.2,350.5 522.4,525.7 174.1,175.2 260.7,409.8 259.75,703.7 -0.95,293.8 11.352,587.7 10.402,881.6" transform="matrix(0,0.03527778,0.03527778,0,475.41232,126.97529)" d="m 333.8495,4783.3 c 0.9515,-293.8 1.8495,-587.7 2.801,-881.6 0.9515,-293.9 89.1505,-525 264.5995,-693.4 175.449,-168.4 350.852,-339.6 526.2,-513.7 175.35,-174 350.55,-350.9 525.8,-530.55 175.15,-179.65 349.85,-181.85 523.95,-6.6 62.555,62.9682 125.1099,125.9299 187.6672,188.8898 m 686.6686,691.0349 c 56.7892,57.1554 113.5767,114.3127 170.3642,171.4753 174.1,175.25 348.9,178.65 524.45,10.2 175.45,-168.45 350.85,-339.65 526.2,-513.65 175.35,-174.1 350.55,-350.9 525.75,-530.55 175.2,-179.65 263.3,-413.65 264.4,-701.85 1.1,-288.3 2.2,-576.5 3.25,-864.7985 C 5067,320 4805.5,175 4281.3,173.2015 3757.1,171.398 3232.9,169.602 2708.75,167.7985 2184.6,166 1660.4,164.199 1136.2,162.4005 612,160.602 349.398,303.801 348.3495,592.0995 347.199,880.301 346.199,1168.6 345.051,1456.8 c -1.051,288.3 85.449,520 259.597,695.25 62.56875,62.9629 125.13027,125.9193 187.68739,188.8739 m 686.66501,691.0385 c 56.8059,57.1596 113.608,114.3209 170.3996,171.4876 174.1,175.25 348.9,178.65 524.4,10.25 175.5,-168.4 350.9,-339.7 526.2,-513.7 175.3,-174 350.6,-350.9 525.75,-530.55 175.15,-179.65 349.85,-181.85 523.95,-6.65 62.5683,62.9636 125.1495,125.9402 187.7344,188.9204 m 686.6606,691.0428 c 56.7933,57.1516 113.5938,114.2995 170.405,171.4368 174.1,175.2 260.7,409.8 259.75,703.7 -0.95,293.8 11.352,587.7 10.402,881.6" id="path48-0" class=""/><text xml:space="preserve" style="font-size:136.063px;line-height:1;font-family:'Roboto Condensed';-inkscape-font-specification:'Roboto Condensed, ';text-align:center;letter-spacing:0px;word-spacing:1.07px;writing-mode:lr-tb;direction:ltr;text-anchor:middle;fill:#b10dc9;stroke:#b10dc9;stroke-width:20.6551;stroke-miterlimit:3.6" x="189.74916" y="270.55801" id="text1" class=""><tspan sodipodi:role="line" id="tspan1" style="fill:#aaaaaa;stroke:none;stroke-width:20.6551" x="189.74916" y="270.55801" class="">#</tspan></text><text xml:space="preserve" style="font-size:136.063px;line-height:1;font-family:'Roboto Condensed';-inkscape-font-specification:'Roboto Condensed, ';text-align:center;letter-spacing:0px;word-spacing:1.07px;writing-mode:lr-tb;direction:ltr;text-anchor:middle;fill:#b10dc9;stroke:#b10dc9;stroke-width:20.6551;stroke-miterlimit:3.6" x="442.59064" y="267.83411" id="text1-2" class=""><tspan sodipodi:role="line" id="tspan1-6" style="fill:#aaaaaa;stroke:none;stroke-width:20.6551" x="442.59064" y="267.83411" class="">=</tspan></text></g>
</svg>
