<svg xmlns="http://www.w3.org/2000/svg" xml:space="preserve" viewBox="0 0 3899.396 1091.997"><path fill="none" stroke="#ffb86c" stroke-linecap="round" stroke-linejoin="round" stroke-width="28" d="M529.414 906.96c376.327 375.952 878.391-734.906-214.313-574.923l-11.073 1.693m-83.12 12.678c-543.717 82.903 154.314 1368.29 493.57 36.05m23.468-80.657.617-2.12c114.199-430.126-897.89-465.851-274.965 533.305 2.536 3.035 5.646 6.715 9.143 10.815" style="clip-rule:evenodd;fill-rule:nonzero;stroke:#ff851b;stroke-linecap:butt;stroke-linejoin:round;stroke-miterlimit:10" transform="translate(-6.461 46.938)"/><path d="M505.367-.426c-34.025-.36-68.148 5.365-100.107 17.72-85.225 32.95-153.74 114.954-159.424 249.769-.998 23.664-.127 48.947 2.834 75.909l28.225-.17c-3.115-26.773-4.052-51.609-3.084-74.56C279.126 142.184 339.698 72.66 415.355 43.41c75.658-29.25 167.718-16.32 232.811 29.113 65.08 45.425 104.07 121.01 76.879 223.508l-.541 1.856 26.883 7.828.619-2.121q.045-.16.088-.32c29.878-112.536-14.814-202.695-87.903-253.71C618.511 17.68 562.076.175 505.367-.426m-3.75 302.662c-56.998.762-119.714 5.872-188.545 15.95l-.088.011-11.072 1.694 4.233 27.677 11.064-1.69.008-.001c176.556-25.84 310.027-17.994 408.268 10.67l7.409-27.118c-63.54-18.502-140.09-28.411-231.277-27.193" style="baseline-shift:baseline;clip-rule:evenodd;display:inline;overflow:visible;opacity:1;vector-effect:none;fill:#01ff70;stroke-linejoin:round;stroke-miterlimit:10;stop-color:#000;stop-opacity:1" transform="translate(1107.778 .442)"/><path d="M248.67 342.972c13.907 126.634 73.928 290.314 203.049 497.42q.514.825 1.136 1.57c2.576 3.083 5.712 6.795 9.235 10.925l21.303-18.172c-3.223-3.779-6.008-7.08-8.403-9.94-126.304-202.765-184.119-361.86-198.095-481.973Zm270.85 573.891c393.449 393.058 0 0 0 0M218.799 332.568c-70.85 10.803-123.138 41.836-157.649 85.104S9.933 515.742 6.96 573.645C1.011 689.45 48.89 818.774 126.182 904.486c38.645 42.857 84.972 74.91 136.351 87.48 51.38 12.572 107.57 4.933 162.672-29.58 28.186-17.653 56.19-42.092 83.685-74.29l-18.17-22.434c-26.971 32.502-53.957 56.447-80.376 72.994-49.55 31.034-96.72 36.986-141.156 26.114-44.438-10.873-86.384-39.3-122.213-79.034C75.315 806.27 29.432 681.97 34.922 575.08c2.745-53.444 18.057-102.258 48.119-139.95 30.062-37.69 74.9-64.959 139.979-74.882Z" style="baseline-shift:baseline;clip-rule:evenodd;display:inline;overflow:visible;opacity:1;vector-effect:none;fill:#616161aaa;stroke-linejoin:round;stroke-miterlimit:10;stop-color:#000;stop-opacity:1" transform="translate(1107.778 .442)"/><path d="M725.485 356.547c52.54 15.33 95.003 36.614 128.591 61.885 96.405 72.53 122.57 178.33 105.268 279.699-17.303 101.368-79.573 196.85-158.09 243.037s-171.403 46.338-261.945-44.113l-19.79 19.808c97.622 97.525 208.617 99.802 295.932 48.44S968.28 812.196 986.945 702.842 975.931 475.069 870.91 396.057c-36.762-27.659-82.405-50.434-138.016-66.628ZM508.89 888.095c80.01-93.694 155.723-253.09 219.155-502.183l-27.135-6.91c-61.898 243.07-135.99 397.245-210.19 486.66Z" style="baseline-shift:baseline;clip-rule:evenodd;display:inline;overflow:visible;opacity:1;vector-effect:none;fill:#616161aaa;stroke-linejoin:round;stroke-miterlimit:10;stop-color:#000;stop-opacity:1" transform="translate(1107.778 .442)"/><path d="M808.219-689.32a60 60 0 0 1-60 60 60 60 0 0 1-60-60 60 60 0 0 1 60-60 60 60 0 0 1 60 60M1274.626-689.219a60 60 0 0 1-60 60 60 60 0 0 1-60-60 60 60 0 0 1 60-60 60 60 0 0 1 60 60M1045.242-155.329a60 60 0 0 1-60 60 60 60 0 0 1-60-60 60 60 0 0 1 60-60 60 60 0 0 1 60 60" style="fill:#ff4136;stroke-width:17.8387;stroke-linecap:round;stroke-linejoin:round;stroke-dasharray:17.8387,35.6773;paint-order:stroke fill markers" transform="translate(622.342 1032.649)"/><path d="M3769.73 121.804c-70.322-13.824-130.03-2.328-177.15 26.7-47.123 29.027-81.399 74.935-103.802 128.41-44.807 106.952-43.543 244.849.162 351.669 21.852 53.41 54.59 99.255 98.678 128.48s99.546 41.062 163.08 27.246c32.498-7.068 67.122-20.582 103.896-41.569l-9.501-27.26c-36.383 21.45-69.883 34.844-100.344 41.468-57.131 12.424-103.53 2.054-141.661-23.223s-67.975-66.227-88.235-115.745c-40.52-99.035-41.607-231.53-.25-330.247 20.679-49.358 51.614-90.104 92.662-115.39s92.47-35.763 157.065-23.065z" style="baseline-shift:baseline;clip-rule:evenodd;display:inline;overflow:visible;vector-effect:none;fill:#616161aaa;stroke-linejoin:round;stroke-miterlimit:10;stop-color:#000" transform="translate(-1227.185 109.462)"/><path d="M3806.101 156.796c53.852-9.762 101.351-9.695 142.692-2.096 118.654 21.81 189.337 104.77 219.152 203.187s16.772 211.661-32.833 288.065-132.635 118.044-254.052 77.58l-8.853 26.564c130.911 43.627 231.227-3.931 286.39-88.896s68.31-205.26 36.146-311.431-111.63-198.849-240.888-222.608c-45.247-8.317-96.257-8.298-153.244 2.064zm43.742 572.314c29.713-119.572 26.224-296.002-28.331-547.188l-27.363 5.943c53.236 245.112 55.843 416.148 29.416 529.294z" style="baseline-shift:baseline;clip-rule:evenodd;display:inline;overflow:visible;vector-effect:none;fill:#01ff70;stroke-linejoin:round;stroke-miterlimit:10;stop-color:#000" transform="translate(-1227.185 109.462)"/><path d="M3857.033 116.2a60 60 0 0 1-26.867 80.488 60 60 0 0 1-80.487-26.868 60 60 0 0 1 26.867-80.487 60 60 0 0 1 80.487 26.868M3912.493 710.112a60 60 0 0 1-60 60 60 60 0 0 1-60-60 60 60 0 0 1 60-60 60 60 0 0 1 60 60" style="fill:#ff4136;stroke-width:17.8387;stroke-linecap:round;stroke-linejoin:round;stroke-dasharray:17.8387,35.6773;paint-order:stroke fill markers" transform="translate(-1227.185 109.462)"/><path d="M4833.368 834.294c2.06-117.881 190.81-251.814 294.554-195.804 118.82 64.15 117.872 343.74-2.42 405.085-106.712 54.42-294.229-89.512-292.135-209.281" style="fill:none;stroke:#616161aaa;stroke-width:20;stroke-linecap:round;stroke-linejoin:round;stroke-dasharray:none;paint-order:stroke fill markers" transform="translate(-1326.988 -294.384)"/><path d="M4833.368 834.294c-2.062-117.881-190.81-251.814-294.555-195.804-118.82 64.15-117.872 343.74 2.42 405.085 106.712 54.42 294.229-89.512 292.135-209.281" style="fill:none;stroke:#616161aaa;stroke-width:20;stroke-linecap:round;stroke-linejoin:round;stroke-dasharray:none;paint-order:stroke fill markers" transform="translate(-1326.988 -294.384)"/><path d="M4893.368 834.294a60 60 0 0 1-60 60 60 60 0 0 1-60-60 60 60 0 0 1 60-60 60 60 0 0 1 60 60" style="fill:#ff4136;stroke-width:17.8387;stroke-linecap:round;stroke-linejoin:round;stroke-dasharray:17.8387,35.6773;paint-order:stroke fill markers" transform="translate(-1326.988 -294.384)"/></svg>