<?xml version="1.0" encoding="UTF-8" standalone="no"?>
<svg
   xml:space="preserve"
   viewBox="0 0 725.664 545.739"
   version="1.1"
   id="svg5"
   sodipodi:docname="fig-6starstar.svg"
   inkscape:version="1.4.2 (ebf0e940d0, 2025-05-08)"
   xmlns:inkscape="http://www.inkscape.org/namespaces/inkscape"
   xmlns:sodipodi="http://sodipodi.sourceforge.net/DTD/sodipodi-0.dtd"
   xmlns="http://www.w3.org/2000/svg"
   xmlns:svg="http://www.w3.org/2000/svg">
  <defs
   id="defs5" />
  <sodipodi:namedview
   id="namedview5"
   pagecolor="#ffffff"
   bordercolor="#000000"
   borderopacity="0.25"
   inkscape:showpageshadow="2"
   inkscape:pageopacity="0.0"
   inkscape:pagecheckerboard="0"
   inkscape:deskcolor="#d1d1d1"
   inkscape:zoom="1.2398309"
   inkscape:cx="335.52963"
   inkscape:cy="156.06967"
   inkscape:window-width="2234"
   inkscape:window-height="1418"
   inkscape:window-x="0"
   inkscape:window-y="0"
   inkscape:window-maximized="1"
   inkscape:current-layer="svg5" />
  <path
   d="M108.62 91.952c9.787-17.517 34.402-16.586 45.282-.245M137.071 172.223c9.787 17.517 34.402 16.586 45.282.245M65.944 172.468c9.787 17.517 34.402 16.586 45.282.245"
   style="fill:none;stroke:#616161;stroke-width:3.5;stroke-linecap:butt;stroke-linejoin:miter;stroke-dasharray:none;stroke-opacity:1"
   transform="translate(-24.167 -171.9)scale(3.17509)"
   id="path1" />
  <path
   d="M42.153 175.411c-31.908 47.93 197.505 45.037 163.5-1.962M13.98 90.53c-31.91-47.93 197.504-45.036 163.5 1.963"
   style="fill:none;stroke:#616161;stroke-width:3.5;stroke-linecap:butt;stroke-linejoin:miter;stroke-dasharray:none;stroke-opacity:1"
   transform="translate(-24.167 -171.9)scale(3.17509)"
   id="path2" />
  <path
   d="M18.449 122.172c-36.735 73.914 65.024 112.695 133.516 99.557 62.893-12.063 91.593-37.156 79.896-62.4-2.392-5.164-13.04-10.374-20.248-5.067M38.258 90.981c9.787-17.517 34.402-16.586 45.282-.245"
   style="fill:none;stroke:#616161;stroke-width:3.5;stroke-linecap:butt;stroke-linejoin:miter;stroke-dasharray:none;stroke-opacity:1"
   transform="translate(-24.167 -171.9)scale(3.17509)"
   id="path3" />
  <path
   d="M37.88 116.501c-4.44 17.026 10.856 7.511 13.397 28.696M106.294 114.545c-4.438 17.026 10.857 7.51 13.397 28.696M82.332 115.526c2.722 22.177-17.969 12.907-17.567 32.866M151.908 112.678c2.722 22.177-17.969 12.907-17.566 32.865M174.479 116.507c-4.439 17.026 10.856 7.51 13.397 28.696"
   style="fill:none;stroke:#616161;stroke-width:3.5;stroke-linecap:butt;stroke-linejoin:miter;stroke-dasharray:none;stroke-opacity:1"
   transform="translate(-24.167 -171.9)scale(3.17509)"
   id="path4" />
  <path
   d="M114.692 104.181a20 20 0 0 1-20 20 20 20 0 0 1-20-20 20 20 0 0 1 20-20 20 20 0 0 1 20 20M214.148 161.819a20 20 0 0 1-20 20 20 20 0 0 1-20-20 20 20 0 0 1 20-20 20 20 0 0 1 20 20M144.124 161.819a20 20 0 0 1-20 20 20 20 0 0 1-20-20 20 20 0 0 1 20-20 20 20 0 0 1 20 20M74.1 161.819a20 20 0 0 1-20 20 20 20 0 0 1-20-20 20 20 0 0 1 20-20 20 20 0 0 1 20 20M47.611 104.181a20 20 0 0 1-20 20 20 20 0 0 1-20-20 20 20 0 0 1 20-20 20 20 0 0 1 20 20M181.772 104.181a20 20 0 0 1-20 20 20 20 0 0 1-20-20 20 20 0 0 1 20-20 20 20 0 0 1 20 20"
   style="fill:#ff4136;stroke-width:4.23111;stroke-linecap:round;stroke-linejoin:round;stroke-dashoffset:130.744;paint-order:stroke markers fill"
   transform="translate(-24.167 -171.9)scale(3.17509)"
   id="path5" />
<g
   id="svg5-75"
   transform="matrix(-0.52739488,0,0,-0.52739488,432.21181,151.01336)"><g
     id="svg5-2-9"
     transform="translate(318.52307,30.276743)"><path
       sodipodi:type="star"
       style="fill:#0074d9;stroke-width:0.265;stroke-linejoin:round;paint-order:stroke fill markers"
       id="path6-6-2"
       inkscape:flatsided="false"
       sodipodi:sides="3"
       sodipodi:cx="0"
       sodipodi:cy="0"
       sodipodi:r1="480.89066"
       sodipodi:r2="240.44533"
       sodipodi:arg1="0"
       sodipodi:arg2="1.0471976"
       inkscape:rounded="0"
       inkscape:randomized="0"
       d="m 480.89066,0 -360.66801,208.23177 -360.66798,208.23175 0,-416.46353173455 0,-416.46350826545 360.668,208.23176 z"
       transform="matrix(0,-0.14465682,0.14465682,0,183.55724,-87.732307)"
       inkscape:transform-center-y="-17.391028"
       inkscape:transform-center-x="-2.9202821e-06" /></g></g><g
   id="svg5-2"
   transform="translate(216.58496)"><g
     id="svg5-75-8"
     transform="matrix(-0.52739488,0,0,-0.52739488,432.21181,151.01336)"><g
       id="svg5-2-9-9"
       transform="translate(318.52307,30.276743)"><path
         sodipodi:type="star"
         style="fill:#0074d9;stroke-width:0.265;stroke-linejoin:round;paint-order:stroke fill markers"
         id="path6-6-2-7"
         inkscape:flatsided="false"
         sodipodi:sides="3"
         sodipodi:cx="0"
         sodipodi:cy="0"
         sodipodi:r1="480.89066"
         sodipodi:r2="240.44533"
         sodipodi:arg1="0"
         sodipodi:arg2="1.0471976"
         inkscape:rounded="0"
         inkscape:randomized="0"
         d="m 480.89066,0 -360.66801,208.23177 -360.66798,208.23175 0,-416.46353173455 0,-416.46350826545 360.668,208.23176 z"
         transform="matrix(0,-0.14465682,0.14465682,0,183.55724,-87.732307)"
         inkscape:transform-center-y="-17.391028"
         inkscape:transform-center-x="-2.9202821e-06" /></g></g></g><g
   id="svg5-7"
   transform="translate(-104.40393,-135.9589)"><g
     id="svg5-2-8"
     transform="translate(216.58496)"><g
       id="svg5-75-8-4"
       transform="matrix(-0.52739488,0,0,-0.52739488,432.21181,151.01336)"><g
         id="svg5-2-9-9-5"
         transform="translate(318.52307,30.276743)"><path
           sodipodi:type="star"
           style="fill:#0074d9;stroke-width:0.265;stroke-linejoin:round;paint-order:stroke fill markers"
           id="path6-6-2-7-0"
           inkscape:flatsided="false"
           sodipodi:sides="3"
           sodipodi:cx="0"
           sodipodi:cy="0"
           sodipodi:r1="480.89066"
           sodipodi:r2="240.44533"
           sodipodi:arg1="0"
           sodipodi:arg2="1.0471976"
           inkscape:rounded="0"
           inkscape:randomized="0"
           d="m 480.89066,0 -360.66801,208.23177 -360.66798,208.23175 0,-416.46353173455 0,-416.46350826545 360.668,208.23176 z"
           transform="matrix(0,-0.14465682,0.14465682,0,183.55724,-87.732307)"
           inkscape:transform-center-y="-17.391028"
           inkscape:transform-center-x="-2.9202821e-06" /></g></g></g></g><g
   id="svg5-36"
   transform="rotate(180,327.07909,248.54928)"><g
     id="svg5-7-1"
     transform="translate(-104.40393,-135.9589)"><g
       id="svg5-2-8-0"
       transform="translate(216.58496)"><g
         id="svg5-75-8-4-6"
         transform="matrix(-0.52739488,0,0,-0.52739488,432.21181,151.01336)"><g
           id="svg5-2-9-9-5-3"
           transform="translate(318.52307,30.276743)"><path
             sodipodi:type="star"
             style="fill:#0074d9;stroke-width:0.265;stroke-linejoin:round;paint-order:stroke fill markers"
             id="path6-6-2-7-0-2"
             inkscape:flatsided="false"
             sodipodi:sides="3"
             sodipodi:cx="0"
             sodipodi:cy="0"
             sodipodi:r1="480.89066"
             sodipodi:r2="240.44533"
             sodipodi:arg1="0"
             sodipodi:arg2="1.0471976"
             inkscape:rounded="0"
             inkscape:randomized="0"
             d="m 480.89066,0 -360.66801,208.23177 -360.66798,208.23175 0,-416.46353173455 0,-416.46350826545 360.668,208.23176 z"
             transform="matrix(0,-0.14465682,0.14465682,0,183.55724,-87.732307)"
             inkscape:transform-center-y="-17.391028"
             inkscape:transform-center-x="-2.9202821e-06" /></g></g></g></g></g><g
   id="svg5-0"
   transform="rotate(-138.87246,189.41356,425.33952)"><g
     id="svg5-36-6"
     transform="rotate(180,327.07909,248.54928)"><g
       id="svg5-7-1-1"
       transform="translate(-104.40393,-135.9589)"><g
         id="svg5-2-8-0-5"
         transform="translate(216.58496)"><g
           id="svg5-75-8-4-6-5"
           transform="matrix(-0.52739488,0,0,-0.52739488,432.21181,151.01336)"><g
             id="svg5-2-9-9-5-3-4"
             transform="translate(318.52307,30.276743)"><path
               sodipodi:type="star"
               style="fill:#0074d9;stroke-width:0.265;stroke-linejoin:round;paint-order:stroke fill markers"
               id="path6-6-2-7-0-2-7"
               inkscape:flatsided="false"
               sodipodi:sides="3"
               sodipodi:cx="0"
               sodipodi:cy="0"
               sodipodi:r1="480.89066"
               sodipodi:r2="240.44533"
               sodipodi:arg1="0"
               sodipodi:arg2="1.0471976"
               inkscape:rounded="0"
               inkscape:randomized="0"
               d="m 480.89066,0 -360.66801,208.23177 -360.66798,208.23175 0,-416.46353173455 0,-416.46350826545 360.668,208.23176 z"
               transform="matrix(0,-0.14465682,0.14465682,0,183.55724,-87.732307)"
               inkscape:transform-center-y="-17.391028"
               inkscape:transform-center-x="-2.9202821e-06" /></g></g></g></g></g></g><g
   id="svg5-3"
   transform="rotate(178.92805,323.24841,248.60396)"><g
     id="svg5-75-6"
     transform="matrix(-0.52739488,0,0,-0.52739488,432.21181,151.01336)"><g
       id="svg5-2-9-1"
       transform="translate(318.52307,30.276743)"><path
         sodipodi:type="star"
         style="fill:#0074d9;stroke-width:0.265;stroke-linejoin:round;paint-order:stroke fill markers"
         id="path6-6-2-2"
         inkscape:flatsided="false"
         sodipodi:sides="3"
         sodipodi:cx="0"
         sodipodi:cy="0"
         sodipodi:r1="480.89066"
         sodipodi:r2="240.44533"
         sodipodi:arg1="0"
         sodipodi:arg2="1.0471976"
         inkscape:rounded="0"
         inkscape:randomized="0"
         d="m 480.89066,0 -360.66801,208.23177 -360.66798,208.23175 0,-416.46353173455 0,-416.46350826545 360.668,208.23176 z"
         transform="matrix(0,-0.14465682,0.14465682,0,183.55724,-87.732307)"
         inkscape:transform-center-y="-17.391028"
         inkscape:transform-center-x="-2.9202821e-06" /></g></g><g
     id="svg5-2-93"
     transform="translate(216.58496)"><g
       id="svg5-75-8-1"
       transform="matrix(-0.52739488,0,0,-0.52739488,432.21181,151.01336)"><g
         id="svg5-2-9-9-9"
         transform="translate(318.52307,30.276743)"><path
           sodipodi:type="star"
           style="fill:#0074d9;stroke-width:0.265;stroke-linejoin:round;paint-order:stroke fill markers"
           id="path6-6-2-7-4"
           inkscape:flatsided="false"
           sodipodi:sides="3"
           sodipodi:cx="0"
           sodipodi:cy="0"
           sodipodi:r1="480.89066"
           sodipodi:r2="240.44533"
           sodipodi:arg1="0"
           sodipodi:arg2="1.0471976"
           inkscape:rounded="0"
           inkscape:randomized="0"
           d="m 480.89066,0 -360.66801,208.23177 -360.66798,208.23175 0,-416.46353173455 0,-416.46350826545 360.668,208.23176 z"
           transform="matrix(0,-0.14465682,0.14465682,0,183.55724,-87.732307)"
           inkscape:transform-center-y="-17.391028"
           inkscape:transform-center-x="-2.9202821e-06" /></g></g></g></g></svg>
