<?xml version="1.0" encoding="UTF-8" standalone="no"?>
<svg
   xml:space="preserve"
   viewBox="0 0 991.69724 961.64181"
   version="1.1"
   id="svg723"
   sodipodi:docname="fig-other_nonminimal.svg"
   inkscape:version="1.4.2 (ebf0e940d0, 2025-05-08)"
   width="991.69727"
   height="961.64178"
   xmlns:inkscape="http://www.inkscape.org/namespaces/inkscape"
   xmlns:sodipodi="http://sodipodi.sourceforge.net/DTD/sodipodi-0.dtd"
   xmlns="http://www.w3.org/2000/svg"
   xmlns:svg="http://www.w3.org/2000/svg"><defs
     id="defs723"><inkscape:path-effect
       effect="knot"
       id="path-effect917"
       is_visible="true"
       lpeversion="1"
       switcher_size="15"
       interruption_width="4.6"
       prop_to_stroke_width="true"
       add_stroke_width="inkscape_1.0_and_up"
       both="false"
       inverse_width="false"
       add_other_stroke_width="inkscape_1.0_and_up"
       crossing_points_vector="2786.1441 | 1444.8178 | 0 | 1 | 0 | 0 | 0.50662643 | 0.4931671 | -1" /><inkscape:path-effect
       effect="knot"
       id="path-effect915"
       is_visible="true"
       lpeversion="1"
       switcher_size="15"
       interruption_width="4.6"
       prop_to_stroke_width="true"
       add_stroke_width="inkscape_1.0_and_up"
       both="false"
       inverse_width="false"
       add_other_stroke_width="inkscape_1.0_and_up"
       crossing_points_vector="2786.1441 | 1444.8178 | 0 | 1 | 0 | 0 | 0.50662643 | 0.4931671 | 1" /><inkscape:path-effect
       effect="knot"
       id="path-effect913"
       is_visible="true"
       lpeversion="1"
       switcher_size="15"
       interruption_width="4.6"
       prop_to_stroke_width="true"
       add_stroke_width="inkscape_1.0_and_up"
       both="false"
       inverse_width="false"
       add_other_stroke_width="inkscape_1.0_and_up"
       crossing_points_vector="2786.1441 | 1444.8178 | 0 | 1 | 0 | 0 | 0.50662643 | 0.4931671 | 1" /><inkscape:path-effect
       effect="knot"
       id="path-effect911"
       is_visible="true"
       lpeversion="1"
       switcher_size="15"
       interruption_width="4.6"
       prop_to_stroke_width="true"
       add_stroke_width="inkscape_1.0_and_up"
       both="false"
       inverse_width="false"
       add_other_stroke_width="inkscape_1.0_and_up"
       crossing_points_vector="2786.1441 | 1444.8178 | 0 | 1 | 0 | 0 | 0.50662643 | 0.4931671 | -1" /><inkscape:path-effect
       effect="knot"
       id="path-effect901"
       is_visible="true"
       lpeversion="1"
       switcher_size="15"
       interruption_width="3"
       prop_to_stroke_width="true"
       add_stroke_width="inkscape_1.0_and_up"
       both="false"
       inverse_width="false"
       add_other_stroke_width="inkscape_1.0_and_up"
       crossing_points_vector="543.52774 | 489.86353 | 0 | 3 | 0 | 1 | 0.67033273 | 5.4938217 | 1 | 381.68679 | 561.89111 | 0 | 1 | 1 | 0 | 1.202004 | 1.7620235 | -1 | 662.7419 | 714.32762 | 1 | 2 | 1 | 0 | 3.6642514 | 0.39516291 | 1 | 300.83702 | 278.12562 | 3 | 7 | 0 | 0 | 3.9254246 | 1.4891778 | 1" /><inkscape:path-effect
       effect="knot"
       id="path-effect842"
       is_visible="true"
       lpeversion="1"
       switcher_size="15"
       interruption_width="3"
       prop_to_stroke_width="true"
       add_stroke_width="inkscape_1.0_and_up"
       both="false"
       inverse_width="false"
       add_other_stroke_width="inkscape_1.0_and_up"
       crossing_points_vector="457.4385 | 417.99394 | 0 | 1 | 1 | 0 | 0.73989898 | 2.3440832 | -1 | 561.59751 | 428.62263 | 0 | 3 | 0 | 1 | 0.42489886 | 5.5780152 | 1 | 661.11712 | 714.83534 | 1 | 2 | 1 | 0 | 5.6578861 | 0.39109752 | 1 | 276.78446 | 245.511 | 3 | 7 | 0 | 0 | 3.9044233 | 1.5346015 | 1" /><inkscape:path-effect
       effect="knot"
       id="path-effect811"
       is_visible="true"
       lpeversion="1"
       switcher_size="15"
       interruption_width="3"
       prop_to_stroke_width="true"
       add_stroke_width="inkscape_1.0_and_up"
       both="false"
       inverse_width="false"
       add_other_stroke_width="inkscape_1.0_and_up"
       crossing_points_vector="457.4385 | 417.99394 | 0 | 1 | 1 | 0 | 0.73989898 | 2.3440832 | -1 | 561.59751 | 428.62263 | 0 | 3 | 0 | 1 | 0.42489886 | 5.5780152 | 1 | 661.11712 | 714.83534 | 1 | 2 | 1 | 0 | 5.6578861 | 0.39109752 | 1 | 276.78446 | 245.511 | 3 | 7 | 0 | 0 | 3.9044233 | 1.5346015 | 1" /><inkscape:path-effect
       effect="knot"
       id="path-effect763"
       is_visible="true"
       lpeversion="1"
       switcher_size="15"
       interruption_width="4.4"
       prop_to_stroke_width="true"
       add_stroke_width="inkscape_1.0_and_up"
       both="false"
       inverse_width="false"
       add_other_stroke_width="inkscape_1.0_and_up"
       crossing_points_vector="" /><inkscape:path-effect
       effect="knot"
       id="path-effect761"
       is_visible="true"
       lpeversion="1"
       switcher_size="15"
       interruption_width="4.4"
       prop_to_stroke_width="true"
       add_stroke_width="inkscape_1.0_and_up"
       both="false"
       inverse_width="false"
       add_other_stroke_width="inkscape_1.0_and_up"
       crossing_points_vector="" /><inkscape:path-effect
       effect="knot"
       id="path-effect725"
       is_visible="true"
       lpeversion="1"
       switcher_size="15"
       interruption_width="4.4"
       prop_to_stroke_width="true"
       add_stroke_width="inkscape_1.0_and_up"
       both="false"
       inverse_width="false"
       add_other_stroke_width="inkscape_1.0_and_up"
       crossing_points_vector="603.28718 | 304.43519 | 0 | 1 | 0 | 0 | 0.55727134 | 0.50005759 | 1" /><inkscape:path-effect
       effect="knot"
       id="path-effect725-3"
       is_visible="true"
       lpeversion="1"
       switcher_size="15"
       interruption_width="4.4"
       prop_to_stroke_width="true"
       add_stroke_width="inkscape_1.0_and_up"
       both="false"
       inverse_width="false"
       add_other_stroke_width="inkscape_1.0_and_up"
       crossing_points_vector="603.28718 | 304.43519 | 0 | 1 | 0 | 0 | 0.55727134 | 0.50005759 | 1" /></defs><sodipodi:namedview
     id="namedview723"
     pagecolor="#ffffff"
     bordercolor="#000000"
     borderopacity="0.25"
     inkscape:showpageshadow="2"
     inkscape:pageopacity="0.0"
     inkscape:pagecheckerboard="0"
     inkscape:deskcolor="#d1d1d1"
     showgrid="true"
     inkscape:zoom="0.87741188"
     inkscape:cx="463.86424"
     inkscape:cy="707.19352"
     inkscape:window-width="2254"
     inkscape:window-height="1502"
     inkscape:window-x="0"
     inkscape:window-y="0"
     inkscape:window-maximized="1"
     inkscape:current-layer="layer3"
     showguides="true"><sodipodi:guide
       position="274.58588,-114.51296"
       orientation="0,-1"
       id="guide848"
       inkscape:locked="false" /><sodipodi:guide
       position="513.22609,-92.944288"
       orientation="0,-1"
       id="guide849"
       inkscape:locked="false" /><sodipodi:guide
       position="157.50848,-110.49084"
       orientation="1,0"
       id="guide850"
       inkscape:locked="false" /><sodipodi:guide
       position="256.94678,-110.49084"
       orientation="1,0"
       id="guide851"
       inkscape:locked="false" /><sodipodi:guide
       position="376.87708,-114.51296"
       orientation="1,0"
       id="guide852"
       inkscape:locked="false" /><sodipodi:guide
       position="474.34179,-114.51296"
       orientation="1,0"
       id="guide853"
       inkscape:locked="false" /><sodipodi:guide
       position="316.91188,-114.51294"
       orientation="1,0"
       id="guide854"
       inkscape:locked="false" /><sodipodi:guide
       position="577.42969,318.79637"
       orientation="1,0"
       id="guide917"
       inkscape:locked="false" /><inkscape:grid
       id="grid20"
       units="px"
       originx="-3348.6525"
       originy="-44.815477"
       spacingx="0.99999998"
       spacingy="1"
       empcolor="#0099e5"
       empopacity="0.30196078"
       color="#0099e5"
       opacity="0.14901961"
       empspacing="5"
       enabled="true"
       visible="true" /><sodipodi:guide
       position="-778.65256,674.15215"
       orientation="0,-1"
       id="guide20"
       inkscape:locked="false" /><sodipodi:guide
       position="-778.65256,602.15216"
       orientation="0,-1"
       id="guide21"
       inkscape:locked="false" /><sodipodi:guide
       position="-700.65256,624.47474"
       orientation="1,0"
       id="guide22"
       inkscape:locked="false" /><sodipodi:guide
       position="-700.65256,674.15216"
       orientation="1,0"
       id="guide23"
       inkscape:locked="false" /><sodipodi:guide
       position="-739.81886,674.15216"
       orientation="1,0"
       id="guide24"
       inkscape:locked="false" /><sodipodi:guide
       position="-739.81886,704.49156"
       orientation="0,-1"
       id="guide25"
       inkscape:locked="false" /><sodipodi:guide
       position="248.02528,440.10983"
       orientation="0,-1"
       id="guide37"
       inkscape:locked="false" /><sodipodi:guide
       position="520.36459,527.673"
       orientation="0,-1"
       id="guide40"
       inkscape:locked="false" /><sodipodi:guide
       position="786.83119,530.87455"
       orientation="1,0"
       id="guide41"
       inkscape:locked="false" /><sodipodi:guide
       position="520.36459,527.673"
       orientation="1,0"
       id="guide42"
       inkscape:locked="false" /><sodipodi:guide
       position="247.67968,440.10983"
       orientation="1,0"
       id="guide43"
       inkscape:locked="false" /></sodipodi:namedview><g
     inkscape:groupmode="layer"
     id="layer3"
     inkscape:label="Layer 3"
     style="display:inline"
     transform="translate(-2360.5583,-46.980501)"><path
       style="fill:none;stroke:#ff851b;stroke-width:9.50929;stroke-dasharray:none"
       d="m 3154.5075,187.25357 c -28.712,29.648 -685.46,-210.850007 -563.177,67.213"
       id="path807" /><path
       style="fill:none;stroke:#ff851b;stroke-width:9.50929;stroke-dasharray:none"
       d="m 3270.9405,214.38457 c 56.725,77.16 -20.392,51.217 -107.166,35.836 -44.925,-7.963 -94.152,-65.934 -125.874,-16.07"
       id="path2" /><path
       style="fill:none;stroke:#ff851b;stroke-width:9.50929;stroke-dasharray:none"
       d="m 3284.5805,129.39456 c 123.983,-38.251997 39.817,565.58001 -39.927,743.59301 -33.98,75.856 -163.635,113.898 -204.369,66.49"
       id="path816" /><path
       style="fill:none;stroke:#ff851b;stroke-width:9.50929;stroke-dasharray:none"
       d="m 3179.1095,107.07856 c -45.706,-98.612997 -597.725,-60.357998 -706.226,74.49501 -243.925,303.168 -12.108,867.40303 100.136,727.741"
       id="path814" /><path
       fill="#44475a"
       stroke="#44475a"
       stroke-linejoin="round"
       stroke-width="0.1"
       d="m 3144.7615,164.71257 c 0,-42.06501 34.101,-76.166007 76.166,-76.166007 42.065,0 76.166,34.099997 76.166,76.166007 0,42.066 -34.1,76.165 -76.166,76.165 -42.066,0 -76.166,-34.1 -76.166,-76.165 z"
       style="fill:#aaaaaa;stroke:#aaaaaa"
       id="path722" /><path
       d="m 3243.1925,164.71157 32.16,16.699 -12.987,22.265 -30.305,-19.173 1.855,35.871 h -25.976 l 1.856,-35.87 -30.305,19.172 -12.988,-22.265 31.542,-16.699 -31.542,-16.698 12.988,-22.26501 30.305,19.17201 -1.856,-35.87001 h 25.976 l -1.855,35.87001 30.305,-19.17201 12.987,22.26501 z"
       aria-label="✱"
       style="font-size:158.328px;-inkscape-font-specification:'sans-serif, Normal';fill:#ff851b;fill-opacity:1;stroke-width:13.194"
       id="path723" /><path
       fill="#44475a"
       stroke="#44475a"
       stroke-linejoin="round"
       stroke-width="0.084026"
       d="m 2502.3854,566.94215 c 0,-35.34553 28.6528,-63.99922 63.9992,-63.99922 35.3464,0 63.9984,28.65369 63.9984,63.99922 0,35.34552 -28.6529,63.99837 -63.9984,63.99837 -35.3455,0 -63.9992,-28.65285 -63.9992,-63.99837 z"
       style="fill:#aaaaaa;stroke:#aaaaaa"
       id="path1" /><path
       d="m 2532.6297,535.3094 h 67.5098"
       style="fill:none;fill-opacity:0.766511;stroke:#ff4136;stroke-width:7.26956;stroke-miterlimit:3.6;stroke-dasharray:none"
       id="path3" /><path
       d="M 2573.2968,602.20967 V 535.31012"
       style="fill:none;fill-opacity:0.766511;stroke:#ff4136;stroke-width:7.26962;stroke-miterlimit:3.6;stroke-dasharray:none"
       id="path4" /><path
       d="m 2559.4719,551.17041 v 51.03926"
       style="fill:none;fill-opacity:0.766511;stroke:#ff4136;stroke-width:6.79968;stroke-miterlimit:3.6;stroke-dasharray:none"
       id="path5" /><path
       fill="#44475a"
       stroke="#44475a"
       stroke-linejoin="round"
       stroke-width="0.084026"
       d="m 2681.3958,566.94214 c 0,-35.34552 28.6528,-63.99922 63.9992,-63.99922 35.3463,0 63.9984,28.6537 63.9984,63.99922 0,35.34552 -28.6529,63.99838 -63.9984,63.99838 -35.3455,0 -63.9992,-28.65286 -63.9992,-63.99838 z"
       style="display:inline;fill:#aaaaaa;stroke:#aaaaaa"
       id="path292-2" /><path
       d="m 2711.64,535.3094 h 67.5099"
       style="display:inline;fill:none;fill-opacity:0.766511;stroke:#ff4136;stroke-width:7.26956;stroke-miterlimit:3.6;stroke-dasharray:none"
       id="path729-7" /><path
       d="M 2752.3072,602.20966 V 535.31012"
       style="display:inline;fill:none;fill-opacity:0.766511;stroke:#ff4136;stroke-width:7.26962;stroke-miterlimit:3.6;stroke-dasharray:none"
       id="path730-0" /><path
       d="m 2738.4823,551.17041 v 51.03925"
       style="display:inline;fill:none;fill-opacity:0.766511;stroke:#ff4136;stroke-width:6.79968;stroke-miterlimit:3.6;stroke-dasharray:none"
       id="path731-9" /><path
       fill="#44475a"
       stroke="#44475a"
       stroke-linejoin="round"
       stroke-width="0.084026"
       d="m 2860.4061,566.94215 c 0,-35.34553 28.6528,-63.99922 63.9992,-63.99922 35.3464,0 63.9984,28.65369 63.9984,63.99922 0,35.34552 -28.6529,63.99837 -63.9984,63.99837 -35.3455,0 -63.9992,-28.65285 -63.9992,-63.99837 z"
       style="display:inline;fill:#aaaaaa;stroke:#aaaaaa"
       id="path1-6" /><path
       d="m 2890.6504,535.3094 h 67.5098"
       style="display:inline;fill:none;fill-opacity:0.766511;stroke:#ff4136;stroke-width:7.26956;stroke-miterlimit:3.6;stroke-dasharray:none"
       id="path3-0" /><path
       d="M 2931.3175,602.20967 V 535.31012"
       style="display:inline;fill:none;fill-opacity:0.766511;stroke:#ff4136;stroke-width:7.26962;stroke-miterlimit:3.6;stroke-dasharray:none"
       id="path4-6" /><path
       d="m 2917.4926,551.17041 v 51.03926"
       style="display:inline;fill:none;fill-opacity:0.766511;stroke:#ff4136;stroke-width:6.79968;stroke-miterlimit:3.6;stroke-dasharray:none"
       id="path5-2" /><path
       fill="#44475a"
       stroke="#44475a"
       stroke-linejoin="round"
       stroke-width="0.084026"
       d="m 3039.4165,566.94213 c 0,-35.34552 28.6529,-63.99921 63.9993,-63.99921 35.3463,0 63.9983,28.65369 63.9983,63.99921 0,35.34553 -28.6528,63.99838 -63.9983,63.99838 -35.3456,0 -63.9993,-28.65285 -63.9993,-63.99838 z"
       style="display:inline;fill:#aaaaaa;stroke:#aaaaaa"
       id="path1-6-4" /><path
       d="m 3069.6608,535.30939 h 67.5099"
       style="display:inline;fill:none;fill-opacity:0.766511;stroke:#ff4136;stroke-width:7.26956;stroke-miterlimit:3.6;stroke-dasharray:none"
       id="path3-0-5" /><path
       d="M 3110.328,602.20966 V 535.31011"
       style="display:inline;fill:none;fill-opacity:0.766511;stroke:#ff4136;stroke-width:7.26962;stroke-miterlimit:3.6;stroke-dasharray:none"
       id="path4-6-0" /><path
       d="m 3096.5031,551.1704 v 51.03926"
       style="display:inline;fill:none;fill-opacity:0.766511;stroke:#ff4136;stroke-width:6.79968;stroke-miterlimit:3.6;stroke-dasharray:none"
       id="path5-2-3" /><path
       fill="#44475a"
       stroke="#44475a"
       stroke-linejoin="round"
       stroke-width="0.084026"
       d="m 2591.8906,381.58648 c 0,-35.34553 28.6528,-63.99922 63.9992,-63.99922 35.3464,0 63.9984,28.65369 63.9984,63.99922 0,35.34552 -28.6529,63.99837 -63.9984,63.99837 -35.3455,0 -63.9992,-28.65285 -63.9992,-63.99837 z"
       style="display:inline;fill:#aaaaaa;stroke:#aaaaaa"
       id="path292-7" /><path
       fill="#44475a"
       stroke="#44475a"
       stroke-linejoin="round"
       stroke-width="0.084026"
       d="m 2770.9009,382.82484 c 0,-35.34552 28.6529,-63.99922 63.9993,-63.99922 35.3463,0 63.9983,28.6537 63.9983,63.99922 0,35.34552 -28.6528,63.99838 -63.9983,63.99838 -35.3456,0 -63.9993,-28.65286 -63.9993,-63.99838 z"
       style="display:inline;fill:#aaaaaa;stroke:#aaaaaa"
       id="path1-3" /><path
       fill="#44475a"
       stroke="#44475a"
       stroke-linejoin="round"
       stroke-width="0.084026"
       d="m 2591.8906,737.05943 c 0,-35.34553 28.6528,-63.99922 63.9992,-63.99922 35.3463,0 63.9984,28.65369 63.9984,63.99922 0,35.34552 -28.6529,63.99837 -63.9984,63.99837 -35.3455,0 -63.9992,-28.65285 -63.9992,-63.99837 z"
       style="display:inline;fill:#aaaaaa;stroke:#aaaaaa"
       id="path292-8" /><path
       fill="#44475a"
       stroke="#44475a"
       stroke-linejoin="round"
       stroke-width="0.084026"
       d="m 2770.9009,734.29779 c 0,-35.34552 28.6529,-63.99921 63.9992,-63.99921 35.3464,0 63.9984,28.65369 63.9984,63.99921 0,35.34553 -28.6528,63.99838 -63.9984,63.99838 -35.3455,0 -63.9992,-28.65285 -63.9992,-63.99838 z"
       style="display:inline;fill:#aaaaaa;stroke:#aaaaaa"
       id="path1-2" /><path
       style="fill:none;stroke:#ff851b;stroke-width:9.50929;stroke-linejoin:round;stroke-dasharray:none;paint-order:stroke fill markers"
       d="m 2874.4099,338.93363 c 50.1601,-57.82087 109.5729,-37.31379 168.0163,-111.04238"
       id="path23"
       sodipodi:nodetypes="cc" /><path
       style="display:inline;fill:none;stroke:#ff851b;stroke-width:9.50929;stroke-linejoin:round;stroke-dasharray:none;paint-order:stroke fill markers"
       d="m 3147.3894,609.10163 c 30.7219,47.94665 -118.1494,201.37418 -227.9849,238.87166 -122.2226,41.7264 -381.6545,-20.76695 -303.5352,-74.18551"
       id="path23-5"
       sodipodi:nodetypes="csc" /><path
       style="display:inline;fill:none;stroke:#ff851b;stroke-width:9.50929;stroke-linejoin:round;stroke-dasharray:none;paint-order:stroke fill markers"
       d="m 2608.5836,611.20735 c 47.125,49.70545 47.125,-138.34543 94.6536,-87.69146"
       id="path26-0"
       sodipodi:nodetypes="cc" /><path
       style="display:inline;fill:none;stroke:#ff851b;stroke-width:9.50929;stroke-linejoin:round;stroke-dasharray:none;paint-order:stroke fill markers"
       d="m 2786.2692,611.33564 c 47.125,49.70545 47.125,-138.34543 94.6536,-87.69146"
       id="path26-0-2"
       sodipodi:nodetypes="cc" /><path
       style="display:inline;fill:none;stroke:#7fdbff;stroke-width:9.50929;stroke-linejoin:round;stroke-dasharray:none;paint-order:stroke fill markers"
       d="m 2696.5138,423.78966 c 47.125,49.70545 47.125,-138.34543 94.6536,-87.69145"
       id="path26-0-2-4"
       sodipodi:nodetypes="cc" /><path
       style="display:inline;fill:none;stroke:#ff851b;stroke-width:9.50929;stroke-linejoin:round;stroke-dasharray:none;paint-order:stroke fill markers"
       d="m 2968.5597,610.17508 c 47.125,49.70545 47.125,-138.34543 94.6536,-87.69146"
       id="path26-0-1"
       sodipodi:nodetypes="cc" /><path
       style="display:inline;fill:none;stroke:#01ff70;stroke-width:9.50929;stroke-linejoin:round;stroke-dasharray:none;paint-order:stroke fill markers"
       d="m 2701.1928,773.78778 c 47.125,49.70545 47.125,-138.34543 94.6536,-87.69145"
       id="path26-0-1-5"
       sodipodi:nodetypes="cc" /><path
       style="display:inline;fill:none;stroke:#ff851b;stroke-width:9.50929;stroke-linejoin:round;stroke-dasharray:none;paint-order:stroke fill markers"
       d="m 2642.0007,396.7516 -25.9034,26.73596"
       id="path941" /><path
       style="display:inline;fill:none;stroke:#ff851b;stroke-width:9.50929;stroke-linejoin:round;stroke-dasharray:none;paint-order:stroke fill markers"
       d="m 2697.2799,339.69569 -24.794,25.59088"
       id="path940" /><path
       style="display:inline;fill:none;stroke:#7fdbff;stroke-width:9.50929;stroke-linejoin:round;stroke-dasharray:none;paint-order:stroke fill markers"
       d="M 2697.4915,424.39927 2618.048,338.77368"
       id="path912" /><path
       style="display:inline;fill:none;stroke:#ff851b;stroke-width:9.50929;stroke-linejoin:round;stroke-dasharray:none;paint-order:stroke fill markers"
       d="m 2819.1307,395.98954 -25.9034,26.73596"
       id="path26" /><path
       style="display:inline;fill:none;stroke:#ff851b;stroke-width:9.50929;stroke-linejoin:round;stroke-dasharray:none;paint-order:stroke fill markers"
       d="m 2874.4099,338.93363 -24.794,25.59088"
       id="path27" /><path
       style="display:inline;fill:none;stroke:#7fdbff;stroke-width:9.50929;stroke-linejoin:round;stroke-dasharray:none;paint-order:stroke fill markers"
       d="M 2874.6215,423.63721 2795.178,338.01162"
       id="path28" /><path
       style="display:inline;fill:none;stroke:#01ff70;stroke-width:9.50929;stroke-linejoin:round;stroke-dasharray:none;paint-order:stroke fill markers"
       d="m 2671.3601,746.14011 25.9034,26.73596"
       id="path29" /><path
       style="display:inline;fill:none;stroke:#01ff70;stroke-width:9.50929;stroke-linejoin:round;stroke-dasharray:none;paint-order:stroke fill markers"
       d="m 2616.0809,689.0842 24.794,25.59088"
       id="path30" /><path
       style="display:inline;fill:none;stroke:#ff851b;stroke-width:9.50929;stroke-linejoin:round;stroke-dasharray:none;paint-order:stroke fill markers"
       d="m 2615.8693,773.78778 79.4435,-85.62559"
       id="path31" /><path
       style="display:inline;fill:none;stroke:#01ff70;stroke-width:9.50929;stroke-linejoin:round;stroke-dasharray:none;paint-order:stroke fill markers"
       d="m 2850.6692,745.46292 25.9034,26.73596"
       id="path32" /><path
       style="display:inline;fill:none;stroke:#01ff70;stroke-width:9.50929;stroke-linejoin:round;stroke-dasharray:none;paint-order:stroke fill markers"
       d="m 2795.39,688.40701 24.794,25.59088"
       id="path33" /><path
       style="display:inline;fill:none;stroke:#ff851b;stroke-width:9.50929;stroke-linejoin:round;stroke-dasharray:none;paint-order:stroke fill markers"
       d="M 2795.1784,773.11059 2874.6219,687.485"
       id="path34" /><path
       style="fill:none;stroke:#ff851b;stroke-width:9.50929;stroke-linejoin:round;stroke-dasharray:none;paint-order:stroke fill markers"
       d="m 2616.0973,423.48756 c -91.884,91.12979 249.8206,16.49133 172.1507,100.15662"
       id="path35"
       sodipodi:nodetypes="cc" /><path
       d="m 2793.2273,422.7255 c -91.884,91.12979 251.7009,17.25339 174.031,100.91868"
       style="fill:none;stroke:#ff851b;stroke-width:9.50929;stroke-linejoin:round;stroke-dasharray:none;paint-order:stroke fill markers"
       id="path1-5"
       sodipodi:nodetypes="cc" /><path
       style="fill:none;stroke:#ff851b;stroke-width:9.50929;stroke-linejoin:round;stroke-dasharray:none;paint-order:stroke fill markers"
       d="m 2524.7207,611.38547 c -51.4389,52.8212 220.6743,19.55505 169.304,78.1651"
       id="path37"
       sodipodi:nodetypes="cc" /><path
       style="fill:none;stroke:#ff851b;stroke-width:9.50929;stroke-linejoin:round;stroke-dasharray:none;paint-order:stroke fill markers"
       d="m 2704.995,609.66791 c -51.4389,52.8212 220.6743,19.55505 169.304,78.1651"
       id="path38"
       sodipodi:nodetypes="cc" /><path
       style="fill:none;stroke:#7fdbff;stroke-width:9.50929;stroke-linejoin:round;stroke-dasharray:none;paint-order:stroke fill markers"
       d="m 2874.6215,423.63721 c 45.8887,50.18488 123.4588,-18.58206 177.8507,5.05916 40.5867,17.64087 118.4071,56.54636 93.2957,94.45765"
       id="path39"
       sodipodi:nodetypes="cac" /><path
       style="fill:none;stroke:#ff851b;stroke-width:9.50929;stroke-linejoin:round;stroke-dasharray:none;paint-order:stroke fill markers"
       d="m 3061.5627,611.20735 c -57.1947,53.00428 -50.8136,170.85114 -123.5747,199.80643 -45.761,18.21058 -197.063,31.1223 -142.8096,-37.90319"
       id="path40"
       sodipodi:nodetypes="cac" /><path
       style="fill:none;stroke:#01ff70;stroke-width:9.50929;stroke-linejoin:round;stroke-dasharray:none;paint-order:stroke fill markers"
       d="m 2876.5726,772.19888 c 31.2027,38.08175 69.2447,-34.76872 72.4993,-67.66473 3.835,-38.76276 -95.8947,-69.20439 -68.1491,-94.9265"
       id="path41"
       sodipodi:nodetypes="cac" /><path
       style="fill:none;stroke:#7fdbff;stroke-width:9.50929;stroke-linejoin:round;stroke-dasharray:none;paint-order:stroke fill markers"
       d="m 2618.048,338.77368 c -50.2049,-58.77352 -66.0541,59.48983 -66.0736,99.22764 -0.017,33.88796 107.2289,35.99928 56.2635,84.6756"
       id="path42"
       sodipodi:nodetypes="cac" /><path
       style="fill:none;stroke:#ff851b;stroke-width:9.50929;stroke-linejoin:round;stroke-dasharray:none;paint-order:stroke fill markers"
       d="m 2697.2799,339.69569 c 50.0867,-55.38262 -89.2717,-50.45902 -113.4326,-104.38076"
       id="path43"
       sodipodi:nodetypes="cc" /><path
       style="fill:none;stroke:#ff851b;stroke-width:9.50929;stroke-linejoin:round;stroke-dasharray:none;paint-order:stroke fill markers"
       d="m 2519.9674,527.01982 c -116.4401,-108.48593 -44.6496,116.58258 -39.8801,176.81188 6.0118,75.91485 132.3089,147.16699 84.7162,212.16979"
       id="path44"
       sodipodi:nodetypes="cac" /><path
       style="fill:none;stroke:#01ff70;stroke-width:9.50929;stroke-linejoin:round;stroke-dasharray:none;paint-order:stroke fill markers"
       d="m 2617.5051,690.55419 c -25.0271,-26.6816 -56.5797,-23.81583 -69.6765,-4.57462 -35.2235,51.74889 30.9155,131.19599 80.1769,169.82177 110.3507,86.52567 348.7962,-7.02077 412.279,83.67623"
       id="path45"
       sodipodi:nodetypes="caac" /><path
       fill="#6272a4"
       d="m 2781.3225,1007.9866 c -177.283,-16.07603 -325.58,-141.45003 -371.019,-313.66803 -17.778,-67.383 -17.778,-147.945 0,-215.328 42.879,-162.515 175.589,-282.576 342.889,-310.204 30.972,-5.115 100.3,-5.115 131.272,0 182.761,30.182 321.716,169.256 351.872,352.176 8.194,49.706 4.42,122.556 -8.984,173.356 -42.779,162.142 -176.358,283.186 -342.107,310.00603 -19.733,3.193 -84.087,5.46 -103.923,3.662 m 99.235,-25.36203 c 233.7,-38.554 383.08,-264.16 326.487,-493.086 -38.564,-155.996 -166.552,-272.907 -327.268,-298.943 -30.56,-4.95 -93.058,-4.956 -122.677,-0.01 -174.15,29.077 -305.963,161.155 -333.946,334.616 -4.731,29.327 -5.082,90.004 -0.686,118.542 28.742,186.57 176.953,326.148 363.544,342.367 18.74,1.63 76.431,-0.499 94.547,-3.488 z"
       style="fill:#616161;fill-opacity:1;stroke:none;stroke-width:4.43177"
       id="path721" /><path
       fill="none"
       stroke="#6272a4"
       stroke-linecap="round"
       stroke-width="4"
       d="m 2505.4658,566.94215 c 0,-33.64484 27.2748,-60.91883 60.9188,-60.91883 33.644,0 60.9188,27.27399 60.9188,60.91883 0,33.64483 -27.2748,60.91882 -60.9188,60.91882 -33.644,0 -60.9188,-27.27483 -60.9188,-60.91882 z"
       style="display:inline;stroke:#616161;stroke-width:7.80608;stroke-dasharray:none;stroke-opacity:1"
       id="path6" /><path
       fill="none"
       stroke="#6272a4"
       stroke-linecap="round"
       stroke-width="4"
       d="m 2684.4762,566.94214 c 0,-33.64484 27.2748,-60.91883 60.9188,-60.91883 33.644,0 60.9188,27.27399 60.9188,60.91883 0,33.64484 -27.2748,60.91883 -60.9188,60.91883 -33.644,0 -60.9188,-27.27483 -60.9188,-60.91883 z"
       style="display:inline;stroke:#616161;stroke-width:7.80608;stroke-dasharray:none;stroke-opacity:1"
       id="path434-3" /><path
       fill="none"
       stroke="#6272a4"
       stroke-linecap="round"
       stroke-width="4"
       d="m 2863.4865,566.94215 c 0,-33.64484 27.2748,-60.91883 60.9188,-60.91883 33.644,0 60.9188,27.27399 60.9188,60.91883 0,33.64483 -27.2748,60.91882 -60.9188,60.91882 -33.644,0 -60.9188,-27.27483 -60.9188,-60.91882 z"
       style="display:inline;stroke:#616161;stroke-width:7.80608;stroke-dasharray:none;stroke-opacity:1"
       id="path6-6" /><path
       fill="none"
       stroke="#6272a4"
       stroke-linecap="round"
       stroke-width="4"
       d="m 3042.4969,566.94213 c 0,-33.64483 27.2749,-60.91882 60.9189,-60.91882 33.644,0 60.9188,27.27399 60.9188,60.91882 0,33.64484 -27.2748,60.91883 -60.9188,60.91883 -33.644,0 -60.9189,-27.27483 -60.9189,-60.91883 z"
       style="display:inline;stroke:#616161;stroke-width:7.80608;stroke-dasharray:none;stroke-opacity:1"
       id="path6-6-6" /><path
       fill="none"
       stroke="#6272a4"
       stroke-linecap="round"
       stroke-width="4"
       d="m 2594.971,381.58648 c 0,-33.64484 27.2748,-60.91883 60.9188,-60.91883 33.644,0 60.9188,27.27399 60.9188,60.91883 0,33.64483 -27.2748,60.91882 -60.9188,60.91882 -33.644,0 -60.9188,-27.27483 -60.9188,-60.91882 z"
       style="display:inline;stroke:#616161;stroke-width:7.80608;stroke-dasharray:none;stroke-opacity:1"
       id="path434-2" /><path
       fill="none"
       stroke="#6272a4"
       stroke-linecap="round"
       stroke-width="4"
       d="m 2773.9813,382.82484 c 0,-33.64484 27.2749,-60.91882 60.9189,-60.91882 33.6439,0 60.9188,27.27398 60.9188,60.91882 0,33.64484 -27.2749,60.91883 -60.9188,60.91883 -33.644,0 -60.9189,-27.27483 -60.9189,-60.91883 z"
       style="display:inline;stroke:#616161;stroke-width:7.80608;stroke-dasharray:none;stroke-opacity:1"
       id="path6-2" /><path
       fill="none"
       stroke="#6272a4"
       stroke-linecap="round"
       stroke-width="4"
       d="m 2594.971,737.05943 c 0,-33.64484 27.2748,-60.91883 60.9188,-60.91883 33.644,0 60.9188,27.27399 60.9188,60.91883 0,33.64483 -27.2748,60.91882 -60.9188,60.91882 -33.644,0 -60.9188,-27.27483 -60.9188,-60.91882 z"
       style="display:inline;stroke:#616161;stroke-width:7.80608;stroke-dasharray:none;stroke-opacity:1"
       id="path434-1" /><path
       fill="none"
       stroke="#6272a4"
       stroke-linecap="round"
       stroke-width="4"
       d="m 2773.9813,734.29779 c 0,-33.64483 27.2748,-60.91882 60.9188,-60.91882 33.644,0 60.9189,27.27399 60.9189,60.91882 0,33.64484 -27.2749,60.91883 -60.9189,60.91883 -33.644,0 -60.9188,-27.27483 -60.9188,-60.91883 z"
       style="display:inline;stroke:#616161;stroke-width:7.80608;stroke-dasharray:none;stroke-opacity:1"
       id="path6-9" /></g><g
     inkscape:groupmode="layer"
     id="layer4"
     inkscape:label="Layer 4"
     style="display:inline"
     transform="translate(-2360.5583,-46.980501)" /><g
     inkscape:groupmode="layer"
     id="layer5"
     inkscape:label="Layer 1"
     style="display:inline"
     transform="translate(-2360.5583,-46.980501)" /></svg>
