<?xml version="1.0" encoding="UTF-8" standalone="no"?>
<svg
   viewBox="0 0 897.45718 798.68722"
   version="1.1"
   id="svg5"
   sodipodi:docname="generic_tangle.svg"
   width="897.45715"
   height="798.68726"
   inkscape:version="1.4.2 (ebf0e940d0, 2025-05-08)"
   xmlns:inkscape="http://www.inkscape.org/namespaces/inkscape"
   xmlns:sodipodi="http://sodipodi.sourceforge.net/DTD/sodipodi-0.dtd"
   xmlns="http://www.w3.org/2000/svg"
   xmlns:svg="http://www.w3.org/2000/svg">
  <defs
     id="defs5" />
  <sodipodi:namedview
     id="namedview5"
     pagecolor="#ffffff"
     bordercolor="#000000"
     borderopacity="0.25"
     inkscape:showpageshadow="2"
     inkscape:pageopacity="0.0"
     inkscape:pagecheckerboard="0"
     inkscape:deskcolor="#d1d1d1"
     inkscape:zoom="1.0677772"
     inkscape:cx="319.82327"
     inkscape:cy="621.3843"
     inkscape:window-width="2254"
     inkscape:window-height="1502"
     inkscape:window-x="0"
     inkscape:window-y="0"
     inkscape:window-maximized="1"
     inkscape:current-layer="svg5" />
  <path
     d="M 694.88318,637.52578 798.72559,741.45885 M 114.08997,56.232565 217.28571,159.51631 m 480.70147,-3.57733 99.05708,-99.14375 M 115.5833,738.84419 214.39905,639.94311"
     class="stroke-orange fill-orange"
     style="fill:none;stroke:#ff851b;stroke-width:22.0939;stroke-linecap:butt;stroke-linejoin:miter;stroke-dasharray:none;stroke-opacity:1"
     id="path1" />
  <g
     style="display:inline"
     id="g2"
     transform="translate(106.14099,48.422452)">
    <path
       d="M 95.987,238.496 C 55.967,234.87 22.49,206.592 12.233,167.749 8.22,152.551 8.22,134.381 12.233,119.183 21.913,82.528 51.87,55.449 89.637,49.218 c 6.991,-1.154 22.642,-1.154 29.633,0 41.257,6.807 72.625,38.175 79.432,79.431 1.85,11.211 0.998,27.643 -2.028,39.1 -9.657,36.57 -39.811,63.872 -77.228,69.921 -4.454,0.72 -18.981,1.232 -23.46,0.826 m 22.401,-5.72 c 52.756,-8.696 86.477,-59.58 73.702,-111.214 C 183.383,86.378 154.491,60.009 118.211,54.137 111.312,53.02 97.204,53.019 90.518,54.134 51.205,60.693 21.449,90.482 15.132,129.606 c -1.068,6.615 -1.147,20.3 -0.155,26.736 6.489,42.08 39.946,73.562 82.067,77.22 4.23,0.368 17.254,-0.112 21.343,-0.787"
       class="stroke-selection fill-selection"
       style="display:inline;fill:#616161;fill-opacity:1;stroke:none;stroke-width:0.352778;stroke-opacity:1"
       transform="matrix(3.68074,0,0,3.68391,-33.947,-177.97)"
       id="path2" />
  </g>
  <path
     d="M 355.46803,297.90663 H 557.81419"
     class="stroke-teal fill-teal"
     style="fill:#39cccc;fill-opacity:0.766511;stroke:#ff4136;stroke-width:11.3386;stroke-miterlimit:3.6;stroke-dasharray:none"
     id="path3" />
  <path
     d="M 469.43311,498.42346 V 297.90663"
     class="stroke-teal fill-teal"
     style="fill:#39cccc;fill-opacity:0.766511;stroke:#ff4136;stroke-width:11.3386;stroke-miterlimit:3.6;stroke-dasharray:none"
     id="path4" />
  <path
     d="m 443.84784,323.57056 v 174.8529"
     class="stroke-teal fill-teal"
     style="fill:#39cccc;fill-opacity:0.766511;stroke:#ff4136;stroke-width:11.3386;stroke-miterlimit:3.6;stroke-dasharray:none"
     id="path5" />
  <path
     d="M 21.186957,19.863843 V 48.422425 H 12.182929 V 0 h 11.581516 l 21.41034,37.596972 q -0.618597,-5.22372 -0.618597,-9.450803 V 0 h 9.004028 V 48.422425 H 41.6694 L 20.56836,11.134745 q 0.309298,2.714953 0.446764,4.914414 0.171833,2.165088 0.171833,3.814684 z M 89.541963,19.760777 82.874855,48.422452 H 70.846574 L 58.371529,2.6e-5 h 10.275588 l 6.735838,29.658299 q 0.446764,1.890156 0.962263,4.36455 0.549864,2.474393 0.893528,4.811308 0.343666,-1.615223 0.618597,-3.127353 0.309299,-1.546489 0.618599,-3.024245 0.309298,-1.51213 0.652963,-2.989886 L 85.967839,2.6e-5 H 97.308797 L 104.079,28.627328 q 0.34366,1.443396 0.8248,4.192723 0.51549,2.749313 0.96226,6.014132 0.44676,-1.993249 0.79043,-3.505378 0.37803,-1.54649 0.7217,-3.058619 0.37803,-1.54649 0.79043,-3.505392 L 114.38896,2.6e-5 h 10.27559 L 112.15514,48.422452 H 100.12685 L 93.562847,20.413735 q -0.584239,-2.474394 -1.099731,-5.05188 -0.515505,-2.577487 -0.927904,-5.292441 -0.274933,1.477757 -0.687319,3.471018 -0.412399,1.993262 -0.790438,3.711578 -0.343665,1.718329 -0.515492,2.508767 z"
     id="text3"
     style="font-weight:700;font-size:52.7871px;line-height:1.25;font-family:Arial;-inkscape-font-specification:'Arial Bold';fill:#616161;stroke-width:3.7705"
     class="stroke-comment fill-comment"
     aria-label="NW" />
  <path
     d="m 42.167716,784.0471 q 0,7.11387 -5.292444,10.89419 -5.258076,3.74595 -15.464932,3.74595 -18.38609,0 -21.41034,-13.29985 l 9.794457,-1.61522 q 0.99663,3.84905 3.883417,5.60174 2.886788,1.71833 8.007399,1.71833 5.326809,0 7.973032,-1.61523 2.646221,-1.61523 2.646221,-4.84568 0,-2.06199 -1.202827,-3.40228 -1.202829,-1.3403 -3.436653,-2.23383 -1.099728,-0.44676 -3.230452,-0.96226 -2.130724,-0.54987 -5.292444,-1.20283 -3.642851,-0.85916 -5.704842,-1.44339 -2.061991,-0.6186 -3.299185,-1.16846 -1.237194,-0.58423 -2.405656,-1.27156 -2.577487,-1.5465 -4.020887,-4.12399 -1.44339,-2.57749 -1.44339,-6.42654 0,-6.564 4.914413,-10.03502 4.948778,-3.50538 14.365204,-3.50538 9.004027,0 13.506041,2.81805 4.53638,2.81805 5.842308,9.31333 l -9.828824,1.34029 q -0.756063,-3.12735 -3.092987,-4.70821 -2.302557,-1.58086 -6.632738,-1.58086 -4.605112,0 -6.907669,1.44339 -2.302557,1.4434 -2.302557,4.33018 0,1.89016 0.962263,3.09299 0.996628,1.20283 2.921154,2.06199 1.821425,0.8248 7.801199,2.09636 3.471018,0.75606 5.979773,1.44339 2.508756,0.65297 4.020883,1.27156 1.512127,0.65297 2.680588,1.37466 1.202828,0.7217 2.061991,1.5465 1.752693,1.68396 2.680588,4.02088 0.927896,2.30256 0.927896,5.32681 z m 33.988485,-14.70887 -6.667105,28.66168 H 57.460816 L 44.985771,749.57748 h 10.275587 l 6.735838,29.65831 q 0.446764,1.89016 0.962262,4.36455 0.549865,2.47438 0.89353,4.81131 0.343665,-1.61523 0.618597,-3.12736 0.309299,-1.54649 0.618597,-3.02425 0.309299,-1.51213 0.652965,-2.98989 l 6.838936,-29.69267 h 11.34095 l 6.770204,28.62731 q 0.343665,1.4434 0.824797,4.19272 0.515492,2.74932 0.962265,6.01414 0.446759,-1.99326 0.790424,-3.50539 0.378039,-1.54649 0.721705,-3.05862 0.378026,-1.54649 0.790425,-3.50538 l 6.220347,-28.76478 h 10.27558 L 98.769363,797.99991 H 86.741088 l -6.564005,-28.00872 q -0.584231,-2.47439 -1.099728,-5.05187 -0.515498,-2.57749 -0.927896,-5.29245 -0.274932,1.47776 -0.687331,3.47102 -0.412397,1.99326 -0.79043,3.71158 -0.343664,1.71833 -0.515497,2.50876 z"
     id="text4"
     style="font-weight:700;font-size:52.7871px;line-height:1.25;font-family:Arial;-inkscape-font-specification:'Arial Bold';fill:#616161;stroke-width:3.7705"
     class="stroke-comment fill-comment"
     aria-label="SW" />
  <path
     d="m 842.1271,781.26341 q 0,7.11387 -5.29246,10.89419 -5.25806,3.74595 -15.46493,3.74595 -18.38608,0 -21.41034,-13.29984 l 9.79446,-1.61523 q 0.99662,3.84905 3.88342,5.60174 2.88679,1.71833 8.00739,1.71833 5.32681,0 7.97303,-1.61523 2.64622,-1.61522 2.64622,-4.84568 0,-2.06199 -1.20282,-3.40228 -1.20282,-1.3403 -3.43664,-2.23383 -1.09973,-0.44676 -3.23046,-0.96226 -2.13073,-0.54986 -5.29244,-1.20283 -3.64286,-0.85916 -5.70484,-1.44339 -2.062,-0.6186 -3.29919,-1.16846 -1.2372,-0.58423 -2.40566,-1.27156 -2.57749,-1.54649 -4.02089,-4.12398 -1.44338,-2.57749 -1.44338,-6.42654 0,-6.56401 4.9144,-10.03503 4.94879,-3.50538 14.3652,-3.50538 9.00404,0 13.50605,2.81805 4.53638,2.81806 5.84231,9.31333 l -9.82882,1.34029 q -0.75606,-3.12735 -3.09299,-4.70821 -2.30256,-1.58086 -6.63275,-1.58086 -4.6051,0 -6.90766,1.4434 -2.30255,1.44339 -2.30255,4.33018 0,1.89015 0.96226,3.09298 0.99663,1.20283 2.92115,2.06199 1.82143,0.8248 7.8012,2.09636 3.47102,0.75607 5.97977,1.4434 2.50875,0.65296 4.02088,1.27156 1.51213,0.65296 2.6806,1.37466 1.20282,0.72169 2.06199,1.54649 1.75269,1.68396 2.68058,4.02088 0.92791,2.30256 0.92791,5.32681 z m 46.94465,6.11724 v 7.83557 H 849.58462 V 746.7938 h 38.07811 v 7.83556 h -27.93998 v 12.16575 h 25.84361 v 7.83556 h -25.84361 v 12.74998 z"
     id="text5"
     style="font-weight:700;font-size:52.7871px;line-height:1.25;font-family:Arial;-inkscape-font-specification:'Arial Bold';fill:#616161;stroke-width:3.7705"
     class="stroke-comment fill-comment"
     aria-label="SE" />
  <path
     d="m 816.146,19.863883 v 28.558569 h -9.00403 V 2.6e-5 h 11.58151 l 21.41035,37.596973 q -0.6186,-5.223707 -0.6186,-9.45079 V 2.6e-5 h 9.00402 V 48.422452 H 836.62844 L 815.5274,11.134785 q 0.3093,2.714953 0.44677,4.914415 0.17183,2.165088 0.17183,3.814683 z m 81.31118,20.723002 v 7.835567 H 857.97005 V 2.6e-5 h 38.07809 v 7.835567 h -27.93997 v 12.165743 h 25.84362 v 7.835567 h -25.84362 v 12.749982 z"
     id="text6"
     style="font-weight:700;font-size:52.7871px;line-height:1.25;font-family:Arial;-inkscape-font-specification:'Arial Bold';fill:#616161;stroke-width:3.7705"
     class="stroke-comment fill-comment"
     aria-label="NE" />
</svg>
