<svg xmlns="http://www.w3.org/2000/svg" xml:space="preserve" viewBox="0 0 1136.255 839.962"><path fill="none" stroke="#ffb86c" stroke-linecap="round" stroke-linejoin="round" stroke-width="28" d="M525.333 902.819c376.753 388.151 886.427-731.344-210.232-570.782l-89.9 13.745c-551.719 76.794 149.273 1372.658 489.378 36.278l23.984-82.379c114.199-430.126-897.89-465.851-274.965 533.305 13.647 16.33 43.905 51.352 61.735 69.833Z" style="clip-rule:evenodd;fill-rule:nonzero;stroke:#616161aaa;stroke-linecap:butt;stroke-linejoin:round;stroke-miterlimit:10" transform="matrix(.60741 -.33933 .90086 .50326 -255.25 421.355)"/><path d="M797.975 382.752a45 45 0 0 1-45 45 45 45 0 0 1-45-45 45 45 0 0 1 45-45 45 45 0 0 1 45 45M1262.576 379.718a45 45 0 0 1-45 45 45 45 0 0 1-45-45 45 45 0 0 1 45-45 45 45 0 0 1 45 45M1034.59 837.275a45 45 0 0 1-45 45 45 45 0 0 1-45-45 45 45 0 0 1 45-45 45 45 0 0 1 45 45" style="fill:#616161aaa;stroke-width:39.1616;stroke-linecap:round;stroke-linejoin:round;paint-order:stroke fill markers" transform="matrix(.60613 -.3386 1.04984 .58649 -643.494 535.939)"/><path fill="none" stroke="#ffb86c" stroke-linecap="round" stroke-linejoin="round" stroke-width="28" d="M529.414 906.96c376.327 375.952 878.391-734.906-214.313-574.923l-11.073 1.693m-83.12 12.678c-543.717 82.903 154.314 1368.29 493.57 36.05m23.468-80.657.617-2.12c114.199-430.126-897.89-465.851-274.965 533.305 2.536 3.035 5.646 6.715 9.143 10.815" style="clip-rule:evenodd;display:inline;fill-rule:nonzero;stroke:#ff851b;stroke-linecap:butt;stroke-linejoin:round;stroke-miterlimit:10" transform="matrix(.60741 -.33933 .90086 .50326 -229.25 200.455)"/></svg>