<!-- Created with Inkscape (http://www.inkscape.org/) -->
<svg xmlns:inkscape="http://www.inkscape.org/namespaces/inkscape" xmlns:sodipodi="http://sodipodi.sourceforge.net/DTD/sodipodi-0.dtd" xmlns="http://www.w3.org/2000/svg" xmlns:svg="http://www.w3.org/2000/svg" xmlns:vectornator="http://vectornator.io" viewBox="0 0 1136.2549 839.96185" version="1.1" id="svg1" inkscape:version="1.4.2 (ebf0e940d0, 2025-05-08)" sodipodi:docname="knot_shadow.svg" xml:space="preserve">
  <sodipodi:namedview id="namedview1" pagecolor="#282a36" bordercolor="#44475a" borderopacity="0.24705882" inkscape:showpageshadow="2" inkscape:pageopacity="0.0" inkscape:pagecheckerboard="0" inkscape:deskcolor="#44475a" inkscape:document-units="px" inkscape:zoom="0.65403154" inkscape:cx="240.81407" inkscape:cy="225.52429" inkscape:window-width="3818" inkscape:window-height="2078" inkscape:window-x="0" inkscape:window-y="0" inkscape:window-maximized="1" inkscape:current-layer="layer1" showgrid="true">
    <inkscape:grid type="axonomgrid" id="grid1" units="px" originx="-284.8962" originy="-42.831269" spacingx="3.7795276" spacingy="100" empcolor="#0099e5" empopacity="0.30196078" color="#0099e5" opacity="0.14901961" empspacing="5" dotted="false" gridanglex="30" gridanglez="30" enabled="true" visible="true"/>
  </sodipodi:namedview>
  <defs id="defs1">
    <inkscape:path-effect effect="knot" id="path-effect954" is_visible="true" lpeversion="1" switcher_size="15" interruption_width="3" prop_to_stroke_width="true" add_stroke_width="inkscape_1.0_and_up" both="false" inverse_width="false" add_other_stroke_width="inkscape_1.0_and_up" crossing_points_vector="726.20509 | 342.12732 | 0 | 0 | 0 | 3 | 0.83949445 | 3.4847435 | 1 | 262.46978 | 340.0839 | 0 | 0 | 1 | 4 | 1.5854418 | 4.7931247 | 1 | 500.65425 | 875.88589 | 0 | 0 | 2 | 5 | 2.8163314 | 5.6118873 | 1"/>
    <inkscape:path-effect effect="knot" id="path-effect954-7" is_visible="true" lpeversion="1" switcher_size="15" interruption_width="3" prop_to_stroke_width="true" add_stroke_width="inkscape_1.0_and_up" both="false" inverse_width="false" add_other_stroke_width="inkscape_1.0_and_up" crossing_points_vector="726.20509 | 342.12732 | 0 | 0 | 0 | 3 | 0.83949445 | 3.4847435 | 1 | 262.46978 | 340.0839 | 0 | 0 | 1 | 4 | 1.5854418 | 4.7931247 | 1 | 500.65425 | 875.88589 | 0 | 0 | 2 | 5 | 2.8163314 | 5.6118873 | 1"/>
  </defs>
  <g inkscape:label="Layer 1" inkscape:groupmode="layer" id="layer1" transform="translate(-284.89621,-42.83127)">
    <g style="clip-rule:evenodd;fill-rule:nonzero;stroke-linecap:round;stroke-linejoin:round;stroke-miterlimit:10" id="g1" transform="translate(496.98775,15.934086)" class="">
      <g id="Layer-1" vectornator:layerName="Layer 1" transform="translate(-6.4614711,0.44143466)">

        

    </g>
    </g>
    <g id="g2" transform="matrix(0.60612552,-0.33860908,1.0498402,0.58648811,-358.59766,578.76993)" inkscape:label="g2">
      <path d="M 525.333,902.819 C 902.086,1290.97 1411.76,171.475 315.101,332.037 l -89.9,13.745 c -551.719,76.794 149.273,1372.658 489.378,36.278 l 23.984,-82.379 C 852.762,-130.445 -159.32761,-166.17019 463.59839,832.98581 477.2448,849.3162 507.50277,884.33793 525.333,902.819 Z" fill="none" opacity="1" class="" stroke="#ffb86c" stroke-linecap="round" stroke-linejoin="round" stroke-width="28" id="path6-5" sodipodi:nodetypes="ccccccc" style="clip-rule:evenodd;fill-rule:nonzero;stroke:#aaaaaa;stroke-linecap:butt;stroke-linejoin:round;stroke-miterlimit:10" transform="matrix(1.0021201,0,0,0.85809196,489.46468,87.219519)"/>
      <path id="path1" style="fill:#aaaaaa;stroke-width:39.1616;stroke-linecap:round;stroke-linejoin:round;paint-order:stroke fill markers" d="m 797.97546,382.75223 a 45,45 0 0 1 -45,45 45,45 0 0 1 -45,-45 45,45 0 0 1 45,-45 45,45 0 0 1 45,45 z" class=""/>
      <path id="path1-2" style="fill:#aaaaaa;stroke-width:39.1616;stroke-linecap:round;stroke-linejoin:round;paint-order:stroke fill markers" d="m 1262.576,379.71774 a 45,45 0 0 1 -45,45 45,45 0 0 1 -45,-45 45,45 0 0 1 45,-45 45,45 0 0 1 45,45 z" class=""/>
      <path id="path1-6" style="fill:#aaaaaa;stroke-width:39.1616;stroke-linecap:round;stroke-linejoin:round;paint-order:stroke fill markers" d="m 1034.5906,837.27533 a 45,45 0 0 1 -44.99996,45 45,45 0 0 1 -45,-45 45,45 0 0 1 45,-45 45,45 0 0 1 44.99996,45 z" class=""/>
    </g>
    <path d="M 529.41398,906.9595 C 905.74103,1282.9125 1407.8053,172.05401 315.101,332.037 l -11.07317,1.693 m -83.11933,12.67785 c -543.71734,82.90342 154.31398,1368.29015 493.56933,36.04957 m 23.46793,-80.65637 0.61724,-2.12005 c 114.199,-430.126 -897.89061,-465.85119 -274.96461,533.30481 2.5361,3.0349 5.64592,6.71535 9.14307,10.81522" fill="none" opacity="1" class="" stroke="#ffb86c" stroke-linecap="round" stroke-linejoin="round" stroke-width="28" id="path6" sodipodi:nodetypes="ccccccc" inkscape:path-effect="#path-effect954" inkscape:original-d="M 525.333,902.819 C 902.086,1290.97 1411.76,171.475 315.101,332.037 l -89.9,13.745 c -551.719,76.794 149.273,1372.658 489.378,36.278 l 23.984,-82.379 C 852.762,-130.445 -159.32761,-166.17019 463.59839,832.98581 477.2448,849.3162 507.50277,884.33793 525.333,902.819 Z" style="clip-rule:evenodd;display:inline;fill-rule:nonzero;stroke:#ff851b;stroke-linecap:butt;stroke-linejoin:round;stroke-miterlimit:10" transform="matrix(0.60741056,-0.33932696,0.90085942,0.50326074,55.645915,243.28622)" inkscape:label="path6"/>
  </g>
</svg>
