<svg xmlns="http://www.w3.org/2000/svg" viewBox="0 0 96.834 13.05"><path d="M64.66 63.744q1.153 0 2.004.309.852.308 1.436.892.592.584.94 1.411.357.827.512 1.865.162 1.039.162 2.255 0 2.044-.211 3.455-.203 1.404-.754 2.133-.552.73-1.59.73-.462 0-.811-.178-.34-.178-.576-.487-.235-.308-.373-.713-.138-.406-.187-.86h-.065q-.178.405-.494.746-.308.349-.755.552-.438.21-1.022.21-.957 0-1.532-.486-.576-.487-.836-1.322-.251-.844-.251-1.89 0-2.003.835-3.18.844-1.184 2.612-1.184.649 0 1.354.179.706.17 1.371.535v4.867q0 .6.065.957.073.348.219.503.146.154.365.154.235 0 .365-.244.138-.251.203-.795.064-.543.08-1.419.025-.876.025-2.125 0-1.273-.146-2.255-.138-.99-.495-1.662-.348-.682-.981-1.03-.625-.35-1.598-.35-.868 0-1.736.341-.86.333-1.8 1.152l-1.014-1.192q1.111-.973 2.23-1.42 1.128-.454 2.45-.454m-1.005 5.864q-.64 0-.876.6-.227.6-.227 2.158 0 .738.065 1.2.073.463.243.682.179.21.479.21.365 0 .551-.178.187-.186.268-.446.081-.268.114-.52v-3.552q-.155-.08-.292-.113-.138-.04-.325-.04m10.739-5.864q1.151 0 2.003.309.852.308 1.436.892.592.584.94 1.411.357.827.511 1.865.163 1.039.163 2.255 0 2.044-.211 3.455-.203 1.404-.754 2.133-.552.73-1.59.73-.463 0-.811-.178-.34-.178-.576-.487-.235-.308-.373-.713-.138-.406-.187-.86h-.065q-.178.405-.494.746-.309.349-.755.552-.438.21-1.022.21-.957 0-1.533-.486-.575-.487-.835-1.322-.251-.844-.251-1.89 0-2.003.835-3.18.844-1.184 2.612-1.184.648 0 1.354.179.706.17 1.37.535v4.867q0 .6.066.957.073.348.219.503.146.154.365.154.235 0 .365-.244.138-.251.202-.795.065-.543.082-1.419.024-.876.024-2.125 0-1.273-.146-2.255-.138-.99-.495-1.662-.349-.682-.981-1.03-.625-.35-1.598-.35-.868 0-1.736.341-.86.333-1.8 1.152l-1.014-1.192q1.111-.973 2.23-1.42 1.128-.454 2.45-.454m-1.006 5.864q-.64 0-.876.6-.227.6-.227 2.158 0 .738.065 1.2.073.463.243.682.179.21.479.21.365 0 .551-.178.187-.186.268-.446.081-.268.113-.52v-3.552q-.154-.08-.292-.113-.137-.04-.324-.04m10.739-5.864q1.151 0 2.003.309.852.308 1.436.892.592.584.94 1.411.357.827.511 1.865.163 1.039.163 2.255 0 2.044-.211 3.455-.203 1.404-.755 2.133-.551.73-1.59.73-.462 0-.81-.178-.341-.178-.576-.487-.235-.308-.373-.713-.138-.406-.187-.86h-.065q-.178.405-.495.746-.308.349-.754.552-.438.21-1.022.21-.957 0-1.533-.486-.576-.487-.835-1.322-.252-.844-.252-1.89 0-2.003.836-3.18.843-1.184 2.612-1.184.648 0 1.354.179.706.17 1.37.535v4.867q0 .6.066.957.073.348.219.503.146.154.365.154.235 0 .365-.244.137-.251.202-.795.065-.543.081-1.419.025-.876.025-2.125 0-1.273-.146-2.255-.138-.99-.495-1.662-.349-.682-.981-1.03-.625-.35-1.598-.35-.868 0-1.736.341-.86.333-1.8 1.152l-1.014-1.192q1.11-.973 2.23-1.42 1.128-.454 2.45-.454m-1.006 5.864q-.64 0-.876.6-.227.6-.227 2.158 0 .738.065 1.2.073.463.243.682.178.21.479.21.365 0 .551-.178.187-.186.268-.446.08-.268.113-.52v-3.552q-.154-.08-.292-.113-.138-.04-.324-.04m14.9-5.58.632 11.242h-2.32l-.138-4.81q-.016-.673-.016-1.2.008-.528.024-.99.017-.47.05-.94.04-.48.08-1.039l-1.265 7.065h-2.012l-1.362-7.065q.049.535.081 1.014.04.47.057.949.016.478.024 1.03.008.543-.008 1.217l-.081 4.769h-2.28l.633-11.242h2.734l1.249 7.267 1.184-7.267zm9.432 0v1.947h-2.32v7.34h2.32v1.955h-7.3v-1.955h2.32v-7.34h-2.32v-1.947zm10.43 7.957q0 1.046-.551 1.849-.544.803-1.565 1.257-1.022.454-2.458.454-1.59 0-2.668-.462-1.071-.47-1.777-1.16l1.347-1.492q.624.543 1.378.843.755.292 1.655.292.56 0 .981-.162.422-.162.657-.47t.236-.746q0-.414-.187-.698-.186-.284-.633-.51-.438-.228-1.224-.463-1.314-.406-2.117-.892-.795-.487-1.16-1.128-.357-.64-.357-1.492 0-1.03.568-1.76.576-.73 1.54-1.111.966-.39 2.126-.39 1.306 0 2.303.382.998.373 1.728 1.07l-1.257 1.444q-.568-.479-1.225-.706-.657-.235-1.338-.235-.503 0-.884.13-.381.121-.592.365-.211.243-.211.608 0 .357.203.6.202.244.705.463.503.21 1.395.494 1.063.325 1.817.779.762.446 1.16 1.127.405.682.405 1.72m9.733 0q0 1.046-.551 1.849-.544.803-1.566 1.257t-2.457.454q-1.59 0-2.669-.462-1.07-.47-1.776-1.16l1.347-1.492q.624.543 1.378.843.755.292 1.655.292.56 0 .981-.162.422-.162.657-.47t.236-.746q0-.414-.187-.698t-.633-.51q-.438-.228-1.224-.463-1.314-.406-2.117-.892-.795-.487-1.16-1.128-.357-.64-.357-1.492 0-1.03.568-1.76.576-.73 1.54-1.111.966-.39 2.126-.39 1.306 0 2.303.382.998.373 1.728 1.07l-1.257 1.444q-.568-.479-1.225-.706-.657-.235-1.338-.235-.503 0-.884.13-.382.121-.592.365-.211.243-.211.608 0 .357.202.6.203.244.706.463.503.21 1.395.494 1.063.325 1.817.779.762.446 1.16 1.127.405.682.405 1.72m9.036-7.957v1.947h-2.32v7.34h2.32v1.955h-7.3v-1.955h2.32v-7.34h-2.32v-1.947zm6.878 11.242-2.96-9.044q.056.365.12.884.074.511.139 1.144.065.624.105 1.33t.04 1.444v4.242h-2.262V64.028h3.317l2.871 8.995q-.089-.511-.186-1.217-.09-.713-.154-1.59-.065-.875-.065-1.881v-4.307h2.263V75.27Zm9.351.275q-1.598 0-2.693-.673-1.095-.681-1.662-1.995-.56-1.322-.56-3.252 0-1.436.398-2.531.405-1.103 1.119-1.841.714-.746 1.662-1.127.95-.382 2.044-.382 1.233 0 2.077.382.843.38 1.5 1.005l-1.395 1.444q-.51-.454-.981-.673-.47-.22-1.07-.22-.569 0-1.047.228-.47.219-.827.697-.35.47-.544 1.225-.194.746-.194 1.809 0 1.468.235 2.336.243.868.73 1.249.486.373 1.233.373.397 0 .746-.09.348-.097.649-.25V70.69h-1.412l-.26-1.865h4.186v5.588q-.844.519-1.817.827-.965.308-2.117.308" aria-label="@@@MISSING" style="font-weight:700;font-size:15.8159px;font-family:&quot;Fira Code&quot;;-inkscape-font-specification:&quot;Fira Code Bold&quot;;fill:#ff4136;stroke-width:31.6319;stroke-miterlimit:4.1" transform="translate(-59.98 -63.744)"/></svg>