<svg xmlns="http://www.w3.org/2000/svg" viewBox="0 0 720 720">
  <path d="M4026.55 431.725 1255.096 4830.248" style="display:inline;fill:none;stroke:#ff4136;stroke-width:170.079;stroke-linecap:round;stroke-linejoin:miter;stroke-miterlimit:10;stroke-dasharray:none;stroke-opacity:1" transform="rotate(180 360.727 356.971)scale(.13333)" class=""/>
  <path d="M4026.55 431.725c-351.566 692.754-209.296 1454.571-1006.158 2047.924m-491.665 368.348c-585.345 449.136-780.323 1365.32-1184.642 2063.148" class="" style="fill:none;stroke:#ff851b;stroke-width:170.079;stroke-linecap:butt;stroke-linejoin:miter;stroke-miterlimit:10;stroke-dasharray:none;stroke-opacity:1" transform="matrix(.13333 0 0 -.13333 -2 720)"/>
  <g style="display:inline" class="">
    <path d="M95.987 238.496c-40.02-3.626-73.497-31.904-83.754-70.747-4.013-15.198-4.013-33.368 0-48.566 9.68-36.655 39.637-63.734 77.404-69.965 6.991-1.154 22.642-1.154 29.633 0 41.257 6.807 72.625 38.175 79.432 79.431 1.85 11.211.998 27.643-2.028 39.1-9.657 36.57-39.811 63.872-77.228 69.921-4.454.72-18.981 1.232-23.46.826m22.401-5.72c52.756-8.696 86.477-59.58 73.702-111.214-8.706-35.184-37.598-61.553-73.878-67.425-6.899-1.117-21.007-1.118-27.693-.003-39.313 6.559-69.069 36.348-75.386 75.472-1.068 6.615-1.147 20.3-.155 26.736 6.489 42.08 39.946 73.562 82.067 77.22 4.23.368 17.254-.112 21.343-.787" class="" style="display:inline;fill:#aaa;fill-opacity:1;stroke:none;stroke-width:.352778;stroke-opacity:1" transform="translate(-34.766 -182.346)scale(3.77953)"/>
  </g>
  <text x="42.04" y="-466.265" class="" style="font-style:normal;font-variant:normal;font-weight:700;font-stretch:normal;font-size:52.7871px;line-height:1.25;font-family:Arial;-inkscape-font-specification:&quot;Arial Bold&quot;;fill:#aaa;fill-opacity:1;stroke:none;stroke-width:2.82788" transform="translate(0 720)scale(1.33333)">
    <tspan x="42.04" y="-466.265" class="" style="font-style:normal;font-variant:normal;font-weight:700;font-stretch:normal;font-size:52.7871px;font-family:Arial;-inkscape-font-specification:&quot;Arial Bold&quot;;fill:#aaa;fill-opacity:1;stroke-width:2.82788">NW</tspan>
  </text>
  <text x="30.509" y="-29.791" class="" style="font-style:normal;font-variant:normal;font-weight:700;font-stretch:normal;font-size:52.7871px;line-height:1.25;font-family:Arial;-inkscape-font-specification:&quot;Arial Bold&quot;;fill:#aaa;fill-opacity:1;stroke:none;stroke-width:2.82788" transform="translate(0 720)scale(1.33333)">
    <tspan x="30.509" y="-29.791" class="" style="font-style:normal;font-variant:normal;font-weight:700;font-stretch:normal;font-size:52.7871px;font-family:Arial;-inkscape-font-specification:&quot;Arial Bold&quot;;fill:#aaa;fill-opacity:1;stroke-width:2.82788">SW</tspan>
  </text>
  <text x="418.093" y="-28.808" class="" style="font-style:normal;font-variant:normal;font-weight:700;font-stretch:normal;font-size:52.7871px;line-height:1.25;font-family:Arial;-inkscape-font-specification:&quot;Arial Bold&quot;;fill:#aaa;fill-opacity:1;stroke:none;stroke-width:2.82788" transform="translate(0 720)scale(1.33333)">
    <tspan x="418.093" y="-28.808" class="" style="font-style:normal;font-variant:normal;font-weight:700;font-stretch:normal;font-size:52.7871px;font-family:Arial;-inkscape-font-specification:&quot;Arial Bold&quot;;fill:#aaa;fill-opacity:1;stroke-width:2.82788">SE</tspan>
  </text>
  <text x="420.923" y="-456.806" class="" style="font-style:normal;font-variant:normal;font-weight:700;font-stretch:normal;font-size:52.7871px;line-height:1.25;font-family:Arial;-inkscape-font-specification:&quot;Arial Bold&quot;;fill:#aaa;fill-opacity:1;stroke:none;stroke-width:2.82788" transform="translate(0 720)scale(1.33333)">
    <tspan x="420.923" y="-456.806" class="" style="font-style:normal;font-variant:normal;font-weight:700;font-stretch:normal;font-size:52.7871px;font-family:Arial;-inkscape-font-specification:&quot;Arial Bold&quot;;fill:#aaa;fill-opacity:1;stroke-width:2.82788">NE</tspan>
  </text>
</svg>
