<svg xmlns="http://www.w3.org/2000/svg" xml:space="preserve" viewBox="0 0 415.907 415.548">
  <path d="M491.408 92.892c-4.093-3.122-18.96-14.058-19.596-19.644-1.046-9.18 1.522-19.367-4.084-26.519-3.2-4.081-8.81-6.694-13.138-9.282l-25.678-14.475c-4.875-2.575-12.247-7.238-17.831-7.27-8.796-.052-20.757 11.823-29.433 13.065-11.6 1.66-20.527-7.909-31.676 2.02m144.388 32.48c-5.454-3.328-11.838-3.884-18.453-.934m13.788 59.975c-8.922-6.097-46.13-26.305-55.372-32.123-4.47-2.81-8.891-6.164-11.276-11.112-4.066-8.435.183-20.303-4.978-28.223-6.707-10.293-18.877-8.91-21.797-23.876m69.958 39.67c-11.584 5.579-18.065-3.243-27.722-5.636-4.369-1.083-8.635.126-13.077 2.277m-8.526 4.64c-5.777 3.345-11.612 3.557-17.754 1.703-8.988-2.713-15.795-7.223-24.418-10.824-7.207-3.01-13.591-4.06-20.083-8.727-8.684-6.243-6.231-18.518-12.491-26.733-5.268-6.911-17.721-6.135-24.14-11.089-6.127-4.727-11.881-19.4-18.392-23.581-5.231-3.358-17.57-3.5-23.278-.96-4.184 1.862-8.595 5.184-9.87 10.257m45.914-2.22c8.686-8.788 19.725-6.912 30.144-4.753l36.602 10.079c3.576 1.255 7.83 3.045 10.532 5.864 2.83 2.952 4.728 6.418 4.617 10.97m-51.138 19.61c-5.059 5.057-10.962 7.22-17.859 6.71-19.26-1.424-31.831-3.481-51.033-1.564-10.809 1.08-22.331 5.95-33.091 3.658-7.471-1.591-16.074-13.735-23.291-16.254-7.804-2.725-16.489 3.942-24.442 3.038-9.614-1.093-19.877-12.456-29.602-12.385-7.304.053-16.975 6.595-23.279 10.135L89.08 63.613M306.29 4.276c-2.833 3.562-5.852 6.112-9.677 7.65-8.004 3.217-18.603 3.092-25.695-2.927-5.808-4.928-10.934-13.6-17.889-16.52-6.972-2.927-15.698-.015-22.591 1.716-12.571 3.156-30.218 6.968-41.336 13.728-4.606 2.8-8.074 7.847-8.79 13.894m81.999-15.719c-2.825 5.266-6.489 8.823-11.321 11.144-9.005 4.326-17.543 3.168-21.058 15.46m-2.2 9.25c-1.717 6.54-5.405 10.975-11.011 14.223-9.563 5.541-18.553 7.796-28.464 12.574-6.166 2.973-11.536 6.531-18.633 7.125-11.532.966-20.031-11.945-31.484-10.127-5.967.948-13.239 4.954-16.49 10.245-2.235 3.642-3.373 7.193-2.341 11.882m59.449-56.34c-1.18 4.354-2.2 8.071-4.965 11.168-4.231 4.74-10.871 6.093-15.066 10.771-2.978 3.322-4.703 7.728-3.996 12.668m-.544 8.977c-1.042 13.412-11.832 23.577-25.296 20.934-10.432-2.047-29.279-6.86-39.733-5.841m30.058 6.796c-.351 4.92.683 20.947-24.766 32.77" class="stroke-orange fill-orange" style="fill:none;stroke:#ff851b;stroke-width:4.31638;stroke-dasharray:none" transform="translate(-83.12 108.614)"/>
  <path d="M752.604 319.705c-40.02-3.626-73.496-31.903-83.754-70.747-4.013-15.198-4.013-33.368 0-48.566 9.68-36.655 39.638-63.734 77.404-69.965 6.992-1.154 22.642-1.154 29.634 0 41.256 6.807 72.624 38.175 79.432 79.432 1.85 11.21.997 27.642-2.028 39.1-9.658 36.57-39.812 63.871-77.228 69.92-4.454.72-18.982 1.232-23.46.826m22.402-5.72c52.755-8.696 86.476-59.58 73.701-111.214-8.705-35.184-37.597-61.553-73.878-67.425-6.898-1.117-21.006-1.118-27.693-.002-39.312 6.558-69.068 36.348-75.385 75.471-1.068 6.615-1.148 20.3-.155 26.737 6.488 42.08 39.945 73.561 82.067 77.22 4.23.367 17.253-.113 21.343-.787z" class="stroke-blue fill-blue" style="display:inline;mix-blend-mode:normal;fill:#0074d9;fill-opacity:1;stroke:none;stroke-width:.352778;stroke-opacity:1" transform="matrix(2.1838 0 0 2.1838 -1454.06 -282.936)"/>
</svg>
