<svg xmlns:inkscape="http://www.inkscape.org/namespaces/inkscape" xmlns:sodipodi="http://sodipodi.sourceforge.net/DTD/sodipodi-0.dtd" xmlns="http://www.w3.org/2000/svg" xmlns:svg="http://www.w3.org/2000/svg" viewBox="0 0 513.90349 207.42153" version="1.1" id="svg21826" xml:space="preserve" inkscape:version="1.3.2 (091e20ef0f, 2023-11-25)" sodipodi:docname="solar_braid.svg">
    <sodipodi:namedview id="namedview21828" pagecolor="#ffffff" bordercolor="#666666" borderopacity="1.0" inkscape:showpageshadow="2" inkscape:pageopacity="0.0" inkscape:pagecheckerboard="0" inkscape:deskcolor="#d1d1d1" inkscape:document-units="mm" showgrid="true" inkscape:zoom="2.324823" inkscape:cx="304.75438" inkscape:cy="231.20039" inkscape:window-width="3840" inkscape:window-height="2091" inkscape:window-x="0" inkscape:window-y="0" inkscape:window-maximized="1" showguides="true" inkscape:current-layer="layer1">
        <sodipodi:guide position="-27.823008,-62.816833" orientation="1,0" id="guide1" inkscape:locked="false"/>
        <inkscape:grid id="grid1" units="mm" originx="-27.071007" originy="14.699026" spacingx="3.7795275" spacingy="3.7795276" empcolor="#0099e5" empopacity="0.30196078" color="#0099e5" opacity="0.14901961" empspacing="5" dotted="false" gridanglex="30" gridanglez="30" visible="true"/>
        <inkscape:page x="0" y="0" width="513.9035" height="207.42152" id="page1" margin="0" bleed="0"/>
    </sodipodi:namedview>

    <defs id="defs21823">
        <clipPath clipPathUnits="userSpaceOnUse" id="clipPath5">
            <rect style="fill:#111111;stroke:#111111;stroke-width:0;stroke-linejoin:bevel;paint-order:stroke markers fill;stop-color:#000000" id="rect5-4" width="20" height="200" x="530" y="595" class="fill-foreground stroke-foreground"/>
        </clipPath>





    </defs>
    <g inkscape:label="Layer 1" inkscape:groupmode="layer" id="layer1" transform="translate(-36.293864,16.197573)">


        <g id="g1" transform="matrix(0.55206566,0,0,0.90103708,-331.29377,-106.31655)">
            <path class="fill-blue" style="display:inline;mix-blend-mode:normal;fill:#0074D9;fill-opacity:1;stroke:none;stroke-width:0.352778;stroke-opacity:1" d="m 752.6043,319.70506 c -40.02006,-3.62592 -73.49664,-31.90348 -83.75389,-70.74663 -4.01331,-15.19799 -4.01331,-33.36825 0,-48.56626 9.67937,-36.65478 39.63748,-63.73393 77.40389,-69.96541 6.99154,-1.15361 22.64178,-1.15361 29.63333,0 41.25671,6.80738 72.6245,38.17516 79.43188,79.43187 1.84983,11.21107 0.9976,27.64223 -2.02799,39.0998 -9.6571,36.57046 -39.81128,63.87167 -77.2275,69.92078 -4.45449,0.72016 -18.98182,1.23156 -23.45972,0.82585 z m 22.40139,-5.72037 c 52.7555,-8.69562 86.4767,-59.58006 73.70138,-111.21356 -8.70542,-35.18434 -37.59744,-61.55296 -73.87777,-67.42537 -6.89864,-1.11662 -21.00679,-1.11782 -27.69306,-0.002 -39.31273,6.55855 -69.06847,36.34829 -75.38546,75.47163 -1.06803,6.61474 -1.14732,20.30013 -0.15489,26.73666 6.48822,42.08024 39.94542,73.56139 82.06674,77.21968 4.23024,0.3674 17.2536,-0.11262 21.34306,-0.78668 z" id="path21850-5-1-8" inkscape:label="path21850"/>
        </g>
        <g id="g2" transform="matrix(0.55206566,0,0,0.90103708,77.468166,-96.971434)">
            <path class="fill-blue" style="display:inline;mix-blend-mode:normal;fill:#0074D9;fill-opacity:1;stroke:none;stroke-width:0.352778;stroke-opacity:1" d="m 752.6043,319.70506 c -40.02006,-3.62592 -73.49664,-31.90348 -83.75389,-70.74663 -4.01331,-15.19799 -4.01331,-33.36825 0,-48.56626 9.67937,-36.65478 39.63748,-63.73393 77.40389,-69.96541 6.99154,-1.15361 22.64178,-1.15361 29.63333,0 41.25671,6.80738 72.6245,38.17516 79.43188,79.43187 1.84983,11.21107 0.9976,27.64223 -2.02799,39.0998 -9.6571,36.57046 -39.81128,63.87167 -77.2275,69.92078 -4.45449,0.72016 -18.98182,1.23156 -23.45972,0.82585 z m 22.40139,-5.72037 c 52.7555,-8.69562 86.4767,-59.58006 73.70138,-111.21356 -8.70542,-35.18434 -37.59744,-61.55296 -73.87777,-67.42537 -6.89864,-1.11662 -21.00679,-1.11782 -27.69306,-0.002 -39.31273,6.55855 -69.06847,36.34829 -75.38546,75.47163 -1.06803,6.61474 -1.14732,20.30013 -0.15489,26.73666 6.48822,42.08024 39.94542,73.56139 82.06674,77.21968 4.23024,0.3674 17.2536,-0.11262 21.34306,-0.78668 z" id="path21850-5-1-8-3" inkscape:label="path21850"/>
        </g>
        <path d="m 491.40822,92.89222 c -4.093,-3.1223 -18.9602,-14.05852 -19.5962,-19.64462 -1.046,-9.1792 1.522,-19.3662 -4.084,-26.5181 -3.2,-4.0819 -8.81,-6.6947 -13.138,-9.2821 l -25.678,-14.4754 c -4.875,-2.5747 -12.247,-7.238 -17.831,-7.2707 -8.796,-0.0513 -20.757,11.8238 -29.433,13.0658 -11.6,1.6602 -20.527,-7.9086 -31.676,2.0202 m 144.388,32.4796 c -5.454,-3.3276 -11.838,-3.884 -18.453,-0.9334 m 13.7881,59.97422 c -8.922,-6.097 -46.1301,-26.30462 -55.3721,-32.12242 -4.47,-2.8107 -8.891,-6.1645 -11.276,-11.1126 -4.066,-8.4349 0.183,-20.3029 -4.978,-28.223 -6.707,-10.2931 -18.877,-8.9099 -21.797,-23.8758 m 69.958,39.6696 c -11.584,5.5793 -18.065,-3.2422 -27.722,-5.6355 -4.369,-1.083 -8.635,0.1261 -13.077,2.2771 m -8.526,4.64 c -5.777,3.345 -11.612,3.5574 -17.754,1.7034 -8.988,-2.7134 -15.795,-7.2236 -24.418,-10.8243 -7.207,-3.0094 -13.591,-4.0603 -20.083,-8.7275 -8.684,-6.2423 -6.231,-18.5179 -12.491,-26.7323 -5.268,-6.9117 -17.721,-6.1356 -24.14,-11.0891 -6.127,-4.72744 -11.881,-19.40107 -18.392,-23.5816 -5.231,-3.3581 -17.57,-3.4999 -23.278,-0.9599 -4.184,1.8618 -8.595,5.18388 -9.87,10.25735 m 45.914,-2.21925 c 8.686,-8.7887 19.725,-6.9131 30.144,-4.75377 l 36.602,10.07876 c 3.576,1.25481 7.83,3.04518 10.532,5.86454 2.83,2.95193 4.728,6.41737 4.617,10.97037 m -51.138,19.6099 c -5.059,5.0559 -10.962,7.2201 -17.859,6.7102 -19.26,-1.4244 -31.831,-3.4823 -51.033,-1.5644 -10.809,1.0796 -22.331,5.949 -33.091,3.6575 -7.471,-1.5912 -16.074,-13.7345 -23.291,-16.2544 -7.804,-2.725 -16.489,3.9425 -24.442,3.0384 -9.614,-1.093 -19.877,-12.4562 -29.602,-12.3851 -7.304,0.0529 -16.975,6.5952 -23.279,10.1352 L 89.079794,63.6134 M 306.29102,4.27621 c -2.833,3.56197 -5.852,6.11229 -9.677,7.64939 -8.004,3.2172 -18.603,3.092 -25.695,-2.92656 -5.808,-4.92802 -10.934,-13.59972 -17.889,-16.51957 -6.972,-2.92767 -15.698,-0.01511 -22.591,1.71546 -12.571,3.15564 -30.218,6.96829 -41.336,13.72778 -4.606,2.80049 -8.074,7.84749 -8.79,13.89409 m 81.999,-15.71842 c -2.825,5.26592 -6.489,8.82242 -11.321,11.14362 -9.005,4.3256 -17.543,3.1684 -21.058,15.4608 m -2.2,9.2496 c -1.717,6.5402 -5.405,10.9749 -11.011,14.2229 -9.563,5.5408 -18.553,7.7953 -28.464,12.5741 -6.166,2.9729 -11.536,6.5307 -18.633,7.1251 -11.532,0.9658 -20.031,-11.9457 -31.484,-10.1272 -5.967,0.9474 -13.239,4.9538 -16.49,10.2444 -2.235,3.6425 -3.373,7.1933 -2.341,11.8823 m 59.449,-56.3403 c -1.18,4.3548 -2.2,8.0717 -4.965,11.1682 -4.231,4.7393 -10.871,6.0927 -15.066,10.7716 -2.978,3.3213 -4.703,7.7278 -3.996,12.6672 m -0.544,8.977 c -1.042,13.4127 -11.832,23.5773 -25.296,20.9344 -10.432,-2.0475 -29.278586,-6.859721 -39.732586,-5.841221 M 119.21702,97.0065 c -0.351,4.9205 0.6834,20.94713 -24.765936,32.77069" style="fill:none;stroke:#FF851B;stroke-width:4.31638;stroke-dasharray:none" id="path7838" sodipodi:nodetypes="ccccccccccccccccccccsccccsccccccccscccccccccccccccccccccccccccccccc" class="stroke-orange"/>
    </g>
</svg>
