<svg xmlns:inkscape="http://www.inkscape.org/namespaces/inkscape" xmlns:sodipodi="http://sodipodi.sourceforge.net/DTD/sodipodi-0.dtd" xmlns="http://www.w3.org/2000/svg" xmlns:svg="http://www.w3.org/2000/svg" viewBox="0 0 872.06303 697.59901" version="1.1" id="svg21826" xml:space="preserve" inkscape:version="1.3.2 (091e20ef0f, 2023-11-25)" sodipodi:docname="tangle_equation_start.svg"><sodipodi:namedview id="namedview21828" pagecolor="#ffffff" bordercolor="#666666" borderopacity="1.0" inkscape:showpageshadow="2" inkscape:pageopacity="0.0" inkscape:pagecheckerboard="0" inkscape:deskcolor="#d1d1d1" inkscape:document-units="mm" showgrid="true" inkscape:zoom="0.48838778" inkscape:cx="531.34008" inkscape:cy="822.09264" inkscape:window-width="3840" inkscape:window-height="2091" inkscape:window-x="0" inkscape:window-y="0" inkscape:window-maximized="1" showguides="true" inkscape:current-layer="g3"><sodipodi:guide position="-328.55541,-842.45138" orientation="1,0" id="guide1" inkscape:locked="false"/><inkscape:grid id="grid1" units="mm" originx="-327.8034" originy="566.11536" spacingx="3.7795275" spacingy="3.7795276" empcolor="#0099e5" empopacity="0.30196078" color="#0099e5" opacity="0.14901961" empspacing="5" dotted="false" gridanglex="30" gridanglez="30" visible="true"/></sodipodi:namedview>

    <defs id="defs21823"><clipPath clipPathUnits="userSpaceOnUse" id="clipPath5"><rect style="fill:#FF851B;stroke:#FF851B;stroke-width:0;stroke-linejoin:bevel;paint-order:stroke markers fill;stop-color:#000000" id="rect5-4" width="20" height="200" x="530" y="595" class="stroke-orange fill-orange stroke-orange"/></clipPath>





        </defs>
    <g inkscape:label="Layer 1" inkscape:groupmode="layer" id="layer1" transform="translate(-337.02627,567.61389)">


    <path style="fill:none;stroke:#FF851B;stroke-width:8.56063;stroke-dasharray:none" d="m 465.46659,-458.29522 c -3.1615,-11.58691 -6.76973,-21.74048 -5.91049,-34 1.14383,-16.32007 10.7032,-33.2428 23.91049,-42.70215 4.2108,-3.01587 8.69135,-5.39569 13,-7.54474 44.93205,-22.41119 103.49759,-20.75311 153,-20.75311 51.90533,0 104.22559,10.24262 155,20.39966 98.92114,19.78845 197.31881,45.19134 273.00001,115.68982 48.048,44.75757 99.1571,117.94009 61.4213,183.91052 -15.4122,26.94382 -40.8327,50.45261 -68.4213,64.24692 -23.5328,11.76642 -48.9431,21.97156 -73.00001,34 -36.29315,18.14657 -73.43866,34.13104 -111,49.76465 -13.83682,5.75909 -27.74728,12.7348 -41,20.12808 -34.77478,19.39984 -66.94824,46.94177 -105,59.3418 -20.74261,6.75952 -37.02606,4.9566 -58.25009,4.51855 m -207.74991,-431 c 5.84184,7.17358 11.12224,12.92322 19,17.20758 3.38657,1.8418 7.10841,3.59088 11,4.32483 12.60252,2.37683 22.50021,-5.24268 31,-13.54706 15.38265,-15.02899 25.59045,-34.64032 42,-48.68518 11.48775,-9.83234 24.60368,-14.68817 39,-7.48999 4.32281,2.16144 8.43742,5.00311 12,8.2832 5.40976,4.98084 10.1171,10.67145 14,16.90662 m -85,19 c 11.74635,10.26184 27.55952,27.53192 45,23.64508 9.17267,-2.04425 16.12215,-9.28253 23,-15.2215 4.71689,-4.07299 9.46909,-8.18054 14,-12.4591 10.53229,-9.94574 22.02762,-19.87232 35,-25.78626 12.45187,-5.67663 26.97238,-8.30755 37.98456,1.9267 2.81833,2.6192 5.03671,5.52417 6.73843,8.89508 2.49561,4.94354 3.78055,10.43353 4.27701,16 0.76639,8.59308 0.58569,16.4585 -1,25 m -153.56709,81.46433 c -21.07579,-20.29028 -88.64985,18.67668 -115.50621,-25.46433 -22.40057,-36.81744 12.31995,-95.01996 52.0733,-100.69983 9.42681,-1.34686 18.92029,1.03034 27,5.07019 3.89444,1.94721 7.17929,4.10144 11,6.62964 m 110,7 c 13.84917,20.95752 30.93596,35.66046 57,35.66046 23.57623,0 57.97269,-14.30218 78.98456,1.12891 14.97119,10.99481 9.38492,35.74795 6.59106,51.21063 -1.59359,8.81976 -3.25672,11.7368 -4.91326,17.45676 m -71.66236,-62.45676 c -2.17267,7.65607 -4.67026,15.78009 -7.86188,23 -1.254,2.83667 -2.49563,5.20886 -3.8912,8 -1.40039,2.80078 -2.56095,5.27579 -4.1196,8 -5.4758,9.57065 -14.11668,19.1723 -24.12732,24.18982 -15.9321,7.98547 -37.52708,7.3967 -55,7.82483 -22.07852,0.54098 -45.7926,2.43948 -67,9.0108 -12.95987,4.01575 -30.02991,12.88724 -27.78935,28.97455 0.48376,3.47348 2.06171,7.04056 3.6929,10 2.2595,4.09937 4.85062,7.39975 8.18673,11 6.13966,6.62576 9.06929,9.52876 16.08307,15.18239 m 51.00411,69.04576 c 26.2124,-1.12564 59.83633,-10.32068 78.78319,-29.26752 10.76549,-10.76547 17.52537,-25.14856 25.46373,-37.96063 15.20581,-24.54141 32.47122,-49.10318 57.57562,-64.38501 20.30933,-12.36291 48.81403,-17.29736 70,-4.1474 10.05219,6.23929 15.51012,12.79537 18.56682,23.35732 m -269.50299,-17.37471 c 4.77693,4.99238 16.21028,21.45393 -4.80921,49.5498 -13.62153,18.20731 -33.97017,30.77142 -47.33101,49 -11.39281,15.54355 -5.74969,27.90344 13.07639,31.98535 4.85867,1.05347 10.02774,1.87818 15,2 8.43353,0.20664 13.21015,-0.26176 21.58402,-0.62135 m 200.41598,-129.06209 c -4.68759,19.0275 -3.50031,49.32861 22,52.51291 17.51849,2.18759 31.31235,-12.09326 45,-20.7616 19.70117,-12.47665 40.21445,-20.98147 64,-22.01385 29.21622,-1.2681 57.54309,9.96948 85.00001,18.24072 22.148,6.67194 45.6686,11.85437 67,20.73151 23.8429,7.90919 30.5082,22.30236 45.0493,38.45286 m -251.30399,-47.05306 c 5.24032,17.36826 -9.15657,31.05381 -19.77388,46.5886 -30.17859,44.15601 -86.65464,71.70444 -131.97144,94.75616 -3.28738,1.67222 -5.89325,3.25477 -9,4.93519 -19.72116,10.66711 -39.68018,22.58847 -55.98534,39.30865 -14.42002,14.78708 -25.47796,36.28552 -14.13504,56 6.08135,10.56964 16.11167,18.34862 25.8444,21.01171 m -84.60506,-228.09795 c 13.90424,13.90421 27.78258,27.8551 24.442,49.08624 -0.80756,5.13242 -2.65616,10.5488 -4.82022,15 -1.57053,3.23035 -3.02701,5.92538 -5.18054,9 -9.25209,13.20926 -20.79004,24.79306 -28.69832,39 -3.42214,6.14777 -7.12922,13.44016 -2.2091,19.89508 5.13489,6.73666 17.39229,8.00641 25.34722,8.10107 18.87248,0.22449 41.80273,-3.37496 60,2.00385 M 1131.9227,-212.9893 c 21.5531,24.30334 10.548,52.01814 11.5293,78.69408 1.1151,45.52661 -10.0839,94.21924 -29.2053,135 -9.8317,20.96826 -21.7252,42.40955 -40.7801,57.33179 -29.6103,23.18829 -72.8763,33.06976 -109.00001,41.09259 -82.25525,18.26837 -166.88461,26.57562 -251,26.57562 -29.52798,0 -58.82611,-1.38458 -88,-6.24689 -11.31688,-1.88617 -26.23175,-4.78399 -34.98534,-10.97381 -4.47039,-3.16107 -7.38903,-6.89527 -9.48227,-11.7793 -6.06677,-14.15521 1.2103,-32.67871 9.9815,-44 26.31512,-33.9657 74.29309,-47.94611 94.70138,-87 7.24776,-13.86951 10.80432,-34.10901 1.6767,-48 -5.386,-8.19678 -14.00939,-13.9754 -22.89197,-17" id="path253" sodipodi:nodetypes="csscsssssssssccssssssccsssssssccsssccsssccsssssssssccssssccssssccsssssccsssssccssssssccsssssssssssc" class="stroke-orange fill-orange"/><g id="g2" transform="matrix(3.111732,0,0,3.111732,-1734.8907,-941.19454)"><path class="stroke-blue fill-blue" style="display:inline;mix-blend-mode:normal;fill:#0074D9;fill-opacity:1;stroke:none;stroke-width:0.352778;stroke-opacity:1" d="m 752.6043,319.70506 c -40.02006,-3.62592 -73.49664,-31.90348 -83.75389,-70.74663 -4.01331,-15.19799 -4.01331,-33.36825 0,-48.56626 9.67937,-36.65478 39.63748,-63.73393 77.40389,-69.96541 6.99154,-1.15361 22.64178,-1.15361 29.63333,0 41.25671,6.80738 72.6245,38.17516 79.43188,79.43187 1.84983,11.21107 0.9976,27.64223 -2.02799,39.0998 -9.6571,36.57046 -39.81128,63.87167 -77.2275,69.92078 -4.45449,0.72016 -18.98182,1.23156 -23.45972,0.82585 z m 22.40139,-5.72037 c 52.7555,-8.69562 86.4767,-59.58006 73.70138,-111.21356 -8.70542,-35.18434 -37.59744,-61.55296 -73.87777,-67.42537 -6.89864,-1.11662 -21.00679,-1.11782 -27.69306,-0.002 -39.31273,6.55855 -69.06847,36.34829 -75.38546,75.47163 -1.06803,6.61474 -1.14732,20.30013 -0.15489,26.73666 6.48822,42.08024 39.94542,73.56139 82.06674,77.21968 4.23024,0.3674 17.2536,-0.11262 21.34306,-0.78668 z" id="path21850-5-1-8" inkscape:label="path21850"/></g><g id="g3" transform="matrix(1.0237954,0,0,1.0237954,332.42183,-451.61172)"><path class="stroke-blue fill-blue" style="display:inline;mix-blend-mode:normal;fill:#0074D9;fill-opacity:1;stroke:none;stroke-width:0.352778;stroke-opacity:1" d="m 752.6043,319.70506 c -40.02006,-3.62592 -73.49664,-31.90348 -83.75389,-70.74663 -4.01331,-15.19799 -4.01331,-33.36825 0,-48.56626 9.67937,-36.65478 39.63748,-63.73393 77.40389,-69.96541 6.99154,-1.15361 22.64178,-1.15361 29.63333,0 41.25671,6.80738 72.6245,38.17516 79.43188,79.43187 1.84983,11.21107 0.9976,27.64223 -2.02799,39.0998 -9.6571,36.57046 -39.81128,63.87167 -77.2275,69.92078 -4.45449,0.72016 -18.98182,1.23156 -23.45972,0.82585 z m 22.40139,-5.72037 c 52.7555,-8.69562 86.4767,-59.58006 73.70138,-111.21356 -8.70542,-35.18434 -37.59744,-61.55296 -73.87777,-67.42537 -6.89864,-1.11662 -21.00679,-1.11782 -27.69306,-0.002 -39.31273,6.55855 -69.06847,36.34829 -75.38546,75.47163 -1.06803,6.61474 -1.14732,20.30013 -0.15489,26.73666 6.48822,42.08024 39.94542,73.56139 82.06674,77.21968 4.23024,0.3674 17.2536,-0.11262 21.34306,-0.78668 z" id="path21850-5-1-8-0" inkscape:label="path21850"/></g></g>
</svg>
