<svg xmlns="http://www.w3.org/2000/svg" xml:space="preserve" viewBox="0 0 880.467 331.658">
  <path d="M242.499 198.16c-1.508-6.333-.226-14.219-1.706-20.783-3.952-17.529-11.764-32.788-3.424-50.6 16.386-34.995 77.867-34.012 98.104-3.615 13.698 20.575-.2 43.724-3.248 65.058-1.387 9.705 1.122 20.19-.694 29.818-1.646 8.723-10.367 22.79-20.36 18.072m-56.926-25.3c12.03-.11 18.23-19.098 29.819-13.554m-28.011 30.722c-4.136-1.63-9.915-3.607-11.352-9.04-2.32-8.775 7.781-23.33 16.773-21.682m13.554 12.65c9.759 2.115 25.693-15.487 28.38.902.347 2.113.49 4.186.534 6.327m-16.264.903c-3.647 12.243-39.426 11.984-29.818 29.818m16.264 9.94c4.514 0 8.775.276 12.65-2.397 13.454-9.281 14.048-33.571 33.433-33.747m11.747 13.554c.343 8-.014 17.92 0 26.204.004 2.524-.05 4.58.419 7.229 3.082 17.445 15.284 37.238 8.183 55.118-13.981 35.208-88.316 32.845-103.588-2.71-7.8-18.161 4.28-41.528 16.42-55.115 6.384-7.146 21.128-16.283 18.025-27.111M26.247 99.142c.358-62.087 94.847-43.19 89.033 19.879-.815 8.84-10.368 22.79-20.36 18.071m-56.926-25.3c12.03-.109 18.23-19.097 29.818-13.554M39.801 128.96c-4.136-1.63-9.914-3.606-11.351-9.04-2.321-8.774 7.78-23.33 16.773-21.682m13.553 12.65c9.76 2.116 25.694-15.487 28.38.903.347 2.112.49 4.186.535 6.326m-16.265.904C67.78 131.264 32 131.005 41.608 148.839m16.265 9.94c4.513-.001 8.775.275 12.65-2.398 13.453-9.28 14.048-33.57 33.432-33.746m11.747 13.554c.344 7.999-.013 17.92 0 26.204.04 25.62-64.959 30.988-78.566 4.521-4.962-9.651 21.129-16.283 18.026-27.111" class="stroke-orange fill-orange" style="fill:none;stroke:#ff851b;stroke-width:4.32012;stroke-linecap:round;stroke-dasharray:none" transform="translate(24.175 -58.876)"/>
  <path d="M62.588 390.39c-40.02-3.625-73.496-31.903-83.753-70.746-4.014-15.198-4.014-33.368 0-48.566 9.679-36.655 39.637-63.734 77.403-69.966 6.992-1.153 22.642-1.153 29.634 0 41.256 6.808 72.624 38.176 79.432 79.432 1.85 11.211.997 27.643-2.028 39.1-9.657 36.57-39.812 63.872-77.228 69.92-4.454.721-18.982 1.232-23.46.827m22.402-5.72c52.755-8.695 86.476-59.58 73.701-111.213-8.705-35.185-37.597-61.553-73.878-67.426-6.898-1.116-21.006-1.117-27.693-.002-39.312 6.559-69.068 36.349-75.385 75.472-1.068 6.615-1.147 20.3-.155 26.737 6.488 42.08 39.945 73.561 82.067 77.22 4.23.367 17.253-.113 21.343-.787z" class="stroke-blue fill-blue" style="display:inline;mix-blend-mode:normal;fill:#616161;fill-opacity:1;stroke:none;stroke-width:.352778;stroke-opacity:1" transform="translate(24.175 -58.876)"/>
  <path d="M459.66 198.16c-1.508-6.333-.226-14.219-1.706-20.783-3.952-17.529-11.764-32.788-3.424-50.6 16.386-34.995 77.867-34.012 98.104-3.615 13.698 20.575-.2 43.724-3.248 65.058-1.387 9.705 1.123 20.19-.694 29.818-1.646 8.723-10.367 22.79-20.36 18.072m-56.926-25.3c12.03-.11 18.23-19.098 29.819-13.554m-28.011 30.722c-4.136-1.63-9.915-3.607-11.352-9.04-2.32-8.775 7.781-23.33 16.773-21.682m13.554 12.65c9.759 2.115 25.693-15.487 28.38.902.347 2.113.49 4.186.535 6.327m-16.265.903c-3.647 12.243-39.426 11.984-29.818 29.818m16.264 9.94c4.514 0 8.775.276 12.65-2.397 13.454-9.281 14.048-33.571 33.433-33.747m11.747 13.554c.343 8-.014 17.92 0 26.204.004 2.524-.05 4.58.419 7.229 3.082 17.445 15.284 37.238 8.184 55.118-13.982 35.208-88.317 32.845-103.59-2.71-7.8-18.161 4.28-41.528 16.42-55.115 6.385-7.146 21.13-16.283 18.027-27.111" class="stroke-orange fill-orange" style="fill:none;stroke:#ff851b;stroke-width:4.32012;stroke-linecap:round;stroke-dasharray:none" transform="translate(24.175 -58.876)"/>
  <path d="M496.91 319.705c-40.02-3.626-73.496-31.903-83.753-70.747-4.014-15.198-4.014-33.368 0-48.566 9.679-36.655 39.637-63.734 77.404-69.965 6.991-1.154 22.641-1.154 29.633 0 41.257 6.807 72.624 38.175 79.432 79.432 1.85 11.21.997 27.642-2.028 39.1-9.657 36.57-39.812 63.871-77.228 69.92-4.454.72-18.982 1.232-23.46.826m22.402-5.72c52.755-8.696 86.477-59.58 73.701-111.214-8.705-35.184-37.597-61.553-73.877-67.425-6.9-1.117-21.007-1.118-27.694-.002-39.312 6.558-69.068 36.348-75.385 75.471-1.068 6.615-1.147 20.3-.155 26.737 6.488 42.08 39.946 73.561 82.067 77.22 4.23.367 17.253-.113 21.343-.787z" class="stroke-blue fill-blue" style="display:inline;mix-blend-mode:normal;fill:#616161;fill-opacity:1;stroke:none;stroke-width:.352778;stroke-opacity:1" transform="translate(24.175 -58.876)"/>
  <path d="M715.354 198.16c-1.508-6.333-.227-14.219-1.706-20.783-2.223-9.861-5.668-19.004-6.772-28.287m107.12-.443c-1.306 13.21-7.08 26.72-8.916 39.573-1.387 9.705 1.122 20.19-.694 29.818-1.646 8.723-10.367 22.79-20.36 18.072m-56.926-25.3c12.03-.11 18.23-19.098 29.818-13.554m-28.01 30.722c-4.136-1.63-9.915-3.607-11.352-9.04-2.321-8.775 7.781-23.33 16.773-21.682m13.554 12.65c9.758 2.115 25.693-15.487 28.38.902.347 2.113.49 4.186.534 6.327m-16.264.903c-3.647 12.243-39.427 11.984-29.818 29.818m16.264 9.94c4.514 0 8.775.276 12.65-2.397 13.454-9.281 14.048-33.571 33.433-33.747m11.746 13.554c.344 8-.013 17.92 0 26.204.004 2.524-.049 4.58.42 7.229 1.81 10.251 6.771 21.314 9.113 32.322m-106.379.46c2.236-13.218 10.245-26.496 18.28-35.49 6.385-7.145 21.129-16.282 18.026-27.11" class="stroke-orange fill-orange" style="fill:none;stroke:#ff851b;stroke-width:4.32012;stroke-linecap:round;stroke-dasharray:none" transform="translate(24.175 -58.876)"/>
  <path d="M752.604 319.705c-40.02-3.626-73.496-31.903-83.754-70.747-4.013-15.198-4.013-33.368 0-48.566 9.68-36.655 39.638-63.734 77.404-69.965 6.992-1.154 22.642-1.154 29.634 0 41.256 6.807 72.624 38.175 79.432 79.432 1.85 11.21.997 27.642-2.028 39.1-9.658 36.57-39.812 63.871-77.228 69.92-4.454.72-18.982 1.232-23.46.826m22.402-5.72c52.755-8.696 86.476-59.58 73.701-111.214-8.705-35.184-37.597-61.553-73.878-67.425-6.898-1.117-21.006-1.118-27.693-.002-39.312 6.558-69.068 36.348-75.385 75.471-1.068 6.615-1.148 20.3-.155 26.737 6.488 42.08 39.945 73.561 82.067 77.22 4.23.367 17.253-.113 21.343-.787z" class="stroke-blue fill-blue" style="display:inline;mix-blend-mode:normal;fill:#616161;fill-opacity:1;stroke:none;stroke-width:.352778;stroke-opacity:1" transform="translate(24.175 -58.876)"/>
  <path d="m197.446 210.105.036 8.3h-22.487v12.6h22.545l.036 8.3 25.223-14.712zM631.768 210.105l.037 8.3h-22.488v12.6h22.545l.036 8.3 25.223-14.712zM376.074 210.105l.037 8.3h-22.488v12.6h22.545l.037 8.3 25.223-14.712z" class="stroke-foreground fill-foreground" style="fill:none;fill-opacity:1;stroke:#111;stroke-width:3.18728;stroke-linecap:round;stroke-linejoin:round;stroke-miterlimit:4.1;stroke-dasharray:none;stroke-opacity:1" transform="translate(24.175 -58.876)"/>
</svg>
