<svg xmlns:inkscape="http://www.inkscape.org/namespaces/inkscape" xmlns:sodipodi="http://sodipodi.sourceforge.net/DTD/sodipodi-0.dtd" xmlns="http://www.w3.org/2000/svg" xmlns:svg="http://www.w3.org/2000/svg" xml:space="preserve" viewBox="0 0 872.063 697.599" version="1.1" id="svg3" sodipodi:docname="tangle_equation_result.svg" inkscape:version="1.4.2 (ebf0e940d0, 2025-05-08)">
  <defs id="defs3">
    <inkscape:path-effect effect="knot" id="path-effect3" is_visible="true" lpeversion="1" switcher_size="15" interruption_width="6" prop_to_stroke_width="true" add_stroke_width="inkscape_1.0_and_up" both="false" inverse_width="false" add_other_stroke_width="inkscape_1.0_and_up" crossing_points_vector=""/>
  </defs>
  <sodipodi:namedview id="namedview3" pagecolor="#ffffff" bordercolor="#000000" borderopacity="0.25" inkscape:showpageshadow="2" inkscape:pageopacity="0.0" inkscape:pagecheckerboard="0" inkscape:deskcolor="#d1d1d1" inkscape:zoom="0.62752591" inkscape:cx="258.15667" inkscape:cy="493.20672" inkscape:window-width="2254" inkscape:window-height="1502" inkscape:window-x="0" inkscape:window-y="0" inkscape:window-maximized="1" inkscape:current-layer="svg3"/>
  <path d="m 742.52127,-232.44857 c -8.0612,7.53411 -17.4018,13.88347 -29.05427,11.68557 -3.892,-0.734 -7.614,-2.483 -11,-4.325 -7.878,-4.284 -13.159,-10.034 -19,-17.207 l -9,-16 c -3.162,-11.587 -6.77,-21.74 -5.91,-34 1.143,-16.32 10.702,-33.243 23.91,-42.702 4.21,-3.016 8.69,-5.396 13,-7.545 44.932,-22.411 103.497,-20.753 153,-20.753 51.905,0 104.225,10.242 155,20.4 98.92,19.788 197.318,45.19 273,115.69 48.048,44.757 99.157,117.94 61.42,183.91 l -27.507,34.18 c -12.894,13.071 -25.134,22.177 -40.913,30.067 -23.533,11.766 -48.944,21.971 -73,34 -36.294,18.146 -73.44,34.13 -111,49.764 -13.837,5.76 -27.748,12.735 -41,20.128 -34.775,19.4 -66.949,46.942 -105,59.342 -13.44464,4.38151 -25.01561,5.16569 -37.27274,5.05584 m -57.71402,-13.60758 c -4.71707,-3.66414 -8.9625,-8.41705 -12.13424,-13.92926 -11.343,-19.715 -0.285,-41.213 14.135,-56 16.306,-16.72 36.264,-28.642 55.986,-39.309 3.106,-1.68 5.712,-3.263 9,-4.935 45.316,-23.052 101.792,-50.6 131.971,-94.756 7.2571,-10.618771 16.2804,-20.373644 19.5911,-31.031032 m -10.6519,-53.128868 c -3.1283,-4.31581 -7.3051,-7.89358 -12.9102,-11.3731 -21.186,-13.15 -49.691,-8.215 -70,4.148 -25.105,15.282 -42.37,39.843 -57.576,64.385 -7.938,12.812 -14.698,27.195 -25.464,37.96 C 881.3275,-7.2347017 856.90659,1.6708 834.34428,5.2348488 M 780.1892,9.7311306 c -1.75578,0.020009 -3.62605,0.010322 -5.7222,-0.041131 -4.973,-0.122 -10.142,-0.946 -15,-2 -18.826,-4.082 -24.47,-16.442 -13.076,-31.985 13.36,-18.229 33.709,-30.793 47.33,-49 11.46723,-15.328197 13.27541,-27.19364 11.775,-35.62295 m -11.91245,-50.24094 c -14.06561,-76.99102 -111.86691,29.032 -131.19055,-9.13611 -7.76108,-15.3297 -5.9173,-36.36363 2.13846,-55.27909 m 35.87508,-40.99026 c 4.48758,-2.20799 9.19644,-3.73568 14.06046,-4.43065 9.426,-1.347 18.92,1.03 27,5.07 3.894,1.947 7.179,4.102 11,6.63 l 14,11 c 11.746,10.262 27.56,27.532 45,23.645 9.172,-2.044 16.122,-9.283 23,-15.222 1.07245,-0.92623 2.14682,-1.85422 3.22005,-2.78559 m 39.89242,-32.45775 c 1.92874,-1.08592 3.89063,-2.09133 5.88753,-3.00166 12.451,-5.677 26.972,-8.308 37.984,1.927 2.818,2.619 5.037,5.524 6.739,8.895 2.495,4.943 3.78,10.433 4.277,16 0.766,8.593 0.585,16.458 -1,25 l -3,17 c -2.173,7.656 -4.67,15.78 -7.862,23 -1.254,2.836 -2.496,5.209 -3.891,8 -1.4,2.8 -2.561,5.276 -4.12,8 -5.476,9.57 -14.117,19.172 -24.127,24.19 -15.933,7.985 -37.527,7.396 -55,7.824 -22.079,0.541 -45.793,2.44 -67,9.011 -12.96,4.016 -30.03,12.887 -27.79,28.975 0.484,3.473 2.062,7.04 3.693,10 2.26,4.1 4.85,7.4 8.187,11 2.25606,2.434631 4.07873,4.366623 5.82982,6.117083 m 36.89887,35.840214 c 9.83919,10.921563 17.28666,22.870294 14.74231,39.043703 -0.808,5.132 -2.657,10.549 -4.82,15 -1.571,3.23 -3.028,5.925 -5.181,9 -9.252,13.209 -20.79,24.793 -28.699,39 -3.422,6.148 -7.129,13.44 -2.209,19.895 5.135,6.737 17.393,8.006 25.348,8.1 11.89323,0.141796 25.39813,-1.235142 38.31464,-0.926584 m 58.89862,16.260894 c 2.535,2.25365 4.80319,4.81463 6.67874,7.66869 9.127,13.892 5.571,34.131 -1.677,48 -20.408,39.055 -68.386,53.035 -94.702,87 -8.771,11.322 -16.048,29.846 -9.981,44 2.093,4.885 5.012,8.619 9.482,11.78 8.754,6.19 23.669,9.088 34.986,10.974 29.173,4.862 58.472,6.247 88,6.247 84.115,0 168.744,-8.307 251,-26.576 36.123,-8.022 79.39,-17.904 109,-41.092 19.054,-14.922 30.948,-36.364 40.78,-57.332 19.121,-40.781 30.32,-89.474 29.205,-135 -0.8445,-22.964129 7.1935,-46.698228 -4.3031,-68.3627751 m -32.8367,-41.1227199 c -9.3791,-11.559438 -17.5619,-21.437687 -35.8452,-27.503505 -21.332,-8.877 -44.852,-14.059 -67,-20.732 -27.457,-8.27 -55.784,-19.508 -85,-18.24 -23.786,1.033 -44.3,9.537 -64,22.014 -13.688,8.668 -27.482,22.949 -45,20.762 -19.45409,-2.429853 -24.75799,-20.641884 -24.09785,-37.58979 M 1005,-162.06384 c 0.014,-0.0766 0.028,-0.15365 0.042,-0.23116 2.794,-15.463 8.38,-40.216 -6.591,-51.21 -11.30297,-8.30133 -26.47885,-7.99858 -41.76004,-5.9464 m -52.67057,2.9078 c -17.72919,-4.61871 -30.64563,-17.24523 -41.55339,-33.7514 l -11,-15 c -3.88488,-6.23978 -8.59404,-11.92676 -14,-16.907 -3.59687,-3.3037 -7.63552,-6.09137 -12,-8.283 -14.397,-7.198 -27.513,-2.342 -39,7.49 -3.98959,3.41461 -7.61259,7.15821 -11.03249,11.08497" class="stroke-orange fill-orange" style="fill:none;stroke:#ff851b;stroke-width:8.56063;stroke-dasharray:none" transform="translate(-546.026,367.614)" id="path1" sodipodi:nodetypes="ccccccccccccccccccccccccsccacsccccccccccccccccccccccccccsccccccccsscccccccccccccccscccccccccccccscccc" inkscape:path-effect="#path-effect3" inkscape:original-d="m 1320.38,-9.115 c -12.894,13.071 -25.134,22.177 -40.913,30.067 -23.533,11.766 -48.944,21.971 -73,34 -36.294,18.146 -73.44,34.13 -111,49.764 -13.837,5.76 -27.748,12.735 -41,20.128 -34.775,19.4 -66.949,46.942 -105,59.342 -20.743,6.76 -37.026,4.957 -58.25,4.519 l -23.026,-5.989 c -9.733,-2.663 -19.763,-10.441 -25.845,-21.011 -11.343,-19.715 -0.285,-41.213 14.135,-56 16.306,-16.72 36.264,-28.642 55.986,-39.309 3.106,-1.68 5.712,-3.263 9,-4.935 45.316,-23.052 101.792,-50.6 131.971,-94.756 10.617,-15.535 25.014,-29.221 19.774,-46.589 l -5.179,-25.586 c -3.056,-10.562 -8.514,-17.118 -18.566,-23.358 -21.186,-13.15 -49.691,-8.215 -70,4.148 -25.105,15.282 -42.37,39.843 -57.576,64.385 -7.938,12.812 -14.698,27.195 -25.464,37.96 C 877.48,-3.387 843.856,5.807 817.644,6.933 l -21.593,2.136 c -8.374,0.359 -13.151,0.828 -21.584,0.621 -4.973,-0.122 -10.142,-0.946 -15,-2 -18.826,-4.082 -24.47,-16.442 -13.076,-31.985 13.36,-18.229 33.709,-30.793 47.33,-49 21.019,-28.096 9.586,-44.558 4.809,-49.55 l -3.55728,-24.56649 c -6.3418,-98.74122 -112.37203,19.03077 -132.57972,-20.88351 -17.06893,-33.71458 12.32,-95.02 52.074,-100.7 9.426,-1.347 18.92,1.03 27,5.07 3.894,1.947 7.179,4.102 11,6.63 l 14,11 c 11.746,10.262 27.56,27.532 45,23.645 9.172,-2.044 16.122,-9.283 23,-15.222 4.716,-4.073 9.469,-8.18 14,-12.459 10.532,-9.945 22.027,-19.872 35,-25.786 12.451,-5.677 26.972,-8.308 37.984,1.927 2.818,2.619 5.037,5.524 6.739,8.895 2.495,4.943 3.78,10.433 4.277,16 0.766,8.593 0.585,16.458 -1,25 l -3,17 c -2.173,7.656 -4.67,15.78 -7.862,23 -1.254,2.836 -2.496,5.209 -3.891,8 -1.4,2.8 -2.561,5.276 -4.12,8 -5.476,9.57 -14.117,19.172 -24.127,24.19 -15.933,7.985 -37.527,7.396 -55,7.824 -22.079,0.541 -45.793,2.44 -67,9.011 -12.96,4.016 -30.03,12.887 -27.79,28.975 0.484,3.473 2.062,7.04 3.693,10 2.26,4.1 4.85,7.4 8.187,11 6.14,6.626 9.07,9.529 16.083,15.182 l 16.946,16.733 c 13.904,13.904 27.782,27.855 24.442,49.086 -0.808,5.132 -2.657,10.549 -4.82,15 -1.571,3.23 -3.028,5.925 -5.181,9 -9.252,13.209 -20.79,24.793 -28.699,39 -3.422,6.148 -7.129,13.44 -2.209,19.895 5.135,6.737 17.393,8.006 25.348,8.1 18.872,0.225 41.802,-3.374 60,2.005 l 21,3.998 c 8.882,3.025 17.506,8.804 22.892,17 9.127,13.892 5.571,34.131 -1.677,48 -20.408,39.055 -68.386,53.035 -94.702,87 -8.771,11.322 -16.048,29.846 -9.981,44 2.093,4.885 5.012,8.619 9.482,11.78 8.754,6.19 23.669,9.088 34.986,10.974 29.173,4.862 58.472,6.247 88,6.247 84.115,0 168.744,-8.307 251,-26.576 36.123,-8.022 79.39,-17.904 109,-41.092 19.054,-14.922 30.948,-36.364 40.78,-57.332 19.121,-40.781 30.32,-89.474 29.205,-135 -0.981,-26.676 10.024,-54.391 -11.529,-78.694 l -16.407,-19.842 c -14.541,-16.15 -21.207,-30.543 -45.049,-38.453 -21.332,-8.877 -44.852,-14.059 -67,-20.732 -27.457,-8.27 -55.784,-19.508 -85,-18.24 -23.786,1.033 -44.3,9.537 -64,22.014 -13.688,8.668 -27.482,22.949 -45,20.762 -25.5,-3.185 -26.688,-33.486 -22,-52.513 l 3.662,-24.845 c 1.656,-5.72 3.32,-8.637 4.913,-17.457 2.794,-15.463 8.38,-40.216 -6.591,-51.21 -21.012,-15.432 -55.408,-1.13 -78.984,-1.13 -26.064,0 -43.151,-14.703 -57,-35.66 l -11,-15 c -3.88488,-6.23978 -8.59404,-11.92676 -14,-16.907 -3.59687,-3.3037 -7.63552,-6.09137 -12,-8.283 -14.397,-7.198 -27.513,-2.342 -39,7.49 -16.41,14.045 -26.618,33.656 -42,48.685 -8.5,8.304 -18.398,15.924 -31,13.547 -3.892,-0.734 -7.614,-2.483 -11,-4.325 -7.878,-4.284 -13.159,-10.034 -19,-17.207 l -9,-16 c -3.162,-11.587 -6.77,-21.74 -5.91,-34 1.143,-16.32 10.702,-33.243 23.91,-42.702 4.21,-3.016 8.69,-5.396 13,-7.545 44.932,-22.411 103.497,-20.753 153,-20.753 51.905,0 104.225,10.242 155,20.4 98.92,19.788 197.318,45.19 273,115.69 48.048,44.757 99.157,117.94 61.42,183.91 z"/>
  <path d="M752.604 319.705c-40.02-3.626-73.496-31.903-83.754-70.747-4.013-15.198-4.013-33.368 0-48.566 9.68-36.655 39.638-63.734 77.404-69.965 6.992-1.154 22.642-1.154 29.634 0 41.256 6.807 72.624 38.175 79.432 79.432 1.85 11.21.997 27.642-2.028 39.1-9.658 36.57-39.812 63.871-77.228 69.92-4.454.72-18.982 1.232-23.46.826m22.402-5.72c52.755-8.696 86.476-59.58 73.701-111.214-8.705-35.184-37.597-61.553-73.878-67.425-6.898-1.117-21.006-1.118-27.693-.002-39.312 6.558-69.068 36.348-75.385 75.471-1.068 6.615-1.148 20.3-.155 26.737 6.488 42.08 39.945 73.561 82.067 77.22 4.23.367 17.253-.113 21.343-.787z" class="stroke-blue fill-blue" style="display:inline;mix-blend-mode:normal;fill:#0074d9;fill-opacity:1;stroke:none;stroke-width:.352778;stroke-opacity:1" transform="matrix(1.0238 0 0 1.0238 -4.604 116.002)" id="path2"/>
  <path d="M752.604 319.705c-40.02-3.626-73.496-31.903-83.754-70.747-4.013-15.198-4.013-33.368 0-48.566 9.68-36.655 39.638-63.734 77.404-69.965 6.992-1.154 22.642-1.154 29.634 0 41.256 6.807 72.624 38.175 79.432 79.432 1.85 11.21.997 27.642-2.028 39.1-9.658 36.57-39.812 63.871-77.228 69.92-4.454.72-18.982 1.232-23.46.826m22.402-5.72c52.755-8.696 86.476-59.58 73.701-111.214-8.705-35.184-37.597-61.553-73.878-67.425-6.898-1.117-21.006-1.118-27.693-.002-39.312 6.558-69.068 36.348-75.385 75.471-1.068 6.615-1.148 20.3-.155 26.737 6.488 42.08 39.945 73.561 82.067 77.22 4.23.367 17.253-.113 21.343-.787z" class="stroke-blue fill-blue" style="display:inline;mix-blend-mode:normal;fill:#0074d9;fill-opacity:1;stroke:none;stroke-width:.352778;stroke-opacity:1" transform="translate(-2071.917 -373.58)scale(3.11173)" id="path3"/>
</svg>
