<svg xmlns="http://www.w3.org/2000/svg" xml:space="preserve" viewBox="0 0 872.063 697.599"><path d="M465.467-458.295c-3.162-11.587-6.77-21.74-5.91-34 1.143-16.32 10.702-33.243 23.91-42.702 4.21-3.016 8.69-5.396 13-7.545 44.932-22.411 103.497-20.753 153-20.753 51.905 0 104.225 10.242 155 20.4 98.92 19.788 197.318 45.19 273 115.69 48.048 44.757 99.157 117.94 61.42 183.91-15.411 26.944-40.832 50.452-68.42 64.247-23.533 11.766-48.944 21.971-73 34-36.294 18.146-73.44 34.13-111 49.764-13.837 5.76-27.748 12.735-41 20.128-34.775 19.4-66.949 46.942-105 59.342-20.743 6.76-37.026 4.957-58.25 4.519m-207.75-431c5.841 7.173 11.122 12.923 19 17.207 3.386 1.842 7.108 3.591 11 4.325 12.602 2.377 22.5-5.242 31-13.547 15.382-15.029 25.59-34.64 42-48.685 11.487-9.832 24.603-14.688 39-7.49a52.7 52.7 0 0 1 12 8.283 81.7 81.7 0 0 1 14 16.907m-85 19c11.746 10.262 27.56 27.532 45 23.645 9.172-2.044 16.122-9.283 23-15.222 4.716-4.073 9.469-8.18 14-12.459 10.532-9.945 22.027-19.872 35-25.786 12.451-5.677 26.972-8.308 37.984 1.927 2.818 2.619 5.037 5.524 6.739 8.895 2.495 4.943 3.78 10.433 4.277 16 .766 8.593.585 16.458-1 25M568.9-342.831c-21.076-20.29-88.65 18.677-115.507-25.464-22.4-36.818 12.32-95.02 52.074-100.7 9.426-1.347 18.92 1.03 27 5.07 3.894 1.947 7.179 4.102 11 6.63m110 7c13.849 20.957 30.936 35.66 57 35.66 23.576 0 57.972-14.302 78.984 1.13 14.971 10.994 9.385 35.747 6.591 51.21-1.593 8.82-3.257 11.737-4.913 17.457m-71.662-62.457c-2.173 7.656-4.67 15.78-7.862 23-1.254 2.836-2.496 5.209-3.891 8-1.4 2.8-2.561 5.276-4.12 8-5.476 9.57-14.117 19.172-24.127 24.19-15.933 7.985-37.527 7.396-55 7.824-22.079.541-45.793 2.44-67 9.011-12.96 4.016-30.03 12.887-27.79 28.975.484 3.473 2.062 7.04 3.693 10 2.26 4.1 4.85 7.4 8.187 11 6.14 6.626 9.07 9.529 16.083 15.182m51.004 69.046c26.212-1.126 59.836-10.32 78.783-29.268 10.766-10.765 17.526-25.148 25.464-37.96 15.206-24.542 32.471-49.103 57.576-64.385 20.309-12.363 48.814-17.298 70-4.148 10.052 6.24 15.51 12.796 18.566 23.358M589.53-322.845c4.777 4.992 16.21 21.454-4.809 49.55-13.621 18.207-33.97 30.771-47.33 49-11.394 15.543-5.75 27.903 13.076 31.985 4.858 1.054 10.027 1.878 15 2 8.433.207 13.21-.262 21.584-.621m200.416-129.062c-4.688 19.027-3.5 49.328 22 52.513 17.518 2.187 31.312-12.094 45-20.762 19.7-12.477 40.214-20.981 64-22.014 29.216-1.268 57.543 9.97 85 18.24 22.148 6.673 45.668 11.855 67 20.732 23.842 7.91 30.508 22.303 45.049 38.453m-251.304-47.053c5.24 17.368-9.157 31.054-19.774 46.589-30.179 44.156-86.655 71.704-131.971 94.756-3.288 1.672-5.894 3.255-9 4.935-19.722 10.667-39.68 22.589-55.986 39.309-14.42 14.787-25.478 36.285-14.135 56 6.082 10.57 16.112 18.348 25.845 21.011M574.586-245.38c13.904 13.904 27.782 27.855 24.442 49.086-.808 5.132-2.657 10.549-4.82 15-1.571 3.23-3.028 5.925-5.181 9-9.252 13.209-20.79 24.793-28.699 39-3.422 6.148-7.129 13.44-2.209 19.895 5.135 6.737 17.393 8.006 25.348 8.1 18.872.225 41.802-3.374 60 2.005m488.456-109.694c21.553 24.303 10.548 52.018 11.529 78.694 1.115 45.526-10.084 94.219-29.205 135-9.832 20.968-21.726 42.41-40.78 57.332-29.61 23.188-72.877 33.07-109 41.092-82.256 18.269-166.885 26.576-251 26.576-29.528 0-58.827-1.385-88-6.247-11.317-1.886-26.232-4.784-34.986-10.974-4.47-3.161-7.389-6.895-9.482-11.78-6.067-14.154 1.21-32.678 9.981-44 26.316-33.965 74.294-47.945 94.702-87 7.248-13.869 10.804-34.108 1.677-48-5.386-8.196-14.01-13.975-22.892-17" class="stroke-orange fill-orange" style="fill:none;stroke:#ff851b;stroke-width:8.56063;stroke-dasharray:none" transform="translate(-337.026 567.614)"/><path d="M752.604 319.705c-40.02-3.626-73.496-31.903-83.754-70.747-4.013-15.198-4.013-33.368 0-48.566 9.68-36.655 39.638-63.734 77.404-69.965 6.992-1.154 22.642-1.154 29.634 0 41.256 6.807 72.624 38.175 79.432 79.432 1.85 11.21.997 27.642-2.028 39.1-9.658 36.57-39.812 63.871-77.228 69.92-4.454.72-18.982 1.232-23.46.826m22.402-5.72c52.755-8.696 86.476-59.58 73.701-111.214-8.705-35.184-37.597-61.553-73.878-67.425-6.898-1.117-21.006-1.118-27.693-.002-39.312 6.558-69.068 36.348-75.385 75.471-1.068 6.615-1.148 20.3-.155 26.737 6.488 42.08 39.945 73.561 82.067 77.22 4.23.367 17.253-.113 21.343-.787z" class="stroke-blue fill-blue" style="display:inline;mix-blend-mode:normal;fill:#0074d9;fill-opacity:1;stroke:none;stroke-width:.352778;stroke-opacity:1" transform="translate(-2071.917 -373.58)scale(3.11173)"/><path d="M752.604 319.705c-40.02-3.626-73.496-31.903-83.754-70.747-4.013-15.198-4.013-33.368 0-48.566 9.68-36.655 39.638-63.734 77.404-69.965 6.992-1.154 22.642-1.154 29.634 0 41.256 6.807 72.624 38.175 79.432 79.432 1.85 11.21.997 27.642-2.028 39.1-9.658 36.57-39.812 63.871-77.228 69.92-4.454.72-18.982 1.232-23.46.826m22.402-5.72c52.755-8.696 86.476-59.58 73.701-111.214-8.705-35.184-37.597-61.553-73.878-67.425-6.898-1.117-21.006-1.118-27.693-.002-39.312 6.558-69.068 36.348-75.385 75.471-1.068 6.615-1.148 20.3-.155 26.737 6.488 42.08 39.945 73.561 82.067 77.22 4.23.367 17.253-.113 21.343-.787z" class="stroke-blue fill-blue" style="display:inline;mix-blend-mode:normal;fill:#0074d9;fill-opacity:1;stroke:none;stroke-width:.352778;stroke-opacity:1" transform="matrix(1.0238 0 0 1.0238 -4.604 116.002)"/></svg>