<svg xmlns="http://www.w3.org/2000/svg" xml:space="preserve" viewBox="0 0 178.209 190.317">
  <path d="M4263.4 2679.7c182.8 184 356.9 359.3 539.8 543.3" style="fill:none;stroke:#fff;stroke-width:319.405;stroke-linecap:butt;stroke-linejoin:miter;stroke-miterlimit:10;stroke-dasharray:none;stroke-opacity:1" transform="matrix(.03528 0 0 -.03528 -6.142 190.408)"/>
  <path d="M4263.4 2679.7c182.8 184 356.9 359.3 539.8 543.3" class="stroke-orange fill-orange" style="fill:none;stroke:#ff851b;stroke-width:159.703;stroke-linecap:round;stroke-linejoin:miter;stroke-miterlimit:10;stroke-dasharray:none;stroke-opacity:1" transform="matrix(.03528 0 0 -.03528 -6.142 190.408)"/>
  <path d="M2690.8 2674.4c182.9 184 357 359.2 539.8 543.2" style="fill:none;stroke:#fff;stroke-width:319.405;stroke-linecap:butt;stroke-linejoin:miter;stroke-miterlimit:10;stroke-dasharray:none;stroke-opacity:1" transform="matrix(.03528 0 0 -.03528 -6.142 190.408)"/>
  <path d="M2690.8 2674.4c182.9 184 357 359.2 539.8 543.2" class="stroke-orange fill-orange" style="fill:none;stroke:#ff851b;stroke-width:159.703;stroke-linecap:round;stroke-linejoin:miter;stroke-miterlimit:10;stroke-dasharray:none;stroke-opacity:1" transform="matrix(.03528 0 0 -.03528 -6.142 190.408)"/>
  <path d="M1118.3 2669c182.8 184 357 359.2 539.8 543.2" style="fill:none;stroke:#fff;stroke-width:319.405;stroke-linecap:butt;stroke-linejoin:miter;stroke-miterlimit:10;stroke-dasharray:none;stroke-opacity:1" transform="matrix(.03528 0 0 -.03528 -6.142 190.408)"/>
  <path d="M1118.3 2669c182.8 184 357 359.2 539.8 543.2" class="stroke-orange fill-orange" style="fill:none;stroke:#ff851b;stroke-width:159.703;stroke-linecap:round;stroke-linejoin:miter;stroke-miterlimit:10;stroke-dasharray:none;stroke-opacity:1" transform="matrix(.03528 0 0 -.03528 -6.142 190.408)"/>
  <path d="M3741 2154c182.8 184 357 359.3 539.8 543.3" style="fill:none;stroke:#fff;stroke-width:319.405;stroke-linecap:butt;stroke-linejoin:miter;stroke-miterlimit:10;stroke-dasharray:none;stroke-opacity:1" transform="matrix(.03528 0 0 -.03528 -6.142 190.408)"/>
  <path d="M3741 2154c182.8 184 357 359.3 539.8 543.3" class="stroke-orange fill-orange" style="fill:none;stroke:#ff851b;stroke-width:159.703;stroke-linecap:round;stroke-linejoin:miter;stroke-miterlimit:10;stroke-dasharray:none;stroke-opacity:1" transform="matrix(.03528 0 0 -.03528 -6.142 190.408)"/>
  <path d="M2168.5 2148.7c182.8 184 356.9 359.2 539.8 543.2" style="fill:none;stroke:#fff;stroke-width:319.405;stroke-linecap:butt;stroke-linejoin:miter;stroke-miterlimit:10;stroke-dasharray:none;stroke-opacity:1" transform="matrix(.03528 0 0 -.03528 -6.142 190.408)"/>
  <path d="M2168.5 2148.7c182.8 184 356.9 359.2 539.8 543.2" class="stroke-orange fill-orange" style="fill:none;stroke:#ff851b;stroke-width:159.703;stroke-linecap:round;stroke-linejoin:miter;stroke-miterlimit:10;stroke-dasharray:none;stroke-opacity:1" transform="matrix(.03528 0 0 -.03528 -6.142 190.408)"/>
  <path d="M595.898 2143.3c182.903 184 357 359.2 539.802 543.2" style="fill:none;stroke:#fff;stroke-width:319.405;stroke-linecap:butt;stroke-linejoin:miter;stroke-miterlimit:10;stroke-dasharray:none;stroke-opacity:1" transform="matrix(.03528 0 0 -.03528 -6.142 190.408)"/>
  <path d="M595.898 2143.3c182.903 184 357 359.2 539.802 543.2" class="stroke-orange fill-orange" style="fill:none;stroke:#ff851b;stroke-width:159.703;stroke-linecap:round;stroke-linejoin:miter;stroke-miterlimit:10;stroke-dasharray:none;stroke-opacity:1" transform="matrix(.03528 0 0 -.03528 -6.142 190.408)"/>
  <path d="M3217 2178.4c183.9-188.6 358.6-190.8 541.4-6.8" style="fill:none;stroke:#fff;stroke-width:319.405;stroke-linecap:butt;stroke-linejoin:miter;stroke-miterlimit:10;stroke-dasharray:none;stroke-opacity:1" transform="matrix(.03528 0 0 -.03528 -6.142 190.408)"/>
  <path d="M3217 2178.4c183.9-188.6 358.6-190.8 541.4-6.8" class="stroke-orange fill-orange" style="fill:none;stroke:#ff851b;stroke-width:159.703;stroke-linecap:round;stroke-linejoin:miter;stroke-miterlimit:10;stroke-dasharray:none;stroke-opacity:1" transform="matrix(.03528 0 0 -.03528 -6.142 190.408)"/>
  <path d="M1644.5 2173c183.9-188.6 358.6-190.8 541.4-6.8" style="fill:none;stroke:#fff;stroke-width:319.405;stroke-linecap:butt;stroke-linejoin:miter;stroke-miterlimit:10;stroke-dasharray:none;stroke-opacity:1" transform="matrix(.03528 0 0 -.03528 -6.142 190.408)"/>
  <path d="M1644.5 2173c183.9-188.6 358.6-190.8 541.4-6.8" class="stroke-orange fill-orange" style="fill:none;stroke:#ff851b;stroke-width:159.703;stroke-linecap:round;stroke-linejoin:miter;stroke-miterlimit:10;stroke-dasharray:none;stroke-opacity:1" transform="matrix(.03528 0 0 -.03528 -6.142 190.408)"/>
  <path d="M345.102 1442.4C344 1745.1 430.5 1976.8 613.398 2160.8" style="fill:none;stroke:#fff;stroke-width:319.405;stroke-linecap:butt;stroke-linejoin:miter;stroke-miterlimit:10;stroke-dasharray:none;stroke-opacity:1" transform="matrix(.03528 0 0 -.03528 -6.142 190.408)"/>
  <path d="M345.102 1442.4C344 1745.1 430.5 1976.8 613.398 2160.8" class="stroke-orange fill-orange" style="fill:none;stroke:#ff851b;stroke-width:159.703;stroke-linecap:round;stroke-linejoin:miter;stroke-miterlimit:10;stroke-dasharray:none;stroke-opacity:1" transform="matrix(.03528 0 0 -.03528 -6.142 190.408)"/>
  <path d="M4785.8 3205.4c182.8 184 269.4 418.6 268.4 727.2" style="fill:none;stroke:#fff;stroke-width:319.405;stroke-linecap:butt;stroke-linejoin:miter;stroke-miterlimit:10;stroke-dasharray:none;stroke-opacity:1" transform="matrix(.03528 0 0 -.03528 -6.142 190.408)"/>
  <path d="M4785.8 3205.4c182.8 184 269.4 418.6 268.4 727.2" class="stroke-orange fill-orange" style="fill:none;stroke:#ff851b;stroke-width:159.703;stroke-linecap:round;stroke-linejoin:miter;stroke-miterlimit:10;stroke-dasharray:none;stroke-opacity:1" transform="matrix(.03528 0 0 -.03528 -6.142 190.408)"/>
  <path d="M333.801 4798c1-308.5 1.898-602.4 2.898-911" style="fill:none;stroke:#fff;stroke-width:319.405;stroke-linecap:butt;stroke-linejoin:miter;stroke-miterlimit:10;stroke-dasharray:none;stroke-opacity:1" transform="matrix(.03528 0 0 -.03528 -6.142 190.408)"/>
  <path d="M333.801 4798c1-308.5 1.898-602.4 2.898-911" class="stroke-orange fill-orange" style="fill:none;stroke:#ff851b;stroke-width:159.703;stroke-linecap:round;stroke-linejoin:miter;stroke-miterlimit:10;stroke-dasharray:none;stroke-opacity:1" transform="matrix(.03528 0 0 -.03528 -6.142 190.408)"/>
  <path d="M4789.5 2183.8c184-188.6 272.1-422.6 273.3-725.2" style="fill:none;stroke:#fff;stroke-width:319.405;stroke-linecap:butt;stroke-linejoin:miter;stroke-miterlimit:10;stroke-dasharray:none;stroke-opacity:1" transform="matrix(.03528 0 0 -.03528 -6.142 190.408)"/>
  <path d="M4789.5 2183.8c184-188.6 272.1-422.6 273.3-725.2" class="stroke-orange fill-orange" style="fill:none;stroke:#ff851b;stroke-width:159.703;stroke-linecap:round;stroke-linejoin:miter;stroke-miterlimit:10;stroke-dasharray:none;stroke-opacity:1" transform="matrix(.03528 0 0 -.03528 -6.142 190.408)"/>
  <path d="M348.398 577.699C347.199 880.301 346.199 1168.6 345 1471.2" style="fill:none;stroke:#fff;stroke-width:319.405;stroke-linecap:butt;stroke-linejoin:miter;stroke-miterlimit:10;stroke-dasharray:none;stroke-opacity:1" transform="matrix(.03528 0 0 -.03528 -6.142 190.408)"/>
  <path d="M348.398 577.699C347.199 880.301 346.199 1168.6 345 1471.2" class="stroke-orange fill-orange" style="fill:none;stroke:#ff851b;stroke-width:159.703;stroke-linecap:round;stroke-linejoin:miter;stroke-miterlimit:10;stroke-dasharray:none;stroke-opacity:1" transform="matrix(.03528 0 0 -.03528 -6.142 190.408)"/>
  <path d="M3213.2 3200.1c182.8 184 357.6 187.4 541.9 10.5" style="fill:none;stroke:#fff;stroke-width:319.405;stroke-linecap:butt;stroke-linejoin:miter;stroke-miterlimit:10;stroke-dasharray:none;stroke-opacity:1" transform="matrix(.03528 0 0 -.03528 -6.142 190.408)"/>
  <path d="M3213.2 3200.1c182.8 184 357.6 187.4 541.9 10.5" class="stroke-orange fill-orange" style="fill:none;stroke:#ff851b;stroke-width:159.703;stroke-linecap:round;stroke-linejoin:miter;stroke-miterlimit:10;stroke-dasharray:none;stroke-opacity:1" transform="matrix(.03528 0 0 -.03528 -6.142 190.408)"/>
  <path d="M1640.7 3194.7c182.8 184 357.6 187.4 541.9 10.6" style="fill:none;stroke:#fff;stroke-width:319.405;stroke-linecap:butt;stroke-linejoin:miter;stroke-miterlimit:10;stroke-dasharray:none;stroke-opacity:1" transform="matrix(.03528 0 0 -.03528 -6.142 190.408)"/>
  <path d="M1640.7 3194.7c182.8 184 357.6 187.4 541.9 10.6" class="stroke-orange fill-orange" style="fill:none;stroke:#ff851b;stroke-width:159.703;stroke-linecap:round;stroke-linejoin:miter;stroke-miterlimit:10;stroke-dasharray:none;stroke-opacity:1" transform="matrix(.03528 0 0 -.03528 -6.142 190.408)"/>
  <path d="M336.602 3916.4c1-308.6 89.199-539.7 273.398-716.5" style="fill:none;stroke:#fff;stroke-width:319.405;stroke-linecap:butt;stroke-linejoin:miter;stroke-miterlimit:10;stroke-dasharray:none;stroke-opacity:1" transform="matrix(.03528 0 0 -.03528 -6.142 190.408)"/>
  <path d="M336.602 3916.4c1-308.6 89.199-539.7 273.398-716.5" class="stroke-orange fill-orange" style="fill:none;stroke:#ff851b;stroke-width:159.703;stroke-linecap:round;stroke-linejoin:miter;stroke-miterlimit:10;stroke-dasharray:none;stroke-opacity:1" transform="matrix(.03528 0 0 -.03528 -6.142 190.408)"/>
  <path d="M4263.8 2714.1c184.1-182.8 359.3-359.6 543.3-548.2" style="fill:none;stroke:#fff;stroke-width:319.405;stroke-linecap:butt;stroke-linejoin:miter;stroke-miterlimit:10;stroke-dasharray:none;stroke-opacity:1" transform="matrix(.03528 0 0 -.03528 -6.142 190.408)"/>
  <path d="M4263.8 2714.1c184.1-182.8 359.3-359.6 543.3-548.2" class="stroke-orange fill-orange" style="fill:none;stroke:#ff851b;stroke-width:159.703;stroke-linecap:round;stroke-linejoin:miter;stroke-miterlimit:10;stroke-dasharray:none;stroke-opacity:1" transform="matrix(.03528 0 0 -.03528 -6.142 190.408)"/>
  <path d="M2691.2 2708.7c184.1-182.7 359.4-359.6 543.3-548.2" style="fill:none;stroke:#fff;stroke-width:319.405;stroke-linecap:butt;stroke-linejoin:miter;stroke-miterlimit:10;stroke-dasharray:none;stroke-opacity:1" transform="matrix(.03528 0 0 -.03528 -6.142 190.408)"/>
  <path d="M2691.2 2708.7c184.1-182.7 359.4-359.6 543.3-548.2" class="stroke-orange fill-orange" style="fill:none;stroke:#ff851b;stroke-width:159.703;stroke-linecap:round;stroke-linejoin:miter;stroke-miterlimit:10;stroke-dasharray:none;stroke-opacity:1" transform="matrix(.03528 0 0 -.03528 -6.142 190.408)"/>
  <path d="M1118.7 2703.3c184.1-182.7 359.3-359.6 543.3-548.2" style="fill:none;stroke:#fff;stroke-width:319.405;stroke-linecap:butt;stroke-linejoin:miter;stroke-miterlimit:10;stroke-dasharray:none;stroke-opacity:1" transform="matrix(.03528 0 0 -.03528 -6.142 190.408)"/>
  <path d="M1118.7 2703.3c184.1-182.7 359.3-359.6 543.3-548.2" class="stroke-orange fill-orange" style="fill:none;stroke:#ff851b;stroke-width:159.703;stroke-linecap:round;stroke-linejoin:miter;stroke-miterlimit:10;stroke-dasharray:none;stroke-opacity:1" transform="matrix(.03528 0 0 -.03528 -6.142 190.408)"/>
  <path d="M5054.3 3903.2c-1 308.5-1.9 602.4-2.9 911" style="fill:none;stroke:#fff;stroke-width:319.405;stroke-linecap:butt;stroke-linejoin:miter;stroke-miterlimit:10;stroke-dasharray:none;stroke-opacity:1" transform="matrix(.03528 0 0 -.03528 -6.142 190.408)"/>
  <path d="M5054.3 3903.2c-1 308.5-1.9 602.4-2.9 911" class="stroke-orange fill-orange" style="fill:none;stroke:#ff851b;stroke-width:159.703;stroke-linecap:round;stroke-linejoin:miter;stroke-miterlimit:10;stroke-dasharray:none;stroke-opacity:1" transform="matrix(.03528 0 0 -.03528 -6.142 190.408)"/>
  <path d="M1144.9 5226.9c-550.4-1.9-812.002-149.7-811.002-458.3" style="fill:none;stroke:#fff;stroke-width:319.405;stroke-linecap:butt;stroke-linejoin:miter;stroke-miterlimit:10;stroke-dasharray:none;stroke-opacity:1" transform="matrix(.03528 0 0 -.03528 -6.142 190.408)"/>
  <path d="M1144.9 5226.9c-550.4-1.9-812.002-149.7-811.002-458.3" class="stroke-orange fill-orange" style="fill:none;stroke:#ff851b;stroke-width:159.703;stroke-linecap:round;stroke-linejoin:miter;stroke-miterlimit:10;stroke-dasharray:none;stroke-opacity:1" transform="matrix(.03528 0 0 -.03528 -6.142 190.408)"/>
  <path d="M5051.5 4784.8c-1 308.6-263.5 454.6-813.9 452.7" style="fill:none;stroke:#fff;stroke-width:319.405;stroke-linecap:butt;stroke-linejoin:miter;stroke-miterlimit:10;stroke-dasharray:none;stroke-opacity:1" transform="matrix(.03528 0 0 -.03528 -6.142 190.408)"/>
  <path d="M5051.5 4784.8c-1 308.6-263.5 454.6-813.9 452.7" class="stroke-orange fill-orange" style="fill:none;stroke:#ff851b;stroke-width:159.703;stroke-linecap:round;stroke-linejoin:miter;stroke-miterlimit:10;stroke-dasharray:none;stroke-opacity:1" transform="matrix(.03528 0 0 -.03528 -6.142 190.408)"/>
  <path d="M4290 5237.7c-550.4-1.9-1074.6-3.7-1625-5.6" style="fill:none;stroke:#fff;stroke-width:319.405;stroke-linecap:butt;stroke-linejoin:miter;stroke-miterlimit:10;stroke-dasharray:none;stroke-opacity:1" transform="matrix(.03528 0 0 -.03528 -6.142 190.408)"/>
  <path d="M4290 5237.7c-550.4-1.9-1074.6-3.7-1625-5.6" class="stroke-orange fill-orange" style="fill:none;stroke:#ff851b;stroke-width:159.703;stroke-linecap:round;stroke-linejoin:miter;stroke-miterlimit:10;stroke-dasharray:none;stroke-opacity:1" transform="matrix(.03528 0 0 -.03528 -6.142 190.408)"/>
  <path d="M2717.5 5232.3c-550.4-1.9-1074.6-3.7-1625-5.6" style="fill:none;stroke:#fff;stroke-width:319.405;stroke-linecap:butt;stroke-linejoin:miter;stroke-miterlimit:10;stroke-dasharray:none;stroke-opacity:1" transform="matrix(.03528 0 0 -.03528 -6.142 190.408)"/>
  <path d="M2717.5 5232.3c-550.4-1.9-1074.6-3.7-1625-5.6" class="stroke-orange fill-orange" style="fill:none;stroke:#ff851b;stroke-width:159.703;stroke-linecap:round;stroke-linejoin:miter;stroke-miterlimit:10;stroke-dasharray:none;stroke-opacity:1" transform="matrix(.03528 0 0 -.03528 -6.142 190.408)"/>
  <path d="M5062.6 1487.4c1.2-302.7 2.3-590.9 3.4-893.599" style="fill:none;stroke:#fff;stroke-width:319.405;stroke-linecap:butt;stroke-linejoin:miter;stroke-miterlimit:10;stroke-dasharray:none;stroke-opacity:1" transform="matrix(.03528 0 0 -.03528 -6.142 190.408)"/>
  <path d="M5062.6 1487.4c1.2-302.7 2.3-590.9 3.4-893.599" class="stroke-orange fill-orange" style="fill:none;stroke:#ff851b;stroke-width:159.703;stroke-linecap:round;stroke-linejoin:miter;stroke-miterlimit:10;stroke-dasharray:none;stroke-opacity:1" transform="matrix(.03528 0 0 -.03528 -6.142 190.408)"/>
  <path d="M1162.4 162.5c-550.4-1.898-813.002 141.301-814.099 444" style="fill:none;stroke:#fff;stroke-width:319.405;stroke-linecap:butt;stroke-linejoin:miter;stroke-miterlimit:10;stroke-dasharray:none;stroke-opacity:1" transform="matrix(.03528 0 0 -.03528 -6.142 190.408)"/>
  <path d="M1162.4 162.5c-550.4-1.898-813.002 141.301-814.099 444" class="stroke-orange fill-orange" style="fill:none;stroke:#ff851b;stroke-width:159.703;stroke-linecap:round;stroke-linejoin:miter;stroke-miterlimit:10;stroke-dasharray:none;stroke-opacity:1" transform="matrix(.03528 0 0 -.03528 -6.142 190.408)"/>
  <path d="M3737.6 3227.5c184.2-176.9 359.6-348.1 543.7-530.8" style="fill:none;stroke:#fff;stroke-width:319.405;stroke-linecap:butt;stroke-linejoin:miter;stroke-miterlimit:10;stroke-dasharray:none;stroke-opacity:1" transform="matrix(.03528 0 0 -.03528 -6.142 190.408)"/>
  <path d="M3737.6 3227.5c184.2-176.9 359.6-348.1 543.7-530.8" class="stroke-orange fill-orange" style="fill:none;stroke:#ff851b;stroke-width:159.703;stroke-linecap:round;stroke-linejoin:miter;stroke-miterlimit:10;stroke-dasharray:none;stroke-opacity:1" transform="matrix(.03528 0 0 -.03528 -6.142 190.408)"/>
  <path d="M2165 3222.1c184.3-176.8 359.7-348.1 543.8-530.8" style="fill:none;stroke:#fff;stroke-width:319.405;stroke-linecap:butt;stroke-linejoin:miter;stroke-miterlimit:10;stroke-dasharray:none;stroke-opacity:1" transform="matrix(.03528 0 0 -.03528 -6.142 190.408)"/>
  <path d="M2165 3222.1c184.3-176.8 359.7-348.1 543.8-530.8" class="stroke-orange fill-orange" style="fill:none;stroke:#ff851b;stroke-width:159.703;stroke-linecap:round;stroke-linejoin:miter;stroke-miterlimit:10;stroke-dasharray:none;stroke-opacity:1" transform="matrix(.03528 0 0 -.03528 -6.142 190.408)"/>
  <path d="M592.5 3216.7c184.199-176.8 359.602-348 543.7-530.8" style="fill:none;stroke:#fff;stroke-width:319.405;stroke-linecap:butt;stroke-linejoin:miter;stroke-miterlimit:10;stroke-dasharray:none;stroke-opacity:1" transform="matrix(.03528 0 0 -.03528 -6.142 190.408)"/>
  <path d="M592.5 3216.7c184.199-176.8 359.602-348 543.7-530.8" class="stroke-orange fill-orange" style="fill:none;stroke:#ff851b;stroke-width:159.703;stroke-linecap:round;stroke-linejoin:miter;stroke-miterlimit:10;stroke-dasharray:none;stroke-opacity:1" transform="matrix(.03528 0 0 -.03528 -6.142 190.408)"/>
  <path d="M5065.9 622.602C5067 320 4805.5 175 4255.1 173.102" style="fill:none;stroke:#fff;stroke-width:319.405;stroke-linecap:butt;stroke-linejoin:miter;stroke-miterlimit:10;stroke-dasharray:none;stroke-opacity:1" transform="matrix(.03528 0 0 -.03528 -6.142 190.408)"/>
  <path d="M5065.9 622.602C5067 320 4805.5 175 4255.1 173.102" class="stroke-orange fill-orange" style="fill:none;stroke:#ff851b;stroke-width:159.703;stroke-linecap:round;stroke-linejoin:miter;stroke-miterlimit:10;stroke-dasharray:none;stroke-opacity:1" transform="matrix(.03528 0 0 -.03528 -6.142 190.408)"/>
  <path d="M4307.5 173.301c-550.4-1.903-1074.6-3.699-1625-5.602" style="fill:none;stroke:#fff;stroke-width:319.405;stroke-linecap:butt;stroke-linejoin:miter;stroke-miterlimit:10;stroke-dasharray:none;stroke-opacity:1" transform="matrix(.03528 0 0 -.03528 -6.142 190.408)"/>
  <path d="M4307.5 173.301c-550.4-1.903-1074.6-3.699-1625-5.602" class="stroke-orange fill-orange" style="fill:none;stroke:#ff851b;stroke-width:159.703;stroke-linecap:round;stroke-linejoin:miter;stroke-miterlimit:10;stroke-dasharray:none;stroke-opacity:1" transform="matrix(.03528 0 0 -.03528 -6.142 190.408)"/>
  <path d="M2735 167.898c-550.4-1.898-1074.6-3.699-1625-5.597" style="fill:none;stroke:#fff;stroke-width:319.405;stroke-linecap:butt;stroke-linejoin:miter;stroke-miterlimit:10;stroke-dasharray:none;stroke-opacity:1" transform="matrix(.03528 0 0 -.03528 -6.142 190.408)"/>
  <path d="M2735 167.898c-550.4-1.898-1074.6-3.699-1625-5.597" class="stroke-orange fill-orange" style="fill:none;stroke:#ff851b;stroke-width:159.703;stroke-linecap:round;stroke-linejoin:miter;stroke-miterlimit:10;stroke-dasharray:none;stroke-opacity:1" transform="matrix(.03528 0 0 -.03528 -6.142 190.408)"/>
</svg>
