<svg xmlns:inkscape="http://www.inkscape.org/namespaces/inkscape" xmlns:sodipodi="http://sodipodi.sourceforge.net/DTD/sodipodi-0.dtd" xmlns="http://www.w3.org/2000/svg" xmlns:svg="http://www.w3.org/2000/svg" viewBox="0 0 178.20929 190.31664" version="1.1" id="svg1" xml:space="preserve" sodipodi:docname="twist_3.svg" inkscape:version="1.3.2 (091e20ef0f, 2023-11-25)">
  <sodipodi:namedview id="namedview1" pagecolor="#ffffff" bordercolor="#000000" borderopacity="0.25" inkscape:showpageshadow="2" inkscape:pageopacity="0.0" inkscape:pagecheckerboard="0" inkscape:deskcolor="#d1d1d1" inkscape:document-units="mm" inkscape:zoom="0.30194179" inkscape:cx="-266.60768" inkscape:cy="438.82631" inkscape:window-width="1920" inkscape:window-height="1125" inkscape:window-x="0" inkscape:window-y="0" inkscape:window-maximized="1" inkscape:current-layer="layer1">
    <inkscape:page x="0" y="0" width="178.20929" height="190.31665" id="page1" margin="0" bleed="0"/>
  </sodipodi:namedview>
  <defs id="defs1"/>
  <g inkscape:label="Layer 1" inkscape:groupmode="layer" id="layer1" transform="translate(-15.874998,-53.445834)">
    <g id="g2" inkscape:groupmode="layer" inkscape:label="1" transform="matrix(0.26458333,0,0,0.26458334,9.73316,53.354161)">
      <path id="path1" d="m 4263.4,2679.7 c 182.8,184 356.9,359.3 539.8,543.3" class="stroke-background" style="fill:none;stroke:#FFFFFF;stroke-width:319.405;stroke-linecap:butt;stroke-linejoin:miter;stroke-miterlimit:10;stroke-dasharray:none;stroke-opacity:1" transform="matrix(0.13333333,0,0,-0.13333333,0,720)"/>
      <path id="path2" d="m 4263.4,2679.7 c 182.8,184 356.9,359.3 539.8,543.3" class="stroke-orange" style="fill:none;stroke:#FF851B;stroke-width:159.703;stroke-linecap:round;stroke-linejoin:miter;stroke-miterlimit:10;stroke-dasharray:none;stroke-opacity:1" transform="matrix(0.13333333,0,0,-0.13333333,0,720)"/>
      <path id="path3" d="m 2690.8,2674.4 c 182.9,184 357,359.2 539.8,543.2" class="stroke-background" style="fill:none;stroke:#FFFFFF;stroke-width:319.405;stroke-linecap:butt;stroke-linejoin:miter;stroke-miterlimit:10;stroke-dasharray:none;stroke-opacity:1" transform="matrix(0.13333333,0,0,-0.13333333,0,720)"/>
      <path id="path4" d="m 2690.8,2674.4 c 182.9,184 357,359.2 539.8,543.2" class="stroke-orange" style="fill:none;stroke:#FF851B;stroke-width:159.703;stroke-linecap:round;stroke-linejoin:miter;stroke-miterlimit:10;stroke-dasharray:none;stroke-opacity:1" transform="matrix(0.13333333,0,0,-0.13333333,0,720)"/>
      <path id="path5" d="m 1118.3,2669 c 182.8,184 357,359.2 539.8,543.2" class="stroke-background" style="fill:none;stroke:#FFFFFF;stroke-width:319.405;stroke-linecap:butt;stroke-linejoin:miter;stroke-miterlimit:10;stroke-dasharray:none;stroke-opacity:1" transform="matrix(0.13333333,0,0,-0.13333333,0,720)"/>
      <path id="path6" d="m 1118.3,2669 c 182.8,184 357,359.2 539.8,543.2" class="stroke-orange" style="fill:none;stroke:#FF851B;stroke-width:159.703;stroke-linecap:round;stroke-linejoin:miter;stroke-miterlimit:10;stroke-dasharray:none;stroke-opacity:1" transform="matrix(0.13333333,0,0,-0.13333333,0,720)"/>
      <path id="path7" d="m 3741,2154 c 182.8,184 357,359.3 539.8,543.3" class="stroke-background" style="fill:none;stroke:#FFFFFF;stroke-width:319.405;stroke-linecap:butt;stroke-linejoin:miter;stroke-miterlimit:10;stroke-dasharray:none;stroke-opacity:1" transform="matrix(0.13333333,0,0,-0.13333333,0,720)"/>
      <path id="path8" d="m 3741,2154 c 182.8,184 357,359.3 539.8,543.3" class="stroke-orange" style="fill:none;stroke:#FF851B;stroke-width:159.703;stroke-linecap:round;stroke-linejoin:miter;stroke-miterlimit:10;stroke-dasharray:none;stroke-opacity:1" transform="matrix(0.13333333,0,0,-0.13333333,0,720)"/>
      <path id="path9" d="m 2168.5,2148.7 c 182.8,184 356.9,359.2 539.8,543.2" class="stroke-background" style="fill:none;stroke:#FFFFFF;stroke-width:319.405;stroke-linecap:butt;stroke-linejoin:miter;stroke-miterlimit:10;stroke-dasharray:none;stroke-opacity:1" transform="matrix(0.13333333,0,0,-0.13333333,0,720)"/>
      <path id="path10" d="m 2168.5,2148.7 c 182.8,184 356.9,359.2 539.8,543.2" class="stroke-orange" style="fill:none;stroke:#FF851B;stroke-width:159.703;stroke-linecap:round;stroke-linejoin:miter;stroke-miterlimit:10;stroke-dasharray:none;stroke-opacity:1" transform="matrix(0.13333333,0,0,-0.13333333,0,720)"/>
      <path id="path11" d="m 595.898,2143.3 c 182.903,184 357,359.2 539.802,543.2" class="stroke-background" style="fill:none;stroke:#FFFFFF;stroke-width:319.405;stroke-linecap:butt;stroke-linejoin:miter;stroke-miterlimit:10;stroke-dasharray:none;stroke-opacity:1" transform="matrix(0.13333333,0,0,-0.13333333,0,720)"/>
      <path id="path12" d="m 595.898,2143.3 c 182.903,184 357,359.2 539.802,543.2" class="stroke-orange" style="fill:none;stroke:#FF851B;stroke-width:159.703;stroke-linecap:round;stroke-linejoin:miter;stroke-miterlimit:10;stroke-dasharray:none;stroke-opacity:1" transform="matrix(0.13333333,0,0,-0.13333333,0,720)"/>
      <path id="path13" d="m 3217,2178.4 c 183.9,-188.6 358.6,-190.8 541.4,-6.8" class="stroke-background" style="fill:none;stroke:#FFFFFF;stroke-width:319.405;stroke-linecap:butt;stroke-linejoin:miter;stroke-miterlimit:10;stroke-dasharray:none;stroke-opacity:1" transform="matrix(0.13333333,0,0,-0.13333333,0,720)"/>
      <path id="path14" d="m 3217,2178.4 c 183.9,-188.6 358.6,-190.8 541.4,-6.8" class="stroke-orange" style="fill:none;stroke:#FF851B;stroke-width:159.703;stroke-linecap:round;stroke-linejoin:miter;stroke-miterlimit:10;stroke-dasharray:none;stroke-opacity:1" transform="matrix(0.13333333,0,0,-0.13333333,0,720)"/>
      <path id="path15" d="m 1644.5,2173 c 183.9,-188.6 358.6,-190.8 541.4,-6.8" class="stroke-background" style="fill:none;stroke:#FFFFFF;stroke-width:319.405;stroke-linecap:butt;stroke-linejoin:miter;stroke-miterlimit:10;stroke-dasharray:none;stroke-opacity:1" transform="matrix(0.13333333,0,0,-0.13333333,0,720)"/>
      <path id="path16" d="m 1644.5,2173 c 183.9,-188.6 358.6,-190.8 541.4,-6.8" class="stroke-orange" style="fill:none;stroke:#FF851B;stroke-width:159.703;stroke-linecap:round;stroke-linejoin:miter;stroke-miterlimit:10;stroke-dasharray:none;stroke-opacity:1" transform="matrix(0.13333333,0,0,-0.13333333,0,720)"/>
      <path id="path17" d="M 345.102,1442.4 C 344,1745.1 430.5,1976.8 613.398,2160.8" class="stroke-background" style="fill:none;stroke:#FFFFFF;stroke-width:319.405;stroke-linecap:butt;stroke-linejoin:miter;stroke-miterlimit:10;stroke-dasharray:none;stroke-opacity:1" transform="matrix(0.13333333,0,0,-0.13333333,0,720)"/>
      <path id="path18" d="M 345.102,1442.4 C 344,1745.1 430.5,1976.8 613.398,2160.8" class="stroke-orange" style="fill:none;stroke:#FF851B;stroke-width:159.703;stroke-linecap:round;stroke-linejoin:miter;stroke-miterlimit:10;stroke-dasharray:none;stroke-opacity:1" transform="matrix(0.13333333,0,0,-0.13333333,0,720)"/>
      <path id="path19" d="m 4785.8,3205.4 c 182.8,184 269.4,418.6 268.4,727.2" class="stroke-background" style="fill:none;stroke:#FFFFFF;stroke-width:319.405;stroke-linecap:butt;stroke-linejoin:miter;stroke-miterlimit:10;stroke-dasharray:none;stroke-opacity:1" transform="matrix(0.13333333,0,0,-0.13333333,0,720)"/>
      <path id="path20" d="m 4785.8,3205.4 c 182.8,184 269.4,418.6 268.4,727.2" class="stroke-orange" style="fill:none;stroke:#FF851B;stroke-width:159.703;stroke-linecap:round;stroke-linejoin:miter;stroke-miterlimit:10;stroke-dasharray:none;stroke-opacity:1" transform="matrix(0.13333333,0,0,-0.13333333,0,720)"/>
      <path id="path21" d="m 333.801,4798 c 1,-308.5 1.898,-602.4 2.898,-911" class="stroke-background" style="fill:none;stroke:#FFFFFF;stroke-width:319.405;stroke-linecap:butt;stroke-linejoin:miter;stroke-miterlimit:10;stroke-dasharray:none;stroke-opacity:1" transform="matrix(0.13333333,0,0,-0.13333333,0,720)"/>
      <path id="path22" d="m 333.801,4798 c 1,-308.5 1.898,-602.4 2.898,-911" class="stroke-orange" style="fill:none;stroke:#FF851B;stroke-width:159.703;stroke-linecap:round;stroke-linejoin:miter;stroke-miterlimit:10;stroke-dasharray:none;stroke-opacity:1" transform="matrix(0.13333333,0,0,-0.13333333,0,720)"/>
      <path id="path23" d="m 4789.5,2183.8 c 184,-188.6 272.1,-422.6 273.3,-725.2" class="stroke-background" style="fill:none;stroke:#FFFFFF;stroke-width:319.405;stroke-linecap:butt;stroke-linejoin:miter;stroke-miterlimit:10;stroke-dasharray:none;stroke-opacity:1" transform="matrix(0.13333333,0,0,-0.13333333,0,720)"/>
      <path id="path24" d="m 4789.5,2183.8 c 184,-188.6 272.1,-422.6 273.3,-725.2" class="stroke-orange" style="fill:none;stroke:#FF851B;stroke-width:159.703;stroke-linecap:round;stroke-linejoin:miter;stroke-miterlimit:10;stroke-dasharray:none;stroke-opacity:1" transform="matrix(0.13333333,0,0,-0.13333333,0,720)"/>
      <path id="path25" d="M 348.398,577.699 C 347.199,880.301 346.199,1168.6 345,1471.2" class="stroke-background" style="fill:none;stroke:#FFFFFF;stroke-width:319.405;stroke-linecap:butt;stroke-linejoin:miter;stroke-miterlimit:10;stroke-dasharray:none;stroke-opacity:1" transform="matrix(0.13333333,0,0,-0.13333333,0,720)"/>
      <path id="path26" d="M 348.398,577.699 C 347.199,880.301 346.199,1168.6 345,1471.2" class="stroke-orange" style="fill:none;stroke:#FF851B;stroke-width:159.703;stroke-linecap:round;stroke-linejoin:miter;stroke-miterlimit:10;stroke-dasharray:none;stroke-opacity:1" transform="matrix(0.13333333,0,0,-0.13333333,0,720)"/>
      <path id="path27" d="m 3213.2,3200.1 c 182.8,184 357.6,187.4 541.9,10.5" class="stroke-background" style="fill:none;stroke:#FFFFFF;stroke-width:319.405;stroke-linecap:butt;stroke-linejoin:miter;stroke-miterlimit:10;stroke-dasharray:none;stroke-opacity:1" transform="matrix(0.13333333,0,0,-0.13333333,0,720)"/>
      <path id="path28" d="m 3213.2,3200.1 c 182.8,184 357.6,187.4 541.9,10.5" class="stroke-orange" style="fill:none;stroke:#FF851B;stroke-width:159.703;stroke-linecap:round;stroke-linejoin:miter;stroke-miterlimit:10;stroke-dasharray:none;stroke-opacity:1" transform="matrix(0.13333333,0,0,-0.13333333,0,720)"/>
      <path id="path29" d="m 1640.7,3194.7 c 182.8,184 357.6,187.4 541.9,10.6" class="stroke-background" style="fill:none;stroke:#FFFFFF;stroke-width:319.405;stroke-linecap:butt;stroke-linejoin:miter;stroke-miterlimit:10;stroke-dasharray:none;stroke-opacity:1" transform="matrix(0.13333333,0,0,-0.13333333,0,720)"/>
      <path id="path30" d="m 1640.7,3194.7 c 182.8,184 357.6,187.4 541.9,10.6" class="stroke-orange" style="fill:none;stroke:#FF851B;stroke-width:159.703;stroke-linecap:round;stroke-linejoin:miter;stroke-miterlimit:10;stroke-dasharray:none;stroke-opacity:1" transform="matrix(0.13333333,0,0,-0.13333333,0,720)"/>
      <path id="path31" d="m 336.602,3916.4 c 1,-308.6 89.199,-539.7 273.398,-716.5" class="stroke-background" style="fill:none;stroke:#FFFFFF;stroke-width:319.405;stroke-linecap:butt;stroke-linejoin:miter;stroke-miterlimit:10;stroke-dasharray:none;stroke-opacity:1" transform="matrix(0.13333333,0,0,-0.13333333,0,720)"/>
      <path id="path32" d="m 336.602,3916.4 c 1,-308.6 89.199,-539.7 273.398,-716.5" class="stroke-orange" style="fill:none;stroke:#FF851B;stroke-width:159.703;stroke-linecap:round;stroke-linejoin:miter;stroke-miterlimit:10;stroke-dasharray:none;stroke-opacity:1" transform="matrix(0.13333333,0,0,-0.13333333,0,720)"/>
      <path id="path33" d="m 4263.8,2714.1 c 184.1,-182.8 359.3,-359.6 543.3,-548.2" class="stroke-background" style="fill:none;stroke:#FFFFFF;stroke-width:319.405;stroke-linecap:butt;stroke-linejoin:miter;stroke-miterlimit:10;stroke-dasharray:none;stroke-opacity:1" transform="matrix(0.13333333,0,0,-0.13333333,0,720)"/>
      <path id="path34" d="m 4263.8,2714.1 c 184.1,-182.8 359.3,-359.6 543.3,-548.2" class="stroke-orange" style="fill:none;stroke:#FF851B;stroke-width:159.703;stroke-linecap:round;stroke-linejoin:miter;stroke-miterlimit:10;stroke-dasharray:none;stroke-opacity:1" transform="matrix(0.13333333,0,0,-0.13333333,0,720)"/>
      <path id="path35" d="m 2691.2,2708.7 c 184.1,-182.7 359.4,-359.6 543.3,-548.2" class="stroke-background" style="fill:none;stroke:#FFFFFF;stroke-width:319.405;stroke-linecap:butt;stroke-linejoin:miter;stroke-miterlimit:10;stroke-dasharray:none;stroke-opacity:1" transform="matrix(0.13333333,0,0,-0.13333333,0,720)"/>
      <path id="path36" d="m 2691.2,2708.7 c 184.1,-182.7 359.4,-359.6 543.3,-548.2" class="stroke-orange" style="fill:none;stroke:#FF851B;stroke-width:159.703;stroke-linecap:round;stroke-linejoin:miter;stroke-miterlimit:10;stroke-dasharray:none;stroke-opacity:1" transform="matrix(0.13333333,0,0,-0.13333333,0,720)"/>
      <path id="path37" d="M 1118.7,2703.3 C 1302.8,2520.6 1478,2343.7 1662,2155.1" class="stroke-background" style="fill:none;stroke:#FFFFFF;stroke-width:319.405;stroke-linecap:butt;stroke-linejoin:miter;stroke-miterlimit:10;stroke-dasharray:none;stroke-opacity:1" transform="matrix(0.13333333,0,0,-0.13333333,0,720)"/>
      <path id="path38" d="M 1118.7,2703.3 C 1302.8,2520.6 1478,2343.7 1662,2155.1" class="stroke-orange" style="fill:none;stroke:#FF851B;stroke-width:159.703;stroke-linecap:round;stroke-linejoin:miter;stroke-miterlimit:10;stroke-dasharray:none;stroke-opacity:1" transform="matrix(0.13333333,0,0,-0.13333333,0,720)"/>
      <path id="path39" d="m 5054.3,3903.2 c -1,308.5 -1.9,602.4 -2.9,911" class="stroke-background" style="fill:none;stroke:#FFFFFF;stroke-width:319.405;stroke-linecap:butt;stroke-linejoin:miter;stroke-miterlimit:10;stroke-dasharray:none;stroke-opacity:1" transform="matrix(0.13333333,0,0,-0.13333333,0,720)"/>
      <path id="path40" d="m 5054.3,3903.2 c -1,308.5 -1.9,602.4 -2.9,911" class="stroke-orange" style="fill:none;stroke:#FF851B;stroke-width:159.703;stroke-linecap:round;stroke-linejoin:miter;stroke-miterlimit:10;stroke-dasharray:none;stroke-opacity:1" transform="matrix(0.13333333,0,0,-0.13333333,0,720)"/>
      <path id="path41" d="M 1144.9,5226.9 C 594.5,5225 332.898,5077.2 333.898,4768.6" class="stroke-background" style="fill:none;stroke:#FFFFFF;stroke-width:319.405;stroke-linecap:butt;stroke-linejoin:miter;stroke-miterlimit:10;stroke-dasharray:none;stroke-opacity:1" transform="matrix(0.13333333,0,0,-0.13333333,0,720)"/>
      <path id="path42" d="M 1144.9,5226.9 C 594.5,5225 332.898,5077.2 333.898,4768.6" class="stroke-orange" style="fill:none;stroke:#FF851B;stroke-width:159.703;stroke-linecap:round;stroke-linejoin:miter;stroke-miterlimit:10;stroke-dasharray:none;stroke-opacity:1" transform="matrix(0.13333333,0,0,-0.13333333,0,720)"/>
      <path id="path43" d="m 5051.5,4784.8 c -1,308.6 -263.5,454.6 -813.9,452.7" class="stroke-background" style="fill:none;stroke:#FFFFFF;stroke-width:319.405;stroke-linecap:butt;stroke-linejoin:miter;stroke-miterlimit:10;stroke-dasharray:none;stroke-opacity:1" transform="matrix(0.13333333,0,0,-0.13333333,0,720)"/>
      <path id="path44" d="m 5051.5,4784.8 c -1,308.6 -263.5,454.6 -813.9,452.7" class="stroke-orange" style="fill:none;stroke:#FF851B;stroke-width:159.703;stroke-linecap:round;stroke-linejoin:miter;stroke-miterlimit:10;stroke-dasharray:none;stroke-opacity:1" transform="matrix(0.13333333,0,0,-0.13333333,0,720)"/>
      <path id="path45" d="m 4290,5237.7 c -550.4,-1.9 -1074.6,-3.7 -1625,-5.6" class="stroke-background" style="fill:none;stroke:#FFFFFF;stroke-width:319.405;stroke-linecap:butt;stroke-linejoin:miter;stroke-miterlimit:10;stroke-dasharray:none;stroke-opacity:1" transform="matrix(0.13333333,0,0,-0.13333333,0,720)"/>
      <path id="path46" d="m 4290,5237.7 c -550.4,-1.9 -1074.6,-3.7 -1625,-5.6" class="stroke-orange" style="fill:none;stroke:#FF851B;stroke-width:159.703;stroke-linecap:round;stroke-linejoin:miter;stroke-miterlimit:10;stroke-dasharray:none;stroke-opacity:1" transform="matrix(0.13333333,0,0,-0.13333333,0,720)"/>
      <path id="path47" d="m 2717.5,5232.3 c -550.4,-1.9 -1074.6,-3.7 -1625,-5.6" class="stroke-background" style="fill:none;stroke:#FFFFFF;stroke-width:319.405;stroke-linecap:butt;stroke-linejoin:miter;stroke-miterlimit:10;stroke-dasharray:none;stroke-opacity:1" transform="matrix(0.13333333,0,0,-0.13333333,0,720)"/>
      <path id="path48" d="m 2717.5,5232.3 c -550.4,-1.9 -1074.6,-3.7 -1625,-5.6" class="stroke-orange" style="fill:none;stroke:#FF851B;stroke-width:159.703;stroke-linecap:round;stroke-linejoin:miter;stroke-miterlimit:10;stroke-dasharray:none;stroke-opacity:1" transform="matrix(0.13333333,0,0,-0.13333333,0,720)"/>
      <path id="path49" d="m 5062.6,1487.4 c 1.2,-302.7 2.3,-590.9 3.4,-893.599" class="stroke-background" style="fill:none;stroke:#FFFFFF;stroke-width:319.405;stroke-linecap:butt;stroke-linejoin:miter;stroke-miterlimit:10;stroke-dasharray:none;stroke-opacity:1" transform="matrix(0.13333333,0,0,-0.13333333,0,720)"/>
      <path id="path50" d="m 5062.6,1487.4 c 1.2,-302.7 2.3,-590.9 3.4,-893.599" class="stroke-orange" style="fill:none;stroke:#FF851B;stroke-width:159.703;stroke-linecap:round;stroke-linejoin:miter;stroke-miterlimit:10;stroke-dasharray:none;stroke-opacity:1" transform="matrix(0.13333333,0,0,-0.13333333,0,720)"/>
      <path id="path51" d="M 1162.4,162.5 C 612,160.602 349.398,303.801 348.301,606.5" class="stroke-background" style="fill:none;stroke:#FFFFFF;stroke-width:319.405;stroke-linecap:butt;stroke-linejoin:miter;stroke-miterlimit:10;stroke-dasharray:none;stroke-opacity:1" transform="matrix(0.13333333,0,0,-0.13333333,0,720)"/>
      <path id="path52" d="M 1162.4,162.5 C 612,160.602 349.398,303.801 348.301,606.5" class="stroke-orange" style="fill:none;stroke:#FF851B;stroke-width:159.703;stroke-linecap:round;stroke-linejoin:miter;stroke-miterlimit:10;stroke-dasharray:none;stroke-opacity:1" transform="matrix(0.13333333,0,0,-0.13333333,0,720)"/>
      <path id="path53" d="m 3737.6,3227.5 c 184.2,-176.9 359.6,-348.1 543.7,-530.8" class="stroke-background" style="fill:none;stroke:#FFFFFF;stroke-width:319.405;stroke-linecap:butt;stroke-linejoin:miter;stroke-miterlimit:10;stroke-dasharray:none;stroke-opacity:1" transform="matrix(0.13333333,0,0,-0.13333333,0,720)"/>
      <path id="path54" d="m 3737.6,3227.5 c 184.2,-176.9 359.6,-348.1 543.7,-530.8" class="stroke-orange" style="fill:none;stroke:#FF851B;stroke-width:159.703;stroke-linecap:round;stroke-linejoin:miter;stroke-miterlimit:10;stroke-dasharray:none;stroke-opacity:1" transform="matrix(0.13333333,0,0,-0.13333333,0,720)"/>
      <path id="path55" d="m 2165,3222.1 c 184.3,-176.8 359.7,-348.1 543.8,-530.8" class="stroke-background" style="fill:none;stroke:#FFFFFF;stroke-width:319.405;stroke-linecap:butt;stroke-linejoin:miter;stroke-miterlimit:10;stroke-dasharray:none;stroke-opacity:1" transform="matrix(0.13333333,0,0,-0.13333333,0,720)"/>
      <path id="path56" d="m 2165,3222.1 c 184.3,-176.8 359.7,-348.1 543.8,-530.8" class="stroke-orange" style="fill:none;stroke:#FF851B;stroke-width:159.703;stroke-linecap:round;stroke-linejoin:miter;stroke-miterlimit:10;stroke-dasharray:none;stroke-opacity:1" transform="matrix(0.13333333,0,0,-0.13333333,0,720)"/>
      <path id="path57" d="m 592.5,3216.7 c 184.199,-176.8 359.602,-348 543.7,-530.8" class="stroke-background" style="fill:none;stroke:#FFFFFF;stroke-width:319.405;stroke-linecap:butt;stroke-linejoin:miter;stroke-miterlimit:10;stroke-dasharray:none;stroke-opacity:1" transform="matrix(0.13333333,0,0,-0.13333333,0,720)"/>
      <path id="path58" d="m 592.5,3216.7 c 184.199,-176.8 359.602,-348 543.7,-530.8" class="stroke-orange" style="fill:none;stroke:#FF851B;stroke-width:159.703;stroke-linecap:round;stroke-linejoin:miter;stroke-miterlimit:10;stroke-dasharray:none;stroke-opacity:1" transform="matrix(0.13333333,0,0,-0.13333333,0,720)"/>
      <path id="path59" d="M 5065.9,622.602 C 5067,320 4805.5,175 4255.1,173.102" class="stroke-background" style="fill:none;stroke:#FFFFFF;stroke-width:319.405;stroke-linecap:butt;stroke-linejoin:miter;stroke-miterlimit:10;stroke-dasharray:none;stroke-opacity:1" transform="matrix(0.13333333,0,0,-0.13333333,0,720)"/>
      <path id="path60" d="M 5065.9,622.602 C 5067,320 4805.5,175 4255.1,173.102" class="stroke-orange" style="fill:none;stroke:#FF851B;stroke-width:159.703;stroke-linecap:round;stroke-linejoin:miter;stroke-miterlimit:10;stroke-dasharray:none;stroke-opacity:1" transform="matrix(0.13333333,0,0,-0.13333333,0,720)"/>
      <path id="path61" d="m 4307.5,173.301 c -550.4,-1.903 -1074.6,-3.699 -1625,-5.602" class="stroke-background" style="fill:none;stroke:#FFFFFF;stroke-width:319.405;stroke-linecap:butt;stroke-linejoin:miter;stroke-miterlimit:10;stroke-dasharray:none;stroke-opacity:1" transform="matrix(0.13333333,0,0,-0.13333333,0,720)"/>
      <path id="path62" d="m 4307.5,173.301 c -550.4,-1.903 -1074.6,-3.699 -1625,-5.602" class="stroke-orange" style="fill:none;stroke:#FF851B;stroke-width:159.703;stroke-linecap:round;stroke-linejoin:miter;stroke-miterlimit:10;stroke-dasharray:none;stroke-opacity:1" transform="matrix(0.13333333,0,0,-0.13333333,0,720)"/>
      <path id="path63" d="M 2735,167.898 C 2184.6,166 1660.4,164.199 1110,162.301" class="stroke-background" style="fill:none;stroke:#FFFFFF;stroke-width:319.405;stroke-linecap:butt;stroke-linejoin:miter;stroke-miterlimit:10;stroke-dasharray:none;stroke-opacity:1" transform="matrix(0.13333333,0,0,-0.13333333,0,720)"/>
      <path id="path64" d="M 2735,167.898 C 2184.6,166 1660.4,164.199 1110,162.301" class="stroke-orange" style="fill:none;stroke:#FF851B;stroke-width:159.703;stroke-linecap:round;stroke-linejoin:miter;stroke-miterlimit:10;stroke-dasharray:none;stroke-opacity:1" transform="matrix(0.13333333,0,0,-0.13333333,0,720)"/>
    </g>
  </g>
</svg>
