<svg xmlns="http://www.w3.org/2000/svg" xml:space="preserve" viewBox="0 0 190.431 125.587">
  <path d="M-317.104 889.166c16.053-16.16 31.347-31.547 47.4-47.707" style="fill:none;stroke:#fff;stroke-width:28.0467;stroke-linecap:butt;stroke-linejoin:miter;stroke-miterlimit:10;stroke-dasharray:none;stroke-opacity:1" transform="matrix(.26458 0 0 .26458 251.973 -172.12)"/>
  <path d="M-317.104 889.166c16.053-16.16 31.347-31.547 47.4-47.707" class="stroke-orange fill-orange" style="fill:none;stroke:#ff851b;stroke-width:14.0233;stroke-linecap:round;stroke-linejoin:miter;stroke-miterlimit:10;stroke-dasharray:none;stroke-opacity:1" transform="matrix(.26458 0 0 .26458 251.973 -172.12)"/>
  <path d="M-455.184 889.633c16.054-16.147 31.347-31.534 47.4-47.694" style="fill:none;stroke:#fff;stroke-width:28.0467;stroke-linecap:butt;stroke-linejoin:miter;stroke-miterlimit:10;stroke-dasharray:none;stroke-opacity:1" transform="matrix(.26458 0 0 .26458 251.973 -172.12)"/>
  <path d="M-455.184 889.633c16.054-16.147 31.347-31.534 47.4-47.694" class="stroke-orange fill-orange" style="fill:none;stroke:#ff851b;stroke-width:14.0233;stroke-linecap:round;stroke-linejoin:miter;stroke-miterlimit:10;stroke-dasharray:none;stroke-opacity:1" transform="matrix(.26458 0 0 .26458 251.973 -172.12)"/>
  <path d="M-593.264 890.113c16.054-16.16 31.347-31.547 47.4-47.707" style="fill:none;stroke:#fff;stroke-width:28.0467;stroke-linecap:butt;stroke-linejoin:miter;stroke-miterlimit:10;stroke-dasharray:none;stroke-opacity:1" transform="matrix(.26458 0 0 .26458 251.973 -172.12)"/>
  <path d="M-593.264 890.113c16.054-16.16 31.347-31.547 47.4-47.707" class="stroke-orange fill-orange" style="fill:none;stroke:#ff851b;stroke-width:14.0233;stroke-linecap:round;stroke-linejoin:miter;stroke-miterlimit:10;stroke-dasharray:none;stroke-opacity:1" transform="matrix(.26458 0 0 .26458 251.973 -172.12)"/>
  <path d="M-731.357 890.58c16.067-16.147 31.347-31.534 47.4-47.694" style="fill:none;stroke:#fff;stroke-width:28.0467;stroke-linecap:butt;stroke-linejoin:miter;stroke-miterlimit:10;stroke-dasharray:none;stroke-opacity:1" transform="matrix(.26458 0 0 .26458 251.973 -172.12)"/>
  <path d="M-731.357 890.58c16.067-16.147 31.347-31.534 47.4-47.694" class="stroke-orange fill-orange" style="fill:none;stroke:#ff851b;stroke-width:14.0233;stroke-linecap:round;stroke-linejoin:miter;stroke-miterlimit:10;stroke-dasharray:none;stroke-opacity:1" transform="matrix(.26458 0 0 .26458 251.973 -172.12)"/>
  <path d="M-869.437 891.06c16.053-16.16 31.347-31.547 47.4-47.707" style="fill:none;stroke:#fff;stroke-width:28.0467;stroke-linecap:butt;stroke-linejoin:miter;stroke-miterlimit:10;stroke-dasharray:none;stroke-opacity:1" transform="matrix(.26458 0 0 .26458 251.973 -172.12)"/>
  <path d="M-869.437 891.06c16.053-16.16 31.347-31.547 47.4-47.707" class="stroke-orange fill-orange" style="fill:none;stroke:#ff851b;stroke-width:14.0233;stroke-linecap:round;stroke-linejoin:miter;stroke-miterlimit:10;stroke-dasharray:none;stroke-opacity:1" transform="matrix(.26458 0 0 .26458 251.973 -172.12)"/>
  <path d="M-362.97 935.326a160392 160392 0 0 1 47.4-47.693" style="fill:none;stroke:#fff;stroke-width:28.0467;stroke-linecap:butt;stroke-linejoin:miter;stroke-miterlimit:10;stroke-dasharray:none;stroke-opacity:1" transform="matrix(.26458 0 0 .26458 251.973 -172.12)"/>
  <path d="M-362.97 935.326a160392 160392 0 0 1 47.4-47.693" class="stroke-orange fill-orange" style="fill:none;stroke:#ff851b;stroke-width:14.0233;stroke-linecap:round;stroke-linejoin:miter;stroke-miterlimit:10;stroke-dasharray:none;stroke-opacity:1" transform="matrix(.26458 0 0 .26458 251.973 -172.12)"/>
  <path d="M-501.05 935.806c16.053-16.16 31.346-31.547 47.4-47.707" style="fill:none;stroke:#fff;stroke-width:28.0467;stroke-linecap:butt;stroke-linejoin:miter;stroke-miterlimit:10;stroke-dasharray:none;stroke-opacity:1" transform="matrix(.26458 0 0 .26458 251.973 -172.12)"/>
  <path d="M-501.05 935.806c16.053-16.16 31.346-31.547 47.4-47.707" class="stroke-orange fill-orange" style="fill:none;stroke:#ff851b;stroke-width:14.0233;stroke-linecap:round;stroke-linejoin:miter;stroke-miterlimit:10;stroke-dasharray:none;stroke-opacity:1" transform="matrix(.26458 0 0 .26458 251.973 -172.12)"/>
  <path d="M-639.13 936.273c16.053-16.16 31.333-31.547 47.386-47.707" style="fill:none;stroke:#fff;stroke-width:28.0467;stroke-linecap:butt;stroke-linejoin:miter;stroke-miterlimit:10;stroke-dasharray:none;stroke-opacity:1" transform="matrix(.26458 0 0 .26458 251.973 -172.12)"/>
  <path d="M-639.13 936.273c16.053-16.16 31.333-31.547 47.386-47.707" class="stroke-orange fill-orange" style="fill:none;stroke:#ff851b;stroke-width:14.0233;stroke-linecap:round;stroke-linejoin:miter;stroke-miterlimit:10;stroke-dasharray:none;stroke-opacity:1" transform="matrix(.26458 0 0 .26458 251.973 -172.12)"/>
  <path d="M-777.224 936.74c16.054-16.147 31.347-31.534 47.4-47.694" style="fill:none;stroke:#fff;stroke-width:28.0467;stroke-linecap:butt;stroke-linejoin:miter;stroke-miterlimit:10;stroke-dasharray:none;stroke-opacity:1" transform="matrix(.26458 0 0 .26458 251.973 -172.12)"/>
  <path d="M-777.224 936.74c16.054-16.147 31.347-31.534 47.4-47.694" class="stroke-orange fill-orange" style="fill:none;stroke:#ff851b;stroke-width:14.0233;stroke-linecap:round;stroke-linejoin:miter;stroke-miterlimit:10;stroke-dasharray:none;stroke-opacity:1" transform="matrix(.26458 0 0 .26458 251.973 -172.12)"/>
  <path d="M-915.304 937.22c16.054-16.16 31.347-31.547 47.4-47.707" style="fill:none;stroke:#fff;stroke-width:28.0467;stroke-linecap:butt;stroke-linejoin:miter;stroke-miterlimit:10;stroke-dasharray:none;stroke-opacity:1" transform="matrix(.26458 0 0 .26458 251.973 -172.12)"/>
  <path d="M-915.304 937.22c16.054-16.16 31.347-31.547 47.4-47.707" class="stroke-orange fill-orange" style="fill:none;stroke:#ff851b;stroke-width:14.0233;stroke-linecap:round;stroke-linejoin:miter;stroke-miterlimit:10;stroke-dasharray:none;stroke-opacity:1" transform="matrix(.26458 0 0 .26458 251.973 -172.12)"/>
  <path d="M-408.984 933.18c16.147 16.573 31.493 16.76 47.547.613" style="fill:none;stroke:#fff;stroke-width:28.0467;stroke-linecap:butt;stroke-linejoin:miter;stroke-miterlimit:10;stroke-dasharray:none;stroke-opacity:1" transform="matrix(.26458 0 0 .26458 251.973 -172.12)"/>
  <path d="M-408.984 933.18c16.147 16.573 31.493 16.76 47.547.613" class="stroke-orange fill-orange" style="fill:none;stroke:#ff851b;stroke-width:14.0233;stroke-linecap:round;stroke-linejoin:miter;stroke-miterlimit:10;stroke-dasharray:none;stroke-opacity:1" transform="matrix(.26458 0 0 .26458 251.973 -172.12)"/>
  <path d="M-547.064 933.66c16.147 16.56 31.48 16.76 47.534.6" style="fill:none;stroke:#fff;stroke-width:28.0467;stroke-linecap:butt;stroke-linejoin:miter;stroke-miterlimit:10;stroke-dasharray:none;stroke-opacity:1" transform="matrix(.26458 0 0 .26458 251.973 -172.12)"/>
  <path d="M-547.064 933.66c16.147 16.56 31.48 16.76 47.534.6" class="stroke-orange fill-orange" style="fill:none;stroke:#ff851b;stroke-width:14.0233;stroke-linecap:round;stroke-linejoin:miter;stroke-miterlimit:10;stroke-dasharray:none;stroke-opacity:1" transform="matrix(.26458 0 0 .26458 251.973 -172.12)"/>
  <path d="M-685.144 934.126c16.147 16.573 31.48 16.76 47.534.613" style="fill:none;stroke:#fff;stroke-width:28.0467;stroke-linecap:butt;stroke-linejoin:miter;stroke-miterlimit:10;stroke-dasharray:none;stroke-opacity:1" transform="matrix(.26458 0 0 .26458 251.973 -172.12)"/>
  <path d="M-685.144 934.126c16.147 16.573 31.48 16.76 47.534.613" class="stroke-orange fill-orange" style="fill:none;stroke:#ff851b;stroke-width:14.0233;stroke-linecap:round;stroke-linejoin:miter;stroke-miterlimit:10;stroke-dasharray:none;stroke-opacity:1" transform="matrix(.26458 0 0 .26458 251.973 -172.12)"/>
  <path d="M-823.237 934.606c16.16 16.56 31.493 16.76 47.547.6" style="fill:none;stroke:#fff;stroke-width:28.0467;stroke-linecap:butt;stroke-linejoin:miter;stroke-miterlimit:10;stroke-dasharray:none;stroke-opacity:1" transform="matrix(.26458 0 0 .26458 251.973 -172.12)"/>
  <path d="M-823.237 934.606c16.16 16.56 31.493 16.76 47.547.6" class="stroke-orange fill-orange" style="fill:none;stroke:#ff851b;stroke-width:14.0233;stroke-linecap:round;stroke-linejoin:miter;stroke-miterlimit:10;stroke-dasharray:none;stroke-opacity:1" transform="matrix(.26458 0 0 .26458 251.973 -172.12)"/>
  <path d="M-937.33 998.766c-.094-26.587 7.506-46.933 23.56-63.08" style="fill:none;stroke:#fff;stroke-width:28.0467;stroke-linecap:butt;stroke-linejoin:miter;stroke-miterlimit:10;stroke-dasharray:none;stroke-opacity:1" transform="matrix(.26458 0 0 .26458 251.973 -172.12)"/>
  <path d="M-937.33 998.766c-.094-26.587 7.506-46.933 23.56-63.08" class="stroke-orange fill-orange" style="fill:none;stroke:#ff851b;stroke-width:14.0233;stroke-linecap:round;stroke-linejoin:miter;stroke-miterlimit:10;stroke-dasharray:none;stroke-opacity:1" transform="matrix(.26458 0 0 .26458 251.973 -172.12)"/>
  <path d="M-271.237 843.006c16.053-16.16 23.667-36.76 23.573-63.853" style="fill:none;stroke:#fff;stroke-width:28.0467;stroke-linecap:butt;stroke-linejoin:miter;stroke-miterlimit:10;stroke-dasharray:none;stroke-opacity:1" transform="matrix(.26458 0 0 .26458 251.973 -172.12)"/>
  <path d="M-271.237 843.006c16.053-16.16 23.667-36.76 23.573-63.853" class="stroke-orange fill-orange" style="fill:none;stroke:#ff851b;stroke-width:14.0233;stroke-linecap:round;stroke-linejoin:miter;stroke-miterlimit:10;stroke-dasharray:none;stroke-opacity:1" transform="matrix(.26458 0 0 .26458 251.973 -172.12)"/>
  <path d="M-938.317 704.113c.08 27.093.16 52.893.253 79.986" style="fill:none;stroke:#fff;stroke-width:28.0467;stroke-linecap:butt;stroke-linejoin:miter;stroke-miterlimit:10;stroke-dasharray:none;stroke-opacity:1" transform="matrix(.26458 0 0 .26458 251.973 -172.12)"/>
  <path d="M-938.317 704.113c.08 27.093.16 52.893.253 79.986" class="stroke-orange fill-orange" style="fill:none;stroke:#ff851b;stroke-width:14.0233;stroke-linecap:round;stroke-linejoin:miter;stroke-miterlimit:10;stroke-dasharray:none;stroke-opacity:1" transform="matrix(.26458 0 0 .26458 251.973 -172.12)"/>
  <path d="M-270.904 932.713c16.16 16.56 23.893 37.106 24 63.68" style="fill:none;stroke:#fff;stroke-width:28.0467;stroke-linecap:butt;stroke-linejoin:miter;stroke-miterlimit:10;stroke-dasharray:none;stroke-opacity:1" transform="matrix(.26458 0 0 .26458 251.973 -172.12)"/>
  <path d="M-270.904 932.713c16.16 16.56 23.893 37.106 24 63.68" class="stroke-orange fill-orange" style="fill:none;stroke:#ff851b;stroke-width:14.0233;stroke-linecap:round;stroke-linejoin:miter;stroke-miterlimit:10;stroke-dasharray:none;stroke-opacity:1" transform="matrix(.26458 0 0 .26458 251.973 -172.12)"/>
  <path d="M-937.037 1074.7c-.107-26.587-.2-51.894-.293-78.467" style="fill:none;stroke:#fff;stroke-width:28.0467;stroke-linecap:butt;stroke-linejoin:miter;stroke-miterlimit:10;stroke-dasharray:none;stroke-opacity:1" transform="matrix(.26458 0 0 .26458 251.973 -172.12)"/>
  <path d="M-937.037 1074.7c-.107-26.587-.2-51.894-.293-78.467" class="stroke-orange fill-orange" style="fill:none;stroke:#ff851b;stroke-width:14.0233;stroke-linecap:round;stroke-linejoin:miter;stroke-miterlimit:10;stroke-dasharray:none;stroke-opacity:1" transform="matrix(.26458 0 0 .26458 251.973 -172.12)"/>
  <path d="M-409.317 843.473c16.053-16.147 31.4-16.454 47.587-.92" style="fill:none;stroke:#fff;stroke-width:28.0467;stroke-linecap:butt;stroke-linejoin:miter;stroke-miterlimit:10;stroke-dasharray:none;stroke-opacity:1" transform="matrix(.26458 0 0 .26458 251.973 -172.12)"/>
  <path d="M-409.317 843.473c16.053-16.147 31.4-16.454 47.587-.92" class="stroke-orange fill-orange" style="fill:none;stroke:#ff851b;stroke-width:14.0233;stroke-linecap:round;stroke-linejoin:miter;stroke-miterlimit:10;stroke-dasharray:none;stroke-opacity:1" transform="matrix(.26458 0 0 .26458 251.973 -172.12)"/>
  <path d="M-547.397 843.953c16.053-16.16 31.4-16.454 47.587-.934" style="fill:none;stroke:#fff;stroke-width:28.0467;stroke-linecap:butt;stroke-linejoin:miter;stroke-miterlimit:10;stroke-dasharray:none;stroke-opacity:1" transform="matrix(.26458 0 0 .26458 251.973 -172.12)"/>
  <path d="M-547.397 843.953c16.053-16.16 31.4-16.454 47.587-.934" class="stroke-orange fill-orange" style="fill:none;stroke:#ff851b;stroke-width:14.0233;stroke-linecap:round;stroke-linejoin:miter;stroke-miterlimit:10;stroke-dasharray:none;stroke-opacity:1" transform="matrix(.26458 0 0 .26458 251.973 -172.12)"/>
  <path d="M-685.477 844.42c16.053-16.16 31.4-16.454 47.573-.92" style="fill:none;stroke:#fff;stroke-width:28.0467;stroke-linecap:butt;stroke-linejoin:miter;stroke-miterlimit:10;stroke-dasharray:none;stroke-opacity:1" transform="matrix(.26458 0 0 .26458 251.973 -172.12)"/>
  <path d="M-685.477 844.42c16.053-16.16 31.4-16.454 47.573-.92" class="stroke-orange fill-orange" style="fill:none;stroke:#ff851b;stroke-width:14.0233;stroke-linecap:round;stroke-linejoin:miter;stroke-miterlimit:10;stroke-dasharray:none;stroke-opacity:1" transform="matrix(.26458 0 0 .26458 251.973 -172.12)"/>
  <path d="M-823.57 844.9c16.053-16.16 31.413-16.467 47.586-.934" style="fill:none;stroke:#fff;stroke-width:28.0467;stroke-linecap:butt;stroke-linejoin:miter;stroke-miterlimit:10;stroke-dasharray:none;stroke-opacity:1" transform="matrix(.26458 0 0 .26458 251.973 -172.12)"/>
  <path d="M-823.57 844.9c16.053-16.16 31.413-16.467 47.586-.934" class="stroke-orange fill-orange" style="fill:none;stroke:#ff851b;stroke-width:14.0233;stroke-linecap:round;stroke-linejoin:miter;stroke-miterlimit:10;stroke-dasharray:none;stroke-opacity:1" transform="matrix(.26458 0 0 .26458 251.973 -172.12)"/>
  <path d="M-938.077 781.526c.08 27.093 7.827 47.387 24.013 62.907" style="fill:none;stroke:#fff;stroke-width:28.0467;stroke-linecap:butt;stroke-linejoin:miter;stroke-miterlimit:10;stroke-dasharray:none;stroke-opacity:1" transform="matrix(.26458 0 0 .26458 251.973 -172.12)"/>
  <path d="M-938.077 781.526c.08 27.093 7.827 47.387 24.013 62.907" class="stroke-orange fill-orange" style="fill:none;stroke:#ff851b;stroke-width:14.0233;stroke-linecap:round;stroke-linejoin:miter;stroke-miterlimit:10;stroke-dasharray:none;stroke-opacity:1" transform="matrix(.26458 0 0 .26458 251.973 -172.12)"/>
  <path d="M-317.064 886.153a4182 4182 0 0 1 47.707 48.133" style="fill:none;stroke:#fff;stroke-width:28.0467;stroke-linecap:butt;stroke-linejoin:miter;stroke-miterlimit:10;stroke-dasharray:none;stroke-opacity:1" transform="matrix(.26458 0 0 .26458 251.973 -172.12)"/>
  <path d="M-317.064 886.153a4182 4182 0 0 1 47.707 48.133" class="stroke-orange fill-orange" style="fill:none;stroke:#ff851b;stroke-width:14.0233;stroke-linecap:round;stroke-linejoin:miter;stroke-miterlimit:10;stroke-dasharray:none;stroke-opacity:1" transform="matrix(.26458 0 0 .26458 251.973 -172.12)"/>
  <path d="M-455.144 886.62a4078 4078 0 0 1 47.694 48.146" style="fill:none;stroke:#fff;stroke-width:28.0467;stroke-linecap:butt;stroke-linejoin:miter;stroke-miterlimit:10;stroke-dasharray:none;stroke-opacity:1" transform="matrix(.26458 0 0 .26458 251.973 -172.12)"/>
  <path d="M-455.144 886.62a4078 4078 0 0 1 47.694 48.146" class="stroke-orange fill-orange" style="fill:none;stroke:#ff851b;stroke-width:14.0233;stroke-linecap:round;stroke-linejoin:miter;stroke-miterlimit:10;stroke-dasharray:none;stroke-opacity:1" transform="matrix(.26458 0 0 .26458 251.973 -172.12)"/>
  <path d="M-593.237 887.1a3977 3977 0 0 1 47.707 48.133" style="fill:none;stroke:#fff;stroke-width:28.0467;stroke-linecap:butt;stroke-linejoin:miter;stroke-miterlimit:10;stroke-dasharray:none;stroke-opacity:1" transform="matrix(.26458 0 0 .26458 251.973 -172.12)"/>
  <path d="M-593.237 887.1a3977 3977 0 0 1 47.707 48.133" class="stroke-orange fill-orange" style="fill:none;stroke:#ff851b;stroke-width:14.0233;stroke-linecap:round;stroke-linejoin:miter;stroke-miterlimit:10;stroke-dasharray:none;stroke-opacity:1" transform="matrix(.26458 0 0 .26458 251.973 -172.12)"/>
  <path d="M-731.317 887.566a4078 4078 0 0 1 47.707 48.147" style="fill:none;stroke:#fff;stroke-width:28.0467;stroke-linecap:butt;stroke-linejoin:miter;stroke-miterlimit:10;stroke-dasharray:none;stroke-opacity:1" transform="matrix(.26458 0 0 .26458 251.973 -172.12)"/>
  <path d="M-731.317 887.566a4078 4078 0 0 1 47.707 48.147" class="stroke-orange fill-orange" style="fill:none;stroke:#ff851b;stroke-width:14.0233;stroke-linecap:round;stroke-linejoin:miter;stroke-miterlimit:10;stroke-dasharray:none;stroke-opacity:1" transform="matrix(.26458 0 0 .26458 251.973 -172.12)"/>
  <path d="M-869.397 888.046a4182 4182 0 0 1 47.707 48.133" style="fill:none;stroke:#fff;stroke-width:28.0467;stroke-linecap:butt;stroke-linejoin:miter;stroke-miterlimit:10;stroke-dasharray:none;stroke-opacity:1" transform="matrix(.26458 0 0 .26458 251.973 -172.12)"/>
  <path d="M-869.397 888.046a4182 4182 0 0 1 47.707 48.133" class="stroke-orange fill-orange" style="fill:none;stroke:#ff851b;stroke-width:14.0233;stroke-linecap:round;stroke-linejoin:miter;stroke-miterlimit:10;stroke-dasharray:none;stroke-opacity:1" transform="matrix(.26458 0 0 .26458 251.973 -172.12)"/>
  <path d="M-247.65 781.74c-.094-27.094-.174-52.907-.254-80" style="fill:none;stroke:#fff;stroke-width:28.0467;stroke-linecap:butt;stroke-linejoin:miter;stroke-miterlimit:10;stroke-dasharray:none;stroke-opacity:1" transform="matrix(.26458 0 0 .26458 251.973 -172.12)"/>
  <path d="M-247.65 781.74c-.094-27.094-.174-52.907-.254-80" class="stroke-orange fill-orange" style="fill:none;stroke:#ff851b;stroke-width:14.0233;stroke-linecap:round;stroke-linejoin:miter;stroke-miterlimit:10;stroke-dasharray:none;stroke-opacity:1" transform="matrix(.26458 0 0 .26458 251.973 -172.12)"/>
  <path d="M-867.104 666.446c-48.32.16-71.293 13.147-71.213 40.24" style="fill:none;stroke:#fff;stroke-width:28.0467;stroke-linecap:butt;stroke-linejoin:miter;stroke-miterlimit:10;stroke-dasharray:none;stroke-opacity:1" transform="matrix(.26458 0 0 .26458 251.973 -172.12)"/>
  <path d="M-867.104 666.446c-48.32.16-71.293 13.147-71.213 40.24" class="stroke-orange fill-orange" style="fill:none;stroke:#ff851b;stroke-width:14.0233;stroke-linecap:round;stroke-linejoin:miter;stroke-miterlimit:10;stroke-dasharray:none;stroke-opacity:1" transform="matrix(.26458 0 0 .26458 251.973 -172.12)"/>
  <path d="M-247.904 704.326c-.08-27.093-23.133-39.92-71.466-39.76" style="fill:none;stroke:#fff;stroke-width:28.0467;stroke-linecap:butt;stroke-linejoin:miter;stroke-miterlimit:10;stroke-dasharray:none;stroke-opacity:1" transform="matrix(.26458 0 0 .26458 251.973 -172.12)"/>
  <path d="M-247.904 704.326c-.08-27.093-23.133-39.92-71.466-39.76" class="stroke-orange fill-orange" style="fill:none;stroke:#ff851b;stroke-width:14.0233;stroke-linecap:round;stroke-linejoin:miter;stroke-miterlimit:10;stroke-dasharray:none;stroke-opacity:1" transform="matrix(.26458 0 0 .26458 251.973 -172.12)"/>
  <path d="M-314.77 664.553c-48.32.16-94.347.32-142.68.493" style="fill:none;stroke:#fff;stroke-width:28.0467;stroke-linecap:butt;stroke-linejoin:miter;stroke-miterlimit:10;stroke-dasharray:none;stroke-opacity:1" transform="matrix(.26458 0 0 .26458 251.973 -172.12)"/>
  <path d="M-314.77 664.553c-48.32.16-94.347.32-142.68.493" class="stroke-orange fill-orange" style="fill:none;stroke:#ff851b;stroke-width:14.0233;stroke-linecap:round;stroke-linejoin:miter;stroke-miterlimit:10;stroke-dasharray:none;stroke-opacity:1" transform="matrix(.26458 0 0 .26458 251.973 -172.12)"/>
  <path d="M-452.85 665.033c-48.32.16-94.36.32-142.68.48" style="fill:none;stroke:#fff;stroke-width:28.0467;stroke-linecap:butt;stroke-linejoin:miter;stroke-miterlimit:10;stroke-dasharray:none;stroke-opacity:1" transform="matrix(.26458 0 0 .26458 251.973 -172.12)"/>
  <path d="M-452.85 665.033c-48.32.16-94.36.32-142.68.48" class="stroke-orange fill-orange" style="fill:none;stroke:#ff851b;stroke-width:14.0233;stroke-linecap:round;stroke-linejoin:miter;stroke-miterlimit:10;stroke-dasharray:none;stroke-opacity:1" transform="matrix(.26458 0 0 .26458 251.973 -172.12)"/>
  <path d="M-590.93 665.5c-48.334.16-94.36.32-142.68.493" style="fill:none;stroke:#fff;stroke-width:28.0467;stroke-linecap:butt;stroke-linejoin:miter;stroke-miterlimit:10;stroke-dasharray:none;stroke-opacity:1" transform="matrix(.26458 0 0 .26458 251.973 -172.12)"/>
  <path d="M-590.93 665.5c-48.334.16-94.36.32-142.68.493" class="stroke-orange fill-orange" style="fill:none;stroke:#ff851b;stroke-width:14.0233;stroke-linecap:round;stroke-linejoin:miter;stroke-miterlimit:10;stroke-dasharray:none;stroke-opacity:1" transform="matrix(.26458 0 0 .26458 251.973 -172.12)"/>
  <path d="M-729.01 665.966c-48.334.173-94.36.333-142.694.493" style="fill:none;stroke:#fff;stroke-width:28.0467;stroke-linecap:butt;stroke-linejoin:miter;stroke-miterlimit:10;stroke-dasharray:none;stroke-opacity:1" transform="matrix(.26458 0 0 .26458 251.973 -172.12)"/>
  <path d="M-729.01 665.966c-48.334.173-94.36.333-142.694.493" class="stroke-orange fill-orange" style="fill:none;stroke:#ff851b;stroke-width:14.0233;stroke-linecap:round;stroke-linejoin:miter;stroke-miterlimit:10;stroke-dasharray:none;stroke-opacity:1" transform="matrix(.26458 0 0 .26458 251.973 -172.12)"/>
  <path d="M-246.917 993.86c.093 26.586.187 51.893.293 78.466" style="fill:none;stroke:#fff;stroke-width:28.0467;stroke-linecap:butt;stroke-linejoin:miter;stroke-miterlimit:10;stroke-dasharray:none;stroke-opacity:1" transform="matrix(.26458 0 0 .26458 251.973 -172.12)"/>
  <path d="M-246.917 993.86c.093 26.586.187 51.893.293 78.466" class="stroke-orange fill-orange" style="fill:none;stroke:#ff851b;stroke-width:14.0233;stroke-linecap:round;stroke-linejoin:miter;stroke-miterlimit:10;stroke-dasharray:none;stroke-opacity:1" transform="matrix(.26458 0 0 .26458 251.973 -172.12)"/>
  <path d="M-865.557 1111.153c-48.333.16-71.4-12.414-71.493-38.987" style="fill:none;stroke:#fff;stroke-width:28.0467;stroke-linecap:butt;stroke-linejoin:miter;stroke-miterlimit:10;stroke-dasharray:none;stroke-opacity:1" transform="matrix(.26458 0 0 .26458 251.973 -172.12)"/>
  <path d="M-865.557 1111.153c-48.333.16-71.4-12.414-71.493-38.987" class="stroke-orange fill-orange" style="fill:none;stroke:#ff851b;stroke-width:14.0233;stroke-linecap:round;stroke-linejoin:miter;stroke-miterlimit:10;stroke-dasharray:none;stroke-opacity:1" transform="matrix(.26458 0 0 .26458 251.973 -172.12)"/>
  <path d="M-363.277 841.073a3797 3797 0 0 1 47.747 46.6" style="fill:none;stroke:#fff;stroke-width:28.0467;stroke-linecap:butt;stroke-linejoin:miter;stroke-miterlimit:10;stroke-dasharray:none;stroke-opacity:1" transform="matrix(.26458 0 0 .26458 251.973 -172.12)"/>
  <path d="M-363.277 841.073a3797 3797 0 0 1 47.747 46.6" class="stroke-orange fill-orange" style="fill:none;stroke:#ff851b;stroke-width:14.0233;stroke-linecap:round;stroke-linejoin:miter;stroke-miterlimit:10;stroke-dasharray:none;stroke-opacity:1" transform="matrix(.26458 0 0 .26458 251.973 -172.12)"/>
  <path d="M-501.357 841.54a3892 3892 0 0 1 47.747 46.613" style="fill:none;stroke:#fff;stroke-width:28.0467;stroke-linecap:butt;stroke-linejoin:miter;stroke-miterlimit:10;stroke-dasharray:none;stroke-opacity:1" transform="matrix(.26458 0 0 .26458 251.973 -172.12)"/>
  <path d="M-501.357 841.54a3892 3892 0 0 1 47.747 46.613" class="stroke-orange fill-orange" style="fill:none;stroke:#ff851b;stroke-width:14.0233;stroke-linecap:round;stroke-linejoin:miter;stroke-miterlimit:10;stroke-dasharray:none;stroke-opacity:1" transform="matrix(.26458 0 0 .26458 251.973 -172.12)"/>
  <path d="M-639.437 842.02a3987 3987 0 0 1 47.747 46.6" style="fill:none;stroke:#fff;stroke-width:28.0467;stroke-linecap:butt;stroke-linejoin:miter;stroke-miterlimit:10;stroke-dasharray:none;stroke-opacity:1" transform="matrix(.26458 0 0 .26458 251.973 -172.12)"/>
  <path d="M-639.437 842.02a3987 3987 0 0 1 47.747 46.6" class="stroke-orange fill-orange" style="fill:none;stroke:#ff851b;stroke-width:14.0233;stroke-linecap:round;stroke-linejoin:miter;stroke-miterlimit:10;stroke-dasharray:none;stroke-opacity:1" transform="matrix(.26458 0 0 .26458 251.973 -172.12)"/>
  <path d="M-777.53 842.486a3799 3799 0 0 1 47.746 46.613" style="fill:none;stroke:#fff;stroke-width:28.0467;stroke-linecap:butt;stroke-linejoin:miter;stroke-miterlimit:10;stroke-dasharray:none;stroke-opacity:1" transform="matrix(.26458 0 0 .26458 251.973 -172.12)"/>
  <path d="M-777.53 842.486a3799 3799 0 0 1 47.746 46.613" class="stroke-orange fill-orange" style="fill:none;stroke:#ff851b;stroke-width:14.0233;stroke-linecap:round;stroke-linejoin:miter;stroke-miterlimit:10;stroke-dasharray:none;stroke-opacity:1" transform="matrix(.26458 0 0 .26458 251.973 -172.12)"/>
  <path d="M-915.61 842.966a3794 3794 0 0 1 47.746 46.6" style="fill:none;stroke:#fff;stroke-width:28.0467;stroke-linecap:butt;stroke-linejoin:miter;stroke-miterlimit:10;stroke-dasharray:none;stroke-opacity:1" transform="matrix(.26458 0 0 .26458 251.973 -172.12)"/>
  <path d="M-915.61 842.966a3794 3794 0 0 1 47.746 46.6" class="stroke-orange fill-orange" style="fill:none;stroke:#ff851b;stroke-width:14.0233;stroke-linecap:round;stroke-linejoin:miter;stroke-miterlimit:10;stroke-dasharray:none;stroke-opacity:1" transform="matrix(.26458 0 0 .26458 251.973 -172.12)"/>
  <path d="M-246.637 1069.793c.107 26.586-22.867 39.32-71.187 39.48" style="fill:none;stroke:#fff;stroke-width:28.0467;stroke-linecap:butt;stroke-linejoin:miter;stroke-miterlimit:10;stroke-dasharray:none;stroke-opacity:1" transform="matrix(.26458 0 0 .26458 251.973 -172.12)"/>
  <path d="M-246.637 1069.793c.107 26.586-22.867 39.32-71.187 39.48" class="stroke-orange fill-orange" style="fill:none;stroke:#ff851b;stroke-width:14.0233;stroke-linecap:round;stroke-linejoin:miter;stroke-miterlimit:10;stroke-dasharray:none;stroke-opacity:1" transform="matrix(.26458 0 0 .26458 251.973 -172.12)"/>
  <path d="M-313.224 1109.26c-48.333.16-94.36.32-142.693.493" style="fill:none;stroke:#fff;stroke-width:28.0467;stroke-linecap:butt;stroke-linejoin:miter;stroke-miterlimit:10;stroke-dasharray:none;stroke-opacity:1" transform="matrix(.26458 0 0 .26458 251.973 -172.12)"/>
  <path d="M-313.224 1109.26c-48.333.16-94.36.32-142.693.493" class="stroke-orange fill-orange" style="fill:none;stroke:#ff851b;stroke-width:14.0233;stroke-linecap:round;stroke-linejoin:miter;stroke-miterlimit:10;stroke-dasharray:none;stroke-opacity:1" transform="matrix(.26458 0 0 .26458 251.973 -172.12)"/>
  <path d="M-451.317 1109.726c-48.32.173-94.347.333-142.68.493" style="fill:none;stroke:#fff;stroke-width:28.0467;stroke-linecap:butt;stroke-linejoin:miter;stroke-miterlimit:10;stroke-dasharray:none;stroke-opacity:1" transform="matrix(.26458 0 0 .26458 251.973 -172.12)"/>
  <path d="M-451.317 1109.726c-48.32.173-94.347.333-142.68.493" class="stroke-orange fill-orange" style="fill:none;stroke:#ff851b;stroke-width:14.0233;stroke-linecap:round;stroke-linejoin:miter;stroke-miterlimit:10;stroke-dasharray:none;stroke-opacity:1" transform="matrix(.26458 0 0 .26458 251.973 -172.12)"/>
  <path d="M-589.397 1110.206c-48.32.16-94.36.32-142.68.48" style="fill:none;stroke:#fff;stroke-width:28.0467;stroke-linecap:butt;stroke-linejoin:miter;stroke-miterlimit:10;stroke-dasharray:none;stroke-opacity:1" transform="matrix(.26458 0 0 .26458 251.973 -172.12)"/>
  <path d="M-589.397 1110.206c-48.32.16-94.36.32-142.68.48" class="stroke-orange fill-orange" style="fill:none;stroke:#ff851b;stroke-width:14.0233;stroke-linecap:round;stroke-linejoin:miter;stroke-miterlimit:10;stroke-dasharray:none;stroke-opacity:1" transform="matrix(.26458 0 0 .26458 251.973 -172.12)"/>
  <path d="M-727.477 1110.673c-48.333.173-94.36.333-142.68.493" style="fill:none;stroke:#fff;stroke-width:28.0467;stroke-linecap:butt;stroke-linejoin:miter;stroke-miterlimit:10;stroke-dasharray:none;stroke-opacity:1" transform="matrix(.26458 0 0 .26458 251.973 -172.12)"/>
  <path d="M-727.477 1110.673c-48.333.173-94.36.333-142.68.493" class="stroke-orange fill-orange" style="fill:none;stroke:#ff851b;stroke-width:14.0233;stroke-linecap:round;stroke-linejoin:miter;stroke-miterlimit:10;stroke-dasharray:none;stroke-opacity:1" transform="matrix(.26458 0 0 .26458 251.973 -172.12)"/>
</svg>
