<svg xmlns="http://www.w3.org/2000/svg" xml:space="preserve" viewBox="0 0 124.703 76.571">
  <g style="display:inline">
    <path d="M128.133 65.66c-3.355.155 2.443 4.37-.911 4.525l-1.118.052c3.354-.156-2.444-4.37.911-4.525zm1.339-.04c-3.358.003 2.342 4.352-1.013 4.508l-1.118.051c3.355-.155-2.443-4.37.911-4.525zm1.239-.002c-3.358.003 2.243 4.476-1.115 4.48l-1.017.024c3.354-.155-2.345-4.5 1.013-4.503zm1.239-.001c-3.358.003 2.243 4.476-1.115 4.48h-1.119c3.358-.003-2.243-4.476 1.115-4.479zm1.332.043c-3.356-.136 2.15 4.432-1.208 4.435l-1.119.001c3.358-.003-2.243-4.476 1.115-4.48zm1.238.05c-3.356-.136 2.054 4.566-1.301 4.43l-1.118-.046c3.355.137-2.055-4.565 1.3-4.429zm1.323.069c-3.348-.266 1.969 4.548-1.386 4.411l-1.118-.045c3.355.136-2.055-4.566 1.3-4.43zm1.235.098c-3.347-.266 1.878 4.641-1.47 4.376l-1.031-.058c3.355.137-1.962-4.673 1.385-4.407zm1.235.098c-3.347-.266 1.878 4.642-1.47 4.376l-1.116-.089c3.348.266-1.877-4.641 1.471-4.376zm1.313.135c-3.336-.386 1.8 4.605-1.548 4.339l-1.116-.089c3.348.266-1.877-4.641 1.471-4.375zm1.231.142c-3.336-.386 1.709 4.706-1.627 4.32l-1.033-.114c3.348.266-1.788-4.72 1.548-4.335zm1.305.152c-3.321-.497 1.635 4.696-1.701 4.31l-1.112-.128c3.336.386-1.71-4.706 1.626-4.32zm1.225.184c-3.321-.498 1.551 4.76-1.77 4.263l-1.037-.123c3.336.386-1.621-4.804 1.7-4.306zm1.226.184c-3.321-.498 1.55 4.76-1.771 4.263l-1.107-.166c3.321.497-1.551-4.761 1.771-4.263zm1.293.207c-3.304-.603 1.483 4.737-1.839 4.24l-1.107-.167c3.321.498-1.55-4.76 1.771-4.263zm1.219.222c-3.304-.602 1.399 4.808-1.905 4.205l-1.034-.17c3.321.498-1.466-4.838 1.838-4.235zm1.219.223c-3.304-.603 1.399 4.807-1.905 4.205l-1.101-.201c3.303.602-1.399-4.808 1.905-4.205zm1.281.258c-3.285-.702 1.337 4.772-1.967 4.169l-1.101-.2c3.303.602-1.399-4.808 1.905-4.206zm1.211.258c-3.284-.701 1.254 4.848-2.03 4.146l-1.03-.214c3.303.603-1.319-4.867 1.966-4.165zm1.212.26c-3.284-.702 1.253 4.847-2.031 4.145l-1.094-.234c3.284.702-1.254-4.847 2.03-4.146zm1.267.303c-3.262-.796 1.198 4.803-2.086 4.101l-1.095-.234c3.284.702-1.253-4.847 2.031-4.146zm1.204.294c-3.262-.796 1.114 4.881-2.149 4.085l-1.087-.265c3.262.796-1.114-4.881 2.149-4.085zm1.263.314c-3.239-.887 1.055 4.861-2.208 4.065l-1.088-.265c3.263.796-1.113-4.882 2.149-4.086zm1.195.327c-3.239-.887.978 4.91-2.261 4.024l-1.026-.258c3.263.796-1.032-4.948 2.207-4.062zm1.195.327c-3.239-.887.978 4.91-2.261 4.024l-1.08-.296c3.239.887-.978-4.91 2.261-4.024zm1.25.356c-3.214-.974.923 4.881-2.316 3.995l-1.08-.296c3.239.887-.978-4.91 2.262-4.024zm1.186.359c-3.214-.973.845 4.935-2.37 3.962l-1.017-.295c3.239.887-.899-4.965 2.315-3.992zm1.186.359c-3.215-.973.844 4.935-2.37 3.962l-1.071-.325c3.214.974-.845-4.935 2.369-3.961zm1.236.397c-3.188-1.058.794 4.897-2.42 3.924l-1.071-.325c3.214.974-.845-4.935 2.369-3.961zm1.176.39c-3.188-1.058.714 4.956-2.474 3.898l-1.007-.33c3.214.974-.769-4.978 2.418-3.92zm1.176.39c-3.188-1.057.714 4.956-2.474 3.898l-1.062-.352c3.187 1.058-.714-4.956 2.473-3.898zm1.221.438c-3.158-1.14.584 4.973-2.574 3.832l-1.007-.334c3.187 1.058-.63-5.02 2.528-3.878zm1.166.421c-3.159-1.14.584 4.973-2.575 3.832l-1.053-.38c3.159 1.14-.584-4.973 2.575-3.832zm1.218.447c-3.128-1.223.531 4.947-2.627 3.806l-1.053-.38c3.158 1.14-.584-4.973 2.574-3.832zm1.153.451c-3.127-1.223.455 4.987-2.673 3.764l-.995-.369c3.159 1.141-.502-5.025 2.626-3.802zm1.154.452c-3.127-1.223.455 4.986-2.673 3.763l-1.043-.408c3.128 1.223-.454-4.986 2.674-3.763zm1.203.488c-3.095-1.305.406 4.95-2.722 3.726l-1.043-.407c3.128 1.223-.454-4.987 2.674-3.764zm1.142.482c-3.095-1.305.322 4.996-2.772 3.691l-.981-.403c3.128 1.223-.373-5.028 2.721-3.723zm1.141.481c-3.094-1.305.323 4.997-2.771 3.692l-1.032-.435c3.095 1.305-.323-4.997 2.772-3.692zm1.186.531c-3.059-1.387.279 4.947-2.816 3.642l-1.031-.435c3.094 1.305-.323-4.996 2.772-3.691zm1.128.512c-3.058-1.387.189 5.004-2.869 3.616l-1.02-.462c3.059 1.387-.189-5.004 2.87-3.616zm1.181.546c-3.019-1.472.136 4.97-2.922 3.582l-1.019-.462c3.058 1.387-.189-5.004 2.869-3.616zm1.114.542c-3.019-1.47.051 5.007-2.968 3.536l-.959-.447c3.058 1.388-.098-5.05 2.921-3.579zm1.114.543c-3.019-1.471.051 5.007-2.968 3.536l-1.007-.49c3.019 1.47-.051-5.007 2.968-3.536zm1.16.593c-2.975-1.557.004 4.956-3.015 3.485l-1.006-.49c3.019 1.471-.051-5.007 2.968-3.536zm1.098.575c-2.976-1.558-.093 5.006-3.068 3.448l-.937-.485c3.019 1.47.038-5.04 3.013-3.483zm1.154.612c-2.927-1.647-.149 4.968-3.124 3.411l-.992-.52c2.975 1.558.092-5.005 3.068-3.448zm1.08.607c-2.927-1.646-.243 5-3.171 3.355l-.927-.496c2.975 1.557.195-5.054 3.123-3.408zm1.08.607c-2.927-1.646-.243 5.001-3.171 3.355l-.975-.549c2.927 1.646.243-5 3.171-3.354zm1.128.669c-2.873-1.74-.291 4.94-3.219 3.293l-.975-.548c2.927 1.646.243-5.001 3.171-3.355zm1.06.641c-2.873-1.739-.404 4.99-3.277 3.252l-.897-.54c2.927 1.645.343-5.03 3.216-3.291zm1.117.696c-2.811-1.837-.461 4.937-3.334 3.197l-.958-.58c2.873 1.74.404-4.99 3.277-3.25zm1.037.678c-2.811-1.837-.576 4.974-3.387 3.136l-.882-.555c2.873 1.74.521-5.03 3.332-3.193zm1.105.728c-2.74-1.942-.644 4.924-3.455 3.086l-.937-.612c2.811 1.837.576-4.974 3.387-3.136zm1.011.717c-2.74-1.942-.763 4.948-3.503 3.006l-.863-.571c2.811 1.837.713-5.024 3.453-3.082zm1.011.716c-2.74-1.942-.763 4.949-3.503 3.007l-.913-.648c2.739 1.942.763-4.948 3.502-3.006zm1.059.809c-2.657-2.055-.812 4.856-3.551 2.914l-.914-.647c2.74 1.942.764-4.948 3.503-3.006zm.98.758c-2.657-2.055-.969 4.912-3.625 2.858l-.886-.685c2.657 2.054.969-4.912 3.625-2.858zm1.033.858c-2.559-2.176-1.022 4.812-3.678 2.757l-.886-.684c2.657 2.054.969-4.912 3.625-2.858zm.943.802c-2.558-2.175-1.195 4.862-3.753 2.687l-.773-.658c2.656 2.054 1.116-4.93 3.674-2.754zm.998.92c-2.439-2.308-1.249 4.745-3.808 2.57l-.852-.726c2.558 2.176 1.195-4.862 3.754-2.686zm.901.85c-2.44-2.307-1.451 4.792-3.89 2.485l-.727-.688c2.558 2.175 1.364-4.873 3.803-2.565zm.949.994c-2.296-2.45-1.499 4.65-3.939 2.342l-.814-.769c2.44 2.308 1.451-4.791 3.891-2.484zm.92.994c-2.166-2.566-1.81 4.605-4.106 2.155l-.765-.817c2.295 2.45 1.737-4.695 4.033-2.245zm.845 1.02c-2.067-2.647-2.023 4.526-4.19 1.96l-.679-.738c2.295 2.45 1.935-4.717 4.101-2.15zm.802 1.062c-1.956-2.73-2.191 4.435-4.258 1.788l-.656-.799c2.166 2.567 2.118-4.604 4.186-1.957zm.751 1.11c-1.832-2.815-2.366 4.326-4.322 1.596l-.613-.823c2.067 2.646 2.297-4.515 4.253-1.786zm.743 1.265c-1.534-2.987-2.6 4.092-4.432 1.277l-.563-.849c1.956 2.73 2.485-4.408 4.317-1.593zm.598 1.23c-1.357-3.07-2.993 3.909-4.527.922l-.496-.868c1.691 2.901 2.945-4.165 4.479-1.178zm.506 1.285c-1.16-3.15-3.195 3.707-4.553.636l-.425-.893c1.534 2.988 3.163-3.989 4.521-.918zm.407 1.505c-.698-3.285-3.682 3.234-4.622.01l-.289-.77c1.357 3.071 3.647-3.707 4.587-.484zm.228 1.59c-.148-3.354-3.885 2.742-4.583-.543l-.234-.922c.941 3.223 3.916-3.293 4.614-.008zm.016 1.397c.09-3.356-4.335 2.275-4.483-1.079l-.091-.744c.698 3.285 4.415-2.808 4.563.546zm-.034 1.239c.091-3.357-4.536 2.117-4.446-1.24l.002-.959c.148 3.354 4.565-2.277 4.474 1.08zm-.05 1.37c.288-3.346-4.52 1.986-4.429-1.371l.03-1.119c-.091 3.357 4.536-2.117 4.446 1.24zm-.106 1.234c.288-3.346-4.654 1.846-4.366-1.499l.039-.987c-.09 3.357 4.711-1.975 4.423 1.371zm-.107 1.234c.288-3.345-4.653 1.847-4.365-1.499l.096-1.115c-.288 3.345 4.653-1.846 4.365 1.499zm-.174 1.337c.45-3.328-4.739 1.617-4.288-1.71l.087-1.007c-.288 3.346 4.802-1.72 4.351 1.608zm-.217 1.299c.566-3.31-4.792 1.452-4.226-1.859l.139-1.032c-.451 3.328 4.841-1.523 4.275 1.787zm-.265 1.294c.687-3.287-4.841 1.276-4.155-2.012l.174-1.023c-.566 3.311 4.897-1.348 4.21 1.939zm-.316 1.287c.812-3.259-4.887 1.088-4.075-2.17l.212-1.012c-.687 3.288 4.946-1.163 4.134 2.095zm-.404 1.364c1.077-3.18-4.894.803-3.951-2.42l.252-.998c-.813 3.258 4.989-.968 4.046 2.255zm-.442 1.262c1.216-3.13-4.916.595-3.838-2.586l.295-.981c-.943 3.223 5.024-.762 3.946 2.418zm-.505 1.241c1.357-3.071-4.928.379-3.712-2.751l.341-.962c-1.078 3.18 5.049-.547 3.833 2.584zm-.571 1.216c1.499-3.005-4.93.157-3.574-2.915l.389-.94c-1.216 3.13 5.065-.323 3.708 2.749zm-.638 1.186c1.641-2.93-4.921-.072-3.423-3.077l.439-.915c-1.356 3.072 5.068-.092 3.569 2.914zm-.772 1.238c1.922-2.753-4.835-.393-3.194-3.323l.49-.885c-1.499 3.005 5.058.144 3.417 3.074zm-.791 1.096c2.058-2.654-4.872-.807-2.95-3.561l.542-.85c-1.783 2.846 5.052.66 3.13 3.413zm-.856 1.046c2.189-2.547-4.814-1.042-2.756-3.696l.594-.813c-1.922 2.754 5.003.904 2.945 3.557zm-.996 1.069c2.431-2.316-4.667-1.35-2.478-3.897l.645-.773c-2.058 2.654 4.94 1.144 2.751 3.691zm-.987.917c2.541-2.195-4.62-1.76-2.189-4.076l.62-.648c-2.188 2.547 4.901 1.573 2.47 3.89zm-1.039.856c2.643-2.072-4.521-1.971-1.98-4.166l.744-.684c-2.431 2.317 4.725 1.877 2.184 4.073zm-1.083.792c2.736-1.947-4.417-2.171-1.774-4.243l.787-.637c-2.541 2.195 4.619 2.09 1.976 4.162zm-1.211.771c2.896-1.7-4.223-2.586-1.403-4.409l.746-.531c-2.643 2.072 4.506 2.469 1.685 4.292zm-1.16.653c2.964-1.579-4.106-2.754-1.21-4.454l.867-.543c-2.821 1.823 4.296 2.705 1.4 4.405zm-1.231.597c3.05-1.404-3.944-2.914-.98-4.493l.898-.498c-2.896 1.7 4.171 2.871 1.207 4.45zm-1.274.572c3.141-1.185-3.757-3.185-.707-4.589l.895-.42c-2.964 1.579 4.027 3.083.977 4.487zm-1.159.438c3.141-1.186-3.676-3.399-.534-4.585l.877-.392c-3.05 1.404 3.846 3.396.704 4.582zm-1.304.449c3.21-.986-3.531-3.411-.389-4.596l1.047-.395c-3.141 1.185 3.675 3.399.534 4.584zm-1.184.364c3.21-.986-3.455-3.622-.245-4.609l.928-.309c-3.142 1.186 3.597 3.603.387 4.589zm-1.317.346c3.259-.808-3.322-3.604-.113-4.591l1.07-.329c-3.209.987 3.456 3.623.246 4.609zm-1.308.319c3.295-.651-3.145-3.828.114-4.636l.967-.239c-3.21.987 3.37 3.777.111 4.585zm-1.215.241c3.294-.652-3.065-3.959.229-4.611l.984-.238c-3.259.809 3.179 3.98-.115 4.631zm-1.309.243c3.318-.514-2.972-3.962.323-4.613l1.098-.218c-3.294.652 3.065 3.959-.23 4.611zm-1.225.19c3.319-.514-2.898-4.083.421-4.597l1.009-.183c-3.294.651 2.995 4.094-.324 4.608zm-1.305.183c3.335-.396-2.817-4.076.501-4.59l1.106-.172c-3.318.515 2.899 4.083-.42 4.597zm-1.231.146c3.335-.396-2.751-4.183.583-4.579l1.031-.139c-3.319.515 2.833 4.19-.502 4.586zm-1.299.135c3.345-.295-2.683-4.171.652-4.568l1.112-.132c-3.335.396 2.751 4.183-.583 4.579zm-1.234.109c3.345-.295-2.625-4.264.721-4.559l1.046-.104c-3.335.397 2.693 4.269-.652 4.565zm-1.292.097c3.351-.21-2.567-4.252.778-4.547l1.115-.099c-3.345.296 2.625 4.264-.721 4.56zm-1.237.078c3.352-.211-2.516-4.329.836-4.54l1.06-.075c-3.345.296 2.573 4.334-.779 4.545zm-1.304.063c3.357-.111-2.448-4.314.904-4.525l1.117-.07c-3.352.21 2.515 4.329-.836 4.54zm-1.238.041c3.356-.111-2.386-4.402.97-4.513l1.052-.046c-3.352.211 2.453 4.411-.903 4.522zm-1.239.041c3.357-.111-2.386-4.402.971-4.513l1.119-.037c-3.357.111 2.386 4.402-.971 4.513zm-1.238.041c3.356-.111-2.386-4.402.971-4.513l1.118-.037c-3.356.111 2.386 4.402-.97 4.513zm-1.316.032c3.359.004-2.308-4.392 1.048-4.504l1.119-.037c-3.356.111 2.386 4.402-.97 4.513zm-1.239-.002c3.358.005-2.232-4.481 1.126-4.477l1.042-.021c-3.357.111 2.31 4.504-1.048 4.5zm-1.239-.002c3.358.005-2.232-4.481 1.126-4.477l1.119.002c-3.358-.005 2.233 4.482-1.125 4.477zm-1.239-.001c3.358.004-2.233-4.482 1.126-4.477l1.119.001c-3.358-.004 2.233 4.482-1.125 4.477zm-1.239-.002c3.358.005-2.233-4.482 1.126-4.477l1.119.002c-3.358-.005 2.233 4.481-1.126 4.476zm-1.239-.002c3.358.005-2.233-4.481 1.126-4.477l1.119.002c-3.358-.005 2.233 4.481-1.126 4.477zm-1.239-.002c3.358.005-2.233-4.481 1.126-4.476l1.119.001c-3.358-.004 2.233 4.482-1.126 4.477zm-1.239-.001c3.358.004-2.233-4.482 1.126-4.477l1.119.001c-3.358-.004 2.233 4.482-1.126 4.477zm-1.239-.002c3.358.005-2.233-4.481 1.126-4.477l1.119.002c-3.358-.005 2.233 4.481-1.126 4.477zm-1.256-.003c3.358.03-2.216-4.48 1.142-4.476l1.12.002c-3.358-.005 2.233 4.481-1.126 4.477zm-1.239-.011c3.358.03-2.199-4.499 1.16-4.469l1.102.004c-3.358-.004 2.215 4.505-1.143 4.475zm-1.239-.012c3.358.031-2.199-4.498 1.16-4.468l1.119.01c-3.358-.03 2.198 4.499-1.16 4.468zm-1.239-.011c3.358.03-2.199-4.498 1.159-4.468l1.12.01c-3.358-.03 2.198 4.499-1.16 4.468zm-1.239-.011c3.358.03-2.199-4.499 1.159-4.468l1.12.01c-3.358-.031 2.198 4.498-1.16 4.468zm-1.24-.011c3.359.03-2.198-4.499 1.16-4.469l1.12.011c-3.358-.031 2.198 4.498-1.16 4.468zm-1.239-.012c3.359.031-2.198-4.498 1.16-4.468l1.12.01c-3.358-.03 2.198 4.499-1.16 4.469zm-1.239-.011c3.359.031-2.198-4.498 1.16-4.468l1.12.01c-3.358-.03 2.198 4.499-1.16 4.468zm-1.239-.011c3.359.03-2.198-4.499 1.16-4.468l1.12.01c-3.359-.03 2.198 4.499-1.16 4.468zm-1.239-.011c3.359.03-2.198-4.499 1.16-4.468l1.12.01c-3.359-.031 2.198 4.498-1.16 4.468zm-1.19-.001c3.358-.042-2.247-4.509 1.111-4.479l1.12.011c-3.359-.031 2.198 4.498-1.16 4.468zm-1.239.016c3.358-.042-2.295-4.45 1.063-4.492l1.168-.004c-3.359-.03 2.246 4.44-1.112 4.482zm-1.239.015c3.358-.042-2.295-4.45 1.063-4.492l1.119-.014c-3.358.042 2.295 4.45-1.063 4.492zm-1.239.016c3.358-.042-2.295-4.45 1.063-4.492l1.119-.014c-3.358.042 2.295 4.45-1.063 4.492zm-1.239.015c3.358-.042-2.295-4.45 1.063-4.492l1.119-.014c-3.358.042 2.295 4.45-1.063 4.492zm-1.239.016c3.358-.042-2.295-4.45 1.063-4.492l1.119-.014c-3.358.042 2.295 4.45-1.063 4.492zm-1.239.015c3.358-.042-2.295-4.45 1.063-4.492l1.119-.014c-3.358.042 2.295 4.45-1.063 4.492zm-1.239.016c3.358-.042-2.295-4.45 1.063-4.492l1.119-.014c-3.358.042 2.295 4.45-1.063 4.492zm-1.239.015c3.358-.042-2.295-4.45 1.063-4.492l1.119-.014c-3.358.042 2.295 4.45-1.063 4.492zm-1.239.016c3.358-.042-2.295-4.45 1.063-4.492l1.12-.014c-3.359.042 2.294 4.45-1.064 4.492zm-1.244.014c3.358-.035-2.29-4.449 1.068-4.491l1.12-.014c-3.359.042 2.294 4.45-1.064 4.492zm-1.239.013c3.358-.035-2.285-4.455 1.073-4.49l1.115-.012c-3.359.042 2.29 4.455-1.068 4.49zm-1.239.013c3.358-.035-2.285-4.455 1.073-4.49l1.119-.012c-3.358.035 2.286 4.455-1.072 4.49zm-1.239.013c3.358-.035-2.285-4.455 1.073-4.49l1.119-.012c-3.358.035 2.286 4.455-1.072 4.49zm-1.239.013c3.358-.035-2.285-4.455 1.073-4.49l1.119-.012c-3.358.035 2.286 4.455-1.072 4.49zm-1.239.013c3.358-.035-2.285-4.455 1.073-4.49l1.119-.012c-3.358.035 2.286 4.455-1.072 4.49zm-1.239.013c3.358-.036-2.285-4.455 1.073-4.49l1.119-.012c-3.358.035 2.286 4.455-1.072 4.49zm-1.239.013c3.358-.036-2.285-4.455 1.073-4.49l1.119-.012c-3.358.035 2.286 4.455-1.072 4.49zm-1.239.012c3.358-.035-2.285-4.454 1.073-4.489l1.119-.012c-3.358.035 2.286 4.455-1.072 4.49zm-1.308.002c3.358.069-2.216-4.443 1.142-4.478l1.119-.012c-3.358.035 2.286 4.455-1.072 4.49zm-1.239-.025c3.358.069-2.147-4.523 1.211-4.455l1.05.003c-3.358.035 2.216 4.543-1.141 4.475zm-1.238-.025c3.357.068-2.147-4.523 1.21-4.455l1.119.023c-3.357-.068 2.147 4.523-1.21 4.455zm-1.239-.025c3.357.068-2.147-4.524 1.21-4.455l1.12.023c-3.358-.069 2.147 4.523-1.211 4.454zm-1.239-.026c3.358.069-2.147-4.523 1.211-4.454l1.119.022c-3.358-.068 2.147 4.524-1.211 4.455zm-1.3-.059c3.354.162-2.02-4.582 1.334-4.419l1.057.021c-3.358-.068 2.081 4.614-1.273 4.452zm-1.238-.06c3.355.162-2.02-4.582 1.335-4.419l1.118.054c-3.355-.162 2.02 4.581-1.335 4.419zm-1.29-.088c3.349.243-1.967-4.553 1.387-4.391l1.118.054c-3.354-.162 2.02 4.581-1.334 4.419zm-1.236-.09c3.35.243-1.908-4.629 1.441-4.386l1.117.081c-3.35-.243 1.908 4.629-1.441 4.386zm-1.298-.125c3.341.341-1.846-4.594 1.504-4.351l1.116.082c-3.349-.244 1.908 4.629-1.441 4.385zm-1.233-.126c3.341.341-1.772-4.683 1.569-4.341l1.113.113c-3.34-.341 1.773 4.683-1.568 4.342zm-1.305-.171c3.327.457-1.7-4.638 1.641-4.296l1.114.113c-3.341-.341 1.772 4.683-1.569 4.342zm-1.228-.169c3.327.457-1.609-4.741 1.718-4.284l1.109.152c-3.327-.457 1.609 4.742-1.718 4.285zm-1.31-.23c3.305.593-1.414-4.802 1.892-4.21l1.018.14c-3.327-.457 1.497 4.86-1.808 4.268zm-1.323-.245c3.273.749-1.31-4.776 1.995-4.184l1.102.198c-3.306-.593 1.414 4.803-1.892 4.21zm-1.208-.277c3.273.75-1.183-4.865 2.091-4.115l.994.187c-3.305-.592 1.279 4.928-1.994 4.178zm-1.322-.329c3.226.93-1.068-4.812 2.205-4.063l1.091.25c-3.273-.749 1.183 4.865-2.091 4.115zm-1.19-.343c3.226.93-.912-4.923 2.315-3.993l.963.247c-3.273-.75 1.023 4.985-2.203 4.056zm-1.312-.434c3.16 1.134-.79-4.832 2.436-3.902l1.076.31c-3.227-.93.911 4.922-2.316 3.993zM96 131.239c3.161 1.134-.595-4.97 2.566-3.837l.922.32c-3.226-.93.727 5.029-2.434 3.895zm-1.285-.559c3.07 1.361-.231-5.001 2.838-3.64l.9.322c-3.16-1.134.355 5.132-2.715 3.771zm-1.243-.585c2.982 1.545-.12-4.918 2.949-3.557l1.023.454c-3.07-1.361.231 5-2.838 3.639zm-1.171-.643c2.912 1.673.142-4.933 3.124-3.388l.886.426c-3.07-1.361.036 5.095-2.946 3.55zm-1.226-.769c2.743 1.936.44-4.846 3.352-3.174l.892.5c-2.982-1.545-.21 5.056-3.122 3.384zm-1.092-.794c2.644 2.07.833-4.87 3.576-2.934l.765.495c-2.913-1.673-.604 5.1-3.347 3.164zm-1.044-.862c2.534 2.203 1.066-4.808 3.71-2.738l.812.597c-2.743-1.936-.928 5-3.572 2.929zm-1.073-1.016c2.285 2.461 1.387-4.645 3.921-2.442l.768.647c-2.644-2.071-1.172 4.936-3.706 2.732zm-.91-1.011c2.146 2.582 1.826-4.584 4.11-2.123l.631.614c-2.534-2.204-1.627 4.893-3.912 2.432zm-.843-1.07c2.001 2.696 2.062-4.467 4.209-1.885l.663.744c-2.285-2.461-1.96 4.701-4.106 2.119zm-.769-1.124c1.85 2.802 2.292-4.338 4.293-1.641l.608.788c-2.146-2.582-2.202 4.577-4.203 1.881zm-.741-1.282c1.536 2.986 2.785-4.082 4.48-1.183l.483.728c-2.001-2.697-2.655 4.431-4.35 1.532zm-.598-1.218c1.377 3.063 2.988-3.923 4.525-.937l.492.869c-1.695-2.899-2.938 4.166-4.474 1.18zm-.521-1.248c1.219 3.129 3.18-3.76 4.556-.697l.435.902c-1.536-2.986-3.142 3.997-4.519.934zm-.448-1.273c1.063 3.185 3.358-3.593 4.577-.464l.378.931c-1.377-3.063-3.332 3.823-4.55.694zm-.377-1.291c.91 3.232 3.524-3.425 4.587-.24l.324.955c-1.22-3.129-3.509 3.648-4.572.462zm-.33-1.4c.62 3.301 3.872-3.102 4.635.169l.276.979c-.91-3.232-3.875 3.308-4.637.038zm-.241-1.309c.484 3.323 4-2.935 4.62.365l.229.996c-.763-3.27-4.01 3.131-4.63-.169zm-.186-1.313c.354 3.34 4.117-2.773 4.6.55l.184 1.01c-.62-3.3-4.132 2.958-4.615-.365zm-.135-1.315c.23 3.351 4.222-2.615 4.576.724l.142 1.023c-.483-3.324-4.242 2.789-4.595-.551zm-.085-1.236c.23 3.351 4.314-2.54 4.544.81l.104 1.032c-.353-3.34-4.341 2.625-4.571-.725zm-.026-1.353c.057 3.357 4.438-2.316 4.496 1.042l.066 1.002c-.23-3.351-4.485 2.432-4.543-.925zm-.022-1.239c.058 3.357 4.439-2.315 4.497 1.042l.019 1.119c-.058-3.357-4.439 2.315-4.497-1.042zm.038-1.376c-.149 3.355 4.38-2.178 4.437 1.179l.02 1.119c-.059-3.357-4.44 2.316-4.497-1.042zm.055-1.238c-.149 3.355 4.573-2.037 4.424 1.317l-.044.981c-.058-3.358-4.578 2.175-4.43-1.179zm.09-1.367c-.346 3.34 4.538-1.908 4.389 1.446l-.05 1.119c.15-3.355-4.572 2.038-4.424-1.317zm.192-1.371c-.564 3.31 4.62-1.627 4.274 1.713l-.072.985c.15-3.355-4.728 1.894-4.382-1.446zm.36-1.519c-1.034 3.195 4.637-1.158 4.074 2.152l-.148.962c.346-3.34-4.83 1.597-4.266-1.713zm.475-1.33c-1.279 3.106 4.855-.6 3.82 2.595l-.201.77c.563-3.31-5.092 1.046-4.058-2.149zm.703-1.435c-1.762 2.858 4.76-.075 3.482 3.03l-.327.886c1.033-3.195-5.091.514-3.813-2.59zm.784-1.184c-1.988 2.706 4.851.572 3.09 3.43l-.346.673c1.278-3.104-5.227-.163-3.466-3.021zm1.029-1.211c-2.387 2.36 4.638 1.06 2.65 3.765l-.526.775c1.761-2.859-5.07-.72-3.082-3.425zm1.031-.952c-2.555 2.179 4.59 1.69 2.202 4.051l-.512.57c1.988-2.706-5.023-1.392-2.636-3.753zm1.233-.919c-2.823 1.818 4.318 2.07 1.763 4.249l-.709.637c2.388-2.36-4.751-1.866-2.196-4.045zm1.173-.71c-2.926 1.647 4.175 2.593 1.352 4.41l-.792.568c2.7-1.996-4.456-2.515-1.632-4.333zm1.313-.662c-3.08 1.335 3.914 2.86.988 4.506l-.849.502c2.823-1.818-4.274-2.758-1.347-4.405zm1.236-.514c-3.138 1.197 3.736 3.24.655 4.575l-.8.386c2.927-1.646-4.062-3.16-.981-4.495Zm1.25-.446c-3.182 1.071 3.596 3.39.458 4.587l-.944.387c3.082-1.336-3.79-3.374-.652-4.57Zm1.3-.381c-3.233.904 3.425 3.516.242 4.587l-.972.339c3.137-1.198-3.639-3.512-.456-4.583zm1.32-.355c-3.28.72 3.236 3.73.002 4.635l-.966.27c3.183-1.072-3.474-3.678-.24-4.582zm1.21-.266c-3.28.72 3.146 3.894-.134 4.614l-.959.255c3.234-.905-3.28-3.909-.001-4.629Zm1.31-.263c-3.308.575 3.047 3.891-.233 4.611l-1.094.24c3.28-.72-3.147-3.893.133-4.614zm1.221-.212c-3.308.575 2.973 4.029-.336 4.604l-1.002.194c3.28-.72-3.073-4.031.235-4.607zm1.299-.2c-3.326.463 2.895 4.016-.414 4.591l-1.103.192c3.309-.575-2.973-4.029.336-4.604zm1.227-.172c-3.326.464 2.836 4.127-.49 4.59l-1.033.153c3.308-.575-2.912-4.125.415-4.588zm1.285-.158c-3.337.38 2.778 4.114-.548 4.577l-1.109.155c3.326-.464-2.835-4.127.491-4.59zm1.231-.14c-3.336.38 2.732 4.195-.604 4.576l-1.057.125c3.327-.464-2.788-4.194.549-4.575zm1.284-.13c-3.344.304 2.679 4.185-.657 4.565l-1.112.127c3.336-.38-2.733-4.196.604-4.576zm1.234-.111c-3.344.303 2.635 4.257-.709 4.561l-1.063.102c3.336-.381-2.687-4.258.658-4.562zm1.234-.112c-3.344.303 2.635 4.257-.709 4.56l-1.115.102c3.344-.303-2.635-4.257.71-4.561zm1.234-.112c-3.344.303 2.635 4.257-.709 4.56l-1.115.102c3.344-.303-2.635-4.257.71-4.561zm1.25-.111c-3.347.28 2.619 4.256-.725 4.56l-1.115.101c3.344-.304-2.635-4.258.71-4.561zm1.235-.104c-3.347.28 2.605 4.276-.741 4.556l-1.1.097c3.344-.304-2.621-4.279.725-4.56zm1.234-.104c-3.346.281 2.606 4.276-.741 4.557l-1.115.093c3.346-.28-2.606-4.275.741-4.556zm1.235-.103c-3.346.28 2.606 4.275-.741 4.556l-1.116.094c3.347-.281-2.605-4.276.742-4.557zm1.235-.104c-3.347.281 2.605 4.276-.741 4.557l-1.116.093c3.347-.28-2.605-4.275.741-4.556zm1.235-.103c-3.347.28 2.605 4.275-.742 4.556l-1.115.094c3.346-.281-2.606-4.276.741-4.557zm1.234-.104c-3.346.28 2.606 4.276-.741 4.556l-1.115.094c3.346-.28-2.606-4.276.741-4.556zm1.235-.103c-3.347.28 2.605 4.275-.741 4.556l-1.116.093c3.347-.28-2.605-4.275.742-4.556zm1.235-.104c-3.347.28 2.605 4.276-.741 4.556l-1.116.094c3.347-.28-2.605-4.276.741-4.556zm1.235-.104c-3.347.281 2.605 4.276-.742 4.557l-1.115.093c3.346-.28-2.606-4.275.741-4.556zm1.169-.121c-3.337.375 2.671 4.293-.676 4.574l-1.115.094c3.346-.281-2.606-4.276.741-4.557zm1.231-.139c-3.337.375 2.725 4.2-.612 4.576l-1.176.127c3.347-.28-2.662-4.202.676-4.578zm1.231-.138c-3.337.375 2.726 4.2-.612 4.575l-1.112.125c3.337-.375-2.725-4.2.612-4.575zm1.232-.139c-3.338.376 2.725 4.2-.612 4.576l-1.113.125c3.338-.375-2.725-4.2.612-4.576zm1.231-.138c-3.337.375 2.725 4.2-.612 4.575l-1.112.125c3.337-.375-2.726-4.2.612-4.575zm1.168-.149c-3.326.467 2.789 4.21-.549 4.586l-1.112.125c3.337-.375-2.725-4.2.612-4.575zm1.227-.172c-3.326.467 2.84 4.124-.486 4.59l-1.171.154c3.337-.375-2.777-4.122.549-4.588zm1.227-.172c-3.325.466 2.84 4.124-.486 4.59l-1.109.156c3.326-.466-2.839-4.124.487-4.59zm1.173-.189c-3.314.543 2.894 4.14-.432 4.607l-1.109.156c3.326-.467-2.839-4.124.487-4.59zm1.223-.2c-3.315.543 2.933 4.058-.381 4.6l-1.105.181c3.314-.543-2.933-4.058.381-4.6zm1.163-.195c-3.298.63 2.993 4.052-.322 4.595l-1.104.18c3.314-.542-2.934-4.057.381-4.6zm1.217-.233c-3.298.63 3.04 3.98-.259 4.609l-1.162.2c3.315-.543-2.977-3.969.322-4.599zm1.217-.232c-3.298.63 3.04 3.979-.259 4.609l-1.1.21c3.299-.63-3.039-3.98.26-4.61zm1.149-.234c-3.278.727 3.108 3.98-.191 4.61l-1.1.21c3.299-.63-3.039-3.979.26-4.609zm1.21-.269c-3.279.728 3.156 3.887-.123 4.615l-1.161.242c3.299-.63-3.087-3.887.191-4.614zm1.21-.268c-3.279.728 3.155 3.887-.123 4.615l-1.093.242c3.279-.727-3.156-3.887.123-4.614zm1.132-.276c-3.253.835 3.233 3.895-.045 4.622l-1.093.243c3.278-.728-3.156-3.887.122-4.615zm1.2-.308c-3.253.835 3.282 3.78.029 4.616l-1.158.288c3.279-.727-3.208-3.79.044-4.626zm1.2-.308c-3.253.835 3.282 3.78.029 4.616l-1.084.278c3.253-.835-3.282-3.78-.029-4.616zm1.113-.321c-3.221.952 3.369 3.794.116 4.629l-1.084.278c3.253-.835-3.282-3.78-.029-4.616zm1.188-.351c-3.221.952 3.416 3.66.196 4.612l-1.152.338c3.253-.835-3.338-3.68-.118-4.633zm1.188-.351c-3.221.952 3.416 3.66.196 4.612l-1.074.317c3.221-.952-3.416-3.66-.196-4.612zm1.091-.368c-3.181 1.078 3.557 3.524.377 4.6l-1.157.346c3.22-.952-3.461-3.51-.28-4.587zm1.173-.397c-3.18 1.077 3.558 3.523.377 4.6l-1.06.36c3.18-1.078-3.557-3.524-.377-4.601zm1.085-.366c-3.132 1.21 3.646 3.491.466 4.569l-1.061.359c3.181-1.077-3.557-3.523-.376-4.6zm1.156-.447c-3.133 1.21 3.702 3.37.57 4.581l-1.147.397c3.181-1.078-3.6-3.364-.467-4.574zm1.156-.446c-3.133 1.21 3.702 3.37.57 4.58l-1.045.404c3.133-1.21-3.702-3.37-.57-4.58zm1.061-.411c-3.075 1.35 3.797 3.334.664 4.545l-1.044.403c3.133-1.21-3.702-3.37-.57-4.58zm1.135-.498c-3.075 1.35 3.85 3.2.775 4.55l-1.134.45c3.132-1.21-3.741-3.2-.666-4.55zm1.134-.498c-3.075 1.35 3.85 3.2.775 4.55l-1.025.45c3.075-1.35-3.85-3.2-.775-4.55zm1.037-.456c-3.007 1.494 3.948 3.158.873 4.508l-1.025.45c3.075-1.35-3.85-3.2-.775-4.55zm1.11-.551c-3.008 1.494 3.997 3.014.99 4.508l-1.118.503c3.075-1.35-3.882-3.019-.875-4.513zm1.109-.552c-3.007 1.495 3.998 3.014.99 4.509l-1.002.498c3.007-1.495-3.998-3.014-.99-4.509zm1.11-.551c-3.008 1.494 3.997 3.014.99 4.508l-1.002.498c3.007-1.494-3.998-3.014-.991-4.508zm14.264-8.33c-3.085 1.364 3.867 3.187.782 4.55l-1.028.455c3.085-1.364-3.867-3.187-.783-4.55zm1.138-.503c-3.085 1.364 3.867 3.187.782 4.55l-1.028.455c3.085-1.364-3.867-3.187-.783-4.55zm1.138-.503c-3.085 1.363 3.867 3.187.782 4.55l-1.028.455c3.085-1.364-3.867-3.187-.783-4.55zm1.155-.507c-3.095 1.34 3.85 3.19.765 4.554l-1.028.455c3.085-1.364-3.867-3.187-.783-4.55zm1.141-.495c-3.094 1.34 3.843 3.216.749 4.557l-1.015.444c3.085-1.364-3.86-3.214-.765-4.554zm1.142-.494c-3.095 1.34 3.843 3.216.748 4.556l-1.031.447c3.095-1.34-3.843-3.216-.748-4.557zm1.142-.495c-3.095 1.34 3.843 3.216.748 4.557l-1.031.446c3.095-1.34-3.843-3.216-.748-4.556zm1.142-.494c-3.095 1.34 3.843 3.216.748 4.556l-1.032.447c3.095-1.34-3.843-3.216-.748-4.557zm1.142-.495c-3.095 1.34 3.843 3.216.748 4.557l-1.032.446c3.095-1.34-3.843-3.216-.748-4.556zm1.142-.494c-3.095 1.34 3.843 3.216.748 4.556l-1.032.447c3.095-1.34-3.843-3.216-.748-4.557zm1.123-.49c-3.084 1.366 3.862 3.211.767 4.552l-1.032.446c3.095-1.34-3.843-3.216-.748-4.556zm1.137-.505c-3.083 1.367 3.87 3.184.787 4.55l-1.047.459c3.095-1.34-3.851-3.187-.768-4.553zm1.138-.504c-3.084 1.367 3.87 3.183.787 4.55l-1.028.455c3.083-1.366-3.87-3.183-.787-4.55zm1.137-.504c-3.083 1.366 3.871 3.183.787 4.55l-1.028.455c3.084-1.366-3.87-3.183-.786-4.55zm1.138-.504c-3.083 1.366 3.87 3.183.787 4.55l-1.028.455c3.083-1.366-3.87-3.183-.787-4.55zm1.138-.505c-3.084 1.367 3.87 3.184.786 4.55l-1.027.456c3.083-1.367-3.87-3.183-.787-4.55zm1.137-.504c-3.083 1.367 3.87 3.184.787 4.55l-1.028.456c3.084-1.367-3.87-3.184-.787-4.55zm1.089-.494c-3.053 1.433 3.919 3.173.836 4.54l-1.028.456c3.083-1.367-3.87-3.184-.787-4.55zm1.126-.528c-3.052 1.433 3.939 3.098.886 4.531l-1.067.488c3.084-1.366-3.889-3.109-.836-4.542zm1.127-.53c-3.053 1.434 3.938 3.1.885 4.533l-1.017.477c3.052-1.433-3.939-3.098-.886-4.532zm1.059-.523c-3.012 1.518 4.005 3.094.953 4.527l-1.018.477c3.053-1.433-3.938-3.098-.885-4.531zm1.011-.55c-2.945 1.642 4.123 2.976 1.112 4.495l-1.062.53c3.053-1.432-3.966-3.011-.954-4.53z" class="stroke-orange fill-orange stroke-foreground fill-foreground" style="display:inline;fill:#ff851b;stroke:#111;stroke-width:.110536;stroke-linecap:square;stroke-linejoin:round;stroke-dasharray:none;stroke-opacity:1" transform="translate(-81.577 -57.99)"/>
    <path d="m127.375 93.417 2.28 1.286.226-.86 2.136 1.42-2.932 1.602.227-.86-2.836-1.584zm4.474 1.226 2.316-1.243-.597-.658 2.601-.863-.501 3.177-.597-.658-2.87 1.546zm3.752-3.066.75-2.592-.884-.097 1.338-2.373 1.768 2.715-.883-.098-.898 3.076zm.579-4.91-.979-2.616-.784.419-.032-2.879 2.789 1.405-.784.42 1.1 2.932zM126.012 70.05l-1.376 2.684.81.363-2.475 1.78-.376-3.059.81.364 1.409-2.75zm-2.446 5.071-.971 2.79.862.217-2.037 2.2-.995-2.961.862.216 1.032-2.974zm-1.507 5.286-.094 2.888.884-.095-.895 2.708-2.213-2.372.884-.096.096-3.197z" class="stroke-foreground fill-foreground" style="display:inline;fill:#ff4136;stroke:#111;stroke-width:.0285414;stroke-linecap:square;stroke-linejoin:round;stroke-miterlimit:4.1" transform="translate(-81.577 -57.99)"/>
  </g>
</svg>
