<svg xmlns="http://www.w3.org/2000/svg" xml:space="preserve" viewBox="0 0 190.501 90.276">
  <path d="M191.553 158.697c3.094-3.098 6.043-6.043 9.137-9.14" style="fill:none;stroke:#fff;stroke-width:4.79118;stroke-linecap:butt;stroke-linejoin:miter;stroke-miterlimit:10;stroke-dasharray:none;stroke-opacity:1" transform="translate(-16.86 -113.41)"/>
  <path d="M191.553 158.697c3.094-3.098 6.043-6.043 9.137-9.14" class="stroke-orange fill-orange" style="fill:none;stroke:#ff851b;stroke-width:2.39559;stroke-linecap:round;stroke-linejoin:miter;stroke-miterlimit:10;stroke-dasharray:none;stroke-opacity:1" transform="translate(-16.86 -113.41)"/>
  <path d="m182.709 167.54 9.14-9.14" style="fill:none;stroke:#fff;stroke-width:4.79118;stroke-linecap:butt;stroke-linejoin:miter;stroke-miterlimit:10;stroke-dasharray:none;stroke-opacity:1" transform="translate(-16.86 -113.41)"/>
  <path d="m182.709 167.54 9.14-9.14" class="stroke-orange fill-orange" style="fill:none;stroke:#ff851b;stroke-width:2.39559;stroke-linecap:round;stroke-linejoin:miter;stroke-miterlimit:10;stroke-dasharray:none;stroke-opacity:1" transform="translate(-16.86 -113.41)"/>
  <path d="M173.868 167.244c3.094 3.094 6.04 3.094 9.137 0" style="fill:none;stroke:#fff;stroke-width:4.79118;stroke-linecap:butt;stroke-linejoin:miter;stroke-miterlimit:10;stroke-dasharray:none;stroke-opacity:1" transform="translate(-16.86 -113.41)"/>
  <path d="M173.868 167.244c3.094 3.094 6.04 3.094 9.137 0" class="stroke-orange fill-orange" style="fill:none;stroke:#ff851b;stroke-width:2.39559;stroke-linecap:round;stroke-linejoin:miter;stroke-miterlimit:10;stroke-dasharray:none;stroke-opacity:1" transform="translate(-16.86 -113.41)"/>
  <path d="m138.492 158.697 9.14-9.14" style="fill:none;stroke:#fff;stroke-width:4.79118;stroke-linecap:butt;stroke-linejoin:miter;stroke-miterlimit:10;stroke-dasharray:none;stroke-opacity:1" transform="translate(-16.86 -113.41)"/>
  <path d="m138.492 158.697 9.14-9.14" class="stroke-orange fill-orange" style="fill:none;stroke:#ff851b;stroke-width:2.39559;stroke-linecap:round;stroke-linejoin:miter;stroke-miterlimit:10;stroke-dasharray:none;stroke-opacity:1" transform="translate(-16.86 -113.41)"/>
  <path d="M129.651 167.54c3.094-3.097 6.043-6.042 9.137-9.14" style="fill:none;stroke:#fff;stroke-width:4.79118;stroke-linecap:butt;stroke-linejoin:miter;stroke-miterlimit:10;stroke-dasharray:none;stroke-opacity:1" transform="translate(-16.86 -113.41)"/>
  <path d="M129.651 167.54c3.094-3.097 6.043-6.042 9.137-9.14" class="stroke-orange fill-orange" style="fill:none;stroke:#ff851b;stroke-width:2.39559;stroke-linecap:round;stroke-linejoin:miter;stroke-miterlimit:10;stroke-dasharray:none;stroke-opacity:1" transform="translate(-16.86 -113.41)"/>
  <path d="M120.807 167.244c3.094 3.094 6.043 3.094 9.137 0" style="fill:none;stroke:#fff;stroke-width:4.79118;stroke-linecap:butt;stroke-linejoin:miter;stroke-miterlimit:10;stroke-dasharray:none;stroke-opacity:1" transform="translate(-16.86 -113.41)"/>
  <path d="M120.807 167.244c3.094 3.094 6.043 3.094 9.137 0" class="stroke-orange fill-orange" style="fill:none;stroke:#ff851b;stroke-width:2.39559;stroke-linecap:round;stroke-linejoin:miter;stroke-miterlimit:10;stroke-dasharray:none;stroke-opacity:1" transform="translate(-16.86 -113.41)"/>
  <path d="M85.434 158.697c3.094-3.098 6.043-6.043 9.137-9.14" style="fill:none;stroke:#fff;stroke-width:4.79118;stroke-linecap:butt;stroke-linejoin:miter;stroke-miterlimit:10;stroke-dasharray:none;stroke-opacity:1" transform="translate(-16.86 -113.41)"/>
  <path d="M85.434 158.697c3.094-3.098 6.043-6.043 9.137-9.14" class="stroke-orange fill-orange" style="fill:none;stroke:#ff851b;stroke-width:2.39559;stroke-linecap:round;stroke-linejoin:miter;stroke-miterlimit:10;stroke-dasharray:none;stroke-opacity:1" transform="translate(-16.86 -113.41)"/>
  <path d="m76.59 167.54 9.14-9.14" style="fill:none;stroke:#fff;stroke-width:4.79118;stroke-linecap:butt;stroke-linejoin:miter;stroke-miterlimit:10;stroke-dasharray:none;stroke-opacity:1" transform="translate(-16.86 -113.41)"/>
  <path d="m76.59 167.54 9.14-9.14" class="stroke-orange fill-orange" style="fill:none;stroke:#ff851b;stroke-width:2.39559;stroke-linecap:round;stroke-linejoin:miter;stroke-miterlimit:10;stroke-dasharray:none;stroke-opacity:1" transform="translate(-16.86 -113.41)"/>
  <path d="M67.746 167.244c3.097 3.094 6.043 3.094 9.14 0" style="fill:none;stroke:#fff;stroke-width:4.79118;stroke-linecap:butt;stroke-linejoin:miter;stroke-miterlimit:10;stroke-dasharray:none;stroke-opacity:1" transform="translate(-16.86 -113.41)"/>
  <path d="M67.746 167.244c3.097 3.094 6.043 3.094 9.14 0" class="stroke-orange fill-orange" style="fill:none;stroke:#ff851b;stroke-width:2.39559;stroke-linecap:round;stroke-linejoin:miter;stroke-miterlimit:10;stroke-dasharray:none;stroke-opacity:1" transform="translate(-16.86 -113.41)"/>
  <path d="m32.373 158.697 9.14-9.14" style="fill:none;stroke:#fff;stroke-width:4.79118;stroke-linecap:butt;stroke-linejoin:miter;stroke-miterlimit:10;stroke-dasharray:none;stroke-opacity:1" transform="translate(-16.86 -113.41)"/>
  <path d="m32.373 158.697 9.14-9.14" class="stroke-orange fill-orange" style="fill:none;stroke:#ff851b;stroke-width:2.39559;stroke-linecap:round;stroke-linejoin:miter;stroke-miterlimit:10;stroke-dasharray:none;stroke-opacity:1" transform="translate(-16.86 -113.41)"/>
  <path d="M23.532 167.54c3.094-3.097 6.043-6.042 9.137-9.14" style="fill:none;stroke:#fff;stroke-width:4.79118;stroke-linecap:butt;stroke-linejoin:miter;stroke-miterlimit:10;stroke-dasharray:none;stroke-opacity:1" transform="translate(-16.86 -113.41)"/>
  <path d="M23.532 167.54c3.094-3.097 6.043-6.042 9.137-9.14" class="stroke-orange fill-orange" style="fill:none;stroke:#ff851b;stroke-width:2.39559;stroke-linecap:round;stroke-linejoin:miter;stroke-miterlimit:10;stroke-dasharray:none;stroke-opacity:1" transform="translate(-16.86 -113.41)"/>
  <path d="M19.256 179.43c0-5.162 1.475-9.092 4.569-12.186" style="fill:none;stroke:#fff;stroke-width:4.79118;stroke-linecap:butt;stroke-linejoin:miter;stroke-miterlimit:10;stroke-dasharray:none;stroke-opacity:1" transform="translate(-16.86 -113.41)"/>
  <path d="M19.256 179.43c0-5.162 1.475-9.092 4.569-12.186" class="stroke-orange fill-orange" style="fill:none;stroke:#ff851b;stroke-width:2.39559;stroke-linecap:round;stroke-linejoin:miter;stroke-miterlimit:10;stroke-dasharray:none;stroke-opacity:1" transform="translate(-16.86 -113.41)"/>
  <path d="M165.024 158.697c3.094-3.098 6.043-6.043 9.137-9.14" style="fill:none;stroke:#fff;stroke-width:4.79118;stroke-linecap:butt;stroke-linejoin:miter;stroke-miterlimit:10;stroke-dasharray:none;stroke-opacity:1" transform="translate(-16.86 -113.41)"/>
  <path d="M165.024 158.697c3.094-3.098 6.043-6.043 9.137-9.14" class="stroke-orange fill-orange" style="fill:none;stroke:#ff851b;stroke-width:2.39559;stroke-linecap:round;stroke-linejoin:miter;stroke-miterlimit:10;stroke-dasharray:none;stroke-opacity:1" transform="translate(-16.86 -113.41)"/>
  <path d="M156.18 167.54c3.094-3.097 6.043-6.042 9.137-9.14" style="fill:none;stroke:#fff;stroke-width:4.79118;stroke-linecap:butt;stroke-linejoin:miter;stroke-miterlimit:10;stroke-dasharray:none;stroke-opacity:1" transform="translate(-16.86 -113.41)"/>
  <path d="M156.18 167.54c3.094-3.097 6.043-6.042 9.137-9.14" class="stroke-orange fill-orange" style="fill:none;stroke:#ff851b;stroke-width:2.39559;stroke-linecap:round;stroke-linejoin:miter;stroke-miterlimit:10;stroke-dasharray:none;stroke-opacity:1" transform="translate(-16.86 -113.41)"/>
  <path d="M147.336 167.244c3.097 3.094 6.043 3.094 9.14 0" style="fill:none;stroke:#fff;stroke-width:4.79118;stroke-linecap:butt;stroke-linejoin:miter;stroke-miterlimit:10;stroke-dasharray:none;stroke-opacity:1" transform="translate(-16.86 -113.41)"/>
  <path d="M147.336 167.244c3.097 3.094 6.043 3.094 9.14 0" class="stroke-orange fill-orange" style="fill:none;stroke:#ff851b;stroke-width:2.39559;stroke-linecap:round;stroke-linejoin:miter;stroke-miterlimit:10;stroke-dasharray:none;stroke-opacity:1" transform="translate(-16.86 -113.41)"/>
  <path d="m111.963 158.697 9.14-9.14" style="fill:none;stroke:#fff;stroke-width:4.79118;stroke-linecap:butt;stroke-linejoin:miter;stroke-miterlimit:10;stroke-dasharray:none;stroke-opacity:1" transform="translate(-16.86 -113.41)"/>
  <path d="m111.963 158.697 9.14-9.14" class="stroke-orange fill-orange" style="fill:none;stroke:#ff851b;stroke-width:2.39559;stroke-linecap:round;stroke-linejoin:miter;stroke-miterlimit:10;stroke-dasharray:none;stroke-opacity:1" transform="translate(-16.86 -113.41)"/>
  <path d="m103.119 167.54 9.14-9.14" style="fill:none;stroke:#fff;stroke-width:4.79118;stroke-linecap:butt;stroke-linejoin:miter;stroke-miterlimit:10;stroke-dasharray:none;stroke-opacity:1" transform="translate(-16.86 -113.41)"/>
  <path d="m103.119 167.54 9.14-9.14" class="stroke-orange fill-orange" style="fill:none;stroke:#ff851b;stroke-width:2.39559;stroke-linecap:round;stroke-linejoin:miter;stroke-miterlimit:10;stroke-dasharray:none;stroke-opacity:1" transform="translate(-16.86 -113.41)"/>
  <path d="M94.278 167.244c3.094 3.094 6.043 3.094 9.137 0" style="fill:none;stroke:#fff;stroke-width:4.79118;stroke-linecap:butt;stroke-linejoin:miter;stroke-miterlimit:10;stroke-dasharray:none;stroke-opacity:1" transform="translate(-16.86 -113.41)"/>
  <path d="M94.278 167.244c3.094 3.094 6.043 3.094 9.137 0" class="stroke-orange fill-orange" style="fill:none;stroke:#ff851b;stroke-width:2.39559;stroke-linecap:round;stroke-linejoin:miter;stroke-miterlimit:10;stroke-dasharray:none;stroke-opacity:1" transform="translate(-16.86 -113.41)"/>
  <path d="M58.905 158.697c3.094-3.098 6.043-6.043 9.137-9.14" style="fill:none;stroke:#fff;stroke-width:4.79118;stroke-linecap:butt;stroke-linejoin:miter;stroke-miterlimit:10;stroke-dasharray:none;stroke-opacity:1" transform="translate(-16.86 -113.41)"/>
  <path d="M58.905 158.697c3.094-3.098 6.043-6.043 9.137-9.14" class="stroke-orange fill-orange" style="fill:none;stroke:#ff851b;stroke-width:2.39559;stroke-linecap:round;stroke-linejoin:miter;stroke-miterlimit:10;stroke-dasharray:none;stroke-opacity:1" transform="translate(-16.86 -113.41)"/>
  <path d="M50.061 167.54c3.094-3.097 6.043-6.042 9.137-9.14" style="fill:none;stroke:#fff;stroke-width:4.79118;stroke-linecap:butt;stroke-linejoin:miter;stroke-miterlimit:10;stroke-dasharray:none;stroke-opacity:1" transform="translate(-16.86 -113.41)"/>
  <path d="M50.061 167.54c3.094-3.097 6.043-6.042 9.137-9.14" class="stroke-orange fill-orange" style="fill:none;stroke:#ff851b;stroke-width:2.39559;stroke-linecap:round;stroke-linejoin:miter;stroke-miterlimit:10;stroke-dasharray:none;stroke-opacity:1" transform="translate(-16.86 -113.41)"/>
  <path d="M41.217 167.244c3.097 3.094 6.043 3.094 9.137 0" style="fill:none;stroke:#fff;stroke-width:4.79118;stroke-linecap:butt;stroke-linejoin:miter;stroke-miterlimit:10;stroke-dasharray:none;stroke-opacity:1" transform="translate(-16.86 -113.41)"/>
  <path d="M41.217 167.244c3.097 3.094 6.043 3.094 9.137 0" class="stroke-orange fill-orange" style="fill:none;stroke:#ff851b;stroke-width:2.39559;stroke-linecap:round;stroke-linejoin:miter;stroke-miterlimit:10;stroke-dasharray:none;stroke-opacity:1" transform="translate(-16.86 -113.41)"/>
  <path d="M19.256 122.929v15.232" style="fill:none;stroke:#fff;stroke-width:4.79118;stroke-linecap:butt;stroke-linejoin:miter;stroke-miterlimit:10;stroke-dasharray:none;stroke-opacity:1" transform="translate(-16.86 -113.41)"/>
  <path d="M19.256 122.929v15.232" class="stroke-orange fill-orange" style="fill:none;stroke:#ff851b;stroke-width:2.39559;stroke-linecap:round;stroke-linejoin:miter;stroke-miterlimit:10;stroke-dasharray:none;stroke-opacity:1" transform="translate(-16.86 -113.41)"/>
  <path d="M200.397 149.853c3.094-3.094 4.569-7.024 4.569-12.185" style="fill:none;stroke:#fff;stroke-width:4.79118;stroke-linecap:butt;stroke-linejoin:miter;stroke-miterlimit:10;stroke-dasharray:none;stroke-opacity:1" transform="translate(-16.86 -113.41)"/>
  <path d="M200.397 149.853c3.094-3.094 4.569-7.024 4.569-12.185" class="stroke-orange fill-orange" style="fill:none;stroke:#ff851b;stroke-width:2.39559;stroke-linecap:round;stroke-linejoin:miter;stroke-miterlimit:10;stroke-dasharray:none;stroke-opacity:1" transform="translate(-16.86 -113.41)"/>
  <path d="M19.256 194.168v-15.232" style="fill:none;stroke:#fff;stroke-width:4.79118;stroke-linecap:butt;stroke-linejoin:miter;stroke-miterlimit:10;stroke-dasharray:none;stroke-opacity:1" transform="translate(-16.86 -113.41)"/>
  <path d="M19.256 194.168v-15.232" class="stroke-orange fill-orange" style="fill:none;stroke:#ff851b;stroke-width:2.39559;stroke-linecap:round;stroke-linejoin:miter;stroke-miterlimit:10;stroke-dasharray:none;stroke-opacity:1" transform="translate(-16.86 -113.41)"/>
  <path d="M200.397 167.244c3.094 3.094 4.569 7.024 4.569 12.185" style="fill:none;stroke:#fff;stroke-width:4.79118;stroke-linecap:butt;stroke-linejoin:miter;stroke-miterlimit:10;stroke-dasharray:none;stroke-opacity:1" transform="translate(-16.86 -113.41)"/>
  <path d="M200.397 167.244c3.094 3.094 4.569 7.024 4.569 12.185" class="stroke-orange fill-orange" style="fill:none;stroke:#ff851b;stroke-width:2.39559;stroke-linecap:round;stroke-linejoin:miter;stroke-miterlimit:10;stroke-dasharray:none;stroke-opacity:1" transform="translate(-16.86 -113.41)"/>
  <path d="M165.024 158.4c3.094 3.098 6.043 6.043 9.137 9.14" style="fill:none;stroke:#fff;stroke-width:4.79118;stroke-linecap:butt;stroke-linejoin:miter;stroke-miterlimit:10;stroke-dasharray:none;stroke-opacity:1" transform="translate(-16.86 -113.41)"/>
  <path d="M165.024 158.4c3.094 3.098 6.043 6.043 9.137 9.14" class="stroke-orange fill-orange" style="fill:none;stroke:#ff851b;stroke-width:2.39559;stroke-linecap:round;stroke-linejoin:miter;stroke-miterlimit:10;stroke-dasharray:none;stroke-opacity:1" transform="translate(-16.86 -113.41)"/>
  <path d="M147.336 149.853c3.097-3.094 6.043-3.094 9.14 0" style="fill:none;stroke:#fff;stroke-width:4.79118;stroke-linecap:butt;stroke-linejoin:miter;stroke-miterlimit:10;stroke-dasharray:none;stroke-opacity:1" transform="translate(-16.86 -113.41)"/>
  <path d="M147.336 149.853c3.097-3.094 6.043-3.094 9.14 0" class="stroke-orange fill-orange" style="fill:none;stroke:#ff851b;stroke-width:2.39559;stroke-linecap:round;stroke-linejoin:miter;stroke-miterlimit:10;stroke-dasharray:none;stroke-opacity:1" transform="translate(-16.86 -113.41)"/>
  <path d="m111.963 158.4 9.14 9.14" style="fill:none;stroke:#fff;stroke-width:4.79118;stroke-linecap:butt;stroke-linejoin:miter;stroke-miterlimit:10;stroke-dasharray:none;stroke-opacity:1" transform="translate(-16.86 -113.41)"/>
  <path d="m111.963 158.4 9.14 9.14" class="stroke-orange fill-orange" style="fill:none;stroke:#ff851b;stroke-width:2.39559;stroke-linecap:round;stroke-linejoin:miter;stroke-miterlimit:10;stroke-dasharray:none;stroke-opacity:1" transform="translate(-16.86 -113.41)"/>
  <path d="M94.278 149.853c3.094-3.094 6.043-3.094 9.137 0" style="fill:none;stroke:#fff;stroke-width:4.79118;stroke-linecap:butt;stroke-linejoin:miter;stroke-miterlimit:10;stroke-dasharray:none;stroke-opacity:1" transform="translate(-16.86 -113.41)"/>
  <path d="M94.278 149.853c3.094-3.094 6.043-3.094 9.137 0" class="stroke-orange fill-orange" style="fill:none;stroke:#ff851b;stroke-width:2.39559;stroke-linecap:round;stroke-linejoin:miter;stroke-miterlimit:10;stroke-dasharray:none;stroke-opacity:1" transform="translate(-16.86 -113.41)"/>
  <path d="M58.905 158.4c3.094 3.098 6.043 6.043 9.137 9.14" style="fill:none;stroke:#fff;stroke-width:4.79118;stroke-linecap:butt;stroke-linejoin:miter;stroke-miterlimit:10;stroke-dasharray:none;stroke-opacity:1" transform="translate(-16.86 -113.41)"/>
  <path d="M58.905 158.4c3.094 3.098 6.043 6.043 9.137 9.14" class="stroke-orange fill-orange" style="fill:none;stroke:#ff851b;stroke-width:2.39559;stroke-linecap:round;stroke-linejoin:miter;stroke-miterlimit:10;stroke-dasharray:none;stroke-opacity:1" transform="translate(-16.86 -113.41)"/>
  <path d="M41.217 149.853c3.097-3.094 6.043-3.094 9.137 0" style="fill:none;stroke:#fff;stroke-width:4.79118;stroke-linecap:butt;stroke-linejoin:miter;stroke-miterlimit:10;stroke-dasharray:none;stroke-opacity:1" transform="translate(-16.86 -113.41)"/>
  <path d="M41.217 149.853c3.097-3.094 6.043-3.094 9.137 0" class="stroke-orange fill-orange" style="fill:none;stroke:#ff851b;stroke-width:2.39559;stroke-linecap:round;stroke-linejoin:miter;stroke-miterlimit:10;stroke-dasharray:none;stroke-opacity:1" transform="translate(-16.86 -113.41)"/>
  <path d="M191.553 158.4c3.094 3.098 6.043 6.043 9.137 9.14" style="fill:none;stroke:#fff;stroke-width:4.79118;stroke-linecap:butt;stroke-linejoin:miter;stroke-miterlimit:10;stroke-dasharray:none;stroke-opacity:1" transform="translate(-16.86 -113.41)"/>
  <path d="M191.553 158.4c3.094 3.098 6.043 6.043 9.137 9.14" class="stroke-orange fill-orange" style="fill:none;stroke:#ff851b;stroke-width:2.39559;stroke-linecap:round;stroke-linejoin:miter;stroke-miterlimit:10;stroke-dasharray:none;stroke-opacity:1" transform="translate(-16.86 -113.41)"/>
  <path d="M173.868 149.853c3.094-3.094 6.04-3.094 9.137 0" style="fill:none;stroke:#fff;stroke-width:4.79118;stroke-linecap:butt;stroke-linejoin:miter;stroke-miterlimit:10;stroke-dasharray:none;stroke-opacity:1" transform="translate(-16.86 -113.41)"/>
  <path d="M173.868 149.853c3.094-3.094 6.04-3.094 9.137 0" class="stroke-orange fill-orange" style="fill:none;stroke:#ff851b;stroke-width:2.39559;stroke-linecap:round;stroke-linejoin:miter;stroke-miterlimit:10;stroke-dasharray:none;stroke-opacity:1" transform="translate(-16.86 -113.41)"/>
  <path d="m138.492 158.4 9.14 9.14" style="fill:none;stroke:#fff;stroke-width:4.79118;stroke-linecap:butt;stroke-linejoin:miter;stroke-miterlimit:10;stroke-dasharray:none;stroke-opacity:1" transform="translate(-16.86 -113.41)"/>
  <path d="m138.492 158.4 9.14 9.14" class="stroke-orange fill-orange" style="fill:none;stroke:#ff851b;stroke-width:2.39559;stroke-linecap:round;stroke-linejoin:miter;stroke-miterlimit:10;stroke-dasharray:none;stroke-opacity:1" transform="translate(-16.86 -113.41)"/>
  <path d="M120.807 149.853c3.094-3.094 6.043-3.094 9.137 0" style="fill:none;stroke:#fff;stroke-width:4.79118;stroke-linecap:butt;stroke-linejoin:miter;stroke-miterlimit:10;stroke-dasharray:none;stroke-opacity:1" transform="translate(-16.86 -113.41)"/>
  <path d="M120.807 149.853c3.094-3.094 6.043-3.094 9.137 0" class="stroke-orange fill-orange" style="fill:none;stroke:#ff851b;stroke-width:2.39559;stroke-linecap:round;stroke-linejoin:miter;stroke-miterlimit:10;stroke-dasharray:none;stroke-opacity:1" transform="translate(-16.86 -113.41)"/>
  <path d="M85.434 158.4c3.094 3.098 6.043 6.043 9.137 9.14" style="fill:none;stroke:#fff;stroke-width:4.79118;stroke-linecap:butt;stroke-linejoin:miter;stroke-miterlimit:10;stroke-dasharray:none;stroke-opacity:1" transform="translate(-16.86 -113.41)"/>
  <path d="M85.434 158.4c3.094 3.098 6.043 6.043 9.137 9.14" class="stroke-orange fill-orange" style="fill:none;stroke:#ff851b;stroke-width:2.39559;stroke-linecap:round;stroke-linejoin:miter;stroke-miterlimit:10;stroke-dasharray:none;stroke-opacity:1" transform="translate(-16.86 -113.41)"/>
  <path d="M67.746 149.853c3.097-3.094 6.043-3.094 9.14 0" style="fill:none;stroke:#fff;stroke-width:4.79118;stroke-linecap:butt;stroke-linejoin:miter;stroke-miterlimit:10;stroke-dasharray:none;stroke-opacity:1" transform="translate(-16.86 -113.41)"/>
  <path d="M67.746 149.853c3.097-3.094 6.043-3.094 9.14 0" class="stroke-orange fill-orange" style="fill:none;stroke:#ff851b;stroke-width:2.39559;stroke-linecap:round;stroke-linejoin:miter;stroke-miterlimit:10;stroke-dasharray:none;stroke-opacity:1" transform="translate(-16.86 -113.41)"/>
  <path d="m32.373 158.4 9.14 9.14" style="fill:none;stroke:#fff;stroke-width:4.79118;stroke-linecap:butt;stroke-linejoin:miter;stroke-miterlimit:10;stroke-dasharray:none;stroke-opacity:1" transform="translate(-16.86 -113.41)"/>
  <path d="m32.373 158.4 9.14 9.14" class="stroke-orange fill-orange" style="fill:none;stroke:#ff851b;stroke-width:2.39559;stroke-linecap:round;stroke-linejoin:miter;stroke-miterlimit:10;stroke-dasharray:none;stroke-opacity:1" transform="translate(-16.86 -113.41)"/>
  <path d="M19.256 137.668c0 5.16 1.475 9.09 4.569 12.185" style="fill:none;stroke:#fff;stroke-width:4.79118;stroke-linecap:butt;stroke-linejoin:miter;stroke-miterlimit:10;stroke-dasharray:none;stroke-opacity:1" transform="translate(-16.86 -113.41)"/>
  <path d="M19.256 137.668c0 5.16 1.475 9.09 4.569 12.185" class="stroke-orange fill-orange" style="fill:none;stroke:#ff851b;stroke-width:2.39559;stroke-linecap:round;stroke-linejoin:miter;stroke-miterlimit:10;stroke-dasharray:none;stroke-opacity:1" transform="translate(-16.86 -113.41)"/>
  <path d="M32.965 115.806c-9.288 0-13.709 2.455-13.709 7.616" style="fill:none;stroke:#fff;stroke-width:4.79118;stroke-linecap:butt;stroke-linejoin:miter;stroke-miterlimit:10;stroke-dasharray:none;stroke-opacity:1" transform="translate(-16.86 -113.41)"/>
  <path d="M32.965 115.806c-9.288 0-13.709 2.455-13.709 7.616" class="stroke-orange fill-orange" style="fill:none;stroke:#ff851b;stroke-width:2.39559;stroke-linecap:round;stroke-linejoin:miter;stroke-miterlimit:10;stroke-dasharray:none;stroke-opacity:1" transform="translate(-16.86 -113.41)"/>
  <path d="M204.966 138.161V122.93" style="fill:none;stroke:#fff;stroke-width:4.79118;stroke-linecap:butt;stroke-linejoin:miter;stroke-miterlimit:10;stroke-dasharray:none;stroke-opacity:1" transform="translate(-16.86 -113.41)"/>
  <path d="M204.966 138.161V122.93" class="stroke-orange fill-orange" style="fill:none;stroke:#ff851b;stroke-width:2.39559;stroke-linecap:round;stroke-linejoin:miter;stroke-miterlimit:10;stroke-dasharray:none;stroke-opacity:1" transform="translate(-16.86 -113.41)"/>
  <path d="M32.965 201.291c-9.288 0-13.709-2.455-13.709-7.616" style="fill:none;stroke:#fff;stroke-width:4.79118;stroke-linecap:butt;stroke-linejoin:miter;stroke-miterlimit:10;stroke-dasharray:none;stroke-opacity:1" transform="translate(-16.86 -113.41)"/>
  <path d="M32.965 201.291c-9.288 0-13.709-2.455-13.709-7.616" class="stroke-orange fill-orange" style="fill:none;stroke:#ff851b;stroke-width:2.39559;stroke-linecap:round;stroke-linejoin:miter;stroke-miterlimit:10;stroke-dasharray:none;stroke-opacity:1" transform="translate(-16.86 -113.41)"/>
  <path d="M204.966 178.936v15.232" style="fill:none;stroke:#fff;stroke-width:4.79118;stroke-linecap:butt;stroke-linejoin:miter;stroke-miterlimit:10;stroke-dasharray:none;stroke-opacity:1" transform="translate(-16.86 -113.41)"/>
  <path d="M204.966 178.936v15.232" class="stroke-orange fill-orange" style="fill:none;stroke:#ff851b;stroke-width:2.39559;stroke-linecap:round;stroke-linejoin:miter;stroke-miterlimit:10;stroke-dasharray:none;stroke-opacity:1" transform="translate(-16.86 -113.41)"/>
  <path d="M59.494 115.806H32.08" style="fill:none;stroke:#fff;stroke-width:4.79118;stroke-linecap:butt;stroke-linejoin:miter;stroke-miterlimit:10;stroke-dasharray:none;stroke-opacity:1" transform="translate(-16.86 -113.41)"/>
  <path d="M59.494 115.806H32.08" class="stroke-orange fill-orange" style="fill:none;stroke:#ff851b;stroke-width:2.39559;stroke-linecap:round;stroke-linejoin:miter;stroke-miterlimit:10;stroke-dasharray:none;stroke-opacity:1" transform="translate(-16.86 -113.41)"/>
  <path d="M86.023 115.806H58.61" style="fill:none;stroke:#fff;stroke-width:4.79118;stroke-linecap:butt;stroke-linejoin:miter;stroke-miterlimit:10;stroke-dasharray:none;stroke-opacity:1" transform="translate(-16.86 -113.41)"/>
  <path d="M86.023 115.806H58.61" class="stroke-orange fill-orange" style="fill:none;stroke:#ff851b;stroke-width:2.39559;stroke-linecap:round;stroke-linejoin:miter;stroke-miterlimit:10;stroke-dasharray:none;stroke-opacity:1" transform="translate(-16.86 -113.41)"/>
  <path d="M112.552 115.806H85.138" style="fill:none;stroke:#fff;stroke-width:4.79118;stroke-linecap:butt;stroke-linejoin:miter;stroke-miterlimit:10;stroke-dasharray:none;stroke-opacity:1" transform="translate(-16.86 -113.41)"/>
  <path d="M112.552 115.806H85.138" class="stroke-orange fill-orange" style="fill:none;stroke:#ff851b;stroke-width:2.39559;stroke-linecap:round;stroke-linejoin:miter;stroke-miterlimit:10;stroke-dasharray:none;stroke-opacity:1" transform="translate(-16.86 -113.41)"/>
  <path d="M139.085 115.806H111.67" style="fill:none;stroke:#fff;stroke-width:4.79118;stroke-linecap:butt;stroke-linejoin:miter;stroke-miterlimit:10;stroke-dasharray:none;stroke-opacity:1" transform="translate(-16.86 -113.41)"/>
  <path d="M139.085 115.806H111.67" class="stroke-orange fill-orange" style="fill:none;stroke:#ff851b;stroke-width:2.39559;stroke-linecap:round;stroke-linejoin:miter;stroke-miterlimit:10;stroke-dasharray:none;stroke-opacity:1" transform="translate(-16.86 -113.41)"/>
  <path d="M165.613 115.806H138.2" style="fill:none;stroke:#fff;stroke-width:4.79118;stroke-linecap:butt;stroke-linejoin:miter;stroke-miterlimit:10;stroke-dasharray:none;stroke-opacity:1" transform="translate(-16.86 -113.41)"/>
  <path d="M165.613 115.806H138.2" class="stroke-orange fill-orange" style="fill:none;stroke:#ff851b;stroke-width:2.39559;stroke-linecap:round;stroke-linejoin:miter;stroke-miterlimit:10;stroke-dasharray:none;stroke-opacity:1" transform="translate(-16.86 -113.41)"/>
  <path d="M192.142 115.806h-27.414" style="fill:none;stroke:#fff;stroke-width:4.79118;stroke-linecap:butt;stroke-linejoin:miter;stroke-miterlimit:10;stroke-dasharray:none;stroke-opacity:1" transform="translate(-16.86 -113.41)"/>
  <path d="M192.142 115.806h-27.414" class="stroke-orange fill-orange" style="fill:none;stroke:#ff851b;stroke-width:2.39559;stroke-linecap:round;stroke-linejoin:miter;stroke-miterlimit:10;stroke-dasharray:none;stroke-opacity:1" transform="translate(-16.86 -113.41)"/>
  <path d="M204.966 123.422c0-5.16-4.42-7.616-13.71-7.616" style="fill:none;stroke:#fff;stroke-width:4.79118;stroke-linecap:butt;stroke-linejoin:miter;stroke-miterlimit:10;stroke-dasharray:none;stroke-opacity:1" transform="translate(-16.86 -113.41)"/>
  <path d="M204.966 123.422c0-5.16-4.42-7.616-13.71-7.616" class="stroke-orange fill-orange" style="fill:none;stroke:#ff851b;stroke-width:2.39559;stroke-linecap:round;stroke-linejoin:miter;stroke-miterlimit:10;stroke-dasharray:none;stroke-opacity:1" transform="translate(-16.86 -113.41)"/>
  <path d="M156.18 149.556c3.094 3.098 6.043 6.043 9.137 9.14" style="fill:none;stroke:#fff;stroke-width:4.79118;stroke-linecap:butt;stroke-linejoin:miter;stroke-miterlimit:10;stroke-dasharray:none;stroke-opacity:1" transform="translate(-16.86 -113.41)"/>
  <path d="M156.18 149.556c3.094 3.098 6.043 6.043 9.137 9.14" class="stroke-orange fill-orange" style="fill:none;stroke:#ff851b;stroke-width:2.39559;stroke-linecap:round;stroke-linejoin:miter;stroke-miterlimit:10;stroke-dasharray:none;stroke-opacity:1" transform="translate(-16.86 -113.41)"/>
  <path d="m103.119 149.556 9.14 9.14" style="fill:none;stroke:#fff;stroke-width:4.79118;stroke-linecap:butt;stroke-linejoin:miter;stroke-miterlimit:10;stroke-dasharray:none;stroke-opacity:1" transform="translate(-16.86 -113.41)"/>
  <path d="m103.119 149.556 9.14 9.14" class="stroke-orange fill-orange" style="fill:none;stroke:#ff851b;stroke-width:2.39559;stroke-linecap:round;stroke-linejoin:miter;stroke-miterlimit:10;stroke-dasharray:none;stroke-opacity:1" transform="translate(-16.86 -113.41)"/>
  <path d="M50.061 149.556c3.094 3.098 6.043 6.043 9.137 9.14" style="fill:none;stroke:#fff;stroke-width:4.79118;stroke-linecap:butt;stroke-linejoin:miter;stroke-miterlimit:10;stroke-dasharray:none;stroke-opacity:1" transform="translate(-16.86 -113.41)"/>
  <path d="M50.061 149.556c3.094 3.098 6.043 6.043 9.137 9.14" class="stroke-orange fill-orange" style="fill:none;stroke:#ff851b;stroke-width:2.39559;stroke-linecap:round;stroke-linejoin:miter;stroke-miterlimit:10;stroke-dasharray:none;stroke-opacity:1" transform="translate(-16.86 -113.41)"/>
  <path d="M59.494 201.291H32.08" style="fill:none;stroke:#fff;stroke-width:4.79118;stroke-linecap:butt;stroke-linejoin:miter;stroke-miterlimit:10;stroke-dasharray:none;stroke-opacity:1" transform="translate(-16.86 -113.41)"/>
  <path d="M59.494 201.291H32.08" class="stroke-orange fill-orange" style="fill:none;stroke:#ff851b;stroke-width:2.39559;stroke-linecap:round;stroke-linejoin:miter;stroke-miterlimit:10;stroke-dasharray:none;stroke-opacity:1" transform="translate(-16.86 -113.41)"/>
  <path d="M86.023 201.291H58.61" style="fill:none;stroke:#fff;stroke-width:4.79118;stroke-linecap:butt;stroke-linejoin:miter;stroke-miterlimit:10;stroke-dasharray:none;stroke-opacity:1" transform="translate(-16.86 -113.41)"/>
  <path d="M86.023 201.291H58.61" class="stroke-orange fill-orange" style="fill:none;stroke:#ff851b;stroke-width:2.39559;stroke-linecap:round;stroke-linejoin:miter;stroke-miterlimit:10;stroke-dasharray:none;stroke-opacity:1" transform="translate(-16.86 -113.41)"/>
  <path d="M112.552 201.291H85.138" style="fill:none;stroke:#fff;stroke-width:4.79118;stroke-linecap:butt;stroke-linejoin:miter;stroke-miterlimit:10;stroke-dasharray:none;stroke-opacity:1" transform="translate(-16.86 -113.41)"/>
  <path d="M112.552 201.291H85.138" class="stroke-orange fill-orange" style="fill:none;stroke:#ff851b;stroke-width:2.39559;stroke-linecap:round;stroke-linejoin:miter;stroke-miterlimit:10;stroke-dasharray:none;stroke-opacity:1" transform="translate(-16.86 -113.41)"/>
  <path d="M139.085 201.291H111.67" style="fill:none;stroke:#fff;stroke-width:4.79118;stroke-linecap:butt;stroke-linejoin:miter;stroke-miterlimit:10;stroke-dasharray:none;stroke-opacity:1" transform="translate(-16.86 -113.41)"/>
  <path d="M139.085 201.291H111.67" class="stroke-orange fill-orange" style="fill:none;stroke:#ff851b;stroke-width:2.39559;stroke-linecap:round;stroke-linejoin:miter;stroke-miterlimit:10;stroke-dasharray:none;stroke-opacity:1" transform="translate(-16.86 -113.41)"/>
  <path d="M165.613 201.291H138.2" style="fill:none;stroke:#fff;stroke-width:4.79118;stroke-linecap:butt;stroke-linejoin:miter;stroke-miterlimit:10;stroke-dasharray:none;stroke-opacity:1" transform="translate(-16.86 -113.41)"/>
  <path d="M165.613 201.291H138.2" class="stroke-orange fill-orange" style="fill:none;stroke:#ff851b;stroke-width:2.39559;stroke-linecap:round;stroke-linejoin:miter;stroke-miterlimit:10;stroke-dasharray:none;stroke-opacity:1" transform="translate(-16.86 -113.41)"/>
  <path d="M192.142 201.291h-27.414" style="fill:none;stroke:#fff;stroke-width:4.79118;stroke-linecap:butt;stroke-linejoin:miter;stroke-miterlimit:10;stroke-dasharray:none;stroke-opacity:1" transform="translate(-16.86 -113.41)"/>
  <path d="M192.142 201.291h-27.414" class="stroke-orange fill-orange" style="fill:none;stroke:#ff851b;stroke-width:2.39559;stroke-linecap:round;stroke-linejoin:miter;stroke-miterlimit:10;stroke-dasharray:none;stroke-opacity:1" transform="translate(-16.86 -113.41)"/>
  <path d="M204.966 193.675c0 5.16-4.42 7.616-13.71 7.616" style="fill:none;stroke:#fff;stroke-width:4.79118;stroke-linecap:butt;stroke-linejoin:miter;stroke-miterlimit:10;stroke-dasharray:none;stroke-opacity:1" transform="translate(-16.86 -113.41)"/>
  <path d="M204.966 193.675c0 5.16-4.42 7.616-13.71 7.616" class="stroke-orange fill-orange" style="fill:none;stroke:#ff851b;stroke-width:2.39559;stroke-linecap:round;stroke-linejoin:miter;stroke-miterlimit:10;stroke-dasharray:none;stroke-opacity:1" transform="translate(-16.86 -113.41)"/>
  <path d="m182.709 149.556 9.14 9.14" style="fill:none;stroke:#fff;stroke-width:4.79118;stroke-linecap:butt;stroke-linejoin:miter;stroke-miterlimit:10;stroke-dasharray:none;stroke-opacity:1" transform="translate(-16.86 -113.41)"/>
  <path d="m182.709 149.556 9.14 9.14" class="stroke-orange fill-orange" style="fill:none;stroke:#ff851b;stroke-width:2.39559;stroke-linecap:round;stroke-linejoin:miter;stroke-miterlimit:10;stroke-dasharray:none;stroke-opacity:1" transform="translate(-16.86 -113.41)"/>
  <path d="M129.651 149.556c3.094 3.098 6.043 6.043 9.137 9.14" style="fill:none;stroke:#fff;stroke-width:4.79118;stroke-linecap:butt;stroke-linejoin:miter;stroke-miterlimit:10;stroke-dasharray:none;stroke-opacity:1" transform="translate(-16.86 -113.41)"/>
  <path d="M129.651 149.556c3.094 3.098 6.043 6.043 9.137 9.14" class="stroke-orange fill-orange" style="fill:none;stroke:#ff851b;stroke-width:2.39559;stroke-linecap:round;stroke-linejoin:miter;stroke-miterlimit:10;stroke-dasharray:none;stroke-opacity:1" transform="translate(-16.86 -113.41)"/>
  <path d="m76.59 149.556 9.14 9.14" style="fill:none;stroke:#fff;stroke-width:4.79118;stroke-linecap:butt;stroke-linejoin:miter;stroke-miterlimit:10;stroke-dasharray:none;stroke-opacity:1" transform="translate(-16.86 -113.41)"/>
  <path d="m76.59 149.556 9.14 9.14" class="stroke-orange fill-orange" style="fill:none;stroke:#ff851b;stroke-width:2.39559;stroke-linecap:round;stroke-linejoin:miter;stroke-miterlimit:10;stroke-dasharray:none;stroke-opacity:1" transform="translate(-16.86 -113.41)"/>
  <path d="M23.532 149.556c3.094 3.098 6.043 6.043 9.137 9.14" style="fill:none;stroke:#fff;stroke-width:4.79118;stroke-linecap:butt;stroke-linejoin:miter;stroke-miterlimit:10;stroke-dasharray:none;stroke-opacity:1" transform="translate(-16.86 -113.41)"/>
  <path d="M23.532 149.556c3.094 3.098 6.043 6.043 9.137 9.14" class="stroke-orange fill-orange" style="fill:none;stroke:#ff851b;stroke-width:2.39559;stroke-linecap:round;stroke-linejoin:miter;stroke-miterlimit:10;stroke-dasharray:none;stroke-opacity:1" transform="translate(-16.86 -113.41)"/>
</svg>
