<svg xmlns:inkscape="http://www.inkscape.org/namespaces/inkscape" xmlns:sodipodi="http://sodipodi.sourceforge.net/DTD/sodipodi-0.dtd" xmlns="http://www.w3.org/2000/svg" xmlns:svg="http://www.w3.org/2000/svg" viewBox="0 0 124.70291 76.570833" version="1.1" id="svg1" sodipodi:docname="twist.svg" xml:space="preserve" inkscape:version="1.3.2 (091e20ef0f, 2023-11-25)"><sodipodi:namedview id="namedview1" pagecolor="#ffffff" bordercolor="#000000" borderopacity="0.25" inkscape:showpageshadow="2" inkscape:pageopacity="0.0" inkscape:pagecheckerboard="0" inkscape:deskcolor="#d1d1d1" inkscape:document-units="mm" showgrid="true" inkscape:zoom="0.94301706" inkscape:cx="110.28432" inkscape:cy="-3.7114917" inkscape:window-width="1920" inkscape:window-height="1125" inkscape:window-x="0" inkscape:window-y="0" inkscape:window-maximized="1" inkscape:current-layer="layer1">
        <inkscape:grid id="grid2" units="mm" originx="-81.576734" originy="-57.989213" spacingx="0.99999998" spacingy="1" empcolor="#0099e5" empopacity="0.30196078" color="#0099e5" opacity="0.14901961" empspacing="1" dotted="true" gridanglex="30" gridanglez="30" visible="true"/>
        <inkscape:page x="0" y="0" width="124.70291" height="76.570839" id="page3" margin="0" bleed="0" inkscape:export-filename="open_knot.png" inkscape:export-xdpi="96" inkscape:export-ydpi="96"/>
    </sodipodi:namedview>

    <defs id="defs1"><inkscape:path-effect effect="knot" id="path-effect4" is_visible="true" lpeversion="1" switcher_size="15" interruption_width="2.2" prop_to_stroke_width="true" add_stroke_width="inkscape_1.0_and_up" both="false" inverse_width="false" add_other_stroke_width="inkscape_1.0_and_up" crossing_points_vector=""/><inkscape:path-effect effect="knot" id="path-effect1" is_visible="true" lpeversion="1" switcher_size="16.7" interruption_width="80" prop_to_stroke_width="true" add_stroke_width="inkscape_1.0_and_up" both="false" inverse_width="false" add_other_stroke_width="inkscape_1.0_and_up" crossing_points_vector="142.68037 | 88.049103 | 0 | 0 | 0 | 1 | 0.30729835 | 3.7571517 | -1"/></defs>
    <g inkscape:label="Layer 1" inkscape:groupmode="layer" id="layer1" transform="translate(-81.576732,-57.989221)" style="display:inline" class=""><path d="m 126,68 c 32.0973,-2.26146 78,20 78,36 0,32 -26.8629,28 -60,28 -33.1371,0 -62.3941,5.0505 -60,-28 1.544,-21.3154 42,-6 78,-25 m 12.1167,-7.3779 C 177.6605,69.93913 196.738,61.9891 200,60" style="display:none;fill:none;stroke:#111111;stroke-width:0.254;stroke-linecap:square;stroke-linejoin:round;stroke-miterlimit:4.1;stroke-opacity:1" id="path1" class="stroke-foreground"/><path style="display:none;fill:#FF851B;stroke:#111111;stroke-width:0.110536;stroke-linecap:square;stroke-linejoin:round;stroke-dasharray:none;stroke-opacity:1" d="m 61.944729,-60.294549 c -3.358918,0 2.23928,4.478557 -1.119639,4.478557 h -1.11964 c 3.358918,0 -2.239278,-4.478557 1.11964,-4.478557 z" id="path2-2" sodipodi:nodetypes="ccccc" class="fill-orange stroke-foreground"/>

    <path d="m 128.133,65.6598 c -3.355,0.1553 2.443,4.3698 -0.911,4.5251 l -1.118,0.0518 c 3.354,-0.1553 -2.444,-4.3698 0.911,-4.5251 z m 1.339,-0.0404 c -3.358,0.0033 2.342,4.3529 -1.013,4.5082 l -1.118,0.0518 c 3.355,-0.1553 -2.443,-4.3698 0.911,-4.5251 z m 1.239,-0.0012 c -3.358,0.0032 2.243,4.476 -1.115,4.4793 l -1.017,0.0246 c 3.354,-0.1553 -2.345,-4.4996 1.013,-4.5028 z m 1.239,-0.0013 c -3.358,0.0033 2.243,4.4761 -1.115,4.4793 l -1.119,0.0011 c 3.358,-0.0032 -2.243,-4.476 1.115,-4.4793 z m 1.332,0.0434 c -3.356,-0.1366 2.15,4.4314 -1.208,4.4347 l -1.119,0.0011 c 3.358,-0.0033 -2.243,-4.476 1.115,-4.4793 z m 1.238,0.0504 c -3.356,-0.1366 2.054,4.5657 -1.301,4.429 l -1.118,-0.0455 c 3.355,0.1366 -2.055,-4.5657 1.3,-4.429 z m 1.323,0.0681 c -3.348,-0.2659 1.969,4.548 -1.386,4.4113 l -1.118,-0.0455 c 3.355,0.1366 -2.055,-4.5656 1.3,-4.429 z m 1.235,0.0981 c -3.347,-0.2659 1.878,4.6415 -1.47,4.3756 l -1.031,-0.0575 c 3.355,0.1366 -1.962,-4.6726 1.385,-4.4067 z m 1.235,0.0981 c -3.347,-0.2659 1.878,4.6415 -1.47,4.3756 l -1.116,-0.0886 c 3.348,0.2659 -1.877,-4.6415 1.471,-4.3756 z m 1.313,0.1347 c -3.336,-0.3858 1.8,4.6049 -1.548,4.339 l -1.116,-0.0886 c 3.348,0.2659 -1.877,-4.6415 1.471,-4.3756 z m 1.231,0.1424 c -3.336,-0.3859 1.709,4.7059 -1.627,4.32 l -1.033,-0.1139 c 3.348,0.2659 -1.788,-4.7206 1.548,-4.3348 z m 1.305,0.1522 c -3.321,-0.4977 1.635,4.696 -1.701,4.3102 l -1.112,-0.1286 c 3.336,0.3858 -1.71,-4.7059 1.626,-4.3201 z m 1.225,0.1837 c -3.321,-0.4977 1.551,4.7607 -1.77,4.263 l -1.037,-0.1228 c 3.336,0.3859 -1.621,-4.8039 1.7,-4.3061 z m 1.226,0.1836 c -3.321,-0.4977 1.55,4.7607 -1.771,4.263 l -1.107,-0.1659 c 3.321,0.4977 -1.551,-4.7607 1.771,-4.263 z m 1.293,0.2076 c -3.304,-0.6027 1.483,4.7368 -1.839,4.2391 l -1.107,-0.166 c 3.321,0.4978 -1.55,-4.7607 1.771,-4.2629 z m 1.219,0.2223 c -3.304,-0.6027 1.399,4.8075 -1.905,4.2048 l -1.034,-0.1703 c 3.321,0.4977 -1.466,-4.8381 1.838,-4.2354 z m 1.219,0.2224 c -3.304,-0.6027 1.399,4.8075 -1.905,4.2048 l -1.101,-0.2009 c 3.303,0.6027 -1.399,-4.8075 1.905,-4.2048 z m 1.281,0.2577 c -3.285,-0.7019 1.337,4.7722 -1.967,4.1694 l -1.101,-0.2009 c 3.303,0.6028 -1.399,-4.8074 1.905,-4.2047 z m 1.211,0.2589 c -3.284,-0.7018 1.254,4.8474 -2.03,4.1456 l -1.03,-0.2136 c 3.303,0.6027 -1.319,-4.8678 1.966,-4.1659 z m 1.212,0.2589 c -3.284,-0.7018 1.253,4.8474 -2.031,4.1456 l -1.094,-0.2339 c 3.284,0.7018 -1.254,-4.8474 2.03,-4.1456 z m 1.267,0.3039 c -3.262,-0.7961 1.198,4.8025 -2.086,4.1007 l -1.095,-0.234 c 3.284,0.7018 -1.253,-4.8474 2.031,-4.1456 z m 1.204,0.2937 c -3.262,-0.7961 1.114,4.8814 -2.149,4.0854 l -1.087,-0.2654 c 3.262,0.7961 -1.114,-4.8814 2.149,-4.0854 z m 1.263,0.3137 c -3.239,-0.8863 1.055,4.8614 -2.208,4.0654 l -1.088,-0.2654 c 3.263,0.7961 -1.113,-4.8814 2.149,-4.0854 z m 1.195,0.327 c -3.239,-0.8863 0.978,4.9105 -2.261,4.0242 l -1.026,-0.2575 c 3.263,0.7961 -1.032,-4.9484 2.207,-4.0621 z m 1.195,0.327 c -3.239,-0.8863 0.978,4.9105 -2.261,4.0242 l -1.08,-0.2954 c 3.239,0.8863 -0.978,-4.9105 2.261,-4.0242 z m 1.25,0.3561 c -3.214,-0.9733 0.923,4.8814 -2.316,3.9951 l -1.08,-0.2954 c 3.239,0.8863 -0.978,-4.9105 2.262,-4.0243 z m 1.186,0.3591 c -3.214,-0.9733 0.845,4.9351 -2.37,3.9618 l -1.017,-0.2942 c 3.239,0.8862 -0.899,-4.9653 2.315,-3.992 z m 1.186,0.3591 c -3.215,-0.9733 0.844,4.9351 -2.37,3.9618 l -1.071,-0.3244 c 3.214,0.9733 -0.845,-4.9351 2.369,-3.9618 z m 1.236,0.3971 c -3.188,-1.058 0.794,4.8971 -2.42,3.9238 l -1.071,-0.3244 c 3.214,0.9733 -0.845,-4.9351 2.369,-3.9618 z m 1.176,0.3903 c -3.188,-1.0579 0.714,4.9557 -2.474,3.8978 l -1.007,-0.3296 c 3.214,0.9733 -0.769,-4.9788 2.418,-3.9208 z m 1.176,0.3903 c -3.188,-1.0579 0.714,4.9558 -2.474,3.8978 l -1.062,-0.3526 c 3.187,1.0579 -0.714,-4.9557 2.473,-3.8978 z m 1.221,0.4373 c -3.158,-1.1409 0.584,4.9727 -2.574,3.8318 l -1.007,-0.3336 c 3.187,1.0579 -0.63,-5.0194 2.528,-3.8785 z m 1.166,0.421 c -3.159,-1.1409 0.584,4.9727 -2.575,3.8317 l -1.053,-0.3803 c 3.159,1.141 -0.584,-4.9727 2.575,-3.8317 z m 1.218,0.4473 c -3.128,-1.223 0.531,4.9463 -2.627,3.8054 l -1.053,-0.3803 c 3.158,1.1409 -0.584,-4.9727 2.574,-3.8318 z m 1.153,0.4512 c -3.127,-1.223 0.455,4.9863 -2.673,3.7633 l -0.995,-0.3685 c 3.159,1.141 -0.502,-5.0254 2.626,-3.8024 z m 1.154,0.4513 c -3.127,-1.223 0.455,4.9862 -2.673,3.7632 l -1.043,-0.4077 c 3.128,1.223 -0.454,-4.9862 2.674,-3.7632 z m 1.203,0.4885 c -3.095,-1.3049 0.406,4.9489 -2.722,3.7259 l -1.043,-0.4076 c 3.128,1.223 -0.454,-4.9863 2.674,-3.7633 z m 1.142,0.4815 c -3.095,-1.3049 0.322,4.9964 -2.772,3.6915 l -0.981,-0.4035 c 3.128,1.223 -0.373,-5.0279 2.721,-3.723 z m 1.141,0.4814 c -3.094,-1.3049 0.323,4.9965 -2.771,3.6916 l -1.032,-0.435 c 3.095,1.3049 -0.323,-4.9965 2.772,-3.6916 z m 1.186,0.5312 c -3.059,-1.3873 0.279,4.9467 -2.816,3.6418 l -1.031,-0.4349 c 3.094,1.3049 -0.323,-4.9965 2.772,-3.6916 z m 1.128,0.5119 c -3.058,-1.3874 0.189,5.0033 -2.869,3.6159 l -1.02,-0.4624 c 3.059,1.3873 -0.189,-5.0033 2.87,-3.616 z m 1.181,0.5453 c -3.019,-1.4712 0.136,4.9699 -2.922,3.5825 l -1.019,-0.4624 c 3.058,1.3873 -0.189,-5.0034 2.869,-3.616 z m 1.114,0.5428 c -3.019,-1.4712 0.051,5.0066 -2.968,3.5354 l -0.959,-0.4463 c 3.058,1.3874 -0.098,-5.0507 2.921,-3.5795 z m 1.114,0.5427 c -3.019,-1.4711 0.051,5.0067 -2.968,3.5355 l -1.007,-0.4904 c 3.019,1.4712 -0.051,-5.0066 2.968,-3.5354 z m 1.16,0.593 c -2.975,-1.5571 0.004,4.9564 -3.015,3.4853 l -1.006,-0.4904 c 3.019,1.4712 -0.051,-5.0066 2.968,-3.5355 z m 1.098,0.5745 c -2.976,-1.5571 -0.093,5.006 -3.068,3.4489 l -0.937,-0.4857 c 3.019,1.4711 0.038,-5.0394 3.013,-3.4823 z m 1.154,0.612 c -2.927,-1.6461 -0.149,4.9685 -3.124,3.4114 l -0.992,-0.5191 c 2.975,1.5571 0.092,-5.006 3.068,-3.4489 z m 1.08,0.6074 c -2.927,-1.6461 -0.243,5.0009 -3.171,3.3548 l -0.927,-0.4954 c 2.975,1.5571 0.195,-5.0543 3.123,-3.4081 z m 1.08,0.6073 c -2.927,-1.6461 -0.243,5.0009 -3.171,3.3548 l -0.975,-0.5487 c 2.927,1.6461 0.243,-5.0009 3.171,-3.3548 z m 1.128,0.6685 c -2.873,-1.7392 -0.291,4.9398 -3.219,3.2936 l -0.975,-0.5487 c 2.927,1.6462 0.243,-5.0009 3.171,-3.3547 z m 1.06,0.6417 c -2.873,-1.7393 -0.404,4.9904 -3.277,3.2512 l -0.897,-0.5406 c 2.927,1.6461 0.343,-5.0296 3.216,-3.2904 z m 1.117,0.6958 c -2.811,-1.8374 -0.461,4.9363 -3.334,3.1971 l -0.958,-0.5797 c 2.873,1.7392 0.404,-4.9905 3.277,-3.2513 z m 1.037,0.678 c -2.811,-1.8375 -0.576,4.9735 -3.387,3.136 l -0.882,-0.555 c 2.873,1.7393 0.521,-5.0309 3.332,-3.1935 z m 1.105,0.7282 c -2.74,-1.942 -0.644,4.9232 -3.455,3.0858 l -0.937,-0.6125 c 2.811,1.8374 0.576,-4.9735 3.387,-3.1361 z m 1.011,0.7165 c -2.74,-1.942 -0.763,4.9482 -3.503,3.0062 l -0.863,-0.5715 c 2.811,1.8374 0.713,-5.024 3.453,-3.082 z m 1.011,0.7165 c -2.74,-1.942 -0.763,4.9482 -3.503,3.0062 l -0.913,-0.6473 c 2.739,1.942 0.763,-4.9482 3.502,-3.0062 z m 1.059,0.8083 c -2.657,-2.0543 -0.812,4.8564 -3.551,2.9144 l -0.914,-0.6473 c 2.74,1.942 0.764,-4.9482 3.503,-3.0062 z m 0.98,0.7579 c -2.657,-2.0543 -0.969,4.9121 -3.625,2.8579 l -0.886,-0.6848 c 2.657,2.0542 0.969,-4.9121 3.625,-2.8579 z m 1.033,0.8581 c -2.559,-2.1755 -1.022,4.8119 -3.678,2.7577 l -0.886,-0.6848 c 2.657,2.0542 0.969,-4.9121 3.625,-2.8579 z m 0.943,0.8027 c -2.558,-2.1755 -1.195,4.8617 -3.753,2.6861 l -0.773,-0.658 c 2.656,2.0543 1.116,-4.9288 3.674,-2.7533 z m 0.998,0.9189 c -2.439,-2.3072 -1.249,4.7454 -3.808,2.5699 l -0.852,-0.7252 c 2.558,2.1755 1.195,-4.8616 3.754,-2.6861 z m 0.901,0.8513 c -2.44,-2.3072 -1.451,4.7917 -3.89,2.4845 l -0.727,-0.6884 c 2.558,2.1755 1.364,-4.8724 3.803,-2.5652 z m 0.949,0.9934 c -2.296,-2.4505 -1.499,4.6496 -3.939,2.3424 l -0.814,-0.7691 c 2.44,2.3072 1.451,-4.7918 3.891,-2.4845 z m 0.92,0.9938 c -2.166,-2.5661 -1.81,4.6054 -4.106,2.1548 l -0.765,-0.8168 c 2.295,2.4505 1.737,-4.695 4.033,-2.2445 z m 0.845,1.0196 c -2.067,-2.6466 -2.023,4.5268 -4.19,1.9606 l -0.679,-0.7381 c 2.295,2.4505 1.935,-4.7168 4.101,-2.1507 z m 0.802,1.0628 c -1.956,-2.7297 -2.191,4.4347 -4.258,1.788 l -0.656,-0.7988 c 2.166,2.5662 2.118,-4.6043 4.186,-1.9577 z m 0.751,1.1091 c -1.832,-2.8148 -2.366,4.3266 -4.322,1.5965 l -0.613,-0.8233 c 2.067,2.6467 2.297,-4.5148 4.253,-1.7851 z m 0.743,1.2655 c -1.534,-2.9871 -2.6,4.0921 -4.432,1.2769 l -0.563,-0.8486 c 1.956,2.7298 2.485,-4.4084 4.317,-1.5936 z m 0.598,1.231 c -1.357,-3.0713 -2.993,3.9081 -4.527,0.9212 l -0.496,-0.8678 c 1.691,2.9007 2.945,-4.1651 4.479,-1.178 z m 0.506,1.2841 c -1.16,-3.1509 -3.195,3.707 -4.553,0.636 l -0.425,-0.8925 c 1.534,2.9875 3.163,-3.9895 4.521,-0.9182 z m 0.407,1.505 c -0.698,-3.2845 -3.682,3.234 -4.622,0.01 l -0.289,-0.77 c 1.357,3.071 3.647,-3.7072 4.587,-0.484 z m 0.228,1.59 c -0.148,-3.3539 -3.885,2.742 -4.583,-0.543 l -0.234,-0.922 c 0.941,3.223 3.916,-3.2925 4.614,-0.008 z m 0.016,1.397 c 0.09,-3.356 -4.335,2.275 -4.483,-1.079 l -0.091,-0.744 c 0.698,3.285 4.415,-2.808 4.563,0.546 z m -0.034,1.239 c 0.091,-3.357 -4.536,2.117 -4.446,-1.24 l 0.002,-0.959 c 0.148,3.354 4.565,-2.277 4.474,1.08 z m -0.05,1.37 c 0.288,-3.346 -4.52,1.986 -4.429,-1.371 l 0.03,-1.119 c -0.091,3.357 4.536,-2.117 4.446,1.24 z m -0.106,1.234 c 0.288,-3.346 -4.654,1.846 -4.366,-1.499 l 0.039,-0.987 c -0.09,3.357 4.711,-1.975 4.423,1.371 z m -0.107,1.234 c 0.288,-3.345 -4.653,1.847 -4.365,-1.499 l 0.096,-1.115 c -0.288,3.345 4.653,-1.846 4.365,1.499 z m -0.174,1.337 c 0.45,-3.328 -4.739,1.617 -4.288,-1.71 l 0.087,-1.007 c -0.288,3.346 4.802,-1.72 4.351,1.608 z m -0.217,1.299 c 0.566,-3.31 -4.792,1.452 -4.226,-1.859 l 0.139,-1.032 c -0.451,3.328 4.841,-1.523 4.275,1.787 z m -0.265,1.294 c 0.687,-3.287 -4.841,1.276 -4.155,-2.012 l 0.174,-1.023 c -0.566,3.311 4.897,-1.348 4.21,1.939 z m -0.316,1.287 c 0.812,-3.259 -4.887,1.088 -4.075,-2.17 l 0.212,-1.012 c -0.687,3.288 4.946,-1.163 4.134,2.095 z m -0.404,1.364 c 1.077,-3.18 -4.894,0.803 -3.951,-2.42 l 0.252,-0.998 c -0.813,3.258 4.989,-0.968 4.046,2.255 z m -0.442,1.262 c 1.216,-3.13 -4.916,0.595 -3.838,-2.586 l 0.295,-0.981 c -0.943,3.223 5.024,-0.762 3.946,2.418 z m -0.505,1.241 c 1.357,-3.071 -4.928,0.379 -3.712,-2.751 l 0.341,-0.962 c -1.078,3.18 5.049,-0.547 3.833,2.584 z m -0.571,1.216 c 1.499,-3.005 -4.93,0.157 -3.574,-2.915 l 0.389,-0.94 c -1.216,3.13 5.065,-0.323 3.708,2.749 z m -0.638,1.186 c 1.641,-2.93 -4.921,-0.072 -3.423,-3.077 l 0.439,-0.915 c -1.356,3.072 5.068,-0.092 3.569,2.914 z m -0.772,1.238 c 1.922,-2.753 -4.835,-0.393 -3.194,-3.323 l 0.49,-0.885 c -1.499,3.005 5.058,0.144 3.417,3.074 z m -0.791,1.096 c 2.058,-2.654 -4.872,-0.807 -2.95,-3.561 l 0.542,-0.85 c -1.783,2.846 5.052,0.66 3.13,3.413 z m -0.856,1.046 c 2.189,-2.547 -4.814,-1.042 -2.756,-3.696 l 0.594,-0.813 c -1.922,2.754 5.003,0.904 2.945,3.557 z m -0.996,1.069 c 2.431,-2.316 -4.667,-1.35 -2.478,-3.897 l 0.645,-0.773 c -2.058,2.654 4.94,1.144 2.751,3.691 z m -0.987,0.917 c 2.541,-2.195 -4.62,-1.76 -2.189,-4.076 l 0.62,-0.648 c -2.188,2.547 4.901,1.573 2.47,3.89 z m -1.039,0.856 c 2.643,-2.072 -4.521,-1.971 -1.98,-4.166 l 0.744,-0.684 c -2.431,2.317 4.725,1.877 2.184,4.073 z m -1.083,0.792 c 2.736,-1.947 -4.417,-2.171 -1.774,-4.243 l 0.787,-0.637 c -2.541,2.195 4.619,2.09 1.976,4.162 z m -1.211,0.771 c 2.896,-1.7 -4.223,-2.586 -1.403,-4.409 l 0.746,-0.531 c -2.643,2.072 4.506,2.469 1.685,4.292 z m -1.16,0.653 c 2.964,-1.579 -4.106,-2.754 -1.21,-4.454 l 0.867,-0.543 c -2.821,1.823 4.296,2.705 1.4,4.405 z m -1.231,0.597 c 3.05,-1.404 -3.944,-2.914 -0.98,-4.493 l 0.898,-0.498 c -2.896,1.7 4.171,2.871 1.207,4.45 z m -1.274,0.572 c 3.141,-1.185 -3.757,-3.185 -0.707,-4.589 l 0.895,-0.42 c -2.964,1.579 4.027,3.083 0.977,4.487 z m -1.159,0.438 c 3.141,-1.186 -3.676,-3.399 -0.534,-4.585 l 0.877,-0.392 c -3.05,1.404 3.846,3.396 0.704,4.582 z m -1.304,0.449 c 3.21,-0.986 -3.531,-3.411 -0.389,-4.596 l 1.047,-0.395 c -3.141,1.185 3.675,3.399 0.534,4.584 z m -1.184,0.364 c 3.21,-0.986 -3.455,-3.622 -0.245,-4.609 l 0.928,-0.309 c -3.142,1.186 3.597,3.603 0.387,4.589 z m -1.317,0.346 c 3.259,-0.808 -3.322,-3.604 -0.113,-4.591 l 1.07,-0.329 c -3.209,0.987 3.456,3.623 0.246,4.609 z m -1.308,0.319 c 3.295,-0.651 -3.145,-3.828 0.114,-4.636 l 0.967,-0.239 c -3.21,0.987 3.37,3.777 0.111,4.585 z m -1.215,0.241 c 3.294,-0.652 -3.065,-3.959 0.229,-4.611 l 0.984,-0.238 c -3.259,0.809 3.179,3.98 -0.115,4.631 z m -1.309,0.243 c 3.318,-0.514 -2.972,-3.962 0.323,-4.613 l 1.098,-0.218 c -3.294,0.652 3.065,3.959 -0.23,4.611 z m -1.225,0.19 c 3.319,-0.514 -2.898,-4.083 0.421,-4.597 l 1.009,-0.183 c -3.294,0.651 2.995,4.094 -0.324,4.608 z m -1.305,0.183 c 3.335,-0.396 -2.817,-4.076 0.501,-4.59 l 1.106,-0.172 c -3.318,0.515 2.899,4.083 -0.42,4.597 z m -1.231,0.146 c 3.335,-0.396 -2.751,-4.183 0.583,-4.579 l 1.031,-0.139 c -3.319,0.515 2.833,4.19 -0.502,4.586 z m -1.299,0.135 c 3.345,-0.295 -2.683,-4.171 0.652,-4.568 l 1.112,-0.132 c -3.335,0.396 2.751,4.183 -0.583,4.579 z m -1.234,0.109 c 3.345,-0.295 -2.625,-4.264 0.721,-4.559 l 1.046,-0.104 c -3.335,0.397 2.693,4.269 -0.652,4.565 z m -1.292,0.097 c 3.351,-0.21 -2.567,-4.252 0.778,-4.547 l 1.115,-0.099 c -3.345,0.296 2.625,4.264 -0.721,4.56 z m -1.237,0.078 c 3.352,-0.211 -2.516,-4.329 0.836,-4.54 l 1.06,-0.075 c -3.345,0.296 2.573,4.334 -0.779,4.545 z m -1.304,0.063 c 3.357,-0.111 -2.448,-4.314 0.904,-4.525 l 1.117,-0.07 c -3.352,0.21 2.515,4.329 -0.836,4.54 z m -1.238,0.041 c 3.356,-0.111 -2.386,-4.402 0.97,-4.513 l 1.052,-0.046 c -3.352,0.211 2.453,4.411 -0.903,4.522 z m -1.239,0.041 c 3.357,-0.111 -2.386,-4.402 0.971,-4.513 l 1.119,-0.037 c -3.357,0.111 2.386,4.402 -0.971,4.513 z m -1.238,0.041 c 3.356,-0.111 -2.386,-4.402 0.971,-4.513 l 1.118,-0.037 c -3.356,0.111 2.386,4.402 -0.97,4.513 z m -1.316,0.032 c 3.359,0.004 -2.308,-4.392 1.048,-4.504 l 1.119,-0.037 c -3.356,0.111 2.386,4.402 -0.97,4.513 z m -1.239,-0.002 c 3.358,0.005 -2.232,-4.481 1.126,-4.477 l 1.042,-0.021 c -3.357,0.111 2.31,4.504 -1.048,4.5 z m -1.239,-0.002 c 3.358,0.005 -2.232,-4.481 1.126,-4.477 l 1.119,0.002 c -3.358,-0.005 2.233,4.482 -1.125,4.477 z m -1.239,-0.001 c 3.358,0.004 -2.233,-4.482 1.126,-4.477 l 1.119,0.001 c -3.358,-0.004 2.233,4.482 -1.125,4.477 z m -1.239,-0.002 c 3.358,0.005 -2.233,-4.482 1.126,-4.477 l 1.119,0.002 c -3.358,-0.005 2.233,4.481 -1.126,4.476 z m -1.239,-0.002 c 3.358,0.005 -2.233,-4.481 1.126,-4.477 l 1.119,0.002 c -3.358,-0.005 2.233,4.481 -1.126,4.477 z m -1.239,-0.002 c 3.358,0.005 -2.233,-4.481 1.126,-4.476 l 1.119,10e-4 c -3.358,-0.004 2.233,4.482 -1.126,4.477 z m -1.239,-0.001 c 3.358,0.004 -2.233,-4.482 1.126,-4.477 l 1.119,0.001 c -3.358,-0.004 2.233,4.482 -1.126,4.477 z m -1.239,-0.002 c 3.358,0.005 -2.233,-4.481 1.126,-4.477 l 1.119,0.002 c -3.358,-0.005 2.233,4.481 -1.126,4.477 z m -1.256,-0.003 c 3.358,0.03 -2.216,-4.48 1.142,-4.476 l 1.12,0.002 c -3.358,-0.005 2.233,4.481 -1.126,4.477 z m -1.239,-0.011 c 3.358,0.03 -2.199,-4.499 1.16,-4.469 l 1.102,0.004 c -3.358,-0.004 2.215,4.505 -1.143,4.475 z m -1.239,-0.012 c 3.358,0.031 -2.199,-4.498 1.16,-4.468 l 1.119,0.01 c -3.358,-0.03 2.198,4.499 -1.16,4.468 z m -1.239,-0.011 c 3.358,0.03 -2.199,-4.498 1.159,-4.468 l 1.12,0.01 c -3.358,-0.03 2.198,4.499 -1.16,4.468 z m -1.239,-0.011 c 3.358,0.03 -2.199,-4.499 1.159,-4.468 l 1.12,0.01 c -3.358,-0.031 2.198,4.498 -1.16,4.468 z m -1.24,-0.011 c 3.359,0.03 -2.198,-4.499 1.16,-4.469 l 1.12,0.011 c -3.358,-0.031 2.198,4.498 -1.16,4.468 z m -1.239,-0.012 c 3.359,0.031 -2.198,-4.498 1.16,-4.468 l 1.12,0.01 c -3.358,-0.03 2.198,4.499 -1.16,4.469 z m -1.239,-0.011 c 3.359,0.031 -2.198,-4.498 1.16,-4.468 l 1.12,0.01 c -3.358,-0.03 2.198,4.499 -1.16,4.468 z m -1.239,-0.011 c 3.359,0.03 -2.198,-4.499 1.16,-4.468 l 1.12,0.01 c -3.359,-0.03 2.198,4.499 -1.16,4.468 z m -1.239,-0.011 c 3.359,0.03 -2.198,-4.499 1.16,-4.468 l 1.12,0.01 c -3.359,-0.031 2.198,4.498 -1.16,4.468 z m -1.19,-0.001 c 3.358,-0.042 -2.247,-4.509 1.111,-4.479 l 1.12,0.011 c -3.359,-0.031 2.198,4.498 -1.16,4.468 z m -1.239,0.016 c 3.358,-0.042 -2.295,-4.45 1.063,-4.492 l 1.168,-0.004 c -3.359,-0.03 2.246,4.44 -1.112,4.482 z m -1.239,0.015 c 3.358,-0.042 -2.295,-4.45 1.063,-4.492 l 1.119,-0.014 c -3.358,0.042 2.295,4.45 -1.063,4.492 z m -1.239,0.016 c 3.358,-0.042 -2.295,-4.45 1.063,-4.492 l 1.119,-0.014 c -3.358,0.042 2.295,4.45 -1.063,4.492 z m -1.239,0.015 c 3.358,-0.042 -2.295,-4.45 1.063,-4.492 l 1.119,-0.014 c -3.358,0.042 2.295,4.45 -1.063,4.492 z m -1.239,0.016 c 3.358,-0.042 -2.295,-4.45 1.063,-4.492 l 1.119,-0.014 c -3.358,0.042 2.295,4.45 -1.063,4.492 z m -1.239,0.015 c 3.358,-0.042 -2.295,-4.45 1.063,-4.492 l 1.119,-0.014 c -3.358,0.042 2.295,4.45 -1.063,4.492 z m -1.239,0.016 c 3.358,-0.042 -2.295,-4.45 1.063,-4.492 l 1.119,-0.014 c -3.358,0.042 2.295,4.45 -1.063,4.492 z m -1.239,0.015 c 3.358,-0.042 -2.295,-4.45 1.063,-4.492 l 1.119,-0.014 c -3.358,0.042 2.295,4.45 -1.063,4.492 z m -1.239,0.016 c 3.358,-0.042 -2.295,-4.45 1.063,-4.492 l 1.12,-0.014 c -3.359,0.042 2.294,4.45 -1.064,4.492 z m -1.244,0.014 c 3.358,-0.035 -2.29,-4.449 1.068,-4.491 l 1.12,-0.014 c -3.359,0.042 2.294,4.45 -1.064,4.492 z m -1.239,0.013 c 3.358,-0.035 -2.285,-4.455 1.073,-4.49 l 1.115,-0.012 c -3.359,0.042 2.29,4.455 -1.068,4.49 z m -1.239,0.013 c 3.358,-0.035 -2.285,-4.455 1.073,-4.49 l 1.119,-0.012 c -3.358,0.035 2.286,4.455 -1.072,4.49 z m -1.239,0.013 c 3.358,-0.035 -2.285,-4.455 1.073,-4.49 l 1.119,-0.012 c -3.358,0.035 2.286,4.455 -1.072,4.49 z m -1.239,0.013 c 3.358,-0.035 -2.285,-4.455 1.073,-4.49 l 1.119,-0.012 c -3.358,0.035 2.286,4.455 -1.072,4.49 z m -1.239,0.013 c 3.358,-0.035 -2.285,-4.455 1.073,-4.49 l 1.119,-0.012 c -3.358,0.035 2.286,4.455 -1.072,4.49 z m -1.239,0.013 c 3.358,-0.036 -2.285,-4.455 1.073,-4.49 l 1.119,-0.012 c -3.358,0.035 2.286,4.455 -1.072,4.49 z m -1.239,0.013 c 3.358,-0.036 -2.285,-4.455 1.073,-4.49 l 1.119,-0.012 c -3.358,0.035 2.286,4.455 -1.072,4.49 z m -1.239,0.012 c 3.358,-0.035 -2.285,-4.454 1.073,-4.489 l 1.119,-0.012 c -3.358,0.035 2.286,4.455 -1.072,4.49 z m -1.308,0.002 c 3.358,0.069 -2.216,-4.443 1.142,-4.478 l 1.119,-0.012 c -3.358,0.035 2.286,4.455 -1.072,4.49 z m -1.239,-0.025 c 3.358,0.069 -2.147,-4.523 1.211,-4.455 l 1.05,0.003 c -3.358,0.035 2.216,4.543 -1.141,4.475 z m -1.238,-0.025 c 3.357,0.068 -2.147,-4.523 1.21,-4.455 l 1.119,0.023 c -3.357,-0.068 2.147,4.523 -1.21,4.455 z m -1.239,-0.025 c 3.357,0.068 -2.147,-4.524 1.21,-4.455 l 1.12,0.023 c -3.358,-0.069 2.147,4.523 -1.211,4.454 z m -1.239,-0.026 c 3.358,0.069 -2.147,-4.523 1.211,-4.454 l 1.119,0.022 c -3.358,-0.068 2.147,4.524 -1.211,4.455 z m -1.3,-0.059 c 3.354,0.162 -2.02,-4.582 1.334,-4.419 l 1.057,0.021 c -3.358,-0.068 2.081,4.614 -1.273,4.452 z m -1.238,-0.06 c 3.355,0.162 -2.02,-4.582 1.335,-4.419 l 1.118,0.054 c -3.355,-0.162 2.02,4.581 -1.335,4.419 z m -1.29,-0.088 c 3.349,0.243 -1.967,-4.553 1.387,-4.391 l 1.118,0.054 c -3.354,-0.162 2.02,4.581 -1.334,4.419 z m -1.236,-0.09 c 3.35,0.243 -1.908,-4.629 1.441,-4.386 l 1.117,0.081 c -3.35,-0.243 1.908,4.629 -1.441,4.386 z m -1.298,-0.125 c 3.341,0.341 -1.846,-4.594 1.504,-4.351 l 1.116,0.082 c -3.349,-0.244 1.908,4.629 -1.441,4.385 z m -1.233,-0.126 c 3.341,0.341 -1.772,-4.683 1.569,-4.341 l 1.113,0.113 c -3.34,-0.341 1.773,4.683 -1.568,4.342 z m -1.305,-0.171 c 3.327,0.457 -1.7,-4.638 1.641,-4.296 l 1.114,0.113 c -3.341,-0.341 1.772,4.683 -1.569,4.342 z m -1.228,-0.169 c 3.327,0.457 -1.609,-4.741 1.718,-4.284 l 1.109,0.152 c -3.327,-0.457 1.609,4.742 -1.718,4.285 z m -1.31,-0.23 c 3.305,0.593 -1.414,-4.802 1.892,-4.21 l 1.018,0.14 c -3.327,-0.457 1.497,4.86 -1.808,4.268 z m -1.323,-0.245 c 3.273,0.749 -1.31,-4.776 1.995,-4.184 l 1.102,0.198 c -3.306,-0.593 1.414,4.803 -1.892,4.21 z m -1.208,-0.277 c 3.273,0.75 -1.1827,-4.865 2.091,-4.115 l 0.994,0.187 c -3.305,-0.592 1.279,4.928 -1.994,4.178 z m -1.3224,-0.329 c 3.2264,0.93 -1.068,-4.812 2.2054,-4.063 l 1.091,0.25 c -3.2733,-0.749 1.183,4.865 -2.091,4.115 z m -1.1905,-0.343 c 3.2269,0.93 -0.9111,-4.923 2.3159,-3.993 l 0.963,0.247 c -3.273,-0.75 1.023,4.985 -2.2033,4.056 z m -1.3115,-0.434 c 3.1604,1.134 -0.7901,-4.832 2.4366,-3.902 l 1.0758,0.31 c -3.2269,-0.93 0.911,4.922 -2.3158,3.993 z m -1.1661,-0.418 c 3.1605,1.134 -0.5951,-4.97 2.5655,-3.837 l 0.9222,0.32 c -3.2266,-0.93 0.7268,5.029 -2.4342,3.895 z m -1.2853,-0.559 c 3.0694,1.361 -0.2316,-5.001 2.8379,-3.64 l 0.9003,0.322 c -3.1605,-1.134 0.3544,5.132 -2.7151,3.771 z m -1.2435,-0.585 c 2.9819,1.545 -0.1205,-4.918 2.9489,-3.557 l 1.0232,0.454 c -3.0695,-1.361 0.2315,5 -2.8379,3.639 z m -1.1708,-0.643 c 2.9122,1.673 0.1423,-4.933 3.1242,-3.388 l 0.8862,0.426 c -3.0695,-1.361 0.0361,5.095 -2.9458,3.55 z m -1.2263,-0.769 c 2.7435,1.936 0.4406,-4.846 3.3527,-3.174 l 0.8916,0.5 c -2.9819,-1.545 -0.2096,5.056 -3.1217,3.384 z m -1.0917,-0.794 c 2.644,2.07 0.8327,-4.87 3.5762,-2.934 l 0.7645,0.495 c -2.9121,-1.673 -0.6032,5.1 -3.3468,3.164 z m -1.0436,-0.862 c 2.5342,2.203 1.0662,-4.808 3.7102,-2.738 l 0.8119,0.597 c -2.7435,-1.936 -0.9287,5 -3.5727,2.929 z m -1.073,-1.016 c 2.2848,2.461 1.3868,-4.645 3.921,-2.442 l 0.768,0.647 c -2.644,-2.071 -1.1721,4.936 -3.7062,2.732 z M 86.9551,125 c 2.1468,2.582 1.8266,-4.584 4.1114,-2.123 l 0.6305,0.614 c -2.5341,-2.204 -1.6273,4.893 -3.9121,2.432 z m -0.8421,-1.07 c 2.0014,2.696 2.0621,-4.467 4.2089,-1.885 l 0.6632,0.744 c -2.2848,-2.461 -1.9597,4.701 -4.1065,2.119 z m -0.7688,-1.124 c 1.8501,2.802 2.2917,-4.338 4.2932,-1.641 l 0.6081,0.788 c -2.1469,-2.582 -2.2024,4.577 -4.2038,1.881 z m -0.7417,-1.282 c 1.5362,2.986 2.7852,-4.082 4.4797,-1.183 l 0.4839,0.728 c -2.0015,-2.697 -2.6555,4.431 -4.35,1.532 z m -0.5973,-1.218 c 1.3772,3.063 2.9882,-3.923 4.5245,-0.937 l 0.4921,0.869 c -1.6945,-2.899 -2.9378,4.166 -4.4741,1.18 z m -0.5214,-1.248 c 1.2188,3.129 3.1793,-3.76 4.5565,-0.697 l 0.4347,0.902 c -1.5363,-2.986 -3.1417,3.997 -4.5189,0.934 z m -0.4478,-1.273 c 1.0628,3.185 3.3582,-3.593 4.5771,-0.464 l 0.3782,0.931 c -1.3772,-3.063 -3.3321,3.823 -4.5509,0.694 z m -0.3771,-1.291 c 0.9102,3.232 3.5245,-3.425 4.5872,-0.24 l 0.3236,0.955 c -1.2189,-3.129 -3.5087,3.648 -4.5715,0.462 z m -0.33,-1.4 c 0.6199,3.301 3.8725,-3.102 4.6349,0.169 l 0.2766,0.979 c -0.9103,-3.232 -3.8755,3.308 -4.6379,0.038 z m -0.241,-1.309 c 0.4836,3.323 4.0002,-2.935 4.6201,0.365 l 0.2286,0.996 c -0.7624,-3.27 -4.0099,3.131 -4.6298,-0.169 z m -0.1858,-1.313 c 0.3536,3.34 4.1166,-2.773 4.6002,0.55 l 0.1837,1.01 c -0.62,-3.3 -4.1318,2.958 -4.6153,-0.365 z m -0.1353,-1.315 c 0.2304,3.351 4.2224,-2.615 4.5761,0.724 l 0.1421,1.023 c -0.4835,-3.324 -4.2419,2.789 -4.5955,-0.551 z m -0.085,-1.236 c 0.2304,3.351 4.3142,-2.54 4.5446,0.81 l 0.1039,1.032 c -0.3537,-3.34 -4.3413,2.625 -4.5717,-0.725 z m -0.0263,-1.353 c 0.0578,3.357 4.4385,-2.316 4.4963,1.042 l 0.0664,1.002 c -0.2304,-3.351 -4.4856,2.432 -4.5435,-0.925 z m -0.0214,-1.239 c 0.0579,3.357 4.4385,-2.315 4.4964,1.042 l 0.0193,1.119 c -0.0579,-3.357 -4.4385,2.315 -4.4964,-1.042 z m 0.0381,-1.376 c -0.1488,3.355 4.379,-2.178 4.4369,1.179 l 0.0193,1.119 c -0.0579,-3.357 -4.4385,2.316 -4.4964,-1.042 z m 0.0549,-1.238 c -0.1488,3.355 4.5727,-2.037 4.4239,1.317 l -0.0439,0.981 c -0.0579,-3.358 -4.5784,2.175 -4.4296,-1.179 z m 0.0895,-1.367 c -0.3458,3.34 4.5381,-1.908 4.3893,1.446 l -0.0496,1.119 c 0.1488,-3.355 -4.5727,2.038 -4.4239,-1.317 z m 0.1919,-1.371 c -0.5635,3.31 4.6203,-1.627 4.2744,1.713 l -0.0717,0.985 c 0.1489,-3.355 -4.7281,1.894 -4.3823,-1.446 z m 0.3596,-1.519 c -1.0336,3.195 4.6382,-1.1577 4.0747,2.152 l -0.1476,0.962 c 0.3459,-3.34 -4.8302,1.597 -4.2666,-1.713 z m 0.4755,-1.3292 c -1.2784,3.1052 4.8549,-0.6007 3.8213,2.5942 l -0.2021,0.77 c 0.5635,-3.3106 -5.0915,1.046 -4.0579,-2.149 z m 0.7029,-1.436 c -1.7611,2.8582 4.7611,-0.0745 3.4828,3.0302 l -0.3276,0.886 c 1.0336,-3.1947 -5.091,0.514 -3.8126,-2.5907 z m 0.7845,-1.1836 c -1.9877,2.706 4.8513,0.5717 3.0902,3.4302 l -0.3464,0.6726 c 1.2784,-3.1043 -5.2267,-0.163 -3.4655,-3.0211 z m 1.029,-1.2114 c -2.3874,2.3609 4.6379,1.0597 2.6502,3.7656 l -0.5263,0.7742 c 1.7611,-2.8585 -5.0698,-0.7188 -3.0821,-3.4248 z m 1.031,-0.9518 c -2.555,2.1785 4.5898,1.6903 2.2024,4.0513 L 88.081,98.967 c 1.9877,-2.7059 -5.0233,-1.3924 -2.636,-3.7533 z m 1.2331,-0.9189 c -2.8234,1.8177 4.3181,2.0699 1.7631,4.2485 l -0.7087,0.6376 c 2.3873,-2.361 -4.7515,-1.8663 -2.1965,-4.0448 z m 1.1733,-0.7101 c -2.9265,1.6468 4.1746,2.5927 1.3512,4.4104 l -0.792,0.5674 c 2.7001,-1.9961 -4.4553,-2.5147 -1.632,-4.3324 z m 1.3128,-0.662 c -3.0811,1.3354 3.9139,2.8591 0.9874,4.5059 l -0.8484,0.5018 c 2.8233,-1.8178 -4.274,-2.7576 -1.3476,-4.4043 z m 1.2356,-0.5141 c -3.1375,1.1972 3.7362,3.24 0.655,4.5754 l -0.7989,0.3859 C 94.1283,94.8555 87.1388,93.3428 90.22,92.0074 Z m 1.2511,-0.4459 c -3.1829,1.071 3.5947,3.3901 0.4572,4.5872 l -0.9436,0.3865 C 95.1917,94.7333 88.32,92.6954 91.4576,91.4983 Z m 1.2999,-0.3813 c -3.2337,0.9046 3.4246,3.5166 0.2417,4.5876 l -0.9727,0.3383 c 3.1375,-1.1972 -3.6384,-3.5117 -0.4555,-4.5827 z m 1.3184,-0.3549 c -3.2799,0.7203 3.2368,3.7304 0.003,4.635 l -0.9663,0.2693 c 3.1828,-1.071 -3.4736,-3.6771 -0.2399,-4.5816 z m 1.2101,-0.2657 c -3.2799,0.7202 3.1472,3.8936 -0.1328,4.6139 l -0.9591,0.2545 C 98.5672,94.057 92.0521,91.0534 95.332,90.3331 Z m 1.3113,-0.2632 c -3.3087,0.5751 3.0464,3.8911 -0.2339,4.6114 l -1.0933,0.2401 c 3.2799,-0.7203 -3.1472,-3.8937 0.1327,-4.614 z m 1.2207,-0.2122 c -3.3086,0.5751 2.9727,4.0288 -0.336,4.6039 l -1.0018,0.194 c 3.2795,-0.7203 -3.0737,-4.0311 0.2349,-4.6062 z m 1.2987,-0.2004 c -3.3261,0.4635 2.895,4.017 -0.414,4.5921 l -1.1028,0.1917 c 3.3088,-0.5751 -2.9727,-4.0288 0.3359,-4.6039 z m 1.227,-0.171 c -3.3259,0.4635 2.836,4.1265 -0.49,4.59 l -1.0331,0.1526 c 3.3081,-0.5751 -2.9115,-4.1246 0.4151,-4.5881 z m 1.285,-0.1587 c -3.3365,0.3807 2.778,4.1142 -0.548,4.5777 l -1.109,0.1545 c 3.326,-0.4635 -2.8354,-4.1265 0.491,-4.59 z m 1.231,-0.1404 c -3.336,0.3807 2.732,4.1958 -0.604,4.5765 l -1.057,0.1251 c 3.327,-0.4635 -2.7877,-4.194 0.549,-4.5747 z m 1.284,-0.1285 c -3.344,0.3037 2.679,4.1839 -0.657,4.5645 l -1.112,0.1269 c 3.336,-0.3806 -2.733,-4.1958 0.604,-4.5765 z m 1.234,-0.1121 c -3.344,0.3037 2.635,4.2577 -0.709,4.5614 l -1.063,0.1017 c 3.336,-0.3807 -2.687,-4.2582 0.658,-4.5618 z m 1.234,-0.112 c -3.344,0.3037 2.635,4.2577 -0.709,4.5613 l -1.115,0.1013 c 3.344,-0.3037 -2.635,-4.2577 0.71,-4.5614 z m 1.234,-0.112 c -3.344,0.3036 2.635,4.2576 -0.709,4.5613 l -1.115,0.1012 c 3.344,-0.3036 -2.635,-4.2576 0.71,-4.5613 z m 1.25,-0.111 c -3.347,0.2807 2.619,4.2566 -0.725,4.5603 l -1.115,0.1012 c 3.344,-0.3037 -2.635,-4.2577 0.71,-4.5613 z m 1.235,-0.1036 c -3.347,0.2807 2.605,4.2756 -0.741,4.5563 l -1.1,0.0968 c 3.344,-0.3037 -2.621,-4.2788 0.725,-4.5595 z m 1.234,-0.1036 c -3.346,0.2807 2.606,4.2756 -0.741,4.5563 l -1.115,0.0936 c 3.346,-0.2807 -2.606,-4.2756 0.741,-4.5563 z m 1.235,-0.1036 c -3.346,0.2808 2.606,4.2756 -0.741,4.5564 l -1.116,0.0935 c 3.347,-0.2807 -2.605,-4.2756 0.742,-4.5563 z m 1.235,-0.1036 c -3.347,0.2808 2.605,4.2756 -0.741,4.5564 l -1.116,0.0936 c 3.347,-0.2808 -2.605,-4.2756 0.741,-4.5564 z m 1.235,-0.1035 c -3.347,0.2807 2.605,4.2756 -0.742,4.5563 l -1.115,0.0936 c 3.346,-0.2808 -2.606,-4.2756 0.741,-4.5564 z m 1.234,-0.1036 c -3.346,0.2807 2.606,4.2756 -0.741,4.5563 L 115.787,92.4 c 3.346,-0.2807 -2.606,-4.2756 0.741,-4.5563 z m 1.235,-0.1036 c -3.347,0.2807 2.605,4.2756 -0.741,4.5563 l -1.116,0.0936 c 3.347,-0.2807 -2.605,-4.2756 0.742,-4.5563 z m 1.235,-0.1036 c -3.347,0.2808 2.605,4.2756 -0.741,4.5564 l -1.116,0.0935 c 3.347,-0.2807 -2.605,-4.2755 0.741,-4.5563 z m 1.235,-0.1035 c -3.347,0.2807 2.605,4.2756 -0.742,4.5563 l -1.115,0.0936 c 3.346,-0.2808 -2.606,-4.2756 0.741,-4.5564 z m 1.169,-0.1218 c -3.337,0.3753 2.671,4.2938 -0.676,4.5745 l -1.115,0.0936 c 3.346,-0.2807 -2.606,-4.2756 0.741,-4.5563 z m 1.231,-0.1384 c -3.337,0.3752 2.725,4.2002 -0.612,4.5754 l -1.176,0.1275 c 3.347,-0.2807 -2.662,-4.2026 0.676,-4.5778 z m 1.231,-0.1385 c -3.337,0.3753 2.726,4.2002 -0.612,4.5755 l -1.112,0.125 c 3.337,-0.3752 -2.725,-4.2001 0.612,-4.5754 z m 1.232,-0.1384 c -3.338,0.3752 2.725,4.2002 -0.612,4.5754 l -1.113,0.1251 c 3.338,-0.3753 -2.725,-4.2002 0.612,-4.5754 z m 1.231,-0.1384 c -3.337,0.3752 2.725,4.2001 -0.612,4.5754 l -1.112,0.125 c 3.337,-0.3752 -2.726,-4.2001 0.612,-4.5754 z m 1.168,-0.1488 c -3.326,0.4665 2.789,4.2105 -0.549,4.5857 l -1.112,0.1251 c 3.337,-0.3753 -2.725,-4.2002 0.612,-4.5754 z m 1.227,-0.1721 c -3.326,0.4665 2.84,4.1241 -0.486,4.5906 l -1.171,0.1538 c 3.337,-0.3752 -2.777,-4.1224 0.549,-4.5889 z m 1.227,-0.1721 c -3.325,0.4665 2.84,4.1241 -0.486,4.5906 l -1.109,0.1555 c 3.326,-0.4665 -2.839,-4.1241 0.487,-4.5906 z m 1.173,-0.1889 c -3.314,0.5427 2.894,4.1409 -0.432,4.6074 l -1.109,0.1554 c 3.326,-0.4664 -2.839,-4.124 0.487,-4.5905 z m 1.223,-0.2002 c -3.315,0.5427 2.933,4.0577 -0.381,4.6004 l -1.105,0.181 c 3.314,-0.5428 -2.933,-4.0578 0.381,-4.6005 z m 1.163,-0.1953 c -3.298,0.6299 2.993,4.0528 -0.322,4.5955 l -1.104,0.1809 c 3.314,-0.5427 -2.934,-4.0577 0.381,-4.6005 z m 1.217,-0.2324 c -3.298,0.6299 3.04,3.979 -0.259,4.6089 l -1.162,0.1997 c 3.315,-0.5428 -2.977,-3.9687 0.322,-4.5986 z m 1.217,-0.2324 c -3.298,0.6299 3.04,3.979 -0.259,4.6089 l -1.1,0.21 c 3.299,-0.6299 -3.039,-3.979 0.26,-4.6089 z m 1.149,-0.2339 c -3.278,0.7275 3.108,3.9805 -0.191,4.6104 l -1.1,0.21 c 3.299,-0.6299 -3.039,-3.979 0.26,-4.6089 z m 1.21,-0.2684 c -3.279,0.7275 3.156,3.887 -0.123,4.6145 l -1.161,0.2419 c 3.299,-0.6299 -3.087,-3.8864 0.191,-4.6139 z m 1.21,-0.2684 c -3.279,0.7275 3.155,3.887 -0.123,4.6145 l -1.093,0.2425 c 3.279,-0.7275 -3.156,-3.887 0.123,-4.6145 z m 1.132,-0.276 c -3.253,0.8351 3.233,3.8946 -0.045,4.6221 l -1.093,0.2425 c 3.278,-0.7275 -3.156,-3.887 0.122,-4.6145 z m 1.2,-0.3081 c -3.253,0.8351 3.282,3.7809 0.029,4.616 l -1.158,0.2883 c 3.279,-0.7276 -3.208,-3.7909 0.044,-4.626 z m 1.2,-0.3081 c -3.253,0.835 3.282,3.7809 0.029,4.616 l -1.084,0.2784 c 3.253,-0.8351 -3.282,-3.781 -0.029,-4.6161 z m 1.113,-0.3208 c -3.221,0.952 3.369,3.7936 0.116,4.6287 l -1.084,0.2784 c 3.253,-0.8351 -3.282,-3.781 -0.029,-4.6161 z m 1.188,-0.3512 c -3.221,0.952 3.416,3.6599 0.196,4.6119 l -1.152,0.3382 c 3.253,-0.835 -3.338,-3.6808 -0.118,-4.6328 z m 1.188,-0.3512 c -3.221,0.9519 3.416,3.6599 0.196,4.6119 l -1.074,0.3173 c 3.221,-0.952 -3.416,-3.6599 -0.196,-4.6119 z m 1.091,-0.3673 c -3.181,1.0774 3.557,3.5232 0.377,4.6006 l -1.157,0.3447 c 3.22,-0.952 -3.461,-3.5088 -0.28,-4.5862 z m 1.173,-0.3976 c -3.18,1.0775 3.558,3.5233 0.377,4.6007 l -1.06,0.3591 c 3.18,-1.0774 -3.557,-3.5232 -0.377,-4.6006 z m 1.085,-0.3657 c -3.132,1.2104 3.646,3.4914 0.466,4.5689 l -1.061,0.3591 c 3.181,-1.0774 -3.557,-3.5232 -0.376,-4.6006 z m 1.156,-0.4466 c -3.133,1.2104 3.702,3.3701 0.57,4.5806 l -1.147,0.3965 c 3.181,-1.0774 -3.6,-3.3632 -0.467,-4.5737 z m 1.156,-0.4466 c -3.133,1.2104 3.702,3.3701 0.57,4.5806 l -1.045,0.4035 c 3.133,-1.2105 -3.702,-3.3702 -0.57,-4.5807 z m 1.061,-0.411 c -3.075,1.3499 3.797,3.3345 0.664,4.545 l -1.044,0.4035 c 3.133,-1.2105 -3.702,-3.3702 -0.57,-4.5807 z m 1.135,-0.4981 c -3.075,1.3499 3.85,3.2005 0.775,4.5504 l -1.134,0.4496 c 3.132,-1.2105 -3.741,-3.2001 -0.666,-4.55 z m 1.134,-0.498 c -3.075,1.3499 3.85,3.2004 0.775,4.5503 l -1.025,0.45 c 3.075,-1.3499 -3.85,-3.2005 -0.775,-4.5504 z m 1.037,-0.4558 c -3.007,1.4943 3.948,3.1582 0.873,4.5081 l -1.025,0.45 c 3.075,-1.35 -3.85,-3.2005 -0.775,-4.5504 z m 1.11,-0.5514 c -3.008,1.4944 3.997,3.0141 0.99,4.5084 l -1.118,0.503 c 3.075,-1.3499 -3.882,-3.0189 -0.875,-4.5133 z m 1.109,-0.5513 c -3.007,1.4943 3.998,3.0141 0.99,4.5084 l -1.002,0.4981 c 3.007,-1.4943 -3.998,-3.0141 -0.99,-4.5084 z m 1.11,-0.5514 c -3.008,1.4944 3.997,3.0141 0.99,4.5085 l -1.002,0.4981 c 3.007,-1.4944 -3.998,-3.0141 -0.991,-4.5084 z m 14.264,-8.3298 c -3.085,1.3637 3.867,3.1868 0.782,4.5505 l -1.028,0.4546 c 3.085,-1.3638 -3.867,-3.1868 -0.783,-4.5505 z m 1.138,-0.5031 c -3.085,1.3637 3.867,3.1867 0.782,4.5504 l -1.028,0.4546 c 3.085,-1.3637 -3.867,-3.1868 -0.783,-4.5505 z m 1.138,-0.5032 c -3.085,1.3637 3.867,3.1868 0.782,4.5505 l -1.028,0.4546 c 3.085,-1.3637 -3.867,-3.1868 -0.783,-4.5505 z m 1.155,-0.5071 c -3.095,1.3403 3.85,3.1907 0.765,4.5545 l -1.028,0.4545 c 3.085,-1.3637 -3.867,-3.1868 -0.783,-4.5505 z m 1.141,-0.4945 c -3.094,1.3403 3.843,3.2163 0.749,4.5565 l -1.015,0.4439 c 3.085,-1.3637 -3.86,-3.2134 -0.765,-4.5536 z m 1.142,-0.4945 c -3.095,1.3403 3.843,3.2163 0.748,4.5565 l -1.031,0.4468 c 3.095,-1.3403 -3.843,-3.2163 -0.748,-4.5565 z m 1.142,-0.4945 c -3.095,1.3403 3.843,3.2163 0.748,4.5565 l -1.031,0.4468 c 3.095,-1.3403 -3.843,-3.2163 -0.748,-4.5565 z m 1.142,-0.4944 c -3.095,1.3402 3.843,3.2162 0.748,4.5565 l -1.032,0.4467 c 3.095,-1.3402 -3.843,-3.2162 -0.748,-4.5565 z m 1.142,-0.4945 c -3.095,1.3402 3.843,3.2162 0.748,4.5565 l -1.032,0.4467 c 3.095,-1.3402 -3.843,-3.2162 -0.748,-4.5565 z m 1.142,-0.4945 c -3.095,1.3402 3.843,3.2162 0.748,4.5565 l -1.032,0.4467 c 3.095,-1.3402 -3.843,-3.2162 -0.748,-4.5565 z m 1.123,-0.4904 c -3.084,1.3666 3.862,3.2121 0.767,4.5524 l -1.032,0.4467 c 3.095,-1.3402 -3.843,-3.2162 -0.748,-4.5565 z m 1.137,-0.5042 c -3.083,1.3666 3.87,3.1834 0.787,4.55 l -1.047,0.4589 c 3.095,-1.3403 -3.851,-3.1868 -0.768,-4.5533 z m 1.138,-0.5041 c -3.084,1.3665 3.87,3.1833 0.787,4.5499 l -1.028,0.4555 c 3.083,-1.3665 -3.87,-3.1834 -0.787,-4.5499 z m 1.137,-0.5042 c -3.083,1.3665 3.871,3.1834 0.787,4.5499 l -1.028,0.4555 c 3.084,-1.3665 -3.87,-3.1834 -0.786,-4.5499 z m 1.138,-0.5042 c -3.083,1.3665 3.87,3.1834 0.787,4.5499 l -1.028,0.4555 c 3.083,-1.3665 -3.87,-3.1834 -0.787,-4.5499 z m 1.138,-0.5042 c -3.084,1.3665 3.87,3.1834 0.786,4.5499 l -1.027,0.4555 c 3.083,-1.3665 -3.87,-3.1833 -0.787,-4.5499 z m 1.137,-0.5042 c -3.083,1.3666 3.87,3.1834 0.787,4.5499 l -1.028,0.4556 c 3.084,-1.3666 -3.87,-3.1834 -0.787,-4.55 z m 1.089,-0.494 c -3.053,1.4331 3.919,3.1732 0.836,4.5398 l -1.028,0.4555 c 3.083,-1.3666 -3.87,-3.1834 -0.787,-4.5499 z m 1.126,-0.5287 c -3.052,1.433 3.939,3.0986 0.886,4.5317 l -1.067,0.4881 c 3.084,-1.3665 -3.889,-3.1091 -0.836,-4.5421 z m 1.127,-0.5287 c -3.053,1.433 3.938,3.0986 0.885,4.5317 l -1.017,0.4776 c 3.052,-1.433 -3.939,-3.0986 -0.886,-4.5317 z m 1.059,-0.5241 c -3.012,1.5181 4.005,3.094 0.953,4.527 l -1.018,0.4777 c 3.053,-1.433 -3.938,-3.0986 -0.885,-4.5317 z m 1.011,-0.5495 c -2.945,1.6414 4.123,2.9762 1.112,4.4944 l -1.062,0.5311 c 3.053,-1.4331 -3.966,-3.012 -0.954,-4.5301 z" style="display:inline;fill:#FF851B;stroke:#111111;stroke-width:0.110536;stroke-linecap:square;stroke-linejoin:round;stroke-dasharray:none;stroke-opacity:1" id="path9830" class="fill-orange stroke-foreground"/><path d="m 127.3751,93.416708 2.2798,1.2858 0.2263,-0.859 2.136,1.4201 -2.9319,1.6012 0.2264,-0.859 -2.8354,-1.5849 z m 4.4735,1.2261 2.3163,-1.243 -0.597,-0.6581 2.6016,-0.8632 -0.5018,3.1777 -0.597,-0.6581 -2.8688,1.5454 z m 3.7524,-3.0654 0.7492,-2.5921 -0.8832,-0.097 1.3379,-2.3738 1.7684,2.715 -0.8832,-0.0971 -0.898,3.0759 z m 0.5787,-4.9109 -0.9787,-2.6156 -0.7836,0.4188 -0.0319,-2.8784 2.7882,1.4051 -0.7838,0.4189 1.0996,2.9326 z m -10.1678,-16.6165 -1.3762,2.6836 0.8108,0.3638 -2.4757,1.7796 -0.3762,-3.0589 0.8108,0.3638 1.4082,-2.7498 z m -2.4457,5.0714 -0.9715,2.7901 0.8619,0.2163 -2.0362,2.2008 -0.9954,-2.9616 0.862,0.2164 1.0318,-2.974 z m -1.5072,5.2854 -0.094,2.8886 0.8835,-0.0953 -0.8942,2.7077 -2.2134,-2.3722 0.8836,-0.0954 0.0965,-3.1973 z" style="display:inline;fill:#FF4136;stroke:#111111;stroke-width:0.0285414;stroke-linecap:square;stroke-linejoin:round;stroke-miterlimit:4.1" id="path8490" class="fill-red stroke-foreground"/><path d="m 49.2526,36.7431 c 5,5 14.8466,-2.75739 7.48469,-12.3454 M 47.7396,12.5653 c -1,2 -5.97384,10.3556 -3.487,16.1778" style="display:none;fill:none;stroke:#111111;stroke-width:0.254;stroke-linecap:square;stroke-linejoin:round;stroke-miterlimit:4.1" id="path3" transform="translate(78.747381,57.256932)" class="stroke-foreground"/><path id="rect3" style="display:none;fill:#FF4136;stroke:#111111;stroke-width:0.0285414;stroke-linecap:square;stroke-linejoin:round;stroke-miterlimit:4.1" d="m 32.757855,-60.769051 h 3.124675 l -0.01,-0.888725 2.724764,1.532288 -2.689401,1.593607 -0.01,-0.888783 h -3.139946 z" transform="translate(78.747381,57.256932)" class="fill-red stroke-foreground"/></g></svg>
