<!-- Created with Inkscape (http://www.inkscape.org/) -->
<svg xmlns:inkscape="http://www.inkscape.org/namespaces/inkscape" xmlns:sodipodi="http://sodipodi.sourceforge.net/DTD/sodipodi-0.dtd" xmlns="http://www.w3.org/2000/svg" xmlns:svg="http://www.w3.org/2000/svg" viewBox="0 0 57.173046 72.559799" version="1.1" id="svg1" inkscape:version="1.4.2 (ebf0e940d0, 2025-05-08)" sodipodi:docname="V4rotations_i.svg">
  <sodipodi:namedview id="namedview1" pagecolor="#ffffff" bordercolor="#000000" borderopacity="0.25" inkscape:showpageshadow="2" inkscape:pageopacity="0.0" inkscape:pagecheckerboard="0" inkscape:deskcolor="#d1d1d1" inkscape:document-units="mm" inkscape:zoom="1.2964583" inkscape:cx="-91.40286" inkscape:cy="163.13675" inkscape:window-width="1902" inkscape:window-height="2078" inkscape:window-x="0" inkscape:window-y="0" inkscape:window-maximized="1" inkscape:current-layer="layer1"/>
  <defs id="defs1">
    <inkscape:path-effect effect="perspective-envelope" up_left_point="-67.61222,93.32875" up_right_point="44.979652,116.86866" down_left_point="-67.61222,238.00638" down_right_point="44.979652,272.47129" id="path-effect35" is_visible="true" lpeversion="1" deform_type="perspective" horizontal_mirror="false" vertical_mirror="false" overflow_perspective="false"/>
  </defs>
  <g inkscape:label="Layer 1" inkscape:groupmode="layer" id="layer1" transform="translate(-129.11667,-105.30417)">
    <g id="g1-2-6" transform="matrix(-0.41011309,0,0,-0.41011309,147.56352,216.60878)" style="display:inline" inkscape:path-effect="#path-effect35">
      <path style="baseline-shift:baseline;display:inline;overflow:visible;opacity:1;vector-effect:none;fill:#ff851b;enable-background:accumulate;stop-color:#000000;stop-opacity:1" d="m 42.18024,116.35305 -17.67799,19.07301 2.635436,4.01689 17.737225,-19.06183 z m -107.21157,-21.879565 -2.338208,2.732259 14.909155,23.770376 2.38636,-2.72172 z m 13.01092,123.515125 -15.571853,16.80078 2.337509,3.93862 15.6221,-16.7874 z m 79.683237,23.86461 -2.638415,2.65779 16.866155,26.8888 2.694967,-2.63922 z" id="path1-7-1" inkscape:original-d="m 167.5332,-156.98437 -27.47461,27.49804 4.13477,4.13281 27.47461,-27.5 z m -176.6132781,0.6914 -4.1347659,4.13086 26.144532,26.16797 4.136718,-4.13086 z M 13.693359,-3.0117188 -13.609375,24.314453 -9.4746094,28.447266 17.830078,1.1191406 Z m 131.322261,0.9453125 -4.13671,4.1328126 26.20898,26.2304687 4.13672,-4.130859 z"/>
      <g style="display:inline" id="g2-0-8" transform="matrix(0.26458333,0,0,0.26458333,-13.645099,-157.06742)">
        <path d="m 4.3976111,-28.93954 c -23.7440641,2.084308 -43.0653231,-16.004096 -48.8896041,-45.018543 -2.266737,-11.29274 -2.266737,-25.457755 0,-37.917277 5.495465,-30.20288 22.754936,-56.63616 45.07392454,-68.3889 4.20187856,-2.2131 13.69039446,-5.11626 17.96560546,-5.48631 25.705194,-2.22763 45.810084,17.93182 50.238949,51.25606 1.207806,9.08665 0.651342,23.01355 -1.321983,33.1068 -6.266043,32.055525 -25.528088,58.933598 -48.80904,68.797304 -2.726777,1.155241 -11.5559317,3.413904 -14.2584543,3.650991 M 18.006289,-36.431204 C 51.001552,-50.634509 72.81635,-98.12077 64.483514,-139.28105 c -5.630666,-27.80958 -24.043109,-44.26336 -46.585063,-42.27453 -4.215672,0.37163 -12.767443,2.96579 -16.7882318,5.08229 -23.2346132,12.23276 -40.3710652,40.70246 -43.9605342,72.30144 -0.605208,5.328102 -0.649956,16.031086 -0.08786,20.918181 3.687016,32.041003 22.981854,52.587802 47.9727278,50.204401 2.5540989,-0.243065 10.4701032,-2.305076 12.9717402,-3.382749" style="display:inline;fill:#616161;fill-opacity:1;stroke:none;stroke-width:0.352778;stroke-opacity:1" transform="matrix(3.68074,0,0,-3.68391,-33.947,879.126)" id="path2-9-7" inkscape:original-d="M 95.987,238.496 C 55.967,234.87 22.49,206.592 12.233,167.749 8.22,152.551 8.22,134.381 12.233,119.183 21.913,82.528 51.87,55.449 89.637,49.218 c 6.991,-1.154 22.642,-1.154 29.633,0 41.257,6.807 72.625,38.175 79.432,79.431 1.85,11.211 0.998,27.643 -2.028,39.1 -9.657,36.57 -39.811,63.872 -77.228,69.921 -4.454,0.72 -18.981,1.232 -23.46,0.826 m 22.401,-5.72 c 52.756,-8.696 86.477,-59.58 73.702,-111.214 C 183.383,86.378 154.491,60.009 118.211,54.137 111.312,53.02 97.204,53.019 90.518,54.134 51.205,60.693 21.449,90.482 15.132,129.606 c -1.068,6.615 -1.147,20.3 -0.155,26.736 6.489,42.08 39.946,73.562 82.067,77.22 4.23,0.368 17.254,-0.112 21.343,-0.787"/>
      </g>
      <g id="path5-3-9" style="opacity:1">
        <path style="baseline-shift:baseline;display:inline;overflow:visible;vector-effect:none;fill:#39cccc;fill-opacity:0.766511;stroke-miterlimit:3.6;enable-background:accumulate;stop-color:#000000;stop-opacity:1" d="M -8.2294403,209.84817 V 116.28016 M -18.465117,114.0706 v 106.59301 m 46.664276,13.30406 -81.00553,-23.09285" id="path34" inkscape:original-d="M 87.533973,-28.691492 V -144.075 m -16.883438,0 v 132.318855 m 75.204305,0.0014 H 12.328834"/>
        <path style="baseline-shift:baseline;display:inline;overflow:visible;vector-effect:none;fill:#ff4136;stroke-miterlimit:3.6;enable-background:accumulate;stop-color:#000000;stop-opacity:1" d="m -20.714482,113.58566 v 103.42829 l -32.092298,-9.08599 v 5.89326 l 81.006342,23.25159 v -6.21029 l -44.40772,-12.57274 V 114.55843 Z m 10.205322,2.20301 v 93.42987 l 4.5664167,1.26133 v -93.70545 z" id="path35" inkscape:original-d="M 66.910156,-144.07422 V -15.496094 H 12.328125 v 7.4824221 H 145.85547 V -15.496094 H 74.392578 V -144.07422 Z m 16.882813,0 v 115.382814 h 7.482422 V -144.07422 Z"/>
      </g>
    </g>
    <path d="m 180.26042,147.90054 h 3.09375 v 14.0625 q 0,0.80859 0.15821,1.37109 0.1582,0.5625 0.43945,0.91406 0.29883,0.35156 0.68555,0.52735 0.40429,0.1582 0.89648,0.1582 0.14063,0 0.36914,-0.0352 0.22852,-0.0352 0.38672,-0.0879 v 2.23242 q -0.28125,0.10547 -0.70313,0.15821 -0.40429,0.0703 -0.75585,0.0703 -0.89649,0 -1.72266,-0.35156 -0.82617,-0.33399 -1.47656,-1.00196 -0.63282,-0.68554 -1.00196,-1.66992 -0.36914,-1.00195 -0.36914,-2.28515 z" id="text38" style="font-size:36px;line-height:1;font-family:'Roboto Condensed';-inkscape-font-specification:'Roboto Condensed, ';text-align:center;letter-spacing:0px;word-spacing:0.283104px;text-anchor:middle;fill:#616161;fill-opacity:1;stroke:none;stroke-width:1.231;stroke-miterlimit:3.6" aria-label="&#617;"/>
  </g>
</svg>
