<svg xmlns="http://www.w3.org/2000/svg" viewBox="0 0 708.842 716.658"><path d="M448.301 3560.8c57.597-144.3 127.301-277.8 216.097-414" style="display:inline;fill:none;stroke:#fff;stroke-width:344.95;stroke-linecap:butt;stroke-linejoin:miter;stroke-miterlimit:10;stroke-dasharray:none;stroke-opacity:1" transform="matrix(.13333 0 0 -.13333 -5.602 718.403)"/><path d="M448.301 3560.8c57.597-144.3 127.301-277.8 216.097-414" class="stroke-orange fill-orange" style="fill:none;stroke:#ff851b;stroke-width:172.478;stroke-linecap:round;stroke-linejoin:miter;stroke-miterlimit:10;stroke-dasharray:none;stroke-opacity:1" transform="matrix(.13333 0 0 -.13333 -5.602 718.403)"/><path d="M4905.2 3116.1c-102.5 104.3-216.8 193.4-354.3 276" style="display:inline;fill:none;stroke:#fff;stroke-width:344.95;stroke-linecap:butt;stroke-linejoin:miter;stroke-miterlimit:10;stroke-dasharray:none;stroke-opacity:1" transform="matrix(.13333 0 0 -.13333 -5.602 718.403)"/><path d="M4905.2 3116.1c-102.5 104.3-216.8 193.4-354.3 276" class="stroke-orange fill-orange" style="fill:none;stroke:#ff851b;stroke-width:172.478;stroke-linecap:round;stroke-linejoin:miter;stroke-miterlimit:10;stroke-dasharray:none;stroke-opacity:1" transform="matrix(.13333 0 0 -.13333 -5.602 718.403)"/><path d="M4564 3384.2c-137.5 82.7-274.8 149.1-425.6 205.9" style="display:inline;fill:none;stroke:#fff;stroke-width:344.95;stroke-linecap:butt;stroke-linejoin:miter;stroke-miterlimit:10;stroke-dasharray:none;stroke-opacity:1" transform="matrix(.13333 0 0 -.13333 -5.602 718.403)"/><path d="M4564 3384.2c-137.5 82.7-274.8 149.1-425.6 205.9" class="stroke-orange fill-orange" style="fill:none;stroke:#ff851b;stroke-width:172.478;stroke-linecap:round;stroke-linejoin:miter;stroke-miterlimit:10;stroke-dasharray:none;stroke-opacity:1" transform="matrix(.13333 0 0 -.13333 -5.602 718.403)"/><path d="M349.199 3961.3c13.199-136.4 47-270 104.602-414.3" style="display:inline;fill:none;stroke:#fff;stroke-width:344.95;stroke-linecap:butt;stroke-linejoin:miter;stroke-miterlimit:10;stroke-dasharray:none;stroke-opacity:1" transform="matrix(.13333 0 0 -.13333 -5.602 718.403)"/><path d="M349.199 3961.3c13.199-136.4 47-270 104.602-414.3" class="stroke-orange fill-orange" style="fill:none;stroke:#ff851b;stroke-width:172.478;stroke-linecap:round;stroke-linejoin:miter;stroke-miterlimit:10;stroke-dasharray:none;stroke-opacity:1" transform="matrix(.13333 0 0 -.13333 -5.602 718.403)"/><path d="M1225.8 1053.9c157.7-2.4 308.5 12 467.6 44.7" style="display:inline;fill:none;stroke:#fff;stroke-width:344.95;stroke-linecap:butt;stroke-linejoin:miter;stroke-miterlimit:10;stroke-dasharray:none;stroke-opacity:1" transform="matrix(.13333 0 0 -.13333 -5.602 718.403)"/><path d="M1225.8 1053.9c157.7-2.4 308.5 12 467.6 44.7" class="stroke-orange fill-orange" style="fill:none;stroke:#ff851b;stroke-width:172.478;stroke-linecap:round;stroke-linejoin:miter;stroke-miterlimit:10;stroke-dasharray:none;stroke-opacity:1" transform="matrix(.13333 0 0 -.13333 -5.602 718.403)"/><path d="M656 3159.8c88.801-136.2 178.5-256.4 278.102-372.7" style="display:inline;fill:none;stroke:#fff;stroke-width:344.95;stroke-linecap:butt;stroke-linejoin:miter;stroke-miterlimit:10;stroke-dasharray:none;stroke-opacity:1" transform="matrix(.13333 0 0 -.13333 -5.602 718.403)"/><path d="M656 3159.8c88.801-136.2 178.5-256.4 278.102-372.7" class="stroke-orange fill-orange" style="fill:none;stroke:#ff851b;stroke-width:172.478;stroke-linecap:round;stroke-linejoin:miter;stroke-miterlimit:10;stroke-dasharray:none;stroke-opacity:1" transform="matrix(.13333 0 0 -.13333 -5.602 718.403)"/><path d="M3805.3 939.801c47 149.999 76.6 298.499 91.8 460.299" style="display:inline;fill:none;stroke:#fff;stroke-width:344.95;stroke-linecap:butt;stroke-linejoin:miter;stroke-miterlimit:10;stroke-dasharray:none;stroke-opacity:1" transform="matrix(.13333 0 0 -.13333 -5.602 718.403)"/><path d="M3805.3 939.801c47 149.999 76.6 298.499 91.8 460.299" class="stroke-orange fill-orange" style="fill:none;stroke:#ff851b;stroke-width:172.478;stroke-linecap:round;stroke-linejoin:miter;stroke-miterlimit:10;stroke-dasharray:none;stroke-opacity:1" transform="matrix(.13333 0 0 -.13333 -5.602 718.403)"/><path d="M807.102 1122.3c136.097-44.1 275.998-66.2 433.698-68.6" style="display:inline;fill:none;stroke:#fff;stroke-width:344.95;stroke-linecap:butt;stroke-linejoin:miter;stroke-miterlimit:10;stroke-dasharray:none;stroke-opacity:1" transform="matrix(.13333 0 0 -.13333 -5.602 718.403)"/><path d="M807.102 1122.3c136.097-44.1 275.998-66.2 433.698-68.6" class="stroke-orange fill-orange" style="fill:none;stroke:#ff851b;stroke-width:172.478;stroke-linecap:round;stroke-linejoin:miter;stroke-miterlimit:10;stroke-dasharray:none;stroke-opacity:1" transform="matrix(.13333 0 0 -.13333 -5.602 718.403)"/><path d="M2850.9 5115.4c-136.1-60.5-260.3-137.1-385-237.4" style="display:inline;fill:none;stroke:#fff;stroke-width:344.95;stroke-linecap:butt;stroke-linejoin:miter;stroke-miterlimit:10;stroke-dasharray:none;stroke-opacity:1" transform="matrix(.13333 0 0 -.13333 -5.602 718.403)"/><path d="M2850.9 5115.4c-136.1-60.5-260.3-137.1-385-237.4" class="stroke-orange fill-orange" style="fill:none;stroke:#ff851b;stroke-width:172.478;stroke-linecap:round;stroke-linejoin:miter;stroke-miterlimit:10;stroke-dasharray:none;stroke-opacity:1" transform="matrix(.13333 0 0 -.13333 -5.602 718.403)"/><path d="M2477.8 4887.6c-124.7-100.3-233.2-206.2-336.4-328.2" style="display:inline;fill:none;stroke:#fff;stroke-width:344.95;stroke-linecap:butt;stroke-linejoin:miter;stroke-miterlimit:10;stroke-dasharray:none;stroke-opacity:1" transform="matrix(.13333 0 0 -.13333 -5.602 718.403)"/><path d="M2477.8 4887.6c-124.7-100.3-233.2-206.2-336.4-328.2" class="stroke-orange fill-orange" style="fill:none;stroke:#ff851b;stroke-width:172.478;stroke-linecap:round;stroke-linejoin:miter;stroke-miterlimit:10;stroke-dasharray:none;stroke-opacity:1" transform="matrix(.13333 0 0 -.13333 -5.602 718.403)"/><path d="M3623.2 560c79.5 117 139.6 244.102 186.6 394.102" style="display:inline;fill:none;stroke:#fff;stroke-width:344.95;stroke-linecap:butt;stroke-linejoin:miter;stroke-miterlimit:10;stroke-dasharray:none;stroke-opacity:1" transform="matrix(.13333 0 0 -.13333 -5.602 718.403)"/><path d="M3623.2 560c79.5 117 139.6 244.102 186.6 394.102" class="stroke-orange fill-orange" style="fill:none;stroke:#ff851b;stroke-width:172.478;stroke-linecap:round;stroke-linejoin:miter;stroke-miterlimit:10;stroke-dasharray:none;stroke-opacity:1" transform="matrix(.13333 0 0 -.13333 -5.602 718.403)"/><path d="M5123.2 2800c-51.8 116.5-125.3 221.7-227.8 326" style="display:inline;fill:none;stroke:#fff;stroke-width:344.95;stroke-linecap:butt;stroke-linejoin:miter;stroke-miterlimit:10;stroke-dasharray:none;stroke-opacity:1" transform="matrix(.13333 0 0 -.13333 -5.602 718.403)"/><path d="M5123.2 2800c-51.8 116.5-125.3 221.7-227.8 326" class="stroke-orange fill-orange" style="fill:none;stroke:#ff851b;stroke-width:172.478;stroke-linecap:round;stroke-linejoin:miter;stroke-miterlimit:10;stroke-dasharray:none;stroke-opacity:1" transform="matrix(.13333 0 0 -.13333 -5.602 718.403)"/><path d="M4152.8 3584.7c-150.7 56.8-289.8 100.9-431 136.8" style="display:inline;fill:none;stroke:#fff;stroke-width:344.95;stroke-linecap:butt;stroke-linejoin:miter;stroke-miterlimit:10;stroke-dasharray:none;stroke-opacity:1" transform="matrix(.13333 0 0 -.13333 -5.602 718.403)"/><path d="M4152.8 3584.7c-150.7 56.8-289.8 100.9-431 136.8" class="stroke-orange fill-orange" style="fill:none;stroke:#ff851b;stroke-width:172.478;stroke-linecap:round;stroke-linejoin:miter;stroke-miterlimit:10;stroke-dasharray:none;stroke-opacity:1" transform="matrix(.13333 0 0 -.13333 -5.602 718.403)"/><path d="M1678.2 1095.5c159.1 32.7 302.7 73 445.4 125.1" style="display:inline;fill:none;stroke:#fff;stroke-width:344.95;stroke-linecap:butt;stroke-linejoin:miter;stroke-miterlimit:10;stroke-dasharray:none;stroke-opacity:1" transform="matrix(.13333 0 0 -.13333 -5.602 718.403)"/><path d="M1678.2 1095.5c159.1 32.7 302.7 73 445.4 125.1" class="stroke-orange fill-orange" style="fill:none;stroke:#ff851b;stroke-width:172.478;stroke-linecap:round;stroke-linejoin:miter;stroke-miterlimit:10;stroke-dasharray:none;stroke-opacity:1" transform="matrix(.13333 0 0 -.13333 -5.602 718.403)"/><path d="M3895.7 1384.7c15.2 161.8 19.6 311.3 13.8 463.3" style="display:inline;fill:none;stroke:#fff;stroke-width:344.95;stroke-linecap:butt;stroke-linejoin:miter;stroke-miterlimit:10;stroke-dasharray:none;stroke-opacity:1" transform="matrix(.13333 0 0 -.13333 -5.602 718.403)"/><path d="M3895.7 1384.7c15.2 161.8 19.6 311.3 13.8 463.3" class="stroke-orange fill-orange" style="fill:none;stroke:#ff851b;stroke-width:172.478;stroke-linecap:round;stroke-linejoin:miter;stroke-miterlimit:10;stroke-dasharray:none;stroke-opacity:1" transform="matrix(.13333 0 0 -.13333 -5.602 718.403)"/><path d="M383.699 4316.7c-35.801-113.2-46.5-232-33.301-368.4" style="display:inline;fill:none;stroke:#fff;stroke-width:344.95;stroke-linecap:butt;stroke-linejoin:miter;stroke-miterlimit:10;stroke-dasharray:none;stroke-opacity:1" transform="matrix(.13333 0 0 -.13333 -5.602 718.403)"/><path d="M383.699 4316.7c-35.801-113.2-46.5-232-33.301-368.4" class="stroke-orange fill-orange" style="fill:none;stroke:#ff851b;stroke-width:172.478;stroke-linecap:round;stroke-linejoin:miter;stroke-miterlimit:10;stroke-dasharray:none;stroke-opacity:1" transform="matrix(.13333 0 0 -.13333 -5.602 718.403)"/><path d="M3236.7 5213.7c-134-10-262.6-43.6-398.8-104.1" style="display:inline;fill:none;stroke:#fff;stroke-width:344.95;stroke-linecap:butt;stroke-linejoin:miter;stroke-miterlimit:10;stroke-dasharray:none;stroke-opacity:1" transform="matrix(.13333 0 0 -.13333 -5.602 718.403)"/><path d="M3236.7 5213.7c-134-10-262.6-43.6-398.8-104.1" class="stroke-orange fill-orange" style="fill:none;stroke:#ff851b;stroke-width:172.478;stroke-linecap:round;stroke-linejoin:miter;stroke-miterlimit:10;stroke-dasharray:none;stroke-opacity:1" transform="matrix(.13333 0 0 -.13333 -5.602 718.403)"/><path d="M475.199 1307.1c97.5-84 208.801-145 344.903-189" style="display:inline;fill:none;stroke:#fff;stroke-width:344.95;stroke-linecap:butt;stroke-linejoin:miter;stroke-miterlimit:10;stroke-dasharray:none;stroke-opacity:1" transform="matrix(.13333 0 0 -.13333 -5.602 718.403)"/><path d="M475.199 1307.1c97.5-84 208.801-145 344.903-189" class="stroke-orange fill-orange" style="fill:none;stroke:#ff851b;stroke-width:172.478;stroke-linecap:round;stroke-linejoin:miter;stroke-miterlimit:10;stroke-dasharray:none;stroke-opacity:1" transform="matrix(.13333 0 0 -.13333 -5.602 718.403)"/><path d="M2151.2 4571c-103.2-122-191.1-238.3-272.4-360.3" style="display:inline;fill:none;stroke:#fff;stroke-width:344.95;stroke-linecap:butt;stroke-linejoin:miter;stroke-miterlimit:10;stroke-dasharray:none;stroke-opacity:1" transform="matrix(.13333 0 0 -.13333 -5.602 718.403)"/><path d="M2151.2 4571c-103.2-122-191.1-238.3-272.4-360.3" class="stroke-orange fill-orange" style="fill:none;stroke:#ff851b;stroke-width:172.478;stroke-linecap:round;stroke-linejoin:miter;stroke-miterlimit:10;stroke-dasharray:none;stroke-opacity:1" transform="matrix(.13333 0 0 -.13333 -5.602 718.403)"/><path d="M3357.9 297.898c105.4 68.204 193.5 156.301 272.9 273.301" style="display:inline;fill:none;stroke:#fff;stroke-width:344.95;stroke-linecap:butt;stroke-linejoin:miter;stroke-miterlimit:10;stroke-dasharray:none;stroke-opacity:1" transform="matrix(.13333 0 0 -.13333 -5.602 718.403)"/><path d="M3357.9 297.898c105.4 68.204 193.5 156.301 272.9 273.301" class="stroke-orange fill-orange" style="fill:none;stroke:#ff851b;stroke-width:172.478;stroke-linecap:round;stroke-linejoin:miter;stroke-miterlimit:10;stroke-dasharray:none;stroke-opacity:1" transform="matrix(.13333 0 0 -.13333 -5.602 718.403)"/><path d="M924.602 2798.1C1024.2 2681.8 1113.1 2580.5 1200.3 2484" style="display:inline;fill:none;stroke:#fff;stroke-width:344.95;stroke-linecap:butt;stroke-linejoin:miter;stroke-miterlimit:10;stroke-dasharray:none;stroke-opacity:1" transform="matrix(.13333 0 0 -.13333 -5.602 718.403)"/><path d="M924.602 2798.1C1024.2 2681.8 1113.1 2580.5 1200.3 2484" class="stroke-orange fill-orange" style="fill:none;stroke:#ff851b;stroke-width:172.478;stroke-linecap:round;stroke-linejoin:miter;stroke-miterlimit:10;stroke-dasharray:none;stroke-opacity:1" transform="matrix(.13333 0 0 -.13333 -5.602 718.403)"/><path d="M5184.7 2466.4c6.8 116.9-14.6 228.1-66.4 344.7" style="display:inline;fill:none;stroke:#fff;stroke-width:344.95;stroke-linecap:butt;stroke-linejoin:miter;stroke-miterlimit:10;stroke-dasharray:none;stroke-opacity:1" transform="matrix(.13333 0 0 -.13333 -5.602 718.403)"/><path d="M5184.7 2466.4c6.8 116.9-14.6 228.1-66.4 344.7" class="stroke-orange fill-orange" style="fill:none;stroke:#ff851b;stroke-width:172.478;stroke-linecap:round;stroke-linejoin:miter;stroke-miterlimit:10;stroke-dasharray:none;stroke-opacity:1" transform="matrix(.13333 0 0 -.13333 -5.602 718.403)"/><path d="M2110 1215.6c142.7 52 268.1 99.9 388.8 148.5" style="display:inline;fill:none;stroke:#fff;stroke-width:344.95;stroke-linecap:butt;stroke-linejoin:miter;stroke-miterlimit:10;stroke-dasharray:none;stroke-opacity:1" transform="matrix(.13333 0 0 -.13333 -5.602 718.403)"/><path d="M2110 1215.6c142.7 52 268.1 99.9 388.8 148.5" class="stroke-orange fill-orange" style="fill:none;stroke:#ff851b;stroke-width:172.478;stroke-linecap:round;stroke-linejoin:miter;stroke-miterlimit:10;stroke-dasharray:none;stroke-opacity:1" transform="matrix(.13333 0 0 -.13333 -5.602 718.403)"/><path d="M3910.1 1833.6c-5.9 152-11.4 286.8-17.3 417.7" style="display:inline;fill:none;stroke:#fff;stroke-width:344.95;stroke-linecap:butt;stroke-linejoin:miter;stroke-miterlimit:10;stroke-dasharray:none;stroke-opacity:1" transform="matrix(.13333 0 0 -.13333 -5.602 718.403)"/><path d="M3910.1 1833.6c-5.9 152-11.4 286.8-17.3 417.7" class="stroke-orange fill-orange" style="fill:none;stroke:#ff851b;stroke-width:172.478;stroke-linecap:round;stroke-linejoin:miter;stroke-miterlimit:10;stroke-dasharray:none;stroke-opacity:1" transform="matrix(.13333 0 0 -.13333 -5.602 718.403)"/><path d="M3595.7 5163c-117.9 43.7-237.8 59.8-371.8 49.8" style="display:inline;fill:none;stroke:#fff;stroke-width:344.95;stroke-linecap:butt;stroke-linejoin:miter;stroke-miterlimit:10;stroke-dasharray:none;stroke-opacity:1" transform="matrix(.13333 0 0 -.13333 -5.602 718.403)"/><path d="M3595.7 5163c-117.9 43.7-237.8 59.8-371.8 49.8" class="stroke-orange fill-orange" style="fill:none;stroke:#ff851b;stroke-width:172.478;stroke-linecap:round;stroke-linejoin:miter;stroke-miterlimit:10;stroke-dasharray:none;stroke-opacity:1" transform="matrix(.13333 0 0 -.13333 -5.602 718.403)"/><path d="M3735.2 3718.1c-141.2 35.9-264.5 67.8-382.1 98.8" style="display:inline;fill:none;stroke:#fff;stroke-width:344.95;stroke-linecap:butt;stroke-linejoin:miter;stroke-miterlimit:10;stroke-dasharray:none;stroke-opacity:1" transform="matrix(.13333 0 0 -.13333 -5.602 718.403)"/><path d="M3735.2 3718.1c-141.2 35.9-264.5 67.8-382.1 98.8" class="stroke-orange fill-orange" style="fill:none;stroke:#ff851b;stroke-width:172.478;stroke-linecap:round;stroke-linejoin:miter;stroke-miterlimit:10;stroke-dasharray:none;stroke-opacity:1" transform="matrix(.13333 0 0 -.13333 -5.602 718.403)"/><path d="M554.801 4588.3c-82.403-78.1-138.699-169.1-174.5-282.4" style="display:inline;fill:none;stroke:#fff;stroke-width:344.95;stroke-linecap:butt;stroke-linejoin:miter;stroke-miterlimit:10;stroke-dasharray:none;stroke-opacity:1" transform="matrix(.13333 0 0 -.13333 -5.602 718.403)"/><path d="M554.801 4588.3c-82.403-78.1-138.699-169.1-174.5-282.4" class="stroke-orange fill-orange" style="fill:none;stroke:#ff851b;stroke-width:172.478;stroke-linecap:round;stroke-linejoin:miter;stroke-miterlimit:10;stroke-dasharray:none;stroke-opacity:1" transform="matrix(.13333 0 0 -.13333 -5.602 718.403)"/><path d="M270.699 1594.4c47.403-116.1 116.403-211.3 213.801-295.3" style="display:inline;fill:none;stroke:#fff;stroke-width:344.95;stroke-linecap:butt;stroke-linejoin:miter;stroke-miterlimit:10;stroke-dasharray:none;stroke-opacity:1" transform="matrix(.13333 0 0 -.13333 -5.602 718.403)"/><path d="M270.699 1594.4c47.403-116.1 116.403-211.3 213.801-295.3" class="stroke-orange fill-orange" style="fill:none;stroke:#ff851b;stroke-width:172.478;stroke-linecap:round;stroke-linejoin:miter;stroke-miterlimit:10;stroke-dasharray:none;stroke-opacity:1" transform="matrix(.13333 0 0 -.13333 -5.602 718.403)"/><path d="M1886.5 4222.3c-81.3-122-155.1-230.2-228.8-335.4" style="display:inline;fill:none;stroke:#fff;stroke-width:344.95;stroke-linecap:butt;stroke-linejoin:miter;stroke-miterlimit:10;stroke-dasharray:none;stroke-opacity:1" transform="matrix(.13333 0 0 -.13333 -5.602 718.403)"/><path d="M1886.5 4222.3c-81.3-122-155.1-230.2-228.8-335.4" class="stroke-orange fill-orange" style="fill:none;stroke:#ff851b;stroke-width:172.478;stroke-linecap:round;stroke-linejoin:miter;stroke-miterlimit:10;stroke-dasharray:none;stroke-opacity:1" transform="matrix(.13333 0 0 -.13333 -5.602 718.403)"/><path d="M3033.7 187.602c120.9 10.898 228.7 48.597 334.2 116.796" style="display:inline;fill:none;stroke:#fff;stroke-width:344.95;stroke-linecap:butt;stroke-linejoin:miter;stroke-miterlimit:10;stroke-dasharray:none;stroke-opacity:1" transform="matrix(.13333 0 0 -.13333 -5.602 718.403)"/><path d="M3033.7 187.602c120.9 10.898 228.7 48.597 334.2 116.796" class="stroke-orange fill-orange" style="fill:none;stroke:#ff851b;stroke-width:172.478;stroke-linecap:round;stroke-linejoin:miter;stroke-miterlimit:10;stroke-dasharray:none;stroke-opacity:1" transform="matrix(.13333 0 0 -.13333 -5.602 718.403)"/><path d="M1192 2493.2c87.2-96.5 157.7-186.8 218.3-280" style="display:inline;fill:none;stroke:#fff;stroke-width:344.95;stroke-linecap:butt;stroke-linejoin:miter;stroke-miterlimit:10;stroke-dasharray:none;stroke-opacity:1" transform="matrix(.13333 0 0 -.13333 -5.602 718.403)"/><path d="M1192 2493.2c87.2-96.5 157.7-186.8 218.3-280" class="stroke-orange fill-orange" style="fill:none;stroke:#ff851b;stroke-width:172.478;stroke-linecap:round;stroke-linejoin:miter;stroke-miterlimit:10;stroke-dasharray:none;stroke-opacity:1" transform="matrix(.13333 0 0 -.13333 -5.602 718.403)"/><path d="M5079.1 2149.4c65.2 105.3 99.5 211.1 106.3 328.1" style="display:inline;fill:none;stroke:#fff;stroke-width:344.95;stroke-linecap:butt;stroke-linejoin:miter;stroke-miterlimit:10;stroke-dasharray:none;stroke-opacity:1" transform="matrix(.13333 0 0 -.13333 -5.602 718.403)"/><path d="M5079.1 2149.4c65.2 105.3 99.5 211.1 106.3 328.1" class="stroke-orange fill-orange" style="fill:none;stroke:#ff851b;stroke-width:172.478;stroke-linecap:round;stroke-linejoin:miter;stroke-miterlimit:10;stroke-dasharray:none;stroke-opacity:1" transform="matrix(.13333 0 0 -.13333 -5.602 718.403)"/><path d="M3891 4964.6c-89.8 93.5-188.7 158.9-306.5 202.6" style="display:inline;fill:none;stroke:#fff;stroke-width:344.95;stroke-linecap:butt;stroke-linejoin:miter;stroke-miterlimit:10;stroke-dasharray:none;stroke-opacity:1" transform="matrix(.13333 0 0 -.13333 -5.602 718.403)"/><path d="M3891 4964.6c-89.8 93.5-188.7 158.9-306.5 202.6" class="stroke-orange fill-orange" style="fill:none;stroke:#ff851b;stroke-width:172.478;stroke-linecap:round;stroke-linejoin:miter;stroke-miterlimit:10;stroke-dasharray:none;stroke-opacity:1" transform="matrix(.13333 0 0 -.13333 -5.602 718.403)"/><path d="M2487.3 1359.5c120.8 48.6 231.9 84.2 344.4 110.4" style="display:inline;fill:none;stroke:#fff;stroke-width:344.95;stroke-linecap:butt;stroke-linejoin:miter;stroke-miterlimit:10;stroke-dasharray:none;stroke-opacity:1" transform="matrix(.13333 0 0 -.13333 -5.602 718.403)"/><path d="M2487.3 1359.5c120.8 48.6 231.9 84.2 344.4 110.4" class="stroke-orange fill-orange" style="fill:none;stroke:#ff851b;stroke-width:172.478;stroke-linecap:round;stroke-linejoin:miter;stroke-miterlimit:10;stroke-dasharray:none;stroke-opacity:1" transform="matrix(.13333 0 0 -.13333 -5.602 718.403)"/><path d="M3893.3 2238.8c-5.8 130.9-1.3 249.6 13.9 367.8" style="display:inline;fill:none;stroke:#fff;stroke-width:344.95;stroke-linecap:butt;stroke-linejoin:miter;stroke-miterlimit:10;stroke-dasharray:none;stroke-opacity:1" transform="matrix(.13333 0 0 -.13333 -5.602 718.403)"/><path d="M3893.3 2238.8c-5.8 130.9-1.3 249.6 13.9 367.8" class="stroke-orange fill-orange" style="fill:none;stroke:#ff851b;stroke-width:172.478;stroke-linecap:round;stroke-linejoin:miter;stroke-miterlimit:10;stroke-dasharray:none;stroke-opacity:1" transform="matrix(.13333 0 0 -.13333 -5.602 718.403)"/><path d="M3364.3 3814c-117.7 31-221 67.9-320.1 114.5" style="display:inline;fill:none;stroke:#fff;stroke-width:344.95;stroke-linecap:butt;stroke-linejoin:miter;stroke-miterlimit:10;stroke-dasharray:none;stroke-opacity:1" transform="matrix(.13333 0 0 -.13333 -5.602 718.403)"/><path d="M3364.3 3814c-117.7 31-221 67.9-320.1 114.5" class="stroke-orange fill-orange" style="fill:none;stroke:#ff851b;stroke-width:172.478;stroke-linecap:round;stroke-linejoin:miter;stroke-miterlimit:10;stroke-dasharray:none;stroke-opacity:1" transform="matrix(.13333 0 0 -.13333 -5.602 718.403)"/><path d="M215.898 1955.3c-7.199-135.8 11.903-255.8 59.301-371.9" style="display:inline;fill:none;stroke:#fff;stroke-width:344.95;stroke-linecap:butt;stroke-linejoin:miter;stroke-miterlimit:10;stroke-dasharray:none;stroke-opacity:1" transform="matrix(.13333 0 0 -.13333 -5.602 718.403)"/><path d="M215.898 1955.3c-7.199-135.8 11.903-255.8 59.301-371.9" class="stroke-orange fill-orange" style="fill:none;stroke:#ff851b;stroke-width:172.478;stroke-linecap:round;stroke-linejoin:miter;stroke-miterlimit:10;stroke-dasharray:none;stroke-opacity:1" transform="matrix(.13333 0 0 -.13333 -5.602 718.403)"/><path d="M846.102 4748.8c-120.301-35.7-216.704-89.9-299.102-167.9" style="display:inline;fill:none;stroke:#fff;stroke-width:344.95;stroke-linecap:butt;stroke-linejoin:miter;stroke-miterlimit:10;stroke-dasharray:none;stroke-opacity:1" transform="matrix(.13333 0 0 -.13333 -5.602 718.403)"/><path d="M846.102 4748.8c-120.301-35.7-216.704-89.9-299.102-167.9" class="stroke-orange fill-orange" style="fill:none;stroke:#ff851b;stroke-width:172.478;stroke-linecap:round;stroke-linejoin:miter;stroke-miterlimit:10;stroke-dasharray:none;stroke-opacity:1" transform="matrix(.13333 0 0 -.13333 -5.602 718.403)"/><path d="M1664.7 3896.9c-73.7-105.2-150.5-197.5-238-286.3" style="display:inline;fill:none;stroke:#fff;stroke-width:344.95;stroke-linecap:butt;stroke-linejoin:miter;stroke-miterlimit:10;stroke-dasharray:none;stroke-opacity:1" transform="matrix(.13333 0 0 -.13333 -5.602 718.403)"/><path d="M1664.7 3896.9c-73.7-105.2-150.5-197.5-238-286.3" class="stroke-orange fill-orange" style="fill:none;stroke:#ff851b;stroke-width:172.478;stroke-linecap:round;stroke-linejoin:miter;stroke-miterlimit:10;stroke-dasharray:none;stroke-opacity:1" transform="matrix(.13333 0 0 -.13333 -5.602 718.403)"/><path d="M2684.2 241.699c123.6-46.898 240.1-64 361-53.097" style="display:inline;fill:none;stroke:#fff;stroke-width:344.95;stroke-linecap:butt;stroke-linejoin:miter;stroke-miterlimit:10;stroke-dasharray:none;stroke-opacity:1" transform="matrix(.13333 0 0 -.13333 -5.602 718.403)"/><path d="M2684.2 241.699c123.6-46.898 240.1-64 361-53.097" class="stroke-orange fill-orange" style="fill:none;stroke:#ff851b;stroke-width:172.478;stroke-linecap:round;stroke-linejoin:miter;stroke-miterlimit:10;stroke-dasharray:none;stroke-opacity:1" transform="matrix(.13333 0 0 -.13333 -5.602 718.403)"/><path d="M4093.7 4639c-53.3 133.1-121.5 241-211.3 334.5" style="display:inline;fill:none;stroke:#fff;stroke-width:344.95;stroke-linecap:butt;stroke-linejoin:miter;stroke-miterlimit:10;stroke-dasharray:none;stroke-opacity:1" transform="matrix(.13333 0 0 -.13333 -5.602 718.403)"/><path d="M4093.7 4639c-53.3 133.1-121.5 241-211.3 334.5" class="stroke-orange fill-orange" style="fill:none;stroke:#ff851b;stroke-width:172.478;stroke-linecap:round;stroke-linejoin:miter;stroke-miterlimit:10;stroke-dasharray:none;stroke-opacity:1" transform="matrix(.13333 0 0 -.13333 -5.602 718.403)"/><path d="M1404.6 2222c60.6-93.2 109.1-190.6 150.3-302.1" style="display:inline;fill:none;stroke:#fff;stroke-width:344.95;stroke-linecap:butt;stroke-linejoin:miter;stroke-miterlimit:10;stroke-dasharray:none;stroke-opacity:1" transform="matrix(.13333 0 0 -.13333 -5.602 718.403)"/><path d="M1404.6 2222c60.6-93.2 109.1-190.6 150.3-302.1" class="stroke-orange fill-orange" style="fill:none;stroke:#ff851b;stroke-width:172.478;stroke-linecap:round;stroke-linejoin:miter;stroke-miterlimit:10;stroke-dasharray:none;stroke-opacity:1" transform="matrix(.13333 0 0 -.13333 -5.602 718.403)"/><path d="M4819.2 1881.3c115.1 83.2 200.9 172.9 266.1 278.2" style="display:inline;fill:none;stroke:#fff;stroke-width:344.95;stroke-linecap:butt;stroke-linejoin:miter;stroke-miterlimit:10;stroke-dasharray:none;stroke-opacity:1" transform="matrix(.13333 0 0 -.13333 -5.602 718.403)"/><path d="M4819.2 1881.3c115.1 83.2 200.9 172.9 266.1 278.2" class="stroke-orange fill-orange" style="fill:none;stroke:#ff851b;stroke-width:172.478;stroke-linecap:round;stroke-linejoin:miter;stroke-miterlimit:10;stroke-dasharray:none;stroke-opacity:1" transform="matrix(.13333 0 0 -.13333 -5.602 718.403)"/><path d="M311.898 2350.3c-58.296-140.5-89.5-272.1-96.699-408" style="display:inline;fill:none;stroke:#fff;stroke-width:344.95;stroke-linecap:butt;stroke-linejoin:miter;stroke-miterlimit:10;stroke-dasharray:none;stroke-opacity:1" transform="matrix(.13333 0 0 -.13333 -5.602 718.403)"/><path d="M311.898 2350.3c-58.296-140.5-89.5-272.1-96.699-408" class="stroke-orange fill-orange" style="fill:none;stroke:#ff851b;stroke-width:172.478;stroke-linecap:round;stroke-linejoin:miter;stroke-miterlimit:10;stroke-dasharray:none;stroke-opacity:1" transform="matrix(.13333 0 0 -.13333 -5.602 718.403)"/><path d="M3905.7 2595.3c15.3 118.2 40.4 234.7 77.9 361.1" style="display:inline;fill:none;stroke:#fff;stroke-width:344.95;stroke-linecap:butt;stroke-linejoin:miter;stroke-miterlimit:10;stroke-dasharray:none;stroke-opacity:1" transform="matrix(.13333 0 0 -.13333 -5.602 718.403)"/><path d="M3905.7 2595.3c15.3 118.2 40.4 234.7 77.9 361.1" class="stroke-orange fill-orange" style="fill:none;stroke:#ff851b;stroke-width:172.478;stroke-linecap:round;stroke-linejoin:miter;stroke-miterlimit:10;stroke-dasharray:none;stroke-opacity:1" transform="matrix(.13333 0 0 -.13333 -5.602 718.403)"/><path d="M2821 1467.4c112.6 26.2 226.6 41.5 353.3 47.2" style="display:inline;fill:none;stroke:#fff;stroke-width:344.95;stroke-linecap:butt;stroke-linejoin:miter;stroke-miterlimit:10;stroke-dasharray:none;stroke-opacity:1" transform="matrix(.13333 0 0 -.13333 -5.602 718.403)"/><path d="M2821 1467.4c112.6 26.2 226.6 41.5 353.3 47.2" class="stroke-orange fill-orange" style="fill:none;stroke:#ff851b;stroke-width:172.478;stroke-linecap:round;stroke-linejoin:miter;stroke-miterlimit:10;stroke-dasharray:none;stroke-opacity:1" transform="matrix(.13333 0 0 -.13333 -5.602 718.403)"/><path d="M3053.6 3924.1c-99.2 46.5-194.9 102.1-296.7 172.1" style="display:inline;fill:none;stroke:#fff;stroke-width:344.95;stroke-linecap:butt;stroke-linejoin:miter;stroke-miterlimit:10;stroke-dasharray:none;stroke-opacity:1" transform="matrix(.13333 0 0 -.13333 -5.602 718.403)"/><path d="M3053.6 3924.1c-99.2 46.5-194.9 102.1-296.7 172.1" class="stroke-orange fill-orange" style="fill:none;stroke:#ff851b;stroke-width:172.478;stroke-linecap:round;stroke-linejoin:miter;stroke-miterlimit:10;stroke-dasharray:none;stroke-opacity:1" transform="matrix(.13333 0 0 -.13333 -5.602 718.403)"/><path d="M2346.3 450c113.3-97.199 226.1-165.898 349.7-212.801" style="display:inline;fill:none;stroke:#fff;stroke-width:344.95;stroke-linecap:butt;stroke-linejoin:miter;stroke-miterlimit:10;stroke-dasharray:none;stroke-opacity:1" transform="matrix(.13333 0 0 -.13333 -5.602 718.403)"/><path d="M2346.3 450c113.3-97.199 226.1-165.898 349.7-212.801" class="stroke-orange fill-orange" style="fill:none;stroke:#ff851b;stroke-width:172.478;stroke-linecap:round;stroke-linejoin:miter;stroke-miterlimit:10;stroke-dasharray:none;stroke-opacity:1" transform="matrix(.13333 0 0 -.13333 -5.602 718.403)"/><path d="M1225.5 4785.7c-144.6 8.3-270.699-4.7-390.898-40.3" style="display:inline;fill:none;stroke:#fff;stroke-width:344.95;stroke-linecap:butt;stroke-linejoin:miter;stroke-miterlimit:10;stroke-dasharray:none;stroke-opacity:1" transform="matrix(.13333 0 0 -.13333 -5.602 718.403)"/><path d="M1225.5 4785.7c-144.6 8.3-270.699-4.7-390.898-40.3" class="stroke-orange fill-orange" style="fill:none;stroke:#ff851b;stroke-width:172.478;stroke-linecap:round;stroke-linejoin:miter;stroke-miterlimit:10;stroke-dasharray:none;stroke-opacity:1" transform="matrix(.13333 0 0 -.13333 -5.602 718.403)"/><path d="M1435 3619c-87.6-88.8-180.9-174.2-289.3-264.8" style="display:inline;fill:none;stroke:#fff;stroke-width:344.95;stroke-linecap:butt;stroke-linejoin:miter;stroke-miterlimit:10;stroke-dasharray:none;stroke-opacity:1" transform="matrix(.13333 0 0 -.13333 -5.602 718.403)"/><path d="M1435 3619c-87.6-88.8-180.9-174.2-289.3-264.8" class="stroke-orange fill-orange" style="fill:none;stroke:#ff851b;stroke-width:172.478;stroke-linecap:round;stroke-linejoin:miter;stroke-miterlimit:10;stroke-dasharray:none;stroke-opacity:1" transform="matrix(.13333 0 0 -.13333 -5.602 718.403)"/><path d="M4188.2 4224.3c-14.1 156.5-46.2 294.3-99.6 427.4" style="display:inline;fill:none;stroke:#fff;stroke-width:344.95;stroke-linecap:butt;stroke-linejoin:miter;stroke-miterlimit:10;stroke-dasharray:none;stroke-opacity:1" transform="matrix(.13333 0 0 -.13333 -5.602 718.403)"/><path d="M4188.2 4224.3c-14.1 156.5-46.2 294.3-99.6 427.4" class="stroke-orange fill-orange" style="fill:none;stroke:#ff851b;stroke-width:172.478;stroke-linecap:round;stroke-linejoin:miter;stroke-miterlimit:10;stroke-dasharray:none;stroke-opacity:1" transform="matrix(.13333 0 0 -.13333 -5.602 718.403)"/><path d="M4440.6 1686.3c148.8 54.3 274.5 119.8 389.5 202.9" style="display:inline;fill:none;stroke:#fff;stroke-width:344.95;stroke-linecap:butt;stroke-linejoin:miter;stroke-miterlimit:10;stroke-dasharray:none;stroke-opacity:1" transform="matrix(.13333 0 0 -.13333 -5.602 718.403)"/><path d="M4440.6 1686.3c148.8 54.3 274.5 119.8 389.5 202.9" class="stroke-orange fill-orange" style="fill:none;stroke:#ff851b;stroke-width:172.478;stroke-linecap:round;stroke-linejoin:miter;stroke-miterlimit:10;stroke-dasharray:none;stroke-opacity:1" transform="matrix(.13333 0 0 -.13333 -5.602 718.403)"/><path d="M535.199 2736.4c-96.801-130.1-170.597-259-228.898-399.5" style="display:inline;fill:none;stroke:#fff;stroke-width:344.95;stroke-linecap:butt;stroke-linejoin:miter;stroke-miterlimit:10;stroke-dasharray:none;stroke-opacity:1" transform="matrix(.13333 0 0 -.13333 -5.602 718.403)"/><path d="M535.199 2736.4c-96.801-130.1-170.597-259-228.898-399.5" class="stroke-orange fill-orange" style="fill:none;stroke:#ff851b;stroke-width:172.478;stroke-linecap:round;stroke-linejoin:miter;stroke-miterlimit:10;stroke-dasharray:none;stroke-opacity:1" transform="matrix(.13333 0 0 -.13333 -5.602 718.403)"/><path d="M1551 1930.5c41.2-111.4 82-229.1 126.4-364.7" style="display:inline;fill:none;stroke:#fff;stroke-width:344.95;stroke-linecap:butt;stroke-linejoin:miter;stroke-miterlimit:10;stroke-dasharray:none;stroke-opacity:1" transform="matrix(.13333 0 0 -.13333 -5.602 718.403)"/><path d="M1551 1930.5c41.2-111.4 82-229.1 126.4-364.7" class="stroke-orange fill-orange" style="fill:none;stroke:#ff851b;stroke-width:172.478;stroke-linecap:round;stroke-linejoin:miter;stroke-miterlimit:10;stroke-dasharray:none;stroke-opacity:1" transform="matrix(.13333 0 0 -.13333 -5.602 718.403)"/><path d="M3980.1 2944.3c37.5 126.4 74.5 256.4 114.6 403" style="display:inline;fill:none;stroke:#fff;stroke-width:344.95;stroke-linecap:butt;stroke-linejoin:miter;stroke-miterlimit:10;stroke-dasharray:none;stroke-opacity:1" transform="matrix(.13333 0 0 -.13333 -5.602 718.403)"/><path d="M3980.1 2944.3c37.5 126.4 74.5 256.4 114.6 403" class="stroke-orange fill-orange" style="fill:none;stroke:#ff851b;stroke-width:172.478;stroke-linecap:round;stroke-linejoin:miter;stroke-miterlimit:10;stroke-dasharray:none;stroke-opacity:1" transform="matrix(.13333 0 0 -.13333 -5.602 718.403)"/><path d="M1156.1 3362.8c-108.4-90.6-214.6-185.9-329.1-295.4" style="display:inline;fill:none;stroke:#fff;stroke-width:344.95;stroke-linecap:butt;stroke-linejoin:miter;stroke-miterlimit:10;stroke-dasharray:none;stroke-opacity:1" transform="matrix(.13333 0 0 -.13333 -5.602 718.403)"/><path d="M1156.1 3362.8c-108.4-90.6-214.6-185.9-329.1-295.4" class="stroke-orange fill-orange" style="fill:none;stroke:#ff851b;stroke-width:172.478;stroke-linecap:round;stroke-linejoin:miter;stroke-miterlimit:10;stroke-dasharray:none;stroke-opacity:1" transform="matrix(.13333 0 0 -.13333 -5.602 718.403)"/><path d="M3162.3 1514.1c126.7 5.7 258.3 11.2 407.9 16.9" style="display:inline;fill:none;stroke:#fff;stroke-width:344.95;stroke-linecap:butt;stroke-linejoin:miter;stroke-miterlimit:10;stroke-dasharray:none;stroke-opacity:1" transform="matrix(.13333 0 0 -.13333 -5.602 718.403)"/><path d="M3162.3 1514.1c126.7 5.7 258.3 11.2 407.9 16.9" class="stroke-orange fill-orange" style="fill:none;stroke:#ff851b;stroke-width:172.478;stroke-linecap:round;stroke-linejoin:miter;stroke-miterlimit:10;stroke-dasharray:none;stroke-opacity:1" transform="matrix(.13333 0 0 -.13333 -5.602 718.403)"/><path d="M2053.8 779.801c92.2-132.403 190-241.699 303.3-339" style="display:inline;fill:none;stroke:#fff;stroke-width:344.95;stroke-linecap:butt;stroke-linejoin:miter;stroke-miterlimit:10;stroke-dasharray:none;stroke-opacity:1" transform="matrix(.13333 0 0 -.13333 -5.602 718.403)"/><path d="M2053.8 779.801c92.2-132.403 190-241.699 303.3-339" class="stroke-orange fill-orange" style="fill:none;stroke:#ff851b;stroke-width:172.478;stroke-linecap:round;stroke-linejoin:miter;stroke-miterlimit:10;stroke-dasharray:none;stroke-opacity:1" transform="matrix(.13333 0 0 -.13333 -5.602 718.403)"/><path d="M837.898 3077.8c-114.5-109.5-215.199-223.6-312-353.7" style="display:inline;fill:none;stroke:#fff;stroke-width:344.95;stroke-linecap:butt;stroke-linejoin:miter;stroke-miterlimit:10;stroke-dasharray:none;stroke-opacity:1" transform="matrix(.13333 0 0 -.13333 -5.602 718.403)"/><path d="M837.898 3077.8c-114.5-109.5-215.199-223.6-312-353.7" class="stroke-orange fill-orange" style="fill:none;stroke:#ff851b;stroke-width:172.478;stroke-linecap:round;stroke-linejoin:miter;stroke-miterlimit:10;stroke-dasharray:none;stroke-opacity:1" transform="matrix(.13333 0 0 -.13333 -5.602 718.403)"/><path d="M4177.9 3771.3c20.2 160.4 23.1 311.4 9 467.9" style="display:inline;fill:none;stroke:#fff;stroke-width:344.95;stroke-linecap:butt;stroke-linejoin:miter;stroke-miterlimit:10;stroke-dasharray:none;stroke-opacity:1" transform="matrix(.13333 0 0 -.13333 -5.602 718.403)"/><path d="M4177.9 3771.3c20.2 160.4 23.1 311.4 9 467.9" class="stroke-orange fill-orange" style="fill:none;stroke:#ff851b;stroke-width:172.478;stroke-linecap:round;stroke-linejoin:miter;stroke-miterlimit:10;stroke-dasharray:none;stroke-opacity:1" transform="matrix(.13333 0 0 -.13333 -5.602 718.403)"/><path d="M1649.7 4704.3c-152.1 47.3-293.4 73.8-438 82.2" style="display:inline;fill:none;stroke:#fff;stroke-width:344.95;stroke-linecap:butt;stroke-linejoin:miter;stroke-miterlimit:10;stroke-dasharray:none;stroke-opacity:1" transform="matrix(.13333 0 0 -.13333 -5.602 718.403)"/><path d="M1649.7 4704.3c-152.1 47.3-293.4 73.8-438 82.2" class="stroke-orange fill-orange" style="fill:none;stroke:#ff851b;stroke-width:172.478;stroke-linecap:round;stroke-linejoin:miter;stroke-miterlimit:10;stroke-dasharray:none;stroke-opacity:1" transform="matrix(.13333 0 0 -.13333 -5.602 718.403)"/><path d="M2766.6 4089.5c-101.8 70-208.4 142.4-330.2 224.6" style="display:inline;fill:none;stroke:#fff;stroke-width:344.95;stroke-linecap:butt;stroke-linejoin:miter;stroke-miterlimit:10;stroke-dasharray:none;stroke-opacity:1" transform="matrix(.13333 0 0 -.13333 -5.602 718.403)"/><path d="M2766.6 4089.5c-101.8 70-208.4 142.4-330.2 224.6" class="stroke-orange fill-orange" style="fill:none;stroke:#ff851b;stroke-width:172.478;stroke-linecap:round;stroke-linejoin:miter;stroke-miterlimit:10;stroke-dasharray:none;stroke-opacity:1" transform="matrix(.13333 0 0 -.13333 -5.602 718.403)"/><path d="M4090.8 3333.3c40.1 146.6 68.8 292.8 89 453.3" style="display:inline;fill:none;stroke:#fff;stroke-width:344.95;stroke-linecap:butt;stroke-linejoin:miter;stroke-miterlimit:10;stroke-dasharray:none;stroke-opacity:1" transform="matrix(.13333 0 0 -.13333 -5.602 718.403)"/><path d="M4090.8 3333.3c40.1 146.6 68.8 292.8 89 453.3" class="stroke-orange fill-orange" style="fill:none;stroke:#ff851b;stroke-width:172.478;stroke-linecap:round;stroke-linejoin:miter;stroke-miterlimit:10;stroke-dasharray:none;stroke-opacity:1" transform="matrix(.13333 0 0 -.13333 -5.602 718.403)"/><path d="M3998.3 1573.9c160.5 25.3 307.7 63.2 456.5 117.6" style="display:inline;fill:none;stroke:#fff;stroke-width:344.95;stroke-linecap:butt;stroke-linejoin:miter;stroke-miterlimit:10;stroke-dasharray:none;stroke-opacity:1" transform="matrix(.13333 0 0 -.13333 -5.602 718.403)"/><path d="M3998.3 1573.9c160.5 25.3 307.7 63.2 456.5 117.6" class="stroke-orange fill-orange" style="fill:none;stroke:#ff851b;stroke-width:172.478;stroke-linecap:round;stroke-linejoin:miter;stroke-miterlimit:10;stroke-dasharray:none;stroke-opacity:1" transform="matrix(.13333 0 0 -.13333 -5.602 718.403)"/><path d="M1673.1 1578.7c44.4-135.6 96.9-269.5 162.7-415.1" style="display:inline;fill:none;stroke:#fff;stroke-width:344.95;stroke-linecap:butt;stroke-linejoin:miter;stroke-miterlimit:10;stroke-dasharray:none;stroke-opacity:1" transform="matrix(.13333 0 0 -.13333 -5.602 718.403)"/><path d="M1673.1 1578.7c44.4-135.6 96.9-269.5 162.7-415.1" class="stroke-orange fill-orange" style="fill:none;stroke:#ff851b;stroke-width:172.478;stroke-linecap:round;stroke-linejoin:miter;stroke-miterlimit:10;stroke-dasharray:none;stroke-opacity:1" transform="matrix(.13333 0 0 -.13333 -5.602 718.403)"/><path d="M3556 1530.5c149.6 5.7 297.2 20.5 457.6 45.8" style="display:inline;fill:none;stroke:#fff;stroke-width:344.95;stroke-linecap:butt;stroke-linejoin:miter;stroke-miterlimit:10;stroke-dasharray:none;stroke-opacity:1" transform="matrix(.13333 0 0 -.13333 -5.602 718.403)"/><path d="M3556 1530.5c149.6 5.7 297.2 20.5 457.6 45.8" class="stroke-orange fill-orange" style="fill:none;stroke:#ff851b;stroke-width:172.478;stroke-linecap:round;stroke-linejoin:miter;stroke-miterlimit:10;stroke-dasharray:none;stroke-opacity:1" transform="matrix(.13333 0 0 -.13333 -5.602 718.403)"/><path d="M1829.5 1177.5c65.8-145.6 141-278 233.1-410.301" style="display:inline;fill:none;stroke:#fff;stroke-width:344.95;stroke-linecap:butt;stroke-linejoin:miter;stroke-miterlimit:10;stroke-dasharray:none;stroke-opacity:1" transform="matrix(.13333 0 0 -.13333 -5.602 718.403)"/><path d="M1829.5 1177.5c65.8-145.6 141-278 233.1-410.301" class="stroke-orange fill-orange" style="fill:none;stroke:#ff851b;stroke-width:172.478;stroke-linecap:round;stroke-linejoin:miter;stroke-miterlimit:10;stroke-dasharray:none;stroke-opacity:1" transform="matrix(.13333 0 0 -.13333 -5.602 718.403)"/><path d="M2070.8 4529.7c-142.9 74-283.4 131.8-435.6 179.1" style="display:inline;fill:none;stroke:#fff;stroke-width:344.95;stroke-linecap:butt;stroke-linejoin:miter;stroke-miterlimit:10;stroke-dasharray:none;stroke-opacity:1" transform="matrix(.13333 0 0 -.13333 -5.602 718.403)"/><path d="M2070.8 4529.7c-142.9 74-283.4 131.8-435.6 179.1" class="stroke-orange fill-orange" style="fill:none;stroke:#ff851b;stroke-width:172.478;stroke-linecap:round;stroke-linejoin:miter;stroke-miterlimit:10;stroke-dasharray:none;stroke-opacity:1" transform="matrix(.13333 0 0 -.13333 -5.602 718.403)"/><path d="M2448 4306.2c-121.9 82.2-247.9 156.5-390.8 230.5" style="display:inline;fill:none;stroke:#fff;stroke-width:344.95;stroke-linecap:butt;stroke-linejoin:miter;stroke-miterlimit:10;stroke-dasharray:none;stroke-opacity:1" transform="matrix(.13333 0 0 -.13333 -5.602 718.403)"/><path d="M2448 4306.2c-121.9 82.2-247.9 156.5-390.8 230.5" class="stroke-orange fill-orange" style="fill:none;stroke:#ff851b;stroke-width:172.478;stroke-linecap:round;stroke-linejoin:miter;stroke-miterlimit:10;stroke-dasharray:none;stroke-opacity:1" transform="matrix(.13333 0 0 -.13333 -5.602 718.403)"/><path d="m137.634-111.853-12.716 93.032 16.264 2.223 10.493-76.767 76.768 10.493 2.224-16.264z" class="stroke-orange fill-orange" style="fill:#ff851b;stroke-width:15.1233;stroke-linecap:round;stroke-linejoin:round;stroke-dashoffset:130.744;paint-order:stroke markers fill" transform="rotate(11.112 -2478.426 535.44)scale(.80013)"/></svg>