<svg xmlns="http://www.w3.org/2000/svg" viewBox="0 0 720 720">
  <path d="M4026.55 431.725c-785.718 188.106-1152.772 4057.689 76.15 4422.792" class="stroke-orange fill-orange" style="fill:none;stroke:#ff851b;stroke-width:170.079;stroke-linecap:round;stroke-linejoin:miter;stroke-miterlimit:10;stroke-dasharray:none;stroke-opacity:1" transform="matrix(0 .13333 .13333 0 4.281 2.828)"/>
  <path d="M4091.268 375.097C3338.13 525.66 3007.487 4440.958 4102.7 4854.517" class="stroke-orange fill-orange" style="fill:none;stroke:#ff851b;stroke-width:170.079;stroke-linecap:round;stroke-linejoin:miter;stroke-miterlimit:10;stroke-dasharray:none;stroke-opacity:1" transform="rotate(-90 368.31 357.97)scale(.13333)"/>
  <g style="display:inline">
    <path d="M95.987 238.496c-40.02-3.626-73.497-31.904-83.754-70.747-4.013-15.198-4.013-33.368 0-48.566 9.68-36.655 39.637-63.734 77.404-69.965 6.991-1.154 22.642-1.154 29.633 0 41.257 6.807 72.625 38.175 79.432 79.431 1.85 11.211.998 27.643-2.028 39.1-9.657 36.57-39.811 63.872-77.228 69.921-4.454.72-18.981 1.232-23.46.826m22.401-5.72c52.756-8.696 86.477-59.58 73.702-111.214-8.706-35.184-37.598-61.553-73.878-67.425-6.899-1.117-21.007-1.118-27.693-.003-39.313 6.559-69.069 36.348-75.386 75.472-1.068 6.615-1.147 20.3-.155 26.736 6.489 42.08 39.946 73.562 82.067 77.22 4.23.368 17.254-.112 21.343-.787" class="stroke-comment fill-comment" style="display:inline;fill:#616161;fill-opacity:1;stroke:none;stroke-width:.352778;stroke-opacity:1" transform="translate(-34.766 -182.346)scale(3.77953)"/>
  </g>
</svg>
