<?xml version="1.0" encoding="UTF-8" standalone="no"?>
<svg
   xml:space="preserve"
   viewBox="0 0 99.999997 413.73833"
   version="1.1"
   id="svg3"
   sodipodi:docname="0.svg"
   inkscape:version="1.4.2 (ebf0e940d0, 2025-05-08)"
   xmlns:inkscape="http://www.inkscape.org/namespaces/inkscape"
   xmlns:sodipodi="http://sodipodi.sourceforge.net/DTD/sodipodi-0.dtd"
   xmlns="http://www.w3.org/2000/svg"
   xmlns:svg="http://www.w3.org/2000/svg"><defs
   id="defs3" /><sodipodi:namedview
   id="namedview3"
   pagecolor="#ffffff"
   bordercolor="#000000"
   borderopacity="0.25"
   inkscape:showpageshadow="2"
   inkscape:pageopacity="0.0"
   inkscape:pagecheckerboard="0"
   inkscape:deskcolor="#d1d1d1"
   inkscape:zoom="1.6015964"
   inkscape:cx="94.905309"
   inkscape:cy="266.92118"
   inkscape:window-width="1294"
   inkscape:window-height="1502"
   inkscape:window-x="0"
   inkscape:window-y="0"
   inkscape:window-maximized="1"
   inkscape:current-layer="svg3" />
  <path
   d="m 50,313.73835 a 50,50 0 0 1 50,50 50,50 0 0 1 -50,50 50,50 0 0 1 -50,-50 50,50 0 0 1 50,-50"
   style="fill:#616161;stroke-width:2.25367;stroke-linecap:round;stroke-linejoin:round;paint-order:stroke fill markers"
   id="path1" />
  <path
   d="m 30,363.73835 v -250 h 40 v 250 z"
   style="fill:#616161;stroke-width:1.84012;stroke-linecap:round;stroke-linejoin:round;paint-order:stroke fill markers"
   id="path2" />


<path
   d="M 35.778602,-9.6857548e-7 H 50.585586 V 67.426151 q 0,4.60104 1.087519,6.943388 1.171174,2.342348 2.927934,3.1789 1.756761,0.752898 3.764488,0.752898 1.505795,0 3.262556,-0.334621 1.840416,-0.418277 2.593313,-0.669242 l -0.08365,12.548291 q -1.505795,0.585587 -4.015453,1.171174 -2.509659,0.585587 -6.441457,0.585587 -4.76835,0 -8.867459,-2.258693 -4.099108,-2.342348 -6.608767,-7.61263 -2.426003,-5.353938 -2.426003,-14.388707 z"
   id="text3"
   style="font-size:171.326px;font-family:'Roboto Condensed';-inkscape-font-specification:'Roboto Condensed, ';fill:#616161;stroke-width:15.1099;stroke-linejoin:round;paint-order:stroke fill markers"
   aria-label="ι" /></svg>
