<svg xmlns="http://www.w3.org/2000/svg" viewBox="0 0 91.64 61.147">
  <g style="display:inline">
    <g style="display:inline">
      <path d="M65.61 142.594v5c.287 1.91 3.647 3.274 8.31 4.09.838.147 2.352-.908 2.788-1.962.303.46 1.425 2.526 2.243 2.595.742.063 1.976-1.348 2.638-2.73.614-1.282 1.814-2.33 2.333-2.4.878-.118.996.942 2.667 2.4.744.648 1.375 2.13 2.248 2.524.896.404 2.528-2.193 2.718-2.482.61-.928 1.244-2.306 2.47-2.497 4.704-.736 11.585-1.92 11.564-4.546l.021 5.008c-.1 1.907-6.814 4.822-11.555 4.535-.842-.05-1.756-1.734-2.5-2.5-1.749-1.8-1.836-2.641-2.71-2.442-.951.216-1.673 1.144-2.256 2.4-.402.865-1.82 2.709-2.704 2.532-1.089-.219-1.296-1.798-2.296-2.533-.696-.51-1.675-2.186-2.483-2.25-.786-.064-1.782 1.367-2.398 2.386-.667-.588-1.581-2.78-1.963-2.896-4.885-.777-8.545-2.169-9.135-4.232" class="stroke-blue fill-blue" style="display:inline;fill:#0074d9;fill-opacity:.333333;stroke:none;stroke-width:.264999;stroke-dasharray:none;stroke-opacity:1" transform="matrix(.00368 .86603 1.66826 -.00708 -180.864 -55.66)"/>
      <path d="M91.75 142.809c7.224.6 13.27 2.22 13.86 4.785v-5c-.286-2.525-6.417-4.15-13.803-4.743m-9.651-.192c-8.238.322-15.682 1.912-16.546 4.935v5c.737-3.033 8.387-4.605 16.67-4.93" class="stroke-blue fill-blue" style="display:inline;fill:#0074d9;fill-opacity:.333333;stroke:none;stroke-width:.264999;stroke-dasharray:none;stroke-opacity:1" transform="matrix(.00368 .86603 1.66826 -.00708 -180.864 -55.66)"/>
      <path d="M24.997 145.19c1 0 1.003.81 2.003 1.81l1 1c1 1 1 2 2 2m0-5c-.794 0-1.39.718-2.005 1.703m-1 1.656c-.601.951-1.285 1.826-2.058 1.826" class="stroke-blue fill-blue" style="fill:none;fill-opacity:1;stroke:#0074d9;stroke-width:.264999;stroke-linecap:round;stroke-dasharray:none;stroke-opacity:1" transform="matrix(.00368 .86603 1.66826 -.00708 -177.113 -8.862)"/>
      <path d="M25 145c1 0 1 1 2 2l1 1c1 1 1 2 2 2m0-5c-.872 0-1.436.772-2.094 1.844m-.876 1.424c-.603.948-1.238 1.732-2.03 1.732" class="stroke-blue fill-blue" style="fill:none;fill-opacity:1;stroke:#0074d9;stroke-width:.264999;stroke-linecap:round;stroke-dasharray:none;stroke-opacity:1" transform="matrix(.00368 .86603 1.66826 -.00708 -177.076 -.202)"/>
      <path d="M25 145c1 0 1 1 2 2l1 1c1 1 1 2 2 2m0-5c-.813 0-1.461.827-2.078 1.808m-.852 1.397c-.615.976-1.26 1.795-2.07 1.795" class="stroke-blue fill-blue" style="fill:none;fill-opacity:1;stroke:#0074d9;stroke-width:.264999;stroke-linecap:round;stroke-dasharray:none;stroke-opacity:1" transform="matrix(.00368 .86603 1.66826 -.00708 -177.095 -4.532)"/>
      <g style="display:inline">
        <path d="M25.06 144.418c1.063.12.94 1.582 1.94 2.582l.64.995c1 1 1 2 2 2m.061-4.995h-.003c-.852 0-1.385.83-1.941 1.762m-1.096 1.629c-.526.595-1.18 1.008-2.103.94" class="stroke-blue fill-blue" style="fill:none;fill-opacity:1;stroke:#0074d9;stroke-width:.264999;stroke-linecap:round;stroke-dasharray:none;stroke-opacity:1" transform="matrix(.00368 .86603 1.66826 -.00708 -176.813 -12.937)"/>
      </g>
      <path d="M73.909 151.65c-5.027-.909-8.299-2.387-8.299-4.056 0-.656.506-1.282 1.424-1.856l2.445-1.1c3.017-1.027 7.564-1.755 12.802-1.975" class="stroke-blue fill-blue" style="display:inline;fill:none;stroke:#0074d9;stroke-width:.264999;stroke-opacity:1" transform="matrix(.00368 .86603 1.66826 -.00708 -180.864 -55.66)"/>
      <path d="M74.411 146.738c-2.01-.34-3.76-.77-5.158-1.266m-1.952-.863c-1.087-.616-1.69-1.298-1.69-2.015 0-2.47 7.166-4.522 16.585-4.927m9.734 5.183c3.99.33 7.42.968 9.847 1.8l2.303 1.023c.986.591 1.53 1.24 1.53 1.921 0 2.009-4.738 3.741-11.572 4.536" class="stroke-blue fill-blue" style="display:inline;fill:none;stroke:#0074d9;stroke-width:.264999;stroke-opacity:1" transform="matrix(.00368 .86603 1.66826 -.00708 -180.864 -55.66)"/>
      <path d="M65.61 142.594v5m40-5v5" class="stroke-blue fill-blue" style="display:inline;fill:none;fill-opacity:1;stroke:#0074d9;stroke-width:.264999;stroke-dasharray:none;stroke-opacity:1" transform="matrix(.00368 .86603 1.66826 -.00708 -180.864 -55.66)"/>
      <path d="M91.81 137.84c8.01.651 13.8 2.534 13.8 4.754 0 .735-.634 1.433-1.772 2.061m-2.1.897c-1.988.676-4.639 1.223-7.714 1.58" class="stroke-blue fill-blue" style="display:inline;fill:none;stroke:#0074d9;stroke-width:.264999;stroke-opacity:1" transform="matrix(.00368 .86603 1.66826 -.00708 -180.864 -55.66)"/>
    </g>
    <g style="display:inline">
      <path d="M43.003 100.021C34.204 100.205 25.914 101.8 25 105v5c.782-3.219 9.132-4.855 18.007-5.033m5.041.055c8.515.358 16.279 2.054 16.952 4.978v-5c-.326-2.882-8.265-4.591-16.992-4.933" class="stroke-teal fill-teal" style="display:inline;fill:#39cccc;fill-opacity:.287364;stroke:none;stroke-width:.264999;stroke-dasharray:none;stroke-opacity:1" transform="translate(-22.204 -151.521)scale(1.66015)"/>
      <path d="M37.992 114.692c4.833.433 10.289.41 15.026-.068l.021-5.07c-4.72.507-10.157.57-14.985.15m19.906 4.192c3.232-.771 6.879-2.129 7.04-3.896v-5c-.176 1.673-3.106 2.677-6.985 3.794m-25.033.239c-4.3-.806-7.44-2.136-7.982-4.033v5c.28 1.862 3.478 3.204 7.956 4.026" class="stroke-teal fill-teal" style="display:inline;fill:#39cccc;fill-opacity:.287364;stroke:none;stroke-width:.264999;stroke-dasharray:none;stroke-opacity:1" transform="translate(-22.204 -151.521)scale(1.66015)"/>
      <path d="M63.47 108.079c.986.591 1.53 1.24 1.53 1.921 0 1.529-2.745 2.898-7.07 3.815m-4.919.768A74 74 0 0 1 45 115c-2.464 0-4.823-.111-7.002-.315m-5-.685c-4.857-.912-7.998-2.364-7.998-4 0-.656.505-1.283 1.424-1.857m2.445-1.099c3.27-1.114 8.34-1.876 14.137-2.02m5.034.033c5.38.205 10.056.947 13.127 1.999" class="stroke-teal fill-teal" style="display:inline;fill:none;stroke:#39cccc;stroke-width:.264999;stroke-opacity:1" transform="translate(-22.204 -151.521)scale(1.66015)"/>
      <path d="M48.009 100.056C57.627 100.42 65 102.494 65 105c0 1.518-2.705 2.878-6.976 3.795m-5.028.79A74 74 0 0 1 45 110c-2.45 0-4.797-.11-6.966-.312m-5.04-.689C28.14 108.087 25 106.635 25 105c0-2.593 7.896-4.725 18.006-4.975" class="stroke-teal fill-teal" style="display:inline;fill:none;stroke:#39cccc;stroke-width:.264999;stroke-opacity:1" transform="translate(-22.204 -151.521)scale(1.66015)"/>
      <path d="M25 105v5m40-5v5" class="stroke-teal fill-teal" style="display:inline;fill:none;fill-opacity:1;stroke:#39cccc;stroke-width:.264999;stroke-dasharray:none;stroke-opacity:1" transform="translate(-22.204 -151.521)scale(1.66015)"/>
    </g>
    <g style="display:inline">
      <path d="M-6.556 14.357c-.845.03-1.032-.487-1.894-.317-.958.188-1.34 1.839-2.389 2.528-1.096.72-1.597 3.046-2.447 2.96-.807-.082-1.631-.778-2.496-2.47-.346-.244-.452-1.564-2.122-1.698-3.052.818-5.17 1.98-5.607 3.508v5c.402-1.654 2.801-2.89 6.243-3.725.648-.829.611-2.945 1.486-3.084 1.425-1.245 1.652-2.54 2.585-2.565.878-.025 1.684 1.12 2.358 2.074.524.74 1.307 2.217 2.219 2.38 1.079.192.742.098 1.546.321m6.611-.379c8.516.357 16.279 2.053 16.952 4.978v-5c-.326-2.882-7.657-4.607-16.384-4.949" style="display:inline;fill:#b10dc9;fill-opacity:.333333;stroke:none;stroke-width:.264999;stroke-dasharray:none;stroke-opacity:1" transform="matrix(-.1383 1.2102 -1.75425 -.0954 65.319 39.938)"/>
      <path d="M-10.519 28.56c4.833.433 10.29.41 15.026-.069l.021-5.068c-4.72.505-10.157.568-14.985.149M9.45 27.764c2.541-.859 6.879-2.13 7.04-3.896v-5c-.176 1.672-3.105 2.677-6.985 3.793m-25.032.24c-4.302-.806-7.44-2.136-7.983-4.033v5c.268 1.782 3.209 3.088 7.387 3.917" style="display:inline;fill:#b10dc9;fill-opacity:.333333;stroke:none;stroke-width:.264999;stroke-dasharray:none;stroke-opacity:1" transform="matrix(-.1383 1.2102 -1.75425 -.0954 65.319 39.938)"/>
      <path d="M14.96 21.946c.985.592 1.53 1.24 1.53 1.922 0 1.529-2.746 2.897-7.07 3.814m-4.92.768a74 74 0 0 1-8.01.418 76 76 0 0 1-7.003-.315m-5.625-.808c-4.5-.917-7.373-2.313-7.373-3.877 0-.656.506-1.283 1.424-1.857m2.445-1.1a26 26 0 0 1 2.18-.626m9.237-1.278s.42-.013 1.19.265m6.564-.347c5.38.205 10.056.946 13.127 1.999" style="display:inline;fill:none;stroke:#b10dc9;stroke-width:.264999;stroke-opacity:1" transform="matrix(-.1383 1.2102 -1.75425 -.0954 65.319 39.938)"/>
      <path d="M.091 13.932c9.619.363 16.398 2.43 16.398 4.936 0 1.517-2.705 2.877-6.976 3.794m-5.028.79a74 74 0 0 1-7.996.416c-2.45 0-4.797-.11-6.966-.312m-5.04-.689c-4.854-.912-7.994-2.364-7.994-4 0-1.354 2.165-2.586 5.68-3.488m9.688-1.377c.86-.05.708.36 1.606.337" style="display:inline;fill:none;stroke:#b10dc9;stroke-width:.264999;stroke-opacity:1" transform="matrix(-.1383 1.2102 -1.75425 -.0954 65.319 39.938)"/>
      <path d="M-23.51 18.868v5m40-5v5" style="display:inline;fill:none;fill-opacity:1;stroke:#b10dc9;stroke-width:.264999;stroke-dasharray:none;stroke-opacity:1" transform="matrix(-.1383 1.2102 -1.75425 -.0954 65.319 39.938)"/>
      <g style="display:inline">
        <path d="M25.05 144.527c1 0 .95 1.473 1.95 2.473l1 1c1 1 1.117 2.019 2.117 2.019m-.082-5.005c-.877 0-1.559.868-2.217 1.842m-.801 1.19c-.583.818-1.2 1.481-1.967 1.481" style="fill:none;fill-opacity:1;stroke:#b10dc9;stroke-width:.264999;stroke-linecap:round;stroke-dasharray:none;stroke-opacity:1" transform="matrix(-.1383 1.2102 1.75425 .0954 -217.125 -22.014)"/>
      </g>
      <g style="display:inline">
        <path d="M25.72 144.202c.973.24.28 1.798 1.28 2.798l1 1c1 1 1 2 2 2" style="fill:none;fill-opacity:1;stroke:#b10dc9;stroke-width:.264999;stroke-linecap:round;stroke-dasharray:none;stroke-opacity:1" transform="matrix(-.1383 1.2102 1.75425 .0954 -217.269 -28.05)"/>
        <path d="M30 145c-.869 0-1.534.858-2.153 1.792m-.886 1.323c-.5.674-1.02 1.145-1.645.985" style="fill:none;fill-opacity:1;stroke:#b10dc9;stroke-width:.264999;stroke-linecap:round;stroke-dasharray:none;stroke-opacity:1" transform="matrix(-.1383 1.2102 1.75425 .0954 -217.269 -28.05)"/>
      </g>
    </g>
    <g style="display:inline">
      <path d="M50.375 105.155c7.558.547 14.014 2.19 14.625 4.845v-5c-.308-2.722-7.41-4.398-15.552-4.864m-7.373-.09C33.629 100.32 25.882 101.912 25 105v5c.781-3.217 9.125-4.854 17.996-5.032" class="stroke-orange fill-orange" style="display:inline;fill:#ff851b;fill-opacity:.333333;stroke:none;stroke-width:.264999;stroke-dasharray:none;stroke-opacity:1" transform="matrix(-.0705 -1.0989 1.72903 -.0448 -104.238 89.339)"/>
      <path d="M25 105v5c.382 2.548 6.23 4.122 13.34 4.723.743.063 1.977-1.348 2.639-2.731.613-1.28 1.814-2.33 2.333-2.4.877-.118.996.943 2.667 2.4.743.648 1.374 2.13 2.248 2.525.896.404 2.528-2.193 2.718-2.482.609-.929 1.244-2.306 2.47-2.498 4.704-.735 11.585-1.92 11.564-4.545L65 110c-.101 1.907-6.815 4.822-11.555 4.535-.843-.051-1.756-1.734-2.5-2.5-1.75-1.8-1.836-2.642-2.711-2.443-.95.217-1.672 1.144-2.255 2.4-.402.866-1.821 2.71-2.704 2.532-1.09-.218-1.296-1.798-2.296-2.532-.696-.511-1.676-2.186-2.484-2.251-6.951-.558-12.74-2.099-13.495-4.741" class="stroke-orange fill-orange" style="display:inline;fill:#ff851b;fill-opacity:.333333;stroke:none;stroke-width:.264999;stroke-dasharray:none;stroke-opacity:1" transform="matrix(-.0705 -1.0989 1.72903 -.0448 -104.238 89.339)"/>
      <path d="M38.381 114.72C30.588 114.037 25 112.182 25 110c0-.656.505-1.283 1.424-1.857m37.046-.064c.986.591 1.53 1.24 1.53 1.921 0 2.009-4.738 3.74-11.573 4.536m-24.558-7.492c3.266-1.112 8.326-1.874 14.114-2.019m7.453.162c4.365.307 8.125.976 10.731 1.869" class="stroke-orange fill-orange" style="display:inline;fill:none;stroke:#ff851b;stroke-width:.264999;stroke-opacity:1" transform="matrix(-.0705 -1.0989 1.72903 -.0448 -104.238 89.339)"/>
      <path d="M38.442 109.725C30.617 109.046 25 107.187 25 105c0-2.505 7.37-4.58 16.986-4.944m7.588.075C58.415 100.648 65 102.632 65 105c0 2.01-4.744 3.743-11.586 4.537" class="stroke-orange fill-orange" style="display:inline;fill:none;stroke:#ff851b;stroke-width:.264999;stroke-opacity:1" transform="matrix(-.0705 -1.0989 1.72903 -.0448 -104.238 89.339)"/>
      <path d="M25 105v5m40-5v5" class="stroke-orange fill-orange" style="display:inline;fill:none;fill-opacity:1;stroke:#ff851b;stroke-width:.264999;stroke-dasharray:none;stroke-opacity:1" transform="matrix(-.0705 -1.0989 1.72903 -.0448 -104.238 89.339)"/>
      <path d="M24.997 145.19c1 0 1.003.81 2.003 1.81m1 1c1 1 1 2 2 2m0-5c-2 0-3.063 5.185-5.063 5.185" class="stroke-orange fill-orange" style="fill:none;fill-opacity:1;stroke:#ff851b;stroke-width:.264999;stroke-linecap:round;stroke-dasharray:none;stroke-opacity:1" transform="matrix(-.0705 -1.0989 1.72903 -.0448 -166.506 76.154)"/>
      <path d="M25 145c1 0 1 1 2 2m1 1c1 1 1 2 2 2m0-5c-2 0-3 5-5 5" class="stroke-orange fill-orange" style="fill:none;fill-opacity:1;stroke:#ff851b;stroke-width:.264999;stroke-linecap:round;stroke-dasharray:none;stroke-opacity:1" transform="matrix(-.0705 -1.0989 1.72903 -.0448 -167.21 65.165)"/>
      <path d="M25 145c1 0 1 1 2 2m1 1c1 1 1 2 2 2m0-5c-2 0-3 5-5 5" class="stroke-orange fill-orange" style="fill:none;fill-opacity:1;stroke:#ff851b;stroke-width:.264999;stroke-linecap:round;stroke-dasharray:none;stroke-opacity:1" transform="matrix(-.0705 -1.0989 1.72903 -.0448 -166.858 70.66)"/>
    </g>
    <path d="m139.726 51.72 8.454 1.043-.067 8.258-8.689-1.2z" class="stroke-comment fill-comment stroke-comment" style="fill:#616161;fill-opacity:.333333;stroke:#616161;stroke-width:.0649999;stroke-dasharray:none;stroke-opacity:1" transform="translate(-107.184 -22.183)"/>
    <g style="display:inline">
      <path d="M50.297 104.994c8.517.356 14.03 2.081 14.703 5.006v-5c-.327-2.883-6.7-4.792-15.43-5.133m-9.146.234c-8.801.184-14.868 1.782-15.424 4.899v5c.781-3.217 8.288-4.464 16.035-4.868" style="display:inline;fill:#ff4136;fill-opacity:.333333;stroke:none;stroke-width:.264999;stroke-dasharray:none;stroke-opacity:1" transform="matrix(.95329 .08784 .005 1.19422 -24.232 -80.486)"/>
      <path d="M25 105v5c.382 2.548 6.23 4.122 13.34 4.723.743.063 1.963-1.855 2.567-2.56 1.035-.164 1.417-2.576 2.538-2.443.877-.118 1.115.54 2.405 2.343.334.466.762 1.762 2.462 2.636.931.314 2.312-2.534 2.633-2.664 1.243-.505 1.116-2.264 2.47-2.498 4.691-.81 11.585-1.92 11.564-4.545L65 110c-.131 2.179-6.121 4.095-11.555 4.535-.843-.051-1.975-1.456-2.5-2.5-1.129-2.241-2.324-2.285-2.5-2.315-.773-.133-1.717 2.132-2.595 2.343-.449.38-1.523 2.834-2.405 2.657-2.35-1-2.205-2.231-2.538-2.558-.348-.337-.697-2.083-2.412-2.421-6.951-.558-12.74-2.099-13.495-4.741" style="display:inline;fill:#ff4136;fill-opacity:.333333;stroke:none;stroke-width:.264999;stroke-dasharray:none;stroke-opacity:1" transform="matrix(.95329 .08784 .005 1.19422 -24.232 -80.486)"/>
      <path d="M38.381 114.72C30.588 114.037 25 112.182 25 110c0-.656.505-1.283 1.424-1.857m37.046-.064c.986.591 1.53 1.24 1.53 1.921 0 2.009-4.738 3.74-11.573 4.536m-24.558-7.492c3.266-1.112 6.486-1.733 12.274-1.878m9.213-.192c5.378.205 7.974.812 11.045 1.864" style="display:inline;fill:none;stroke:#ff4136;stroke-width:.264999;stroke-opacity:1" transform="matrix(.95329 .08784 .005 1.19422 -24.232 -80.486)"/>
      <path d="M38.442 109.725C30.617 109.046 25 107.187 25 105c0-2.593 5.34-4.641 15.447-4.892m9.069-.256C59.142 100.214 65 102.492 65 105c0 2.01-4.744 3.743-11.586 4.537" style="display:inline;fill:none;stroke:#ff4136;stroke-width:.264999;stroke-opacity:1" transform="matrix(.95329 .08784 .005 1.19422 -24.232 -80.486)"/>
      <path d="M25 105v5m40-5v5" style="display:inline;fill:none;fill-opacity:1;stroke:#ff4136;stroke-width:.264999;stroke-dasharray:none;stroke-opacity:1" transform="matrix(.95329 .08784 .005 1.19422 -24.232 -80.486)"/>
      <path d="M24.937 145c1 0 1.063 1 2.063 2m1 1c1 1 1 2 2 2m0-5c-2 0-3.003 4.995-5.003 4.995" style="fill:none;fill-opacity:1;stroke:#ff4136;stroke-width:.264999;stroke-linecap:round;stroke-dasharray:none;stroke-opacity:1" transform="matrix(.95329 .08784 -.005 -1.19422 -10.115 230.858)"/>
      <path d="M25 145c1 0 1 1 2 2m1 1c1 1 .97 2.182 1.97 2.182m.03-4.997c-2 0-3 4.815-5 4.815" style="fill:none;fill-opacity:1;stroke:#ff4136;stroke-width:.264999;stroke-linecap:round;stroke-dasharray:none;stroke-opacity:1" transform="matrix(.95329 .08784 -.005 -1.19422 -.582 231.736)"/>
      <path d="M25 145c1 0 1 1 2 2m1 1c1 1 1 2 2 2m0-5c-2 0-3 5-5 5" style="fill:none;fill-opacity:1;stroke:#ff4136;stroke-width:.264999;stroke-linecap:round;stroke-dasharray:none;stroke-opacity:1" transform="matrix(.95329 .08784 -.005 -1.19422 -5.348 231.297)"/>
    </g>
    <g style="display:inline">
      <path d="M50.307 104.873c8.518.357 14.02 2.202 14.693 5.127v-5c-.327-2.883-4.252-4.627-12.983-4.968m-10.053-.012c-8.801.183-16.05 1.779-16.964 4.98v5c.781-3.217 10.576-5.027 15.282-4.624" class="stroke-green fill-green" style="display:inline;fill:#2ecc40;fill-opacity:.331667;stroke:none;stroke-width:.264999;stroke-dasharray:none;stroke-opacity:1" transform="matrix(.84826 .11267 -.13176 1.28581 -3.533 -115.506)"/>
      <path d="M25 105v5c.382 2.548 6.23 4.122 13.34 4.723.743.063 1.977-1.348 2.639-2.731.613-1.28 1.814-2.33 2.333-2.4.877-.118.996.943 2.667 2.4.743.648 1.374 2.13 2.248 2.525.896.404 2.528-2.193 2.718-2.482.609-.929 1.244-2.306 2.47-2.498 4.704-.735 11.585-1.92 11.564-4.545L65 110c-.036 2.062-5.88 3.988-11.555 4.535-.846-.025-1.756-1.734-2.5-2.5-1.75-1.8-1.836-2.642-2.711-2.443-.95.217-1.672 1.144-2.255 2.4-.402.866-1.821 2.71-2.704 2.532-1.09-.218-1.296-1.798-2.296-2.532-.696-.511-1.676-2.186-2.484-2.251-6.951-.558-12.74-2.099-13.495-4.741" class="stroke-green fill-green" style="display:inline;fill:#2ecc40;fill-opacity:.331667;stroke:none;stroke-width:.264999;stroke-dasharray:none;stroke-opacity:1" transform="matrix(.84826 .11267 -.13176 1.28581 -3.533 -115.506)"/>
      <path d="M38.381 114.72C30.588 114.037 25 112.182 25 110c0-.656.505-1.283 1.424-1.857m37.046-.064c.986.591 1.53 1.24 1.53 1.921 0 2.009-4.738 3.74-11.573 4.536m-24.558-7.492c3.266-1.112 5.618-1.626 11.406-1.771m10.064-.405c5.38.205 8.04.91 11.11 1.961" class="stroke-green fill-green" style="display:inline;fill:none;stroke:#2ecc40;stroke-width:.264999;stroke-opacity:1" transform="matrix(.84826 .11267 -.13176 1.28581 -3.533 -115.506)"/>
      <path d="M38.442 109.725C30.617 109.046 25 107.187 25 105c0-2.593 6.887-4.785 16.995-5.035m9.965.079C61.586 100.405 65 102.493 65 105c0 2.01-4.744 3.743-11.586 4.537" class="stroke-green fill-green" style="display:inline;fill:none;stroke:#2ecc40;stroke-width:.264999;stroke-opacity:1" transform="matrix(.84826 .11267 -.13176 1.28581 -3.533 -115.506)"/>
      <path d="M25 105v5m40-5v5" class="stroke-green fill-green" style="display:inline;fill:none;fill-opacity:1;stroke:#2ecc40;stroke-width:.264999;stroke-dasharray:none;stroke-opacity:1" transform="matrix(.84826 .11267 -.13176 1.28581 -3.533 -115.506)"/>
      <path d="M24.997 145.19c1 0 1.003.81 2.003 1.81m1 1c1 1 1 2 2 2m0-5c-2 0-3.063 5.185-5.063 5.185" class="stroke-green fill-green" style="fill:none;fill-opacity:1;stroke:#2ecc40;stroke-width:.264999;stroke-linecap:round;stroke-dasharray:none;stroke-opacity:1" transform="matrix(.84826 .11267 -.13176 1.28581 12.545 -159.593)"/>
      <path d="M25 145c1 0 1 1 2 2m1 1c1 1 1 2 2 2m0-5c-2 0-3 5-5 5" class="stroke-green fill-green" style="fill:none;fill-opacity:1;stroke:#2ecc40;stroke-width:.264999;stroke-linecap:round;stroke-dasharray:none;stroke-opacity:1" transform="matrix(.84826 .11267 -.13176 1.28581 21.027 -158.466)"/>
      <path d="M25 145c1 0 1 1 2 2m1 1c1 1 1 2 2 2m0-5c-2 0-3 5-5 5" class="stroke-green fill-green" style="fill:none;fill-opacity:1;stroke:#2ecc40;stroke-width:.264999;stroke-linecap:round;stroke-dasharray:none;stroke-opacity:1" transform="matrix(.84826 .11267 -.13176 1.28581 16.786 -159.03)"/>
    </g>
    <path d="m156.279 36.62 8.45.054.302 8.408-8.698-.054z" class="stroke-comment fill-comment stroke-comment" style="display:inline;fill:#616161;fill-opacity:.333333;stroke:#616161;stroke-width:.065;stroke-dasharray:none;stroke-opacity:1" transform="translate(-107.184 -22.183)"/>
    <path d="m172.735 52.562.175 8.356 8.672-1.335-.253-8.34zM126.088 39.8l-2.272 6.835 8.858.568 2.018-6.236zm-4.159 24.933.602 6.227 8.995.586-.812-6.312z" class="stroke-comment fill-comment stroke-comment" style="fill:#616161;fill-opacity:.333333;stroke:#616161;stroke-width:.0649999;stroke-dasharray:none;stroke-opacity:1" transform="translate(-107.184 -22.183)"/>
  </g>
</svg>
