<svg xmlns="http://www.w3.org/2000/svg" viewBox="0 0 83.175 57.7">
  <g transform="translate(-38.076 -21.808)">
    <path d="m75.634 58.604 44.924 19.287" class="stroke-comment fill-comment" style="fill:none;stroke:#616161;stroke-width:3.51885;stroke-dasharray:none;stroke-opacity:1"/>
    <ellipse cx="49.152" cy="82.419" class="stroke-comment fill-comment" rx="3.901" ry="3.848" style="fill:#616161;fill-opacity:1;stroke:none;stroke-width:.251946;stroke-dasharray:none;stroke-opacity:1" transform="rotate(-21.717)"/>
    <path d="M-6.556 14.357c-.845.03-1.032-.487-1.894-.317-.958.188-1.34 1.839-2.389 2.528-1.096.72-1.597 3.046-2.447 2.96-.807-.082-1.631-.778-2.496-2.47-.346-.244-.452-1.564-2.122-1.698-3.052.818-5.17 1.98-5.607 3.508v5c.402-1.654 2.801-2.89 6.243-3.725.648-.829.611-2.945 1.486-3.084 1.425-1.245 1.652-2.54 2.585-2.565.878-.025 1.684 1.12 2.358 2.074.524.74 1.307 2.217 2.219 2.38 1.079.192.742.098 1.546.321m6.611-.379c8.516.357 16.279 2.053 16.952 4.978v-5c-.326-2.882-7.657-4.607-16.384-4.949" style="display:inline;fill:#b10dc9;fill-opacity:.333333;stroke:none;stroke-width:.264999;stroke-dasharray:none;stroke-opacity:1" transform="matrix(2.01946 .0194 .18409 2.02338 82.362 13.009)"/>
    <path d="M-10.519 28.56c4.833.433 10.29.41 15.026-.069l.021-5.068c-4.72.505-10.157.568-14.985.149M9.45 27.764c2.541-.859 6.879-2.13 7.04-3.896v-5c-.176 1.672-3.105 2.677-6.985 3.793m-25.032.24c-4.302-.806-7.44-2.136-7.983-4.033v5c.268 1.782 3.209 3.088 7.387 3.917" style="display:inline;fill:#b10dc9;fill-opacity:.333333;stroke:none;stroke-width:.264999;stroke-dasharray:none;stroke-opacity:1" transform="matrix(2.01946 .0194 .18409 2.02338 82.362 13.009)"/>
    <path d="M14.96 21.946c.985.592 1.53 1.24 1.53 1.922 0 1.529-2.746 2.897-7.07 3.814m-4.92.768a74 74 0 0 1-8.01.418 76 76 0 0 1-7.003-.315m-5.625-.808c-4.5-.917-7.373-2.313-7.373-3.877 0-.656.506-1.283 1.424-1.857m2.445-1.1a26 26 0 0 1 2.18-.626m9.237-1.278s.42-.013 1.19.265m6.564-.347c5.38.205 10.056.946 13.127 1.999" style="display:inline;fill:none;stroke:#b10dc9;stroke-width:.264999;stroke-opacity:1" transform="matrix(2.01946 .0194 .18409 2.02338 82.362 13.009)"/>
    <path d="m39.715 73.454 35.919-14.85 7.47-36.442" class="stroke-comment fill-comment" style="fill:none;stroke:#616161;stroke-width:3.51885;stroke-dasharray:none;stroke-opacity:1"/>
    <path d="M.091 13.932c9.619.363 16.398 2.43 16.398 4.936 0 1.517-2.705 2.877-6.976 3.794m-5.028.79a74 74 0 0 1-7.996.416c-2.45 0-4.797-.11-6.966-.312m-5.04-.689c-4.854-.912-7.994-2.364-7.994-4 0-1.354 2.165-2.586 5.68-3.488m9.688-1.377c.86-.05.708.36 1.606.337" style="display:inline;fill:none;stroke:#b10dc9;stroke-width:.264999;stroke-opacity:1" transform="matrix(2.01946 .0194 .18409 2.02338 82.362 13.009)"/>
    <path d="M-23.51 18.868v5m40-5v5" style="display:inline;fill:none;fill-opacity:1;stroke:#b10dc9;stroke-width:.264999;stroke-dasharray:none;stroke-opacity:1" transform="matrix(2.01946 .0194 .18409 2.02338 82.362 13.009)"/>
    <g style="display:inline">
      <path d="M25.05 144.527c1 0 .95 1.473 1.95 2.473m1 1c1 1 1.117 2.019 2.117 2.019m-.082-5.005c-2 0-2.985 4.513-4.985 4.513" style="fill:none;fill-opacity:1;stroke:#b10dc9;stroke-width:.264999;stroke-linecap:round;stroke-dasharray:none;stroke-opacity:1" transform="matrix(2.01946 .0194 -.18409 -2.02338 35.292 344.145)"/>
    </g>
    <g style="display:inline">
      <path d="M25.72 144.202c.973.24.28 1.798 1.28 2.798m1 1c1 1 1 2 2 2m0-5c-2 0-2.922 4.549-4.684 4.1" style="fill:none;fill-opacity:1;stroke:#b10dc9;stroke-width:.264999;stroke-linecap:round;stroke-dasharray:none;stroke-opacity:1" transform="matrix(2.01946 .0194 -.18409 -2.02338 25.382 345.005)"/>
    </g>
    <text x="60.913" y="55.971" class="stroke-comment fill-comment" style="font-size:9px;font-family:&quot;Roboto Condensed&quot;;-inkscape-font-specification:&quot;Roboto Condensed, &quot;;fill:#616161"><tspan x="60.913" y="55.971" class="stroke-comment fill-comment" style="fill:#616161">-2</tspan>        </text>
  </g>
</svg>
