<svg xmlns="http://www.w3.org/2000/svg" viewBox="0 0 87.366 59.179">
  <g style="display:inline">
    <path d="M-6.465 14.306c-.844.03-1.22-.033-1.86.214-.429.167-1.453 1.362-2.514 2.048-1.103.713-1.597 3.046-2.447 2.96-.807-.082-1.631-.778-2.496-2.47-.346-.244-.452-1.564-2.122-1.698-3.052.818-5.17 1.98-5.607 3.508v5c.402-1.654 2.801-2.89 6.243-3.725.648-.829.611-2.945 1.486-3.084 1.425-1.245 1.652-2.54 2.585-2.565.878-.025 1.684 1.12 2.358 2.074.524.74 1.433 2.04 2.344 2.203 1.08.192.617.275 1.421.498l6.611-.379c8.516.357 16.279 2.053 16.952 4.978v-5c-.169-1.492-2.355-2.368-5.5-3.208-2.93-.783-6.675-1.576-10.884-1.741" style="display:inline;fill:#b10dc9;fill-opacity:.333333;stroke:none;stroke-width:.264999;stroke-dasharray:none;stroke-opacity:1" transform="matrix(-.1383 1.2102 -1.75425 -.0954 110.725 31.316)"/>
    <path d="M-23.51 18.868v5m40-5v5" style="display:inline;fill:none;fill-opacity:1;stroke:#b10dc9;stroke-width:.264999;stroke-dasharray:none;stroke-opacity:1" transform="matrix(-.1383 1.2102 -1.75425 -.0954 110.725 31.316)"/>
    <path d="M-10.519 28.56c4.833.433 8.203.664 12.94.185l.902-5.208c-4.72.506-8.952.454-13.78.035l-5.071-.672c-4.302-.805-7.44-2.135-7.983-4.032v5c.268 1.782 3.209 3.088 7.387 3.917m26.326-.254c3.328-.79 6.126-1.896 6.287-3.663v-5c-.176 1.672-1.431 2.309-5.311 3.425" style="display:inline;fill:#b10dc9;fill-opacity:.333333;stroke:none;stroke-width:.264999;stroke-dasharray:none;stroke-opacity:1" transform="matrix(-.1383 1.2102 -1.75425 -.0954 110.725 31.316)"/>
    <path d="M14.96 21.946c.985.592 1.53 1.24 1.53 1.922 0 1.529-1.95 2.734-6.275 3.651m-7.79 1.221c-2.453.269-3.087.128-5.936.128-2.463 0-5.913-.214-7.002-.315-1.09-.102-3.376-.35-5.625-.808s-7.373-2.313-7.373-3.877c0-.656.506-1.283 1.424-1.857m2.445-1.1a26 26 0 0 1 2.18-.626m10.13-1.123c1.739.293 1.893-.019 6.86-.237s10.057.946 13.128 1.999" class="stroke-comment fill-comment" style="display:inline;fill:none;stroke:#616161;stroke-width:.264999;stroke-opacity:1" transform="matrix(-.1383 1.2102 -1.75425 -.0954 110.725 31.316)"/>
    <path d="M3.304 23.562c-2.45.268-3.972.306-6.815.306-2.45 0-5.881-.211-6.966-.312-1.084-.1-2.612-.233-5.04-.689-2.426-.456-7.994-2.364-7.994-4 0-1.354 2.165-2.586 5.68-3.488m10.125-1.033c.449-.011 3.071-.34 7.797-.414 4.727-.073 16.398 2.43 16.398 4.936 0 1.517-1.026 2.468-5.297 3.385" class="stroke-comment fill-comment" style="display:inline;fill:none;stroke:#616161;stroke-width:.264999;stroke-opacity:1" transform="matrix(-.1383 1.2102 -1.75425 -.0954 110.725 31.316)"/>
    <g style="display:inline">
      <path d="M25.05 144.527c1 0 .95 1.473 1.95 2.473l1 1c1 1 1.912 1.654 2.643 1.679m.337-4.829c-1.083.26-2.625.878-3.054 1.848m-.998 1.47c-.557.761-1.15 1.36-1.878 1.36" class="stroke-comment fill-comment" style="fill:none;fill-opacity:1;stroke:#616161;stroke-width:.264999;stroke-linecap:round;stroke-dasharray:none;stroke-opacity:1" transform="matrix(-.1383 1.2102 1.75425 .0954 -171.719 -30.635)"/>
    </g>
    <g style="display:inline">
      <path d="M25.72 144.202c.973.24.28 1.798 1.78 3.298S29 150 30 150" class="stroke-comment fill-comment" style="fill:none;fill-opacity:1;stroke:#616161;stroke-width:.264999;stroke-linecap:round;stroke-dasharray:none;stroke-opacity:1" transform="matrix(-.1383 1.2102 1.75425 .0954 -171.863 -36.671)"/>
      <path d="M30 145c-.878 0-1.549.877-2.174 1.824m-.75 1.133c-.536.756-1.087 1.315-1.76 1.143" class="stroke-comment fill-comment" style="fill:none;fill-opacity:1;stroke:#616161;stroke-width:.264999;stroke-linecap:round;stroke-dasharray:none;stroke-opacity:1" transform="matrix(-.1383 1.2102 1.75425 .0954 -171.863 -36.671)"/>
    </g>
    <path d="m121.749 62.335 1.047 9.552 9.116 1.656-1.174-9.718z" class="stroke-comment fill-comment stroke-comment" style="display:inline;fill:#616161;fill-opacity:.333333;stroke:#616161;stroke-width:.0649999;stroke-dasharray:none;stroke-opacity:1" transform="translate(-61.778 -30.804)"/>
  </g>
  <g style="display:inline">
    <path d="M-6.465 14.306c-.844.03-1.22-.033-1.86.214-.429.167-1.453 1.362-2.514 2.048-1.103.713-1.597 3.046-2.447 2.96-.807-.082-1.631-.778-2.496-2.47-.346-.244-.452-1.564-2.122-1.698-3.052.818-5.17 1.98-5.607 3.508v5c.402-1.654 2.801-2.89 6.243-3.725.648-.829.611-2.945 1.486-3.084 1.425-1.245 1.652-2.54 2.585-2.565.878-.025 1.684 1.12 2.358 2.074.524.74 1.433 2.04 2.344 2.203 1.08.192.617.275 1.421.498l6.611-.379c8.516.357 16.279 2.053 16.952 4.978v-5c-.19-1.682-3.033-2.368-6.719-3.488-2.626-.8-6.03-1.32-9.665-1.461" style="display:inline;fill:#b10dc9;fill-opacity:.333333;stroke:none;stroke-width:.264999;stroke-dasharray:none;stroke-opacity:1" transform="matrix(.1383 1.2102 1.75425 -.0954 -23.359 30.894)"/>
    <path d="M16.49 18.868v5m-40-5v5" style="display:inline;fill:none;fill-opacity:1;stroke:#b10dc9;stroke-width:.264999;stroke-dasharray:none;stroke-opacity:1" transform="matrix(.1383 1.2102 1.75425 -.0954 -23.359 30.894)"/>
    <path d="M-10.519 28.56c4.833.433 8.295.548 13.032.07l.768-5.059c-4.72.506-8.91.42-13.738 0l-5.071-.67c-4.302-.806-7.44-2.136-7.983-4.033v5c.268 1.782 3.209 3.088 7.387 3.917m26.522-.313c2.54-.859 5.93-1.837 6.091-3.604v-5c-.15 1.43-2.194 2.443-5.246 3.384" style="display:inline;fill:#b10dc9;fill-opacity:.333333;stroke:none;stroke-width:.264999;stroke-dasharray:none;stroke-opacity:1" transform="matrix(.1383 1.2102 1.75425 -.0954 -23.359 30.894)"/>
    <path d="M14.96 21.946c.985.592 1.53 1.24 1.53 1.922 0 1.41-2.336 2.684-6.093 3.593M2.52 28.636c-1.904.15-3.93.232-6.032.232-2.463 0-5.913-.214-7.002-.315-1.09-.102-3.376-.35-5.625-.808s-7.373-2.313-7.373-3.877c0-.656.506-1.283 1.424-1.857m14.755-2.849c1.74.293 1.894-.019 6.862-.237 4.967-.218 10.056.946 13.127 1.999m-32.298-.013a26 26 0 0 1 2.18-.626" class="stroke-comment fill-comment" style="display:inline;fill:none;stroke:#616161;stroke-width:.264999;stroke-opacity:1" transform="matrix(.1383 1.2102 1.75425 -.0954 -23.359 30.894)"/>
    <path d="M3.275 23.573a76 76 0 0 1-6.786.295c-2.45 0-5.881-.211-6.966-.312-1.084-.1-2.612-.233-5.04-.689-2.426-.456-7.994-2.364-7.994-4 0-1.354 2.165-2.586 5.68-3.488m10.125-1.033c.449-.011 3.071-.34 7.797-.414 4.727-.073 16.398 2.43 16.398 4.936 0 1.3-1.984 2.484-5.236 3.373" class="stroke-comment fill-comment" style="display:inline;fill:none;stroke:#616161;stroke-width:.264999;stroke-opacity:1" transform="matrix(.1383 1.2102 1.75425 -.0954 -23.359 30.894)"/>
    <g style="display:inline">
      <path d="M25.05 144.527c1 0 .838 1.347 1.838 2.347M28 148c1 1 1.912 1.654 2.643 1.679m.337-4.829c-1.083.26-2.625.878-3.054 1.848l-.998 1.47c-.557.761-1.15 1.36-1.878 1.36" class="stroke-comment fill-comment" style="fill:none;fill-opacity:1;stroke:#616161;stroke-width:.264999;stroke-linecap:round;stroke-dasharray:none;stroke-opacity:1" transform="matrix(.1383 1.2102 -1.75425 .0954 259.085 -31.058)"/>
    </g>
    <g style="display:inline">
      <path d="M25.72 144.202c.776.19.493 1.22 1.106 2.39m1.408 1.736c.805 1.029.964 1.672 1.766 1.672m0-5c-.878 0-1.549.877-2.174 1.824l-.75 1.133c-.536.756-1.087 1.315-1.76 1.143" class="stroke-comment fill-comment" style="fill:none;fill-opacity:1;stroke:#616161;stroke-width:.264999;stroke-linecap:round;stroke-dasharray:none;stroke-opacity:1" transform="matrix(.1383 1.2102 -1.75425 .0954 259.229 -37.094)"/>
    </g>
    <path d="m121.907 62.442.944 9.613 9.073 1.532-1.207-9.73z" class="stroke-comment fill-comment stroke-comment" style="display:inline;fill:#616161;fill-opacity:.333333;stroke:#616161;stroke-width:.0649999;stroke-dasharray:none;stroke-opacity:1" transform="matrix(-1 0 0 1 149.144 -31.227)"/>
    <path d="m18.3 40.674 7.889-.432-.777-9.267-7.802.739Z" class="stroke-comment fill-comment stroke-comment" style="display:inline;fill:#616161;fill-opacity:.333333;stroke:#616161;stroke-width:.0444725;stroke-dasharray:none;stroke-opacity:1" transform="matrix(.1383 1.2102 1.75425 -.0954 -23.359 30.894)"/>
  </g>
  <g style="display:inline">
    <path d="M65 105v5m-40-5v5" class="stroke-green fill-green" style="display:inline;fill:none;fill-opacity:1;stroke:#2ecc40;stroke-width:.264999;stroke-dasharray:none;stroke-opacity:1" transform="translate(-42.783 -160.117)scale(1.90473)"/>
    <path d="M40.685 109.883C32.795 109.49 25.833 107.915 25 105v5c.422 2.81 7.496 4.437 15.581 4.878m8.581.028c8.286-.394 15.575-2.03 15.838-4.906v-5c-.29 2.757-7.666 4.443-16.013 4.872" class="stroke-green fill-green" style="display:inline;fill:#2ecc40;fill-opacity:.331667;stroke:none;stroke-width:.264999;stroke-dasharray:none;stroke-opacity:1" transform="translate(-42.783 -160.117)scale(1.90473)"/>
    <path d="M32.178 101.232c-3.997.778-6.66 1.925-7.178 3.768v5c.408-1.682 2.965-2.92 6.504-3.735m4.742-.784a73 73 0 0 1 6.449-.426c.923-.022 1.955-1.722 2.45-2.502.625.247 1.628 2.5 2.273 2.521 2.632.084 4.72.217 7.053.547l-.525-5.026a65 65 0 0 0-6.334-.543c-.82-.028-1.81 1.459-2.489 2.53-.523-.515-1.07-1.644-1.702-2.224a1.24 1.24 0 0 0-.953-.324c-2.012.134-3.794.269-5.723.5m22.491 5.93c3.227.84 5.428 2.075 5.764 3.536v-5c-.182-1.61-2.605-2.76-6.35-3.605" class="stroke-green fill-green" style="display:inline;fill:#2ecc40;fill-opacity:.331667;stroke:none;stroke-width:.264999;stroke-dasharray:none;stroke-opacity:1" transform="translate(-42.783 -160.117)scale(1.90473)"/>
    <path d="M40.57 114.877C31.656 114.373 25 112.38 25 110c0-.656.505-1.283 1.424-1.857m37.046-.064c.986.591 1.53 1.24 1.53 1.921 0 2.404-6.785 4.411-15.827 4.891m10.084-8.397q1.037.263 1.91.562m-13.535-2.013c2.464.081 4.787.274 6.883.558m-18.279-.097a70 70 0 0 1 6.408-.47m-13.775 2.01a27 27 0 0 1 2.604-.727m5.314-5.853a72 72 0 0 1 5.837-.426" class="stroke-comment fill-comment" style="display:inline;fill:none;stroke:#616161;stroke-width:.264999" transform="translate(-42.783 -160.117)scale(1.90473)"/>
    <path d="M40.685 109.883C31.56 109.419 25 107.418 25 105c0-1.515 2.8-2.875 7.143-3.794m26.52.22C62.518 102.34 65 103.606 65 105c0 2.417-6.86 4.433-15.978 4.899m-1.327-9.852c2.196.092 4.305.275 6.25.532" class="stroke-comment fill-comment" style="display:inline;fill:none;stroke:#616161;stroke-width:.264999" transform="translate(-42.783 -160.117)scale(1.90473)"/>
    <g style="display:inline;stroke:#ff4136">
      <path d="M25 145c1 0 1 1 2 2m1 1c1 1 1 2 2 2m0-5c-.815 0-1.463.83-2.081 1.813l-.856 1.399C26.425 149.242 25.844 150 25 150" class="stroke-comment fill-comment" style="fill:none;fill-opacity:1;stroke:#616161;stroke-width:.264999;stroke-linecap:round;stroke-dasharray:none;stroke-opacity:1" transform="translate(-9.141 -245.748)scale(1.90473)"/>
    </g>
  </g>
</svg>
