<?xml version="1.0" encoding="UTF-8" standalone="no"?>
<svg
   viewBox="0 0 330.958 239.249"
   version="1.1"
   id="svg6"
   sodipodi:docname="arborescent_knot.svg"
   inkscape:version="1.4.2 (ebf0e940d0, 2025-05-08)"
   xmlns:inkscape="http://www.inkscape.org/namespaces/inkscape"
   xmlns:sodipodi="http://sodipodi.sourceforge.net/DTD/sodipodi-0.dtd"
   xmlns="http://www.w3.org/2000/svg"
   xmlns:svg="http://www.w3.org/2000/svg">
  <defs
     id="defs6" />
  <sodipodi:namedview
     id="namedview6"
     pagecolor="#ffffff"
     bordercolor="#000000"
     borderopacity="0.25"
     inkscape:showpageshadow="2"
     inkscape:pageopacity="0.0"
     inkscape:pagecheckerboard="0"
     inkscape:deskcolor="#d1d1d1"
     inkscape:zoom="1.8181895"
     inkscape:cx="165.2743"
     inkscape:cy="119.6245"
     inkscape:window-width="2254"
     inkscape:window-height="1502"
     inkscape:window-x="0"
     inkscape:window-y="0"
     inkscape:window-maximized="1"
     inkscape:current-layer="g5" />
  <path
     d="M18.294 176.215c7.724-6.94 19.974-3.636 28.087-10.201m261.62-47.459C415.813 0-90.318 0 19.294 118.38m-1 57.835C-98.575 297 412.902 297 309 176.712"
     style="font-variation-settings:normal;opacity:1;vector-effect:none;fill:none;fill-opacity:1;stroke:#ff4136;stroke-width:2;stroke-linecap:butt;stroke-linejoin:round;stroke-miterlimit:4.1;stroke-dasharray:none;stroke-dashoffset:0;stroke-opacity:1;-inkscape-stroke:none"
     transform="translate(1.962 -28.617)"
     id="path1" />
  <path
     d="M42.48 229.147c5.858-7.64 11.263-11.208 17.02-10.958 5.512.24 11.381 3.982 16.78 11.002M42.6 265.705c5.536 6.726 11.429 10.145 16.9 10.32 5.799.185 11.172-3.275 16.899-10.277m163.833-36.676c10.051-7.979 19.43-2.267 27.43-10.707M240.35 265.63c8.588 7.205 21.985 2.59 28.313 10.892m-64.989-47.332c-4.935-6.808-10.516-11.854-18.258-11m-1 57.647c7.545 1.23 14.107-1.697 19.377-10.089m-90.956-36.676c4.77-4.733 8.368-11.105 16.686-10.883m-16.567 47.441c4.694 5.14 8.38 11.665 17.567 10.64"
     style="font-variation-settings:normal;opacity:1;vector-effect:none;fill:none;fill-opacity:1;stroke:#ff4136;stroke-width:2;stroke-linecap:butt;stroke-linejoin:round;stroke-miterlimit:4.1;stroke-dasharray:none;stroke-dashoffset:0;stroke-opacity:1;-inkscape-stroke:none"
     transform="translate(42.3 -128.427)"
     id="path2" />
  <path
     d="M19.294 118.38c8.142 8.732 20.406 4.563 26.967 11.076"
     style="font-variation-settings:normal;opacity:1;vector-effect:none;fill:none;fill-opacity:1;stroke:#ff4136;stroke-width:2;stroke-linecap:butt;stroke-linejoin:round;stroke-miterlimit:4.1;stroke-dasharray:none;stroke-dashoffset:0;stroke-opacity:1;-inkscape-stroke:none"
     transform="translate(1.962 -28.617)"
     id="path3" />
  <g
     style="stroke-width:2;stroke-dasharray:none"
     id="g6">
    <path
       d="M90.61 147.6a25.926 25.926 0 0 1-25.926 25.925A25.926 25.926 0 0 1 38.76 147.6a25.926 25.926 0 0 1 25.925-25.926A25.926 25.926 0 0 1 90.61 147.6m70.272 0a25.926 25.926 0 0 1-25.926 25.925 25.926 25.926 0 0 1-25.925-25.925 25.926 25.926 0 0 1 25.925-25.926 25.926 25.926 0 0 1 25.926 25.926m127.394 0a25.926 25.926 0 0 1-25.925 25.925 25.926 25.926 0 0 1-25.926-25.925 25.926 25.926 0 0 1 25.926-25.926 25.926 25.926 0 0 1 25.925 25.926"
       class="stroke-orange fill-orange"
       style="fill:none;stroke:#616161;stroke-width:2;stroke-linecap:round;stroke-linejoin:round;stroke-miterlimit:4.1;stroke-dasharray:none;stroke-opacity:1"
       transform="translate(1.962 -28.617)"
       id="path4" />
    <g
       style="stroke-width:2;stroke-dasharray:none"
       id="g5">
      <path
         d="M148.267 247.41a4.89 4.89 0 0 1-4.89 4.89 4.89 4.89 0 0 1-4.889-4.89 4.89 4.89 0 0 1 4.89-4.89 4.89 4.89 0 0 1 4.889 4.89m14.937 0a4.89 4.89 0 0 1-4.889 4.89 4.89 4.89 0 0 1-4.89-4.89 4.89 4.89 0 0 1 4.89-4.89 4.89 4.89 0 0 1 4.89 4.89m14.937 0a4.89 4.89 0 0 1-4.89 4.89 4.89 4.89 0 0 1-4.888-4.89 4.89 4.89 0 0 1 4.889-4.89 4.89 4.89 0 0 1 4.89 4.89"
         class="stroke-orange fill-orange stroke-orange"
         style="fill:#616161;fill-opacity:1;stroke:#616161;stroke-width:2;stroke-linecap:round;stroke-linejoin:round;stroke-miterlimit:4.1;stroke-dasharray:none;stroke-opacity:1"
         transform="translate(42.3 -128.427)"
         id="path5" />
    </g>
    <path
       d="M327.997 147.6a164.48 60.78 0 0 1-164.48 60.78A164.48 60.78 0 0 1-.961 147.6a164.48 60.78 0 0 1 164.48-60.78 164.48 60.78 0 0 1 164.479 60.78"
       class="stroke-orange fill-orange"
       style="fill:none;stroke:#616161;stroke-width:2;stroke-linecap:round;stroke-linejoin:round;stroke-miterlimit:4.1;stroke-dasharray:none;stroke-opacity:1"
       transform="translate(1.962 -28.617)"
       id="path6" />
  </g>
</svg>
