<svg xmlns="http://www.w3.org/2000/svg" viewBox="0 0 102.364 60.433">
  <g transform="translate(1.963 -23.1)">
    <path d="m10 35 20 20-20 20m20-20h40l20-20M70 55l20.094 20.094" class="stroke-comment fill-comment" style="fill:none;stroke:#616161;stroke-width:1.065;stroke-dasharray:none;stroke-opacity:1"/>
    <text x="6.098" y="34.446" class="stroke-comment fill-comment stroke-comment" style="font-size:3.175px;fill:#616161;fill-opacity:1;stroke:#616161;stroke-width:.265;stroke-dasharray:none;stroke-opacity:1">
      <tspan x="6.098" y="34.446" class="stroke-comment fill-comment stroke-comment" style="fill:#616161;fill-opacity:1;stroke:#616161;stroke-width:.265;stroke-dasharray:none;stroke-opacity:1">3</tspan>
    </text>
    <text x="29.749" y="51.866" class="stroke-comment fill-comment stroke-comment" style="font-size:3.175px;fill:#616161;fill-opacity:1;stroke:#616161;stroke-width:.265;stroke-dasharray:none;stroke-opacity:1">
      <tspan x="29.749" y="51.866" class="stroke-comment fill-comment stroke-comment" style="fill:#616161;fill-opacity:1;stroke:#616161;stroke-width:.265;stroke-dasharray:none;stroke-opacity:1">2</tspan>
    </text>
    <text x="5" y="75" class="stroke-comment fill-comment stroke-comment" style="font-size:3.175px;fill:#616161;fill-opacity:1;stroke:#616161;stroke-width:.265;stroke-dasharray:none;stroke-opacity:1">
      <tspan x="5" y="75" class="stroke-comment fill-comment stroke-comment" style="fill:#616161;fill-opacity:1;stroke:#616161;stroke-width:.265;stroke-dasharray:none;stroke-opacity:1">-3</tspan>
    </text>
    <text x="67.725" y="60.495" class="stroke-comment fill-comment stroke-comment" style="font-size:3.175px;fill:#616161;fill-opacity:1;stroke:#616161;stroke-width:.265;stroke-dasharray:none;stroke-opacity:1">
      <tspan x="67.725" y="60.495" class="stroke-comment fill-comment stroke-comment" style="fill:#616161;fill-opacity:1;stroke:#616161;stroke-width:.265;stroke-dasharray:none;stroke-opacity:1">0</tspan>
    </text>
    <text x="93.026" y="33.867" class="stroke-comment fill-comment stroke-comment" style="font-size:3.175px;fill:#616161;fill-opacity:1;stroke:#616161;stroke-width:.265;stroke-dasharray:none;stroke-opacity:1">
      <tspan x="93.026" y="33.867" class="stroke-comment fill-comment stroke-comment" style="fill:#616161;fill-opacity:1;stroke:#616161;stroke-width:.265;stroke-dasharray:none;stroke-opacity:1">4</tspan>
    </text>
    <text x="93.073" y="74.86" class="stroke-comment fill-comment stroke-comment" style="font-size:3.175px;fill:#616161;fill-opacity:1;stroke:#616161;stroke-width:.265;stroke-dasharray:none;stroke-opacity:1">
      <tspan x="93.073" y="74.86" class="stroke-comment fill-comment stroke-comment" style="fill:#616161;fill-opacity:1;stroke:#616161;stroke-width:.265;stroke-dasharray:none;stroke-opacity:1">3</tspan>
    </text>
    <ellipse cx="10.261" cy="35.079" class="stroke-comment fill-comment" rx="1.181" ry="1.165" style="fill:#616161;fill-opacity:1;stroke:none;stroke-width:.0762529;stroke-dasharray:none;stroke-opacity:1"/>
    <ellipse cx="29.721" cy="54.976" class="stroke-comment fill-comment" rx="1.181" ry="1.165" style="fill:#616161;fill-opacity:1;stroke:none;stroke-width:.0762529;stroke-dasharray:none;stroke-opacity:1"/>
    <ellipse cx="10.199" cy="74.805" class="stroke-comment fill-comment" rx="1.181" ry="1.165" style="fill:#616161;fill-opacity:1;stroke:none;stroke-width:.0762529;stroke-dasharray:none;stroke-opacity:1"/>
    <ellipse cx="70.173" cy="54.996" class="stroke-comment fill-comment" rx="1.181" ry="1.165" style="fill:#616161;fill-opacity:1;stroke:none;stroke-width:.0762529;stroke-dasharray:none;stroke-opacity:1"/>
    <ellipse cx="90.312" cy="75.038" class="stroke-comment fill-comment" rx="1.181" ry="1.165" style="fill:#616161;fill-opacity:1;stroke:none;stroke-width:.0762529;stroke-dasharray:none;stroke-opacity:1"/>
    <ellipse cx="90.188" cy="34.871" class="stroke-comment fill-comment" rx="1.181" ry="1.165" style="fill:#616161;fill-opacity:1;stroke:none;stroke-width:.0762529;stroke-dasharray:none;stroke-opacity:1"/>
  </g>
  <g style="display:inline">
    <path d="M65.61 142.594v5c.287 1.91 3.647 3.274 8.31 4.09.838.147 2.352-.908 2.788-1.962.303.46 1.425 2.526 2.243 2.595.742.063 1.976-1.348 2.638-2.73.614-1.282 1.814-2.33 2.333-2.4.878-.118.996.942 2.667 2.4.744.648 1.375 2.13 2.248 2.524.896.404 2.528-2.193 2.718-2.482.61-.928 1.244-2.306 2.47-2.497 4.704-.736 11.585-1.92 11.564-4.546l.021 5.008c-.1 1.907-6.814 4.822-11.555 4.535-.842-.05-1.756-1.734-2.5-2.5-1.749-1.8-1.836-2.641-2.71-2.442-.951.216-1.673 1.144-2.256 2.4-.402.865-1.82 2.709-2.704 2.532-1.089-.219-1.296-1.798-2.296-2.533-.696-.51-1.675-2.186-2.483-2.25-.786-.064-1.782 1.367-2.398 2.386-.667-.588-1.581-2.78-1.963-2.896-4.885-.777-8.545-2.169-9.135-4.232" class="stroke-blue fill-blue" style="display:inline;fill:#0074d9;fill-opacity:.333333;stroke:none;stroke-width:.264999;stroke-dasharray:none;stroke-opacity:1" transform="matrix(.52561 .00112 -.0043 .50726 47.397 -69.858)"/>
    <path d="M91.75 142.809c7.224.6 13.27 2.22 13.86 4.785v-5c-.286-2.525-6.417-4.15-13.803-4.743m-9.651-.192c-8.238.322-15.682 1.912-16.546 4.935v5c.737-3.033 8.387-4.605 16.67-4.93" class="stroke-blue fill-blue" style="display:inline;fill:#0074d9;fill-opacity:.333333;stroke:none;stroke-width:.264999;stroke-dasharray:none;stroke-opacity:1" transform="matrix(.52561 .00112 -.0043 .50726 47.397 -69.858)"/>
    <path d="M24.997 145.19c1 0 1.003.81 2.003 1.81m1 1c1 1 1 2 2 2m0-5c-2 0-3.063 5.185-5.063 5.185" class="stroke-blue fill-blue" style="fill:none;fill-opacity:1;stroke:#0074d9;stroke-width:.264999;stroke-linecap:round;stroke-dasharray:none;stroke-opacity:1" transform="matrix(.52561 .00112 -.0043 .50726 75.8 -68.718)"/>
    <path d="M25 145c1 0 1 1 2 2m1 1c1 1 1 2 2 2m0-5c-2 0-3 5-5 5" class="stroke-blue fill-blue" style="fill:none;fill-opacity:1;stroke:#0074d9;stroke-width:.264999;stroke-linecap:round;stroke-dasharray:none;stroke-opacity:1" transform="matrix(.52561 .00112 -.0043 .50726 81.056 -68.707)"/>
    <path d="M25 145c1 0 1 1 2 2m1 1c1 1 1 2 2 2m0-5c-2 0-3 5-5 5" class="stroke-blue fill-blue" style="fill:none;fill-opacity:1;stroke:#0074d9;stroke-width:.264999;stroke-linecap:round;stroke-dasharray:none;stroke-opacity:1" transform="matrix(.52561 .00112 -.0043 .50726 78.428 -68.712)"/>
    <g style="display:inline">
      <path d="M25.06 144.418c1.063.12.94 1.582 1.94 2.582m.64.995c1 1 1 2 2 2" class="stroke-blue fill-blue" style="fill:none;fill-opacity:1;stroke:#0074d9;stroke-width:.264999;stroke-linecap:round;stroke-dasharray:none;stroke-opacity:1" transform="matrix(.52561 .00112 -.0043 .50726 73.326 -68.627)"/>
      <path d="M29.701 145h-.003c-1.998.005-2.24 4.547-5.14 4.33" class="stroke-blue fill-blue" style="fill:none;fill-opacity:1;stroke:#0074d9;stroke-width:.264999;stroke-linecap:round;stroke-dasharray:none;stroke-opacity:1" transform="matrix(.52561 .00112 -.0043 .50726 73.326 -68.627)"/>
    </g>
    <path d="M73.909 151.65c-5.027-.909-8.299-2.387-8.299-4.056 0-.656.506-1.282 1.424-1.856m2.445-1.1c3.017-1.027 7.564-1.755 12.802-1.975" class="stroke-blue fill-blue" style="display:inline;fill:none;stroke:#0074d9;stroke-width:.264999;stroke-opacity:1" transform="matrix(.52561 .00112 -.0043 .50726 47.397 -69.858)"/>
    <path d="M74.411 146.738c-2.01-.34-3.76-.77-5.158-1.266l-1.952-.863c-1.087-.616-1.69-1.298-1.69-2.015 0-2.47 7.166-4.522 16.585-4.927m9.734 5.183c3.99.33 7.42.968 9.847 1.8m2.303 1.023c.986.591 1.53 1.24 1.53 1.921 0 2.009-4.738 3.741-11.572 4.536" class="stroke-blue fill-blue" style="display:inline;fill:none;stroke:#0074d9;stroke-width:.264999;stroke-opacity:1" transform="matrix(.52561 .00112 -.0043 .50726 47.397 -69.858)"/>
    <path d="M65.61 142.594v5m40-5v5" class="stroke-blue fill-blue" style="display:inline;fill:none;fill-opacity:1;stroke:#0074d9;stroke-width:.264999;stroke-dasharray:none;stroke-opacity:1" transform="matrix(.52561 .00112 -.0043 .50726 47.397 -69.858)"/>
    <path d="M91.81 137.84c8.01.651 13.8 2.534 13.8 4.754 0 .735-.634 1.433-1.772 2.061l-2.1.897c-1.988.676-4.639 1.223-7.714 1.58" class="stroke-blue fill-blue" style="display:inline;fill:none;stroke:#0074d9;stroke-width:.264999;stroke-opacity:1" transform="matrix(.52561 .00112 -.0043 .50726 47.397 -69.858)"/>
  </g>
  <g style="display:inline">
    <path d="M43.003 100.021C34.204 100.205 25.914 101.8 25 105v5c.782-3.219 9.132-4.855 18.007-5.033m5.041.055c8.515.358 16.279 2.054 16.952 4.978v-5c-.326-2.882-8.265-4.591-16.992-4.933" class="stroke-teal fill-teal" style="display:inline;fill:#39cccc;fill-opacity:.287364;stroke:none;stroke-width:.264999;stroke-dasharray:none;stroke-opacity:1" transform="matrix(.52484 0 0 .56676 41.458 -19.182)"/>
    <path d="M37.992 114.692c4.833.433 10.289.41 15.026-.068l.021-5.07c-4.72.507-10.157.57-14.985.15m19.906 4.192c3.232-.771 6.879-2.129 7.04-3.896v-5c-.176 1.673-3.106 2.677-6.985 3.794m-25.033.239c-4.3-.806-7.44-2.136-7.982-4.033v5c.28 1.862 3.478 3.204 7.956 4.026" class="stroke-teal fill-teal" style="display:inline;fill:#39cccc;fill-opacity:.287364;stroke:none;stroke-width:.264999;stroke-dasharray:none;stroke-opacity:1" transform="matrix(.52484 0 0 .56676 41.458 -19.182)"/>
    <path d="M63.47 108.079c.986.591 1.53 1.24 1.53 1.921 0 1.529-2.745 2.898-7.07 3.815m-4.919.768A74 74 0 0 1 45 115c-2.464 0-4.823-.111-7.002-.315m-5-.685c-4.857-.912-7.998-2.364-7.998-4 0-.656.505-1.283 1.424-1.857m2.445-1.099c3.27-1.114 8.34-1.876 14.137-2.02m5.034.033c5.38.205 10.056.947 13.127 1.999" class="stroke-teal fill-teal" style="display:inline;fill:none;stroke:#39cccc;stroke-width:.264999;stroke-opacity:1" transform="matrix(.52484 0 0 .56676 41.458 -19.182)"/>
    <path d="M48.009 100.056C57.627 100.42 65 102.494 65 105c0 1.518-2.705 2.878-6.976 3.795m-5.028.79A74 74 0 0 1 45 110c-2.45 0-4.797-.11-6.966-.312m-5.04-.689C28.14 108.087 25 106.635 25 105c0-2.593 7.896-4.725 18.006-4.975" class="stroke-teal fill-teal" style="display:inline;fill:none;stroke:#39cccc;stroke-width:.264999;stroke-opacity:1" transform="matrix(.52484 0 0 .56676 41.458 -19.182)"/>
    <path d="M25 105v5m40-5v5" class="stroke-teal fill-teal" style="display:inline;fill:none;fill-opacity:1;stroke:#39cccc;stroke-width:.264999;stroke-dasharray:none;stroke-opacity:1" transform="matrix(.52484 0 0 .56676 41.458 -19.182)"/>
  </g>
  <g style="display:inline">
    <path d="M-6.556 14.357c-.845.03-1.032-.487-1.894-.317-.958.188-1.34 1.839-2.389 2.528-1.096.72-1.597 3.046-2.447 2.96-.807-.082-1.631-.778-2.496-2.47-.346-.244-.452-1.564-2.122-1.698-3.052.818-5.17 1.98-5.607 3.508v5c.402-1.654 2.801-2.89 6.243-3.725.648-.829.611-2.945 1.486-3.084 1.425-1.245 1.652-2.54 2.585-2.565.878-.025 1.684 1.12 2.358 2.074.524.74 1.307 2.217 2.219 2.38 1.079.192.742.098 1.546.321m6.611-.379c8.516.357 16.279 2.053 16.952 4.978v-5c-.326-2.882-7.657-4.607-16.384-4.949" style="display:inline;fill:#b10dc9;fill-opacity:.333333;stroke:none;stroke-width:.264999;stroke-dasharray:none;stroke-opacity:1" transform="matrix(.52118 .005 .0475 .52219 42.479 12.018)"/>
    <path d="M-10.519 28.56c4.833.433 10.29.41 15.026-.069l.021-5.068c-4.72.505-10.157.568-14.985.149M9.45 27.764c2.541-.859 6.879-2.13 7.04-3.896v-5c-.176 1.672-3.105 2.677-6.985 3.793m-25.032.24c-4.302-.806-7.44-2.136-7.983-4.033v5c.268 1.782 3.209 3.088 7.387 3.917" style="display:inline;fill:#b10dc9;fill-opacity:.333333;stroke:none;stroke-width:.264999;stroke-dasharray:none;stroke-opacity:1" transform="matrix(.52118 .005 .0475 .52219 42.479 12.018)"/>
    <path d="M14.96 21.946c.985.592 1.53 1.24 1.53 1.922 0 1.529-2.746 2.897-7.07 3.814m-4.92.768a74 74 0 0 1-8.01.418 76 76 0 0 1-7.003-.315m-5.625-.808c-4.5-.917-7.373-2.313-7.373-3.877 0-.656.506-1.283 1.424-1.857m2.445-1.1a26 26 0 0 1 2.18-.626m9.237-1.278s.42-.013 1.19.265m6.564-.347c5.38.205 10.056.946 13.127 1.999" style="display:inline;fill:none;stroke:#b10dc9;stroke-width:.264999;stroke-opacity:1" transform="matrix(.52118 .005 .0475 .52219 42.479 12.018)"/>
    <path d="M.091 13.932c9.619.363 16.398 2.43 16.398 4.936 0 1.517-2.705 2.877-6.976 3.794m-5.028.79a74 74 0 0 1-7.996.416c-2.45 0-4.797-.11-6.966-.312m-5.04-.689c-4.854-.912-7.994-2.364-7.994-4 0-1.354 2.165-2.586 5.68-3.488m9.688-1.377c.86-.05.708.36 1.606.337" style="display:inline;fill:none;stroke:#b10dc9;stroke-width:.264999;stroke-opacity:1" transform="matrix(.52118 .005 .0475 .52219 42.479 12.018)"/>
    <path d="M-23.51 18.868v5m40-5v5" style="display:inline;fill:none;fill-opacity:1;stroke:#b10dc9;stroke-width:.264999;stroke-dasharray:none;stroke-opacity:1" transform="matrix(.52118 .005 .0475 .52219 42.479 12.018)"/>
    <g style="display:inline">
      <path d="M25.05 144.527c1 0 .95 1.473 1.95 2.473l1 1c1 1 1.117 2.019 2.117 2.019m-.082-5.005c-.9 0-1.595.915-2.27 1.92m-.776 1.152c-.575.8-1.185 1.441-1.94 1.441" style="fill:none;fill-opacity:1;stroke:#b10dc9;stroke-width:.264999;stroke-linecap:round;stroke-dasharray:none;stroke-opacity:1" transform="matrix(.52118 .005 -.0475 -.52219 30.331 97.477)"/>
    </g>
    <g style="display:inline">
      <path d="M25.72 144.202c.973.24.28 1.798 1.28 2.798l1 1c1 1 1 2 2 2" style="fill:none;fill-opacity:1;stroke:#b10dc9;stroke-width:.264999;stroke-linecap:round;stroke-dasharray:none;stroke-opacity:1" transform="matrix(.52118 .005 -.0475 -.52219 27.774 97.699)"/>
      <path d="M30 145c-.915 0-1.604.952-2.252 1.942m-.682 1.029c-.532.749-1.08 1.3-1.75 1.13" style="fill:none;fill-opacity:1;stroke:#b10dc9;stroke-width:.264999;stroke-linecap:round;stroke-dasharray:none;stroke-opacity:1" transform="matrix(.52118 .005 -.0475 -.52219 27.774 97.699)"/>
    </g>
  </g>
  <g style="display:inline">
    <path d="M50.375 105.155c7.558.547 14.014 2.19 14.625 4.845v-5c-.308-2.722-7.41-4.398-15.552-4.864m-7.373-.09C33.629 100.32 25.882 101.912 25 105v5c.781-3.217 9.125-4.854 17.996-5.032" class="stroke-orange fill-orange" style="display:inline;fill:#ff851b;fill-opacity:.333333;stroke:none;stroke-width:.264999;stroke-dasharray:none;stroke-opacity:1" transform="matrix(.5227 .00546 -.00655 .5201 68.867 .282)"/>
    <path d="M25 105v5c.382 2.548 6.23 4.122 13.34 4.723.743.063 1.977-1.348 2.639-2.731.613-1.28 1.814-2.33 2.333-2.4.877-.118.996.943 2.667 2.4.743.648 1.374 2.13 2.248 2.525.896.404 2.528-2.193 2.718-2.482.609-.929 1.244-2.306 2.47-2.498 4.704-.735 11.585-1.92 11.564-4.545L65 110c-.101 1.907-6.815 4.822-11.555 4.535-.843-.051-1.756-1.734-2.5-2.5-1.75-1.8-1.836-2.642-2.711-2.443-.95.217-1.672 1.144-2.255 2.4-.402.866-1.821 2.71-2.704 2.532-1.09-.218-1.296-1.798-2.296-2.532-.696-.511-1.676-2.186-2.484-2.251-6.951-.558-12.74-2.099-13.495-4.741" class="stroke-orange fill-orange" style="display:inline;fill:#ff851b;fill-opacity:.333333;stroke:none;stroke-width:.264999;stroke-dasharray:none;stroke-opacity:1" transform="matrix(.5227 .00546 -.00655 .5201 68.867 .282)"/>
    <path d="M38.381 114.72C30.588 114.037 25 112.182 25 110c0-.656.505-1.283 1.424-1.857m37.046-.064c.986.591 1.53 1.24 1.53 1.921 0 2.009-4.738 3.74-11.573 4.536m-24.558-7.492c3.266-1.112 8.326-1.874 14.114-2.019m7.453.162c4.365.307 8.125.976 10.731 1.869" class="stroke-orange fill-orange" style="display:inline;fill:none;stroke:#ff851b;stroke-width:.264999;stroke-opacity:1" transform="matrix(.5227 .00546 -.00655 .5201 68.867 .282)"/>
    <path d="M38.442 109.725C30.617 109.046 25 107.187 25 105c0-2.505 7.37-4.58 16.986-4.944m7.588.075C58.415 100.648 65 102.632 65 105c0 2.01-4.744 3.743-11.586 4.537" class="stroke-orange fill-orange" style="display:inline;fill:none;stroke:#ff851b;stroke-width:.264999;stroke-opacity:1" transform="matrix(.5227 .00546 -.00655 .5201 68.867 .282)"/>
    <path d="M25 105v5m40-5v5" class="stroke-orange fill-orange" style="display:inline;fill:none;fill-opacity:1;stroke:#ff851b;stroke-width:.264999;stroke-dasharray:none;stroke-opacity:1" transform="matrix(.5227 .00546 -.00655 .5201 68.867 .282)"/>
    <path d="M24.997 145.19c1 0 1.003.81 2.003 1.81m1 1c1 1 1 2 2 2m0-5c-2 0-3.063 5.185-5.063 5.185" class="stroke-orange fill-orange" style="fill:none;fill-opacity:1;stroke:#ff851b;stroke-width:.264999;stroke-linecap:round;stroke-dasharray:none;stroke-opacity:1" transform="matrix(.5227 .00546 -.00655 .5201 76.127 -18.09)"/>
    <path d="M25 145c1 0 1 1 2 2m1 1c1 1 1 2 2 2m0-5c-2 0-3 5-5 5" class="stroke-orange fill-orange" style="fill:none;fill-opacity:1;stroke:#ff851b;stroke-width:.264999;stroke-linecap:round;stroke-dasharray:none;stroke-opacity:1" transform="matrix(.5227 .00546 -.00655 .5201 81.354 -18.036)"/>
    <path d="M25 145c1 0 1 1 2 2m1 1c1 1 1 2 2 2m0-5c-2 0-3 5-5 5" class="stroke-orange fill-orange" style="fill:none;fill-opacity:1;stroke:#ff851b;stroke-width:.264999;stroke-linecap:round;stroke-dasharray:none;stroke-opacity:1" transform="matrix(.5227 .00546 -.00655 .5201 78.74 -18.063)"/>
  </g>
  <g style="display:inline">
    <path d="M50.297 104.994c8.517.356 14.03 2.081 14.703 5.006v-5c-.327-2.883-6.7-4.792-15.43-5.133m-9.146.234c-8.801.184-14.868 1.782-15.424 4.899v5c.781-3.217 8.288-4.464 16.035-4.868" style="display:inline;fill:#ff4136;fill-opacity:.333333;stroke:none;stroke-width:.264999;stroke-dasharray:none;stroke-opacity:1" transform="matrix(.52354 -.00587 .07168 .52452 -19.598 .417)"/>
    <path d="M25 105v5c.382 2.548 6.23 4.122 13.34 4.723.743.063 1.963-1.855 2.567-2.56 1.035-.164 1.417-2.576 2.538-2.443.877-.118 1.115.54 2.405 2.343.334.466.762 1.762 2.462 2.636.931.314 2.312-2.534 2.633-2.664 1.243-.505 1.116-2.264 2.47-2.498 4.691-.81 11.585-1.92 11.564-4.545L65 110c-.131 2.179-6.121 4.095-11.555 4.535-.843-.051-1.975-1.456-2.5-2.5-1.129-2.241-2.324-2.285-2.5-2.315-.773-.133-1.717 2.132-2.595 2.343-.449.38-1.523 2.834-2.405 2.657-2.35-1-2.205-2.231-2.538-2.558-.348-.337-.697-2.083-2.412-2.421-6.951-.558-12.74-2.099-13.495-4.741" style="display:inline;fill:#ff4136;fill-opacity:.333333;stroke:none;stroke-width:.264999;stroke-dasharray:none;stroke-opacity:1" transform="matrix(.52354 -.00587 .07168 .52452 -19.598 .417)"/>
    <path d="M38.381 114.72C30.588 114.037 25 112.182 25 110c0-.656.505-1.283 1.424-1.857m37.046-.064c.986.591 1.53 1.24 1.53 1.921 0 2.009-4.738 3.74-11.573 4.536m-24.558-7.492c3.266-1.112 6.486-1.733 12.274-1.878m9.213-.192c5.378.205 7.974.812 11.045 1.864" style="display:inline;fill:none;stroke:#ff4136;stroke-width:.264999;stroke-opacity:1" transform="matrix(.52354 -.00587 .07168 .52452 -19.598 .417)"/>
    <path d="M38.442 109.725C30.617 109.046 25 107.187 25 105c0-2.593 5.34-4.641 15.447-4.892m9.069-.256C59.142 100.214 65 102.492 65 105c0 2.01-4.744 3.743-11.586 4.537" style="display:inline;fill:none;stroke:#ff4136;stroke-width:.264999;stroke-opacity:1" transform="matrix(.52354 -.00587 .07168 .52452 -19.598 .417)"/>
    <path d="M25 105v5m40-5v5" style="display:inline;fill:none;fill-opacity:1;stroke:#ff4136;stroke-width:.264999;stroke-dasharray:none;stroke-opacity:1" transform="matrix(.52354 -.00587 .07168 .52452 -19.598 .417)"/>
    <path d="M24.937 145c1 0 1.063 1 2.063 2m1 1c1 1 1 2 2 2m0-5c-2 0-3.003 4.995-5.003 4.995" style="fill:none;fill-opacity:1;stroke:#ff4136;stroke-width:.264999;stroke-linecap:round;stroke-dasharray:none;stroke-opacity:1" transform="matrix(.52354 -.00587 -.07168 -.52452 6.058 136.565)"/>
    <path d="M25 145c1 0 1 1 2 2m1 1c1 1 .97 2.182 1.97 2.182m.03-4.997c-2 0-3 4.815-5 4.815" style="fill:none;fill-opacity:1;stroke:#ff4136;stroke-width:.264999;stroke-linecap:round;stroke-dasharray:none;stroke-opacity:1" transform="matrix(.52354 -.00587 -.07168 -.52452 11.293 136.506)"/>
    <path d="M25 145c1 0 1 1 2 2m1 1c1 1 1 2 2 2m0-5c-2 0-3 5-5 5" style="fill:none;fill-opacity:1;stroke:#ff4136;stroke-width:.264999;stroke-linecap:round;stroke-dasharray:none;stroke-opacity:1" transform="matrix(.52354 -.00587 -.07168 -.52452 8.675 136.536)"/>
  </g>
  <g style="display:inline">
    <path d="M50.307 104.873c8.518.357 14.02 2.202 14.693 5.127v-5c-.327-2.883-4.252-4.627-12.983-4.968m-10.053-.012c-8.801.183-16.05 1.779-16.964 4.98v5c.781-3.217 10.576-5.027 15.282-4.624" class="stroke-green fill-green" style="display:inline;fill:#2ecc40;fill-opacity:.331667;stroke:none;stroke-width:.264999;stroke-dasharray:none;stroke-opacity:1" transform="matrix(.52916 .0043 .01394 .51905 -14.622 -51.246)"/>
    <path d="M25 105v5c.382 2.548 6.23 4.122 13.34 4.723.743.063 1.977-1.348 2.639-2.731.613-1.28 1.814-2.33 2.333-2.4.877-.118.996.943 2.667 2.4.743.648 1.374 2.13 2.248 2.525.896.404 2.528-2.193 2.718-2.482.609-.929 1.244-2.306 2.47-2.498 4.704-.735 11.585-1.92 11.564-4.545L65 110c-.036 2.062-5.88 3.988-11.555 4.535-.846-.025-1.756-1.734-2.5-2.5-1.75-1.8-1.836-2.642-2.711-2.443-.95.217-1.672 1.144-2.255 2.4-.402.866-1.821 2.71-2.704 2.532-1.09-.218-1.296-1.798-2.296-2.532-.696-.511-1.676-2.186-2.484-2.251-6.951-.558-12.74-2.099-13.495-4.741" class="stroke-green fill-green" style="display:inline;fill:#2ecc40;fill-opacity:.331667;stroke:none;stroke-width:.264999;stroke-dasharray:none;stroke-opacity:1" transform="matrix(.52916 .0043 .01394 .51905 -14.622 -51.246)"/>
    <path d="M38.381 114.72C30.588 114.037 25 112.182 25 110c0-.656.505-1.283 1.424-1.857m37.046-.064c.986.591 1.53 1.24 1.53 1.921 0 2.009-4.738 3.74-11.573 4.536m-24.558-7.492c3.266-1.112 5.618-1.626 11.406-1.771m10.064-.405c5.38.205 8.04.91 11.11 1.961" class="stroke-green fill-green" style="display:inline;fill:none;stroke:#2ecc40;stroke-width:.264999;stroke-opacity:1" transform="matrix(.52916 .0043 .01394 .51905 -14.622 -51.246)"/>
    <path d="M38.442 109.725C30.617 109.046 25 107.187 25 105c0-2.593 6.887-4.785 16.995-5.035m9.965.079C61.586 100.405 65 102.493 65 105c0 2.01-4.744 3.743-11.586 4.537" class="stroke-green fill-green" style="display:inline;fill:none;stroke:#2ecc40;stroke-width:.264999;stroke-opacity:1" transform="matrix(.52916 .0043 .01394 .51905 -14.622 -51.246)"/>
    <path d="M25 105v5m40-5v5" class="stroke-green fill-green" style="display:inline;fill:none;fill-opacity:1;stroke:#2ecc40;stroke-width:.264999;stroke-dasharray:none;stroke-opacity:1" transform="matrix(.52916 .0043 .01394 .51905 -14.622 -51.246)"/>
    <path d="M24.997 145.19c1 0 1.003.81 2.003 1.81m1 1c1 1 1 2 2 2m0-5c-2 0-3.063 5.185-5.063 5.185" class="stroke-green fill-green" style="fill:none;fill-opacity:1;stroke:#2ecc40;stroke-width:.264999;stroke-linecap:round;stroke-dasharray:none;stroke-opacity:1" transform="matrix(.52916 .0043 .01394 .51905 -8.002 -69.596)"/>
    <path d="M25 145c1 0 1 1 2 2m1 1c1 1 1 2 2 2m0-5c-2 0-3 5-5 5" class="stroke-green fill-green" style="fill:none;fill-opacity:1;stroke:#2ecc40;stroke-width:.264999;stroke-linecap:round;stroke-dasharray:none;stroke-opacity:1" transform="matrix(.52916 .0043 .01394 .51905 -2.71 -69.553)"/>
    <path d="M25 145c1 0 1 1 2 2m1 1c1 1 1 2 2 2m0-5c-2 0-3 5-5 5" class="stroke-green fill-green" style="fill:none;fill-opacity:1;stroke:#2ecc40;stroke-width:.264999;stroke-linecap:round;stroke-dasharray:none;stroke-opacity:1" transform="matrix(.52916 .0043 .01394 .51905 -5.356 -69.575)"/>
  </g>
</svg>
