<svg xmlns="http://www.w3.org/2000/svg" xml:space="preserve" viewBox="0 0 370.056 288.262">
  <g style="display:inline">
    <path d="M982.297 457.637a34.339 120.59 89.948 0 1-31.658 15.933 34.339 120.59 89.948 0 1-17.721 4.162 34.4 108.19.059 0 0-4.344 17.647 34.339 120.59 89.948 0 0 22.065-4.963 34.339 120.59 89.948 0 0 31.658-32.78m-233.608.218a34.339 120.59 89.948 0 0 31.41 32.63 34.339 120.59 89.948 0 0 22.337 4.997 108.19 34.4 89.941 0 0-4.336-17.638 34.339 120.59 89.948 0 1-18-4.203 34.339 120.59 89.948 0 1-31.41-15.786m166.54 22.706a34.339 120.59 89.948 0 1-99.45.08 108.19 34.4 89.941 0 1 3.96 17.328 34.339 120.59 89.948 0 0 91.523-.074 34.4 108.19.059 0 1 3.967-17.334" style="fill:#ff4136;fill-opacity:.666667;stroke:none;stroke-width:2.59372;stroke-linejoin:round" transform="translate(-680.465 -413.744)"/>
    <path d="M865.668 414.984a34.339 120.59 89.948 0 0-15.743.3 34.339 120.59 89.948 0 0-69.578 9.793 34.339 120.59 89.948 0 0-31.658 32.778 34.339 120.59 89.948 0 1 31.658-15.933 34.339 120.59 89.948 0 1 170.54-.07 34.339 120.59 89.948 0 1 31.41 15.784 34.339 120.59 89.948 0 0-31.41-32.63 34.339 120.59 89.948 0 0-11.843-2.956 34.339 120.59 89.948 0 0-27.243-4.47 34.339 120.59 89.948 0 0-14.927-1.439 34.339 120.59 89.948 0 0-31.206-1.157" style="fill:#ff4136;fill-opacity:.666667;stroke:none;stroke-width:2.59372;stroke-linejoin:round" transform="translate(-680.465 -413.744)"/>
    <path d="M907.998 424.705c23.407 13.514 23.352 35.457-.123 49.01s-61.48 13.585-84.887.071-23.352-35.456.123-49.01 61.48-13.585 84.887-.07zm-97.289 27.448c2.917-3.762 7.051-7.287 12.402-10.376 23.475-13.554 61.48-13.586 84.887-.072 5.29 3.054 9.38 6.538 12.274 10.258m5.225 15.079c-.382 8.585-6.258 17.112-17.622 23.673-23.475 13.553-61.48 13.585-84.887.071-11.295-6.521-17.127-15.005-17.5-23.561" style="fill:none;stroke:#ff4136;stroke-width:2.40383;stroke-linejoin:round;stroke-dasharray:none" transform="matrix(2.00902 0 0 .99089 -1553.765 -409.571)"/>
  </g>
  <path d="M957.32 443.758a34.4 108.19.059 0 0-7.799 3.295 34.4 108.19.059 0 1 15.813 28.18 34.4 108.19.059 0 1 1.855 146.417 181.396 34.169.033 0 1 .569.078 181.396 34.169.033 0 1 15.623 2.266 181.396 34.169.033 0 1 .03.004 34.4 108.19.059 0 0-1.202-148.766 34.4 108.19.059 0 0-24.889-31.474m4.42 193.97a34.4 108.19.059 0 1-12.437 18.91 34.4 108.19.059 0 0 28.383-16.814 181.396 34.169.033 0 0-.028-.004 181.396 34.169.033 0 0-2.092-.29 181.396 34.169.033 0 0-13.826-1.802" style="display:inline;fill:#2ecc40;fill-opacity:.666667;stroke:none;stroke-width:2.45895;stroke-linejoin:round" transform="translate(-680.465 -413.744)"/>
  <path d="M941.701 443.74a34.4 108.19.059 0 0-25.017 31.715 34.4 108.19.059 0 0-1.455 5.106 34.339 120.59 89.948 0 0 .048-.008 34.339 120.59 89.948 0 0 9.004-1.301 34.339 120.59 89.948 0 0 8.631-1.52 34.339 120.59 89.948 0 0 .006 0 34.4 108.19.059 0 1 .64-2.277 34.4 108.19.059 0 1 15.964-28.402 34.4 108.19.059 0 0-7.82-3.313zm-13.127 51.639a34.339 120.59 89.948 0 1-.05.008 34.339 120.59 89.948 0 1-17.235 2.504 34.339 120.59 89.948 0 1-.027.004 34.4 108.19.059 0 0-4.389 39.984 34.4 108.19.059 0 0-.299 14.123A34.4 108.19.059 0 0 907.732 580a34.4 108.19.059 0 0 1.442 13.393 34.4 108.19.059 0 0 4.478 24.441 34.4 108.19.059 0 0 2.963 10.625 34.4 108.19.059 0 0 32.688 28.18 34.4 108.19.059 0 1-15.813-28.18 34.4 108.19.059 0 1-4.916-133.08" style="display:inline;fill:#2ecc40;fill-opacity:.666667;stroke:none;stroke-width:2.45895;stroke-linejoin:round" transform="translate(-680.465 -413.744)"/>
  <path d="M907.998 424.705c23.407 13.514 23.352 35.457-.123 49.01s-61.48 13.585-84.887.071-23.352-35.456.123-49.01 61.48-13.585 84.887-.07zm-97.289 27.448c2.917-3.762 7.051-7.287 12.402-10.376 23.475-13.554 61.48-13.586 84.887-.072 5.29 3.054 9.38 6.538 12.274 10.258m5.225 15.079c-.382 8.585-6.258 17.112-17.622 23.673-23.475 13.553-61.48 13.585-84.887.071-11.295-6.521-17.127-15.005-17.5-23.561" style="display:inline;fill:none;stroke:#2ecc40;stroke-width:2.40383;stroke-linejoin:round;stroke-dasharray:none" transform="matrix(0 1.80244 .99266 0 -185.441 -1421.897)"/>
  <g style="display:inline">
    <path d="M789.283 443.74a108.19 34.4 89.941 0 0-7.818 3.313 108.19 34.4 89.941 0 1 15.96 28.402 108.19 34.4 89.941 0 1 .675 2.389 34.339 120.59 89.948 0 0 17.68 2.797 108.19 34.4 89.941 0 0-1.48-5.186 108.19 34.4 89.941 0 0-25.017-31.715m13.153 51.742a108.19 34.4 89.941 0 1-4.94 132.977 108.19 34.4 89.941 0 1-15.812 28.18 108.19 34.4 89.941 0 0 32.687-28.18 108.19 34.4 89.941 0 0 2.963-10.625 108.19 34.4 89.941 0 0 4.478-24.441A108.19 34.4 89.941 0 0 823.254 580a108.19 34.4 89.941 0 0 1.158-27.998 108.19 34.4 89.941 0 0-.3-14.123 108.19 34.4 89.941 0 0-4.374-39.91 34.339 120.59 89.948 0 1-17.302-2.487" style="display:inline;fill:#0074d9;fill-opacity:.666667;stroke:none;stroke-width:2.45895;stroke-linejoin:round" transform="translate(-680.465 -413.744)"/>
    <path d="M773.666 443.758a108.19 34.4 89.941 0 0-24.89 31.474 108.19 34.4 89.941 0 0-1.174 148.592 181.396 34.169.033 0 1 7.253-1.12 181.396 34.169.033 0 1 8.973-1.184 108.19 34.4 89.941 0 1 1.822-146.288 108.19 34.4 89.941 0 1 15.815-28.18 108.19 34.4 89.941 0 0-7.799-3.294m-4.46 193.88a181.396 34.169.033 0 0-16.042 2.087 108.19 34.4 89.941 0 0 28.52 16.914 108.19 34.4 89.941 0 1-12.479-19" style="fill:#0074d9;fill-opacity:.666667;stroke:none;stroke-width:2.45895;stroke-linejoin:round" transform="translate(-680.465 -413.744)"/>
    <path d="M907.998 424.705c23.407 13.514 23.352 35.457-.123 49.01s-61.48 13.585-84.887.071-23.352-35.456.123-49.01 61.48-13.585 84.887-.07zm-97.289 27.448c2.917-3.762 7.051-7.287 12.402-10.376 23.475-13.554 61.48-13.586 84.887-.072 5.29 3.054 9.38 6.538 12.274 10.258m5.225 15.079c-.382 8.585-6.258 17.112-17.622 23.673-23.475 13.553-61.48 13.585-84.887.071-11.295-6.521-17.127-15.005-17.5-23.561" style="display:inline;fill:none;stroke:#0074d9;stroke-width:2.40383;stroke-linejoin:round;stroke-dasharray:none" transform="matrix(0 1.80244 -.99266 0 555.497 -1421.897)"/>
  </g>
  <path d="M865.23 615.672a181.396 34.169.033 0 0-46.94 1.152 181.396 34.169.033 0 0-22.454 1.43 181.396 34.169.033 0 0-32.008 3.266 108.19 34.4 89.941 0 0 1.893 6.716 108.19 34.4 89.941 0 0 3.484 9.403 181.396 34.169.033 0 1 192.535.09 34.4 108.19.059 0 0 3.526-9.493 34.4 108.19.059 0 0 1.923-6.586 181.396 34.169.033 0 0-78.279-5.68 181.396 34.169.033 0 0-23.68-.298m-117.628 8.152a181.396 34.169.033 0 0-10.561 1.82 181.396 34.169.033 0 0-47.248 32.47 181.396 34.169.033 0 1 47.248-15.708 181.396 34.169.033 0 1 16.123-2.681 108.19 34.4 89.941 0 1-4.318-11.489 108.19 34.4 89.941 0 1-1.244-4.412m235.808.174a34.4 108.19.059 0 1-1.27 4.238 34.4 108.19.059 0 1-4.454 11.588 181.396 34.169.033 0 1 15.886 2.653 181.396 34.169.033 0 1 47.621 15.853 181.396 34.169.033 0 0-47.62-32.615 181.396 34.169.033 0 0-10.163-1.717" style="display:inline;fill:#ff851b;fill-opacity:.666667;stroke:none;stroke-width:3.17323;stroke-linejoin:round" transform="translate(-680.465 -413.744)"/>
  <path d="M689.793 658.113a181.396 34.169.033 0 0 47.62 15.854 181.396 34.169.033 0 0 256.531.07 181.396 34.169.033 0 0 47.25-15.707 181.396 34.169.033 0 1-47.25 32.468 181.396 34.169.033 0 1-256.53-.069 181.396 34.169.033 0 1-47.621-32.616" style="fill:#ff851b;fill-opacity:.666667;stroke:none;stroke-width:3.17323;stroke-linejoin:round" transform="translate(-680.465 -413.744)"/>
  <path d="M907.998 424.705c23.407 13.514 23.352 35.457-.123 49.01s-61.48 13.585-84.887.071-23.352-35.456.123-49.01 61.48-13.585 84.887-.07zm-97.289 27.448c2.917-3.762 7.051-7.287 12.402-10.376 23.475-13.554 61.48-13.586 84.887-.072 5.29 3.054 9.38 6.538 12.274 10.258m5.225 15.079c-.382 8.585-6.258 17.112-17.622 23.673-23.475 13.553-61.48 13.585-84.887.071-11.295-6.521-17.127-15.005-17.5-23.561" style="display:inline;fill:none;stroke:#ff851b;stroke-width:2.40383;stroke-linejoin:round;stroke-dasharray:none" transform="matrix(-3.02204 0 0 .98597 2800.582 -206.848)"/>
  <g style="fill:#b10dc9;stroke:#b10dc9">
    <path d="m967.19 621.65 16.22 2.348-5.724 15.826-15.946-2.096z" style="fill:#b10dc9;fill-opacity:1;stroke:#b10dc9;stroke-width:2.09;stroke-linejoin:round;stroke-dasharray:none" transform="translate(-680.465 -413.744)"/>
    <path d="m798.1 477.844 4.336 17.638 17.302 2.487c-1.262-5.642-1.393-8.655-3.959-17.328z" style="display:inline;fill:#b10dc9;fill-opacity:1;stroke:#b10dc9;stroke-width:2.09;stroke-linejoin:round;stroke-dasharray:none" transform="translate(-680.465 -413.744)"/>
    <path d="m747.602 623.824 5.562 15.9 16.041-2.085-5.377-16.12z" style="fill:#b10dc9;fill-opacity:1;stroke:#b10dc9;stroke-width:2.09;stroke-linejoin:round;stroke-dasharray:none" transform="translate(-680.465 -413.744)"/>
    <path d="m932.9 477.77-4.377 17.617-17.261 2.508c1.018-5.504 2.114-11.692 4.015-17.342z" style="display:inline;fill:#b10dc9;fill-opacity:1;stroke:#b10dc9;stroke-width:2.29;stroke-linejoin:round;stroke-dasharray:none" transform="translate(-680.465 -413.744)"/>
  </g>
</svg>
