<svg xmlns="http://www.w3.org/2000/svg" xml:space="preserve" viewBox="0 0 1300 825.802">
  <text x="860" y="430" style="font-size:146.667px;font-family:&quot;Roboto Condensed&quot;;-inkscape-font-specification:&quot;Roboto Condensed, &quot;;text-align:start;writing-mode:lr-tb;direction:ltr;text-anchor:start;fill:#616161;stroke-width:3.02362;stroke-linecap:round;stroke-linejoin:round;paint-order:stroke fill markers" transform="translate(100 -87.099)">

    </text>
  <path d="M225 270H-25v-40h250zm250 0H225v-40h250z" style="fill:#0074d9;stroke:none;stroke-width:1.84012;stroke-linecap:round;stroke-linejoin:round;paint-order:stroke fill markers" transform="translate(75 -87.099)"/>
  <path d="M205 500V250h40v250z" style="fill:#0074d9;stroke-width:1.84012;stroke-linecap:round;stroke-linejoin:round;paint-order:stroke fill markers" transform="translate(75 -87.099)"/>
  <path d="M175 250a50 50 0 0 1 50-50 50 50 0 0 1 50 50 50 50 0 0 1-50 50 50 50 0 0 1-50-50m250 0a50 50 0 0 1 50-50 50 50 0 0 1 50 50 50 50 0 0 1-50 50 50 50 0 0 1-50-50m-500 0a50 50 0 0 1 50-50 50 50 0 0 1 50 50 50 50 0 0 1-50 50 50 50 0 0 1-50-50" style="fill:#616161;stroke:none;stroke-width:2.25367;stroke-linecap:round;stroke-linejoin:round;paint-order:stroke fill markers" transform="translate(75 -87.099)"/>
  <text x="14.054" y="97.259" style="font-size:112.438px;font-family:Inter;-inkscape-font-specification:Inter;text-align:start;writing-mode:lr-tb;direction:ltr;text-anchor:start;fill:#616161;stroke:none;stroke-width:4.68661;stroke-linejoin:round;paint-order:stroke fill markers">         <tspan x="14.054" y="97.259">2</tspan>      </text>
  <text x="514.055" y="97.259" style="font-size:112.438px;font-family:Inter;-inkscape-font-specification:Inter;text-align:start;writing-mode:lr-tb;direction:ltr;text-anchor:start;fill:#616161;stroke:none;stroke-width:4.68661;stroke-linejoin:round;paint-order:stroke fill markers">         <tspan x="514.055" y="97.259">2</tspan>      </text>
  <text x="278" y="97.259" style="font-size:112.438px;font-family:Inter;-inkscape-font-specification:Inter;text-align:start;writing-mode:lr-tb;direction:ltr;text-anchor:start;fill:#616161;stroke:none;stroke-width:4.68661;stroke-linejoin:round;paint-order:stroke fill markers">         <tspan x="278" y="97.259">1</tspan>      </text>
  <path d="M225 520H-25v-40h250zm250 0H225v-40h250z" style="fill:#ff851b;stroke-width:1.84012;stroke-linecap:round;stroke-linejoin:round;paint-order:stroke fill markers" transform="translate(75 -87.099)"/>
  <path d="M175 500a50 50 0 0 1 50-50 50 50 0 0 1 50 50 50 50 0 0 1-50 50 50 50 0 0 1-50-50" style="fill:#616161;stroke-width:2.25367;stroke-linecap:round;stroke-linejoin:round;paint-order:stroke fill markers" transform="translate(75 -87.099)"/>
  <path d="M59 207.099h-250v-40H59Zm250 0H59v-40h250Z" style="fill:#0074d9;stroke:none;stroke-width:1.84012;stroke-linecap:round;stroke-linejoin:round;paint-order:stroke fill markers" transform="rotate(180 529.5 425)"/>
  <path d="M39 437.099v-250h40v250z" style="fill:#0074d9;stroke-width:1.84012;stroke-linecap:round;stroke-linejoin:round;paint-order:stroke fill markers" transform="rotate(180 529.5 425)"/>
  <path d="M9 187.099a50 50 0 0 1 50-50 50 50 0 0 1 50 50 50 50 0 0 1-50 50 50 50 0 0 1-50-50m250 0a50 50 0 0 1 50-50 50 50 0 0 1 50 50 50 50 0 0 1-50 50 50 50 0 0 1-50-50m-500 0a50 50 0 0 1 50-50 50 50 0 0 1 50 50 50 50 0 0 1-50 50 50 50 0 0 1-50-50" style="fill:#616161;stroke:none;stroke-width:2.25367;stroke-linecap:round;stroke-linejoin:round;paint-order:stroke fill markers" transform="rotate(180 529.5 425)"/>
  <text x="714" y="812.901" style="font-size:112.438px;font-family:Inter;-inkscape-font-specification:Inter;text-align:start;writing-mode:lr-tb;direction:ltr;text-anchor:start;fill:#616161;stroke:none;stroke-width:4.68661;stroke-linejoin:round;paint-order:stroke fill markers">           <tspan x="714" y="812.901">2</tspan>        </text>
  <text x="1214" y="812.901" style="font-size:112.438px;font-family:Inter;-inkscape-font-specification:Inter;text-align:start;writing-mode:lr-tb;direction:ltr;text-anchor:start;fill:#616161;stroke:none;stroke-width:4.68661;stroke-linejoin:round;paint-order:stroke fill markers">           <tspan x="1214" y="812.901">2</tspan>        </text>
  <text x="977.945" y="812.901" style="font-size:112.438px;font-family:Inter;-inkscape-font-specification:Inter;text-align:start;writing-mode:lr-tb;direction:ltr;text-anchor:start;fill:#616161;stroke:none;stroke-width:4.68661;stroke-linejoin:round;paint-order:stroke fill markers">           <tspan x="977.945" y="812.901">1</tspan>        </text>
  <path d="M831.574 462.425h-250v40h250zm250 0h-250v40h250z" style="fill:#ff851b;stroke-width:1.84012;stroke-linecap:round;stroke-linejoin:round;paint-order:stroke fill markers" transform="translate(168.426 -69.524)"/>
  <path d="M781.574 482.425a50 50 0 0 0 50 50 50 50 0 0 0 50-50 50 50 0 0 0-50-50 50 50 0 0 0-50 50" style="fill:#616161;stroke-width:2.25367;stroke-linecap:round;stroke-linejoin:round;paint-order:stroke fill markers" transform="translate(168.426 -69.524)"/>
</svg>
