<svg xmlns="http://www.w3.org/2000/svg" xml:space="preserve" viewBox="0 0 1337.928 198.808">
  <text x="-106.329" y="432.995" style="font-size:112.438px;font-family:Inter;-inkscape-font-specification:Inter;text-align:start;writing-mode:lr-tb;direction:ltr;text-anchor:start;fill:#616161;stroke:none;stroke-width:4.68661;stroke-linejoin:round;paint-order:stroke fill markers" transform="translate(375.782 -351.192)">a        </text>
  <path d="M200 520H-50v-40h250zm250 0H200v-40h250Z" style="fill:#616161;stroke-width:1.84012;stroke-linecap:round;stroke-linejoin:round;paint-order:stroke fill markers" transform="translate(100 -351.192)"/>
  <path d="M150 500a50 50 0 0 1 50-50 50 50 0 0 1 50 50 50 50 0 0 1-50 50 50 50 0 0 1-50-50" style="fill:#616161;stroke-width:2.25367;stroke-linecap:round;stroke-linejoin:round;paint-order:stroke fill markers" transform="translate(100 -351.192)"/>
  <path d="M-100 500a50 50 0 0 1 50-50 50 50 0 0 1 50 50 50 50 0 0 1-50 50 50 50 0 0 1-50-50" style="fill:#616161;stroke:none;stroke-width:2.25367;stroke-linecap:round;stroke-linejoin:round;paint-order:stroke fill markers" transform="translate(100 -351.192)"/>
  <text x="300.283" y="635.232" style="font-size:112.438px;font-family:Inter;-inkscape-font-specification:Inter;text-align:start;writing-mode:lr-tb;direction:ltr;text-anchor:start;fill:#616161;stroke:none;stroke-width:4.68661;stroke-linejoin:round;paint-order:stroke fill markers" transform="translate(-245.654 -552.001)">2 </text>
  <text x="234.026" y="639.005" style="font-size:112px;font-family:Inter;-inkscape-font-specification:Inter;text-align:start;writing-mode:lr-tb;direction:ltr;text-anchor:start;fill:#616161;stroke-width:37.7953;stroke-linecap:round;stroke-linejoin:round;paint-order:stroke fill markers" transform="translate(-245.654 -552.001)">
    <tspan x="234.026" y="639.005">&#177;</tspan>
  </text>
  <path d="M200 520H-50v-40h250zm250 0H200v-40h250Z" style="fill:#616161;stroke-width:1.84012;stroke-linecap:round;stroke-linejoin:round;paint-order:stroke fill markers" transform="translate(877.348 -351.192)"/>
  <path d="M150 500a50 50 0 0 1 50-50 50 50 0 0 1 50 50 50 50 0 0 1-50 50 50 50 0 0 1-50-50" style="fill:#616161;stroke-width:2.25367;stroke-linecap:round;stroke-linejoin:round;paint-order:stroke fill markers" transform="translate(877.348 -351.192)"/>
  <path d="M-100 500a50 50 0 0 1 50-50 50 50 0 0 1 50 50 50 50 0 0 1-50 50 50 50 0 0 1-50-50" style="fill:#616161;stroke:none;stroke-width:2.25367;stroke-linecap:round;stroke-linejoin:round;paint-order:stroke fill markers" transform="translate(877.348 -351.192)"/>
  <text x="-45.371" y="434.423" style="font-size:112.438px;font-family:Inter;-inkscape-font-specification:Inter;text-align:start;writing-mode:lr-tb;direction:ltr;text-anchor:start;fill:#616161;stroke:none;stroke-width:4.68661;stroke-linejoin:round;paint-order:stroke fill markers" transform="translate(877.348 -351.192)">2 </text>
  <text x="-111.628" y="-373.118" style="font-size:112px;font-family:Inter;-inkscape-font-specification:Inter;text-align:start;writing-mode:lr-tb;direction:ltr;text-anchor:start;fill:#616161;stroke-width:37.7953;stroke-linecap:round;stroke-linejoin:round;paint-order:stroke fill markers" transform="matrix(1 0 0 -1 877.348 -351.192)">
    <tspan x="-111.628" y="-373.118">&#177;</tspan>
  </text>
  <path d="M-80.47 434.422q-5.82 0-10.596-2.196-4.722-2.196-7.522-6.423t-2.8-10.267q0-5.27 2.086-8.564 2.087-3.294 5.545-5.161 3.514-1.922 7.742-2.855t8.51-1.482q5.49-.714 8.948-1.098t5.106-1.318q1.702-.933 1.702-3.184v-.33q0-5.71-3.24-8.839-3.238-3.184-9.607-3.184-6.643 0-10.376 2.91-3.734 2.855-5.161 6.094l-9.498-3.13q2.36-5.6 6.369-8.729 4.007-3.184 8.839-4.502 4.831-1.317 9.552-1.317 3.075 0 6.973.768 3.953.714 7.576 2.91 3.679 2.196 6.04 6.533 2.415 4.283 2.415 11.475v40.462h-9.717v-8.345h-.66q-1.042 2.141-3.348 4.447-2.306 2.251-5.984 3.788t-8.894 1.537m1.701-8.729q5.49 0 9.279-2.141t5.764-5.545q1.977-3.459 1.977-7.192v-8.51q-.604.714-2.635 1.318-2.032.549-4.667.988-2.58.44-5.05.769-2.417.274-3.844.439-3.569.439-6.698 1.537-3.074 1.043-4.941 3.13-1.867 2.03-1.867 5.544 0 4.777 3.569 7.247 3.623 2.416 9.113 2.416m134.674-74.501v81.803H45.638v-72.14h-.549l-19.765 14.658v-11.2l17.789-13.121z" aria-label="a 1" style="font-size:112.438px;font-family:Inter;-inkscape-font-specification:Inter;fill:#616161;stroke-width:4.68661;stroke-linejoin:round;paint-order:stroke fill markers" transform="translate(1095.148 -351.192)"/>
  <path d="M245.292 590.885v-9.188h21.218v-16.133h9.243v16.133h21.164v9.188h-21.164v16.078h-9.243v-16.078zm0 32.21v-9.187h51.625v9.188z" aria-label="&#177;" style="font-size:112px;font-family:Inter;-inkscape-font-specification:Inter;fill:#616161;stroke-width:37.7953;stroke-linecap:round;stroke-linejoin:round;paint-order:stroke fill markers" transform="matrix(1 0 0 -1 811.44 648.795)"/>
</svg>
