<?xml version="1.0" encoding="UTF-8" standalone="no"?>
<svg
   xml:space="preserve"
   viewBox="0 0 1778.5999 308.71563"
   version="1.1"
   id="svg19"
   sodipodi:docname="def.svg"
   inkscape:version="1.4.2 (ebf0e940d0, 2025-05-08)"
   xmlns:inkscape="http://www.inkscape.org/namespaces/inkscape"
   xmlns:sodipodi="http://sodipodi.sourceforge.net/DTD/sodipodi-0.dtd"
   xmlns="http://www.w3.org/2000/svg"
   xmlns:svg="http://www.w3.org/2000/svg"><defs
   id="defs19" /><sodipodi:namedview
   id="namedview19"
   pagecolor="#ffffff"
   bordercolor="#000000"
   borderopacity="0.25"
   inkscape:showpageshadow="2"
   inkscape:pageopacity="0.0"
   inkscape:pagecheckerboard="0"
   inkscape:deskcolor="#d1d1d1"
   inkscape:zoom="0.52478098"
   inkscape:cx="955.63678"
   inkscape:cy="60.025042"
   inkscape:window-width="2254"
   inkscape:window-height="1502"
   inkscape:window-x="0"
   inkscape:window-y="0"
   inkscape:window-maximized="1"
   inkscape:current-layer="svg19" />
  <text
   x="719.453"
   y="307.39801"
   style="font-size:112.438px;font-family:Inter;-inkscape-font-specification:Inter;text-align:start;writing-mode:lr-tb;direction:ltr;text-anchor:start;fill:#616161;stroke:none;stroke-width:4.68661;stroke-linejoin:round;paint-order:stroke fill markers"
   id="text1">b        </text>
  <text
   x="220.545"
   y="76.162994"
   style="font-size:112.438px;font-family:Inter;-inkscape-font-specification:Inter;text-align:start;writing-mode:lr-tb;direction:ltr;text-anchor:start;fill:#616161;stroke:none;stroke-width:4.68661;stroke-linejoin:round;paint-order:stroke fill markers"
   id="text2">a        </text>
  <path
   d="M 750,173.484 H 500 v -40 h 250 z m 250,0 H 750 v -40 h 250 z"
   style="fill:#616161;stroke-width:1.84012;stroke-linecap:round;stroke-linejoin:round;paint-order:stroke fill markers"
   id="path2" /><g
   id="svg19-3"
   transform="matrix(0.49999999,0,0,1,500.00001,0)"
   style="fill:#b10dc9"><path
     d="M 550,500 H 300 v -40 h 250 z m 250,0 H 550 v -40 h 250 z"
     style="fill:#b10dc9;stroke-width:1.84012;stroke-linecap:round;stroke-linejoin:round;paint-order:stroke fill markers"
     transform="translate(200,-326.516)"
     id="path2-6" /></g>
  <path
   d="M 500,173.484 H 250 v -40 h 250 z"
   style="fill:#616161;stroke-width:1.84012;stroke-linecap:round;stroke-linejoin:round;paint-order:stroke fill markers"
   id="path3" />
  <path
   d="m 700,153.484 a 50,50 0 0 1 50,-50 50,50 0 0 1 50,50 50,50 0 0 1 -50,50 50,50 0 0 1 -50,-50"
   style="fill:#616161;stroke-width:2.25367;stroke-linecap:round;stroke-linejoin:round;paint-order:stroke fill markers"
   id="path4" />
  <path
   d="M 250,173.484 H 0 v -40 h 250 z"
   style="fill:#616161;stroke-width:1.84012;stroke-linecap:round;stroke-linejoin:round;paint-order:stroke fill markers"
   id="path5" />
  <path
   d="m 200,153.484 a 50,50 0 0 1 50,-50 50,50 0 0 1 50,50 50,50 0 0 1 -50,50 50,50 0 0 1 -50,-50"
   style="fill:#616161;stroke-width:2.25367;stroke-linecap:round;stroke-linejoin:round;paint-order:stroke fill markers"
   id="path6" />
  <path
   d="m 450,153.484 a 50,50 0 0 1 50,-50 50,50 0 0 1 50,50 50,50 0 0 1 -50,50 50,50 0 0 1 -50,-50"
   style="fill:#616161;stroke:none;stroke-width:2.25367;stroke-linecap:round;stroke-linejoin:round;paint-order:stroke fill markers"
   id="path7" />



  <path
   d="m 1778.6,170.379 h -250 v -40 h 250 z"
   style="fill:#b10dc9;stroke-width:1.84012;stroke-linecap:round;stroke-linejoin:round;paint-order:stroke fill markers"
   id="path11" />

  <path
   d="m 1528.6,170.379 h -250 v -40 h 250 z"
   style="fill:#616161;stroke-width:1.84012;stroke-linecap:round;stroke-linejoin:round;paint-order:stroke fill markers"
   id="path13" />
  <path
   d="m 1478.6,150.379 a 50,50 0 0 1 50,-50 50,50 0 0 1 50,50 50,50 0 0 1 -50,50 50,50 0 0 1 -50,-50"
   style="fill:#616161;stroke-width:2.25367;stroke-linecap:round;stroke-linejoin:round;paint-order:stroke fill markers"
   id="path14" />





  <g
   id="g19"
   transform="translate(-13.68585)"><path
     d="M 1565.6274,50.138894 V 62.10598 h -21.218 V 83.121 h -9.242 V 62.10598 h -21.165 V 50.138894 h 21.165 V 29.195518 h 9.242 v 20.943376 z"
     aria-label="±"
     style="font-size:112px;font-family:Inter;-inkscape-font-specification:Inter;fill:#616161;stroke-width:43.1365;stroke-linecap:round;stroke-linejoin:round;paint-order:stroke fill markers"
     id="path17"
     sodipodi:nodetypes="ccccccccccccc" /><path
     d="m 1465.932,83.121 c -3.88,0 -7.412,-0.732 -10.596,-2.196 -3.148,-1.464 -5.6553,-3.605 -7.522,-6.423 -1.8667,-2.818 -2.8,-6.24033 -2.8,-10.267 0,-3.51333 0.6953,-6.368 2.086,-8.564 1.3913,-2.196 3.2397,-3.91633 5.545,-5.161 2.3427,-1.28133 4.9233,-2.233 7.742,-2.855 2.8187,-0.622 5.6553,-1.116 8.51,-1.482 3.66,-0.476 6.6427,-0.842 8.948,-1.098 2.3053,-0.256 4.0073,-0.69533 5.106,-1.318 1.1347,-0.622 1.702,-1.68333 1.702,-3.184 v -0.33 c 0,-3.80667 -1.08,-6.753 -3.24,-8.839 -2.1587,-2.12267 -5.361,-3.184 -9.607,-3.184 -4.4287,0 -7.8873,0.97 -10.376,2.91 -2.4893,1.90333 -4.2097,3.93467 -5.161,6.094 l -9.498,-3.13 c 1.5733,-3.73333 3.6963,-6.643 6.369,-8.729 2.6713,-2.12267 5.6177,-3.62333 8.839,-4.502 3.2207,-0.878 6.4047,-1.317 9.552,-1.317 2.05,0 4.3743,0.256 6.973,0.768 2.6353,0.476 5.1607,1.446 7.576,2.91 2.4527,1.464 4.466,3.64167 6.04,6.533 1.61,2.85533 2.415,6.68033 2.415,11.475 v 40.462 h -9.717 v -8.345 h -0.66 c -0.6947,1.42733 -1.8107,2.90967 -3.348,4.447 -1.5373,1.50067 -3.532,2.76333 -5.984,3.788 -2.452,1.02467 -5.4167,1.537 -8.894,1.537 m 1.701,-8.729 c 3.66,0 6.753,-0.71367 9.279,-2.141 2.526,-1.42733 4.4473,-3.27567 5.764,-5.545 1.318,-2.306 1.977,-4.70333 1.977,-7.192 v -8.51 c -0.4027,0.476 -1.281,0.91533 -2.635,1.318 -1.3547,0.366 -2.9103,0.69533 -4.667,0.988 -1.72,0.29333 -3.4033,0.54967 -5.05,0.769 -1.6113,0.18267 -2.8927,0.329 -3.844,0.439 -2.3793,0.29267 -4.612,0.805 -6.698,1.537 -2.0493,0.69533 -3.6963,1.73867 -4.941,3.13 -1.2447,1.35333 -1.867,3.20133 -1.867,5.544 0,3.18467 1.1897,5.60033 3.569,7.247 2.4153,1.61067 5.453,2.416 9.113,2.416"
     aria-label="a 1"
     style="font-size:112.438px;font-family:Inter;-inkscape-font-specification:Inter;fill:#616161;stroke-width:4.68661;stroke-linejoin:round;paint-order:stroke fill markers"
     id="path16"
     sodipodi:nodetypes="ccssccscscsscscccccscccscccccsccscscccccccscc" /><path
     d="m 1613.5887,83.121 c -3.88,0 -7.0093,-0.659 -9.388,-1.977 -2.3787,-1.354 -4.2087,-2.873 -5.49,-4.557 -1.2813,-1.72 -2.2697,-3.147333 -2.965,-4.282 h -1.098 v 9.498 h -9.553 V 0 h 9.883 v 30.25 h 0.768 c 0.6953,-1.097333 1.6653,-2.469667 2.91,-4.117 1.2447,-1.683333 3.038,-3.184 5.38,-4.502 2.342,-1.318 5.508,-1.976667 9.498,-1.976 5.1247,0 9.6267,1.281 13.506,3.843 3.9167,2.562 6.973,6.222 9.169,10.98 2.2327,4.721333 3.349,10.321333 3.349,16.8 0,6.514667 -1.0983,12.151333 -3.295,16.91 -2.196,4.758 -5.252,8.436333 -9.168,11.035 -3.88,2.598667 -8.382,3.898 -13.506,3.898 m -1.482,-8.84 c 3.8433,0 7.046,-1.024667 9.608,-3.074 2.5987,-2.086667 4.5387,-4.868333 5.82,-8.345 1.3173,-3.513333 1.976,-7.411333 1.976,-11.694 0,-4.246 -0.6407,-8.070667 -1.922,-11.474 -1.2807,-3.440667 -3.2207,-6.167333 -5.82,-8.18 -2.562,-2.013333 -5.7827,-3.02 -9.662,-3.02 -5.6367,0 -9.919,2.086333 -12.847,6.259 -2.928,4.172 -4.392,9.643667 -4.392,16.415 0,6.844667 1.4823,12.408 4.447,16.69 2.9647,4.282 7.2287,6.423333 12.792,6.424"
     aria-label="b 1"
     style="font-size:112.438px;font-family:Inter;-inkscape-font-specification:Inter;fill:#616161;stroke-width:4.68661;stroke-linejoin:round;paint-order:stroke fill markers"
     id="path18"
     sodipodi:nodetypes="ccccccccccccscccsscccccsccscssc" /></g>

</svg>
