<svg xmlns="http://www.w3.org/2000/svg" xml:space="preserve" viewBox="0 0 2278.6 308.716">
  <text x="-106.329" y="432.562" style="font-size:112.438px;font-family:Inter;-inkscape-font-specification:Inter;text-align:start;writing-mode:lr-tb;direction:ltr;text-anchor:start;fill:#616161;stroke:none;stroke-width:4.68661;stroke-linejoin:round;paint-order:stroke fill markers" transform="translate(825.782 -125.164)">b        </text>
  <text x="-106.329" y="432.995" style="font-size:112.438px;font-family:Inter;-inkscape-font-specification:Inter;text-align:start;writing-mode:lr-tb;direction:ltr;text-anchor:start;fill:#616161;stroke:none;stroke-width:4.68661;stroke-linejoin:round;paint-order:stroke fill markers" transform="translate(326.874 -356.832)">a        </text>
  <path d="M550 500H300v-40h250zm250 0H550v-40h250z" style="fill:#616161;stroke-width:1.84012;stroke-linecap:round;stroke-linejoin:round;paint-order:stroke fill markers" transform="translate(200 -326.516)"/>
  <path d="M800 500H550v-40h250z" style="fill:#616161;stroke-width:1.84012;stroke-linecap:round;stroke-linejoin:round;paint-order:stroke fill markers" transform="translate(-300 -326.516)"/>
  <path d="M500 480a50 50 0 0 1 50-50 50 50 0 0 1 50 50 50 50 0 0 1-50 50 50 50 0 0 1-50-50" style="fill:#616161;stroke-width:2.25367;stroke-linecap:round;stroke-linejoin:round;paint-order:stroke fill markers" transform="translate(200 -326.516)"/>
  <path d="M50 500h-250v-40H50z" style="fill:#616161;stroke-width:1.84012;stroke-linecap:round;stroke-linejoin:round;paint-order:stroke fill markers" transform="translate(200 -326.516)"/>
  <path d="M0 480a50 50 0 0 1 50-50 50 50 0 0 1 50 50 50 50 0 0 1-50 50 50 50 0 0 1-50-50" style="fill:#616161;stroke-width:2.25367;stroke-linecap:round;stroke-linejoin:round;paint-order:stroke fill markers" transform="translate(200 -326.516)"/>
  <path d="M250 480a50 50 0 0 1 50-50 50 50 0 0 1 50 50 50 50 0 0 1-50 50 50 50 0 0 1-50-50" style="fill:#616161;stroke:none;stroke-width:2.25367;stroke-linecap:round;stroke-linejoin:round;paint-order:stroke fill markers" transform="translate(200 -326.516)"/>
  <path d="M308.738 535.232v-7.521l27.176-29.483q4.557-4.94 7.576-8.674 3.02-3.733 4.557-7.082 1.537-3.404 1.537-7.192 0-6.424-4.447-10.157-4.392-3.733-10.925-3.733-6.972 0-11.145 4.172-4.118 4.173-4.118 11.09h-9.992q0-7.247 3.35-12.737 3.348-5.49 9.113-8.51 5.765-3.074 13.067-3.074 7.301 0 12.901 3.074 5.655 3.02 8.84 8.18 3.239 5.161 3.239 11.585 0 4.447-1.592 8.674-1.593 4.173-5.6 9.498-4.008 5.326-11.255 13.012l-17.898 19.05v.66h37.717v9.168z" aria-label="2" style="font-size:112.438px;font-family:Inter;-inkscape-font-specification:Inter;fill:#616161;stroke-width:4.68661;stroke-linejoin:round;paint-order:stroke fill markers" transform="translate(204.346 -447.868)"/>
  <path d="M245.292 490.885v-9.188h21.218v-16.133h9.243v16.133h21.164v9.188h-21.164v16.078h-9.243v-16.078zm0 32.21v-9.187h51.625v9.188z" aria-label="&#177;" style="font-size:112px;font-family:Inter;-inkscape-font-specification:Inter;fill:#616161;stroke-width:37.7953;stroke-linecap:round;stroke-linejoin:round;paint-order:stroke fill markers" transform="translate(204.346 -447.868)"/>
  <path d="M1674.6 496.895h-250v-40h250zm250 0h-250v-40h250z" style="fill:#616161;stroke-width:1.84012;stroke-linecap:round;stroke-linejoin:round;paint-order:stroke fill markers" transform="translate(354 -326.516)"/>
  <path d="M800 500H550v-40h250z" style="fill:#616161;stroke-width:1.84012;stroke-linecap:round;stroke-linejoin:round;paint-order:stroke fill markers" transform="translate(978.6 -329.621)"/>
  <path d="M1624.6 476.895a50 50 0 0 1 50-50 50 50 0 0 1 50 50 50 50 0 0 1-50 50 50 50 0 0 1-50-50" style="fill:#616161;stroke-width:2.25367;stroke-linecap:round;stroke-linejoin:round;paint-order:stroke fill markers" transform="translate(354 -326.516)"/>
  <path d="M1174.6 496.895h-250v-40h250Z" style="fill:#616161;stroke-width:1.84012;stroke-linecap:round;stroke-linejoin:round;paint-order:stroke fill markers" transform="translate(354 -326.516)"/>
  <path d="M1124.6 476.895a50 50 0 0 1 50-50 50 50 0 0 1 50 50 50 50 0 0 1-50 50 50 50 0 0 1-50-50" style="fill:#616161;stroke-width:2.25367;stroke-linecap:round;stroke-linejoin:round;paint-order:stroke fill markers" transform="translate(354 -326.516)"/>
  <path d="M1374.6 476.895a50 50 0 0 1 50-50 50 50 0 0 1 50 50 50 50 0 0 1-50 50 50 50 0 0 1-50-50" style="fill:#616161;stroke:none;stroke-width:2.25367;stroke-linecap:round;stroke-linejoin:round;paint-order:stroke fill markers" transform="translate(354 -326.516)"/>
  <text x="300.283" y="535.232" style="font-size:112.438px;font-family:Inter;-inkscape-font-specification:Inter;text-align:start;writing-mode:lr-tb;direction:ltr;text-anchor:start;fill:#616161;stroke:none;stroke-width:4.68661;stroke-linejoin:round;paint-order:stroke fill markers" transform="translate(1482.946 -226.516)">2 </text>
  <text x="234.026" y="-461.791" style="font-size:112px;font-family:Inter;-inkscape-font-specification:Inter;text-align:start;writing-mode:lr-tb;direction:ltr;text-anchor:start;fill:#616161;stroke-width:37.7953;stroke-linecap:round;stroke-linejoin:round;paint-order:stroke fill markers" transform="matrix(1 0 0 -1 1482.946 -226.516)">
    <tspan x="234.026" y="-461.791">&#177;</tspan>
  </text>
  <path d="M30.212 432.756q-5.82 0-10.596-2.196-4.722-2.196-7.522-6.423t-2.8-10.267q0-5.27 2.086-8.564 2.087-3.294 5.545-5.161 3.514-1.922 7.742-2.855t8.51-1.482q5.49-.714 8.948-1.098t5.106-1.318q1.702-.933 1.702-3.184v-.33q0-5.71-3.24-8.839-3.238-3.184-9.607-3.184-6.643 0-10.376 2.91-3.734 2.855-5.161 6.094l-9.498-3.13q2.36-5.6 6.369-8.729 4.007-3.184 8.839-4.502 4.831-1.317 9.552-1.317 3.075 0 6.973.768 3.953.714 7.576 2.91 3.679 2.196 6.04 6.533 2.415 4.283 2.415 11.475v40.462h-9.717v-8.345h-.66q-1.042 2.141-3.348 4.447-2.306 2.251-5.984 3.788t-8.894 1.537m1.701-8.729q5.49 0 9.279-2.141t5.764-5.545q1.977-3.459 1.977-7.192v-8.51q-.604.714-2.635 1.318-2.032.549-4.667.988-2.58.44-5.05.769-2.417.274-3.844.439-3.569.439-6.698 1.537-3.074 1.043-4.941 3.13-1.867 2.03-1.867 5.544 0 4.777 3.569 7.247 3.623 2.416 9.113 2.416m134.674-74.501v81.803H156.32v-72.14h-.549l-19.765 14.658v-11.2l17.789-13.121z" aria-label="a 1" style="font-size:112.438px;font-family:Inter;-inkscape-font-specification:Inter;fill:#616161;stroke-width:4.68661;stroke-linejoin:round;paint-order:stroke fill markers" transform="translate(1435.72 -349.526)"/>
  <path d="M-43.388 408.598v9.187h-21.218v16.133h-9.242v-16.133h-21.165v-9.187h21.165V392.52h9.242v16.078zm0-32.211v9.187h-51.625v-9.187z" aria-label="&#177;" style="font-size:112px;font-family:Inter;-inkscape-font-specification:Inter;fill:#616161;stroke-width:37.7953;stroke-linecap:round;stroke-linejoin:round;paint-order:stroke fill markers" transform="translate(1605.503 -352.115)"/>
  <path d="M41.521 432.647q-5.82 0-9.388-1.977-3.568-2.031-5.49-4.557-1.922-2.58-2.965-4.282H22.58v9.498h-9.553v-81.803h9.883v30.25h.768q1.043-1.646 2.91-4.117 1.867-2.525 5.38-4.502t9.498-1.976q7.687 0 13.506 3.843 5.875 3.843 9.169 10.98 3.349 7.082 3.349 16.8 0 9.772-3.295 16.91-3.294 7.137-9.168 11.035-5.82 3.898-13.506 3.898m-1.482-8.84q5.765 0 9.608-3.074 3.898-3.13 5.82-8.345 1.976-5.27 1.976-11.694 0-6.369-1.922-11.474-1.921-5.161-5.82-8.18-3.843-3.02-9.662-3.02-8.455 0-12.847 6.259-4.392 6.258-4.392 16.415 0 10.267 4.447 16.69t12.792 6.424m132.257-74.281v81.803H162.03v-72.14h-.55l-19.764 14.658v-11.2l17.788-13.121z" aria-label="b 1" style="font-size:112.438px;font-family:Inter;-inkscape-font-specification:Inter;fill:#616161;stroke-width:4.68661;stroke-linejoin:round;paint-order:stroke fill markers" transform="translate(1930.998 -127.036)"/>
  <path d="M-43.388 408.598v9.187h-21.218v16.133h-9.242v-16.133h-21.165v-9.187h21.165V392.52h9.242v16.078zm0-32.211v9.187h-51.625v-9.187z" aria-label="&#177;" style="font-size:112px;font-family:Inter;-inkscape-font-specification:Inter;fill:#616161;stroke-width:37.7953;stroke-linecap:round;stroke-linejoin:round;paint-order:stroke fill markers" transform="translate(2100.782 -129.625)"/>
</svg>
