<svg xmlns="http://www.w3.org/2000/svg" xml:space="preserve" stroke-miterlimit="10" style="clip-rule:evenodd;fill-rule:nonzero;stroke-linecap:round;stroke-linejoin:round" viewBox="0 0 337.877 337.877">
  <g style="clip-rule:evenodd;display:inline;fill-rule:nonzero;stroke-linecap:round;stroke-linejoin:round">
    <path d="M311.21 200.484q.106-.333.192-.685c.058-.234.242-.915.281-1.161q.057-.37.093-.753a14 14 0 0 0 .064-1.582q-.006-.406-.031-.82c-.018-.276.071-.976.033-1.255a18.149 18.149 0 0 0-.525-2.532 20 20 0 0 0-.254-.842c-.091-.279-.101-.935-.211-1.208a20 20 0 0 0-1.143-2.379q-.214-.381-.443-.747c-.152-.245-.239-.794-.406-1.024a18 18 0 0 0-1.047-1.308 17 17 0 0 0-1.124-1.146 14 14 0 0 0-.583-.505l-16.991-12.871a15 15 0 0 1-1.207-.953 16 16 0 0 1-1.175-1.147c-.381-.409-.788-.527-1.151-.975a20.393 20.393 0 0 1-1.957-2.909c-.285-.515-.596-.642-.847-1.17a20 20 0 0 1-.674-1.6c-.198-.536-.395-.633-.55-1.164a16 16 0 0 1-.375-1.578q-.142-.78-.193-1.528c-.033-.497-.074-.513-.056-.979l-.632 8.36a11.5 11.5 0 0 0-.028 2.203c.02.257.096.06.124.322q.042.394.107.795a17 17 0 0 0 .344 1.621q.108.409.237.818c.085.273.228.126.32.401a21 21 0 0 0 .632 1.633q.177.404.372.8c.13.265.334.157.469.418a21 21 0 0 0 .871 1.527 19 19 0 0 0 .985 1.418 17 17 0 0 0 1.079 1.282c.186.2.422.127.609.318l.02.02.019.02.019.019.02.02.019.02.02.019.019.02.02.019.019.019.02.02.02.019.019.019.02.019.019.019.02.019.02.019.019.019.02.019.02.019.02.018.019.019.02.019.02.018.02.019.019.018.02.019.02.018.02.018.02.019.02.018.02.018.02.018.02.018.02.018.02.018.02.018.02.018.02.018.02.017.04.035.02.018.02.018.02.017.061.052.02.017.02.017.02.017.02.017.021.017.02.017.02.017.02.017.021.017.02.017 16.149 13.882c.377.34.665.953 1.011 1.362q.52.614.995 1.306.476.692.898 1.448c.281.503.44 1.356.666 1.897a20.4 20.4 0 0 1 1.072 3.355c.129.57.083 1.534.145 2.102q.093.855.105 1.686c.007.553-.168 1.516-.228 2.041q-.09.788-.258 1.518t-.413 1.386zm-46.724 73.734q.256-.238.504-.501a12 12 0 0 0 .955-1.149c.153-.207.631-.743.77-.968a15 15 0 0 0 .781-1.421 18 18 0 0 0 .665-1.553c.1-.267.489-.848.571-1.125q.123-.417.229-.842.105-.426.193-.858a21 21 0 0 0 .274-1.744c.034-.293.307-.857.32-1.149a20 20 0 0 0-.055-2.602 19 19 0 0 0-.229-1.659c-.05-.27.074-.739.005-.997a14 14 0 0 0-.485-1.487l-8.249-19.679c-.203-.456-.547-.738-.72-1.235a16 16 0 0 1-.461-1.576 19 19 0 0 1-.319-1.673c-.082-.571-.341-.867-.387-1.451a20.3 20.3 0 0 1 .029-3.522c.055-.582-.115-.817-.023-1.382q.137-.849.346-1.652c.14-.535.055-.674.228-1.174q.259-.75.582-1.425.325-.675.705-1.262l-4.994 7.316q-.205.284-.397.59c-.127.205.019.04-.105.256a13.6 13.6 0 0 0-.983 2.123q-.142.381-.265.777c-.083.263.101.177.023.448a18 18 0 0 0-.397 1.668q-.082.426-.145.86c-.042.289.181.272.144.563q-.055.438-.092.878a22 22 0 0 0-.068 1.763 20 20 0 0 0 .084 1.743c.027.286.266.325.299.607a17 17 0 0 0 .269 1.653q.086.403.19.79l.007.027.007.027.007.026.008.027.007.027.007.026.008.027.007.026.008.027.007.026.008.026.008.027.007.026.008.026.008.027.008.026.008.026.007.026.008.026.008.026.008.026.008.026.009.026.008.026.008.026.008.026.008.025.009.026.016.051.009.026.008.025.009.026.008.025.009.026.009.025.008.026.009.025.009.025.008.025.009.026.009.025.009.025.009.025.009.025.009.025.009.025.009.025.009.025.01.024.009.025.009.025.009.025.01.024.019.05.009.024 6.992 20.126q.223.728.373 1.519.149.79.223 1.627c.048.557-.164 1.346-.181 1.922a20 20 0 0 1-.132 1.74q-.105.874-.285 1.741c-.121.577-.573 1.411-.755 1.966a20 20 0 0 1-.615 1.623c-.226.525-.805 1.325-1.083 1.803q-.418.718-.884 1.36-.467.64-.974 1.193c-.337.367-1.057.985-1.421 1.276zm-77.724 40.671c.227-.049.908-.215 1.139-.286a12.7 12.7 0 0 0 2.1-.87q.352-.183.702-.387c.234-.137.895-.399 1.123-.556a18 18 0 0 0 1.99-1.595c.213-.196.819-.503 1.02-.715q.3-.32.59-.652.288-.333.564-.679a21 21 0 0 0 1.036-1.428q.243-.366.468-.741c.149-.249.608-.607.739-.863q.196-.385.373-.774.175-.388.331-.778.155-.39.288-.779.132-.388.243-.775a14 14 0 0 0 .349-1.524l2.772-21.204q.072-.745.234-1.519c.109-.525-.016-.947.139-1.484q.233-.807.549-1.613t.709-1.594c.262-.525.206-.89.501-1.4q.443-.766.948-1.485.504-.718 1.058-1.374c.37-.438.349-.685.735-1.082q.579-.595 1.188-1.104c.405-.339.404-.449.813-.733q.615-.428 1.237-.749l-7.563 3.659q-.321.137-.644.302a12 12 0 0 0-1.286.76 14 14 0 0 0-.636.455c-.21.159-.004.154-.215.323a17 17 0 0 0-1.24 1.101 19 19 0 0 0-1.169 1.254c-.187.22.009.294-.176.52q-.277.34-.541.693t-.512.719a20 20 0 0 0-.93 1.499c-.143.256.044.394-.093.651a19 19 0 0 0-1.059 2.343 18 18 0 0 0-.493 1.566l-.007.027-.007.027-.006.026-.007.027-.007.027-.007.027-.006.026-.007.027-.006.027-.007.027-.006.026-.006.027-.007.027-.006.026-.006.027-.006.027-.006.026-.006.027-.006.027-.006.026-.006.027-.006.026-.006.027-.005.026-.006.027-.005.026-.006.027-.005.026-.006.027-.005.026-.005.026-.006.027-.005.026-.005.027-.005.026-.005.027-.005.026-.005.026-.005.026-.005.027-.004.026c-.002.009.225-.058.223-.05l-.005.027-.005.026-.006.026-.005.026-.005.026-.005.026-.005.026-.005.026-.004.026-.005.026-.005.026-.004.026-.005.026-.005.026-.004.026-4.075 20.947q-.164.744-.422 1.506c-.172.507-.655 1.078-.899 1.581a19.579 19.579 0 0 1-1.785 2.946c-.348.472-1.085 1.005-1.485 1.438a20 20 0 0 1-1.248 1.243c-.432.393-1.289.854-1.753 1.189a18 18 0 0 1-1.414.923q-.716.42-1.438.75c-.481.219-1.417.469-1.895.612q-.716.213-1.409.326zm-87.246-3.679q.333.106.685.192c.234.058.915.242 1.161.281q.37.057.753.093a14 14 0 0 0 1.582.064q.406-.006.82-.031c.276-.018.976.071 1.255.033q.42-.057.841-.135a18 18 0 0 0 1.691-.39 20 20 0 0 0 .842-.254c.279-.091.935-.101 1.208-.211a20 20 0 0 0 2.379-1.143q.381-.214.747-.443c.245-.152.794-.239 1.024-.406a18 18 0 0 0 1.308-1.047 17 17 0 0 0 1.146-1.124q.264-.288.505-.583l12.871-16.991q.432-.612.953-1.207a16 16 0 0 1 1.147-1.175c.409-.381.527-.788.975-1.151q.673-.545 1.403-1.036.731-.492 1.506-.921c.515-.285.642-.596 1.17-.847q.793-.375 1.6-.674c.536-.198.633-.395 1.164-.55a16 16 0 0 1 1.578-.375q.78-.142 1.528-.193c.497-.033.513-.074.979-.056l-8.36-.632a11.5 11.5 0 0 0-2.203-.028c-.257.02-.06.096-.322.124q-.394.042-.795.107a17 17 0 0 0-1.621.344q-.409.108-.818.237c-.273.085-.126.228-.401.32a21 21 0 0 0-1.633.632q-.404.177-.8.372c-.265.13-.157.334-.418.469a21 21 0 0 0-1.527.871 19 19 0 0 0-1.418.985 17 17 0 0 0-1.282 1.079c-.2.186-.127.422-.318.609l-.02.02-.02.019-.019.019-.02.02-.02.019-.019.02-.02.019-.019.02-.019.019-.02.02-.019.02-.019.019-.019.02-.019.019-.019.02-.019.02-.019.019-.019.02-.019.02-.018.02-.019.019-.019.02-.018.02-.019.02-.018.019-.019.02-.018.02-.018.02-.019.02-.018.02-.018.02-.018.02-.018.02-.018.02-.018.02-.018.02-.018.02-.018.02-.017.02-.035.04-.018.02-.018.02-.017.02-.017.02-.018.02-.017.021-.017.02-.017.02-.017.02-.017.02-.017.021-.017.02-.017.02-.017.02-.017.021-.017.02-13.882 16.149c-.34.377-.953.665-1.362 1.011q-.614.52-1.306.995a18 18 0 0 1-1.448.898c-.503.281-1.356.44-1.897.666a20.4 20.4 0 0 1-3.355 1.072c-.57.129-1.534.083-2.103.145q-.854.093-1.685.105c-.553.007-1.516-.168-2.04-.228a14 14 0 0 1-1.519-.258q-.73-.168-1.386-.413zm-73.734-46.724q.238.256.501.504a12 12 0 0 0 1.149.955c.207.153.743.631.968.77a15 15 0 0 0 1.421.781 18 18 0 0 0 1.553.665c.267.1.848.489 1.125.571a21 21 0 0 0 1.7.422 21 21 0 0 0 1.744.274c.293.034.857.307 1.15.32a20 20 0 0 0 2.6-.055 19 19 0 0 0 1.66-.229c.27-.05.739.074.997.005a14 14 0 0 0 1.487-.485l19.68-8.249c.455-.203.737-.547 1.234-.72q.759-.265 1.576-.461.816-.196 1.673-.319c.57-.082.867-.341 1.451-.387a20.3 20.3 0 0 1 3.522.029c.582.055.817-.115 1.382-.023a18 18 0 0 1 1.652.346c.535.14.674.055 1.174.228q.75.259 1.425.582.675.325 1.262.705l-7.316-4.994a10 10 0 0 0-.59-.397c-.205-.127-.04.019-.256-.105a13 13 0 0 0-1.378-.686q-.364-.157-.745-.297a15 15 0 0 0-.777-.265c-.264-.083-.178.101-.448.023a18 18 0 0 0-1.668-.397 20 20 0 0 0-.86-.145c-.29-.042-.272.181-.563.144a21 21 0 0 0-.878-.092 22 22 0 0 0-1.763-.068 20 20 0 0 0-1.743.084c-.286.027-.325.266-.607.299a17 17 0 0 0-2.444.459l-.026.007-.027.007-.026.007-.027.008-.027.007-.026.007-.027.008-.026.007-.027.008-.026.007-.027.008-.026.008-.026.007-.027.008-.026.008-.026.008-.026.008-.026.007-.026.008-.026.008-.026.008-.026.008-.026.009-.026.008-.026.008-.026.008-.025.008-.026.009-.026.008-.025.008-.026.009-.025.008-.026.009-.025.008-.026.009-.025.009-.026.008-.025.009-.025.009-.025.008-.026.009-.025.009-.025.009-.025.009-.025.009-.025.009-.025.009-.025.009-.025.009-.025.01-.024.009-.025.009-.025.009-.024.01-.025.009-.025.01-.024.009-20.126 6.992a14 14 0 0 1-1.519.373q-.79.149-1.627.223c-.557.048-1.346-.164-1.922-.181a20 20 0 0 1-1.74-.132 21 21 0 0 1-1.74-.285c-.578-.121-1.412-.573-1.967-.755a19 19 0 0 1-1.623-.615c-.525-.226-1.325-.805-1.803-1.083a16 16 0 0 1-1.36-.884 14 14 0 0 1-1.193-.974c-.367-.337-.985-1.057-1.276-1.421zm-40.671-77.724c.049.227.215.908.286 1.139a12 12 0 0 0 .53 1.396 14 14 0 0 0 .727 1.406c.137.234.4.895.556 1.123a18 18 0 0 0 1.595 1.99c.196.213.503.819.715 1.02a22 22 0 0 0 1.33 1.154 21 21 0 0 0 2.17 1.504c.25.149.607.608.863.739q.386.196.774.373.388.175.778.331.39.155.779.288.388.132.775.243a14 14 0 0 0 1.524.349l21.204 2.772q.745.072 1.52.234c.524.109.946-.016 1.483.139a19 19 0 0 1 1.613.549q.805.317 1.594.709c.525.262.89.206 1.4.501a20 20 0 0 1 2.86 2.006c.437.37.684.349 1.08.735q.596.579 1.105 1.188c.339.405.449.404.733.813q.427.615.75 1.237l-3.66-7.563a11 11 0 0 0-.302-.644 12 12 0 0 0-.76-1.286 15 15 0 0 0-.455-.636c-.159-.21-.154-.004-.323-.215a17 17 0 0 0-1.1-1.24A19 19 0 0 0 26 197.947c-.22-.187-.294.009-.52-.176a20 20 0 0 0-2.911-1.983c-.256-.143-.394.044-.651-.093a19 19 0 0 0-2.343-1.059 18 18 0 0 0-1.566-.493l-.027-.007-.027-.007-.026-.006-.027-.007-.027-.007-.027-.007-.026-.006-.027-.007-.027-.006-.027-.007-.026-.006-.027-.006-.027-.007-.026-.006-.027-.006-.026-.006-.027-.006-.027-.006-.026-.006-.027-.006-.027-.006-.026-.006-.027-.006-.026-.005-.027-.006-.026-.005-.027-.006-.026-.005-.027-.006-.026-.005-.026-.005-.08-.016-.026-.005-.026-.005-.027-.005-.026-.005-.026-.005-.027-.005-.026-.004c-.009-.002.058.225.05.223l-.027-.005-.026-.005-.026-.006-.026-.005-.026-.005-.026-.005-.026-.005-.026-.005-.026-.004-.026-.005-.026-.005-.026-.004-.026-.005-.026-.005-.026-.004-20.947-4.075a14 14 0 0 1-1.506-.422c-.507-.172-1.078-.655-1.58-.899a19.545 19.545 0 0 1-2.946-1.785c-.473-.348-1.006-1.085-1.44-1.485a20 20 0 0 1-1.242-1.248c-.393-.432-.854-1.289-1.19-1.753a18 18 0 0 1-.922-1.414q-.42-.716-.75-1.438c-.22-.481-.47-1.417-.612-1.895a11 11 0 0 1-.326-1.409zm3.679-87.246q-.106.333-.192.685c-.058.234-.242.915-.28 1.161a13 13 0 0 0-.147 1.533 15 15 0 0 0 .02 1.622c.018.276-.07.976-.033 1.255a18 18 0 0 0 .31 1.687 20 20 0 0 0 .469 1.687c.09.279.101.935.211 1.208a21 21 0 0 0 1.143 2.379q.214.381.443.747c.152.245.239.794.406 1.024q.25.345.513.673a17 17 0 0 0 1.088 1.229 14 14 0 0 0 1.153 1.057l16.991 12.871q.612.432 1.207.953.604.532 1.175 1.147c.381.409.788.527 1.151.975a20 20 0 0 1 1.957 2.909c.285.515.596.642.847 1.17q.376.793.674 1.6c.198.536.395.633.55 1.164q.232.798.375 1.578t.193 1.528c.033.497.074.513.057.979l.63-8.36a11 11 0 0 0 .065-1.445 13 13 0 0 0-.036-.758c-.02-.257-.096-.06-.124-.322a15 15 0 0 0-.257-1.602 18 18 0 0 0-.43-1.632c-.086-.273-.229-.126-.321-.401a20 20 0 0 0-1.004-2.433c-.13-.265-.334-.157-.47-.418a19.6 19.6 0 0 0-2.384-3.605q-.27-.32-.55-.622c-.186-.2-.422-.127-.61-.318l-.018-.02-.02-.02-.02-.019-.019-.02-.02-.02-.019-.019-.02-.02-.019-.019-.02-.019-.019-.02-.02-.019q-.009-.01-.02-.019l-.019-.019-.02-.019-.019-.019-.02-.019-.02-.019-.019-.019-.02-.019-.02-.018-.02-.019-.019-.019-.02-.018-.02-.019-.02-.018-.02-.019-.02-.018-.02-.018-.019-.019-.02-.018-.02-.018-.02-.018-.02-.018-.02-.018-.02-.018-.02-.018-.02-.018-.02-.018-.02-.017-.02-.018-.02-.017-.02-.018-.06-.052-.02-.018-.02-.017-.02-.017-.021-.017-.02-.017-.02-.017-.02-.017-.02-.017-.021-.017-.02-.017-.02-.017q-.011-.008-.021-.017l-16.149-13.882c-.377-.34-.665-.953-1.011-1.362a16 16 0 0 1-.995-1.306 18 18 0 0 1-.898-1.448c-.28-.503-.44-1.356-.666-1.897a20.4 20.4 0 0 1-1.072-3.355c-.13-.57-.083-1.534-.145-2.102a18 18 0 0 1-.105-1.686c-.007-.553.168-1.516.228-2.04q.09-.79.258-1.519.168-.73.413-1.386zm46.724-73.734q-.256.238-.504.501a12 12 0 0 0-.955 1.149c-.153.207-.631.743-.77.968a15 15 0 0 0-.782 1.421 18 18 0 0 0-.664 1.553c-.1.267-.489.848-.57 1.125a20 20 0 0 0-.579 2.569q-.069.436-.119.875c-.033.293-.306.857-.319 1.15a20 20 0 0 0 .055 2.6 18 18 0 0 0 .229 1.66c.05.27-.074.739-.005.997a15 15 0 0 0 .485 1.487l8.25 19.68c.202.455.546.737.72 1.234q.264.759.46 1.576.196.816.319 1.673c.082.57.341.867.387 1.451a20.4 20.4 0 0 1-.029 3.522c-.055.582.115.817.023 1.382a18 18 0 0 1-.346 1.652c-.14.535-.055.674-.228 1.174q-.258.75-.583 1.425-.323.675-.704 1.262l4.994-7.316q.205-.284.397-.59c.127-.205-.019-.04.105-.256a13 13 0 0 0 .686-1.378 15 15 0 0 0 .562-1.522c.083-.264-.101-.178-.024-.448a18 18 0 0 0 .398-1.668q.082-.426.145-.86c.042-.29-.18-.272-.144-.563a20.4 20.4 0 0 0 .075-4.383c-.026-.287-.265-.326-.298-.608a18 18 0 0 0-.269-1.653q-.085-.403-.19-.79l-.007-.027-.007-.027-.007-.026-.008-.027-.007-.027-.007-.026-.008-.027-.007-.026-.008-.027-.008-.026-.007-.026-.008-.027-.007-.026-.016-.053-.008-.026-.008-.026-.007-.026-.008-.026-.008-.026-.008-.026-.008-.026-.008-.026-.009-.026-.008-.026-.008-.026-.008-.025-.009-.026-.008-.026-.008-.025-.009-.026-.008-.025-.009-.026-.008-.025-.009-.026-.009-.025-.008-.026-.009-.025-.009-.025-.008-.025-.01-.026-.008-.025-.01-.025-.008-.025-.009-.025-.01-.025-.008-.025-.01-.025-.008-.025-.01-.024-.009-.025-.01-.025-.008-.025-.01-.024-.01-.025-.009-.024-.009-.025-6.992-20.126a14 14 0 0 1-.373-1.519q-.15-.79-.222-1.627c-.05-.557.163-1.346.18-1.922q.027-.865.132-1.74.105-.874.286-1.74c.12-.578.572-1.412.754-1.967q.274-.833.615-1.623c.226-.525.805-1.325 1.083-1.803q.418-.718.884-1.36.468-.64.974-1.193c.337-.367 1.057-.985 1.421-1.276zm77.724-40.671c-.227.049-.908.215-1.139.286a12 12 0 0 0-1.396.53 14 14 0 0 0-1.406.727c-.234.137-.895.4-1.123.556a18 18 0 0 0-1.99 1.595c-.213.196-.819.503-1.02.715a22 22 0 0 0-1.154 1.33 21 21 0 0 0-1.504 2.17c-.149.25-.608.607-.739.863q-.196.386-.373.774-.175.388-.331.778-.154.39-.288.779-.132.388-.243.775a14 14 0 0 0-.349 1.524l-2.772 21.204a14 14 0 0 1-.234 1.52c-.109.524.016.946-.14 1.483a18 18 0 0 1-.548 1.613 20 20 0 0 1-.71 1.594c-.261.525-.205.89-.5 1.4q-.443.766-.948 1.484-.503.719-1.058 1.375c-.37.438-.349.685-.735 1.082q-.58.595-1.188 1.104c-.405.339-.404.449-.813.733q-.615.428-1.237.75l7.563-3.66q.322-.137.644-.302a12 12 0 0 0 1.286-.76q.32-.215.636-.455c.21-.159.004-.154.215-.323a17 17 0 0 0 1.24-1.1A19 19 0 0 0 102.053 26c.187-.22-.009-.294.176-.52a20 20 0 0 0 1.983-2.911c.143-.256-.044-.394.093-.651a19 19 0 0 0 1.059-2.343 18 18 0 0 0 .493-1.566l.007-.027.007-.027.006-.026.007-.027.007-.027.007-.027.006-.027.007-.026.006-.027.007-.027.006-.026.006-.027.007-.027.006-.027.006-.026.006-.026.006-.027.006-.027.006-.026.006-.027.006-.027.006-.026.006-.027.005-.026.006-.027.005-.026.006-.027.005-.026.006-.027.005-.026.005-.026.016-.08.005-.026.005-.026.005-.027.005-.026.005-.026.005-.027.004-.026c.002-.009-.225.058-.223.05l.005-.027.005-.026.006-.026.005-.026.005-.026.005-.026.005-.026.005-.026.004-.026.005-.026.005-.026.004-.026.005-.026.005-.026.004-.026 4.075-20.947a14 14 0 0 1 .422-1.506c.172-.507.655-1.078.899-1.58q.367-.757.816-1.496.448-.74.969-1.45c.348-.473 1.085-1.006 1.485-1.44a20 20 0 0 1 1.248-1.242c.432-.393 1.289-.854 1.753-1.19q.697-.502 1.414-.922.716-.42 1.438-.75c.481-.22 1.417-.47 1.895-.612a11 11 0 0 1 1.409-.326zm87.246 3.679q-.333-.106-.685-.192c-.234-.058-.915-.242-1.161-.28a13 13 0 0 0-1.533-.147 15 15 0 0 0-1.622.02c-.276.018-.976-.07-1.255-.033a18 18 0 0 0-1.687.31 20 20 0 0 0-1.687.469c-.279.09-.935.101-1.208.211a21 21 0 0 0-2.379 1.143q-.381.214-.747.443c-.245.152-.794.239-1.024.406q-.345.25-.673.513a17 17 0 0 0-1.229 1.088 14 14 0 0 0-1.057 1.153l-12.871 16.991q-.432.613-.953 1.207a16 16 0 0 1-1.147 1.175c-.409.381-.527.788-.975 1.151a20 20 0 0 1-2.909 1.957c-.515.285-.642.596-1.17.847q-.793.376-1.6.674c-.536.198-.633.395-1.164.55q-.798.232-1.578.375t-1.528.193c-.497.033-.513.074-.979.057l8.36.63a11 11 0 0 0 1.445.065q.374-.006.758-.036c.257-.02.06-.096.322-.124a15 15 0 0 0 1.602-.257 18 18 0 0 0 1.632-.43c.273-.086.126-.229.401-.321a20 20 0 0 0 2.433-1.004c.265-.13.157-.335.418-.47a19.6 19.6 0 0 0 3.605-2.384q.32-.27.622-.55c.2-.186.127-.422.318-.61l.02-.019.02-.019.019-.02.02-.019.02-.02.019-.019.02-.02.019-.019.019-.02.02-.019.019-.02.019-.02.019-.019.019-.02.019-.019.019-.02.019-.02.019-.019.019-.02.018-.02.019-.02.019-.019.018-.02.019-.02.018-.02.019-.02.018-.02.018-.02.019-.019.018-.02.018-.02.018-.02.018-.02.018-.02.018-.02.018-.02.018-.02.018-.02.017-.02.018-.02.017-.02.018-.02.052-.06.018-.02.017-.02.017-.02.017-.021.017-.02.017-.02.017-.02.017-.02.017-.021.017-.02.017-.02q.008-.011.017-.021l13.882-16.149c.34-.377.953-.665 1.362-1.011q.614-.52 1.306-.995.692-.476 1.448-.898c.503-.28 1.356-.44 1.897-.666a20.4 20.4 0 0 1 3.355-1.072c.57-.13 1.534-.083 2.102-.145a18 18 0 0 1 1.686-.105c.553-.007 1.516.168 2.041.228q.788.09 1.518.258t1.386.413zm73.734 46.724q-.238-.256-.501-.504a12 12 0 0 0-1.149-.955c-.207-.153-.743-.631-.968-.77a15 15 0 0 0-1.421-.782 18 18 0 0 0-1.553-.664c-.267-.1-.848-.489-1.125-.57a20 20 0 0 0-3.444-.698c-.293-.033-.857-.306-1.149-.319a20 20 0 0 0-2.602.055 18 18 0 0 0-1.659.229c-.27.05-.739-.074-.997-.005a15 15 0 0 0-1.487.485l-19.679 8.25c-.456.202-.738.546-1.235.72q-.759.264-1.576.46t-1.673.319c-.571.082-.867.341-1.451.387a20.4 20.4 0 0 1-3.522-.029c-.582-.055-.817.115-1.382.023a18 18 0 0 1-1.652-.346c-.535-.14-.674-.055-1.174-.228a14 14 0 0 1-1.425-.583q-.675-.323-1.262-.704l7.316 4.994q.284.205.59.397c.205.127.04-.019.256.105a13 13 0 0 0 1.378.686 15 15 0 0 0 1.522.562c.263.083.177-.101.448-.024a19 19 0 0 0 1.668.398q.426.082.86.145c.289.042.272-.18.563-.144a20.4 20.4 0 0 0 4.384.075c.286-.026.325-.265.607-.298a18 18 0 0 0 1.653-.269q.403-.085.79-.19l.027-.007.027-.007.026-.007.027-.008.027-.007.026-.007.027-.008.026-.007.027-.008.026-.007.026-.008.027-.008.026-.007.026-.008.027-.008.026-.008.026-.008.026-.007.026-.008.026-.008.026-.008.026-.008.026-.009.026-.008.026-.008.026-.008.025-.008.026-.009.026-.008.025-.009.026-.008.025-.008.026-.009.025-.008.026-.009.025-.009.026-.008.025-.009.025-.009.025-.009.026-.008.025-.01.025-.008.025-.01.025-.008.025-.01.025-.008.025-.01.025-.008.024-.01.025-.009.025-.01.025-.008.024-.01.025-.01.025-.009.024-.009 20.126-6.992q.728-.223 1.519-.373t1.627-.222c.557-.05 1.346.163 1.922.18q.865.027 1.74.132.874.105 1.741.286c.577.12 1.411.572 1.966.754q.833.274 1.623.615c.525.226 1.325.805 1.803 1.083q.718.418 1.36.884.64.468 1.193.974c.367.337.985 1.057 1.276 1.421zm40.671 77.724a23 23 0 0 0-.286-1.139 12.7 12.7 0 0 0-.87-2.1 17 17 0 0 0-.387-.702c-.137-.234-.399-.895-.556-1.123a18 18 0 0 0-1.595-1.99c-.196-.213-.503-.819-.715-1.02q-.32-.3-.652-.59-.333-.288-.679-.564a21 21 0 0 0-1.428-1.036 19 19 0 0 0-.741-.468c-.249-.149-.607-.608-.863-.739a19.29 19.29 0 0 0-1.552-.704q-.39-.154-.779-.288a17 17 0 0 0-.775-.243 14 14 0 0 0-1.524-.349l-21.204-2.772a14 14 0 0 1-1.519-.233c-.525-.11-.947.015-1.484-.14a18 18 0 0 1-1.613-.55 20 20 0 0 1-1.594-.708c-.525-.262-.89-.206-1.4-.501a19.46 19.46 0 0 1-2.859-2.006c-.438-.37-.685-.349-1.082-.735a16 16 0 0 1-1.104-1.188c-.339-.405-.449-.404-.733-.813q-.428-.615-.749-1.237l3.659 7.563q.137.323.302.644a12 12 0 0 0 .76 1.286q.216.32.455.636c.159.21.154.004.323.215a17 17 0 0 0 1.101 1.24 19 19 0 0 0 1.254 1.169c.22.187.294-.009.52.176q.34.277.693.541.354.264.719.512a20 20 0 0 0 1.499.93c.256.143.394-.044.651.093a19 19 0 0 0 2.343 1.059 18 18 0 0 0 1.566.493l.027.007.027.007.026.006.027.007.027.007.027.007.026.006.027.007.027.006.027.007.026.006.027.006.027.007.026.006.027.006.027.006.026.006.027.006.027.006.026.006.027.006.026.006.027.006.026.005.027.006.026.005.027.006.026.005.027.006.026.005.026.005.027.006.026.005.027.005.026.005.027.005.026.005.026.005.026.005.027.005.026.004c.009.002-.058-.225-.05-.223l.027.005.026.005.026.006.026.005.026.005.026.005.026.005.026.005.026.004.026.005.026.005.026.004.026.005.026.005.026.004 20.947 4.075q.744.164 1.506.422c.507.172 1.078.655 1.581.899q.756.367 1.495.816t1.451.969c.472.348 1.005 1.085 1.438 1.485q.651.6 1.243 1.248c.393.432.854 1.289 1.189 1.753q.504.697.923 1.414.42.716.75 1.438c.219.481.469 1.417.612 1.895q.213.716.326 1.409z" class="stroke-blue fill-blue" style="clip-rule:evenodd;fill:#0074d9;fill-opacity:1;fill-rule:nonzero;stroke-width:17.7639;stroke-linecap:round;stroke-linejoin:round;stroke-dashoffset:130.744;paint-order:stroke markers fill" transform="translate(18.939 18.939)"/>
    <path d="M272.706 196.015q-.121.327-.225.675-.104.346-.188.711c-.056.243.049.06-.001.312a15 15 0 0 0-.266 2.387c-.009.276.157.154.154.435a19 19 0 0 0 .15 2.581q.054.435.128.87c.05.29.261.225.316.514a21 21 0 0 0 .403 1.718 19 19 0 0 0 .546 1.657q.153.405.322.796c.113.261.354.242.471.496q.176.38.365.745a16 16 0 0 0 .813 1.384q.217.326.444.631l12.137 17.542q.402.633.752 1.342.356.721.65 1.508c.196.523.211 1.341.348 1.9a20 20 0 0 1 .531 3.466c.038.588-.166 1.511-.193 2.095q-.041.877-.157 1.729c-.078.567-.415 1.492-.555 2.027a16 16 0 0 1-.487 1.547q-.277.743-.617 1.411c-.227.444-.75 1.234-1.022 1.612l6.186-9.313a11 11 0 0 0 .674-1.28c.102-.227.44-.852.525-1.094q.129-.363.24-.744a15 15 0 0 0 .372-1.578q.075-.408.131-.827c.037-.28.28-.935.298-1.22q.027-.43.034-.863a19.5 19.5 0 0 0-.129-2.629c-.033-.293.102-.915.049-1.205a19.928 19.928 0 0 0-.926-3.355q-.15-.4-.316-.784c-.111-.257-.1-.765-.226-1.007a16 16 0 0 0-.436-.783l-.014-.023-.014-.024-.014-.024-.015-.023-.014-.024-.014-.024-.015-.023-.014-.023-.014-.024-.015-.023-.014-.023-.015-.023-.014-.023-.015-.024-.014-.023-.029-.046-.015-.023-.015-.022-.015-.023-.014-.023-.015-.023-.015-.022-.015-.023-.015-.022-.014-.023-.015-.023-.015-.022-.015-.022-.015-.023-.015-.022-.015-.022-.016-.022-.015-.022-.015-.023-.015-.022-.015-.022-.015-.021-.016-.022-.015-.022-.015-.022-.015-.022-.016-.021-.015-.022-.016-.022-.015-.021-.016-.022-.015-.021-.016-.021-.015-.022-.016-.021-.015-.021-.016-.021-.016-.021-13.307-16.573a14 14 0 0 1-.957-1.237 17 17 0 0 1-.863-1.397q-.405-.736-.752-1.529c-.23-.528-.572-.752-.772-1.304a20 20 0 0 1-.527-1.683c-.152-.57-.402-.765-.517-1.338a19 19 0 0 1-.266-1.715 18 18 0 0 1-.104-1.685c-.008-.553-.14-.672-.106-1.199q.051-.792.183-1.529c.089-.49.074-.516.204-.964zm-39.554 55.287c-.179.15.004.011-.174.173q-.267.244-.527.514a13 13 0 0 0-1.002 1.168q-.242.315-.471.65c-.153.223.048.173-.103.405q-.226.348-.438.714a19 19 0 0 0-1.145 2.318c-.111.27.1.298-.007.571a20 20 0 0 0-.571 1.671 21 21 0 0 0-.422 1.706c-.057.285.163.376.112.659q-.076.426-.133.848-.056.423-.092.841a17 17 0 0 0-.06 1.641 15 15 0 0 0 .107 1.56l1.842 21.185q.037.75-.009 1.538c-.032.535-.337 1.227-.439 1.777a18 18 0 0 1-.39 1.658 20 20 0 0 1-.55 1.656c-.21.548-.771 1.27-1.041 1.794q-.405.787-.874 1.529-.469.743-.991 1.425c-.347.455-1.107 1.069-1.493 1.466a16 16 0 0 1-1.188 1.104c-.405.339-1.232.842-1.655 1.106q-.635.397-1.272.688l10.009-4.97q.306-.168.611-.363a12 12 0 0 0 1.206-.883q.297-.244.588-.514c.194-.179.774-.593.958-.791a17 17 0 0 0 1.565-1.959q.245-.353.474-.722c.154-.245.648-.717.786-.974a21 21 0 0 0 .759-1.589 21 21 0 0 0 .621-1.652c.091-.278.465-.752.536-1.034a20 20 0 0 0 .348-1.692 18 18 0 0 0 .184-1.665q.025-.41.029-.812v-.028l.001-.027v-.193l-.001-.028v-.054l-.001-.028v-.054l-.001-.028-.001-.027v-.027l-.001-.028v-.027l-.001-.027c0-.009.21-.158.209-.167l-.001-.027-.002-.028-.002-.027-.001-.027-.002-.027-.002-.026-.002-.027-.001-.027-.002-.027-.002-.027-.002-.027-.002-.027-.002-.027-.003-.026-.002-.027-.002-.027-.002-.026-.003-.027-.002-.026-.003-.027-.002-.027-.003-.026-.002-.027-.003-.026-.003-.026-.002-.027-.003-.026-.003-.026-.003-.027-.003-.026-.003-.026-.006-.052-.003-.027-.003-.026-3.169-21.077q-.133-.75-.184-1.554c-.034-.534-.277-.917-.27-1.476q.01-.84.1-1.701t.26-1.725c.112-.576-.051-.92.098-1.491q.224-.856.518-1.683c.196-.55.096-.808.322-1.333q.34-.79.74-1.518t.851-1.381c.3-.434.258-.544.576-.927q.48-.576.992-1.053zm-61.518 27.952a11 11 0 0 0-1.409.326q-.358.106-.721.238c-.241.088-.032.112-.277.209a16 16 0 0 0-1.473.679 18 18 0 0 0-1.458.852c-.239.156-.058.258-.298.42q-.359.245-.711.506a21 21 0 0 0-1.364 1.114q-.33.294-.647.602c-.211.205-.055.371-.261.579q-.31.312-.603.636a18.5 18.5 0 0 0-2.047 2.713c-.144.233-.008.445-.142.677a14 14 0 0 0-.708 1.394l-9.051 19.289c-.223.446-.737.888-1.033 1.323q-.453.665-.993 1.308a18 18 0 0 1-1.155 1.252c-.41.405-1.195.796-1.656 1.158q-.692.545-1.433 1.029-.74.485-1.514.9c-.515.276-1.462.5-1.994.711a18 18 0 0 1-1.597.55c-.531.155-1.513.254-2.034.336a14 14 0 0 1-1.532.155q-.748.033-1.446-.028l10.704.669q.349.014.711.002c.241-.007.954-.02 1.201-.049q.372-.043.751-.111.38-.067.765-.158a16 16 0 0 0 1.558-.453c.261-.09.966-.2 1.225-.312a18.4 18.4 0 0 0 2.299-1.183c.251-.15.903-.314 1.144-.482q.36-.254.712-.522a21 21 0 0 0 1.352-1.133q.325-.296.634-.605.31-.308.601-.627c.195-.213.704-.449.881-.671a17.6 17.6 0 0 0 1.403-2.053l.014-.024.014-.024.013-.024.014-.024.014-.024.013-.024.014-.024.013-.024.014-.024.013-.024.013-.024.013-.024.013-.024.014-.024.013-.024.013-.024.013-.024.012-.024.013-.024.013-.024.013-.024.012-.024.013-.024.013-.024.012-.024.012-.024.013-.025.012-.024.012-.024.012-.024.013-.024.012-.024.012-.024.012-.024.012-.024.012-.024.011-.024.012-.024.012-.024.011-.024.012-.024.011-.024.012-.024.011-.024.012-.025.011-.024.011-.024.011-.024.011-.024.011-.024.011-.024.011-.024.011-.024.011-.024.011-.024.01-.024.011-.024 7.841-19.834q.254-.718.603-1.443.35-.725.789-1.44c.292-.477.296-.905.63-1.374q.502-.705 1.074-1.375a20 20 0 0 1 1.203-1.291c.42-.413.46-.752.901-1.135q.663-.575 1.36-1.078c.464-.335.507-.556.977-.847q.706-.438 1.419-.785t1.42-.596c.471-.165.479-.215.932-.323zm-67.649-6.548a11.533 11.533 0 0 0-1.386-.413c-.243-.056-.06.049-.312-.001a15 15 0 0 0-2.387-.266c-.276-.009-.153.157-.435.154a19 19 0 0 0-2.581.15q-.435.054-.87.128c-.29.05-.225.261-.514.316a21 21 0 0 0-1.718.403 19.5 19.5 0 0 0-2.453.868c-.26.113-.242.354-.495.471q-.381.176-.746.365a16 16 0 0 0-1.384.813q-.326.217-.63.444L70.53 288.275q-.633.402-1.342.752-.721.356-1.508.65c-.523.196-1.34.211-1.9.348a20 20 0 0 1-3.466.531c-.588.038-1.511-.166-2.095-.193a20 20 0 0 1-1.728-.157c-.567-.078-1.493-.415-2.028-.555a16 16 0 0 1-1.547-.487 14 14 0 0 1-1.41-.617c-.445-.227-1.234-.75-1.613-1.022l9.313 6.186q.298.184.618.352.32.17.662.322c.227.102.852.44 1.094.525a14 14 0 0 0 1.52.444 17 17 0 0 0 1.63.299c.279.037.934.28 1.22.298q.428.027.862.034a19.5 19.5 0 0 0 2.63-.129c.292-.033.914.102 1.204.049q.435-.08.863-.178a20 20 0 0 0 2.492-.748q.4-.15.785-.316c.256-.111.763-.1 1.006-.226q.365-.19.712-.394l.023-.014.024-.014.024-.014.024-.014.023-.014.024-.014.023-.015.024-.014.024-.014.023-.015.023-.014.024-.014.023-.015.023-.014.023-.015.023-.014.024-.015.023-.014.023-.015.023-.014.023-.015.022-.015.023-.015.023-.014.023-.015.045-.03.023-.015.022-.014.023-.015.022-.015.022-.015.023-.015.022-.015.022-.015.023-.016.022-.015.022-.015.022-.015.022-.015.021-.015.022-.016.022-.015.022-.015.022-.015.021-.016.022-.015.022-.016.021-.015.022-.016.02-.015.022-.016.022-.015.02-.016.043-.031.022-.016 16.572-13.307q.575-.499 1.237-.957.662-.456 1.397-.863.735-.405 1.529-.752c.528-.23.752-.572 1.304-.772a20 20 0 0 1 1.683-.527c.57-.152.765-.402 1.338-.517a19 19 0 0 1 1.715-.266 18 18 0 0 1 1.685-.104c.553-.008.672-.14 1.199-.106q.792.051 1.529.183c.49.089.516.074.964.204zm-55.287-39.554c-.15-.179-.01.004-.173-.174a12 12 0 0 0-1.075-1.038 14.837 14.837 0 0 0-1.256-.962c-.224-.153-.174.048-.406-.103q-.348-.226-.713-.438a19 19 0 0 0-2.32-1.145c-.27-.111-.297.1-.57-.007a20 20 0 0 0-1.671-.571 21 21 0 0 0-1.706-.422c-.285-.057-.376.163-.66.112a20 20 0 0 0-1.688-.225 17 17 0 0 0-1.64-.06 15 15 0 0 0-1.561.107l-21.185 1.842q-.75.038-1.538-.009c-.535-.032-1.227-.337-1.777-.439a18 18 0 0 1-1.658-.39 20 20 0 0 1-1.656-.55c-.548-.21-1.27-.771-1.794-1.041a20 20 0 0 1-1.53-.874 19 19 0 0 1-1.424-.991c-.455-.347-1.07-1.107-1.466-1.493a16 16 0 0 1-1.104-1.188c-.34-.405-.842-1.232-1.106-1.655a11 11 0 0 1-.688-1.272l4.97 10.009q.168.306.363.611a12 12 0 0 0 .883 1.206q.244.297.514.588c.179.194.593.774.791.958a17 17 0 0 0 1.27 1.066 19 19 0 0 0 1.41.973c.246.154.718.648.975.786a21 21 0 0 0 1.59.759 20 20 0 0 0 1.65.621c.28.091.753.465 1.035.536a20 20 0 0 0 1.692.348 18 18 0 0 0 1.665.184q.41.025.812.029h.028l.027.001h.193l.028-.001h.054l.028-.001h.054l.028-.001.027-.001h.027l.028-.001h.027l.027-.001c.01 0 .158.21.167.209l.027-.001.028-.002.027-.002.027-.001.027-.002.027-.002.027-.002.026-.001.027-.002.027-.002.027-.002.027-.002.027-.002.026-.003.027-.002.027-.002.026-.002.027-.003.026-.002.027-.003.027-.002.026-.003.027-.002.026-.003.026-.003.027-.002.026-.003.026-.003.027-.003.026-.003.026-.003.026-.003.026-.003.027-.003.026-.003 21.077-3.169q.751-.132 1.553-.184c.535-.034.918-.277 1.477-.27q.841.01 1.7.1.861.09 1.726.26c.576.112.92-.051 1.49.098q.856.224 1.684.518c.55.196.808.096 1.333.322q.79.34 1.518.74t1.38.851c.435.3.545.258.928.576q.576.48 1.052.992zm-27.952-61.518q-.055-.345-.138-.698a12 12 0 0 0-.426-1.432c-.087-.241-.112-.032-.21-.277a16 16 0 0 0-.678-1.473 18 18 0 0 0-.852-1.458c-.156-.239-.258-.058-.42-.298a19.582 19.582 0 0 0-1.62-2.075q-.294-.33-.602-.647c-.205-.211-.37-.055-.579-.261a19.094 19.094 0 0 0-2.652-2.199 16 16 0 0 0-.697-.451c-.233-.144-.445-.008-.677-.142a15 15 0 0 0-1.394-.708l-19.29-9.051c-.445-.223-.887-.737-1.322-1.033a16 16 0 0 1-1.308-.993 18 18 0 0 1-1.252-1.155c-.405-.41-.796-1.195-1.158-1.656a20.4 20.4 0 0 1-1.93-2.947c-.275-.515-.499-1.462-.71-1.994a18 18 0 0 1-.55-1.597c-.155-.531-.254-1.513-.336-2.034a14 14 0 0 1-.155-1.532q-.032-.748.029-1.446l-.67 10.704q-.014.349-.002.711c.007.241.02.954.05 1.201a13 13 0 0 0 .268 1.516 15 15 0 0 0 .453 1.558c.09.261.2.966.312 1.225a18.6 18.6 0 0 0 1.183 2.299c.15.251.314.903.482 1.144a21 21 0 0 0 1.074 1.401 20 20 0 0 0 1.186 1.297q.309.31.627.601c.213.195.449.704.671.881a17 17 0 0 0 2.053 1.403l.024.014.024.014.024.013.024.014.024.014.024.013.024.014.024.013.024.014.024.013.024.013.024.013.024.013.024.014.024.013.024.013.024.013.024.012.024.013.024.013.024.013.024.012.024.013.024.013.024.012.024.012.025.013.024.012.024.012.024.012.024.013.024.012.024.012.024.012.024.012.024.012.024.011.024.012.024.012.024.011.072.035.024.011.025.012.024.011.024.011.024.011.024.011.024.011.024.011.024.011.024.011.024.011.024.011.024.01.024.011 19.834 7.841q.718.254 1.443.603.724.35 1.44.789c.477.292.905.296 1.374.63q.706.502 1.375 1.074.67.572 1.29 1.203c.414.42.753.46 1.136.901q.575.663 1.078 1.36c.335.464.556.507.847.977q.438.706.785 1.419.347.715.596 1.42c.165.471.215.479.323.932zm6.548-67.649q.121-.327.225-.675.104-.347.188-.711c.056-.243-.049-.06 0-.312a14 14 0 0 0 .217-1.568q.035-.404.05-.819c.01-.276-.157-.154-.154-.435a18 18 0 0 0-.06-1.714 20 20 0 0 0-.218-1.737c-.05-.29-.26-.225-.316-.515a20.5 20.5 0 0 0-.659-2.555 19 19 0 0 0-.612-1.615c-.113-.26-.354-.242-.471-.496a17 17 0 0 0-.759-1.456 15 15 0 0 0-.863-1.304L11.725 70.531a14 14 0 0 1-.752-1.342q-.356-.721-.65-1.508c-.196-.523-.21-1.34-.348-1.9q-.205-.841-.34-1.712a20 20 0 0 1-.19-1.754c-.04-.588.165-1.512.192-2.095q.041-.877.157-1.729c.078-.567.415-1.492.555-2.027q.21-.804.487-1.547.276-.743.617-1.41c.227-.445.75-1.235 1.022-1.613L6.29 61.207a11 11 0 0 0-.674 1.28c-.102.227-.44.852-.525 1.094a14 14 0 0 0-.444 1.52 16 16 0 0 0-.299 1.63c-.037.278-.28.934-.298 1.22a19 19 0 0 0-.03 1.734 20 20 0 0 0 .125 1.757c.033.293-.102.915-.049 1.205a20 20 0 0 0 .642 2.545 19 19 0 0 0 .6 1.594c.11.257.1.764.226 1.007q.19.364.394.711l.014.024.014.024.014.024.014.023.028.048.015.023.028.047.015.024.014.023.014.024.015.023.014.023.015.023.014.023.015.024.014.023.015.023.03.046.014.022.015.023.014.023.015.023.03.045.015.023.03.045.014.022.015.022.015.023.015.022.015.022.03.045.016.022.03.044.015.021.016.022.015.022.015.022.03.043.016.022.016.022.03.043.016.02.062.086.016.021.016.022L20.112 96.36q.499.575.957 1.237t.863 1.397.752 1.529c.23.528.572.752.772 1.304q.3.828.527 1.683c.152.57.402.765.517 1.338q.173.86.266 1.715.092.855.104 1.685c.008.553.14.672.106 1.199a14 14 0 0 1-.184 1.529c-.088.49-.073.516-.203.964zM66.85 48.698c.178-.15-.005-.01.173-.173a12 12 0 0 0 1.037-1.075 14 14 0 0 0 .963-1.257c.153-.223-.048-.173.103-.405a18 18 0 0 0 .85-1.46 19 19 0 0 0 .733-1.572c.111-.27-.1-.298.007-.571a20.4 20.4 0 0 0 .993-3.377c.057-.285-.164-.376-.112-.66a19 19 0 0 0 .225-1.688 17 17 0 0 0 .06-1.64 15 15 0 0 0-.107-1.561l-1.842-21.185a14 14 0 0 1 .009-1.538c.032-.535.337-1.227.44-1.777q.152-.826.389-1.658.235-.833.55-1.656c.21-.548.771-1.27 1.041-1.794q.405-.787.874-1.53.469-.741.99-1.424c.348-.455 1.108-1.07 1.494-1.466a16 16 0 0 1 1.188-1.104c.405-.34 1.232-.842 1.655-1.106q.635-.397 1.272-.688l-10.009 4.97a11 11 0 0 0-1.218.78 13 13 0 0 0-1.187.98c-.194.179-.774.593-.958.791a16 16 0 0 0-1.066 1.27 18 18 0 0 0-.973 1.41c-.154.246-.648.718-.786.975a20 20 0 0 0-1.38 3.24c-.091.28-.465.753-.536 1.035a19 19 0 0 0-.348 1.692 18 18 0 0 0-.184 1.665q-.026.41-.03.812v.276l.001.027v.055l.002.082v.027l.001.027.002.082c0 .01-.21.158-.21.167l.002.027.002.028.001.027.002.027.002.027.004.054.001.026.002.027.002.027.002.027.002.027.002.027.003.026.002.027.002.027.002.026.003.027.002.026.003.027.002.027.003.026.002.027.003.026q0 .014.003.026l.002.027.003.026.003.026q0 .014.003.027l.003.026q0 .013.003.026l.01.079.002.026 3.17 21.077q.131.751.183 1.553c.034.535.277.918.27 1.477q-.01.841-.1 1.7-.09.861-.26 1.726c-.112.576.05.92-.098 1.49q-.224.856-.518 1.684c-.196.55-.096.808-.322 1.333a18 18 0 0 1-.74 1.518q-.4.728-.85 1.38c-.3.435-.259.545-.577.928q-.48.576-.992 1.052zm61.517-27.952q.345-.055.698-.138a12 12 0 0 0 1.432-.426c.241-.087.032-.112.277-.21a16 16 0 0 0 1.473-.678 18 18 0 0 0 1.458-.852c.239-.156.058-.258.298-.42q.358-.245.711-.506a20 20 0 0 0 1.364-1.114q.33-.294.647-.602c.211-.205.055-.37.261-.579q.31-.312.603-.636a19 19 0 0 0 1.596-2.016 16 16 0 0 0 .451-.697c.144-.233.008-.445.142-.677a15 15 0 0 0 .708-1.394l9.051-19.29c.223-.445.737-.887 1.033-1.322a16 16 0 0 1 .993-1.308q.54-.644 1.155-1.252c.41-.405 1.195-.796 1.656-1.158a20.4 20.4 0 0 1 2.947-1.93c.515-.275 1.462-.499 1.994-.71a18 18 0 0 1 1.597-.55c.531-.155 1.513-.254 2.034-.336a14 14 0 0 1 1.532-.155q.748-.032 1.446.029l-10.704-.67q-.349-.014-.711-.002c-.241.007-.954.02-1.201.05a13 13 0 0 0-1.516.268 15 15 0 0 0-1.558.453c-.261.09-.966.2-1.225.312a18.6 18.6 0 0 0-2.299 1.183c-.251.15-.903.314-1.144.482a21 21 0 0 0-1.401 1.074 20 20 0 0 0-1.297 1.186q-.31.309-.601.627c-.195.213-.704.449-.881.671a17 17 0 0 0-1.403 2.053l-.014.024-.014.024-.013.024-.014.024-.014.024-.013.024-.014.024-.013.024-.014.024-.013.024-.013.024-.013.024-.013.024-.014.024-.013.024-.013.024-.013.024-.012.024-.013.024-.013.024-.013.024-.012.024-.013.024-.013.024-.012.024-.012.024-.013.025-.012.024-.012.024-.012.024-.013.024-.012.024-.012.024-.012.024-.012.024-.012.024-.011.024-.012.024-.012.024-.011.024-.012.024-.011.024-.012.024-.011.024-.012.025-.011.024-.011.024-.011.024-.011.024-.011.024-.011.024-.011.024-.011.024-.011.024-.011.024-.01.024-.011.024-7.841 19.834a14 14 0 0 1-.603 1.443 17 17 0 0 1-.789 1.44c-.292.477-.296.905-.63 1.374q-.502.706-1.074 1.375-.572.67-1.203 1.29c-.42.414-.46.753-.901 1.136q-.663.575-1.36 1.078c-.464.335-.507.556-.977.847q-.706.438-1.419.785-.715.347-1.42.596c-.471.165-.479.215-.932.323zm67.649 6.548q.327.121.675.225.346.104.711.188c.243.056.06-.049.312 0a14 14 0 0 0 1.568.217q.404.035.819.05c.276.01.154-.157.435-.154a18 18 0 0 0 1.714-.06 20 20 0 0 0 1.737-.218c.29-.05.225-.26.514-.316a20 20 0 0 0 2.556-.659 19 19 0 0 0 1.615-.612c.261-.113.242-.354.496-.471a17 17 0 0 0 1.456-.759q.346-.202.673-.42.326-.216.631-.443l17.542-12.137q.633-.402 1.342-.752.721-.356 1.508-.65c.523-.196 1.341-.21 1.9-.348q.841-.205 1.712-.34a20 20 0 0 1 1.754-.19c.588-.04 1.511.165 2.095.192q.877.041 1.729.157c.567.078 1.492.415 2.027.555q.803.21 1.547.487.743.276 1.411.617c.444.227 1.234.75 1.612 1.022l-9.313-6.186a11 11 0 0 0-1.28-.674c-.227-.102-.852-.44-1.094-.525q-.363-.129-.744-.24a15 15 0 0 0-1.578-.372q-.408-.075-.827-.13c-.28-.038-.935-.281-1.22-.3a19 19 0 0 0-2.613.014q-.44.031-.879.082c-.293.033-.915-.102-1.205-.049a21 21 0 0 0-1.713.393 20 20 0 0 0-1.642.533q-.4.15-.784.316c-.257.11-.765.1-1.007.226q-.365.19-.711.394l-.024.014-.024.014-.024.014-.023.014-.142.086-.023.014-.024.014-.023.015-.023.014-.046.03-.024.014-.023.014-.023.015-.023.014-.023.015-.022.015-.023.015-.023.014-.023.015-.022.015-.045.03-.023.014-.023.015-.022.015-.022.015-.023.015-.022.015-.022.015-.044.03-.023.016-.022.015-.022.015-.021.015-.044.03-.022.016-.022.015-.021.016-.044.03-.021.016-.022.016-.021.015-.021.016-.022.015-.021.016-.021.015-.021.016-.021.016-16.573 13.307q-.575.499-1.237.957t-1.397.863q-.736.405-1.529.752c-.528.23-.752.572-1.304.772q-.828.3-1.683.527c-.57.152-.765.402-1.338.517q-.86.173-1.715.266-.855.092-1.685.104c-.553.008-.672.14-1.199.106a14 14 0 0 1-1.529-.184c-.49-.088-.516-.073-.964-.203zm55.287 39.555c.15.178.011-.005.173.173q.244.267.514.527a13 13 0 0 0 1.168 1.002q.315.24.65.471c.223.153.173-.048.405.103a17 17 0 0 0 1.459.85 20 20 0 0 0 1.573.733c.27.111.298-.1.571.007a20.5 20.5 0 0 0 3.377.993c.285.057.376-.164.659-.112a19 19 0 0 0 1.689.225 17 17 0 0 0 1.641.06 15 15 0 0 0 1.56-.107l21.185-1.842a14 14 0 0 1 1.538.009c.535.031 1.227.337 1.777.44q.825.152 1.658.389.833.235 1.656.55c.548.21 1.27.771 1.794 1.041a20 20 0 0 1 2.954 1.864c.455.348 1.069 1.108 1.466 1.494q.595.58 1.104 1.188c.339.405.842 1.232 1.106 1.655q.397.635.688 1.272l-4.97-10.009a10.5 10.5 0 0 0-.779-1.218 13.127 13.127 0 0 0-.981-1.187c-.179-.194-.593-.774-.791-.958a17 17 0 0 0-1.269-1.066 19 19 0 0 0-1.412-.973c-.245-.154-.717-.648-.974-.786a20.4 20.4 0 0 0-3.241-1.38c-.278-.091-.752-.465-1.034-.536a20 20 0 0 0-1.692-.348 18 18 0 0 0-1.665-.184 16 16 0 0 0-.812-.03h-.276l-.027.001h-.082l-.027.001-.028.001h-.027l-.027.001h-.028l-.054.002c-.009 0-.158-.21-.167-.21l-.027.002-.028.002-.027.001-.027.002-.027.002-.053.004-.027.001-.027.002-.027.002-.027.002-.027.002-.027.002-.026.003-.027.002-.027.002-.026.002-.027.003-.026.002-.027.003-.027.002-.026.003-.027.002-.026.003q-.014 0-.026.003l-.027.002-.026.003-.026.003-.027.003-.026.003q-.013 0-.026.003l-.079.01-.026.002-21.077 3.17q-.75.13-1.554.183c-.534.034-.917.277-1.476.27a18 18 0 0 1-1.701-.1 20 20 0 0 1-1.725-.26c-.576-.112-.92.05-1.491-.098a20 20 0 0 1-1.683-.518c-.55-.196-.808-.096-1.333-.322a18 18 0 0 1-1.518-.74q-.728-.4-1.381-.85c-.434-.3-.544-.259-.927-.577q-.576-.48-1.053-.992zm27.952 61.517a11 11 0 0 0 .326 1.409q.106.358.238.721c.088.241.112.032.209.277a16 16 0 0 0 .679 1.473 18 18 0 0 0 .852 1.458c.156.239.258.058.42.298q.245.359.506.711a21 21 0 0 0 1.114 1.364q.294.33.602.647c.205.211.371.055.579.261q.312.31.636.603a18.5 18.5 0 0 0 2.713 2.047c.233.144.445.008.677.142a14 14 0 0 0 1.394.708l19.289 9.051c.446.223.888.737 1.323 1.033q.665.453 1.308.993a18 18 0 0 1 1.252 1.155c.405.41.796 1.195 1.158 1.656q.545.692 1.029 1.433.485.74.9 1.514c.276.515.5 1.462.711 1.994q.317.8.55 1.597c.155.531.254 1.513.336 2.034q.123.784.155 1.532.033.748-.028 1.446l.669-10.704a10 10 0 0 0 .002-.711c-.007-.241-.02-.954-.049-1.201a13.69 13.69 0 0 0-.269-1.516 16 16 0 0 0-.453-1.558c-.09-.261-.2-.966-.312-1.225a18.4 18.4 0 0 0-1.183-2.299c-.15-.251-.314-.903-.482-1.144q-.254-.36-.522-.712a21 21 0 0 0-1.133-1.352 18.618 18.618 0 0 0-1.232-1.235c-.213-.195-.449-.704-.671-.881a17.6 17.6 0 0 0-2.053-1.403l-.024-.014-.024-.014-.024-.013-.024-.014-.024-.014-.024-.013-.024-.014-.024-.013-.024-.014-.024-.013-.024-.013-.024-.013-.024-.013-.024-.014-.024-.013-.024-.013-.024-.013-.024-.012-.024-.013-.024-.013-.024-.013-.024-.012-.024-.013-.024-.013-.024-.012-.024-.012-.025-.013-.024-.012-.024-.012-.024-.012-.024-.013-.024-.012-.024-.012-.024-.012-.024-.012-.024-.012-.024-.011-.024-.012-.024-.012-.024-.011-.024-.012-.024-.011-.024-.012-.024-.011-.025-.012-.024-.011-.024-.011-.024-.011-.024-.011-.024-.011-.024-.011-.024-.011-.024-.011-.024-.011-.024-.011-.024-.01-.024-.011-19.834-7.841a14 14 0 0 1-1.443-.603 17 17 0 0 1-1.44-.789c-.477-.292-.905-.296-1.374-.63q-.705-.502-1.375-1.074a20 20 0 0 1-1.291-1.203c-.413-.42-.752-.46-1.135-.901a20 20 0 0 1-1.078-1.36c-.335-.464-.556-.507-.847-.977q-.438-.706-.785-1.419a14 14 0 0 1-.596-1.42c-.165-.471-.215-.479-.323-.932z" style="clip-rule:evenodd;fill:#ff4136;fill-opacity:1;fill-rule:nonzero;stroke-width:17.7639;stroke-linecap:round;stroke-linejoin:round;stroke-dashoffset:130.744;paint-order:stroke markers fill" transform="translate(18.939 18.939)"/>
    <path d="M258.489 223.516q.197-.288.422-.573c.149-.189.05.008.212-.182q.242-.285.508-.563.267-.279.556-.549a16 16 0 0 1 1.241-1.044c.221-.168.21.037.438-.128a19 19 0 0 1 1.435-.938 19 19 0 0 1 1.545-.824c.265-.127.329.081.597-.041q.402-.183.811-.349a21 21 0 0 1 1.657-.587q.417-.127.836-.235c.279-.072.403.14.68.075a18 18 0 0 1 1.647-.305q.407-.055.807-.089t.792-.045.772-.001l21.314-.208a14 14 0 0 0 1.53-.16 16 16 0 0 0 1.607-.338c.541-.142 1.211-.603 1.748-.813a20 20 0 0 0 3.137-1.565c.502-.307 1.133-1.008 1.594-1.366a19 19 0 0 0 1.322-1.125c.419-.39.973-1.2 1.33-1.622q.536-.635.984-1.29t.796-1.317c.233-.442.569-1.324.721-1.764l-4.022 10.423a11 11 0 0 1-.657 1.289q-.19.321-.406.641c-.143.213-.485.838-.649 1.044q-.246.31-.516.614a17 17 0 0 1-1.159 1.185q-.31.287-.638.564c-.218.185-.633.739-.866.91a19 19 0 0 1-1.458.971q-.376.227-.765.44c-.258.141-.683.613-.951.736a20 20 0 0 1-2.449.944 18 18 0 0 1-2.465.581c-.27.043-.673.313-.94.336l-.027.002-.028.002-.027.002-.028.002-.027.003-.028.002-.027.002-.028.001-.027.002-.028.002-.027.002-.027.002-.027.001-.028.002-.027.001-.027.002-.028.001-.027.002-.027.001-.027.001-.028.002-.027.001-.027.001-.027.001-.027.001-.027.001-.027.001-.027.001-.027.001h-.027l-.027.001-.027.001h-.027l-.027.001-.027.001h-.053l-.027.001h-.053l-.027.001h-.186l-.027-.001h-.053l-.026-.001h-.026l-.027-.001h-.026l-.026-.001h-.027l-21.197-1.308a14 14 0 0 0-1.562-.068q-.805.008-1.639.1-.835.092-1.683.267c-.564.116-.938-.032-1.504.123a20.6 20.6 0 0 0-3.304 1.22c-.528.249-.813.164-1.314.441q-.752.416-1.437.886c-.457.312-.622.274-1.033.606q-.618.498-1.144 1.031t-.949 1.09zm-51.41 44.451q.314-.153.65-.29a12 12 0 0 1 1.415-.477c.248-.067.09.065.347.004q.386-.093.785-.166a17 17 0 0 1 1.643-.219c.28-.024.186.162.472.144a19 19 0 0 1 1.735-.029 20 20 0 0 1 1.757.124c.292.034.258.258.55.297a20 20 0 0 1 1.73.309 19 19 0 0 1 1.667.452q.406.13.798.277c.262.098.273.348.527.45a16 16 0 0 1 1.457.675q.345.183.671.38l18.676 10.413q.67.338 1.409.617.753.283 1.564.499.812.216 1.666.36c.568.096 1.424-.046 2.009-.014a20 20 0 0 0 1.765.018 20 20 0 0 0 1.756-.134c.58-.069 1.473-.441 2.029-.574a18 18 0 0 0 1.623-.468c.523-.178 1.373-.672 1.848-.905q.712-.349 1.343-.753c.42-.269 1.17-.852 1.52-1.161l-8.707 7.027q-.279.212-.581.411c-.201.133-.781.54-1 .659q-.328.178-.678.341t-.717.311a16 16 0 0 1-1.534.525c-.266.076-.895.399-1.171.457a19 19 0 0 1-2.561.355q-.437.03-.878.043c-.294.007-.913.222-1.207.21a20 20 0 0 1-4.311-.649c-.275-.073-.805.002-1.069-.089a16.255 16.255 0 0 1-1.524-.613l-.025-.012-.025-.011-.025-.012-.025-.012-.025-.012-.025-.012-.025-.011-.024-.012-.05-.024-.025-.012-.024-.012-.025-.012-.025-.013-.024-.012-.024-.012-.025-.012-.024-.012-.025-.013-.024-.012-.024-.012-.024-.013-.024-.012-.025-.013-.024-.012-.024-.013-.024-.012-.023-.013-.024-.012-.024-.013-.024-.013-.024-.012-.023-.013-.024-.013-.024-.013-.023-.013-.024-.013-.023-.012-.023-.013-.024-.013-.023-.013-.023-.013-.024-.013-.023-.014-.023-.013-.023-.013-.023-.013-.023-.013-.023-.014-.023-.013-.022-.013-.023-.014-.023-.013-.023-.013-.022-.014-.023-.013-.023-.014-17.818-11.677a14 14 0 0 0-1.324-.831q-.703-.39-1.475-.723c-.513-.221-.761-.561-1.305-.752a20.428 20.428 0 0 0-3.397-.867c-.581-.095-.808-.341-1.39-.4a19 19 0 0 0-1.732-.097c-.572-.006-.734-.156-1.286-.123q-.83.05-1.613.177-.782.129-1.503.332c-.48.136-.515.107-.947.28zm-66.782 12.732a11 11 0 0 1 1.434.186 13 13 0 0 1 1.492.38c.252.08.049.143.305.232a16 16 0 0 1 1.538.619 18 18 0 0 1 1.522.787c.251.145.085.28.335.431q.375.227.743.47a21 21 0 0 1 1.427 1.039q.347.274.678.564c.221.192.085.388.301.583q.324.293.631.597a18 18 0 0 1 1.674 1.9 16 16 0 0 1 .904 1.326c.135.223.022.455.146.676l10.917 18.348q.4.633.893 1.252c.334.419.984.799 1.384 1.19q.601.587 1.274 1.131.673.545 1.403 1.037c.487.327 1.364.586 1.887.858a20 20 0 0 0 3.226 1.341c.546.171 1.523.227 2.067.329q.816.152 1.607.218c.526.043 1.493-.03 1.991-.058q.748-.042 1.436-.171l-11.05 1.73a11 11 0 0 1-1.444.064 14.23 14.23 0 0 1-1.536-.117c-.261-.035-.977-.03-1.242-.086a16.866 16.866 0 0 1-2.408-.701 18 18 0 0 1-.802-.317c-.267-.112-.946-.203-1.207-.334a21 21 0 0 1-2.276-1.344 19 19 0 0 1-.718-.512c-.235-.175-.816-.337-1.037-.526a20 20 0 0 1-1.258-1.183 17.5 17.5 0 0 1-1.599-1.904l-.016-.022-.016-.023-.016-.022-.016-.023-.016-.022-.016-.023-.016-.023-.015-.022-.016-.023-.016-.022-.015-.023-.016-.022-.015-.023-.016-.023-.015-.022-.015-.023-.016-.023-.015-.022-.015-.023-.015-.023-.015-.022-.015-.023-.015-.023-.015-.022-.015-.023-.015-.023-.014-.023-.015-.022-.014-.023-.015-.023-.014-.022-.015-.023-.014-.023-.014-.023-.015-.022-.014-.023-.014-.023-.014-.023-.014-.022-.014-.023-.014-.023-.014-.023-.014-.023-.013-.023-.014-.022-.013-.023-.014-.023-.013-.023-.014-.023-.013-.022-.014-.023-.013-.023-.013-.023-.013-.023-.013-.023-.013-.023-.013-.022-9.761-19.034a15 15 0 0 0-.743-1.376c-.28-.457-.3-.896-.627-1.349q-.49-.682-1.059-1.335a20 20 0 0 0-1.204-1.262c-.423-.407-.488-.767-.938-1.148a20 20 0 0 0-2.85-2.02c-.495-.287-.554-.524-1.05-.768a16 16 0 0 0-1.49-.641c-.496-.184-.528-.283-1.009-.414q-.723-.195-1.417-.29zm-63.813-22.21q.288.197.573.422c.19.149-.008.05.182.212a13 13 0 0 1 1.112 1.064 16 16 0 0 1 1.044 1.241c.168.221-.037.21.128.438a19 19 0 0 1 1.762 2.98c.127.265-.08.329.041.597a20.3 20.3 0 0 1 1.171 3.304c.072.279-.14.403-.075.68a18 18 0 0 1 .305 1.647 16 16 0 0 1 .134 1.599q.011.391.001.772l.208 21.314q.037.75.16 1.53.125.794.338 1.607c.142.541.603 1.211.813 1.748a20 20 0 0 0 1.565 3.137c.307.502 1.008 1.133 1.366 1.594q.54.694 1.125 1.322c.39.419 1.2.973 1.622 1.33q.635.536 1.29.984t1.317.796c.442.233 1.323.569 1.764.721l-10.424-4.022a11 11 0 0 1-1.288-.657 13 13 0 0 1-.641-.406c-.214-.143-.838-.485-1.044-.649a16.434 16.434 0 0 1-1.798-1.675q-.288-.31-.565-.638c-.185-.218-.74-.633-.91-.866a19 19 0 0 1-.97-1.458 20 20 0 0 1-.44-.765c-.142-.258-.614-.683-.738-.951a20 20 0 0 1-1.178-3.275 18 18 0 0 1-.346-1.639c-.043-.27-.313-.673-.336-.94l-.002-.027-.002-.028-.002-.027-.003-.028q0-.013-.002-.027 0-.014-.002-.028 0-.013-.002-.027l-.001-.028-.002-.027-.002-.028-.002-.027-.002-.027-.001-.027-.002-.028-.001-.027-.002-.027-.001-.028-.002-.027-.001-.027-.001-.027-.002-.028v-.027l-.002-.027-.001-.027-.001-.027-.001-.027-.001-.027v-.027l-.002-.027v-.027l-.001-.027v-.027l-.001-.027v-.027l-.002-.027v-.08l-.001-.027v-.345l.001-.026v-.027l.001-.026v-.026l.001-.027 1.308-21.197q.076-.758.068-1.562a16 16 0 0 0-.1-1.639 18 18 0 0 0-.267-1.683c-.116-.564.032-.938-.123-1.504a20.5 20.5 0 0 0-1.22-3.304c-.25-.528-.164-.813-.441-1.314a18 18 0 0 0-.886-1.437c-.312-.457-.274-.622-.606-1.033a14 14 0 0 0-1.03-1.144q-.534-.525-1.091-.949zm-44.45-51.41q.152.314.289.65a12 12 0 0 1 .477 1.415c.067.248-.065.09-.004.347a15 15 0 0 1 .295 1.595q.055.411.09.833c.024.28-.162.186-.144.472a19 19 0 0 1 .03 1.735 20 20 0 0 1-.125 1.757c-.034.292-.258.258-.297.55a20 20 0 0 1-.517 2.573 19 19 0 0 1-.521 1.622c-.098.262-.348.273-.45.527a16 16 0 0 1-.675 1.457q-.183.345-.38.671L19.69 241.959q-.338.67-.617 1.409a16 16 0 0 0-.499 1.564 18 18 0 0 0-.36 1.666c-.096.568.046 1.424.014 2.009a20.4 20.4 0 0 0 .115 3.521c.07.58.442 1.473.575 2.029q.2.836.468 1.623c.178.523.672 1.373.905 1.848q.349.712.753 1.343a17 17 0 0 0 1.161 1.52l-7.027-8.707a11 11 0 0 1-.41-.581c-.134-.201-.541-.781-.66-1a13 13 0 0 1-.652-1.395 15 15 0 0 1-.525-1.534c-.076-.266-.4-.895-.457-1.171a19 19 0 0 1-.355-2.561q-.03-.437-.043-.878c-.008-.294-.222-.913-.21-1.207a21 21 0 0 1 .278-2.625 19 19 0 0 1 .37-1.686c.074-.275-.001-.805.09-1.069a17 17 0 0 1 .613-1.524l.012-.025.011-.025.012-.025.012-.025.012-.025.012-.025.011-.025.012-.024.024-.05.012-.025.012-.024.012-.025.012-.025.013-.024.012-.024.012-.025.012-.024.013-.025.012-.024.012-.024.025-.048.012-.025.013-.024.012-.024.013-.024.013-.023.012-.024.013-.024.012-.024q.008-.012.013-.024l.013-.023.013-.024.013-.024.013-.023.012-.024.013-.023.013-.023.013-.024.013-.023.013-.023.013-.024.013-.023.014-.023.013-.023.013-.023.013-.023q.008-.011.013-.023l.014-.023.013-.022.013-.023.014-.023.013-.023.014-.022.013-.023.014-.023 11.677-17.818q.44-.62.831-1.324.39-.703.723-1.475c.221-.513.561-.761.752-1.305q.288-.816.505-1.67.218-.853.362-1.727c.095-.581.341-.808.4-1.39q.087-.873.097-1.732c.006-.572.156-.734.123-1.286a16 16 0 0 0-.177-1.613 14 14 0 0 0-.332-1.503c-.136-.48-.107-.515-.28-.947zM19.3 140.297a11 11 0 0 1-.186 1.434 13 13 0 0 1-.38 1.492c-.08.252-.143.049-.232.305a17 17 0 0 1-.619 1.538 18 18 0 0 1-.787 1.522c-.145.251-.28.085-.431.335a20.5 20.5 0 0 1-2.073 2.848c-.192.221-.388.085-.583.301a19 19 0 0 1-1.214 1.228 18 18 0 0 1-1.283 1.077 16 16 0 0 1-1.326.904c-.223.135-.455.022-.676.146l-18.348 10.917q-.633.4-1.252.893c-.419.334-.799.984-1.19 1.384q-.587.601-1.131 1.274-.545.673-1.037 1.403c-.327.487-.586 1.364-.858 1.887a20 20 0 0 0-.746 1.595q-.337.811-.595 1.631c-.17.546-.227 1.523-.329 2.067a16 16 0 0 0-.218 1.607c-.044.526.03 1.493.058 1.991q.042.748.17 1.436l-1.729-11.05a11 11 0 0 1-.064-1.444 13 13 0 0 1 .117-1.536c.035-.261.03-.977.086-1.242a17 17 0 0 1 .424-1.602 18 18 0 0 1 .594-1.608c.112-.267.203-.946.334-1.207a20.5 20.5 0 0 1 1.856-2.994c.175-.235.337-.816.526-1.037a19 19 0 0 1 1.183-1.258 18 18 0 0 1 1.256-1.108q.321-.257.648-.491l.022-.016.023-.016.022-.016.023-.016.022-.016.023-.016.022-.016.023-.015.023-.016.022-.016.023-.015.022-.016.023-.015.023-.016.022-.015.023-.015.023-.016.022-.015.023-.015.023-.015.022-.015.023-.015.023-.015.023-.015.022-.015.023-.015.023-.014.022-.015.023-.014.023-.015.022-.014.023-.015.023-.014.023-.014.022-.015.023-.014.023-.014.023-.014.022-.014.023-.014.023-.014.023-.014.023-.014.023-.013.022-.014.023-.013.023-.014.023-.013.023-.014.022-.013.023-.014.023-.013.023-.013.023-.013.023-.013.023-.013.022-.013 19.034-9.761q.691-.324 1.376-.743c.457-.28.896-.3 1.35-.627q.681-.49 1.334-1.059.652-.569 1.262-1.204c.407-.423.767-.488 1.148-.938a20 20 0 0 0 2.02-2.85c.287-.495.524-.554.768-1.05q.366-.747.641-1.49c.184-.496.283-.528.414-1.009q.195-.723.29-1.417zm22.21-63.813q-.197.288-.422.573c-.149.19-.05-.008-.212.182a13 13 0 0 1-1.064 1.112 15 15 0 0 1-1.241 1.044c-.22.168-.21-.037-.438.128a18 18 0 0 1-1.435.938 20 20 0 0 1-1.545.824c-.265.127-.328-.08-.597.041a20 20 0 0 1-2.468.936q-.417.127-.836.235c-.279.072-.403-.14-.68-.075a18 18 0 0 1-1.647.305 16 16 0 0 1-1.6.134q-.39.012-.77.001L5.24 83.07q-.75.037-1.53.16a16 16 0 0 0-1.607.338c-.54.142-1.211.603-1.748.813q-.805.316-1.594.71-.787.392-1.543.855c-.502.307-1.133 1.008-1.594 1.367q-.694.538-1.322 1.124c-.419.39-.973 1.2-1.33 1.622a16 16 0 0 0-.984 1.29q-.448.655-.796 1.317c-.233.442-.57 1.324-.721 1.764l4.022-10.424a11 11 0 0 1 .657-1.288q.19-.321.406-.641c.143-.213.485-.838.649-1.044a15 15 0 0 1 1.075-1.215A17 17 0 0 1-1.48 78.67c.218-.185.633-.74.866-.91a20 20 0 0 1 2.223-1.41c.258-.142.683-.614.95-.737a20 20 0 0 1 2.45-.944 19 19 0 0 1 1.649-.43q.41-.085.816-.15c.27-.044.673-.314.94-.337l.027-.002.028-.002.027-.002.028-.002.027-.003q.015 0 .028-.002.014 0 .027-.002l.027-.001.028-.002.028-.002.027-.002.027-.002.027-.001.028-.002.027-.001.027-.002.028-.001.027-.002.027-.001.027-.001.028-.002h.027l.027-.002.027-.001.027-.001.027-.001.027-.001h.027l.027-.002h.027l.027-.001h.027l.027-.001h.027l.027-.002h.08l.027-.001h.345l.026.001h.027l.026.001h.026l.027.001 21.197 1.308q.757.076 1.562.068a17 17 0 0 0 1.64-.1q.834-.092 1.682-.267c.564-.116.938.032 1.504-.123a20.4 20.4 0 0 0 3.304-1.22c.528-.25.813-.164 1.314-.441q.75-.416 1.437-.886c.457-.312.622-.274 1.033-.606q.618-.498 1.144-1.03.525-.534.95-1.091zm51.41-44.45q-.314.152-.65.289a12 12 0 0 1-1.415.477c-.248.067-.09-.065-.347-.004a15 15 0 0 1-1.595.295q-.411.055-.833.09c-.28.024-.186-.162-.472-.144a19 19 0 0 1-2.613-.014 21 21 0 0 1-.879-.081c-.292-.034-.258-.258-.55-.297a20 20 0 0 1-2.573-.517 19 19 0 0 1-1.622-.521c-.262-.098-.273-.348-.527-.45a16 16 0 0 1-1.457-.675q-.345-.183-.671-.38L58.04 19.69a14 14 0 0 0-1.409-.617 16 16 0 0 0-1.564-.499 18 18 0 0 0-1.665-.36c-.569-.096-1.425.046-2.01.014a20.3 20.3 0 0 0-3.52.115c-.581.07-1.474.442-2.03.575q-.836.2-1.623.468c-.523.178-1.374.672-1.848.905q-.712.349-1.343.753c-.42.269-1.17.853-1.52 1.161l8.707-7.027q.28-.212.58-.41c.202-.133.781-.541 1-.66a13 13 0 0 1 1.396-.652 15 15 0 0 1 1.534-.525c.266-.076.895-.4 1.17-.457a18 18 0 0 1 1.693-.274 20 20 0 0 1 1.747-.124c.294-.007.913-.222 1.207-.21a21 21 0 0 1 2.625.278 20 20 0 0 1 1.686.37c.275.074.805-.001 1.07.09a17 17 0 0 1 1.523.613l.025.012.025.011.05.024.025.012.025.012.025.011.024.012.05.024.025.012.024.012.025.012.025.012.024.013.024.012.025.012.024.012.025.013.024.012.024.012.049.025.024.012.024.013.024.012.024.013.023.013.024.012.024.013.024.012q.012.008.024.013l.023.013.024.013.024.013.023.013.024.012.023.013.023.013.024.013.023.013.023.013.024.013q.01.008.023.013l.023.014.046.026.023.013q.01.008.023.013l.023.014.023.013.022.013.023.014.023.013.022.014.046.027 17.818 11.677a14 14 0 0 0 1.324.831q.703.39 1.475.723c.513.221.761.561 1.305.752q.817.288 1.67.505a20 20 0 0 0 1.727.362c.581.095.808.341 1.39.4q.873.088 1.732.097c.572.006.734.156 1.286.123a16 16 0 0 0 1.613-.177 14 14 0 0 0 1.503-.332c.48-.136.515-.107.947-.28zM159.703 19.3a11 11 0 0 1-1.434-.186 13 13 0 0 1-1.492-.38c-.252-.08-.049-.143-.305-.232a17 17 0 0 1-1.538-.619 18 18 0 0 1-1.522-.787c-.251-.145-.085-.28-.335-.431a20.5 20.5 0 0 1-2.848-2.073c-.221-.192-.085-.388-.301-.583a19 19 0 0 1-1.228-1.214 18 18 0 0 1-1.077-1.283 16 16 0 0 1-.904-1.326c-.135-.223-.022-.455-.146-.676L135.656-8.837q-.4-.633-.893-1.251c-.334-.42-.984-.8-1.384-1.19q-.601-.588-1.274-1.132a20 20 0 0 0-1.403-1.037c-.487-.327-1.364-.586-1.887-.858a20 20 0 0 0-1.595-.746 19 19 0 0 0-1.631-.595c-.546-.17-1.523-.227-2.067-.329a16 16 0 0 0-1.607-.218c-.526-.043-1.493.03-1.991.058q-.748.042-1.436.17l11.05-1.729a11 11 0 0 1 1.444-.064 13 13 0 0 1 1.536.117c.261.035.977.03 1.242.086a17 17 0 0 1 1.602.424 18 18 0 0 1 1.608.594c.267.112.946.203 1.207.334a20.5 20.5 0 0 1 2.994 1.856c.235.175.816.337 1.037.526a19 19 0 0 1 1.258 1.183 18 18 0 0 1 1.108 1.256q.257.321.491.648l.016.022.016.023.016.022.016.023.016.022.016.023.016.022.015.023.016.023.016.022.015.023.016.023.015.022.016.023.015.022.015.023.016.023.015.022.015.023.015.023.015.022.015.023.015.023.015.023.015.022.015.023.014.023.015.022.014.023.015.023.014.022.015.023.014.023.014.023.015.022.014.023.014.023.014.023.014.022.014.023.014.023.014.023.014.023.013.023.014.022.013.023.014.023.013.023.014.023.013.022.014.023.013.023.013.023.013.023.013.023.013.023.013.022 9.761 19.034q.324.691.743 1.376c.28.457.3.896.627 1.35q.49.681 1.059 1.334.569.652 1.204 1.262c.423.407.488.767.938 1.148a20 20 0 0 0 2.85 2.02c.495.287.554.524 1.05.768q.747.366 1.49.641c.496.184.528.283 1.009.414q.723.195 1.417.29zm63.813 22.21a11 11 0 0 1-.573-.422c-.189-.149.008-.05-.182-.212q-.285-.241-.563-.509a15.341 15.341 0 0 1-1.593-1.797c-.168-.22.037-.209-.128-.437a18.107 18.107 0 0 1-.938-1.435 20 20 0 0 1-.824-1.545c-.127-.265.081-.328-.041-.597a20.827 20.827 0 0 1-.936-2.468 20 20 0 0 1-.235-.836c-.072-.279.14-.403.075-.68a18 18 0 0 1-.305-1.647q-.055-.407-.089-.807t-.045-.792q-.011-.39-.001-.772l-.208-21.314a14 14 0 0 0-.16-1.53 16 16 0 0 0-.338-1.607c-.142-.54-.603-1.211-.813-1.748a20 20 0 0 0-1.565-3.137c-.307-.502-1.008-1.133-1.366-1.594a20 20 0 0 0-1.125-1.322c-.39-.419-1.2-.973-1.622-1.33a16 16 0 0 0-1.29-.984 14 14 0 0 0-1.317-.796c-.442-.233-1.324-.57-1.764-.721l10.423 4.022q.322.138.644.302a12 12 0 0 1 1.286.76c.213.144.838.486 1.044.65q.31.246.614.516a16 16 0 0 1 1.185 1.16q.287.309.564.637c.185.218.739.633.91.866a20 20 0 0 1 1.411 2.223c.141.258.613.683.736.95a21 21 0 0 1 .668 1.626q.147.412.276.824a18 18 0 0 1 .581 2.465c.043.27.313.673.336.94l.002.027.002.028.002.027.002.028.005.055.002.027.001.027.002.028.002.028.002.027.002.027.001.027.002.028.001.027.002.027.001.028.002.027.001.027.001.027.002.028.001.027.001.027.001.027.001.027.001.027.001.027.001.027.001.027v.027l.001.027.001.027v.027l.001.027.001.027v.053l.001.027v.053l.001.027v.186l-.001.027v.053l-.001.026v.026l-.001.027v.026l-.001.026v.027l-1.308 21.197a14 14 0 0 0-.068 1.562q.008.805.1 1.64.091.834.267 1.682c.116.564-.032.938.123 1.504a20.5 20.5 0 0 0 1.22 3.304c.249.528.164.813.441 1.314q.416.75.886 1.437c.312.457.274.622.606 1.033q.497.618 1.031 1.144t1.09.95zm44.451 51.41a11 11 0 0 1-.546-1.34 14 14 0 0 1-.221-.725c-.067-.248.065-.09.004-.347a15 15 0 0 1-.166-.785 17 17 0 0 1-.219-1.643c-.024-.28.162-.186.144-.472a19 19 0 0 1-.029-1.735 20 20 0 0 1 .124-1.757c.034-.292.258-.258.297-.55a19 19 0 0 1 .309-1.73 19 19 0 0 1 .452-1.667q.13-.406.277-.798c.098-.262.348-.273.45-.527a16 16 0 0 1 .675-1.457q.183-.345.38-.671l10.413-18.676q.338-.67.617-1.409.283-.753.499-1.564t.36-1.665c.096-.569-.046-1.425-.014-2.01q.048-.88.018-1.765a20 20 0 0 0-.134-1.756c-.069-.58-.441-1.473-.574-2.03a18 18 0 0 0-.468-1.622c-.178-.523-.672-1.373-.905-1.848a13 13 0 0 0-.753-1.343c-.269-.42-.852-1.17-1.161-1.52l7.027 8.707q.212.28.411.58c.133.202.54.781.659 1q.178.33.341.679t.311.717a16 16 0 0 1 .525 1.534c.076.266.399.895.457 1.17a18.6 18.6 0 0 1 .355 2.562q.03.438.043.878c.007.294.222.913.21 1.207a20 20 0 0 1-.649 4.311c-.073.275.002.805-.089 1.07a16.16 16.16 0 0 1-.613 1.523l-.012.025-.011.025-.012.025-.012.025-.012.025-.012.025-.011.025-.012.024-.012.025-.012.025-.012.025-.012.024-.012.025-.013.025-.012.024-.012.024-.012.025-.012.024-.013.025-.012.024-.012.024-.013.024-.012.025-.013.024-.012.024-.013.024-.012.024-.013.023-.012.024-.013.024-.013.024-.012.024-.013.023-.013.024-.013.024-.013.023-.013.024-.012.023-.013.023-.013.024-.013.023-.013.023-.013.024-.014.023-.013.023-.013.023-.013.023-.013.023-.014.023-.013.023-.013.023-.014.022-.013.023-.013.023-.014.022-.013.023-.014.023-11.677 17.818q-.44.62-.831 1.324-.39.703-.723 1.475c-.221.513-.561.761-.752 1.305q-.288.817-.505 1.67a21 21 0 0 0-.362 1.727c-.095.581-.341.808-.4 1.39q-.088.873-.097 1.732c-.006.572-.156.734-.123 1.286q.05.83.177 1.613.129.781.332 1.503c.136.48.107.515.28.947zm12.732 66.782a11 11 0 0 1 .186-1.434 13 13 0 0 1 .38-1.492c.08-.252.143-.049.232-.305a16 16 0 0 1 .619-1.538 18 18 0 0 1 .787-1.522c.145-.251.28-.085.431-.335q.227-.375.47-.743a21 21 0 0 1 1.039-1.427q.274-.346.564-.678c.192-.221.388-.085.583-.301q.292-.325.597-.631a18 18 0 0 1 1.9-1.674 16 16 0 0 1 1.326-.904c.223-.135.455-.022.676-.146l18.348-10.917q.633-.4 1.252-.893c.419-.334.799-.984 1.19-1.384q.587-.601 1.131-1.274.545-.673 1.037-1.403c.327-.487.586-1.364.858-1.887a20 20 0 0 0 1.341-3.226c.171-.546.227-1.523.329-2.067q.152-.816.218-1.607c.043-.526-.03-1.493-.058-1.991a11 11 0 0 0-.171-1.436l1.73 11.05a11 11 0 0 1 .064 1.444 14.23 14.23 0 0 1-.117 1.536c-.035.261-.03.977-.086 1.242q-.084.397-.191.798a17 17 0 0 1-.51 1.61q-.148.403-.317.802c-.112.267-.203.946-.334 1.207a21 21 0 0 1-1.344 2.276q-.248.366-.512.718c-.175.235-.337.816-.526 1.037a20 20 0 0 1-1.183 1.258 17.5 17.5 0 0 1-1.904 1.599l-.022.016-.023.016-.022.016-.023.016-.022.016-.023.016-.023.016-.022.015-.023.016-.022.016-.023.015-.022.016-.023.015-.023.016-.022.015-.023.015-.023.016-.022.015-.023.015-.023.015-.022.015-.023.015-.023.015-.022.015-.023.015-.023.015-.023.014-.022.015-.023.014-.023.015-.022.014-.023.015-.023.014-.023.014-.022.015-.023.014-.023.014-.023.014-.022.014-.023.014-.023.014-.023.014-.023.014-.023.013-.022.014-.023.013-.023.014-.023.013-.023.014-.022.013-.023.014-.023.013-.023.013-.023.013-.023.013-.023.013-.022.013-19.034 9.761q-.69.324-1.376.743c-.457.28-.896.3-1.349.627q-.682.49-1.335 1.059a20 20 0 0 0-1.262 1.204c-.407.423-.767.488-1.148.938a20 20 0 0 0-2.02 2.85c-.287.495-.524.554-.768 1.05q-.366.747-.641 1.49c-.184.496-.283.528-.414 1.009q-.195.723-.29 1.417z" class="stroke-blue fill-blue" style="clip-rule:evenodd;fill:#0074d9;fill-opacity:1;fill-rule:nonzero;stroke-width:17.7639;stroke-linecap:round;stroke-linejoin:round;stroke-dashoffset:130.744;paint-order:stroke markers fill" transform="translate(18.939 18.939)"/>
    <path d="M318.574 160.954q-.022.35-.068.709c-.031.239-.101.946-.154 1.19a13 13 0 0 1-.417 1.482 16 16 0 0 1-.605 1.505c-.116.251-.282.941-.418 1.187a18 18 0 0 1-.898 1.46 20 20 0 0 1-1.047 1.404c-.186.228-.427.838-.629 1.053a20 20 0 0 1-1.925 1.806 20 20 0 0 1-1.382 1.035c-.235.16-.523.612-.765.752a16 16 0 0 1-2.19 1.061q-.365.143-.727.26l-20.477 5.86a15 15 0 0 0-1.469.453q-.755.278-1.511.644c-.503.244-.92.21-1.42.496q-.751.43-1.474.935-.722.503-1.402 1.071c-.452.377-.784.388-1.209.79q-.637.604-1.206 1.248c-.378.429-.595.454-.931.893q-.504.66-.919 1.337t-.731 1.354c-.211.452-.254.46-.405.901l2.422-8.044a11 11 0 0 1 .462-1.37c.095-.231.09-.016.195-.25a14 14 0 0 1 .727-1.406 16 16 0 0 1 .907-1.387c.166-.228.244-.035.417-.262q.26-.342.537-.676a21 21 0 0 1 1.816-1.906c.217-.199.362-.026.583-.221a20 20 0 0 1 2.072-1.611 19 19 0 0 1 1.454-.887c.245-.135.44.021.684-.105a17 17 0 0 1 .781-.377l.026-.011.025-.011.025-.011.025-.011.025-.012.026-.01.025-.012.025-.01.025-.011.026-.011.025-.011.025-.011.025-.01.025-.011.026-.01.025-.011.025-.01.025-.01.025-.011.025-.01.026-.01.025-.01.025-.01.025-.01.025-.01.025-.01.026-.01.025-.01.025-.009.025-.01.025-.009.025-.01.026-.01.025-.009.025-.009.025-.01.025-.009.025-.009.025-.009.025-.009.025-.009.025-.009.05-.018.05-.018.025-.008.05-.018.025-.008.05-.017.025-.008.05-.017 20.082-7.34q.705-.289 1.412-.674.706-.385 1.399-.859.694-.473 1.36-1.026c.444-.368.896-1.11 1.302-1.533a20 20 0 0 0 2.211-2.742c.326-.485.628-1.406.891-1.914q.394-.763.705-1.534c.207-.513.388-1.482.522-1.994q.2-.767.306-1.509c.07-.493.12-1.445.114-1.911zm-28.211 83.058a11 11 0 0 1-.895 1.136 13 13 0 0 1-1.091 1.086c-.198.176-.66.72-.876.883a17 17 0 0 1-2.102 1.366q-.375.209-.765.401c-.259.129-.77.582-1.04.694q-.405.167-.82.318a20 20 0 0 1-1.684.529q-.427.114-.856.209c-.286.064-.787.397-1.075.44a20 20 0 0 1-1.718.181q-.425.024-.845.03a18 18 0 0 1-1.641-.061 15 15 0 0 1-.787-.091c-.259-.037-.662.105-.91.049l-20.645-5.213a14 14 0 0 0-1.502-.329c-.529-.086-.876-.359-1.433-.407a19.337 19.337 0 0 0-3.445.02c-.583.055-.899-.134-1.481-.042q-.875.139-1.727.349-.851.212-1.664.493c-.54.187-.758.075-1.267.292q-.764.325-1.458.709c-.462.256-.558.213-.971.493q-.62.419-1.145.883l6.121-5.724q.244-.25.514-.492.269-.242.563-.474.292-.233.609-.453.316-.22.652-.429c.225-.139.142.058.376-.078a17 17 0 0 1 1.472-.761q.386-.177.783-.336.398-.161.808-.304c.273-.096.27.12.547.028a22 22 0 0 1 1.696-.476 21 21 0 0 1 1.733-.329c.29-.042.352.189.641.153a20 20 0 0 1 1.721-.138 17 17 0 0 1 2.485.092l.027.003.027.004.028.003.027.003.028.003.027.004.027.003.028.004.027.003.027.004.027.004.028.003.027.004.027.004.027.003.027.004.027.004.027.004.027.004.027.004.027.004.027.004.027.004.026.005.027.004.027.004.027.005.026.004.027.005.026.004.027.005.026.004.027.005.026.005.027.004.026.005.027.005.026.005.026.005.026.005.027.005.026.005.026.005.026.005.026.005.026.005.052.011.026.005.026.006.026.005.026.006.025.005.052.012.026.005.025.006 20.878 3.893q.753.114 1.557.145c.535.021 1.247-.222 1.804-.27a18 18 0 0 0 1.689-.225 20 20 0 0 0 1.701-.386c.566-.155 1.334-.649 1.881-.867a20 20 0 0 0 3.122-1.567c.486-.301 1.166-1.004 1.598-1.349a16 16 0 0 0 1.215-1.074c.377-.371.951-1.15 1.255-1.545q.456-.594.809-1.199zm-65.699 57.522a11 11 0 0 1-1.339.546q-.354.119-.726.221c-.248.067-.913.319-1.173.368a16.376 16.376 0 0 1-2.443.266q-.423.015-.852.01c-.286-.003-.961.148-1.249.125a20 20 0 0 1-3.464-.589c-.285-.074-.904-.026-1.182-.119a21 21 0 0 1-1.629-.625 19 19 0 0 1-1.528-.753 17 17 0 0 1-.717-.418c-.233-.144-.713-.201-.93-.358a16 16 0 0 1-.628-.483 13 13 0 0 1-.585-.504l-15.411-14.77c-.352-.353-.496-.78-.898-1.12a17 17 0 0 0-1.306-.995 18 18 0 0 0-1.448-.897c-.503-.281-.69-.635-1.219-.888a20.4 20.4 0 0 0-3.299-1.235c-.563-.156-.724-.405-1.284-.522a18 18 0 0 0-1.667-.269c-.55-.061-.652-.197-1.18-.214a14 14 0 0 0-1.539.033 11 11 0 0 0-1.431.206l8.625-2.029q.338-.09.693-.159c.237-.046.035.037.281-.001a14 14 0 0 1 1.533-.146q.396-.017.801-.011.407.005.821.031c.276.017.134.163.415.188q.422.036.846.093a20 20 0 0 1 2.561.52c.284.077.196.273.479.356a21 21 0 0 1 1.67.569q.41.159.809.336.4.176.787.368c.258.128.213.367.465.499a18 18 0 0 1 1.447.845q.344.224.669.461l.022.016.022.016.023.017.022.016.022.017.022.016.022.016.022.017.023.017.021.016.022.017.022.016.022.017.022.017.021.016.022.017.021.017.022.016.022.017.021.017.021.017.022.017.021.016.021.017.021.017.021.017.022.017.02.017.021.017.021.017.021.017.021.017.021.017.02.018.021.017.021.017.02.017.021.017.02.018.021.017.02.017.02.017.02.018.021.017.02.017.02.018.02.017.02.018.02.017.02.018.019.017.02.018.02.017.02.018.019.018.02.017.019.018 16.266 13.767q.599.47 1.282.895.684.424 1.438.794c.502.246 1.309.333 1.853.524q.817.288 1.67.505a21 21 0 0 0 1.727.362c.581.095 1.516-.025 2.099.005q.877.045 1.736.012c.572-.021 1.52-.274 2.066-.36a16 16 0 0 0 1.587-.334q.767-.203 1.464-.477c.465-.182 1.295-.632 1.698-.866zm-85.618 17.04a11 11 0 0 1-.709-.068c-.239-.031-.946-.101-1.19-.154a13 13 0 0 1-1.482-.417 16 16 0 0 1-1.505-.605c-.251-.116-.941-.282-1.187-.418a18 18 0 0 1-1.46-.898 20 20 0 0 1-1.404-1.047c-.228-.186-.838-.427-1.053-.629a20 20 0 0 1-1.806-1.925 20 20 0 0 1-1.035-1.382c-.16-.235-.612-.523-.752-.765a16 16 0 0 1-1.061-2.19 13 13 0 0 1-.26-.727l-5.86-20.477a15 15 0 0 0-.453-1.469q-.278-.755-.644-1.511c-.244-.503-.21-.92-.496-1.42a20.287 20.287 0 0 0-2.006-2.876c-.377-.452-.388-.784-.79-1.209a20 20 0 0 0-1.248-1.206c-.429-.378-.454-.595-.893-.931q-.66-.504-1.337-.919t-1.354-.731c-.452-.211-.46-.254-.901-.405l8.044 2.422a11 11 0 0 1 1.37.462c.231.095.016.09.25.195a14 14 0 0 1 1.406.727 16 16 0 0 1 1.387.907c.228.166.035.244.262.417q.342.26.676.537a21 21 0 0 1 1.906 1.816c.199.217.026.362.221.583a20 20 0 0 1 1.611 2.072 19 19 0 0 1 .887 1.454c.135.245-.021.44.105.684a17 17 0 0 1 .377.781l.011.026.011.025.011.025.011.025.012.025.01.026.012.025.01.025.011.025.011.026.011.025.011.025.01.025.011.025.01.026.011.025.01.025.01.025.011.025.01.025.01.026.01.025.01.025.01.025.01.025.01.025.01.026.01.025.009.025.01.025.009.025.01.025.01.026.009.025.009.025.01.025.009.025.009.025.009.025.009.025.009.025.009.025.018.05.018.05.008.025.018.05.008.025.017.05.008.025.017.05 7.34 20.082q.289.705.674 1.412.385.706.859 1.399.473.694 1.026 1.36c.368.444 1.11.896 1.533 1.302a20 20 0 0 0 2.742 2.211c.485.326 1.406.628 1.914.891q.763.394 1.534.705c.513.207 1.482.388 1.994.522q.767.2 1.509.306c.493.07 1.445.12 1.911.114zm-83.058-28.211a11 11 0 0 1-1.136-.895 13 13 0 0 1-1.086-1.091c-.176-.198-.72-.66-.883-.876a16 16 0 0 1-.937-1.367 19 19 0 0 1-.83-1.5c-.13-.259-.583-.77-.694-1.04a20 20 0 0 1-.6-1.656 21 21 0 0 1-.456-1.704c-.064-.286-.397-.787-.44-1.075a20 20 0 0 1-.18-1.718 18 18 0 0 1-.02-1.675 16 16 0 0 1 .141-1.598c.037-.259-.105-.662-.05-.91l5.214-20.645q.201-.722.329-1.502c.086-.529.359-.876.407-1.433q.075-.837.068-1.702a20 20 0 0 0-.088-1.743c-.055-.583.133-.899.042-1.481a20 20 0 0 0-.35-1.727 19 19 0 0 0-.492-1.664c-.187-.54-.075-.758-.292-1.267a16 16 0 0 0-.71-1.458c-.255-.462-.212-.558-.492-.971q-.419-.62-.883-1.145l5.724 6.121q.25.244.492.514.242.269.474.563.231.292.453.609.22.316.43.652c.138.225-.059.142.077.376a16 16 0 0 1 .761 1.472 19 19 0 0 1 .64 1.591c.096.273-.12.27-.028.547a20.4 20.4 0 0 1 .805 3.429c.042.29-.19.352-.153.641a20 20 0 0 1 .138 1.721 18 18 0 0 1-.022 1.675q-.025.411-.07.81l-.003.027-.004.027q0 .015-.003.028l-.003.027-.003.028-.004.027-.003.027-.004.028-.003.027-.004.027-.004.027q0 .015-.003.028l-.004.027-.004.027-.003.027-.004.027-.004.027-.004.027-.004.027-.004.027-.004.027-.004.027-.005.027q0 .013-.004.026l-.004.027-.004.027-.005.027-.004.026-.005.027-.004.026-.005.027-.004.026-.005.027-.005.026-.004.027-.005.026-.005.027-.005.026-.005.026-.005.026-.005.027-.005.026-.005.026-.005.026-.005.026-.005.026-.006.026-.005.026-.005.026-.006.026-.005.026-.006.026-.005.025-.012.052-.005.026-.006.025-3.893 20.878a14 14 0 0 0-.145 1.557c-.021.535.222 1.247.27 1.804q.071.837.225 1.689.153.852.386 1.701c.155.566.65 1.334.867 1.881q.326.823.72 1.607t.847 1.515c.301.486 1.004 1.166 1.349 1.598q.518.649 1.074 1.215c.37.377 1.15.951 1.545 1.255q.593.456 1.199.809zm-57.522-65.699a11 11 0 0 1-.546-1.339q-.12-.354-.22-.726c-.068-.248-.32-.913-.369-1.173a15 15 0 0 1-.216-1.607 18 18 0 0 1-.06-1.688c.003-.286-.149-.961-.125-1.249a20 20 0 0 1 .385-2.604q.093-.432.204-.86c.074-.285.026-.904.119-1.182a20 20 0 0 1 .625-1.629 19 19 0 0 1 .753-1.528q.202-.368.418-.717c.144-.233.2-.713.358-.93a15 15 0 0 1 .987-1.213l14.77-15.411c.353-.352.78-.496 1.12-.898a16 16 0 0 0 .995-1.306q.476-.692.897-1.448c.281-.503.635-.69.888-1.219a20.5 20.5 0 0 0 1.235-3.299c.156-.563.405-.724.522-1.284q.176-.843.269-1.667c.061-.55.197-.652.214-1.18q.027-.793-.033-1.539-.061-.746-.206-1.431l2.03 8.625q.089.338.158.693c.046.237-.037.035 0 .281a13 13 0 0 1 .147 1.533 15 15 0 0 1-.02 1.622c-.017.276-.163.134-.188.415a18 18 0 0 1-.227 1.699 20 20 0 0 1-.386 1.708c-.077.284-.273.196-.356.479a21 21 0 0 1-.569 1.67 20 20 0 0 1-.704 1.596c-.128.258-.367.213-.499.465a18 18 0 0 1-.845 1.447q-.225.344-.46.669l-.017.022-.016.022-.017.023-.016.022-.017.022-.016.022-.017.022-.016.022-.017.023-.016.021-.017.022-.016.022-.017.022-.017.022-.016.021-.017.022-.017.021-.016.022-.017.022-.017.021-.017.021q-.007.012-.017.022-.007.01-.017.021l-.016.021-.017.021-.017.021-.017.022-.017.02-.017.021-.017.021-.017.021-.017.021-.017.021-.018.02-.017.021-.017.021-.017.02-.017.021-.017.02-.018.021-.017.02-.017.02-.018.02-.017.021-.017.02-.018.02-.017.02-.018.02-.017.02-.018.02-.017.019-.018.02-.017.02-.018.02-.018.019-.017.02-.018.019-13.767 16.266q-.47.599-.895 1.282-.424.684-.794 1.438c-.246.502-.333 1.309-.524 1.853a20 20 0 0 0-.867 3.397c-.095.581.025 1.516-.005 2.099a19 19 0 0 0-.012 1.736c.021.572.274 1.52.36 2.066q.13.82.334 1.587.203.767.477 1.464c.182.465.632 1.295.866 1.698zm-17.04-85.618q.023-.35.069-.709c.03-.239.1-.946.153-1.19a13 13 0 0 1 .417-1.482 15 15 0 0 1 .605-1.505c.116-.251.282-.941.418-1.187a18 18 0 0 1 .898-1.46 19 19 0 0 1 1.047-1.404c.186-.228.427-.838.629-1.053a20.5 20.5 0 0 1 1.925-1.806 20 20 0 0 1 1.382-1.035c.235-.16.524-.612.765-.752a16 16 0 0 1 1.46-.753 14 14 0 0 1 1.457-.568l20.477-5.86q.727-.181 1.47-.453.754-.278 1.51-.644c.503-.244.92-.21 1.42-.496q.751-.43 1.474-.935.722-.503 1.402-1.071c.452-.377.784-.388 1.209-.79q.637-.604 1.206-1.248c.378-.429.595-.454.93-.893q.506-.66.92-1.337t.731-1.354c.211-.452.254-.46.405-.901l-2.422 8.044a11 11 0 0 1-.462 1.37c-.095.231-.09.016-.195.25a14 14 0 0 1-.727 1.406 17 17 0 0 1-.907 1.387c-.166.228-.244.035-.417.262a19.4 19.4 0 0 1-2.353 2.582c-.217.199-.362.026-.583.221a19.7 19.7 0 0 1-2.794 2.075q-.364.222-.732.423c-.245.135-.44-.021-.684.105a17 17 0 0 1-.756.365l-.025.012-.026.011-.025.011-.025.011-.025.011-.025.012-.026.01-.025.012-.025.01-.025.011-.026.011-.025.011-.025.011-.025.01-.025.011-.026.01-.025.011-.025.01-.025.01-.025.011-.025.01-.026.01-.025.01-.025.01-.025.01-.025.01-.025.01-.026.01-.025.01-.025.009-.025.01-.025.009-.025.01-.025.01-.026.009-.025.009-.025.01-.025.009-.025.009-.025.009-.025.009-.025.009-.025.009-.05.018-.025.009-.025.009-.025.008-.075.026-.025.009-.025.008-.025.008-.025.009-.025.008-20.082 7.34q-.705.289-1.412.674-.706.385-1.4.859-.693.473-1.36 1.026c-.443.368-.895 1.11-1.301 1.533a20.3 20.3 0 0 0-2.212 2.742c-.325.485-.627 1.406-.89 1.914a18 18 0 0 0-.705 1.534c-.207.513-.388 1.482-.522 1.994a14 14 0 0 0-.306 1.509c-.07.493-.12 1.445-.114 1.911zM9.637 55.988q.198-.29.422-.573.224-.285.473-.563a13 13 0 0 1 1.091-1.086c.198-.176.66-.72.876-.883a16 16 0 0 1 1.367-.937 18 18 0 0 1 1.5-.83c.26-.13.77-.583 1.04-.694a20 20 0 0 1 2.504-.847q.426-.114.856-.21c.286-.063.788-.396 1.075-.44a20 20 0 0 1 1.718-.18 18 18 0 0 1 1.675-.02 16 16 0 0 1 1.598.142c.259.037.662-.105.91-.05l20.645 5.214q.722.201 1.502.329c.53.086.876.359 1.433.407q.837.075 1.702.068a20 20 0 0 0 1.742-.088c.584-.055.9.133 1.482.042a20 20 0 0 0 1.727-.35q.852-.21 1.664-.492c.54-.187.758-.075 1.267-.292q.764-.324 1.458-.71c.462-.255.557-.212.97-.492q.621-.419 1.146-.883l-6.121 5.724q-.244.25-.514.492a12 12 0 0 1-1.172.927q-.316.22-.652.43c-.225.138-.142-.059-.376.077a16 16 0 0 1-1.472.761 18 18 0 0 1-1.59.64c-.274.096-.27-.12-.548-.028a20 20 0 0 1-3.429.805c-.29.042-.352-.19-.64-.153a19 19 0 0 1-1.722.138 18 18 0 0 1-1.675-.022q-.411-.025-.81-.07l-.027-.003-.027-.004q-.015 0-.028-.003l-.027-.003-.028-.003-.027-.004q-.014 0-.027-.003l-.028-.004-.027-.003-.027-.004-.027-.003-.028-.004-.027-.004-.027-.004-.027-.003-.027-.004-.027-.004-.027-.004-.027-.004-.027-.004-.027-.004-.027-.004-.027-.004-.026-.005-.027-.004-.027-.004-.027-.005-.026-.004-.027-.005-.026-.004-.027-.005-.026-.004-.027-.005-.026-.005-.027-.004-.026-.005-.027-.005-.026-.005-.026-.005-.026-.005-.105-.02-.026-.005-.026-.005-.026-.006-.026-.005-.026-.005-.026-.006-.026-.005-.026-.006-.026-.005-.051-.012-.026-.005-.025-.006-20.878-3.893a14 14 0 0 0-1.557-.145c-.535-.021-1.247.222-1.804.27q-.837.071-1.689.225-.852.153-1.701.386c-.566.155-1.334.65-1.881.867q-.823.326-1.607.72-.785.395-1.515.847c-.486.301-1.166 1.004-1.598 1.349q-.649.518-1.215 1.074c-.377.37-.95 1.15-1.255 1.545q-.456.593-.809 1.199ZM75.336-1.534q.314-.153.65-.29a12 12 0 0 1 1.415-.477c.248-.067.913-.319 1.173-.368a15 15 0 0 1 1.607-.216 17 17 0 0 1 1.688-.06c.286.003.96-.149 1.25-.125a20 20 0 0 1 2.603.385q.432.093.86.204c.284.074.904.026 1.182.119a20 20 0 0 1 1.629.625 19 19 0 0 1 1.528.753q.367.202.717.418c.233.144.713.2.93.358a15 15 0 0 1 1.213.987l15.411 14.77c.352.353.496.78.898 1.12a16 16 0 0 0 1.306.995q.692.476 1.448.897c.503.281.69.635 1.219.888a20.5 20.5 0 0 0 3.299 1.235c.563.156.724.405 1.284.522q.843.176 1.667.269c.55.061.652.197 1.18.214q.793.027 1.539-.033.746-.061 1.431-.206l-8.625 2.03q-.338.089-.693.158c-.237.046-.035-.037-.281 0a13 13 0 0 1-1.533.147 15 15 0 0 1-1.622-.02c-.276-.017-.134-.163-.415-.188a18 18 0 0 1-1.699-.227 20 20 0 0 1-1.708-.386c-.284-.077-.196-.273-.479-.356a21 21 0 0 1-1.67-.569 20 20 0 0 1-1.596-.704c-.258-.128-.213-.367-.465-.499a18 18 0 0 1-1.447-.845q-.344-.225-.669-.46l-.022-.017-.022-.016-.023-.017-.022-.016-.022-.017-.022-.016-.022-.017-.022-.016-.023-.017-.021-.016-.022-.017-.022-.016-.022-.017-.022-.017-.021-.016-.022-.017-.021-.017-.022-.016-.022-.017-.021-.017-.021-.017q-.012-.007-.022-.017-.01-.007-.021-.017l-.021-.016-.021-.017-.021-.017-.022-.017-.02-.017-.021-.017-.021-.017-.021-.017-.021-.017-.021-.017-.02-.018-.021-.017-.021-.017-.02-.017-.021-.017-.02-.017-.021-.018-.02-.017-.02-.017-.02-.018-.021-.017-.02-.017-.02-.018-.02-.017-.02-.018-.02-.017-.02-.018-.019-.017-.02-.018-.02-.017-.02-.018-.019-.018-.02-.017-.019-.018L84.101 4.794a14 14 0 0 0-1.282-.895 17 17 0 0 0-1.438-.794c-.502-.246-1.31-.333-1.853-.524a20.383 20.383 0 0 0-3.397-.866c-.582-.096-1.516.024-2.1-.006a19 19 0 0 0-1.735-.012c-.572.021-1.52.274-2.066.36q-.821.13-1.587.334-.767.203-1.464.477c-.465.182-1.295.632-1.698.866Zm85.618-17.04q.35.023.709.069c.239.03.946.1 1.19.153a13 13 0 0 1 1.482.417 15 15 0 0 1 1.505.605c.251.116.941.282 1.187.418a18 18 0 0 1 1.46.898 19 19 0 0 1 1.404 1.047c.228.186.838.427 1.053.629a20.5 20.5 0 0 1 1.806 1.925 20 20 0 0 1 1.035 1.382c.16.235.612.524.752.765a16 16 0 0 1 .753 1.46 14 14 0 0 1 .568 1.457l5.86 20.477q.181.727.453 1.47.278.754.644 1.51c.244.503.21.92.496 1.42q.43.751.935 1.474.503.722 1.071 1.402c.377.452.388.784.79 1.209q.604.637 1.248 1.206c.429.378.454.595.893.93q.66.506 1.337.92t1.354.731c.452.211.46.254.901.405l-8.044-2.422a11 11 0 0 1-1.37-.462c-.231-.095-.016-.09-.25-.195a14 14 0 0 1-1.406-.727 17 17 0 0 1-1.387-.907c-.228-.166-.035-.244-.262-.417a19.4 19.4 0 0 1-2.582-2.353c-.199-.217-.026-.362-.221-.583a19.7 19.7 0 0 1-2.075-2.794 18 18 0 0 1-.423-.732c-.135-.245.021-.44-.105-.684a17 17 0 0 1-.365-.756l-.012-.025-.011-.026-.011-.025-.011-.025-.011-.025-.012-.025-.01-.026-.012-.025-.01-.025-.011-.025-.011-.026-.011-.025-.011-.025-.01-.025-.011-.025-.01-.026-.011-.025-.01-.025-.01-.025-.011-.025-.01-.025-.01-.026-.01-.025-.01-.025-.01-.025-.01-.025-.01-.025-.01-.026-.01-.025-.009-.025-.01-.025-.009-.025-.01-.025-.01-.025-.009-.026-.009-.025-.01-.025-.009-.025-.009-.025-.009-.025-.009-.025-.009-.025-.009-.025-.018-.05-.009-.025-.009-.025-.008-.025-.026-.075-.009-.025-.008-.025-.008-.025-.009-.025-.008-.025-7.34-20.082q-.289-.705-.674-1.412-.385-.706-.859-1.4a18 18 0 0 0-1.026-1.36c-.368-.443-1.11-.895-1.533-1.301a20.3 20.3 0 0 0-2.742-2.212c-.485-.325-1.406-.627-1.914-.89a18 18 0 0 0-1.534-.705c-.513-.207-1.482-.388-1.994-.522a14 14 0 0 0-1.509-.306c-.493-.07-1.445-.12-1.911-.114zm83.058 28.211q.289.198.573.422.285.224.563.473.28.249.551.522.272.274.535.57c.176.197.72.66.883.875a17 17 0 0 1 1.366 2.102q.209.375.401.765c.129.26.582.77.694 1.04q.167.405.318.82a20 20 0 0 1 .529 1.684q.114.426.209.856c.064.286.397.788.44 1.075a20 20 0 0 1 .181 1.718q.024.425.03.845a18 18 0 0 1-.061 1.64q-.036.4-.091.788c-.037.259.105.662.049.91l-5.213 20.645q-.201.722-.329 1.502c-.086.53-.359.876-.407 1.433a19.318 19.318 0 0 0 .02 3.445c.055.583-.134.9-.042 1.481q.139.875.349 1.727.212.852.493 1.664c.187.54.075.758.292 1.267q.325.764.709 1.458c.256.462.213.557.493.97q.419.621.883 1.146l-5.724-6.121a11.529 11.529 0 0 1-.966-1.076 13 13 0 0 1-.453-.61 14 14 0 0 1-.429-.652c-.139-.225.058-.142-.078-.376a17 17 0 0 1-.761-1.472q-.177-.385-.336-.783a18 18 0 0 1-.304-.808c-.096-.273.12-.27.028-.547a21 21 0 0 1-.476-1.695 21 21 0 0 1-.329-1.734c-.042-.29.189-.352.153-.64a20 20 0 0 1-.138-1.722 17 17 0 0 1 .092-2.485l.003-.027.004-.027.003-.028.003-.027.003-.028.004-.027.003-.027.004-.028.003-.027.004-.027.004-.027.003-.028.004-.027.004-.027.003-.027.004-.027.004-.027.004-.027.004-.027.004-.027.004-.027.004-.027.004-.026.005-.027.004-.027.004-.027.005-.027.004-.026.005-.027.004-.026.005-.027.004-.026.005-.027.005-.026.004-.027.005-.026.005-.027.005-.026.005-.026.005-.026.005-.027.005-.026.005-.026.005-.026.005-.026.005-.026.006-.026.005-.026.005-.026.006-.026.005-.026.006-.026.005-.025.006-.026.006-.026.005-.026.006-.025 3.893-20.878q.114-.753.145-1.557c.021-.535-.222-1.247-.27-1.804a18 18 0 0 0-.225-1.689 20 20 0 0 0-.386-1.701c-.155-.566-.649-1.334-.867-1.881a19.808 19.808 0 0 0-1.567-3.122c-.301-.486-1.004-1.166-1.349-1.598a16 16 0 0 0-1.074-1.215c-.371-.377-1.15-.95-1.545-1.255a11 11 0 0 0-1.199-.809zm57.522 65.699a11 11 0 0 1 .546 1.339q.119.354.221.726c.067.248.319.913.368 1.173q.073.39.127.792a16 16 0 0 1 .139 1.651q.015.423.01.852c-.003.286.148.96.125 1.25a20 20 0 0 1-.589 3.463c-.074.284-.026.904-.119 1.182a21 21 0 0 1-.625 1.629 19 19 0 0 1-.753 1.528 17 17 0 0 1-.418.717c-.144.233-.201.713-.358.93q-.237.324-.483.628-.248.304-.504.585l-14.77 15.411c-.353.352-.78.496-1.12.898q-.52.614-.995 1.306-.476.693-.897 1.448c-.281.503-.635.69-.888 1.219a20.4 20.4 0 0 0-1.235 3.299c-.156.563-.405.724-.522 1.284a18 18 0 0 0-.269 1.667c-.061.55-.197.652-.214 1.18q-.027.793.033 1.539t.206 1.431l-2.029-8.625q-.09-.338-.159-.693c-.046-.237.037-.035-.001-.281a14 14 0 0 1-.146-1.533q-.017-.396-.011-.801.005-.407.031-.821c.017-.276.163-.134.188-.415q.036-.422.093-.846a20 20 0 0 1 .52-2.561c.077-.284.273-.196.356-.479a21 21 0 0 1 .569-1.67q.159-.41.336-.809.176-.4.368-.787c.128-.258.367-.213.499-.465a18 18 0 0 1 .845-1.447q.224-.343.461-.669l.016-.022.016-.022.017-.023.016-.022.017-.022.016-.022.016-.022.017-.022.017-.023.016-.021.017-.022.016-.022.017-.022.017-.022.016-.021.017-.022.017-.021.016-.022.017-.022.017-.021.017-.021.017-.022.016-.021.017-.021.017-.021.017-.021.017-.022.017-.02.017-.021.017-.021.017-.021.017-.021.017-.021.018-.02.017-.021.017-.021.017-.02.017-.021.018-.02.017-.021.017-.02.017-.02.018-.02.017-.021.017-.02.018-.02.017-.02.018-.02.017-.02.018-.02.017-.019.018-.02.017-.02.018-.02.018-.019.017-.02.018-.019 13.767-16.266q.47-.599.895-1.282.424-.684.794-1.438c.246-.502.333-1.31.524-1.853q.288-.817.505-1.67a21 21 0 0 0 .362-1.727c.095-.582-.025-1.516.005-2.1q.045-.876.012-1.735c-.021-.572-.274-1.52-.36-2.066a16 16 0 0 0-.334-1.587q-.203-.767-.477-1.464c-.182-.465-.632-1.295-.866-1.698z" style="clip-rule:evenodd;fill:#ff4136;fill-opacity:1;fill-rule:nonzero;stroke-width:17.7639;stroke-linecap:round;stroke-linejoin:round;stroke-dashoffset:130.744;paint-order:stroke markers fill" transform="translate(18.939 18.939)"/>
  </g>
</svg>
