<svg xmlns="http://www.w3.org/2000/svg" xml:space="preserve" viewBox="0 0 523.378 157.41">
  <path d="M155.658 125.499c-.83 7.673 10.784-4.008 9.954 3.665l-.277 2.557c.831-7.673-10.784 4.009-9.954-3.664zm.316-2.295c-1.084 7.642 10.699-3.846 9.869 3.827l-.277 2.557c.83-7.673-10.784 4.009-9.954-3.664zm.355-2.242c-1.27 7.613 10.859-3.53 9.774 4.112l-.306 2.381c.83-7.673-10.967 3.814-9.883-3.828zm.4-2.245c-1.469 7.577 10.951-3.253 9.681 4.36l-.367 2.42c1.085-7.642-11.054 3.499-9.784-4.114zm.447-2.246c-1.682 7.533 11.043-2.953 9.574 4.624l-.411 2.403c1.271-7.613-11.16 3.216-9.692-4.362zm.467-2.094c-1.681 7.533 10.984-2.966 9.516 4.612l-.49 2.525c1.469-7.577-11.082 3.093-9.613-4.484zm.56-2.232c-1.908 7.478 11.072-2.642 9.391 4.89l-.517 2.373c1.469-7.577-11.208 2.919-9.527-4.614zm.619-2.229c-2.152 7.412 11.156-2.291 9.247 5.188l-.568 2.348c1.681-7.532-11.312 2.585-9.403-4.893zm.659-2.182c-2.343 7.354 11.257-1.951 9.105 5.461l-.623 2.323c1.909-7.479-11.412 2.22-9.26-5.192zm.708-2.189c-2.564 7.279 11.311-1.633 8.968 5.721l-.69 2.34c2.152-7.412-11.459 1.889-9.115-5.465zm.713-2.024c-2.564 7.28 11.25-1.653 8.906 5.701l-.781 2.451c2.344-7.354-11.367 1.778-9.024-5.576zm.866-2.21c-2.885 7.158 11.263-1.246 8.698 6.033l-.787 2.285c2.343-7.354-11.483 1.575-8.919-5.705zm.947-2.181c-3.206 7.02 11.323-.734 8.437 6.425l-.828 2.192c2.565-7.28-11.601 1.119-8.716-6.04zm1.022-2.138c-3.511 6.873 11.368-.218 8.161 6.802l-.905 2.157c2.885-7.158-11.662.588-8.455-6.432zm1.092-2.095c-3.798 6.718 11.388.282 7.878 7.156l-.987 2.13c3.207-7.02-11.688.062-8.177-6.811zm1.056-1.868c-3.798 6.719 11.308.24 7.798 7.113l-1.071 2.089c3.206-7.02-11.604.103-8.094-6.77zm1.235-2.006c-4.069 6.558 11.311.723 7.513 7.442l-1.145 2.057c3.511-6.873-11.611-.403-7.813-7.121zm1.295-1.96c-4.325 6.393 11.293 1.19 7.224 7.748l-1.216 2.025c3.798-6.718-11.597-.892-7.528-7.45zm1.351-1.912c-4.567 6.221 11.257 1.64 6.932 8.033l-1.284 1.99c4.069-6.558-11.564-1.365-7.239-7.757zm1.406-1.867c-4.795 6.048 11.204 2.078 6.637 8.3l-1.35 1.954c4.325-6.392-11.512-1.821-6.946-8.043zm1.44-1.801c-4.982 5.895 11.153 2.481 6.358 8.53l-1.414 1.915c4.567-6.222-11.445-2.262-6.65-8.31zm1.385-1.64c-4.982 5.896 11.101 2.44 6.306 8.488l-1.477 1.868c4.567-6.222-11.382-2.214-6.587-8.261zm1.515-1.713c-5.143 5.755 11.051 2.787 6.069 8.683l-1.543 1.853c4.795-6.048-11.299-2.6-6.317-8.496zm1.561-1.691c-5.315 5.596 10.97 3.111 5.828 8.866l-1.596 1.834c4.982-5.895-11.221-2.936-6.078-8.69zm1.611-1.666c-5.499 5.416 10.872 3.467 5.557 9.063l-1.625 1.788c5.143-5.755-11.152-3.28-5.837-8.875zm1.528-1.505c-5.498 5.416 10.887 3.721 5.389 9.137l-1.655 1.74c5.316-5.596-11.065-3.656-5.566-9.072zm1.717-1.58c-5.693 5.212 10.699 3.796 5.2 9.211l-1.705 1.69c5.315-5.595-11.015-3.606-5.516-9.021zm1.774-1.54c-5.895 4.98 10.552 4.206 4.86 9.418l-1.738 1.633c5.499-5.416-10.904-4.01-5.211-9.223zm1.834-1.498c-6.105 4.723 10.376 4.651 4.482 9.633l-1.771 1.572c5.692-5.212-10.766-4.45-4.872-9.432zm1.897-1.447c-6.319 4.431 10.166 5.126 4.061 9.848l-1.803 1.507c5.895-4.981-10.598-4.924-4.493-9.646zm1.756-1.232c-6.318 4.432 10.107 5.045 4.002 9.767l-1.861 1.436c5.895-4.982-10.54-4.853-4.435-9.575zm1.958-1.286c-6.484 4.186 9.92 5.525 3.601 9.957L192.854 78c6.105-4.723-10.332-5.352-4.013-9.783zm1.803-1.164c-6.485 4.187 9.904 5.855 3.42 10.041l-1.972 1.325c6.319-4.432-10.094-5.784-3.61-9.97zm1.997-1.237c-6.646 3.925 9.709 5.929 3.225 10.115l-2.161 1.395c6.484-4.186-9.904-5.855-3.42-10.04zm2.058-1.178c-6.811 3.629 9.453 6.33 2.807 10.256l-1.999 1.268c6.484-4.186-9.879-6.204-3.234-10.129zm2.125-1.113c-6.982 3.29 9.148 6.766 2.336 10.395l-2.021 1.191c6.645-3.925-9.628-6.643-2.817-10.272zm1.941-.914c-6.982 3.289 9.1 6.671 2.289 10.3l-2.068 1.109c6.645-3.925-9.582-6.561-2.771-10.19zm2.147-.976c-7.113 2.997 8.833 7.178 1.852 10.467l-2.087 1.01c6.811-3.629-9.28-7.03-2.299-10.319zm2.154-.871c-7.212 2.748 8.56 7.523 1.448 10.52l-2.137 1c6.982-3.289-8.972-7.486-1.859-10.483zm2.215-.792c-7.317 2.456 8.262 7.812 1.05 10.56l-2.013.838c6.982-3.29-8.863-7.706-1.651-10.454zm2.175-.704c-7.382 2.255 8.011 8.14.694 10.596l-2.218.82c7.212-2.748-8.373-8.12-1.056-10.576zm2.174-.647c-7.433 2.078 7.806 8.36.424 10.614l-2.309.765c7.317-2.456-8.079-8.352-.698-10.607zm2.255-.585c-7.503 1.81 7.537 8.534.104 10.611l-2.344.713c7.382-2.255-7.859-8.546-.426-10.624zm2.276-.488c-7.562 1.543 7.225 8.78-.278 10.592l-2.186.593c7.382-2.254-7.73-8.786-.228-10.597zm2.478-.403c-7.652 1.002 6.723 9.028-.839 10.571l-2.332.524c7.503-1.81-7.288-9.064.274-10.607zm2.314-.267c-7.683.727 6.392 9.227-1.22 10.5l-2.352.424c7.562-1.543-6.958-9.3.654-10.574zm2.325-.167c-7.704.45 5.904 9.725-1.78 10.452l-2.186.286c7.612-1.274-6.468-9.803 1.216-10.53zm2.516-.058c-7.717-.107 5.362 9.907-2.343 10.356l-2.378.194c7.683-.727-5.926-10.018 1.779-10.467zm2.334.059c-7.708-.39 4.995 10.065-2.721 10.232l-2.382.09c7.705-.45-5.557-10.21 2.159-10.378zm2.351.166c-7.685-.708 4.409 10.48-3.299 10.09l-2.2-.015c7.716-.167-4.987-10.653 2.721-10.263zm2.364.29c-7.644-1.061 3.952 10.626-3.733 9.918l-2.167-.125c7.717.106-4.575-10.83 3.111-10.122zm2.652.5c-7.485-1.877 3.155 10.695-4.49 9.634l-2.321-.255c7.686.708-3.908-10.999 3.736-9.938zm2.38.64c-7.354-2.339 2.564 10.768-5.016 9.317l-2.277-.382c7.645 1.061-3.369-11.175 4.211-9.724zm2.353.827c-7.178-2.832 1.476 11.188-5.878 8.85l-1.911-.44c7.58 1.45-2.325-11.705 5.029-9.366zm2.244.98c-7-3.252.76 11.267-6.418 8.434l-1.809-.586c7.486 1.876-1.593-11.817 5.585-8.985zm2.328 1.247c-6.653-3.911-.053 11.157-7.052 7.905l-2.092-.875c7.178 2.833-.571-11.709 6.428-8.457zm2.034 1.28c-6.447-4.241-.965 11.286-7.618 7.374l-1.855-.929c6.999 3.252.418-11.853 7.071-7.941zm2.296 1.733c-5.78-5.112-1.86 10.87-8.307 6.63l-1.761-1.072c6.837 3.581.968-11.767 7.415-7.526zm1.871 1.69c-5.392-5.521-2.736 10.716-8.798 5.94l-1.737-1.235c6.447 4.241 2.043-11.625 8.105-6.848zm1.729 1.823c-4.982-5.893-3.35 10.445-9.13 5.332l-1.733-1.48c6.063 4.777 2.77-11.339 8.55-6.226zm1.582 1.94c-4.559-6.226-4.082 10.176-9.473 4.654l-1.559-1.545c5.78 5.113 3.53-11.164 8.921-5.643zm1.396 2.038c-4.156-6.503-5.392 9.923-9.951 3.697l-1.216-1.386c5.391 5.521 4.959-10.92 9.518-4.693zm1.345 2.334c-3.439-6.91-6.09 9.35-10.245 2.847l-1.101-1.53c4.982 5.892 5.615-10.514 9.771-4.01zm1.048 2.207c-3.032-7.096-6.565 8.96-10.346 2.233l-1.177-1.953c4.155 6.503 6.366-9.816 10.147-3.089zm.888 2.317c-2.561-7.28-7.485 8.43-10.517 1.333l-.926-1.79c3.781 6.728 7.355-9.35 10.388-2.253zm.747 2.621c-1.724-7.522-8.034 7.67-10.595.39l-.725-1.794c3.44 6.91 7.871-8.9 10.432-1.62zm.481 2.347c-1.354-7.597-8.415 7.222-10.54-.197l-.678-2.162c2.561 7.28 8.445-8.09 10.57-.671zm.36 2.56c-.702-7.687-9.211 6.424-10.566-1.174l-.452-1.993c2.125 7.419 9.229-7.411 10.583.187zm.181 2.332c-.411-7.707-9.443 6.039-10.458-1.612l-.364-2.315c1.355 7.598 9.55-6.69 10.565.962zm.063 2.36c-.088-7.718-9.951 5.468-10.362-2.239l-.215-2.157c1.014 7.651 10.08-6.098 10.491 1.61zm-.049 2.382c.27-7.713-10.157 5.025-10.245-2.692l-.081-2.161c.701 7.686 10.282-5.674 10.37 2.043zm-.161 2.368c.611-7.694-10.377 4.56-10.108-3.154l.019-2.333c.088 7.717 10.534-5.021 10.265 2.692zm-.267 2.348c.937-7.66-10.568 4.105-9.957-3.589l.131-2.34c-.269 7.713 10.738-4.539 10.127 3.155zm-.368 2.325c1.247-7.616-10.732 3.663-9.795-3.998l.24-2.341c-.611 7.693 10.912-4.07 9.974 3.59zm-.467 2.324c1.579-7.554-10.866 3.209-9.619-4.408l.343-2.338c-.937 7.661 11.059-3.616 9.812 4zm-.583 2.332c1.957-7.465-10.981 2.699-9.402-4.855l.435-2.306c-1.247 7.616 11.216-3.143 9.637 4.411zm-.717 2.332c2.381-7.34-11.086 2.111-9.129-5.354l.531-2.251c-1.579 7.554 11.38-2.605 9.423 4.86zm-.838 2.281c2.784-7.198-11.199 1.479-8.818-5.862l.636-2.186c-1.957 7.465 11.533-1.98 9.152 5.361zm-.884 2.235c3.143-7.048-11.343.852-8.559-6.346l.757-2.157c-2.381 7.34 11.624-1.329 8.84 5.869zm-.874 1.96c3.143-7.049-11.243.893-8.459-6.305l.928-2.399c-2.784 7.198 11.453-1.087 8.669 6.111zm-1.042 2.178c3.509-6.873-11.325.289-8.182-6.759l.919-2.122c-2.784 7.198 11.622-.736 8.479 6.313zm-.976 1.911c3.509-6.874-11.504-.096-7.995-6.97l.963-2.09c-3.143 7.048 11.711-.105 8.202 6.769zm-1.202 2.104c3.875-6.674-11.278-.289-7.769-7.163l1.17-2.291c-3.509 6.873 11.504.096 7.995 6.97zm-1.279 2.1c4.276-6.424-11.281-.963-7.405-7.637l1.11-2.007c-3.509 6.874 11.664.501 7.788 7.175zm-1.298 1.891c4.46-6.299-11.308-1.524-7.032-7.948l1.139-1.949c-3.875 6.674 11.703 1.226 7.427 7.651zm-1.208 1.723c4.409-6.335-11.405-1.719-6.945-8.018l1.183-1.747c-3.876 6.674 11.676 1.394 7.216 7.693zm-.958 1.48c3.927-6.644-11.654-1.374-7.245-7.709l1.505-2.138c-4.46 6.3 11.351 1.682 6.942 8.017zM199.75 81.118c-6.115-4.71-2.202 11.293-8.317 6.584l-2.038-1.57c6.115 4.71 2.202-11.293 8.317-6.584zm1.753 1.379c-6.037-4.81-2.255 11.223-8.37 6.514l-2.038-1.57c6.115 4.71 2.202-11.293 8.317-6.584zm1.678 1.337c-6.037-4.81-2.388 11.255-8.424 6.446l-1.962-1.53c6.115 4.71 2.337-11.329 8.374-6.52zm1.678 1.337c-6.036-4.81-2.387 11.255-8.424 6.446l-2.013-1.603c6.037 4.809 2.388-11.256 8.425-6.446zm1.741 1.442c-5.927-4.943-2.45 11.15-8.487 6.34l-2.012-1.603c6.036 4.81 2.388-11.255 8.424-6.445zm1.648 1.374c-5.928-4.943-2.639 11.199-8.566 6.256l-1.903-1.556c6.037 4.81 2.565-11.29 8.493-6.348zm1.755 1.473c-5.786-5.108-2.746 11.1-8.674 6.157l-1.976-1.648c5.928 4.943 2.639-11.199 8.567-6.256zm1.608 1.42c-5.785-5.108-2.706 11.054-8.634 6.11l-1.976-1.647c5.928 4.943 2.639-11.199 8.567-6.256zm1.608 1.42c-5.785-5.108-2.955 11.12-8.74 6.012l-1.83-1.595c5.928 4.943 2.856-11.228 8.642-6.12zm1.723 1.558c-5.606-5.305-3.069 10.982-8.855 5.874l-1.928-1.703c5.785 5.108 2.955-11.12 8.74-6.011zm1.558 1.474c-5.606-5.304-3.335 11.012-8.941 5.707l-1.792-1.59c5.785 5.109 3.259-11.19 8.865-5.885zm1.559 1.475c-5.606-5.305-3.336 11.011-8.942 5.707l-1.742-1.645c5.786 5.109 3.209-11.135 8.815-5.83zm1.673 1.655c-5.385-5.527-3.45 10.831-9.056 5.526l-1.869-1.768c5.606 5.305 3.335-11.011 8.942-5.707zM221.23 100c-5.386-5.528-3.78 10.867-9.166 5.339l-1.699-1.643c5.607 5.304 3.684-11.066 9.069-5.538zm1.497 1.537c-5.386-5.528-3.78 10.866-9.166 5.338l-1.795-1.842c5.386 5.528 3.78-10.867 9.166-5.339zm1.577 1.705c-5.193-5.71-3.86 10.698-9.246 5.17l-1.795-1.843c5.386 5.528 3.78-10.866 9.166-5.338zm1.513 1.698c-5.048-5.839-4.222 10.62-9.414 4.909l-1.643-1.743c5.386 5.528 4.064-10.89 9.256-5.18zm1.491 1.728c-4.891-5.971-4.507 10.518-9.555 4.679l-1.638-1.814c5.193 5.711 4.375-10.755 9.423-4.916zm1.359 1.66c-4.89-5.971-4.463 10.481-9.511 4.642l-1.597-1.849c5.192 5.71 4.334-10.72 9.382-4.881zm1.42 1.798c-4.72-6.107-4.761 10.364-9.652 4.393l-1.558-1.872c5.047 5.839 4.629-10.62 9.52-4.649zm1.405 1.853c-4.502-6.268-5.088 10.209-9.808 4.102l-1.52-1.893c4.891 5.971 4.942-10.507 9.662-4.4zm1.324 1.934c-4.257-6.437-5.428 9.991-9.931 3.723l-1.462-1.893c4.719 6.107 5.318-10.379 9.82-4.11zm1.233 2.063c-3.928-6.642-5.795 9.695-10.052 3.258l-1.262-1.793c4.72 6.106 5.588-10.321 9.845-3.884zm1.159 2.132c-3.559-6.848-6.305 9.381-10.233 2.739l-1.214-1.97c4.258 6.438 6.143-9.911 10.071-3.268zm1.046 2.103c-3.285-6.984-6.813 9.112-10.373 2.264l-1.123-1.996c3.928 6.643 6.694-9.598 10.253-2.75zm.957 2.076c-3.094-7.071-7.165 8.902-10.451 1.918l-1.076-2.109c3.56 6.848 7.103-9.255 10.388-2.271zm.86 1.965c-3.094-7.071-7.365 8.84-10.459 1.769l-1.033-2.202c3.285 6.984 7.367-8.995 10.461-1.924zm.84 1.913c-3.172-7.036-7.344 8.892-10.439 1.822l-.98-2.227c3.285 6.984 7.314-8.97 10.408-1.899zm.797 1.753c-3.469-6.894-7.281 9.105-10.376 2.034l-1.031-2.357c3.094 7.071 7.365-8.839 10.459-1.769zm.858 1.65c-3.846-6.692-7.159 9.429-10.331 2.393l-1.074-2.4c3.094 7.071 7.284-8.866 10.456-1.829zm1.069 1.86c-3.846-6.692-6.358 9.589-10.204 2.897l-1.372-2.754c3.172 7.037 6.448-9.065 10.294-2.374zm1.029 1.598c-4.16-6.501-6.318 9.851-10.164 3.159l-1.403-2.489c3.469 6.894 6.479-9.33 10.325-2.638zm1.076 1.507c-4.523-6.253-5.814 10.18-9.974 3.679l-1.479-2.397c3.846 6.691 5.987-9.65 10.147-3.149zm1.134 1.388c-4.939-5.929-5.199 10.549-9.721 4.296l-1.617-2.364c4.159 6.5 5.431-9.919 9.954-3.666zm.936.974c-5.792-5.1-4.175 11.212-9.114 5.284l-1.794-2.308c4.523 6.253 4.76-10.207 9.699-4.278zm1.226.981c-6.324-4.423-2.983 11.653-8.519 6.275l-2.094-2.301c4.939 5.929 3.729-10.457 9.265-5.08zm.984.52c-7.077-3.077-.908 12.091-7.232 7.667l-2.577-2.209c5.536 5.377 2.152-10.646 8.475-6.223zm.535.154c-7.676-.782 2.046 12.189-5.03 9.112l-3.316-2.035c6.057 4.782.343-10.478 7.419-7.401zm.969-.004c-7.655.972 4.756 11.499-2.835 10.114l-3.875-1.346c6.841 3.571-1.869-10.161 5.722-8.776zm.825-.205c-7.173 2.847 7.377 10.09-.329 10.498l-4.143-.354c7.459 1.976-4.107-9.512 3.599-9.92zm1.385-.652c-6.783 3.679 9.057 8.008 1.736 10.451l-3.876.722c7.706-.408-6.701-8.041.62-10.483zm1.231-.746c-6.218 4.572 10.081 6.316 3.298 9.994l-3.5 1.417c7.455-1.994-8.187-6.783-1.404-10.461zm1.515-1.139c-5.989 4.868 10.448 5.657 3.963 9.84l-2.868 1.651c7.018-3.211-9.195-6.115-2.71-10.298zm1.491-1.256c-5.8 5.091 10.657 4.644 4.668 9.511l-2.555 1.817c6.485-4.183-9.925-4.935-3.936-9.802zm1.476-1.344c-5.651 5.257 10.792 4.269 4.992 9.36l-2.339 1.905c6.218-4.571-10.25-4.548-4.45-9.639zm1.43-1.392c-5.495 5.42 10.918 3.959 5.267 9.217l-2.026 1.817c5.8-5.092-10.635-4.094-4.984-9.351zm1.527-1.507c-5.495 5.42 10.89 3.713 5.395 9.133l-1.967 1.882c5.65-5.258-10.754-3.788-5.259-9.208zm1.433-1.463c-5.391 5.523 10.985 3.67 5.49 9.09l-1.832 1.806c5.495-5.42-10.89-3.713-5.395-9.133zm1.499-1.535c-5.391 5.523 10.959 3.506 5.567 9.029l-1.88 1.896c5.494-5.42-10.876-3.561-5.484-9.084zm1.5-1.536c-5.393 5.522 10.958 3.507 5.566 9.03l-1.797 1.841c5.391-5.523-10.959-3.507-5.567-9.03zm1.499-1.535c-5.393 5.522 10.958 3.508 5.565 9.03l-1.796 1.841c5.391-5.523-10.959-3.508-5.567-9.031zm1.576-1.576c-5.481 5.435 10.881 3.549 5.488 9.071l-1.797 1.841c5.392-5.522-10.958-3.508-5.566-9.031zm1.523-1.511c-5.48 5.435 10.9 3.685 5.42 9.119l-1.753 1.769c5.392-5.522-10.974-3.642-5.494-9.076zm1.66-1.594c-5.643 5.266 10.764 3.768 5.283 9.203l-1.827 1.811c5.481-5.434-10.9-3.684-5.419-9.119zm1.568-1.464c-5.642 5.266 10.783 4.013 5.14 9.279l-1.728 1.688c5.48-5.434-10.935-3.946-5.293-9.212zm1.696-1.561c-5.803 5.089 10.656 4.11 5.013 9.376l-1.881 1.755c5.643-5.265-10.783-4.013-5.14-9.278zm1.711-1.498c-5.928 4.942 10.556 4.429 4.752 9.517l-1.762 1.648c5.642-5.265-10.826-4.297-5.022-9.385zm1.649-1.373c-5.929 4.941 10.52 4.387 4.717 9.476l-1.808 1.599c5.643-5.266-10.78-4.248-4.977-9.337zm1.791-1.427c-6.065 4.772 10.398 4.664 4.469 9.605l-1.865 1.579c5.804-5.088-10.652-4.542-4.724-9.484zm1.839-1.393c-6.212 4.579 10.255 4.972 4.189 9.745l-1.887 1.527c5.929-4.942-10.542-4.843-4.476-9.615zm1.887-1.354c-6.366 4.362 10.088 5.311 3.876 9.891l-1.91 1.472c6.066-4.773-10.409-5.176-4.196-9.756zm1.937-1.312c-6.526 4.121 9.895 5.68 3.528 10.042l-1.933 1.414c6.212-4.579-10.251-5.54-3.884-9.903zm1.814-1.145c-6.526 4.12 9.851 5.612 3.484 9.974l-1.976 1.354c6.212-4.579-10.208-5.48-3.841-9.843zm2.031-1.19c-6.688 3.853 9.628 5.999 3.102 10.119l-2.002 1.287c6.367-4.363-10.018-5.868-3.492-9.988zm2.08-1.131c-6.848 3.559 9.374 6.408 2.686 10.261l-2.026 1.217c6.526-4.12-9.798-6.281-3.11-10.134zm2.129-1.069c-7.005 3.24 9.086 6.838 2.237 10.397l-2.05 1.146c6.688-3.852-9.543-6.718-2.695-10.277zm1.947-.901c-7.005 3.24 8.99 7.18 1.985 10.42l-2.074 1.075c6.849-3.559-9.251-7.175-2.246-10.415zm2.217-.907c-7.154 2.896 8.72 7.187 1.715 10.426l-2.117.986c6.848-3.558-9.207-7.086-2.202-10.325zm2.257-.831c-7.291 2.529 8.362 7.634 1.208 10.53l-2.137.907c7.004-3.24-8.878-7.549-1.724-10.446zm2.294-.755c-7.414 2.143 7.967 8.086.675 10.616l-2.157.829c7.154-2.896-8.507-8.021-1.216-10.55zm2.061-.595c-7.414 2.143 7.801 8.456.387 10.599l-2.176.752c7.291-2.53-8.096-8.494-.682-10.637zm2.357-.564c-7.519 1.739 7.505 8.424.091 10.567l-2.21.645c7.291-2.53-8.062-8.387-.648-10.53zm2.38-.483c-7.604 1.323 7.042 8.865-.477 10.604l-2.223.565c7.414-2.143-7.615-8.851-.096-10.59zm2.398-.403c-7.665.898 6.548 9.291-1.056 10.614l-2.235.489c7.519-1.739-7.131-9.304.472-10.627zm2.13-.25c-7.665.898 6.531 9.174-1.072 10.496l-2.534.441c7.603-1.322-6.833-9.256.77-10.578zm2.423-.207c-7.703.469 6.015 9.58-1.65 10.478l-2.266.299c7.603-1.323-6.596-9.622 1.069-10.52zm2.427-.135c-7.717.04 5.475 9.964-2.229 10.432l-2.273.23c7.666-.897-6.054-10.032 1.649-10.5zm2.146-.011c-7.718.04 5.47 9.845-2.233 10.313l-2.568.156c7.703-.468-5.76-9.959 1.943-10.427zm2.425.048c-7.708-.383 4.918 10.203-2.799 10.244l-2.286.047c7.704-.468-5.485-10.297 2.232-10.337zm2.143.106c-7.708-.382 4.629 10.532-3.079 10.15l-2.29-.01c7.717-.04-4.908-10.65 2.8-10.268zm2.411.22c-7.677-.795 4.361 10.418-3.347 10.036l-2.57-.127c7.708.382-4.629-10.532 3.079-10.15zm2.398.267c-7.625-1.194 3.794 10.719-3.883 9.924l-2.289-.176c7.708.382-4.328-10.854 3.349-10.059zm2.12.332c-7.625-1.194 3.808 10.608-3.869 9.813l-2.559-.265c7.677.795-4.058-10.765 3.619-9.97zm2.368.413c-7.555-1.576 3.243 10.881-4.382 9.687l-2.28-.331c7.677.795-3.753-11.029 3.872-9.835zm2.1.439c-7.555-1.577 2.935 11.124-4.62 9.547l-2.284-.365c7.625 1.194-3.169-11.284 4.386-9.708zm2.332.542c-7.47-1.94 2.703 11.02-4.852 9.444l-2.264-.472c7.624 1.194-3.189-11.178 4.366-9.602zm2.076.54c-7.47-1.94 2.393 11.253-5.077 9.313l-2.269-.497c7.555 1.577-2.614-11.403 4.856-9.463zm2.292.655c-7.373-2.284 2.178 11.137-5.292 9.197l-2.49-.647c7.47 1.941-2.393-11.253 5.077-9.313zm2.049.635c-7.372-2.284 1.869 11.352-5.503 9.068l-2.252-.613c7.47 1.94-2.075-11.5 5.297-9.216zm2.249.752c-7.264-2.607 1.669 11.235-5.703 8.951l-2.457-.761c7.372 2.284-1.869-11.352 5.503-9.068zm2.02.725c-7.264-2.607 1.367 11.424-5.898 8.817l-2.233-.717c7.372 2.284-1.555-11.576 5.709-8.969zm2.208.833c-7.148-2.909 1.178 11.315-6.086 8.708l-2.422-.869c7.265 2.607-1.366-11.423 5.898-8.816zm1.988.808c-7.149-2.909.887 11.471-6.262 8.562l-2.214-.806c7.264 2.607-1.056-11.634 6.093-8.725zm2.17.9c-7.028-3.19.704 11.38-6.444 8.471l-2.183-.89c7.264 2.607-1.088-11.551 6.061-8.642zm1.954.887c-7.028-3.19.738 11.302-6.411 8.393l-2.383-.97c7.149 2.909-.887-11.471 6.261-8.562zm1.953.886c-7.028-3.189.432 11.498-6.596 8.308l-2.164-.962c7.149 2.909-.61-11.599 6.418-8.409zm2.101 1.027c-6.904-3.451.285 11.357-6.743 8.168l-2.343-1.064c7.028 3.19-.432-11.497 6.596-8.307zm1.919.959c-6.904-3.451.001 11.505-6.902 8.055l-2.149-1.023c7.028 3.19-.154-11.633 6.75-8.182zm2.069 1.064c-6.778-3.692-.149 11.401-7.052 7.95l-2.301-1.15c6.903 3.45-.002-11.506 6.902-8.055zm1.884 1.027c-6.778-3.692-.404 11.498-7.182 7.806l-2.136-1.074c6.903 3.451.281-11.655 7.059-7.963zm1.884 1.026c-6.778-3.692-.404 11.498-7.182 7.806l-2.101-1.141c6.904 3.451.246-11.588 7.024-7.896zm2.008 1.155c-6.652-3.915-.528 11.37-7.306 7.678l-2.259-1.231c6.778 3.692.404-11.498 7.182-7.806zm1.849 1.088c-6.652-3.915-.786 11.479-7.437 7.564l-2.093-1.179c6.778 3.692.661-11.605 7.313-7.69zm1.849 1.089c-6.652-3.915-.786 11.478-7.437 7.563l-2.218-1.305c6.652 3.915.786-11.478 7.438-7.563zm1.952 1.228c-6.526-4.121-.889 11.339-7.54 7.424l-2.218-1.305c6.652 3.915.786-11.479 7.438-7.564zm1.814 1.146c-6.526-4.121-1.144 11.448-7.67 7.327l-2.053-1.266c6.652 3.915 1.022-11.556 7.547-7.435zm1.937 1.234c-6.403-4.311-1.267 11.36-7.793 7.239l-2.175-1.374c6.526 4.121 1.144-11.448 7.67-7.328zm1.779 1.198c-6.402-4.311-1.232 11.307-7.758 7.186l-2.175-1.373c6.526 4.121 1.144-11.449 7.67-7.328zm1.78 1.198c-6.402-4.31-1.479 11.41-7.882 7.1l-2.017-1.34c6.526 4.121 1.363-11.507 7.765-7.197zm1.893 1.284c-6.281-4.485-1.593 11.325-7.995 7.014l-2.134-1.437c6.402 4.311 1.479-11.41 7.882-7.099zm1.746 1.247c-6.281-4.485-1.559 11.276-7.961 6.965l-2.134-1.437c6.402 4.311 1.479-11.41 7.881-7.099zm1.746 1.247c-6.281-4.485-1.794 11.365-8.074 6.88l-1.988-1.4c6.403 4.311 1.688-11.461 7.968-6.975zm1.746 1.247c-6.281-4.485-1.794 11.365-8.074 6.88l-2.094-1.496c6.281 4.486 1.794-11.365 8.074-6.879zm1.823 1.368c-6.163-4.647-1.871 11.244-8.151 6.759l-2.094-1.496c6.281 4.486 1.794-11.365 8.074-6.879zm1.713 1.291c-6.162-4.646-2.087 11.315-8.25 6.668l-1.962-1.449c6.281 4.486 1.995-11.414 8.158-6.767zm1.713 1.292c-6.162-4.647-2.087 11.315-8.25 6.668l-2.054-1.549c6.163 4.647 2.088-11.315 8.25-6.668zm1.793 1.394c-6.047-4.796-2.167 11.213-8.33 6.566l-2.054-1.549c6.163 4.647 2.088-11.315 8.25-6.668zm1.682 1.333c-6.048-4.796-2.363 11.26-8.411 6.465l-1.942-1.489c6.163 4.647 2.289-11.371 8.337-6.575zm1.681 1.333c-6.048-4.796-2.363 11.26-8.41 6.465l-2.016-1.599c6.047 4.796 2.362-11.26 8.41-6.465zm1.807 1.447c-5.885-4.993-2.489 11.147-8.536 6.351l-2.016-1.599c6.047 4.796 2.362-11.26 8.41-6.465zm1.636 1.388c-5.885-4.993-2.444 11.092-8.491 6.296l-2.016-1.599c6.048 4.796 2.363-11.26 8.41-6.464zm1.793 1.579c-5.642-5.266-2.89 10.984-8.775 5.992l-1.844-1.54c6.048 4.795 2.615-11.3 8.501-6.308zm1.568 1.463c-5.642-5.265-3.259 11.034-8.901 5.768l-1.768-1.516c5.885 4.993 3.146-11.272 8.789-6.007zm1.703 1.723c-5.349-5.562-3.394 10.775-9.036 5.509l-1.7-1.592c5.885 4.993 3.079-11.197 8.721-5.931zm1.626 1.738c-5.092-5.801-3.988 10.649-9.338 5.087l-1.636-1.607c5.642 5.265 3.703-11.088 9.052-5.526zm1.494 1.768c-4.898-5.965-4.419 10.5-9.51 4.699l-1.618-1.688c5.35 5.563 4.261-10.901 9.352-5.1zm1.518 2.014c-4.448-6.308-4.846 10.151-9.743 4.186l-1.416-1.642c5.35 5.562 4.472-10.853 9.37-4.888zm1.421 2.148c-3.904-6.658-5.63 9.74-10.077 3.433l-1.359-1.725c4.898 5.965 5.321-10.513 9.769-4.205zm1.162 2.08c-3.593-6.831-5.962 9.437-10.151 2.955l-1.228-1.788c4.683 6.135 5.682-10.28 9.871-3.797zm1.097 2.429c-2.883-7.159-6.81 8.814-10.403 1.983l-1.077-1.816c4.189 6.482 6.591-9.805 10.184-2.974zm.857 2.589c-2.054-7.439-7.679 8.018-10.562.859l-.897-1.843c3.593 6.831 7.559-9.16 10.442-2.001zm.548 2.729c-1.115-7.636-8.527 7.037-10.581-.402l-.586-1.616c3.252 6.999 8.451-8.561 10.505-1.122zm.176 2.82c-.093-7.716-9.305 5.88-10.42-1.757l-.371-1.588c2.483 7.307 9.438-7.534 10.553.102zm-.304 3.185c1.484-7.573-9.896 4.229-9.989-3.487l-.136-1.555c1.596 7.55 10.33-6.286 10.424 1.43zm-.71 2.742c2.485-7.306-10.339 2.862-9.377-4.795l.092-1.861c.094 7.716 11.078-4.513 10.117 3.144zm-1.072 2.581c3.388-6.934-11.016 1.008-8.532-6.298l.28-1.501c-.962 7.656 11.947-2.492 9.462 4.814zm-1.368 2.376c4.17-6.494-11.078-.344-7.689-7.278l.537-1.481c-1.994 7.454 12.096-.934 8.707 5.999zm-1.591 2.158c4.825-6.024-11.007-1.584-6.836-8.078l.781-1.455c-2.95 7.131 12.047.522 7.877 7.016zm-1.75 1.949c5.359-5.554-10.839-2.691-6.015-8.715l1.005-1.423c-3.795 6.719 11.852 1.831 7.027 7.855zm-1.861 1.76c5.791-5.102-10.607-3.66-5.247-9.214l1.202-1.387c-4.513 6.261 11.562 2.98 6.202 8.533zm-1.877 1.531c6.057-4.782-10.396-4.433-4.605-9.535l1.373-1.35c-5.105 5.788 11.221 3.97 5.43 9.071zm-1.993 1.464c6.351-4.385-10.104-5.023-4.047-9.805l1.601-1.347c-5.587 5.325 10.831 4.641 4.774 9.423zm-2.026 1.346c6.586-4.024-9.819-5.671-3.469-10.056l1.783-1.36c-6.057 4.782 10.414 5.442 4.064 9.827zm-1.83 1.118c6.585-4.023-9.756-6.098-3.17-10.122l1.882-1.295c-6.35 4.386 10.069 6.053 3.483 10.076zm-2.101 1.156c6.775-3.695-9.485-6.136-2.9-10.159l1.948-1.195c-6.35 4.386 10.003 5.952 3.417 9.976zm-2.105 1.083c6.928-3.4-9.223-6.625-2.448-10.321l2.018-1.144c-6.586 4.024 9.685 6.482 2.91 10.178zm-2.108 1.02c7.053-3.132-8.971-7.047-2.042-10.447l2.077-1.098c-6.775 3.696 9.385 6.937 2.456 10.336zm-1.961.871c7.054-3.132-8.936-6.973-2.007-10.373l2.309-1.133c-6.928 3.4 9.153 6.972 2.224 10.372zm-2.138.902c7.156-2.891-8.702-7.348-1.648-10.48l2.162-.983c-6.928 3.4 9.068 7.255 2.014 10.388zm-1.989.804c7.156-2.891-8.626-7.614-1.469-10.505l2.2-.952c-7.054 3.132 8.811 7.602 1.654 10.493zm-2.157.804c7.241-2.672-8.458-7.615-1.302-10.506l2.386-.963c-7.156 2.891 8.625 7.614 1.469 10.505zm-2.15.777c7.312-2.473-8.253-7.907-1.012-10.58l2.256-.863c-7.156 2.891 8.548 7.846 1.307 10.518zm-2.032.688c7.311-2.474-8.172-8.099-.861-10.573l2.282-.842c-7.241 2.672 8.327 8.117 1.016 10.59zm-2.16.705c7.37-2.293-8.045-8.117-.733-10.59l2.301-.788c-7.241 2.673 8.308 8.062.997 10.536zm-2.049.637c7.37-2.293-7.97-8.298-.6-10.591l2.32-.773c-7.311 2.474 8.107 8.307.737 10.6zm-2.167.643c7.419-2.127-7.852-8.304-.482-10.597l2.457-.764c-7.37 2.293 7.97 8.298.6 10.591zm-2.062.592c7.419-2.128-7.783-8.474-.364-10.602l2.352-.713c-7.37 2.292 7.904 8.478.485 10.606zm-2.171.591c7.461-1.976-7.675-8.474-.255-10.601l2.473-.71c-7.42 2.128 7.783 8.474.363 10.602zm-2.074.55c7.461-1.977-7.609-8.631-.148-10.607l2.377-.662c-7.419 2.127 7.719 8.634.258 10.61zm-2.22.545c7.512-1.771-7.463-8.627-.002-10.603l2.487-.659c-7.461 1.977 7.609 8.631.148 10.607zm-2.088.493c7.512-1.772-7.371-8.835.141-10.607l2.358-.598c-7.462 1.976 7.517 8.842.005 10.614zm-2.088.493c7.512-1.772-7.371-8.835.141-10.607l2.504-.591c-7.512 1.772 7.371 8.835-.141 10.607zm-2.089.492c7.512-1.772-7.37-8.834.142-10.606l2.504-.591c-7.512 1.772 7.37 8.835-.142 10.607zm-2.253.498c7.564-1.534-7.205-8.84.307-10.612l2.504-.59c-7.512 1.772 7.37 8.834-.142 10.606zm-2.102.427c7.564-1.535-7.089-9.063.475-10.597l2.349-.54c-7.512 1.772 7.261 9.091-.303 10.625zm-2.103.426c7.564-1.534-7.089-9.063.475-10.597l2.522-.511c-7.564 1.534 7.088 9.062-.476 10.597zm-2.103.427c7.564-1.535-7.088-9.063.476-10.597l2.521-.512c-7.564 1.534 7.089 9.063-.476 10.597zm-2.103.426c7.564-1.534-7.088-9.063.476-10.597l2.521-.511c-7.564 1.534 7.089 9.062-.475 10.597zm-2.25.397c7.603-1.329-6.941-9.033.623-10.567l2.522-.512c-7.565 1.534 7.088 9.063-.476 10.597zm-2.113.37c7.603-1.329-6.841-9.251.762-10.581l2.393-.441c-7.564 1.534 6.982 9.25-.621 10.579zm-2.114.369c7.603-1.329-6.84-9.251.763-10.58l2.534-.443c-7.603 1.329 6.841 9.251-.762 10.58zm-2.113.37c7.603-1.329-6.841-9.252.762-10.581l2.534-.443c-7.603 1.329 6.841 9.252-.762 10.581zm-2.235.377c7.632-1.149-6.719-9.259.883-10.588l2.535-.443c-7.603 1.329 6.841 9.251-.762 10.58zm-2.122.32c7.632-1.15-6.621-9.41 1.011-10.56l2.415-.422c-7.603 1.329 6.75 9.449-.882 10.599zm-2.121.32c7.632-1.15-6.622-9.41 1.011-10.56l2.423-.372c-7.603 1.329 6.742 9.399-.89 10.548zm-2.122.319c7.632-1.15-6.621-9.41 1.011-10.559l2.544-.384c-7.632 1.15 6.621 9.41-1.011 10.56zm-2.122.32c7.632-1.15-6.621-9.41 1.011-10.56l2.544-.383c-7.632 1.15 6.621 9.41-1.011 10.56zm-2.229.323c7.655-.991-6.513-9.413 1.119-10.563l2.544-.383c-7.632 1.149 6.621 9.409-1.011 10.559zm-2.127.276c7.654-.991-6.425-9.545 1.229-10.536l2.439-.367c-7.632 1.15 6.537 9.581-1.117 10.573zm-2.128.275c7.654-.991-6.425-9.545 1.23-10.536l2.444-.322c-7.632 1.15 6.532 9.537-1.123 10.528zm-2.128.276c7.654-.991-6.425-9.545 1.23-10.536l2.551-.331c-7.654.992 6.425 9.545-1.23 10.537zm-2.128.276c7.655-.992-6.424-9.546 1.23-10.537l2.551-.33c-7.654.991 6.425 9.545-1.229 10.536zm-2.222.285c7.671-.85-6.33-9.555 1.324-10.546l2.552-.331c-7.655.992 6.424 9.545-1.23 10.537zm-2.133.236c7.672-.849-6.325-9.515 1.329-10.507l2.552-.33c-7.655.991 6.424 9.545-1.23 10.536zm-2.132.237c7.671-.85-6.248-9.663 1.424-10.512l2.461-.286c-7.655.991 6.343 9.664-1.328 10.514zm-2.133.236c7.672-.85-6.247-9.662 1.424-10.512l2.557-.283c-7.671.849 6.248 9.662-1.424 10.511zm-2.132.236c7.671-.85-6.248-9.662 1.424-10.512l2.557-.283c-7.672.85 6.247 9.662-1.424 10.512zm-2.133.236c7.671-.85-6.247-9.662 1.424-10.512l2.557-.283c-7.671.85 6.248 9.662-1.424 10.512zm-2.22.223c7.685-.722-6.16-9.649 1.512-10.498l2.557-.284c-7.672.85 6.247 9.662-1.424 10.512zm-2.136.201c7.684-.722-6.086-9.765 1.598-10.487l2.474-.259c-7.671.849 6.174 9.783-1.511 10.505zm-2.136.201c7.684-.722-6.086-9.765 1.598-10.487l2.562-.241c-7.685.723 6.086 9.765-1.599 10.487zm-2.136.201c7.684-.723-6.086-9.765 1.598-10.487l2.562-.241c-7.685.722 6.086 9.765-1.599 10.487zm-2.137.2c7.685-.722-6.086-9.764 1.599-10.486l2.561-.241c-7.684.722 6.086 9.764-1.598 10.487zm-2.213.208c7.694-.606-6.009-9.771 1.676-10.494l2.561-.24c-7.684.722 6.086 9.764-1.598 10.486zm-2.139.168c7.694-.606-6.006-9.739 1.678-10.461l2.562-.241c-7.685.723 6.086 9.765-1.599 10.487zm-2.139.169c7.694-.606-5.938-9.856 1.756-10.462l2.487-.208c-7.685.722 6.016 9.862-1.678 10.468zm-2.139.168c7.694-.606-5.938-9.855 1.756-10.461l2.565-.202c-7.694.606 5.938 9.855-1.756 10.461zm-2.139.169c7.694-.606-5.938-9.856 1.756-10.462l2.565-.202c-7.694.606 5.938 9.856-1.756 10.462zm-2.139.168c7.694-.606-5.938-9.855 1.756-10.461l2.565-.202c-7.694.606 5.938 9.855-1.756 10.461zm-2.211.168c7.703-.5-5.866-9.855 1.828-10.461l2.565-.202c-7.694.606 5.938 9.856-1.756 10.462zm-2.141.139c7.702-.5-5.801-9.937 1.902-10.437l2.493-.196c-7.694.606 5.875 9.967-1.827 10.466zm-2.141.139c7.702-.5-5.801-9.937 1.901-10.437l2.496-.167c-7.694.606 5.873 9.937-1.829 10.437zm-2.141.138c7.702-.499-5.801-9.936 1.901-10.436l2.568-.166c-7.702.499 5.801 9.936-1.902 10.436zm-2.141.139c7.702-.499-5.801-9.936 1.901-10.436l2.568-.166c-7.703.499 5.801 9.936-1.902 10.436zm-2.141.139c7.702-.499-5.801-9.936 1.901-10.436l2.567-.167c-7.702.5 5.801 9.937-1.901 10.437zm-2.208.136c7.708-.401-5.734-9.934 1.968-10.433l2.567-.167c-7.702.5 5.801 9.937-1.901 10.436zm-2.142.111c7.708-.401-5.673-10.01 2.035-10.411l2.501-.161c-7.702.5 5.741 10.038-1.967 10.439zm-2.143.112c7.708-.401-5.673-10.01 2.035-10.411l2.503-.134c-7.702.5 5.739 10.01-1.969 10.411zm-2.143.111c7.708-.401-5.673-10.01 2.035-10.411l2.569-.133c-7.708.401 5.674 10.01-2.034 10.411zm-2.142.112c7.708-.401-5.674-10.01 2.034-10.411l2.57-.134c-7.708.401 5.673 10.01-2.035 10.411zm-2.143.111c7.708-.401-5.673-10.01 2.035-10.411l2.569-.133c-7.708.4 5.673 10.01-2.035 10.411zm-2.204.111c7.712-.309-5.612-10.009 2.096-10.41l2.569-.134c-7.708.401 5.673 10.01-2.035 10.411zm-2.144.085c7.712-.308-5.611-9.983 2.097-10.384l2.57-.134c-7.708.401 5.673 10.011-2.035 10.411zm-2.144.086c7.712-.309-5.553-10.077 2.159-10.386l2.509-.106c-7.708.401 5.615 10.081-2.098 10.389zm-2.144.086c7.712-.309-5.553-10.077 2.159-10.386l2.571-.103c-7.713.309 5.553 10.077-2.159 10.386zm-2.144.086c7.712-.309-5.553-10.077 2.159-10.386l2.571-.103c-7.712.309 5.553 10.077-2.159 10.386zm-2.144.086c7.712-.309-5.553-10.078 2.159-10.386l2.571-.103c-7.712.309 5.553 10.077-2.159 10.386zm-2.144.085c7.712-.308-5.553-10.077 2.159-10.385l2.571-.103c-7.712.308 5.553 10.077-2.159 10.386zm-2.202.066c7.715-.222-5.495-10.057 2.217-10.366l2.571-.103c-7.712.309 5.553 10.078-2.159 10.386zm-2.145.062c7.715-.222-5.44-10.139 2.276-10.361l2.513-.084c-7.712.309 5.498 10.149-2.217 10.371zm-2.145.061c7.715-.222-5.439-10.139 2.276-10.361l2.572-.074c-7.716.222 5.439 10.139-2.276 10.361zm-2.145.062c7.716-.222-5.439-10.139 2.276-10.361l2.572-.074c-7.715.222 5.439 10.139-2.276 10.361zm-2.144.062c7.715-.222-5.44-10.139 2.275-10.361l2.572-.074c-7.715.222 5.44 10.139-2.276 10.361zm-2.145.061c7.715-.221-5.439-10.139 2.276-10.361l2.571-.073c-7.715.221 5.44 10.139-2.275 10.36zm-2.2.05c7.717-.14-5.384-10.127 2.331-10.349l2.572-.074c-7.715.222 5.439 10.139-2.276 10.361zm-2.145.039c7.717-.14-5.331-10.197 2.386-10.336l2.517-.064c-7.715.222 5.386 10.214-2.331 10.353zm-2.146.039c7.718-.14-5.33-10.197 2.387-10.337l2.572-.046c-7.717.14 5.331 10.196-2.386 10.336zm-2.145.038c7.717-.139-5.331-10.196 2.386-10.336l2.573-.046c-7.717.139 5.331 10.196-2.386 10.336zm-2.145.039c7.717-.139-5.331-10.196 2.386-10.336l2.573-.046c-7.718.139 5.33 10.196-2.387 10.336zm-2.145.039c7.717-.14-5.331-10.197 2.386-10.336l2.572-.047c-7.717.14 5.331 10.197-2.386 10.336zm-2.224.034c7.719-.022-5.253-10.192 2.465-10.331l2.572-.047c-7.717.14 5.331 10.197-2.386 10.336zm-2.145.007c7.718-.023-5.253-10.16 2.464-10.299l2.573-.047c-7.717.14 5.331 10.196-2.387 10.336zm-2.146.006c7.718-.023-5.176-10.276 2.543-10.299l2.494-.014c-7.717.139 5.254 10.283-2.464 10.305zm-2.145.006c7.718-.022-5.176-10.276 2.542-10.298l2.573-.008c-7.718.023 5.176 10.276-2.543 10.299zm-2.146.007c7.718-.023-5.176-10.276 2.543-10.299l2.572-.008c-7.718.023 5.176 10.276-2.542 10.299zm-2.146.006c7.719-.023-5.175-10.276 2.543-10.299l2.573-.007c-7.719.022 5.175 10.276-2.543 10.298zm-2.145.006c7.718-.022-5.176-10.276 2.542-10.298l2.573-.008c-7.718.023 5.176 10.276-2.542 10.299zm-2.146.006c7.719-.022-5.175-10.276 2.543-10.298l2.573-.008c-7.719.023 5.175 10.276-2.543 10.299zm-2.145.007c7.718-.023-5.176-10.276 2.542-10.299l2.573-.007c-7.718.022 5.176 10.276-2.543 10.298zm-2.146.006c7.718-.023-5.176-10.276 2.543-10.299l2.572-.007c-7.718.023 5.176 10.276-2.542 10.299zm-2.146.006c7.719-.022-5.175-10.276 2.543-10.298l2.573-.008c-7.719.023 5.175 10.276-2.543 10.299zm-2.145.007c7.718-.023-5.176-10.276 2.542-10.299l2.573-.008c-7.718.023 5.176 10.276-2.542 10.299zm-2.146.006c7.719-.023-5.175-10.276 2.543-10.299l2.573-.007c-7.719.022 5.175 10.276-2.543 10.298zm-2.244.002c7.717.125-5.077-10.272 2.641-10.294l2.573-.008c-7.718.023 5.176 10.276-2.543 10.299zm-2.145-.035c7.717.125-5.078-10.23 2.641-10.253l2.572-.008c-7.718.023 5.176 10.276-2.542 10.299zm-2.146-.035c7.718.126-4.977-10.373 2.74-10.248l2.474.029c-7.718.022 5.076 10.386-2.641 10.261zm-2.145-.035c7.717.126-4.978-10.373 2.74-10.248l2.572.042c-7.717-.125 4.978 10.373-2.739 10.248zm-2.145-.034c7.717.125-4.978-10.374 2.739-10.248l2.573.041c-7.718-.125 4.978 10.374-2.74 10.248zm-2.145-.035c7.717.125-4.978-10.373 2.739-10.248l2.572.042c-7.717-.126 4.978 10.373-2.739 10.248zm-2.146-.035c7.718.125-4.978-10.373 2.74-10.248l2.572.042c-7.717-.126 4.978 10.373-2.739 10.248zm-2.145-.035c7.717.125-4.978-10.373 2.739-10.248l2.573.042c-7.718-.125 4.978 10.373-2.74 10.248zm-2.145-.035c7.717.126-4.978-10.373 2.739-10.248l2.572.042c-7.717-.125 4.978 10.373-2.739 10.248zm-2.146-.034c7.718.125-4.978-10.374 2.74-10.248l2.572.041c-7.717-.125 4.978 10.374-2.739 10.248zm-2.145-.035c7.717.125-4.978-10.374 2.739-10.248l2.573.041c-7.717-.125 4.978 10.374-2.74 10.248zm-2.145-.035c7.717.125-4.978-10.373 2.739-10.248l2.573.042c-7.718-.126 4.977 10.373-2.74 10.248zm-2.146-.035c7.718.125-4.978-10.373 2.74-10.248l2.572.042c-7.717-.125 4.978 10.373-2.739 10.248zm-2.145-.035c7.717.126-4.978-10.373 2.739-10.248l2.573.042c-7.717-.125 4.978 10.373-2.74 10.248zm-2.24-.071c7.714.268-4.883-10.337 2.834-10.212l2.573.042c-7.718-.125 4.977 10.373-2.74 10.248zm-2.144-.075c7.714.269-4.785-10.463 2.929-10.195l2.476.065c-7.717-.125 4.88 10.488-2.834 10.22zm-2.144-.074c7.713.268-4.785-10.464 2.928-10.196l2.572.09c-7.714-.269 4.784 10.463-2.929 10.195zm-2.145-.075c7.714.268-4.784-10.464 2.929-10.195l2.571.089c-7.713-.268 4.785 10.464-2.928 10.196zm-2.144-.074c7.714.268-4.785-10.464 2.929-10.196l2.571.09c-7.714-.269 4.785 10.463-2.929 10.195zm-2.144-.075c7.713.268-4.785-10.464 2.929-10.195l2.571.089c-7.714-.268 4.785 10.464-2.929 10.195zm-2.145-.075c7.714.269-4.784-10.463 2.929-10.195l2.572.089c-7.714-.268 4.784 10.464-2.929 10.196zm-2.144-.074c7.714.268-4.785-10.464 2.929-10.196l2.571.09c-7.713-.268 4.785 10.464-2.929 10.195zm-2.144-.075c7.713.269-4.785-10.463 2.929-10.195l2.571.089c-7.714-.268 4.785 10.464-2.929 10.196zm-2.145-.074c7.714.268-4.784-10.464 2.929-10.196l2.572.09c-7.714-.269 4.784 10.463-2.929 10.195zm-2.144-.075c7.714.268-4.785-10.464 2.929-10.195l2.571.089c-7.713-.268 4.785 10.464-2.929 10.196zm-2.144-.074c7.714.268-4.785-10.464 2.929-10.196l2.571.09c-7.714-.269 4.785 10.463-2.929 10.195zm-2.144-.075c7.713.268-4.785-10.464 2.928-10.195l2.572.089c-7.714-.268 4.784 10.464-2.929 10.195zm-2.239-.103c7.708.411-4.691-10.435 3.023-10.167l2.571.089c-7.713-.268 4.785 10.464-2.929 10.196zm-2.142-.114c7.707.411-4.591-10.551 3.117-10.14l2.475.102c-7.714-.268 4.684 10.586-3.023 10.175zm-2.143-.114c7.707.411-4.59-10.551 3.117-10.14l2.569.137c-7.707-.411 4.591 10.551-3.117 10.14zm-2.143-.115c7.708.411-4.59-10.55 3.118-10.139l2.569.137c-7.708-.411 4.59 10.55-3.117 10.139zm-2.142-.114c7.707.411-4.59-10.55 3.117-10.139l2.569.137c-7.707-.411 4.59 10.55-3.117 10.139zm-2.143-.114c7.708.411-4.59-10.551 3.117-10.14l2.57.137c-7.708-.411 4.59 10.551-3.118 10.14zm-2.142-.114c7.707.411-4.59-10.551 3.117-10.14l2.569.137c-7.707-.411 4.59 10.551-3.117 10.14zm-2.143-.115c7.708.411-4.59-10.55 3.117-10.139l2.57.137c-7.708-.411 4.59 10.55-3.118 10.139zm-2.142-.114c7.707.411-4.591-10.55 3.117-10.139l2.569.137c-7.707-.411 4.59 10.55-3.117 10.139zm-2.143-.114c7.708.411-4.59-10.551 3.117-10.14l2.569.137c-7.707-.411 4.591 10.551-3.117 10.14zm-2.142-.114c7.707.411-4.591-10.551 3.117-10.14l2.569.137c-7.708-.411 4.59 10.551-3.117 10.14zm-2.143-.115c7.707.411-4.59-10.55 3.117-10.139l2.569.137c-7.707-.411 4.591 10.55-3.117 10.139zm-2.143-.114c7.708.411-4.59-10.55 3.118-10.139l2.569.137c-7.708-.411 4.59 10.55-3.117 10.139zm-2.239-.14c7.698.559-4.493-10.525 3.214-10.114l2.569.137c-7.707-.411 4.59 10.551-3.117 10.14zm-2.14-.155c7.698.558-4.388-10.636 3.31-10.078l2.471.142c-7.708-.411 4.483 10.68-3.215 10.122zm-2.14-.155c7.698.558-4.388-10.636 3.31-10.078l2.566.186c-7.698-.558 4.388 10.636-3.31 10.078zm-2.14-.155c7.698.558-4.388-10.636 3.31-10.078l2.566.186c-7.698-.558 4.388 10.636-3.31 10.078zm-2.14-.155c7.698.558-4.388-10.637 3.31-10.078l2.566.186c-7.698-.559 4.388 10.636-3.31 10.078zm-2.14-.155c7.698.558-4.388-10.637 3.31-10.079l2.566.186c-7.698-.558 4.388 10.637-3.31 10.079zm-2.14-.156c7.698.559-4.388-10.636 3.31-10.078l2.566.186c-7.698-.558 4.388 10.637-3.31 10.078zm-2.14-.155c7.698.558-4.388-10.636 3.31-10.078l2.566.186c-7.698-.558 4.388 10.636-3.31 10.078zm-2.14-.155c7.698.558-4.388-10.636 3.31-10.078l2.566.186c-7.698-.558 4.388 10.636-3.31 10.078zm-2.14-.155c7.698.558-4.388-10.636 3.31-10.078l2.566.186c-7.698-.558 4.388 10.636-3.31 10.078zm-2.14-.155c7.698.558-4.388-10.637 3.31-10.078l2.566.186c-7.698-.558 4.388 10.636-3.31 10.078zm-2.14-.155c7.698.558-4.388-10.637 3.31-10.079l2.566.187c-7.698-.559 4.388 10.636-3.31 10.078zm-2.14-.156c7.698.559-4.388-10.636 3.31-10.078l2.567.186c-7.699-.558 4.387 10.637-3.31 10.078zm-2.216-.18c7.69.674-4.312-10.611 3.386-10.053l2.567.186c-7.699-.558 4.387 10.636-3.31 10.078zm-2.137-.188c7.689.675-4.227-10.701 3.462-10.027l2.488.193c-7.699-.558 4.302 10.733-3.387 10.059zm-2.138-.187c7.69.674-4.226-10.702 3.463-10.027l2.563.224c-7.69-.674 4.226 10.702-3.463 10.028zm-2.137-.188c7.689.675-4.227-10.701 3.462-10.027l2.563.225c-7.689-.674 4.227 10.701-3.462 10.027zm-2.137-.187c7.689.674-4.227-10.702 3.462-10.027l2.563.224c-7.69-.674 4.226 10.702-3.462 10.028zm-2.138-.188c7.69.675-4.226-10.701 3.462-10.027l2.563.225c-7.689-.674 4.227 10.702-3.462 10.027zm-2.191-.199c7.681.756-4.173-10.69 3.516-10.015l2.563.225c-7.689-.675 4.227 10.701-3.462 10.027zm-2.135-.211c7.68.757-4.113-10.745 3.568-9.989l2.509.222c-7.69-.674 4.164 10.776-3.517 10.02zm-2.136-.21c7.682.757-4.112-10.746 3.57-9.989l2.505.245c-7.689-.675 4.167 10.753-3.514 9.996zm-2.135-.21c7.681.756-4.112-10.746 3.569-9.99l2.56.252c-7.681-.756 4.113 10.746-3.568 9.99zm-2.135-.21c7.681.756-4.113-10.746 3.569-9.99l2.56.252c-7.681-.756 4.112 10.746-3.569 9.99zm-2.135-.21c7.68.756-4.113-10.746 3.568-9.99l2.56.252c-7.68-.756 4.113 10.746-3.568 9.99zm-2.193-.22c7.672.843-4.055-10.737 3.626-9.98l2.56.252c-7.68-.756 4.113 10.746-3.568 9.989zm-2.133-.234c7.672.843-4.058-10.713 3.624-9.957l2.56.253c-7.681-.757 4.113 10.745-3.569 9.989zm-2.133-.234c7.673.842-3.991-10.792 3.681-9.949l2.5.268c-7.68-.756 4.05 10.804-3.623 9.962zm-2.132-.234c7.672.842-3.992-10.792 3.68-9.949l2.558.281c-7.673-.843 3.991 10.791-3.681 9.948zm-2.133-.235c7.672.843-3.992-10.791 3.68-9.949l2.558.281c-7.672-.842 3.991 10.792-3.68 9.949zm-2.133-.234c7.672.843-3.992-10.791 3.68-9.949l2.558.281c-7.672-.842 3.992 10.792-3.68 9.949zm-2.194-.243c7.662.934-3.93-10.783 3.742-9.94l2.557.281c-7.672-.843 3.992 10.791-3.68 9.949zm-2.13-.26c7.662.934-3.933-10.757 3.74-9.914l2.557.281c-7.673-.843 3.991 10.791-3.681 9.949zm-2.13-.26c7.662.934-3.861-10.838 3.8-9.904l2.494.296c-7.673-.842 3.922 10.854-3.74 9.92zm-2.13-.26c7.662.935-3.861-10.838 3.8-9.904l2.554.312c-7.661-.935 3.862 10.838-3.8 9.904zm-2.13-.259c7.662.934-3.861-10.839 3.8-9.904l2.554.311c-7.661-.934 3.862 10.838-3.8 9.904zm-2.129-.26c7.662.934-3.862-10.839 3.8-9.904l2.554.311c-7.662-.934 3.862 10.839-3.8 9.904zm-2.195-.274c7.65 1.033-3.797-10.824 3.865-9.89l2.554.311c-7.662-.934 3.862 10.839-3.8 9.905zm-2.126-.287c7.649 1.033-3.722-10.887 3.927-9.854l2.488.303c-7.662-.935 3.783 10.928-3.866 9.895zm-2.126-.287c7.648 1.033-3.723-10.887 3.926-9.854l2.485.33c-7.662-.934 3.787 10.901-3.862 9.868zm-2.127-.287c7.65 1.033-3.722-10.887 3.927-9.854l2.55.344c-7.65-1.033 3.722 10.887-3.927 9.854zm-2.126-.287c7.649 1.033-3.722-10.888 3.927-9.855l2.55.345c-7.65-1.033 3.722 10.887-3.927 9.854zm-2.126-.287c7.649 1.032-3.723-10.888 3.926-9.855l2.55.345c-7.649-1.033 3.722 10.887-3.927 9.854zm-2.196-.312c7.634 1.14-3.653-10.863 3.996-9.83l2.55.344c-7.65-1.032 3.722 10.888-3.927 9.855zm-2.122-.317c7.634 1.14-3.57-10.938 4.064-9.798l2.477.342c-7.648-1.033 3.637 10.976-3.996 9.836zm-2.122-.317c7.634 1.14-3.57-10.938 4.064-9.798l2.545.38c-7.634-1.14 3.57 10.938-4.065 9.798zm-2.122-.316c7.634 1.139-3.57-10.939 4.064-9.799l2.545.38c-7.634-1.14 3.57 10.938-4.065 9.799zm-2.122-.317c7.633 1.139-3.57-10.938 4.064-9.799l2.545.38c-7.634-1.14 3.57 10.938-4.065 9.799zm-2.122-.317c7.633 1.14-3.57-10.938 4.064-9.799l2.544.38c-7.633-1.139 3.57 10.939-4.064 9.799zm-2.196-.36c7.616 1.257-3.496-10.895 4.138-9.755l2.544.38c-7.633-1.14 3.57 10.938-4.064 9.798zm-2.117-.349c7.616 1.256-3.4-10.992 4.215-9.735l2.462.392c-7.633-1.14 3.477 11.018-4.138 9.762zm-2.117-.35c7.616 1.257-3.4-10.991 4.215-9.735l2.538.419c-7.615-1.256 3.401 10.992-4.214 9.735zm-2.117-.349c7.616 1.257-3.4-10.992 4.215-9.735l2.538.419c-7.615-1.257 3.401 10.992-4.214 9.735zm-2.117-.349c7.616 1.256-3.4-10.992 4.215-9.735l2.538.419c-7.615-1.257 3.401 10.991-4.214 9.735zm-2.199-.387c7.593 1.386-3.319-10.954 4.297-9.698l2.538.419c-7.615-1.256 3.401 10.992-4.214 9.735zm-2.11-.385c7.592 1.386-3.214-11.048 4.379-9.662l2.45.419c-7.616-1.257 3.294 11.091-4.299 9.705zm-2.111-.386c7.593 1.387-3.214-11.048 4.379-9.661l2.53.462c-7.592-1.386 3.214 11.048-4.378 9.661zm-2.111-.385c7.593 1.386-3.214-11.048 4.38-9.662l2.53.462c-7.593-1.386 3.214 11.048-4.38 9.662zm-2.11-.385c7.592 1.386-3.215-11.048 4.378-9.662l2.531.462c-7.593-1.386 3.214 11.048-4.379 9.662zm-2.204-.425c7.565 1.531-3.121-11.009 4.472-9.622l2.53.462c-7.592-1.386 3.214 11.048-4.379 9.661zm-2.103-.425c7.565 1.531-3.002-11.107 4.563-9.577l2.432.456c-7.593-1.386 3.092 11.162-4.473 9.631zm-2.103-.426c7.565 1.531-3.002-11.107 4.563-9.576l2.522.51c-7.565-1.531 3.002 11.107-4.563 9.577zm-2.103-.425c7.565 1.531-3.002-11.108 4.563-9.577l2.522.511c-7.565-1.531 3.002 11.107-4.563 9.576zm-2.103-.426c7.565 1.531-3.002-11.107 4.563-9.576l2.522.51c-7.565-1.531 3.002 11.107-4.563 9.576zm-2.206-.478c7.53 1.695-2.899-11.055 4.666-9.524l2.522.51c-7.565-1.53 3.002 11.108-4.563 9.577zm-2.093-.471c7.53 1.695-2.76-11.17 4.77-9.475l2.408.507c-7.565-1.531 2.862 11.228-4.668 9.533zm-2.093-.471c7.53 1.695-2.76-11.17 4.77-9.475l2.51.565c-7.53-1.695 2.76 11.17-4.77 9.475zm-2.094-.471c7.53 1.695-2.76-11.17 4.77-9.475l2.51.565c-7.53-1.695 2.76 11.17-4.77 9.475zm-2.218-.502c7.485 1.883-2.635-11.139 4.895-9.444l2.51.565c-7.53-1.695 2.76 11.169-4.77 9.475zm-2.08-.523c7.484 1.882-2.648-11.087 4.882-9.392l2.51.564c-7.53-1.694 2.76 11.17-4.77 9.475zm-2.081-.524c7.485 1.883-2.48-11.235 5.005-9.352l2.374.577c-7.53-1.695 2.6 11.286-4.884 9.403zm-2.081-.523c7.485 1.883-2.48-11.235 5.005-9.353l2.495.628c-7.485-1.883 2.48 11.235-5.005 9.352zm-2.08-.524c7.484 1.883-2.48-11.235 5.004-9.352l2.495.628c-7.485-1.883 2.48 11.235-5.005 9.352zm-2.217-.602c7.427 2.101-2.344-11.156 5.14-9.273l2.496.627c-7.485-1.883 2.48 11.235-5.006 9.353zm-2.064-.584c7.427 2.101-2.15-11.303 5.277-9.202l2.342.617c-7.485-1.883 2.283 11.386-5.144 9.285zm-2.065-.584c7.427 2.101-2.15-11.303 5.277-9.202l2.476.7c-7.427-2.101 2.15 11.303-5.277 9.202zm-2.064-.584c7.427 2.101-2.15-11.303 5.277-9.202l2.475.7c-7.426-2.101 2.15 11.303-5.277 9.202zm-2.223-.679c7.348 2.359-1.991-11.208 5.435-9.107l2.476.7c-7.427-2.101 2.15 11.303-5.277 9.202zm-2.043-.655c7.348 2.358-1.755-11.371 5.594-9.012l2.295.676c-7.426-2.101 1.909 11.481-5.44 9.122zm-2.043-.656c7.349 2.359-1.755-11.371 5.594-9.012l2.45.786c-7.349-2.359 1.754 11.371-5.595 9.012zm-2.043-.656c7.349 2.359-1.754-11.37 5.594-9.012l2.45.786c-7.349-2.358 1.754 11.371-5.594 9.013zm-2.176-.757c7.273 2.584-1.621-11.269 5.728-8.91l2.45.786c-7.35-2.359 1.753 11.371-5.595 9.012zm-2.134-.762c7.21 2.753-1.29-11.377 5.982-8.792l2.286.774c-7.348-2.359 1.541 11.507-5.732 8.923zm-2.004-.766c7.21 2.754-1.308-11.329 5.964-8.745l2.425.862c-7.273-2.585 1.402 11.42-5.87 8.835zm-2.123-.833c7.136 2.941-1.017-11.382 6.193-8.628l2.297.859c-7.273-2.584 1.242 11.508-5.968 8.754zm-1.983-.818c7.135 2.941-.835-11.475 6.3-8.534l2.276.876c-7.21-2.754.938 11.58-6.198 8.638zm-2.104-.92c7.046 3.15-.715-11.373 6.42-8.432l2.255.929c-7.21-2.754.96 11.527-6.176 8.586zm-2.108-.961c6.938 3.382-.349-11.41 6.697-8.26l2.227.952c-7.136-2.941.62 11.593-6.426 8.443zm-1.928-.94c6.937 3.382-.116-11.505 6.821-8.123l2.194.977c-7.046-3.149.235 11.655-6.703 8.273zm-2.074-1.083c6.805 3.641.029-11.362 6.967-7.98l2.163 1.042c-7.046-3.15.265 11.59-6.672 8.208zm-2.069-1.152c6.641 3.932.496-11.361 7.3-7.72l2.12 1.079c-6.938-3.382-.17 11.636-6.975 7.995zm-2.059-1.238c6.437 4.259 1.029-11.331 7.67-7.399l2.066 1.119c-6.805-3.641-.668 11.668-7.31 7.736zm-1.789-1.183c6.436 4.258.972-11.241 7.613-7.309l2.02 1.2c-6.805-3.642-.622 11.587-7.263 7.654zm-1.97-1.445c6.179 4.624 1.569-11.16 8.005-6.901l1.945 1.255c-6.64-3.933-1.187 11.585-7.623 7.326zm-2.002-1.641c5.758 5.14 2.331-10.965 8.51-6.341l1.853 1.316c-6.436-4.258-1.84 11.546-8.019 6.922zm-1.853-1.779c5.314 5.597 3.268-10.753 9.025-5.613l1.68 1.307c-6.179-4.624-2.776 11.51-8.533 6.37zm-1.73-1.997c4.748 6.084 3.783-10.3 9.333-4.936l1.608 1.47c-5.941-4.926-3.211 11.293-8.76 5.928zm-1.54-2.247c4.033 6.58 5.168-9.831 9.915-3.747l1.265 1.355c-5.55-5.365-4.63 11.06-9.377 4.976zm-1.376-2.857c2.641 7.25 6.34-8.735 10.373-2.155l1.03 1.391c-5.047-5.838-5.77 10.565-9.803 3.986zm-.779-2.816c1.514 7.567 7.32-7.693 10.467-.647l.748 1.417c-4.41-6.333-6.994 9.826-10.142 2.78zm-.217-3.372c-.339 7.709 8.874-5.795 10.389 1.771l.47 1.344c-3.149-7.046-9.044 8.242-10.559.676zm.511-3.305c-2.121 7.419 10.087-3.526 9.749 4.183l.129.923c-2.095-7.427-10.747 6.334-10.408-1.375zm.966-2.701c-3.144 7.047 10.478-1.992 8.925 5.566l-.127 1.328c-.286-7.711-11.504 4.16-9.951-3.398zm1.314-2.456c-3.998 6.6 11.053-.008 7.909 7.039l-.384 1.402c1.553-7.559-12.157 1.452-9.013-5.595zm1.555-2.208c-4.688 6.13 11.024 1.305 7.025 7.905l-.69 1.414c2.653-7.247-12.11-.145-8.111-6.746zm1.712-1.985c-5.235 5.671 10.891 2.445 6.202 8.576l-.954 1.411c3.593-6.83-11.908-1.533-7.22-7.663zm1.811-1.796c-5.666 5.24 10.696 3.42 5.46 9.091l-1.328 1.62c4.688-6.13-11.468-2.93-6.233-8.601zm1.935-1.691c-6.079 4.755 10.405 4.296 4.739 9.536l-1.352 1.389c4.978-5.898-11.302-3.704-5.635-8.944zm1.69-1.322c-6.079 4.755 10.36 4.509 4.513 9.548l-1.63 1.473c5.464-5.451-10.935-4.229-5.089-9.268zm1.968-1.424c-6.333 4.411 10.114 5.038 4.035 9.792l-1.814 1.459c5.847-5.039-10.604-4.809-4.526-9.564zm1.927-1.316c-6.49 4.178 9.937 5.593 3.604 10.004l-1.832 1.367c6.078-4.754-10.382-5.4-4.05-9.811zm1.804-1.161c-6.49 4.177 9.896 5.869 3.406 10.046l-1.957 1.363c6.333-4.411-10.103-5.839-3.612-10.016zm1.804-1.161c-6.49 4.177 9.897 5.868 3.407 10.046l-2.001 1.298c6.333-4.411-10.06-5.774-3.57-9.952zm1.804-1.161c-6.49 4.177 9.897 5.868 3.407 10.045l-2.164 1.393c6.49-4.178-9.896-5.869-3.406-10.046zm1.804-1.162c-6.49 4.178 9.897 5.869 3.407 10.046l-2.163 1.393c6.49-4.178-9.897-5.869-3.407-10.046zm1.805-1.161c-6.49 4.177 9.896 5.868 3.406 10.046l-2.163 1.392c6.49-4.177-9.897-5.868-3.407-10.046zm1.926-1.214c-6.595 4.011 9.774 5.921 3.284 10.099l-2.163 1.392c6.49-4.177-9.897-5.868-3.407-10.046zm1.833-1.114c-6.595 4.01 9.744 6.118 3.15 10.129l-2.058 1.315c6.49-4.178-9.885-6.097-3.29-10.108zm1.833-1.115c-6.594 4.01 9.744 6.118 3.15 10.129l-2.087 1.269c6.49-4.178-9.856-6.051-3.261-10.061zm1.833-1.115c-6.594 4.01 9.744 6.118 3.15 10.129l-2.199 1.337c6.595-4.011-9.743-6.119-3.149-10.129zm1.833-1.115c-6.594 4.01 9.744 6.118 3.15 10.129l-2.198 1.337c6.594-4.011-9.744-6.119-3.15-10.129zm1.833-1.115c-6.594 4.011 9.744 6.118 3.15 10.129l-2.198 1.337c6.594-4.011-9.744-6.119-3.15-10.129zm1.988-1.14c-6.705 3.823 9.59 6.144 2.995 10.154l-2.198 1.337c6.594-4.011-9.744-6.118-3.15-10.129zm1.864-1.062c-6.705 3.822 9.567 6.391 2.862 10.214l-2.096 1.224c6.594-4.01-9.706-6.341-3.001-10.164zm1.863-1.063c-6.705 3.823 9.567 6.391 2.863 10.214l-2.235 1.274c6.704-3.822-9.568-6.391-2.863-10.214zm1.864-1.063c-6.705 3.823 9.567 6.392 2.862 10.214l-2.235 1.275c6.705-3.823-9.567-6.392-2.862-10.214zm1.864-1.062c-6.705 3.822 9.567 6.391 2.862 10.214l-2.235 1.274c6.705-3.823-9.567-6.391-2.862-10.214zm2.035-1.087c-6.821 3.611 9.396 6.415 2.691 10.238l-2.235 1.274c6.705-3.822-9.567-6.391-2.862-10.214zm1.897-1.003c-6.822 3.61 9.361 6.688 2.54 10.299l-2.117 1.154c6.705-3.823-9.519-6.639-2.697-10.25zm1.896-1.004c-6.822 3.611 9.362 6.688 2.54 10.299l-2.274 1.203c6.822-3.61-9.361-6.688-2.54-10.298zm1.896-1.004c-6.821 3.611 9.362 6.689 2.54 10.299l-2.273 1.204c6.821-3.611-9.362-6.689-2.54-10.299zm2.022-1.05c-6.913 3.433 9.236 6.735 2.415 10.346l-2.274 1.203c6.821-3.611-9.362-6.688-2.54-10.299zm1.922-.954c-6.913 3.433 9.186 6.928 2.273 10.361l-2.158 1.138c6.822-3.61-9.332-6.922-2.42-10.355zm2.008-.992c-6.974 3.305 9.1 6.966 2.187 10.399l-2.183 1.089c6.821-3.611-9.308-6.873-2.395-10.306zm1.94-.919c-6.975 3.305 9.081 6.93 2.168 10.363l-2.304 1.145c6.913-3.433-9.186-6.929-2.273-10.362zm2.029-.96c-7.038 3.17 8.966 7.137 1.992 10.442l-2.235 1.071c6.913-3.433-9.147-7.065-2.173-10.37zm1.956-.881c-7.037 3.169 8.95 7.099 1.974 10.405l-2.324 1.101c6.974-3.305-9.058-7.096-2.083-10.401zm2.053-.923c-7.1 3.025 8.821 7.311 1.784 10.481l-2.249 1.029c6.975-3.305-9.015-7.242-1.977-10.412zm1.974-.841c-7.1 3.025 8.804 7.271 1.766 10.441l-2.345 1.057c7.037-3.17-8.918-7.27-1.881-10.44zm2.077-.88c-7.164 2.872 8.664 7.489 1.564 10.515l-2.264.981c7.037-3.169-8.87-7.423-1.77-10.449zm1.992-.799c-7.164 2.873 8.646 7.447 1.546 10.472l-2.367 1.009c7.1-3.026-8.768-7.45-1.667-10.476zm2.104-.829c-7.227 2.709 8.493 7.668 1.329 10.54l-2.28.929c7.1-3.026-8.714-7.608-1.55-10.481zm2.009-.753c-7.227 2.709 8.43 7.829 1.204 10.539l-2.28.913c7.163-2.872-8.56-7.84-1.333-10.549zm2.132-.773c-7.29 2.537 8.308 7.849 1.08 10.559l-2.297.868c7.164-2.873-8.542-7.795-1.315-10.504zm2.027-.705c-7.29 2.537 8.242 8.028.952 10.565l-2.298.849c7.227-2.71-8.374-8.031-1.084-10.568zm2.161-.707c-7.35 2.355 8.107 8.03.818 10.567l-2.43.845c7.29-2.537-8.242-8.028-.953-10.565zm2.175-.686c-7.41 2.161 7.907 8.263.557 10.617l-2.318.776c7.29-2.537-8.171-8.222-.82-10.576zm2.06-.6c-7.41 2.16 7.89 8.209.54 10.563l-2.45.785c7.35-2.354-8.039-8.232-.689-10.586zm2.205-.605c-7.466 1.956 7.675 8.444.265 10.604l-2.337.694c7.35-2.354-7.953-8.413-.544-10.574zm2.22-.574c-7.52 1.741 7.441 8.681-.025 10.637l-2.34.661c7.41-2.161-7.735-8.66-.269-10.616zm2.09-.484c-7.519 1.741 7.427 8.621-.04 10.577l-2.488.652c7.466-1.956-7.586-8.65-.12-10.607zm2.25-.476c-7.568 1.515 7.175 8.857-.344 10.598l-2.359.564c7.466-1.957-7.482-8.849.037-10.59zm2.265-.432c-7.612 1.278 6.904 9.092-.664 10.607l-2.362.519c7.52-1.741-7.226-9.095.342-10.61zm2.115-.356c-7.611 1.279 6.78 9.296-.832 10.575l-2.366.472c7.568-1.516-6.95-9.342.661-10.62zm2.29-.316c-7.648 1.032 6.606 9.257-1.006 10.536l-2.378.405c7.568-1.515-6.938-9.275.673-10.554zm2.303-.26c-7.679.777 6.3 9.484-1.35 10.516l-2.38.35c7.611-1.278-6.645-9.516 1.004-10.548zm2.314-.198c-7.701.512 5.975 9.704-1.704 10.48l-2.383.291c7.649-1.032-6.33-9.753 1.348-10.53Zm2.323-.132c-7.715.24 5.634 9.917-2.067 10.428l-2.385.227c7.679-.776-5.999-9.983 1.702-10.495zm2.33-.061c-7.719-.038 5.277 10.12-2.438 10.36l-2.386.158c7.701-.512-5.648-10.204 2.067-10.444Zm2.145.01c-7.718-.038 5.276 10.043-2.438 10.283l-2.39.083c7.701-.512-5.644-10.129 2.07-10.369Zm2.331.093c-7.711-.32 4.91 10.233-2.809 10.196l-2.387.007c7.714-.239-5.28-10.336 2.438-10.298Zm2.328.172c-7.694-.602 4.531 10.411-3.18 10.092l-2.384-.071c7.718.038-4.902-10.53 2.81-10.211zm2.321.256c-7.666-.886 4.144 10.573-3.55 9.97l-2.378-.152c7.711.319-4.513-10.71 3.182-10.107zm2.31.34c-7.63-1.168 3.752 10.72-3.915 9.834l-2.371-.237c7.695.603-4.115-10.872 3.552-9.986zm2.294.424c-7.582-1.444 3.357 10.851-4.272 9.683l-2.362-.322c7.667.886-3.711-11.017 3.918-9.85zm2.272.508c-7.525-1.713 2.965 10.965-4.617 9.521l-2.35-.41c7.63 1.167-3.307-11.143 4.275-9.699zm2.413.642c-7.392-2.222 2.412 11.011-5.113 9.298l-2.337-.499c7.582 1.444-2.905-11.249 4.62-9.535zm2.208.68c-7.316-2.459 2.045 11.082-5.417 9.108l-2.32-.585c7.525 1.713-2.51-11.337 4.951-9.363zm2.175.752c-7.239-2.679 1.69 11.14-5.7 8.918l-2.305-.671c7.462 1.973-2.124-11.406 5.267-9.184zm2.197.856c-7.12-2.976 1.07 11.325-6.17 8.647l-2.137-.708c7.392 2.222-1.53-11.622 5.71-8.944zm1.98.828c-7.121-2.976.778 11.478-6.342 8.502l-2.063-.773c7.316 2.458-1.09-11.697 6.03-8.721zm2.175.993c-6.97-3.314.583 11.312-6.538 8.336l-2.373-.992c7.12 2.976-.78-11.478 6.341-8.502zm2.11 1.01c-6.84-3.574.056 11.414-6.914 8.1l-2.128-.938c7.12 2.976-.424-11.669 6.546-8.355zm1.902.994c-6.84-3.575.092 11.341-6.879 8.028l-2.323-1.105c6.97 3.314-.229-11.503 6.742-8.189zm2.011 1.078c-6.743-3.755-.315 11.419-7.156 7.845l-2.12-1.079c6.97 3.314.046-11.617 6.886-8.042zm1.875 1.044c-6.744-3.755-.512 11.494-7.255 7.739l-2.154-1.136c6.84 3.574.418-11.61 7.16-7.855zm1.931 1.106c-6.683-3.86-.568 11.432-7.311 7.677l-2.128-1.187c6.84 3.575.391-11.56 7.134-7.804zm1.858 1.074c-6.683-3.861-.691 11.485-7.375 7.624l-2.168-1.229c6.744 3.755.632-11.543 7.316-7.682zm1.858 1.073c-6.683-3.861-.691 11.485-7.375 7.624l-2.228-1.286c6.684 3.86.692-11.486 7.375-7.625zm1.82 1.036c-6.721-3.794-.653 11.522-7.337 7.662l-2.228-1.287c6.684 3.86.692-11.485 7.375-7.625zm1.76.989c-6.812-3.627-.468 11.557-7.19 7.763l-2.277-1.304c6.684 3.86.614-11.452 7.335-7.658zm1.894 1.009c-6.812-3.628-.494 11.602-7.215 7.809l-2.24-1.265c6.72 3.794.576-11.491 7.298-7.698zm1.74.878c-6.947-3.364-.14 11.632-6.953 8.005l-2.374-1.284c6.721 3.793.398-11.427 7.21-7.8zm1.689.821c-7.111-2.999.386 11.618-6.56 8.254l-2.46-1.271c6.813 3.627 0-11.354 6.946-7.99zm1.976.834c-7.11-2.999.341 11.72-6.605 8.356l-2.315-1.122c6.946 3.364-.145-11.504 6.8-8.14zm1.772.695c-7.245-2.661.947 11.619-6.164 8.62l-2.597-1.146c6.946 3.364-.515-11.334 6.596-8.335zm1.672.567c-7.42-2.121 1.623 11.607-5.622 8.945l-2.607-1.058c7.11 2.999-1.09-11.263 6.156-8.601zm1.866.517c-7.5-1.818 2.047 11.59-5.287 9.187l-2.602-.906c7.245 2.662-1.53-11.276 5.805-8.873zm1.88.416c-7.573-1.494 2.783 11.302-4.718 9.484l-2.855-.846c7.334 2.403-2.223-10.972 5.278-9.155zm1.89.313c-7.631-1.156 3.27 11.195-4.303 9.7l-2.919-.696c7.42 2.12-2.66-10.894 4.912-9.399zm1.66.18c-7.706-.447 4.006 11.086-3.624 9.93l-2.758-.492c7.572 1.494-3.332-10.838 4.299-9.682zm2.141.124c-7.705-.446 4.274 10.897-3.402 10.092l-2.786-.349c7.631 1.155-3.816-10.691 3.86-9.885zm87.886 38.487c.681-7.688-10.705 4.216-10.024-3.471l.227-2.563c-.681 7.688 10.706-4.217 10.024 3.471zm-.19 2.137c.682-7.688-10.705 4.217-10.023-3.471l.227-2.563c-.682 7.688 10.705-4.216 10.023 3.472zm-.235 2.296c.924-7.663-10.659 4.058-9.978-3.63l.227-2.563c-.681 7.688 10.706-4.216 10.024 3.472zm-.257 2.13c.924-7.663-10.832 3.877-9.908-3.786l.225-2.4c-.682 7.688 10.915-4.031 9.991 3.631zm-.321 2.329c1.23-7.62-10.767 3.678-9.844-3.985l.308-2.554c-.924 7.662 10.832-3.877 9.909 3.786zm-.409 2.297c1.507-7.57-10.912 3.261-9.682-4.359l.298-2.347c-.923 7.662 11.091-3.632 9.861 3.987zm-.514 2.327c1.857-7.49-11.002 2.814-9.495-4.756l.395-2.351c-1.23 7.619 11.205-3.209 9.698 4.361zm-.672 2.337c2.271-7.376-11.07 2.264-9.213-5.227l.474-2.285c-1.507 7.57 11.37-2.73 9.514 4.761zm-.999 2.603c3.174-7.034-10.981 1.336-8.71-6.039l.599-2.206c-1.857 7.491 11.507-2.142 9.235 5.234zm-1.047 2.182c3.547-6.855-11 .725-8.284-6.499l.747-2.131c-2.271 7.376 11.6-1.471 8.884 5.752zm-1.489 2.428c4.449-6.306-11.001-.681-7.454-7.536l.809-1.791c-2.716 7.224 11.877-.335 8.331 6.519zm-1.634 2.099c5.059-5.828-10.815-1.669-6.672-8.181l1.048-1.833c-3.546 6.854 11.777.846 7.634 7.357zm-1.878 1.918c5.642-5.266-10.672-3.157-5.613-8.986l1.049-1.473c-4.143 6.512 11.781 2.391 6.722 8.219zm-2.23 1.775c6.31-4.442-10.121-4.323-4.479-9.589l1.196-1.302c-4.755 6.078 11.467 3.559 5.826 8.825zm-2.514 1.525c6.92-3.413-9.369-5.742-3.059-10.184l1.21-1.033c-5.355 5.557 11.022 5.004 4.712 9.446zm-2.361 1.039c7.184-2.814-8.8-6.335-2.166-10.276l1.503-.97c-5.961 4.902 10.387 5.873 3.753 9.815zm-2.864.819c7.546-1.613-7.675-7.74-.491-10.554l1.556-.759c-6.633 3.941 9.381 7.524 2.197 10.338zm-2.782.439c7.693-.615-6.497-8.978 1.049-10.591l1.64-.558c-7.184 2.814 8.057 9.008.51 10.62zm-2.428.133c7.716-.185-5.924-9.319 1.716-10.407l1.791-.324c-7.4 2.188 7.301 9.421-.339 10.51zm-2.641-.069c7.697.561-4.894-10.043 2.822-10.228l1.958-.171c-7.64 1.089 6.004 10.273-1.712 10.458zm-2.384-.243c7.66.937-4.139-10.551 3.559-9.989l2.074-.006c-7.716.185 4.874 10.831-2.823 10.269zm-2.612-.467c7.53 1.689-3.375-10.633 4.285-9.695l2.075.173c-7.715-.206 4.336 10.978-3.324 10.041zm-2.299-.571c7.45 2.015-2.562-11.066 4.968-9.377l2.04.305c-7.66-.938 3.238 11.426-4.293 9.736zm-2.414-.753c7.28 2.565-1.937-11.084 5.513-9.069l2.05.473c-7.602-1.33 2.713 11.476-4.737 9.46zm-2.223-.835c7.158 2.886-1.491-11.096 5.874-8.79l2.274.667c-7.45-2.015 2.016 11.46-5.349 9.154zm-2.224-.914c7.003 3.243-.688-11.356 6.469-8.47l2.037.722c-7.365-2.307 1.272 11.708-5.886 8.821zm-1.947-.902c7.003 3.244-.731-11.257 6.426-8.37l2.386.962c-7.157-2.887.923 11.467-6.234 8.581zm-2.154-1.077c6.827 3.599-.135-11.324 6.867-8.08l2.11.946c-7.158-2.886.568 11.634-6.435 8.39zm-2.231-1.303c6.496 4.168.58-11.2 7.407-7.601l2.079 1.003c-7.003-3.244-.05 11.699-6.877 8.1zm-1.806-1.158c6.496 4.167.904-11.296 7.556-7.384l2.035 1.14c-6.827-3.599-.599 11.643-7.252 7.73zm-1.926-1.303c6.347 4.391 1.346-11.296 7.842-7.129l2.008 1.265c-6.652-3.913-1.068 11.565-7.564 7.397zm-1.954-1.401c6.117 4.706 1.815-11.21 8.161-6.818l1.995 1.321c-6.497-4.167-1.504 11.533-7.85 7.141zm-1.7-1.308c6.116 4.706 2.196-11.293 8.313-6.587l1.899 1.32c-6.346-4.392-2.057 11.541-8.173 6.836zm-1.97-1.676c5.691 5.213 2.466-10.925 8.583-6.219l1.835 1.407c-6.346-4.392-1.993 11.454-8.11 6.748zm-1.704-1.625c5.474 5.441 2.94-10.798 8.824-5.803l1.801 1.469c-6.117-4.705-2.576 11.371-8.46 6.376zm-1.522-1.512c5.474 5.44 3.605-10.926 9.079-5.486l1.593 1.471c-5.884-4.994-3.373 11.269-8.847 5.828zm-1.647-1.707c5.229 5.677 3.73-10.731 9.204-5.291l1.825 1.813c-5.475-5.44-3.605 10.926-9.079 5.486zm-1.453-1.578c5.229 5.677 4.082-10.756 9.311-5.08l1.649 1.668c-5.474-5.44-3.988 10.981-9.218 5.304zm-1.581-1.796c4.95 5.922 4.209-10.538 9.438-4.862l1.743 1.892c-5.229-5.676-4.082 10.757-9.311 5.08zm-1.376-1.646c4.95 5.922 4.595-10.547 9.545-4.626l1.559 1.724c-5.229-5.676-4.504 10.797-9.454 4.876zm-1.498-1.881c4.644 6.164 4.717-10.312 9.667-4.391l1.65 1.974c-4.95-5.921-4.595 10.547-9.545 4.626zm-1.291-1.714c4.644 6.164 5.123-10.301 9.767-4.137l1.465 1.788c-4.95-5.921-5.04 10.568-9.684 4.404zm-1.404-1.956c4.322 6.394 5.236-10.059 9.88-3.894l1.548 2.054c-4.644-6.164-5.123 10.301-9.767 4.137zm-1.34-2.007c3.983 6.61 5.781-9.796 10.104-3.402l1.373 1.856c-4.644-6.164-5.576 10.3-9.898 3.907zm-1.108-1.837c3.984 6.61 5.688-9.736 10.01-3.343l1.441 2.131c-4.323-6.393-5.643 10.026-9.966 3.633zm-1.174-2.114c3.627 6.812 6.225-9.442 10.208-2.832l1.215 1.957c-4.322-6.393-6.045 9.964-10.028 3.354zm-1.1-2.155c3.26 6.996 6.757-9.116 10.384-2.304l1.145 1.993c-3.984-6.61-6.601 9.655-10.228 2.843zm-.905-1.945c3.259 6.996 7.155-9.009 10.414-2.013l1.075 2.031c-3.627-6.812-7.144 9.31-10.403 2.314zm-.918-2.177c2.96 7.127 7.167-8.776 10.426-1.781l.973 2.082c-3.627-6.812-7.042 9.259-10.301 2.264zm-.823-1.982c2.96 7.128 7.53-8.698 10.49-1.57l.94 2.159c-3.26-6.996-7.483 8.915-10.443 1.787zm-.827-2.177c2.703 7.229 7.535-8.503 10.495-1.375l.987 2.376c-2.96-7.128-7.531 8.699-10.491 1.571zm-.75-2.196c2.456 7.317 7.835-8.238 10.539-1.009l.87 2.225c-2.96-7.128-7.806 8.609-10.51 1.38zm-.671-2.296c2.102 7.426 8.107-7.89 10.563-.573l.796 2.26c-2.703-7.229-8.097 8.331-10.552 1.014zm-.62-2.359c1.674 7.534 8.535-7.458 10.637-.032l.682 2.222c-2.456-7.316-8.481 8.006-10.583.58zm-.465-2.094c1.674 7.534 8.93-7.254 10.603.279l.615 2.193c-2.102-7.425-8.986 7.573-10.66.039zm-.428-2.406c1.234 7.618 8.892-6.943 10.566.591l.496 2.223c-2.102-7.425-8.867 7.542-10.541.009zm-.355-2.346c.896 7.666 9.347-6.495 10.581 1.123l.432 2.231c-1.673-7.534-9.356 7.032-10.59-.586zm-.236-2.288c.664 7.689 9.613-6.147 10.508 1.519l.377 2.314c-1.233-7.618-9.704 6.545-10.599-1.121zm-.152-2.297c.43 7.706 9.778-5.852 10.442 1.837l.252 2.175c-1.233-7.618-9.84 6.4-10.505-1.289zm-.06-2.467c-.054 7.718 9.93-5.385 10.359 2.321l.18 2.409c-.664-7.69-10.026 5.869-10.455-1.837zm.042-2.311c-.302 7.712 10.06-5.068 10.25 2.648l.09 2.411c-.428-7.707-10.188 5.557-10.378-2.159zm.134-2.31c-.556 7.698 10.435-4.572 10.133 3.141l-.007 2.244c-.19-7.716-10.579 5.064-10.276-2.648zm.25-2.482c-1.076 7.643 10.539-4.049 9.983 3.649l-.11 2.235c.055-7.718-10.71 4.722-10.154-2.976zm.346-2.299c-1.343 7.6 10.633-3.691 9.82 3.984l-.214 2.39c.556-7.698-10.834 4.2-10.02-3.475zm.443-2.284c-1.61 7.548 10.96-3.105 9.616 4.495l-.285 2.197c.814-7.675-11.192 3.613-9.848-3.988zm.534-2.248c-1.851 7.493 11.051-2.737 9.442 4.812l-.395 2.175c1.076-7.642-11.28 3.227-9.67-4.321zm.651-2.262c-2.152 7.412 11.088-2.348 9.237 5.145l-.535 2.347c1.61-7.549-11.307 2.678-9.456-4.815zm.677-2.205c-2.384 7.341 11.239-1.926 9.086 5.486l-.628 2.278c1.85-7.492-11.407 2.263-9.254-5.149zm.749-2.198c-2.635 7.254 11.291-1.557 8.907 5.784l-.69 2.31c2.154-7.411-11.482 1.851-9.098-5.49zm.846-2.226c-2.966 7.125 11.315-1.113 8.68 6.141l-.751 2.275c2.384-7.34-11.556 1.465-8.921-5.788zm1.074-2.36c-3.574 6.84 11.228-.416 8.262 6.709l-.802 2.193c2.635-7.254-11.664.977-8.698-6.148zm.993-1.901c-3.574 6.839 11.286-.184 8.052 6.824l-.853 1.963c2.635-7.254-11.725.732-8.49-6.275zm1.21-2.09c-3.928 6.643 11.286.394 7.712 7.234l-1.05 2.068c3.235-7.008-11.643.006-8.07-6.834Zm1.233-1.982c-4.17 6.495 11.335.942 7.407 7.586l-1.126 2.008c3.574-6.84-11.66-.601-7.732-7.245zm1.297-1.95c-4.414 6.331 11.302 1.373 7.132 7.868l-1.24 2.036c3.928-6.644-11.59-1.1-7.42-7.595Zm1.406-1.935c-4.713 6.11 11.205 1.84 6.791 8.171l-1.295 1.992c4.169-6.495-11.56-1.546-7.146-7.877Zm1.485-1.86c-4.987 5.89 11.116 2.371 6.403 8.483l-1.341 1.899c4.414-6.331-11.521-2.073-6.808-8.184zm1.555-1.785c-5.237 5.669 11.009 2.87 6.022 8.76l-1.288 1.647c4.414-6.331-11.552-2.406-6.565-8.296zm1.62-1.712c-5.466 5.449 10.886 3.34 5.649 9.01l-1.372 1.609c4.714-6.111-11.424-2.924-6.186-8.593zm1.68-1.64c-5.677 5.23 10.749 3.782 5.283 9.23l-1.45 1.571c4.987-5.89-11.281-3.41-5.815-8.859Zm1.733-1.57c-5.87 5.01 10.602 4.199 4.925 9.428l-1.523 1.529c5.237-5.669-11.126-3.868-5.45-9.098zm1.784-1.503c-6.048 4.795 10.396 4.248 4.719 9.477l-1.736 1.613c5.466-5.448-10.913-3.952-5.236-9.181zm1.872-1.463c-6.256 4.518 10.203 4.664 4.333 9.675l-1.8 1.555c5.676-5.23-10.751-4.369-4.882-9.38zm1.74-1.256c-6.257 4.518 10.176 4.919 4.128 9.714l-1.86 1.495c5.87-5.012-10.581-4.763-4.534-9.558zm2.018-1.352c-6.496 4.166 9.917 5.425 3.66 9.943l-1.885 1.389c6.048-4.796-10.396-5.212-4.14-9.73zm2.076-1.293c-6.729 3.778 9.615 6.02 3.119 10.186l-1.881 1.3c6.256-4.518-10.17-5.796-3.674-9.962zm1.871-1.05c-6.729 3.778 9.55 5.911 3.054 10.077l-2.165 1.39c6.496-4.167-9.886-5.885-3.39-10.051zm2.119-1.102c-6.901 3.456 9.275 6.504 2.546 10.282l-1.97 1.128c6.496-4.166-9.797-6.321-3.068-10.1zm2.3-1.035c-7.135 2.942 8.827 6.97 1.926 10.427l-2.052 1.1c6.729-3.78-9.457-6.845-2.556-10.301zm2.165-.849c-7.234 2.69 8.498 7.584 1.362 10.526l-1.983.941c6.901-3.456-9.074-7.513-1.939-10.455zm2.157-.754c-7.305 2.493 8.263 7.859 1.029 10.549l-2.027.825c7.014-3.221-8.794-7.781-1.559-10.471zm2.15-.72c-7.361 2.32 8.074 8.105.769 10.598l-2.29.82c7.234-2.69-8.338-8.067-1.033-10.56zm2.234-.683c-7.442 2.044 7.812 8.309.45 10.628l-2.319.79c7.305-2.492-8.133-8.287-.772-10.606zm2.258-.604c-7.513 1.764 7.6 8.269.239 10.587l-2.335.743c7.304-2.493-8.118-8.24-.757-10.558zm2.28-.524c-7.574 1.48 7.287 8.552-.155 10.596l-2.294.643c7.362-2.318-7.874-8.522-.432-10.566zm2.299-.44c-7.626 1.192 6.96 8.825-.553 10.589l-2.313.56c7.442-2.044-7.553-8.814-.04-10.578zm2.314-.357c-7.666.9 6.622 9.088-.953 10.567l-2.33.477c7.513-1.765-7.218-9.096.357-10.576zm2.13-.25c-7.665.9 6.468 9.316-1.157 10.508l-2.345.391c7.575-1.48-6.87-9.366.756-10.558zm2.334-.192c-7.694.609 6.109 9.56-1.556 10.461l-2.357.305c7.625-1.192-6.51-9.624 1.155-10.525zm2.339-.105c-7.711.315 5.741 9.79-1.953 10.398l-2.366.218c7.665-.901-6.14-9.868 1.554-10.477zm2.331-.025c-7.718.038 5.374 10.01-2.338 10.324l-2.372.132c7.694-.608-5.759-10.099 1.952-10.414zm2.318.035c-7.715-.223 5.022 10.221-2.696 10.258l-2.386.049c7.711-.315-5.381-10.302 2.337-10.34zm2.317.093c-7.702-.484 4.674 10.405-3.041 10.182l-2.399-.015c7.718-.037-5.019-10.495 2.696-10.272zm2.318.15c-7.682-.747 4.314 10.577-3.389 10.094l-2.397-.075c7.715.223-4.661-10.68 3.042-10.196zm2.135.209c-7.681-.748 4.321 10.503-3.382 10.02l-2.395-.148c7.715.223-4.663-10.607 3.039-10.123zm2.326.292c-7.647-1.043 3.934 10.656-3.748 9.908l-2.387-.208c7.703.484-4.298-10.782 3.384-10.034zm2.339.34c-7.596-1.368 3.493 10.842-4.154 9.798l-2.358-.271c7.681.748-3.898-10.968 3.749-9.925zm2.112.38c-7.596-1.368 3.507 10.752-4.14 9.709l-2.549-.348c7.647 1.043-3.707-10.892 3.94-9.848zm2.32.478c-7.529-1.697 3.031 10.942-4.565 9.574l-2.319-.401c7.647 1.043-3.453-11.095 4.143-9.727zm2.093.472c-7.529-1.697 2.756 11.17-4.773 9.473l-2.305-.447c7.596 1.368-2.961-11.29 4.568-9.592zm2.294.622c-7.444-2.035 2.555 11.02-4.974 9.323l-2.51-.566c7.529 1.697-2.756-11.17 4.773-9.473zm2.258.658c-7.357-2.332 2.062 11.19-5.383 9.155l-2.266-.584c7.529 1.697-2.466-11.377 4.979-9.342zm2.045.649c-7.357-2.333 1.795 11.364-5.562 9.032l-2.278-.638c7.445 2.035-1.969-11.504 5.388-9.172zm2.198.78c-7.267-2.598 1.643 11.232-5.715 8.9l-2.452-.777c7.357 2.332-1.795-11.365 5.562-9.032zm2.171.821c-7.175-2.844 1.23 11.323-6.037 8.725l-2.256-.775c7.357 2.332-1.547-11.513 5.72-8.915zm1.994.79c-7.174-2.844.991 11.464-6.184 8.619l-2.249-.828c7.267 2.599-1.133-11.583 6.042-8.738zm2.154.918c-7.061-3.115.831 11.336-6.343 8.492l-2.392-.948c7.175 2.844-.99-11.463 6.184-8.619zm2.081.99c-6.962-3.332.435 11.368-6.626 8.253l-2.196-.909c7.175 2.845-.711-11.622 6.351-8.506zm45.624 75.089c6.636-3.942-9.696-5.786-3.256-10.039l2.147-1.417c-6.44 4.253 9.964 5.751 3.524 10.004zm-2.087 1.14c6.807-3.637-9.436-6.264-2.801-10.205l1.989-1.209c-6.44 4.253 9.902 6.114 3.267 10.056zm-2.11 1.065c6.955-3.344-9.17-6.706-2.363-10.343l2.039-1.146c-6.635 3.942 9.618 6.585 2.811 10.222zm-2.116.99c7.075-3.083-8.914-7.105-1.958-10.449l2.088-1.085c-6.807 3.637 9.326 7.015 2.371 10.359zm-2.229.94c7.229-2.703-8.566-7.46-1.491-10.544l2.147-1.03c-6.956 3.343 9.04 7.38 1.964 10.464zm-2.284.833c7.368-2.296-8.249-7.436-1.174-10.519l2.18-.959c-6.956 3.344 9.007 7.308 1.932 10.392zm-2.249.656c7.451-2.012-7.908-7.821-.68-10.524l2.147-.822c-7.076 3.084 8.685 7.756 1.457 10.459zm-2.451.566c7.576-1.469-7.27-8.6.181-10.612l1.99-.628c-7.228 2.703 8.144 8.551.693 10.563zm-2.288.4c7.623-1.208-6.951-8.81.569-10.547l2.312-.576c-7.451 2.012 7.524 8.866.004 10.603zm-2.473.297c7.687-.694-6.339-9.319 1.284-10.527l2.174-.413c-7.52 1.737 7.06 9.368-.563 10.577zm-2.311.163c7.706-.438-5.875-9.756 1.811-10.45l2.206-.307c-7.623 1.208 6.406 9.862-1.281 10.556zm-2.677.018c7.71.36-5.185-9.88 2.521-10.317l2.221-.182c-7.66.95 6.067 10.019-1.639 10.456zm-2.378-.13c7.684.715-4.717-10.083 3-10.152l2.325-.059c-7.706.437 5.483 10.28-2.234 10.348zm-2.324-.236c7.654.998-4.243-10.353 3.466-9.993l2.285.073c-7.717.069 4.944 10.566-2.765 10.206zm-2.304-.327c7.613 1.268-3.594-10.821 4.059-9.822l2.138.176c-7.709-.36 4.184 11.026-3.469 10.028zm-2.275-.408c7.568 1.513-3.225-10.941 4.388-9.673l2.182.278c-7.684-.715 3.739 11.142-3.874 9.873zm-2.231-.475c7.527 1.712-2.9-11.046 4.668-9.533l2.193.371c-7.653-.998 3.357 11.234-4.211 9.72zm-2.092-.475c7.526 1.711-2.735-11.176 4.791-9.465l2.225.46c-7.613-1.268 3.019 11.287-4.507 9.575zm-2.083-.472c7.529 1.698-2.744-11.18 4.782-9.469l2.509.571c-7.526-1.712 2.735 11.176-4.791 9.464zm-2.093-.472c7.529 1.698-2.755-11.171 4.774-9.473l2.518.571c-7.526-1.712 2.747 11.166-4.783 9.468zm-1.957-.394c7.575 1.479-2.891-11.249 4.638-9.551l2.509.566c-7.529-1.698 2.756 11.171-4.774 9.473zm-1.944-.319c7.621 1.22-3.24-11.179 4.335-9.699l2.663.561c-7.529-1.698 2.94 11.018-4.635 9.539zm-2.046-.296c7.639 1.103-3.527-11.017 4.094-9.797l2.707.476c-7.575-1.48 3.288 10.905-4.333 9.685zm-2.123-.307c7.639 1.104-3.622-10.921 4.017-9.818l2.622.395c-7.621-1.22 3.546 10.894-4.093 9.791zm-2.124-.306c7.639 1.103-3.622-10.921 4.018-9.818l2.546.368c-7.639-1.104 3.622 10.921-4.017 9.817zm-2.123-.307c7.639 1.103-3.622-10.921 4.017-9.818l2.546.368c-7.639-1.103 3.622 10.921-4.017 9.818zm-2.124-.307c7.639 1.103-3.622-10.921 4.017-9.818l2.547.368c-7.639-1.103 3.622 10.921-4.018 9.818zm-2.188-.339c7.623 1.205-3.557-10.889 4.082-9.785l2.546.367c-7.639-1.103 3.622 10.922-4.017 9.818zm-2.12-.335c7.624 1.205-3.475-10.969 4.149-9.764l2.476.375c-7.64-1.103 3.54 10.996-4.083 9.79zm-2.119-.336c7.624 1.206-3.475-10.968 4.149-9.763l2.541.402c-7.624-1.205 3.475 10.969-4.149 9.763zm-2.119-.335c7.624 1.206-3.475-10.968 4.148-9.763l2.542.402c-7.624-1.205 3.475 10.969-4.149 9.763zm-2.204-.364c7.602 1.336-3.391-10.939 4.233-9.734l2.541.402c-7.623-1.205 3.475 10.968-4.148 9.763zm-2.113-.372c7.602 1.336-3.287-11.026 4.315-9.69l2.453.395c-7.624-1.206 3.367 11.077-4.234 9.741zm-2.113-.371c7.601 1.336-3.287-11.027 4.315-9.69l2.534.445c-7.602-1.336 3.286 11.026-4.316 9.69zm-2.114-.371c7.602 1.336-3.286-11.027 4.316-9.691l2.534.446c-7.602-1.337 3.286 11.026-4.316 9.69zm-2.218-.425c7.571 1.503-3.181-10.973 4.421-9.637l2.533.445c-7.601-1.336 3.287 11.027-4.315 9.691zm-2.104-.417c7.57 1.502-3.044-11.096 4.526-9.594l2.419.448c-7.602-1.336 3.149 11.149-4.422 9.646zm-2.105-.418c7.571 1.502-3.044-11.096 4.527-9.593l2.523.5c-7.57-1.502 3.044 11.096-4.526 9.594zm-2.236-.48c7.526 1.711-2.912-11.033 4.658-9.531l2.524.501c-7.571-1.503 3.044 11.096-4.527 9.593zm-2.093-.475c7.527 1.711-2.736-11.176 4.79-9.465l2.38.492c-7.57-1.502 2.865 11.254-4.661 9.543zm-2.092-.476c7.526 1.711-2.736-11.175 4.79-9.464l2.509.57c-7.526-1.711 2.736 11.175-4.79 9.465zm-2.245-.581c7.464 1.963-2.583-11.07 4.943-9.359l2.509.57c-7.527-1.71 2.736 11.176-4.79 9.465zm-2.075-.546c7.464 1.964-2.357-11.261 5.107-9.298l2.327.58c-7.526-1.711 2.518 11.336-4.946 9.373zm-2.252-.655c7.381 2.253-2.18-11.152 5.284-9.188l2.488.654c-7.464-1.964 2.358 11.261-5.106 9.298zm-2.052-.627c7.381 2.254-1.917-11.344 5.465-9.091l2.284.638c-7.464-1.963 2.093 11.458-5.289 9.204zm-2.233-.755c7.283 2.555-1.736-11.216 5.646-8.962l2.461.751c-7.382-2.254 1.916 11.344-5.466 9.091zm-2.203-.78c7.183 2.825-1.269-11.344 6.013-8.789l2.245.731c-7.382-2.253 1.631 11.535-5.652 8.979zm-1.996-.786c7.182 2.825-1.298-11.268 5.985-8.713l2.427.852c-7.282-2.556 1.448 11.413-5.834 8.858zm-2.111-.86c7.107 3.011-.908-11.385 6.275-8.56l2.224.848c-7.283-2.555 1.192 11.554-5.991 8.729zm-1.976-.836c7.107 3.01-.724-11.483 6.383-8.473l2.265.905c-7.182-2.825.828 11.581-6.279 8.571zm-1.997-.858c7.091 3.048-.702-11.462 6.405-8.452l2.369 1.004c-7.107-3.011.724 11.483-6.383 8.472zm-1.971-.848c7.091 3.049-.661-11.487 6.429-8.438l2.34 1.001c-7.107-3.011.685 11.502-6.405 8.453zm-1.971-.847c7.091 3.048-.662-11.487 6.429-8.438l2.364 1.016c-7.091-3.049.661 11.487-6.429 8.438zm-1.871-.767c7.161 2.878-.762-11.568 6.329-8.519l2.363 1.016c-7.09-3.048.662 11.487-6.428 8.438zm-1.991-.801c7.161 2.879-.936-11.467 6.225-8.588l2.487 1.039c-7.09-3.049.836 11.388-6.325 8.509zm-1.879-.706c7.236 2.685-1.048-11.562 6.114-8.683l2.387.96c-7.161-2.879.936 11.467-6.226 8.589zm-2.011-.746c7.236 2.685-1.244-11.438 5.992-8.753l2.529.976c-7.161-2.879 1.127 11.357-6.109 8.672zm-1.886-.66c7.31 2.477-1.37-11.525 5.866-8.84l2.412.895c-7.236-2.685 1.244 11.438-5.992 8.753zm-2.032-.688c7.31 2.476-1.571-11.398 5.739-8.922l2.56.919c-7.236-2.685 1.447 11.305-5.863 8.828zm-1.901-.641c7.375 2.277-1.702-11.446 5.608-8.969l2.436.826c-7.31-2.477 1.571 11.397-5.739 8.921zm-2.05-.633c7.375 2.277-1.684-11.501 5.626-9.025l2.436.826c-7.31-2.477 1.571 11.398-5.739 8.921zm-2.05-.633c7.375 2.277-1.88-11.351 5.494-9.074l2.586.819c-7.31-2.476 1.753 11.291-5.622 9.014zm-2.05-.633c7.375 2.277-1.88-11.351 5.494-9.074l2.458.759c-7.374-2.277 1.881 11.351-5.494 9.074z" class="stroke-orange fill-orange stroke-foreground fill-foreground" style="display:inline;fill:#ff851b;stroke:#111;stroke-width:.254;stroke-linecap:square;stroke-linejoin:round;stroke-dasharray:none;stroke-opacity:1" transform="translate(102.965 -54.993)"/>
</svg>
