<svg xmlns="http://www.w3.org/2000/svg" xml:space="preserve" viewBox="0 0 488.231 131.82">
  <path d="M69.982 125.814c7.708-.396-5.51-10.229 2.207-10.379l2.753.014c-7.717-.121 5.163 10.125-2.553 10.275Zm-1.992.148c7.694-.618-5.817-10.052 1.89-10.447l2.736-.088c-7.717.15 5.5 9.969-2.207 10.365Zm-1.937.22c7.664-.91-6.154-9.895 1.54-10.513l2.715-.176c-7.709.396 5.802 9.817-1.892 10.434Zm-2.13.253c7.663-.91-6.323-9.613 1.341-10.522l2.754-.278c-7.693.618 6.123 9.587-1.54 10.496Zm-1.903.304c7.619-1.234-6.55-9.664 1.114-10.573l2.555-.304c-7.664.91 6.322 9.613-1.342 10.522Zm-2.117.344c7.618-1.235-6.726-9.335.893-10.57l2.762-.398c-7.664.91 6.503 9.321-1.116 10.556Zm-1.932.376c7.572-1.497-6.912-9.368.707-10.603l2.54-.411c-7.62 1.235 6.725 9.335-.894 10.569Zm-2.105.416c7.572-1.496-7.043-9.097.528-10.594l2.705-.493c-7.618 1.235 6.863 9.092-.709 10.588Zm-1.956.432c7.528-1.706-7.192-9.113.38-10.61l2.523-.499c-7.571 1.497 7.044 9.098-.528 10.595Zm-2.092.474c7.527-1.706-7.293-8.899.234-10.605l2.656-.562c-7.571 1.497 7.146 8.892-.381 10.598Zm-1.931.473c7.471-1.935-7.455-8.898.073-10.604l2.509-.569c-7.528 1.706 7.293 8.9-.235 10.606Zm-2.078.538c7.472-1.935-7.56-8.672-.089-10.607l2.656-.629c-7.527 1.706 7.396 8.656-.076 10.591Zm-2.077.538c7.472-1.935-7.56-8.673-.089-10.607l2.49-.645c-7.47 1.934 7.562 8.672.09 10.607Zm-2.077.538c7.472-1.935-7.56-8.673-.089-10.608l2.49-.644c-7.47 1.934 7.562 8.672.09 10.607Zm-2.077.537c7.472-1.934-7.56-8.672-.089-10.607l2.49-.645c-7.47 1.935 7.562 8.673.09 10.608Zm-1.938.553c7.42-2.123-7.7-8.687-.228-10.622l2.49-.645c-7.47 1.935 7.562 8.673.09 10.607Zm-2.063.59c7.42-2.123-7.777-8.48-.357-10.602l2.606-.717c-7.472 1.935 7.645 8.489.224 10.611Zm-2.063.59c7.42-2.123-7.777-8.48-.357-10.602l2.474-.708c-7.42 2.123 7.777 8.48.356 10.602Zm-2.063.59c7.42-2.123-7.777-8.479-.357-10.602l2.474-.708c-7.42 2.123 7.777 8.48.357 10.602Zm-2.012.576c7.398-2.198-7.828-8.465-.407-10.588l2.473-.708c-7.42 2.123 7.777 8.48.357 10.602Zm-2.057.611c7.399-2.198-7.834-8.486-.413-10.609l2.473-.708c-7.42 2.123 7.778 8.48.357 10.602Zm-2.057.611c7.399-2.198-7.863-8.4-.465-10.598l2.52-.739c-7.421 2.122 7.81 8.406.411 10.604Zm-2.057.611c7.4-2.198-7.863-8.4-.464-10.598l2.466-.733c-7.399 2.198 7.863 8.4.465 10.598Zm-2.056.611c7.398-2.198-7.864-8.4-.465-10.598l2.466-.733c-7.399 2.198 7.864 8.4.465 10.598Zm-2.057.611c7.399-2.198-7.864-8.4-.465-10.598l2.467-.733c-7.4 2.198 7.863 8.4.464 10.598Zm-2.072.61c7.405-2.178-7.848-8.399-.45-10.597l2.467-.733c-7.4 2.199 7.863 8.4.464 10.598Zm-2.059.605c7.405-2.178-7.84-8.421-.435-10.599l2.454-.725c-7.399 2.199 7.855 8.421.45 10.598Zm-2.058.606c7.405-2.178-7.84-8.422-.435-10.599l2.468-.726c-7.405 2.177 7.84 8.421.435 10.599Zm-2.058.605c7.404-2.178-7.84-8.421-.436-10.599l2.468-.726c-7.404 2.178 7.84 8.421.436 10.599Zm-2.059.605c7.405-2.177-7.84-8.421-.435-10.599l2.468-.726c-7.405 2.178 7.84 8.422.435 10.599Zm-2.138.606c7.437-2.068-7.76-8.422-.356-10.599l2.468-.726c-7.404 2.177 7.84 8.421.436 10.599Zm-2.067.575c7.436-2.068-7.714-8.537-.278-10.605l2.4-.69c-7.406 2.178 7.793 8.538.357 10.605Zm-2.067.574c7.436-2.067-7.714-8.536-.278-10.604l2.478-.689c-7.436 2.068 7.715 8.536.279 10.604Zm-2.067.575c7.436-2.068-7.715-8.536-.278-10.604l2.478-.689c-7.436 2.068 7.715 8.536.279 10.604Zm-2.067.575c7.436-2.068-7.715-8.536-.279-10.604l2.48-.689c-7.437 2.067 7.714 8.536.277 10.604Zm-2.164.585c7.474-1.929-7.618-8.546-.182-10.614l2.479-.69c-7.436 2.068 7.714 8.537.278 10.605Zm-2.077.537c7.473-1.929-7.555-8.679-.081-10.608l2.388-.658c-7.436 2.068 7.657 8.694.184 10.623Zm-2.078.536c7.474-1.929-7.554-8.679-.08-10.608l2.398-.619c-7.437 2.068 7.647 8.655.173 10.584Zm-2.167.532c7.505-1.805-7.465-8.675.009-10.604l2.491-.643c-7.474 1.929 7.554 8.679.08 10.608Zm-2.086.501c7.505-1.804-7.409-8.803.096-10.607l2.412-.604c-7.473 1.928 7.498 8.806-.006 10.61Zm-2.187.522c7.54-1.654-7.308-8.823.197-10.627l2.501-.602c-7.504 1.804 7.409 8.803-.095 10.608Zm-2.095.46c7.539-1.654-7.299-8.782.205-10.586l2.502-.601c-7.504 1.804 7.409 8.803-.096 10.607Zm-2.096.46c7.539-1.654-7.232-8.949.307-10.603l2.41-.543c-7.505 1.805 7.335 8.94-.204 10.595Zm-2.218.463c7.575-1.476-7.11-8.952.43-10.606l2.512-.552c-7.539 1.654 7.232 8.949-.307 10.603Zm-2.106.411c7.575-1.477-7.02-9.116.556-10.593l2.397-.516c-7.54 1.654 7.147 9.14-.428 10.617Zm-2.106.41c7.575-1.476-7.02-9.116.556-10.593l2.525-.492c-7.576 1.477 7.02 9.116-.556 10.593Zm-2.253.39c7.613-1.27-6.873-9.095.703-10.572l2.525-.492c-7.576 1.476 7.02 9.116-.556 10.593Zm-2.116.353c7.613-1.27-6.768-9.305.845-10.574l2.393-.433c-7.575 1.477 6.913 9.314-.7 10.583Zm-2.278.362c7.649-1.029-6.607-9.314 1.006-10.584l2.538-.423c-7.613 1.27 6.768 9.305-.845 10.574Zm-2.127.287c7.65-1.03-6.472-9.512 1.177-10.542l2.378-.399c-7.613 1.27 6.644 9.568-1.005 10.597Zm-2.126.286c7.65-1.03-6.473-9.512 1.176-10.542l2.389-.332c-7.614 1.27 6.634 9.501-1.015 10.531Zm-2.315.259c7.68-.756-6.284-9.485 1.365-10.515l2.55-.343c-7.65 1.03 6.472 9.512-1.177 10.542Zm-2.135.209c7.68-.755-6.128-9.737 1.553-10.493l2.37-.288c-7.649 1.03 6.318 9.774-1.363 10.53Zm-2.345.217c7.705-.443-5.918-9.744 1.763-10.5l2.56-.251c-7.68.755 6.128 9.737-1.553 10.493Zm-2.142.123c7.705-.443-5.911-9.657 1.77-10.413l2.56-.251c-7.681.755 6.128 9.737-1.553 10.493Zm-2.142.123c7.705-.443-5.726-9.979 1.979-10.421l2.358-.156c-7.681.755 5.937 9.987-1.768 10.429Zm-2.317.085c7.716-.182-5.551-9.941 2.154-10.383l2.568-.148c-7.705.443 5.727 9.979-1.978 10.421Zm-2.27.032c7.718.006-5.262-10.148 2.454-10.33l2.396-.11c-7.705.443 5.563 10.216-2.153 10.398Zm-2.278-.012c7.715.204-5.006-10.284 2.712-10.279l2.447-.049c-7.716.182 5.264 10.346-2.454 10.34Zm-2.145-.057c7.715.204-5.007-10.229 2.712-10.223l2.447.002c-7.716.182 5.263 10.294-2.455 10.289Zm-2.283-.118c7.708.414-4.733-10.362 2.982-10.158l2.44.053c-7.718-.005 5.003 10.438-2.712 10.234Zm-2.286-.171c7.692.635-4.442-10.496 3.265-10.082l2.43.106c-7.715-.204 4.725 10.584-2.982 10.17Zm-2.29-.227c7.67.867-4.13-10.629 3.562-9.994l2.42.162c-7.708-.414 4.425 10.729-3.267 10.094Zm-2.291-.288c7.638 1.111-3.797-10.758 3.872-9.89l2.407.219c-7.692-.635 4.106 10.874-3.564 10.007Zm-2.29-.349c7.596 1.365-3.444-10.884 4.194-9.773l2.392.28c-7.669-.868 3.764 11.015-3.873 9.904Zm-2.289-.416c7.544 1.63-3.278-10.777 4.36-9.666l2.384.348c-7.67-.868 3.772 10.947-3.866 9.836Zm-2.097-.453c7.544 1.63-3.082-10.929 4.514-9.564l2.365.413c-7.637-1.111 3.411 11.081-4.185 9.716Zm-2.264-.562c7.479 1.905-2.689-11.037 4.855-9.407l2.344.481c-7.596-1.366 3.027 11.208-4.517 9.578Zm-2.253-.636c7.401 2.187-2.273-11.135 5.206-9.231l2.32.55c-7.544-1.63 2.62 11.327-4.86 9.423Zm-2.237-.713c7.309 2.477-1.838-11.222 5.563-9.035l2.294.622c-7.48-1.904 2.191 11.434-5.21 9.247Zm-2.218-.793c7.202 2.774-1.383-11.294 5.926-8.816l2.265.695c-7.402-2.187 1.74 11.529-5.569 9.051Zm-2.194-.874c7.078 3.075-.91-11.35 6.292-8.575l2.233.77c-7.31-2.478 1.27 11.607-5.933 8.832Zm-2.167-.955c6.94 3.378-.42-11.388 6.658-8.313l2.002.774c-7.31-2.478.977 11.74-6.102 8.664Zm-1.929-.94c6.94 3.379-.459-11.303 6.62-8.228l2.164.93c-7.202-2.774.814 11.584-6.264 8.509Zm-2.09-1.122c6.782 3.682.04-11.321 6.979-7.943l2.123 1.007c-7.08-3.075.311 11.624-6.628 8.245ZM155.658 125.5c-.83 7.673 10.784-4.009 9.954 3.664l-.277 2.558c.831-7.673-10.784 4.008-9.954-3.665Zm.316-2.295c-1.084 7.641 10.699-3.847 9.869 3.826l-.277 2.558c.83-7.673-10.784 4.008-9.954-3.665Zm.355-2.243c-1.27 7.613 10.859-3.53 9.774 4.112l-.306 2.382c.83-7.673-10.967 3.813-9.883-3.828Zm.4-2.245c-1.469 7.578 10.951-3.253 9.681 4.36l-.367 2.42c1.085-7.642-11.054 3.499-9.784-4.114Zm.447-2.246c-1.682 7.533 11.043-2.953 9.574 4.624l-.411 2.404c1.271-7.613-11.16 3.215-9.692-4.362Zm.467-2.094c-1.681 7.533 10.984-2.965 9.516 4.612l-.49 2.526c1.469-7.578-11.082 3.093-9.613-4.485Zm.56-2.232c-1.908 7.479 11.072-2.642 9.391 4.891l-.517 2.372c1.469-7.577-11.208 2.919-9.527-4.614Zm.619-2.229c-2.152 7.412 11.156-2.29 9.247 5.188l-.568 2.349c1.681-7.533-11.312 2.585-9.403-4.894Zm.659-2.181c-2.343 7.354 11.257-1.951 9.105 5.461l-.623 2.322c1.909-7.479-11.412 2.22-9.26-5.192Zm.708-2.19c-2.564 7.28 11.311-1.632 8.968 5.721l-.69 2.34c2.152-7.412-11.459 1.89-9.115-5.464Zm.713-2.023c-2.564 7.279 11.25-1.654 8.906 5.7l-.781 2.451c2.344-7.353-11.367 1.778-9.024-5.576Zm.866-2.21c-2.885 7.158 11.263-1.247 8.698 6.032l-.787 2.285c2.343-7.354-11.483 1.575-8.919-5.704Zm.947-2.182c-3.206 7.021 11.323-.733 8.437 6.425l-.828 2.192c2.565-7.279-11.601 1.119-8.716-6.039Zm1.022-2.138c-3.511 6.873 11.368-.218 8.161 6.802l-.905 2.157c2.885-7.158-11.662.588-8.455-6.432Zm1.092-2.095c-3.798 6.719 11.388.283 7.878 7.156l-.987 2.13c3.207-7.02-11.688.062-8.177-6.81Zm1.056-1.868c-3.798 6.719 11.308.24 7.798 7.113l-1.071 2.089c3.206-7.02-11.604.104-8.094-6.77Zm1.235-2.006c-4.069 6.559 11.311.723 7.513 7.442l-1.145 2.058c3.511-6.873-11.611-.403-7.813-7.122Zm1.295-1.96c-4.325 6.393 11.293 1.19 7.224 7.749l-1.216 2.025c3.798-6.72-11.597-.893-7.528-7.45Zm1.351-1.912c-4.567 6.222 11.257 1.641 6.932 8.034l-1.284 1.99c4.069-6.558-11.564-1.365-7.239-7.757Zm1.406-1.867c-4.795 6.048 11.204 2.078 6.637 8.3l-1.35 1.954c4.325-6.392-11.512-1.82-6.946-8.043Zm1.44-1.801c-4.982 5.895 11.153 2.482 6.358 8.53l-1.414 1.916c4.567-6.222-11.445-2.262-6.65-8.31Zm1.385-1.639c-4.982 5.895 11.101 2.44 6.306 8.487l-1.477 1.868c4.567-6.222-11.382-2.213-6.587-8.261Zm1.515-1.714c-5.143 5.755 11.051 2.788 6.069 8.683l-1.543 1.853c4.795-6.048-11.299-2.6-6.317-8.495Zm1.561-1.69c-5.315 5.595 10.97 3.11 5.828 8.866l-1.596 1.833c4.982-5.895-11.221-2.935-6.078-8.69Zm1.611-1.666c-5.499 5.416 10.872 3.466 5.557 9.062l-1.625 1.788c5.143-5.755-11.152-3.28-5.837-8.875Zm1.528-1.506c-5.498 5.416 10.887 3.722 5.389 9.137l-1.655 1.74c5.316-5.595-11.065-3.656-5.566-9.071Zm1.717-1.58c-5.693 5.212 10.699 3.796 5.2 9.212l-1.705 1.69c5.315-5.596-11.015-3.606-5.516-9.022Zm1.774-1.54c-5.895 4.981 10.552 4.207 4.86 9.419l-1.738 1.633c5.499-5.416-10.904-4.011-5.211-9.223Zm1.834-1.497c-6.105 4.722 10.376 4.65 4.482 9.632l-1.771 1.572c5.692-5.212-10.766-4.45-4.872-9.432Zm1.897-1.447c-6.319 4.43 10.166 5.125 4.061 9.848l-1.803 1.507c5.895-4.982-10.598-4.924-4.493-9.647Zm1.756-1.232c-6.318 4.431 10.107 5.044 4.002 9.767l-1.861 1.435c5.895-4.982-10.54-4.852-4.435-9.575Zm1.958-1.286c-6.484 4.186 9.92 5.525 3.601 9.956L192.854 78c6.105-4.722-10.332-5.352-4.013-9.783Zm1.803-1.164c-6.485 4.186 9.904 5.855 3.42 10.04l-1.972 1.325c6.319-4.431-10.094-5.784-3.61-9.97Zm1.997-1.238c-6.646 3.925 9.709 5.929 3.225 10.115l-2.161 1.395c6.484-4.186-9.904-5.854-3.42-10.04Zm2.058-1.178c-6.811 3.63 9.453 6.331 2.807 10.256l-1.999 1.269c6.484-4.186-9.879-6.205-3.234-10.13Zm2.125-1.112c-6.982 3.289 9.148 6.765 2.336 10.394l-2.021 1.191c6.645-3.925-9.628-6.643-2.817-10.272Zm1.941-.915c-6.982 3.29 9.1 6.672 2.289 10.3l-2.068 1.11c6.645-3.926-9.582-6.562-2.771-10.19Zm2.147-.976c-7.113 2.997 8.833 7.178 1.852 10.467l-2.087 1.01c6.811-3.629-9.28-7.03-2.299-10.319Zm2.154-.87c-7.212 2.747 8.56 7.523 1.448 10.52l-2.137 1c6.982-3.29-8.972-7.487-1.859-10.484Zm2.215-.792c-7.317 2.455 8.262 7.812 1.05 10.56l-2.013.837c6.982-3.289-8.863-7.706-1.651-10.454Zm2.175-.704c-7.382 2.255 8.011 8.14.694 10.595l-2.218.82c7.212-2.747-8.373-8.12-1.056-10.576Zm2.174-.647c-7.433 2.077 7.806 8.359.424 10.614l-2.309.764c7.317-2.456-8.079-8.351-.698-10.606Zm2.255-.586c-7.503 1.81 7.537 8.534.104 10.612l-2.344.713c7.382-2.255-7.859-8.547-.426-10.624Zm2.276-.488c-7.562 1.543 7.225 8.781-.278 10.592l-2.186.594c7.382-2.255-7.73-8.787-.228-10.598Zm2.478-.402c-7.652 1.002 6.723 9.028-.839 10.57l-2.332.524c7.503-1.81-7.288-9.063.274-10.606Zm2.314-.268c-7.683.728 6.392 9.227-1.22 10.5l-2.352.424c7.562-1.543-6.958-9.3.654-10.573Zm2.325-.166c-7.704.449 5.904 9.724-1.78 10.452l-2.186.285c7.612-1.273-6.468-9.803 1.216-10.53Zm2.516-.059c-7.717-.106 5.362 9.907-2.343 10.357l-2.378.194c7.683-.728-5.926-10.018 1.779-10.468Zm2.334.06c-7.708-.391 4.995 10.064-2.721 10.232l-2.382.09c7.705-.45-5.557-10.211 2.159-10.379Zm2.351.165c-7.685-.708 4.409 10.48-3.299 10.09l-2.2-.014c7.716-.167-4.987-10.654 2.721-10.263Zm2.364.29c-7.644-1.06 3.952 10.626-3.733 9.918l-2.167-.125c7.717.107-4.575-10.83 3.111-10.122Zm2.652.5c-7.485-1.877 3.155 10.695-4.49 9.634l-2.321-.255c7.686.708-3.908-10.998 3.736-9.937Zm2.38.64c-7.354-2.338 2.564 10.768-5.016 9.318l-2.277-.383c7.645 1.061-3.369-11.174 4.211-9.724Zm2.353.828c-7.178-2.833 1.476 11.187-5.878 8.849l-1.911-.44c7.58 1.45-2.325-11.705 5.029-9.366Zm2.244.98c-7-3.253.76 11.266-6.418 8.434l-1.809-.587c7.486 1.877-1.593-11.817 5.585-8.984Zm2.328 1.247c-6.653-3.912-.053 11.157-7.052 7.905l-2.092-.875c7.178 2.833-.571-11.71 6.428-8.458Zm2.034 1.28c-6.447-4.242-.965 11.286-7.618 7.374l-1.855-.93c6.999 3.253.418-11.853 7.071-7.94Zm2.296 1.733c-5.78-5.113-1.86 10.87-8.307 6.629l-1.761-1.071c6.837 3.58.968-11.767 7.415-7.526Zm1.871 1.69c-5.392-5.522-2.736 10.716-8.798 5.94l-1.737-1.236c6.447 4.241 2.043-11.624 8.105-6.848Zm1.729 1.822c-4.982-5.893-3.35 10.445-9.13 5.333l-1.733-1.48c6.063 4.776 2.77-11.34 8.55-6.227Zm1.582 1.941c-4.559-6.226-4.082 10.175-9.473 4.654l-1.559-1.545c5.78 5.112 3.53-11.165 8.921-5.643Zm1.396 2.037c-4.156-6.502-5.392 9.923-9.951 3.697l-1.216-1.386c5.391 5.522 4.959-10.919 9.518-4.692Zm1.345 2.334c-3.439-6.909-6.09 9.35-10.245 2.847l-1.101-1.53c4.982 5.893 5.615-10.513 9.771-4.01Zm1.048 2.207c-3.032-7.096-6.565 8.961-10.346 2.233l-1.177-1.952c4.155 6.502 6.366-9.817 10.147-3.09Zm.888 2.317c-2.561-7.28-7.485 8.43-10.517 1.334l-.926-1.79c3.781 6.728 7.355-9.35 10.388-2.254Zm.747 2.622c-1.724-7.523-8.034 7.67-10.595.39l-.725-1.794c3.44 6.909 7.871-8.9 10.432-1.62Zm.481 2.347c-1.354-7.598-8.415 7.222-10.54-.197l-.678-2.163c2.561 7.28 8.445-8.09 10.57-.67Zm.36 2.559c-.702-7.686-9.211 6.424-10.566-1.174l-.452-1.993c2.125 7.42 9.229-7.41 10.583.187Zm.181 2.332c-.411-7.707-9.443 6.039-10.458-1.612l-.364-2.314c1.355 7.598 9.55-6.69 10.565.961Zm.063 2.36c-.088-7.718-9.951 5.469-10.362-2.238l-.215-2.157c1.014 7.65 10.08-6.099 10.491 1.609Zm-.049 2.382c.27-7.713-10.157 5.025-10.245-2.692l-.081-2.161c.701 7.686 10.282-5.674 10.37 2.043Zm-.161 2.368c.611-7.693-10.377 4.56-10.108-3.153l.019-2.334c.088 7.717 10.534-5.02 10.265 2.692Zm-.267 2.349c.937-7.661-10.568 4.104-9.957-3.59l.131-2.34c-.269 7.714 10.738-4.538 10.127 3.155Zm-.368 2.325c1.247-7.617-10.732 3.662-9.795-3.999l.24-2.341c-.611 7.693 10.912-4.07 9.974 3.59Zm-.467 2.324c1.579-7.555-10.866 3.208-9.619-4.408l.343-2.339c-.937 7.661 11.059-3.616 9.812 4.001Zm-.583 2.332c1.957-7.466-10.981 2.699-9.402-4.856l.435-2.306c-1.247 7.617 11.216-3.143 9.637 4.412Zm-.717 2.331c2.381-7.34-11.086 2.111-9.129-5.354l.531-2.25c-1.579 7.554 11.38-2.606 9.423 4.859Zm-.838 2.281c2.784-7.198-11.199 1.479-8.818-5.862l.636-2.186c-1.957 7.465 11.533-1.98 9.152 5.361Zm-.884 2.236c3.143-7.049-11.343.852-8.559-6.346l.757-2.158c-2.381 7.341 11.624-1.328 8.84 5.87Zm-.874 1.959c3.143-7.048-11.243.894-8.459-6.304l.928-2.4c-2.784 7.198 11.453-1.086 8.669 6.112Zm-1.042 2.179c3.509-6.874-11.325.289-8.182-6.76l.919-2.122c-2.784 7.198 11.622-.735 8.479 6.313Zm-.976 1.91c3.509-6.873-11.504-.096-7.995-6.969l.963-2.091c-3.143 7.049 11.711-.104 8.202 6.769Zm-1.202 2.105c3.875-6.674-11.278-.29-7.769-7.164l1.17-2.291c-3.509 6.874 11.504.096 7.995 6.97Zm-1.279 2.1c4.276-6.425-11.281-.963-7.405-7.637l1.11-2.007c-3.509 6.873 11.664.5 7.788 7.174Zm-1.298 1.891c4.46-6.3-11.308-1.524-7.032-7.949l1.139-1.949c-3.875 6.674 11.703 1.227 7.427 7.651Zm-1.208 1.723c4.409-6.335-11.405-1.719-6.945-8.019l1.183-1.746c-3.876 6.673 11.676 1.393 7.216 7.693Zm-.958 1.479c3.927-6.644-11.654-1.374-7.245-7.709l1.505-2.137c-4.46 6.299 11.351 1.681 6.942 8.016ZM199.75 81.118c-6.115-4.71-2.202 11.293-8.317 6.584l-2.038-1.57c6.115 4.71 2.202-11.293 8.317-6.584Zm1.753 1.379c-6.037-4.81-2.255 11.223-8.37 6.514l-2.038-1.57c6.115 4.71 2.202-11.293 8.317-6.584Zm1.678 1.337c-6.037-4.81-2.388 11.255-8.424 6.446l-1.962-1.53c6.115 4.71 2.337-11.329 8.374-6.52Zm1.678 1.337c-6.036-4.81-2.387 11.255-8.424 6.446l-2.013-1.603c6.037 4.809 2.388-11.256 8.425-6.446Zm1.741 1.442c-5.927-4.943-2.45 11.15-8.487 6.34l-2.012-1.603c6.036 4.81 2.388-11.255 8.424-6.445Zm1.648 1.374c-5.928-4.943-2.639 11.199-8.566 6.256l-1.903-1.556c6.037 4.81 2.565-11.29 8.493-6.348Zm1.755 1.473c-5.786-5.108-2.746 11.1-8.674 6.157l-1.976-1.648c5.928 4.943 2.639-11.199 8.567-6.256Zm1.608 1.42c-5.785-5.108-2.706 11.054-8.634 6.11l-1.976-1.647c5.928 4.943 2.639-11.199 8.567-6.256Zm1.608 1.42c-5.785-5.108-2.955 11.12-8.74 6.011l-1.83-1.594c5.928 4.943 2.856-11.228 8.642-6.12Zm1.723 1.558c-5.606-5.305-3.069 10.982-8.855 5.874l-1.928-1.703c5.785 5.108 2.955-11.12 8.74-6.011Zm1.558 1.474c-5.606-5.304-3.335 11.012-8.941 5.707l-1.792-1.59c5.785 5.109 3.259-11.19 8.865-5.885Zm1.559 1.475c-5.606-5.305-3.336 11.011-8.942 5.707l-1.742-1.645c5.786 5.109 3.209-11.135 8.815-5.83Zm1.673 1.656c-5.385-5.528-3.45 10.83-9.056 5.525l-1.869-1.768c5.606 5.305 3.335-11.011 8.942-5.707Zm1.498 1.536c-5.386-5.528-3.78 10.867-9.166 5.339l-1.699-1.643c5.607 5.304 3.684-11.066 9.069-5.538Zm1.497 1.537c-5.386-5.528-3.78 10.866-9.166 5.338l-1.795-1.842c5.386 5.528 3.78-10.867 9.166-5.339Zm1.577 1.705c-5.193-5.71-3.86 10.698-9.246 5.17l-1.795-1.843c5.386 5.528 3.78-10.866 9.166-5.338Zm1.513 1.698c-5.048-5.839-4.222 10.62-9.414 4.909l-1.643-1.743c5.386 5.528 4.064-10.89 9.256-5.18Zm1.491 1.728c-4.891-5.971-4.507 10.518-9.555 4.679l-1.638-1.814c5.193 5.711 4.375-10.755 9.423-4.916Zm1.359 1.66c-4.89-5.971-4.463 10.481-9.511 4.642l-1.597-1.849c5.192 5.71 4.334-10.72 9.382-4.881Zm1.42 1.798c-4.72-6.107-4.761 10.364-9.652 4.393l-1.558-1.872c5.047 5.839 4.629-10.62 9.52-4.649Zm1.405 1.853c-4.502-6.268-5.088 10.209-9.808 4.102l-1.52-1.893c4.891 5.971 4.942-10.507 9.662-4.4Zm1.324 1.934c-4.257-6.437-5.428 9.991-9.931 3.723l-1.462-1.893c4.719 6.107 5.318-10.379 9.82-4.11Zm1.233 2.063c-3.928-6.642-5.795 9.695-10.052 3.258l-1.262-1.793c4.72 6.106 5.588-10.321 9.845-3.884Zm1.159 2.132c-3.559-6.848-6.305 9.381-10.233 2.739l-1.214-1.97c4.258 6.438 6.143-9.911 10.071-3.268Zm1.046 2.103c-3.285-6.984-6.813 9.112-10.373 2.264l-1.123-1.996c3.928 6.643 6.694-9.598 10.253-2.75Zm.957 2.076c-3.094-7.071-7.165 8.902-10.451 1.918l-1.076-2.109c3.56 6.848 7.103-9.255 10.388-2.271Zm.86 1.965c-3.094-7.071-7.365 8.84-10.459 1.769l-1.033-2.202c3.285 6.984 7.367-8.995 10.461-1.924Zm.84 1.913c-3.172-7.036-7.344 8.892-10.439 1.822l-.98-2.227c3.285 6.984 7.314-8.97 10.408-1.899Zm.797 1.753c-3.469-6.894-7.281 9.105-10.376 2.034l-1.031-2.357c3.094 7.071 7.365-8.839 10.459-1.769Zm.853 1.639c-3.861-6.683-7.154 9.44-10.326 2.404l-1.074-2.4c3.094 7.071 7.284-8.866 10.456-1.829Zm1.073 1.858c-3.86-6.683-6.336 9.603-10.197 2.92l-1.378-2.764c3.172 7.037 6.428-9.066 10.288-2.384Zm1.029 1.592c-4.181-6.487-6.292 9.868-10.153 3.186l-1.413-2.497c3.469 6.894 6.463-9.334 10.324-2.651Zm1.078 1.537c-4.512-6.261-5.778 10.165-9.959 3.678l-1.485-2.399c3.86 6.682 5.954-9.662 10.135-3.175Zm1.131 1.478c-4.85-6.003-5.218 10.453-9.729 4.192l-1.592-2.351c4.181 6.487 5.428-9.926 9.94-3.665Zm1.189 1.411c-5.191-5.711-4.611 10.726-9.461 4.723l-1.707-2.289c4.512 6.261 4.861-10.18 9.711-4.177Zm1.251 1.337c-5.529-5.384-3.961 10.978-9.152 5.268l-1.829-2.214c4.85 6.003 4.252-10.418 9.443-4.707Zm1.316 1.256c-5.858-5.024-3.271 11.202-8.8 5.818l-2.149-2.351c4.85 6.003 3.798-10.405 9.327-5.021Zm1.383 1.168c-6.171-4.633-2.547 11.388-8.405 6.365l-2.291-2.25c5.191 5.711 3.131-10.585 8.989-5.561Zm1.452 1.074c-6.464-4.216-2.371 11.711-8.229 6.687l-2.175-1.913c5.529 5.384 3.016-10.921 8.873-5.897Zm1.518.973c-6.728-3.778-1.601 11.847-7.773 7.214l-2.298-1.778c5.858 5.024 2.304-11.084 8.476-6.451Zm1.584.869c-6.962-3.328-.821 11.931-7.284 7.715l-2.414-1.627c6.171 4.633 1.571-11.207 8.035-6.991Zm1.646.76c-7.163-2.872.494 11.667-6.469 8.339l-2.819-1.617c6.463 4.216.294-10.995 7.257-7.667Zm1.702.651c-7.329-2.419 1.234 11.612-5.929 8.74l-2.915-1.416c6.728 3.779-.418-11.006 6.745-8.134Zm1.753.543c-7.46-1.975 1.945 11.513-5.384 9.094l-2.99-1.208c6.963 3.328-1.113-10.982 6.215-8.563Zm1.8.437c-7.561-1.547 2.615 11.375-4.846 9.401l-3.041-1.001c7.163 2.872-1.786-10.921 5.675-8.947Zm1.838.335c-7.633-1.14 3.242 11.207-4.319 9.66l-3.071-.799c7.328 2.419-2.428-10.829 5.133-9.282Zm1.873.238c-7.681-.757 3.818 11.016-3.815 9.876l-3.081-.609c7.461 1.975-3.032-10.708 4.601-9.568Zm1.901.148c-7.707-.401 4.345 10.808-3.336 10.051l-2.802-.386c7.633 1.14-3.869-10.612 3.812-9.855Zm1.926.064c-7.718-.073 4.82 10.592-2.888 10.191l-2.799-.246c7.681.757-4.373-10.432 3.335-10.031Zm1.945-.013c-7.715.226 5.247 10.373-2.471 10.3l-2.788-.119c7.707.402-4.831-10.245 2.886-10.172Zm1.962-.083c-7.702.497 5.627 10.157-2.088 10.382l-2.772-.004c7.718.074-5.244-10.056 2.471-10.282Zm1.977-.148c-7.683.742 5.962 9.948-1.74 10.445l-2.752.098c7.715-.226-5.613-9.871 2.089-10.368Zm1.988-.205c-7.658.96 6.258 9.748-1.425 10.49l-2.91.195c7.714-.226-5.761-9.697 1.921-10.439Zm1.998-.257c-7.631 1.154 6.516 9.561-1.142 10.521l-2.869.275c7.702-.497-6.069-9.526 1.589-10.486Zm1.957-.296c-7.59 1.401 6.688 9.59-.97 10.55l-2.699.328c7.682-.742-6.239-9.579 1.419-10.539Zm2.11-.389c-7.59 1.401 6.803 9.449-.829 10.603l-2.675.389c7.658-.96-6.495-9.41 1.136-10.564Zm2.11-.389c-7.59 1.4 6.927 9.185-.663 10.586l-2.698.47c7.631-1.154-6.759-9.189.831-10.589Zm1.926-.408c-7.538 1.661 7.111 9.204-.479 10.605l-2.53.467c7.59-1.401-6.927-9.186.663-10.587Zm2.095-.461c-7.537 1.66 7.239 8.943-.299 10.603l-2.695.54c7.59-1.4-7.056-8.929.482-10.59Zm1.967-.451c-7.494 1.847 7.367 8.932-.17 10.593l-2.513.553c7.538-1.66-7.239-8.943.299-10.603Zm2.083-.513c-7.494 1.847 7.459 8.76-.035 10.607l-2.635.591c7.537-1.661-7.322-8.735.172-10.583Zm2.083-.514c-7.494 1.847 7.459 8.761-.035 10.608l-2.623.642c7.537-1.66-7.334-8.787.16-10.634Zm1.994-.523c-7.463 1.97 7.548 8.77.054 10.617l-2.498.616c7.494-1.847-7.459-8.76.035-10.608Zm2.074-.547c-7.462 1.97 7.602 8.637.14 10.607l-2.574.66c7.494-1.848-7.516-8.641-.053-10.611Zm2.025-.542c-7.444 2.043 7.652 8.631.189 10.601l-2.488.657c7.463-1.97-7.601-8.637-.139-10.607Zm2.069-.568c-7.443 2.043 7.685 8.563.242 10.606l-2.535.672c7.463-1.97-7.632-8.554-.188-10.597Zm2.069-.568c-7.443 2.043 7.686 8.563.242 10.606l-2.529.693c7.462-1.97-7.637-8.575-.194-10.618Zm2.069-.567c-7.443 2.042 7.686 8.562.242 10.605l-2.481.681c7.444-2.043-7.685-8.563-.242-10.605Zm2.069-.568c-7.443 2.042 7.686 8.562.243 10.605l-2.482.681c7.444-2.043-7.685-8.563-.242-10.605Zm2.116-.579c-7.462 1.974 7.639 8.574.196 10.616l-2.481.681c7.443-2.042-7.686-8.563-.243-10.605Zm2.074-.548c-7.462 1.973 7.634 8.554.191 10.596l-2.481.681c7.443-2.042-7.686-8.562-.243-10.605Zm2.074-.549c-7.462 1.974 7.606 8.633.145 10.607l-2.44.651c7.443-2.042-7.654-8.626-.192-10.6Zm2.074-.549c-7.461 1.974 7.606 8.633.145 10.607l-2.487.658c7.461-1.974-7.607-8.633-.145-10.607Zm2.074-.548c-7.461 1.973 7.607 8.632.145 10.606l-2.487.658c7.462-1.974-7.606-8.633-.145-10.607Zm2.075-.549c-7.462 1.974 7.606 8.633.144 10.607l-2.487.658c7.462-1.974-7.606-8.633-.144-10.607Zm2.191-.549c-7.503 1.808 7.489 8.633.028 10.607l-2.488.658c7.462-1.974-7.606-8.633-.144-10.607Zm2.086-.503c-7.503 1.809 7.414 8.799-.09 10.608l-2.381.611c7.461-1.974-7.533-8.808-.03-10.616Zm2.086-.502c-7.503 1.808 7.414 8.799-.09 10.607l-2.501.603c7.503-1.808-7.414-8.799.09-10.608Zm2.208-.491c-7.543 1.639 7.291 8.787-.212 10.595l-2.501.603c7.503-1.808-7.414-8.799.09-10.607Zm2.096-.456c-7.542 1.639 7.214 8.964-.329 10.603l-2.394.548c7.503-1.808-7.333-8.966.209-10.604Zm2.097-.455c-7.542 1.639 7.213 8.964-.329 10.602l-2.514.547c7.542-1.639-7.213-8.964.329-10.603Zm2.251-.427c-7.586 1.425 7.059 8.935-.483 10.574l-2.514.546c7.542-1.639-7.214-8.964.329-10.602Zm2.108-.396c-7.585 1.425 6.957 9.163-.628 10.589l-2.381.472c7.542-1.639-7.105-9.161.481-10.586Zm2.282-.419c-7.629 1.168 6.784 9.186-.801 10.611l-2.529.476c7.586-1.426-6.957-9.164.628-10.589Zm2.121-.324c-7.63 1.167 6.772 9.114-.814 10.539l-2.528.475c7.585-1.425-6.957-9.163.628-10.589Zm2.12-.325c-7.629 1.168 6.643 9.394-.986 10.562l-2.367.381c7.585-1.425-6.819-9.386.81-10.554Zm2.325-.334c-7.67.866 6.439 9.404-1.19 10.571l-2.543.389c7.629-1.167-6.643-9.394.986-10.561Zm2.132-.241c-7.67.866 6.267 9.649-1.402 10.515l-2.342.362c7.629-1.168-6.482-9.722 1.187-10.588Zm2.131-.24c-7.669.866 6.268 9.648-1.401 10.514l-2.353.278c7.629-1.167-6.471-9.638 1.198-10.504Zm2.303-.238c-7.694.613 6.097 9.645-1.572 10.511l-2.557.289c7.669-.866-6.267-9.649 1.402-10.514Zm2.139-.17c-7.694.612 5.946 9.85-1.748 10.463l-2.388.266c7.669-.866-6.123-9.912 1.571-10.525Zm2.264-.138c-7.707.43 5.821 9.817-1.873 10.43l-2.395.196c7.669-.866-6.116-9.842 1.578-10.454Zm2.272-.107c-7.715.236 5.58 9.977-2.126 10.406l-2.445.165c7.694-.613-5.834-10.01 1.872-10.44Zm2.144-.066c-7.714.236 5.458 10.129-2.257 10.365l-2.44.131c7.707-.43-5.589-10.181 2.126-10.417Zm2.281-.02c-7.718.033 5.322 10.084-2.393 10.32l-2.442.076c7.706-.429-5.587-10.127 2.127-10.363Zm2.288.013c-7.716-.181 5.047 10.247-2.671 10.28l-2.437.04c7.715-.236-5.325-10.299 2.393-10.331Zm2.145.05c-7.716-.181 4.903 10.409-2.813 10.228l-2.431.004c7.719-.033-5.044-10.473 2.672-10.292Zm2.291.108c-7.708-.403 4.757 10.351-2.959 10.17l-2.43-.056c7.718-.032-5.045-10.413 2.671-10.232Zm2.295.143c-7.693-.633 4.449 10.514-3.259 10.111l-2.422-.094c7.716.181-4.748-10.585 2.959-10.183Zm2.138.176c-7.692-.633 4.284 10.678-3.408 10.045l-2.415-.132c7.707.403-4.433-10.757 3.259-10.124Zm2.292.244c-7.669-.871 4.13 10.61-3.562 9.977l-2.411-.196c7.708.403-4.437-10.693 3.255-10.06Zm2.292.281c-7.637-1.115 3.791 10.767-3.878 9.896l-2.402-.235c7.693.633-4.106-10.861 3.563-9.99Zm2.123.31c-7.637-1.115 3.605 10.926-4.033 9.811l-2.392-.273c7.668.871-3.758-11.025 3.879-9.91Zm2.282.386c-7.597-1.365 3.446 10.85-4.192 9.735l-2.384-.341c7.669.871-3.766-10.957 3.872-9.842Zm2.279.422c-7.546-1.619 3.077 10.996-4.52 9.631l-2.373-.38c7.637 1.116-3.403-11.114 4.193-9.749Zm2.098.45c-7.546-1.619 3.09 10.926-4.506 9.56l-2.532-.455c7.596 1.366-3.244-11.038 4.352-9.673Zm2.26.529c-7.486-1.876 2.709 11.063-4.837 9.444l-2.35-.488c7.597 1.365-3.037-11.194 4.509-9.574Zm2.081.522c-7.486-1.877 2.489 11.233-4.997 9.356l-2.339-.524c7.547 1.619-2.646-11.334 4.841-9.457Zm2.236.636c-7.417-2.136 2.334 11.119-5.152 9.242l-2.496-.625c7.487 1.876-2.488-11.233 4.998-9.357Zm2.228.668c-7.337-2.395 1.931 11.238-5.486 9.102l-2.309-.632c7.487 1.877-2.26-11.392 5.157-9.257Zm2.04.666c-7.337-2.395 1.697 11.38-5.64 8.984l-2.297-.666c7.417 2.136-1.846-11.511 5.491-9.116Zm-237.521 18.817c.681-7.688-10.705 4.216-10.024-3.472l.227-2.562c-.681 7.688 10.706-4.217 10.024 3.471Zm-.19 2.137c.682-7.688-10.705 4.217-10.023-3.471l.227-2.563c-.682 7.688 10.705-4.216 10.023 3.472Zm-.235 2.296c.924-7.663-10.659 4.058-9.978-3.63l.227-2.563c-.681 7.688 10.706-4.216 10.024 3.472Zm-.257 2.13c.924-7.663-10.832 3.876-9.908-3.786l.225-2.4c-.682 7.688 10.915-4.031 9.991 3.631Zm-.321 2.329c1.23-7.62-10.768 3.678-9.844-3.985l.308-2.554c-.924 7.662 10.832-3.877 9.908 3.785Zm-.409 2.297c1.507-7.57-10.912 3.261-9.682-4.359l.298-2.347c-.923 7.662 11.091-3.632 9.861 3.987Zm-.514 2.327c1.857-7.491-11.002 2.814-9.495-4.756l.395-2.352c-1.23 7.62 11.205-3.208 9.698 4.362Zm-.672 2.337c2.271-7.376-11.07 2.264-9.213-5.227l.474-2.285c-1.507 7.57 11.37-2.73 9.514 4.761Zm-.999 2.603c3.174-7.034-10.981 1.336-8.71-6.039l.599-2.206c-1.857 7.491 11.506-2.142 9.235 5.234Zm-1.047 2.182c3.547-6.855-11 .725-8.284-6.499l.747-2.131c-2.271 7.376 11.6-1.471 8.884 5.752Zm-1.489 2.428c4.449-6.306-11.001-.681-7.454-7.536l.809-1.791c-2.716 7.224 11.877-.336 8.331 6.519Zm-1.634 2.099c5.059-5.828-10.815-1.669-6.672-8.181l1.048-1.834c-3.546 6.855 11.777.847 7.634 7.358Zm-1.878 1.918c5.642-5.266-10.672-3.157-5.613-8.986l1.048-1.473c-4.142 6.511 11.782 2.391 6.723 8.219Zm-2.23 1.775c6.31-4.442-10.121-4.323-4.479-9.589l1.196-1.302c-4.755 6.078 11.467 3.559 5.825 8.825Zm-2.514 1.525c6.92-3.413-9.369-5.742-3.06-10.184l1.211-1.033c-5.355 5.557 11.022 5.004 4.712 9.446Zm-2.361 1.039c7.184-2.815-8.8-6.335-2.166-10.276l1.502-.97c-5.96 4.902 10.388 5.873 3.754 9.815Zm-2.864.819c7.546-1.613-7.675-7.74-.491-10.554l1.556-.759c-6.633 3.941 9.381 7.524 2.197 10.338Zm-2.782.439c7.693-.615-6.497-8.978 1.049-10.591l1.64-.558c-7.184 2.814 8.057 9.008.51 10.62Zm-2.428.133c7.716-.185-5.924-9.319 1.716-10.407l1.791-.324c-7.4 2.188 7.301 9.421-.339 10.51Zm-2.641-.069c7.697.561-4.894-10.043 2.822-10.228l1.958-.171c-7.64 1.089 6.004 10.273-1.712 10.458Zm-2.384-.243c7.66.937-4.139-10.551 3.559-9.989l2.074-.006c-7.716.185 4.874 10.83-2.823 10.269Zm-2.612-.467c7.53 1.689-3.375-10.633 4.285-9.695l2.075.173c-7.715-.206 4.336 10.978-3.324 10.041Zm-2.299-.571c7.45 2.015-2.562-11.066 4.968-9.377l2.04.305c-7.66-.938 3.238 11.426-4.293 9.736Zm-2.414-.753c7.279 2.565-1.937-11.085 5.513-9.069l2.05.473c-7.602-1.33 2.713 11.476-4.737 9.46Zm-2.223-.835c7.158 2.886-1.491-11.096 5.874-8.79l2.274.667c-7.45-2.015 2.016 11.46-5.349 9.154Zm-2.224-.914c7.003 3.243-.688-11.356 6.469-8.47l2.037.722c-7.365-2.307 1.272 11.708-5.886 8.821Zm-1.947-.902c7.003 3.244-.731-11.257 6.426-8.37l2.386.962c-7.157-2.887.923 11.467-6.234 8.581Zm-2.154-1.077c6.827 3.599-.136-11.324 6.867-8.08l2.11.946c-7.158-2.886.568 11.634-6.435 8.39Zm-2.231-1.303c6.496 4.168.58-11.2 7.407-7.601l2.079 1.003c-7.003-3.244-.05 11.699-6.877 8.1Zm-1.806-1.158c6.496 4.167.904-11.296 7.556-7.384l2.035 1.14c-6.827-3.599-.599 11.643-7.252 7.73Zm-1.926-1.303c6.347 4.391 1.346-11.296 7.842-7.129l2.008 1.265c-6.652-3.913-1.068 11.565-7.564 7.397Zm-1.954-1.401c6.117 4.706 1.815-11.21 8.161-6.818l1.995 1.321c-6.497-4.168-1.504 11.533-7.85 7.141Zm-1.7-1.308c6.116 4.706 2.196-11.293 8.313-6.587l1.899 1.32c-6.346-4.392-2.057 11.541-8.173 6.836Zm-1.97-1.676c5.691 5.213 2.466-10.925 8.583-6.219l1.835 1.407c-6.346-4.392-1.993 11.454-8.11 6.748Zm-1.704-1.625c5.474 5.441 2.94-10.798 8.824-5.803l1.801 1.469c-6.117-4.705-2.576 11.371-8.461 6.376Zm-1.522-1.512c5.474 5.44 3.604-10.926 9.079-5.486l1.593 1.471c-5.884-4.994-3.373 11.269-8.847 5.828Zm-1.647-1.707c5.229 5.677 3.73-10.732 9.204-5.291l1.825 1.813c-5.475-5.44-3.605 10.926-9.079 5.486Zm-1.454-1.578c5.229 5.677 4.083-10.756 9.312-5.08l1.649 1.668c-5.474-5.44-3.989 10.981-9.218 5.304Zm-1.58-1.796c4.95 5.921 4.209-10.538 9.438-4.862l1.743 1.892c-5.229-5.676-4.082 10.757-9.311 5.08Zm-1.376-1.646c4.95 5.921 4.595-10.547 9.545-4.626l1.559 1.724c-5.229-5.676-4.504 10.797-9.454 4.876Zm-1.498-1.881c4.644 6.164 4.717-10.312 9.667-4.391l1.65 1.974c-4.95-5.921-4.595 10.547-9.545 4.626Zm-1.291-1.714c4.644 6.164 5.123-10.301 9.767-4.137l1.465 1.788c-4.95-5.921-5.04 10.568-9.684 4.404Zm-1.404-1.956c4.322 6.394 5.236-10.059 9.88-3.895l1.548 2.055c-4.644-6.164-5.123 10.301-9.767 4.137Zm-1.34-2.007c3.983 6.61 5.781-9.796 10.104-3.403l1.373 1.857c-4.644-6.164-5.576 10.3-9.898 3.907Zm-1.108-1.837c3.984 6.61 5.688-9.736 10.01-3.343l1.441 2.131c-4.323-6.393-5.643 10.026-9.966 3.633Zm-1.174-2.114c3.627 6.812 6.224-9.442 10.208-2.832l1.215 1.957c-4.322-6.394-6.045 9.964-10.028 3.354Zm-1.1-2.155c3.26 6.996 6.757-9.116 10.383-2.304l1.145 1.993c-3.983-6.61-6.6 9.655-10.227 2.843Zm-.905-1.945c3.259 6.996 7.155-9.009 10.414-2.013l1.075 2.031c-3.627-6.812-7.144 9.31-10.403 2.314Zm-.918-2.177c2.96 7.127 7.167-8.776 10.426-1.781l.973 2.082c-3.627-6.812-7.042 9.259-10.301 2.264Zm-.823-1.982c2.96 7.128 7.53-8.698 10.49-1.571l.939 2.16c-3.259-6.996-7.482 8.915-10.442 1.787Zm-.827-2.177c2.703 7.229 7.535-8.503 10.495-1.375l.986 2.376c-2.96-7.128-7.53 8.699-10.49 1.571Zm-.75-2.196c2.456 7.317 7.835-8.238 10.538-1.009l.87 2.225c-2.96-7.128-7.805 8.609-10.508 1.38Zm-.671-2.296c2.102 7.426 8.107-7.89 10.563-.574l.796 2.261c-2.703-7.229-8.097 8.331-10.552 1.014Zm-.62-2.359c1.674 7.534 8.535-7.458 10.637-.033l.682 2.223c-2.456-7.316-8.481 8.006-10.583.58Zm-.465-2.094c1.674 7.534 8.93-7.254 10.603.279l.615 2.193c-2.102-7.425-8.986 7.573-10.66.039Zm-.428-2.406c1.234 7.618 8.892-6.943 10.566.591l.496 2.223c-2.102-7.425-8.868 7.542-10.541.009Zm-.355-2.346c.895 7.666 9.347-6.495 10.58 1.123l.433 2.231c-1.674-7.534-9.356 7.032-10.59-.586Zm-.236-2.288c.664 7.689 9.612-6.147 10.507 1.519l.378 2.314c-1.233-7.619-9.704 6.545-10.599-1.121Zm-.152-2.297c.43 7.706 9.778-5.852 10.442 1.837l.252 2.175c-1.233-7.618-9.84 6.4-10.505-1.29Zm-.06-2.467c-.054 7.718 9.93-5.385 10.359 2.321l.18 2.409c-.665-7.69-10.026 5.869-10.455-1.837Zm.042-2.311c-.302 7.712 10.06-5.068 10.25 2.647l.09 2.411c-.428-7.706-10.188 5.558-10.378-2.158Zm.134-2.31c-.556 7.698 10.435-4.572 10.133 3.14l-.007 2.245c-.19-7.716-10.579 5.064-10.276-2.648Zm.25-2.482c-1.076 7.643 10.539-4.049 9.983 3.649l-.11 2.235c.055-7.718-10.71 4.722-10.154-2.976Zm.346-2.299c-1.343 7.6 10.633-3.692 9.819 3.984l-.213 2.39c.556-7.698-10.834 4.2-10.02-3.475Zm.443-2.284c-1.61 7.548 10.96-3.105 9.616 4.495l-.285 2.197c.814-7.675-11.192 3.613-9.849-3.988Zm.534-2.248c-1.851 7.493 11.051-2.737 9.442 4.812l-.395 2.175c1.076-7.642-11.28 3.227-9.67-4.321Zm.651-2.262c-2.153 7.412 11.088-2.348 9.237 5.145l-.535 2.347c1.61-7.549-11.307 2.678-9.456-4.815Zm.677-2.205c-2.384 7.341 11.239-1.926 9.086 5.486l-.629 2.278c1.851-7.493-11.406 2.263-9.253-5.149Zm.749-2.198c-2.635 7.254 11.291-1.557 8.907 5.784l-.69 2.31c2.153-7.411-11.482 1.851-9.098-5.49Zm.846-2.226c-2.966 7.125 11.315-1.113 8.68 6.141l-.751 2.275c2.384-7.341-11.556 1.465-8.921-5.789Zm1.074-2.36c-3.574 6.84 11.228-.416 8.262 6.709l-.802 2.193c2.635-7.254-11.664.977-8.698-6.148Zm.993-1.901c-3.574 6.839 11.286-.184 8.052 6.824l-.853 1.963c2.635-7.254-11.725.732-8.49-6.275Zm1.21-2.09c-3.929 6.643 11.286.394 7.712 7.233l-1.05 2.069c3.235-7.008-11.644.006-8.07-6.834Zm1.233-1.982c-4.17 6.495 11.335.942 7.407 7.586l-1.126 2.008c3.574-6.84-11.66-.601-7.732-7.245Zm1.297-1.95c-4.414 6.331 11.302 1.373 7.132 7.868l-1.24 2.036c3.928-6.644-11.59-1.1-7.42-7.595Zm1.406-1.935c-4.713 6.11 11.205 1.84 6.791 8.171l-1.295 1.992c4.169-6.495-11.56-1.546-7.146-7.877Zm1.485-1.86c-4.987 5.89 11.116 2.371 6.403 8.483l-1.341 1.898c4.414-6.33-11.521-2.072-6.808-8.183Zm1.555-1.785c-5.237 5.669 11.009 2.87 6.022 8.76l-1.288 1.647c4.414-6.331-11.552-2.406-6.565-8.296Zm1.62-1.712c-5.466 5.449 10.886 3.34 5.649 9.01l-1.372 1.609c4.713-6.111-11.424-2.924-6.187-8.593Zm1.68-1.64c-5.677 5.23 10.749 3.782 5.283 9.23l-1.451 1.571c4.988-5.89-11.28-3.41-5.814-8.86Zm1.733-1.57c-5.87 5.01 10.602 4.198 4.925 9.428l-1.523 1.529c5.237-5.669-11.126-3.868-5.45-9.098Zm1.784-1.504c-6.048 4.796 10.395 4.249 4.719 9.478l-1.736 1.613c5.466-5.448-10.913-3.952-5.236-9.181Zm1.872-1.462c-6.256 4.518 10.203 4.664 4.333 9.675l-1.8 1.555c5.676-5.23-10.751-4.369-4.882-9.38Zm1.74-1.257c-6.257 4.519 10.175 4.92 4.128 9.715l-1.86 1.495c5.87-5.012-10.581-4.763-4.534-9.558Zm2.018-1.35c-6.496 4.165 9.916 5.424 3.66 9.942l-1.885 1.389c6.048-4.796-10.396-5.212-4.14-9.73Zm2.076-1.294c-6.729 3.778 9.615 6.02 3.119 10.186l-1.881 1.3c6.256-4.518-10.17-5.796-3.674-9.962Zm1.871-1.05c-6.729 3.778 9.55 5.911 3.054 10.077l-2.165 1.389c6.496-4.166-9.886-5.884-3.39-10.05Zm2.118-1.103c-6.9 3.457 9.276 6.505 2.547 10.283l-1.97 1.128c6.496-4.166-9.797-6.321-3.068-10.1Zm2.301-1.034c-7.135 2.942 8.827 6.97 1.926 10.427l-2.052 1.1c6.729-3.78-9.457-6.845-2.556-10.301Zm2.165-.85c-7.234 2.69 8.498 7.585 1.362 10.527l-1.983.941c6.901-3.456-9.074-7.513-1.939-10.455Zm2.157-.753c-7.305 2.493 8.263 7.859 1.029 10.549l-2.027.824c7.014-3.22-8.794-7.78-1.56-10.47Zm2.15-.72c-7.361 2.32 8.074 8.105.769 10.598l-2.29.82c7.234-2.69-8.338-8.067-1.033-10.56Zm2.234-.683c-7.442 2.044 7.812 8.309.45 10.628l-2.319.79c7.305-2.492-8.133-8.287-.772-10.606Zm2.258-.605c-7.513 1.765 7.6 8.27.239 10.588l-2.335.743c7.304-2.493-8.118-8.24-.757-10.558Zm2.28-.523c-7.574 1.48 7.287 8.552-.155 10.596l-2.294.643c7.362-2.318-7.874-8.522-.432-10.566Zm2.299-.44c-7.626 1.192 6.96 8.825-.553 10.589l-2.313.56c7.442-2.044-7.553-8.814-.04-10.578Zm2.314-.357c-7.666.9 6.622 9.087-.953 10.567l-2.33.477c7.513-1.765-7.218-9.096.357-10.576Zm2.13-.25c-7.665.9 6.468 9.316-1.157 10.508l-2.345.391c7.575-1.48-6.87-9.366.756-10.558Zm2.334-.192c-7.694.609 6.109 9.56-1.556 10.461l-2.357.305c7.625-1.192-6.51-9.624 1.155-10.525Zm2.339-.105c-7.711.315 5.741 9.789-1.953 10.398l-2.366.218c7.665-.901-6.14-9.868 1.554-10.477Zm2.331-.025c-7.718.037 5.374 10.01-2.338 10.324l-2.372.132c7.694-.608-5.759-10.099 1.952-10.414Zm2.318.035c-7.715-.223 5.022 10.22-2.696 10.258l-2.386.049c7.711-.315-5.381-10.303 2.337-10.34Zm2.317.093c-7.703-.484 4.674 10.404-3.041 10.181l-2.399-.014c7.718-.037-5.019-10.495 2.696-10.272Zm2.318.15c-7.682-.747 4.314 10.577-3.389 10.094l-2.397-.075c7.715.223-4.661-10.68 3.042-10.196Zm2.135.209c-7.682-.748 4.321 10.503-3.382 10.02l-2.395-.148c7.715.223-4.664-10.607 3.039-10.123Zm2.325.292c-7.647-1.044 3.934 10.656-3.747 9.908l-2.387-.208c7.703.484-4.298-10.782 3.384-10.034Zm2.34.34c-7.596-1.368 3.493 10.842-4.154 9.798l-2.358-.271c7.681.748-3.898-10.968 3.749-9.925Zm2.111.38c-7.595-1.368 3.508 10.752-4.139 9.709l-2.549-.348c7.647 1.043-3.707-10.892 3.94-9.849Zm2.321.478c-7.529-1.697 3.031 10.942-4.565 9.574l-2.319-.401c7.647 1.043-3.453-11.095 4.143-9.727Zm2.093.472c-7.529-1.697 2.756 11.17-4.773 9.473l-2.305-.447c7.596 1.368-2.961-11.29 4.568-9.592Zm2.294.622c-7.445-2.035 2.555 11.02-4.974 9.323l-2.51-.566c7.529 1.697-2.756-11.17 4.773-9.473Zm2.258.658c-7.357-2.332 2.062 11.19-5.383 9.155l-2.266-.584c7.529 1.697-2.466-11.377 4.979-9.342Zm2.045.648c-7.357-2.332 1.795 11.365-5.562 9.033l-2.278-.638c7.445 2.034-1.97-11.504 5.388-9.172Zm2.198.78c-7.267-2.597 1.643 11.233-5.715 8.901l-2.452-.777c7.357 2.332-1.795-11.365 5.562-9.033Zm2.171.822c-7.175-2.845 1.23 11.323-6.037 8.725l-2.256-.775c7.357 2.332-1.547-11.513 5.72-8.915Zm1.994.79c-7.174-2.844.991 11.464-6.184 8.619l-2.249-.828c7.267 2.599-1.133-11.583 6.042-8.738Zm2.154.918c-7.061-3.115.831 11.336-6.343 8.492l-2.392-.949c7.175 2.845-.99-11.462 6.184-8.618Zm2.081.99c-6.962-3.332.435 11.368-6.626 8.253l-2.196-.909c7.175 2.845-.711-11.622 6.35-8.506Zm45.624 75.089c6.636-3.942-9.696-5.786-3.256-10.039l2.147-1.417c-6.44 4.253 9.964 5.751 3.524 10.004Zm-2.087 1.14c6.807-3.637-9.436-6.264-2.801-10.205l1.989-1.209c-6.441 4.253 9.902 6.114 3.267 10.056Zm-2.11 1.065c6.955-3.344-9.17-6.706-2.363-10.343l2.039-1.146c-6.635 3.942 9.618 6.585 2.811 10.222Zm-2.116.99c7.075-3.083-8.914-7.105-1.958-10.449l2.088-1.085c-6.807 3.637 9.326 7.015 2.371 10.359Zm-2.229.94c7.229-2.703-8.566-7.46-1.491-10.544l2.147-1.031c-6.956 3.344 9.04 7.381 1.964 10.465Zm-2.284.833c7.368-2.296-8.249-7.436-1.174-10.519l2.18-.959c-6.956 3.344 9.007 7.308 1.932 10.392Zm-2.249.656c7.451-2.012-7.908-7.821-.68-10.524l2.147-.822c-7.076 3.084 8.685 7.756 1.457 10.459Zm-2.452.566c7.577-1.47-7.269-8.6.182-10.612l1.99-.628c-7.228 2.703 8.144 8.551.692 10.563Zm-2.287.4c7.623-1.208-6.951-8.81.569-10.547l2.312-.576c-7.451 2.012 7.524 8.866.004 10.603Zm-2.473.297c7.687-.694-6.339-9.319 1.284-10.527l2.174-.413c-7.52 1.737 7.06 9.368-.563 10.577Zm-2.311.162c7.705-.437-5.876-9.755 1.811-10.449l2.206-.307c-7.623 1.208 6.406 9.862-1.281 10.556Zm-2.677.019c7.71.36-5.185-9.88 2.521-10.317l2.221-.182c-7.66.95 6.067 10.019-1.639 10.456Zm-2.378-.13c7.684.715-4.717-10.083 3-10.152l2.325-.059c-7.706.437 5.483 10.28-2.234 10.348Zm-2.324-.236c7.654.998-4.243-10.353 3.466-9.993l2.285.073c-7.717.069 4.944 10.566-2.765 10.206Zm-2.304-.327c7.613 1.268-3.594-10.821 4.059-9.822l2.138.176c-7.709-.36 4.184 11.026-3.469 10.028Zm-2.275-.408c7.568 1.513-3.225-10.941 4.388-9.673l2.182.278c-7.684-.715 3.739 11.142-3.874 9.873Zm-2.231-.475c7.526 1.712-2.9-11.046 4.668-9.533l2.193.371c-7.653-.998 3.357 11.234-4.211 9.72Zm-2.092-.476c7.526 1.712-2.735-11.175 4.791-9.464l2.225.46c-7.613-1.268 3.019 11.287-4.507 9.575Zm-2.083-.471c7.529 1.698-2.744-11.18 4.782-9.469l2.509.571c-7.526-1.712 2.735 11.176-4.791 9.464Zm-2.093-.472c7.529 1.698-2.755-11.171 4.774-9.473l2.518.571c-7.526-1.712 2.746 11.166-4.783 9.468Zm-1.957-.394c7.575 1.479-2.891-11.249 4.638-9.551l2.509.566c-7.529-1.698 2.755 11.171-4.774 9.473Zm-1.944-.319c7.621 1.22-3.24-11.179 4.335-9.699l2.663.561c-7.529-1.698 2.94 11.018-4.635 9.539Zm-2.046-.296c7.639 1.103-3.527-11.017 4.094-9.797l2.707.476c-7.576-1.48 3.288 10.905-4.333 9.685Zm-2.123-.307c7.639 1.104-3.622-10.921 4.017-9.818l2.622.395c-7.621-1.22 3.546 10.894-4.093 9.791Zm-2.124-.306c7.639 1.103-3.622-10.922 4.018-9.818l2.546.368c-7.639-1.104 3.622 10.921-4.018 9.817Zm-2.123-.307c7.639 1.103-3.622-10.921 4.017-9.818l2.546.368c-7.639-1.103 3.622 10.921-4.017 9.818Zm-2.124-.307c7.639 1.103-3.622-10.921 4.017-9.818l2.547.368c-7.639-1.103 3.621 10.921-4.018 9.818Zm-2.188-.339c7.623 1.205-3.557-10.889 4.082-9.785l2.546.367c-7.639-1.103 3.622 10.922-4.017 9.818Zm-2.12-.336c7.624 1.206-3.475-10.968 4.149-9.763l2.476.375c-7.64-1.104 3.54 10.996-4.083 9.79Zm-2.119-.335c7.624 1.206-3.475-10.968 4.149-9.763l2.541.402c-7.624-1.205 3.475 10.969-4.149 9.763Zm-2.119-.335c7.624 1.206-3.475-10.968 4.148-9.763l2.541.402c-7.623-1.205 3.476 10.969-4.148 9.763Zm-2.204-.364c7.602 1.336-3.391-10.939 4.233-9.734l2.541.402c-7.623-1.206 3.475 10.968-4.148 9.763Zm-2.113-.372c7.602 1.336-3.287-11.026 4.315-9.69l2.453.395c-7.624-1.206 3.367 11.077-4.234 9.741Zm-2.113-.371c7.601 1.336-3.287-11.027 4.315-9.69l2.534.445c-7.602-1.336 3.286 11.026-4.316 9.69Zm-2.114-.371c7.602 1.336-3.286-11.027 4.316-9.691l2.534.445c-7.602-1.336 3.286 11.027-4.316 9.691Zm-2.218-.425c7.571 1.503-3.181-10.973 4.42-9.637l2.534.445c-7.601-1.336 3.287 11.027-4.315 9.69Zm-2.104-.417c7.57 1.502-3.044-11.096 4.526-9.594l2.419.448c-7.602-1.336 3.149 11.149-4.422 9.646Zm-2.105-.418c7.571 1.502-3.044-11.096 4.527-9.593l2.523.5c-7.57-1.502 3.044 11.096-4.526 9.594Zm-2.236-.48c7.526 1.711-2.912-11.033 4.658-9.531l2.524.501c-7.571-1.503 3.044 11.096-4.527 9.593Zm-2.093-.475c7.527 1.711-2.736-11.176 4.79-9.465l2.38.492c-7.57-1.502 2.865 11.254-4.661 9.543Zm-2.092-.476c7.526 1.711-2.736-11.175 4.79-9.464l2.509.57c-7.526-1.711 2.736 11.175-4.79 9.464Zm-2.245-.581c7.464 1.963-2.583-11.07 4.943-9.359l2.509.57c-7.527-1.711 2.736 11.176-4.79 9.465Zm-2.075-.546c7.464 1.964-2.357-11.261 5.107-9.298l2.327.58c-7.526-1.711 2.518 11.336-4.946 9.372Zm-2.252-.655c7.381 2.253-2.18-11.152 5.284-9.188l2.488.654c-7.464-1.964 2.358 11.261-5.106 9.298Zm-2.052-.627c7.381 2.254-1.917-11.344 5.465-9.091l2.284.638c-7.464-1.963 2.093 11.458-5.289 9.204Zm-2.233-.755c7.283 2.555-1.736-11.216 5.646-8.962l2.461.751c-7.382-2.254 1.916 11.344-5.466 9.091Zm-2.203-.78c7.183 2.825-1.269-11.344 6.013-8.789l2.245.731c-7.382-2.253 1.631 11.535-5.652 8.979Zm-1.996-.786c7.182 2.825-1.298-11.268 5.985-8.713l2.427.852c-7.282-2.556 1.448 11.413-5.834 8.858Zm-2.111-.86c7.107 3.011-.908-11.385 6.275-8.56l2.224.848c-7.283-2.555 1.192 11.554-5.991 8.729Zm-1.976-.836c7.107 3.01-.724-11.483 6.383-8.473l2.265.905c-7.182-2.825.828 11.581-6.279 8.571Zm-1.997-.858c7.091 3.048-.702-11.462 6.405-8.452l2.369 1.004c-7.107-3.011.724 11.483-6.383 8.472Zm-1.971-.848c7.091 3.049-.661-11.487 6.429-8.438l2.34 1.001c-7.107-3.011.685 11.502-6.405 8.453Zm-1.971-.848c7.091 3.049-.662-11.486 6.429-8.437l2.363 1.016c-7.09-3.049.662 11.487-6.428 8.438Zm-1.871-.766c7.161 2.878-.762-11.568 6.329-8.519l2.363 1.016c-7.09-3.048.662 11.487-6.428 8.438Zm-1.991-.801c7.161 2.879-.936-11.467 6.225-8.589l2.487 1.04c-7.09-3.049.836 11.388-6.325 8.509Zm-1.879-.706c7.236 2.685-1.048-11.562 6.114-8.683l2.387.96c-7.162-2.879.936 11.467-6.226 8.589Zm-2.011-.746c7.236 2.685-1.244-11.438 5.992-8.753l2.529.976c-7.161-2.879 1.127 11.357-6.109 8.672Zm-1.886-.66c7.31 2.477-1.37-11.525 5.866-8.84l2.412.895c-7.236-2.685 1.244 11.438-5.992 8.753Zm-2.032-.689c7.31 2.477-1.571-11.397 5.739-8.921l2.56.919c-7.236-2.685 1.447 11.305-5.863 8.828Zm-1.901-.64c7.375 2.277-1.702-11.446 5.608-8.969l2.436.825c-7.31-2.476 1.571 11.398-5.739 8.922Zm-2.05-.633c7.375 2.277-1.684-11.501 5.626-9.025l2.436.826c-7.31-2.477 1.571 11.398-5.739 8.921Zm-2.05-.633c7.375 2.277-1.88-11.351 5.494-9.074l2.586.819c-7.31-2.476 1.753 11.291-5.622 9.014Zm-2.05-.633c7.375 2.277-1.88-11.351 5.494-9.074l2.458.759c-7.374-2.277 1.881 11.351-5.494 9.074Z" class="stroke-orange fill-orange stroke-foreground fill-foreground" style="fill:#ff851b;stroke:#111;stroke-width:.254;stroke-linecap:square;stroke-dasharray:none;stroke-opacity:1;stroke-linejoin:round" transform="translate(87.141 -55.043)"/>
</svg>
