<svg xmlns="http://www.w3.org/2000/svg" xml:space="preserve" viewBox="0 0 190.451 190.287">
  <path d="M222.353 163.024c1.722-4.157 6.365-6.364 9.546-9.546q4.774-4.771 9.547-9.547m39.715 1.533-1.528-1.528q-4.773-4.772-9.547 0m-28.64-.001q4.775-4.772 9.547 0l1.528 1.528m16.036 16.035 1.529 1.53m-28.64-.002q4.775 4.773 9.547 0t9.546-9.545 9.547-9.547m0 19.094q4.774 4.772 9.547 0l9.545-9.546c2.576-2.573 6.47-4.236 8.807-7.23 11.273-14.431-14.283-27.913-27.897-39.518m-19.093 0c-15.255 17.337-48.845 17.812-27.84 39.453m16.762 15.309 1.53 1.53" style="display:inline;fill:none;stroke:#01ff70;stroke-width:5.66927;stroke-linecap:butt;stroke-linejoin:round;stroke-miterlimit:10;stroke-dasharray:none;stroke-opacity:1" transform="translate(-145.932 -19.946)scale(.82737)"/>
  <path d="m239.92 194.595 1.529-1.53m0 19.094q-4.773-4.775-9.547-9.547c-2.744-2.745-6.088-5.149-8.682-7.936-8.031-8.628-17.817-11.243-.867-31.652m19.096 30.044q4.775-4.772 9.547 0l9.546 9.546q4.774 4.772 9.547 9.547m-28.64-.001q4.775 4.771 9.547 0l1.528-1.528m16.035-16.035 1.53-1.53m0 19.094q4.774 4.773 9.547 0l1.528-1.528M297.2 194.6c16.045-15.877 10.313-19.668.423-33.527m-27.534 31.997q4.774-4.773 9.547 0l9.545 9.545 9.547 9.547" style="display:inline;fill:none;stroke:#ff4136;stroke-width:5.66927;stroke-linecap:butt;stroke-linejoin:round;stroke-miterlimit:10;stroke-dasharray:none;stroke-opacity:1" transform="translate(-145.932 -19.946)scale(.82737)"/>
  <path d="M86.756 77.223c21.29-23.579 42.206-6.006 62.9 17.99m-39.205 108.73c17.025 14.408 18.46 3.531 39.096-24.02" style="display:inline;fill:none;stroke:#7fdbff;stroke-width:4.69039;stroke-linecap:butt;stroke-linejoin:round;stroke-dasharray:none;paint-order:stroke fill markers" transform="translate(-9.223 -48.352)"/>
  <path d="m361.864 166.943 1.529-1.528q4.771-4.772 0-9.547m.006-57.28q-4.775-4.771-9.547-9.546c-2.66-2.66-4.979-5.711-7.739-8.297m17.285-1.249q-.805.724-1.587 1.471M345.835 97.06l-1.53 1.53m19.09 0q4.773 4.775 0 9.547l-1.528 1.528M345.833 125.7l-1.53 1.53m.001-28.64q-4.771 4.775 0 9.547l9.546 9.545q4.772 4.776 9.547 9.547m-19.094 0q-4.773 4.775 0 9.547l9.545 9.546 9.547 9.547m0-28.64q4.77 4.775 0 9.547l-1.53 1.529m-16.034 16.034-1.53 1.53m0 0q-4.771 4.775 0 9.547l9.546 9.545c3.181 3.185 6.147 6.598 9.547 9.547" style="display:inline;fill:none;stroke:#0074d9;stroke-width:5.66902;stroke-linecap:butt;stroke-linejoin:round;stroke-miterlimit:10;stroke-dasharray:none;stroke-opacity:1" transform="translate(-145.932 -19.946)scale(.82737)"/>
  <path d="M48.496 202.645c-11.274 8.435 10.248 4.149.613 15.706m114.844-37.288c14.35 13.528-14.788 18.822-3.444 37.288m2.135-122.954c13.464-10.534-12.677-16.827-2.135-26.2m-111.4 0c6.037 6.576 14.31-1.696 25.8 11.975" style="display:inline;fill:none;stroke:#7fdbff;stroke-width:4.68661;stroke-linecap:butt;stroke-linejoin:round;stroke-dasharray:none;paint-order:stroke fill markers" transform="translate(-9.223 -48.352)"/>
  <path d="m250.998 59.002 9.545 9.546 9.547 9.547m-.003 0c3.182 3.182 3.137 6.321 0 9.547l-1.506 1.55m-17.585-11.097q-4.772 4.773 0 9.547l9.545 9.545 9.547 9.547m-17.562-30.169-1.53 1.53" style="display:inline;fill:none;stroke:#b10dc9;stroke-width:5.66927;stroke-linecap:butt;stroke-linejoin:round;stroke-miterlimit:10;stroke-dasharray:none;stroke-opacity:1" transform="translate(-145.932 -19.946)scale(.82737)"/>
  <path d="M95.987 238.496c-40.02-3.626-73.497-31.904-83.754-70.747-4.014-15.198-4.014-33.368 0-48.566 9.68-36.655 39.637-63.734 77.404-69.965 6.991-1.154 22.641-1.154 29.633 0 41.257 6.807 72.625 38.175 79.432 79.431 1.85 11.211.997 27.643-2.028 39.1-9.657 36.57-39.811 63.872-77.228 69.921-4.454.72-18.981 1.232-23.46.826m22.401-5.72c52.756-8.696 86.477-59.58 73.701-111.214-8.705-35.184-37.597-61.553-73.877-67.425-6.899-1.117-21.007-1.118-27.693-.003-39.313 6.559-69.069 36.348-75.386 75.472-1.068 6.615-1.147 20.3-.155 26.736 6.488 42.08 39.946 73.562 82.067 77.22 4.23.368 17.254-.112 21.343-.787" class="stroke-comment fill-comment" style="display:inline;fill:#616161;fill-opacity:1;stroke:none;stroke-width:.352778;stroke-linejoin:round;stroke-opacity:1" transform="translate(-9.223 -48.352)"/>
</svg>
