<?xml version="1.0" encoding="UTF-8" standalone="no"?>
<svg
   xml:space="preserve"
   viewBox="0 0 3520.893 1695.849"
   version="1.1"
   id="svg14"
   sodipodi:docname="fig-opo-vee.svg"
   inkscape:version="1.4.2 (ebf0e940d0, 2025-05-08)"
   xmlns:inkscape="http://www.inkscape.org/namespaces/inkscape"
   xmlns:sodipodi="http://sodipodi.sourceforge.net/DTD/sodipodi-0.dtd"
   xmlns="http://www.w3.org/2000/svg"
   xmlns:svg="http://www.w3.org/2000/svg"><defs
   id="defs14" /><sodipodi:namedview
   id="namedview14"
   pagecolor="#ffffff"
   bordercolor="#000000"
   borderopacity="0.25"
   inkscape:showpageshadow="2"
   inkscape:pageopacity="0.0"
   inkscape:pagecheckerboard="0"
   inkscape:deskcolor="#d1d1d1"
   inkscape:zoom="0.13274604"
   inkscape:cx="2184.6227"
   inkscape:cy="1088.5447"
   inkscape:window-width="2234"
   inkscape:window-height="1418"
   inkscape:window-x="0"
   inkscape:window-y="0"
   inkscape:window-maximized="1"
   inkscape:current-layer="svg14" />
  <g
   style="fill:#616161"
   id="g5">
    <path
   d="m441.626 97.989 77.882-77.95M6.03 533.96l77.397-77.463m360.527 2.683 74.293 74.358M7.15 22l74.112 74.176"
   style="fill:#616161;stroke:#ff851b;stroke-width:16.5705;stroke-linecap:butt;stroke-linejoin:miter;stroke-dasharray:none;stroke-opacity:1"
   transform="matrix(1.33333 0 0 -1.33333 -.092 1217.1)"
   id="path1" />
    <g
   style="display:inline;fill:#616161"
   id="g2">
      <path
   d="M95.987 238.496c-40.02-3.626-73.497-31.904-83.754-70.747-4.013-15.198-4.013-33.368 0-48.566 9.68-36.655 39.637-63.734 77.404-69.965 6.991-1.154 22.642-1.154 29.633 0 41.257 6.807 72.625 38.175 79.432 79.431 1.85 11.211.998 27.643-2.028 39.1-9.657 36.57-39.811 63.872-77.228 69.921-4.454.72-18.981 1.232-23.46.826m22.401-5.72c52.756-8.696 86.477-59.58 73.702-111.214-8.706-35.184-37.598-61.553-73.878-67.425-6.899-1.117-21.007-1.118-27.693-.003-39.313 6.559-69.069 36.348-75.386 75.472-1.068 6.615-1.147 20.3-.155 26.736 6.489 42.08 39.946 73.562 82.067 77.22 4.23.368 17.254-.112 21.343-.787"
   style="display:inline;fill:#616161;fill-opacity:1;stroke:none;stroke-width:.352778;stroke-opacity:1"
   transform="matrix(3.68074 0 0 3.68391 -33.948 319.375)"
   id="path2" />
    </g>
    <path
   d="M187.064 352.704h151.76"
   style="fill:#616161;fill-opacity:.766511;stroke:#0074D9;stroke-width:8.50394;stroke-miterlimit:3.6;stroke-dasharray:none"
   transform="matrix(1.33333 0 0 -1.33333 -.092 1217.1)"
   id="path3" />
    <path
   d="M262.944 202.316v150.388"
   style="fill:#616161;fill-opacity:.766511;stroke:#0074D9;stroke-width:8.50394;stroke-miterlimit:3.6;stroke-dasharray:none"
   transform="matrix(1.33333 0 0 -1.33333 12.7 1217.1)"
   id="path4" />
    <path
   d="M243.755 333.456v-131.14"
   style="fill:#616161;fill-opacity:.766511;stroke:#0074D9;stroke-width:8.50395;stroke-miterlimit:3.6;stroke-dasharray:none"
   transform="matrix(1.33333 0 0 -1.33333 12.7 1217.1)"
   id="path5" />
  </g>
  <g
   style="fill:#616161"
   id="g8">
    <path
   d="m1439.791 594.88 103.842 103.934M858.998 13.588 962.194 116.87m480.701-3.577 99.057-99.144M860.492 696.2l98.815-98.902"
   style="fill:#616161;stroke:#ff851b;stroke-width:22.0939;stroke-linecap:butt;stroke-linejoin:miter;stroke-dasharray:none;stroke-opacity:1"
   transform="translate(444.142 491.568)"
   id="path6" />
    <path
   d="M1170.405 706.405c-147.303-13.358-270.523-117.531-308.277-260.625-14.77-55.988-14.77-122.925 0-178.913 35.63-135.034 145.894-234.79 284.904-257.745 25.732-4.251 83.34-4.251 109.072 0 151.856 25.076 267.314 140.633 292.368 292.617 6.81 41.3 3.674 101.834-7.464 144.04-35.545 134.721-146.534 235.3-284.256 257.583-16.394 2.653-69.865 4.539-86.35 3.043m82.452-21.072c194.18-32.035 318.299-219.487 271.277-409.702-32.044-129.615-138.388-226.756-271.925-248.388-25.394-4.115-77.322-4.118-101.93-.01-144.702 24.162-254.226 133.902-277.477 278.031-3.931 24.37-4.222 74.784-.57 98.493 23.884 155.02 147.03 270.996 302.067 284.472 15.57 1.355 63.507-.413 78.558-2.9"
   style="display:inline;fill:#616161;fill-opacity:1;stroke:none;stroke-width:1.29904;stroke-opacity:1"
   transform="translate(444.142 491.568)"
   id="path7" />
    <path
   d="M1100.376 255.262h202.346M1214.341 455.778V255.262M1188.756 280.926v174.852"
   style="fill:#616161;fill-opacity:.766511;stroke:#ff4136;stroke-width:11.3386;stroke-miterlimit:3.6;stroke-dasharray:none"
   transform="translate(444.142 491.568)"
   id="path8" />
  </g>
  <text
   x="1343.206"
   y="762.156"
   style="font-size:490.929px;font-family:Inter;-inkscape-font-specification:Inter;text-align:start;writing-mode:lr-tb;direction:ltr;text-anchor:start;fill:#616161;stroke:none;stroke-width:87.6656;stroke-linecap:round;stroke-linejoin:round;stroke-dasharray:87.6656,175.332;stroke-dashoffset:0;paint-order:stroke fill markers"
   transform="translate(-514.466 264.354)"
   id="text8">
        <tspan
   x="1343.206"
   y="762.156"
   style="stroke-width:87.6656"
   id="tspan8">V</tspan>
      </text>
  <g
   style="fill:#616161"
   id="g11">
    <path
   d="m441.626 97.989 77.882-77.95c115.7-121.636 115.7-121.636 233.78 1.961L827.4 96.176M6.03 533.96l77.397-77.463m360.527 2.683 74.293 74.358c116.96 122.058 116.96 122.058 233.92.422l77.398-77.463M7.15 22l74.112 74.176"
   style="fill:none;stroke:#ff851b;stroke-width:16.5705;stroke-linecap:butt;stroke-linejoin:miter;stroke-dasharray:none;stroke-opacity:1"
   transform="matrix(0 1.33333 1.33333 0 2676.336 -.092)"
   id="path9" />
    <g
   style="display:inline;fill:#616161"
   id="g10">
      <path
   d="M95.987 238.496c-40.02-3.626-73.497-31.904-83.754-70.747-4.013-15.198-4.013-33.368 0-48.566 9.68-36.655 39.637-63.734 77.404-69.965 6.991-1.154 22.642-1.154 29.633 0 41.257 6.807 72.625 38.175 79.432 79.431 1.85 11.211.998 27.643-2.028 39.1-9.657 36.57-39.811 63.872-77.228 69.921-4.454.72-18.981 1.232-23.46.826m22.401-5.72c52.756-8.696 86.477-59.58 73.702-111.214-8.706-35.184-37.598-61.553-73.878-67.425-6.899-1.117-21.007-1.118-27.693-.003-39.313 6.559-69.069 36.348-75.386 75.472-1.068 6.615-1.147 20.3-.155 26.736 6.489 42.08 39.946 73.562 82.067 77.22 4.23.368 17.254-.112 21.343-.787"
   style="display:inline;fill:#616161;fill-opacity:1;stroke:none;stroke-width:.352778;stroke-opacity:1"
   transform="matrix(0 3.68074 -3.68391 0 3574.061 -33.948)"
   id="path10" />
    </g>
    <path
   d="M253.076 448.081V245.735M453.593 334.116H253.076M278.74 359.701h174.853"
   style="fill:#616161;fill-opacity:.766511;stroke:#0074D9;stroke-width:11.3386;stroke-miterlimit:3.6;stroke-dasharray:none"
   transform="rotate(90 1698.046 1698.045)"
   id="path11" />
  </g>
  <g
   style="fill:#616161"
   id="g14">
    <path
   d="m1439.791 960.88 103.842 103.934m-100.738-585.52 99.057-99.144"
   style="fill:none;stroke:#ff851b;stroke-width:22.0939;stroke-linecap:butt;stroke-linejoin:miter;stroke-dasharray:none;stroke-opacity:1"
   transform="rotate(90 1812.035 1955.833)"
   id="path12" />
    <path
   d="M1170.405 1072.405c-147.303-13.358-270.523-117.531-308.277-260.625-14.77-55.988-14.77-122.925 0-178.913 35.63-135.034 145.894-234.79 284.904-257.745 25.732-4.251 83.34-4.251 109.072 0 151.856 25.076 267.314 140.633 292.368 292.617 6.81 41.3 3.674 101.834-7.464 144.04-35.545 134.721-146.534 235.3-284.256 257.583-16.394 2.653-69.865 4.539-86.35 3.043m82.452-21.072c194.18-32.035 318.299-219.487 271.277-409.702-32.044-129.615-138.388-226.756-271.925-248.388-25.394-4.115-77.321-4.118-101.93-.01-144.702 24.162-254.226 133.902-277.477 278.031-3.931 24.37-4.222 74.784-.57 98.493 23.884 155.02 147.03 270.996 302.067 284.472 15.57 1.355 63.507-.413 78.558-2.9"
   style="display:inline;fill:#616161;fill-opacity:1;stroke:none;stroke-width:1.29904;stroke-opacity:1"
   transform="rotate(90 1812.035 1955.833)"
   id="path13" />
    <path
   d="M1104.125 819.858V617.512M1304.642 705.893h-200.517M1129.79 731.479h174.852"
   style="fill:#616161;fill-opacity:.766511;stroke:#ff4136;stroke-width:11.3386;stroke-miterlimit:3.6;stroke-dasharray:none"
   transform="rotate(90 1812.035 1955.833)"
   id="path14" />
  </g>
  <path
   d="m 2616.8956,1568.5938 v -72.151 h 392.9182 v 72.151 z m 0,-188.6356 v -72.1509 h 392.9182 v 72.1509 z"
   id="text14"
   style="font-size:890.151px;font-family:Inter;-inkscape-font-specification:Inter;fill:#616161;stroke-width:158.955;stroke-linecap:round;stroke-linejoin:round;stroke-dasharray:158.955, 317.911;paint-order:stroke fill markers"
   transform="translate(-533.322 -590.276)"
   aria-label="           =        " />
</svg>
