<?xml version="1.0" encoding="UTF-8" standalone="no"?>
<svg
   xml:space="preserve"
   viewBox="0 0 1088.952 1475.277"
   version="1.1"
   id="svg5"
   sodipodi:docname="fig-closure-num.svg"
   inkscape:version="1.4.2 (ebf0e940d0, 2025-05-08)"
   xmlns:inkscape="http://www.inkscape.org/namespaces/inkscape"
   xmlns:sodipodi="http://sodipodi.sourceforge.net/DTD/sodipodi-0.dtd"
   xmlns="http://www.w3.org/2000/svg"
   xmlns:svg="http://www.w3.org/2000/svg"><defs
   id="defs5" /><sodipodi:namedview
   id="namedview5"
   pagecolor="#ffffff"
   bordercolor="#000000"
   borderopacity="0.25"
   inkscape:showpageshadow="2"
   inkscape:pageopacity="0.0"
   inkscape:pagecheckerboard="0"
   inkscape:deskcolor="#d1d1d1"
   inkscape:zoom="0.36871254"
   inkscape:cx="62.379218"
   inkscape:cy="2404.312"
   inkscape:window-width="2234"
   inkscape:window-height="1418"
   inkscape:window-x="0"
   inkscape:window-y="0"
   inkscape:window-maximized="1"
   inkscape:current-layer="svg5" />
  <g
   style="fill:#616161"
   id="g5">
    <path
   d="m441.626 97.989 77.882-77.95C683.547-143.791-157.656-143.791 7.15 22l74.112 74.176M443.954 459.18l74.293 74.358c165.3 164.029-675.903 164.029-512.217.422l77.397-77.463"
   style="fill:none;stroke:#ff851b;stroke-width:16.5705;stroke-linecap:butt;stroke-linejoin:miter;stroke-dasharray:none;stroke-opacity:1"
   transform="matrix(1.90204 0 0 -1.90169 44.598 1264.428)"
   id="path1" />
    <g
   style="display:inline;fill:#616161"
   id="g2">
      <path
   d="M95.987 238.496c-40.02-3.626-73.497-31.904-83.754-70.747-4.013-15.198-4.013-33.368 0-48.566 9.68-36.655 39.637-63.734 77.404-69.965 6.991-1.154 22.642-1.154 29.633 0 41.257 6.807 72.625 38.175 79.432 79.431 1.85 11.211.998 27.643-2.028 39.1-9.657 36.57-39.811 63.872-77.228 69.921-4.454.72-18.981 1.232-23.46.826m22.401-5.72c52.756-8.696 86.477-59.58 73.702-111.214-8.706-35.184-37.598-61.553-73.878-67.425-6.899-1.117-21.007-1.118-27.693-.003-39.313 6.559-69.069 36.348-75.386 75.472-1.068 6.615-1.147 20.3-.155 26.736 6.489 42.08 39.946 73.562 82.067 77.22 4.23.368 17.254-.112 21.343-.787"
   style="display:inline;fill:#616161;fill-opacity:1;stroke:none;stroke-width:.352778;stroke-opacity:1"
   transform="matrix(5.2507 0 0 5.25425 -3.699 -15.97)"
   id="path2" />
    </g>
    <path
   d="M187.064 352.704h151.76"
   style="fill:#616161;fill-opacity:.766511;stroke:#ff4136;stroke-width:8.50394;stroke-miterlimit:3.6;stroke-dasharray:none"
   transform="matrix(1.90204 0 0 -1.90169 44.598 1264.428)"
   id="path3" />
    <path
   d="M262.944 202.316v150.388"
   style="fill:#616161;fill-opacity:.766511;stroke:#ff4136;stroke-width:8.50394;stroke-miterlimit:3.6;stroke-dasharray:none"
   transform="matrix(1.90204 0 0 -1.90169 62.846 1264.428)"
   id="path4" />
    <path
   d="M243.755 333.456v-131.14"
   style="fill:#616161;fill-opacity:.766511;stroke:#ff4136;stroke-width:8.50395;stroke-miterlimit:3.6;stroke-dasharray:none"
   transform="matrix(1.90204 0 0 -1.90169 62.846 1264.428)"
   id="path5" />
  </g>
  
</svg>
