<svg xmlns="http://www.w3.org/2000/svg" viewBox="0 0 2446.957 1110.929">
  <g style="fill:#616161">
    <path d="m441.626 97.989 77.882-77.95M6.03 533.96l77.397-77.463m360.527 2.683 74.293 74.358M7.15 22l74.112 74.176" style="fill:#616161;stroke:#ff851b;stroke-width:16.5705;stroke-linecap:butt;stroke-linejoin:miter;stroke-dasharray:none;stroke-opacity:1" transform="matrix(1.33333 0 0 -1.33333 144.94 863.33)"/>
    <g style="display:inline;fill:#616161">
      <path d="M95.987 238.496c-40.02-3.626-73.497-31.904-83.754-70.747-4.013-15.198-4.013-33.368 0-48.566 9.68-36.655 39.637-63.734 77.404-69.965 6.991-1.154 22.642-1.154 29.633 0 41.257 6.807 72.625 38.175 79.432 79.431 1.85 11.211.998 27.643-2.028 39.1-9.657 36.57-39.811 63.872-77.228 69.921-4.454.72-18.981 1.232-23.46.826m22.401-5.72c52.756-8.696 86.477-59.58 73.702-111.214-8.706-35.184-37.598-61.553-73.878-67.425-6.899-1.117-21.007-1.118-27.693-.003-39.313 6.559-69.069 36.348-75.386 75.472-1.068 6.615-1.147 20.3-.155 26.736 6.489 42.08 39.946 73.562 82.067 77.22 4.23.368 17.254-.112 21.343-.787" style="display:inline;fill:#616161;fill-opacity:1;stroke:none;stroke-width:.352778;stroke-opacity:1" transform="matrix(3.68074 0 0 3.68391 111.083 -34.396)"/>
    </g>
    <path d="M187.064 352.704h151.76" style="fill:#616161;fill-opacity:.766511;stroke:#ff4136;stroke-width:8.50394;stroke-miterlimit:3.6;stroke-dasharray:none" transform="matrix(1.33333 0 0 -1.33333 144.94 863.33)"/>
    <path d="M262.944 202.316v150.388" style="fill:#616161;fill-opacity:.766511;stroke:#ff4136;stroke-width:8.50394;stroke-miterlimit:3.6;stroke-dasharray:none" transform="matrix(1.33333 0 0 -1.33333 157.731 863.33)"/>
    <path d="M243.755 333.456v-131.14" style="fill:#616161;fill-opacity:.766511;stroke:#ff4136;stroke-width:8.50395;stroke-miterlimit:3.6;stroke-dasharray:none" transform="matrix(1.33333 0 0 -1.33333 157.731 863.33)"/>
  </g>
  <g style="fill:#616161">
    <path d="m1439.791 594.88 103.842 103.934M858.998 13.588 962.194 116.87m480.701-3.577 99.057-99.144M860.492 696.2l98.815-98.902" style="fill:#616161;stroke:#ff851b;stroke-width:22.0939;stroke-linecap:butt;stroke-linejoin:miter;stroke-dasharray:none;stroke-opacity:1" transform="matrix(0 1 1 0 1740.023 -707.397)"/>
    <path d="M1170.405 706.405c-147.303-13.358-270.523-117.531-308.277-260.625-14.77-55.988-14.77-122.925 0-178.913 35.63-135.034 145.894-234.79 284.904-257.745 25.732-4.251 83.34-4.251 109.072 0 151.856 25.076 267.314 140.633 292.368 292.617 6.81 41.3 3.674 101.834-7.464 144.04-35.545 134.721-146.534 235.3-284.256 257.583-16.394 2.653-69.865 4.539-86.35 3.043m82.452-21.072c194.18-32.035 318.299-219.487 271.277-409.702-32.044-129.615-138.388-226.756-271.925-248.388-25.394-4.115-77.322-4.118-101.93-.01-144.702 24.162-254.226 133.902-277.477 278.031-3.931 24.37-4.222 74.784-.57 98.493 23.884 155.02 147.03 270.996 302.067 284.472 15.57 1.355 63.507-.413 78.558-2.9" style="display:inline;fill:#616161;fill-opacity:1;stroke:none;stroke-width:1.29904;stroke-opacity:1" transform="matrix(0 1 1 0 1740.023 -707.397)"/>
    <path d="M1100.376 255.262h202.346M1214.341 455.778V255.262M1188.756 280.926v174.852" style="fill:#616161;fill-opacity:.766511;stroke:#ff4136;stroke-width:11.3386;stroke-miterlimit:3.6;stroke-dasharray:none" transform="matrix(0 1 1 0 1740.023 -707.397)"/>
  </g>
  <g style="display:inline">
    <g style="display:inline">
      <path d="m93.908 43.832.068 10.978 13.11-5.531zm-18.973 3.68v3.63h13.586v-3.63z" style="fill:none;stroke:#616161;stroke-width:7.68828;stroke-linejoin:miter;stroke-miterlimit:4.1" transform="translate(278.244 -47.652)scale(10.81755)"/>
    </g>
  </g>
  <text x="154.953" y="118.05" style="font-size:112px;font-family:Inter;-inkscape-font-specification:Inter;text-align:start;writing-mode:lr-tb;direction:ltr;text-anchor:start;fill:#616161;stroke:none;stroke-width:37.7953;stroke-linecap:round;stroke-linejoin:round;paint-order:stroke fill markers" transform="translate(-31.434 5.469)">
    <tspan x="154.953" y="118.05">NW</tspan>
  </text>
  <g style="fill:#616161">
    <text x="59.806" y=".185" style="font-size:112px;font-family:Inter;-inkscape-font-specification:Inter;text-align:start;writing-mode:lr-tb;direction:ltr;text-anchor:start;fill:#616161;stroke:none;stroke-width:37.7953;stroke-linecap:round;stroke-linejoin:round;paint-order:stroke fill markers" transform="translate(777.809 838.02)">
      <tspan x="59.806" y=".185">SE</tspan>
    </text>
  </g>
  <path d="m41.434 4.531 1100.93 1100.929" style="fill:none;stroke:#0074d9;stroke-width:20;stroke-linecap:round;stroke-linejoin:round;stroke-dasharray:20,40;stroke-dashoffset:0;paint-order:stroke fill markers" transform="translate(-31.434 5.469)"/>
  <path d="m839.535 980.382 4.575-13.652.377-.218.385-.226.396-.23.386-.225.396-.23.376-.217.397-.23.385-.226.388-.222.385-.225.396-.23.38-.215.393-.233.388-.222.385-.225.396-.23.377-.218.396-.23.385-.225.965-.57.389-.238.394-.233.388-.238.389-.24.39-.235.392-.235.397-.246.392-.236.388-.238.391-.236.391-.235.398-.246.39-.236.39-.238.39-.236.4-.243.389-.238.391-.236.389-.239.39-.235.4-.243.39-.239.98-.603.394-.25.395-.248.4-.259.387-.241.4-.26.395-.248.395-.249.392-.251.403-.256.384-.245.403-.256.395-.249.392-.251.403-.256.384-.244.403-.257.395-.248.392-.252.395-.249.403-.256.4-.259.387-.241.403-.256.988-.646.396-.264.398-.262.396-.265.398-.262.398-.262.396-.265.398-.262.396-.264.398-.262.396-.265.398-.262.398-.262.396-.265.398-.262.396-.265.398-.262.396-.264.398-.262.395-.265.399-.262.398-.262.395-.265.996-.672.399-.278.401-.275.4-.278.393-.267.399-.278.402-.275.399-.278.402-.275.39-.27.402-.276.4-.278.398-.278.402-.275.39-.27.402-.275.4-.279.401-.275.39-.27.403-.275.399-.278.402-.275.39-.27 1.008-.709.399-.279.406-.286.399-.28.403-.29.398-.28.407-.286.398-.279.407-.286.394-.283.407-.287.398-.279.407-.286.398-.28.404-.29.398-.279.407-.286.398-.28.407-.286.395-.283.398-.279.407-.286.398-.28.407-.286.999-.735-.077-11.068-.397.298-.396.298-.397.298.004.005-.406.286-.399.279-.406.287-.395.283-.407.286-.398.28-.407.286-.398.279-.403.29-.398.28-.407.286-.398.279-.407.286-.395.284-.398.279-.407.286-.398.28-.407.286-.394.283-.407.286-.398.28-.407.286-.398.279-.4.278-.401.275-.4.278-.401.275-.39.27-.403.275-.399.279-.401.274-.391.271-.402.275-.399.278-.402.275-.39.27-.402.276-.4.278-.401.275-.4.278-.393.267-.399.278-.401.275-.4.278-.401.275-.396.265-.398.262-.396.265-.398.262-.396.264-.398.262-.396.265-.398.262-.396.265-.398.262-.398.262-.396.265-.398.262-.395.264-.399.262-.395.265-.398.262-.399.262-.395.265-.398.262-.396.264-.398.263-.401.258-.392.252-.406.253-.393.252-.403.256-.384.244-.403.256-.392.252-.395.248-.394.25-.401.258-.386.241-.401.26-.397.245-.393.252-.4.259-.387.24-.403.257-.392.252-.395.248-.392.252-.403.256-.386.241-.008.007-.392.236-.388.239-.391.235-.4.243-.388.239-.392.236-.388.238-.4.243-.391.236-.389.238-.391.236-.389.238-.4.243-.39.236-.39.238-.39.236-.39.238-.399.243-.391.236-.389.238-.391.236-.397.245-.004-.005-.394.233-.388.223-.385.225-.396.23-.377.218-.396.23-.385.225-.388.222-.385.226-.387.222-.397.23-.376.218-.397.23-.385.225-.387.223-.385.225-.397.23-.376.218-.386.225 5.539-16.534-58.123 46.607zm-144.38 38.253 17.524-17.242.168.074.192.05.183.071.194.052.18.07.194.051.16.082.197.055.178.067.196.054.178.067.196.055.178.067.196.055.178.067.197.055.177.067.194.052.18.07.482.142.194.052.195.052.194.052.195.052.194.052.194.052.195.052.194.052.194.052.195.052.194.052.195.052.194.052.194.052.195.052.194.052.194.051.194.052.195.052.194.052.195.052.194.052.511.107.218.027.211.037.218.027.22.03.217.027.22.03.209.034.22.03.217.026.22.03.218.027.21.037.218.027.22.03.217.026.22.03.209.035.22.03.217.027.218.027.222.032.21.034.22.03.565.05.225.02.232.01.226.018.233.012.227.02.233.011.224.016.234.012.226.02.233.011.224.016.234.012.226.02.234.011.223.016.234.012.226.02.234.011.226.02.232.01.226.018.234.012.594.014h.729l.249-.01h.24l.249-.01.249-.01h.24l.248-.01h.24l.25-.01h.24l.248-.01.25-.01h.24l.248-.01h.24l.249-.01h.24l.249-.01.249-.01h.24l.632-.028.254-.016.263-.024.265-.02.253-.018.265-.02.252-.019.266-.02.263-.024.257-.013.26-.026.257-.013.263-.024.263-.024.257-.013.26-.026.257-.013.269-.033.257-.013.254-.016.266-.02.252-.019.273-.027.65-.059.278-.04.268-.034.28-.038.27-.033.277-.04.278-.042.269-.034.28-.038.269-.033.277-.04.278-.042.269-.034.28-.038.269-.033.277-.04.278-.042.272-.03.277-.042.27-.033.277-.04.278-.042.27-.03.696-.11.292-.058.286-.048.29-.06.294-.056.284-.05.291-.059.287-.048.289-.06.286-.049.292-.058.284-.05.291-.059.287-.048.289-.06.286-.049.292-.058.283-.05.294-.057.281-.054.294-.056.281-.054.294-.056.72-.15.306-.076.298-.07.306-.076.298-.07.298-.068.306-.077.298-.07.298-.068.307-.077.297-.07.298-.068.31-.073.297-.07.304-.078.298-.07.3-.065.307-.077.298-.07.298-.068.306-.077.298-.07.306-.076.755-.196.312-.086.312-.086.312-.086.31-.089.321-.094.312-.086.313-.086.312-.086.312-.087.318-.096.313-.087.312-.086.312-.086.312-.087.31-.089.32-.094.313-.086.312-.087.312-.086.313-.086.31-.09.32-.093.783-.23.325-.108.324-.107.328-.104.324-.108.327-.104.325-.107.327-.104.325-.107.326-.105.316-.1.327-.104.324-.107.328-.104.324-.108.327-.104.327-.104.324-.107.327-.105.325-.107.327-.104.324-.107.319-.097.813-.282.339-.124.338-.125.34-.125.332-.114.339-.124.037-.06.045-.068.046-.067.045-.067.046-.068.045-.067.046-.067.045-.067.046-.068.045-.067.046-.067.045-.068.046-.067.045-.067.046-.068.045-.067.046-.067.045-.067.046-.068.045-.067.046-.067.045-.068.046-.067.045-.067.046-.068.045-.067.046-.067.045-.067.046-.068.045-.067.046-.067.045-.068.046-.067.045-.067.046-.068.045-.067.046-.067.045-.067.046-.068.045-.067.046-.067.045-.068.046-.067.045-.067.046-.068.045-.067.046-.067.045-.067.046-.068.046-.067.045-.067.046-.067.045-.067.046-.068.045-.067.046-.067.037-.06.045-.068.046-.067.045-.067.046-.067.045-.068.046-.067.045-.067.046-.068.045-.067.046-.067.045-.068.046-.067.045-.067.046-.067.045-.068.046-.067.045-.067.046-.068.045-.067.046-.067.045-.068.046-.067.045-.067.046-.067.045-.068.046-.067.045-.067.046-.068.045-.067.046-.067.045-.068.046-.067.045-.067.046-.067.045-.068.046-.067.045-.067.046-.068.045-.067.046-.067.045-.068.046-.067.045-.067.046-.067.045-.068.046-.067.045-.067.046-.068.045-.067.046-.067.045-.068.046-.067.045-.067.046-.067.045-.068.046-.067.045-.067.046-.068.045-.067.046-.067.045-.068.038-.06.045-.067.046-.067.045-.068.046-.067.045-.067.046-.067.045-.067.046-.068.045-.067.046-.067.045-.068.046-.067.045-.067.046-.067.045-.068.046-.067.045-.067.046-.068.045-.067.046-.067.045-.068.046-.067.046-.067.045-.067.046-.067.045-.068.046-.067.045-.067.046-.067.045-.068.046-.067.045-.067.046-.068.045-.067.046-.067.045-.068.046-.067.045-.067.046-.067.045-.068.046-.067.045-.067.046-.068.045-.067.046-.067.045-.068.046-.067.045-.067.046-.067.045-.068.046-.067.045-.067.046-.068.045-.067.046-.067.045-.068.046-.067.045-.067.046-.067.045-.068.046-.067.045-.067.037-.06.046-.068.045-.067.046-.067.045-.067.046-.068.045-.067.046-.067.045-.068.046-.067.045-.067.046-.068.045-.067.046-.067.045-.067.046-.068.045-.067.046-.067.046-.067.045-.067.046-.068.045-.067.046-.067.045-.068.046-.067.045-.067.046-.068.045-.067.046-.067.045-.067.046-.068.045-.067.046-.067.045-.068.046-.067.045-.067.046-.067.046-.067.045-.068.046-.067.045-.067.046-.068.045-.067.046-.067.045-.067.046-.068.045-.067.046-.067.045-.068.046-.067.045-.067.046-.068.045-.067.046-.067.046-.067.045-.067.046-.068.045-.067.046-.067.045-.067.046-.068.045-.067.037-.06.046-.067.045-.068.046-.067.045-.067.046-.067.045-.068.046-.067.045-.067.046-.068.045-.067.046-.067.045-.068-.341.122-.33.117-.34.125-.338.124-.33.118-.005-.005-.327.104-.325.107-.327.104-.324.107-.327.105-.325.107-.327.105-.324.107-.327.104-.325.107-.327.105-.324.107-.319.097-.324.107-.327.105-.324.107-.328.104-.324.107-.327.105-.328.104-.324.107-.327.104-.32.094-.313.086-.312.087-.313.086-.32.094-.31.089-.313.086-.312.086-.312.087-.32.094-.313.086-.31.09-.312.085-.312.087-.313.086-.32.094-.313.086-.31.09-.312.086-.312.086-.32.094-.313.086-.31.073-.297.07-.298.068-.306.077-.298.069-.297.068-.307.077-.298.07-.306.076-.298.069-.298.069-.306.076-.298.069-.298.07-.306.076-.298.069-.307.076-.297.069-.298.07-.307.076-.298.069-.297.068-.003-.004-.295.056-.289.061-.286.048-.292.058-.284.052-.291.058-.287.048-.289.061-.286.049-.291.058-.284.051-.295.056-.28.054-.295.056-.283.05-.292.06-.286.048-.29.061-.285.048-.292.059-.284.051-.291.058-.003-.004-.27.034-.277.04-.27.034-.277.041-.28.038-.269.034-.278.04-.269.034-.28.038-.277.041-.27.034-.277.04-.269.034-.28.038-.278.041-.269.034-.278.04-.277.041-.271.031-.278.041-.27.034-.277.04-.003-.004-.263.024-.254.016-.263.023-.265.02-.253.02-.265.02-.255.016-.262.023-.263.024-.257.013-.26.026-.266.02-.255.016-.262.024-.257.013-.261.026-.265.02-.255.016-.263.024-.254.016-.265.02-.26.027-.004-.004-.24-.001-.25.006-.24-.002-.248.006-.24-.002-.249.006-.249.006-.24-.002-.249.006-.24-.002-.249.006-.24-.002-.249.006-.248.006-.24-.002-.25.006-.24-.002-.248.006-.24-.002-.25.006-.248.006-.24-.002-.234-.012-.223-.017-.234-.012-.226-.02-.234-.012-.224-.016-.234-.012-.226-.02-.234-.012-.223-.016-.234-.012-.226-.02-.235-.012-.225-.02-.232-.008-.225-.02-.234-.012-.226-.019-.234-.012-.224-.016-.233-.012-.226-.02-.008.008-.218-.027-.22-.03-.21-.037-.218-.026-.22-.03-.217-.027-.22-.03-.209-.034-.22-.03-.217-.026-.22-.03-.218-.027-.211-.037-.217-.026-.22-.03-.218-.027-.22-.03-.208-.033-.22-.03-.218-.027-.217-.026-.22-.03-.209-.034-.194-.052-.195-.052-.194-.052-.195-.052-.194-.051-.194-.052-.195-.052-.194-.052-.194-.052-.195-.052-.194-.051-.194-.052-.195-.052-.194-.052-.194-.052-.195-.052-.194-.052-.194-.051-.195-.052-.194-.052-.195-.052-.194-.052-.194-.051-.188-.062-.186-.06-.188-.061-.186-.06-.17-.076-.187-.06-.188-.062-.186-.059-.186-.06-.188-.061-.186-.06-.188-.062-.186-.059-.188-.062-.186-.06-.19-.064-.184-.057-.169-.074 21.217-20.874-44.884 11.026zm-2.65-100.239 17.815-8.235-.16.31-.165.31-.167.32-.17.32-.16.31-.167.322-.17.319-.16.311-.38.763-.15.307-.148.31-.15.307-.139.302-.15.307-.148.31-.15.307-.149.31-.15.306-.148.31-.15.307-.149.31-.147.31-.15.307-.149.31-.141.3-.148.31-.15.306-.148.31-.15.307-.148.31-.15.307-.336.745-.128.297-.13.295-.128.298-.137.305-.128.297-.128.298-.128.297-.13.295-.129.298-.136.305-.128.297-.128.298-.128.298-.131.294-.128.298-.137.305-.128.297-.128.298-.13.294-.128.298-.137.305-.305.728-.108.285-.11.286-.117.293-.109.286-.117.293-.11.286-.108.286-.118.293-.11.286-.111.3-.112.282-.117.294-.11.285-.108.286-.117.293-.11.286-.117.293-.109.286-.109.285-.117.294-.109.285-.109.286-.263.707-.087.277-.097.281-.098.281-.09.274-.094.284-.092.271-.095.284-.09.274-.097.281-.089.274-.095.284-.092.271-.095.284-.09.274-.097.281-.09.274-.094.284-.092.271-.095.284-.09.274-.097.281-.087.277-.216.676-.07.261-.078.27-.078.27-.068.264-.078.27-.07.261-.078.27-.078.27-.068.264-.078.27-.079.268-.07.263-.075.272-.07.262-.078.27-.079.269-.07.262-.076.272-.07.262-.078.27-.078.269-.068.265-.174.654-.048.253-.068.265-.05.25-.048.253-.07.262-.048.253-.05.25-.06.257-.047.252-.07.262-.048.253-.05.25-.06.257-.05.25-.065.268-.053.247-.048.253-.059.257-.06.257-.047.253-.061.255-.048.252-.125.627-.04.246-.03.238-.04.245-.03.238-.04.246-.031.238-.04.246-.04.245-.03.239-.04.246-.031.238-.04.245-.03.238-.04.246-.04.246-.031.238-.04.246-.03.238-.04.245-.031.238-.04.246-.04.246-.03.238-.056.586-.02.234-.014.223-.012.227-.02.233-.011.227-.022.23-.012.227-.02.233-.012.226-.022.231-.012.226-.02.234-.01.226-.02.234-.015.224-.02.233-.011.227-.02.233-.011.227-.022.23-.012.227-.02.233-.01.553-.001.222-.003.219v.222l-.004.219.008.214-.003.219v.222l-.003.219-.003.219.008.214-.003.22-.001.221-.003.219v.222l.004.211v.222l-.003.22v.221l-.004.22.008.214-.003.218v.222l.02.536.025.2.025.2.024.199.025.2.025.2.025.199.025.2.025.2.025.199.024.199.025.2.025.2.025.199.025.2.025.2.025.199.025.2.025.199.024.2.025.2.025.199.025.2.025.2.093.482.024.2.042.184.027.202.042.185.028.202.041.185.028.202.042.185.027.202.042.185.025.2.044.187.025.2.044.187.025.2.044.187.076-.066.08-.063.076-.067.08-.063.076-.066.079-.063.076-.066.08-.063.076-.067.08-.062.075-.067.08-.063.076-.066.08-.063.076-.067.079-.062.076-.067.08-.063.076-.066.08-.063.075-.066.08-.063.076-.067.08-.063.076-.066.079-.063.076-.066.08-.063.076-.067.08-.062.075-.067.08-.063.076-.066.08-.063.076-.067.08-.062.075-.067.08-.063.076-.066.08-.063.075-.066.08-.063.076-.067.08-.063.076-.066.08-.063.075-.066.08-.063.076-.067.08-.062.075-.067.08-.063.076-.066.08-.063.076-.067.08-.062.075-.067.08-.063.076-.066.08-.063.075-.066.08-.063.076-.067.08-.063.076-.066.08-.063.075-.066.08-.063.076-.067.08-.062.075-.067.08-.063.076-.066.08-.063.076-.067.08-.062.075-.067.08-.063.076-.066.08-.063.075-.066.08-.063.076-.067.08-.063.076-.066.08-.063.075-.066.08-.063.076-.067.08-.062.075-.067.08-.063.076-.066.08-.063.076-.067.08-.062.075-.067.08-.063.076-.066.08-.063.075-.066.08-.063.076-.067.08-.063.076-.066.08-.063.075-.066.08-.063.076-.067.08-.062.075-.067.08-.063.076-.066.08-.063.076-.066.08-.063.075-.067.08-.063.076-.066.08-.063.075-.066.08-.063.076-.067.08-.062.076-.067.08-.063.075-.066.08-.063.076-.067.08-.062.075-.067.08-.063.076-.066.08-.063.076-.066.08-.063.075-.067.08-.063.076-.066.08-.063.075-.066.08-.063.076-.067.08-.062.076-.067.08-.063.075-.066.08-.063.076-.067.08-.062.075-.067.08-.063.076-.066.08-.063.076-.066.08-.063.075-.067.08-.063.076-.066.08-.063.075-.066.08-.063.076-.067.08-.062.076-.067.08-.063.075-.066.08-.063.076-.067.08-.062.075-.067.08-.063.076-.066.08-.063.076-.066.08-.063.075-.067.08-.063.076-.066.08-.063.075-.066.08-.063.076-.067.08-.062.076-.067.08-.063.075-.066.08-.063.076-.066.08-.063.075-.067.08-.062.076-.067.08-.063.076-.066.08-.063.075-.067.08-.062.076-.067.08-.063.075-.066.08-.063.076-.066.08-.063.076-.067.08-.063.075-.066.08-.063.076-.066.08-.063.075-.067.08-.062.076-.067.08-.063.076-.066.08-.063.075-.067.08-.062.076-.067.08-.063.075-.066.08-.063.076-.066.08-.063.076-.067.08-.062.075-.067.08-.063.076-.066.08-.063.075-.067.08-.062.076-.067.08-.063.076-.066.08-.063.075-.066.08-.063.076-.067.08-.063.075-.066.08-.063.076-.066.08-.063.076-.067.08-.062.075-.067.08-.063.076-.066.08-.063.075-.067.08-.062.076-.067.08-.063.076-.066.08-.063-.037-.195-.033-.192-.036-.195-.033-.192-.034-.192-.036-.195-.033-.192-.036-.195-.033-.193-.036-.195-.034-.192-.035-.195-.034-.192-.033-.192-.036-.195-.034-.192-.024-.2-.025-.2-.025-.199-.025-.2-.025-.199-.025-.2-.025-.2-.024-.199-.025-.2-.025-.199-.025-.2-.025-.2-.025-.199-.025-.199-.024-.2-.025-.2-.025-.199-.025-.2-.025-.2-.025-.199-.025-.2-.025-.199-.025-.2.003-.218v-.222l.004-.22v-.221l-.006-.211.003-.22v-.221l.004-.22v-.221l-.005-.212v-.221l.004-.22v-.222l.003-.218-.008-.215.003-.219v-.222l.004-.219v-.222l-.005-.211v-.222l.004-.22.011-.226.02-.233.012-.227.022-.23.011-.227.02-.234.012-.226.02-.234.014-.223.02-.234.01-.226.02-.234.015-.223.02-.234.011-.226.02-.234.014-.223.02-.234.012-.226.02-.234.01-.227.023-.23-.011.003.03-.238.04-.246.04-.246.031-.238.04-.245.03-.238.04-.246.031-.239.04-.245.04-.245.03-.238.04-.246.03-.238.04-.246.031-.238.04-.246.04-.246.03-.238.04-.245.03-.238.04-.246.032-.238.04-.246.007-.007.06-.257.05-.25.056-.26.053-.248.065-.267.05-.25.051-.25.056-.26.053-.248.065-.267.05-.25.051-.25.06-.257.047-.253.07-.262.048-.253.05-.25.06-.257.056-.26.053-.247.056-.26.05-.25.009-.007.078-.27.068-.264.078-.27.07-.262.078-.27.076-.271.07-.263.078-.269.07-.262.078-.27.076-.271.07-.263.078-.27.07-.261.076-.272.078-.27.07-.262.078-.27.07-.262.076-.272.079-.269.07-.262.011-.017.087-.277.1-.278.088-.277.097-.281.09-.274.094-.284.092-.27.095-.285.09-.274.097-.28.09-.275.095-.284.092-.27.094-.285.09-.274.097-.281.087-.277.1-.278.087-.277.097-.281.09-.274.097-.281.008-.007.106-.289.118-.293.108-.285.11-.286.117-.293.108-.286.118-.293.109-.286.109-.285.117-.293.11-.286.108-.286.115-.296.117-.293.11-.286.108-.286.118-.293.109-.286.118-.293.109-.286.108-.285.118-.293.136-.305.128-.298.128-.298.128-.297.137-.305.128-.298.13-.294.129-.298.128-.297.128-.298.136-.305.128-.298.13-.294.129-.298.128-.298.136-.305.128-.297.13-.295.129-.298.128-.297.136-.305.148-.31.148-.31.15-.307.148-.31.139-.302.15-.306.148-.31.15-.307.148-.31.151-.307.148-.31.15-.306.148-.31.15-.307.148-.31.15-.307.14-.303.15-.307.148-.31.15-.306.148-.31.15-.307-.003-.004.17-.319.167-.321.17-.32.16-.31.17-.32.167-.32.164-.309.161-.311 21.577-9.977.513-32.935zm141.189-167.195 5.055 6.738-.376.321-.384.329-1.356 1.182-.378.336-.38.332-.38.336-.38.333-.378.336-.39.34-.378.336-.381.332-.378.336-.381.333-.387.343-.381.333-.378.336-.381.332-.378.336-.381.333-.378.336-.39.34-.378.336-.381.332-.378.336-.381.333-.378.336-.958.869-.374.34-.374.34-.375.34-.374.34-.375.34-.374.34-.375.34-.374.34-.375.341-.374.34-.375.34-.374.34-.375.34-.374.341-.374.34-.374.34-.375.34-.375.34-.382.348-.375.34-.374.34-.374.34-.375.34-.932.881-.36.341-.367.348-.368.347-.367.348-.368.348-.367.348-.36.34-.367.348-.368.348-.368.348-.367.348-.376.355-.36.34-.368.348-.367.348-.368.348-.367.348-.36.34-.367.348-.368.348-.368.348-.367.347-.368.348-.912.886-.35.353-.349.352-.357.36-.35.352-.357.36-.35.351-.357.36-.35.352-.357.36-.35.352-.357.36-.349.352-.357.359-.35.352-.357.36-.35.352-.349.352-.357.36-.35.352-.357.36-.35.352-.357.359-.894.89-.35.352-.349.353-.35.352-.349.352-.349.353-.35.352-.349.352-.349.353-.35.352-.349.352-.349.353-.35.352-.349.352-.349.352-.35.353-.349.352-.349.352-.35.353-.349.352-.349.352-.35.353-.348.352-.35.352-.862.893-.33.356-.343.36-.33.357-.34.364-.33.356-.34.364-.334.353-.34.363-.33.357-.34.364-.33.356-.343.36-.33.357-.34.364-.33.356-.34.364-.334.353-.339.364-.33.356-.34.364-.33.356-.343.36-.833.892-.327.361-.33.358-.327.36-.32.35-.328.362-.33.357-.327.361-.32.35-.328.361-.33.358-.326.36-.322.35-.327.361-.33.358-.326.36-.33.359-.318.353-.33.358-.327.36-.33.358-.33.358-.318.353-.33.358-.798.897-.316.356-.314.36-.316.355-.314.359-.313.359-.316.356-.314.358-.316.356-.314.36-.316.355-.314.359-.314.359-.316.356-.314.358-.316.356-.314.36-.316.355-.313.359-.314.359-.316.356-.314.358-.316.356-.772.894-.291.35-.311.362-.3.357-.3.357-.312.362-.292.35-.31.362-.298.36-.303.354-.31.362-.292.35-.31.364-.302.355-.3.357-.302.354-.31.365-.29.35-.312.361-.3.357-.303.355-.308.364-.292.35-.745.89-.289.353-.286.356-.287.355-.289.353-.295.363-.29.353-.286.355-.287.356-.298.36-.286.355-.29.353-.286.355-.286.356-.298.36-.287.355-.29.352-.286.356-.295.363-.29.352-.286.356-.29.352-.286.356-.712.893-.276.35-.273.355-.276.35-.281.362-.268.343-.281.361-.276.351-.273.354-.276.35-.281.362-.267.344-.282.361-.276.35-.273.355-.275.351-.273.354-.284.358.066-.01.055-.007.051-.01.059-.004.048-.015.052-.01.058-.004.049-.015.058-.003.055-.007.052-.01.058-.004.049-.015.051-.01.059-.004.048-.015.059-.003.048-.014.052-.011.058-.003.049-.015.051-.011.059-.003.048-.015.059-.003.048-.015.052-.011.058-.003.048-.015.059-.003.048-.015.052-.01.058-.004.049-.015.051-.01.052-.012.052-.01.058-.004.049-.015.051-.01.052-.012.058-.003.049-.015.051-.01.052-.012.059-.003.048-.015.052-.01.051-.012.052-.01.059-.004.048-.015.052-.01.051-.012.059-.003.048-.014.052-.011.058-.003.049-.015.051-.011.052-.011.052-.011.058-.003.048-.015.052-.011.052-.011.058-.003.049-.015.051-.011.052-.011.052-.011.058-.003.049-.015.051-.011.059-.003.048-.015.052-.01.051-.012.052-.011.059-.003.048-.015.052-.01.051-.012.052-.01.059-.004.048-.015.052-.01.058-.004.048-.015.059-.003.048-.015.052-.01.058-.004.049-.015.058-.003.055-.007.052-.01.058-.004.049-.015.051-.01.059-.004.048-.014.059-.003.055-.007.052-.011.058-.003.048-.015.059-.003.055-.007.052-.011.058-.003.048-.015.052-.011.059-.003.048-.015.058-.003.056-.007.051-.011.052-.011.058-.003.056-.007.051-.011.059-.003.048-.015.052-.011.058-.003.049-.015.058-.003.055-.007.052-.011.058-.003.049-.015.051-.011.059-.003.048-.015.059-.003.048-.015.052-.01.058-.004.048-.015.059-.003.048-.015.052-.01.058-.004.049-.015.051-.01.052-.012.052-.01.058-.004.049-.015.051-.01.059-.004.048-.014.052-.011.052-.011.051-.012.059-.003.048-.014.052-.011.051-.011.059-.003.048-.015.052-.011.052-.011.051-.011.059-.003.048-.015.052-.011.052-.011.058-.003.048-.015.052-.011.052-.011.058-.003.049-.015.051-.011.052-.011.052-.011.058-.003.048-.015.052-.011.052-.011.052-.011.051-.011.052-.011.058-.003.049-.015.051-.011.052-.011.052-.011.058-.003.049-.015.051-.01.052-.012.052-.011.058-.003.049-.015.051-.01.059-.004.048-.015.059-.003.048-.015.052-.01.058-.004.048-.015.052-.01.059-.004.048-.015.058-.003.049-.015.051-.01.059-.004.048-.015.059-.003.055-.007.051-.01.059-.004.048-.014.059-.003.055-.007.052-.011.058-.003.048-.015.052-.011.059-.003.048-.015.058-.003.055-.007.052-.011.059-.003.048-.015.052-.011.058-.003.048-.015.059-.003.048-.015.052-.01.058-.004.049-.015.051-.01.059-.004.048-.015.059-.003.048-.015.059-.003.048-.015.058-.003.049-.014.051-.011.059-.003.048-.015.059-.003.048-.015.052-.011.058-.003.048-.015.276-.35.282-.362.267-.344.281-.361.276-.351.273-.354.276-.35.281-.362.267-.343.282-.362.276-.35.273-.354.284-.359.265-.346.284-.358.264-.347.285-.358.295-.363.289-.353.286-.355.287-.356.29-.352.294-.363.29-.353.286-.355.287-.356.289-.352.295-.363.29-.353.286-.355.287-.356.298-.36.286-.355.287-.355.289-.353.286-.356.298-.36.287-.355.286-.356.008-.007.31-.364.293-.347.309-.365.3-.357.303-.354.308-.365.294-.347.31-.364.29-.35.312-.362.3-.357.311-.362.292-.35.308-.364.303-.354.3-.358.311-.361.292-.35.309-.365.302-.354.3-.357.3-.357.325-.364.314-.358.314-.36.316-.355.314-.359.316-.356.314-.359.316-.356.313-.358.314-.36.316-.355.314-.359.316-.356.314-.359.316-.356.314-.358.314-.36.316-.355.314-.359.316-.356.314-.359.316-.356.327-.36.318-.354.33-.357.327-.361.33-.358.326-.36.322-.35.327-.362.33-.357.326-.361.33-.358.318-.353.33-.358.327-.36.33-.358.318-.354.33-.357.327-.361.33-.358.318-.353.33-.358.327-.36.33-.358.342-.36.33-.357.34-.364.334-.352.33-.357.34-.364.33-.356.34-.364.334-.352.339-.364.33-.357.34-.363.33-.357.343-.36.33-.356.34-.364.33-.357.34-.364.334-.352.34-.364.33-.357.34-.364.349-.352.349-.352.35-.353.349-.352.349-.352.35-.353.349-.352.35-.352.348-.352.35-.353.35-.352.348-.352.35-.353.35-.352.348-.352.35-.352.349-.353.349-.352.35-.352.349-.353.35-.352.348-.352.35-.352.003.004.35-.353.348-.352.358-.36.35-.352.357-.36.349-.352.357-.359.35-.352.357-.36.35-.352.357-.36.35-.352.349-.352.357-.36.356-.344.358-.36.35-.352.357-.359.349-.352.35-.353.357-.359.35-.352.359-.341.367-.348.368-.348.367-.347.368-.348.368-.348.359-.34.368-.348.367-.348.368-.348.368-.348.368-.348.367-.348.368-.348.368-.347.367-.348.368-.348.36-.34.367-.348.368-.348.367-.348.368-.348.368-.348-.008.007.37-.344.375-.34.375-.34.374-.34.374-.34.375-.34.374-.34.374-.34.375-.34.374-.34.374-.34.375-.34.374-.34.374-.34.375-.34.383-.348.374-.34.374-.34.374-.34.375-.34.374-.34.374-.34.375-.34-.008.006.378-.336.38-.332.379-.336.38-.332.379-.336.39-.34.377-.336.377-.329.378-.336.381-.332.378-.336.39-.34.378-.337.381-.332.378-.336.381-.333.378-.336.39-.34.378-.335.38-.333.379-.336.38-.332.379-.336.762-.665.384-.329 6.117 8.16 46.272-53.783zm183.18-114.73-10.63 16.543-.32.11-.337.128-.341.121-.33.118-.34.124-.332.115-.34.124-.33.117-.338.125-.322.11-.341.121-.34.125-.33.117-.338.125-.333.114-.339.124-.33.118-.34.124-.846.312-.336.127-.351.145-.345.136-.345.135-.344.135-.343.137-.344.135-.353.143-.337.128-.35.145-.345.135-.345.135-.342.138-.345.135-.353.142-.336.128-.35.145-.346.135-.344.135-.345.135-.342.138-.345.135-.353.143-.877.362-.348.148-.357.156-.357.155-.36.152-.345.151-.36.153-.354.158-.36.153-.348.148-.357.155-.357.156-.36.152-.345.151-.36.153-.353.158-.36.153-.348.148-.357.155-.36.153-.354.158-.36.153-.359.152-.345.151-.91.411-.362.166-.36.169-.372.173-.36.168-.363.166-.36.168-.363.166-.369.176-.362.165-.36.169-.363.166-.36.168-.372.173-.36.169-.36.168-.363.166-.36.169-.372.173-.36.168-.363.166-.36.168-.37.173-.915.44-.375.186-.366.179-.372.189-.366.178-.375.186-.375.185-.363.182-.375.186-.366.178-.375.186-.372.189-.366.178-.375.186-.366.178-.372.189-.375.186-.366.178-.374.186-.364.182-.375.185-.375.186-.366.179-.932.47-.378.2-.378.198-.379.2-.378.198-.378.2-.378.198-.378.2-.378.198-.379.2-.378.198-.378.2-.378.198-.378.2-.378.198-.378.2-.379.198-.378.2-.37.19-.386.207-.37.192-.375.202-.379.199-.378.198-.95.518-.39.22-.385.209-.381.212-.382.212-.382.213-.39.22-.381.211-.382.213-.382.212-.381.212-.39.22-.385.209-.381.212-.382.212-.381.212-.382.213-.39.22-.382.212-.381.212-.382.212-.381.212-.393.217-.956.546-.393.233-.388.222-.394.233-.376.218-.394.233-.388.222-.393.233-.385.225-.388.223-.394.232-.385.225-.385.226-.388.222-.393.233-.386.225-.385.226-.396.23-.385.225-.385.225-.394.233-.38.215-.393.233-.97.58-.39.238-.388.239-.39.236-.398.245-.389.239-.388.239-.4.243-.388.238-.39.239-.399.243-.389.238-.389.238-.397.246-.39.236-.398.246-.388.238-.392.236-.388.239-.397.246-.391.235-.397.246-.389.24-.989.61-.383.244-.401.259-.392.251-.404.257-.392.251-.392.252-.401.259-.386.241-.4.259-.393.251-.403.257-.393.251-.392.252-.4.259-.387.24-.4.26-.393.251-.403.257-.392.251-.393.252-.4.258-.387.242-.4.259-.986.648-.404.272-.399.262-.395.265-.396.265-.398.262-.396.265-.404.272-.396.265-.398.262-.396.264-.395.265-.396.265-.407.27-.395.264-.396.265-.396.264-.398.262-.396.265-.404.272-.396.265-.398.262-.396.265-.99.677-.402.275-.399.278-.399.278-.004.05-.007.048-.004.05-.007.047-.004.05-.007.048-.004.05-.007.047-.004.05-.007.048-.004.05-.007.047-.004.05-.007.048-.004.05-.007.047-.004.05-.007.048-.004.05-.007.047-.004.05-.007.048-.004.05-.007.047-.004.05-.007.048-.004.05-.007.047-.004.05-.007.048-.004.05-.007.047-.004.05-.007.048-.004.05-.007.047-.004.05-.007.048-.004.05-.007.047-.004.05-.007.048-.004.05-.007.047-.004.05-.007.048-.004.05-.007.047-.004.05-.007.048-.004.05-.007.047-.004.05-.007.048-.004.05-.007.047-.01.043-.004.05-.007.048-.004.05-.007.047-.004.05-.007.048-.004.05-.007.047-.004.05-.007.048-.004.05-.007.047-.004.05-.007.048-.004.05-.007.047-.004.05-.007.048-.004.05-.007.047-.004.05-.007.048-.004.05-.007.047-.004.05-.007.048-.004.05-.007.047-.004.05-.007.048-.004.05-.007.047-.004.05-.007.048-.004.05-.007.047-.004.05-.007.048-.004.05-.007.047-.004.05-.007.048-.004.05-.007.047-.004.05-.007.048-.004.05-.007.047-.004.05-.007.048-.004.05-.007.047-.004.05-.007.048-.004.05-.007.047-.004.05-.007.048-.004.05-.007.047-.004.05-.007.048-.004.05-.007.047-.004.05-.007.048-.004.05-.007.047-.004.05-.007.048-.004.05-.007.047-.004.05-.007.048-.004.05-.007.047-.004.05-.007.048-.004.05-.007.047-.004.05-.007.048-.004.05-.007.047-.004.05-.007.048-.004.05-.007.047-.004.05-.007.048-.004.05-.007.047-.004.05-.007.048-.004.05-.007.047-.004.05-.007.048-.004.05-.007.047-.004.05-.007.048-.004.05-.007.047-.004.05-.007.048-.004.05-.007.047-.004.05-.007.048-.004.05-.007.047-.004.05-.007.048-.004.05-.007.047-.004.05-.007.048-.004.05-.007.047-.004.05-.007.048-.004.05-.007.047-.01.043-.004.05-.007.048-.004.05-.007.047-.004.05-.007.048-.004.05-.007.047-.004.05-.007.048-.004.05-.007.047-.004.05-.007.048-.004.05-.007.047-.004.05-.007.048-.004.05-.007.047-.004.05-.007.048-.004.05-.007.047-.004.05-.007.048-.004.05-.007.047-.004.05-.007.048-.004.05-.007.047-.004.05-.007.048-.004.05-.007.047-.004.05-.007.048-.004.05-.007.047-.004.05-.007.048-.004.05-.007.047-.004.05-.007.048-.004.05-.007.047-.004.05-.007.048-.004.05-.007.047-.004.05-.007.048-.004.05-.007.047-.004.05-.007.048-.004.05-.007.047-.004.05-.007.048-.004.05-.007.047-.004.05-.007.048-.004.05-.007.047-.004.05-.007.048-.004.05-.007.047-.004.05-.007.048.399-.278.399-.278.402-.275.008-.007.396-.265.404-.272.396-.265.395-.265.398-.262.396-.264.396-.265.404-.272.398-.262.396-.265.396-.265.395-.264.399-.262.404-.273.396-.264.395-.265.398-.262.396-.265.396-.265.404-.272.398-.262.396-.265.4-.259.393-.251.4-.259.387-.241.4-.26.393-.25.403-.257.392-.251.393-.252.4-.259.387-.241.4-.26.393-.25.403-.257.392-.251.393-.252.4-.259.387-.241.4-.26.401-.258.386-.241.401-.26.392-.25.003.003.397-.246.39-.238.39-.236.398-.245.388-.24.391-.235.398-.245.389-.239.388-.238.4-.243.389-.239.388-.238.4-.243.388-.239.389-.239.397-.245.392-.236.388-.239.397-.246.391-.235.397-.246.389-.239.003.004.396-.23.394-.233.385-.225.385-.225.396-.23.385-.225.385-.226.397-.23.376-.218.394-.232.393-.233.377-.218.396-.23.386-.225.393-.233.38-.215.393-.233.394-.233.376-.217.397-.23.385-.225.393-.233.382-.212.381-.213.385-.209.39-.22.381-.212.382-.212.382-.212.381-.212.39-.22.382-.212.382-.212.381-.213.385-.209.381-.212.39-.22.382-.212.381-.212.382-.212.382-.212.39-.22.381-.212.382-.212.387-.207.378-.199.378-.199.378-.199.378-.199.378-.199.379-.199.378-.199.37-.191.378-.2.378-.198.378-.2.378-.198.378-.2.378-.198.378-.2.379-.198.378-.2.378-.198.378-.2.378-.198.378-.2.378-.198.003.004.367-.179.374-.185.364-.182.375-.186.375-.186.366-.178.372-.19.367-.178.375-.186.374-.185.364-.182.375-.186.366-.179.375-.185.372-.19.367-.178.374-.186.367-.178.372-.189.374-.186.366-.178.375-.186.363-.165.36-.169.371-.173.36-.168.363-.166.36-.169.363-.165.369-.176.363-.166.36-.168.363-.166.36-.169.37-.176.362-.166.36-.168.363-.166.369-.176.363-.165.36-.169.362-.166.36-.168.372-.173-.003-.004.354-.159.36-.152.36-.153.353-.158.36-.153.348-.148.357-.155.357-.156.357-.155.35-.145.355-.158.36-.153.357-.155.348-.148.357-.156.357-.155.36-.153.345-.15.36-.153.356-.156.357-.155.349-.148.357-.155.344-.135.345-.135.345-.135.351-.145.336-.128.353-.142.336-.128.351-.145.345-.135.345-.135.344-.135.351-.145.336-.128.354-.142.344-.136.342-.137.345-.135.345-.135.353-.143.334-.13.353-.143.336-.127.353-.143.333-.114.339-.125.33-.117.34-.125.33-.117.34-.121.331-.118.339-.124.33-.117.34-.125.332-.114.339-.125.322-.11.338-.124.34-.125.34-.121.322-.11.34-.125-12.879 20.038 58.105-35.817zm97.383 17.861-19.466 15.014-.03-.189-.05-.177-.037-.195-.036-.195-.033-.192-.036-.195-.033-.192-.036-.195-.033-.192-.129-.456-.06-.172-.062-.173-.06-.173-.06-.17-.06-.172-.062-.173-.06-.173-.062-.172-.06-.173-.06-.17-.06-.172-.062-.173-.06-.173-.062-.172-.059-.17-.06-.173-.062-.173-.06-.172-.062-.173-.06-.173-.06-.17-.06-.172-.062-.173-.173-.422-.085-.152-.085-.152-.085-.152-.085-.152-.085-.152-.085-.152-.085-.152-.085-.152-.088-.156-.085-.152-.085-.152-.085-.152-.085-.152-.085-.152-.085-.152-.085-.152-.085-.152-.085-.152-.085-.152-.085-.152-.085-.152-.085-.152-.085-.153-.085-.152-.252-.358-.112-.129-.097-.142-.115-.131-.097-.142-.114-.132-.096-.142-.112-.128-.097-.142-.115-.132-.096-.142-.112-.128-.097-.142-.112-.128-.1-.145-.111-.129-.096-.142-.112-.128-.097-.142-.112-.129-.1-.145-.111-.128-.097-.142-.51-.585-.12-.122-.12-.122-.12-.122-.12-.121-.12-.122-.122-.125-.12-.121-.12-.122-.12-.122-.119-.121-.122-.125-.12-.122-.12-.122-.12-.121-.12-.122-.122-.125-.12-.121-.12-.122-.12-.122-.119-.121-.12-.122-.122-.125-.34-.271-.14-.105-.139-.105-.139-.104-.14-.105-.138-.105-.14-.105-.138-.105-.14-.105-.138-.104-.14-.105-.139-.105-.139-.105-.139-.105-.139-.105-.142-.107-.139-.105-.139-.105-.14-.105-.138-.105-.14-.105-.138-.104-.14-.105-.38-.231-.163-.085-.163-.084-.162-.084-.163-.084-.163-.085-.162-.084-.16-.081-.163-.085-.163-.084-.163-.084-.162-.084-.163-.084-.16-.082-.163-.084-.163-.084-.163-.085-.162-.084-.163-.084-.16-.082-.163-.083-.163-.085-.163-.084-.414-.202-.186-.06-.171-.076-.169-.074-.188-.062-.169-.074-.188-.062-.186-.06-.171-.076-.169-.074-.171-.077-.186-.06-.171-.076-.169-.074-.188-.062-.169-.074-.171-.077-.186-.06-.171-.076-.186-.06-.188-.061-.17-.074-.17-.077-.17-.074-.46-.152-.196-.054-.195-.052-.194-.052-.194-.052-.195-.052-.194-.052-.194-.051-.195-.052-.194-.052-.194-.052-.195-.052-.194-.052-.197-.054-.194-.052-.195-.052-.194-.052-.194-.052-.194-.052-.195-.051-.194-.052-.195-.052-.194-.052-.511-.107-.2-.042-.21-.034-.194-.052-.226-.02-.203-.044-.209-.034-.211-.037-.211-.037-.2-.042-.204-.044-.209-.034-.202-.045-.209-.033-.203-.045-.2-.041-.212-.037-.2-.042-.211-.037-.21-.034-.21-.037-.218-.027-.194-.052-.547-.061-.225-.02-.235-.012-.226-.02-.225-.018-.226-.02-.226-.019-.234-.012-.226-.02-.226-.019-.224-.016-.225-.019-.234-.012-.226-.02-.226-.018-.226-.02-.226-.019-.234-.012-.226-.02-.226-.019-.226-.02-.223-.016-.234-.012-.577-.03-.243-.003-.24-.002-.24-.002-.248.006-.24-.002-.24-.002-.243-.005-.248.006-.24-.002-.24-.002-.078.081-.061.067-.078.082-.061.067-.078.081-.061.067-.078.082-.061.066-.078.082-.061.067-.078.081-.061.067-.078.082-.061.067-.078.081-.061.067-.078.082-.061.066-.078.082-.061.067-.078.081-.061.067-.078.082-.061.067-.078.081-.061.067-.078.082-.061.066-.078.082-.061.067-.078.081-.061.067-.078.082-.061.067-.078.081-.061.067-.078.082-.061.066-.078.082-.061.067-.078.081-.061.067-.078.082-.061.067-.078.081-.061.067-.078.082-.061.066-.078.082-.061.067-.078.081-.061.067-.078.082-.061.067-.078.081-.061.067-.052.06-.078.081-.061.067-.078.081-.061.067-.078.082-.061.067-.078.081-.061.067-.078.082-.061.066-.078.082-.061.067-.078.081-.061.067-.078.082-.061.067-.078.081-.061.067-.078.082-.061.066-.078.082-.061.067-.078.081-.061.067-.078.082-.061.067-.078.081-.061.067-.078.082-.061.066-.078.082-.061.067-.078.081-.061.067-.078.082-.061.067-.078.081-.061.067-.078.082-.061.066-.078.082-.061.067-.078.081-.061.067-.078.082-.061.067-.078.081-.061.067-.078.082-.061.066-.078.082-.061.067-.078.081-.061.067-.078.082-.061.067-.078.081-.061.067-.078.082-.061.066-.078.082-.044.052-.078.082-.061.066-.078.082-.061.067-.078.081-.061.067-.078.082-.061.067-.078.081-.061.067-.078.082-.061.066-.078.082-.061.067-.078.081-.061.067-.078.082-.061.067-.078.081-.061.067-.078.082-.061.066-.078.082-.061.067-.078.081-.061.067-.078.082-.061.067-.078.081-.061.067-.078.082-.061.066-.078.082-.061.067-.078.081-.061.067-.078.082-.061.067-.078.081-.061.067-.078.082-.061.066-.078.082-.061.067-.078.081-.061.067-.078.082-.061.067-.078.081-.061.067-.078.082-.061.066-.078.082-.061.067-.078.081-.061.067-.078.082-.061.067-.078.081-.061.067-.078.082-.061.066-.052.06-.078.081-.061.067-.078.082-.061.067-.078.081-.061.067-.078.082-.061.066-.078.082-.061.067-.078.081-.061.067-.078.082-.061.067-.078.081-.061.067-.078.082-.061.066-.078.082-.061.067-.078.081-.061.067-.078.082-.061.067-.078.081-.061.067-.078.082-.061.066-.078.082-.061.067-.078.081-.061.067-.078.082-.061.067-.078.081-.061.067-.078.082-.061.066-.078.082-.061.067-.078.081-.061.067-.078.082-.061.067-.078.081-.061.067-.078.082-.061.066-.078.082-.061.067-.078.081-.061.067-.078.082-.061.067-.078.081-.061.067-.078.082-.061.066-.078.082-.061.067-.078.081-.044.052-.078.082-.061.067-.078.081-.061.067-.078.082-.061.067-.078.081-.061.067-.078.082-.061.066-.078.082-.061.067.24.002.24.002.248-.006.243.004.24.002.24.002.248-.006.24.002.24.002.243.005.228.022.223.016.227.02.233.012.226.02.227.019.225.019.226.02.234.012.226.019.226.02.224.016.226.02.234.011.226.02.226.019.226.02.226.019.234.012.226.02.226.019.225.02.203.044.218.026.211.037.192.05.212.037.209.034.22.03.191.048.212.037.211.037.2.042.212.037.192.049.211.037.218.027.21.037.193.049.211.037.209.034.203.044.209.034.194.052.01-.007.195.052.196.055.195.052.194.052.194.051.195.052.194.052.194.052.195.052.194.052.195.052.194.051.194.052.195.052.196.055.195.052.194.052.194.052.195.051.194.052.194.052.195.052.18.07.188.061.168.074.172.077.185.06.172.076.169.074.188.062.169.074.168.074.189.062.168.075.172.076.169.074.188.062.169.075.17.076.187.06.17.076.172.077.186.06.171.076.169.074.154.092.163.084.163.085.162.084.163.084.16.082.163.083.163.085.163.084.162.084.163.084.163.085.162.084.16.081.163.084.163.085.163.084.163.084.162.084.16.082.163.084.163.084.139.105.139.105.14.105.14.108.14.104.14.105.138.105.14.105.138.105.14.105.139.104.139.105.139.105.139.105.139.105.139.105.14.104.138.105.14.105.138.105.142.108.14.105.01-.007.119.121.12.122.12.122.122.124.12.122.12.122.12.122.119.121.123.125.12.122.119.121.12.122.12.122.122.125.12.121.12.122.12.122.119.121.123.125.12.122.119.121.12.122.12.122.112.128.097.142.112.129.099.145.112.128.097.142.112.128.097.142.112.129.099.145.112.128.097.142.112.129.097.142.112.128.099.145.112.129.096.141.114.132.097.142.115.131.097.142.112.129v-.004l.085.152.085.152.085.152.085.152.085.152.085.152.085.152.085.152.088.155.085.153.085.152.085.152.085.152.085.152.085.152.085.152.085.152.085.152.085.152.085.152.085.152.085.152.085.152.085.152.05.178.061.172.061.173.061.173.059.17.061.172.061.173.061.173.061.172.061.173.059.17.061.172.061.173.061.173.061.172.059.17.061.173.061.173.061.172.061.173.061.173.059.17.061.172.025.2.042.184.027.202.042.185.027.203.042.184.03.206.056.167.025.2-23.559 18.17 29.851 6.884zm-59.194 138.695-14.148 2.674.266-.343.276-.351.282-.361.273-.354.276-.351.281-.361.267-.344.282-.361.658-.87.262-.35.262-.349.26-.352.262-.35.262-.349.26-.352.261-.349.263-.35.26-.351.261-.35.26-.352.262-.349.262-.35.26-.351.262-.35.262-.349.26-.352.262-.35.26-.351.261-.35.262-.349.26-.352.622-.86.25-.347.24-.34.248-.348.248-.348.247-.35.248-.347.24-.34.249-.348.248-.348.25-.347.245-.35.249-.348.24-.34.249-.348.248-.347.249-.348.246-.35.249-.348.24-.34.248-.347.249-.348.598-.853.227-.339.235-.346.227-.339.235-.346.227-.338.235-.346.229-.335.235-.346.226-.339.242-.356.226-.339.235-.346.227-.338.238-.343.226-.339.235-.346.227-.338.235-.346.227-.34.235-.345.227-.339.235-.346.554-.835.214-.337.216-.334.213-.337.216-.334.222-.344.214-.337.216-.334.214-.337.216-.334.213-.337.217-.334.222-.344.213-.337.216-.334.214-.337.216-.334.214-.337.224-.342.214-.337.216-.334.214-.337.213-.336.511-.817.205-.33.2-.335.194-.325.203-.333.202-.332.2-.335.197-.322.2-.336.202-.332.194-.325.203-.333.202-.332.192-.328.205-.33.2-.335.202-.332.194-.325.203-.333.2-.335.197-.322.2-.335.202-.333.464-.802.183-.32.181-.323.19-.33.174-.314.19-.33.18-.323.18-.323.184-.32.189-.331.172-.316.19-.33.174-.313.19-.33.18-.324.183-.32.19-.33.171-.316.192-.328.18-.323.181-.323.181-.323.192-.328.42-.784.17-.319.16-.311.17-.319.16-.311.168-.322.161-.311.17-.319.16-.311.17-.319.17-.319.16-.311.168-.322.16-.31.17-.32.161-.311.17-.319.17-.319.158-.314.17-.318.16-.312.17-.318.16-.312.38-.763.147-.309.15-.307.148-.31.15-.306.139-.302.15-.307.148-.31.147-.309.15-.306.148-.31.15-.307.148-.31.15-.306.147-.31.15-.306.148-.31.142-.299.147-.31.15-.306.148-.31.15-.306.346-.75.128-.297.139-.302.128-.298.128-.298.128-.297.128-.298.128-.297.139-.303.128-.297.128-.298.128-.297.128-.298.136-.305.13-.295.129-.297.128-.298.128-.298.136-.305.128-.297.13-.295.129-.298.128-.297.305-.728.109-.286.117-.293.109-.286.108-.285.118-.293.109-.286.117-.293.109-.286.109-.285.117-.293.108-.285.11-.286.117-.293.109-.286.108-.285.117-.293.11-.286.117-.293.109-.286.109-.285.117-.293.109-.286.252-.703.098-.281.09-.274.095-.284.092-.271.095-.285.09-.274.097-.281.09-.274.094-.285.092-.27.095-.285.09-.274.097-.282.09-.274.095-.284.092-.271.096-.284.098-.282.09-.274-.07.04-.086.055-.069.04-.069.04-.086.055-.069.04-.086.055-.069.04-.069.04-.086.055-.069.04-.069.04-.086.055-.069.04-.086.054-.069.04-.069.04-.086.055-.069.04-.086.055-.069.04-.069.04-.086.055-.069.04-.086.055-.086.055-.069.04-.086.055-.069.04-.069.04-.086.055-.069.04-.086.055-.086.054-.069.04-.086.055-.069.04-.086.055-.086.055-.069.04-.086.055-.069.04-.069.04-.086.055-.069.04-.086.055-.069.04-.069.04-.086.055-.069.04-.069.04-.086.054-.069.04-.086.055-.069.04-.069.04-.069.04-.086.055-.069.04-.069.04-.086.055-.069.04-.069.04-.086.055-.069.04-.086.055-.069.04-.069.04-.086.054-.069.04-.086.055-.069.04-.069.04-.086.055-.069.04-.069.04-.069.04-.069.04-.086.055-.069.04-.069.04-.086.055-.069.04-.069.04-.069.04-.069.04-.086.055-.069.04-.069.04-.069.04-.086.055-.069.04-.069.04-.069.04-.069.04-.086.055-.069.04-.069.04-.069.04-.069.04-.086.054-.069.04-.069.04-.086.055-.069.04-.069.04-.069.04-.069.04-.086.055-.069.04-.069.04-.086.055-.069.04-.086.055-.069.04-.069.04-.086.055-.069.04-.069.04-.069.04-.086.055-.069.04-.069.04-.086.054-.069.04-.086.055-.069.04-.069.04-.086.055-.069.04-.086.055-.069.04-.069.04-.086.055-.069.04-.069.04-.086.055-.069.04-.086.055-.069.04-.069.04-.086.055-.069.04-.086.055-.086.054-.069.04-.086.055-.069.04-.069.04-.086.055-.069.04-.086.055-.069.04-.069.04-.086.055-.069.04-.086.055-.086.055-.069.04-.086.055-.069.04-.069.04-.086.055-.069.04-.086.054-.069.04-.069.04-.086.055-.069.04-.069.04-.069.04-.069.04-.086.055-.069.04-.069.04-.086.055-.069.04-.086.055-.069.04-.069.04-.086.055-.069.04-.069.04-.069.04-.086.054-.069.04-.069.04-.086.055-.069.04-.086.055-.069.04-.069.04-.086.055-.069.04-.069.04-.069.04-.069.04-.086.055-.069.04-.069.04-.069.04-.086.055-.069.04-.069.04-.069.04-.069.04-.086.055-.069.04-.069.04-.069.04-.086.055-.069.04-.069.04-.069.04-.086.054-.069.04-.069.04-.069.04-.069.04-.086.055-.069.04-.069.04-.086.055-.069.04-.086.055-.069.04-.069.04-.086.055-.069.04-.069.04-.086.055-.069.04-.086.055-.069.04-.069.04-.086.054-.069.04-.086.055-.069.04-.069.04-.086.055-.069.04-.086.055-.069.04-.086.055-.069.04-.069.04-.086.055-.069.04-.086.054-.069.04-.069.04-.086.055-.069.04-.086.055-.086.055-.087.277-.1.278-.087.277-.098.282-.098.281-.087.277-.1.279-.088.276-.098.282-.089.274-.096.284-.092.27-.096.285-.089.274-.098.282-.089.274-.095.284-.092.27-.095.285-.117.293-.109.286-.117.293-.109.285-.114.296-.11.286-.108.285-.12.29-.106.29-.109.285-.117.293-.11.286-.108.285-.117.293-.109.286-.117.293-.11.286-.108.285-.117.293-.11.286-.108.286-.117.292-.137.305-.128.298-.128.298-.128.297-.137.305-.127.298-.13.295-.129.297-.128.298-.136.305-.129.297-.128.298-.13.294-.128.298-.137.305-.128.298-.128.297-.128.298-.13.294-.129.298-.136.305-.128.298-.156.317-.14.302-.15.306-.147.31-.15.307-.148.309-.15.306-.148.31-.15.306-.147.31-.15.307-.148.31-.15.306-.147.31-.142.299-.148.31-.15.306-.147.31-.15.306-.148.31-.147.31-.167.321-.17.319-.161.311-.17.32-.16.31-.17.32-.167.32-.161.312-.17.319-.16.311-.17.319-.161.311-.17.319-.167.321-.16.312-.17.319-.161.31-.17.32-.16.311-.168.321-.16.312-.17.319-.19.33-.172.316-.189.33-.18.323-.184.32-.18.324-.181.323-.192.328-.172.315-.19.33-.18.324-.183.32-.18.323-.19.33-.172.317-.192.327-.18.323-.181.324-.183.32-.19.33-.172.316-.189.33-.209.343-.196.322-.2.335-.203.333-.194.325-.202.333-.2.335-.205.33-.192.327-.202.333-.203.332-.202.333-.192.327-.205.33-.2.335-.194.325-.203.333-.202.332-.203.333-.191.327-.205.33-.2.335v.005l-.222.344-.214.337-.216.334-.214.337-.216.334-.222.344-.216.334-.213.337-.214.337-.216.334-.213.337-.225.341-.214.337-.215.334-.214.337-.216.334-.214.337-.213.336-.224.342-.214.337-.216.333-.213.337-.01.007-.235.346-.227.34-.235.345-.227.339-.235.345-.227.339-.237.343-.227.339-.235.346-.227.338-.235.346-.227.34-.235.345-.235.346-.227.339-.235.346-.227.338-.235.346-.235.346-.226.339-.235.346-.227.338-.01.007-.248.348-.249.347-.24.34-.249.348-.246.35-.248.348-.249.347-.249.348-.24.34-.246.35-.249.348-.248.347-.249.348-.248.348-.24.34-.247.35-.248.347-.249.348-.248.348-.25.347-.24.34v.012l-.259.352-.262.35-.26.351-.261.35-.263.349-.26.352-.261.35-.262.348-.26.353-.262.349-.26.352-.262.35-.262.348-.26.353-.262.349-.262.349-.26.352-.261.35-.26.352-.262.349-.262.349-.268.36-.282.361-.273.354-.276.35-.273.355-.284.358-.273.354-.267.343-.276.351-17.13 3.24-20.139 44.96z" style="display:inline;fill:#0074d9;stroke:#616161;stroke-width:4;stroke-miterlimit:4.1;stroke-dasharray:none" transform="translate(-31.434 5.469)"/>
</svg>
