<svg xmlns="http://www.w3.org/2000/svg" xml:space="preserve" viewBox="0 0 200 200">
  <path d="M58.484 116.403C31.268 138.944 55.546 132.345 25.001 160M91.52 83.517l3.143-3.145m0 39.248q-9.81-9.816-19.624-19.624C53.57 78.673 39.592 50.208 25.001 40m69.662 40.379q9.814-9.81 19.624 0L133.908 100c37.043 38.878 5.078 28.872 41.093 60m-80.338-40.378q9.814 9.807 19.624 0l3.14-3.14m32.96-32.96C172.239 63.119 154.179 60.3 175 39.999" style="display:inline;fill:none;stroke:#ff851b;stroke-width:11.6432;stroke-linecap:butt;stroke-linejoin:round;stroke-dasharray:none;paint-order:stroke fill markers"/>
  <path d="M91.115 199.85c-42.027-3.812-77.182-33.533-87.954-74.36-4.215-15.973-4.215-35.07 0-51.044C13.327 35.92 44.786 7.459 84.446.91c7.342-1.213 23.776-1.213 31.119 0 43.325 7.154 76.266 40.123 83.414 83.485 1.943 11.783 1.047 29.054-2.13 41.096-10.14 38.437-41.806 67.132-81.1 73.49-4.677.757-19.932 1.295-24.636.868m23.525-6.012c55.4-9.14 90.812-62.621 77.396-116.89-9.142-36.98-39.482-64.696-77.581-70.867-7.245-1.174-22.06-1.175-29.082-.003C44.087 12.97 12.84 44.28 6.206 85.4c-1.122 6.953-1.205 21.336-.163 28.1 6.813 44.229 41.949 77.318 86.181 81.162 4.443.387 18.12-.117 22.414-.827" style="display:inline;fill:#616161;fill-opacity:1;stroke:none;stroke-width:.370625;stroke-linejoin:round;stroke-opacity:1"/>
</svg>
