<svg xmlns="http://www.w3.org/2000/svg" xml:space="preserve" viewBox="0 0 2159.561 745.676">
  <path d="M1260.904 1155.87c31.182 41.26 83.15 113.386 93.543 123.78m70.767 9.289c29.39-33.856 100.257-133.069 100.257-133.069M1525.471 1419.6s-51.024-82.996-92.598-124.57m-71.711-7.661c-43.565 43.304-100.258 132.232-100.258 132.232" class="stroke-orange fill-orange" style="display:inline;fill:none;stroke:#ff851b;stroke-width:7.93482;stroke-linejoin:round;stroke-miterlimit:4.1;stroke-dasharray:none;stroke-opacity:1" transform="matrix(1.97293 0 0 1.97293 -961.944 -2168.604)"/>
  <path d="M1578.197 1288.154a185.01 185.01 0 0 1-185.01 185.009 185.01 185.01 0 0 1-185.008-185.01 185.01 185.01 0 0 1 185.009-185.008 185.01 185.01 0 0 1 185.009 185.009z" class="stroke-comment fill-comment" style="display:inline;fill:none;stroke:#aaa;stroke-width:7.93482;stroke-linejoin:round;stroke-miterlimit:4.1;stroke-dasharray:none" transform="matrix(1.97293 0 0 1.97293 -961.944 -2168.604)"/>
  <path d="m1361.162 1287.369 5.252-5.253c10.497-10.497 10.497-10.497 20.994 0M1393.72 1287.36l-5.252 5.253c-10.497 10.497-10.497 10.497-20.994 0M1393.713 1287.369l5.252-5.253c10.497-10.497 10.497-10.497 20.994 0M1425.214 1288.939l-5.253 5.252c-10.497 10.497-10.497 10.497-20.994 0" class="stroke-orange fill-orange" style="display:inline;fill:none;stroke:#ff851b;stroke-width:7.93482;stroke-linejoin:round;stroke-miterlimit:4.1;stroke-dasharray:none;stroke-opacity:1" transform="matrix(1.97293 0 0 1.97293 -961.944 -2168.604)"/>
  <path d="M218.909 1182.658s78.095 94.489 132.283 94.489 132.284-94.489 132.284-94.489M483.476 1446.389s-78.257-93.652-132.284-93.652-132.283 93.652-132.283 93.652" class="stroke-orange fill-orange" style="display:inline;fill:none;stroke:#ff851b;stroke-width:7.93482;stroke-linejoin:round;stroke-miterlimit:4.1;stroke-dasharray:none;stroke-opacity:1" transform="matrix(1.97293 0 0 1.97293 -320.041 -2221.455)"/>
  <path d="M536.201 1314.942a185.01 185.01 0 0 1-185.009 185.009 185.01 185.01 0 0 1-185.009-185.01 185.01 185.01 0 0 1 185.01-185.008A185.01 185.01 0 0 1 536.2 1314.942Z" class="stroke-comment fill-comment" style="display:inline;fill:none;stroke:#aaa;stroke-width:7.93482;stroke-linejoin:round;stroke-miterlimit:4.1;stroke-dasharray:none" transform="matrix(1.97293 0 0 1.97293 -320.041 -2221.455)"/>
  <g transform="translate(186.199 -930.072)">
    <rect width="188.615" height="75.23" x="762.414" y="1182.941" ry="29.084" style="fill:#ff4136;fill-opacity:1;stroke:#ff4136;stroke-width:.360865;stroke-miterlimit:3.6"/>
    <path d="m762.198 1220.522-75.555-.136c-18.898 0-18.898 0-18.933 18.84v56.716c.035 18.932.035 18.932-18.897 18.898l-75.334-.01" class="stroke-comment fill-comment" style="fill:none;fill-opacity:1;stroke:#aaa;stroke-width:27.7266;stroke-miterlimit:3.6;stroke-dasharray:none;stroke-opacity:1"/>
    <text x="1045.537" y="1272.25" style="font-size:136.063px;line-height:1;font-family:&quot;Roboto Condensed&quot;;-inkscape-font-specification:&quot;Roboto Condensed, &quot;;text-align:center;letter-spacing:0;word-spacing:1.07px;writing-mode:lr-tb;direction:ltr;text-anchor:middle;fill:#ff4136;fill-opacity:1;stroke:none;stroke-width:20.6551;stroke-miterlimit:3.6">
      <tspan x="1045.537" y="1272.25" style="fill:#ff4136;stroke:none">x3</tspan>
    </text>
    <path d="m703.185 1417.756 5.086-12.455-.057-.428-.057-.437-.06-.453-.058-.437-.06-.454-.058-.427-.06-.453-.058-.437-.06-.438-.058-.437-.06-.453-.062-.427-.057-.454-.06-.437-.058-.437-.06-.453-.058-.428-.06-.453-.058-.437-.143-1.105-.053-.453-.057-.453-.053-.453-.054-.453-.053-.453-.053-.453-.054-.463-.053-.453-.054-.453-.057-.453-.054-.453-.053-.463-.054-.453-.054-.453-.053-.453-.057-.463-.054-.453-.054-.453-.053-.453-.054-.453-.054-.463-.053-.453-.133-1.139-.05-.463-.05-.463-.047-.474-.05-.453-.047-.473-.05-.464-.05-.463-.047-.463-.05-.474-.047-.453-.05-.473-.05-.463-.047-.464-.05-.473-.047-.453-.05-.474-.05-.463-.047-.463-.05-.463-.05-.474-.047-.474-.05-.453-.05-.473-.115-1.172-.043-.474-.047-.473-.043-.474-.043-.473-.047-.474-.043-.474-.047-.473-.043-.474-.047-.473-.043-.474-.047-.473-.043-.474-.043-.473-.047-.474-.043-.474-.047-.473-.043-.474-.047-.473-.043-.474-.047-.473-.047-.474-.043-.473-.104-1.195-.036-.484-.039-.484-.036-.484-.04-.473-.036-.484-.04-.484-.036-.484-.04-.484-.036-.473-.04-.484-.036-.484-.036-.484-.04-.484-.036-.473-.04-.484-.036-.484-.04-.484-.036-.473-.039-.484-.036-.484-.04-.484-.036-.473-.089-1.229-.036-.484-.036-.494-.036-.484-.036-.494-.036-.484-.036-.494-.036-.484-.036-.494-.036-.484-.036-.494-.036-.484-.036-.494-.036-.484-.036-.494-.036-.484-.036-.494-.036-.484-.036-.494-.036-.484-.036-.484-.036-.494-.036-.484-.036-.494-.07-1.24-.037-.494-.036-.494-.036-.494-.036-.494-.036-.494-.036-.494-.036-.495-.036-.494-.036-.494 7.07.299.037.494.036.484.036.494.036.484.036.494.036.484.036.494.036.484.036.494.036.484.036.494.036.484.036.483.036.495.036.483.036.495.036.483.036.495.036.483.036.495.036.483.036.484.04.484.036.484.04.484.036.473.04.484.036.484.039.484.036.474.04.483.036.484.039.484.036.474.04.483.036.484.04.484.036.484.04.473.036.484.04.484.036.484.04.484.043.473.047.474.043.474.047.473.043.474.047.473.043.474.043.473.043.474.047.473.047.474.043.473.047.474.043.474.047.473.043.474.047.473.043.474.043.473.047.474.043.473.047.474.047.474.047.463.054.473.047.464.05.473.047.453.05.474.047.463.05.463.05.463.047.474.05.453.047.474.053.463.047.463.047.474.05.453.05.473.047.463.05.464.047.463.05.474.05.453.053.452.054.453.053.453.054.464.053.453.054.453.054.453.053.463.054.453.053.453.057.453.054.453.054.463.053.453.054.453.054.453.053.453.054.463.053.453.053.453.054.453.053.463.057.453.06.438.058.437.06.453.058.427.06.453.058.438.06.437.058.438.06.437.062.453.057.428.06.453.058.437.06.438.058.437.06.453.058.427.057.438 6.16-15.082 2.146 74.642zm46.136 134.327 1.032-24.607-.115-.078-.115-.113-.122-.093-.118-.113-.118-.087-.119-.114-.114-.067-.119-.113-.118-.087-.118-.113-.119-.093-.118-.114-.118-.087-.118-.113-.119-.093-.118-.114-.118-.087-.119-.113-.118-.093-.298-.273-.118-.113-.118-.113-.118-.114-.115-.113-.118-.113-.119-.114-.118-.113-.118-.113-.119-.114-.118-.113-.118-.113-.115-.114-.118-.113-.119-.113-.118-.114-.118-.113-.115-.113-.118-.114-.119-.113-.114-.113-.119-.114-.118-.113-.29-.314-.115-.15-.118-.133-.115-.144-.118-.15-.115-.144-.118-.15-.115-.133-.118-.144-.115-.15-.118-.143-.115-.15-.115-.134-.115-.144-.114-.149-.115-.144-.118-.144-.115-.134-.118-.15-.115-.143-.115-.15-.118-.144-.115-.134-.118-.149-.287-.396-.115-.16-.11-.17-.116-.16-.114-.17-.115-.159-.115-.17-.11-.16-.115-.17-.115-.158-.115-.17-.111-.16-.115-.17-.115-.16-.114-.17-.111-.159-.115-.17-.115-.16-.115-.17-.114-.159-.111-.17-.115-.16-.115-.169-.28-.437-.11-.18-.112-.191-.11-.18-.112-.19-.111-.18-.111-.191-.111-.19-.112-.18-.11-.191-.112-.18-.11-.191-.112-.18-.111-.19-.111-.191-.111-.18-.112-.19-.11-.18-.112-.191-.111-.18-.111-.19-.111-.191-.111-.18-.277-.495-.107-.2-.108-.216-.11-.217-.108-.2-.111-.217-.104-.2-.111-.217-.108-.216-.111-.2-.108-.217-.11-.2-.108-.217-.108-.216-.111-.2-.108-.217-.11-.2-.105-.227-.11-.2-.108-.202-.112-.216-.107-.2-.111-.227-.266-.53-.107-.236-.104-.227-.108-.237-.107-.226-.108-.237-.107-.237-.104-.226-.108-.237-.107-.226-.108-.237-.107-.237-.104-.226-.108-.237-.108-.227-.107-.237-.108-.236-.107-.227-.104-.237-.108-.226-.104-.237-.107-.237-.108-.226-.261-.598-.104-.257-.108-.247-.1-.257-.108-.258-.104-.247-.104-.257-.107-.247-.1-.258-.108-.247-.104-.257-.104-.247-.104-.258-.108-.247-.1-.257-.108-.247-.104-.257-.104-.247-.107-.258-.1-.247-.105-.257-.1-.247-.107-.258-.251-.642-.1-.283-.101-.273-.1-.283-.1-.273-.101-.273-.1-.283-.101-.273-.1-.273-.1-.283-.101-.272-.1-.273-.105-.283-.1-.273-.097-.283-.1-.273-.104-.273-.1-.283-.101-.273-.1-.267-.1-.283-.101-.273-.1-.283-.244-.7-.097-.293-.097-.293-.097-.294-.097-.293-.097-.304-.097-.293-.097-.293-.097-.294-.097-.293-.097-.304-.097-.293-.097-.294-.097-.293-.097-.294-.093-.293-.097-.304-.097-.293-.097-.293-.097-.294-.097-.293-.097-.294-.097-.303-.237-.744-.093-.314-.093-.314-.097-.314-.093-.314-.097-.314-.093-.314-.097-.314-.093-.314-.093-.314-.093-.304-.093-.314-.093-.314-.097-.314-.093-.314-.097-.314-.093-.314-.093-.314-.097-.314-.093-.314-.097-.314-.093-.314-.097-.303-.226-.8-.089-.34-.089-.34-.089-.34-.093-.324-.089-.34v-19.769l.093.34.09.324.088.34.09.34.088.324.097.314.093.314.097.314.093.314.097.314.093.314.093.314.093.314.097.314.093.314.093.314.093.314.093.303.093.314.093.314.093.314.097.314.093.314.097.314.097.314.093.314.097.314.097.304.097.293.097.294.097.293.097.304.097.293.097.294.097.293.097.293.097.304.097.294.097.293.097.293.097.294.097.293.097.304.097.293.097.294.097.293.097.293.097.304.097.294.104.283.1.272.101.273.1.283.1.273.101.273.1.283.1.273.101.283.1.273.101.273.1.283.1.272.101.273.1.283.101.273.1.283.1.273.101.273.1.283.1.273.101.273.108.257.1.257.108.247.104.258.104.247.104.257.107.247.1.258.104.247.104.257.104.247.108.258.1.247.104.257.104.247.104.258.104.247.1.257.108.247.104.257.104.247.104.258.108.226.107.237.104.226.108.237.107.237.108.227.107.236.108.227.107.237.108.236.107.227.108.237.108.226.107.237.108.237.104.226.107.237.108.237.107.226.108.237.104.226.107.237.108.216.107.201.108.216.111.216.108.201.11.216.108.201.108.216.108.217.11.2.108.216.111.217.108.2.107.217.112.2.107.217.111.216.108.2.107.217.108.2.111.217.108.216.11.18.112.19.111.18.111.19.111.181.111.19.112.191.11.18.112.19.111.18.111.191.111.18.111.19.111.191.112.18.11.19.112.181.111.19.111.18.111.191.111.19.112.18.114.17.111.16.115.17.115.16.115.17.11.159.115.17.115.16.115.17.111.159.115.17.114.16.115.17.115.159.111.17.115.16.114.169.115.16.115.17.111.16.115.169.115.16.114.149.119.144.118.134.115.149.114.144.115.15.118.143.115.134.118.144.115.15.118.144.115.149.118.134.115.144.118.15.115.143.118.15.115.133.118.145.115.149.115.144.118.15.115.133.118.113.118.114.119.113.118.113.118.114.115.113.118.113.119.114.118.113.118.113.115.114.118.113.115.113.118.114.119.113.118.113.118.114.119.113.118.113.118.114.119.113.114.113.119.114.118.102.115.103.118.102.118.102.119.076.118.103.118.102.118.103.119.102.118.103.118.102.119.102.118.103.118.102.119.103.121.102.115.102.118.078 1.25-29.791 14.798 41.187zm53.98-64.058-3.843-18.892-.09.324-.086.33-.093.34-.09.34-.09.324-.093.34-.09.339-.09.324-.226.79-.093.313-.097.314-.093.314-.097.304-.093.314-.097.314-.093.314-.097.314-.093.314-.093.314-.093.314-.097.314-.097.314-.093.314-.097.314-.093.304-.097.314-.093.314-.097.314-.093.314-.097.313-.093.314-.237.744-.097.294-.097.293-.097.293-.097.304-.097.293-.097.294-.097.293-.097.294-.097.293-.097.304-.097.293-.097.294-.097.293-.093.293-.097.294-.097.303-.097.294-.097.293-.093.294-.097.293-.097.304-.243.71-.1.273-.101.273-.1.283-.1.273-.101.283-.1.273-.1.272-.101.283-.1.273-.108.283-.097.273-.1.283-.101.273-.1.273-.1.283-.101.273-.1.283-.1.273-.101.273-.1.283-.101.272-.1.273-.251.665-.108.247-.104.258-.104.257-.104.247-.107.257-.1.248-.108.257-.104.247-.104.257-.104.247-.108.258-.1.247-.104.257-.104.247-.104.258-.104.247-.104.257-.1.247-.108.258-.104.247-.104.257-.107.247-.259.609-.107.227-.108.236-.107.237-.108.226-.107.237-.104.227-.108.237-.107.236-.108.227-.104.237-.107.236-.108.227-.108.237-.107.226-.104.237-.108.237-.107.226-.108.237-.104.226-.107.237-.108.237-.107.226-.266.564-.11.2-.108.227-.108.201-.11.2-.109.227-.11.201-.108.2-.108.217-.11.2-.108.227-.112.2-.107.202-.108.216-.107.2-.111.227-.108.2-.111.202-.108.216-.107.216-.111.2-.108.217-.11.2-.273.51-.112.19-.11.18-.112.191-.11.18-.112.19-.111.181-.111.19-.112.19-.11.181-.112.19-.11.18-.112.191-.111.18-.111.19-.111.191-.112.18-.11.19-.112.18-.11.191-.112.18-.111.191-.111.19-.112.18-.283.428-.114.17-.112.16-.114.159-.115.17-.115.16-.11.17-.116.159-.114.17-.115.16-.111.169-.115.16-.115.17-.114.159-.115.17-.111.16-.115.17-.115.159-.114.17-.115.16-.111.17-.115.159-.115.17-.286.37-.115.144-.115.15-.118.144-.115.149-.118.134-.115.144-.118.15-.115.143-.115.144-.118.134-.115.15-.114.144-.115.149-.118.144-.115.134-.118.15-.115.143-.119.15-.114.144-.119.134-.114.149-.119.144-.29.34-.118.113-.119.113-.118.114-.118.113-.118.113-.119.114-.118.113-.115.113-.118.114-.115.113-.118.113-.118.114-.119.113-.118.113-.115.114-.118.113-.118.113-.119.114-.118.113-.118.113-.119.114-.118.113-.115.113-.297.248-.119.113-.114.093-.119.113-.118.087-.118.114-.115.093-.118.113-.118.087-.119.113-.118.093-.115.114-.118.087-.118.113-.119.087-.114.113-.119.087v-26.353l.119-.103.118-.102.118-.103.118-.102.119-.102.118-.103.118-.102.119-.103.118-.102.118-.103.119-.102.118-.102.118-.103.119-.102.118-.103.118-.102.118-.113.119-.114.114-.113.119-.113.114-.114.119-.113.118-.113.118-.114.119-.113.118-.113.118-.114.119-.113.114-.113.115-.114.118-.113.119-.113.118-.114.118-.113.119-.113.118-.114.115-.113.118-.113.118-.114.115-.144.118-.15.115-.143.118-.15.115-.133.115-.145.118-.144.115-.149.118-.144.115-.134.118-.15.115-.143.118-.15.115-.144.118-.134.115-.149.118-.144.115-.15.115-.143.114-.134.115-.15.115-.144.114-.16.115-.169.115-.16.111-.17.115-.159.114-.17.115-.16.115-.17.111-.159.115-.17.115-.16.114-.17.111-.159.115-.17.115-.16.115-.169.11-.16.115-.17.115-.159.115-.17.115-.16.11-.17.112-.18.111-.19.111-.19.111-.18.111-.19.111-.181.112-.19.11-.18.112-.191.111-.19.111-.18.111-.191.111-.18.112-.19.11-.18.112-.191.111-.19.111-.181.111-.19.111-.18.112-.191.11-.18.112-.19.107-.217.108-.2.111-.217.108-.2.11-.227.108-.2.108-.202.111-.216.107-.2.112-.227.107-.2.108-.201.107-.217.111-.2.108-.227.111-.2.108-.201.107-.216.111-.217.104-.2.111-.217.108-.2.108-.237.107-.227.108-.236.107-.227.108-.237.107-.236.108-.227.104-.237.107-.226.108-.237.107-.237.108-.226.104-.237.108-.226.107-.237.108-.237.107-.227.108-.236.107-.227.108-.237.107-.236.108-.227.107-.247.1-.257.105-.247.104-.258.104-.247.104-.257.1-.247.108-.258.104-.247.104-.257.104-.247.107-.257.1-.247.108-.258.104-.247.104-.257.107-.247.1-.258.108-.247.104-.257.104-.247.104-.258.104-.272.1-.284.101-.272.1-.273.1-.283.101-.273.1-.283.101-.273.1-.273.1-.283.101-.273.1-.273.104-.283.1-.283.101-.272.1-.273.101-.283.1-.273.1-.283.101-.273.1-.273.1-.283.098-.304.097-.293.097-.294.097-.293.097-.304.097-.293.097-.293.097-.294.097-.293.097-.294.097-.303.097-.294.097-.293.097-.293.097-.294.097-.304.097-.293.097-.293.097-.294.097-.293.097-.304.097-.314.097-.314.093-.314.097-.314.093-.303.093-.314.097-.314.093-.314.097-.314.093-.314.093-.314.093-.314.097-.314.093-.314.097-.314.093-.314.097-.304.093-.314.097-.314.093-.314.097-.314.093-.314.09-.34.093-.34.09-.34.09-.323.09-.34.093-.34.086-.324.09-.33-4.652-22.881 17.1-22.093zm23.2-216.893-5.868.62v27.539l-.036 1.284v11.648l-.047 1.273-.036.494-.036.495-.036.51-.036.493-.036.51-.036.494-.036.51-.036.494-.036.504-.036.494-.036.505-.036.494-.036.51-.036.494-.036.51-.036.493-.036.495-.036.504-.036.494-.036.51-.036.494-.036.51-.057 1.262-.036.494-.036.494-.036.494-.036.495-.036.494-.036.494-.036.494-.036.494-.036.494-.036.494-.036.495-.036.494-.036.494-.036.494-.036.494-.036.494-.036.494-.036.494-.036.495-.036.494-.036.494-.036.494-.036.494-.075 1.24-.036.484-.036.494-.036.484-.036.494-.036.484-.036.494-.036.484-.036.494-.036.484-.036.494-.036.484-.036.494-.036.484-.036.494-.036.484-.036.494-.036.484-.036.494-.036.484-.036.494-.036.484-.036.494-.086 1.218-.04.483-.036.484-.04.484-.036.474-.039.483-.036.484-.039.484-.036.474-.039.484-.036.483-.04.484-.036.474-.04.484-.036.484-.04.483-.036.484-.039.474-.036.484-.039.483-.036.484-.036.484-.04.474-.036.483-.107 1.195-.043.474-.047.473-.043.474-.047.473-.047.474-.043.474-.043.473-.043.474-.047.473-.043.474-.047.473-.047.474-.043.473-.047.474-.043.474-.043.473-.043.474-.047.473-.047.474-.043.473-.047.474-.043.473-.118 1.172-.05.453-.047.474-.05.463-.05.464-.047.473-.05.453-.047.474-.054.463-.047.463-.047.474-.05.453-.05.473-.047.463-.05.464-.047.463-.05.473-.05.453-.047.474-.05.463-.047.463-.05.474-.05.453-.126 1.15-.054.453-.054.453-.054.453-.054.453-.054.463-.054.453-.054.453-.054.453-.054.463-.054.453-.054.453-.054.453-.054.453-.054.463-.057.453-.054.453-.054.453-.054.463-.054.453-.054.453-.054.453-.054.453-.143 1.128-.057.437-.061.438-.057.437-.061.453-.057.427-.061.453-.057.438-.061.437-.057.438-.061.453-.057.427-.061.453-.057.438-.061.437-.057.438-.061.437-.057.453-.036-.056-.036-.052-.036-.052-.036-.052v-.052l-.036-.052-.036-.052v-.052l-.036-.052-.036-.052-.036-.052-.036-.052v-.104l-.036-.052v-.052l-.036-.052v-.104l-.036-.052v-.052l-.036-.052-.036-.052v-.052l-.036-.052v-.052l-.036-.052-.036-.052v-.052l-.036-.052v-.104l-.036-.052v-.104l-.036-.052v-.052l-.036-.052v-.052l-.036-.052v-.052l-.036-.052v-.052l-.036-.052v-.052l-.036-.052v-.104l-.036-.052v-.052l-.036-.052v-.052l-.036-.052v-.052l-.036-.052v-.052l-.036-.052-.036-.052v-.052l-.036-.052v-.052l-.036-.052-.036-.052v-.104l-.036-.052-.036-.052v-.052l-.036-.052v-.052l-.036-.052-.036-.052v-.104l-.036-.052v-.052l-.036-.052v-.052l-.036-.052-.036-.052v-.052l-.036-.052v-.052l-.036-.052-.036-.052v-.104l-.036-.052v-.052l-.036-.052v-.104l-.036-.052v-.052l-.036-.052-.036-.052v-.052l-.036-.052v-.052l-.036-.052-.036-.052v-.052l-.036-.052-.036-.052-.036-.052-.036-.052v-.052l-.036-.052-.036-.052-.036-.052-.036-.052v-.052l-.036-.052-.036-.052v-.052l-.036-.052-.036-.052-.036-.052v-.052l-.036-.052-.036-.052-.036-.052-.036-.052v-.052l-.036-.052-.036-.052v-.052l-.036-.052-.036-.052-.036-.052-.036-.052v-.104l-.036-.052v-.052l-.036-.052v-.104l-.036-.052v-.052l-.036-.052v-.052l-.036-.052-.036-.052v-.052l-.036-.052v-.052l-.036-.052-.036-.052v-.104l-.036-.052v-.052l-.036-.052v-.052l-.036-.052-.036-.052v-.052l-.036-.052v-.052l-.036-.052v-.052l-.036-.052v-.052l-.036-.052-.036-.052v-.052l-.036-.052v-.052l-.036-.052v-.052l-.036-.052v-.052l-.036-.052v-.052l-.036-.052v-.052l-.036-.052-.036-.052v-.052l-.036-.052v-.052l-.036-.052v-.052l-.036-.052-.036-.052v-.104l-.036-.052v-.052l-.036-.052v-.104l-.036-.052v-.052l-.036-.052v-.052l-.036-.052-.036-.052v-.052l-.036-.052v-.052l-.036-.052-.036-.052v-.104l-.036-.052v-.052l-.036-.052v-.052l-.036-.052-.036-.052v-.052l-.036-.052-.036-.052v-.052l-.036-.052v-.052l-.036-.052-.036-.052v-.052l-.036-.052v-.052l-.036-.052-.036-.052v-.052l-.036-.052-.036-.052-.036-.052-.036-.052v-.104l-.036-.052v-.052l-.036-.052v-.104l-.036-.052v-.052l-.036-.052-.036-.052v-.052l-.036-.052v-.052l-.036-.052v-.052l-.036-.052v-.052l-.036-.052-.036-.052v-.052l-.036-.052v-.052l-.036-.052-.036-.052v-.052l.057-.437.06-.453.058-.428.06-.453.058-.437.06-.438.058-.437.06-.453.058-.427.06-.453.058-.438.06-.437.058-.453.06-.428.058-.453.06-.427.058-.453.054-.463.054-.453.054-.453.054-.453.054-.453.054-.463.054-.453.054-.453.054-.453.054-.453.054-.463.054-.453.057-.453.054-.453.054-.463.054-.453.054-.453.054-.453.057-.453.054-.464.054-.452.054-.453.05-.474.047-.453.05-.473.05-.464.047-.463.05-.474.047-.453.05-.473.05-.453.047-.474.05-.463.047-.473.05-.453.05-.474.047-.463.05-.463.047-.474.05-.453.05-.474.047-.463.05-.463.05-.463.043-.484.047-.474.047-.473.043-.474.043-.473.043-.474.047-.473.043-.474.047-.474.047-.473.043-.474.047-.473.043-.474.043-.473.043-.474.047-.473.047-.474.043-.474.047-.473.043-.474.047-.473.043-.474.04-.484.039-.473.036-.484.04-.484.036-.484.04-.483.036-.474.04-.484.036-.484.039-.484.036-.483.039-.474.036-.484.04-.484.036-.484.04-.473.036-.484.04-.484.036-.484.04-.473.036-.484.039-.484.036-.484.036-.494.036-.484.036-.494.036-.484.036-.484.036-.494.036-.484.036-.494.036-.484.036-.494.036-.484.036-.494.036-.484.036-.494.036-.484.036-.494.036-.484.036-.494.036-.484.036-.494.036-.484.036-.494.036-.494.036-.494.036-.494.036-.494.036-.494.036-.494.036-.495.036-.494.036-.494.036-.494.036-.494.036-.494.036-.495.036-.494.036-.494.036-.494.036-.494.036-.494.036-.494.036-.495.036-.494.036-.494.036-.494.036-.494.036-.494.036-.51.036-.494.036-.51.036-.494.036-.504.036-.494.036-.51.036-.494.036-.51.036-.494.036-.494.036-.504.036-.494.036-.51.036-.494.036-.51.036-.494.036-.494.036-.51.036-.494V1271.9l-7.103.756 7.071-70.416zm-23.69-214.052-3.83 18.936.09.314.086.34.093.34.09.324.09.34.093.324.09.34.09.324.09.34.09.313.093.34.09.34.09.324.09.34.093.324.09.34.09.324.09.34.226.846.086.34.086.36.086.35.086.35.086.35.086.35.086.35.086.36.086.34.086.36.086.35.086.35.086.35.086.35.086.36.086.34.086.36.086.35.086.35.086.35.086.35.086.35.086.36.212.903.082.36.082.37.082.371.086.37.079.361.086.37.079.371.086.371.082.36.082.37.082.372.086.37.079.36.086.37.079.372.086.37.082.36.082.371.086.37.079.371.086.37.086.372.079.36.2.958.08.38.075.382.079.396.075.38.079.382.075.38.079.382.075.396.079.38.075.387.079.38.075.382.079.396.075.38.075.382.079.38.075.382.079.396.075.38.079.387.075.38.079.397.186.98.075.407.075.397.072.406.075.397.075.406.075.407.072.396.075.407.075.396.075.407.072.407.075.396.075.407.075.396.072.406.075.407.075.397.075.406.072.396.075.407.075.407.075.396.18 1.015.067.417.068.416.068.417.068.417.068.417.068.417.068.417.068.417.068.417.068.417.068.417.068.417.068.417.068.417.068.417.068.417.068.416.068.407.068.427.068.407.068.417.068.417.068.417.165 1.06.065.437.064.427.065.428.065.427.065.427.065.438.065.427.065.427.064.427.065.427.065.438.068.427.065.428.064.427.065.427.065.427.065.438.065.427.065.427.065.427.065.428.068.437.15 1.082.058.453.06.438.058.453.057.427.057.453.06.437.058.453.057.438.06.437.058.453.057.438.057.437.06.438.058.453.057.437.057.438.06.453.058.437.057.438.057.453.06.427.058.453.14 1.116.054.453.054.453.054.453.054.463.054.453.054.453.054.463.054.453.054.453.054.463.054.453.054.453.054.464.054.453.054.463.054.453.057.453.054.453.054.463.054.453.054.463.054.453.132 1.15.047.452.047.474.047.463.05.474.047.463.047.463.047.474.05.453.047.473.047.464.05.473.047.464.047.463.047.473.05.453.047.474.047.463.05.474.047.463.047.463.047.474.05.453.047.473.111 1.173.043.484.047.473.043.474.043.473.047.474.043.473.043.484.043.474.043.473.043.474.043.473.043.474.047.484.043.473.043.474.043.474.047.473.043.474.043.483.043.474.047.474.043.473.097 1.195.04.484.036.484.036.483-.036.052-.036.052-.036.052-.036.052-.036.052-.036.052-.036.052-.036.052-.036.052-.036.052-.036.052-.036.052-.036.052-.036.052-.036.052-.036.052-.036.052-.036.052-.036.052-.036.052-.036.052-.036.052-.036.052-.036.052-.036.052-.036.052-.036.052-.036.052-.036.052-.036.052-.036.052-.036.052-.036.052-.036.052-.036.052-.036.052-.036.052-.036.052-.036.052-.036.052-.036.052-.036.052-.036.052-.036.052-.036.052-.036.052-.036.052-.036.052-.036.052-.036.052-.036.052-.036.052-.036.052-.036.052-.036.052-.036.052v.052l-.036.052-.036.052-.036.052-.036.052-.036.052-.036.052-.036.052-.036.052-.036.052-.036.052-.036.052-.036.052-.036.052-.036.052-.036.052-.036.052-.036.052-.036.052-.036.052-.036.052-.036.052-.036.052-.036.052-.036.052-.036.052-.036.052-.036.052-.036.052-.036.052-.036.052-.036.052-.036.052-.036.052-.036.052-.036.052-.036.052-.036.052-.036.052-.036.052-.036.052-.036.052-.036.052-.036.052-.036.052-.036.052-.036.052-.036.052-.036.052-.036.052-.036.052-.036.052-.036.052-.036.052-.036.052-.036.052-.036.052-.036.052-.036.052-.036.052-.036.052-.036.052-.036.052-.036.052-.036.052-.036.052-.036.052-.036.052-.036.052-.036.052-.036.052-.036.052-.036.052-.036.052-.036.052-.036.052-.036.052-.036.052-.036.052-.036.052-.036.052-.036.052-.036.052-.036.052-.036.052-.036.052-.036.052-.036.052-.036.052-.036.052-.036.052-.036.052-.036.052-.036.052-.036.052-.036.052-.036.052-.036.052-.036.052-.036.052-.036.052-.036.052-.036.052-.036.052-.036.052-.036.052-.036.052-.036.052-.036.052-.036.052-.036.052-.036.052-.036.052-.036.052-.036.052-.036.052-.036.052-.036.052-.036.052-.036.052-.036.052-.036.052-.036.052-.036.052-.036.052v.052l-.036.052-.036.052-.036.052-.036.052-.036.052-.036.052-.036.052-.036.052-.036.052-.036.052-.036.052-.036.052-.036.052-.036.052-.036.052-.036.052-.036.052-.036.052-.036.052-.036.052-.036.052-.036.052-.036.052-.036.052-.036.052-.036.052-.036.052-.036.052-.036.052-.036.052-.036.052-.036.052-.036.052-.036.052-.036.052-.036.052-.036.052-.036.052-.036.052-.036.052-.036.052-.036.052-.036.052-.036.052-.036.052-.036.052-.036.052-.036.052-.036.052-.036.052-.036.052-.036.052-.036.052-.036.052-.036.052-.036.052-.036.052-.036.052-.036.052-.036.052-.036.052-.036.052-.036.052-.036.052-.036.052-.036.052-.036.052-.036.052-.036.052-.036.052-.036.052-.036.052-.036.052-.036.052-.036-.484-.036-.483-.04-.484-.043-.474-.043-.484-.043-.473-.043-.474-.043-.473-.043-.474-.043-.474-.043-.483-.043-.474-.043-.473-.043-.474-.043-.474-.047-.473-.043-.484-.043-.473-.043-.474-.047-.474-.043-.473-.043-.474-.043-.484-.047-.473-.043-.474-.047-.473-.047-.463-.047-.474-.05-.453-.047-.474-.047-.463-.05-.473-.047-.464-.047-.463-.047-.473-.05-.453-.047-.474-.047-.463-.05-.474-.047-.463-.047-.463-.047-.474-.05-.453-.047-.473-.047-.474-.05-.453-.047-.473-.047-.464-.054-.463-.054-.453-.054-.453-.054-.463-.054-.453-.054-.453-.054-.463-.054-.453-.054-.453-.054-.464-.054-.453-.054-.452-.054-.464-.054-.453-.054-.453-.054-.463-.054-.453-.054-.453-.054-.463-.054-.453-.054-.463-.054-.453-.06-.453-.058-.453-.057-.438-.057-.437-.06-.453-.058-.438-.057-.437-.06-.453-.058-.428-.057-.452-.057-.453-.057-.428-.06-.453-.058-.437-.057-.453-.06-.427-.058-.453-.057-.453-.057-.427-.06-.453-.058-.438-.057-.453-.064-.427-.065-.427-.065-.428-.065-.437-.065-.427-.065-.427-.065-.428-.064-.427-.065-.438-.065-.427-.065-.427-.065-.427-.065-.427-.065-.428-.065-.437-.064-.427-.065-.428-.065-.427-.065-.427-.065-.438-.065-.427-.064-.427-.068-.427-.068-.417-.068-.417-.068-.417-.068-.417-.068-.417-.068-.417-.068-.417-.068-.406-.068-.417-.068-.417-.068-.417-.068-.417-.068-.417-.068-.417-.068-.417-.068-.417-.068-.417-.068-.417-.068-.417-.068-.417-.068-.417-.068-.417-.075-.396-.075-.406-.072-.397-.075-.407-.075-.406-.075-.396-.072-.407-.075-.396-.075-.407-.075-.407-.072-.396-.075-.407-.075-.396-.075-.407-.072-.406-.075-.397-.075-.406-.075-.397-.072-.406-.075-.407-.075-.396-.075-.407-.079-.38-.075-.387-.079-.396-.075-.381-.079-.386-.075-.381-.079-.381-.075-.396-.079-.381-.075-.381-.079-.38-.075-.387-.075-.396-.079-.386-.075-.381-.079-.381-.075-.397-.079-.38-.075-.381-.079-.381-.075-.386-.079-.397-.079-.37-.086-.37-.086-.371-.079-.371-.086-.37-.082-.361-.082-.37-.082-.371-.082-.37-.086-.361-.079-.37-.086-.371-.082-.37-.082-.361-.082-.37-.082-.372-.086-.37-.079-.36-.086-.371-.082-.37-.082-.371-.082-.36-.082-.371-.086-.35-.086-.35-.086-.35-.086-.36-.086-.34-.086-.36-.086-.34-.086-.36-.086-.35-.086-.35-.086-.35-.086-.36-.086-.34-.086-.36-.086-.351-.086-.35-.086-.35-.086-.35-.086-.36-.086-.34-.086-.36-.086-.34-.086-.36-.093-.325-.09-.34-.09-.324-.09-.34-.09-.324-.093-.34-.09-.324-.09-.34-.09-.324-.09-.34-.093-.324-.09-.34-.09-.313-.09-.34-.09-.34-.093-.34-.09-.314-.09-.34-4.636 22.939-7.817-67.518zm-54.102-61.827 1.032 24.607.115-.103.118-.078.119-.102.118-.102.118-.103.119-.102.118-.103.118-.102.119-.103.297-.2.118-.067.119-.067.118-.067.118-.067.119-.067.118-.067.118-.067.119-.067.118-.067.118-.067.118-.067.119-.067.118-.067.118-.067.119-.067.118-.067.118-.067.119-.067.118-.067.118-.067.119-.067.118-.067.118-.067.301-.15.119-.051.118-.052.118-.052.119-.052.118-.052.118-.052.118-.052.119-.052.122-.052.118-.053.118-.052.119-.052.118-.052.118-.052.118-.052.119-.052.118-.052.118-.052.119-.052.118-.052.118-.052.119-.052.118-.052.118-.052.305-.052h5.78l.298.078.118.052.118.052.118.052.119.052.118.052.118.052.119.052.118.052.118.052.119.052.118.052.118.052.119.052.118.052.122.052.118.052.118.052.119.052.118.052.118.052.119.052.118.052.297.134.119.067.118.067.118.067.119.067.118.067.118.067.119.067.118.067.118.067.118.067.119.067.118.067.118.067.119.067.118.067.118.067.119.067.118.067.118.067.119.067.118.067.118.067.298.18.118.103.118.078.115.078.118.102.119.078.118.103.118.102.119.078.114.078.119.077.118.103.118.078.119.078.118.102.118.078.118.078.119.102.118.078.118.103.119.102.118.078.118.078.119.077.29.247.118.114.119.113.114.113.119.114.114.113.119.113.118.114.118.113.119.113.118.114.118.113.118.113.119.114.118.113.118.113.119.114.114.113.119.113.114.114.119.113.118.113.118.114.29.314.115.124.115.134.118.113.115.16.118.124.115.134.119.133.118.134.115.125.114.122.115.134.118.125.115.133.118.125.115.124.118.134.115.123.118.133.115.134.118.134.115.15.118.113.284.37.114.16.115.17.115.16.115.159.114.16.115.159.115.17.114.16.115.159.111.16.115.16.115.169.114.16.115.16.115.159.115.16.114.17.115.159.115.16.114.159.112.16.114.17.28.416.115.18.11.18.112.18.111.191.111.18.111.18.115.18.111.191.111.18.111.18v25.847l-.11-.18-.112-.18-.11-.19-.116-.181-.11-.18-.112-.18-.111-.19-.111-.18-.111-.181-.115-.18-.118-.16-.112-.16-.114-.159-.115-.17-.115-.16-.114-.159-.115-.16-.115-.159-.115-.17-.114-.16-.115-.159-.111-.16-.115-.16-.115-.169-.114-.16-.115-.16-.115-.159-.114-.16-.115-.17-.115-.159-.115-.16-.114-.159-.119-.124-.114-.15-.119-.133-.114-.114-.119-.133-.114-.134-.119-.144-.114-.114-.119-.134-.114-.133-.115-.125-.118-.133-.115-.114-.119-.134-.114-.149-.119-.134-.114-.113-.119-.134-.114-.134-.119-.124-.114-.134-.119-.113-.118-.114-.118-.113-.119-.113-.114-.114-.115-.113-.118-.113-.119-.114-.118-.113-.118-.113-.119-.114-.114-.113-.119-.113-.118-.114-.118-.113-.118-.113-.119-.114-.118-.113-.115-.113-.114-.114-.119-.113-.118-.113-.118-.114-.119-.087-.118-.102-.118-.078-.119-.077-.118-.103-.118-.078-.119-.077-.118-.102-.118-.078-.115-.078-.118-.102-.118-.078-.119-.078-.118-.078-.118-.103-.119-.076-.118-.078-.118-.102-.119-.077-.118-.078-.118-.103-.119-.077-.118-.078-.118-.057-.118-.067-.119-.067-.118-.067-.118-.067-.115-.067-.118-.067-.119-.067-.118-.067-.118-.067-.119-.067-.118-.067-.118-.067-.119-.067-.118-.067-.118-.067-.118-.067-.119-.067-.118-.067-.118-.067-.119-.067-.118-.067-.118-.052-.119-.052-.118-.052-.122-.052-.118-.052-.118-.052-.119-.052-.118-.052-.118-.052-.119-.052-.118-.052-.118-.052-.119-.051-.118-.052-.118-.052-.118-.052-.119-.052-.118-.052-.118-.052-.119-.052-.122-.052-.118-.052h-5.474l-.118.052-.119.052-.118.052-.118.052-.119.052-.118.052-.118.052-.119.052-.121.052-.119.052-.118.052-.118.051-.119.052-.118.052-.118.052-.119.052-.118.052-.118.052-.119.052-.118.052-.118.052-.118.052-.119.052-.118.052-.118.078-.119.067-.118.067-.118.067-.119.067-.118.067-.118.067-.119.067-.118.067-.118.067-.118.067-.119.067-.118.067-.118.067-.119.067-.118.067-.118.067-.119.067-.118.067-.118.067-.118.067-.115.067-.119.067-.118.114-.115.093-.118.113-.118.087-.118.113-.119.093-.122.114-.114.067-.119.113 1.25 29.78-17.326-18.024zm-45.834 136.142 5.086 12.455.057-.427.057-.437.061-.453.061-.438.057-.437.061-.453.057-.427.061-.454.158-1.07.065-.428.065-.427.065-.427.065-.428.065-.427.068-.427.065-.427.065-.428.065-.427.065-.427.065-.427.065-.428.065-.427.07-.427.064-.427.065-.427.065-.428.065-.427.065-.427.065-.427.065-.427.068-.428.165-1.037.07-.417.068-.407.068-.416.07-.417.07-.417.068-.417.07-.407.068-.417.068-.417.07-.417.07-.417.068-.417.07-.406.067-.417.07-.417.068-.417.071-.417.07-.417.068-.406.068-.417.07-.417.175-1.014.075-.397.075-.406.075-.397.075-.406.075-.397.075-.406.07-.397.076-.406.075-.397.075-.417.075-.396.075-.407.075-.396.07-.407.076-.396.075-.406.075-.397.075-.407.075-.396.075-.406.075-.397.075-.406.186-.97.08-.381.074-.38.08-.387.074-.38.08-.397.078-.381.075-.381.08-.381.074-.386.08-.38.074-.382.08-.396.078-.381.075-.38.08-.387.074-.38.08-.382.074-.396.08-.381.074-.38.08-.382.078-.386.197-.924.08-.37.085-.371.083-.36.083-.371.083-.37.087-.371.08-.36.085-.371.083-.37.083-.361.083-.37.083-.371.086-.36.08-.371.086-.37.083-.371.083-.36.083-.371.086-.37.08-.361.086-.37.083-.371.208-.88.086-.35.087-.35.086-.36.087-.34.086-.36.087-.35.086-.35.087-.35.086-.36.086-.34.087-.36.087-.34.087-.36.087-.35.087-.35.087-.36.087-.34.087-.36.086-.35.087-.35.086-.35.087-.361.219-.835.089-.34.089-.324.089-.34.089-.324.093-.34.089-.324.089-.34.089-.324.089-.34.089-.339.089-.324.093-.34.089-.324.089-.34.089-.324.089-.34.089-.34.093-.324.089-.34.089-.33.089-.339.089-.324.226-.79.093-.313.093-.314.097-.314.093-.314.097-.304.093-.314.093-.314.097-.314.093-.314.097-.314.093-.314.093-.314.093-.314.097-.314.093-.314.097-.314.093-.304.097-.313.093-.314.097-.314.093-.314.236-.755.097-.294.097-.304.097-.293.097-.293.097-.294.097-.293.097-.294.097-.303.097-.294.097-.293.097-.293.097-.294.097-.304.097-.293.097-.293.097-.294.097-.293.097-.304.097-.293.097-.294.097-.293.097-.293.244-.71.1-.274.1-.283.101-.272.1-.273.101-.283.1-.273.1-.283.101-.273.1-.273.1-.283.101-.268.1-.272.101-.284.1-.272.1-.273.101-.283.1-.273.1-.283.101-.273.1-.273.101-.283.1-.273.255-.654.104-.257.104-.247.107-.257.1-.247.108-.258.104-.247.104-.257.104-.247.108-.258.1-.247.108-.257.104-.247.104-.257.104-.248.107-.257.1-.247.105-.257.103-.258.104-.247v22.111l-.107.247-.1.257-.104.247-.104.258-.104.257-.108.247-.1.257-.104.247-.104.258-.104.247-.104.257-.1.247-.108.258-.104.247-.104.257-.104.247-.108.258-.1.247-.108.257-.1.283-.1.273-.1.283-.101.273-.104.283-.1.273-.1.272-.098.284-.104.272-.1.273-.1.283-.1.273-.101.273-.1.283-.101.273-.1.283-.1.273-.101.267-.1.284-.1.272-.101.273-.1.283-.098.304-.097.293-.097.294-.097.293-.097.304-.097.293-.097.294-.097.293-.097.293-.097.304-.097.293-.097.294-.097.293-.097.294-.097.303-.097.294-.097.293-.097.294-.097.293-.097.293-.097.304-.097.293-.097.325-.097.303-.093.314-.097.314-.093.314-.093.314-.093.314-.093.314-.093.314-.097.314-.093.314-.097.314-.093.314-.097.314-.093.304-.093.314-.093.314-.097.314-.093.314-.097.314-.097.314-.093.34-.089.34-.089.324-.089.34-.089.324-.089.34-.093.339-.089.324-.089.34-.089.324-.089.34-.089.33-.089.34-.093.339-.089.324-.089.34-.089.324-.089.34-.089.324-.093.34-.089.324-.089.34-.087.36-.086.34-.087.36-.086.35-.087.35-.086.35-.087.35-.086.36-.087.34-.086.36-.087.35-.086.35-.087.35-.086.361-.086.34-.087.36-.086.35-.087.35-.086.35-.087.36-.086.34-.087.36-.086.381-.079.36-.086.371-.083.37-.083.361-.083.37-.086.371-.079.371-.086.36-.083.371-.083.37-.083.371-.086.36-.079.371-.086.37-.083.361-.083.37-.083.371-.083.37-.087.361-.079.37-.086.371-.079.397-.079.386-.075.38-.079.382-.075.38-.079.397-.075.38-.079.387-.079.38-.075.382-.079.38-.075.397-.079.38-.075.382-.079.386-.075.38-.079.381-.079.381-.075.397-.079.38-.075.382-.079.386-.075.406-.075.396-.075.407-.075.397-.075.406-.075.396-.07.407-.076.397-.075.406-.075.396-.075.407-.075.396-.075.407-.075.407-.075.396-.075.407-.075.396-.075.407-.075.406-.075.397-.075.406-.075.397-.069.417-.068.416-.069.407-.068.417-.07.417-.07.417-.068.417-.069.417-.069.406-.07.417-.07.417-.069.417-.068.417-.069.417-.068.407-.07.417-.07.417-.068.416-.069.418-.069.416-.068.407-.065.427-.065.427-.069.428-.065.427-.065.427-.065.427-.065.428-.065.427-.065.427-.065.427-.068.428-.065.427-.065.427-.065.427-.065.427-.065.428-.068.427-.065.427-.068.427-.065.428-.065.427-.065.437-.06.453-.062.438-.057.437-.06.438-.058.453-.06.437-.058.428-.057.437 6.158 15.082-5.5 17.105-8.577-3.847z" class="stroke-blue fill-blue" style="display:inline;fill:#0074d9;fill-opacity:1;stroke-width:19.7172;stroke-miterlimit:4.1"/>
  </g>
</svg>
