<?xml version="1.0" encoding="UTF-8" standalone="no"?>
<svg
   xml:space="preserve"
   viewBox="0 0 913.66229 380.33208"
   version="1.1"
   id="svg5"
   sodipodi:docname="fig-prime_knot-connect_sum.svg"
   inkscape:version="1.4.2 (ebf0e940d0, 2025-05-08)"
   xmlns:inkscape="http://www.inkscape.org/namespaces/inkscape"
   xmlns:sodipodi="http://sodipodi.sourceforge.net/DTD/sodipodi-0.dtd"
   xmlns="http://www.w3.org/2000/svg"
   xmlns:svg="http://www.w3.org/2000/svg">
  <defs
   id="defs5">
    
    
  
      
    
      
      
    
    
    
    
  
    
    
    
  </defs>
  <sodipodi:namedview
   id="namedview5"
   pagecolor="#ffffff"
   bordercolor="#000000"
   borderopacity="0.25"
   inkscape:showpageshadow="2"
   inkscape:pageopacity="0.0"
   inkscape:pagecheckerboard="0"
   inkscape:deskcolor="#d1d1d1"
   inkscape:zoom="1.2104088"
   inkscape:cx="584.10017"
   inkscape:cy="254.0464"
   inkscape:window-width="2234"
   inkscape:window-height="1418"
   inkscape:window-x="0"
   inkscape:window-y="0"
   inkscape:window-maximized="1"
   inkscape:current-layer="svg5" />
  <path
   d="m 104.83664,154.57423 a 29626.733,29626.733 0 0 1 5.64865,5.61474 c 6.18106,6.14225 14.45774,9.1975 24.82654,9.16398 10.36526,-0.0335 20.73405,-0.0653 31.10284,-0.0988 10.3688,-0.0335 15.51968,-9.29452 15.45617,-27.78829 l -0.19051,-55.479568 -0.19051,-55.479564 c -0.0635,-18.493776 -5.27789,-27.723095 -15.64668,-27.6895084 -10.36527,0.033551 -20.73406,0.065233 -31.10285,0.098784 -10.36879,0.033587 -18.522,3.1452473 -24.46315,9.3350884 A 1532.7043,1532.7043 0 0 1 92.153801,30.815448 c -6.13872,6.186348 -12.379752,12.367404 -18.717804,18.550224 -6.338052,6.179292 -6.415668,12.342708 -0.232848,18.484956 q 3.13237,3.111837 6.264317,6.223744 m 25.179124,25.019941 a 108889.18,108889.18 0 0 0 5.64995,5.613327 c 6.18282,6.14225 6.30277,12.3092 0.35986,18.5026 -5.94292,6.18988 -11.982855,12.37799 -18.121575,18.56434 -6.142248,6.18634 -12.379752,12.3674 -18.717804,18.54846 -6.338052,6.18105 -14.593572,9.28922 -24.761268,9.32803 -10.171224,0.0388 -20.33892,0.0776 -30.510073,0.11466 C 8.3779131,169.80277 3.2623131,160.57705 3.1988797,142.08328 3.1352345,123.5895 3.0718717,105.09572 3.0082265,86.603712 2.9447931,68.1117 2.8812891,49.617924 2.8177851,31.124148 2.7542811,12.630372 7.8064477,3.365773 17.977601,3.3287996 c 10.167731,-0.040607 20.33892,-0.075887 30.506616,-0.1163887 10.171224,-0.037079 18.3456,3.0146407 24.52842,9.1585821 q 3.132088,3.112507 6.263823,6.22445 m 25.17912,25.019871 q 2.82505,2.807582 5.65045,5.61453 c 6.18282,6.142248 6.30277,12.309192 0.36162,18.500832 -5.94115,6.19164 -11.984617,12.379752 -18.123337,18.564336 -6.13872,6.184584 -12.379752,12.369168 -18.717804,18.548458 -6.338052,6.17929 -6.415668,12.34271 -0.234612,18.48496 l 6.265446,6.22611"
   style="fill:none;stroke:#ff851b;stroke-width:5.63432;stroke-linecap:round;stroke-linejoin:miter;stroke-miterlimit:10;stroke-dasharray:none;stroke-opacity:1"
   id="path1" /><path
   d="m 363.55864,154.57423 a 29626.733,29626.733 0 0 1 5.64865,5.61474 c 6.18105,6.14225 14.45774,9.1975 24.82653,9.16398 10.36527,-0.0335 20.73406,-0.0653 31.10285,-0.0988 10.36879,-0.0335 15.51967,-9.29452 15.45617,-27.78829 l -0.19051,-55.479568 -0.19052,-55.479564 c -0.0635,-18.493776 -5.27788,-27.723095 -15.64668,-27.6895084 -10.36526,0.033551 -20.73405,0.065233 -31.10284,0.098784 -10.3688,0.033587 -18.522,3.1452473 -24.46316,9.3350884 A 1532.7043,1532.7043 0 0 1 350.8758,30.815448 c -6.13872,6.186348 -12.37975,12.367404 -18.71781,18.550224 -6.33805,6.179292 -6.41566,12.342708 -0.23284,18.484956 q 3.13237,3.111837 6.26431,6.223744 m 25.17913,25.019941 a 108889.18,108889.18 0 0 0 5.64995,5.613327 c 6.18282,6.14225 6.30277,12.3092 0.35985,18.5026 -5.94291,6.18988 -11.98285,12.37799 -18.12157,18.56434 -6.14225,6.18634 -12.37975,12.3674 -18.7178,18.54846 -6.33805,6.18105 -14.59357,9.28922 -24.76127,9.32803 -10.17122,0.0388 -20.33892,0.0776 -30.51007,0.11466 -10.16777,0.037 -15.28337,-9.18868 -15.3468,-27.68245 -0.0636,-18.49378 -0.12701,-36.98756 -0.19066,-55.479568 -0.0634,-18.492012 -0.12693,-36.985788 -0.19044,-55.479564 -0.0635,-18.493776 4.98866,-27.758375 15.15982,-27.7953484 10.16773,-0.040607 20.33892,-0.075887 30.50661,-0.1163887 10.17123,-0.037079 18.3456,3.0146407 24.52842,9.1585821 q 3.13209,3.112507 6.26383,6.22445 m 25.17912,25.019871 q 2.82505,2.807582 5.65045,5.61453 c 6.18282,6.142248 6.30277,12.309192 0.36162,18.500832 -5.94116,6.19164 -11.98462,12.379752 -18.12334,18.564336 -6.13872,6.184584 -12.37975,12.369168 -18.7178,18.548458 -6.33806,6.17929 -6.41567,12.34271 -0.23462,18.48496 l 6.26545,6.22611"
   style="fill:none;stroke:#ff851b;stroke-width:5.63432;stroke-linecap:round;stroke-linejoin:miter;stroke-miterlimit:10;stroke-dasharray:none;stroke-opacity:1"
   id="path2" /><path
   style="font-size:136.063px;line-height:1;font-family:'Roboto Condensed';-inkscape-font-specification:'Roboto Condensed, ';text-align:center;letter-spacing:0;word-spacing:1.07px;text-anchor:middle;fill:#616161;stroke-width:20.6551;stroke-miterlimit:3.6"
   d="m 198.6012,136.40558 16.01132,-96.732295 h 8.969 l -16.07776,96.732295 z m 22.58859,0 16.07776,-96.732295 h 8.90256 l -16.01132,96.732295 z m 31.22539,-59.859753 h -58.06595 v -9.234745 h 58.06595 z m -4.18553,32.620573 h -58.13238 v -9.168307 h 58.13238 z"
   id="text4"
   aria-label="       #    " />
  <g
   id="g1"
   transform="translate(7.93234)"><path
     d="m 684.73399,377.46903 c 10.1712,-0.037 27.8872,-0.03 38.0584,-0.0688 10.1677,-0.0388 18.4232,-3.14698 24.7613,-9.32804 6.338,-6.18105 12.5755,-12.36211 18.7178,-18.54846 6.1387,-6.18634 12.1786,-12.37446 18.1215,-18.56433 5.943,-6.19341 5.823,-12.36035 -0.3598,-18.5026 q -3.025,-3.00515 -6.0497,-6.01044 m -24.3797,-24.22564 q -3.3318,-3.31053 -6.664,-6.62092 c -6.1828,-6.14225 -6.1052,-12.30567 0.2328,-18.48496 6.3381,-6.18282 12.5791,-12.36388 18.7178,-18.55022 a 1532.7043,1532.7043 0 0 0 18.1234,-18.56434 c 5.9411,-6.18984 14.0943,-9.3015 24.4631,-9.33509 10.3688,-0.0335 20.7376,-0.0652 31.1029,-0.0988 10.3688,-0.0336 15.5832,9.19573 15.6467,27.68951 l 0.1905,55.47956 0.1905,55.47956 c 0.064,18.49378 -5.0874,27.75478 -15.4562,27.7883 -10.3688,0.0335 -20.7376,0.0653 -31.1028,0.0988 -10.3688,0.0335 -18.6455,-3.02173 -24.8266,-9.16398 a 30167.963,30167.963 0 0 0 -6.0483,-6.01189 m -24.38,-24.22536 -6.6651,-6.62329 c -6.181,-6.14225 -6.1034,-12.30567 0.2346,-18.48496 6.3381,-6.17929 12.5791,-12.36388 18.7178,-18.54846 6.1388,-6.18458 12.1822,-12.3727 18.1234,-18.56434 5.9411,-6.19164 5.8212,-12.35858 -0.3616,-18.50083 a 45371.809,45371.809 0 0 1 -6.0501,-6.01171 m -24.3798,-24.22553 -6.6635,-6.62163 c -6.1828,-6.14394 -14.3572,-9.19566 -24.5284,-9.15858 -10.1677,0.0405 -27.8906,-0.43585 -38.0584,-0.39524"
     style="fill:none;stroke:#ff851b;stroke-width:5.63432;stroke-linecap:round;stroke-linejoin:miter;stroke-miterlimit:10;stroke-dasharray:none;stroke-opacity:1"
     id="path3" /><path
     d="m 684.16249,210.56634 c -10.3653,0.0335 -20.7341,0.0652 -31.1029,0.0988 -10.3688,0.0336 -18.522,3.14525 -24.4631,9.33509 a 1532.7043,1532.7043 0 0 1 -18.12335,18.56434 c -6.13872,6.18634 -12.37975,12.3674 -18.71781,18.55022 -6.33805,6.17929 -6.41566,12.34271 -0.23284,18.48496 q 3.33223,3.31039 6.66404,6.62089 m 24.37966,24.22568 q 3.0246,3.00526 6.0497,6.01044 c 6.1828,6.14225 6.3028,12.30919 0.3598,18.5026 -5.9429,6.18987 -11.9828,12.37799 -18.12153,18.56433 -6.14225,6.18635 -12.37975,12.36741 -18.7178,18.54846 -6.33805,6.18106 -14.59357,9.28923 -24.76127,9.32804 -10.17122,0.0388 -20.33892,0.0776 -30.51007,0.11466 -10.16777,0.037 -15.28337,-9.18868 -15.3468,-27.68246 -0.0637,-18.49377 -0.12701,-36.98755 -0.19066,-55.47956 -0.0634,-18.49201 -0.12693,-36.98579 -0.19044,-55.47956 -0.0635,-18.49378 4.98866,-27.75838 15.15982,-27.79535 10.16773,-0.0406 20.33892,-0.0759 30.50661,-0.11639 10.17123,-0.0371 18.3456,3.01464 24.52842,9.15858 q 3.33199,3.3111 6.66348,6.6216 m 24.37984,24.22554 q 3.0248,3.00621 6.0501,6.01171 c 6.1828,6.14225 6.3027,12.30919 0.3616,18.50083 -5.9412,6.19164 -11.9846,12.37976 -18.12334,18.56434 -6.13872,6.18458 -12.37975,12.36917 -18.7178,18.54846 -6.33806,6.17929 -6.41567,12.34271 -0.23462,18.48496 l 6.6651,6.62325 m 24.37996,24.2254 q 3.0246,3.00547 6.0483,6.01189 c 6.1811,6.14225 14.4578,9.1975 24.8266,9.16398 10.3652,-0.0335 20.734,0.4005 31.1028,0.36698"
     style="fill:none;stroke:#ff851b;stroke-width:5.63432;stroke-linecap:round;stroke-linejoin:miter;stroke-miterlimit:10;stroke-dasharray:none;stroke-opacity:1"
     id="path4" /></g><path
   style="font-size:136.063px;line-height:1;font-family:'Roboto Condensed';-inkscape-font-specification:'Roboto Condensed, ';text-align:center;letter-spacing:0;word-spacing:1.07px;text-anchor:middle;fill:#616161;stroke-width:20.6551;stroke-miterlimit:3.6"
   d="m 514.62471,274.90678 v 10.69636 H 468.1188 v -10.69636 z m 0,27.57136 V 313.1745 H 468.1188 v -10.69636 z"
   id="text5"
   aria-label="     =    " />
  <path
   d="m 631.08832,156.32213 5.64865,5.61474 c 6.18105,6.14225 14.45774,9.1975 24.82653,9.16398 10.36527,-0.0335 20.73406,-0.0653 31.10285,-0.0988 M 692.09481,4.5651396 c -10.36526,0.033551 -20.73405,0.065233 -31.10284,0.098784 -10.3688,0.033587 -18.522,3.1452473 -24.46316,9.3350884 -5.98862,6.239131 -12.02995,12.427464 -18.12333,18.564336 -6.13872,6.186348 -12.37975,12.367404 -18.71781,18.550224 -6.33805,6.179292 -6.41566,12.342708 -0.23284,18.484956 2.08824,2.074559 4.17635,4.14914 6.26431,6.223745 m 25.17913,25.019937 5.64995,5.61333 c 6.18282,6.14225 6.30277,12.30919 0.35985,18.5026 -5.94291,6.18987 -11.98285,12.37799 -18.12157,18.56433 -6.14225,6.18635 -12.37975,12.36741 -18.7178,18.54846 -6.33805,6.18106 -14.59357,9.28923 -24.76127,9.32804 -10.17122,0.0388 -20.33892,0.0776 -30.51007,0.11466 -10.16777,0.037 -15.28337,-9.18868 -15.3468,-27.68246 -0.0637,-18.49377 -0.12701,-36.98755 -0.19066,-55.479558 -0.0634,-18.492012 -0.12693,-36.985788 -0.19044,-55.479564 -0.0635,-18.493776 4.98867,-27.758375 15.15982,-27.7953484 10.16773,-0.040607 20.33892,-0.075887 30.50661,-0.1163887 10.17123,-0.037079 18.3456,3.0146407 24.52842,9.1585821 2.08806,2.075005 4.176,4.149822 6.26383,6.224451 m 25.17912,25.01987 c 1.88336,1.871721 3.76685,3.743233 5.65045,5.61453 6.18282,6.142248 6.30277,12.309192 0.36162,18.500832 -5.94116,6.19164 -11.98462,12.379752 -18.12334,18.564336 -6.13872,6.184584 -12.37975,12.369168 -18.7178,18.548458 -6.33806,6.17929 -6.41567,12.34271 -0.23462,18.48496 l 6.26545,6.2261"
   style="fill:none;stroke:#ff851b;stroke-width:5.63432;stroke-linecap:round;stroke-linejoin:miter;stroke-miterlimit:10;stroke-dasharray:none;stroke-opacity:1"
   id="path1-6"
   sodipodi:nodetypes="ccsccscccscccccsssccsccscccssssc" /><path
   d="m 833.81032,156.32213 5.64865,5.61474 c 6.18105,6.14225 14.45774,9.1975 24.82653,9.16398 10.36527,-0.0335 20.73406,-0.0653 31.10285,-0.0988 10.36879,-0.0335 15.51967,-9.29452 15.45617,-27.78829 l -0.19051,-55.479568 -0.19052,-55.479564 c -0.0635,-18.493776 -5.27788,-27.723095 -15.64668,-27.6895084 -10.36526,0.033551 -20.73405,0.065233 -31.10284,0.098784 -10.3688,0.033587 -18.522,3.1452473 -24.46316,9.3350884 -5.98862,6.23913 -12.02995,12.427464 -18.12333,18.564336 -6.13872,6.186348 -12.37975,12.367404 -18.71781,18.550224 -6.33805,6.179292 -6.41566,12.342708 -0.23284,18.484956 2.08824,2.074559 4.17635,4.149139 6.26431,6.223744 m 25.17913,25.019938 5.64995,5.61333 c 6.18282,6.14225 6.30277,12.3092 0.35985,18.5026 -5.94291,6.18988 -11.98285,12.37799 -18.12157,18.56434 -6.14225,6.18634 -12.37975,12.3674 -18.7178,18.54846 -6.33805,6.18105 -14.59357,9.28922 -24.76127,9.32803 -10.17122,0.0388 -20.33892,0.0776 -30.51007,0.11466 M 746.95128,5.0766996 c 10.16773,-0.040607 20.33892,-0.075887 30.50661,-0.1163887 10.17123,-0.037079 18.3456,3.0146407 24.52842,9.1585821 2.08806,2.075005 4.176,4.149822 6.26383,6.22445 m 25.17912,25.019871 c 1.88336,1.87172 3.76685,3.743233 5.65045,5.61453 6.18282,6.142248 6.30277,12.309192 0.36162,18.500832 -5.94116,6.19164 -11.98462,12.379752 -18.12334,18.564336 -6.13872,6.184584 -12.37975,12.369168 -18.7178,18.548458 -6.33806,6.17929 -6.41567,12.34271 -0.23462,18.48496 l 6.26545,6.22611"
   style="fill:none;stroke:#ff851b;stroke-width:5.63432;stroke-linecap:round;stroke-linejoin:miter;stroke-miterlimit:10;stroke-dasharray:none;stroke-opacity:1"
   id="path2-7"
   sodipodi:nodetypes="ccssscssssccscccccsscccscccssssc" /><path
   style="font-size:136.063px;line-height:1;font-family:'Roboto Condensed';-inkscape-font-specification:'Roboto Condensed, ';text-align:center;letter-spacing:0;word-spacing:1.07px;text-anchor:middle;fill:#616161;stroke-width:20.6551;stroke-miterlimit:3.6"
   d="M 514.62471,68.905572 V 79.601931 H 468.1188 V 68.905572 Z m 0,27.571361 V 107.17329 H 468.1188 V 96.476933 Z"
   id="text5-6"
   aria-label="       =      " />
</svg>
