<?xml version="1.0" encoding="UTF-8" standalone="no"?>
<svg
   viewBox="0 0 4986.828 1570.196"
   version="1.1"
   id="svg33"
   sodipodi:docname="flype.svg"
   inkscape:version="1.4.2 (ebf0e940d0, 2025-05-08)"
   xmlns:inkscape="http://www.inkscape.org/namespaces/inkscape"
   xmlns:sodipodi="http://sodipodi.sourceforge.net/DTD/sodipodi-0.dtd"
   xmlns="http://www.w3.org/2000/svg"
   xmlns:svg="http://www.w3.org/2000/svg">
  <defs
     id="defs33" />
  <sodipodi:namedview
     id="namedview33"
     pagecolor="#ffffff"
     bordercolor="#000000"
     borderopacity="0.25"
     inkscape:showpageshadow="2"
     inkscape:pageopacity="0.0"
     inkscape:pagecheckerboard="0"
     inkscape:deskcolor="#d1d1d1"
     inkscape:zoom="0.37506551"
     inkscape:cx="3266.0961"
     inkscape:cy="793.19477"
     inkscape:window-width="2254"
     inkscape:window-height="1502"
     inkscape:window-x="0"
     inkscape:window-y="0"
     inkscape:window-maximized="1"
     inkscape:current-layer="g33" />
  <g
     transform="matrix(1.33333 0 0 -1.33333 707.736 728.239)"
     id="g33">
    <path
       d="m365.004-219.833-20.396-2.527-.455 2.11-.456 2.107-.522 2.216-.504 2.102-.506 2.102-.505 2.102-.506 2.102-.586 2.215-.557 2.094-.559 2.094-.557 2.094-.607 2.22-.615 2.085-.615 2.086-.614 2.085-.614 2.086-.698 2.214-.675 2.076-.676 2.075-.675 2.074-.744 2.22-.74 2.06-.742 2.063-.74 2.061-.807 2.222-.812 2.047-.812 2.045-.812 2.047-.89 2.222-.89 2.027-.89 2.027-.89 2.028-1 2.214-.977 2.005-.975 2.006-.975 2.004-1.15 2.199-1.068 1.977-1.071 1.978-1.238 2.203-1.176 1.942-1.174 1.943-1.312 2.133-1.261 1.911-1.4 2.036-1.446 2.03-1.39 1.86-1.57 1.99-1.636 1.98-1.708 1.963-1.612 1.754-1.876 1.897-1.972 1.864-2.084 1.826-2.206 1.776-2.343 1.712-2.493 1.634-2.654 1.535-2.829 1.41-3.007 1.256-3.678 1.202-3.398.796-3.917.553-4.024.18v-7.179l-.149-6.322 6.881-.514 1.943-.794 1.889-.932 1.83-1.054 1.774-1.16 1.716-1.253 1.661-1.335 1.61-1.405 1.56-1.466 1.515-1.52 1.612-1.753 1.392-1.606 1.36-1.644 1.325-1.676 1.389-1.86 1.23-1.73 1.21-1.757 1.26-1.91 1.065-1.741 1.176-1.942 1.174-1.942.966-1.73 1.072-1.978 1.069-1.977.929-1.771.976-2.006.975-2.004.975-2.006.823-1.828.89-2.028.89-2.026.89-2.028.743-1.87.812-2.046.812-2.046.812-2.046.684-1.9.741-2.06.74-2.063.742-2.062.642-1.922.675-2.074.676-2.075.674-2.075.614-1.94.614-2.085.614-2.086.614-2.085.614-2.086.537-1.964.557-2.094.558-2.094.559-2.095.525-1.977.505-2.101.506-2.102.504-2.102.505-2.102.471-1.992.456-2.108.455-2.109-20.394-2.526 41.621-101.1z"
       class="stroke-comment fill-comment"
       style="fill:#616161;stroke:none;stroke-width:8.01542;stroke-miterlimit:4.1;stroke-dasharray:none"
       id="path1" />
    <path
       d="m365.004 134.568-20.396 2.526-.455-2.108-.456-2.108-.522-2.216-.504-2.1-.506-2.102-.505-2.101-.506-2.102-.586-2.214-.557-2.094-.559-2.093-.557-2.094-.607-2.219-.615-2.085-.615-2.085-.614-2.085-.614-2.085-.698-2.214-.675-2.074-.676-2.075-.675-2.074-.744-2.219-.74-2.06-.742-2.062-.74-2.061-.807-2.221-.812-2.046-.812-2.046-.812-2.046-.89-2.22-.89-2.028-.89-2.026-.89-2.027-1-2.214-.977-2.005-.975-2.005-.975-2.004-1.15-2.198-1.068-1.976-1.071-1.978-1.238-2.202-1.176-1.942-1.174-1.942-1.312-2.133-1.261-1.91-1.4-2.036-1.446-2.029-1.39-1.86-1.57-1.99-1.636-1.978-1.708-1.963-1.612-1.753-1.876-1.897-1.972-1.863L293.266 26l-2.206-1.775-2.343-1.712-2.493-1.634-2.654-1.534-2.829-1.41-3.007-1.256-3.678-1.202-3.398-.796-3.917-.552-4.024-.18v7.177l.227 6.493 6.505.341 1.943.794 1.889.932 1.83 1.053 1.774 1.16 1.716 1.253 1.661 1.335 1.61 1.404 1.56 1.466 1.515 1.52 1.612 1.752 1.392 1.606 1.36 1.643 1.325 1.675 1.389 1.86 1.23 1.73 1.21 1.756 1.26 1.91 1.065 1.74 1.176 1.942 1.174 1.942.966 1.729 1.072 1.977 1.069 1.977.929 1.77.976 2.006.975 2.004.975 2.005.823 1.828.89 2.027.89 2.026.89 2.027.743 1.869.812 2.046.812 2.045.812 2.046.684 1.899.741 2.06.74 2.063.742 2.06.642 1.922.675 2.074.676 2.074.674 2.075.614 1.94.614 2.084.614 2.085.614 2.085.614 2.085.537 1.964.557 2.093.558 2.094.559 2.094.525 1.976.505 2.101.506 2.1.504 2.103.505 2.1.471 1.993.456 2.107.455 2.109-20.394 2.525 41.621 101.075z"
       class="stroke-comment fill-comment"
       style="fill:#616161;stroke:none;stroke-width:8.01439;stroke-miterlimit:4.1;stroke-dasharray:none"
       id="path2" />
    <path
       d="m443.954-231.991 66.008-64.183c15.857-11.966 15.856-11.953 33.703-11.802l506.692-1.499M443.954 135.18l66.008 64.183c15.857 11.966 15.856 11.953 33.703 11.802l506.692 1.499"
       class="stroke-orange fill-orange"
       style="fill:none;stroke:#ff851b;stroke-width:16.5705;stroke-linecap:butt;stroke-linejoin:miter;stroke-dasharray:none;stroke-opacity:1"
       transform="translate(0 -313.709)"
       id="path3" />
    <path
       d="m441.626 97.989 77.882-77.95M443.954 459.18l74.293 74.358"
       class="stroke-orange fill-orange"
       style="fill:none;stroke:#ff851b;stroke-width:16.5705;stroke-linecap:butt;stroke-linejoin:miter;stroke-dasharray:none;stroke-opacity:1"
       transform="translate(0 -639)"
       id="path4" />
    <g
       style="display:inline"
       transform="matrix(2.76055 0 0 -2.76293 -25.392 34.294)"
       id="g5">
      <path
         d="M95.987 238.496c-40.02-3.626-73.497-31.904-83.754-70.747-4.013-15.198-4.013-33.368 0-48.566 9.68-36.655 39.637-63.734 77.404-69.965 6.991-1.154 22.642-1.154 29.633 0 41.257 6.807 72.625 38.175 79.432 79.431 1.85 11.211.998 27.643-2.028 39.1-9.657 36.57-39.811 63.872-77.228 69.921-4.454.72-18.981 1.232-23.46.826m22.401-5.72c52.756-8.696 86.477-59.58 73.702-111.214-8.706-35.184-37.598-61.553-73.878-67.425-6.899-1.117-21.007-1.118-27.693-.003-39.313 6.559-69.069 36.348-75.386 75.472-1.068 6.615-1.147 20.3-.155 26.736 6.489 42.08 39.946 73.562 82.067 77.22 4.23.368 17.254-.112 21.343-.787"
         class="stroke-comment fill-comment"
         style="display:inline;fill:#616161;fill-opacity:1;stroke:none;stroke-width:.352778;stroke-opacity:1"
         id="path5" />
      <ellipse
         cx="104.312"
         cy="142.775"
         class="stroke-comment fill-comment"
         rx="92.373"
         ry="92.293"
         style="fill:#616161;stroke:none;stroke-width:6.80414;stroke-miterlimit:4.1;fill-opacity:.62021375"
         id="ellipse5" />
    </g>
    <path
       d="M187.064 352.704h151.76"
       class="stroke-teal fill-teal"
       style="fill:#39cccc;fill-opacity:.766511;stroke:#ff4136;stroke-width:8.50394;stroke-miterlimit:3.6;stroke-dasharray:none"
       transform="translate(0 -639)"
       id="path6" />
    <path
       d="M262.944 202.316v150.388"
       class="stroke-teal fill-teal"
       style="fill:#39cccc;fill-opacity:.766511;stroke:#ff4136;stroke-width:8.50394;stroke-miterlimit:3.6;stroke-dasharray:none"
       transform="translate(9.594 -639)"
       id="path7" />
    <path
       d="M243.755 333.456v-131.14"
       class="stroke-teal fill-teal"
       style="fill:#39cccc;fill-opacity:.766511;stroke:#ff4136;stroke-width:8.50395;stroke-miterlimit:3.6;stroke-dasharray:none"
       transform="translate(9.594 -639)"
       id="path8" />
    <path
       d="m-524.932 539.816 486.584-487.45C.07 13.95.07 13.95 38.486 52.366l42.776 43.81"
       class="stroke-orange fill-orange"
       style="fill:none;stroke:#ff851b;stroke-width:16.5713;stroke-miterlimit:4.1;stroke-dasharray:none"
       transform="translate(0 -639)"
       id="path9" />
    <path
       d="m-524.932 13.95 221.93 222.796m75.782 75.782L-36.918 502.83c36.986 36.986 36.986 36.986 73.973 0l46.372-46.333"
       class="stroke-orange fill-orange"
       style="fill:none;stroke:#ff851b;stroke-width:16.5713;stroke-miterlimit:4.1;stroke-dasharray:none"
       transform="translate(0 -639)"
       id="path10" />
    <path
       d="m443.954 92.009 66.008-64.183c15.857-11.966 15.856-11.953 33.703-11.802l506.692-1.499M443.954 459.18l66.008 64.183c15.857 11.966 15.856 11.953 33.703 11.802l506.692 1.499"
       class="stroke-orange fill-orange"
       style="fill:none;stroke:#ff851b;stroke-width:16.5705;stroke-linecap:butt;stroke-linejoin:miter;stroke-dasharray:none;stroke-opacity:1"
       id="path11" />
    <g
       id="g35"
       transform="translate(0,-639)">
      <path
         d="M 3203.449,539.816 2978.706,314.207 M 2904.339,239.84 2716.865,52.366 c -38.417,-38.416 -38.417,-38.416 -76.833,0 l -42.777,43.81"
         class="stroke-orange fill-orange"
         style="fill:none;stroke:#ff851b;stroke-width:16.5713;stroke-miterlimit:4.1;stroke-dasharray:none"
         id="path25" />
      <path
         d="m 3203.449,13.95 -488.014,488.88 c -36.986,36.986 -36.986,36.986 -73.972,0 l -46.372,-46.333"
         class="stroke-orange fill-orange"
         style="fill:none;stroke:#ff851b;stroke-width:16.5713;stroke-miterlimit:4.1;stroke-dasharray:none"
         id="path26" />
    </g>
    <g
       style="display:inline"
       id="g12">
      <path
         d="M95.987 238.496c-40.02-3.626-73.497-31.904-83.754-70.747-4.013-15.198-4.013-33.368 0-48.566 9.68-36.655 39.637-63.734 77.404-69.965 6.991-1.154 22.642-1.154 29.633 0 41.257 6.807 72.625 38.175 79.432 79.431 1.85 11.211.998 27.643-2.028 39.1-9.657 36.57-39.811 63.872-77.228 69.921-4.454.72-18.981 1.232-23.46.826m22.401-5.72c52.756-8.696 86.477-59.58 73.702-111.214-8.706-35.184-37.598-61.553-73.878-67.425-6.899-1.117-21.007-1.118-27.693-.003-39.313 6.559-69.069 36.348-75.386 75.472-1.068 6.615-1.147 20.3-.155 26.736 6.489 42.08 39.946 73.562 82.067 77.22 4.23.368 17.254-.112 21.343-.787"
         class="stroke-comment fill-comment"
         style="display:inline;fill:#616161;fill-opacity:1;stroke:none;stroke-width:.352778;stroke-opacity:1"
         transform="matrix(2.76055 0 0 -2.76293 -25.392 673.294)"
         id="path12" />
    </g>
    <circle
       cx="262.944"
       cy="-276.825"
       r="255"
       class="stroke-comment fill-comment"
       style="display:inline;fill:#616161;fill-opacity:.620214;stroke:none;stroke-width:18.7913;stroke-miterlimit:4.1"
       transform="scale(1 -1)"
       id="circle12" />
    <path
       d="M187.064 352.704h151.76"
       class="stroke-teal fill-teal"
       style="fill:#39cccc;fill-opacity:.766511;stroke:#ff4136;stroke-width:8.50394;stroke-miterlimit:3.6;stroke-dasharray:none"
       id="path13" />
    <path
       d="M262.944 202.316v150.388"
       class="stroke-teal fill-teal"
       style="fill:#39cccc;fill-opacity:.766511;stroke:#ff4136;stroke-width:8.50394;stroke-miterlimit:3.6;stroke-dasharray:none"
       transform="translate(9.594)"
       id="path14" />
    <g
       id="g34"
       transform="translate(0,639)">
      <path
         d="m 3203.449,-99.184 -486.584,-487.45 c -38.417,-38.416 -38.417,-38.416 -76.833,0 l -42.776,43.81"
         class="stroke-orange fill-orange"
         style="fill:none;stroke:#ff851b;stroke-width:16.5713;stroke-miterlimit:4.1;stroke-dasharray:none"
         id="path30" />
      <path
         d="m 3203.449,-625.05 -221.93,222.796 m -75.782,75.782 -190.302,190.302 c -36.986,36.986 -36.986,36.986 -73.972,0 l -46.372,-46.333"
         class="stroke-orange fill-orange"
         style="fill:none;stroke:#ff851b;stroke-width:16.5713;stroke-miterlimit:4.1;stroke-dasharray:none"
         id="path31" />
    </g>
    <path
       d="M243.755 333.456v-131.14"
       class="stroke-teal fill-teal"
       style="fill:#39cccc;fill-opacity:.766511;stroke:#ff4136;stroke-width:8.50395;stroke-miterlimit:3.6;stroke-dasharray:none"
       transform="translate(9.594)"
       id="path15" />
    <path
       d="m-524.932 539.816 224.744-225.609m74.367-74.367L-38.348 52.366C.07 13.95.07 13.95 38.486 52.366l42.776 43.81"
       class="stroke-orange fill-orange"
       style="fill:none;stroke:#ff851b;stroke-width:16.5713;stroke-miterlimit:4.1;stroke-dasharray:none"
       id="path16" />
    <path
       d="m-524.932 13.95 488.014 488.88c36.986 36.986 36.986 36.986 73.973 0l46.372-46.333"
       class="stroke-orange fill-orange"
       style="fill:none;stroke:#ff851b;stroke-width:16.5713;stroke-miterlimit:4.1;stroke-dasharray:none"
       id="path17" />
    <path
       d="M-269.181-135.457h1.171v-12.927 12.974h1.418l-1.905 6.976z"
       style="display:inline;fill:none;stroke-width:2.7727;stroke-miterlimit:4.1"
       id="path18" />
    <path
       d="m443.954-231.991 66.008-64.183c15.857-11.966 15.856-11.953 33.703-11.802l506.692-1.499M443.954 135.18l66.008 64.183c15.857 11.966 15.856 11.953 33.703 11.802l506.692 1.499"
       class="stroke-orange fill-orange"
       style="fill:none;stroke:#ff851b;stroke-width:16.5705;stroke-linecap:butt;stroke-linejoin:miter;stroke-dasharray:none;stroke-opacity:1"
       transform="matrix(-1 0 0 1 2678.08 -313.709)"
       id="path19" />
    <path
       d="m443.954-231.991 66.008-64.183c15.857-11.966 15.856-11.953 33.703-11.802l506.692-1.499M443.954 135.18l66.008 64.183c15.857 11.966 15.856 11.953 33.703 11.802l506.692 1.499"
       class="stroke-orange fill-orange"
       style="fill:none;stroke:#ff851b;stroke-width:16.5705;stroke-linecap:butt;stroke-linejoin:miter;stroke-dasharray:none;stroke-opacity:1"
       transform="matrix(-1 0 0 1 2678.08 325.23)"
       id="path20" />
    <g
       style="display:inline"
       id="g21">
      <path
         d="M95.987 238.496c-40.02-3.626-73.497-31.904-83.754-70.747-4.013-15.198-4.013-33.368 0-48.566 9.68-36.655 39.637-63.734 77.404-69.965 6.991-1.154 22.642-1.154 29.633 0 41.257 6.807 72.625 38.175 79.432 79.431 1.85 11.211.998 27.643-2.028 39.1-9.657 36.57-39.811 63.872-77.228 69.921-4.454.72-18.981 1.232-23.46.826m22.401-5.72c52.756-8.696 86.477-59.58 73.702-111.214-8.706-35.184-37.598-61.553-73.878-67.425-6.899-1.117-21.007-1.118-27.693-.003-39.313 6.559-69.069 36.348-75.386 75.472-1.068 6.615-1.147 20.3-.155 26.736 6.489 42.08 39.946 73.562 82.067 77.22 4.23.368 17.254-.112 21.343-.787"
         class="stroke-comment fill-comment"
         style="display:inline;fill:#616161;fill-opacity:1;stroke:none;stroke-width:.352778;stroke-opacity:1"
         transform="matrix(-2.76055 0 0 -2.76293 2703.91 673.294)"
         id="path21" />
    </g>
    <circle
       cx="2415.573"
       cy="-276.825"
       r="255"
       class="stroke-comment fill-comment"
       style="display:inline;fill:#616161;fill-opacity:.620214;stroke:none;stroke-width:18.7913;stroke-miterlimit:4.1"
       transform="scale(1 -1)"
       id="circle21" />
    <path
       d="M2339.694 206.568h151.76"
       class="stroke-teal fill-teal"
       style="fill:#39cccc;fill-opacity:.766511;stroke:#ff4136;stroke-width:8.50394;stroke-miterlimit:3.6;stroke-dasharray:none"
       id="path22" />
    <path
       d="M262.944 202.316v150.388"
       class="stroke-teal fill-teal"
       style="fill:#39cccc;fill-opacity:.766511;stroke:#ff4136;stroke-width:8.50394;stroke-miterlimit:3.6;stroke-dasharray:none"
       transform="matrix(1 0 0 -1 2162.224 559.272)"
       id="path23" />
    <path
       d="M243.755 333.456v-131.14"
       class="stroke-teal fill-teal"
       style="fill:#39cccc;fill-opacity:.766511;stroke:#ff4136;stroke-width:8.50395;stroke-miterlimit:3.6;stroke-dasharray:none"
       transform="matrix(1 0 0 -1 2162.224 559.272)"
       id="path24" />
    <path
       d="M2438.933-624.654c110.477 10.018 202.891 88.147 231.207 195.468 11.079 41.991 11.079 92.194 0 134.186-26.72 101.274-109.422 176.092-213.678 193.31-19.3 3.187-62.504 3.187-81.804 0-113.891-18.81-200.484-105.476-219.276-219.466-5.107-30.975-2.754-76.373 5.598-108.03 26.66-101.041 109.901-176.473 213.19-193.186 12.298-1.99 52.401-3.403 64.763-2.282m-61.84 15.805c-145.635 24.026-238.724 164.616-203.457 307.276 24.032 97.212 103.79 170.066 203.943 186.291 19.044 3.086 57.99 3.089 76.448.007 108.525-18.12 190.668-100.428 208.106-208.523 2.948-18.276 3.167-56.088.428-73.871-17.911-116.265-110.272-203.245-226.55-213.353-11.678-1.015-47.63.311-58.919 2.174z"
       class="stroke-comment fill-comment"
       style="display:inline;fill:#616161;fill-opacity:1;stroke:none;stroke-width:.974282;stroke-opacity:1"
       id="path27" />
    <circle
       cx="2415.574"
       cy="362.175"
       r="255"
       class="stroke-comment fill-comment"
       style="display:inline;fill:#616161;fill-opacity:.620214;stroke:none;stroke-width:18.7913;stroke-miterlimit:4.1"
       transform="scale(1 -1)"
       id="circle27" />
    <path
       d="M2339.694-432.432h151.76m-66.286 150.388v-150.388"
       class="stroke-teal fill-teal"
       style="fill:#39cccc;fill-opacity:.766511;stroke:#ff4136;stroke-width:8.50394;stroke-miterlimit:3.6;stroke-dasharray:none"
       id="path28" />
    <path
       d="M2405.98-413.184v131.14"
       class="stroke-teal fill-teal"
       style="fill:#39cccc;fill-opacity:.766511;stroke:#ff4136;stroke-width:8.50395;stroke-miterlimit:3.6;stroke-dasharray:none"
       id="path29" />
    <path
       d="M1353.636 332.98v-39.847h-124.605v-32.507h124.605V220.78l95.85 56.101zm0-639.055v-39.847h-124.605v-32.507h124.605v-39.847l95.85 56.101z"
       class="stroke-comment fill-comment"
       style="display:inline;fill:#616161;stroke:none;stroke-width:10.6617;stroke-miterlimit:4.1;stroke-dasharray:none"
       id="path32" />
    <path
       d="m160.884 419.217 20.387-2.563.461 2.108.463 2.108.502 2.217.511 2.1.51 2.102.511 2.102.511 2.1.57 2.216.563 2.093.562 2.094.563 2.093.563 2.094.65 2.209.617 2.085.618 2.085.617 2.085.691 2.211.675 2.075.677 2.075.676 2.074.743 2.214.74 2.061.74 2.063.739 2.062.81 2.214.81 2.047.807 2.047.808 2.046.9 2.213.883 2.029.883 2.029.883 2.029 1.015 2.203.966 2.008.965 2.008 1.073 2.213 1.057 1.98 1.057 1.982 1.057 1.982 1.258 2.188 1.157 1.948 1.159 1.948 1.324 2.122 1.338 2.054 1.304 1.896 1.447 2.025 1.5 2.017 1.437 1.839 1.635 1.976 1.708 1.959 1.79 1.94 1.88 1.914 1.76 1.67 2.082 1.826 2.203 1.776 2.34 1.714 2.491 1.637 2.654 1.538 2.832 1.415 3.622 1.477 3.09.988 3.412.8 3.943.556 3.63.183v-12.761l-1.995-.092-1.604-.21-1.98-.457-2.1-.682-1.343-.552-1.889-.924-1.834-1.048-1.777-1.156-1.723-1.25-1.667-1.332-1.617-1.404-1.759-1.67-1.479-1.517-1.438-1.564-1.401-1.607-1.368-1.644-1.437-1.839-1.265-1.706-1.239-1.733-1.304-1.896-1.154-1.779-1.088-1.74-1.159-1.948-1.157-1.948-.999-1.727-1.057-1.982-1.055-1.98-1.057-1.982-.864-1.8-.965-2.007-.966-2.009-.844-1.83-.883-2.03-.883-2.028-.883-2.03-.759-1.873-.81-2.047-.807-2.047-.808-2.046-.695-1.904-.738-2.062-.74-2.063-.739-2.061-.646-1.928-.675-2.074-.677-2.075-.676-2.075-.608-1.946-.617-2.084-.617-2.085-.619-2.085-.58-1.962-.562-2.093-.562-2.094-.563-2.093-.563-2.094-.51-1.98-.51-2.102-.512-2.101-.51-2.1-.512-2.102-.451-1.996-.461-2.108-.462-2.107 20.387-2.562-41.605-101.05zm0-923.727 20.387 2.563.461-2.108.463-2.108.502-2.217.511-2.1.51-2.102.511-2.102.511-2.1.57-2.215.563-2.093.562-2.095.563-2.093.563-2.094.65-2.208.617-2.086.618-2.085.617-2.084.691-2.212.675-2.074.677-2.076.676-2.074.743-2.213.74-2.062.74-2.063.739-2.062.81-2.214.81-2.047.807-2.046.808-2.047.9-2.213.883-2.029.883-2.029.883-2.029 1.015-2.203.966-2.008.965-2.008 1.073-2.213 1.057-1.98 1.057-1.981 1.057-1.982 1.258-2.189 1.157-1.948 1.159-1.948 1.324-2.122 1.338-2.054 1.304-1.896 1.447-2.025 1.5-2.017 1.437-1.839 1.635-1.975 1.708-1.96 1.79-1.939 1.88-1.915 1.76-1.67 2.082-1.826 2.203-1.776 2.34-1.714 2.491-1.637 2.654-1.538 2.832-1.415 3.622-1.476 3.09-.988 3.412-.801 3.943-.556 3.63-.183v12.761l-1.995.092-1.604.211-1.98.456-2.1.682-1.343.552-1.889.924-1.834 1.048-1.777 1.156-1.723 1.25-1.667 1.332-1.617 1.404-1.759 1.67-1.479 1.517-1.438 1.564-1.401 1.607-1.368 1.644-1.437 1.839-1.265 1.706-1.239 1.733-1.304 1.896-1.154 1.779-1.088 1.74-1.159 1.948-1.157 1.948-.999 1.727-1.057 1.982-1.055 1.981-1.057 1.981-.864 1.8-.965 2.007-.966 2.009-.844 1.83-.883 2.03-.883 2.028-.883 2.03-.759 1.873-.81 2.047-.807 2.047-.808 2.047-.695 1.903-.738 2.062-.74 2.063-.739 2.062-.646 1.927-.675 2.074-.677 2.076-.676 2.074-.608 1.946-.617 2.084-.617 2.085-.619 2.086-.58 1.96-.562 2.094-.562 2.094-.563 2.093-.563 2.094-.51 1.98-.51 2.102-.512 2.101-.51 2.1-.512 2.102-.451 1.996-.461 2.108-.462 2.108 20.387 2.56-41.605 101.052z"
       class="stroke-comment fill-comment"
       style="fill:#616161;stroke:none;stroke-width:8.01542;stroke-miterlimit:4.1;stroke-dasharray:none"
       id="path33" />
  </g>
</svg>
