<svg xmlns="http://www.w3.org/2000/svg" viewBox="0 0 701.001 701.155">
  <path d="m441.626 97.989 77.882-77.95M6.03 533.96l77.397-77.463m360.527 2.683 74.293 74.358M7.15 22l74.112 74.176" class="stroke-orange fill-orange" style="fill:none;stroke:#ff851b;stroke-width:16.5705;stroke-linecap:butt;stroke-linejoin:miter;stroke-dasharray:none;stroke-opacity:1" transform="matrix(1.33333 0 0 -1.33333 -.091 719.755)"/>
  <g style="display:inline">
    <path d="M95.987 238.496c-40.02-3.626-73.497-31.904-83.754-70.747-4.013-15.198-4.013-33.368 0-48.566 9.68-36.655 39.637-63.734 77.404-69.965 6.991-1.154 22.642-1.154 29.633 0 41.257 6.807 72.625 38.175 79.432 79.431 1.85 11.211.998 27.643-2.028 39.1-9.657 36.57-39.811 63.872-77.228 69.921-4.454.72-18.981 1.232-23.46.826m22.401-5.72c52.756-8.696 86.477-59.58 73.702-111.214-8.706-35.184-37.598-61.553-73.878-67.425-6.899-1.117-21.007-1.118-27.693-.003-39.313 6.559-69.069 36.348-75.386 75.472-1.068 6.615-1.147 20.3-.155 26.736 6.489 42.08 39.946 73.562 82.067 77.22 4.23.368 17.254-.112 21.343-.787" class="stroke-selection fill-selection" style="display:inline;fill:#616161;fill-opacity:1;stroke:none;stroke-width:.352778;stroke-opacity:1" transform="matrix(3.68074 0 0 3.68391 -33.947 -177.97)"/>
  </g>
  <path d="M187.064 352.704h151.76" class="stroke-teal fill-teal" style="fill:#39cccc;fill-opacity:.766511;stroke:#ff4136;stroke-width:8.50393722;stroke-miterlimit:3.6;stroke-dasharray:none" transform="matrix(1.33333 0 0 -1.33333 -.091 719.755)"/>
  <path d="M262.944 202.316v150.388" class="stroke-teal fill-teal" style="fill:#39cccc;fill-opacity:.766511;stroke:#ff4136;stroke-width:8.50394;stroke-miterlimit:3.6;stroke-dasharray:none" transform="matrix(1.33333 0 0 -1.33333 12.701 719.755)"/>
  <path d="M243.755 333.456v-131.14" class="stroke-teal fill-teal" style="fill:#39cccc;fill-opacity:.766511;stroke:#ff4136;stroke-width:8.50395;stroke-miterlimit:3.6;stroke-dasharray:none" transform="matrix(1.33333 0 0 -1.33333 12.701 719.755)"/>
</svg>
