<svg xmlns="http://www.w3.org/2000/svg" xml:space="preserve" viewBox="0 0 190.451 190.287">
  <g transform="translate(-9.223 -48.352)">
    <path d="M46.654 213.008c-2.056-1.625-2.12-1.896-1.334-5.66.455-2.174.704-4.178 1.645-13.229.924-8.886 2.326-12.447 9.585-24.344 5.49-8.997 5.972-11.794 2.74-15.89a468 468 0 0 1-2.07-2.644l-.694-.898 1.578-1.647 1.578-1.646 2.01 2.219c3.444 3.8 4.131 5.403 4.107 9.573-.028 4.886-1.018 7.151-7.636 17.462-4.592 7.154-5.837 11.418-7.007 23.99-.226 2.424-.631 5.52-.901 6.878l-.875 4.41c-.6 3.028-.66 3.06-2.726 1.426zm113.974 1.192c.252-.414-.411-2.863-2.608-9.628-3.053-9.4-4.855-12.147-12.427-18.945l-2.777-2.493 1.854-1.332c2.34-1.68 2.338-1.681 7.586 3.498 4.863 4.8 6.751 7.835 9.433 15.17 2.496 6.824 3.283 9.918 2.702 10.618-.605.73-4.044 3.573-3.763 3.112zm-44.431-30.332c-3.966-.87-8.645-3.754-13.092-8.07l-2.226-2.16 1.573-1.665c1.905-2.017 1.35-2.101 4.29.65 3.26 3.054 7.103 5.608 9.477 6.298 9.256 2.69 27.177-4.66 31.167-12.785 1.145-2.332 1.277-5.658.312-7.9-.782-1.82-.778-1.828 1.233-2.872 2.271-1.178 2.223-1.185 2.89.39 1.814 4.286 1.784 8.47-.087 12.314-4.809 9.878-23.878 18.356-35.537 15.8zm-42.44-2.287c-2.26-.32-6.652-1.477-9.072-2.388-1.942-.732-2.008-1.058-.654-3.203 1.104-1.75.982-1.745 5.845-.184 9.428 3.026 14.983.625 26.424-11.425 10.559-11.119 12.59-15.303 11.726-24.143l-.407-4.158 1.653-1.584c2-1.916 2.023-1.918 2.505-.26 1.562 5.37 1.515 13.496-.099 17.335-2.198 5.229-5.264 9.3-12.874 17.096-10.805 11.07-16.682 14.1-25.047 12.914zm58.15-10.48c-2.012-2.383-3.29-8.335-2.389-11.126 1.718-5.324 5.192-8.076 19.028-15.071 12.595-6.369 14.297-8.07 14.277-14.285-.008-2.626-.196-3.7-1.088-6.214l-1.078-3.04.723-.992c2.478-3.403 2.656-3.35 4.45 1.299 3.097 8.034 2.439 14.777-1.886 19.296-2.114 2.208-5.249 4.134-13.535 8.314-10.81 5.453-14.212 7.8-15.868 10.948-.86 1.634-.445 5.01.91 7.411 1.365 2.418 1.422 2.138-.652 3.19-2.083 1.055-2.22 1.067-2.893.27zm-85.025-2.47c-5.067-5.16-6.103-10.573-3.193-16.669.91-1.904 3.98-6.348 5.277-7.636.999-.992 5.429-6.09 6.851-7.886 3.428-4.326 3.62-6.73 1.055-13.151-.373-.935-.314-1.031 1.26-2.029 2.153-1.365 2.36-1.333 3.22.496 4.217 8.972 3.002 12.616-8.506 25.505-7.047 7.893-7.717 12.788-2.485 18.145l1.932 1.979-.998 1.809c-1.287 2.332-1.612 2.29-4.413-.563zm42.2-8.455c-5.913-8.036-7.37-12.148-7.342-20.737.037-11.31 3.784-19.973 9.916-22.925.73-.351 1.603-.774 1.94-.94 2.177-1.069 8.736.67 8.736 2.317 0 .571-1.514 4.085-1.76 4.085-.121 0-.758-.396-1.415-.882-6.411-4.73-13.583 7.008-12.663 20.725.384 5.724 1.81 9.243 6.113 15.088 1.932 2.625 1.913 2.38.334 4.182-1.67 1.904-1.81 1.871-3.859-.913zm45.795-17.143c-7.154-7.451-7.568-15.912-1.525-31.227 3.532-8.953 11.05-12.087 18.633-7.766 2.107 1.2 2.204 1.576.956 3.706-1.072 1.829-.82 1.81-3.82.29-6.845-3.47-10.93.888-14.393 15.352-1.807 7.547-.85 11.68 3.852 16.618 3.049 3.202 2.993 2.873.705 4.185-2.326 1.334-1.909 1.444-4.408-1.158zm-90.623-4.216c-8.322-10.672-2.805-20.31 17.508-30.583 11.538-5.835 16.276-4.082 21.046 7.786.5 1.247.482 1.323-.83 3.422-.738 1.18-1.477 2.11-1.641 2.065-.165-.046-1.21-2.072-2.322-4.503-2.488-5.437-3.29-6.562-5.057-7.092-2.784-.834-10.044 2.453-19.707 8.924-8.138 5.449-10.045 11.342-5.44 16.814 1.21 1.44 1.146 1.811-.61 3.534l-1.507 1.48zm48.797-4.023c-1.318-.224-1.468-.778-.819-3.012l.545-1.875 2.768.126c6.222.283 8.276-2 12.96-14.407 3.345-8.862 5.177-11.047 9.235-11.01 2.384.02 3.472.442 6.64 2.57 4.446 2.985 4.414 2.931 3.445 5.659-.726 2.044-.933 2.082-2.953.54-7.98-6.09-8.176-5.994-12.832 6.298-2.62 6.916-3.343 8.255-5.842 10.812-3.602 3.686-8.105 5.158-13.147 4.3zm49.674-11.622c-2.97-.433-3.056-.572-2.097-3.386l.548-1.61 2.891.173c5.826.348 10.489-2.97 13.74-9.778 2.702-5.655 3.314-9.15 3.804-21.713.526-13.493.44-13.23 3.364-10.418l1.789 1.722-.102 2.063-.497 10.178c-.405 8.308-1.086 12.888-2.486 16.716-4.05 11.072-12.213 17.325-20.954 16.053zm-93.999-14.513c-2.498-5.394-3.161-9.051-3.565-19.667-.177-4.657-.47-9.42-.651-10.584l-.329-2.116 1.808-1.681c2.126-1.977 2.47-1.961 2.765.121.884 6.25 1.361 11.772 1.37 15.847.013 5.908.416 8.778 1.777 12.664.584 1.67 1.146 3.274 1.247 3.566.126.361-.42.899-1.703 1.676-2.278 1.38-2.163 1.373-2.719.174z" class="stroke-orange fill-orange stroke-orange" style="fill:#ff851b;fill-opacity:1;stroke-width:.352778;stroke:#ff851b;stroke-opacity:1"/>
    <g style="display:inline">
      <path d="M95.987 238.496c-40.02-3.626-73.497-31.904-83.754-70.747-4.013-15.198-4.013-33.368 0-48.566 9.68-36.655 39.637-63.734 77.404-69.965 6.991-1.154 22.642-1.154 29.633 0 41.257 6.807 72.625 38.175 79.432 79.431 1.85 11.211.998 27.643-2.028 39.1-9.657 36.57-39.811 63.872-77.228 69.921-4.454.72-18.981 1.232-23.46.826m22.401-5.72c52.756-8.696 86.477-59.58 73.702-111.214-8.706-35.184-37.598-61.553-73.878-67.425-6.899-1.117-21.007-1.118-27.693-.003-39.313 6.559-69.069 36.348-75.386 75.472-1.068 6.615-1.147 20.3-.155 26.736 6.489 42.08 39.946 73.562 82.067 77.22 4.23.368 17.254-.112 21.343-.787" class="stroke-comment fill-comment" style="fill:#616161;fill-opacity:1;stroke:none;stroke-width:.352778;stroke-opacity:1"/>
    </g>
    <ellipse cx="54.162" cy="144.793" rx="21.579" ry="48.387" style="fill:none;stroke:#b10dc9;stroke-width:1.086;stroke-linejoin:round;stroke-dashoffset:130.744;paint-order:stroke markers fill"/>
    <ellipse cx="98.878" cy="144.459" rx="21.579" ry="48.387" style="fill:none;stroke:#b10dc9;stroke-width:1.086;stroke-linejoin:round;stroke-dashoffset:130.744;paint-order:stroke markers fill"/>
    <ellipse cx="148.822" cy="143.124" rx="27.406" ry="48.319" style="fill:none;stroke:#b10dc9;stroke-width:1.223;stroke-linejoin:round;stroke-dashoffset:130.744;paint-order:stroke markers fill"/>
  </g>
</svg>
