<svg xmlns="http://www.w3.org/2000/svg" xml:space="preserve" viewBox="0 0 635.716 202.826">
  <g style="display:inline">
    <path d="m135.514 51.254 1.564 1.565m16.417 16.417 1.565 1.566q4.884 4.888-.001 9.774l-9.773 9.773q-4.886 4.889-9.774 9.774m19.548-48.869-9.773 9.773q-4.886 4.888-9.774 9.775-4.886 4.888 0 9.774l1.564 1.565m16.417 16.417 1.566 1.565" style="display:inline;fill:none;stroke:#ff851b;stroke-width:5.80428;stroke-linecap:round;stroke-linejoin:miter;stroke-miterlimit:10;stroke-dasharray:none;stroke-opacity:1" transform="translate(72.222 25.724)"/>
    <path d="m-34.892 121.807-1.528 1.528m-16.035 16.036-1.53 1.529q-4.77 4.774 0 9.547l9.546 9.545c3.181 3.185 6.364 6.364 9.547 9.547m-19.092-47.732 9.546 9.546q4.772 4.774 9.546 9.547 4.77 4.774-.001 9.547l-1.528 1.528m-16.035 16.035-1.53 1.53" style="display:inline;fill:none;stroke:#ff851b;stroke-width:5.66927;stroke-linecap:round;stroke-linejoin:miter;stroke-miterlimit:10;stroke-dasharray:none;stroke-opacity:1" transform="translate(142.06 -47.729)scale(1.02381)"/>
    <path d="m75.04 51.254 9.773 9.773 9.773 9.775q4.884 4.888 0 9.774l-1.564 1.565M76.605 98.558l-1.566 1.565m19.548-48.869-1.565 1.566M76.605 69.237l-1.565 1.565q-4.886 4.888 0 9.774l9.773 9.773q4.886 4.889 9.774 9.774" style="display:inline;fill:none;stroke:#ff851b;stroke-width:5.80429;stroke-linecap:round;stroke-linejoin:miter;stroke-miterlimit:10;stroke-dasharray:none;stroke-opacity:1" transform="translate(72.222 25.724)"/>
    <path d="m195.986 51.254 1.565 1.565m16.416 16.417 1.565 1.566q4.884 4.888 0 9.774l-9.774 9.773q-4.886 4.888-9.774 9.774m19.548-48.869-9.773 9.773q-4.885 4.888-9.774 9.775-4.886 4.888 0 9.774l1.565 1.565m16.417 16.417 1.565 1.565" style="display:inline;fill:none;stroke:#ff851b;stroke-width:5.80428;stroke-linecap:round;stroke-linejoin:miter;stroke-miterlimit:10;stroke-dasharray:none;stroke-opacity:1" transform="translate(72.222 25.724)"/>
    <path d="M34.115 51.254c20.462-18.02 20.462-18.02 40.925 0m19.548 0c20.463-18.02 20.463-18.02 40.926 0m19.546 0c20.463-18.02 20.463-18.02 40.926 0M34.114 100.123c20.462 18.02 20.462 18.02 40.925 0m19.548 0c20.463 18.02 20.463 18.02 40.926 0m19.546 0c20.462 18.02 20.462 18.02 40.925 0" style="fill:none;stroke:#ff851b;stroke-width:5.66929;stroke-linejoin:round;stroke-dasharray:none;paint-order:stroke fill markers" transform="translate(72.222 25.724)"/>
    <path d="M233.172 51.254c20.462-18.02 20.462 8.32 59.963-21.915" style="fill:none;stroke:#ff851b;stroke-width:5.66929;stroke-linejoin:round;stroke-dasharray:none;paint-order:stroke fill markers" transform="translate(54.582 25.724)"/>
    <path d="M59.923 40.032c-20.462-18.02-20.462 8.32-59.962-21.916" style="fill:none;stroke:#ff851b;stroke-width:5.66929;stroke-linejoin:round;stroke-dasharray:none;paint-order:stroke fill markers" transform="translate(26.868 36.947)"/>
    <path d="M233.172 100.123c20.462 18.02 20.462-19.703 59.963 19.924" style="fill:none;stroke:#ff851b;stroke-width:5.66929;stroke-linejoin:round;stroke-dasharray:none;paint-order:stroke fill markers" transform="translate(54.582 25.724)"/>
    <path d="M59.921 88.9C39.46 106.922 39.46 69.198-.04 108.826" style="fill:none;stroke:#ff851b;stroke-width:5.66929;stroke-linejoin:round;stroke-dasharray:none;paint-order:stroke fill markers" transform="translate(26.868 36.947)"/>
    <path d="M343.813 64.466a183.41 91.705 0 0 1-183.41 91.705A183.41 91.705 0 0 1-23.004 64.466a183.41 91.705 0 0 1 183.409-91.704 183.41 91.705 0 0 1 183.41 91.704Z" style="fill:none;stroke:#616161;stroke-width:7.72443;stroke-linejoin:round;paint-order:stroke fill markers" transform="translate(26.868 36.947)"/>
  </g>
  <g style="stroke-width:1.00157;stroke-dasharray:none">
    <path d="M1091.279 506.617v220.594Z" style="fill:#616161;stroke:#616161;stroke-width:33.3496;stroke-linecap:round;stroke-linejoin:round;stroke-dasharray:none;paint-order:stroke fill markers" transform="translate(124.42 -184.955)scale(.36508)"/>
    <path d="M1135.398 727.21a44.12 44.12 0 0 1-44.119 44.12 44.12 44.12 0 0 1-44.119-44.12 44.12 44.12 0 0 1 44.119-44.118 44.12 44.12 0 0 1 44.119 44.119" style="fill:#616161;stroke:#616161;stroke-width:.88376;stroke-linecap:round;stroke-linejoin:round;stroke-dasharray:none;paint-order:stroke fill markers" transform="translate(124.42 -184.955)scale(.36508)"/>
    <text x="795.69" y="930.295" style="font-size:99.2124px;font-family:Inter;-inkscape-font-specification:Inter;text-align:start;writing-mode:lr-tb;direction:ltr;text-anchor:start;fill:#616161;stroke:none;stroke-width:33.3496;stroke-linecap:round;stroke-linejoin:round;stroke-dasharray:none;paint-order:stroke fill markers" transform="translate(124.42 -184.955)scale(.36508)">
      <tspan x="795.69" y="930.295" style="stroke-width:33.3496">2</tspan>
    </text>
    <text x="1143.478" y="1062.188" style="font-size:99.2124px;font-family:Inter;-inkscape-font-specification:Inter;text-align:start;writing-mode:lr-tb;direction:ltr;text-anchor:start;fill:#616161;stroke:none;stroke-width:33.3496;stroke-linecap:round;stroke-linejoin:round;stroke-dasharray:none;paint-order:stroke fill markers" transform="translate(124.42 -184.955)scale(.36508)">
      <tspan x="1143.478" y="1062.188" style="stroke-width:33.3496">-2</tspan>
    </text>
    <g style="stroke-width:1.00157;stroke-dasharray:none">
      <text x="773.421" y="990.422" style="font-size:112.438px;font-family:Inter;-inkscape-font-specification:Inter;text-align:start;writing-mode:lr-tb;direction:ltr;text-anchor:start;fill:#616161;stroke:none;stroke-width:37.7953;stroke-linecap:round;stroke-linejoin:round;stroke-dasharray:none;paint-order:stroke fill markers" transform="translate(351.623 -164.375)scale(.32214)">
        <tspan x="773.421" y="990.422">-2</tspan>
      </text>
    </g>
    <g style="stroke-width:1.00157;stroke-dasharray:none">
      <text x="780.307" y="1065.402" style="font-size:112.438px;font-family:Inter;-inkscape-font-specification:Inter;text-align:start;writing-mode:lr-tb;direction:ltr;text-anchor:start;fill:#616161;stroke:none;stroke-width:37.7953;stroke-linecap:round;stroke-linejoin:round;stroke-dasharray:none;paint-order:stroke fill markers" transform="translate(222.5 -140.377)scale(.32214)">
        <tspan x="780.307" y="1065.402">2</tspan>
      </text>
    </g>
    <g style="display:inline">
      <path d="M1129.688 506.617v250Z" style="fill:#616161;stroke:#616161;stroke-width:37.7953;stroke-linecap:round;stroke-linejoin:round;stroke-dasharray:none;paint-order:stroke fill markers" transform="rotate(-20 208.96 -328.747)scale(.32214)"/>
      <path d="M1179.688 756.617a50 50 0 0 1-50 50 50 50 0 0 1-50-50 50 50 0 0 1 50-50 50 50 0 0 1 50 50" style="fill:#616161;stroke:#616161;stroke-width:1.00157;stroke-linecap:round;stroke-linejoin:round;stroke-dasharray:none;paint-order:stroke fill markers" transform="rotate(-20 208.96 -328.747)scale(.32214)"/>
    </g>
    <g style="display:inline">
      <path d="M1129.688 506.617v250Z" style="fill:#616161;stroke:#616161;stroke-width:37.7953;stroke-linecap:round;stroke-linejoin:round;stroke-dasharray:none;paint-order:stroke fill markers" transform="rotate(-60 371.782 -15.753)scale(.32214)"/>
      <path d="M1179.688 756.617a50 50 0 0 1-50 50 50 50 0 0 1-50-50 50 50 0 0 1 50-50 50 50 0 0 1 50 50" style="fill:#616161;stroke:#616161;stroke-width:1.00157;stroke-linecap:round;stroke-linejoin:round;stroke-dasharray:none;paint-order:stroke fill markers" transform="rotate(-60 371.782 -15.753)scale(.32214)"/>
    </g>
    <g style="display:inline">
      <path d="M1129.688 506.617v250Z" style="fill:#616161;stroke:#616161;stroke-width:37.7953;stroke-linecap:round;stroke-linejoin:round;stroke-dasharray:none;paint-order:stroke fill markers" transform="scale(-.32214 .32214)rotate(-20 -974.324 8183.908)"/>
      <path d="M1179.688 756.617a50 50 0 0 1-50 50 50 50 0 0 1-50-50 50 50 0 0 1 50-50 50 50 0 0 1 50 50" style="fill:#616161;stroke:#616161;stroke-width:1.00157;stroke-linecap:round;stroke-linejoin:round;stroke-dasharray:none;paint-order:stroke fill markers" transform="scale(-.32214 .32214)rotate(-20 -974.324 8183.908)"/>
    </g>
    <g style="display:inline">
      <path d="M1129.688 506.617v250Z" style="fill:#616161;stroke:#616161;stroke-width:37.7953;stroke-linecap:round;stroke-linejoin:round;stroke-dasharray:none;paint-order:stroke fill markers" transform="scale(-.32214 .32214)rotate(-60 -468.887 2762.196)"/>
      <path d="M1179.688 756.617a50 50 0 0 1-50 50 50 50 0 0 1-50-50 50 50 0 0 1 50-50 50 50 0 0 1 50 50" style="fill:#616161;stroke:#616161;stroke-width:1.00157;stroke-linecap:round;stroke-linejoin:round;stroke-dasharray:none;paint-order:stroke fill markers" transform="scale(-.32214 .32214)rotate(-60 -468.887 2762.196)"/>
    </g>
  </g>
</svg>
