<svg xmlns:inkscape="http://www.inkscape.org/namespaces/inkscape" xmlns:sodipodi="http://sodipodi.sourceforge.net/DTD/sodipodi-0.dtd" xmlns="http://www.w3.org/2000/svg" xmlns:svg="http://www.w3.org/2000/svg" xml:space="preserve" viewBox="0 0 819.867 420.882" version="1.1" id="svg424" sodipodi:docname="perko_pair.svg" inkscape:version="1.4.2 (ebf0e940d0, 2025-05-08)">
  <defs id="defs424">
    <inkscape:path-effect effect="knot" id="path-effect425" is_visible="true" lpeversion="1" switcher_size="15" interruption_width="4.7" prop_to_stroke_width="true" add_stroke_width="inkscape_1.0_and_up" both="false" inverse_width="false" add_other_stroke_width="inkscape_1.0_and_up" crossing_points_vector="2297.988 | 106.10803 | 0 | 0 | 0 | 15 | 6.4630549 | 77.903868 | -1 | 2306.7852 | 180.83519 | 0 | 0 | 1 | 6 | 9.714102 | 34.52112 | -1 | 2367.545 | 219.98605 | 0 | 0 | 2 | 13 | 12.538343 | 71.271336 | -1 | 2426.085 | 287.74475 | 0 | 0 | 3 | 12 | 16.810203 | 65.409213 | -1 | 2376.0174 | 348.04359 | 0 | 0 | 4 | 17 | 20.14664 | 89.996387 | -1 | 2243.6039 | 197.70315 | 0 | 0 | 5 | 16 | 31.629226 | 82.582928 | -1 | 2367.4408 | 163.45931 | 0 | 0 | 7 | 14 | 37.696055 | 73.362699 | -1 | 2452.404 | 177.05892 | 0 | 0 | 8 | 11 | 41.818597 | 59.97707 | -1 | 2540.4644 | 161.35653 | 0 | 0 | 9 | 18 | 46.94816 | 101.76835 | -1 | 2468.2807 | 85.984441 | 0 | 0 | 10 | 19 | 55.361926 | 105.34624 | -1"/>
    <inkscape:path-effect effect="knot" id="path-effect424" is_visible="true" lpeversion="1" switcher_size="15" interruption_width="4.7" prop_to_stroke_width="true" add_stroke_width="inkscape_1.0_and_up" both="false" inverse_width="false" add_other_stroke_width="inkscape_1.0_and_up" crossing_points_vector="248.24735 | 357.90106 | 0 | 0 | 0 | 7 | 13.564319 | 46.179397 | -1 | 166.2519 | 358.30254 | 0 | 0 | 1 | 8 | 16.370818 | 53.111336 | -1 | 64.84119 | 499.55759 | 0 | 0 | 2 | 17 | 24.027828 | 94.455764 | 1 | 156.7542 | 564.44648 | 0 | 0 | 3 | 10 | 29.00335 | 62.335137 | -1 | 243.30825 | 573.86552 | 0 | 0 | 4 | 13 | 32.668858 | 74.038885 | -1 | 278.07583 | 494.70703 | 0 | 0 | 5 | 14 | 38.715793 | 79.299012 | -1 | 243.96409 | 415.25934 | 0 | 0 | 6 | 15 | 43.963352 | 85.345541 | -1 | 157.94161 | 424.0617 | 0 | 0 | 9 | 16 | 55.593507 | 89.027391 | -1 | 164.78071 | 630.19228 | 0 | 0 | 11 | 18 | 64.819884 | 101.57874 | -1 | 247.5871 | 631.28841 | 0 | 0 | 12 | 19 | 71.817613 | 104.43136 | 1"/>
  </defs>
  <sodipodi:namedview id="namedview424" pagecolor="#ffffff" bordercolor="#000000" borderopacity="0.25" inkscape:showpageshadow="2" inkscape:pageopacity="0.0" inkscape:pagecheckerboard="0" inkscape:deskcolor="#d1d1d1" inkscape:zoom="1.8335855" inkscape:cx="637.00329" inkscape:cy="260.96411" inkscape:window-width="1752" inkscape:window-height="1418" inkscape:window-x="0" inkscape:window-y="0" inkscape:window-maximized="1" inkscape:current-layer="svg424"/>
  <path d="m 2526.0582,139.65329 c -2.1228,-2.67732 -4.3142,-5.25595 -6.5742,-7.73529 -6.2985,-6.90778 -13.0871,-14.01175 -19.7,-20.613 -6.74,-6.74 -14.3,-13.18 -22.666,-19.3005 -8.367,-6.1335 -17.14,-11.2935 -26.327,-15.46 -9.187,-4.1795 -18.2,-7.4995 -27.053,-9.973 -8.854,-2.4735 -17.534,-4.3535 -26.047,-5.6265 -8.513,-1.274 -16.967,-1.887 -25.373,-1.807 -8.407,0.08 -16.794,1.267 -25.16,3.587 -8.367,2.32 -16.327,6.2 -23.88,11.6595 -2.5086,1.808739 -4.8884,3.763882 -7.1393,5.864878 m -24.0604,51.073302 c -0.2664,4.41645 -0.1181,8.67181 0.4462,12.76832 1.0395,7.554 3.0535,14.847 6.033,21.8935 2.9805,7.0465 7.1665,13.9265 12.5535,20.6665 5.387,6.727 11.84,12.607 19.36,17.607 7.52,5 15.48,8.88 23.887,11.64 7.9727,2.62898 16.4524,5.11895 24.606,7.233 8,2.06 15.307,4.9 21.907,8.52 6.613,3.62 12.12,8.46 16.54,14.52 3.533,4.82968 6.0796,10.35805 7.6567,16.58182 m -9.1406,51.6473 c -0.098,0.15306 -0.1968,0.30569 -0.2961,0.45788 -4.333,6.653 -9.547,12.653 -15.6135,18.0135 -6.0665,5.3595 -12.9335,9.8935 -20.6,13.6 -7.6665,3.7065 -15.7595,6.5065 -24.253,8.4 -8.5065,1.8935 -17.0005,2.8935 -25.5005,3.02 -8.486,0.1135 -16.726,-0.6335 -24.686,-2.2335 -7.96,-1.613 -15.507,-4.053 -22.654,-7.34 -7.146,-3.273 -13.786,-7.327 -19.9195,-12.153 -6.0666,-4.75281 -11.8624,-10.44136 -16.72,-16.4135 -5.0135,-6.1065 -9.4005,-12.7065 -13.16,-19.7935 -3.7605,-7.087 -6.7735,-14.513 -9.0335,-22.2735 -2.26,-7.7595 -3.553,-15.6795 -3.8865,-23.78 -0.3205,-8.0865 0.5995,-16.0335 2.773,-23.8465 0.8588,-3.08695 1.9319,-6.07195 3.2195,-8.95502 m 40.238,-35.06775 c 2.5151,-0.80042 5.0715,-1.46169 7.6695,-1.98373 1.5805,-0.31783 3.1462,-0.60785 4.6973,-0.87036 m 55.7524,-6.74504 c 0.1635,-0.0522 0.3269,-0.10489 0.4903,-0.1581 6.1065,-1.993 12.3335,-4.447 18.6665,-7.3865 6.333,-2.9405 13.427,-5.3935 21.28,-7.3605 7.853,-1.966 15.093,-2.62 21.72,-1.9595 6.627,0.6735 12.84,2.0465 18.6535,4.14 3.4464,1.2411 7.1271,2.56637 11.0476,3.97456 m 53.0547,17.90099 c 5.6479,1.60631 10.6891,2.51261 15.1242,2.69745 4.787,0.2135 9.747,-0.6135 14.84,-2.4665 5.107,-1.853 10.48,-4.92 16.133,-9.2 5.654,-4.28 11.094,-9.707 16.314,-16.2735 5.22,-6.5665 9.526,-13.7665 12.9065,-21.613 3.3795,-7.8465 5.4735,-15.7405 6.2735,-23.6735 0.8,-7.933 0.293,-15.44 -1.527,-22.5135 -1.82,-7.0595 -4.793,-13.2995 -8.9335,-18.713 -4.1265,-5.4135 -9.1665,-9.5865 -15.1335,-12.52 -5.966,-2.9335 -12.473,-4.2405 -19.5595,-3.9135 -7.0735,0.327 -14.1665,2.407 -21.2935,6.24 -2.517,1.358648 -4.9616,2.87433 -7.3344,4.547444 m -31.4532,38.966336 c -1.6851,3.70405 -2.9711,7.23234 -3.8594,10.57972 -1.546,5.7795 -2.306,11.5535 -2.28,17.293 0.013,5.7405 0.267,12.2065 0.754,19.4335 0.486,7.213 1.38,14.933 2.653,23.1665 1.273,8.2335 3.06,16.4465 5.3335,24.66 2.2179,7.9719 4.4271,16.3908 6.4135,24.4335 2.006,8.087 2.486,16.207 1.4595,24.3535 -1.0265,8.1465 -4.2265,15.3335 -9.613,21.54 -5.3735,6.2065 -12.0805,10.5135 -20.1065,12.9135 -8.027,2.413 -16.134,3.346 -24.3005,2.813 -8.1795,-0.533 -15.5665,-1.667 -22.16,-3.4335 -6.5935,-1.7535 -11.8065,-4.1535 -15.653,-7.18 -3.8335,-3.0265 -6.3935,-7.0135 -7.687,-11.9665 -1.2795,-4.94 -1.7865,-10.7 -1.52,-17.2865 0.047,-1.10473 0.1053,-2.22897 0.1749,-3.37284 m 4.6983,-50.43688 c 0.051,-1.94235 0.068,-3.89211 0.051,-5.84939 m -8.7698,-49.3323 c -1.8942,-4.5546 -4.0334,-8.4714 -6.4138,-11.74859 -3.647,-5.0205 -8.127,-9.0205 -13.4335,-11.9935 -5.2935,-2.973 -11.9205,-5.48 -19.847,-7.52 -7.9265,-2.04 -16.5265,-2.68 -25.78,-1.933 -9.2535,0.746 -17.9735,3.293 -26.14,7.646 -8.1665,4.354 -14.8465,10.207 -20.0395,17.5535 -5.194,7.3465 -8.54,15.4405 -10.06,24.2935 -1.52,8.853 -1.414,17.747 0.313,26.6735 1.727,8.9265 4.607,17.4995 8.6265,25.7265 4.0335,8.24 8.6865,16.027 13.98,23.38 5.1235,7.13583 10.8034,14.42602 16.4735,21.147 5.687,6.74 11.353,13.406 17.02,19.9865 5.667,6.5935 11.467,13.1935 17.393,19.833 5.9673,6.66172 12.4641,13.44776 18.847,19.687 6.6153,6.49206 13.8413,13.02056 20.9614,18.93751 m 53.5458,30.72622 c 7.4371,2.18629 14.8894,3.40016 22.3593,3.62277 8.9605,0.28 17.6535,-0.773 26.0865,-3.16 8.434,-2.387 16.487,-5.8 24.16,-10.26 7.674,-4.447 14.887,-9.687 21.627,-15.707 6.753,-6.033 12.94,-12.673 18.5735,-19.926 5.5679,-7.15535 10.7395,-15.17856 14.953,-23.2005 4.3335,-8.1995 7.9735,-16.7465 10.92,-25.62 2.9465,-8.8735 5.1605,-17.9795 6.66,-27.313 1.4865,-9.3205 2.1135,-18.8265 1.847,-28.5135 -0.2033,-7.76896 -1.1955,-15.54178 -2.9799,-23.31898" class="stroke-orange fill-orange" style="fill:none;stroke:#ff851b;stroke-width:10.5827;stroke-linecap:round;stroke-linejoin:miter;stroke-miterlimit:10;stroke-dasharray:none;stroke-opacity:1" transform="translate(-1759.826,-1.01)" id="path176" sodipodi:nodetypes="ccccccccccccccccccccccccccccccccccccccccccccccccccccccccccccccccccccccccccccccccccccccccccccccccccccccccccc" inkscape:path-effect="#path-effect425" inkscape:original-d="m 2450.791,76.5445 c -9.187,-4.1795 -18.2,-7.4995 -27.053,-9.973 -8.854,-2.4735 -17.534,-4.3535 -26.047,-5.6265 -8.513,-1.274 -16.967,-1.887 -25.373,-1.807 -8.407,0.08 -16.794,1.267 -25.16,3.587 -8.367,2.32 -16.327,6.2 -23.88,11.6595 -7.554,5.4465 -13.94,12.2205 -19.1535,20.307 -5.2135,8.0865 -8.7065,16.4595 -10.487,25.1065 -1.7795,8.647 -2.1535,16.74 -1.113,24.293 1.0395,7.554 3.0535,14.847 6.033,21.8935 2.9805,7.0465 7.1665,13.9265 12.5535,20.6665 5.387,6.727 11.84,12.607 19.36,17.607 7.52,5 15.48,8.88 23.887,11.64 7.9727,2.62898 16.4524,5.11895 24.606,7.233 8,2.06 15.307,4.9 21.907,8.52 6.613,3.62 12.12,8.46 16.54,14.52 4.433,6.06 7.313,13.22 8.6735,21.4735 1.3595,8.2665 1.0395,16.5335 -0.9535,24.8135 -1.993,8.293 -5.167,15.76 -9.5,22.4 -4.333,6.653 -9.547,12.653 -15.6135,18.0135 -6.0665,5.3595 -12.9335,9.8935 -20.6,13.6 -7.6665,3.7065 -15.7595,6.5065 -24.253,8.4 -8.5065,1.8935 -17.0005,2.8935 -25.5005,3.02 -8.486,0.1135 -16.726,-0.6335 -24.686,-2.2335 -7.96,-1.613 -15.507,-4.053 -22.654,-7.34 -7.146,-3.273 -13.786,-7.327 -19.9195,-12.153 -6.0666,-4.75281 -11.8624,-10.44136 -16.72,-16.4135 -5.0135,-6.1065 -9.4005,-12.7065 -13.16,-19.7935 -3.7605,-7.087 -6.7735,-14.513 -9.0335,-22.2735 -2.26,-7.7595 -3.553,-15.6795 -3.8865,-23.78 -0.3205,-8.0865 0.5995,-16.0335 2.773,-23.8465 2.1735,-7.813 5.7205,-14.973 10.6405,-21.48 4.92,-6.507 10.933,-11.827 18.04,-15.9665 7.106,-4.1265 14.586,-6.9805 22.4465,-8.56 7.8595,-1.5805 15.3535,-2.4735 22.4995,-2.7135 7.147,-0.227 13.814,-0.64 19.9935,-1.2135 6.1805,-0.5735 12.3265,-1.8535 18.447,-3.8465 6.1065,-1.993 12.3335,-4.447 18.6665,-7.3865 6.333,-2.9405 13.427,-5.3935 21.28,-7.3605 7.853,-1.966 15.093,-2.62 21.72,-1.9595 6.627,0.6735 12.84,2.0465 18.6535,4.14 5.8135,2.0935 12.2935,4.4265 19.4665,6.993 7.16,2.5665 14.613,5.1535 22.36,7.78 7.76,2.6265 14.733,4.8535 20.92,6.707 6.2,1.8535 11.693,2.8935 16.48,3.093 4.787,0.2135 9.747,-0.6135 14.84,-2.4665 5.107,-1.853 10.48,-4.92 16.133,-9.2 5.654,-4.28 11.094,-9.707 16.314,-16.2735 5.22,-6.5665 9.526,-13.7665 12.9065,-21.613 3.3795,-7.8465 5.4735,-15.7405 6.2735,-23.6735 0.8,-7.933 0.293,-15.44 -1.527,-22.5135 -1.82,-7.0595 -4.793,-13.2995 -8.9335,-18.713 -4.1265,-5.4135 -9.1665,-9.5865 -15.1335,-12.52 -5.966,-2.9335 -12.473,-4.2405 -19.5595,-3.9135 -7.0735,0.327 -14.1665,2.407 -21.2935,6.24 -7.127,3.847 -13.673,8.953 -19.653,15.327 -5.967,6.386 -10.914,12.986 -14.827,19.833 -3.913,6.833 -6.633,13.153 -8.167,18.9335 -1.546,5.7795 -2.306,11.5535 -2.28,17.293 0.013,5.7405 0.267,12.2065 0.754,19.4335 0.486,7.213 1.38,14.933 2.653,23.1665 1.273,8.2335 3.06,16.4465 5.3335,24.66 2.2179,7.9719 4.4271,16.3908 6.4135,24.4335 2.006,8.087 2.486,16.207 1.4595,24.3535 -1.0265,8.1465 -4.2265,15.3335 -9.613,21.54 -5.3735,6.2065 -12.0805,10.5135 -20.1065,12.9135 -8.027,2.413 -16.134,3.346 -24.3005,2.813 -8.1795,-0.533 -15.5665,-1.667 -22.16,-3.4335 -6.5935,-1.7535 -11.8065,-4.1535 -15.653,-7.18 -3.8335,-3.0265 -6.3935,-7.0135 -7.687,-11.9665 -1.2795,-4.94 -1.7865,-10.7 -1.52,-17.2865 0.2805,-6.5865 0.9605,-13.8665 2.0535,-21.8665 1.093,-7.987 1.933,-16.507 2.5265,-25.547 0.5935,-9.053 0.4335,-18.267 -0.48,-27.6535 -0.9265,-9.3865 -2.6335,-18.0935 -5.133,-26.1195 -2.5005,-8.014 -5.5805,-14.534 -9.2265,-19.5535 -3.647,-5.0205 -8.127,-9.0205 -13.4335,-11.9935 -5.2935,-2.973 -11.9205,-5.48 -19.847,-7.52 -7.9265,-2.04 -16.5265,-2.68 -25.78,-1.933 -9.2535,0.746 -17.9735,3.293 -26.14,7.646 -8.1665,4.354 -14.8465,10.207 -20.0395,17.5535 -5.194,7.3465 -8.54,15.4405 -10.06,24.2935 -1.52,8.853 -1.414,17.747 0.313,26.6735 1.727,8.9265 4.607,17.4995 8.6265,25.7265 4.0335,8.24 8.6865,16.027 13.98,23.38 5.1235,7.13583 10.8034,14.42602 16.4735,21.147 5.687,6.74 11.353,13.406 17.02,19.9865 5.667,6.5935 11.467,13.1935 17.393,19.833 5.9673,6.66172 12.4641,13.44776 18.847,19.687 6.6211,6.49773 13.8539,13.03196 20.98,18.953 7.2714,6.07125 15.3394,11.91605 23.3735,16.9335 8.2195,5.147 16.7935,9.267 25.7065,12.3535 8.913,3.0865 17.847,4.7795 26.8065,5.0465 8.9605,0.28 17.6535,-0.773 26.0865,-3.16 8.434,-2.387 16.487,-5.8 24.16,-10.26 7.674,-4.447 14.887,-9.687 21.627,-15.707 6.753,-6.033 12.94,-12.673 18.5735,-19.926 5.5679,-7.15535 10.7395,-15.17856 14.953,-23.2005 4.3335,-8.1995 7.9735,-16.7465 10.92,-25.62 2.9465,-8.8735 5.1605,-17.9795 6.66,-27.313 1.4865,-9.3205 2.1135,-18.8265 1.847,-28.5135 -0.2535,-9.687 -1.7335,-19.38 -4.4465,-29.08 -2.714,-9.7 -6.714,-18.833 -12,-27.4135 -5.287,-8.5795 -11.127,-16.3795 -17.514,-23.3865 -6.2985,-6.90778 -13.0871,-14.01175 -19.7,-20.613 -6.74,-6.74 -14.3,-13.18 -22.666,-19.3005 -8.367,-6.1335 -17.14,-11.2935 -26.327,-15.46 z"/>
  <path d="m 272.70467,629.37486 c 6.86929,-1.01454 13.59004,-2.51775 20.16533,-4.51886 9.22,-2.794 17.927,-6.594 26.107,-11.394 8.18,-4.786 15.633,-10.466 22.3535,-17.0265 6.7335,-6.5595 12.5865,-13.7995 17.5665,-21.7265 4.98,-7.927 9.06,-16.287 12.24,-25.06 3.18,-8.787 5.54,-17.773 7.06,-26.967 1.51869,-9.02068 2.32149,-18.61848 2.32,-27.7665 0.027,-9.3065 -0.706,-18.5735 -2.18,-27.7665 -1.487,-9.207 -3.793,-18.207 -6.94,-27.007 -3.133,-8.8 -7.173,-17.173 -12.1265,-25.12 -4.9395,-7.96 -10.7535,-15.226 -17.46,-21.8265 -6.6935,-6.5865 -14.1195,-12.3065 -22.287,-17.1465 -8.1665,-4.827 -16.8595,-8.667 -26.073,-11.513 -6.53996,-2.02087 -13.23435,-3.55451 -20.07834,-4.60111 m -50.06444,-1.84399 c -5.8392,0.0648 -11.64055,0.0753 -17.39722,0.0316 -9.6865,-0.0735 -19.3535,-0.1005 -28.9935,-0.1005 -9.626,0 -19.146,0.68 -28.5665,2.0405 -9.4065,1.3465 -18.5135,3.6535 -27.2865,6.9 -8.787,3.2465 -16.973,7.4995 -24.5535,12.7465 -7.5805,5.247 -14.2335,11.42 -19.9595,18.4935 -5.727,7.0865 -10.274,14.8065 -13.62,23.1735 -3.347,8.366 -5.454,17.006 -6.294,25.9065 -0.853,8.9135 -0.56,17.7265 0.8605,26.4735 1.4195,8.746 3.7795,17.12 7.0665,25.133 3.3,8.027 7.327,15.387 12.0865,22.08 4.7595,6.707 10.0265,12.48 15.8065,17.32 5.781,4.84 11.967,8.84 18.5735,12 6.39739,3.04693 13.31176,5.69358 20.75174,7.90956 m 49.92137,11.07957 c 6.99424,1.25704 14.32399,2.43773 21.34039,3.43737 7.313,1.0405 15.113,1.6535 23.3935,1.847 8.2795,0.1935 16.7465,-0.4205 25.42,-1.847 8.6595,-1.4265 16.6195,-3.7065 23.8665,-6.833 7.247,-3.1265 13.207,-6.8205 17.8795,-11.06 4.6605,-4.2405 7.8465,-8.9465 9.5265,-14.1005 1.68,-5.166 1.467,-10.74 -0.653,-16.746 -1.3937,-3.94048 -3.53636,-7.84293 -6.4226,-11.70238 m -39.51965,-32.41805 c -0.69152,-0.45663 -1.37076,-0.90333 -2.03775,-1.34007 -5.233,-3.4265 -9.126,-6.9065 -11.6535,-10.4265 -2.5395,-3.52 -3.9265,-7.84 -4.1665,-12.9335 -0.24,-5.0935 0.227,-11.1195 1.407,-18.08 1.167,-6.9595 2.527,-14.5335 4.0465,-22.713 1.5195,-8.1805 2.7465,-16.6605 3.6535,-25.4135 0.907,-8.753 1.16,-17.54 0.7665,-26.353 -0.4065,-8.8 -1.6865,-17.174 -3.847,-25.12 -2.1595,-7.947 -5.2265,-14.76 -9.1995,-20.467 -3.973,-5.693 -8.587,-9.693 -13.86,-11.98 -5.273,-2.287 -10.713,-2.647 -16.3135,-1.0935 -5.6135,1.5535 -10.8935,4.7935 -15.86,9.7335 -4.9665,4.94 -9.3265,11.047 -13.08,18.3 -0.15796,0.30523 -0.31477,0.6115 -0.47044,0.91881 m -14.94329,50.5974 c -0.71879,4.89459 -1.31151,9.92313 -1.76154,14.92728 m -1.30848,51.04417 c 0.004,3.30649 0.003,6.51526 -0.003,9.62534 -0.027,7.554 -0.147,14.22 -0.3935,20.007 -0.2465,5.8 -0.4195,11.107 -0.52,15.947 -0.10434,5.26595 -0.12635,10.77334 -0.0665,15.9865 0.06,5.8265 0.06,12.5335 -0.0265,20.1265 -0.0735,7.593 -0.1405,15.753 -0.1935,24.48 -0.04,8.727 0.187,17.58 0.693,26.58 0.52,8.987 1.467,17.907 2.86,26.733 1.394,8.827 3.327,17.427 5.8135,25.794 2.4865,8.353 5.6205,16.126 9.3935,23.3 3.773,7.173 8.147,13.173 13.1465,18.0195 4.9865,4.8335 10.2935,7.9935 15.9265,9.467 5.633,1.4595 11.087,1.0335 16.373,-1.307 5.287,-2.3395 9.927,-6.3665 13.907,-12.093 3.98,-5.7135 7.06,-12.5535 9.2265,-20.4865 2.1665,-7.947 3.4465,-16.32 3.8535,-25.12 0.407,-8.8 0.154,-17.574 -0.7595,-26.32 -0.0595,-0.56999 -0.12033,-1.13879 -0.1824,-1.70639 m -7.91647,-49.18335 c -0.82943,-5.77976 -1.12492,-10.86573 -0.89513,-15.25726 0.2665,-5.093 1.6805,-9.4 4.22,-12.8935 2.5405,-3.4935 6.4475,-6.9195 11.7005,-10.3 5.253,-3.3665 11.28,-7.3395 18.073,-11.9 6.794,-4.5595 13.007,-9.7065 18.647,-15.473 5.64,-5.7535 9.56,-11.6335 11.7665,-17.6405 2.2065,-5.993 2.5135,-11.593 0.9265,-16.786 -1.586,-5.194 -4.68,-9.94 -9.2665,-14.2335 -4.5865,-4.2805 -10.4665,-8.0265 -17.64,-11.2265 -2.65662,-1.18294 -5.4117,-2.24931 -8.26554,-3.2001 m -49.53158,-5.68784 c -5.02625,0.26392 -9.84902,0.70414 -14.46288,1.32094 -7.2335,0.953 -14.5795,2.087 -22.0335,3.3935 -7.467,1.3065 -15.347,2.8135 -23.6535,4.5 -8.3065,1.6865 -16.3065,3.6465 -23.986,5.88 -7.6935,2.2335 -14.7605,4.8865 -21.2005,7.96 -6.453,3.0735 -12.44,6.9795 -17.9665,11.733 -5.5265,4.7535 -10.5535,10.4335 -15.087,17.0735 -0.493969,0.72573 -0.980298,1.45927 -1.458978,2.2006 m -15.341388,92.25203 c 0.483663,1.63768 1.012792,3.2668 1.587366,4.88737 3.0005,8.46 7.2395,16.3 12.7,23.5 5.4605,7.213 11.9005,13.493 19.327,18.86 7.4125,5.367 15.4665,9.7 24.153,13.0265 5.41912,2.06715 10.9657,3.76825 16.63768,5.09871 m 52.70635,4.35003 c 4.94027,0.0254 9.89196,0.0412 14.85597,0.0448 5.65961,0.004 11.36288,0.0562 17.1084,0.15799" class="stroke-orange fill-orange" style="fill:none;stroke:#ff851b;stroke-width:10.5827;stroke-linecap:round;stroke-linejoin:miter;stroke-miterlimit:10;stroke-dasharray:none;stroke-opacity:1" transform="translate(-37.284,-284.242)" id="path360" sodipodi:nodetypes="ccccccccccccccccccccccccccccccccccccccccccccccccccccccccccccccccccccccccccccccccccccccccccccccccccccccccccc" inkscape:path-effect="#path-effect424" inkscape:original-d="m 292.87,624.856 c 9.22,-2.794 17.927,-6.594 26.107,-11.394 8.18,-4.786 15.633,-10.466 22.3535,-17.0265 6.7335,-6.5595 12.5865,-13.7995 17.5665,-21.7265 4.98,-7.927 9.06,-16.287 12.24,-25.06 3.18,-8.787 5.54,-17.773 7.06,-26.967 1.51869,-9.02068 2.32149,-18.61848 2.32,-27.7665 0.027,-9.3065 -0.706,-18.5735 -2.18,-27.7665 -1.487,-9.207 -3.793,-18.207 -6.94,-27.007 -3.133,-8.8 -7.173,-17.173 -12.1265,-25.12 -4.9395,-7.96 -10.7535,-15.226 -17.46,-21.8265 -6.6935,-6.5865 -14.1195,-12.3065 -22.287,-17.1465 -8.1665,-4.827 -16.8595,-8.667 -26.073,-11.513 -9.2135,-2.847 -18.7335,-4.727 -28.5465,-5.6405 -9.813,-0.9135 -19.667,-1.2465 -29.587,-1.013 -9.907,0.2335 -19.72,0.3135 -29.4065,0.24 -9.6865,-0.0735 -19.3535,-0.1005 -28.9935,-0.1005 -9.626,0 -19.146,0.68 -28.5665,2.0405 -9.4065,1.3465 -18.5135,3.6535 -27.2865,6.9 -8.787,3.2465 -16.973,7.4995 -24.5535,12.7465 -7.5805,5.247 -14.2335,11.42 -19.9595,18.4935 -5.727,7.0865 -10.274,14.8065 -13.62,23.1735 -3.347,8.366 -5.454,17.006 -6.294,25.9065 -0.853,8.9135 -0.56,17.7265 0.8605,26.4735 1.4195,8.746 3.7795,17.12 7.0665,25.133 3.3,8.027 7.327,15.387 12.0865,22.08 4.7595,6.707 10.0265,12.48 15.8065,17.32 5.781,4.84 11.967,8.84 18.5735,12 6.6075,3.147 13.7665,5.867 21.4865,8.1265 7.72,2.2735 15.773,4.2735 24.153,6.0135 8.38,1.74 16.38,3.287 23.987,4.66 7.30704,1.32764 15.01975,2.57687 22.387,3.6265 7.313,1.0405 15.113,1.6535 23.3935,1.847 8.2795,0.1935 16.7465,-0.4205 25.42,-1.847 8.6595,-1.4265 16.6195,-3.7065 23.8665,-6.833 7.247,-3.1265 13.207,-6.8205 17.8795,-11.06 4.6605,-4.2405 7.8465,-8.9465 9.5265,-14.1005 1.68,-5.166 1.467,-10.74 -0.653,-16.746 -2.12,-5.994 -5.973,-11.9 -11.54,-17.7005 -5.567,-5.8135 -11.727,-11.0265 -18.467,-15.66 -6.753,-4.6335 -12.74,-8.6735 -17.973,-12.1 -5.233,-3.4265 -9.126,-6.9065 -11.6535,-10.4265 -2.5395,-3.52 -3.9265,-7.84 -4.1665,-12.9335 -0.24,-5.0935 0.227,-11.1195 1.407,-18.08 1.167,-6.9595 2.527,-14.5335 4.0465,-22.713 1.5195,-8.1805 2.7465,-16.6605 3.6535,-25.4135 0.907,-8.753 1.16,-17.54 0.7665,-26.353 -0.4065,-8.8 -1.6865,-17.174 -3.847,-25.12 -2.1595,-7.947 -5.2265,-14.76 -9.1995,-20.467 -3.973,-5.693 -8.587,-9.693 -13.86,-11.98 -5.273,-2.287 -10.713,-2.647 -16.3135,-1.0935 -5.6135,1.5535 -10.8935,4.7935 -15.86,9.7335 -4.9665,4.94 -9.3265,11.047 -13.08,18.3 -3.7535,7.253 -6.8595,15.093 -9.333,23.513 -2.4735,8.42 -4.3935,17.06 -5.767,25.927 -1.35706,8.73217 -2.31362,17.97075 -2.773,26.7935 -0.4805,8.9935 -0.6935,17.8465 -0.6535,26.533 0.04,8.6865 0.053,16.8065 0.04,24.3465 -0.027,7.554 -0.147,14.22 -0.3935,20.007 -0.2465,5.8 -0.4195,11.107 -0.52,15.947 -0.10434,5.26595 -0.12635,10.77334 -0.0665,15.9865 0.06,5.8265 0.06,12.5335 -0.0265,20.1265 -0.0735,7.593 -0.1405,15.753 -0.1935,24.48 -0.04,8.727 0.187,17.58 0.693,26.58 0.52,8.987 1.467,17.907 2.86,26.733 1.394,8.827 3.327,17.427 5.8135,25.794 2.4865,8.353 5.6205,16.126 9.3935,23.3 3.773,7.173 8.147,13.173 13.1465,18.0195 4.9865,4.8335 10.2935,7.9935 15.9265,9.467 5.633,1.4595 11.087,1.0335 16.373,-1.307 5.287,-2.3395 9.927,-6.3665 13.907,-12.093 3.98,-5.7135 7.06,-12.5535 9.2265,-20.4865 2.1665,-7.947 3.4465,-16.32 3.8535,-25.12 0.407,-8.8 0.154,-17.574 -0.7595,-26.32 -0.9135,-8.747 -2.1265,-17.214 -3.6535,-25.3805 -1.513,-8.1665 -2.86,-15.7395 -4.007,-22.6865 -1.16,-6.96 -1.6,-12.987 -1.3335,-18.08 0.2665,-5.093 1.6805,-9.4 4.22,-12.8935 2.5405,-3.4935 6.4475,-6.9195 11.7005,-10.3 5.253,-3.3665 11.28,-7.3395 18.073,-11.9 6.794,-4.5595 13.007,-9.7065 18.647,-15.473 5.64,-5.7535 9.56,-11.6335 11.7665,-17.6405 2.2065,-5.993 2.5135,-11.593 0.9265,-16.786 -1.586,-5.194 -4.68,-9.94 -9.2665,-14.2335 -4.5865,-4.2805 -10.4665,-8.0265 -17.64,-11.2265 -7.1865,-3.2 -15.0935,-5.547 -23.727,-7.0605 -8.6325,-1.5135 -17.0725,-2.2065 -25.313,-2.1065 -8.2395,0.1 -15.9865,0.633 -23.22,1.6 -7.2335,0.953 -14.5795,2.087 -22.0335,3.3935 -7.467,1.3065 -15.347,2.8135 -23.6535,4.5 -8.3065,1.6865 -16.3065,3.6465 -23.986,5.88 -7.6935,2.2335 -14.7605,4.8865 -21.2005,7.96 -6.453,3.0735 -12.44,6.9795 -17.9665,11.733 -5.5265,4.7535 -10.5535,10.4335 -15.087,17.0735 -4.5195,6.64 -8.3995,13.933 -11.633,21.88 -3.2335,7.96 -5.6465,16.28 -7.2335,24.9665 -1.6,8.7005 -2.133,17.5005 -1.6265,26.4135 0.5195,8.927 2.2805,17.62 5.28,26.08 3.0005,8.46 7.2395,16.3 12.7,23.5 5.4605,7.213 11.9005,13.493 19.327,18.86 7.4125,5.367 15.4665,9.7 24.153,13.0265 8.6865,3.3135 17.7005,5.6865 27.0335,7.1 9.23349,1.41065 19.02792,2.186 28.36,2.2535 9.56,0.08 19.16,0.133 28.8065,0.14 9.6335,0.007 19.3935,0.153 29.273,0.4465 9.8805,0.2935 19.7205,5e-4 29.52,-0.873 9.8005,-0.8735 19.3065,-2.7005 28.5265,-5.5065 z"/>
</svg>
