<svg xmlns="http://www.w3.org/2000/svg" viewBox="0 0 1757.059 1871.287">
  <path d="m.068 539.816 192.78-192.78m146.093-134.523c281.256-191.634 255.954 396.262-75.997 64.311L15.949 29.83C10.069 25.197.069 13.95.069 13.95" class="stroke-orange fill-orange" style="fill:none;stroke:#ff851b;stroke-width:28.3465;stroke-miterlimit:4.1;stroke-dasharray:none" transform="matrix(1.33333 0 0 -1.33333 14.032 733.117)"/>
  <path d="M.068 539.816 263.06 276.824c331.801-331.8 357.13 255.91 75.898 64.41M192.848 206.73l-176.9-176.9C10.069 25.198.069 13.95.069 13.95" class="stroke-orange fill-orange" style="fill:none;stroke:#ff851b;stroke-width:28.3465;stroke-miterlimit:4.1;stroke-dasharray:none" transform="matrix(1.33333 0 0 -1.33333 1028.155 733.117)"/>
  <path d="M852.472-315.437c460.373-264.355 460.373-264.355 0-525.866" class="stroke-orange fill-orange" style="fill:none;stroke:#ff851b;stroke-width:28.3465;stroke-miterlimit:4.1;stroke-dasharray:none" transform="matrix(1.33333 0 0 -1.33333 14.032 733.117)"/>
  <path d="m730 355-90 51.962V303.038Z" class="stroke-comment fill-comment" style="fill:#616161;stroke:none;stroke-width:28.3465;stroke-miterlimit:4.1" transform="matrix(0 1.5 -1.5 0 903.968 2.38)"/>
  <path d="M604.127-290.882h60.62v27.997h-60.62z" class="stroke-comment fill-comment" style="fill:#616161;stroke:none;stroke-width:28.3465;stroke-miterlimit:4.1" transform="rotate(90 91.038 -273.335)scale(2)"/>
  <path d="m730 355-90 51.962V303.038Z" class="stroke-comment fill-comment" style="fill:#616161;stroke:none;stroke-width:28.3465;stroke-miterlimit:4.1" transform="matrix(0 -1.5 -1.5 0 903.968 1814.38)"/>
  <path d="m730 355-90 51.962V303.038Z" class="stroke-comment fill-comment" style="fill:#616161;stroke:none;stroke-width:28.3465;stroke-miterlimit:4.1" transform="matrix(0 -1.5 1.5 0 853.091 1814.38)"/>
  <path d="M604.127-290.882h60.62v27.997h-60.62z" class="stroke-comment fill-comment" style="fill:#616161;stroke:none;stroke-width:28.3465;stroke-miterlimit:4.1" transform="matrix(0 -2 2 0 1939.357 2181.133)"/>
  <path d="m730 355-90 51.962V303.038Z" class="stroke-comment fill-comment" style="fill:#616161;stroke:none;stroke-width:28.3465;stroke-miterlimit:4.1" transform="matrix(0 1.5 1.5 0 853.091 2.38)"/>
  <path d="M91.88-315.437c460.373-264.355 460.373-264.355 0-525.866" class="stroke-orange fill-orange" style="fill:none;stroke:#ff851b;stroke-width:28.3465;stroke-miterlimit:4.1;stroke-dasharray:none" transform="matrix(1.33333 0 0 -1.33333 14.032 733.117)"/>
</svg>
