<svg xmlns:inkscape="http://www.inkscape.org/namespaces/inkscape" xmlns:sodipodi="http://sodipodi.sourceforge.net/DTD/sodipodi-0.dtd" xmlns="http://www.w3.org/2000/svg" xmlns:svg="http://www.w3.org/2000/svg" xml:space="preserve" viewBox="0 0 968.19592 190.32901" version="1.1" id="svg64" sodipodi:docname="torus.svg" inkscape:version="1.4.2 (ebf0e940d0, 2025-05-08)">
  <defs id="defs64">
    <inkscape:path-effect effect="knot" id="path-effect6" is_visible="true" lpeversion="1" switcher_size="15" interruption_width="7" prop_to_stroke_width="true" add_stroke_width="inkscape_1.0_and_up" both="false" inverse_width="false" add_other_stroke_width="inkscape_1.0_and_up" crossing_points_vector="599.58057 | 95.16397 | 0 | 1 | 0 | 0 | 2.0000283 | 2.0000283 | -1 | 655.51476 | 95.163947 | 0 | 1 | 1 | 1 | 5.0000295 | 5.0000295 | -1 | 711.44891 | 95.163924 | 0 | 1 | 2 | 2 | 8.0000282 | 8.0000282 | -1 | 767.37994 | 95.163901 | 0 | 1 | 3 | 3 | 11.000029 | 11.000029 | -1 | 823.31094 | 95.163878 | 0 | 1 | 4 | 4 | 14.000028 | 14.000028 | -1 | 879.24513 | 95.163855 | 0 | 1 | 5 | 5 | 17.000029 | 17.000029 | -1 | 935.17928 | 95.163832 | 0 | 1 | 6 | 6 | 20.000028 | 20.000028 | -1"/>
    <inkscape:path-effect effect="knot" id="path-effect4" is_visible="true" lpeversion="1" switcher_size="15" interruption_width="3" prop_to_stroke_width="true" add_stroke_width="inkscape_1.0_and_up" both="false" inverse_width="false" add_other_stroke_width="inkscape_1.0_and_up" crossing_points_vector=""/>
    <inkscape:path-effect effect="knot" id="path-effect2" is_visible="true" lpeversion="1" switcher_size="15" interruption_width="7" prop_to_stroke_width="true" add_stroke_width="inkscape_1.0_and_up" both="false" inverse_width="false" add_other_stroke_width="inkscape_1.0_and_up" crossing_points_vector="-315.5318 | 887.67481 | 0 | 0 | 0 | 6 | 0.031865588 | 23.999961 | -1 | -867.91023 | 889.52126 | 0 | 0 | 1 | 9 | 12.016578 | 36.015717 | -1 | -729.82953 | 889.04806 | 0 | 0 | 2 | 10 | 15.015729 | 39.016579 | -1 | -591.74365 | 888.57455 | 0 | 0 | 3 | 11 | 18.016572 | 42.015709 | -1 | -454.417 | 888.866 | 0 | 0 | 5 | 12 | 21 | 45 | -1 | -454.417 | 888.866 | 0 | 0 | 4 | 13 | 21 | 45 | -1 | -315.53 | 887.673 | 0 | 0 | 7 | 14 | 24 | 48 | -1 | -315.53 | 887.673 | 0 | 0 | 8 | 15 | 24 | 48 | -1"/>
    <inkscape:path-effect effect="knot" id="path-effect1" is_visible="true" lpeversion="1" switcher_size="15" interruption_width="7" prop_to_stroke_width="true" add_stroke_width="inkscape_1.0_and_up" both="false" inverse_width="false" add_other_stroke_width="inkscape_1.0_and_up" crossing_points_vector=""/>
  </defs>
  <sodipodi:namedview id="namedview64" pagecolor="#ffffff" bordercolor="#000000" borderopacity="0.25" inkscape:showpageshadow="2" inkscape:pageopacity="0.0" inkscape:pagecheckerboard="0" inkscape:deskcolor="#d1d1d1" inkscape:zoom="1.2510487" inkscape:cx="560.32988" inkscape:cy="-85.927907" inkscape:window-width="2254" inkscape:window-height="1502" inkscape:window-x="0" inkscape:window-y="0" inkscape:window-maximized="1" inkscape:current-layer="svg64"/>
  <g id="g65" transform="translate(-2.2470186e-4,0.01251909)">
    <path id="path64-6" style="fill:none;stroke:#ff851b;stroke-width:159.703;stroke-linecap:round;stroke-linejoin:miter;stroke-miterlimit:10;stroke-dasharray:none;stroke-opacity:1" class="stroke-orange fill-orange" transform="matrix(0.03528,0,0,-0.03528,-6.142,190.408)" d="m 3102.1889,3088.3554 c 39.9041,40.1631 79.8076,80.3275 119.7111,120.4946 174.1,175.25 348.9,178.65 524.45,10.2 175.45,-168.45 350.85,-339.65 526.2,-513.65 175.35,-174.1 350.55,-350.9 525.75,-530.55 175.2,-179.65 263.3,-413.65 264.4,-701.85 1.1,-288.3 2.2,-576.5 3.25,-864.7985 C 5067,320 4805.5,175 4281.3,173.2015 3757.1,171.398 3232.9,169.602 2708.75,167.7985 2184.6,166 1660.4,164.199 1136.2,162.4005 612,160.602 349.398,303.801 348.3495,592.0995 347.199,880.301 346.199,1168.6 345.051,1456.8 c -1.051,288.3 85.449,520 259.597,695.25 45.68053,45.9683 91.3572,91.9331 137.03112,137.8963 m 787.97958,792.9916 c 39.9174,40.1689 79.832,80.3392 119.7413,120.5121 174.1,175.25 348.9,178.65 524.4,10.25 175.5,-168.4 350.9,-339.7 526.2,-513.7 175.3,-174 350.6,-350.9 525.75,-530.55 175.15,-179.65 349.85,-181.85 523.95,-6.65 45.6868,45.9755 91.3805,91.9578 137.0775,137.9434 m 787.9762,792.9949 c 39.911,40.1576 79.826,80.3123 119.7463,120.4617 174.1,175.2 260.7,409.8 259.75,703.7 -0.95,293.8 -1.85,587.7 -2.8,881.6 -0.95,293.9 -263.45,439.9 -787.65,438.1 -524.2,-1.8 -1048.4,-3.6 -1572.55,-5.4 -524.15,-1.8 -1048.35,-3.6 -1572.55,-5.4 -524.2,-1.8 -785.802,-149.6 -784.8505,-443.5 0.9515,-293.8 1.8495,-587.7 2.801,-881.6 0.9515,-293.9 89.1505,-525 264.5995,-693.4 175.449,-168.4 350.852,-339.6 526.2,-513.7 175.35,-174 350.55,-350.9 525.8,-530.55 175.15,-179.65 349.85,-181.85 523.95,-6.6 45.671,45.9726 91.3419,91.9418 137.0138,137.9094" sodipodi:nodetypes="cccccccsccsccccccccccccsccccccccc" inkscape:path-effect="#path-effect1" inkscape:original-d="M 1136.2,162.4005 C 612,160.602 349.398,303.801 348.3495,592.0995 347.199,880.301 346.199,1168.6 345.051,1456.8 c -1.051,288.3 85.449,520 259.597,695.25 174.153,175.25 348.25,350.45 522.352,525.7 174.1,175.25 348.3,350.45 522.4,525.7 174.1,175.25 348.9,178.65 524.4,10.25 175.5,-168.4 350.9,-339.7 526.2,-513.7 175.3,-174 350.6,-350.9 525.75,-530.55 175.15,-179.65 349.85,-181.85 523.95,-6.65 174.1,175.2 348.3,350.5 522.4,525.7 174.1,175.2 348.2,350.5 522.4,525.7 174.1,175.2 260.7,409.8 259.75,703.7 -0.95,293.8 -1.85,587.7 -2.8,881.6 -0.95,293.9 -263.45,439.9 -787.65,438.1 -524.2,-1.8 -1048.4,-3.6 -1572.55,-5.4 -524.15,-1.8 -1048.35,-3.6 -1572.55,-5.4 -524.2,-1.8 -785.802,-149.6 -784.8505,-443.5 0.9515,-293.8 1.8495,-587.7 2.801,-881.6 0.9515,-293.9 89.1505,-525 264.5995,-693.4 175.449,-168.4 350.852,-339.6 526.2,-513.7 175.35,-174 350.55,-350.9 525.8,-530.55 175.15,-179.65 349.85,-181.85 523.95,-6.6 174.1,175.25 348.2,350.45 522.35,525.7 174.15,175.25 348.25,350.45 522.35,525.7 174.1,175.25 348.9,178.65 524.45,10.2 175.45,-168.45 350.85,-339.65 526.2,-513.65 175.35,-174.1 350.55,-350.9 525.75,-530.55 175.2,-179.65 263.3,-413.65 264.4,-701.85 1.1,-288.3 2.2,-576.5 3.25,-864.7985 C 5067,320 4805.5,175 4281.3,173.2015 3757.1,171.398 3232.9,169.602 2708.75,167.7985 2184.6,166 1660.4,164.199 1136.2,162.4005 Z"/>
  </g>
  <g id="g66" transform="matrix(1.5155342,0,0,1.5155342,228.08689,0.00431139)">
    <path id="path96" style="fill:none;stroke:#ff851b;stroke-width:14.0233;stroke-linecap:round;stroke-linejoin:miter;stroke-miterlimit:10;stroke-dasharray:none;stroke-opacity:1" class="stroke-orange fill-orange" transform="matrix(0.26458,0,0,0.26458,251.973,-172.12)" d="m -317.064,886.153 c 16.03207,15.91522 31.93493,31.96008 46.9335,47.3465 15.3865,15.7735 23.1195,36.3195 23.22,61.627 0.0865,25.3195 0.1805,50.6265 0.28,75.933 0.1005,25.3195 -22.8735,38.0535 -68.8935,38.207 -46.033,0.1535 -92.06,0.3135 -138.093,0.473 -46.02,0.1595 -92.047,0.3195 -138.08,0.473 -46.02,0.1535 -92.06,0.3135 -138.08,0.467 -46.033,0.1665 -92.06,0.3265 -138.08,0.48 -46.033,0.1535 -69.1,-12.4205 -69.1865,-37.7265 -0.1005,-25.32 -0.1935,-50.627 -0.2865,-75.9335 -0.094,-25.3205 7.506,-45.6665 22.793,-61.0465 4.01063,-4.03844 8.02167,-8.07647 12.0329,-12.11418 m 69.18949,-69.63339 c 3.50398,-3.52633 7.00774,-7.05264 10.51111,-10.57893 15.2865,-15.3865 30.6465,-15.6935 46.0465,-0.9005 15.27848,14.65759 31.19443,30.19586 46.2065,45.1065 15.26893,15.15007 31.17182,31.19962 46.1735,46.587 15.38,15.7795 30.713,15.9665 46.007,0.5865 4.01184,-4.03807 8.02278,-8.07573 12.0333,-12.11308 m 69.19178,-69.63112 c 3.50511,-3.52745 7.00993,-7.05489 10.51442,-10.5823 15.2865,-15.3865 30.6335,-15.6805 46.047,-0.9 15.27507,14.66144 31.15132,31.67918 46.1665,46.5865 15.26408,15.14979 31.20263,29.71951 46.2,45.107 15.38,15.78 30.726,15.967 46.0135,0.5865 l 12.04489,-12.09986 m 69.18345,-69.64297 c 3.47194,-3.50123 6.96689,-7.02326 10.50466,-10.58417 15.2865,-15.3865 22.9005,-35.9865 22.8135,-61.786 -0.087,-25.8005 -0.167,-51.6135 -0.247,-77.4135 -0.08,-25.8 -23.133,-38.627 -69.166,-38.4735 -46.02,0.1535 -92.047,0.3135 -138.08,0.48 -46.02,0.1535 -92.06,0.3135 -138.08,0.467 -46.034,0.1535 -92.06,0.3135 -138.08,0.473 -46.034,0.1595 -92.06,0.3195 -138.094,0.473 -46.02,0.1535 -68.993,13.1405 -68.913,38.947 0.08,25.8065 0.16,51.6065 0.2465,77.413 0.0735,25.8065 7.8205,46.1005 23.2335,60.887 15.27861,14.65959 31.19455,30.19353 46.2065,45.1065 15.26557,15.15522 31.16843,31.20008 46.167,46.5865 15.3865,15.7735 30.7195,15.9735 46.0065,0.5805 4.01089,-4.03529 8.02219,-8.07106 12.03368,-12.10729 m 69.19299,-69.62993 c 3.50403,-3.52727 7.00834,-7.05487 10.51333,-10.58278 15.293,-15.393 30.64,-15.687 46.0465,-0.893 15.27886,14.65989 31.19508,30.19377 46.207,45.1 15.26525,15.14855 31.16816,31.19346 46.1665,46.5865 15.38,15.7735 30.713,15.9735 46.007,0.5865 3.75987,-3.78298 7.51974,-7.56596 11.27952,-11.34903 m 69.19067,-69.63225 c 3.75671,-3.78153 7.5132,-7.56345 11.26931,-11.34572 15.2865,-15.38 30.6335,-15.687 46.047,-0.893 15.27833,14.6532 31.19461,30.18713 46.9735,45.86" sodipodi:nodetypes="ccccccccccccscccccccccccccccccccccccccccccccccccc" inkscape:path-effect="#path-effect2" inkscape:original-d="m -317.064,886.153 c 16.03207,15.91522 31.93493,31.96008 46.9335,47.3465 15.3865,15.7735 23.1195,36.3195 23.22,61.627 0.0865,25.3195 0.1805,50.6265 0.28,75.933 0.1005,25.3195 -22.8735,38.0535 -68.8935,38.207 -46.033,0.1535 -92.06,0.3135 -138.093,0.473 -46.02,0.1595 -92.047,0.3195 -138.08,0.473 -46.02,0.1535 -92.06,0.3135 -138.08,0.467 -46.033,0.1665 -92.06,0.3265 -138.08,0.48 -46.033,0.1535 -69.1,-12.4205 -69.1865,-37.7265 -0.1005,-25.32 -0.1935,-50.627 -0.2865,-75.9335 -0.094,-25.3205 7.506,-45.6665 22.793,-61.0465 15.287,-15.393 30.58,-30.78 45.8665,-46.1665 15.2865,-15.3865 30.5805,-30.7735 45.867,-46.16 15.2865,-15.3865 30.6465,-15.6935 46.0465,-0.9005 15.27848,14.65759 31.19443,30.19586 46.2065,45.1065 15.26893,15.15007 31.17182,31.19962 46.1735,46.587 15.38,15.7795 30.713,15.9665 46.007,0.5865 15.293,-15.393 30.573,-30.78 45.866,-46.1665 15.294,-15.3865 30.587,-30.7735 45.8735,-46.16 15.2865,-15.3865 30.6335,-15.6805 46.047,-0.9 15.27507,14.66144 31.15132,31.67918 46.1665,46.5865 15.26408,15.14979 31.20263,29.71951 46.2,45.107 15.38,15.78 30.726,15.967 46.0135,0.5865 L -315.53,887.673 c 15.286,-15.3935 29.773,-30.054 45.0595,-45.4405 15.2865,-15.3865 22.9005,-35.9865 22.8135,-61.786 -0.087,-25.8005 -0.167,-51.6135 -0.247,-77.4135 -0.08,-25.8 -23.133,-38.627 -69.166,-38.4735 -46.02,0.1535 -92.047,0.3135 -138.08,0.48 -46.02,0.1535 -92.06,0.3135 -138.08,0.467 -46.034,0.1535 -92.06,0.3135 -138.08,0.473 -46.034,0.1595 -92.06,0.3195 -138.094,0.473 -46.02,0.1535 -68.993,13.1405 -68.913,38.947 0.08,25.8065 0.16,51.6065 0.2465,77.413 0.0735,25.8065 7.8205,46.1005 23.2335,60.887 15.27861,14.65959 31.19455,30.19353 46.2065,45.1065 15.26557,15.15522 31.16843,31.20008 46.167,46.5865 15.3865,15.7735 30.7195,15.9735 46.0065,0.5805 15.287,-15.38 30.58,-30.767 45.8665,-46.16 15.3005,-15.38 30.5805,-30.767 45.8735,-46.16 15.293,-15.393 30.64,-15.687 46.0465,-0.893 15.27886,14.65989 31.19508,30.19377 46.207,45.1 15.26525,15.14855 31.16816,31.19346 46.1665,46.5865 15.38,15.7735 30.713,15.9735 46.007,0.5865 15.293,-15.387 30.586,-30.774 45.873,-46.167 15.287,-15.38 30.58,-30.767 45.8665,-46.16 15.2865,-15.38 30.6335,-15.687 46.047,-0.893 15.27833,14.6532 31.19461,30.18713 46.9735,45.86"/>
  </g>
  <path style="fill:none;stroke:#ff851b;stroke-width:5.051;stroke-linecap:round;stroke-linejoin:miter;stroke-miterlimit:10;stroke-dasharray:none;stroke-opacity:1" d="m 963.14531,138.66696 v 31.07419 c 0,10.35911 -9.31867,15.53709 -27.97077,15.53709 l -55.92996,1.4e-4 h -55.9289 -55.93629 -55.93417 -55.92996 -55.93206 c -18.64894,0 -27.96972,-5.17587 -27.96972,-15.53709 v -31.07314" id="path6"/>
  <path style="fill:none;stroke:#ff851b;stroke-width:5.051;stroke-linecap:round;stroke-linejoin:miter;stroke-miterlimit:10;stroke-dasharray:none;stroke-opacity:1" d="M 963.14531,51.661759 V 20.588761 c 0,-10.360171 -9.31867,-15.5381486 -27.97077,-15.5381486 h -55.92996 -55.9289 -55.93629 -55.93417 -55.92996 -55.93206 c -18.64894,0 -27.96972,5.1758696 -27.96972,15.5370946 v 31.07419" id="path4"/>
  <path id="path128" style="fill:none;stroke:#ff851b;stroke-width:5.051;stroke-linecap:round;stroke-linejoin:miter;stroke-miterlimit:10;stroke-dasharray:none;stroke-opacity:1" d="m 571.61348,138.66815 c 0,-10.36228 3.10974,-18.64789 9.32394,-24.85893 2.04759,-2.04863 4.09551,-4.09634 6.14345,-6.14378 m 25.00064,-25.001704 6.14431,-6.143964 c 6.21736,-6.211043 12.42841,-6.211043 18.64261,-0.0011 6.21421,6.218422 12.43157,12.427357 18.64578,18.644725 6.21421,6.219473 12.43157,12.428403 18.64262,18.645773 6.21736,6.21104 12.42841,6.21104 18.64578,0 l 6.14535,-6.14501 m 25.00065,-25.001715 c 2.04758,-2.047085 4.09516,-4.094444 6.14239,-6.142719 6.21421,-6.211043 12.43157,-6.211043 18.64262,-0.0011 l 18.64577,18.644725 18.64578,18.645779 c 6.21105,6.21104 12.42841,6.21104 18.64262,0 2.04759,-2.04863 4.09552,-4.09634 6.14345,-6.14378 m 25.00063,-25.001709 6.14431,-6.143961 c 6.21737,-6.211043 12.42842,-6.211043 18.64578,-0.0011 6.21105,6.218422 12.42841,12.427357 18.64262,18.644725 6.21421,6.219475 12.43157,12.428405 18.64578,18.645775 6.2142,6.21104 12.42525,6.21104 18.64261,0 l 6.14536,-6.14501 m 25.00065,-25.001717 c 2.04758,-2.047085 4.09516,-4.094444 6.14239,-6.142719 6.2142,-6.211043 9.32394,-14.49665 9.32394,-24.857875 m -391.53183,1.38e-4 c 0,10.359117 3.10974,18.644724 9.32394,24.856821 6.21421,6.218422 12.43157,12.427357 18.64262,18.644725 l 18.64578,18.645777 c 6.21736,6.21104 12.42841,6.21104 18.64261,0 2.0481,-2.04914 4.09655,-4.09737 6.14511,-6.14532 m 25.00197,-25.000382 c 2.04756,-2.047427 4.09478,-4.095129 6.14132,-6.143746 6.21736,-6.211043 12.42841,-6.211043 18.64578,-0.0011 l 18.64577,18.644725 c 6.21105,6.219473 12.42841,12.428403 18.64262,18.645773 6.21421,6.21104 12.43157,6.21104 18.64262,0 l 6.14538,-6.14503 m 25.00188,-25.000473 6.14429,-6.143941 c 6.21105,-6.211043 12.42841,-6.211043 18.64262,-0.0011 6.21421,6.218422 12.43157,12.427357 18.64262,18.644725 l 18.64577,18.645779 c 6.21737,6.21104 12.42842,6.21104 18.64578,0 2.0469,-2.04898 4.09449,-4.09705 6.14242,-6.14485 m 25.00197,-25.000378 c 2.0482,-2.047586 4.09627,-4.095446 6.14401,-6.144222 6.2142,-6.211043 12.42525,-6.211043 18.64261,-0.0011 l 18.64578,18.644725 c 6.21105,6.219475 12.42841,12.428405 18.64262,18.645775 6.2142,6.21104 9.32394,14.49665 9.32394,24.85788" inkscape:path-effect="#path-effect6" inkscape:original-d="m 571.61348,138.66815 c 0,-10.36228 3.10974,-18.64789 9.32394,-24.85893 6.21421,-6.21737 12.43157,-12.4263 18.64262,-18.644723 l 18.64578,-18.644725 c 6.21736,-6.211043 12.42841,-6.211043 18.64261,-0.0011 6.21421,6.218422 12.43157,12.427357 18.64578,18.644725 6.21421,6.219473 12.43157,12.428403 18.64262,18.645773 6.21736,6.21104 12.42841,6.21104 18.64578,0 l 18.64577,-18.644719 c 6.21105,-6.218422 12.42841,-12.427357 18.64262,-18.644725 6.21421,-6.211043 12.43157,-6.211043 18.64262,-0.0011 l 18.64577,18.644725 18.64578,18.645779 c 6.21105,6.21104 12.42841,6.21104 18.64262,0 6.21421,-6.21737 12.43157,-12.4263 18.64262,-18.644725 L 841.95618,76.51968 c 6.21737,-6.211043 12.42842,-6.211043 18.64578,-0.0011 6.21105,6.218422 12.42841,12.427357 18.64262,18.644725 6.21421,6.219475 12.43157,12.428405 18.64578,18.645775 6.2142,6.21104 12.42525,6.21104 18.64261,0 l 18.64578,-18.644721 c 6.21105,-6.218422 12.42841,-12.427357 18.64262,-18.644725 6.2142,-6.211043 9.32394,-14.49665 9.32394,-24.857875 m -391.53183,1.38e-4 c 0,10.359117 3.10974,18.644724 9.32394,24.856821 6.21421,6.218422 12.43157,12.427357 18.64262,18.644725 l 18.64578,18.645777 c 6.21736,6.21104 12.42841,6.21104 18.64261,0 6.21421,-6.21737 12.43157,-12.4263 18.64578,-18.644723 6.21421,-6.218422 12.43157,-12.427357 18.64262,-18.644725 6.21736,-6.211043 12.42841,-6.211043 18.64578,-0.0011 l 18.64577,18.644725 c 6.21105,6.219473 12.42841,12.428403 18.64262,18.645773 6.21421,6.21104 12.43157,6.21104 18.64262,0 l 18.64577,-18.644719 18.64578,-18.644725 c 6.21105,-6.211043 12.42841,-6.211043 18.64262,-0.0011 6.21421,6.218422 12.43157,12.427357 18.64262,18.644725 l 18.64577,18.645779 c 6.21737,6.21104 12.42842,6.21104 18.64578,0 6.21105,-6.21737 12.42841,-12.4263 18.64262,-18.644725 6.21421,-6.218422 12.43157,-12.427357 18.64578,-18.644725 6.2142,-6.211043 12.42525,-6.211043 18.64261,-0.0011 l 18.64578,18.644725 c 6.21105,6.219475 12.42841,12.428405 18.64262,18.645775 6.2142,6.21104 9.32394,14.49665 9.32394,24.85788"/>
</svg>
