<?xml version="1.0" encoding="UTF-8" standalone="no"?>
<svg
   version="1.1"
   viewBox="-0.5 -0.5 259 600"
   id="svg59"
   sodipodi:docname="v_mod_process.svg"
   inkscape:version="1.4.2 (ebf0e940d0, 2025-05-08)"
   xmlns:inkscape="http://www.inkscape.org/namespaces/inkscape"
   xmlns:sodipodi="http://sodipodi.sourceforge.net/DTD/sodipodi-0.dtd"
   xmlns="http://www.w3.org/2000/svg"
   xmlns:svg="http://www.w3.org/2000/svg">
  <sodipodi:namedview
     id="namedview59"
     pagecolor="#ffffff"
     bordercolor="#000000"
     borderopacity="0.25"
     inkscape:showpageshadow="2"
     inkscape:pageopacity="0.0"
     inkscape:pagecheckerboard="0"
     inkscape:deskcolor="#d1d1d1"
     inkscape:zoom="0.94980695"
     inkscape:cx="319.0122"
     inkscape:cy="595.91057"
     inkscape:window-width="1902"
     inkscape:window-height="1030"
     inkscape:window-x="0"
     inkscape:window-y="0"
     inkscape:window-maximized="1"
     inkscape:current-layer="svg59"
     showguides="true">
    <sodipodi:guide
       position="103.79425,376.5"
       orientation="1,0"
       id="guide59"
       inkscape:locked="false" />
    <sodipodi:guide
       position="105,477.5"
       orientation="0,-1"
       id="guide60"
       inkscape:locked="false" />
  </sodipodi:namedview>
  <defs
     id="defs1" />
  <g
     id="g60">
    <path
       d="M 0,23 V 0 h 257 v 23"
       fill="#f5f5f5"
       stroke="#666666"
       stroke-miterlimit="10"
       pointer-events="all"
       style="fill:none;stroke:#616161;stroke-opacity:1"
       id="path1" />
    <path
       d="M 0,23 V 599 H 257 V 23"
       fill="none"
       stroke="#666666"
       stroke-miterlimit="10"
       pointer-events="none"
       style="stroke:#616161;stroke-opacity:1"
       id="path2" />
    <path
       d="M 0,23 H 257"
       fill="none"
       stroke="#666666"
       stroke-miterlimit="10"
       pointer-events="none"
       style="stroke:#616161;stroke-opacity:1"
       id="path3" />
    <path
       d="m 92.415039,8.8574219 q 0,0.8027344 -0.369141,1.4238281 -0.363281,0.615234 -1.037109,0.966797 -0.673828,0.345703 -1.605469,0.345703 H 87.352539 V 14.5 H 85.624023 V 6.2441406 h 3.708985 q 1.482422,0 2.279297,0.6855469 0.802734,0.6796875 0.802734,1.9277344 z m -1.740234,0.029297 q 0,-1.3007813 -1.535157,-1.3007813 h -1.787109 v 2.6777345 h 1.833984 q 0.714844,0 1.101563,-0.3515626 0.386719,-0.3574219 0.386719,-1.0253906 z M 95.30957,11.388672 V 14.5 H 93.663086 V 9.6484375 q 0,-0.5214844 -0.01758,-0.8671875 -0.01172,-0.3515625 -0.0293,-0.6210937 h 1.570312 q 0.01172,0.052734 0.02344,0.234375 0.01172,0.1816406 0.02344,0.4101562 0.01172,0.2226563 0.01758,0.421875 0.01172,0.1992188 0.01172,0.2871094 h 0.02344 q 0.234375,-0.65625 0.427734,-0.9433594 0.1875,-0.2753906 0.445313,-0.4042969 0.257812,-0.1289062 0.644531,-0.1289062 0.316406,0 0.509766,0.087891 v 1.3769531 q -0.392579,-0.087891 -0.703125,-0.087891 -0.615235,0 -0.960938,0.4980469 -0.339844,0.4980466 -0.339844,1.4765626 z m 9.04688,-0.06445 q 0,1.541015 -0.85547,2.419922 -0.85547,0.873047 -2.36719,0.873047 -1.482423,0 -2.326173,-0.878907 -0.84375,-0.878906 -0.84375,-2.414062 0,-1.5292971 0.84375,-2.402344 0.84375,-0.8789062 2.361333,-0.8789062 1.55273,0 2.36718,0.8496093 0.82032,0.84375 0.82032,2.4316409 z m -1.72266,0 q 0,-1.13086 -0.36914,-1.6406252 -0.36914,-0.5097657 -1.07227,-0.5097657 -0.75,0 -1.125,0.5390625 -0.374997,0.5332034 -0.374997,1.6113284 0,1.060547 0.363277,1.617187 0.36914,0.550782 1.06055,0.550782 0.76172,0 1.13672,-0.539063 0.38086,-0.544922 0.38086,-1.628906 z m 9.0293,-0.01758 q 0,1.570312 -0.63282,2.443359 -0.62695,0.867188 -1.79882,0.867188 -0.67383,0 -1.16602,-0.292969 -0.49219,-0.292969 -0.75586,-0.84375 h -0.0117 q 0,0.134765 -0.0117,0.351562 -0.0117,0.216797 -0.0293,0.410157 -0.0176,0.1875 -0.041,0.257812 h -1.59961 q 0.0234,-0.275391 0.0352,-0.632812 0.0117,-0.363282 0.0117,-0.814454 V 5.8046875 h 1.64648 v 2.4257813 q 0,0.2578125 -0.0117,0.515625 -0.006,0.2578125 -0.0117,0.515625 h 0.0234 q 0.27539,-0.609375 0.78516,-0.9140625 0.50976,-0.3046875 1.24218,-0.3046875 1.125,0 1.72266,0.8554687 0.60352,0.8496094 0.60352,2.4082035 z m -1.7168,0 q 0,-1.078125 -0.31641,-1.5996097 -0.3164,-0.5214844 -0.97851,-0.5214844 -0.66797,0 -1.01953,0.5625 -0.34571,0.5566411 -0.34571,1.6113281 0,1.007813 0.33985,1.570313 0.3457,0.5625 1.01367,0.5625 0.65625,0 0.97851,-0.544922 0.32813,-0.544922 0.32813,-1.640625 z m 4.69336,-5.5019535 V 14.5 h -1.64649 V 5.8046875 Z m 3.04687,5.8417965 q 0,0.925782 0.33985,1.400391 0.3457,0.46875 0.97851,0.46875 0.4336,0 0.70899,-0.1875 0.28125,-0.193359 0.39258,-0.568359 l 1.55273,0.134765 q -0.67383,1.722657 -2.73633,1.722657 -1.42969,0 -2.19726,-0.84375 -0.76758,-0.84961 -0.76758,-2.472657 0,-1.5703122 0.77929,-2.4140622 0.7793,-0.84375 2.20899,-0.84375 1.36523,0 2.08594,0.9082031 0.7207,0.9023437 0.7207,2.6484371 v 0.04687 z m 2.47266,-1.03125 q -0.0469,-0.7675777 -0.36914,-1.1484371 -0.32227,-0.3867188 -0.86719,-0.3867188 -0.58008,0 -0.89648,0.4042969 -0.31055,0.4042969 -0.32813,1.130859 z m 4.48828,0.486329 V 14.5 h -1.64648 V 9.578125 q 0,-0.5097656 -0.0176,-0.8320312 -0.0117,-0.328125 -0.0293,-0.5859375 h 1.57031 q 0.0117,0.070312 0.0293,0.3339843 0.0176,0.2578125 0.0293,0.5332032 0.0176,0.2695312 0.0176,0.3925781 h 0.0234 q 0.30469,-0.7265625 0.75586,-1.0546875 0.45703,-0.328125 1.08985,-0.328125 0.72656,0 1.16601,0.3457031 0.44531,0.3457031 0.59766,1.0371094 h 0.0352 q 0.32227,-0.7382813 0.77344,-1.0605469 0.45117,-0.3222656 1.14844,-0.3222656 0.92578,0 1.41211,0.6328125 0.48633,0.6269531 0.48633,1.8046871 V 14.5 h -1.63477 v -3.556641 q 0,-0.83789 -0.24023,-1.2539059 -0.24024,-0.4160156 -0.72071,-0.4160156 -0.48046,0 -0.80273,0.46875 -0.32227,0.4628905 -0.32227,1.2832035 V 14.5 h -1.63476 v -3.556641 q 0,-0.83789 -0.24024,-1.2539059 -0.24023,-0.4160156 -0.7207,-0.4160156 -0.49805,0 -0.81445,0.5097656 -0.31055,0.5097659 -0.31055,1.3183599 z m 19.05469,1.019531 q 0,1.21289 -0.90235,1.857422 -0.89648,0.638672 -2.63671,0.638672 -3.13477,0 -3.65039,-2.267579 l 1.66992,-0.27539 q 0.16992,0.65625 0.66211,0.955078 0.49218,0.292969 1.36523,0.292969 0.9082,0 1.35938,-0.275391 0.45117,-0.275391 0.45117,-0.826172 0,-0.351562 -0.20508,-0.580078 -0.20508,-0.228516 -0.58594,-0.380859 -0.1875,-0.07617 -0.55078,-0.164063 -0.36328,-0.09375 -0.90234,-0.205078 -0.6211,-0.146484 -0.97266,-0.246094 -0.35156,-0.105468 -0.5625,-0.199218 -0.21094,-0.09961 -0.41016,-0.216797 -0.43945,-0.2636722 -0.68554,-0.7031254 -0.2461,-0.4394531 -0.2461,-1.0957031 0,-1.1191406 0.83789,-1.7109375 0.84375,-0.5976563 2.44922,-0.5976563 1.53516,0 2.30274,0.4804688 0.77344,0.4804687 0.99609,1.5878906 l -1.67578,0.2285157 q -0.12891,-0.5332032 -0.52734,-0.8027344 -0.39258,-0.2695313 -1.13086,-0.2695313 -0.78516,0 -1.17774,0.2460938 -0.39258,0.2460937 -0.39258,0.7382812 0,0.3222657 0.16407,0.5273438 0.16992,0.2050781 0.49804,0.3515625 0.31055,0.140625 1.33008,0.3574219 0.5918,0.1289062 1.01953,0.2460937 0.42774,0.1113281 0.68555,0.216797 0.25781,0.111328 0.45703,0.234375 0.20508,0.123047 0.35156,0.263672 0.29883,0.287109 0.45704,0.685547 0.1582,0.392578 0.1582,0.908203 z m 3.94922,2.496094 q -1.44141,0 -2.22657,-0.855469 -0.78515,-0.861328 -0.78515,-2.396485 0,-1.5703121 0.79101,-2.443359 0.79102,-0.8789062 2.24414,-0.8789062 1.11915,0 1.85157,0.5625 0.73242,0.5625 0.91992,1.5527342 l -1.6582,0.08203 q -0.0703,-0.4863277 -0.35157,-0.7734371 -0.28125,-0.2929688 -0.79687,-0.2929688 -0.63867,0 -0.95508,0.5332032 -0.31641,0.5273437 -0.31641,1.5937497 0,1.095703 0.32227,1.646485 0.32812,0.544922 0.97266,0.544922 0.46875,0 0.78515,-0.292969 0.31641,-0.298828 0.39258,-0.884766 l 1.65234,0.07617 q -0.0879,0.667969 -0.47461,1.171875 -0.38085,0.498047 -0.99023,0.779297 -0.60937,0.275391 -1.37695,0.275391 z m 10.05468,-3.292969 q 0,1.541015 -0.85546,2.419922 -0.85547,0.873047 -2.36719,0.873047 -1.48242,0 -2.32617,-0.878907 -0.84375,-0.878906 -0.84375,-2.414062 0,-1.5292971 0.84375,-2.402344 0.84375,-0.8789062 2.36132,-0.8789062 1.55274,0 2.36719,0.8496093 0.82031,0.84375 0.82031,2.4316409 z m -1.72265,0 q 0,-1.13086 -0.36914,-1.6406252 -0.36914,-0.5097657 -1.07227,-0.5097657 -0.75,0 -1.125,0.5390625 -0.375,0.5332034 -0.375,1.6113284 0,1.060547 0.36328,1.617187 0.36914,0.550782 1.06055,0.550782 0.76172,0 1.13672,-0.539063 0.38086,-0.544922 0.38086,-1.628906 z m 9.0293,-0.02344 q 0,1.587891 -0.63868,2.455078 -0.63281,0.861329 -1.79297,0.861329 -1.37695,0 -1.92187,-1.125 h -0.0352 q 0.0352,0.175781 0.0352,1.066406 v 2.43164 H 159.0127 V 9.6191406 q 0,-0.4511718 -0.0117,-0.8144531 -0.0117,-0.3632812 -0.0352,-0.6445312 h 1.59961 q 0.0234,0.070312 0.0352,0.2402343 0.0176,0.1640625 0.0234,0.375 0.0117,0.2109375 0.0117,0.4160157 h 0.0234 q 0.27539,-0.5859375 0.78516,-0.8730469 0.50976,-0.2929688 1.24218,-0.2929688 1.10743,0 1.7168,0.8554688 0.60938,0.8496094 0.60938,2.4199216 z m -1.7168,0 q 0,-1.066406 -0.32813,-1.5996091 -0.32226,-0.5332031 -0.97851,-0.5332031 -0.65625,0 -1.00781,0.5742187 -0.34571,0.5742185 -0.34571,1.6054685 0,1.025391 0.34571,1.587891 0.35156,0.556641 0.99609,0.556641 0.66211,0 0.99023,-0.544922 0.32813,-0.550782 0.32813,-1.646485 z m 4.40625,0.345703 q 0,0.925782 0.33984,1.400391 0.34571,0.46875 0.97852,0.46875 0.43359,0 0.70898,-0.1875 0.28125,-0.193359 0.39258,-0.568359 l 1.55273,0.134765 q -0.67382,1.722657 -2.73632,1.722657 -1.42969,0 -2.19727,-0.84375 -0.76758,-0.84961 -0.76758,-2.472657 0,-1.5703122 0.7793,-2.4140622 0.7793,-0.84375 2.20898,-0.84375 1.36524,0 2.08594,0.9082031 0.7207,0.9023437 0.7207,2.6484371 v 0.04687 z m 2.47265,-1.03125 q -0.0469,-0.7675777 -0.36914,-1.1484371 -0.32226,-0.3867188 -0.86718,-0.3867188 -0.58008,0 -0.89649,0.4042969 -0.31054,0.4042969 -0.32812,1.130859 z"
       id="text3"
       style="font-weight:bold;font-size:12px;font-family:Helvetica;text-anchor:middle;fill:#616161;fill-opacity:1"
       aria-label="Problem Scope" />
    <path
       d="m 225,67 h 20 v 70 h -13.63"
       fill="none"
       stroke="#666666"
       stroke-miterlimit="10"
       pointer-events="stroke"
       style="stroke:#616161;stroke-opacity:1"
       id="path5" />
    <path
       d="m 226.12,137 7,-3.5 -1.75,3.5 1.75,3.5 z"
       fill="#666666"
       stroke="#666666"
       stroke-miterlimit="10"
       pointer-events="all"
       style="fill:#616161;stroke:#616161;stroke-opacity:1;fill-opacity:1"
       id="path6" />
    <path
       id="rect7"
       style="fill:none;stroke:#616161;stroke-opacity:1"
       d="M 105,37 H 225 V 97 H 105 Z" />
    <path
       d="M 129.25293,67.072266 V 70.5 h -1.11914 v -8.255859 h 3.88476 q 1.39454,0 2.1504,0.626953 0.76171,0.621093 0.76171,1.734375 0,0.919922 -0.53906,1.546875 -0.5332,0.626953 -1.47656,0.791015 L 135.25879,70.5 h -1.28906 l -2.14453,-3.427734 z m 4.55273,-2.455079 q 0,-0.720703 -0.49218,-1.095703 -0.48633,-0.380859 -1.40625,-0.380859 h -2.6543 V 66.1875 h 2.70117 q 0.88477,0 1.36524,-0.410156 0.48632,-0.416016 0.48632,-1.160157 z m 3.62696,2.935547 q 0,1.089844 0.45117,1.681641 0.45117,0.591797 1.31836,0.591797 0.68555,0 1.0957,-0.275391 0.41602,-0.27539 0.5625,-0.697265 l 0.92578,0.263671 q -0.56836,1.5 -2.58398,1.5 -1.40625,0 -2.14453,-0.83789 -0.73242,-0.837891 -0.73242,-2.490235 0,-1.570312 0.73242,-2.408203 0.73828,-0.83789 2.10351,-0.83789 1.40039,0 2.09766,0.84375 0.69726,0.84375 0.69726,2.52539 v 0.140625 z m 3.43359,-0.808593 q -0.0879,-1.001954 -0.50976,-1.458985 -0.42188,-0.46289 -1.2129,-0.46289 -0.76757,0 -1.21875,0.515625 -0.44531,0.509765 -0.48046,1.40625 z m 2.12695,0.615234 q 0,-1.658203 0.58008,-2.484375 0.58594,-0.832031 1.75196,-0.832031 0.7207,0 1.19531,0.257812 0.47461,0.251953 0.79101,0.84375 0,-0.117187 0.0117,-0.363281 0.0117,-0.251953 0.0293,-0.46875 0.0176,-0.216797 0.0293,-0.234375 h 1.01367 q -0.0234,0.169922 -0.0352,0.603516 -0.006,0.433593 -0.006,1.125 v 7.183593 h -1.05469 v -2.572265 l 0.0234,-0.960938 h -0.0117 q -0.3164,0.626953 -0.77929,0.896485 -0.46289,0.263671 -1.20703,0.263671 -1.20704,0 -1.76954,-0.814453 -0.5625,-0.814453 -0.5625,-2.443359 z m 4.30664,-0.105469 q 0,-1.236328 -0.40429,-1.833984 -0.4043,-0.597656 -1.28906,-0.597656 -0.80274,0 -1.1543,0.597656 -0.35156,0.597656 -0.35156,1.904297 0,1.330078 0.35156,1.904297 0.35742,0.574218 1.14258,0.574218 0.89648,0 1.30078,-0.638672 0.40429,-0.638671 0.40429,-1.910156 z m 6.67969,2.16211 q -0.36328,0.65625 -0.84375,0.93164 -0.47461,0.269531 -1.18359,0.269531 -1.04297,0 -1.5293,-0.515625 -0.48047,-0.521484 -0.48047,-1.716796 v -4.22461 h 1.06055 v 4.019531 q 0,0.949219 0.29297,1.289063 0.29883,0.333984 1.01367,0.333984 0.76172,0 1.20117,-0.521484 0.43946,-0.521484 0.43946,-1.447266 v -3.673828 h 1.05468 v 4.986328 q 0,0.550782 0.006,0.890625 0.0117,0.339844 0.0293,0.462891 h -0.99609 q -0.006,-0.0293 -0.0234,-0.275391 -0.0117,-0.246093 -0.0234,-0.808593 z m 3.71485,-7.611329 V 62.8125 h -1.05469 v -1.007813 z m 0,2.355469 V 70.5 h -1.05469 v -6.339844 z m 2.69531,3.035156 V 70.5 h -1.05469 v -4.863281 q 0,-0.333985 -0.0117,-0.703125 -0.006,-0.369141 -0.0234,-0.773438 h 0.9961 q 0.0117,0.269531 0.0176,0.486328 0.0117,0.216797 0.0176,0.38086 0.006,0.158203 0.006,0.269531 0.006,0.105469 0.006,0.158203 h 0.0234 q 0.17578,-0.574219 0.38672,-0.890625 0.20508,-0.292969 0.46875,-0.404297 0.26367,-0.117187 0.65039,-0.117187 0.2168,0 0.42773,0.05859 v 0.966797 q -0.19921,-0.05859 -0.5625,-0.05859 -0.65625,0 -1.00195,0.568359 -0.3457,0.5625 -0.3457,1.617187 z m 3.72656,0.357422 q 0,1.089844 0.45117,1.681641 0.45117,0.591797 1.31836,0.591797 0.68555,0 1.09571,-0.275391 0.41601,-0.27539 0.5625,-0.697265 l 0.92578,0.263671 q -0.56836,1.5 -2.58399,1.5 -1.40625,0 -2.14453,-0.83789 -0.73242,-0.837891 -0.73242,-2.490235 0,-1.570312 0.73242,-2.408203 0.73828,-0.83789 2.10352,-0.83789 1.40039,0 2.09765,0.84375 0.69727,0.84375 0.69727,2.52539 v 0.140625 z m 3.43359,-0.808593 q -0.0879,-1.001954 -0.50976,-1.458985 -0.42188,-0.46289 -1.21289,-0.46289 -0.76758,0 -1.21875,0.515625 -0.44531,0.509765 -0.48047,1.40625 z m 3.50391,0.08203 V 70.5 h -1.04883 v -4.986328 q 0,-0.556641 -0.0117,-0.890625 -0.006,-0.339844 -0.0234,-0.462891 h 0.99609 q 0.0117,0.128906 0.0234,0.316406 0.0117,0.1875 0.0176,0.392579 0.006,0.199218 0.006,0.375 h 0.0176 q 0.33985,-0.673829 0.7793,-0.9375 0.43945,-0.263672 1.07227,-0.263672 0.7207,0 1.13671,0.287109 0.42188,0.287109 0.58594,0.914063 h 0.0176 q 0.32813,-0.638672 0.79102,-0.919922 0.46875,-0.28125 1.13086,-0.28125 0.96093,0 1.39453,0.521484 0.43945,0.521484 0.43945,1.710938 V 70.5 h -1.04297 v -4.019531 q 0,-0.919922 -0.25195,-1.271485 -0.25196,-0.351562 -0.90821,-0.351562 -0.6914,0 -1.07812,0.515625 -0.38086,0.509765 -0.38086,1.453125 V 70.5 h -1.04297 v -4.019531 q 0,-0.919922 -0.25195,-1.271485 -0.25195,-0.351562 -0.9082,-0.351562 -0.67383,0 -1.06641,0.515625 -0.39258,0.515625 -0.39258,1.453125 z m 9.73242,0.726562 q 0,1.089844 0.45117,1.681641 0.45118,0.591797 1.31836,0.591797 0.68555,0 1.09571,-0.275391 0.41601,-0.27539 0.5625,-0.697265 l 0.92578,0.263671 q -0.56836,1.5 -2.58399,1.5 -1.40625,0 -2.14453,-0.83789 -0.73242,-0.837891 -0.73242,-2.490235 0,-1.570312 0.73242,-2.408203 0.73828,-0.83789 2.10352,-0.83789 1.40039,0 2.09765,0.84375 0.69727,0.84375 0.69727,2.52539 v 0.140625 z m 3.4336,-0.808593 q -0.0879,-1.001954 -0.50977,-1.458985 -0.42187,-0.46289 -1.21289,-0.46289 -0.76758,0 -1.21875,0.515625 -0.44531,0.509765 -0.48047,1.40625 z m 3.50976,0.08203 V 70.5 h -1.05469 v -4.986328 q 0,-0.556641 -0.0117,-0.890625 -0.006,-0.339844 -0.0234,-0.462891 h 0.99609 q 0.0117,0.111328 0.0176,0.28125 0.0117,0.169922 0.0176,0.375 0.006,0.205078 0.0117,0.427735 h 0.0176 q 0.36328,-0.65625 0.83789,-0.925782 0.48046,-0.27539 1.18945,-0.27539 1.04297,0 1.52344,0.533203 0.48632,0.533203 0.48632,1.699219 V 70.5 h -1.06054 v -4.019531 q 0,-0.908203 -0.29297,-1.265625 -0.29297,-0.357422 -1.01367,-0.357422 -0.76172,0 -1.20117,0.521484 -0.43946,0.521485 -0.43946,1.447266 z m 8.03321,3.626953 q -0.51563,0.140625 -1.06641,0.140625 -0.63281,0 -0.94922,-0.357422 -0.31641,-0.363281 -0.31641,-1.078125 v -4.230469 h -0.73242 v -0.767578 h 0.77344 l 0.31055,-1.417969 h 0.70312 v 1.417969 h 1.17188 v 0.767578 h -1.17188 v 4.001953 q 0,0.457032 0.14649,0.644532 0.15234,0.18164 0.52148,0.18164 0.19922,0 0.60938,-0.08203 z m 5.65429,-1.705078 q 0,0.896484 -0.67969,1.382812 -0.67382,0.486328 -1.89257,0.486328 -1.1836,0 -1.82813,-0.386718 -0.63867,-0.392578 -0.83203,-1.21875 l 0.93164,-0.181641 q 0.13477,0.509766 0.55664,0.75 0.42188,0.234375 1.17188,0.234375 0.80273,0 1.17187,-0.246094 0.375,-0.246093 0.375,-0.738281 0,-0.375 -0.25781,-0.609375 -0.25781,-0.234375 -0.83203,-0.386719 -0.67969,-0.18164 -1.08399,-0.298828 -0.39843,-0.117187 -0.61523,-0.199219 -0.2168,-0.08789 -0.3457,-0.164062 -0.38672,-0.222656 -0.60352,-0.544922 -0.2168,-0.322266 -0.2168,-0.791016 0,-0.867187 0.61524,-1.318359 0.62109,-0.457031 1.80469,-0.457031 1.04882,0 1.66406,0.36914 0.62109,0.369141 0.78515,1.183594 l -0.94921,0.117188 q -0.0879,-0.421875 -0.47461,-0.644532 -0.38086,-0.228515 -1.02539,-0.228515 -0.71485,0 -1.05469,0.216797 -0.33985,0.216797 -0.33985,0.65625 0,0.322265 0.19336,0.533203 0.19336,0.205078 0.73828,0.339844 0.73243,0.175781 1.39454,0.386718 0.66211,0.205078 0.94921,0.410157 0.33399,0.240234 0.50391,0.568359 0.17578,0.322266 0.17578,0.779297 z"
       id="text8"
       style="font-size:12px;font-family:Helvetica;text-anchor:middle;fill:#616161;fill-opacity:1"
       aria-label="Requirements" />
    <path
       d="M 105,137 H 85 v 70 h 13.63"
       fill="none"
       stroke="#666666"
       stroke-miterlimit="10"
       pointer-events="stroke"
       style="stroke:#616161;stroke-opacity:1"
       id="path11" />
    <path
       d="m 103.88,207 -7,3.5 1.75,-3.5 -1.75,-3.5 z"
       fill="#666666"
       stroke="#666666"
       stroke-miterlimit="10"
       pointer-events="all"
       style="fill:#616161;stroke:#616161;stroke-opacity:1;fill-opacity:1"
       id="path12" />
    <path
       id="rect13"
       style="fill:none;stroke:#616161;stroke-opacity:1"
       d="m 105,107 h 120 v 60 H 105 Z" />
    <path
       d="m 153.91504,136.28711 q 0,1.30664 -0.50977,2.25 -0.5039,0.94336 -1.41211,1.45312 -0.90234,0.50977 -2.09765,0.50977 h -3.08789 v -8.25586 h 2.73047 q 2.09765,0 3.23437,1.05469 1.14258,1.04883 1.14258,2.98828 z m -1.125,0 q 0,-1.53516 -0.84375,-2.33789 -0.83789,-0.8086 -2.43164,-0.8086 h -1.58789 v 6.4629 h 1.83984 q 0.91992,0 1.59375,-0.4043 0.67969,-0.4043 1.05469,-1.14844 0.375,-0.74414 0.375,-1.76367 z m 3.31641,1.26562 q 0,1.08985 0.45117,1.68164 0.45117,0.5918 1.31836,0.5918 0.68554,0 1.0957,-0.27539 0.41602,-0.27539 0.5625,-0.69726 l 0.92578,0.26367 q -0.56836,1.5 -2.58398,1.5 -1.40625,0 -2.14453,-0.83789 -0.73243,-0.83789 -0.73243,-2.49024 0,-1.57031 0.73243,-2.4082 0.73828,-0.83789 2.10351,-0.83789 1.40039,0 2.09766,0.84375 0.69726,0.84375 0.69726,2.52539 v 0.14062 z m 3.43359,-0.80859 q -0.0879,-1.00195 -0.50977,-1.45898 -0.42187,-0.46289 -1.21289,-0.46289 -0.76758,0 -1.21875,0.51562 -0.44531,0.50977 -0.48047,1.40625 z m 7.18945,2.00391 q 0,0.89648 -0.67969,1.38281 -0.67382,0.48633 -1.89257,0.48633 -1.1836,0 -1.82813,-0.38672 -0.63867,-0.39258 -0.83203,-1.21875 l 0.93164,-0.18164 q 0.13477,0.50976 0.55664,0.75 0.42188,0.23437 1.17188,0.23437 0.80273,0 1.17187,-0.24609 0.375,-0.24609 0.375,-0.73828 0,-0.375 -0.25781,-0.60938 -0.25781,-0.23437 -0.83203,-0.38672 -0.67969,-0.18164 -1.08399,-0.29882 -0.39843,-0.11719 -0.61523,-0.19922 -0.2168,-0.0879 -0.3457,-0.16407 -0.38672,-0.22265 -0.60352,-0.54492 -0.2168,-0.32226 -0.2168,-0.79101 0,-0.86719 0.61524,-1.31836 0.62109,-0.45703 1.80469,-0.45703 1.04882,0 1.66406,0.36914 0.62109,0.36914 0.78515,1.18359 l -0.94921,0.11719 q -0.0879,-0.42188 -0.47461,-0.64453 -0.38086,-0.22852 -1.02539,-0.22852 -0.71485,0 -1.05469,0.2168 -0.33985,0.2168 -0.33985,0.65625 0,0.32226 0.19336,0.5332 0.19336,0.20508 0.73828,0.33985 0.73243,0.17578 1.39454,0.38671 0.66211,0.20508 0.94921,0.41016 0.33399,0.24023 0.50391,0.56836 0.17578,0.32227 0.17578,0.7793 z m 2.29102,-6.94336 v 1.00781 h -1.05469 v -1.00781 z m 0,2.35547 V 140.5 h -1.05469 v -6.33984 z m 4.01953,8.83007 q -1.03711,0 -1.65234,-0.41015 -0.61524,-0.4043 -0.79102,-1.1543 l 1.06055,-0.15234 q 0.10547,0.43945 0.46289,0.67383 0.36328,0.24023 0.94922,0.24023 0.78515,0 1.17773,-0.46289 0.39844,-0.46289 0.39844,-1.38281 v -1.01953 h -0.0117 q -0.29883,0.60937 -0.82031,0.91992 -0.52149,0.30468 -1.21875,0.30468 -1.16602,0 -1.7168,-0.77343 -0.54492,-0.77344 -0.54492,-2.43164 0,-1.68164 0.58594,-2.47852 0.59179,-0.80273 1.79296,-0.80273 0.67383,0 1.16602,0.31054 0.49805,0.30469 0.76758,0.87305 h 0.0117 q 0,-0.11719 0.0117,-0.36328 0.0117,-0.25195 0.0293,-0.47461 0.0176,-0.22266 0.0293,-0.24609 h 1.00195 q -0.0351,0.3164 -0.0351,1.3125 v 4.8457 q 0,1.33594 -0.66211,2.00391 -0.66211,0.66796 -1.99219,0.66796 z m 1.60547,-5.66015 q 0,-1.1543 -0.47461,-1.81641 -0.46875,-0.66797 -1.20117,-0.66797 -0.8086,0 -1.17774,0.58594 -0.36914,0.58594 -0.36914,1.89844 0,1.30078 0.3457,1.86914 0.34571,0.56836 1.1836,0.56836 0.75,0 1.21875,-0.65039 0.47461,-0.65625 0.47461,-1.78711 z m 3.74414,-0.50391 V 140.5 h -1.05469 v -4.98633 q 0,-0.55664 -0.0117,-0.89062 -0.006,-0.33985 -0.0234,-0.46289 h 0.9961 q 0.0117,0.11132 0.0176,0.28125 0.0117,0.16992 0.0176,0.375 0.006,0.20507 0.0117,0.42773 h 0.0176 q 0.36328,-0.65625 0.83789,-0.92578 0.48047,-0.27539 1.18946,-0.27539 1.04296,0 1.52343,0.5332 0.48633,0.5332 0.48633,1.69922 V 140.5 h -1.06055 v -4.01953 q 0,-0.9082 -0.29296,-1.26563 -0.29297,-0.35742 -1.01368,-0.35742 -0.76172,0 -1.20117,0.52149 -0.43945,0.52148 -0.43945,1.44726 z"
       id="text14"
       style="font-size:12px;font-family:Helvetica;text-anchor:middle;fill:#616161;fill-opacity:1"
       aria-label="Design" />
    <path
       d="m 225,207 h 20 v 70 h -13.63"
       fill="none"
       stroke="#666666"
       stroke-miterlimit="10"
       pointer-events="stroke"
       style="stroke:#616161;stroke-opacity:1"
       id="path17" />
    <path
       d="m 226.12,277 7,-3.5 -1.75,3.5 1.75,3.5 z"
       fill="#666666"
       stroke="#666666"
       stroke-miterlimit="10"
       pointer-events="all"
       style="fill:#616161;stroke:#616161;stroke-opacity:1;fill-opacity:1"
       id="path18" />
    <path
       id="rect19"
       style="fill:none;stroke:#616161;stroke-opacity:1"
       d="m 105,177 h 120 v 60 H 105 Z" />
    <path
       d="m 137.76953,210.61719 q -1.01367,0 -1.76953,-0.375 -0.75586,-0.375 -1.17188,-1.07227 -0.41601,-0.69726 -0.41601,-1.66992 v -5.25586 h 1.11914 v 5.16211 q 0,1.13086 0.57422,1.7168 0.57422,0.58593 1.6582,0.58593 1.11328,0 1.72852,-0.60351 0.62109,-0.60938 0.62109,-1.77539 v -5.08594 h 1.11328 v 5.15039 q 0,1.00195 -0.42773,1.72266 -0.42188,0.7207 -1.20117,1.11328 -0.77344,0.38672 -1.82813,0.38672 z m 6.26953,-3.79102 V 210.5 h -1.05469 v -4.98633 q 0,-0.55664 -0.0117,-0.89062 -0.006,-0.33985 -0.0234,-0.46289 h 0.99609 q 0.0117,0.11132 0.0176,0.28125 0.0117,0.16992 0.0176,0.375 0.006,0.20507 0.0117,0.42773 h 0.0176 q 0.36328,-0.65625 0.83789,-0.92578 0.48046,-0.27539 1.18945,-0.27539 1.04297,0 1.52344,0.5332 0.48632,0.5332 0.48632,1.69922 V 210.5 h -1.06054 v -4.01953 q 0,-0.9082 -0.29297,-1.26563 -0.29297,-0.35742 -1.01367,-0.35742 -0.76172,0 -1.20117,0.52149 -0.43946,0.52148 -0.43946,1.44726 z m 6.64453,-5.02148 v 1.00781 h -1.05468 v -1.00781 z m 0,2.35547 V 210.5 h -1.05468 v -6.33984 z m 4.05469,6.29296 q -0.51562,0.14063 -1.06641,0.14063 -0.63281,0 -0.94921,-0.35742 -0.31641,-0.36328 -0.31641,-1.07813 v -4.23047 h -0.73242 v -0.76757 h 0.77344 l 0.31054,-1.41797 h 0.70313 v 1.41797 h 1.17187 v 0.76757 h -1.17187 v 4.00196 q 0,0.45703 0.14648,0.64453 0.15235,0.18164 0.52149,0.18164 0.19921,0 0.60937,-0.082 z m 11.51367,-4.16601 q 0,1.30664 -0.50976,2.25 -0.50391,0.94336 -1.41211,1.45312 -0.90235,0.50977 -2.09766,0.50977 h -3.08789 v -8.25586 h 2.73047 q 2.09766,0 3.23437,1.05469 1.14258,1.04883 1.14258,2.98828 z m -1.125,0 q 0,-1.53516 -0.84375,-2.33789 -0.83789,-0.8086 -2.43164,-0.8086 h -1.58789 v 6.4629 h 1.83985 q 0.91992,0 1.59375,-0.4043 0.67968,-0.4043 1.05468,-1.14844 0.375,-0.74414 0.375,-1.76367 z m 3.31641,1.26562 q 0,1.08985 0.45117,1.68164 0.45117,0.5918 1.31836,0.5918 0.68555,0 1.0957,-0.27539 0.41602,-0.27539 0.5625,-0.69726 l 0.92578,0.26367 q -0.56835,1.5 -2.58398,1.5 -1.40625,0 -2.14453,-0.83789 -0.73242,-0.83789 -0.73242,-2.49024 0,-1.57031 0.73242,-2.4082 0.73828,-0.83789 2.10351,-0.83789 1.4004,0 2.09766,0.84375 0.69727,0.84375 0.69727,2.52539 v 0.14062 z m 3.43359,-0.80859 q -0.0879,-1.00195 -0.50976,-1.45898 -0.42188,-0.46289 -1.21289,-0.46289 -0.76758,0 -1.21875,0.51562 -0.44532,0.50977 -0.48047,1.40625 z m 7.18946,2.00391 q 0,0.89648 -0.67969,1.38281 -0.67383,0.48633 -1.89258,0.48633 -1.18359,0 -1.82812,-0.38672 -0.63868,-0.39258 -0.83204,-1.21875 l 0.93164,-0.18164 q 0.13477,0.50976 0.55665,0.75 0.42187,0.23437 1.17187,0.23437 0.80273,0 1.17188,-0.24609 0.375,-0.24609 0.375,-0.73828 0,-0.375 -0.25782,-0.60938 -0.25781,-0.23437 -0.83203,-0.38672 -0.67969,-0.18164 -1.08398,-0.29882 -0.39844,-0.11719 -0.61524,-0.19922 -0.21679,-0.0879 -0.3457,-0.16407 -0.38672,-0.22265 -0.60352,-0.54492 -0.21679,-0.32226 -0.21679,-0.79101 0,-0.86719 0.61523,-1.31836 0.6211,-0.45703 1.80469,-0.45703 1.04883,0 1.66406,0.36914 0.6211,0.36914 0.78516,1.18359 l -0.94922,0.11719 q -0.0879,-0.42188 -0.47461,-0.64453 -0.38086,-0.22852 -1.02539,-0.22852 -0.71484,0 -1.05469,0.2168 -0.33984,0.2168 -0.33984,0.65625 0,0.32226 0.19336,0.5332 0.19336,0.20508 0.73828,0.33985 0.73242,0.17578 1.39453,0.38671 0.66211,0.20508 0.94922,0.41016 0.33398,0.24023 0.5039,0.56836 0.17579,0.32227 0.17579,0.7793 z m 2.29101,-6.94336 v 1.00781 h -1.05469 v -1.00781 z m 0,2.35547 V 210.5 h -1.05469 v -6.33984 z m 4.01953,8.83007 q -1.03711,0 -1.65234,-0.41015 -0.61524,-0.4043 -0.79102,-1.1543 l 1.06055,-0.15234 q 0.10547,0.43945 0.46289,0.67383 0.36328,0.24023 0.94922,0.24023 0.78516,0 1.17773,-0.46289 0.39844,-0.46289 0.39844,-1.38281 v -1.01953 h -0.0117 q -0.29883,0.60937 -0.82031,0.91992 -0.52148,0.30468 -1.21875,0.30468 -1.16602,0 -1.7168,-0.77343 -0.54492,-0.77344 -0.54492,-2.43164 0,-1.68164 0.58594,-2.47852 0.5918,-0.80273 1.79297,-0.80273 0.67383,0 1.16601,0.31054 0.49805,0.30469 0.76758,0.87305 h 0.0117 q 0,-0.11719 0.0117,-0.36328 0.0117,-0.25195 0.0293,-0.47461 0.0176,-0.22266 0.0293,-0.24609 h 1.00196 q -0.0352,0.3164 -0.0352,1.3125 v 4.8457 q 0,1.33594 -0.66211,2.00391 -0.66211,0.66796 -1.99219,0.66796 z m 1.60547,-5.66015 q 0,-1.1543 -0.47461,-1.81641 -0.46875,-0.66797 -1.20117,-0.66797 -0.80859,0 -1.17773,0.58594 -0.36914,0.58594 -0.36914,1.89844 0,1.30078 0.3457,1.86914 0.3457,0.56836 1.18359,0.56836 0.75,0 1.21875,-0.65039 0.47461,-0.65625 0.47461,-1.78711 z m 3.74414,-0.50391 V 210.5 h -1.05469 v -4.98633 q 0,-0.55664 -0.0117,-0.89062 -0.006,-0.33985 -0.0234,-0.46289 h 0.99609 q 0.0117,0.11132 0.0176,0.28125 0.0117,0.16992 0.0176,0.375 0.006,0.20507 0.0117,0.42773 h 0.0176 q 0.36328,-0.65625 0.83789,-0.92578 0.48046,-0.27539 1.18945,-0.27539 1.04297,0 1.52344,0.5332 0.48632,0.5332 0.48632,1.69922 V 210.5 h -1.06054 v -4.01953 q 0,-0.9082 -0.29297,-1.26563 -0.29297,-0.35742 -1.01367,-0.35742 -0.76172,0 -1.20117,0.52149 -0.43946,0.52148 -0.43946,1.44726 z"
       id="text20"
       style="font-size:12px;font-family:Helvetica;text-anchor:middle;fill:#616161;fill-opacity:1"
       aria-label="Unit Design" />
    <path
       d="M 105,277 H 85 v 70 h 13.63"
       fill="none"
       stroke="#666666"
       stroke-miterlimit="10"
       pointer-events="stroke"
       style="stroke:#616161;stroke-opacity:1"
       id="path23" />
    <path
       d="m 103.88,347 -7,3.5 1.75,-3.5 -1.75,-3.5 z"
       fill="#666666"
       stroke="#666666"
       stroke-miterlimit="10"
       pointer-events="all"
       style="fill:#616161;stroke:#616161;stroke-opacity:1;fill-opacity:1"
       id="path24" />
    <path
       id="rect25"
       style="fill:none;stroke:#616161;stroke-opacity:1"
       d="m 105,247 h 120 v 60 H 105 Z" />
    <path
       d="M 125.70508,272.24414 V 280.5 h -1.11914 v -8.25586 z m 2.98828,4.58203 V 280.5 h -1.04883 v -4.98633 q 0,-0.55664 -0.0117,-0.89062 -0.006,-0.33985 -0.0234,-0.46289 h 0.99609 q 0.0117,0.1289 0.0234,0.3164 0.0117,0.1875 0.0176,0.39258 0.006,0.19922 0.006,0.375 h 0.0176 q 0.33985,-0.67383 0.7793,-0.9375 0.43945,-0.26367 1.07226,-0.26367 0.72071,0 1.13672,0.28711 0.42188,0.28711 0.58594,0.91406 h 0.0176 q 0.32812,-0.63867 0.79101,-0.91992 0.46875,-0.28125 1.13086,-0.28125 0.96094,0 1.39453,0.52148 0.43946,0.52149 0.43946,1.71094 V 280.5 h -1.04297 v -4.01953 q 0,-0.91992 -0.25195,-1.27149 -0.25196,-0.35156 -0.90821,-0.35156 -0.6914,0 -1.07812,0.51563 -0.38086,0.50976 -0.38086,1.45312 V 280.5 h -1.04297 v -4.01953 q 0,-0.91992 -0.25195,-1.27149 -0.25196,-0.35156 -0.90821,-0.35156 -0.67382,0 -1.0664,0.51563 -0.39258,0.51562 -0.39258,1.45312 z m 14.28516,0.47461 q 0,1.6582 -0.58594,2.49024 -0.58008,0.82617 -1.7461,0.82617 -1.46484,0 -1.96875,-1.10157 h -0.0293 q 0.0234,0.041 0.0234,0.9961 v 2.47851 h -1.05468 v -7.53515 q 0,-0.48633 -0.0117,-0.8086 -0.006,-0.32812 -0.0234,-0.48632 h 1.01953 q 0.006,0.0234 0.0176,0.22851 0.0176,0.20508 0.0293,0.44531 0.0117,0.23438 0.0117,0.34571 h 0.0234 q 0.28125,-0.58594 0.74414,-0.85547 0.46289,-0.27539 1.21875,-0.27539 1.17188,0 1.75196,0.78515 0.58008,0.78516 0.58008,2.4668 z m -1.10743,0.0234 q 0,-1.32422 -0.35742,-1.89258 -0.35742,-0.56836 -1.13672,-0.56836 -0.86718,0 -1.28906,0.60352 -0.41602,0.59765 -0.41602,1.93945 0,1.24805 0.39844,1.83984 0.39844,0.5918 1.29492,0.5918 0.78516,0 1.14258,-0.57422 0.36328,-0.58008 0.36328,-1.93945 z m 3.47461,-5.51953 V 280.5 h -1.05468 v -8.69531 z m 2.41992,5.74804 q 0,1.08985 0.45118,1.68164 0.45117,0.5918 1.31836,0.5918 0.68554,0 1.0957,-0.27539 0.41601,-0.27539 0.5625,-0.69726 l 0.92578,0.26367 q -0.56836,1.5 -2.58398,1.5 -1.40625,0 -2.14454,-0.83789 -0.73242,-0.83789 -0.73242,-2.49024 0,-1.57031 0.73242,-2.4082 0.73829,-0.83789 2.10352,-0.83789 1.40039,0 2.09766,0.84375 0.69726,0.84375 0.69726,2.52539 v 0.14062 z m 3.4336,-0.80859 q -0.0879,-1.00195 -0.50977,-1.45898 -0.42187,-0.46289 -1.21289,-0.46289 -0.76758,0 -1.21875,0.51562 -0.44531,0.50977 -0.48047,1.40625 z m 3.5039,0.082 V 280.5 h -1.04882 v -4.98633 q 0,-0.55664 -0.0117,-0.89062 -0.006,-0.33985 -0.0234,-0.46289 h 0.99609 q 0.0117,0.1289 0.0234,0.3164 0.0117,0.1875 0.0176,0.39258 0.006,0.19922 0.006,0.375 h 0.0176 q 0.33984,-0.67383 0.77929,-0.9375 0.43946,-0.26367 1.07227,-0.26367 0.7207,0 1.13672,0.28711 0.42187,0.28711 0.58594,0.91406 h 0.0176 q 0.32813,-0.63867 0.79102,-0.91992 0.46875,-0.28125 1.13086,-0.28125 0.96094,0 1.39453,0.52148 0.43945,0.52149 0.43945,1.71094 V 280.5 h -1.04297 v -4.01953 q 0,-0.91992 -0.25195,-1.27149 -0.25195,-0.35156 -0.9082,-0.35156 -0.69141,0 -1.07813,0.51563 -0.38086,0.50976 -0.38086,1.45312 V 280.5 h -1.04296 v -4.01953 q 0,-0.91992 -0.25196,-1.27149 -0.25195,-0.35156 -0.9082,-0.35156 -0.67383,0 -1.06641,0.51563 -0.39258,0.51562 -0.39258,1.45312 z m 9.73243,0.72656 q 0,1.08985 0.45117,1.68164 0.45117,0.5918 1.31836,0.5918 0.68554,0 1.0957,-0.27539 0.41602,-0.27539 0.5625,-0.69726 l 0.92578,0.26367 q -0.56836,1.5 -2.58398,1.5 -1.40625,0 -2.14453,-0.83789 -0.73243,-0.83789 -0.73243,-2.49024 0,-1.57031 0.73243,-2.4082 0.73828,-0.83789 2.10351,-0.83789 1.40039,0 2.09766,0.84375 0.69726,0.84375 0.69726,2.52539 v 0.14062 z m 3.43359,-0.80859 q -0.0879,-1.00195 -0.50977,-1.45898 -0.42187,-0.46289 -1.21289,-0.46289 -0.76757,0 -1.21875,0.51562 -0.44531,0.50977 -0.48046,1.40625 z m 3.50977,0.082 V 280.5 h -1.05469 v -4.98633 q 0,-0.55664 -0.0117,-0.89062 -0.006,-0.33985 -0.0234,-0.46289 h 0.9961 q 0.0117,0.11132 0.0176,0.28125 0.0117,0.16992 0.0176,0.375 0.006,0.20507 0.0117,0.42773 h 0.0176 q 0.36328,-0.65625 0.83789,-0.92578 0.48047,-0.27539 1.18945,-0.27539 1.04297,0 1.52344,0.5332 0.48633,0.5332 0.48633,1.69922 V 280.5 h -1.06055 v -4.01953 q 0,-0.9082 -0.29297,-1.26563 -0.29297,-0.35742 -1.01367,-0.35742 -0.76172,0 -1.20117,0.52149 -0.43945,0.52148 -0.43945,1.44726 z m 8.0332,3.62695 q -0.51563,0.14063 -1.06641,0.14063 -0.63281,0 -0.94922,-0.35742 -0.3164,-0.36328 -0.3164,-1.07813 v -4.23047 h -0.73242 v -0.76757 h 0.77343 l 0.31055,-1.41797 h 0.70313 v 1.41797 h 1.17187 v 0.76757 h -1.17187 v 4.00196 q 0,0.45703 0.14648,0.64453 0.15234,0.18164 0.52148,0.18164 0.19922,0 0.60938,-0.082 z m 2.51367,0.16407 q -0.95508,0 -1.43555,-0.50391 -0.48046,-0.50391 -0.48046,-1.38281 0,-0.98438 0.64453,-1.51172 0.65039,-0.52734 2.09179,-0.5625 l 1.42383,-0.0234 v -0.3457 q 0,-0.77344 -0.32812,-1.10742 -0.32813,-0.33399 -1.03125,-0.33399 -0.70899,0 -1.03125,0.24024 -0.32227,0.24023 -0.38672,0.76758 l -1.10156,-0.0996 q 0.26953,-1.71094 2.54296,-1.71094 1.19532,0 1.79883,0.55078 0.60352,0.54492 0.60352,1.58203 v 2.73047 q 0,0.46875 0.12304,0.70898 0.12305,0.23438 0.46875,0.23438 0.16407,0 0.34571,-0.041 v 0.65625 q -0.19922,0.0469 -0.4043,0.0703 -0.20508,0.0234 -0.41016,0.0234 -0.58593,0 -0.85546,-0.30468 -0.26368,-0.31055 -0.29883,-0.9668 h -0.0352 q -0.4043,0.72656 -0.94336,1.03125 -0.5332,0.29883 -1.30078,0.29883 z m 2.24414,-3.2461 -1.1543,0.0234 q -0.73828,0.006 -1.125,0.15234 -0.38671,0.14063 -0.59179,0.4336 -0.20508,0.29297 -0.20508,0.76758 0,0.51562 0.27539,0.79687 0.28125,0.28125 0.79688,0.28125 0.58593,0 1.03125,-0.26367 0.45117,-0.26367 0.70898,-0.7207 0.26367,-0.46289 0.26367,-0.94922 z m 5.25,3.08203 q -0.51562,0.14063 -1.0664,0.14063 -0.63282,0 -0.94922,-0.35742 -0.31641,-0.36328 -0.31641,-1.07813 v -4.23047 h -0.73242 v -0.76757 h 0.77344 l 0.31054,-1.41797 h 0.70313 v 1.41797 h 1.17187 v 0.76757 h -1.17187 v 4.00196 q 0,0.45703 0.14648,0.64453 0.15235,0.18164 0.52149,0.18164 0.19922,0 0.60937,-0.082 z m 1.94531,-8.64843 v 1.00781 h -1.05468 v -1.00781 z m 0,2.35547 V 280.5 h -1.05468 v -6.33984 z m 6.97852,3.16406 q 0,1.66406 -0.73242,2.47851 -0.73242,0.81446 -2.12696,0.81446 -1.38867,0 -2.09765,-0.84375 -0.70899,-0.84961 -0.70899,-2.44922 0,-1.64063 0.70899,-2.46094 0.71484,-0.82031 2.13281,-0.82031 1.45313,0 2.13867,0.80273 0.68555,0.79688 0.68555,2.47852 z m -1.10742,0 q 0,-1.3125 -0.39258,-1.9043 -0.38672,-0.59765 -1.30664,-0.59765 -0.92578,0 -1.3418,0.60937 -0.41015,0.60352 -0.41015,1.89258 0,1.2539 0.40429,1.88672 0.41016,0.62695 1.28321,0.62695 0.94921,0 1.35351,-0.60937 0.41016,-0.60938 0.41016,-1.9043 z m 3.49804,-0.49805 V 280.5 h -1.05468 v -4.98633 q 0,-0.55664 -0.0117,-0.89062 -0.006,-0.33985 -0.0234,-0.46289 h 0.99609 q 0.0117,0.11132 0.0176,0.28125 0.0117,0.16992 0.0176,0.375 0.006,0.20507 0.0117,0.42773 h 0.0176 q 0.36328,-0.65625 0.83789,-0.92578 0.48047,-0.27539 1.18945,-0.27539 1.04297,0 1.52344,0.5332 0.48633,0.5332 0.48633,1.69922 V 280.5 h -1.06055 v -4.01953 q 0,-0.9082 -0.29297,-1.26563 -0.29297,-0.35742 -1.01367,-0.35742 -0.76172,0 -1.20117,0.52149 -0.43946,0.52148 -0.43946,1.44726 z"
       id="text26"
       style="font-size:12px;font-family:Helvetica;text-anchor:middle;fill:#616161;fill-opacity:1"
       aria-label="Implementation" />
    <path
       d="m 225,347 h 20 v 70 h -13.63"
       fill="none"
       stroke="#666666"
       stroke-miterlimit="10"
       pointer-events="stroke"
       style="stroke:#616161;stroke-opacity:1"
       id="path29" />
    <path
       d="m 226.12,417 7,-3.5 -1.75,3.5 1.75,3.5 z"
       fill="#666666"
       stroke="#666666"
       stroke-miterlimit="10"
       pointer-events="all"
       style="fill:#616161;stroke:#616161;stroke-opacity:1;fill-opacity:1"
       id="path30" />
    <path
       id="rect31"
       style="fill:none;stroke:#616161;stroke-opacity:1"
       d="m 105,317 h 120 v 60 H 105 Z" />
    <path
       d="m 137.54395,350.61719 q -1.01368,0 -1.76954,-0.375 -0.75586,-0.375 -1.17187,-1.07227 -0.41602,-0.69726 -0.41602,-1.66992 v -5.25586 h 1.11914 v 5.16211 q 0,1.13086 0.57422,1.7168 0.57422,0.58593 1.65821,0.58593 1.11328,0 1.72851,-0.60351 0.6211,-0.60938 0.6211,-1.77539 v -5.08594 h 1.11328 v 5.15039 q 0,1.00195 -0.42774,1.72266 -0.42187,0.7207 -1.20117,1.11328 -0.77344,0.38672 -1.82812,0.38672 z m 6.26953,-3.79102 V 350.5 h -1.05469 v -4.98633 q 0,-0.55664 -0.0117,-0.89062 -0.006,-0.33985 -0.0234,-0.46289 h 0.9961 q 0.0117,0.11132 0.0176,0.28125 0.0117,0.16992 0.0176,0.375 0.006,0.20507 0.0117,0.42773 h 0.0176 q 0.36328,-0.65625 0.83789,-0.92578 0.48047,-0.27539 1.18945,-0.27539 1.04297,0 1.52344,0.5332 0.48633,0.5332 0.48633,1.69922 V 350.5 h -1.06055 v -4.01953 q 0,-0.9082 -0.29297,-1.26563 -0.29297,-0.35742 -1.01367,-0.35742 -0.76172,0 -1.20117,0.52149 -0.43945,0.52148 -0.43945,1.44726 z m 6.64453,-5.02148 v 1.00781 h -1.05469 v -1.00781 z m 0,2.35547 V 350.5 h -1.05469 v -6.33984 z m 4.05469,6.29296 q -0.51563,0.14063 -1.06641,0.14063 -0.63281,0 -0.94922,-0.35742 -0.31641,-0.36328 -0.31641,-1.07813 v -4.23047 h -0.73242 v -0.76757 h 0.77344 l 0.31055,-1.41797 h 0.70312 v 1.41797 h 1.17188 v 0.76757 h -1.17188 v 4.00196 q 0,0.45703 0.14649,0.64453 0.15234,0.18164 0.52148,0.18164 0.19922,0 0.60938,-0.082 z m 7.42382,-7.29492 V 350.5 h -1.11328 v -7.3418 h -2.83594 v -0.91406 h 6.78516 v 0.91406 z m 3.39844,4.39453 q 0,1.08985 0.45117,1.68164 0.45117,0.5918 1.31836,0.5918 0.68555,0 1.09571,-0.27539 0.41601,-0.27539 0.5625,-0.69726 l 0.92578,0.26367 q -0.56836,1.5 -2.58399,1.5 -1.40625,0 -2.14453,-0.83789 -0.73242,-0.83789 -0.73242,-2.49024 0,-1.57031 0.73242,-2.4082 0.73828,-0.83789 2.10352,-0.83789 1.40039,0 2.09765,0.84375 0.69727,0.84375 0.69727,2.52539 v 0.14062 z m 3.43359,-0.80859 q -0.0879,-1.00195 -0.50976,-1.45898 -0.42188,-0.46289 -1.21289,-0.46289 -0.76758,0 -1.21875,0.51562 -0.44531,0.50977 -0.48047,1.40625 z m 7.18946,2.00391 q 0,0.89648 -0.67969,1.38281 -0.67383,0.48633 -1.89258,0.48633 -1.18359,0 -1.82812,-0.38672 -0.63867,-0.39258 -0.83203,-1.21875 l 0.93164,-0.18164 q 0.13476,0.50976 0.55664,0.75 0.42187,0.23437 1.17187,0.23437 0.80274,0 1.17188,-0.24609 0.375,-0.24609 0.375,-0.73828 0,-0.375 -0.25782,-0.60938 -0.25781,-0.23437 -0.83203,-0.38672 -0.67968,-0.18164 -1.08398,-0.29882 -0.39844,-0.11719 -0.61524,-0.19922 -0.21679,-0.0879 -0.3457,-0.16407 -0.38672,-0.22265 -0.60351,-0.54492 -0.2168,-0.32226 -0.2168,-0.79101 0,-0.86719 0.61523,-1.31836 0.6211,-0.45703 1.80469,-0.45703 1.04883,0 1.66406,0.36914 0.6211,0.36914 0.78516,1.18359 l -0.94922,0.11719 q -0.0879,-0.42188 -0.47461,-0.64453 -0.38086,-0.22852 -1.02539,-0.22852 -0.71484,0 -1.05469,0.2168 -0.33984,0.2168 -0.33984,0.65625 0,0.32226 0.19336,0.5332 0.19336,0.20508 0.73828,0.33985 0.73242,0.17578 1.39453,0.38671 0.66211,0.20508 0.94922,0.41016 0.33398,0.24023 0.50391,0.56836 0.17578,0.32227 0.17578,0.7793 z m 3.67969,1.70507 q -0.51563,0.14063 -1.06641,0.14063 -0.63281,0 -0.94922,-0.35742 -0.31641,-0.36328 -0.31641,-1.07813 v -4.23047 h -0.73242 v -0.76757 h 0.77344 l 0.31055,-1.41797 h 0.70312 v 1.41797 h 1.17188 v 0.76757 h -1.17188 v 4.00196 q 0,0.45703 0.14649,0.64453 0.15234,0.18164 0.52148,0.18164 0.19922,0 0.60938,-0.082 z m 1.94531,-8.64843 v 1.00781 h -1.05469 v -1.00781 z m 0,2.35547 V 350.5 h -1.05469 v -6.33984 z m 2.69531,2.66601 V 350.5 h -1.05469 v -4.98633 q 0,-0.55664 -0.0117,-0.89062 -0.006,-0.33985 -0.0234,-0.46289 h 0.99609 q 0.0117,0.11132 0.0176,0.28125 0.0117,0.16992 0.0176,0.375 0.006,0.20507 0.0117,0.42773 h 0.0176 q 0.36328,-0.65625 0.83789,-0.92578 0.48047,-0.27539 1.18946,-0.27539 1.04297,0 1.52343,0.5332 0.48633,0.5332 0.48633,1.69922 V 350.5 h -1.06054 v -4.01953 q 0,-0.9082 -0.29297,-1.26563 -0.29297,-0.35742 -1.01367,-0.35742 -0.76172,0 -1.20118,0.52149 -0.43945,0.52148 -0.43945,1.44726 z m 7.99805,6.16406 q -1.03711,0 -1.65235,-0.41015 -0.61523,-0.4043 -0.79101,-1.1543 l 1.06054,-0.15234 q 0.10547,0.43945 0.4629,0.67383 0.36328,0.24023 0.94921,0.24023 0.78516,0 1.17774,-0.46289 0.39844,-0.46289 0.39844,-1.38281 v -1.01953 h -0.0117 q -0.29883,0.60937 -0.82032,0.91992 -0.52148,0.30468 -1.21875,0.30468 -1.16601,0 -1.71679,-0.77343 -0.54492,-0.77344 -0.54492,-2.43164 0,-1.68164 0.58593,-2.47852 0.5918,-0.80273 1.79297,-0.80273 0.67383,0 1.16602,0.31054 0.49804,0.30469 0.76758,0.87305 h 0.0117 q 0,-0.11719 0.0117,-0.36328 0.0117,-0.25195 0.0293,-0.47461 0.0176,-0.22266 0.0293,-0.24609 h 1.00195 q -0.0352,0.3164 -0.0352,1.3125 v 4.8457 q 0,1.33594 -0.66211,2.00391 -0.6621,0.66796 -1.99218,0.66796 z m 1.60547,-5.66015 q 0,-1.1543 -0.47461,-1.81641 -0.46875,-0.66797 -1.20118,-0.66797 -0.80859,0 -1.17773,0.58594 -0.36914,0.58594 -0.36914,1.89844 0,1.30078 0.3457,1.86914 0.34571,0.56836 1.1836,0.56836 0.75,0 1.21875,-0.65039 0.47461,-0.65625 0.47461,-1.78711 z"
       id="text32"
       style="font-size:12px;font-family:Helvetica;text-anchor:middle;fill:#616161;fill-opacity:1"
       aria-label="Unit Testing" />
    <path
       d="M 105,417 H 85 v 70 h 13.63"
       fill="none"
       stroke="#666666"
       stroke-miterlimit="10"
       pointer-events="stroke"
       style="stroke:#616161;stroke-opacity:1"
       id="path35" />
    <path
       d="m 103.88,487 -7,3.5 1.75,-3.5 -1.75,-3.5 z"
       fill="#666666"
       stroke="#666666"
       stroke-miterlimit="10"
       pointer-events="all"
       style="fill:#616161;stroke:#616161;stroke-opacity:1;fill-opacity:1"
       id="path36" />
    <path
       id="rect37"
       style="fill:none;stroke:#616161;stroke-opacity:1"
       d="m 105,387 h 120 v 60 H 105 Z" />
    <path
       d="M 117.80371,412.24414 V 420.5 h -1.11914 v -8.25586 z m 2.99414,4.58203 V 420.5 h -1.05469 v -4.98633 q 0,-0.55664 -0.0117,-0.89062 -0.006,-0.33985 -0.0234,-0.46289 h 0.99609 q 0.0117,0.11132 0.0176,0.28125 0.0117,0.16992 0.0176,0.375 0.006,0.20507 0.0117,0.42773 h 0.0176 q 0.36329,-0.65625 0.8379,-0.92578 0.48046,-0.27539 1.18945,-0.27539 1.04297,0 1.52344,0.5332 0.48632,0.5332 0.48632,1.69922 V 420.5 h -1.06054 v -4.01953 q 0,-0.9082 -0.29297,-1.26563 -0.29297,-0.35742 -1.01367,-0.35742 -0.76172,0 -1.20118,0.52149 -0.43945,0.52148 -0.43945,1.44726 z m 8.0332,3.62695 q -0.51562,0.14063 -1.0664,0.14063 -0.63281,0 -0.94922,-0.35742 -0.31641,-0.36328 -0.31641,-1.07813 v -4.23047 h -0.73242 v -0.76757 h 0.77344 l 0.31055,-1.41797 h 0.70312 v 1.41797 h 1.17188 v 0.76757 h -1.17188 v 4.00196 q 0,0.45703 0.14649,0.64453 0.15234,0.18164 0.52148,0.18164 0.19922,0 0.60937,-0.082 z m 1.70508,-2.90039 q 0,1.08985 0.45117,1.68164 0.45118,0.5918 1.31836,0.5918 0.68555,0 1.09571,-0.27539 0.41601,-0.27539 0.5625,-0.69726 l 0.92578,0.26367 q -0.56836,1.5 -2.58399,1.5 -1.40625,0 -2.14453,-0.83789 -0.73242,-0.83789 -0.73242,-2.49024 0,-1.57031 0.73242,-2.4082 0.73828,-0.83789 2.10352,-0.83789 1.40039,0 2.09765,0.84375 0.69727,0.84375 0.69727,2.52539 v 0.14062 z m 3.4336,-0.80859 q -0.0879,-1.00195 -0.50977,-1.45898 -0.42187,-0.46289 -1.21289,-0.46289 -0.76758,0 -1.21875,0.51562 -0.44531,0.50977 -0.48047,1.40625 z m 4.83398,6.24609 q -1.03711,0 -1.65234,-0.41015 -0.61524,-0.4043 -0.79102,-1.1543 l 1.06055,-0.15234 q 0.10547,0.43945 0.46289,0.67383 0.36328,0.24023 0.94922,0.24023 0.78515,0 1.17773,-0.46289 0.39844,-0.46289 0.39844,-1.38281 v -1.01953 h -0.0117 q -0.29883,0.60937 -0.82031,0.91992 -0.52149,0.30468 -1.21875,0.30468 -1.16602,0 -1.7168,-0.77343 -0.54492,-0.77344 -0.54492,-2.43164 0,-1.68164 0.58594,-2.47852 0.59179,-0.80273 1.79297,-0.80273 0.67382,0 1.16601,0.31054 0.49805,0.30469 0.76758,0.87305 h 0.0117 q 0,-0.11719 0.0117,-0.36328 0.0117,-0.25195 0.0293,-0.47461 0.0176,-0.22266 0.0293,-0.24609 h 1.00195 q -0.0351,0.3164 -0.0351,1.3125 v 4.8457 q 0,1.33594 -0.66211,2.00391 -0.66211,0.66796 -1.99219,0.66796 z m 1.60547,-5.66015 q 0,-1.1543 -0.47461,-1.81641 -0.46875,-0.66797 -1.20117,-0.66797 -0.8086,0 -1.17774,0.58594 -0.36914,0.58594 -0.36914,1.89844 0,1.30078 0.34571,1.86914 0.3457,0.56836 1.18359,0.56836 0.75,0 1.21875,-0.65039 0.47461,-0.65625 0.47461,-1.78711 z m 3.74414,-0.13477 V 420.5 h -1.05469 v -4.86328 q 0,-0.33399 -0.0117,-0.70313 -0.006,-0.36914 -0.0234,-0.77343 h 0.99609 q 0.0117,0.26953 0.0176,0.48632 0.0117,0.2168 0.0176,0.38086 0.006,0.15821 0.006,0.26953 0.006,0.10547 0.006,0.15821 h 0.0234 q 0.17578,-0.57422 0.38672,-0.89063 0.20508,-0.29297 0.46875,-0.40429 0.26367,-0.11719 0.65039,-0.11719 0.2168,0 0.42774,0.0586 v 0.9668 q -0.19922,-0.0586 -0.5625,-0.0586 -0.65625,0 -1.00196,0.56835 -0.3457,0.5625 -0.3457,1.61719 z m 4.53516,3.42188 q -0.95508,0 -1.43555,-0.50391 -0.48047,-0.50391 -0.48047,-1.38281 0,-0.98438 0.64453,-1.51172 0.65039,-0.52734 2.0918,-0.5625 l 1.42383,-0.0234 v -0.3457 q 0,-0.77344 -0.32813,-1.10742 -0.32812,-0.33399 -1.03125,-0.33399 -0.70898,0 -1.03125,0.24024 -0.32226,0.24023 -0.38672,0.76758 l -1.10156,-0.0996 q 0.26953,-1.71094 2.54297,-1.71094 1.19531,0 1.79883,0.55078 0.60351,0.54492 0.60351,1.58203 v 2.73047 q 0,0.46875 0.12305,0.70898 0.12305,0.23438 0.46875,0.23438 0.16406,0 0.3457,-0.041 v 0.65625 q -0.19922,0.0469 -0.40429,0.0703 -0.20508,0.0234 -0.41016,0.0234 -0.58594,0 -0.85547,-0.30468 -0.26367,-0.31055 -0.29883,-0.9668 h -0.0352 q -0.4043,0.72656 -0.94336,1.03125 -0.53321,0.29883 -1.30078,0.29883 z m 2.24414,-3.2461 -1.1543,0.0234 q -0.73828,0.006 -1.125,0.15234 -0.38672,0.14063 -0.5918,0.4336 -0.20507,0.29297 -0.20507,0.76758 0,0.51562 0.27539,0.79687 0.28125,0.28125 0.79687,0.28125 0.58594,0 1.03125,-0.26367 0.45117,-0.26367 0.70899,-0.7207 0.26367,-0.46289 0.26367,-0.94922 z m 5.25,3.08203 q -0.51563,0.14063 -1.06641,0.14063 -0.63281,0 -0.94922,-0.35742 -0.3164,-0.36328 -0.3164,-1.07813 v -4.23047 h -0.73243 v -0.76757 h 0.77344 l 0.31055,-1.41797 h 0.70312 v 1.41797 h 1.17188 v 0.76757 h -1.17188 v 4.00196 q 0,0.45703 0.14649,0.64453 0.15234,0.18164 0.52148,0.18164 0.19922,0 0.60938,-0.082 z m 1.94531,-8.64843 v 1.00781 h -1.05469 v -1.00781 z m 0,2.35547 V 420.5 h -1.05469 v -6.33984 z m 6.97852,3.16406 q 0,1.66406 -0.73243,2.47851 -0.73242,0.81446 -2.12695,0.81446 -1.38867,0 -2.09766,-0.84375 -0.70898,-0.84961 -0.70898,-2.44922 0,-1.64063 0.70898,-2.46094 0.71485,-0.82031 2.13282,-0.82031 1.45312,0 2.13867,0.80273 0.68555,0.79688 0.68555,2.47852 z m -1.10743,0 q 0,-1.3125 -0.39257,-1.9043 -0.38672,-0.59765 -1.30665,-0.59765 -0.92578,0 -1.34179,0.60937 -0.41016,0.60352 -0.41016,1.89258 0,1.2539 0.4043,1.88672 0.41015,0.62695 1.2832,0.62695 0.94922,0 1.35352,-0.60937 0.41015,-0.60938 0.41015,-1.9043 z m 3.49805,-0.49805 V 420.5 h -1.05469 v -4.98633 q 0,-0.55664 -0.0117,-0.89062 -0.006,-0.33985 -0.0234,-0.46289 h 0.99609 q 0.0117,0.11132 0.0176,0.28125 0.0117,0.16992 0.0176,0.375 0.006,0.20507 0.0117,0.42773 h 0.0176 q 0.36328,-0.65625 0.83789,-0.92578 0.48047,-0.27539 1.18946,-0.27539 1.04297,0 1.52343,0.5332 0.48633,0.5332 0.48633,1.69922 V 420.5 h -1.06054 v -4.01953 q 0,-0.9082 -0.29297,-1.26563 -0.29297,-0.35742 -1.01367,-0.35742 -0.76172,0 -1.20118,0.52149 -0.43945,0.52148 -0.43945,1.44726 z m 12.12305,-3.66797 V 420.5 h -1.11328 v -7.3418 h -2.83594 v -0.91406 h 6.78515 v 0.91406 z m 3.39843,4.39453 q 0,1.08985 0.45118,1.68164 0.45117,0.5918 1.31836,0.5918 0.68554,0 1.0957,-0.27539 0.41601,-0.27539 0.5625,-0.69726 l 0.92578,0.26367 q -0.56836,1.5 -2.58398,1.5 -1.40625,0 -2.14454,-0.83789 -0.73242,-0.83789 -0.73242,-2.49024 0,-1.57031 0.73242,-2.4082 0.73829,-0.83789 2.10352,-0.83789 1.40039,0 2.09766,0.84375 0.69726,0.84375 0.69726,2.52539 v 0.14062 z m 3.4336,-0.80859 q -0.0879,-1.00195 -0.50977,-1.45898 -0.42187,-0.46289 -1.21289,-0.46289 -0.76758,0 -1.21875,0.51562 -0.44531,0.50977 -0.48047,1.40625 z m 7.18945,2.00391 q 0,0.89648 -0.67969,1.38281 -0.67382,0.48633 -1.89257,0.48633 -1.1836,0 -1.82813,-0.38672 -0.63867,-0.39258 -0.83203,-1.21875 l 0.93164,-0.18164 q 0.13477,0.50976 0.55664,0.75 0.42188,0.23437 1.17188,0.23437 0.80273,0 1.17187,-0.24609 0.375,-0.24609 0.375,-0.73828 0,-0.375 -0.25781,-0.60938 -0.25781,-0.23437 -0.83203,-0.38672 -0.67969,-0.18164 -1.08399,-0.29882 -0.39843,-0.11719 -0.61523,-0.19922 -0.2168,-0.0879 -0.3457,-0.16407 -0.38672,-0.22265 -0.60352,-0.54492 -0.2168,-0.32226 -0.2168,-0.79101 0,-0.86719 0.61524,-1.31836 0.62109,-0.45703 1.80468,-0.45703 1.04883,0 1.66407,0.36914 0.62109,0.36914 0.78515,1.18359 l -0.94922,0.11719 q -0.0879,-0.42188 -0.4746,-0.64453 -0.38086,-0.22852 -1.0254,-0.22852 -0.71484,0 -1.05468,0.2168 -0.33985,0.2168 -0.33985,0.65625 0,0.32226 0.19336,0.5332 0.19336,0.20508 0.73828,0.33985 0.73243,0.17578 1.39454,0.38671 0.6621,0.20508 0.94921,0.41016 0.33399,0.24023 0.50391,0.56836 0.17578,0.32227 0.17578,0.7793 z m 3.67969,1.70507 q -0.51563,0.14063 -1.06641,0.14063 -0.63281,0 -0.94922,-0.35742 -0.3164,-0.36328 -0.3164,-1.07813 v -4.23047 h -0.73242 v -0.76757 h 0.77343 l 0.31055,-1.41797 h 0.70313 v 1.41797 h 1.17187 v 0.76757 h -1.17187 v 4.00196 q 0,0.45703 0.14648,0.64453 0.15234,0.18164 0.52148,0.18164 0.19922,0 0.60938,-0.082 z m 1.94531,-8.64843 v 1.00781 h -1.05469 v -1.00781 z m 0,2.35547 V 420.5 h -1.05469 v -6.33984 z m 2.69531,2.66601 V 420.5 h -1.05468 v -4.98633 q 0,-0.55664 -0.0117,-0.89062 -0.006,-0.33985 -0.0234,-0.46289 h 0.99609 q 0.0117,0.11132 0.0176,0.28125 0.0117,0.16992 0.0176,0.375 0.006,0.20507 0.0117,0.42773 h 0.0176 q 0.36328,-0.65625 0.83789,-0.92578 0.48047,-0.27539 1.18945,-0.27539 1.04297,0 1.52344,0.5332 0.48633,0.5332 0.48633,1.69922 V 420.5 h -1.06055 v -4.01953 q 0,-0.9082 -0.29297,-1.26563 -0.29297,-0.35742 -1.01367,-0.35742 -0.76172,0 -1.20117,0.52149 -0.43946,0.52148 -0.43946,1.44726 z m 7.99805,6.16406 q -1.03711,0 -1.65234,-0.41015 -0.61524,-0.4043 -0.79102,-1.1543 l 1.06055,-0.15234 q 0.10547,0.43945 0.46289,0.67383 0.36328,0.24023 0.94922,0.24023 0.78515,0 1.17773,-0.46289 0.39844,-0.46289 0.39844,-1.38281 v -1.01953 h -0.0117 q -0.29883,0.60937 -0.82031,0.91992 -0.52149,0.30468 -1.21875,0.30468 -1.16602,0 -1.7168,-0.77343 -0.54492,-0.77344 -0.54492,-2.43164 0,-1.68164 0.58594,-2.47852 0.59179,-0.80273 1.79297,-0.80273 0.67382,0 1.16601,0.31054 0.49805,0.30469 0.76758,0.87305 h 0.0117 q 0,-0.11719 0.0117,-0.36328 0.0117,-0.25195 0.0293,-0.47461 0.0176,-0.22266 0.0293,-0.24609 h 1.00195 q -0.0351,0.3164 -0.0351,1.3125 v 4.8457 q 0,1.33594 -0.66211,2.00391 -0.66211,0.66796 -1.99219,0.66796 z m 1.60547,-5.66015 q 0,-1.1543 -0.47461,-1.81641 -0.46875,-0.66797 -1.20117,-0.66797 -0.8086,0 -1.17774,0.58594 -0.36914,0.58594 -0.36914,1.89844 0,1.30078 0.34571,1.86914 0.3457,0.56836 1.18359,0.56836 0.75,0 1.21875,-0.65039 0.47461,-0.65625 0.47461,-1.78711 z"
       id="text38"
       style="font-size:12px;font-family:Helvetica;text-anchor:middle;fill:#616161;fill-opacity:1"
       aria-label="Integration Testing" />
    <path
       id="rect41"
       style="fill:none;stroke:#616161;stroke-opacity:1"
       d="m 105,457 h 120 v 60 H 105 Z" />
    <path
       d="M 114.70996,488.08594 113.76074,490.5 h -1.16015 l 3.36914,-8.25586 h 1.27148 l 3.31641,8.25586 h -1.14258 l -0.94336,-2.41406 z m 1.88086,-4.99805 q -0.0996,0.32813 -0.24023,0.73242 -0.13477,0.39844 -0.25196,0.70313 l -1.04883,2.68945 h 3.0879 l -1.06055,-2.72461 q -0.082,-0.20508 -0.2168,-0.58008 -0.13476,-0.375 -0.26953,-0.82031 z m 7.23047,7.5293 q -1.33008,0 -2.0332,-0.83789 -0.69727,-0.84375 -0.69727,-2.45508 0,-1.59961 0.70313,-2.4375 0.70312,-0.84375 2.01562,-0.84375 0.97266,0 1.61133,0.5039 0.64453,0.50391 0.80859,1.38868 l -1.08398,0.082 q -0.082,-0.52735 -0.41602,-0.83789 -0.33398,-0.31055 -0.94922,-0.31055 -0.83789,0 -1.21289,0.55664 -0.375,0.55664 -0.375,1.875 0,1.26563 0.39844,1.875 0.39844,0.60938 1.20117,0.60938 0.5625,0 0.9375,-0.30469 0.38086,-0.30469 0.46875,-0.9375 l 1.06641,0.0703 q -0.082,0.60938 -0.41016,1.06055 -0.32226,0.45117 -0.84375,0.69726 -0.51562,0.2461 -1.18945,0.2461 z m 6,0 q -1.33008,0 -2.0332,-0.83789 -0.69727,-0.84375 -0.69727,-2.45508 0,-1.59961 0.70313,-2.4375 0.70312,-0.84375 2.01562,-0.84375 0.97266,0 1.61133,0.5039 0.64453,0.50391 0.80859,1.38868 l -1.08398,0.082 q -0.082,-0.52735 -0.41602,-0.83789 -0.33398,-0.31055 -0.94922,-0.31055 -0.83789,0 -1.21289,0.55664 -0.375,0.55664 -0.375,1.875 0,1.26563 0.39844,1.875 0.39844,0.60938 1.20117,0.60938 0.5625,0 0.9375,-0.30469 0.38086,-0.30469 0.46875,-0.9375 l 1.06641,0.0703 q -0.082,0.60938 -0.41016,1.06055 -0.32226,0.45117 -0.84375,0.69726 -0.51562,0.2461 -1.18945,0.2461 z m 4.37695,-3.06446 q 0,1.08985 0.45117,1.68164 0.45118,0.5918 1.31836,0.5918 0.68555,0 1.09571,-0.27539 0.41601,-0.27539 0.5625,-0.69726 l 0.92578,0.26367 q -0.56836,1.5 -2.58399,1.5 -1.40625,0 -2.14453,-0.83789 -0.73242,-0.83789 -0.73242,-2.49024 0,-1.57031 0.73242,-2.4082 0.73828,-0.83789 2.10352,-0.83789 1.40039,0 2.09765,0.84375 0.69727,0.84375 0.69727,2.52539 v 0.14062 z m 3.4336,-0.80859 q -0.0879,-1.00195 -0.50977,-1.45898 -0.42187,-0.46289 -1.21289,-0.46289 -0.76758,0 -1.21875,0.51562 -0.44531,0.50977 -0.48047,1.40625 z m 7.79296,0.55664 q 0,1.6582 -0.58593,2.49024 -0.58008,0.82617 -1.7461,0.82617 -1.46484,0 -1.96875,-1.10157 h -0.0293 q 0.0234,0.041 0.0234,0.9961 v 2.47851 h -1.05468 v -7.53515 q 0,-0.48633 -0.0117,-0.8086 -0.006,-0.32812 -0.0234,-0.48632 h 1.01953 q 0.006,0.0234 0.0176,0.22851 0.0176,0.20508 0.0293,0.44531 0.0117,0.23438 0.0117,0.34571 h 0.0234 q 0.28125,-0.58594 0.74414,-0.85547 0.46289,-0.27539 1.21875,-0.27539 1.17188,0 1.75196,0.78515 0.58007,0.78516 0.58007,2.4668 z m -1.10742,0.0234 q 0,-1.32422 -0.35742,-1.89258 -0.35742,-0.56836 -1.13672,-0.56836 -0.86719,0 -1.28906,0.60352 -0.41602,0.59765 -0.41602,1.93945 0,1.24805 0.39844,1.83984 0.39844,0.5918 1.29492,0.5918 0.78516,0 1.14258,-0.57422 0.36328,-0.58008 0.36328,-1.93945 z m 4.85742,3.1289 q -0.51562,0.14063 -1.0664,0.14063 -0.63281,0 -0.94922,-0.35742 -0.31641,-0.36328 -0.31641,-1.07813 v -4.23047 h -0.73242 v -0.76757 h 0.77344 l 0.31055,-1.41797 h 0.70312 v 1.41797 h 1.17188 v 0.76757 h -1.17188 v 4.00196 q 0,0.45703 0.14649,0.64453 0.15234,0.18164 0.52148,0.18164 0.19922,0 0.60937,-0.082 z m 2.51368,0.16407 q -0.95508,0 -1.43555,-0.50391 -0.48047,-0.50391 -0.48047,-1.38281 0,-0.98438 0.64453,-1.51172 0.65039,-0.52734 2.0918,-0.5625 l 1.42383,-0.0234 v -0.3457 q 0,-0.77344 -0.32813,-1.10742 -0.32812,-0.33399 -1.03125,-0.33399 -0.70898,0 -1.03125,0.24024 -0.32226,0.24023 -0.38672,0.76758 l -1.10156,-0.0996 q 0.26953,-1.71094 2.54297,-1.71094 1.19531,0 1.79883,0.55078 0.60351,0.54492 0.60351,1.58203 v 2.73047 q 0,0.46875 0.12305,0.70898 0.12305,0.23438 0.46875,0.23438 0.16406,0 0.3457,-0.041 v 0.65625 q -0.19922,0.0469 -0.40429,0.0703 -0.20508,0.0234 -0.41016,0.0234 -0.58594,0 -0.85547,-0.30468 -0.26367,-0.31055 -0.29883,-0.9668 h -0.0352 q -0.4043,0.72656 -0.94336,1.03125 -0.53321,0.29883 -1.30078,0.29883 z m 2.24414,-3.2461 -1.1543,0.0234 q -0.73828,0.006 -1.125,0.15234 -0.38672,0.14063 -0.5918,0.4336 -0.20507,0.29297 -0.20507,0.76758 0,0.51562 0.27539,0.79687 0.28125,0.28125 0.79687,0.28125 0.58594,0 1.03125,-0.26367 0.45117,-0.26367 0.70899,-0.7207 0.26367,-0.46289 0.26367,-0.94922 z m 3.89062,-0.54492 V 490.5 h -1.05469 v -4.98633 q 0,-0.55664 -0.0117,-0.89062 -0.006,-0.33985 -0.0234,-0.46289 h 0.99609 q 0.0117,0.11132 0.0176,0.28125 0.0117,0.16992 0.0176,0.375 0.006,0.20507 0.0117,0.42773 h 0.0176 q 0.36328,-0.65625 0.83789,-0.92578 0.48046,-0.27539 1.18945,-0.27539 1.04297,0 1.52344,0.5332 0.48632,0.5332 0.48632,1.69922 V 490.5 h -1.06054 v -4.01953 q 0,-0.9082 -0.29297,-1.26563 -0.29297,-0.35742 -1.01367,-0.35742 -0.76172,0 -1.20117,0.52149 -0.43946,0.52148 -0.43946,1.44726 z m 8.02735,3.79102 q -1.33008,0 -2.03321,-0.83789 -0.69726,-0.84375 -0.69726,-2.45508 0,-1.59961 0.70312,-2.4375 0.70313,-0.84375 2.01563,-0.84375 0.97265,0 1.61133,0.5039 0.64453,0.50391 0.80859,1.38868 l -1.08399,0.082 q -0.082,-0.52735 -0.41601,-0.83789 -0.33399,-0.31055 -0.94922,-0.31055 -0.83789,0 -1.21289,0.55664 -0.375,0.55664 -0.375,1.875 0,1.26563 0.39844,1.875 0.39843,0.60938 1.20117,0.60938 0.5625,0 0.9375,-0.30469 0.38086,-0.30469 0.46875,-0.9375 l 1.06641,0.0703 q -0.082,0.60938 -0.41016,1.06055 -0.32227,0.45117 -0.84375,0.69726 -0.51563,0.2461 -1.18945,0.2461 z m 4.37695,-3.06446 q 0,1.08985 0.45117,1.68164 0.45117,0.5918 1.31836,0.5918 0.68555,0 1.0957,-0.27539 0.41602,-0.27539 0.5625,-0.69726 l 0.92578,0.26367 q -0.56835,1.5 -2.58398,1.5 -1.40625,0 -2.14453,-0.83789 -0.73242,-0.83789 -0.73242,-2.49024 0,-1.57031 0.73242,-2.4082 0.73828,-0.83789 2.10351,-0.83789 1.4004,0 2.09766,0.84375 0.69727,0.84375 0.69727,2.52539 v 0.14062 z m 3.43359,-0.80859 q -0.0879,-1.00195 -0.50976,-1.45898 -0.42188,-0.46289 -1.21289,-0.46289 -0.76758,0 -1.21875,0.51562 -0.44532,0.50977 -0.48047,1.40625 z m 8.95899,-3.58594 V 490.5 h -1.11328 v -7.3418 h -2.83594 v -0.91406 h 6.78515 v 0.91406 z m 3.39843,4.39453 q 0,1.08985 0.45118,1.68164 0.45117,0.5918 1.31836,0.5918 0.68554,0 1.0957,-0.27539 0.41601,-0.27539 0.5625,-0.69726 l 0.92578,0.26367 q -0.56836,1.5 -2.58398,1.5 -1.40625,0 -2.14454,-0.83789 -0.73242,-0.83789 -0.73242,-2.49024 0,-1.57031 0.73242,-2.4082 0.73829,-0.83789 2.10352,-0.83789 1.40039,0 2.09766,0.84375 0.69726,0.84375 0.69726,2.52539 v 0.14062 z m 3.4336,-0.80859 q -0.0879,-1.00195 -0.50977,-1.45898 -0.42187,-0.46289 -1.21289,-0.46289 -0.76758,0 -1.21875,0.51562 -0.44531,0.50977 -0.48047,1.40625 z m 7.18945,2.00391 q 0,0.89648 -0.67969,1.38281 -0.67382,0.48633 -1.89257,0.48633 -1.1836,0 -1.82813,-0.38672 -0.63867,-0.39258 -0.83203,-1.21875 l 0.93164,-0.18164 q 0.13477,0.50976 0.55664,0.75 0.42188,0.23437 1.17188,0.23437 0.80273,0 1.17187,-0.24609 0.375,-0.24609 0.375,-0.73828 0,-0.375 -0.25781,-0.60938 -0.25781,-0.23437 -0.83203,-0.38672 -0.67969,-0.18164 -1.08399,-0.29882 -0.39843,-0.11719 -0.61523,-0.19922 -0.2168,-0.0879 -0.3457,-0.16407 -0.38672,-0.22265 -0.60352,-0.54492 -0.2168,-0.32226 -0.2168,-0.79101 0,-0.86719 0.61524,-1.31836 0.62109,-0.45703 1.80468,-0.45703 1.04883,0 1.66407,0.36914 0.62109,0.36914 0.78515,1.18359 l -0.94922,0.11719 q -0.0879,-0.42188 -0.4746,-0.64453 -0.38086,-0.22852 -1.0254,-0.22852 -0.71484,0 -1.05468,0.2168 -0.33985,0.2168 -0.33985,0.65625 0,0.32226 0.19336,0.5332 0.19336,0.20508 0.73828,0.33985 0.73243,0.17578 1.39454,0.38671 0.6621,0.20508 0.94921,0.41016 0.33399,0.24023 0.50391,0.56836 0.17578,0.32227 0.17578,0.7793 z m 3.67969,1.70507 q -0.51563,0.14063 -1.06641,0.14063 -0.63281,0 -0.94922,-0.35742 -0.3164,-0.36328 -0.3164,-1.07813 v -4.23047 h -0.73242 v -0.76757 h 0.77343 l 0.31055,-1.41797 h 0.70313 v 1.41797 h 1.17187 v 0.76757 h -1.17187 v 4.00196 q 0,0.45703 0.14648,0.64453 0.15234,0.18164 0.52148,0.18164 0.19922,0 0.60938,-0.082 z m 1.94531,-8.64843 v 1.00781 h -1.05469 v -1.00781 z m 0,2.35547 V 490.5 h -1.05469 v -6.33984 z m 2.69531,2.66601 V 490.5 h -1.05468 v -4.98633 q 0,-0.55664 -0.0117,-0.89062 -0.006,-0.33985 -0.0234,-0.46289 h 0.99609 q 0.0117,0.11132 0.0176,0.28125 0.0117,0.16992 0.0176,0.375 0.006,0.20507 0.0117,0.42773 h 0.0176 q 0.36328,-0.65625 0.83789,-0.92578 0.48047,-0.27539 1.18945,-0.27539 1.04297,0 1.52344,0.5332 0.48633,0.5332 0.48633,1.69922 V 490.5 h -1.06055 v -4.01953 q 0,-0.9082 -0.29297,-1.26563 -0.29297,-0.35742 -1.01367,-0.35742 -0.76172,0 -1.20117,0.52149 -0.43946,0.52148 -0.43946,1.44726 z m 7.99805,6.16406 q -1.03711,0 -1.65234,-0.41015 -0.61524,-0.4043 -0.79102,-1.1543 l 1.06055,-0.15234 q 0.10547,0.43945 0.46289,0.67383 0.36328,0.24023 0.94922,0.24023 0.78515,0 1.17773,-0.46289 0.39844,-0.46289 0.39844,-1.38281 v -1.01953 h -0.0117 q -0.29883,0.60937 -0.82031,0.91992 -0.52149,0.30468 -1.21875,0.30468 -1.16602,0 -1.7168,-0.77343 -0.54492,-0.77344 -0.54492,-2.43164 0,-1.68164 0.58594,-2.47852 0.59179,-0.80273 1.79297,-0.80273 0.67382,0 1.16601,0.31054 0.49805,0.30469 0.76758,0.87305 h 0.0117 q 0,-0.11719 0.0117,-0.36328 0.0117,-0.25195 0.0293,-0.47461 0.0176,-0.22266 0.0293,-0.24609 h 1.00195 q -0.0351,0.3164 -0.0351,1.3125 v 4.8457 q 0,1.33594 -0.66211,2.00391 -0.66211,0.66796 -1.99219,0.66796 z m 1.60547,-5.66015 q 0,-1.1543 -0.47461,-1.81641 -0.46875,-0.66797 -1.20117,-0.66797 -0.8086,0 -1.17774,0.58594 -0.36914,0.58594 -0.36914,1.89844 0,1.30078 0.34571,1.86914 0.3457,0.56836 1.18359,0.56836 0.75,0 1.21875,-0.65039 0.47461,-0.65625 0.47461,-1.78711 z"
       id="text42"
       style="font-size:12px;font-family:Helvetica;text-anchor:middle;fill:#616161;fill-opacity:1"
       aria-label="Acceptance Testing" />
    <path
       d="m 160,517.5 h 10 V 570 H 8 V 117 h 61.12 v -8.96 L 103.29425,122 69.12,135.96 V 127 H 18 v 433 h 142 z"
       fill="#f5f5f5"
       stroke="#666666"
       stroke-miterlimit="1.42"
       pointer-events="all"
       style="fill:#616161;fill-opacity:1;stroke:none;stroke-opacity:1"
       id="path45"
       sodipodi:nodetypes="cccccccccccccc" />
    <path
       d="m 71.211525,218.76649 v -10.5087 L 103.29425,223 71.211525,237.74221 v -10.5087 H 51.564266 v 10.5087 L 19.48154,223 51.564266,208.25779 v 10.5087 z"
       fill="#f5f5f5"
       stroke="#666666"
       stroke-miterlimit="10"
       pointer-events="all"
       style="fill:#616161;fill-opacity:1;stroke:none;stroke-width:0.98761;stroke-opacity:1"
       id="path47" />
    <path
       d="M 71.231962,258.76653 V 248.25792 L 103.32741,263 71.231962,277.74208 V 267.23347 H 51.576914 v 10.50861 L 19.48147,263 51.576914,248.25792 v 10.50861 z"
       fill="#f5f5f5"
       stroke="#666666"
       stroke-miterlimit="10"
       pointer-events="all"
       style="fill:#616161;fill-opacity:1;stroke:none;stroke-width:0.987801;stroke-opacity:1"
       id="path49" />
    <path
       d="m 71.218591,362.77 v -10.5 L 103.29425,367 71.218591,381.73 v -10.5 H 51.575659 v 10.5 L 19.5,367 51.575659,352.27 v 10.5 z"
       fill="#f5f5f5"
       stroke="#666666"
       stroke-miterlimit="10"
       pointer-events="all"
       style="fill:#616161;fill-opacity:1;stroke:none;stroke-width:0.987093;stroke-opacity:1"
       id="path51" />
    <path
       d="m 71.218591,400.77 v -10.5 L 103.29425,405 71.218591,419.73 v -10.5 H 51.575659 v 10.5 L 19.5,405 51.575659,390.27 v 10.5 z"
       fill="#f5f5f5"
       stroke="#666666"
       stroke-miterlimit="10"
       pointer-events="all"
       style="fill:#616161;fill-opacity:1;stroke:none;stroke-width:0.987093;stroke-opacity:1"
       id="path53" />
  </g>
</svg>
