<?xml version="1.0" encoding="UTF-8" standalone="no"?>
<svg
   version="1.1"
   viewBox="-0.5 -0.5 601 481"
   id="svg44"
   sodipodi:docname="waterfall_process.drawio.svg"
   inkscape:version="1.4.2 (ebf0e940d0, 2025-05-08)"
   xmlns:inkscape="http://www.inkscape.org/namespaces/inkscape"
   xmlns:sodipodi="http://sodipodi.sourceforge.net/DTD/sodipodi-0.dtd"
   xmlns="http://www.w3.org/2000/svg"
   xmlns:svg="http://www.w3.org/2000/svg">
  <sodipodi:namedview
     id="namedview44"
     bordercolor="#000000"
     borderopacity="0.25"
     inkscape:showpageshadow="2"
     inkscape:pageopacity="0.0"
     inkscape:pagecheckerboard="0"
     inkscape:deskcolor="#d1d1d1"
     inkscape:zoom="3.2745424"
     inkscape:cx="353.94258"
     inkscape:cy="304.47002"
     inkscape:window-width="3818"
     inkscape:window-height="2074"
     inkscape:window-x="0"
     inkscape:window-y="0"
     inkscape:window-maximized="1"
     inkscape:current-layer="svg44" />
  <defs
     id="defs1" />
  <path
     d="m 120,30 h 20 v 33.63"
     fill="none"
     stroke="#000000"
     stroke-miterlimit="10"
     pointer-events="stroke"
     style="stroke:#616161;stroke-opacity:1"
     id="path1" />
  <path
     d="m 140,68.88 -3.5,-7 3.5,1.75 3.5,-1.75 z"
     fill="#000000"
     stroke="#000000"
     stroke-miterlimit="10"
     pointer-events="all"
     style="fill:#616161;stroke:#616161;stroke-opacity:1;fill-opacity:1"
     id="path2" />
  <path
     id="rect3"
     style="fill:none;stroke:#616161;stroke-opacity:1"
     d="M 0,0 H 120 V 60 H 0 Z" />
  <path
     d="M 24.25293,30.072266 V 33.5 h -1.119141 v -8.255859 h 3.884766 q 1.394531,0 2.15039,0.626953 0.761719,0.621093 0.761719,1.734375 0,0.919922 -0.539062,1.546875 -0.533204,0.626953 -1.476563,0.791015 L 30.258789,33.5 h -1.289062 l -2.144532,-3.427734 z m 4.552734,-2.455079 q 0,-0.720703 -0.492187,-1.095703 -0.486329,-0.380859 -1.40625,-0.380859 H 24.25293 V 29.1875 h 2.701172 q 0.884765,0 1.365234,-0.410156 0.486328,-0.416016 0.486328,-1.160157 z m 3.626953,2.935547 q 0,1.089844 0.451172,1.681641 0.451172,0.591797 1.318359,0.591797 0.685547,0 1.095704,-0.275391 0.416015,-0.27539 0.5625,-0.697265 l 0.925781,0.263671 q -0.56836,1.5 -2.583985,1.5 -1.40625,0 -2.144531,-0.83789 -0.732422,-0.837891 -0.732422,-2.490235 0,-1.570312 0.732422,-2.408203 0.738281,-0.83789 2.103516,-0.83789 1.40039,0 2.097656,0.84375 0.697266,0.84375 0.697266,2.52539 v 0.140625 z m 3.433594,-0.808593 q -0.08789,-1.001954 -0.509766,-1.458985 -0.421875,-0.46289 -1.21289,-0.46289 -0.767578,0 -1.21875,0.515625 -0.445313,0.509765 -0.480469,1.40625 z m 2.126953,0.615234 q 0,-1.658203 0.580078,-2.484375 0.585938,-0.832031 1.751953,-0.832031 0.720703,0 1.195313,0.257812 0.474609,0.251953 0.791015,0.84375 0,-0.117187 0.01172,-0.363281 0.01172,-0.251953 0.0293,-0.46875 0.01758,-0.216797 0.0293,-0.234375 h 1.013672 q -0.02344,0.169922 -0.03516,0.603516 -0.0059,0.433593 -0.0059,1.125 v 7.183593 h -1.054687 v -2.572265 l 0.02344,-0.960938 h -0.01172 q -0.316406,0.626953 -0.779296,0.896485 -0.462891,0.263671 -1.207032,0.263671 -1.207031,0 -1.769531,-0.814453 -0.5625,-0.814453 -0.5625,-2.443359 z m 4.306641,-0.105469 q 0,-1.236328 -0.404297,-1.833984 -0.404297,-0.597656 -1.289063,-0.597656 -0.802734,0 -1.154297,0.597656 -0.351562,0.597656 -0.351562,1.904297 0,1.330078 0.351562,1.904297 0.357422,0.574218 1.142579,0.574218 0.896484,0 1.300781,-0.638672 0.404297,-0.638671 0.404297,-1.910156 z m 6.679687,2.16211 q -0.363281,0.65625 -0.84375,0.93164 -0.474609,0.269531 -1.183594,0.269531 -1.042968,0 -1.529296,-0.515625 -0.480469,-0.521484 -0.480469,-1.716796 v -4.22461 h 1.060547 v 4.019531 q 0,0.949219 0.292968,1.289063 0.298829,0.333984 1.013672,0.333984 0.761719,0 1.201172,-0.521484 0.439453,-0.521484 0.439453,-1.447266 v -3.673828 h 1.054688 v 4.986328 q 0,0.550782 0.0059,0.890625 0.01172,0.339844 0.0293,0.462891 h -0.996094 q -0.0059,-0.0293 -0.02344,-0.275391 -0.01172,-0.246093 -0.02344,-0.808593 z m 3.714844,-7.611329 V 25.8125 h -1.054688 v -1.007813 z m 0,2.355469 V 33.5 h -1.054688 v -6.339844 z m 2.695312,3.035156 V 33.5 h -1.054687 v -4.863281 q 0,-0.333985 -0.01172,-0.703125 -0.0059,-0.369141 -0.02344,-0.773438 h 0.996093 q 0.01172,0.269531 0.01758,0.486328 0.01172,0.216797 0.01758,0.38086 0.0059,0.158203 0.0059,0.269531 0.0059,0.105469 0.0059,0.158203 h 0.02344 q 0.175781,-0.574219 0.386719,-0.890625 0.205078,-0.292969 0.46875,-0.404297 0.263672,-0.117187 0.65039,-0.117187 0.216797,0 0.427735,0.05859 v 0.966797 q -0.199219,-0.05859 -0.5625,-0.05859 -0.65625,0 -1.001953,0.568359 -0.345704,0.5625 -0.345704,1.617187 z m 3.726563,0.357422 q 0,1.089844 0.451172,1.681641 0.451172,0.591797 1.318359,0.591797 0.685547,0 1.095703,-0.275391 0.416016,-0.27539 0.5625,-0.697265 l 0.925782,0.263671 q -0.56836,1.5 -2.583985,1.5 -1.40625,0 -2.144531,-0.83789 -0.732422,-0.837891 -0.732422,-2.490235 0,-1.570312 0.732422,-2.408203 0.738281,-0.83789 2.103516,-0.83789 1.40039,0 2.097656,0.84375 0.697265,0.84375 0.697265,2.52539 v 0.140625 z m 3.433594,-0.808593 q -0.08789,-1.001954 -0.509766,-1.458985 -0.421875,-0.46289 -1.212891,-0.46289 -0.767578,0 -1.21875,0.515625 -0.445312,0.509765 -0.480468,1.40625 z m 3.503906,0.08203 V 33.5 h -1.048828 v -4.986328 q 0,-0.556641 -0.01172,-0.890625 -0.0059,-0.339844 -0.02344,-0.462891 h 0.996093 q 0.01172,0.128906 0.02344,0.316406 0.01172,0.1875 0.01758,0.392579 0.0059,0.199218 0.0059,0.375 h 0.01758 q 0.339844,-0.673829 0.779297,-0.9375 0.439453,-0.263672 1.072266,-0.263672 0.720703,0 1.136719,0.287109 0.421875,0.287109 0.585937,0.914063 h 0.01758 q 0.328125,-0.638672 0.791016,-0.919922 0.46875,-0.28125 1.130859,-0.28125 0.960938,0 1.394532,0.521484 0.439453,0.521484 0.439453,1.710938 V 33.5 h -1.042969 v -4.019531 q 0,-0.919922 -0.251953,-1.271485 -0.251953,-0.351562 -0.908203,-0.351562 -0.691407,0 -1.078125,0.515625 -0.38086,0.509765 -0.38086,1.453125 V 33.5 h -1.042968 v -4.019531 q 0,-0.919922 -0.251954,-1.271485 -0.251953,-0.351562 -0.908203,-0.351562 -0.673828,0 -1.066406,0.515625 -0.392578,0.515625 -0.392578,1.453125 z m 9.732422,0.726562 q 0,1.089844 0.451172,1.681641 0.451172,0.591797 1.318359,0.591797 0.685547,0 1.095703,-0.275391 0.416016,-0.27539 0.5625,-0.697265 l 0.925781,0.263671 q -0.568359,1.5 -2.583984,1.5 -1.40625,0 -2.144531,-0.83789 -0.732422,-0.837891 -0.732422,-2.490235 0,-1.570312 0.732422,-2.408203 0.738281,-0.83789 2.103515,-0.83789 1.400391,0 2.097657,0.84375 0.697265,0.84375 0.697265,2.52539 v 0.140625 z m 3.433594,-0.808593 q -0.08789,-1.001954 -0.509766,-1.458985 -0.421875,-0.46289 -1.212891,-0.46289 -0.767578,0 -1.21875,0.515625 -0.445312,0.509765 -0.480468,1.40625 z m 3.509765,0.08203 V 33.5 h -1.054687 v -4.986328 q 0,-0.556641 -0.01172,-0.890625 -0.0059,-0.339844 -0.02344,-0.462891 h 0.996094 q 0.01172,0.111328 0.01758,0.28125 0.01172,0.169922 0.01758,0.375 0.0059,0.205078 0.01172,0.427735 h 0.01758 q 0.363282,-0.65625 0.837891,-0.925782 0.480469,-0.27539 1.189453,-0.27539 1.042969,0 1.523438,0.533203 0.486328,0.533203 0.486328,1.699219 V 33.5 h -1.060547 v -4.019531 q 0,-0.908203 -0.292969,-1.265625 -0.292969,-0.357422 -1.013672,-0.357422 -0.761719,0 -1.201172,0.521484 -0.439453,0.521485 -0.439453,1.447266 z m 8.033203,3.626953 q -0.515625,0.140625 -1.066406,0.140625 -0.632812,0 -0.949219,-0.357422 -0.316406,-0.363281 -0.316406,-1.078125 v -4.230469 h -0.732422 v -0.767578 h 0.773438 l 0.310547,-1.417969 h 0.703125 v 1.417969 h 1.171875 v 0.767578 h -1.171875 v 4.001953 q 0,0.457032 0.146484,0.644532 0.152344,0.18164 0.521484,0.18164 0.199219,0 0.609375,-0.08203 z m 5.654297,-1.705078 q 0,0.896484 -0.679687,1.382812 -0.673828,0.486328 -1.892578,0.486328 -1.183594,0 -1.828125,-0.386718 -0.638672,-0.392578 -0.832032,-1.21875 l 0.931641,-0.181641 q 0.134766,0.509766 0.556641,0.75 0.421875,0.234375 1.171875,0.234375 0.802734,0 1.171875,-0.246094 0.375,-0.246093 0.375,-0.738281 0,-0.375 -0.257813,-0.609375 -0.257812,-0.234375 -0.832031,-0.386719 -0.679688,-0.18164 -1.083985,-0.298828 -0.398437,-0.117187 -0.615234,-0.199219 -0.216797,-0.08789 -0.345703,-0.164062 -0.386719,-0.222656 -0.603516,-0.544922 -0.216797,-0.322266 -0.216797,-0.791016 0,-0.867187 0.615235,-1.318359 0.621094,-0.457031 1.804687,-0.457031 1.048828,0 1.664063,0.36914 0.621094,0.369141 0.785156,1.183594 l -0.949219,0.117188 q -0.08789,-0.421875 -0.474609,-0.644532 -0.380859,-0.228515 -1.025391,-0.228515 -0.714843,0 -1.054687,0.216797 -0.339844,0.216797 -0.339844,0.65625 0,0.322265 0.193359,0.533203 0.19336,0.205078 0.738282,0.339844 0.732422,0.175781 1.394531,0.386718 0.662109,0.205078 0.949219,0.410157 0.333984,0.240234 0.503906,0.568359 0.175781,0.322266 0.175781,0.779297 z"
     id="text4"
     style="font-size:12px;font-family:Helvetica;text-anchor:middle;fill:#616161;fill-opacity:1"
     aria-label="Requirements" />
  <path
     d="m 200,100 h 20 v 33.63"
     fill="none"
     stroke="#000000"
     stroke-miterlimit="10"
     pointer-events="stroke"
     style="stroke:#616161;stroke-opacity:1"
     id="path7" />
  <path
     d="m 220,138.88 -3.5,-7 3.5,1.75 3.5,-1.75 z"
     fill="#000000"
     stroke="#000000"
     stroke-miterlimit="10"
     pointer-events="all"
     style="fill:#616161;stroke:#616161;stroke-opacity:1;fill-opacity:1"
     id="path8" />
  <path
     id="rect9"
     style="fill:none;stroke:#616161;stroke-opacity:1"
     d="m 80,70 h 120 v 60 H 80 Z" />
  <path
     d="m 106.60547,101.2207 q 0,1.14258 -0.89649,1.76953 -0.89062,0.62696 -2.51367,0.62696 -3.01758,0 -3.498044,-2.09766 l 1.083984,-0.2168 q 0.1875,0.74415 0.79688,1.09571 0.60937,0.3457 1.6582,0.3457 1.08398,0 1.66992,-0.36914 0.5918,-0.375 0.5918,-1.0957 0,-0.4043 -0.1875,-0.65625 -0.18164,-0.25196 -0.51563,-0.41602 -0.33398,-0.16406 -0.79687,-0.275389 -0.46289,-0.111329 -1.02539,-0.240235 -0.65039,-0.146484 -1.08985,-0.287109 -0.43359,-0.140625 -0.71484,-0.292969 -0.28125,-0.158203 -0.48047,-0.333984 -0.29297,-0.269532 -0.45117,-0.626953 -0.15235,-0.357422 -0.15235,-0.820313 0,-1.060547 0.8086,-1.634766 0.81445,-0.574218 2.32617,-0.574218 1.40625,0 2.15039,0.433593 0.74414,0.427735 1.04297,1.464844 l -1.10156,0.19336 q -0.18164,-0.65625 -0.69141,-0.949219 -0.50976,-0.298828 -1.41211,-0.298828 -0.99023,0 -1.51172,0.328125 -0.52148,0.328125 -0.52148,0.978515 0,0.38086 0.19922,0.632813 0.20508,0.246094 0.58593,0.416015 0.35743,0.169922 1.51758,0.427735 0.47461,0.111328 0.9375,0.234375 0.46289,0.117187 0.87305,0.298828 0.24023,0.09961 0.45703,0.246094 0.22266,0.140625 0.38672,0.328125 0.22266,0.246091 0.3457,0.580081 0.12891,0.33398 0.12891,0.78515 z m 1.66992,4.76953 q -0.42187,0 -0.72656,-0.0644 v -0.79101 q 0.22265,0.0352 0.49219,0.0352 0.49218,0 0.9082,-0.36914 0.42187,-0.36328 0.75,-1.33008 l -2.51367,-6.310544 h 1.125 l 1.33593,3.503904 q 0.14649,0.375 0.31055,0.84961 0.16992,0.47461 0.26367,0.83789 0.14649,-0.41601 0.29297,-0.82617 0.15235,-0.41016 0.29297,-0.82031 l 1.21289,-3.544924 h 1.11328 L 110.69531,103.5 q -0.19922,0.50391 -0.38086,0.87891 -0.18164,0.38086 -0.35156,0.62695 -0.33984,0.49805 -0.75586,0.73828 -0.41015,0.24609 -0.93164,0.24609 z m 10.44727,-4.24218 q 0,0.89648 -0.67969,1.38281 -0.67383,0.48633 -1.89258,0.48633 -1.18359,0 -1.82812,-0.38672 -0.63868,-0.39258 -0.83204,-1.21875 l 0.93165,-0.18164 q 0.13476,0.50976 0.55664,0.75 0.42187,0.23437 1.17187,0.23437 0.80274,0 1.17188,-0.24609 0.375,-0.24609 0.375,-0.73828 0,-0.375 -0.25782,-0.60938 -0.25781,-0.23437 -0.83203,-0.38672 -0.67969,-0.18164 -1.08398,-0.29882 -0.39844,-0.11719 -0.61524,-0.19922 -0.21679,-0.0879 -0.3457,-0.16406 -0.38672,-0.222661 -0.60352,-0.544927 -0.21679,-0.322266 -0.21679,-0.791016 0,-0.867187 0.61523,-1.318359 0.6211,-0.457031 1.80469,-0.457031 1.04883,0 1.66406,0.36914 0.6211,0.369141 0.78516,1.183594 l -0.94922,0.117188 q -0.0879,-0.421875 -0.47461,-0.644532 -0.38086,-0.228515 -1.02539,-0.228515 -0.71484,0 -1.05469,0.216797 -0.33984,0.216797 -0.33984,0.65625 0,0.322265 0.19336,0.533203 0.19336,0.205078 0.73828,0.339844 0.73242,0.175781 1.39453,0.386718 0.66211,0.205076 0.94922,0.410156 0.33398,0.24024 0.50391,0.56836 0.17578,0.32227 0.17578,0.7793 z m 3.67968,1.70508 q -0.51562,0.14062 -1.0664,0.14062 -0.63281,0 -0.94922,-0.35742 -0.31641,-0.36328 -0.31641,-1.07813 v -4.230466 h -0.73242 v -0.767578 h 0.77344 l 0.31055,-1.417969 h 0.70312 v 1.417969 h 1.17188 v 0.767578 H 121.125 v 4.001956 q 0,0.45703 0.14648,0.64453 0.15235,0.18164 0.52149,0.18164 0.19922,0 0.60937,-0.082 z m 1.70508,-2.9004 q 0,1.08985 0.45117,1.68165 0.45118,0.59179 1.31836,0.59179 0.68555,0 1.09571,-0.27539 0.41601,-0.27539 0.5625,-0.69726 l 0.92578,0.26367 q -0.56836,1.5 -2.58399,1.5 -1.40625,0 -2.14453,-0.83789 Q 123,101.94141 123,100.28906 q 0,-1.57031 0.73242,-2.408201 0.73828,-0.83789 2.10352,-0.83789 1.40039,0 2.09765,0.84375 0.69727,0.84375 0.69727,2.525391 v 0.14062 z m 3.4336,-0.808589 q -0.0879,-1.001954 -0.50977,-1.458985 -0.42187,-0.46289 -1.21289,-0.46289 -0.76758,0 -1.21875,0.515625 -0.44531,0.509765 -0.48047,1.40625 z m 3.5039,0.08203 V 103.5 h -1.04883 v -4.986328 q 0,-0.556641 -0.0117,-0.890625 -0.006,-0.339844 -0.0234,-0.462891 h 0.99609 q 0.0117,0.128906 0.0234,0.316406 0.0117,0.1875 0.0176,0.392579 0.006,0.199218 0.006,0.375 h 0.0176 q 0.33985,-0.673829 0.7793,-0.9375 0.43945,-0.263672 1.07227,-0.263672 0.7207,0 1.13672,0.287109 0.42187,0.287109 0.58593,0.914063 h 0.0176 q 0.32813,-0.638672 0.79102,-0.919922 0.46875,-0.28125 1.13086,-0.28125 0.96093,0 1.39453,0.521484 0.43945,0.521484 0.43945,1.710938 V 103.5 h -1.04297 v -4.019531 q 0,-0.919922 -0.25195,-1.271485 -0.25195,-0.351562 -0.9082,-0.351562 -0.69141,0 -1.07813,0.515625 -0.38086,0.509765 -0.38086,1.453125 V 103.5 h -1.04297 v -4.019531 q 0,-0.919922 -0.25195,-1.271485 -0.25195,-0.351562 -0.9082,-0.351562 -0.67383,0 -1.06641,0.515625 -0.39258,0.515625 -0.39258,1.453125 z m 19.54102,-0.539063 q 0,1.306642 -0.50977,2.250002 -0.5039,0.94336 -1.41211,1.45312 -0.90234,0.50977 -2.09765,0.50977 h -3.08789 v -8.25586 h 2.73046 q 2.09766,0 3.23438,1.054687 1.14258,1.048828 1.14258,2.988281 z m -1.125,0 q 0,-1.535156 -0.84375,-2.33789 -0.83789,-0.808594 -2.43164,-0.808594 h -1.58789 v 6.462896 h 1.83984 q 0.91992,0 1.59375,-0.4043 0.67969,-0.4043 1.05469,-1.14844 0.375,-0.74414 0.375,-1.763672 z m 3.3164,1.265622 q 0,1.08985 0.45118,1.68165 0.45117,0.59179 1.31835,0.59179 0.68555,0 1.09571,-0.27539 0.41601,-0.27539 0.5625,-0.69726 l 0.92578,0.26367 q -0.56836,1.5 -2.58399,1.5 -1.40625,0 -2.14453,-0.83789 -0.73242,-0.83789 -0.73242,-2.49024 0,-1.570311 0.73242,-2.408202 0.73828,-0.83789 2.10352,-0.83789 1.40039,0 2.09766,0.84375 0.69726,0.84375 0.69726,2.525392 v 0.14062 z m 3.4336,-0.80859 q -0.0879,-1.001954 -0.50977,-1.458985 -0.42187,-0.46289 -1.21289,-0.46289 -0.76758,0 -1.21875,0.515625 -0.44531,0.509765 -0.48047,1.40625 z m 7.18945,2.00391 q 0,0.89648 -0.67969,1.38281 -0.67383,0.48633 -1.89258,0.48633 -1.18359,0 -1.82812,-0.38672 -0.63867,-0.39258 -0.83203,-1.21875 l 0.93164,-0.18164 q 0.13476,0.50976 0.55664,0.75 0.42187,0.23437 1.17187,0.23437 0.80274,0 1.17188,-0.24609 0.375,-0.24609 0.375,-0.73828 0,-0.375 -0.25781,-0.60938 -0.25782,-0.23437 -0.83203,-0.38672 -0.67969,-0.18164 -1.08399,-0.29882 -0.39844,-0.11719 -0.61523,-0.19922 -0.2168,-0.0879 -0.34571,-0.16406 -0.38671,-0.222662 -0.60351,-0.544928 -0.2168,-0.322266 -0.2168,-0.791016 0,-0.867187 0.61524,-1.318359 0.62109,-0.457031 1.80468,-0.457031 1.04883,0 1.66407,0.36914 0.62109,0.369141 0.78515,1.183594 l -0.94922,0.117188 q -0.0879,-0.421875 -0.47461,-0.644532 -0.38086,-0.228515 -1.02539,-0.228515 -0.71484,0 -1.05468,0.216797 -0.33985,0.216797 -0.33985,0.65625 0,0.322265 0.19336,0.533203 0.19336,0.205078 0.73828,0.339844 0.73242,0.175781 1.39453,0.386718 0.66211,0.205077 0.94922,0.410157 0.33399,0.24024 0.50391,0.56836 0.17578,0.32227 0.17578,0.7793 z m 2.29102,-6.943364 V 95.8125 h -1.05469 v -1.007813 z m 0,2.355469 V 103.5 h -1.05469 v -6.339844 z m 4.01953,8.830075 q -1.03711,0 -1.65235,-0.41015 -0.61523,-0.4043 -0.79101,-1.1543 l 1.06054,-0.15234 q 0.10547,0.43945 0.4629,0.67383 0.36328,0.24023 0.94921,0.24023 0.78516,0 1.17774,-0.46289 0.39844,-0.46289 0.39844,-1.38281 v -1.01953 h -0.0117 q -0.29883,0.60937 -0.82032,0.91992 -0.52148,0.30469 -1.21875,0.30469 -1.16601,0 -1.71679,-0.77344 -0.54492,-0.77344 -0.54492,-2.43164 0,-1.681645 0.58593,-2.47852 0.5918,-0.802734 1.79297,-0.802734 0.67383,0 1.16602,0.310547 0.49804,0.304687 0.76758,0.873047 h 0.0117 q 0,-0.117188 0.0117,-0.363282 0.0117,-0.251953 0.0293,-0.474609 0.0176,-0.222656 0.0293,-0.246094 h 1.00195 q -0.0352,0.316406 -0.0352,1.3125 v 4.845705 q 0,1.33594 -0.66211,2.00391 -0.6621,0.66796 -1.99218,0.66796 z m 1.60547,-5.66015 q 0,-1.1543 -0.47461,-1.816409 -0.46875,-0.667969 -1.20118,-0.667969 -0.80859,0 -1.17773,0.585938 -0.36914,0.585937 -0.36914,1.89844 0,1.30078 0.3457,1.86914 0.34571,0.56836 1.1836,0.56836 0.75,0 1.21875,-0.65039 0.47461,-0.65625 0.47461,-1.78711 z m 3.74414,-0.503909 V 103.5 h -1.05469 v -4.986328 q 0,-0.556641 -0.0117,-0.890625 -0.006,-0.339844 -0.0234,-0.462891 h 0.9961 q 0.0117,0.111328 0.0176,0.28125 0.0117,0.169922 0.0176,0.375 0.006,0.205078 0.0117,0.427735 h 0.0176 q 0.36328,-0.65625 0.83789,-0.925782 0.48047,-0.27539 1.18945,-0.27539 1.04297,0 1.52344,0.533203 0.48633,0.533203 0.48633,1.699219 V 103.5 h -1.06055 v -4.019531 q 0,-0.908203 -0.29297,-1.265625 -0.29297,-0.357422 -1.01367,-0.357422 -0.76172,0 -1.20117,0.521484 -0.43945,0.521485 -0.43945,1.447266 z"
     id="text10"
     style="font-size:12px;font-family:Helvetica;text-anchor:middle;fill:#616161;fill-opacity:1"
     aria-label="System Design" />
  <path
     d="m 280,170 h 20 v 33.63"
     fill="none"
     stroke="#000000"
     stroke-miterlimit="10"
     pointer-events="stroke"
     style="stroke:#616161;stroke-opacity:1"
     id="path13" />
  <path
     d="m 300,208.88 -3.5,-7 3.5,1.75 3.5,-1.75 z"
     fill="#000000"
     stroke="#000000"
     stroke-miterlimit="10"
     pointer-events="all"
     style="fill:#616161;stroke:#616161;stroke-opacity:1;fill-opacity:1"
     id="path14" />
  <path
     id="rect15"
     style="fill:none;stroke:#616161;stroke-opacity:1"
     d="m 160,140 h 120 v 60 H 160 Z" />
  <path
     d="m 192.76953,173.61719 q -1.01367,0 -1.76953,-0.375 -0.75586,-0.375 -1.17188,-1.07227 -0.41601,-0.69726 -0.41601,-1.66992 v -5.25586 h 1.11914 v 5.16211 q 0,1.13086 0.57422,1.7168 0.57422,0.58593 1.6582,0.58593 1.11328,0 1.72852,-0.60351 0.62109,-0.60938 0.62109,-1.77539 v -5.08594 h 1.11328 v 5.15039 q 0,1.00195 -0.42773,1.72266 -0.42188,0.7207 -1.20117,1.11328 -0.77344,0.38672 -1.82813,0.38672 z m 6.26953,-3.79102 V 173.5 h -1.05469 v -4.98633 q 0,-0.55664 -0.0117,-0.89062 -0.006,-0.33985 -0.0234,-0.46289 h 0.99609 q 0.0117,0.11132 0.0176,0.28125 0.0117,0.16992 0.0176,0.375 0.006,0.20507 0.0117,0.42773 h 0.0176 q 0.36328,-0.65625 0.83789,-0.92578 0.48046,-0.27539 1.18945,-0.27539 1.04297,0 1.52344,0.5332 0.48632,0.5332 0.48632,1.69922 V 173.5 h -1.06054 v -4.01953 q 0,-0.9082 -0.29297,-1.26563 -0.29297,-0.35742 -1.01367,-0.35742 -0.76172,0 -1.20117,0.52149 -0.43946,0.52148 -0.43946,1.44726 z m 6.64453,-5.02148 v 1.00781 h -1.05468 v -1.00781 z m 0,2.35547 V 173.5 h -1.05468 v -6.33984 z m 4.05469,6.29296 q -0.51562,0.14063 -1.06641,0.14063 -0.63281,0 -0.94921,-0.35742 -0.31641,-0.36328 -0.31641,-1.07813 v -4.23047 h -0.73242 v -0.76757 h 0.77344 l 0.31054,-1.41797 h 0.70313 v 1.41797 h 1.17187 v 0.76757 h -1.17187 v 4.00196 q 0,0.45703 0.14648,0.64453 0.15235,0.18164 0.52149,0.18164 0.19921,0 0.60937,-0.082 z m 11.51367,-4.16601 q 0,1.30664 -0.50976,2.25 -0.50391,0.94336 -1.41211,1.45312 -0.90235,0.50977 -2.09766,0.50977 h -3.08789 v -8.25586 h 2.73047 q 2.09766,0 3.23437,1.05469 1.14258,1.04883 1.14258,2.98828 z m -1.125,0 q 0,-1.53516 -0.84375,-2.33789 -0.83789,-0.8086 -2.43164,-0.8086 h -1.58789 v 6.4629 h 1.83985 q 0.91992,0 1.59375,-0.4043 0.67968,-0.4043 1.05468,-1.14844 0.375,-0.74414 0.375,-1.76367 z m 3.31641,1.26562 q 0,1.08985 0.45117,1.68164 0.45117,0.5918 1.31836,0.5918 0.68555,0 1.0957,-0.27539 0.41602,-0.27539 0.5625,-0.69726 l 0.92578,0.26367 q -0.56835,1.5 -2.58398,1.5 -1.40625,0 -2.14453,-0.83789 -0.73242,-0.83789 -0.73242,-2.49024 0,-1.57031 0.73242,-2.4082 0.73828,-0.83789 2.10351,-0.83789 1.4004,0 2.09766,0.84375 0.69727,0.84375 0.69727,2.52539 v 0.14062 z m 3.43359,-0.80859 q -0.0879,-1.00195 -0.50976,-1.45898 -0.42188,-0.46289 -1.21289,-0.46289 -0.76758,0 -1.21875,0.51562 -0.44532,0.50977 -0.48047,1.40625 z m 7.18946,2.00391 q 0,0.89648 -0.67969,1.38281 -0.67383,0.48633 -1.89258,0.48633 -1.18359,0 -1.82812,-0.38672 -0.63868,-0.39258 -0.83204,-1.21875 l 0.93164,-0.18164 q 0.13477,0.50976 0.55665,0.75 0.42187,0.23437 1.17187,0.23437 0.80273,0 1.17188,-0.24609 0.375,-0.24609 0.375,-0.73828 0,-0.375 -0.25782,-0.60938 -0.25781,-0.23437 -0.83203,-0.38672 -0.67969,-0.18164 -1.08398,-0.29882 -0.39844,-0.11719 -0.61524,-0.19922 -0.21679,-0.0879 -0.3457,-0.16407 -0.38672,-0.22265 -0.60352,-0.54492 -0.21679,-0.32226 -0.21679,-0.79101 0,-0.86719 0.61523,-1.31836 0.6211,-0.45703 1.80469,-0.45703 1.04883,0 1.66406,0.36914 0.6211,0.36914 0.78516,1.18359 l -0.94922,0.11719 q -0.0879,-0.42188 -0.47461,-0.64453 -0.38086,-0.22852 -1.02539,-0.22852 -0.71484,0 -1.05469,0.2168 -0.33984,0.2168 -0.33984,0.65625 0,0.32226 0.19336,0.5332 0.19336,0.20508 0.73828,0.33985 0.73242,0.17578 1.39453,0.38671 0.66211,0.20508 0.94922,0.41016 0.33398,0.24023 0.5039,0.56836 0.17579,0.32227 0.17579,0.7793 z m 2.29101,-6.94336 v 1.00781 h -1.05469 v -1.00781 z m 0,2.35547 V 173.5 h -1.05469 v -6.33984 z m 4.01953,8.83007 q -1.03711,0 -1.65234,-0.41015 -0.61524,-0.4043 -0.79102,-1.1543 l 1.06055,-0.15234 q 0.10547,0.43945 0.46289,0.67383 0.36328,0.24023 0.94922,0.24023 0.78516,0 1.17773,-0.46289 0.39844,-0.46289 0.39844,-1.38281 v -1.01953 h -0.0117 q -0.29883,0.60937 -0.82031,0.91992 -0.52148,0.30468 -1.21875,0.30468 -1.16602,0 -1.7168,-0.77343 -0.54492,-0.77344 -0.54492,-2.43164 0,-1.68164 0.58594,-2.47852 0.5918,-0.80273 1.79297,-0.80273 0.67383,0 1.16601,0.31054 0.49805,0.30469 0.76758,0.87305 h 0.0117 q 0,-0.11719 0.0117,-0.36328 0.0117,-0.25195 0.0293,-0.47461 0.0176,-0.22266 0.0293,-0.24609 h 1.00196 q -0.0352,0.3164 -0.0352,1.3125 v 4.8457 q 0,1.33594 -0.66211,2.00391 -0.66211,0.66796 -1.99219,0.66796 z m 1.60547,-5.66015 q 0,-1.1543 -0.47461,-1.81641 -0.46875,-0.66797 -1.20117,-0.66797 -0.80859,0 -1.17773,0.58594 -0.36914,0.58594 -0.36914,1.89844 0,1.30078 0.3457,1.86914 0.3457,0.56836 1.18359,0.56836 0.75,0 1.21875,-0.65039 0.47461,-0.65625 0.47461,-1.78711 z m 3.74414,-0.50391 V 173.5 h -1.05469 v -4.98633 q 0,-0.55664 -0.0117,-0.89062 -0.006,-0.33985 -0.0234,-0.46289 h 0.99609 q 0.0117,0.11132 0.0176,0.28125 0.0117,0.16992 0.0176,0.375 0.006,0.20507 0.0117,0.42773 h 0.0176 q 0.36328,-0.65625 0.83789,-0.92578 0.48046,-0.27539 1.18945,-0.27539 1.04297,0 1.52344,0.5332 0.48632,0.5332 0.48632,1.69922 V 173.5 h -1.06054 v -4.01953 q 0,-0.9082 -0.29297,-1.26563 -0.29297,-0.35742 -1.01367,-0.35742 -0.76172,0 -1.20117,0.52149 -0.43946,0.52148 -0.43946,1.44726 z"
     id="text16"
     style="font-size:12px;font-family:Helvetica;text-anchor:middle;fill:#616161;fill-opacity:1"
     aria-label="Unit Design" />
  <path
     d="m 360,240 h 20 v 33.63"
     fill="none"
     stroke="#000000"
     stroke-miterlimit="10"
     pointer-events="stroke"
     style="stroke:#616161;stroke-opacity:1"
     id="path19" />
  <path
     d="m 380,278.88 -3.5,-7 3.5,1.75 3.5,-1.75 z"
     fill="#000000"
     stroke="#000000"
     stroke-miterlimit="10"
     pointer-events="all"
     style="fill:#616161;stroke:#616161;stroke-opacity:1;fill-opacity:1"
     id="path20" />
  <path
     id="rect21"
     style="fill:none;stroke:#616161;stroke-opacity:1"
     d="m 240,210 h 120 v 60 H 240 Z" />
  <path
     d="M 260.70508,235.24414 V 243.5 h -1.11914 v -8.25586 z m 2.98828,4.58203 V 243.5 h -1.04883 v -4.98633 q 0,-0.55664 -0.0117,-0.89062 -0.006,-0.33985 -0.0234,-0.46289 h 0.9961 q 0.0117,0.1289 0.0234,0.3164 0.0117,0.1875 0.0176,0.39258 0.006,0.19922 0.006,0.375 h 0.0176 q 0.33985,-0.67383 0.7793,-0.9375 0.43945,-0.26367 1.07226,-0.26367 0.72071,0 1.13672,0.28711 0.42188,0.28711 0.58594,0.91406 h 0.0176 q 0.32812,-0.63867 0.79101,-0.91992 0.46875,-0.28125 1.13086,-0.28125 0.96094,0 1.39453,0.52148 0.43946,0.52149 0.43946,1.71094 V 243.5 h -1.04297 v -4.01953 q 0,-0.91992 -0.25195,-1.27149 -0.25196,-0.35156 -0.90821,-0.35156 -0.6914,0 -1.07812,0.51563 -0.38086,0.50976 -0.38086,1.45312 V 243.5 h -1.04297 v -4.01953 q 0,-0.91992 -0.25195,-1.27149 -0.25196,-0.35156 -0.90821,-0.35156 -0.67382,0 -1.0664,0.51563 -0.39258,0.51562 -0.39258,1.45312 z m 14.28516,0.47461 q 0,1.6582 -0.58594,2.49024 -0.58008,0.82617 -1.7461,0.82617 -1.46484,0 -1.96875,-1.10157 h -0.0293 q 0.0234,0.041 0.0234,0.9961 v 2.47851 h -1.05468 v -7.53515 q 0,-0.48633 -0.0117,-0.8086 -0.006,-0.32812 -0.0234,-0.48632 h 1.01953 q 0.006,0.0234 0.0176,0.22851 0.0176,0.20508 0.0293,0.44531 0.0117,0.23438 0.0117,0.34571 h 0.0234 q 0.28125,-0.58594 0.74414,-0.85547 0.46289,-0.27539 1.21875,-0.27539 1.17188,0 1.75196,0.78515 0.58008,0.78516 0.58008,2.4668 z m -1.10743,0.0234 q 0,-1.32422 -0.35742,-1.89258 -0.35742,-0.56836 -1.13672,-0.56836 -0.86718,0 -1.28906,0.60352 -0.41602,0.59765 -0.41602,1.93945 0,1.24805 0.39844,1.83984 0.39844,0.5918 1.29492,0.5918 0.78516,0 1.14258,-0.57422 0.36328,-0.58008 0.36328,-1.93945 z m 3.47461,-5.51953 V 243.5 h -1.05468 v -8.69531 z m 2.41992,5.74804 q 0,1.08985 0.45118,1.68164 0.45117,0.5918 1.31836,0.5918 0.68554,0 1.0957,-0.27539 0.41601,-0.27539 0.5625,-0.69726 l 0.92578,0.26367 q -0.56836,1.5 -2.58398,1.5 -1.40625,0 -2.14454,-0.83789 -0.73242,-0.83789 -0.73242,-2.49024 0,-1.57031 0.73242,-2.4082 0.73829,-0.83789 2.10352,-0.83789 1.40039,0 2.09766,0.84375 0.69726,0.84375 0.69726,2.52539 v 0.14062 z m 3.4336,-0.80859 q -0.0879,-1.00195 -0.50977,-1.45898 -0.42187,-0.46289 -1.21289,-0.46289 -0.76758,0 -1.21875,0.51562 -0.44531,0.50977 -0.48047,1.40625 z m 3.5039,0.082 V 243.5 h -1.04882 v -4.98633 q 0,-0.55664 -0.0117,-0.89062 -0.006,-0.33985 -0.0234,-0.46289 h 0.99609 q 0.0117,0.1289 0.0234,0.3164 0.0117,0.1875 0.0176,0.39258 0.006,0.19922 0.006,0.375 h 0.0176 q 0.33984,-0.67383 0.77929,-0.9375 0.43946,-0.26367 1.07227,-0.26367 0.7207,0 1.13672,0.28711 0.42187,0.28711 0.58594,0.91406 h 0.0176 q 0.32813,-0.63867 0.79102,-0.91992 0.46875,-0.28125 1.13086,-0.28125 0.96094,0 1.39453,0.52148 0.43945,0.52149 0.43945,1.71094 V 243.5 h -1.04297 v -4.01953 q 0,-0.91992 -0.25195,-1.27149 -0.25195,-0.35156 -0.9082,-0.35156 -0.69141,0 -1.07813,0.51563 -0.38086,0.50976 -0.38086,1.45312 V 243.5 h -1.04296 v -4.01953 q 0,-0.91992 -0.25196,-1.27149 -0.25195,-0.35156 -0.9082,-0.35156 -0.67383,0 -1.06641,0.51563 -0.39258,0.51562 -0.39258,1.45312 z m 9.73243,0.72656 q 0,1.08985 0.45117,1.68164 0.45117,0.5918 1.31836,0.5918 0.68554,0 1.0957,-0.27539 0.41602,-0.27539 0.5625,-0.69726 l 0.92578,0.26367 q -0.56836,1.5 -2.58398,1.5 -1.40625,0 -2.14453,-0.83789 -0.73243,-0.83789 -0.73243,-2.49024 0,-1.57031 0.73243,-2.4082 0.73828,-0.83789 2.10351,-0.83789 1.40039,0 2.09766,0.84375 0.69726,0.84375 0.69726,2.52539 v 0.14062 z m 3.43359,-0.80859 q -0.0879,-1.00195 -0.50977,-1.45898 -0.42187,-0.46289 -1.21289,-0.46289 -0.76757,0 -1.21875,0.51562 -0.44531,0.50977 -0.48046,1.40625 z m 3.50977,0.082 V 243.5 h -1.05469 v -4.98633 q 0,-0.55664 -0.0117,-0.89062 -0.006,-0.33985 -0.0234,-0.46289 h 0.9961 q 0.0117,0.11132 0.0176,0.28125 0.0117,0.16992 0.0176,0.375 0.006,0.20507 0.0117,0.42773 h 0.0176 q 0.36328,-0.65625 0.83789,-0.92578 0.48047,-0.27539 1.18945,-0.27539 1.04297,0 1.52344,0.5332 0.48633,0.5332 0.48633,1.69922 V 243.5 h -1.06055 v -4.01953 q 0,-0.9082 -0.29297,-1.26563 -0.29297,-0.35742 -1.01367,-0.35742 -0.76172,0 -1.20117,0.52149 -0.43945,0.52148 -0.43945,1.44726 z m 8.0332,3.62695 q -0.51563,0.14063 -1.06641,0.14063 -0.63281,0 -0.94922,-0.35742 -0.3164,-0.36328 -0.3164,-1.07813 v -4.23047 h -0.73242 v -0.76757 h 0.77343 l 0.31055,-1.41797 h 0.70313 v 1.41797 h 1.17187 v 0.76757 h -1.17187 v 4.00196 q 0,0.45703 0.14648,0.64453 0.15234,0.18164 0.52148,0.18164 0.19922,0 0.60938,-0.082 z m 2.51367,0.16407 q -0.95508,0 -1.43555,-0.50391 -0.48046,-0.50391 -0.48046,-1.38281 0,-0.98438 0.64453,-1.51172 0.65039,-0.52734 2.09179,-0.5625 l 1.42383,-0.0234 v -0.3457 q 0,-0.77344 -0.32812,-1.10742 -0.32813,-0.33399 -1.03125,-0.33399 -0.70899,0 -1.03125,0.24024 -0.32227,0.24023 -0.38672,0.76758 l -1.10156,-0.0996 q 0.26953,-1.71094 2.54296,-1.71094 1.19532,0 1.79883,0.55078 0.60352,0.54492 0.60352,1.58203 v 2.73047 q 0,0.46875 0.12304,0.70898 0.12305,0.23438 0.46875,0.23438 0.16407,0 0.34571,-0.041 v 0.65625 q -0.19922,0.0469 -0.4043,0.0703 -0.20508,0.0234 -0.41016,0.0234 -0.58593,0 -0.85546,-0.30468 -0.26368,-0.31055 -0.29883,-0.9668 h -0.0352 q -0.4043,0.72656 -0.94336,1.03125 -0.5332,0.29883 -1.30078,0.29883 z m 2.24414,-3.2461 -1.1543,0.0234 q -0.73828,0.006 -1.125,0.15234 -0.38671,0.14063 -0.59179,0.4336 -0.20508,0.29297 -0.20508,0.76758 0,0.51562 0.27539,0.79687 0.28125,0.28125 0.79688,0.28125 0.58593,0 1.03125,-0.26367 0.45117,-0.26367 0.70898,-0.7207 0.26367,-0.46289 0.26367,-0.94922 z m 5.25,3.08203 q -0.51562,0.14063 -1.0664,0.14063 -0.63282,0 -0.94922,-0.35742 -0.31641,-0.36328 -0.31641,-1.07813 v -4.23047 h -0.73242 v -0.76757 h 0.77344 l 0.31054,-1.41797 h 0.70313 v 1.41797 h 1.17187 v 0.76757 h -1.17187 v 4.00196 q 0,0.45703 0.14648,0.64453 0.15235,0.18164 0.52149,0.18164 0.19922,0 0.60937,-0.082 z m 1.94531,-8.64843 v 1.00781 h -1.05468 v -1.00781 z m 0,2.35547 V 243.5 h -1.05468 v -6.33984 z m 6.97852,3.16406 q 0,1.66406 -0.73242,2.47851 -0.73242,0.81446 -2.12696,0.81446 -1.38867,0 -2.09765,-0.84375 -0.70899,-0.84961 -0.70899,-2.44922 0,-1.64063 0.70899,-2.46094 0.71484,-0.82031 2.13281,-0.82031 1.45313,0 2.13867,0.80273 0.68555,0.79688 0.68555,2.47852 z m -1.10742,0 q 0,-1.3125 -0.39258,-1.9043 -0.38672,-0.59765 -1.30664,-0.59765 -0.92578,0 -1.3418,0.60937 -0.41015,0.60352 -0.41015,1.89258 0,1.2539 0.40429,1.88672 0.41016,0.62695 1.28321,0.62695 0.94921,0 1.35351,-0.60937 0.41016,-0.60938 0.41016,-1.9043 z m 3.49804,-0.49805 V 243.5 h -1.05468 v -4.98633 q 0,-0.55664 -0.0117,-0.89062 -0.006,-0.33985 -0.0234,-0.46289 h 0.99609 q 0.0117,0.11132 0.0176,0.28125 0.0117,0.16992 0.0176,0.375 0.006,0.20507 0.0117,0.42773 h 0.0176 q 0.36328,-0.65625 0.83789,-0.92578 0.48047,-0.27539 1.18945,-0.27539 1.04297,0 1.52344,0.5332 0.48633,0.5332 0.48633,1.69922 V 243.5 h -1.06055 v -4.01953 q 0,-0.9082 -0.29297,-1.26563 -0.29297,-0.35742 -1.01367,-0.35742 -0.76172,0 -1.20117,0.52149 -0.43946,0.52148 -0.43946,1.44726 z"
     id="text22"
     style="font-size:12px;font-family:Helvetica;text-anchor:middle;fill:#616161;fill-opacity:1"
     aria-label="Implementation" />
  <path
     d="m 440,310 h 20 v 33.63"
     fill="none"
     stroke="#000000"
     stroke-miterlimit="10"
     pointer-events="stroke"
     style="stroke:#616161;stroke-opacity:1"
     id="path25" />
  <path
     d="m 460,348.88 -3.5,-7 3.5,1.75 3.5,-1.75 z"
     fill="#000000"
     stroke="#000000"
     stroke-miterlimit="10"
     pointer-events="all"
     style="fill:#616161;stroke:#616161;stroke-opacity:1;fill-opacity:1"
     id="path26" />
  <path
     id="rect27"
     style="fill:none;stroke:#616161;stroke-opacity:1"
     d="m 320,280 h 120 v 60 H 320 Z" />
  <path
     d="m 352.54395,313.61719 q -1.01368,0 -1.76954,-0.375 -0.75586,-0.375 -1.17187,-1.07227 -0.41602,-0.69726 -0.41602,-1.66992 v -5.25586 h 1.11914 v 5.16211 q 0,1.13086 0.57422,1.7168 0.57422,0.58593 1.65821,0.58593 1.11328,0 1.72851,-0.60351 0.6211,-0.60938 0.6211,-1.77539 v -5.08594 h 1.11328 v 5.15039 q 0,1.00195 -0.42774,1.72266 -0.42187,0.7207 -1.20117,1.11328 -0.77344,0.38672 -1.82812,0.38672 z m 6.26953,-3.79102 V 313.5 h -1.05469 v -4.98633 q 0,-0.55664 -0.0117,-0.89062 -0.006,-0.33985 -0.0234,-0.46289 h 0.9961 q 0.0117,0.11132 0.0176,0.28125 0.0117,0.16992 0.0176,0.375 0.006,0.20507 0.0117,0.42773 h 0.0176 q 0.36328,-0.65625 0.83789,-0.92578 0.48047,-0.27539 1.18945,-0.27539 1.04297,0 1.52344,0.5332 0.48633,0.5332 0.48633,1.69922 V 313.5 h -1.06055 v -4.01953 q 0,-0.9082 -0.29297,-1.26563 -0.29297,-0.35742 -1.01367,-0.35742 -0.76172,0 -1.20117,0.52149 -0.43945,0.52148 -0.43945,1.44726 z m 6.64453,-5.02148 v 1.00781 h -1.05469 v -1.00781 z m 0,2.35547 V 313.5 h -1.05469 v -6.33984 z m 4.05469,6.29296 q -0.51563,0.14063 -1.06641,0.14063 -0.63281,0 -0.94922,-0.35742 -0.31641,-0.36328 -0.31641,-1.07813 v -4.23047 h -0.73242 v -0.76757 h 0.77344 l 0.31055,-1.41797 h 0.70312 v 1.41797 h 1.17188 v 0.76757 h -1.17188 v 4.00196 q 0,0.45703 0.14649,0.64453 0.15234,0.18164 0.52148,0.18164 0.19922,0 0.60938,-0.082 z m 7.42382,-7.29492 V 313.5 h -1.11328 v -7.3418 h -2.83594 v -0.91406 h 6.78516 v 0.91406 z m 3.39844,4.39453 q 0,1.08985 0.45117,1.68164 0.45117,0.5918 1.31836,0.5918 0.68555,0 1.09571,-0.27539 0.41601,-0.27539 0.5625,-0.69726 l 0.92578,0.26367 q -0.56836,1.5 -2.58399,1.5 -1.40625,0 -2.14453,-0.83789 -0.73242,-0.83789 -0.73242,-2.49024 0,-1.57031 0.73242,-2.4082 0.73828,-0.83789 2.10352,-0.83789 1.40039,0 2.09765,0.84375 0.69727,0.84375 0.69727,2.52539 v 0.14062 z m 3.43359,-0.80859 q -0.0879,-1.00195 -0.50976,-1.45898 -0.42188,-0.46289 -1.21289,-0.46289 -0.76758,0 -1.21875,0.51562 -0.44531,0.50977 -0.48047,1.40625 z m 7.18946,2.00391 q 0,0.89648 -0.67969,1.38281 -0.67383,0.48633 -1.89258,0.48633 -1.18359,0 -1.82812,-0.38672 -0.63867,-0.39258 -0.83203,-1.21875 l 0.93164,-0.18164 q 0.13476,0.50976 0.55664,0.75 0.42187,0.23437 1.17187,0.23437 0.80274,0 1.17188,-0.24609 0.375,-0.24609 0.375,-0.73828 0,-0.375 -0.25782,-0.60938 -0.25781,-0.23437 -0.83203,-0.38672 -0.67968,-0.18164 -1.08398,-0.29882 -0.39844,-0.11719 -0.61524,-0.19922 -0.21679,-0.0879 -0.3457,-0.16407 -0.38672,-0.22265 -0.60351,-0.54492 -0.2168,-0.32226 -0.2168,-0.79101 0,-0.86719 0.61523,-1.31836 0.6211,-0.45703 1.80469,-0.45703 1.04883,0 1.66406,0.36914 0.6211,0.36914 0.78516,1.18359 l -0.94922,0.11719 q -0.0879,-0.42188 -0.47461,-0.64453 -0.38086,-0.22852 -1.02539,-0.22852 -0.71484,0 -1.05469,0.2168 -0.33984,0.2168 -0.33984,0.65625 0,0.32226 0.19336,0.5332 0.19336,0.20508 0.73828,0.33985 0.73242,0.17578 1.39453,0.38671 0.66211,0.20508 0.94922,0.41016 0.33398,0.24023 0.50391,0.56836 0.17578,0.32227 0.17578,0.7793 z m 3.67969,1.70507 q -0.51563,0.14063 -1.06641,0.14063 -0.63281,0 -0.94922,-0.35742 -0.31641,-0.36328 -0.31641,-1.07813 v -4.23047 h -0.73242 v -0.76757 h 0.77344 l 0.31055,-1.41797 h 0.70312 v 1.41797 h 1.17188 v 0.76757 h -1.17188 v 4.00196 q 0,0.45703 0.14649,0.64453 0.15234,0.18164 0.52148,0.18164 0.19922,0 0.60938,-0.082 z m 1.94531,-8.64843 v 1.00781 h -1.05469 v -1.00781 z m 0,2.35547 V 313.5 h -1.05469 v -6.33984 z m 2.69531,2.66601 V 313.5 h -1.05469 v -4.98633 q 0,-0.55664 -0.0117,-0.89062 -0.006,-0.33985 -0.0234,-0.46289 h 0.99609 q 0.0117,0.11132 0.0176,0.28125 0.0117,0.16992 0.0176,0.375 0.006,0.20507 0.0117,0.42773 h 0.0176 q 0.36328,-0.65625 0.83789,-0.92578 0.48047,-0.27539 1.18946,-0.27539 1.04297,0 1.52343,0.5332 0.48633,0.5332 0.48633,1.69922 V 313.5 h -1.06054 v -4.01953 q 0,-0.9082 -0.29297,-1.26563 -0.29297,-0.35742 -1.01367,-0.35742 -0.76172,0 -1.20118,0.52149 -0.43945,0.52148 -0.43945,1.44726 z m 7.99805,6.16406 q -1.03711,0 -1.65235,-0.41015 -0.61523,-0.4043 -0.79101,-1.1543 l 1.06054,-0.15234 q 0.10547,0.43945 0.4629,0.67383 0.36328,0.24023 0.94921,0.24023 0.78516,0 1.17774,-0.46289 0.39844,-0.46289 0.39844,-1.38281 v -1.01953 h -0.0117 q -0.29883,0.60937 -0.82032,0.91992 -0.52148,0.30468 -1.21875,0.30468 -1.16601,0 -1.71679,-0.77343 -0.54492,-0.77344 -0.54492,-2.43164 0,-1.68164 0.58593,-2.47852 0.5918,-0.80273 1.79297,-0.80273 0.67383,0 1.16602,0.31054 0.49804,0.30469 0.76758,0.87305 h 0.0117 q 0,-0.11719 0.0117,-0.36328 0.0117,-0.25195 0.0293,-0.47461 0.0176,-0.22266 0.0293,-0.24609 h 1.00195 q -0.0352,0.3164 -0.0352,1.3125 v 4.8457 q 0,1.33594 -0.66211,2.00391 -0.6621,0.66796 -1.99218,0.66796 z m 1.60547,-5.66015 q 0,-1.1543 -0.47461,-1.81641 -0.46875,-0.66797 -1.20118,-0.66797 -0.80859,0 -1.17773,0.58594 -0.36914,0.58594 -0.36914,1.89844 0,1.30078 0.3457,1.86914 0.34571,0.56836 1.1836,0.56836 0.75,0 1.21875,-0.65039 0.47461,-0.65625 0.47461,-1.78711 z"
     id="text28"
     style="font-size:12px;font-family:Helvetica;text-anchor:middle;fill:#616161;fill-opacity:1"
     aria-label="Unit Testing" />
  <path
     d="m 520,380 h 20 v 33.63"
     fill="none"
     stroke="#000000"
     stroke-miterlimit="10"
     pointer-events="stroke"
     style="stroke:#616161;stroke-opacity:1"
     id="path31" />
  <path
     d="m 540,418.88 -3.5,-7 3.5,1.75 3.5,-1.75 z"
     fill="#000000"
     stroke="#000000"
     stroke-miterlimit="10"
     pointer-events="all"
     style="fill:#616161;stroke:#616161;stroke-opacity:1;fill-opacity:1"
     id="path32" />
  <path
     id="rect33"
     style="fill:none;stroke:#616161;stroke-opacity:1"
     d="m 400,350 h 120 v 60 H 400 Z" />
  <path
     d="M 412.80371,375.24414 V 383.5 h -1.11914 v -8.25586 z m 2.99414,4.58203 V 383.5 h -1.05469 v -4.98633 q 0,-0.55664 -0.0117,-0.89062 -0.006,-0.33985 -0.0234,-0.46289 h 0.99609 q 0.0117,0.11132 0.0176,0.28125 0.0117,0.16992 0.0176,0.375 0.006,0.20507 0.0117,0.42773 h 0.0176 q 0.36329,-0.65625 0.8379,-0.92578 0.48046,-0.27539 1.18945,-0.27539 1.04297,0 1.52344,0.5332 0.48632,0.5332 0.48632,1.69922 V 383.5 h -1.06054 v -4.01953 q 0,-0.9082 -0.29297,-1.26563 -0.29297,-0.35742 -1.01367,-0.35742 -0.76172,0 -1.20118,0.52149 -0.43945,0.52148 -0.43945,1.44726 z m 8.0332,3.62695 q -0.51562,0.14063 -1.0664,0.14063 -0.63281,0 -0.94922,-0.35742 -0.31641,-0.36328 -0.31641,-1.07813 v -4.23047 h -0.73242 v -0.76757 h 0.77344 l 0.31055,-1.41797 h 0.70312 v 1.41797 h 1.17188 v 0.76757 h -1.17188 v 4.00196 q 0,0.45703 0.14649,0.64453 0.15234,0.18164 0.52148,0.18164 0.19922,0 0.60937,-0.082 z m 1.70508,-2.90039 q 0,1.08985 0.45117,1.68164 0.45118,0.5918 1.31836,0.5918 0.68555,0 1.09571,-0.27539 0.41601,-0.27539 0.5625,-0.69726 l 0.92578,0.26367 q -0.56836,1.5 -2.58399,1.5 -1.40625,0 -2.14453,-0.83789 -0.73242,-0.83789 -0.73242,-2.49024 0,-1.57031 0.73242,-2.4082 0.73828,-0.83789 2.10352,-0.83789 1.40039,0 2.09765,0.84375 0.69727,0.84375 0.69727,2.52539 v 0.14062 z m 3.4336,-0.80859 q -0.0879,-1.00195 -0.50977,-1.45898 -0.42187,-0.46289 -1.21289,-0.46289 -0.76758,0 -1.21875,0.51562 -0.44531,0.50977 -0.48047,1.40625 z m 4.83398,6.24609 q -1.03711,0 -1.65234,-0.41015 -0.61524,-0.4043 -0.79102,-1.1543 l 1.06055,-0.15234 q 0.10547,0.43945 0.46289,0.67383 0.36328,0.24023 0.94922,0.24023 0.78515,0 1.17773,-0.46289 0.39844,-0.46289 0.39844,-1.38281 v -1.01953 h -0.0117 q -0.29883,0.60937 -0.82031,0.91992 -0.52149,0.30468 -1.21875,0.30468 -1.16602,0 -1.7168,-0.77343 Q 431.0967,382 431.0967,380.3418 q 0,-1.68164 0.58594,-2.47852 0.59179,-0.80273 1.79297,-0.80273 0.67382,0 1.16601,0.31054 0.49805,0.30469 0.76758,0.87305 h 0.0117 q 0,-0.11719 0.0117,-0.36328 0.0117,-0.25195 0.0293,-0.47461 0.0176,-0.22266 0.0293,-0.24609 h 1.00195 q -0.0351,0.3164 -0.0351,1.3125 v 4.8457 q 0,1.33594 -0.66211,2.00391 -0.66211,0.66796 -1.99219,0.66796 z m 1.60547,-5.66015 q 0,-1.1543 -0.47461,-1.81641 -0.46875,-0.66797 -1.20117,-0.66797 -0.8086,0 -1.17774,0.58594 -0.36914,0.58594 -0.36914,1.89844 0,1.30078 0.34571,1.86914 0.3457,0.56836 1.18359,0.56836 0.75,0 1.21875,-0.65039 0.47461,-0.65625 0.47461,-1.78711 z m 3.74414,-0.13477 V 383.5 h -1.05469 v -4.86328 q 0,-0.33399 -0.0117,-0.70313 -0.006,-0.36914 -0.0234,-0.77343 h 0.99609 q 0.0117,0.26953 0.0176,0.48632 0.0117,0.2168 0.0176,0.38086 0.006,0.15821 0.006,0.26953 0.006,0.10547 0.006,0.15821 h 0.0234 q 0.17578,-0.57422 0.38672,-0.89063 0.20508,-0.29297 0.46875,-0.40429 0.26367,-0.11719 0.65039,-0.11719 0.2168,0 0.42774,0.0586 v 0.9668 q -0.19922,-0.0586 -0.5625,-0.0586 -0.65625,0 -1.00196,0.56835 -0.3457,0.5625 -0.3457,1.61719 z m 4.53516,3.42188 q -0.95508,0 -1.43555,-0.50391 -0.48047,-0.50391 -0.48047,-1.38281 0,-0.98438 0.64453,-1.51172 0.65039,-0.52734 2.0918,-0.5625 l 1.42383,-0.0234 v -0.3457 q 0,-0.77344 -0.32813,-1.10742 -0.32812,-0.33399 -1.03125,-0.33399 -0.70898,0 -1.03125,0.24024 -0.32226,0.24023 -0.38672,0.76758 l -1.10156,-0.0996 q 0.26953,-1.71094 2.54297,-1.71094 1.19531,0 1.79883,0.55078 0.60351,0.54492 0.60351,1.58203 v 2.73047 q 0,0.46875 0.12305,0.70898 0.12305,0.23438 0.46875,0.23438 0.16406,0 0.3457,-0.041 v 0.65625 q -0.19922,0.0469 -0.40429,0.0703 -0.20508,0.0234 -0.41016,0.0234 -0.58594,0 -0.85547,-0.30468 -0.26367,-0.31055 -0.29883,-0.9668 h -0.0351 q -0.4043,0.72656 -0.94336,1.03125 -0.53321,0.29883 -1.30078,0.29883 z m 2.24414,-3.2461 -1.1543,0.0234 q -0.73828,0.006 -1.125,0.15234 -0.38672,0.14063 -0.5918,0.4336 -0.20507,0.29297 -0.20507,0.76758 0,0.51562 0.27539,0.79687 0.28125,0.28125 0.79687,0.28125 0.58594,0 1.03125,-0.26367 0.45117,-0.26367 0.70899,-0.7207 0.26367,-0.46289 0.26367,-0.94922 z m 5.25,3.08203 q -0.51563,0.14063 -1.06641,0.14063 -0.63281,0 -0.94922,-0.35742 -0.3164,-0.36328 -0.3164,-1.07813 v -4.23047 h -0.73243 v -0.76757 h 0.77344 l 0.31055,-1.41797 h 0.70312 v 1.41797 h 1.17188 v 0.76757 h -1.17188 v 4.00196 q 0,0.45703 0.14649,0.64453 0.15234,0.18164 0.52148,0.18164 0.19922,0 0.60938,-0.082 z m 1.94531,-8.64843 v 1.00781 h -1.05469 v -1.00781 z m 0,2.35547 V 383.5 h -1.05469 v -6.33984 z m 6.97852,3.16406 q 0,1.66406 -0.73243,2.47851 -0.73242,0.81446 -2.12695,0.81446 -1.38867,0 -2.09766,-0.84375 -0.70898,-0.84961 -0.70898,-2.44922 0,-1.64063 0.70898,-2.46094 0.71485,-0.82031 2.13282,-0.82031 1.45312,0 2.13867,0.80273 0.68555,0.79688 0.68555,2.47852 z m -1.10743,0 q 0,-1.3125 -0.39257,-1.9043 -0.38672,-0.59765 -1.30665,-0.59765 -0.92578,0 -1.34179,0.60937 -0.41016,0.60352 -0.41016,1.89258 0,1.2539 0.4043,1.88672 0.41015,0.62695 1.2832,0.62695 0.94922,0 1.35352,-0.60937 0.41015,-0.60938 0.41015,-1.9043 z m 3.49805,-0.49805 V 383.5 h -1.05469 v -4.98633 q 0,-0.55664 -0.0117,-0.89062 -0.006,-0.33985 -0.0234,-0.46289 h 0.99609 q 0.0117,0.11132 0.0176,0.28125 0.0117,0.16992 0.0176,0.375 0.006,0.20507 0.0117,0.42773 h 0.0176 q 0.36328,-0.65625 0.83789,-0.92578 0.48047,-0.27539 1.18946,-0.27539 1.04297,0 1.52343,0.5332 0.48633,0.5332 0.48633,1.69922 V 383.5 h -1.06054 v -4.01953 q 0,-0.9082 -0.29297,-1.26563 -0.29297,-0.35742 -1.01367,-0.35742 -0.76172,0 -1.20118,0.52149 -0.43945,0.52148 -0.43945,1.44726 z m 12.12305,-3.66797 V 383.5 h -1.11328 v -7.3418 h -2.83594 v -0.91406 h 6.78515 v 0.91406 z m 3.39843,4.39453 q 0,1.08985 0.45118,1.68164 0.45117,0.5918 1.31836,0.5918 0.68554,0 1.0957,-0.27539 0.41601,-0.27539 0.5625,-0.69726 l 0.92578,0.26367 q -0.56836,1.5 -2.58398,1.5 -1.40625,0 -2.14454,-0.83789 -0.73242,-0.83789 -0.73242,-2.49024 0,-1.57031 0.73242,-2.4082 0.73829,-0.83789 2.10352,-0.83789 1.40039,0 2.09766,0.84375 0.69726,0.84375 0.69726,2.52539 v 0.14062 z m 3.4336,-0.80859 q -0.0879,-1.00195 -0.50977,-1.45898 -0.42187,-0.46289 -1.21289,-0.46289 -0.76758,0 -1.21875,0.51562 -0.44531,0.50977 -0.48047,1.40625 z m 7.18945,2.00391 q 0,0.89648 -0.67969,1.38281 -0.67382,0.48633 -1.89257,0.48633 -1.1836,0 -1.82813,-0.38672 -0.63867,-0.39258 -0.83203,-1.21875 l 0.93164,-0.18164 q 0.13477,0.50976 0.55664,0.75 0.42188,0.23437 1.17188,0.23437 0.80273,0 1.17187,-0.24609 0.375,-0.24609 0.375,-0.73828 0,-0.375 -0.25781,-0.60938 -0.25781,-0.23437 -0.83203,-0.38672 -0.67969,-0.18164 -1.08399,-0.29882 -0.39843,-0.11719 -0.61523,-0.19922 -0.2168,-0.0879 -0.3457,-0.16407 -0.38672,-0.22265 -0.60352,-0.54492 -0.2168,-0.32226 -0.2168,-0.79101 0,-0.86719 0.61524,-1.31836 0.62109,-0.45703 1.80468,-0.45703 1.04883,0 1.66407,0.36914 0.62109,0.36914 0.78515,1.18359 l -0.94922,0.11719 q -0.0879,-0.42188 -0.4746,-0.64453 -0.38086,-0.22852 -1.0254,-0.22852 -0.71484,0 -1.05468,0.2168 -0.33985,0.2168 -0.33985,0.65625 0,0.32226 0.19336,0.5332 0.19336,0.20508 0.73828,0.33985 0.73243,0.17578 1.39454,0.38671 0.6621,0.20508 0.94921,0.41016 0.33399,0.24023 0.50391,0.56836 0.17578,0.32227 0.17578,0.7793 z m 3.67969,1.70507 q -0.51563,0.14063 -1.06641,0.14063 -0.63281,0 -0.94922,-0.35742 -0.3164,-0.36328 -0.3164,-1.07813 v -4.23047 h -0.73242 v -0.76757 h 0.77343 l 0.31055,-1.41797 h 0.70313 v 1.41797 h 1.17187 v 0.76757 h -1.17187 v 4.00196 q 0,0.45703 0.14648,0.64453 0.15234,0.18164 0.52148,0.18164 0.19922,0 0.60938,-0.082 z m 1.94531,-8.64843 v 1.00781 h -1.05469 v -1.00781 z m 0,2.35547 V 383.5 h -1.05469 v -6.33984 z m 2.69531,2.66601 V 383.5 h -1.05468 v -4.98633 q 0,-0.55664 -0.0117,-0.89062 -0.006,-0.33985 -0.0234,-0.46289 h 0.99609 q 0.0117,0.11132 0.0176,0.28125 0.0117,0.16992 0.0176,0.375 0.006,0.20507 0.0117,0.42773 h 0.0176 q 0.36328,-0.65625 0.83789,-0.92578 0.48047,-0.27539 1.18945,-0.27539 1.04297,0 1.52344,0.5332 0.48633,0.5332 0.48633,1.69922 V 383.5 h -1.06055 v -4.01953 q 0,-0.9082 -0.29297,-1.26563 -0.29297,-0.35742 -1.01367,-0.35742 -0.76172,0 -1.20117,0.52149 -0.43946,0.52148 -0.43946,1.44726 z m 7.99805,6.16406 q -1.03711,0 -1.65234,-0.41015 -0.61524,-0.4043 -0.79102,-1.1543 l 1.06055,-0.15234 q 0.10547,0.43945 0.46289,0.67383 0.36328,0.24023 0.94922,0.24023 0.78515,0 1.17773,-0.46289 0.39844,-0.46289 0.39844,-1.38281 v -1.01953 h -0.0117 q -0.29883,0.60937 -0.82031,0.91992 -0.52149,0.30468 -1.21875,0.30468 -1.16602,0 -1.7168,-0.77343 -0.54492,-0.77344 -0.54492,-2.43164 0,-1.68164 0.58594,-2.47852 0.59179,-0.80273 1.79297,-0.80273 0.67382,0 1.16601,0.31054 0.49805,0.30469 0.76758,0.87305 h 0.0117 q 0,-0.11719 0.0117,-0.36328 0.0117,-0.25195 0.0293,-0.47461 0.0176,-0.22266 0.0293,-0.24609 h 1.00195 q -0.0351,0.3164 -0.0351,1.3125 v 4.8457 q 0,1.33594 -0.66211,2.00391 -0.66211,0.66796 -1.99219,0.66796 z m 1.60547,-5.66015 q 0,-1.1543 -0.47461,-1.81641 -0.46875,-0.66797 -1.20117,-0.66797 -0.8086,0 -1.17774,0.58594 -0.36914,0.58594 -0.36914,1.89844 0,1.30078 0.34571,1.86914 0.3457,0.56836 1.18359,0.56836 0.75,0 1.21875,-0.65039 0.47461,-0.65625 0.47461,-1.78711 z"
     id="text34"
     style="font-size:12px;font-family:Helvetica;text-anchor:middle;fill:#616161;fill-opacity:1"
     aria-label="Integration Testing" />
  <path
     id="rect37"
     style="fill:none;stroke:#616161;stroke-opacity:1"
     d="m 480,420 h 120 v 60 H 480 Z" />
  <path
     d="M 489.70996,451.08594 488.76074,453.5 h -1.16015 l 3.36914,-8.25586 h 1.27148 l 3.31641,8.25586 h -1.14258 l -0.94336,-2.41406 z m 1.88086,-4.99805 q -0.0996,0.32813 -0.24023,0.73242 -0.13477,0.39844 -0.25196,0.70313 l -1.04883,2.68945 h 3.0879 l -1.06055,-2.72461 q -0.082,-0.20508 -0.2168,-0.58008 -0.13476,-0.375 -0.26953,-0.82031 z m 7.23047,7.5293 q -1.33008,0 -2.0332,-0.83789 -0.69727,-0.84375 -0.69727,-2.45508 0,-1.59961 0.70313,-2.4375 0.70312,-0.84375 2.01562,-0.84375 0.97266,0 1.61133,0.5039 0.64453,0.50391 0.80859,1.38868 l -1.08398,0.082 q -0.082,-0.52735 -0.41602,-0.83789 -0.33398,-0.31055 -0.94922,-0.31055 -0.83789,0 -1.21289,0.55664 -0.375,0.55664 -0.375,1.875 0,1.26563 0.39844,1.875 0.39844,0.60938 1.20117,0.60938 0.5625,0 0.9375,-0.30469 0.38086,-0.30469 0.46875,-0.9375 l 1.06641,0.0703 q -0.082,0.60938 -0.41016,1.06055 -0.32226,0.45117 -0.84375,0.69726 -0.51562,0.2461 -1.18945,0.2461 z m 6,0 q -1.33008,0 -2.0332,-0.83789 -0.69727,-0.84375 -0.69727,-2.45508 0,-1.59961 0.70313,-2.4375 0.70312,-0.84375 2.01562,-0.84375 0.97266,0 1.61133,0.5039 0.64453,0.50391 0.80859,1.38868 l -1.08398,0.082 q -0.082,-0.52735 -0.41602,-0.83789 -0.33398,-0.31055 -0.94922,-0.31055 -0.83789,0 -1.21289,0.55664 -0.375,0.55664 -0.375,1.875 0,1.26563 0.39844,1.875 0.39844,0.60938 1.20117,0.60938 0.5625,0 0.9375,-0.30469 0.38086,-0.30469 0.46875,-0.9375 l 1.06641,0.0703 q -0.082,0.60938 -0.41016,1.06055 -0.32226,0.45117 -0.84375,0.69726 -0.51562,0.2461 -1.18945,0.2461 z m 4.37695,-3.06446 q 0,1.08985 0.45117,1.68164 0.45118,0.5918 1.31836,0.5918 0.68555,0 1.09571,-0.27539 0.41601,-0.27539 0.5625,-0.69726 l 0.92578,0.26367 q -0.56836,1.5 -2.58399,1.5 -1.40625,0 -2.14453,-0.83789 -0.73242,-0.83789 -0.73242,-2.49024 0,-1.57031 0.73242,-2.4082 0.73828,-0.83789 2.10352,-0.83789 1.40039,0 2.09765,0.84375 0.69727,0.84375 0.69727,2.52539 v 0.14062 z m 3.4336,-0.80859 q -0.0879,-1.00195 -0.50977,-1.45898 -0.42187,-0.46289 -1.21289,-0.46289 -0.76758,0 -1.21875,0.51562 -0.44531,0.50977 -0.48047,1.40625 z m 7.79296,0.55664 q 0,1.6582 -0.58593,2.49024 -0.58008,0.82617 -1.7461,0.82617 -1.46484,0 -1.96875,-1.10157 h -0.0293 q 0.0234,0.041 0.0234,0.9961 v 2.47851 h -1.05468 v -7.53515 q 0,-0.48633 -0.0117,-0.8086 -0.006,-0.32812 -0.0234,-0.48632 h 1.01953 q 0.006,0.0234 0.0176,0.22851 0.0176,0.20508 0.0293,0.44531 0.0117,0.23438 0.0117,0.34571 h 0.0234 q 0.28125,-0.58594 0.74414,-0.85547 0.46289,-0.27539 1.21875,-0.27539 1.17188,0 1.75196,0.78515 0.58007,0.78516 0.58007,2.4668 z m -1.10742,0.0234 q 0,-1.32422 -0.35742,-1.89258 -0.35742,-0.56836 -1.13672,-0.56836 -0.86719,0 -1.28906,0.60352 -0.41602,0.59765 -0.41602,1.93945 0,1.24805 0.39844,1.83984 0.39844,0.5918 1.29492,0.5918 0.78516,0 1.14258,-0.57422 0.36328,-0.58008 0.36328,-1.93945 z m 4.85742,3.1289 q -0.51562,0.14063 -1.0664,0.14063 -0.63281,0 -0.94922,-0.35742 -0.31641,-0.36328 -0.31641,-1.07813 v -4.23047 h -0.73242 v -0.76757 h 0.77344 l 0.31055,-1.41797 h 0.70312 v 1.41797 h 1.17188 v 0.76757 h -1.17188 v 4.00196 q 0,0.45703 0.14649,0.64453 0.15234,0.18164 0.52148,0.18164 0.19922,0 0.60937,-0.082 z m 2.51368,0.16407 q -0.95508,0 -1.43555,-0.50391 -0.48047,-0.50391 -0.48047,-1.38281 0,-0.98438 0.64453,-1.51172 0.65039,-0.52734 2.0918,-0.5625 l 1.42383,-0.0234 v -0.3457 q 0,-0.77344 -0.32813,-1.10742 -0.32812,-0.33399 -1.03125,-0.33399 -0.70898,0 -1.03125,0.24024 -0.32226,0.24023 -0.38672,0.76758 l -1.10156,-0.0996 q 0.26953,-1.71094 2.54297,-1.71094 1.19531,0 1.79883,0.55078 0.60351,0.54492 0.60351,1.58203 v 2.73047 q 0,0.46875 0.12305,0.70898 0.12305,0.23438 0.46875,0.23438 0.16406,0 0.3457,-0.041 v 0.65625 q -0.19922,0.0469 -0.40429,0.0703 -0.20508,0.0234 -0.41016,0.0234 -0.58594,0 -0.85547,-0.30468 -0.26367,-0.31055 -0.29883,-0.9668 h -0.0351 q -0.4043,0.72656 -0.94336,1.03125 -0.53321,0.29883 -1.30078,0.29883 z m 2.24414,-3.2461 -1.1543,0.0234 q -0.73828,0.006 -1.125,0.15234 -0.38672,0.14063 -0.5918,0.4336 -0.20507,0.29297 -0.20507,0.76758 0,0.51562 0.27539,0.79687 0.28125,0.28125 0.79687,0.28125 0.58594,0 1.03125,-0.26367 0.45117,-0.26367 0.70899,-0.7207 0.26367,-0.46289 0.26367,-0.94922 z m 3.89062,-0.54492 V 453.5 h -1.05469 v -4.98633 q 0,-0.55664 -0.0117,-0.89062 -0.006,-0.33985 -0.0234,-0.46289 h 0.99609 q 0.0117,0.11132 0.0176,0.28125 0.0117,0.16992 0.0176,0.375 0.006,0.20507 0.0117,0.42773 h 0.0176 q 0.36328,-0.65625 0.83789,-0.92578 0.48046,-0.27539 1.18945,-0.27539 1.04297,0 1.52344,0.5332 0.48632,0.5332 0.48632,1.69922 V 453.5 h -1.06054 v -4.01953 q 0,-0.9082 -0.29297,-1.26563 -0.29297,-0.35742 -1.01367,-0.35742 -0.76172,0 -1.20117,0.52149 -0.43946,0.52148 -0.43946,1.44726 z m 8.02735,3.79102 q -1.33008,0 -2.03321,-0.83789 -0.69726,-0.84375 -0.69726,-2.45508 0,-1.59961 0.70312,-2.4375 0.70313,-0.84375 2.01563,-0.84375 0.97265,0 1.61133,0.5039 0.64453,0.50391 0.80859,1.38868 l -1.08399,0.082 q -0.082,-0.52735 -0.41601,-0.83789 -0.33399,-0.31055 -0.94922,-0.31055 -0.83789,0 -1.21289,0.55664 -0.375,0.55664 -0.375,1.875 0,1.26563 0.39844,1.875 0.39843,0.60938 1.20117,0.60938 0.5625,0 0.9375,-0.30469 0.38086,-0.30469 0.46875,-0.9375 l 1.06641,0.0703 q -0.082,0.60938 -0.41016,1.06055 -0.32227,0.45117 -0.84375,0.69726 -0.51563,0.2461 -1.18945,0.2461 z m 4.37695,-3.06446 q 0,1.08985 0.45117,1.68164 0.45117,0.5918 1.31836,0.5918 0.68555,0 1.0957,-0.27539 0.41602,-0.27539 0.5625,-0.69726 l 0.92578,0.26367 q -0.56835,1.5 -2.58398,1.5 -1.40625,0 -2.14453,-0.83789 -0.73242,-0.83789 -0.73242,-2.49024 0,-1.57031 0.73242,-2.4082 0.73828,-0.83789 2.10351,-0.83789 1.4004,0 2.09766,0.84375 0.69727,0.84375 0.69727,2.52539 v 0.14062 z m 3.43359,-0.80859 q -0.0879,-1.00195 -0.50976,-1.45898 -0.42188,-0.46289 -1.21289,-0.46289 -0.76758,0 -1.21875,0.51562 -0.44532,0.50977 -0.48047,1.40625 z m 8.95899,-3.58594 V 453.5 h -1.11328 v -7.3418 h -2.83594 v -0.91406 h 6.78515 v 0.91406 z m 3.39843,4.39453 q 0,1.08985 0.45118,1.68164 0.45117,0.5918 1.31836,0.5918 0.68554,0 1.0957,-0.27539 0.41601,-0.27539 0.5625,-0.69726 l 0.92578,0.26367 q -0.56836,1.5 -2.58398,1.5 -1.40625,0 -2.14454,-0.83789 -0.73242,-0.83789 -0.73242,-2.49024 0,-1.57031 0.73242,-2.4082 0.73829,-0.83789 2.10352,-0.83789 1.40039,0 2.09766,0.84375 0.69726,0.84375 0.69726,2.52539 v 0.14062 z m 3.4336,-0.80859 q -0.0879,-1.00195 -0.50977,-1.45898 -0.42187,-0.46289 -1.21289,-0.46289 -0.76758,0 -1.21875,0.51562 -0.44531,0.50977 -0.48047,1.40625 z m 7.18945,2.00391 q 0,0.89648 -0.67969,1.38281 -0.67382,0.48633 -1.89257,0.48633 -1.1836,0 -1.82813,-0.38672 -0.63867,-0.39258 -0.83203,-1.21875 l 0.93164,-0.18164 q 0.13477,0.50976 0.55664,0.75 0.42188,0.23437 1.17188,0.23437 0.80273,0 1.17187,-0.24609 0.375,-0.24609 0.375,-0.73828 0,-0.375 -0.25781,-0.60938 -0.25781,-0.23437 -0.83203,-0.38672 -0.67969,-0.18164 -1.08399,-0.29882 -0.39843,-0.11719 -0.61523,-0.19922 -0.2168,-0.0879 -0.3457,-0.16407 -0.38672,-0.22265 -0.60352,-0.54492 -0.2168,-0.32226 -0.2168,-0.79101 0,-0.86719 0.61524,-1.31836 0.62109,-0.45703 1.80468,-0.45703 1.04883,0 1.66407,0.36914 0.62109,0.36914 0.78515,1.18359 l -0.94922,0.11719 q -0.0879,-0.42188 -0.4746,-0.64453 -0.38086,-0.22852 -1.0254,-0.22852 -0.71484,0 -1.05468,0.2168 -0.33985,0.2168 -0.33985,0.65625 0,0.32226 0.19336,0.5332 0.19336,0.20508 0.73828,0.33985 0.73243,0.17578 1.39454,0.38671 0.6621,0.20508 0.94921,0.41016 0.33399,0.24023 0.50391,0.56836 0.17578,0.32227 0.17578,0.7793 z m 3.67969,1.70507 q -0.51563,0.14063 -1.06641,0.14063 -0.63281,0 -0.94922,-0.35742 -0.3164,-0.36328 -0.3164,-1.07813 v -4.23047 h -0.73242 v -0.76757 h 0.77343 l 0.31055,-1.41797 h 0.70313 v 1.41797 h 1.17187 v 0.76757 h -1.17187 v 4.00196 q 0,0.45703 0.14648,0.64453 0.15234,0.18164 0.52148,0.18164 0.19922,0 0.60938,-0.082 z m 1.94531,-8.64843 v 1.00781 h -1.05469 v -1.00781 z m 0,2.35547 V 453.5 h -1.05469 v -6.33984 z m 2.69531,2.66601 V 453.5 h -1.05468 v -4.98633 q 0,-0.55664 -0.0117,-0.89062 -0.006,-0.33985 -0.0234,-0.46289 h 0.99609 q 0.0117,0.11132 0.0176,0.28125 0.0117,0.16992 0.0176,0.375 0.006,0.20507 0.0117,0.42773 h 0.0176 q 0.36328,-0.65625 0.83789,-0.92578 0.48047,-0.27539 1.18945,-0.27539 1.04297,0 1.52344,0.5332 0.48633,0.5332 0.48633,1.69922 V 453.5 h -1.06055 v -4.01953 q 0,-0.9082 -0.29297,-1.26563 -0.29297,-0.35742 -1.01367,-0.35742 -0.76172,0 -1.20117,0.52149 -0.43946,0.52148 -0.43946,1.44726 z m 7.99805,6.16406 q -1.03711,0 -1.65234,-0.41015 -0.61524,-0.4043 -0.79102,-1.1543 l 1.06055,-0.15234 q 0.10547,0.43945 0.46289,0.67383 0.36328,0.24023 0.94922,0.24023 0.78515,0 1.17773,-0.46289 0.39844,-0.46289 0.39844,-1.38281 v -1.01953 h -0.0117 q -0.29883,0.60937 -0.82031,0.91992 -0.52149,0.30468 -1.21875,0.30468 -1.16602,0 -1.7168,-0.77343 -0.54492,-0.77344 -0.54492,-2.43164 0,-1.68164 0.58594,-2.47852 0.59179,-0.80273 1.79297,-0.80273 0.67382,0 1.16601,0.31054 0.49805,0.30469 0.76758,0.87305 h 0.0117 q 0,-0.11719 0.0117,-0.36328 0.0117,-0.25195 0.0293,-0.47461 0.0176,-0.22266 0.0293,-0.24609 h 1.00195 q -0.0352,0.3164 -0.0352,1.3125 v 4.8457 q 0,1.33594 -0.66211,2.00391 -0.66211,0.66796 -1.99219,0.66796 z m 1.60547,-5.66015 q 0,-1.1543 -0.47461,-1.81641 -0.46875,-0.66797 -1.20117,-0.66797 -0.8086,0 -1.17774,0.58594 -0.36914,0.58594 -0.36914,1.89844 0,1.30078 0.34571,1.86914 0.3457,0.56836 1.18359,0.56836 0.75,0 1.21875,-0.65039 0.47461,-0.65625 0.47461,-1.78711 z"
     id="text38"
     style="font-size:12px;font-family:Helvetica;text-anchor:middle;fill:#616161;fill-opacity:1"
     aria-label="Acceptance Testing" />
</svg>
