<svg xmlns="http://www.w3.org/2000/svg" xml:space="preserve" viewBox="0 0 733.159 282.124">
  <g transform="rotate(45 634.986 419.926)scale(4.46758)">
    <path d="M9.948 120.947v10" class="stroke-comment fill-comment" style="fill:none;stroke:#616161;stroke-width:.944882;stroke-dasharray:none;stroke-opacity:1"/>
    <circle cx="9.948" cy="120.947" r="1.89" class="stroke-comment fill-comment" style="fill:#616161;fill-opacity:1;stroke:none;stroke-width:.122889;stroke-dasharray:none;stroke-opacity:1"/>
  </g>
  <g transform="rotate(45 580.464 397.347)scale(4.46758)">
    <path d="M9.948 120.947v10" class="stroke-comment fill-comment" style="fill:none;stroke:#616161;stroke-width:.944882;stroke-dasharray:none;stroke-opacity:1"/>
    <circle cx="9.948" cy="120.947" r="1.89" class="stroke-comment fill-comment" style="fill:#616161;fill-opacity:1;stroke:none;stroke-width:.122889;stroke-dasharray:none;stroke-opacity:1"/>
  </g>
  <g transform="rotate(45 527.724 375.5)scale(4.46758)">
    <path d="M9.948 120.947v10" class="stroke-comment fill-comment" style="fill:none;stroke:#616161;stroke-width:.944882;stroke-dasharray:none;stroke-opacity:1"/>
    <circle cx="9.948" cy="120.947" r="1.89" class="stroke-comment fill-comment" style="fill:#616161;fill-opacity:1;stroke:none;stroke-width:.122889;stroke-dasharray:none;stroke-opacity:1"/>
  </g>
  <g class="stroke-blue fill-blue stroke-blue" style="fill:#0074d9;stroke:#0074d9" transform="rotate(-135 -41.618 383.092)scale(4.46758)">
    <path d="M9.948 120.947v10" class="stroke-blue fill-blue stroke-blue" style="fill:#0074d9;stroke:#0074d9;stroke-width:.944882;stroke-dasharray:none;stroke-opacity:1"/>
    <circle cx="9.948" cy="120.947" r="1.89" class="stroke-blue fill-blue stroke-blue" style="fill:#0074d9;fill-opacity:1;stroke:#0074d9;stroke-width:.122889;stroke-dasharray:none;stroke-opacity:1"/>
  </g>
  <g style="fill:#ff4136;stroke:#ff4136" transform="rotate(-135 -32.366 360.754)scale(4.46758)">
    <path d="M9.948 120.947v10" style="fill:#ff4136;stroke:#ff4136;stroke-width:.944882;stroke-dasharray:none;stroke-opacity:1"/>
    <circle cx="9.948" cy="120.947" r="1.89" style="fill:#ff4136;fill-opacity:1;stroke:#ff4136;stroke-width:.122889;stroke-dasharray:none;stroke-opacity:1"/>
  </g>
  <g class="stroke-orange fill-orange stroke-orange" style="fill:#39cccc;stroke:#39cccc" transform="rotate(-135 -23.835 340.156)scale(4.46758)">
    <path d="M9.948 120.947v10" class="stroke-orange fill-orange stroke-orange" style="fill:#39cccc;stroke:#39cccc;stroke-width:.944882;stroke-dasharray:none;stroke-opacity:1"/>
    <circle cx="9.948" cy="120.947" r="1.89" class="stroke-orange fill-orange stroke-orange" style="fill:#39cccc;fill-opacity:1;stroke:#39cccc;stroke-width:.122889;stroke-dasharray:none;stroke-opacity:1"/>
  </g>
  <g class="stroke-teal fill-teal stroke-teal" style="fill:#ff851b;stroke:#ff851b" transform="rotate(-135 -14.786 318.312)scale(4.46758)">
    <path d="M9.948 120.947v10" class="stroke-teal fill-teal stroke-teal" style="fill:#ff851b;stroke:#ff851b;stroke-width:.944882;stroke-dasharray:none;stroke-opacity:1"/>
    <circle cx="9.948" cy="120.947" r="1.89" class="stroke-teal fill-teal stroke-teal" style="fill:#ff851b;fill-opacity:1;stroke:#ff851b;stroke-width:.122889;stroke-dasharray:none;stroke-opacity:1"/>
  </g>
  <g class="stroke-green fill-green stroke-green" style="fill:#2ecc40;stroke:#2ecc40" transform="rotate(-135 -5.431 295.728)scale(4.46758)">
    <path d="M9.948 120.947v10" class="stroke-green fill-green stroke-green" style="fill:#2ecc40;stroke:#2ecc40;stroke-width:.944882;stroke-dasharray:none;stroke-opacity:1"/>
    <circle cx="9.948" cy="120.947" r="1.89" class="stroke-green fill-green stroke-green" style="fill:#2ecc40;fill-opacity:1;stroke:#2ecc40;stroke-width:.122889;stroke-dasharray:none;stroke-opacity:1"/>
  </g>
  <text x="95.68" y="14.408" class="stroke-foreground fill-foreground" style="font-style:normal;font-variant:normal;font-weight:400;font-stretch:normal;font-size:15.0136px;font-family:Inter;-inkscape-font-specification:Inter;fill:#616161;stroke:none;stroke-width:1.32994;stroke-miterlimit:4.1;stroke-dasharray:none" transform="translate(0 29.774)scale(1.7453)">     <tspan x="95.68" y="14.408" style="font-style:normal;font-variant:normal;font-weight:400;font-stretch:normal;font-family:Inter;-inkscape-font-specification:Inter;fill:#616161;stroke:none;stroke-width:1.32994"><tspan class="stroke-comment fill-comment stroke-comment" style="font-style:normal;font-variant:normal;font-weight:400;font-stretch:normal;font-family:Inter;-inkscape-font-specification:Inter;fill:#616161;stroke:none;stroke-width:1.32994">&#953;</tspan> </tspan>  </text>
  <text x="45.294" y="86.639" class="stroke-foreground fill-foreground" style="font-style:normal;font-variant:normal;font-weight:400;font-stretch:normal;font-size:15.0136px;font-family:Inter;-inkscape-font-specification:Inter;fill:#616161;stroke:none;stroke-width:1.32994;stroke-miterlimit:4.1;stroke-dasharray:none" transform="translate(0 29.774)scale(1.7453)">     <tspan x="45.294" y="86.639" class="stroke-comment fill-comment" style="font-style:normal;font-variant:normal;font-weight:400;font-stretch:normal;font-family:Inter;-inkscape-font-specification:Inter;fill:#616161;stroke:none;stroke-width:1.32994">3</tspan>  </text>
  <text x="10.445" y="121.171" class="stroke-foreground fill-foreground" style="font-style:normal;font-variant:normal;font-weight:400;font-stretch:normal;font-size:15.0136px;font-family:Inter;-inkscape-font-specification:Inter;fill:#616161;stroke:none;stroke-width:1.32994;stroke-miterlimit:4.1;stroke-dasharray:none" transform="translate(0 29.774)scale(1.7453)">     <tspan x="10.445" y="121.171" class="stroke-comment fill-comment" style="font-style:normal;font-variant:normal;font-weight:400;font-stretch:normal;font-family:Inter;-inkscape-font-specification:Inter;fill:#616161;stroke:none;stroke-width:1.32994">3</tspan>  </text>
  <text x="23.728" y="102.446" class="stroke-foreground fill-foreground" style="font-style:normal;font-variant:normal;font-weight:400;font-stretch:normal;font-size:15.0136px;font-family:Inter;-inkscape-font-specification:Inter;fill:#616161;stroke:none;stroke-width:1.32994;stroke-miterlimit:4.1;stroke-dasharray:none" transform="translate(0 29.774)scale(1.7453)">     <tspan x="23.728" y="102.446" class="stroke-comment fill-comment" style="font-style:normal;font-variant:normal;font-weight:400;font-stretch:normal;font-family:Inter;-inkscape-font-specification:Inter;fill:#616161;stroke:none;stroke-width:1.32994">-2</tspan>  </text>
  <text x="81.246" y="50.639" class="stroke-foreground fill-foreground" style="font-style:normal;font-variant:normal;font-weight:400;font-stretch:normal;font-size:15.0136px;font-family:Inter;-inkscape-font-specification:Inter;fill:#616161;stroke:none;stroke-width:1.32994;stroke-miterlimit:4.1;stroke-dasharray:none" transform="translate(0 29.774)scale(1.7453)">     <tspan x="81.246" y="50.639" class="stroke-comment fill-comment" style="font-style:normal;font-variant:normal;font-weight:400;font-stretch:normal;font-family:Inter;-inkscape-font-specification:Inter;fill:#616161;stroke:none;stroke-width:1.32994">3</tspan>  </text>
  <text x="57.965" y="68.736" class="stroke-foreground fill-foreground" style="font-style:normal;font-variant:normal;font-weight:400;font-stretch:normal;font-size:15.0136px;font-family:Inter;-inkscape-font-specification:Inter;fill:#616161;stroke:none;stroke-width:1.32994;stroke-miterlimit:4.1;stroke-dasharray:none" transform="translate(0 29.774)scale(1.7453)">     <tspan x="57.965" y="68.736" class="stroke-comment fill-comment" style="font-style:normal;font-variant:normal;font-weight:400;font-stretch:normal;font-family:Inter;-inkscape-font-specification:Inter;fill:#616161;stroke:none;stroke-width:1.32994">-2</tspan>  </text>
  <g style="display:inline">
    <path d="M46.365 114.992a84 84 0 0 0 2.395-.068c.89-.038 1.949-2.139 2.31-2.647.812.624 2.063 2.477 2.897 2.38 1.704-.885 1.624-2.653 2.035-2.912.774.173 2.298 2.09 3.075 1.903.982-.236 1.722-2.457 1.745-3.035.864.393 2.574 1.483 3.128 1.043.626-.496.994-1.049 1.05-1.656v-5c-.095.902-.947 1.689-2.343 2.355-1.754 1.365-1.406 2.952-1.826 3.25-.531-.047-2.123-1.955-2.911-1.792-.737.153-1.634 1.968-1.923 2.915-.84-.368-1.826-2.151-2.598-2.065-1.549.574-1.868 2.06-2.337 2.602-.811-.24-1.652-2.412-2.441-2.375q-1.007.047-2.027.07m-5.056-.04c-8.235-.318-15.675-1.9-16.538-4.92v5c.436 2.902 7.963 4.542 16.374 4.917" class="stroke-green fill-green" style="display:inline;fill:#2ecc40;fill-opacity:.331667;stroke:none;stroke-width:.264999;stroke-dasharray:none;stroke-opacity:1" transform="translate(190.249 -292.765)scale(3.53036)"/>
    <path d="M53.617 105.467c6.085.74 10.861 2.268 11.383 4.533v-5c-.251-2.216-5.002-3.738-11.15-4.479m-5.081-.42C38.177 99.585 26.114 101.1 25 105v5c.947-3.9 13-5.477 23.639-4.95" class="stroke-green fill-green" style="display:inline;fill:#2ecc40;fill-opacity:.331667;stroke:none;stroke-width:.264999;stroke-dasharray:none;stroke-opacity:1" transform="translate(190.249 -292.765)scale(3.53036)"/>
    <path d="M63.47 108.079c.986.591 1.53 1.24 1.53 1.921 0 .594-.414 1.164-1.174 1.692m-15.19 3.226q-1.115.052-2.27.07m-5.01-.07C32.05 114.487 25 112.45 25 110c0-.656.505-1.283 1.424-1.857m2.445-1.099C32.509 105.804 38.379 105 45 105c1.216 0 2.407.027 3.563.08m5.05.406c3.01.36 5.605.902 7.554 1.57" class="stroke-green fill-green" style="display:inline;fill:none;stroke:#2ecc40;stroke-width:.264999;stroke-opacity:1" transform="translate(190.249 -292.765)scale(3.53036)"/>
    <path d="M41.533 109.925C32.14 109.515 25 107.465 25 105c0-2.761 8.954-5 20-5 1.27 0 2.512.03 3.716.086m5.088.423C60.435 101.323 65 103.03 65 105c0 .773-1.117 1.742-2.369 2.395m-13.95 2.518a93 93 0 0 1-2.084.071" class="stroke-green fill-green" style="display:inline;fill:none;stroke:#2ecc40;stroke-width:.264999;stroke-opacity:1" transform="translate(190.249 -292.765)scale(3.53036)"/>
    <path d="M25 105v5m40-5v5" class="stroke-green fill-green" style="display:inline;fill:none;fill-opacity:1;stroke:#2ecc40;stroke-width:.264999;stroke-dasharray:none;stroke-opacity:1" transform="translate(190.249 -292.765)scale(3.53036)"/>
  </g>
  <g style="display:inline">
    <path d="M32.258 108.89c-3.927-.816-6.747-2.1-7.258-3.89v5c.275 1.83 3.048 3.04 7.508 3.876m4.964.77c3.807.392 8.028.487 11.998.288.911-.045 2.052-1.742 2.55-2.805 1.133.506 2.316 2.405 3.329 2.261 1.02-.145 2.003-2.196 2.466-2.982.862-.128 2.696 1.832 3.623 1.494 2.132-.777 3.45-1.683 3.562-2.902v-5c-.14 1.336-1.945 2.42-4.717 3.232-.85.249-1.786 1.539-2.452 3.182-.873-.539-2.539-2.507-3.109-2.078-1.688.38-2.263 1.997-2.708 2.788-.742-.373-2.121-2.456-2.964-2.255-3.942.206-8.104.13-11.841-.244" class="stroke-teal fill-teal" style="display:inline;fill:#ff851b;fill-opacity:.766511;stroke:none;stroke-width:.264999;stroke-dasharray:none;stroke-opacity:1" transform="scale(3.53036 -3.53036)rotate(88.072 139.48 64.084)"/>
    <path d="M42.076 100.046C33.63 100.32 25.882 101.912 25 105v5c.757-3.117 8.4-4.738 16.955-4.999m4.997-.017c8.934.253 17.346 1.967 18.048 5.016v-5c-.338-2.982-8.825-4.708-17.903-4.964" class="stroke-teal fill-teal" style="display:inline;fill:#ff851b;fill-opacity:.766511;stroke:none;stroke-width:.264999;stroke-dasharray:none;stroke-opacity:1" transform="scale(3.53036 -3.53036)rotate(88.072 139.48 64.084)"/>
    <path d="M63.47 108.079c.986.591 1.53 1.24 1.53 1.921 0 1.033-1.372 2.032-3.517 2.829m-12.116 2.06A90 90 0 0 1 45 115c-2.585 0-5.249-.145-7.516-.368m-5.007-.742C28.09 112.98 25 111.553 25 110c0-.656.505-1.283 1.424-1.857m2.445-1.099c3.067-1.044 7.716-1.78 13.064-1.986m5.059-.032c5.799.147 10.915.913 14.175 2.03" class="stroke-teal fill-teal" style="display:inline;fill:none;stroke:#ff851b;stroke-width:.264999;stroke-opacity:1" transform="scale(3.53036 -3.53036)rotate(88.072 139.48 64.084)"/>
    <path d="M47.105 100.027C57.16 100.29 65 102.417 65 105c0 1.238-1.8 2.372-4.783 3.245m-11.309 1.66c-1.264.062-2.57.095-3.908.095-2.61 0-5.475-.214-7.76-.442m-5.049-.724C27.88 107.942 25 106.548 25 105c0-2.511 7.406-4.59 17.057-4.946" class="stroke-teal fill-teal" style="display:inline;fill:none;stroke:#ff851b;stroke-width:.264999;stroke-opacity:1" transform="scale(3.53036 -3.53036)rotate(88.072 139.48 64.084)"/>
    <path d="M25 105v5m40-5v5" class="stroke-teal fill-teal" style="display:inline;fill:none;fill-opacity:1;stroke:#ff851b;stroke-width:.264999;stroke-dasharray:none;stroke-opacity:1" transform="scale(3.53036 -3.53036)rotate(88.072 139.48 64.084)"/>
    <path d="M42.075 100.077c2.384-.019 2.745-.128 5.04-.085-.135 1.711-.117 3.35-.14 5.029-2.422-.004-2.698-.01-5.04.02.069-1.684.06-3.3.149-5.014z" class="stroke-comment fill-comment stroke-comment" style="display:inline;fill:#616161;fill-opacity:.333333;stroke:#ff851b;stroke-width:.0649999;stroke-dasharray:none;stroke-opacity:1" transform="scale(3.53036 -3.53036)rotate(88.072 139.48 64.084)"/>
  </g>
  <g style="display:inline">
    <g style="display:inline">
      <path d="M46.365 114.992q1.157-.016 2.3-.064c.915-.037 2.028-1.717 2.403-2.643.65.724 2.019 2.487 2.824 2.394.932-.106 1.766-2.114 2.06-2.991 1.358.609 1.492 1.808 3.131 2.001 1.037-.354 1.522-1.783 1.712-3.04 1.298.648 2.553 1.38 3.145 1.004.665-.423.997-1.065 1.06-1.653v-5c0 1.1-1.228 1.729-2.383 2.369-1.902 1.625-1.285 2.748-1.83 3.286-2.038-1.217-1.593-1.8-2.762-1.844-.851-.126-1.567 1.704-2.073 2.877-.714-.21-1.88-2.06-2.673-1.97-1.344.146-1.645 1.968-2.211 2.567-.713-.043-1.747-2.427-2.548-2.39q-.957.043-1.926.065m-5.056-.04c-8.235-.318-15.675-1.9-16.538-4.92v5c.436 2.902 7.963 4.542 16.374 4.917" class="stroke-orange fill-orange" style="display:inline;fill:#39cccc;fill-opacity:.331667;stroke:none;stroke-width:.264999;stroke-dasharray:none;stroke-opacity:1" transform="translate(130.233 -225.687)scale(3.53036)"/>
      <path d="M54.25 105.547c5.78.767 10.247 2.267 10.75 4.453v-5c-.253-2.23-5.065-3.758-11.274-4.494m-5.1-.412C38.07 99.599 26.11 101.118 25 105v5c.964-3.971 13.452-5.535 24.23-4.919" class="stroke-orange fill-orange" style="display:inline;fill:#7fdbff;fill-opacity:.331667;stroke:none;stroke-width:.264999;stroke-dasharray:none;stroke-opacity:1" transform="translate(130.233 -225.687)scale(3.53036)"/>
      <path d="M63.47 108.079c.986.591 1.53 1.24 1.53 1.921 0 .58-.394 1.136-1.119 1.653m-15.231 3.264q-1.122.051-2.284.072m-5.01-.072C32.05 114.49 25 112.45 25 110c0-.656.505-1.283 1.424-1.857m2.445-1.099C32.509 105.804 38.379 105 45 105c1.446 0 2.856.038 4.215.111m5.044.456c2.736.358 5.1.87 6.908 1.489" class="stroke-orange fill-orange" style="display:inline;fill:none;stroke:#39cccc;stroke-width:.264999;stroke-opacity:1" transform="translate(130.233 -225.687)scale(3.53036)"/>
      <path d="M41.533 109.925C32.14 109.515 25 107.465 25 105c0-2.761 8.954-5 20-5q1.867 0 3.642.083m5.062.414C60.389 101.307 65 103.02 65 105c0 .857-.863 1.664-2.383 2.369m-14.079 2.553q-.956.043-1.94.062" class="stroke-orange fill-orange" style="display:inline;fill:none;stroke:#39cccc;stroke-width:.264999;stroke-opacity:1" transform="translate(130.233 -225.687)scale(3.53036)"/>
      <path d="M25 105v5m40-5v5" class="stroke-orange fill-orange" style="display:inline;fill:none;fill-opacity:1;stroke:#39cccc;stroke-width:.264999;stroke-dasharray:none;stroke-opacity:1" transform="translate(130.233 -225.687)scale(3.53036)"/>
    </g>
    <path d="M88.121 161.956c1.239.674 1.372 1.045 2.326.761m-7.18.489c1.184.768 1.485 1.739 2.45 1.495v0c1.93-.488 1.583-5.715 3.49-6.283m-13.956 7.51c1.99-.024 2.687-4.955 4.662-5.199v0c.988-.122 1.037.866 2.188 1.683m-3.826 1.498c1.062.928 1.263 1.903 2.25 1.781v0c1.976-.244 2.035-5.348 3.965-5.837v0c.964-.244 1.153.753 2.392 1.427m-11.635-.35c.995-.011.903 1.123 1.966 2.051" class="stroke-orange fill-orange" style="display:inline;fill:none;fill-opacity:1;stroke:#39cccc;stroke-width:.264999;stroke-linecap:round;stroke-dasharray:none;stroke-opacity:1" transform="translate(36.205 -405.777)scale(3.53036)"/>
    <g style="display:inline" transform="scale(3.53036 -3.53036)rotate(88.072 140.806 45.793)">
      <path d="M36.516 114.519c3.982.437 8.513.543 12.768.321.995-.051 2.519-1.799 2.733-2.681 1.11.233 2.288 2.255 3.272 2.114 1.152-.166 2.256-1.422 2.62-2.931 1.157.14 2.108 1.904 3.668 1.456 2.048-.587 3.317-1.64 3.423-2.798v-5c-.142 1.356-2.167 2.01-4.844 3.27-1.632.767-1.614 1.89-2.247 3.072-.552-.243-2.205-2.123-3.224-1.985-.876.117-2.096 1.793-2.668 2.802-.896-.64-2.082-2.334-3.128-2.282-4.213.211-8.667.103-12.577-.349m-5.032-.857c-3.412-.82-5.812-2.034-6.28-3.671v5c.249 1.659 2.808 2.899 6.521 3.723" style="display:inline;fill:#ff4136;fill-opacity:.766511;stroke:none;stroke-width:.264999;stroke-dasharray:none;stroke-opacity:1"/>
      <path d="M42.076 100.046C33.63 100.32 25.882 101.912 25 105v5c.757-3.117 8.4-4.738 16.955-4.999m4.997-.017c8.934.253 17.346 1.967 18.048 5.016v-5c-.338-2.982-8.825-4.708-17.903-4.964" style="display:inline;fill:#ff4136;fill-opacity:.766511;stroke:none;stroke-width:.264999;stroke-dasharray:none;stroke-opacity:1"/>
      <path d="M63.47 108.079c.986.591 1.53 1.24 1.53 1.921 0 1.037-1.262 2-3.423 2.798m-12.174 2.08c-1.417.08-2.89.122-4.403.122-2.95 0-5.75-.16-8.27-.446l-.152-.018m-5.041-.839q-.105-.023-.209-.048C27.433 112.737 25 111.44 25 110c0-.656.505-1.283 1.424-1.857m2.445-1.099c3.067-1.044 7.716-1.78 13.064-1.986m5.059-.032c5.799.147 10.915.913 14.175 2.03" style="display:inline;fill:none;stroke:#ff4136;stroke-width:.264999;stroke-opacity:1"/>
      <path d="M47.105 100.027C57.16 100.29 65 102.417 65 105c0 1.22-1.748 2.338-4.652 3.206m-11.398 1.696A79 79 0 0 1 45 110c-3.13 0-6.092-.18-8.73-.5m-5.045-.875-.131-.031C27.336 107.684 25 106.41 25 105c0-2.511 7.406-4.59 17.057-4.946" style="display:inline;fill:none;stroke:#ff4136;stroke-width:.264999;stroke-opacity:1"/>
      <path d="M25 105v5m40-5v5" style="display:inline;fill:none;fill-opacity:1;stroke:#ff4136;stroke-width:.264999;stroke-dasharray:none;stroke-opacity:1"/>
      <path d="M42.084 100.027c2.384-.019 2.736-.078 5.03-.035-.027 1.672-.125 3.376-.14 5.057-2.423-.004-2.71.081-5.039-.008.069-1.685.06-3.3.149-5.015zm14.716-6.82c-.027 1.672.156 3.345.245 5.073-2.09-.261-2.706-.432-5.007-.742.069-1.684-.266-5.046-.286-5.056 1.099.227 3.564.486 5.049.725zM36.278 109.48c.113 1.78.156 3.346.244 5.074-2.09-.262-2.705-.432-5.006-.742.068-1.684-.271-5.178-.29-5.187 1.098.227 3.568.617 5.052.856z" class="stroke-comment fill-comment stroke-comment" style="display:inline;fill:#616161;fill-opacity:.333333;stroke:#616161;stroke-width:.0649999;stroke-dasharray:none;stroke-opacity:1"/>
      <ellipse cx="-76.903" cy="-76.813" rx="3.033" ry="4.288" style="fill:none;stroke:#616161;stroke-width:1.18136;stroke-linecap:round;stroke-linejoin:round;stroke-dasharray:none;paint-order:stroke fill markers" transform="scale(1 -1)rotate(88.072)"/>
    </g>
    <g class="stroke-blue fill-blue" style="display:inline;stroke:#0074d9">
      <g class="stroke-blue fill-blue" style="display:inline;stroke:#0074d9">
        <path stroke="none" d="M46.365 114.992q1.157-.016 2.3-.064c.915-.037 2.028-1.717 2.403-2.643.65.724 2.019 2.487 2.824 2.394.932-.106 1.766-2.114 2.06-2.991 1.358.609 1.492 1.808 3.131 2.001 1.037-.354 1.522-1.783 1.712-3.04 1.298.648 2.553 1.38 3.145 1.004.665-.423.997-1.065 1.06-1.653v-5c0 1.1-1.228 1.729-2.383 2.369-1.902 1.625-1.285 2.748-1.83 3.286-2.038-1.217-1.593-1.8-2.762-1.844-.851-.126-1.567 1.704-2.073 2.877-.714-.21-1.88-2.06-2.673-1.97-1.344.146-1.645 1.968-2.211 2.567-.713-.043-1.747-2.427-2.548-2.39-.638.029-1.28.05-4.454.045-10.763-.338-18.203-1.92-19.066-4.94v5c.436 2.902 7.963 4.542 16.374 4.917" class="stroke-blue fill-blue" style="display:inline;fill:#0074d9;fill-opacity:.331667;stroke:none;stroke-width:.264999;stroke-dasharray:none;stroke-opacity:1" transform="translate(70.251 -154.83)scale(3.53036)"/>
        <path stroke="none" d="M54.25 105.547c5.78.767 10.247 2.267 10.75 4.453v-5c-.253-2.23-5.065-3.758-11.274-4.494m-5.1-.412C38.07 99.599 26.11 101.118 25 105v5c.964-3.971 13.452-5.535 24.23-4.919" class="stroke-blue fill-blue" style="display:inline;fill:#0074d9;fill-opacity:.331667;stroke:none;stroke-width:.264999;stroke-dasharray:none;stroke-opacity:1" transform="translate(70.251 -154.83)scale(3.53036)"/>
        <path d="M63.47 108.079c.986.591 1.53 1.24 1.53 1.921 0 .58-.394 1.136-1.119 1.653m-15.231 3.264c-.748.034-1.51.058-4.789.036C32.051 114.489 25 112.45 25 110c0-.656.505-1.283 1.424-1.857m2.445-1.099C32.509 105.804 38.379 105 45 105c1.446 0 2.856.038 4.215.111m5.044.456c2.736.358 5.1.87 6.908 1.489" class="stroke-blue fill-blue" style="display:inline;fill:none;stroke:#0074d9;stroke-width:.264999;stroke-opacity:1" transform="translate(70.251 -154.83)scale(3.53036)"/>
        <path d="M53.704 100.497C60.389 101.307 65 103.02 65 105c0 .857-.863 1.664-2.383 2.369m-14.079 2.553c-.637.028-1.284.05-4.473.033C32.14 109.515 25 107.465 25 105c0-2.761 8.954-5 20-5q1.867 0 3.642.083" class="stroke-blue fill-blue" style="display:inline;fill:none;stroke:#0074d9;stroke-width:.264999;stroke-opacity:1" transform="translate(70.251 -154.83)scale(3.53036)"/>
        <path d="M25 105v5m40-5v5" class="stroke-blue fill-blue" style="display:inline;fill:none;fill-opacity:1;stroke:#0074d9;stroke-width:.264999;stroke-dasharray:none;stroke-opacity:1" transform="translate(70.251 -154.83)scale(3.53036)"/>
      </g>
      <path d="M88.121 161.956c1.239.674 1.372 1.045 2.326.761m-7.18.489c1.184.768 1.485 1.739 2.45 1.495v0c1.93-.488 1.583-5.715 3.49-6.283m-13.956 7.51c1.99-.024 2.687-4.955 4.662-5.199v0c.988-.122 1.037.866 2.188 1.683m-3.826 1.498c1.062.928 1.263 1.903 2.25 1.781v0c1.976-.244 2.035-5.348 3.965-5.837v0c.964-.244 1.153.753 2.392 1.427m-11.635-.35c.995-.011.903 1.123 1.966 2.051" class="stroke-blue fill-blue" style="display:inline;fill:none;fill-opacity:1;stroke:#0074d9;stroke-width:.264999;stroke-linecap:round;stroke-dasharray:none;stroke-opacity:1" transform="translate(-23.775 -334.918)scale(3.53036)"/>
    </g>
  </g>
  <path d="M213.242 49.496c3.171 1.725 3.735 2.936 6.065 1.837m-18.487 1.363c3.03 1.965 3.8 4.45 6.27 3.826v0c4.937-1.25 4.05-14.628 8.934-16.082m-35.727 19.223c5.094-.061 6.878-12.683 11.934-13.308v0c2.528-.312 2.655 2.217 5.6 4.308m-9.793 3.835c2.72 2.375 3.233 4.87 5.761 4.559v0c5.056-.625 5.21-13.69 10.147-14.942v0c2.47-.624 2.953 1.928 6.125 3.653m-29.784-.894c2.546-.03 2.312 2.873 5.031 5.248" class="stroke-green fill-green" style="display:inline;fill:none;fill-opacity:1;stroke:#2ecc40;stroke-width:.678336;stroke-linecap:round;stroke-dasharray:none;stroke-opacity:1" transform="translate(113.374 30.63)scale(1.37917)"/>
  <path d="M155.09 12.588c-1.917 5.709-14.836 6.205-15.818 12.145m7.004-8.13c-1.63-3.601-3.856-4.605-2.9-7.46m8.522 17.676c.492-2.97-2.11-3.102-3.876-6.637m3.876 6.637c-.982 5.942-14.108 7.063-14.782 13.046m6.224-8.36c-2.033-3.385-4.558-3.803-4.067-6.774m10.66 16.674c.338-2.993-2.206-3.28-4.412-6.558" class="stroke-teal fill-teal" style="display:inline;fill:none;fill-opacity:1;stroke:#ff851b;stroke-width:.678336;stroke-linecap:round;stroke-dasharray:none;stroke-opacity:1" transform="translate(113.374 30.63)scale(1.37917)"/>
  <path d="M111.51 61.125c-1.915 5.708-14.834 6.204-15.817 12.143m7.003-8.127c-1.63-3.602-3.67-4.792-2.712-7.646m8.335 17.862c.491-2.97-2.11-3.103-3.877-6.638m3.877 6.638c-.983 5.94-14.03 7.12-14.704 13.103m6.146-8.417c-2.034-3.386-4.559-3.803-4.068-6.775m10.661 16.674c.337-2.992-2.206-3.28-4.413-6.558" style="display:inline;fill:none;fill-opacity:1;stroke:#ff4136;stroke-width:.678336;stroke-linecap:round;stroke-dasharray:none;stroke-opacity:1" transform="translate(113.374 30.63)scale(1.37917)"/>
  <g transform="translate(622.056 19.03)scale(3.65978)">
    <g style="stroke-width:.957117;stroke-dasharray:none">
      <path d="M-46.422 102.974c-1.903 1.56-4.687 4.829-7.26 4.96-1.528.078-2.921-1.678-3.936-2.693" class="stroke-teal fill-teal" style="fill:none;stroke:#ff851b;stroke-width:1.10309;stroke-dasharray:none" transform="translate(34.462 -38.367)scale(.86767)"/>
      <path d="M-32.396 91.326c-.863.804-1.901 1.63-2.83 2.403-1.67 1.39-3.355 2.764-5.044 4.16-2.005 1.657-4.107 3.409-6.152 5.085" class="stroke-green fill-green" style="fill:none;stroke:#2ecc40;stroke-width:1.10309;stroke-dasharray:none" transform="translate(34.462 -38.367)scale(.86767)"/>
      <path d="M-72.574 109.533c5.57-1.353 10.354.264 11.05-1.463.818-2.027 3.106-3.629 4.644-5.167.802-.803 1.795-1.658 1.055-2.83-.449-.711-1.137-1.312-1.793-1.969" class="stroke-teal fill-teal" style="fill:none;stroke:#ff851b;stroke-width:1.10309;stroke-dasharray:none" transform="translate(34.462 -38.367)scale(.86767)"/>
      <path d="M-23.143 86.798c-.608-.607-1.764-1.998-2.732-1.645-.935.342-1.636 1.3-2.337 2.001l-1.6 1.6c-.938.938-1.67 1.722-2.584 2.572" class="stroke-green fill-green" style="fill:none;stroke:#2ecc40;stroke-width:1.10309;stroke-dasharray:none" transform="translate(34.462 -38.367)scale(.86767)"/>
      <path d="M-72.671 91.201c.428.816 1.049 1.44 1.793 1.925 3.582 2.333 10.03 1.458 11.66 3.379" class="stroke-teal fill-teal" style="fill:none;stroke:#ff851b;stroke-width:1.10309;stroke-dasharray:none" transform="translate(34.462 -38.367)scale(.86767)"/>
      <path d="M-69.307 81.74c.666.666 1.492 1.252 1.848 2.092.651 1.538-1.738 3.09-2.71 4.06-.678.679-1.438 1.389-2.08 2.092-.3.33-.712.749-.422 1.217m15.46-6.792-4.468 4.468c-.789.789-1.502 1.548-2.46 2.12-.498.297-1.03.495-1.6.439-1.5-.149-2.68-1.67-3.691-2.682" style="fill:none;stroke:#ff4136;stroke-width:1.10309;stroke-dasharray:none" transform="translate(34.462 -38.367)scale(.86767)"/>
      <path d="M-33.204 82.11a9.1 9.1 0 0 0 1.353 2.83c.439.61.943 1.173 1.477 1.717m2.579 2.602c.701.701 1.242 1.531 2.29 1.586 1.119.059 2.097-1.36 2.83-2.091l1.599-1.6c.706-.707 1.55-1.95 2.583-2.06.801-.086 1.317.547 1.846 1.076l.428.425m2.515 2.49c.445.448.708.716 1.112 1.145 4.74 5.538-15.155 6.71-1.152 17.604" class="stroke-green fill-green" style="fill:none;stroke:#2ecc40;stroke-width:1.10309;stroke-dasharray:none" transform="translate(34.462 -38.367)scale(.86767)"/>
      <path d="M-33.204 82.11c-.3-1.046-.629-2.266-.932-3.322-.148-.516-.24-1.294-.748-1.596-.943-.56-2.104 1.143-2.68 1.719l-1.599 1.599c-.718.718-1.578 1.931-2.584 2.095-1.078.175-1.937-1.112-2.62-1.795" class="stroke-orange fill-orange" style="fill:none;stroke:#39cccc;stroke-width:1.10309;stroke-dasharray:none" transform="translate(34.462 -38.367)scale(.86767)"/>
      <path d="M-51.097 92.924c-3.16 1.622-2.089.518-5.168 2.351-1.266 1.25-2.677 2.67-3.937 3.937-.492.494-1.178 1.083-1.078 1.845.14 1.059 1.325 1.847 2.062 2.584m23.219-20.179c-.825 1.497-3.43 2.548-4.886 3.421-3.379 2.027-6.707 4.24-10.212 6.04" class="stroke-teal fill-teal" style="fill:none;stroke:#ff851b;stroke-width:1.10309;stroke-dasharray:none" transform="translate(34.462 -38.367)scale(.86767)"/>
      <path d="M-46.338 78.866q-.598-.6-1.191-1.185c-.418-.413-.764-.812-1.354-.843-.368-.02-.688.104-.984.307-.676.465-1.236 1.156-1.846 1.766l-1.6 1.599-3.898 3.899" class="stroke-orange fill-orange" style="fill:none;stroke:#39cccc;stroke-width:1.10309;stroke-dasharray:none" transform="translate(34.462 -38.367)scale(.86767)"/>
      <path d="M-60.694 75.864c-1.41.713-3.01 1.254-4.553 1.497-.888.14-1.5.289-2.214.869-.375.304-.64.583-.985.927l-2.953 2.953c-.609.609-1.731 1.374-1.683 2.337.052 1.03 1.356 2.011 2.053 2.707" style="fill:none;stroke:#ff4136;stroke-width:1.10309;stroke-dasharray:none" transform="translate(34.462 -38.367)scale(.86767)"/>
      <path d="M-61.186 72.267c.534.534 1.926 1.56 1.799 2.337-.106.646-.775.991-1.307 1.26" class="stroke-blue fill-blue" style="fill:none;stroke:#0074d9;stroke-width:1.10309;stroke-dasharray:none" transform="translate(34.462 -38.367)scale(.86767)"/>
      <path d="M-56.774 73.743c.574 2.018 1.734 3.447 3.079 4.816m2.218 2.22c.664.663.806.878 1.487 1.405.307.238.6.404.984.418.513.02.883-.295 1.23-.62.49-.46.996-.991 1.477-1.472l1.6-1.6c.708-.708 1.56-1.907 2.583-2.061.87-.131 1.763.67 2.526 1.502m2.511 2.519c.827.793 1.557 1.729 1.08 2.592" class="stroke-orange fill-orange" style="fill:none;stroke:#39cccc;stroke-width:1.10309;stroke-dasharray:none" transform="translate(34.462 -38.367)scale(.86767)"/>
      <path d="M-68.2 72.267c.605.604 1.074 1.172 1.723 1.674.326.252.69.444 1.107.416.525-.036.86-.38 1.23-.739.772-.748 1.573-1.57 2.338-2.336.63-.63 1.307-1.367 1.969-1.946.283-.247.675-.624 1.105-.536.672.138.812.949.97 1.498l.984 3.445" class="stroke-blue fill-blue" style="fill:none;stroke:#0074d9;stroke-width:1.10309;stroke-dasharray:none" transform="translate(34.462 -38.367)scale(.86767)"/>
      <path d="M-75.213 72.267c.677.676 1.43 1.747 2.338 2.052.89.299 1.664-.641 2.215-1.191l1.6-1.6c.578-.579 1.127-1.13 1.722-1.722.305-.305.53-.559.86-.813.339-.26.67-.423 1.108-.399 1.049.057 1.84 1.329 2.584 2.073" class="stroke-blue fill-blue" style="fill:none;stroke:#0074d9;stroke-width:1.10309;stroke-dasharray:none" transform="translate(34.462 -38.367)scale(.86767)"/>
      <path d="M-76.197 76.376c-.78-.32-2.258-.816-2.414-1.772-.153-.933 1.549-2.087 2.168-2.707.768-.767 1.552-1.56 2.338-2.337.573-.566 1.197-1.22 2.091-.86.877.353 1.545 1.297 2.215 1.967" class="stroke-blue fill-blue" style="fill:none;stroke:#0074d9;stroke-width:1.10309;stroke-dasharray:none" transform="translate(34.462 -38.367)scale(.86767)"/>
      <path d="M-70.906 80.14c-1.643-1.641-3.101-2.87-5.291-3.764" style="fill:none;stroke:#ff4136;stroke-width:1.10309;stroke-dasharray:none" transform="translate(34.462 -38.367)scale(.86767)"/>
      <path d="M-13.744 57.983c-6.318 4.963 2.817 20.89 2.274 25.233-.307 1.746-1.355 2.7-2.593 3.938l-1.6 1.6c-.726.726-1.696 2.213-2.83 2.077-.716-.086-1.567-1.028-2.048-1.508" class="stroke-green fill-green" style="fill:none;stroke:#2ecc40;stroke-width:1.10309;stroke-dasharray:none" transform="translate(34.462 -38.367)scale(.86767)"/>
      <path d="M-76.812 70.667c-.703-.703-1.708-1.617-2.215-2.46-.04-.067.035.069 0 0" class="stroke-blue fill-blue" style="fill:none;stroke:#0074d9;stroke-width:1.10309;stroke-dasharray:none" transform="translate(34.462 -38.367)scale(.86767)"/>
      <path d="M-79.027 68.207c-.284-.554-.47-1.195-.49-1.79" class="stroke-blue fill-blue" style="fill:none;stroke:#ff4136;stroke-width:1.10309;stroke-dasharray:none" transform="translate(34.462 -38.367)scale(.86767)"/>
      <path d="M-79.516 66.418c-.007-.489-.036-1.853-.02-2.339" class="stroke-blue fill-blue" style="fill:none;stroke:#39cccc;stroke-width:1.10309;stroke-dasharray:none" transform="translate(34.462 -38.367)scale(.86767)"/>
      <path d="M-79.535 64.08c.015-.441-.738-2.546-.73-2.825" class="stroke-blue fill-blue" style="fill:none;stroke:#ff851b;stroke-width:1.10309;stroke-dasharray:none" transform="translate(34.462 -38.367)scale(.86767)"/>
      <path d="M-80.265 61.255c.016-1.37-2.516-2.119-4.615-3.272" class="stroke-blue fill-blue" style="fill:none;stroke:#2ecc40;stroke-width:1.10314;stroke-dasharray:none" transform="translate(34.462 -38.367)scale(.86767)"/>
      <path d="M-84.88 107.834c3.311-2.931 8.068 2.28 12.306 1.699" class="stroke-teal fill-teal" style="fill:none;stroke:#2ecc40;stroke-width:1.10309;stroke-dasharray:none" transform="translate(34.462 -38.367)scale(.86767)"/>
      <path d="m307.11 124.439 2.07 7.378" style="display:inline;fill:none;stroke:#ff851b;stroke-width:2.45;stroke-linecap:butt;stroke-linejoin:round;stroke-dasharray:none;paint-order:stroke fill markers" transform="translate(-115.133 -18.619)scale(.39066)"/>
      <path d="m254.645 105.582 2.186 7.652" style="fill:none;stroke:#ff4136;stroke-width:2.45;stroke-linecap:butt;stroke-linejoin:round;stroke-dasharray:none;paint-order:stroke fill markers" transform="translate(-115.133 -18.619)scale(.39066)"/>
      <path d="M205.923 218.562q2.256 4.016 5.694 6.113" style="fill:none;stroke:#39cccc;stroke-width:3.503;stroke-linecap:butt;stroke-linejoin:round;stroke-dasharray:none;paint-order:stroke fill markers" transform="translate(-84.86 -18.955)scale(.27324)"/>
    </g>
    <circle cx="-8.186" cy="33.344" r="37.599" class="stroke-comment fill-comment" style="fill:none;stroke:#616161;stroke-width:1.88976;stroke-miterlimit:4.1;stroke-dasharray:none"/>
  </g>
</svg>
