<!-- Created with Inkscape (http://www.inkscape.org/) -->
<svg xmlns:inkscape="http://www.inkscape.org/namespaces/inkscape" xmlns:sodipodi="http://sodipodi.sourceforge.net/DTD/sodipodi-0.dtd" xmlns="http://www.w3.org/2000/svg" xmlns:svg="http://www.w3.org/2000/svg" version="1.1" id="svg444" viewBox="0 0 719.81567 719.19489" sodipodi:docname="m1.svg" inkscape:version="1.2.2 (732a01da63, 2022-12-09)">
  <defs id="defs448"/>
  <sodipodi:namedview id="namedview446" pagecolor="#282a36" bordercolor="#666666" borderopacity="1.0" inkscape:showpageshadow="2" inkscape:pageopacity="0.0" inkscape:pagecheckerboard="0" inkscape:deskcolor="#d1d1d1" showgrid="false" inkscape:zoom="1.3AAAAAA" inkscape:cx="255.50848" inkscape:cy="315.76271" inkscape:window-width="1920" inkscape:window-height="1120" inkscape:window-x="-11" inkscape:window-y="-11" inkscape:window-maximized="1" inkscape:current-layer="g452">
    <inkscape:page x="0" y="0" id="page450" width="719.81567" height="719.19489" margin="0" bleed="0"/>
  </sodipodi:namedview>
  <g id="g452" inkscape:groupmode="layer" inkscape:label="Page 1" transform="matrix(1.3333333,0,0,-1.3333333,-0.09215115,719.59744)">
    <g id="g14744" transform="matrix(-1,0,0,1,483.94069,-51.483051)">
      <g id="g454" transform="matrix(0.1,0,0,0.1,-56.059322,51.483049)"/>
      <path class="stroke-orange fill-orange" style="fill:none;stroke:#FF851B;stroke-width:17.0079;stroke-linecap:butt;stroke-linejoin:miter;stroke-dasharray:none;stroke-opacity:1" d="M 27.457628,505.39196 188.48518,339.21611" id="path5612" sodipodi:nodetypes="cc"/>
      <path class="stroke-orange fill-orange" style="fill:none;stroke:#FF851B;stroke-width:17.0079;stroke-linecap:butt;stroke-linejoin:miter;stroke-dasharray:none;stroke-opacity:1" d="M 231.67374,294.88347 395.27544,127.27754" id="path5612-4" sodipodi:nodetypes="cc"/>
      <path class="stroke-orange fill-orange" style="fill:none;stroke:#FF851B;stroke-width:17.0079;stroke-linecap:butt;stroke-linejoin:miter;stroke-dasharray:none;stroke-opacity:1" d="M 388.69705,519.12078 39.184322,123.84534" id="path5610"/>
      <g id="g30393" inkscape:label="brdr" style="display:inline" transform="matrix(2.8346458,0,0,-2.8346458,-82.133722,728.24293)" class="">
        <path class="stroke-comment fill-comment" style="display:inline;fill:#AAAAAA;fill-opacity:1;stroke:none;stroke-width:0.352778;stroke-opacity:1" d="M 95.986727,238.49586 C 55.96666,234.86994 22.490082,206.59238 12.232833,167.74923 c -4.0133095,-15.198 -4.0133095,-33.36826 0,-48.56626 9.679369,-36.654787 39.637477,-63.733936 77.403894,-69.965414 6.991548,-1.153609 22.641783,-1.153609 29.633333,0 41.25671,6.807379 72.6245,38.175164 79.43188,79.431874 1.84983,11.21107 0.9976,27.64223 -2.02799,39.0998 -9.6571,36.57046 -39.81128,63.87166 -77.2275,69.92077 -4.45449,0.72016 -18.98182,1.23157 -23.459723,0.82586 z m 22.401393,-5.72037 c 52.7555,-8.69562 86.4767,-59.58006 73.70138,-111.21356 -8.70542,-35.184345 -37.59744,-61.552962 -73.87777,-67.425367 -6.89864,-1.116626 -21.006787,-1.117826 -27.693058,-0.0024 -39.312737,6.558542 -69.068477,36.348289 -75.385466,75.471627 -1.068038,6.61474 -1.147323,20.30013 -0.154896,26.73666 6.488217,42.08024 39.945426,73.56139 82.066751,77.21968 4.230239,0.3674 17.253599,-0.11262 21.343059,-0.78668 z" id="path21850" inkscape:label="path21850"/>
      </g>
    </g>
  </g>
</svg>
