<svg xmlns:inkscape="http://www.inkscape.org/namespaces/inkscape" xmlns:sodipodi="http://sodipodi.sourceforge.net/DTD/sodipodi-0.dtd" xmlns="http://www.w3.org/2000/svg" xmlns:svg="http://www.w3.org/2000/svg" viewBox="0 0 190.50052 90.276293" version="1.1" id="svg1" xml:space="preserve" sodipodi:docname="twist_7.svg" inkscape:version="1.3.2 (091e20ef0f, 2023-11-25)">
  <sodipodi:namedview id="namedview1" pagecolor="#ffffff" bordercolor="#000000" borderopacity="0.25" inkscape:showpageshadow="2" inkscape:pageopacity="0.0" inkscape:pagecheckerboard="0" inkscape:deskcolor="#d1d1d1" inkscape:document-units="mm" inkscape:zoom="0.30194179" inkscape:cx="720.33753" inkscape:cy="213.61734" inkscape:window-width="1920" inkscape:window-height="1125" inkscape:window-x="0" inkscape:window-y="0" inkscape:window-maximized="1" inkscape:current-layer="layer1">
    <inkscape:page x="0" y="0" width="190.50052" height="90.276299" id="page1" margin="0" bleed="0"/>
  </sodipodi:namedview>
  <defs id="defs1"/>
  <g inkscape:label="Layer 1" inkscape:groupmode="layer" id="layer1" transform="translate(-16.860834,-113.41034)">
    <path id="path1" d="m 191.55316,158.69665 c 3.09386,-3.09739 6.04309,-6.04308 9.13695,-9.14047" class="stroke-background" style="fill:none;stroke:#FFFFFF;stroke-width:4.79118;stroke-linecap:butt;stroke-linejoin:miter;stroke-miterlimit:10;stroke-dasharray:none;stroke-opacity:1"/>
    <path id="path2" d="m 191.55316,158.69665 c 3.09386,-3.09739 6.04309,-6.04308 9.13695,-9.14047" class="stroke-orange" style="fill:none;stroke:#FF851B;stroke-width:2.39559;stroke-linecap:round;stroke-linejoin:miter;stroke-miterlimit:10;stroke-dasharray:none;stroke-opacity:1"/>
    <path id="path3" d="m 182.70902,167.54079 c 3.09739,-3.09739 6.04309,-6.04308 9.14048,-9.14047" class="stroke-background" style="fill:none;stroke:#FFFFFF;stroke-width:4.79118;stroke-linecap:butt;stroke-linejoin:miter;stroke-miterlimit:10;stroke-dasharray:none;stroke-opacity:1"/>
    <path id="path4" d="m 182.70902,167.54079 c 3.09739,-3.09739 6.04309,-6.04308 9.14048,-9.14047" class="stroke-orange" style="fill:none;stroke:#FF851B;stroke-width:2.39559;stroke-linecap:round;stroke-linejoin:miter;stroke-miterlimit:10;stroke-dasharray:none;stroke-opacity:1"/>
    <path id="path5" d="m 173.86841,167.24446 c 3.09386,3.09386 6.03956,3.09386 9.13695,0" class="stroke-background" style="fill:none;stroke:#FFFFFF;stroke-width:4.79118;stroke-linecap:butt;stroke-linejoin:miter;stroke-miterlimit:10;stroke-dasharray:none;stroke-opacity:1"/>
    <path id="path6" d="m 173.86841,167.24446 c 3.09386,3.09386 6.03956,3.09386 9.13695,0" class="stroke-orange" style="fill:none;stroke:#FF851B;stroke-width:2.39559;stroke-linecap:round;stroke-linejoin:miter;stroke-miterlimit:10;stroke-dasharray:none;stroke-opacity:1"/>
    <path id="path7" d="m 138.49185,158.69665 c 3.09739,-3.09739 6.04309,-6.04308 9.14048,-9.14047" class="stroke-background" style="fill:none;stroke:#FFFFFF;stroke-width:4.79118;stroke-linecap:butt;stroke-linejoin:miter;stroke-miterlimit:10;stroke-dasharray:none;stroke-opacity:1"/>
    <path id="path8" d="m 138.49185,158.69665 c 3.09739,-3.09739 6.04309,-6.04308 9.14048,-9.14047" class="stroke-orange" style="fill:none;stroke:#FF851B;stroke-width:2.39559;stroke-linecap:round;stroke-linejoin:miter;stroke-miterlimit:10;stroke-dasharray:none;stroke-opacity:1"/>
    <path id="path9" d="m 129.65124,167.54079 c 3.09386,-3.09739 6.04309,-6.04308 9.13695,-9.14047" class="stroke-background" style="fill:none;stroke:#FFFFFF;stroke-width:4.79118;stroke-linecap:butt;stroke-linejoin:miter;stroke-miterlimit:10;stroke-dasharray:none;stroke-opacity:1"/>
    <path id="path10" d="m 129.65124,167.54079 c 3.09386,-3.09739 6.04309,-6.04308 9.13695,-9.14047" class="stroke-orange" style="fill:none;stroke:#FF851B;stroke-width:2.39559;stroke-linecap:round;stroke-linejoin:miter;stroke-miterlimit:10;stroke-dasharray:none;stroke-opacity:1"/>
    <path id="path11" d="m 120.8071,167.24446 c 3.09386,3.09386 6.04309,3.09386 9.13695,0" class="stroke-background" style="fill:none;stroke:#FFFFFF;stroke-width:4.79118;stroke-linecap:butt;stroke-linejoin:miter;stroke-miterlimit:10;stroke-dasharray:none;stroke-opacity:1"/>
    <path id="path12" d="m 120.8071,167.24446 c 3.09386,3.09386 6.04309,3.09386 9.13695,0" class="stroke-orange" style="fill:none;stroke:#FF851B;stroke-width:2.39559;stroke-linecap:round;stroke-linejoin:miter;stroke-miterlimit:10;stroke-dasharray:none;stroke-opacity:1"/>
    <path id="path13" d="m 85.434073,158.69665 c 3.093861,-3.09739 6.043083,-6.04308 9.136945,-9.14047" class="stroke-background" style="fill:none;stroke:#FFFFFF;stroke-width:4.79118;stroke-linecap:butt;stroke-linejoin:miter;stroke-miterlimit:10;stroke-dasharray:none;stroke-opacity:1"/>
    <path id="path14" d="m 85.434073,158.69665 c 3.093861,-3.09739 6.043083,-6.04308 9.136945,-9.14047" class="stroke-orange" style="fill:none;stroke:#FF851B;stroke-width:2.39559;stroke-linecap:round;stroke-linejoin:miter;stroke-miterlimit:10;stroke-dasharray:none;stroke-opacity:1"/>
    <path id="path15" d="m 76.589933,167.54079 c 3.097389,-3.09739 6.043084,-6.04308 9.140473,-9.14047" class="stroke-background" style="fill:none;stroke:#FFFFFF;stroke-width:4.79118;stroke-linecap:butt;stroke-linejoin:miter;stroke-miterlimit:10;stroke-dasharray:none;stroke-opacity:1"/>
    <path id="path16" d="m 76.589933,167.54079 c 3.097389,-3.09739 6.043084,-6.04308 9.140473,-9.14047" class="stroke-orange" style="fill:none;stroke:#FF851B;stroke-width:2.39559;stroke-linecap:round;stroke-linejoin:miter;stroke-miterlimit:10;stroke-dasharray:none;stroke-opacity:1"/>
    <path id="path17" d="m 67.745794,167.24446 c 3.097389,3.09386 6.043084,3.09386 9.140473,0" class="stroke-background" style="fill:none;stroke:#FFFFFF;stroke-width:4.79118;stroke-linecap:butt;stroke-linejoin:miter;stroke-miterlimit:10;stroke-dasharray:none;stroke-opacity:1"/>
    <path id="path18" d="m 67.745794,167.24446 c 3.097389,3.09386 6.043084,3.09386 9.140473,0" class="stroke-orange" style="fill:none;stroke:#FF851B;stroke-width:2.39559;stroke-linecap:round;stroke-linejoin:miter;stroke-miterlimit:10;stroke-dasharray:none;stroke-opacity:1"/>
    <path id="path19" d="m 32.372724,158.69665 c 3.09743,-3.09739 6.04312,-6.04308 9.14055,-9.14047" class="stroke-background" style="fill:none;stroke:#FFFFFF;stroke-width:4.79118;stroke-linecap:butt;stroke-linejoin:miter;stroke-miterlimit:10;stroke-dasharray:none;stroke-opacity:1"/>
    <path id="path20" d="m 32.372724,158.69665 c 3.09743,-3.09739 6.04312,-6.04308 9.14055,-9.14047" class="stroke-orange" style="fill:none;stroke:#FF851B;stroke-width:2.39559;stroke-linecap:round;stroke-linejoin:miter;stroke-miterlimit:10;stroke-dasharray:none;stroke-opacity:1"/>
    <path id="path21" d="m 23.532224,167.54079 c 3.09382,-3.09739 6.04294,-6.04308 9.13694,-9.14047" class="stroke-background" style="fill:none;stroke:#FFFFFF;stroke-width:4.79118;stroke-linecap:butt;stroke-linejoin:miter;stroke-miterlimit:10;stroke-dasharray:none;stroke-opacity:1"/>
    <path id="path22" d="m 23.532224,167.54079 c 3.09382,-3.09739 6.04294,-6.04308 9.13694,-9.14047" class="stroke-orange" style="fill:none;stroke:#FF851B;stroke-width:2.39559;stroke-linecap:round;stroke-linejoin:miter;stroke-miterlimit:10;stroke-dasharray:none;stroke-opacity:1"/>
    <path id="path23" d="m 19.256424,179.4294 c 0,-5.16114 1.47464,-9.09108 4.56846,-12.18494" class="stroke-background" style="fill:none;stroke:#FFFFFF;stroke-width:4.79118;stroke-linecap:butt;stroke-linejoin:miter;stroke-miterlimit:10;stroke-dasharray:none;stroke-opacity:1"/>
    <path id="path24" d="m 19.256424,179.4294 c 0,-5.16114 1.47464,-9.09108 4.56846,-12.18494" class="stroke-orange" style="fill:none;stroke:#FF851B;stroke-width:2.39559;stroke-linecap:round;stroke-linejoin:miter;stroke-miterlimit:10;stroke-dasharray:none;stroke-opacity:1"/>
    <path id="path25" d="m 165.02427,158.69665 c 3.09386,-3.09739 6.04309,-6.04308 9.13695,-9.14047" class="stroke-background" style="fill:none;stroke:#FFFFFF;stroke-width:4.79118;stroke-linecap:butt;stroke-linejoin:miter;stroke-miterlimit:10;stroke-dasharray:none;stroke-opacity:1"/>
    <path id="path26" d="m 165.02427,158.69665 c 3.09386,-3.09739 6.04309,-6.04308 9.13695,-9.14047" class="stroke-orange" style="fill:none;stroke:#FF851B;stroke-width:2.39559;stroke-linecap:round;stroke-linejoin:miter;stroke-miterlimit:10;stroke-dasharray:none;stroke-opacity:1"/>
    <path id="path27" d="m 156.18013,167.54079 c 3.09386,-3.09739 6.04309,-6.04308 9.13695,-9.14047" class="stroke-background" style="fill:none;stroke:#FFFFFF;stroke-width:4.79118;stroke-linecap:butt;stroke-linejoin:miter;stroke-miterlimit:10;stroke-dasharray:none;stroke-opacity:1"/>
    <path id="path28" d="m 156.18013,167.54079 c 3.09386,-3.09739 6.04309,-6.04308 9.13695,-9.14047" class="stroke-orange" style="fill:none;stroke:#FF851B;stroke-width:2.39559;stroke-linecap:round;stroke-linejoin:miter;stroke-miterlimit:10;stroke-dasharray:none;stroke-opacity:1"/>
    <path id="path29" d="m 147.33599,167.24446 c 3.09739,3.09386 6.04309,3.09386 9.14048,0" class="stroke-background" style="fill:none;stroke:#FFFFFF;stroke-width:4.79118;stroke-linecap:butt;stroke-linejoin:miter;stroke-miterlimit:10;stroke-dasharray:none;stroke-opacity:1"/>
    <path id="path30" d="m 147.33599,167.24446 c 3.09739,3.09386 6.04309,3.09386 9.14048,0" class="stroke-orange" style="fill:none;stroke:#FF851B;stroke-width:2.39559;stroke-linecap:round;stroke-linejoin:miter;stroke-miterlimit:10;stroke-dasharray:none;stroke-opacity:1"/>
    <path id="path31" d="m 111.96296,158.69665 c 3.09739,-3.09739 6.04309,-6.04308 9.14048,-9.14047" class="stroke-background" style="fill:none;stroke:#FFFFFF;stroke-width:4.79118;stroke-linecap:butt;stroke-linejoin:miter;stroke-miterlimit:10;stroke-dasharray:none;stroke-opacity:1"/>
    <path id="path32" d="m 111.96296,158.69665 c 3.09739,-3.09739 6.04309,-6.04308 9.14048,-9.14047" class="stroke-orange" style="fill:none;stroke:#FF851B;stroke-width:2.39559;stroke-linecap:round;stroke-linejoin:miter;stroke-miterlimit:10;stroke-dasharray:none;stroke-opacity:1"/>
    <path id="path33" d="m 103.11882,167.54079 c 3.09739,-3.09739 6.04309,-6.04308 9.14048,-9.14047" class="stroke-background" style="fill:none;stroke:#FFFFFF;stroke-width:4.79118;stroke-linecap:butt;stroke-linejoin:miter;stroke-miterlimit:10;stroke-dasharray:none;stroke-opacity:1"/>
    <path id="path34" d="m 103.11882,167.54079 c 3.09739,-3.09739 6.04309,-6.04308 9.14048,-9.14047" class="stroke-orange" style="fill:none;stroke:#FF851B;stroke-width:2.39559;stroke-linecap:round;stroke-linejoin:miter;stroke-miterlimit:10;stroke-dasharray:none;stroke-opacity:1"/>
    <path id="path35" d="m 94.278212,167.24446 c 3.093862,3.09386 6.043088,3.09386 9.136948,0" class="stroke-background" style="fill:none;stroke:#FFFFFF;stroke-width:4.79118;stroke-linecap:butt;stroke-linejoin:miter;stroke-miterlimit:10;stroke-dasharray:none;stroke-opacity:1"/>
    <path id="path36" d="m 94.278212,167.24446 c 3.093862,3.09386 6.043088,3.09386 9.136948,0" class="stroke-orange" style="fill:none;stroke:#FF851B;stroke-width:2.39559;stroke-linecap:round;stroke-linejoin:miter;stroke-miterlimit:10;stroke-dasharray:none;stroke-opacity:1"/>
    <path id="path37" d="m 58.905182,158.69665 c 3.093862,-3.09739 6.043084,-6.04308 9.136945,-9.14047" class="stroke-background" style="fill:none;stroke:#FFFFFF;stroke-width:4.79118;stroke-linecap:butt;stroke-linejoin:miter;stroke-miterlimit:10;stroke-dasharray:none;stroke-opacity:1"/>
    <path id="path38" d="m 58.905182,158.69665 c 3.093862,-3.09739 6.043084,-6.04308 9.136945,-9.14047" class="stroke-orange" style="fill:none;stroke:#FF851B;stroke-width:2.39559;stroke-linecap:round;stroke-linejoin:miter;stroke-miterlimit:10;stroke-dasharray:none;stroke-opacity:1"/>
    <path id="path39" d="m 50.061114,167.54079 c 3.09379,-3.09739 6.04301,-6.04308 9.136874,-9.14047" class="stroke-background" style="fill:none;stroke:#FFFFFF;stroke-width:4.79118;stroke-linecap:butt;stroke-linejoin:miter;stroke-miterlimit:10;stroke-dasharray:none;stroke-opacity:1"/>
    <path id="path40" d="m 50.061114,167.54079 c 3.09379,-3.09739 6.04301,-6.04308 9.136874,-9.14047" class="stroke-orange" style="fill:none;stroke:#FF851B;stroke-width:2.39559;stroke-linecap:round;stroke-linejoin:miter;stroke-miterlimit:10;stroke-dasharray:none;stroke-opacity:1"/>
    <path id="path41" d="m 41.216834,167.24446 c 3.09742,3.09386 6.04312,3.09386 9.13694,0" class="stroke-background" style="fill:none;stroke:#FFFFFF;stroke-width:4.79118;stroke-linecap:butt;stroke-linejoin:miter;stroke-miterlimit:10;stroke-dasharray:none;stroke-opacity:1"/>
    <path id="path42" d="m 41.216834,167.24446 c 3.09742,3.09386 6.04312,3.09386 9.13694,0" class="stroke-orange" style="fill:none;stroke:#FF851B;stroke-width:2.39559;stroke-linecap:round;stroke-linejoin:miter;stroke-miterlimit:10;stroke-dasharray:none;stroke-opacity:1"/>
    <path id="path43" d="m 19.256424,122.92851 c 0,5.16114 0,10.07181 0,15.23294" class="stroke-background" style="fill:none;stroke:#FFFFFF;stroke-width:4.79118;stroke-linecap:butt;stroke-linejoin:miter;stroke-miterlimit:10;stroke-dasharray:none;stroke-opacity:1"/>
    <path id="path44" d="m 19.256424,122.92851 c 0,5.16114 0,10.07181 0,15.23294" class="stroke-orange" style="fill:none;stroke:#FF851B;stroke-width:2.39559;stroke-linecap:round;stroke-linejoin:miter;stroke-miterlimit:10;stroke-dasharray:none;stroke-opacity:1"/>
    <path id="path45" d="m 200.3973,149.85251 c 3.09386,-3.09386 4.56847,-7.0238 4.56847,-12.18494" class="stroke-background" style="fill:none;stroke:#FFFFFF;stroke-width:4.79118;stroke-linecap:butt;stroke-linejoin:miter;stroke-miterlimit:10;stroke-dasharray:none;stroke-opacity:1"/>
    <path id="path46" d="m 200.3973,149.85251 c 3.09386,-3.09386 4.56847,-7.0238 4.56847,-12.18494" class="stroke-orange" style="fill:none;stroke:#FF851B;stroke-width:2.39559;stroke-linecap:round;stroke-linejoin:miter;stroke-miterlimit:10;stroke-dasharray:none;stroke-opacity:1"/>
    <path id="path47" d="m 19.256424,194.16846 c 0,-5.16114 0,-10.07181 0,-15.23295" class="stroke-background" style="fill:none;stroke:#FFFFFF;stroke-width:4.79118;stroke-linecap:butt;stroke-linejoin:miter;stroke-miterlimit:10;stroke-dasharray:none;stroke-opacity:1"/>
    <path id="path48" d="m 19.256424,194.16846 c 0,-5.16114 0,-10.07181 0,-15.23295" class="stroke-orange" style="fill:none;stroke:#FF851B;stroke-width:2.39559;stroke-linecap:round;stroke-linejoin:miter;stroke-miterlimit:10;stroke-dasharray:none;stroke-opacity:1"/>
    <path id="path49" d="m 200.3973,167.24446 c 3.09386,3.09386 4.56847,7.0238 4.56847,12.18494" class="stroke-background" style="fill:none;stroke:#FFFFFF;stroke-width:4.79118;stroke-linecap:butt;stroke-linejoin:miter;stroke-miterlimit:10;stroke-dasharray:none;stroke-opacity:1"/>
    <path id="path50" d="m 200.3973,167.24446 c 3.09386,3.09386 4.56847,7.0238 4.56847,12.18494" class="stroke-orange" style="fill:none;stroke:#FF851B;stroke-width:2.39559;stroke-linecap:round;stroke-linejoin:miter;stroke-miterlimit:10;stroke-dasharray:none;stroke-opacity:1"/>
    <path id="path51" d="m 165.02427,158.40032 c 3.09386,3.09739 6.04309,6.04308 9.13695,9.14047" class="stroke-background" style="fill:none;stroke:#FFFFFF;stroke-width:4.79118;stroke-linecap:butt;stroke-linejoin:miter;stroke-miterlimit:10;stroke-dasharray:none;stroke-opacity:1"/>
    <path id="path52" d="m 165.02427,158.40032 c 3.09386,3.09739 6.04309,6.04308 9.13695,9.14047" class="stroke-orange" style="fill:none;stroke:#FF851B;stroke-width:2.39559;stroke-linecap:round;stroke-linejoin:miter;stroke-miterlimit:10;stroke-dasharray:none;stroke-opacity:1"/>
    <path id="path53" d="m 147.33599,149.85251 c 3.09739,-3.09386 6.04309,-3.09386 9.14048,0" class="stroke-background" style="fill:none;stroke:#FFFFFF;stroke-width:4.79118;stroke-linecap:butt;stroke-linejoin:miter;stroke-miterlimit:10;stroke-dasharray:none;stroke-opacity:1"/>
    <path id="path54" d="m 147.33599,149.85251 c 3.09739,-3.09386 6.04309,-3.09386 9.14048,0" class="stroke-orange" style="fill:none;stroke:#FF851B;stroke-width:2.39559;stroke-linecap:round;stroke-linejoin:miter;stroke-miterlimit:10;stroke-dasharray:none;stroke-opacity:1"/>
    <path id="path55" d="m 111.96296,158.40032 c 3.09739,3.09739 6.04309,6.04308 9.14048,9.14047" class="stroke-background" style="fill:none;stroke:#FFFFFF;stroke-width:4.79118;stroke-linecap:butt;stroke-linejoin:miter;stroke-miterlimit:10;stroke-dasharray:none;stroke-opacity:1"/>
    <path id="path56" d="m 111.96296,158.40032 c 3.09739,3.09739 6.04309,6.04308 9.14048,9.14047" class="stroke-orange" style="fill:none;stroke:#FF851B;stroke-width:2.39559;stroke-linecap:round;stroke-linejoin:miter;stroke-miterlimit:10;stroke-dasharray:none;stroke-opacity:1"/>
    <path id="path57" d="m 94.278212,149.85251 c 3.093862,-3.09386 6.043088,-3.09386 9.136948,0" class="stroke-background" style="fill:none;stroke:#FFFFFF;stroke-width:4.79118;stroke-linecap:butt;stroke-linejoin:miter;stroke-miterlimit:10;stroke-dasharray:none;stroke-opacity:1"/>
    <path id="path58" d="m 94.278212,149.85251 c 3.093862,-3.09386 6.043088,-3.09386 9.136948,0" class="stroke-orange" style="fill:none;stroke:#FF851B;stroke-width:2.39559;stroke-linecap:round;stroke-linejoin:miter;stroke-miterlimit:10;stroke-dasharray:none;stroke-opacity:1"/>
    <path id="path59" d="m 58.905182,158.40032 c 3.093862,3.09739 6.043084,6.04308 9.136945,9.14047" class="stroke-background" style="fill:none;stroke:#FFFFFF;stroke-width:4.79118;stroke-linecap:butt;stroke-linejoin:miter;stroke-miterlimit:10;stroke-dasharray:none;stroke-opacity:1"/>
    <path id="path60" d="m 58.905182,158.40032 c 3.093862,3.09739 6.043084,6.04308 9.136945,9.14047" class="stroke-orange" style="fill:none;stroke:#FF851B;stroke-width:2.39559;stroke-linecap:round;stroke-linejoin:miter;stroke-miterlimit:10;stroke-dasharray:none;stroke-opacity:1"/>
    <path id="path61" d="m 41.216834,149.85251 c 3.09742,-3.09386 6.04312,-3.09386 9.13694,0" class="stroke-background" style="fill:none;stroke:#FFFFFF;stroke-width:4.79118;stroke-linecap:butt;stroke-linejoin:miter;stroke-miterlimit:10;stroke-dasharray:none;stroke-opacity:1"/>
    <path id="path62" d="m 41.216834,149.85251 c 3.09742,-3.09386 6.04312,-3.09386 9.13694,0" class="stroke-orange" style="fill:none;stroke:#FF851B;stroke-width:2.39559;stroke-linecap:round;stroke-linejoin:miter;stroke-miterlimit:10;stroke-dasharray:none;stroke-opacity:1"/>
    <path id="path63" d="m 191.55316,158.40032 c 3.09386,3.09739 6.04309,6.04308 9.13695,9.14047" class="stroke-background" style="fill:none;stroke:#FFFFFF;stroke-width:4.79118;stroke-linecap:butt;stroke-linejoin:miter;stroke-miterlimit:10;stroke-dasharray:none;stroke-opacity:1"/>
    <path id="path64" d="m 191.55316,158.40032 c 3.09386,3.09739 6.04309,6.04308 9.13695,9.14047" class="stroke-orange" style="fill:none;stroke:#FF851B;stroke-width:2.39559;stroke-linecap:round;stroke-linejoin:miter;stroke-miterlimit:10;stroke-dasharray:none;stroke-opacity:1"/>
    <path id="path65" d="m 173.86841,149.85251 c 3.09386,-3.09386 6.03956,-3.09386 9.13695,0" class="stroke-background" style="fill:none;stroke:#FFFFFF;stroke-width:4.79118;stroke-linecap:butt;stroke-linejoin:miter;stroke-miterlimit:10;stroke-dasharray:none;stroke-opacity:1"/>
    <path id="path66" d="m 173.86841,149.85251 c 3.09386,-3.09386 6.03956,-3.09386 9.13695,0" class="stroke-orange" style="fill:none;stroke:#FF851B;stroke-width:2.39559;stroke-linecap:round;stroke-linejoin:miter;stroke-miterlimit:10;stroke-dasharray:none;stroke-opacity:1"/>
    <path id="path67" d="m 138.49185,158.40032 c 3.09739,3.09739 6.04309,6.04308 9.14048,9.14047" class="stroke-background" style="fill:none;stroke:#FFFFFF;stroke-width:4.79118;stroke-linecap:butt;stroke-linejoin:miter;stroke-miterlimit:10;stroke-dasharray:none;stroke-opacity:1"/>
    <path id="path68" d="m 138.49185,158.40032 c 3.09739,3.09739 6.04309,6.04308 9.14048,9.14047" class="stroke-orange" style="fill:none;stroke:#FF851B;stroke-width:2.39559;stroke-linecap:round;stroke-linejoin:miter;stroke-miterlimit:10;stroke-dasharray:none;stroke-opacity:1"/>
    <path id="path69" d="m 120.8071,149.85251 c 3.09386,-3.09386 6.04309,-3.09386 9.13695,0" class="stroke-background" style="fill:none;stroke:#FFFFFF;stroke-width:4.79118;stroke-linecap:butt;stroke-linejoin:miter;stroke-miterlimit:10;stroke-dasharray:none;stroke-opacity:1"/>
    <path id="path70" d="m 120.8071,149.85251 c 3.09386,-3.09386 6.04309,-3.09386 9.13695,0" class="stroke-orange" style="fill:none;stroke:#FF851B;stroke-width:2.39559;stroke-linecap:round;stroke-linejoin:miter;stroke-miterlimit:10;stroke-dasharray:none;stroke-opacity:1"/>
    <path id="path71" d="m 85.434073,158.40032 c 3.093861,3.09739 6.043083,6.04308 9.136945,9.14047" class="stroke-background" style="fill:none;stroke:#FFFFFF;stroke-width:4.79118;stroke-linecap:butt;stroke-linejoin:miter;stroke-miterlimit:10;stroke-dasharray:none;stroke-opacity:1"/>
    <path id="path72" d="m 85.434073,158.40032 c 3.093861,3.09739 6.043083,6.04308 9.136945,9.14047" class="stroke-orange" style="fill:none;stroke:#FF851B;stroke-width:2.39559;stroke-linecap:round;stroke-linejoin:miter;stroke-miterlimit:10;stroke-dasharray:none;stroke-opacity:1"/>
    <path id="path73" d="m 67.745794,149.85251 c 3.097389,-3.09386 6.043084,-3.09386 9.140473,0" class="stroke-background" style="fill:none;stroke:#FFFFFF;stroke-width:4.79118;stroke-linecap:butt;stroke-linejoin:miter;stroke-miterlimit:10;stroke-dasharray:none;stroke-opacity:1"/>
    <path id="path74" d="m 67.745794,149.85251 c 3.097389,-3.09386 6.043084,-3.09386 9.140473,0" class="stroke-orange" style="fill:none;stroke:#FF851B;stroke-width:2.39559;stroke-linecap:round;stroke-linejoin:miter;stroke-miterlimit:10;stroke-dasharray:none;stroke-opacity:1"/>
    <path id="path75" d="m 32.372724,158.40032 c 3.09743,3.09739 6.04312,6.04308 9.14055,9.14047" class="stroke-background" style="fill:none;stroke:#FFFFFF;stroke-width:4.79118;stroke-linecap:butt;stroke-linejoin:miter;stroke-miterlimit:10;stroke-dasharray:none;stroke-opacity:1"/>
    <path id="path76" d="m 32.372724,158.40032 c 3.09743,3.09739 6.04312,6.04308 9.14055,9.14047" class="stroke-orange" style="fill:none;stroke:#FF851B;stroke-width:2.39559;stroke-linecap:round;stroke-linejoin:miter;stroke-miterlimit:10;stroke-dasharray:none;stroke-opacity:1"/>
    <path id="path77" d="m 19.256424,137.66757 c 0,5.16114 1.47464,9.09108 4.56846,12.18494" class="stroke-background" style="fill:none;stroke:#FFFFFF;stroke-width:4.79118;stroke-linecap:butt;stroke-linejoin:miter;stroke-miterlimit:10;stroke-dasharray:none;stroke-opacity:1"/>
    <path id="path78" d="m 19.256424,137.66757 c 0,5.16114 1.47464,9.09108 4.56846,12.18494" class="stroke-orange" style="fill:none;stroke:#FF851B;stroke-width:2.39559;stroke-linecap:round;stroke-linejoin:miter;stroke-miterlimit:10;stroke-dasharray:none;stroke-opacity:1"/>
    <path id="path79" d="m 32.965434,115.80593 c -9.28868,0 -13.70901,2.45533 -13.70901,7.61647" class="stroke-background" style="fill:none;stroke:#FFFFFF;stroke-width:4.79118;stroke-linecap:butt;stroke-linejoin:miter;stroke-miterlimit:10;stroke-dasharray:none;stroke-opacity:1"/>
    <path id="path80" d="m 32.965434,115.80593 c -9.28868,0 -13.70901,2.45533 -13.70901,7.61647" class="stroke-orange" style="fill:none;stroke:#FF851B;stroke-width:2.39559;stroke-linecap:round;stroke-linejoin:miter;stroke-miterlimit:10;stroke-dasharray:none;stroke-opacity:1"/>
    <path id="path81" d="m 204.96577,138.16145 c 0,-5.16113 0,-10.0718 0,-15.23294" class="stroke-background" style="fill:none;stroke:#FFFFFF;stroke-width:4.79118;stroke-linecap:butt;stroke-linejoin:miter;stroke-miterlimit:10;stroke-dasharray:none;stroke-opacity:1"/>
    <path id="path82" d="m 204.96577,138.16145 c 0,-5.16113 0,-10.0718 0,-15.23294" class="stroke-orange" style="fill:none;stroke:#FF851B;stroke-width:2.39559;stroke-linecap:round;stroke-linejoin:miter;stroke-miterlimit:10;stroke-dasharray:none;stroke-opacity:1"/>
    <path id="path83" d="m 32.965434,201.29104 c -9.28868,0 -13.70901,-2.45533 -13.70901,-7.61647" class="stroke-background" style="fill:none;stroke:#FFFFFF;stroke-width:4.79118;stroke-linecap:butt;stroke-linejoin:miter;stroke-miterlimit:10;stroke-dasharray:none;stroke-opacity:1"/>
    <path id="path84" d="m 32.965434,201.29104 c -9.28868,0 -13.70901,-2.45533 -13.70901,-7.61647" class="stroke-orange" style="fill:none;stroke:#FF851B;stroke-width:2.39559;stroke-linecap:round;stroke-linejoin:miter;stroke-miterlimit:10;stroke-dasharray:none;stroke-opacity:1"/>
    <path id="path85" d="m 204.96577,178.93551 c 0,5.16114 0,10.07181 0,15.23295" class="stroke-background" style="fill:none;stroke:#FFFFFF;stroke-width:4.79118;stroke-linecap:butt;stroke-linejoin:miter;stroke-miterlimit:10;stroke-dasharray:none;stroke-opacity:1"/>
    <path id="path86" d="m 204.96577,178.93551 c 0,5.16114 0,10.07181 0,15.23295" class="stroke-orange" style="fill:none;stroke:#FF851B;stroke-width:2.39559;stroke-linecap:round;stroke-linejoin:miter;stroke-miterlimit:10;stroke-dasharray:none;stroke-opacity:1"/>
    <path id="path87" d="m 59.494321,115.80593 c -9.285077,0 -18.129177,0 -27.414437,0" class="stroke-background" style="fill:none;stroke:#FFFFFF;stroke-width:4.79118;stroke-linecap:butt;stroke-linejoin:miter;stroke-miterlimit:10;stroke-dasharray:none;stroke-opacity:1"/>
    <path id="path88" d="m 59.494321,115.80593 c -9.285077,0 -18.129177,0 -27.414437,0" class="stroke-orange" style="fill:none;stroke:#FF851B;stroke-width:2.39559;stroke-linecap:round;stroke-linejoin:miter;stroke-miterlimit:10;stroke-dasharray:none;stroke-opacity:1"/>
    <path id="path89" d="m 86.023212,115.80593 c -9.285112,0 -18.129251,0 -27.414363,0" class="stroke-background" style="fill:none;stroke:#FFFFFF;stroke-width:4.79118;stroke-linecap:butt;stroke-linejoin:miter;stroke-miterlimit:10;stroke-dasharray:none;stroke-opacity:1"/>
    <path id="path90" d="m 86.023212,115.80593 c -9.285112,0 -18.129251,0 -27.414363,0" class="stroke-orange" style="fill:none;stroke:#FF851B;stroke-width:2.39559;stroke-linecap:round;stroke-linejoin:miter;stroke-miterlimit:10;stroke-dasharray:none;stroke-opacity:1"/>
    <path id="path91" d="m 112.5521,115.80593 c -9.28511,0 -18.129249,0 -27.414361,0" class="stroke-background" style="fill:none;stroke:#FFFFFF;stroke-width:4.79118;stroke-linecap:butt;stroke-linejoin:miter;stroke-miterlimit:10;stroke-dasharray:none;stroke-opacity:1"/>
    <path id="path92" d="m 112.5521,115.80593 c -9.28511,0 -18.129249,0 -27.414361,0" class="stroke-orange" style="fill:none;stroke:#FF851B;stroke-width:2.39559;stroke-linecap:round;stroke-linejoin:miter;stroke-miterlimit:10;stroke-dasharray:none;stroke-opacity:1"/>
    <path id="path93" d="m 139.08452,115.80593 c -9.28511,0 -18.12925,0 -27.41436,0" class="stroke-background" style="fill:none;stroke:#FFFFFF;stroke-width:4.79118;stroke-linecap:butt;stroke-linejoin:miter;stroke-miterlimit:10;stroke-dasharray:none;stroke-opacity:1"/>
    <path id="path94" d="m 139.08452,115.80593 c -9.28511,0 -18.12925,0 -27.41436,0" class="stroke-orange" style="fill:none;stroke:#FF851B;stroke-width:2.39559;stroke-linecap:round;stroke-linejoin:miter;stroke-miterlimit:10;stroke-dasharray:none;stroke-opacity:1"/>
    <path id="path95" d="m 165.61341,115.80593 c -9.28511,0 -18.12925,0 -27.41436,0" class="stroke-background" style="fill:none;stroke:#FFFFFF;stroke-width:4.79118;stroke-linecap:butt;stroke-linejoin:miter;stroke-miterlimit:10;stroke-dasharray:none;stroke-opacity:1"/>
    <path id="path96" d="m 165.61341,115.80593 c -9.28511,0 -18.12925,0 -27.41436,0" class="stroke-orange" style="fill:none;stroke:#FF851B;stroke-width:2.39559;stroke-linecap:round;stroke-linejoin:miter;stroke-miterlimit:10;stroke-dasharray:none;stroke-opacity:1"/>
    <path id="path97" d="m 192.1423,115.80593 c -9.28511,0 -18.12925,0 -27.41436,0" class="stroke-background" style="fill:none;stroke:#FFFFFF;stroke-width:4.79118;stroke-linecap:butt;stroke-linejoin:miter;stroke-miterlimit:10;stroke-dasharray:none;stroke-opacity:1"/>
    <path id="path98" d="m 192.1423,115.80593 c -9.28511,0 -18.12925,0 -27.41436,0" class="stroke-orange" style="fill:none;stroke:#FF851B;stroke-width:2.39559;stroke-linecap:round;stroke-linejoin:miter;stroke-miterlimit:10;stroke-dasharray:none;stroke-opacity:1"/>
    <path id="path99" d="m 204.96577,123.4224 c 0,-5.16114 -4.4203,-7.61647 -13.70894,-7.61647" class="stroke-background" style="fill:none;stroke:#FFFFFF;stroke-width:4.79118;stroke-linecap:butt;stroke-linejoin:miter;stroke-miterlimit:10;stroke-dasharray:none;stroke-opacity:1"/>
    <path id="path100" d="m 204.96577,123.4224 c 0,-5.16114 -4.4203,-7.61647 -13.70894,-7.61647" class="stroke-orange" style="fill:none;stroke:#FF851B;stroke-width:2.39559;stroke-linecap:round;stroke-linejoin:miter;stroke-miterlimit:10;stroke-dasharray:none;stroke-opacity:1"/>
    <path id="path101" d="m 156.18013,149.55618 c 3.09386,3.09739 6.04309,6.04308 9.13695,9.14047" class="stroke-background" style="fill:none;stroke:#FFFFFF;stroke-width:4.79118;stroke-linecap:butt;stroke-linejoin:miter;stroke-miterlimit:10;stroke-dasharray:none;stroke-opacity:1"/>
    <path id="path102" d="m 156.18013,149.55618 c 3.09386,3.09739 6.04309,6.04308 9.13695,9.14047" class="stroke-orange" style="fill:none;stroke:#FF851B;stroke-width:2.39559;stroke-linecap:round;stroke-linejoin:miter;stroke-miterlimit:10;stroke-dasharray:none;stroke-opacity:1"/>
    <path id="path103" d="m 103.11882,149.55618 c 3.09739,3.09739 6.04309,6.04308 9.14048,9.14047" class="stroke-background" style="fill:none;stroke:#FFFFFF;stroke-width:4.79118;stroke-linecap:butt;stroke-linejoin:miter;stroke-miterlimit:10;stroke-dasharray:none;stroke-opacity:1"/>
    <path id="path104" d="m 103.11882,149.55618 c 3.09739,3.09739 6.04309,6.04308 9.14048,9.14047" class="stroke-orange" style="fill:none;stroke:#FF851B;stroke-width:2.39559;stroke-linecap:round;stroke-linejoin:miter;stroke-miterlimit:10;stroke-dasharray:none;stroke-opacity:1"/>
    <path id="path105" d="m 50.061114,149.55618 c 3.09379,3.09739 6.04301,6.04308 9.136874,9.14047" class="stroke-background" style="fill:none;stroke:#FFFFFF;stroke-width:4.79118;stroke-linecap:butt;stroke-linejoin:miter;stroke-miterlimit:10;stroke-dasharray:none;stroke-opacity:1"/>
    <path id="path106" d="m 50.061114,149.55618 c 3.09379,3.09739 6.04301,6.04308 9.136874,9.14047" class="stroke-orange" style="fill:none;stroke:#FF851B;stroke-width:2.39559;stroke-linecap:round;stroke-linejoin:miter;stroke-miterlimit:10;stroke-dasharray:none;stroke-opacity:1"/>
    <path id="path107" d="m 59.494321,201.29104 c -9.285077,0 -18.129177,0 -27.414437,0" class="stroke-background" style="fill:none;stroke:#FFFFFF;stroke-width:4.79118;stroke-linecap:butt;stroke-linejoin:miter;stroke-miterlimit:10;stroke-dasharray:none;stroke-opacity:1"/>
    <path id="path108" d="m 59.494321,201.29104 c -9.285077,0 -18.129177,0 -27.414437,0" class="stroke-orange" style="fill:none;stroke:#FF851B;stroke-width:2.39559;stroke-linecap:round;stroke-linejoin:miter;stroke-miterlimit:10;stroke-dasharray:none;stroke-opacity:1"/>
    <path id="path109" d="m 86.023212,201.29104 c -9.285112,0 -18.129251,0 -27.414363,0" class="stroke-background" style="fill:none;stroke:#FFFFFF;stroke-width:4.79118;stroke-linecap:butt;stroke-linejoin:miter;stroke-miterlimit:10;stroke-dasharray:none;stroke-opacity:1"/>
    <path id="path110" d="m 86.023212,201.29104 c -9.285112,0 -18.129251,0 -27.414363,0" class="stroke-orange" style="fill:none;stroke:#FF851B;stroke-width:2.39559;stroke-linecap:round;stroke-linejoin:miter;stroke-miterlimit:10;stroke-dasharray:none;stroke-opacity:1"/>
    <path id="path111" d="m 112.5521,201.29104 c -9.28511,0 -18.129249,0 -27.414361,0" class="stroke-background" style="fill:none;stroke:#FFFFFF;stroke-width:4.79118;stroke-linecap:butt;stroke-linejoin:miter;stroke-miterlimit:10;stroke-dasharray:none;stroke-opacity:1"/>
    <path id="path112" d="m 112.5521,201.29104 c -9.28511,0 -18.129249,0 -27.414361,0" class="stroke-orange" style="fill:none;stroke:#FF851B;stroke-width:2.39559;stroke-linecap:round;stroke-linejoin:miter;stroke-miterlimit:10;stroke-dasharray:none;stroke-opacity:1"/>
    <path id="path113" d="m 139.08452,201.29104 c -9.28511,0 -18.12925,0 -27.41436,0" class="stroke-background" style="fill:none;stroke:#FFFFFF;stroke-width:4.79118;stroke-linecap:butt;stroke-linejoin:miter;stroke-miterlimit:10;stroke-dasharray:none;stroke-opacity:1"/>
    <path id="path114" d="m 139.08452,201.29104 c -9.28511,0 -18.12925,0 -27.41436,0" class="stroke-orange" style="fill:none;stroke:#FF851B;stroke-width:2.39559;stroke-linecap:round;stroke-linejoin:miter;stroke-miterlimit:10;stroke-dasharray:none;stroke-opacity:1"/>
    <path id="path115" d="m 165.61341,201.29104 c -9.28511,0 -18.12925,0 -27.41436,0" class="stroke-background" style="fill:none;stroke:#FFFFFF;stroke-width:4.79118;stroke-linecap:butt;stroke-linejoin:miter;stroke-miterlimit:10;stroke-dasharray:none;stroke-opacity:1"/>
    <path id="path116" d="m 165.61341,201.29104 c -9.28511,0 -18.12925,0 -27.41436,0" class="stroke-orange" style="fill:none;stroke:#FF851B;stroke-width:2.39559;stroke-linecap:round;stroke-linejoin:miter;stroke-miterlimit:10;stroke-dasharray:none;stroke-opacity:1"/>
    <path id="path117" d="m 192.1423,201.29104 c -9.28511,0 -18.12925,0 -27.41436,0" class="stroke-background" style="fill:none;stroke:#FFFFFF;stroke-width:4.79118;stroke-linecap:butt;stroke-linejoin:miter;stroke-miterlimit:10;stroke-dasharray:none;stroke-opacity:1"/>
    <path id="path118" d="m 192.1423,201.29104 c -9.28511,0 -18.12925,0 -27.41436,0" class="stroke-orange" style="fill:none;stroke:#FF851B;stroke-width:2.39559;stroke-linecap:round;stroke-linejoin:miter;stroke-miterlimit:10;stroke-dasharray:none;stroke-opacity:1"/>
    <path id="path119" d="m 204.96577,193.67457 c 0,5.16114 -4.4203,7.61647 -13.70894,7.61647" class="stroke-background" style="fill:none;stroke:#FFFFFF;stroke-width:4.79118;stroke-linecap:butt;stroke-linejoin:miter;stroke-miterlimit:10;stroke-dasharray:none;stroke-opacity:1"/>
    <path id="path120" d="m 204.96577,193.67457 c 0,5.16114 -4.4203,7.61647 -13.70894,7.61647" class="stroke-orange" style="fill:none;stroke:#FF851B;stroke-width:2.39559;stroke-linecap:round;stroke-linejoin:miter;stroke-miterlimit:10;stroke-dasharray:none;stroke-opacity:1"/>
    <path id="path121" d="m 182.70902,149.55618 c 3.09739,3.09739 6.04309,6.04308 9.14048,9.14047" class="stroke-background" style="fill:none;stroke:#FFFFFF;stroke-width:4.79118;stroke-linecap:butt;stroke-linejoin:miter;stroke-miterlimit:10;stroke-dasharray:none;stroke-opacity:1"/>
    <path id="path122" d="m 182.70902,149.55618 c 3.09739,3.09739 6.04309,6.04308 9.14048,9.14047" class="stroke-orange" style="fill:none;stroke:#FF851B;stroke-width:2.39559;stroke-linecap:round;stroke-linejoin:miter;stroke-miterlimit:10;stroke-dasharray:none;stroke-opacity:1"/>
    <path id="path123" d="m 129.65124,149.55618 c 3.09386,3.09739 6.04309,6.04308 9.13695,9.14047" class="stroke-background" style="fill:none;stroke:#FFFFFF;stroke-width:4.79118;stroke-linecap:butt;stroke-linejoin:miter;stroke-miterlimit:10;stroke-dasharray:none;stroke-opacity:1"/>
    <path id="path124" d="m 129.65124,149.55618 c 3.09386,3.09739 6.04309,6.04308 9.13695,9.14047" class="stroke-orange" style="fill:none;stroke:#FF851B;stroke-width:2.39559;stroke-linecap:round;stroke-linejoin:miter;stroke-miterlimit:10;stroke-dasharray:none;stroke-opacity:1"/>
    <path id="path125" d="m 76.589933,149.55618 c 3.097389,3.09739 6.043084,6.04308 9.140473,9.14047" class="stroke-background" style="fill:none;stroke:#FFFFFF;stroke-width:4.79118;stroke-linecap:butt;stroke-linejoin:miter;stroke-miterlimit:10;stroke-dasharray:none;stroke-opacity:1"/>
    <path id="path126" d="m 76.589933,149.55618 c 3.097389,3.09739 6.043084,6.04308 9.140473,9.14047" class="stroke-orange" style="fill:none;stroke:#FF851B;stroke-width:2.39559;stroke-linecap:round;stroke-linejoin:miter;stroke-miterlimit:10;stroke-dasharray:none;stroke-opacity:1"/>
    <path id="path127" d="m 23.532224,149.55618 c 3.09382,3.09739 6.04294,6.04308 9.13694,9.14047" class="stroke-background" style="fill:none;stroke:#FFFFFF;stroke-width:4.79118;stroke-linecap:butt;stroke-linejoin:miter;stroke-miterlimit:10;stroke-dasharray:none;stroke-opacity:1"/>
    <path id="path128" d="m 23.532224,149.55618 c 3.09382,3.09739 6.04294,6.04308 9.13694,9.14047" class="stroke-orange" style="fill:none;stroke:#FF851B;stroke-width:2.39559;stroke-linecap:round;stroke-linejoin:miter;stroke-miterlimit:10;stroke-dasharray:none;stroke-opacity:1"/>
  </g>
</svg>
