<svg xmlns="http://www.w3.org/2000/svg" xml:space="preserve" viewBox="0 0 1337.928 198.808">
  <text x="-106.329" y="432.995" style="font-size:112.438px;font-family:Inter;-inkscape-font-specification:Inter;text-align:start;writing-mode:lr-tb;direction:ltr;text-anchor:start;fill:#616161;stroke:none;stroke-width:4.68661;stroke-linejoin:round;paint-order:stroke fill markers" transform="translate(375.782 -351.192)">a        </text>
  <path d="M200 520H-50v-40h250zm250 0H200v-40h250Z" style="fill:#616161;stroke-width:1.84012;stroke-linecap:round;stroke-linejoin:round;paint-order:stroke fill markers" transform="translate(100 -351.192)"/>
  <path d="M150 500a50 50 0 0 1 50-50 50 50 0 0 1 50 50 50 50 0 0 1-50 50 50 50 0 0 1-50-50" style="fill:#616161;stroke-width:2.25367;stroke-linecap:round;stroke-linejoin:round;paint-order:stroke fill markers" transform="translate(100 -351.192)"/>
  <path d="M-100 500a50 50 0 0 1 50-50 50 50 0 0 1 50 50 50 50 0 0 1-50 50 50 50 0 0 1-50-50" style="fill:#616161;stroke:none;stroke-width:2.25367;stroke-linecap:round;stroke-linejoin:round;paint-order:stroke fill markers" transform="translate(100 -351.192)"/>
  <text x="-530.099" y="433.918" style="font-size:112.438px;font-family:Inter;-inkscape-font-specification:Inter;text-align:start;writing-mode:lr-tb;direction:ltr;text-anchor:start;fill:#616161;stroke:none;stroke-width:4.68661;stroke-linejoin:round;paint-order:stroke fill markers" transform="translate(1095.071 -352.115)">           a   1        </text>
  <path d="M-43.388 408.598v9.187h-21.218v16.133h-9.242v-16.133h-21.165v-9.187h21.165V392.52h9.242v16.078zm0-32.211v9.187h-51.625v-9.187z" aria-label="&#177;" style="font-size:112px;font-family:Inter;-inkscape-font-specification:Inter;fill:#616161;stroke-width:37.7953;stroke-linecap:round;stroke-linejoin:round;paint-order:stroke fill markers" transform="translate(1095.071 -352.115)"/>
  <path d="M450 520H200v-40h250Z" style="fill:#616161;stroke-width:1.84012;stroke-linecap:round;stroke-linejoin:round;paint-order:stroke fill markers" transform="translate(819.29 -352.115)"/>
  <path d="M150 500a50 50 0 0 1 50-50 50 50 0 0 1 50 50 50 50 0 0 1-50 50 50 50 0 0 1-50-50" style="fill:#616161;stroke-width:2.25367;stroke-linecap:round;stroke-linejoin:round;paint-order:stroke fill markers" transform="translate(819.29 -352.115)"/>
  <text x="300.283" y="635.232" style="font-size:112.438px;font-family:Inter;-inkscape-font-specification:Inter;text-align:start;writing-mode:lr-tb;direction:ltr;text-anchor:start;fill:#616161;stroke:none;stroke-width:4.68661;stroke-linejoin:round;paint-order:stroke fill markers" transform="translate(-245.654 -552.001)"><tspan x="300.283" y="635.232">1</tspan> </text>
  <text x="234.026" y="626.869" style="font-size:112px;font-family:Inter;-inkscape-font-specification:Inter;text-align:start;writing-mode:lr-tb;direction:ltr;text-anchor:start;fill:#616161;stroke-width:37.7953;stroke-linecap:round;stroke-linejoin:round;paint-order:stroke fill markers" transform="translate(-245.654 -552.001)">
    <tspan x="234.026" y="626.869">&#177;</tspan>
  </text>
</svg>
