<svg xmlns="http://www.w3.org/2000/svg" viewBox="0 0 7491.119 1521.293">
  <path d="M5187.469 601.504V714.52h-353.504v92.218h353.504v113.05l271.905-159.125z" class="stroke-comment fill-comment" style="display:inline;fill:#616161;fill-opacity:1;stroke:none;stroke-width:30.2464;stroke-miterlimit:4.1;stroke-dasharray:none"/>
  <path d="M6745.212 589.958C7112.555 571.95 7437.2 498.853 7476 363.193V595.25c-19.678 131.157-351.424 206.76-729.117 226.718m-187.408 4.594c-99.877.325-163.831-.51-259.717-7.611-31.698-2.367-56.621-6.451-123.082-114.914-89.434 95.793-87.392 92.544-113.8 89.11-31.095-4.038-94.214-62.006-139.187-137.006-9.978 19.957-82.472 95.375-100.015 89.991-129.951-40.006-193.627-87.903-204.116-150.882V363.193c8.354 79.92 11.138 104.518 204.116 142.946 3.248.604 96.813 149.351 100.015 150 34.02 6.545 104.797-101.593 142.39-96.21 37.593 5.338 94.585 107.21 110.597 144.107 24.227-20.281 90.038-119.926 126.424-117.42a3852 3852 0 0 0 259.902 8.633" style="display:inline;fill:#ff851b;fill-opacity:.7;stroke:none;stroke-width:12.2989;stroke-dasharray:none;stroke-opacity:1" transform="translate(0 11.084)"/>
  <path d="M7476 363.193V595.25c-78.156-321.815-1786.686-302.879-1856.442 0V363.193c33.23-293.132 1763.62-324.877 1856.443 0" class="stroke-orange fill-orange" style="display:inline;fill:#ff851b;fill-opacity:.7;stroke:none;stroke-width:12.2989;stroke-dasharray:none;stroke-opacity:1" transform="translate(0 11.084)"/>
  <path d="M5690.567 506.093c-45.762 27.429-71.01 57.55-71.01 89.156 0 44.09 93.89 105.817 179.148 140.857m501.053 82.844a3620 3620 0 0 0 261.295 8.354m187.036-5.43c416.261-22.88 727.912-115.657 727.912-226.625 0-30.446-23.438-59.546-66.09-86.186m-113.475-51.005c-168.936-57.55-441.37-94.865-748.657-94.865-308.309 0-581.53 37.593-750.328 95.421" class="stroke-blue fill-blue" style="display:inline;fill:none;stroke:#ff851b;stroke-width:30.2362;stroke-dasharray:none;stroke-opacity:1" transform="translate(0 11.084)"/>
  <path d="M6743.82 590.05C7162.262 567.589 7476 474.58 7476 363.194c0-128.14-415.564-232.055-928.22-232.055-512.657 0-928.222 103.914-928.222 232.055 0 49.01 97.649 105.446 204.116 142.946m490.565 80.756c79.502 5.43 162.995 8.354 248.763 8.354" class="stroke-blue fill-blue" style="display:inline;fill:none;stroke:#ff851b;stroke-width:30.2362;stroke-dasharray:none;stroke-opacity:1" transform="translate(0 11.084)"/>
  <path d="M7476 363.193V595.25M5619.559 363.193V595.25" class="stroke-blue fill-blue" style="display:inline;fill:none;fill-opacity:1;stroke:#ff851b;stroke-width:30.2362;stroke-dasharray:none;stroke-opacity:1" transform="translate(0 11.084)"/>
  <path d="M7331.337 236.027c-112.407-37.222-104.75-32.163-213.027-53.373l-31.095 223.702c94.075 22.277 80.755 16.243 184.948 43.765zm-585.94 359.454c-113.8 8.4-72.726-11.835-183.694 6.219l-.836 217.668c1.578-.279 185.18-2.785 185.18-2.785z" class="stroke-comment fill-comment stroke-comment" style="fill:#616161;fill-opacity:1;stroke:#616161;stroke-width:3.01672;stroke-dasharray:none;stroke-opacity:1" transform="translate(0 11.084)"/>
  <path d="M6313.06 586.817c-47.618-3.62-42.93 26.361-89.341 72.772m-400.017-153.481c76.95 17.497 110.644 264.543 222.495 285.01 42.234 6.266 41.073 4.92 87.484-41.491m-258.277-42.652c-50.681 41.723-41.724 39.124-76.718 29.146m174.97-109.994c50.727-41.724 48.964-72.03 93.75-64.604 75.975 9.096 117.374 248.067 233.17 257.395" class="stroke-blue fill-blue" style="fill:none;fill-opacity:1;stroke:#ff851b;stroke-width:30.2362;stroke-linecap:round;stroke-dasharray:none;stroke-opacity:1" transform="translate(0 11.084)"/>
  <path d="M6745.491 4.034h186.382c248.41 37.277 248.671 1468.319 0 1491.058h-186.382c233.835-24.603 260.935-1416.505 0-1491.058" class="stroke-yellow fill-yellow" style="display:inline;fill:#b10dc9;fill-opacity:.7;stroke:none;stroke-width:9.87822;stroke-dasharray:none;stroke-opacity:1" transform="translate(0 11.084)"/>
  <path d="M6745.454 816.549c9.543 332.655 72.875 652.374 186.42 678.543H6745.49c-111.121-12.6-175.46-335.712-185.003-674.033m1.864-220.23c13.792-299.03 72.913-565.296 183.14-596.795h186.381C6822.131 30.65 6761.11 297.176 6746.535 594.94" class="stroke-yellow fill-yellow" style="display:inline;fill:#b10dc9;fill-opacity:.7;stroke:none;stroke-width:9.87822;stroke-dasharray:none;stroke-opacity:1" transform="translate(0 11.084)"/>
  <path d="M6860.265 1438.059c22.03 36.717 46.223 57.033 71.608 57.033 102.958 0 186.382-333.811 186.382-745.53 0-411.717-83.424-745.528-186.382-745.528-24.453 0-47.788 18.825-69.185 53.082m-41.004 91.14c-36.158 106.09-64.414 266.23-74.105 447.69m-1.23 220.342c5.218 217.918 33.884 413.619 75.782 535.923" style="display:inline;fill:none;stroke:#b10dc9;stroke-width:30.2362;stroke-dasharray:none;stroke-opacity:1" transform="translate(0 11.084)"/>
  <path d="M6559.63 821.022c9.655 375.448 89.464 674.07 185.861 674.07 102.958 0 186.382-333.811 186.382-745.53 0-411.717-83.424-745.528-186.382-745.528-89.724 0-165.246 259.63-182.99 597.541" style="display:inline;fill:none;stroke:#b10dc9;stroke-width:30.2362;stroke-dasharray:none;stroke-opacity:1" transform="translate(0 11.084)"/>
  <path d="M6745.491 4.034h186.382m-186.382 1491.058h186.382" style="display:inline;fill:none;fill-opacity:1;stroke:#b10dc9;stroke-width:30.2362;stroke-dasharray:none;stroke-opacity:1" transform="translate(0 11.084)"/>
  <path d="m6926.69 901.12 190.088 8.334-22.752 223.912c-1.59-.28-182.336-12.245-182.336-12.245z" style="display:inline;fill:#616161;fill-opacity:1;stroke:#616161;stroke-width:3.01671;stroke-dasharray:none;stroke-opacity:1" transform="translate(0 11.084)"/>
  <path d="M745.906 601.057C378.563 583.049 53.917 509.952 15.118 374.292v232.056c19.678 131.157 351.424 206.761 729.118 226.718m187.408 4.594c99.876.325 163.83-.51 259.716-7.61 31.699-2.368 56.621-6.452 123.082-114.915 89.434 95.793 87.392 92.544 113.8 89.11 31.095-4.038 94.215-62.006 139.187-137.006 9.978 19.957 82.472 95.375 100.016 89.991 129.95-40.006 193.627-87.902 204.116-150.882V374.292c-8.354 79.92-11.14 104.518-204.116 142.946-3.25.604-96.814 149.351-100.016 150.001-34.02 6.544-104.796-101.594-142.39-96.21-37.592 5.337-94.585 107.21-110.597 144.106-24.227-20.281-90.037-119.926-126.424-117.42a3852 3852 0 0 1-259.902 8.633" style="display:inline;fill:#ff851b;fill-opacity:.7;stroke:none;stroke-width:12.2989;stroke-dasharray:none;stroke-opacity:1" transform="translate(0 -.015)"/>
  <path d="M15.118 374.292v232.056c78.156-321.815 1786.687-302.879 1856.443 0V374.292c-33.23-293.132-1763.621-324.877-1856.443 0" class="stroke-orange fill-orange" style="display:inline;fill:#ff851b;fill-opacity:.7;stroke:none;stroke-width:12.2989;stroke-dasharray:none;stroke-opacity:1" transform="translate(0 -.015)"/>
  <path d="M1800.552 517.192c45.76 27.429 71.009 57.55 71.009 89.156 0 44.09-93.89 105.817-179.147 140.857M1191.36 830.05a3620 3620 0 0 1-261.294 8.354m-187.037-5.43c-416.26-22.88-727.911-115.656-727.911-226.625 0-30.446 23.437-59.546 66.09-86.186m113.474-51.005c168.936-57.55 441.37-94.865 748.657-94.865 308.309 0 581.53 37.593 750.328 95.422" class="stroke-blue fill-blue" style="display:inline;fill:none;stroke:#ff851b;stroke-width:30.2362;stroke-dasharray:none;stroke-opacity:1" transform="translate(0 -.015)"/>
  <path d="M747.299 601.15C328.857 578.687 15.118 485.679 15.118 374.292c0-128.14 415.564-232.055 928.221-232.055s928.222 103.914 928.222 232.055c0 49.01-97.65 105.446-204.116 142.946m-490.565 80.756c-79.503 5.43-162.996 8.354-248.764 8.354" class="stroke-blue fill-blue" style="display:inline;fill:none;stroke:#ff851b;stroke-width:30.2362;stroke-dasharray:none;stroke-opacity:1" transform="translate(0 -.015)"/>
  <path d="M15.118 374.292v232.056M1871.56 374.292v232.056" class="stroke-blue fill-blue" style="display:inline;fill:none;fill-opacity:1;stroke:#ff851b;stroke-width:30.2362;stroke-dasharray:none;stroke-opacity:1" transform="translate(0 -.015)"/>
  <path d="M1206.258 152.215c113.707 8.4 192.467 19.864 303.435 37.872l-31.095 226.022c-121.783-18.472-180.075-25.248-285.8-33.323ZM745.72 606.58c113.8 8.4 72.726-11.835 183.695 6.219l.835 217.668c-1.578-.279-185.18-2.785-185.18-2.785z" class="stroke-comment fill-comment stroke-comment" style="fill:#616161;fill-opacity:1;stroke:#616161;stroke-width:3.01672;stroke-dasharray:none;stroke-opacity:1" transform="translate(0 -.015)"/>
  <path d="M1178.06 597.916c74.257-5.616 161.51 219.895 266.863 204.301 35.968-6.59 63.861-36.618 87.717-74.86m65.903-129.534c21.117-41.584 42.42-74.63 68.828-80.616" class="stroke-blue fill-blue" style="fill:none;fill-opacity:1;stroke:#ff851b;stroke-width:30.2362;stroke-linecap:round;stroke-dasharray:none;stroke-opacity:1" transform="translate(0 -.015)"/>
  <path d="M1692.433 747.22c-84.979 24.273-202.956-185.459-268.72-174.598-28.682 3.434-52.491 39.728-77.228 84.097m-70.916 117.976c-23.81 30.353-51.238 52.584-85.025 55.322" class="stroke-blue fill-blue" style="fill:none;fill-opacity:1;stroke:#ff851b;stroke-width:30.2362;stroke-linecap:round;stroke-dasharray:none;stroke-opacity:1" transform="translate(0 -.015)"/>
  <path d="M745.628 15.133H559.246c-248.41 37.277-248.671 1468.319 0 1491.058h186.382c-233.835-24.603-260.935-1416.505 0-1491.058" class="stroke-yellow fill-yellow" style="display:inline;fill:#b10dc9;fill-opacity:.7;stroke:none;stroke-width:9.87822;stroke-dasharray:none;stroke-opacity:1" transform="translate(0 -.015)"/>
  <path d="M745.666 827.648c-9.543 332.655-72.876 652.375-186.42 678.543h186.382c111.121-12.6 175.46-335.712 185.003-674.033m-1.864-220.229C914.975 312.898 855.855 46.632 745.628 15.133H559.246C668.988 41.75 730.01 308.275 744.584 606.04" class="stroke-yellow fill-yellow" style="display:inline;fill:#b10dc9;fill-opacity:.7;stroke:none;stroke-width:9.87822;stroke-dasharray:none;stroke-opacity:1" transform="translate(0 -.015)"/>
  <path d="M630.854 1449.158c-22.03 36.717-46.223 57.033-71.608 57.033-102.957 0-186.382-333.81-186.382-745.529S456.289 15.133 559.246 15.133c24.453 0 47.788 18.825 69.185 53.082m41.004 91.14c36.158 106.09 64.414 266.23 74.106 447.69m1.23 220.342c-5.219 217.918-33.884 413.62-75.783 535.923" style="display:inline;fill:none;stroke:#b10dc9;stroke-width:30.2362;stroke-dasharray:none;stroke-opacity:1" transform="translate(0 -.015)"/>
  <path d="M931.489 832.12c-9.655 375.45-89.464 674.07-185.86 674.07-102.958 0-186.383-333.81-186.383-745.528S642.671 15.133 745.628 15.133c89.725 0 165.247 259.63 182.99 597.542" style="display:inline;fill:none;stroke:#b10dc9;stroke-width:30.2362;stroke-dasharray:none;stroke-opacity:1" transform="translate(0 -.015)"/>
  <path d="M745.628 15.133H559.246m186.382 1491.058H559.246" style="display:inline;fill:none;fill-opacity:1;stroke:#b10dc9;stroke-width:30.2362;stroke-dasharray:none;stroke-opacity:1" transform="translate(0 -.015)"/>
  <path d="M374.423 952.22h190l23 225c-1.591-.278-185 0-185 0z" style="display:inline;fill:#616161;fill-opacity:1;stroke:#616161;stroke-width:3.01671;stroke-dasharray:none;stroke-opacity:1" transform="translate(0 -.015)"/>
  <path d="M2885.29 373.482v232.055c78.157-321.814 1786.687-302.878 1856.443 0V373.482c-33.23-293.132-1763.62-324.877-1856.442 0" class="stroke-orange fill-orange" style="display:inline;fill:#ff851b;fill-opacity:.7;stroke:none;stroke-width:12.2989;stroke-dasharray:none;stroke-opacity:1" transform="translate(-67.952 -.02)"/>
  <path d="M2885.29 605.537c0-30.445 23.438-59.499 66.09-86.139m1719.344-3.016c45.762 27.475 71.01 57.55 71.01 89.155m-1676.88-137.19c168.937-57.55 441.37-94.865 748.658-94.865 308.309 0 581.53 37.593 750.328 95.421m-1678.55-95.421c0-128.141 415.565-232.055 928.222-232.055s928.221 103.914 928.221 232.055" class="stroke-blue fill-blue" style="display:inline;fill:none;stroke:#ff851b;stroke-width:30.2362;stroke-dasharray:none;stroke-opacity:1" transform="translate(-67.952 -.02)"/>
  <path d="M2885.29 373.482v232.055m1856.443-232.055v232.055" class="stroke-blue fill-blue" style="display:inline;fill:none;fill-opacity:1;stroke:#ff851b;stroke-width:30.2362;stroke-dasharray:none;stroke-opacity:1" transform="translate(-67.952 -.02)"/>
  <path d="M4076.384 151.405c113.8 8.447 192.513 19.864 303.482 37.918l-31.095 226.022c-121.783-18.518-180.075-25.248-285.8-33.37zM3616.08 600.247c101.362 3.48 73.747 1.763 184.252 6.776l.093 222.68c-1.578-.279-185.18-2.785-185.18-2.785z" class="stroke-comment fill-comment stroke-comment" style="fill:#616161;fill-opacity:1;stroke:#616161;stroke-width:3.01672;stroke-dasharray:none;stroke-opacity:1" transform="translate(-67.952 -.02)"/>
  <path d="M3798.243 15.142h186.387c248.391 37.268 248.67 1468.354 0 1491.049h-186.387c233.865-24.552 260.97-1416.466 0-1491.049" class="stroke-yellow fill-yellow" style="display:inline;fill:#b10dc9;fill-opacity:.612704;stroke:none;stroke-width:9.87823;stroke-dasharray:none;stroke-opacity:1" transform="translate(-67.952 -.02)"/>
  <path d="M3800.424 829.703c9.514 332.674 70.684 650.358 184.252 676.488h-186.433c-111.109-12.531-173.439-340.936-182.953-679.273m.79-226.672c13.783-299.073 71.936-553.59 182.163-585.104h186.386c-109.715 26.64-170.792 293.179-185.319 590.952" class="stroke-yellow fill-yellow" style="display:inline;fill:#b10dc9;fill-opacity:.612704;stroke:none;stroke-width:9.87823;stroke-dasharray:none;stroke-opacity:1" transform="translate(-67.952 -.02)"/>
  <path d="M3800.424 829.703c5.198 217.9 25.155 360.939 74.49 533.634 8.586 30.075 18.935 61.077 38.103 85.86 18.657 24.135 46.272 56.994 71.612 56.994 102.94 0 186.387-333.789 186.387-745.501 0-411.76-83.447-745.548-186.387-745.548-24.458 0-51.145 30.307-69.152 53.094-20.7 26.13-31.42 59.267-41.028 91.152-43.765 144.802-64.418 266.214-74.118 447.635" style="display:inline;fill:none;stroke:#b10dc9;stroke-width:30.2362;stroke-dasharray:none;stroke-opacity:1" transform="translate(-67.952 -.02)"/>
  <path d="M4035.118 597.945c47.617-3.62 42.93 26.362 89.341 72.773m90.038 90.037c46.41 46.411 29.981 49.428 74.721 43.163m-6.126-232.102c-78.295 9.932-119.694 248.902-235.49 258.23" class="stroke-blue fill-blue" style="fill:none;fill-opacity:1;stroke:#ff851b;stroke-width:30.2362;stroke-linecap:round;stroke-dasharray:none;stroke-opacity:1" transform="translate(-67.952 -.02)"/>
  <path d="M3615.29 826.918c9.654 375.466 86.557 679.273 182.953 679.273 23.623 0 46.225-17.544 66.97-49.568m48.965-112.036C3957.108 1208 3984.63 997.2 3984.63 760.69c0-240.688-28.497-454.736-72.773-591.045m-42.234-97.928c-21.999-36.479-46.086-56.575-71.38-56.575-89.713 0-164.435 247.185-182.164 585.105" style="display:inline;fill:none;stroke:#b10dc9;stroke-width:30.2362;stroke-dasharray:none;stroke-opacity:1" transform="translate(-67.952 -.02)"/>
  <path d="M3798.243 15.142h186.387m-186.387 1491.049h186.387" style="display:inline;fill:none;fill-opacity:1;stroke:#b10dc9;stroke-width:30.2362;stroke-dasharray:none;stroke-opacity:1" transform="translate(-67.952 -.02)"/>
  <path d="M3616.08 600.247a3434 3434 0 0 1-199.244-16.894c-48.824-5.384-114.17 69.384-153.249 106.003-25.805-50.17-53.93-138.77-91.383-148.144-151.533-37.965-265.797-93.797-286.914-167.73v232.055c9.979 66.368 99.784 118.488 235.026 156.406 33.88 9.467 113.614-47.108 143.317-72.587 12.16 1.717 38.707 111.85 72.959 116.91 88.645 13.087 177.754 20.699 277.863 25.99m187.361 4.594c105.84.321 165.338-3.044 266.398-11.045 22.749-1.801 64.668-97.358 104.8-113.275 21.629 22.342 90.208 95.543 112.454 92.877 283.893-34.016 446.788-96.017 456.265-199.87V373.482c-10.003 95.16-187.2 159.723-459.588 197.576-41.392 30.107-75.826 125.015-109.132 141.472-11.276 5.572-81.814-65.143-127.964-115.203-100.077 8.277-140.925 7.36-245.925 7.328" style="display:inline;fill:#ff851b;fill-opacity:.7;stroke:none;stroke-width:12.2989;stroke-dasharray:none;stroke-opacity:1" transform="translate(-67.952 -.02)"/>
  <path d="M4741.733 373.482c0 84.19-185.818 157.889-458.607 198.562m-238.077 25.283c-78.94 5.352-161.724 8.21-246.76 8.21m-180.818-5.151a3156 3156 0 0 1-203.187-17.312M3171.6 541.12c-176.408-42.234-286.31-101.733-286.31-167.637m1856.443 232.055c0 85.1-183.148 159.481-456.265 199.87M4048.42 830.1c-75.027 4.89-153.751 7.494-234.908 7.494h-13.274" class="stroke-blue fill-blue" style="display:inline;fill:none;stroke:#ff851b;stroke-width:30.2362;stroke-dasharray:none;stroke-opacity:1" transform="translate(-67.952 -.02)"/>
  <path d="M3172.204 541.212c46.55 10.674 34.622 36.479 65.207 94.539" class="stroke-blue fill-blue" style="fill:none;fill-opacity:1;stroke:#ff851b;stroke-width:30.2362;stroke-linecap:round;stroke-dasharray:none;stroke-opacity:1" transform="translate(-67.952 -.02)"/>
  <path d="M3614.455 832.255a3063 3063 0 0 1-256.653-24.505m-246.722-50.495a1114 1114 0 0 1-24.876-7.519c-125.774-39.588-200.914-89.712-200.914-144.199" class="stroke-blue fill-blue" style="display:inline;fill:none;stroke:#ff851b;stroke-width:30.2362;stroke-dasharray:none;stroke-opacity:1" transform="translate(-67.952 -.02)"/>
  <path d="M3416.883 583.353c-77.739-13.645-189.172 200.217-302.6 174.83m173.113-22.463c30.631 58.107 22.045 65.3 66.646 72.54" class="stroke-blue fill-blue" style="fill:none;fill-opacity:1;stroke:#ff851b;stroke-width:30.2362;stroke-linecap:round;stroke-dasharray:none;stroke-opacity:1" transform="translate(-67.952 -.02)"/>
  <path d="M2385.249 601.504V714.52h-353.504v92.219h353.504v113.05l271.905-159.125z" class="stroke-comment fill-comment" style="display:inline;fill:#616161;stroke:none;stroke-width:30.2464;stroke-miterlimit:4.1;stroke-dasharray:none"/>
</svg>
