<svg xmlns="http://www.w3.org/2000/svg" viewBox="0 0 4756.852 1521.294">
  <g style="display:inline" class="">
    <path d="M40.746 109.886c-7.915-.388-14.91-1.963-15.746-4.886v5c.424 2.826 7.572 4.455 15.71 4.885m4.038.099c2.152.007 3.53-.011 5.596-.164.683-.051 1.22-.139 2.652-2.476 1.927 2.064 1.883 1.994 2.452 1.92 5.866-.763 9.272-2.583 9.552-4.264v-5c-.215 2.05-4.083 3.45-9.62 4.239-.811.115-2.039 2.31-2.384 3.105-.522-.436-1.94-2.584-2.724-2.53a83 83 0 0 1-5.6.186" style="display:inline;fill:#ff851b;fill-opacity:.7;stroke:none;stroke-width:.264999;stroke-dasharray:none;stroke-opacity:1" transform="translate(-1145.159 -4498.87)scale(46.41107)" class=""/>
    <path d="M25 105v5c1.684-6.934 38.497-6.526 40 0v-5c-.716-6.316-38-7-40 0" class="" style="display:inline;fill:#ff851b;fill-opacity:.7;stroke:none;stroke-width:.264999;stroke-dasharray:none;stroke-opacity:1" transform="translate(-1145.159 -4498.87)scale(46.41107)"/>
    <path d="M63.47 108.079c.986.591 1.53 1.24 1.53 1.921 0 1.804-3.822 3.385-9.552 4.264m-5.104.556a78 78 0 0 1-5.63.18m-4.03-.117C31.715 114.39 25 112.391 25 110c0-.656.505-1.283 1.424-1.857m2.445-1.099C32.509 105.804 38.379 105 45 105c6.643 0 12.53.81 16.167 2.056" class="" style="display:inline;fill:none;stroke:#ff851b;stroke-width:.651487;stroke-dasharray:none;stroke-opacity:1" transform="translate(-1145.159 -4498.87)scale(46.41107)"/>
    <path d="M40.776 109.888C31.76 109.404 25 107.4 25 105c0-2.761 8.954-5 20-5s20 2.239 20 5c0 1.787-3.886 3.354-9.62 4.239m-5.347.581a79 79 0 0 1-5.361.18" class="" style="display:inline;fill:none;stroke:#ff851b;stroke-width:.651487;stroke-dasharray:none;stroke-opacity:1" transform="translate(-1145.159 -4498.87)scale(46.41107)"/>
    <path d="M25 105v5m40-5v5" class="" style="display:inline;fill:none;fill-opacity:1;stroke:#ff851b;stroke-width:.651487;stroke-dasharray:none;stroke-opacity:1" transform="translate(-1145.159 -4498.87)scale(46.41107)"/>
    <path d="M50.665 100.215c2.45.181 4.147.428 6.538.816l-.67 4.87c-2.624-.398-3.88-.544-6.158-.718zm-9.923 9.79c2.452.181 1.567-.255 3.958.134l.018 4.69c-.034-.006-3.99-.06-3.99-.06z" class="" style="fill:#aaa;fill-opacity:1;stroke:#aaa;stroke-width:.0649999;stroke-dasharray:none;stroke-opacity:1" transform="translate(-1145.159 -4498.87)scale(46.41107)"/>
  </g>
  <path d="M81.94-8.863c1.026-.078.925.568 1.925 1.568m1.94 1.94c1 1 .646 1.065 1.61.93m-.132-5.001c-1.687.214-2.579 5.363-5.074 5.564" class="" style="fill:none;fill-opacity:1;stroke:#ff851b;stroke-width:.651487;stroke-linecap:round;stroke-dasharray:none;stroke-opacity:1" transform="translate(-2624.864 1009.257)scale(46.41107)"/>
  <g style="display:inline" class="">
    <path d="M103.883-11.255v5c1 6.664 39.39 6.671 40 0v-5c-.66 6.273-38 7-40 0" class="" style="display:inline;fill:#b10dc9;fill-opacity:.61270356;stroke:none;stroke-width:.264999;stroke-dasharray:none;stroke-opacity:1" transform="rotate(90 2091.668 -1765.586)scale(37.27643)"/>
    <path d="M125.68-11.256c8.924.256 17.501 1.955 18.203 5.001v-5c-.338-2.981-9.006-4.707-18.082-4.963m-5.908.05c-8.022.37-15.165 1.956-16.01 4.913v5c.714-2.944 7.864-4.581 15.852-4.972" class="" style="display:inline;fill:#b10dc9;fill-opacity:.61270356;stroke:none;stroke-width:.264999;stroke-dasharray:none;stroke-opacity:1" transform="rotate(90 2091.668 -1765.586)scale(37.27643)"/>
    <path d="M142.353-8.176c.985.591 1.53 1.24 1.53 1.921 0 2.762-8.955 5-20 5s-20-2.238-20-5c0-.656.505-1.282 1.424-1.856m2.445-1.1c2.846-.97 7.142-1.728 12.01-1.988m5.911-.033c5.846.14 11.096.909 14.377 2.033" style="display:inline;fill:none;stroke:#b10dc9;stroke-width:.811135;stroke-dasharray:none;stroke-opacity:1" transform="rotate(90 2091.668 -1765.586)scale(37.27643)" class=""/>
    <path d="M125.8-16.241c10.072.259 18.083 2.4 18.083 4.986 0 2.762-8.955 5-20 5s-20-2.238-20-5c0-2.407 6.965-4.433 16.03-4.909" style="display:inline;fill:none;stroke:#b10dc9;stroke-width:.811135;stroke-dasharray:none;stroke-opacity:1" transform="rotate(90 2091.668 -1765.586)scale(37.27643)" class=""/>
    <path d="M103.883-11.255v5m40-5v5" style="display:inline;fill:none;fill-opacity:1;stroke:#b10dc9;stroke-width:.811135;stroke-dasharray:none;stroke-opacity:1" transform="rotate(90 2091.668 -1765.586)scale(37.27643)" class=""/>
  </g>
  <path d="M100.276-13.325v5c1.684-6.934 38.497-6.526 40 0v-5c-.716-6.316-38-7-40 0" class="" style="display:inline;fill:#ff851b;fill-opacity:.7;stroke:none;stroke-width:.264999;stroke-dasharray:none;stroke-opacity:1" transform="translate(-1768.626 991.88)scale(46.41107)"/>
  <path d="M100.276-8.325c0-.656.505-1.282 1.424-1.856m37.046-.065c.986.592 1.53 1.24 1.53 1.921m-36.131-2.956c3.64-1.24 9.51-2.044 16.131-2.044 6.643 0 12.53.81 16.167 2.056m-36.167-2.056c0-2.761 8.954-5 20-5s20 2.239 20 5" class="" style="display:inline;fill:none;stroke:#ff851b;stroke-width:.651487;stroke-dasharray:none;stroke-opacity:1" transform="translate(-1768.626 991.88)scale(46.41107)"/>
  <path d="M100.276-13.325v5m40-5v5" class="" style="display:inline;fill:none;fill-opacity:1;stroke:#ff851b;stroke-width:.651487;stroke-dasharray:none;stroke-opacity:1" transform="translate(-1768.626 991.88)scale(46.41107)"/>
  <path d="M125.94-18.11c2.452.182 4.148.428 6.539.817l-.67 4.87c-2.624-.399-3.88-.544-6.158-.719zm-9.918 9.671c2.184.075 1.589.038 3.97.146l.002 4.798c-.034-.006-3.99-.06-3.99-.06z" class="" style="fill:#aaa;fill-opacity:1;stroke:#aaa;stroke-width:.0649999;stroke-dasharray:none;stroke-opacity:1" transform="translate(-1768.626 991.88)scale(46.41107)"/>
  <path d="M119.947-21.046h4.016c5.352.803 5.358 31.638 0 32.127h-4.016c5.039-.529 5.623-30.52 0-32.127" class="" style="display:inline;fill:#b10dc9;fill-opacity:.61270356;stroke:none;stroke-width:.212842;stroke-dasharray:none;stroke-opacity:1" transform="translate(-1768.626 991.88)scale(46.41107)"/>
  <path d="M119.994-3.495c.205 7.168 1.523 14.013 3.97 14.576h-4.017c-2.394-.27-3.737-7.346-3.942-14.636m.017-4.884c.297-6.444 1.55-11.928 3.925-12.607h4.016c-2.364.574-3.68 6.317-3.993 12.733" class="" style="display:inline;fill:#b10dc9;fill-opacity:.61270356;stroke:none;stroke-width:.212842;stroke-dasharray:none;stroke-opacity:1" transform="translate(-1768.626 991.88)scale(46.41107)"/>
  <path d="M119.994-3.495c.112 4.695.542 7.777 1.605 11.498.185.648.408 1.316.821 1.85.402.52.997 1.228 1.543 1.228 2.218 0 4.016-7.192 4.016-16.063 0-8.872-1.798-16.064-4.016-16.064-.527 0-1.102.653-1.49 1.144-.446.563-.677 1.277-.884 1.964-.943 3.12-1.388 5.736-1.597 9.645" style="display:inline;fill:none;stroke:#b10dc9;stroke-width:.651487;stroke-dasharray:none;stroke-opacity:1" transform="translate(-1768.626 991.88)scale(46.41107)" class=""/>
  <path d="M116.005-3.555c.208 8.09 1.865 14.636 3.942 14.636.509 0 .996-.378 1.443-1.068m1.055-2.414c.925-2.943 1.518-7.485 1.518-12.581 0-5.186-.614-9.798-1.568-12.735m-.91-2.11c-.474-.786-.993-1.219-1.538-1.219-1.933 0-3.543 5.326-3.925 12.607" style="display:inline;fill:none;stroke:#b10dc9;stroke-width:.651487;stroke-dasharray:none;stroke-opacity:1" transform="translate(-1768.626 991.88)scale(46.41107)" class=""/>
  <path d="M119.947-21.046h4.016m-4.016 32.127h4.016" style="display:inline;fill:none;fill-opacity:1;stroke:#b10dc9;stroke-width:.651487;stroke-dasharray:none;stroke-opacity:1" transform="translate(-1768.626 991.88)scale(46.41107)" class=""/>
  <path d="M116.022-8.439a74 74 0 0 1-4.293-.364c-1.052-.116-2.46 1.495-3.302 2.284-.556-1.081-1.162-2.99-1.969-3.192-3.265-.818-5.727-2.021-6.182-3.614v5c.215 1.43 2.15 2.553 5.064 3.37.73.204 2.448-1.015 3.088-1.564.262.037.834 2.41 1.572 2.519 1.91.282 3.83.446 5.987.56m4.037.099c9.883.03 19.945-1.62 20.252-4.984v-5c-.339 3.225-10.369 4.984-20.31 4.981" style="display:inline;fill:#ff851b;fill-opacity:.7;stroke:none;stroke-width:.264999;stroke-dasharray:none;stroke-opacity:1" transform="translate(-1768.626 991.88)scale(46.41107)" class=""/>
  <path d="M140.276-13.325c0 2.762-9.282 5-20.328 5m-3.896-.111a68 68 0 0 1-4.378-.373m-5.229-.904c-3.801-.91-6.169-2.192-6.169-3.612m40 5c0 2.762-8.954 5-20 5h-.286" class="" style="display:inline;fill:none;stroke:#ff851b;stroke-width:.651487;stroke-dasharray:none;stroke-opacity:1" transform="translate(-1768.626 991.88)scale(46.41107)"/>
  <path d="M106.458-9.711c1.003.23.746.786 1.405 2.037" class="" style="fill:none;fill-opacity:1;stroke:#ff851b;stroke-width:.651487;stroke-linecap:round;stroke-dasharray:none;stroke-opacity:1" transform="translate(-1768.626 991.88)scale(46.41107)"/>
  <path d="M115.987-3.44a66 66 0 0 1-5.53-.528m-5.316-1.088a24 24 0 0 1-.536-.162c-2.71-.853-4.329-1.933-4.329-3.107" class="" style="display:inline;fill:none;stroke:#ff851b;stroke-width:.651487;stroke-dasharray:none;stroke-opacity:1" transform="translate(-1768.626 991.88)scale(46.41107)"/>
  <path d="M111.73-8.803c-1.675-.294-4.076 4.314-6.52 3.767m3.73-.484c.66 1.252.475 1.407 1.436 1.563" class="" style="fill:none;fill-opacity:1;stroke:#ff851b;stroke-width:.651487;stroke-linecap:round;stroke-dasharray:none;stroke-opacity:1" transform="translate(-1768.626 991.88)scale(46.41107)"/>
  <path d="M112.206-10.702v3.331h-10.419v2.718h10.419v3.332l8.014-4.69z" class="" style="display:inline;fill:#aaa;stroke:none;stroke-width:.891466;stroke-miterlimit:4.1;stroke-dasharray:none" transform="translate(-1430.926 964.615)scale(33.9288)"/>
  <path d="M53.16-.567h5.6l.678 6.632c-.047-.008-5.453 0-5.453 0z" class="" style="display:inline;fill:#aaa;fill-opacity:.878431;stroke:#aaa;stroke-width:.0889129;stroke-dasharray:none;stroke-opacity:1" transform="translate(-1430.926 964.615)scale(33.9288)"/>
  <path d="M53.21-.955h5.6l.678 6.632c-.047-.008-5.453 0-5.453 0zM158.327-21.07h5.6l.678 6.631c-.047-.008-5.453 0-5.453 0z" class="" style="display:inline;fill:#aaa;fill-opacity:1;stroke:#aaa;stroke-width:.0889129;stroke-dasharray:none;stroke-opacity:1" transform="translate(-1430.926 964.615)scale(33.9288)"/>
</svg>
