<svg xmlns="http://www.w3.org/2000/svg" viewBox="0 0 1200 310.126">
  <path d="M250 175.063H0v-40h250z" style="fill:#0074d9;stroke-width:1.84012;stroke-linecap:round;stroke-linejoin:round;paint-order:stroke fill markers"/>
  <path d="M500 175.063H250v-40h250z" style="fill:#b10dc9;stroke-width:1.84012;stroke-linecap:round;stroke-linejoin:round;paint-order:stroke fill markers"/>
  <text x="203.993" y="81.803" style="font-size:112.438px;font-family:Inter;-inkscape-font-specification:Inter;text-align:start;writing-mode:lr-tb;direction:ltr;text-anchor:start;fill:#616161;stroke-width:3.02362;stroke-linecap:round;stroke-linejoin:round;paint-order:stroke fill markers">
    <tspan x="203.993" y="81.803">w</tspan>
  </text>
  <path d="M200 155.063a50 50 0 0 1 50-50 50 50 0 0 1 50 50 50 50 0 0 1-50 50 50 50 0 0 1-50-50" style="fill:#616161;stroke-width:2.25367;stroke-linecap:round;stroke-linejoin:round;paint-order:stroke fill markers"/>
  <path d="M950 175.063H700v-40h250z" style="fill:#0074d9;stroke-width:1.84012;stroke-linecap:round;stroke-linejoin:round;paint-order:stroke fill markers"/>
  <path d="M1200 175.063H950v-40h250z" style="fill:#b10dc9;stroke-width:1.84012;stroke-linecap:round;stroke-linejoin:round;paint-order:stroke fill markers"/>
  <path d="M900 155.063a50 50 0 0 1 50-50 50 50 0 0 1 50 50 50 50 0 0 1-50 50 50 50 0 0 1-50-50" style="fill:#616161;stroke-width:2.25367;stroke-linecap:round;stroke-linejoin:round;paint-order:stroke fill markers"/>
  <text x="219.31" y="289.702" style="font-size:112.438px;font-family:Inter;-inkscape-font-specification:Inter;text-align:start;writing-mode:lr-tb;direction:ltr;text-anchor:start;fill:#616161;stroke-width:3.02362;stroke-linecap:round;stroke-linejoin:round;paint-order:stroke fill markers">
    <tspan x="219.31" y="289.702">x</tspan>
  </text>
  <text x="887.453" y="419.363" style="font-size:112.438px;font-family:Inter;-inkscape-font-specification:Inter;text-align:start;writing-mode:lr-tb;direction:ltr;text-anchor:start;fill:#616161;stroke-width:3.02362;stroke-linecap:round;stroke-linejoin:round;paint-order:stroke fill markers" transform="translate(-36.743 -337.56)">
    <tspan x="887.453" y="419.363">w</tspan>
  </text>
  <text xml:space="preserve" x="970.394" y="423.151" style="font-size:112.438px;font-family:Inter;-inkscape-font-specification:Inter;text-align:start;writing-mode:lr-tb;direction:ltr;text-anchor:start;fill:#616161;fill-opacity:1;stroke-width:5.634;stroke-linejoin:round;paint-order:stroke fill markers" transform="translate(-36.743 -337.56)">
    <tspan x="970.394" y="423.151" style="font-size:112.438px">&#177;</tspan>
  </text>
  <text xml:space="preserve" x="325.538" y="20.041" style="font-size:112.438px;font-family:Inter;-inkscape-font-specification:Inter;text-align:start;writing-mode:lr-tb;direction:ltr;text-anchor:start;fill:#616161;fill-opacity:1;stroke-width:5.634;stroke-linejoin:round;paint-order:stroke fill markers" transform="translate(672.059 61.762)">
    <tspan x="325.538" y="20.041" style="font-size:112.438px">1</tspan>
  </text>
  <text x="863.847" y="269.279" style="font-size:112.438px;font-family:Inter;-inkscape-font-specification:Inter;text-align:start;writing-mode:lr-tb;direction:ltr;text-anchor:start;fill:#616161;stroke-width:3.02362;stroke-linecap:round;stroke-linejoin:round;paint-order:stroke fill markers" transform="translate(0 40.847)">
    <tspan x="863.847" y="269.279">x</tspan>
  </text>
  <text xml:space="preserve" x="920.788" y="-207.735" style="font-size:112.438px;font-family:Inter;-inkscape-font-specification:Inter;text-align:start;writing-mode:lr-tb;direction:ltr;text-anchor:start;fill:#616161;fill-opacity:1;stroke-width:5.634;stroke-linejoin:round;paint-order:stroke fill markers" transform="matrix(1 0 0 -1 0 40.847)">
    <tspan x="920.788" y="-207.735" style="font-size:112.438px">&#177;</tspan>
  </text>
  <text xml:space="preserve" x="325.538" y="20.041" style="font-size:112.438px;font-family:Inter;-inkscape-font-specification:Inter;text-align:start;writing-mode:lr-tb;direction:ltr;text-anchor:start;fill:#616161;fill-opacity:1;stroke-width:5.634;stroke-linejoin:round;paint-order:stroke fill markers" transform="translate(659.196 290.085)">
    <tspan x="325.538" y="20.041" style="font-size:112.438px">1</tspan>
  </text>
</svg>
