<svg xmlns="http://www.w3.org/2000/svg" viewBox="0 0 1900 269.279"><path d="M831.574 518.426h-250v-40h250z" style="fill:#0074d9;stroke-width:1.84012;stroke-linecap:round;stroke-linejoin:round;paint-order:stroke fill markers" transform="translate(-581.574 -363.786)"/><path d="M1081.574 518.426h-250v-40h250z" style="fill:#b10dc9;stroke-width:1.84012;stroke-linecap:round;stroke-linejoin:round;paint-order:stroke fill markers" transform="translate(-581.574 -363.786)"/><text x="785.567" y="425.166" style="font-size:112.438px;font-family:Inter;-inkscape-font-specification:Inter;text-align:start;writing-mode:lr-tb;direction:ltr;text-anchor:start;fill:#616161;stroke-width:3.02362;stroke-linecap:round;stroke-linejoin:round;paint-order:stroke fill markers" transform="translate(-581.574 -363.786)"><tspan x="785.567" y="425.166">w</tspan></text><path d="M781.574 498.426a50 50 0 0 1 50-50 50 50 0 0 1 50 50 50 50 0 0 1-50 50 50 50 0 0 1-50-50" style="fill:#616161;stroke-width:2.25367;stroke-linecap:round;stroke-linejoin:round;paint-order:stroke fill markers" transform="translate(-581.574 -363.786)"/><path d="M831.574 518.426h-250v-40h250z" style="fill:#0074d9;stroke-width:1.84012;stroke-linecap:round;stroke-linejoin:round;paint-order:stroke fill markers" transform="translate(118.426 -363.786)"/><path d="M1081.574 518.426h-250v-40h250z" style="fill:#b10dc9;stroke-width:1.84012;stroke-linecap:round;stroke-linejoin:round;paint-order:stroke fill markers" transform="translate(118.426 -363.786)"/><text x="785.567" y="425.166" style="font-size:112.438px;font-family:Inter;-inkscape-font-specification:Inter;text-align:start;writing-mode:lr-tb;direction:ltr;text-anchor:start;fill:#616161;stroke-width:3.02362;stroke-linecap:round;stroke-linejoin:round;paint-order:stroke fill markers" transform="translate(118.426 -363.786)"><tspan x="785.567" y="425.166">w</tspan></text><path d="M781.574 498.426a50 50 0 0 1 50-50 50 50 0 0 1 50 50 50 50 0 0 1-50 50 50 50 0 0 1-50-50" style="fill:#616161;stroke-width:2.25367;stroke-linecap:round;stroke-linejoin:round;paint-order:stroke fill markers" transform="translate(118.426 -363.786)"/><path d="m971.104 462.595 15.309-10.301-.237-.351-.236-.352-.247-.366-.073-.11-.251-.353-.251-.353-.25-.353-.251-.353-.251-.353-.079-.104-.26-.346-.26-.347-.259-.346-.26-.347-.076-.105-.268-.34-.269-.339-.268-.34-.269-.339-.268-.34-.082-.1-.277-.333-.277-.332-.277-.333-.277-.332-.277-.333-.086-.094-.286-.326-.285-.325-.286-.325-.286-.326-.082-.096-.294-.318-.294-.318-.294-.318-.294-.318-.294-.317-.086-.092-.302-.31-.303-.31-.302-.31-.302-.31-.302-.31-.091-.087-.31-.302-.31-.302-.31-.302-.31-.302-.086-.09-.318-.294-.318-.294-.318-.294-.318-.294-.318-.294-.09-.085-.325-.286-.326-.285-.325-.286-.326-.285-.325-.286-.093-.081-.333-.277-.333-.277-.339-.282-.333-.277-.333-.277-.096-.077-.34-.269-.34-.268-.34-.268-.34-.268-.34-.268-.099-.074-.347-.259-.347-.259-.347-.259-.346-.26-.347-.259-.102-.071-.353-.25-.354-.25-.353-.25-.354-.249-.353-.25-.104-.069-.36-.24-.36-.241-.36-.241-.36-.24-.36-.241-.106-.066-.366-.231-.366-.232-.366-.231-.366-.231-.366-.231-.108-.065-.371-.221-.372-.222-.372-.221-.372-.222-.372-.222-.11-.063-.377-.212-.378-.212-.377-.212-.378-.212-.377-.211-.111-.063-.383-.202-.383-.203-.383-.202-.383-.202-.383-.202-.112-.063-.388-.192-.388-.192-.388-.192-.388-.193-.388-.192-.388-.192-.118-.054-.393-.182-.393-.182-.393-.182-.392-.182-.393-.183-.12-.055-.397-.172-.397-.172-.398-.172-.397-.172-.397-.172-.397-.172-.126-.047-.401-.162-.402-.162-.401-.162-.401-.162-.402-.162-.126-.05-.406-.152-.405-.152-.406-.152-.405-.152-.405-.151-.406-.152-.131-.043-.409-.142-.409-.142-.409-.141-.409-.142-.409-.142-.133-.047-.412-.131-.413-.132-.412-.131-.413-.132-.412-.131-.412-.132-.137-.042-.416-.121-.415-.121-.416-.122-.416-.121-.415-.122-.416-.121-.141-.037-.418-.111-.418-.111-.419-.112-.418-.111-.418-.111-.419-.111-.145-.034-.421-.101-.42-.101-.421-.101-.421-.101-.421-.102-.421-.101-.149-.03-.423-.091-.423-.091-.423-.091-.424-.091-.423-.092-.423-.091-.152-.028-.425-.081-.426-.081-.425-.081-.425-.081-.425-.081-.425-.081-.156-.027-.427-.071-.427-.072-.427-.071-.427-.071-.427-.071-.427-.071-.159-.027-.429-.061-.428-.062-.429-.061-.428-.061-.429-.062-.428-.061-.429-.061-.164-.017-.43-.052-.43-.052-.429-.051-.43-.052-.43-.052-.43-.051-.167-.019-.431-.041-.431-.042-.431-.042-.43-.042-.431-.042-.431-.042-.431-.042-.172-.011-.431-.033-.432-.032-.432-.033-.431-.032-.432-.033-.432-.032-.175-.014-.432-.023-.432-.023-.433-.023-.432-.023-.432-.023-.432-.023-.433-.023-.179-.009-.432-.014-.433-.013-.433-.014-.433-.014-.432-.014-.433-.013-.433-.014-.183-.004-.432-.005-.433-.005-.433-.004-.433-.005-.433-.004-.433-.005-.433-.004.001-.083-.003-.075.005-.077-.003-.075.001-.083v-.069l.001-.082-.003-.075.001-.083v-.069l.001-.083-.003-.075.001-.082v-.069l.001-.083-.003-.075.001-.083-.001-.069.002-.082-.004-.075.002-.083-.001-.069-.003-.075.001-.083-.003-.074.005-.077-.003-.075.001-.083-.003-.075.004-.077-.003-.074.001-.083-.003-.075.005-.077-.003-.075.001-.083-.003-.074.005-.078-.004-.074.002-.083-.004-.075.005-.077-.003-.075.001-.083-.003-.074.005-.077-.004-.075.002-.083-.001-.069.002-.083-.004-.075.002-.082-.001-.069.001-.083-.003-.075.001-.083v-.069l-.003-.074.005-.077-.003-.075.001-.083-.003-.075.004-.077-.003-.074.001-.083-.003-.075.005-.077-.003-.075.001-.083-.003-.075.004-.077-.003-.074.001-.083-.003-.075.005-.077-.003-.075.001-.083-.003-.075.005-.077-.004-.074.002-.083-.001-.069.001-.083-.003-.075.001-.083v-.068l.001-.083-.003-.075.001-.083v-.069l.001-.083-.003-.074.001-.083v-.069l.001-.083-.003-.075.001-.083v-.068l.001-.083-.003-.075-.003-.075.004-.077-.003-.075.001-.083-.003-.074.005-.077-.003-.075.001-.083-.003-.075.005-.077-.004-.075.002-.082-.004-.075.005-.077-.003-.075.001-.083-.003-.075.005-.077-.001-.068.002-.083-.004-.075.002-.083-.001-.069.002-.083-.004-.074.002-.083-.001-.069.001-.083-.003-.075.001-.083v-.069l.001-.082-.003-.075.001-.083v-.069l-.003-.075.001-.083-.003-.074.005-.077-.004-.075.002-.083-.004-.075.005-.077-.003-.075.001-.082-.003-.075.005-.077-.003-.075.001-.083-.003-.075.004-.077-.003-.074.001-.083-.003-.075.005-.077-.003-.075.001-.083-.003-.074.004-.078-.003-.074.001-.083v-.069l.001-.083-.003-.075.001-.083v-.068l.001-.083-.003-.075.001-.083v-.069l.001-.083-.003-.074.001-.083v-.069l.001-.083-.003-.075.001-.083v-.068l-.003-.075.001-.083-.003-.075-.001-.069-.003-.074.005-.077-.003-.075.001-.083-.003-.075.004-.077-.003-.075.001-.082-.003-.075.005-.077-.003-.075.001-.083-.003-.075.005-.077-.004-.074.001-.083v-.069l.001-.083-.003-.075.001-.083v-.068l.001-.083-.003-.075.001-.083v-.069l.001-.083-.003-.074.001-.083v-.069l.001-.083-.003-.075-.003-.074.005-.077-.004-.075.001-.083-.003-.075.005-.077-.003-.075.001-.082-.003-.075.005-.077-.004-.075.002-.083-.004-.075.005-.077-.003-.074.001-.083-.003-.075.005-.077-.003-.075.001-.083-.004-.074.005-.078-.003-.074.001-.083v-.069l.001-.083-.003-.075.001-.082v-.069l.001-.083v-.069l.001-.083-.003-.075.001-.082v-.069l.001-.083-.003-.075-.003-.075.004-.077-.003-.074.001-.083-.003-.075.005-.077.433.004.433.005.433.005.432.004.433.005.433.004.433.005.433.004.6.017.433.014.433.014.433.013.432.014.433.014.433.014.603.021.432.023.432.023.432.023.433.023.432.023.432.023.433.023.604.036.432.032.432.033.431.032.432.033.432.032.431.033.432.032.606.052.431.042.431.042.431.042.431.042.43.042.431.042.431.042.607.07.43.052.429.051.43.052.43.052.43.051.43.052.607.079.429.062.429.061.428.061.429.062.428.061.429.061.608.09.427.072.427.071.427.071.427.071.427.071.427.072.427.071.608.111.425.082.425.081.425.081.426.081.425.081.425.081.607.125.423.091.424.091.423.091.423.091.423.091.423.091.607.139.42.101.421.101.421.102.421.101.421.101.421.101.604.154.419.111.418.111.419.112.418.111.418.111.419.111.602.17.415.122.416.121.415.122.416.121.415.121.416.122.599.187.412.131.413.132.412.132.412.131.413.132.598.195.409.141.409.142.409.142.409.142.409.141.409.142.594.214.405.152.405.152.406.152.405.151.406.152.405.152.587.234.402.162.401.162.402.162.401.162.402.162.584.244.398.172.397.172.397.172.397.172.398.172.581.255.393.182.393.182.392.182.393.182.393.182.393.183.572.276.388.192.388.192.388.192.388.192.388.192.568.289.383.202.383.202.383.202.383.202.382.202.563.301.377.212.378.212.377.212.378.212.377.211.378.212.55.324.372.222.372.221.372.222.372.221.372.222.543.337.366.231.366.231.366.231.366.232.366.231.535.35.36.241.36.241.36.24.36.241.36.241.526.364.353.25.354.25.353.25.354.25.353.25.517.378.346.259.347.259.347.259.347.259.347.26.506.392.34.268.34.268.34.268.34.268.34.268.495.406.332.277.34.283.332.277.333.276.49.412.326.286.325.285.326.286.325.285.326.286.478.426.317.293.318.294.318.294.318.294.318.294.465.44.31.302.31.302.31.302.31.302.31.302.451.454.302.31.302.31.302.31.303.31.302.31.436.467.294.317.294.318.294.318.294.318.43.472.285.325.286.326.286.325.285.325.286.326.414.485.277.332.277.333.277.332.277.333.278.333.398.497.268.34.269.339.268.34.269.34.39.502.259.347.26.346.26.346.259.347.26.346.37.515.25.353.25.353.26.352.25.353.36.52.25.366.23.352.24.351 18.54-12.47-8.48 73.453zm-29.09 99.024 7.335 16.932.114-.047.384-.178.401-.186.392-.182.393-.182.393-.183.393-.182.116-.059.388-.192.388-.192.388-.192.388-.192.388-.192.115-.059.383-.202.383-.202.382-.202.383-.202.383-.202.114-.058.377-.212.378-.212.377-.212.378-.212.378-.212.112-.059.372-.221.371-.222.372-.221.372-.222.372-.221.372-.222.105-.07.366-.231.366-.231.366-.231.366-.231.366-.232.103-.071.36-.241.359-.24.36-.241.36-.24.36-.241.101-.073.353-.25.354-.25.353-.25.353-.25.354-.25.098-.076.347-.259.347-.259.347-.259.346-.26.347-.259.096-.078.34-.269.34-.268.34-.268.339-.268.34-.268.093-.082.339-.282.333-.277.333-.277.333-.277.096-.078.326-.285.325-.286.326-.285.325-.286.326-.285.093-.082.318-.294.318-.294.318-.293.318-.294.318-.294.09-.086.31-.302.31-.303.31-.302.31-.302.31-.302.087-.091.302-.31.302-.31.302-.31.302-.31.091-.088.293-.318.294-.317.294-.318.294-.318.294-.318.086-.093.286-.325.286-.326.285-.325.286-.325.286-.326.081-.098.277-.332.277-.333.278-.333.277-.332.085-.097.268-.339.269-.34.268-.34.269-.339.268-.34.08-.102.26-.346.26-.347.26-.346.259-.346.26-.347.075-.107.25-.353.251-.353.251-.353.251-.353.078-.107.241-.359.242-.359.242-.359.241-.359.242-.359.072-.113.233-.365.232-.365.233-.365.232-.365.075-.112.223-.371.224-.371.223-.371.223-.371.223-.371-.005.01.209-.379.209-.379.209-.379.209-.379.209-.379.21-.379.209-.379.209-.379.209-.379.209-.379-.072.138.19-.389.19-.389.19-.389.19-.389.191-.389.19-.389.19-.389.19-.389.19-.389.19-.389-.063.136.171-.398.17-.398.171-.397.17-.398.171-.398.171-.398.17-.398.171-.397.17-.398.171-.398-.055.133.151-.405.151-.406.151-.406.151-.406.151-.405.151-.406.151-.406.151-.405.151-.406.151-.406-.048.131.131-.413.131-.412.131-.413.131-.412.131-.413.132-.412.131-.413.131-.412.131-.413.131-.412-.043.128.112-.419.111-.418.111-.418.111-.419.112-.418.111-.419.111-.418.111-.418.111-.419.112-.418-.039.125.091-.423.092-.423.091-.423.091-.423.091-.424.091-.423.091-.423.091-.423.091-.423-.014.126.071-.427.071-.427.071-.427.071-.427.071-.427.071-.427.071-.427.071-.427.071-.427.071-.427-.011.124.051-.43.05-.429.051-.43.051-.43.053-.43.05-.43.05-.43.05-.43.05-.43.05-.43-.01.123.03-.432.03-.432.03-.432.03-.432.04-.431.03-.432.03-.432.03-.432.03-.432.03-.431-.01.121.01-.433.01-.433.01-.433.01-.432.01-.433.09.002.07-.002.08.006.07-.003.09.003h.06l.09.003.07-.003.08.003h.07l.09.002.07-.002.08.002.07.001.09.002.07-.002.08.002.07.001.08.002.08-.002.08.002.07.001.08-.002.08.002.07-.002.08.006.08-.003.08.003.07-.003.08.006.07-.002.09.002.07-.002.08.006.07-.003.09.003.07-.003.08.006.07-.002.09.002.07-.002.08.006.07-.002.09.002.07-.002.08.005.07-.002.08.002.07.001.09.002.07-.002.08.002.07.001.09.002.07-.002.08.002.07.001.08-.002.07.006.08-.003.08.003.08-.003.07.006.08-.002.08.002.08-.002.07.006.08-.003.08.003.08-.003.07.006.08-.002.08.002.07-.002.08.006.08-.002.08.002.07-.002.08.005.08-.002.08.002.07.001.08.002.08-.002.08.002.07.001.08.002.07-.002.09.002.07.001.08.002.07-.002.09.002.07.001.08.002.07-.002.09.002.06.001.09.002.07-.002.08-.002.07.005.08-.002.08.002.08-.002.07.006.08-.002.08.002.08-.002.07.006.08-.003.08.003.08-.003.07.006.08-.002.08.002.07-.002.08.006h.07l.08.003.08-.003.08.003h.07l.08.003.08-.003.08.003h.07l.08.002.08-.002.08.002.07.001.08.002.08-.002.08.002.07.001.07-.002.09.002.07-.002.08.006.07-.003.09.003.07-.003.08.006.07-.002.08.002.08-.002.08.006.07-.002.08.002.08-.002.08.005.07-.002.08.002.08-.002.07.006.08-.002.08.002.08-.002.07.005.08-.002.08.002.07.001.08.002.08-.002.08.002.07.001.08.002.08-.002.08.002.07.001.08.002.08-.002.08.002.07.001.08.002.08-.002.08.002.07.001.07-.002.09.002.07-.002h.07l.07-.002.08.006.08-.002.08.002.07-.002.08.005.08-.002.08.002.07-.002.08.006.07-.002.09.002.07-.002.08.006.07-.003.09.003h.07l.08.002.07-.002.09.003h.06l.09.002.07-.002.09.002.06.001.09.002.07-.002.08.002.07.001.09.002.07-.002.08-.002.07.006.08-.003.08.003.08-.003.07.006.08-.002.08.002.07-.002.08.006.08-.003.08.003.07-.002.08.005.08-.002.08.002.07-.002.08.006.08-.002.08.002.07-.002.08.005.07-.002.09.002.07.001.08.002.07-.002.09.002.07.001.08.002.07.001.08.002.07-.002.09.002.07.001.08.002.07-.002.08-.002.08.005.07-.002.08.002.08-.002.08.006-.02.433-.01.433-.01.432-.01.433-.01.433-.01.433-.04.803-.03.432-.03.432-.03.432-.03.431-.03.432-.03.432-.04.432-.03.432-.03.431-.06.804-.05.429-.05.43-.05.43-.06.43-.05.43-.05.43-.05.43-.05.43-.05.43-.05.429-.11.8-.07.427-.07.427-.07.427-.07.427-.07.427-.07.427-.07.427-.08.427-.07.427-.07.427-.15.795-.09.424-.09.423-.09.423-.09.423-.09.423-.09.423-.09.424-.1.423-.09.423-.09.423-.19.789-.11.418-.11.418-.11.419-.11.418-.11.418-.11.419-.12.418-.11.418-.11.419-.11.418-.23.781-.13.412-.13.413-.13.412-.14.413-.13.412-.13.413-.13.412-.13.413-.13.412-.13.413-.27.77-.15.406-.16.406-.15.405-.15.406-.15.406-.15.405-.15.406-.15.406-.15.405-.15.406-.31.759-.17.398-.18.398-.17.397-.17.398-.17.398-.17.398-.17.398-.17.398-.17.397-.17.398-.35.746-.19.388-.19.389-.19.389-.19.389-.19.389-.19.389-.19.389-.19.389-.19.389-.19.389-.39.73-.21.379-.21.379-.21.379-.21.379-.21.379-.21.379-.2.379-.21.379-.21.379-.21.379-.37.631-.22.371-.23.37-.22.371-.22.371-.34.539-.23.366-.23.365-.23.365-.24.365-.23.365-.35.529-.24.359-.24.359-.24.36-.24.359-.36.524-.25.353-.25.353-.25.353-.26.352-.25.353-.37.513-.262.346-.259.347-.26.346-.26.347-.384.507-.268.34-.269.339-.268.34-.268.34-.269.339-.4.496-.278.332-.277.333-.277.333-.277.332-.277.333-.417.483-.285.325-.286.325-.285.326-.286.325-.424.478-.294.317-.294.318-.294.318-.294.318-.294.318-.438.464-.302.31-.303.31-.302.31-.302.311-.302.31-.453.451-.31.302-.31.302-.31.302-.31.302-.311.302-.466.438-.318.293-.318.294-.318.294-.318.294-.472.432-.326.286-.325.285-.326.286-.325.285-.326.286-.485.418-.332.276-.333.277-.333.277-.339.283-.333.276-.497.404-.34.268-.34.268-.34.269-.34.268-.34.268-.508.389-.346.26-.347.259-.347.259-.347.259-.347.259-.518.376-.354.25-.353.25-.354.25-.353.25-.353.25-.528.361-.36.241-.36.241-.36.24-.36.241-.36.241-.536.347-.367.232-.366.231-.366.231-.366.231-.366.231-.544.335-.372.221-.372.222-.372.221-.372.222-.372.222-.552.321-.377.211-.378.212-.378.212-.377.212-.378.212-.558.308-.383.202-.383.202-.383.202-.383.202-.382.202-.383.202-.57.286-.388.192-.388.192-.388.192-.387.192-.388.193-.575.273-.392.182-.393.182-.393.182-.4.186-.385.179-.57.258 8.88 20.499-70.382-16.764z" style="display:inline;fill:#ff851b;stroke-width:32.221;stroke-miterlimit:4.1" transform="translate(118.426 -363.786)"/><path d="M831.574 462.425h-250v40h250z" style="fill:#0074d9;stroke-width:1.84012;stroke-linecap:round;stroke-linejoin:round;paint-order:stroke fill markers" transform="translate(818.426 -347.786)"/><path d="M1081.574 462.425h-250v40h250z" style="fill:#b10dc9;stroke-width:1.84012;stroke-linecap:round;stroke-linejoin:round;paint-order:stroke fill markers" transform="translate(818.426 -347.786)"/><text x="785.567" y="617.065" style="font-size:112.438px;font-family:Inter;-inkscape-font-specification:Inter;text-align:start;writing-mode:lr-tb;direction:ltr;text-anchor:start;fill:#616161;stroke-width:3.02362;stroke-linecap:round;stroke-linejoin:round;paint-order:stroke fill markers" transform="translate(818.426 -347.786)"><tspan x="785.567" y="617.065">w</tspan></text><path d="M781.574 482.425a50 50 0 0 0 50 50 50 50 0 0 0 50-50 50 50 0 0 0-50-50 50 50 0 0 0-50 50" style="fill:#616161;stroke-width:2.25367;stroke-linecap:round;stroke-linejoin:round;paint-order:stroke fill markers" transform="translate(818.426 -347.786)"/></svg>