<svg xmlns="http://www.w3.org/2000/svg" viewBox="0 0 185.105 97.014">
  <path d="m92.385 43.01.068 10.978 13.11-5.53zm-18.973 3.682v3.63h13.587v-3.63z" style="fill:none;stroke:#aaa;stroke-width:7.68828;stroke-linejoin:miter;stroke-miterlimit:4.1" class=""/>
  <path d="m71.206 202.774 10-15m0 0 10 15" class="" style="display:inline;fill:none;stroke:#aaa;stroke-width:1.065;stroke-dasharray:none;stroke-opacity:1" transform="translate(-61.306 -175.596)"/>
  <path d="M68.729 201.199q.224.047.35.2.127.151.127.374 0 .343-.236.53-.235.188-.67.188-.145 0-.3-.03-.154-.028-.318-.085v-.302q.13.076.285.114.155.04.324.04.295 0 .448-.117.155-.116.155-.338 0-.205-.144-.32-.142-.116-.398-.116h-.27v-.257h.282q.231 0 .354-.092.122-.093.122-.266 0-.178-.127-.273-.126-.096-.361-.096-.129 0-.276.028t-.324.087v-.28q.178-.05.333-.074.157-.025.295-.025.356 0 .564.163.208.161.208.437 0 .193-.11.326-.11.132-.313.183z" aria-label="3" class="" style="font-size:3.175px;display:inline;fill:#aaa;stroke:#aaa;stroke-width:.265" transform="translate(-61.306 -175.596)"/>
  <path d="M77.264 187.064h1.093v.264h-1.47v-.264q.179-.184.486-.494.308-.312.387-.402.15-.169.21-.285.06-.118.06-.231 0-.185-.13-.3-.129-.117-.336-.117-.148 0-.312.051-.163.051-.349.155v-.316q.19-.076.354-.115t.3-.039q.36 0 .574.18t.214.48q0 .143-.054.272-.053.127-.194.3-.039.046-.247.261-.207.214-.586.6zm39.084 1.606h1.093v.264h-1.47v-.264q.178-.184.485-.494.309-.312.388-.402.15-.169.21-.285.06-.118.06-.231 0-.184-.13-.3-.13-.117-.337-.117-.147 0-.312.051-.162.051-.348.155v-.316q.189-.076.353-.115t.3-.039q.36 0 .575.18.213.18.213.48 0 .143-.054.272-.053.127-.194.3-.038.046-.246.261z" aria-label="2" class="" style="font-size:3.175px;display:inline;fill:#aaa;stroke:#aaa;stroke-width:.265" transform="translate(-61.306 -175.596)"/>
  <path d="M93.355 201.732h.836v.254h-.836zm2.279-.25q.225.047.35.199.127.152.127.375 0 .343-.235.53-.236.188-.67.188-.146 0-.3-.03-.154-.027-.319-.085v-.302q.13.076.286.115.155.038.324.038.294 0 .448-.116t.155-.338q0-.204-.144-.32-.143-.115-.399-.115h-.27v-.258h.283q.23 0 .353-.091.123-.093.123-.267 0-.178-.128-.273-.125-.096-.36-.096-.13 0-.277.028t-.324.087v-.28q.178-.05.334-.075t.294-.024q.357 0 .564.162.208.162.208.437 0 .193-.11.326-.11.132-.313.183z" aria-label="-3" class="" style="font-size:3.175px;display:inline;fill:#aaa;stroke:#aaa;stroke-width:.265" transform="translate(-61.306 -175.596)"/>
  <path d="M97.725 175.713c.578.283.814.988.527 1.573s-.987.83-1.565.548a1.173 1.173 0 0 1-.527-1.573c.286-.585.987-.83 1.565-.548" style="display:inline;fill:#aaa;stroke-width:.0762529" transform="translate(-61.306 -175.596)" class=""/>
  <path d="M97.725 175.713c.578.283.814.988.527 1.573s-.987.83-1.565.548a1.173 1.173 0 0 1-.527-1.573c.286-.585.987-.83 1.565-.548" style="display:inline;fill:#aaa;stroke-width:.0762529" transform="translate(-64.166 -133.685)" class=""/>
  <path d="M91.679 201.608c.578.283.814.987.527 1.572s-.987.831-1.565.548a1.173 1.173 0 0 1-.527-1.573c.286-.585.987-.83 1.565-.548m-9.293-13.845c0 .643-.528 1.165-1.18 1.165s-1.18-.522-1.18-1.165c0-.644.529-1.164 1.18-1.164s1.18.52 1.18 1.164m-10.634 13.856c.578.283.814.987.527 1.573-.286.585-.987.83-1.565.548a1.173 1.173 0 0 1-.527-1.573 1.17 1.17 0 0 1 1.565-.548" style="display:inline;fill:#aaa;stroke-width:.0762529" transform="translate(-61.306 -175.596)" class=""/>
  <path d="m81.206 187.774 16-11" class="" style="display:inline;fill:none;stroke:#aaa;stroke-width:1.065;stroke-dasharray:none;stroke-opacity:1" transform="translate(-61.306 -175.596)"/>
  <path d="m98.252 177.286 15.906 10.602" class="" style="fill:none;stroke:#aaa;stroke-width:1.06583;stroke-linejoin:round;stroke-miterlimit:4.1;stroke-dasharray:none" transform="translate(-61.306 -175.596)"/>
  <path d="M113.754 188.997a1.165 1.18 20 0 1-.69-1.508 1.165 1.18 20 0 1 1.497-.71 1.165 1.18 20 0 1 .691 1.507 1.165 1.18 20 0 1-1.498.711" class="" style="display:inline;fill:#aaa;stroke-width:.0762529" transform="translate(-61.306 -175.596)"/>
  <path d="m114.158 187.888-9.906 15.398m-.118-.159" class="" style="fill:none;stroke:#aaa;stroke-width:1.06583;stroke-linejoin:round;stroke-miterlimit:4.1;stroke-dasharray:none" transform="translate(-61.306 -175.596)"/>
  <path d="M72.189 253.734q-.242 0-.364.239-.121.237-.121.714 0 .476.12.715.123.237.365.237.244 0 .364-.237.123-.239.123-.715 0-.477-.123-.714-.12-.24-.364-.24zm0-.248q.39 0 .594.308.206.307.206.893 0 .585-.206.893-.205.307-.594.307t-.595-.307q-.205-.308-.205-.893 0-.586.205-.893.206-.308.595-.308z" aria-label="0" class="" style="font-size:3.175px;fill:#aaa;stroke:#aaa;stroke-width:.265" transform="translate(-61.306 -175.596)"/>
  <path d="m87.096 269.819-.79 1.236h.79zm-.082-.273h.394v1.509h.33v.26h-.33v.546h-.312v-.546h-1.045v-.302z" aria-label="4" class="" style="font-size:3.175px;fill:#aaa;stroke:#aaa;stroke-width:.265" transform="translate(-61.306 -175.596)"/>
  <path d="M62.485 271.184q.225.048.35.2.127.152.127.375 0 .342-.235.53-.236.188-.67.188-.146 0-.3-.03-.154-.028-.319-.085v-.302q.13.076.286.114.155.04.324.04.294 0 .448-.117.155-.116.155-.338 0-.205-.144-.32-.143-.116-.399-.116h-.27v-.257h.283q.23 0 .353-.092.123-.093.123-.266 0-.179-.128-.273-.125-.096-.36-.096-.13 0-.277.028t-.324.086v-.279q.178-.05.334-.074.156-.025.294-.025.357 0 .564.163.208.161.208.437 0 .192-.11.326-.11.131-.313.183z" aria-label="3" class="" style="font-size:3.175px;fill:#aaa;stroke:#aaa;stroke-width:.265" transform="translate(-61.306 -175.596)"/>
  <path d="m94.346 218.684-19.938 37.631 10 15" class="" style="fill:none;stroke:#aaa;stroke-width:1.06583;stroke-dasharray:none;stroke-opacity:1" transform="translate(-61.306 -175.596)"/>
  <path d="m74.408 256.315-10 15m29.978-34.867-.04-17.764" class="" style="fill:none;stroke:#aaa;stroke-width:1.065;stroke-dasharray:none;stroke-opacity:1" transform="translate(-61.306 -175.596)"/>
  <path d="M74.098 257.417a1.165 1.18 20 0 1-.69-1.508 1.165 1.18 20 0 1 1.498-.71 1.165 1.18 20 0 1 .69 1.507 1.165 1.18 20 0 1-1.497.711" class="" style="fill:#aaa;stroke-width:.0762529" transform="translate(-61.306 -175.596)"/>
  <path d="M64.151 272.209a1.165 1.18 20 0 1-.69-1.508 1.165 1.18 20 0 1 1.497-.711 1.165 1.18 20 0 1 .691 1.508 1.165 1.18 20 0 1-1.498.71zm19.864 0a1.165 1.18 20 0 1-.691-1.508 1.165 1.18 20 0 1 1.498-.711 1.165 1.18 20 0 1 .69 1.508 1.165 1.18 20 0 1-1.497.71z" class="" style="fill:#aaa;stroke:#aaa;stroke-width:.0762529" transform="translate(-61.306 -175.596)"/>
  <path d="M113.741 261.051h.512v-1.765l-.557.111v-.285l.554-.112h.313v2.051h.512v.264h-1.334z" aria-label="1" class="" style="font-size:3.175px;fill:#aaa;stroke:#aaa;stroke-width:.265" transform="translate(-61.306 -175.596)"/>
  <path d="M127.05 272.051h1.093v.264h-1.47v-.264q.178-.184.485-.494.309-.312.388-.402.15-.169.21-.285.06-.118.06-.23 0-.185-.13-.302t-.337-.116q-.147 0-.311.051-.163.052-.35.155v-.316q.19-.076.354-.115.165-.038.3-.038.36 0 .575.18.213.18.213.48 0 .143-.054.271-.053.127-.194.301-.038.045-.246.26zm-25.942.094h1.094v.263h-1.47v-.264q.178-.184.485-.494.309-.312.388-.402.15-.169.21-.285.06-.118.06-.231 0-.184-.13-.3-.131-.117-.337-.117-.147 0-.312.051-.162.051-.348.155v-.316q.189-.076.353-.115t.3-.039q.36 0 .574.18t.214.48q0 .144-.054.272-.053.127-.194.3-.038.046-.246.261z" aria-label="2" class="" style="font-size:3.175px;fill:#aaa;stroke:#aaa;stroke-width:.265" transform="translate(-61.306 -175.596)"/>
  <path d="M94.408 239.315q-.223 0-.352.12-.127.119-.127.328t.127.329q.129.12.352.12t.352-.12q.129-.121.129-.329 0-.21-.13-.329-.125-.119-.351-.119zm-.313-.133q-.202-.05-.315-.188-.111-.138-.111-.336 0-.278.196-.439.199-.161.543-.161.346 0 .543.161.196.161.196.439 0 .198-.113.336-.111.138-.311.188.226.052.352.206.127.153.127.375 0 .336-.206.516-.205.18-.588.18t-.59-.18q-.204-.18-.204-.516 0-.222.127-.375.127-.154.354-.206zm-.115-.495q0 .18.112.28.113.102.316.102.202 0 .315-.101.114-.101.114-.28t-.114-.281q-.113-.101-.315-.101-.203 0-.316.1-.112.101-.112.281z" aria-label="8" class="" style="font-size:3.175px;fill:#aaa;stroke:#aaa;stroke-width:.265" transform="translate(-61.306 -175.596)"/>
  <path d="m94.346 218.684 20.062 37.631 10 15" class="" style="fill:none;stroke:#aaa;stroke-width:1.06583;stroke-dasharray:none;stroke-opacity:1" transform="translate(-61.306 -175.596)"/>
  <path d="m114.408 256.315-10 15" class="" style="fill:none;stroke:#aaa;stroke-width:1.065;stroke-dasharray:none;stroke-opacity:1" transform="translate(-61.306 -175.596)"/>
  <path d="M115.408 257.037a1.18 1.165 33.033 0 1-1.625.333 1.18 1.165 33.033 0 1-.354-1.62 1.18 1.165 33.033 0 1 1.624-.333 1.18 1.165 33.033 0 1 .355 1.62" class="" style="fill:#aaa;stroke-width:.0762529" transform="translate(-61.306 -175.596)"/>
  <path d="M105.39 271.995a1.18 1.165 33.033 0 1-1.625.332 1.18 1.165 33.033 0 1-.354-1.62 1.18 1.165 33.033 0 1 1.624-.333 1.18 1.165 33.033 0 1 .355 1.62z" class="" style="fill:#aaa;stroke:#aaa;stroke-width:.0762529" transform="translate(-61.306 -175.596)"/>
  <path d="M95.386 237.092a1.18 1.165 33.033 0 1-1.624.333 1.18 1.165 33.033 0 1-.355-1.62 1.18 1.165 33.033 0 1 1.625-.333 1.18 1.165 33.033 0 1 .354 1.62" class="" style="fill:#aaa;stroke-width:.0762529" transform="translate(-61.306 -175.596)"/>
  <path d="M125.412 271.935a1.18 1.165 33.033 0 1-1.625.333 1.18 1.165 33.033 0 1-.355-1.62 1.18 1.165 33.033 0 1 1.625-.333 1.18 1.165 33.033 0 1 .355 1.62z" class="" style="fill:#aaa;stroke:#aaa;stroke-width:.0762529" transform="translate(-61.306 -175.596)"/>
  <path d="m114.158 187.888-9.906 15.398m0 0-9.906 15.398m-.118-.159" class="" style="fill:none;stroke:#aaa;stroke-width:1.06583;stroke-linejoin:round;stroke-miterlimit:4.1;stroke-dasharray:none" transform="translate(-61.306 -175.596)"/>
  <path d="M103.942 204.332a1.165 1.18 20 0 1-.69-1.508 1.165 1.18 20 0 1 1.498-.711 1.165 1.18 20 0 1 .69 1.508 1.165 1.18 20 0 1-1.497.71z" class="" style="display:inline;fill:#ff851b;stroke:#ff851b;stroke-width:.0762529" transform="translate(-61.306 -175.596)"/>
  <path d="M106.106 204.376h.835v.254h-.835z" aria-label="-3" class="" style="font-size:3.175px;display:inline;fill:#ff851b;stroke:#ff851b;stroke-width:.265" transform="translate(-61.306 -175.596)"/>
  <path d="M107.766 205.418h1.093v.263h-1.47v-.263q.179-.185.486-.495.308-.311.387-.401.15-.17.21-.286.06-.117.06-.23 0-.185-.13-.301-.129-.117-.336-.117-.148 0-.312.052-.163.05-.349.155v-.317q.19-.076.354-.114.164-.04.3-.04.36 0 .574.18t.214.48q0 .144-.054.273-.053.127-.194.3-.039.045-.247.26-.207.215-.586.6z" aria-label="2" class="" style="font-size:3.175px;display:inline;fill:#ff851b;stroke:#ff851b;stroke-width:.265" transform="translate(-61.306 -175.596)"/>
  <path d="m302.653 66.162.021-.052.022-.053.021-.053.022-.052.021-.053.022-.052.021-.053.022-.052.021-.053.022-.053.021-.052.022-.053.021-.052.022-.053.021-.052.022-.053-.21-.058-.257-.068-.21-.056-.262-.049-.262-.05-.216-.032-.266-.03-.265-.03-.22-.01-.266-.01-.22-.005-.267.01-.267.01-.219.017-.265.03-.266.03-.009-.07-.009-.07-.009-.07-.009-.072-.009-.07-.009-.07-.009-.07-.009-.07-.009-.072-.009-.07-.009-.07-.009-.07-.009-.07-.009-.072-.009-.07-.009-.07.266-.03.266-.03.315-.025.267-.01.268-.01.316.006.267.01.316.017.266.03.266.03.312.047.262.05.263.05.306.076.257.07.303.086.021-.052.022-.053.021-.053.022-.052.021-.053.022-.052.021-.053.022-.052.021-.053.022-.052.021-.053.022-.053.021-.052.022-.053.021-.052.022-.053.138.147.138.148.138.147.224.186.124.157.125.157.125.157.183.192.11.167.109.167.109.166.11.167.127.188.091.175.092.176.09.176-.207-.028-.207-.028-.208-.028h-.18l-.21-.009-.209-.009-.209-.009-.21-.009-.144.036-.21.01-.21.008-.209.01-.118.055-.208.024-.208.024zm4.422 3.645.054-.026.054-.024q.027-.014.054-.025l.054-.025.054-.025q.027-.014.054-.025l.054-.025.054-.025q.027-.014.054-.025l.054-.025.054-.025q.027-.014.054-.025l.054-.025.054-.025.054-.025.054-.025-.12-.223-.12-.223-.104-.17-.142-.21-.142-.213-.118-.16-.163-.198-.163-.198-.131-.152-.183-.183-.182-.182-.143-.142-.2-.166-.2-.165-.2-.166-.17-.113.045-.058.045-.057.045-.058.044-.057.045-.057.044-.058.045-.057.045-.058.044-.057.045-.057.044-.058.045-.057.045-.058.044-.057.045-.057.045-.058.26.183.201.166.2.166.201.165.227.22.183.182.182.183.207.235.163.198.163.198.184.25.142.212.142.212.161.263.12.224.12.223.054-.025.054-.025.054-.025.054-.025.054-.025.054-.025.054-.025.054-.025.054-.024.054-.025.054-.025.055-.025.054-.025q.027-.014.054-.025.027-.014.054-.025.027-.014.054-.025l.05.315-.026.194-.026.194-.026.194-.025.194-.006.28-.046.19-.045.19-.046.192-.034.242-.065.186-.065.185-.065.186-.065.186-.075.195-.084.18-.112-.166-.116-.146-.13-.154-.128-.154-.129-.155-.129-.154-.13-.09-.144-.142-.144-.142-.144-.142-.12-.048-.158-.129-.157-.128-.158-.129-.102-.009zm.054 5.274.054.024.055.023.055.024.054.023.055.024.055.024.055.023.054.024q.028.011.055.024l.055.023.055.024.054.024.055.023.055.024.055.024.054.023.112-.227.076-.176.086-.236.085-.236.062-.182.058-.244.06-.243.044-.187.032-.248.031-.247.027-.19.005-.25.005-.25.005-.25-.018-.192-.021-.25.076-.005.075-.005.076-.006.076-.006.076-.006.075-.006.076-.006.076-.005.076-.006.075-.006.076-.006.076-.006.076-.006.075-.006.076-.005.076-.006.021.25.022.304-.005.25-.005.25-.005.25-.036.304-.031.25-.032.247-.066.3-.06.245-.058.243-.096.295-.085.237-.086.237-.124.286-.112.227.055.024.055.024.055.023.054.024.055.024.055.023.055.024.054.024.055.023.055.024.055.024.054.024.055.022q.028.014.055.024l.054.024.055.024-.167.12-.167.116-.24.224-.179.101-.179.1-.18.101-.178.102-.24.155-.19.083-.19.084-.189.083-.22.107-.198.065-.198.064-.198.065-.197.064.053-.189.054-.189.053-.188.054-.19.01-.16.033-.192.032-.194.032-.193-.02-.122.01-.195.01-.195.011-.195.01-.196-.063-.08-.011-.195zm-4.283 3.42.014.055.014.055.014.055.014.054.014.055.014.055.014.055.014.055.014.054.014.055.014.055.014.055.014.055.014.054.014.055.014.055.2-.056.253-.082.252-.08.195-.074.243-.103.243-.104.186-.086.231-.127.231-.125.177-.1.216-.147.217-.146.165-.115.2-.165.2-.167.154-.127.056.047.056.05.056.047.056.047.056.05.056.046.056.048.056.05.056.046.056.048.056.048.056.048.056.047.056.05.056.047.056.047-.242.21-.2.165-.2.166-.262.187-.217.146-.217.146-.277.163-.232.125-.231.126-.292.138-.243.103-.244.105-.303.112-.253.08-.253.083-.312.087.014.053.014.055.014.055.014.055.013.055.014.054.014.055.014.055.014.055.014.055.014.054.014.055.014.055.014.055.014.054.014.055-.203-.049-.203-.049-.202-.05-.314-.034-.197-.066-.197-.067-.196-.067-.197-.066-.263-.074-.189-.083-.19-.085-.188-.084-.217-.088-.18-.1-.18-.1-.18-.1.19-.083.19-.083.19-.084.152-.095.18-.1.181-.099.18-.098.106-.098.17-.115.17-.115.17-.115.169-.115.048-.105.157-.13.157-.129zm-5.825-.752-.03.05-.03.046-.03.05-.03.048-.03.05-.03.047-.03.05-.031.048-.03.05-.03.048-.03.048-.03.05-.03.048-.031.05-.03.048-.03.048.232.124.232.124.195.084.243.103.243.105.194.07.252.083.253.082.198.06.26.058.26.06.203.045.265.035.265.035.264.035.21.01-.005.07-.004.072-.004.07-.004.07-.004.07-.004.072-.003.072-.004.07-.004.07-.004.072-.004.07-.004.071-.004.072-.004.07-.003.071-.004.071-.325-.018-.265-.037-.265-.035-.265-.035-.318-.067-.26-.06-.26-.058-.313-.09-.253-.082-.253-.083-.303-.112-.244-.104-.243-.105-.29-.129-.232-.124-.232-.123-.03.048-.03.048-.03.05-.03.047-.031.05-.03.048-.03.05-.03.048-.031.048-.03.05-.03.048-.03.05-.03.047-.03.05-.031.048-.03.05-.205-.225-.097-.173-.097-.174-.098-.172-.159-.224-.083-.18-.082-.179-.083-.18-.115-.218-.068-.185-.068-.185-.087-.205-.053-.19-.053-.19-.053-.188-.047-.193.192.07.197.064.198.065.198.065.18.031.202.052.202.05.16.013.206.037.206.036.206.036.138-.019.208.022.209.022.208.021z" class="" style="fill:#ff851b;fill-opacity:1;stroke:none;stroke-width:2.51146;stroke-linejoin:miter;stroke-miterlimit:4.1;stroke-dasharray:none" transform="translate(-258.543 -43.871)"/>
  <path d="m71.206 202.774 10-15m0 0 10 15" class="" style="display:inline;fill:none;stroke:#aaa;stroke-width:1.065;stroke-dasharray:none;stroke-opacity:1" transform="translate(56.83 -175.596)"/>
  <path d="M68.729 201.199q.224.047.35.2.127.151.127.374 0 .343-.236.53-.235.188-.67.188-.145 0-.3-.03-.154-.028-.318-.085v-.302q.13.076.285.114.155.04.324.04.295 0 .448-.117.155-.116.155-.338 0-.205-.144-.32-.142-.116-.398-.116h-.27v-.257h.282q.231 0 .354-.092.122-.093.122-.266 0-.178-.127-.273-.126-.096-.361-.096-.129 0-.276.028t-.324.087v-.28q.178-.05.333-.074.157-.025.295-.025.356 0 .564.163.208.161.208.437 0 .193-.11.326-.11.132-.313.183z" aria-label="3" class="" style="font-size:3.175px;display:inline;fill:#aaa;stroke:#aaa;stroke-width:.265" transform="translate(56.83 -175.596)"/>
  <path d="M77.264 187.064h1.093v.264h-1.47v-.264q.179-.184.486-.494.308-.312.387-.402.15-.169.21-.285.06-.118.06-.231 0-.185-.13-.3-.129-.117-.336-.117-.148 0-.312.051-.163.051-.349.155v-.316q.19-.076.354-.115t.3-.039q.36 0 .574.18t.214.48q0 .143-.054.272-.053.127-.194.3-.039.046-.247.261-.207.214-.586.6zm39.084 1.606h1.093v.264h-1.47v-.264q.178-.184.485-.494.309-.312.388-.402.15-.169.21-.285.06-.118.06-.231 0-.184-.13-.3-.13-.117-.337-.117-.147 0-.312.051-.162.051-.348.155v-.316q.189-.076.353-.115t.3-.039q.36 0 .575.18.213.18.213.48 0 .143-.054.272-.053.127-.194.3-.038.046-.246.261z" aria-label="2" class="" style="font-size:3.175px;display:inline;fill:#aaa;stroke:#aaa;stroke-width:.265" transform="translate(56.83 -175.596)"/>
  <path d="M93.355 201.732h.836v.254h-.836zm2.279-.25q.225.047.35.199.127.152.127.375 0 .343-.235.53-.236.188-.67.188-.146 0-.3-.03-.154-.027-.319-.085v-.302q.13.076.286.115.155.038.324.038.294 0 .448-.116t.155-.338q0-.204-.144-.32-.143-.115-.399-.115h-.27v-.258h.283q.23 0 .353-.091.123-.093.123-.267 0-.178-.128-.273-.125-.096-.36-.096-.13 0-.277.028t-.324.087v-.28q.178-.05.334-.075t.294-.024q.357 0 .564.162.208.162.208.437 0 .193-.11.326-.11.132-.313.183z" aria-label="-3" class="" style="font-size:3.175px;display:inline;fill:#aaa;stroke:#aaa;stroke-width:.265" transform="translate(56.83 -175.596)"/>
  <path d="M97.725 175.713c.578.283.814.988.527 1.573s-.987.83-1.565.548a1.173 1.173 0 0 1-.527-1.573c.286-.585.987-.83 1.565-.548" style="display:inline;fill:#aaa;stroke-width:.0762529" transform="translate(56.83 -175.596)" class=""/>
  <path d="M97.725 175.713c.578.283.814.988.527 1.573s-.987.83-1.565.548a1.173 1.173 0 0 1-.527-1.573c.286-.585.987-.83 1.565-.548" style="display:inline;fill:#aaa;stroke-width:.0762529" transform="translate(53.97 -133.685)" class=""/>
  <path d="M91.679 201.608c.578.283.814.987.527 1.572s-.987.831-1.565.548a1.173 1.173 0 0 1-.527-1.573c.286-.585.987-.83 1.565-.548m-9.293-13.845c0 .643-.528 1.165-1.18 1.165s-1.18-.522-1.18-1.165c0-.644.529-1.164 1.18-1.164s1.18.52 1.18 1.164m-10.634 13.856c.578.283.814.987.527 1.573-.286.585-.987.83-1.565.548a1.173 1.173 0 0 1-.527-1.573 1.17 1.17 0 0 1 1.565-.548" style="display:inline;fill:#aaa;stroke-width:.0762529" transform="translate(56.83 -175.596)" class=""/>
  <path d="m81.206 187.774 16-11" class="" style="display:inline;fill:none;stroke:#aaa;stroke-width:1.065;stroke-dasharray:none;stroke-opacity:1" transform="translate(56.83 -175.596)"/>
  <path d="m98.252 177.286 15.906 10.602" class="" style="fill:none;stroke:#aaa;stroke-width:1.06583;stroke-linejoin:round;stroke-miterlimit:4.1;stroke-dasharray:none" transform="translate(56.83 -175.596)"/>
  <path d="M113.754 188.997a1.165 1.18 20 0 1-.69-1.508 1.165 1.18 20 0 1 1.497-.71 1.165 1.18 20 0 1 .691 1.507 1.165 1.18 20 0 1-1.498.711" class="" style="display:inline;fill:#aaa;stroke-width:.0762529" transform="translate(56.83 -175.596)"/>
  <path d="m114.158 187.888-9.906 15.398m-.118-.159" class="" style="fill:none;stroke:#aaa;stroke-width:1.06583;stroke-linejoin:round;stroke-miterlimit:4.1;stroke-dasharray:none" transform="translate(56.83 -175.596)"/>
  <path d="M72.189 253.734q-.242 0-.364.239-.121.237-.121.714 0 .476.12.715.123.237.365.237.244 0 .364-.237.123-.239.123-.715 0-.477-.123-.714-.12-.24-.364-.24zm0-.248q.39 0 .594.308.206.307.206.893 0 .585-.206.893-.205.307-.594.307t-.595-.307q-.205-.308-.205-.893 0-.586.205-.893.206-.308.595-.308z" aria-label="0" class="" style="font-size:3.175px;fill:#aaa;stroke:#aaa;stroke-width:.265" transform="translate(56.83 -175.596)"/>
  <path d="m87.096 269.819-.79 1.236h.79zm-.082-.273h.394v1.509h.33v.26h-.33v.546h-.312v-.546h-1.045v-.302z" aria-label="4" class="" style="font-size:3.175px;fill:#aaa;stroke:#aaa;stroke-width:.265" transform="translate(56.83 -175.596)"/>
  <path d="M62.485 271.184q.225.048.35.2.127.152.127.375 0 .342-.235.53-.236.188-.67.188-.146 0-.3-.03-.154-.028-.319-.085v-.302q.13.076.286.114.155.04.324.04.294 0 .448-.117.155-.116.155-.338 0-.205-.144-.32-.143-.116-.399-.116h-.27v-.257h.283q.23 0 .353-.092.123-.093.123-.266 0-.179-.128-.273-.125-.096-.36-.096-.13 0-.277.028t-.324.086v-.279q.178-.05.334-.074.156-.025.294-.025.357 0 .564.163.208.161.208.437 0 .192-.11.326-.11.131-.313.183z" aria-label="3" class="" style="font-size:3.175px;fill:#aaa;stroke:#aaa;stroke-width:.265" transform="translate(56.83 -175.596)"/>
  <path d="m94.346 218.684-19.938 37.631 10 15" class="" style="fill:none;stroke:#aaa;stroke-width:1.06583;stroke-dasharray:none;stroke-opacity:1" transform="translate(56.83 -175.596)"/>
  <path d="m74.408 256.315-10 15m29.978-34.867-.04-17.764" class="" style="fill:none;stroke:#aaa;stroke-width:1.065;stroke-dasharray:none;stroke-opacity:1" transform="translate(56.83 -175.596)"/>
  <path d="M74.098 257.417a1.165 1.18 20 0 1-.69-1.508 1.165 1.18 20 0 1 1.498-.71 1.165 1.18 20 0 1 .69 1.507 1.165 1.18 20 0 1-1.497.711" class="" style="fill:#aaa;stroke-width:.0762529" transform="translate(56.83 -175.596)"/>
  <path d="M64.151 272.209a1.165 1.18 20 0 1-.69-1.508 1.165 1.18 20 0 1 1.497-.711 1.165 1.18 20 0 1 .691 1.508 1.165 1.18 20 0 1-1.498.71zm19.864 0a1.165 1.18 20 0 1-.691-1.508 1.165 1.18 20 0 1 1.498-.711 1.165 1.18 20 0 1 .69 1.508 1.165 1.18 20 0 1-1.497.71z" class="" style="fill:#aaa;stroke:#aaa;stroke-width:.0762529" transform="translate(56.83 -175.596)"/>
  <path d="M113.741 261.051h.512v-1.765l-.557.111v-.285l.554-.112h.313v2.051h.512v.264h-1.334z" aria-label="1" class="" style="font-size:3.175px;fill:#aaa;stroke:#aaa;stroke-width:.265" transform="translate(56.83 -175.596)"/>
  <path d="M127.05 272.051h1.093v.264h-1.47v-.264q.178-.184.485-.494.309-.312.388-.402.15-.169.21-.285.06-.118.06-.23 0-.185-.13-.302t-.337-.116q-.147 0-.311.051-.163.052-.35.155v-.316q.19-.076.354-.115.165-.038.3-.038.36 0 .575.18.213.18.213.48 0 .143-.054.271-.053.127-.194.301-.038.045-.246.26zm-25.942.094h1.094v.263h-1.47v-.264q.178-.184.485-.494.309-.312.388-.402.15-.169.21-.285.06-.118.06-.231 0-.184-.13-.3-.131-.117-.337-.117-.147 0-.312.051-.162.051-.348.155v-.316q.189-.076.353-.115t.3-.039q.36 0 .574.18t.214.48q0 .144-.054.272-.053.127-.194.3-.038.046-.246.261z" aria-label="2" class="" style="font-size:3.175px;fill:#aaa;stroke:#aaa;stroke-width:.265" transform="translate(56.83 -175.596)"/>
  <path d="M94.408 239.315q-.223 0-.352.12-.127.119-.127.328t.127.329q.129.12.352.12t.352-.12q.129-.121.129-.329 0-.21-.13-.329-.125-.119-.351-.119zm-.313-.133q-.202-.05-.315-.188-.111-.138-.111-.336 0-.278.196-.439.199-.161.543-.161.346 0 .543.161.196.161.196.439 0 .198-.113.336-.111.138-.311.188.226.052.352.206.127.153.127.375 0 .336-.206.516-.205.18-.588.18t-.59-.18q-.204-.18-.204-.516 0-.222.127-.375.127-.154.354-.206zm-.115-.495q0 .18.112.28.113.102.316.102.202 0 .315-.101.114-.101.114-.28t-.114-.281q-.113-.101-.315-.101-.203 0-.316.1-.112.101-.112.281z" aria-label="8" class="" style="font-size:3.175px;fill:#aaa;stroke:#aaa;stroke-width:.265" transform="translate(56.83 -175.596)"/>
  <path d="m94.346 218.684 20.062 37.631 10 15" class="" style="fill:none;stroke:#aaa;stroke-width:1.06583;stroke-dasharray:none;stroke-opacity:1" transform="translate(56.83 -175.596)"/>
  <path d="m114.408 256.315-10 15" class="" style="fill:none;stroke:#aaa;stroke-width:1.065;stroke-dasharray:none;stroke-opacity:1" transform="translate(56.83 -175.596)"/>
  <path d="M115.408 257.037a1.18 1.165 33.033 0 1-1.625.333 1.18 1.165 33.033 0 1-.354-1.62 1.18 1.165 33.033 0 1 1.624-.333 1.18 1.165 33.033 0 1 .355 1.62" class="" style="fill:#aaa;stroke-width:.0762529" transform="translate(56.83 -175.596)"/>
  <path d="M105.39 271.995a1.18 1.165 33.033 0 1-1.625.332 1.18 1.165 33.033 0 1-.354-1.62 1.18 1.165 33.033 0 1 1.624-.333 1.18 1.165 33.033 0 1 .355 1.62z" class="" style="fill:#aaa;stroke:#aaa;stroke-width:.0762529" transform="translate(56.83 -175.596)"/>
  <path d="M95.386 237.092a1.18 1.165 33.033 0 1-1.624.333 1.18 1.165 33.033 0 1-.355-1.62 1.18 1.165 33.033 0 1 1.625-.333 1.18 1.165 33.033 0 1 .354 1.62" class="" style="fill:#aaa;stroke-width:.0762529" transform="translate(56.83 -175.596)"/>
  <path d="M125.412 271.935a1.18 1.165 33.033 0 1-1.625.333 1.18 1.165 33.033 0 1-.355-1.62 1.18 1.165 33.033 0 1 1.625-.333 1.18 1.165 33.033 0 1 .355 1.62z" class="" style="fill:#aaa;stroke:#aaa;stroke-width:.0762529" transform="translate(56.83 -175.596)"/>
  <path d="m114.158 187.888-9.906 15.398m0 0-9.906 15.398m-.118-.159" class="" style="fill:none;stroke:#aaa;stroke-width:1.06583;stroke-linejoin:round;stroke-miterlimit:4.1;stroke-dasharray:none" transform="translate(56.83 -175.596)"/>
  <path d="M103.942 204.332a1.165 1.18 20 0 1-.69-1.508 1.165 1.18 20 0 1 1.498-.711 1.165 1.18 20 0 1 .69 1.508 1.165 1.18 20 0 1-1.497.71z" class="" style="display:inline;fill:#ff851b;stroke:#ff851b;stroke-width:.0762529" transform="translate(56.83 -175.596)"/>
  <path d="M100.102 201.306h.835v.254h-.835z" aria-label="-3" class="" style="font-size:3.175px;display:inline;fill:#ff851b;stroke:#ff851b;stroke-width:.265" transform="translate(56.83 -175.596)"/>
  <path d="M101.762 202.348h1.093v.263h-1.47v-.263q.179-.185.486-.495.308-.311.387-.401.15-.17.21-.286.06-.117.06-.23 0-.185-.13-.301-.129-.117-.336-.117-.148 0-.312.052-.163.05-.349.155v-.317q.19-.076.354-.114.164-.04.3-.04.36 0 .574.18t.214.481q0 .143-.054.272-.053.127-.194.3-.039.045-.247.26-.207.215-.586.6z" aria-label="2" class="" style="font-size:3.175px;display:inline;fill:#ff851b;stroke:#ff851b;stroke-width:.265" transform="translate(56.83 -175.596)"/>
</svg>
