<svg xmlns="http://www.w3.org/2000/svg" xmlns:vectornator="http://vectornator.io" xml:space="preserve" stroke-miterlimit="10" style="clip-rule:evenodd;fill-rule:nonzero;stroke-linecap:round;stroke-linejoin:round" viewBox="0 0 530 527.188"><g vectornator:layerName="Layer 2" clip-path="url(#ArtboardFrame_60)" transform="translate(15 13.353)"><clipPath id="a"><path d="M450.763-.268 240.638 199.31l51.112 53.951-30.851 47.36-60.503-61.07-231.135 240.872L72.924 631.959l445.703-18.639 91.553-112.934-4.934-310.841-10.965-202.841L530.139-73.6Z"/></clipPath><path fill="none" stroke="#FF851B" stroke-linecap="butt" stroke-width="30" d="M193.68 192.194-13.51-12.432l-531.905-553.364c233.045 323.8-244.448 1721.57-101.595 1595.839C-490.777 892.534-128.326 628.786-15 513.835l529.125-525.96c99.29-96.897 946.275-932.835 1006.896-899.769 167.263 91.234 230.192 1607.188-112.509 2007.205-195.139 227.775-805.045-472.771-892.273-584.552L308.948 306.034" style="clip-rule:evenodd;fill-rule:nonzero;stroke-linecap:round;stroke-linejoin:round"/></g></svg>