<svg xmlns:inkscape="http://www.inkscape.org/namespaces/inkscape" xmlns:sodipodi="http://sodipodi.sourceforge.net/DTD/sodipodi-0.dtd" xmlns="http://www.w3.org/2000/svg" xmlns:svg="http://www.w3.org/2000/svg" viewBox="0 0 1757.059 1871.287" version="1.1" id="svg10" sodipodi:docname="R1.svg" inkscape:version="1.4.2 (ebf0e940d0, 2025-05-08)">
  <defs id="defs10"/>
  <sodipodi:namedview id="namedview10" pagecolor="#ffffff" bordercolor="#000000" borderopacity="0.25" inkscape:showpageshadow="2" inkscape:pageopacity="0.0" inkscape:pagecheckerboard="0" inkscape:deskcolor="#d1d1d1" inkscape:zoom="0.20831132" inkscape:cx="532.8563" inkscape:cy="1048.9108" inkscape:window-width="2254" inkscape:window-height="1502" inkscape:window-x="0" inkscape:window-y="0" inkscape:window-maximized="1" inkscape:current-layer="svg10"/>
  <g id="g2" transform="translate(-4.5138736e-5)">
    <path d="m 1028.2457,1157.5735 350.6551,350.6551 c 442.4002,442.3989 476.1721,-341.2125 101.1971,-85.8798 m -194.8129,179.3382 -235.8661,235.8661 c -7.8386,6.176 -21.1719,21.1733 -21.1719,21.1733" class="stroke-orange fill-orange" style="fill:none;stroke:#ff851b;stroke-width:37.7952;stroke-miterlimit:4.1;stroke-dasharray:none" id="path2"/>
    <path d="m 1150.6585,717.58606 c 613.8291,-352.47245 613.8291,-352.47245 0,-701.152913" class="stroke-orange fill-orange" style="fill:none;stroke:#ff851b;stroke-width:37.7952;stroke-miterlimit:4.1;stroke-dasharray:none" id="path3"/>
    <path d="m 1385.591,1151.9047 77.943,-135 h -155.886 z" class="stroke-comment fill-comment" style="fill:#616161;stroke:none;stroke-width:42.5198;stroke-miterlimit:4.1" id="path7"/>
    <path d="m 1357.593,898.40568 v 121.24002 h 55.994 V 898.40568 Z" class="stroke-comment fill-comment" style="fill:#616161;stroke:none;stroke-width:56.693;stroke-miterlimit:4.1" id="path8"/>
    <path d="m 1385.591,773.90468 77.943,135 h -155.886 z" class="stroke-comment fill-comment" style="fill:#616161;stroke:none;stroke-width:42.5198;stroke-miterlimit:4.1" id="path9"/>
  </g>
  <g id="g1" transform="translate(4.5138736e-5)">
    <path d="m 14.122666,1157.5735 257.039354,257.0393 m 194.79018,179.3636 c 375.00707,255.5113 341.27115,-528.348 -101.32908,-85.7478 L 35.29728,1837.5531 c -7.83998,6.1773 -21.17328,21.1733 -21.17328,21.1733" class="stroke-orange fill-orange" style="fill:none;stroke:#ff851b;stroke-width:37.7952;stroke-miterlimit:4.1;stroke-dasharray:none" id="path1"/>
    <path d="m 371.468,773.90468 -77.943,135 h 155.886 z" class="stroke-comment fill-comment" style="fill:#616161;stroke:none;stroke-width:42.5198;stroke-miterlimit:4.1" id="path4"/>
    <path d="M 399.467,1027.4037 V 906.16368 h -55.994 v 121.24002 z" class="stroke-comment fill-comment" style="fill:#616161;stroke:none;stroke-width:56.693;stroke-miterlimit:4.1" id="path5"/>
    <path d="m 371.468,1151.9047 -77.943,-135 h 155.886 z" class="stroke-comment fill-comment" style="fill:#616161;stroke:none;stroke-width:42.5198;stroke-miterlimit:4.1" id="path6"/>
    <path d="m 136.53836,717.58606 c 613.82913,-352.47245 613.82913,-352.47245 0,-701.152913" class="stroke-orange fill-orange" style="fill:none;stroke:#ff851b;stroke-width:37.7952;stroke-miterlimit:4.1;stroke-dasharray:none" id="path10"/>
  </g>
</svg>
