<svg xmlns="http://www.w3.org/2000/svg" viewBox="0 0 1731.971 727.88">
  <path d="M.068 13.95c262.933 262.933 262.934 262.933 525.751 0M.07 539.816c262.932-262.933 264.566-264.566 525.75 0" class="" style="fill:none;stroke:#ff851b;stroke-width:28.3465;stroke-miterlimit:4.1" transform="matrix(1.33333 0 0 -1.33333 13.271 733.117)"/>
  <path d="M.068 13.95c176.486 456.788 351.709 446.532 525.751 0M.07 539.816c39.13-95.748 78.156-169.56 117.078-221.972m58.287-62.621c58.137-46.654 116.045-45.91 173.733.432m58.368 62.48c39.53 52.854 78.957 126.942 118.284 221.681" class="" style="fill:none;stroke:#ff851b;stroke-width:28.3465;stroke-miterlimit:4.1" transform="matrix(1.33333 0 0 -1.33333 1013.271 733.117)"/>
  <path d="m730 355-90 51.962V303.038Z" class="" style="fill:#aaa;stroke:none;stroke-width:28.3465;stroke-miterlimit:4.1" transform="translate(259.88 8.94)"/>
  <path d="M604.127-290.882h60.62v27.997h-60.62z" class="" style="fill:#aaa;stroke:none;stroke-width:28.3465;stroke-miterlimit:4.1" transform="translate(15.377 733.117)scale(1.33333)"/>
  <path d="m730 355-90 51.962V303.038Z" class="" style="fill:#aaa;stroke:none;stroke-width:28.3465;stroke-miterlimit:4.1" transform="matrix(-1 0 0 1 1467.88 8.94)"/>
</svg>
