<svg xmlns:inkscape="http://www.inkscape.org/namespaces/inkscape" xmlns:sodipodi="http://sodipodi.sourceforge.net/DTD/sodipodi-0.dtd" xmlns="http://www.w3.org/2000/svg" xmlns:svg="http://www.w3.org/2000/svg" viewBox="0 0 1731.9698 1555.8782" version="1.1" id="svg5" sodipodi:docname="R2.svg" inkscape:version="1.4.2 (ebf0e940d0, 2025-05-08)">
  <defs id="defs5"/>
  <sodipodi:namedview id="namedview5" pagecolor="#ffffff" bordercolor="#000000" borderopacity="0.25" inkscape:showpageshadow="2" inkscape:pageopacity="0.0" inkscape:pagecheckerboard="0" inkscape:deskcolor="#d1d1d1" inkscape:zoom="0.19671911" inkscape:cx="787.92548" inkscape:cy="2147.7323" inkscape:window-width="2254" inkscape:window-height="1502" inkscape:window-x="0" inkscape:window-y="0" inkscape:window-maximized="1" inkscape:current-layer="svg5"/>
  <path d="m 13.362635,714.51552 c 350.576455,-350.57645 350.577795,-350.57645 700.999585,0 M 13.365302,13.36261 c 350.575128,350.57646 352.753788,352.75378 700.998248,0" class="stroke-orange fill-orange" style="fill:none;stroke:#ff851b;stroke-width:37.7952;stroke-miterlimit:4.1" id="path1"/>
  <path d="m 1013.3626,714.51552 c 235.3141,-609.04914 468.9442,-595.37451 700.9996,0 M 1013.3653,13.36261 c 52.1732,127.66368 104.2077,226.07943 156.1036,295.96193 m 77.7158,83.49445 c 77.5158,62.20518 154.7263,61.21318 231.6434,-0.57599 m 77.8238,-83.30646 c 52.7066,-70.47183 105.2758,-169.25558 157.7116,-295.57393" class="stroke-orange fill-orange" style="fill:none;stroke:#ff851b;stroke-width:37.7952;stroke-miterlimit:4.1" id="path2"/>
  <path d="m 989.88097,363.93848 -90,51.962 v -103.924 z" class="stroke-comment fill-comment" style="fill:#616161;stroke:none;stroke-width:28.3465;stroke-miterlimit:4.1" id="path3"/>
  <path d="m 820.87862,345.27378 h 80.82647 v 37.32924 h -80.82647 z" class="stroke-comment fill-comment" style="fill:#616161;stroke:none;stroke-width:37.7952;stroke-miterlimit:4.1" id="path4"/>
  <path d="m 737.88097,363.93848 90,51.962 v -103.924 z" class="stroke-comment fill-comment" style="fill:#616161;stroke:none;stroke-width:28.3465;stroke-miterlimit:4.1" id="path5"/>
  <path d="m 13.362635,1542.5156 c 350.576455,-350.5765 350.577795,-350.5765 700.999585,0 M 13.365302,841.36261 c 350.575128,350.57649 352.753788,352.75379 700.998248,0" class="stroke-orange fill-orange" style="fill:none;stroke:#ff851b;stroke-width:37.7952;stroke-miterlimit:4.1" id="path6"/>
  <path d="m 1013.3627,840.98021 c 235.314,609.04919 468.9441,595.37459 700.9995,0 m -700.9969,701.15299 c 52.1732,-127.6637 104.2078,-226.0795 156.1036,-295.962 m 77.7158,-83.4944 c 77.5159,-62.2052 154.7263,-61.2132 231.6435,0.576 m 77.8238,83.3064 c 52.7065,70.4719 105.2757,169.2557 157.7116,295.574" class="stroke-orange fill-orange" style="fill:none;stroke:#ff851b;stroke-width:37.7952;stroke-miterlimit:4.1" id="path7"/>
  <path d="m 989.88097,1191.9385 -90,51.962 v -103.924 z" class="stroke-comment fill-comment" style="fill:#616161;stroke:none;stroke-width:28.3465;stroke-miterlimit:4.1" id="path8"/>
  <path d="m 820.87862,1173.2738 h 80.82647 v 37.3292 h -80.82647 z" class="stroke-comment fill-comment" style="fill:#616161;stroke:none;stroke-width:37.7952;stroke-miterlimit:4.1" id="path9"/>
  <path d="m 737.88097,1191.9385 90,51.962 v -103.924 z" class="stroke-comment fill-comment" style="fill:#616161;stroke:none;stroke-width:28.3465;stroke-miterlimit:4.1" id="path10"/>
</svg>
