<svg xmlns="http://www.w3.org/2000/svg" viewBox="0 0 1727.732 727.878"><path d="m.068 13.95 136.34 136.37 96.473 96.494m60.125 60.138L525.82 539.816m-525.75 0L525.818 13.95M.07 276.883c39.406-39.406 72.906-72.906 102.27-100.501m64.542-55.722c72.364-54.626 119.825-54.636 192.156-.03m64.533 55.73c29.357 27.6 62.85 61.107 102.25 100.523" class="stroke-orange fill-orange" style="fill:none;stroke:#ff851b;stroke-width:28.3465;stroke-miterlimit:4.1" transform="translate(13.273 -5.238)scale(1.33333)"/><path d="m730 355-90 51.962V303.038Z" class="stroke-comment fill-comment" style="fill:#aaa;stroke:none;stroke-width:28.3465;stroke-miterlimit:4.1" transform="translate(259.88 8.939)"/><path d="M604.127-290.882h60.62v27.997h-60.62z" class="stroke-comment fill-comment" style="fill:#aaa;stroke:none;stroke-width:28.3465;stroke-miterlimit:4.1" transform="translate(15.379 733.116)scale(1.33333)"/><path d="m730 355-90 51.962V303.038Z" class="stroke-comment fill-comment" style="fill:#aaa;stroke:none;stroke-width:28.3465;stroke-miterlimit:4.1" transform="matrix(-1 0 0 1 1467.881 8.939)"/><path d="m.068 13.95 136.34 136.37 96.473 96.494m60.125 60.138L525.82 539.816m-525.75 0L525.818 13.95M.07 276.883c39.406-39.406 72.906-72.906 102.27-100.501m64.542-55.722c72.364-54.626 119.825-54.636 192.156-.03m64.533 55.73c29.357 27.6 62.85 61.107 102.25 100.523" class="stroke-orange fill-orange" style="fill:none;stroke:#ff851b;stroke-width:28.3465;stroke-miterlimit:4.1" transform="rotate(180 857.23 366.558)scale(1.33333)"/></svg>