<svg xmlns:inkscape="http://www.inkscape.org/namespaces/inkscape" xmlns:sodipodi="http://sodipodi.sourceforge.net/DTD/sodipodi-0.dtd" xmlns="http://www.w3.org/2000/svg" xmlns:svg="http://www.w3.org/2000/svg" viewBox="0 0 1727.7338 2306.3228" version="1.1" id="svg5" sodipodi:docname="R3.svg" inkscape:version="1.4.2 (ebf0e940d0, 2025-05-08)">
  <defs id="defs5">
    <inkscape:path-effect effect="knot" id="path-effect16" is_visible="true" lpeversion="1" switcher_size="15" interruption_width="3" prop_to_stroke_width="true" add_stroke_width="inkscape_1.0_and_up" both="false" inverse_width="false" add_other_stroke_width="inkscape_1.0_and_up" crossing_points_vector="134.61014 | 148.52174 | 0 | 2 | 0 | 0 | 0.9868134 | 1.4999867 | -1 | 262.94375 | 276.88325 | 0 | 1 | 1 | 0 | 2.5000042 | 0.49999952 | 1 | 391.3038 | 148.49439 | 1 | 2 | 1 | 1 | 0.744147 | 3.4999891 | 1"/>
    <inkscape:path-effect effect="knot" id="path-effect14" is_visible="true" lpeversion="1" switcher_size="15" interruption_width="3" prop_to_stroke_width="true" add_stroke_width="inkscape_1.0_and_up" both="false" inverse_width="false" add_other_stroke_width="inkscape_1.0_and_up" crossing_points_vector="134.61014 | 148.52174 | 0 | 2 | 0 | 0 | 0.9868134 | 1.4999867 | -1 | 262.94375 | 276.88325 | 0 | 1 | 1 | 0 | 2.5000042 | 0.49999952 | 1 | 391.3038 | 148.49439 | 1 | 2 | 1 | 1 | 0.744147 | 3.4999891 | 1"/>
    <inkscape:path-effect effect="knot" id="path-effect11" is_visible="true" lpeversion="1" switcher_size="15" interruption_width="3" prop_to_stroke_width="true" add_stroke_width="inkscape_1.0_and_up" both="false" inverse_width="false" add_other_stroke_width="inkscape_1.0_and_up" crossing_points_vector="134.61014 | 148.52174 | 0 | 2 | 0 | 0 | 0.9868134 | 1.4999867 | 1 | 262.94375 | 276.88325 | 0 | 1 | 1 | 0 | 2.5000042 | 0.49999952 | 1 | 391.3038 | 148.49439 | 1 | 2 | 1 | 1 | 0.744147 | 3.4999891 | -1"/>
    <inkscape:path-effect effect="knot" id="path-effect9" is_visible="true" lpeversion="1" switcher_size="15" interruption_width="3" prop_to_stroke_width="true" add_stroke_width="inkscape_1.0_and_up" both="false" inverse_width="false" add_other_stroke_width="inkscape_1.0_and_up" crossing_points_vector="134.61014 | 148.52174 | 0 | 2 | 0 | 0 | 0.9868134 | 1.4999867 | 1 | 262.94375 | 276.88325 | 0 | 1 | 1 | 0 | 2.5000042 | 0.49999952 | 1 | 391.3038 | 148.49439 | 1 | 2 | 1 | 1 | 0.744147 | 3.4999891 | -1"/>
    <inkscape:path-effect effect="knot" id="path-effect6" is_visible="true" lpeversion="1" switcher_size="15" interruption_width="3" prop_to_stroke_width="true" add_stroke_width="inkscape_1.0_and_up" both="false" inverse_width="false" add_other_stroke_width="inkscape_1.0_and_up" crossing_points_vector="134.61014 | 148.52174 | 0 | 2 | 0 | 0 | 0.9868134 | 1.4999867 | 1 | 262.94375 | 276.88325 | 0 | 1 | 1 | 0 | 2.5000042 | 0.49999952 | 1 | 391.3038 | 148.49439 | 1 | 2 | 1 | 1 | 0.744147 | 3.4999891 | 1"/>
    <inkscape:path-effect effect="knot" id="path-effect5" is_visible="true" lpeversion="1" switcher_size="15" interruption_width="3" prop_to_stroke_width="true" add_stroke_width="inkscape_1.0_and_up" both="false" inverse_width="false" add_other_stroke_width="inkscape_1.0_and_up" crossing_points_vector="134.61014 | 148.52174 | 0 | 2 | 0 | 0 | 0.9868134 | 1.4999867 | 1 | 262.94375 | 276.88325 | 0 | 1 | 1 | 0 | 2.5000042 | 0.49999952 | 1 | 391.3038 | 148.49439 | 1 | 2 | 1 | 1 | 0.744147 | 3.4999891 | 1"/>
  </defs>
  <sodipodi:namedview id="namedview5" pagecolor="#ffffff" bordercolor="#000000" borderopacity="0.25" inkscape:showpageshadow="2" inkscape:pageopacity="0.0" inkscape:pagecheckerboard="0" inkscape:deskcolor="#d1d1d1" inkscape:zoom="0.32849127" inkscape:cx="698.64869" inkscape:cy="1319.6698" inkscape:window-width="2254" inkscape:window-height="1502" inkscape:window-x="0" inkscape:window-y="0" inkscape:window-maximized="1" inkscape:current-layer="svg5"/>
  <g id="g6" transform="translate(4.3849104e-4,780.70287)">
    <path d="M 0.068,13.95 104.46695,118.37192 M 164.75337,178.67154 232.881,246.814 M 293.0065,306.9525 525.82,539.816 m -525.75,0 L 525.818,13.95 M 0.07,276.883 C 39.476,237.477 72.976,203.977 102.34,176.382 l 64.542,-55.722 c 72.36375,-54.62581 119.82467,-54.636 192.15525,-0.0306 m 64.53306,55.72997 6.9e-4,6e-4 c 29.357,27.6 62.85,61.107 102.25,100.523" class="stroke-orange fill-orange" style="fill:none;stroke:#ff851b;stroke-width:28.3465;stroke-miterlimit:4.1" transform="matrix(1.33333,0,0,1.33333,13.273,-5.238)" id="path1" sodipodi:nodetypes="ccccccccccccc" inkscape:path-effect="#path-effect5" inkscape:original-d="m 0.068,13.95 136.34,136.37 96.473,96.494 60.125,60.138 232.814,232.864 m -525.75,0 L 525.818,13.95 M 0.07,276.883 C 39.476,237.477 72.976,203.977 102.34,176.382 l 64.542,-55.722 c 72.364,-54.626 119.825,-54.636 192.156,-0.03 l 64.533,55.73 c 29.357,27.6 62.85,61.107 102.25,100.523"/>
    <path id="path2" style="fill:#616161;stroke:none;stroke-width:28.3465;stroke-miterlimit:4.1" class="stroke-comment fill-comment" d="m 568.00086,303.03756 -90,51.96289 90,51.96094 v -33.29687 h 72 v 33.29687 l 90,-51.96094 -90,-51.96289 v 33.29688 h -72 z" transform="translate(259.88,8.939)"/>
    <path d="M 0.068,13.95 104.46695,118.37192 M 164.75337,178.67154 232.881,246.814 M 293.0065,306.9525 525.82,539.816 m -525.75,0 L 525.818,13.95 M 0.07,276.883 C 39.476,237.477 72.976,203.977 102.34,176.382 l 64.542,-55.722 c 72.36375,-54.62581 119.82467,-54.636 192.15525,-0.0306 m 64.53306,55.72997 6.9e-4,6e-4 c 29.357,27.6 62.85,61.107 102.25,100.523" class="stroke-orange fill-orange" style="fill:none;stroke:#ff851b;stroke-width:28.3465;stroke-miterlimit:4.1" transform="matrix(-1.33333,0,0,-1.33333,1714.46,733.116)" id="path5" sodipodi:nodetypes="ccccccccccccc" inkscape:path-effect="#path-effect6" inkscape:original-d="m 0.068,13.95 136.34,136.37 96.473,96.494 60.125,60.138 232.814,232.864 m -525.75,0 L 525.818,13.95 M 0.07,276.883 C 39.476,237.477 72.976,203.977 102.34,176.382 l 64.542,-55.722 c 72.364,-54.626 119.825,-54.636 192.156,-0.03 l 64.533,55.73 c 29.357,27.6 62.85,61.107 102.25,100.523"/>
  </g>
  <g id="g8" transform="translate(4.3849104e-4,-7.8853485e-4)">
    <path d="M 0.068,13.95 104.46695,118.37192 M 164.75337,178.67154 232.881,246.814 M 293.0065,306.9525 525.82,539.816 m -525.75,0 361.09099,-361.17203 M 421.44661,118.34482 525.818,13.95 M 0.07,276.883 C 39.476,237.477 72.976,203.977 102.34,176.382 l 64.542,-55.722 c 72.364,-54.626 119.825,-54.636 192.156,-0.03 l 64.533,55.73 c 29.357,27.6 62.85,61.107 102.25,100.523" class="stroke-orange fill-orange" style="fill:none;stroke:#ff851b;stroke-width:28.3465;stroke-miterlimit:4.1" transform="matrix(1.33333,0,0,1.33333,13.273,-5.238)" id="path6" sodipodi:nodetypes="ccccccccccccc" inkscape:path-effect="#path-effect9" inkscape:original-d="m 0.068,13.95 136.34,136.37 96.473,96.494 60.125,60.138 232.814,232.864 m -525.75,0 L 525.818,13.95 M 0.07,276.883 C 39.476,237.477 72.976,203.977 102.34,176.382 l 64.542,-55.722 c 72.364,-54.626 119.825,-54.636 192.156,-0.03 l 64.533,55.73 c 29.357,27.6 62.85,61.107 102.25,100.523"/>
    <path id="path7" style="fill:#616161;stroke:none;stroke-width:28.3465;stroke-miterlimit:4.1" class="stroke-comment fill-comment" d="m 568.00086,303.03756 -90,51.96289 90,51.96094 v -33.29687 h 72 v 33.29687 l 90,-51.96094 -90,-51.96289 v 33.29688 h -72 z" transform="translate(259.88,8.939)"/>
    <path d="M 0.068,13.95 104.46695,118.37192 M 164.75337,178.67154 232.881,246.814 M 293.0065,306.9525 525.82,539.816 m -525.75,0 361.09099,-361.17203 M 421.44661,118.34482 525.818,13.95 M 0.07,276.883 C 39.476,237.477 72.976,203.977 102.34,176.382 l 64.542,-55.722 c 72.364,-54.626 119.825,-54.636 192.156,-0.03 l 64.533,55.73 c 29.357,27.6 62.85,61.107 102.25,100.523" class="stroke-orange fill-orange" style="fill:none;stroke:#ff851b;stroke-width:28.3465;stroke-miterlimit:4.1" transform="matrix(-1.33333,0,0,-1.33333,1714.46,733.116)" id="path8" sodipodi:nodetypes="ccccccccccccc" inkscape:path-effect="#path-effect11" inkscape:original-d="m 0.068,13.95 136.34,136.37 96.473,96.494 60.125,60.138 232.814,232.864 m -525.75,0 L 525.818,13.95 M 0.07,276.883 C 39.476,237.477 72.976,203.977 102.34,176.382 l 64.542,-55.722 c 72.364,-54.626 119.825,-54.636 192.156,-0.03 l 64.533,55.73 c 29.357,27.6 62.85,61.107 102.25,100.523"/>
  </g>
  <g id="g13" transform="translate(4.3849104e-4,1578.4456)">
    <path d="m 0.068,13.95 136.34,136.37 96.473,96.494 M 293.0065,306.9525 525.82,539.816 m -525.75,0 L 525.818,13.95 M 0.07,276.883 C 39.47574,237.47726 72.975558,203.97744 102.33942,176.38255 m 64.54146,-55.72159 0.001,-9.6e-4 c 72.36375,-54.62581 119.82467,-54.636 192.15525,-0.0306 m 64.53306,55.72997 6.9e-4,6e-4 c 29.357,27.6 62.85,61.107 102.25,100.523" class="stroke-orange fill-orange" style="fill:none;stroke:#ff851b;stroke-width:28.3465;stroke-miterlimit:4.1" transform="matrix(1.33333,0,0,1.33333,13.273,-5.238)" id="path11" sodipodi:nodetypes="ccccccccccccc" inkscape:path-effect="#path-effect14" inkscape:original-d="m 0.068,13.95 136.34,136.37 96.473,96.494 60.125,60.138 232.814,232.864 m -525.75,0 L 525.818,13.95 M 0.07,276.883 C 39.476,237.477 72.976,203.977 102.34,176.382 l 64.542,-55.722 c 72.364,-54.626 119.825,-54.636 192.156,-0.03 l 64.533,55.73 c 29.357,27.6 62.85,61.107 102.25,100.523"/>
    <path id="path12" style="fill:#616161;stroke:none;stroke-width:28.3465;stroke-miterlimit:4.1" class="stroke-comment fill-comment" d="m 568.00086,303.03756 -90,51.96289 90,51.96094 v -33.29687 h 72 v 33.29687 l 90,-51.96094 -90,-51.96289 v 33.29688 h -72 z" transform="translate(259.88,8.939)"/>
    <path d="m 0.068,13.95 136.34,136.37 96.473,96.494 M 293.0065,306.9525 525.82,539.816 m -525.75,0 L 525.818,13.95 M 0.07,276.883 C 39.47574,237.47726 72.975558,203.97744 102.33942,176.38255 m 64.54146,-55.72159 0.001,-9.6e-4 c 72.36375,-54.62581 119.82467,-54.636 192.15525,-0.0306 m 64.53306,55.72997 6.9e-4,6e-4 c 29.357,27.6 62.85,61.107 102.25,100.523" class="stroke-orange fill-orange" style="fill:none;stroke:#ff851b;stroke-width:28.3465;stroke-miterlimit:4.1" transform="matrix(-1.33333,0,0,-1.33333,1714.46,733.116)" id="path13" sodipodi:nodetypes="ccccccccccccc" inkscape:path-effect="#path-effect16" inkscape:original-d="m 0.068,13.95 136.34,136.37 96.473,96.494 60.125,60.138 232.814,232.864 m -525.75,0 L 525.818,13.95 M 0.07,276.883 C 39.476,237.477 72.976,203.977 102.34,176.382 l 64.542,-55.722 c 72.364,-54.626 119.825,-54.636 192.156,-0.03 l 64.533,55.73 c 29.357,27.6 62.85,61.107 102.25,100.523"/>
  </g>
</svg>
